<?xml version="1.0" encoding="UTF-8" standalone="no"?>
<!DOCTYPE svg PUBLIC "-//W3C//DTD SVG 1.1//EN"
 "http://www.w3.org/Graphics/SVG/1.1/DTD/svg11.dtd">
<!-- Generated by graphviz version 2.43.0 (0)
 -->
<!-- Title: src/wmtk/io/Cache.hpp Pages: 1 -->
<!--zoomable 203 -->

<svg id="main" version="1.1" xmlns="http://www.w3.org/2000/svg" xmlns:xlink="http://www.w3.org/1999/xlink" xml:space="preserve" onload="init(evt)">
<style type="text/css"><![CDATA[
.node, .edge {opacity: 0.7;}
.node.selected, .edge.selected {opacity: 1;}
.edge:hover path { stroke: red; }
.edge:hover polygon { stroke: red; fill: red; }
]]></style>

<defs>
  <circle id="rim" cx="0" cy="0" r="7"/>
  <circle id="rim2" cx="0" cy="0" r="3.5"/>
  <g id="zoomPlus">
    <use xlink:href="#rim" fill="#404040"><set attributeName="fill" to="#808080" begin="zoomplus.mouseover" end="zoomplus.mouseout"/></use>
    <path d="M-4,0h8M0,-4v8" fill="none" stroke="white" stroke-width="1.5" pointer-events="none"/>
  </g>
  <g id="zoomMin">
    <use xlink:href="#rim" fill="#404040"><set attributeName="fill" to="#808080" begin="zoomminus.mouseover" end="zoomminus.mouseout"/></use>
    <path d="M-4,0h8" fill="none" stroke="white" stroke-width="1.5" pointer-events="none"/>
  </g>
  <g id="arrowUp" transform="translate(30 24)">
    <use xlink:href="#rim"/>
    <path pointer-events="none" fill="none" stroke="white" stroke-width="1.5" d="M0,-3.0v7 M-2.5,-0.5L0,-3.0L2.5,-0.5"/>
  </g>
  <g id="arrowRight" transform="rotate(90) translate(36 -43)">
    <use xlink:href="#rim"/>
    <path pointer-events="none" fill="none" stroke="white" stroke-width="1.5" d="M0,-3.0v7 M-2.5,-0.5L0,-3.0L2.5,-0.5"/>
  </g>
  <g id="arrowDown" transform="rotate(180) translate(-30 -48)">
    <use xlink:href="#rim"/>
    <path pointer-events="none" fill="none" stroke="white" stroke-width="1.5" d="M0,-3.0v7 M-2.5,-0.5L0,-3.0L2.5,-0.5"/>
  </g>
  <g id="arrowLeft" transform="rotate(270) translate(-36 17)">
    <use xlink:href="#rim"/>
    <path pointer-events="none" fill="none" stroke="white" stroke-width="1.5" d="M0,-3.0v7 M-2.5,-0.5L0,-3.0L2.5,-0.5"/>
  </g>
  <g id="resetDef">
    <use xlink:href="#rim2" fill="#404040"><set attributeName="fill" to="#808080" begin="reset.mouseover" end="reset.mouseout"/></use>
  </g>
</defs>
<script type="application/ecmascript">
var viewWidth = 3316;
var viewHeight = 203;
var sectionId = 'dynsection-1';
</script>
<script type="application/ecmascript" xlink:href="svg.min.js"/>
<svg id="graph" class="graph">
<g id="viewport">
<title>src/wmtk/io/Cache.hpp</title>
<!-- Node1 -->
<g id="Node000001" class="node">
<title>Node1</title>
<g id="a_Node000001"><a xlink:title=" ">
<polygon fill="#999999" stroke="#666666" points="1824.5,-195 1696.5,-195 1696.5,-176 1824.5,-176 1824.5,-195"/>
<text text-anchor="middle" x="1760.5" y="-183" font-family="Helvetica,sans-Serif" font-size="10.00">src/wmtk/io/Cache.hpp</text>
</a>
</g>
</g>
<!-- Node2 -->
<g id="Node000002" class="node">
<title>Node2</title>
<g id="a_Node000002"><a xlink:href="export__cache_8hpp.html" target="_top" xlink:title=" ">
<polygon fill="white" stroke="#666666" points="417,-134.5 272,-134.5 272,-93.5 417,-93.5 417,-134.5"/>
<text text-anchor="start" x="280" y="-122.5" font-family="Helvetica,sans-Serif" font-size="10.00">components/export_cache</text>
<text text-anchor="start" x="280" y="-111.5" font-family="Helvetica,sans-Serif" font-size="10.00">/wmtk/components/export</text>
<text text-anchor="middle" x="344.5" y="-100.5" font-family="Helvetica,sans-Serif" font-size="10.00">_cache/export_cache.hpp</text>
</a>
</g>
</g>
<!-- Node1&#45;&gt;Node2 -->
<g id="edge1_Node000001_Node000002" class="edge">
<title>Node1&#45;&gt;Node2</title>
<g id="a_edge1_Node000001_Node000002"><a xlink:title=" ">
<path fill="none" stroke="#63b8ff" d="M1685.91,-183.3C1449.55,-179.29 718.92,-165.14 483.5,-140 461.8,-137.68 438.39,-133.95 417.08,-130.08"/>
<polygon fill="#63b8ff" stroke="#63b8ff" points="1686.06,-186.81 1696.12,-183.48 1686.18,-179.81 1686.06,-186.81"/>
</a>
</g>
</g>
<!-- Node6 -->
<g id="Node000006" class="node">
<title>Node6</title>
<g id="a_Node000006"><a xlink:href="get__all__meshes_8hpp.html" target="_top" xlink:title=" ">
<polygon fill="white" stroke="#666666" points="810.5,-140 656.5,-140 656.5,-88 810.5,-88 810.5,-140"/>
<text text-anchor="start" x="664.5" y="-128" font-family="Helvetica,sans-Serif" font-size="10.00">components/get_all</text>
<text text-anchor="start" x="664.5" y="-117" font-family="Helvetica,sans-Serif" font-size="10.00">_meshes/wmtk/components</text>
<text text-anchor="start" x="664.5" y="-106" font-family="Helvetica,sans-Serif" font-size="10.00">/get_all_meshes/get_all</text>
<text text-anchor="middle" x="733.5" y="-95" font-family="Helvetica,sans-Serif" font-size="10.00">_meshes.hpp</text>
</a>
</g>
</g>
<!-- Node1&#45;&gt;Node6 -->
<g id="edge5_Node000001_Node000006" class="edge">
<title>Node1&#45;&gt;Node6</title>
<g id="a_edge5_Node000001_Node000006"><a xlink:title=" ">
<path fill="none" stroke="#63b8ff" d="M1686.08,-183.24C1494.14,-179.64 985.73,-167.69 819.5,-140 816.59,-139.51 813.63,-138.96 810.66,-138.36"/>
<polygon fill="#63b8ff" stroke="#63b8ff" points="1686.29,-186.75 1696.35,-183.43 1686.42,-179.75 1686.29,-186.75"/>
</a>
</g>
</g>
<!-- Node8 -->
<g id="Node000008" class="node">
<title>Node8</title>
<g id="a_Node000008"><a xlink:href="import__cache_8hpp.html" target="_top" xlink:title=" ">
<polygon fill="white" stroke="#666666" points="638.5,-134.5 492.5,-134.5 492.5,-93.5 638.5,-93.5 638.5,-134.5"/>
<text text-anchor="start" x="500.5" y="-122.5" font-family="Helvetica,sans-Serif" font-size="10.00">components/import_cache</text>
<text text-anchor="start" x="500.5" y="-111.5" font-family="Helvetica,sans-Serif" font-size="10.00">/wmtk/components/import</text>
<text text-anchor="middle" x="565.5" y="-100.5" font-family="Helvetica,sans-Serif" font-size="10.00">_cache/import_cache.hpp</text>
</a>
</g>
</g>
<!-- Node1&#45;&gt;Node8 -->
<g id="edge7_Node000001_Node000008" class="edge">
<title>Node1&#45;&gt;Node8</title>
<g id="a_edge7_Node000001_Node000008"><a xlink:title=" ">
<path fill="none" stroke="#63b8ff" d="M1685.94,-184C1470.21,-182.17 847.99,-173.99 647.5,-140 639.43,-138.63 631.04,-136.7 622.85,-134.5"/>
<polygon fill="#63b8ff" stroke="#63b8ff" points="1686.18,-187.5 1696.21,-184.09 1686.24,-180.5 1686.18,-187.5"/>
</a>
</g>
</g>
<!-- Node10 -->
<g id="Node000010" class="node">
<title>Node10</title>
<g id="a_Node000010"><a xlink:href="tests_2input_8cpp.html" target="_top" xlink:title=" ">
<polygon fill="white" stroke="#666666" points="960,-129 829,-129 829,-99 960,-99 960,-129"/>
<text text-anchor="start" x="837" y="-117" font-family="Helvetica,sans-Serif" font-size="10.00">components/input/tests</text>
<text text-anchor="middle" x="894.5" y="-106" font-family="Helvetica,sans-Serif" font-size="10.00">/input.cpp</text>
</a>
</g>
</g>
<!-- Node1&#45;&gt;Node10 -->
<g id="edge10_Node000001_Node000010" class="edge">
<title>Node1&#45;&gt;Node10</title>
<g id="a_edge10_Node000001_Node000010"><a xlink:title=" ">
<path fill="none" stroke="#63b8ff" d="M1686.33,-182.88C1516.71,-178.77 1104.65,-166.32 968.5,-140 955.59,-137.5 941.83,-133.31 929.73,-129.06"/>
<polygon fill="#63b8ff" stroke="#63b8ff" points="1686.34,-186.38 1696.42,-183.12 1686.51,-179.39 1686.34,-186.38"/>
</a>
</g>
</g>
<!-- Node11 -->
<g id="Node000011" class="node">
<title>Node11</title>
<g id="a_Node000011"><a xlink:href="periodic__optimization_8hpp.html" target="_top" xlink:title=" ">
<polygon fill="white" stroke="#666666" points="1191,-140 978,-140 978,-88 1191,-88 1191,-140"/>
<text text-anchor="start" x="986" y="-128" font-family="Helvetica,sans-Serif" font-size="10.00">components/isotropic</text>
<text text-anchor="start" x="986" y="-117" font-family="Helvetica,sans-Serif" font-size="10.00">_remeshing/wmtk/components</text>
<text text-anchor="start" x="986" y="-106" font-family="Helvetica,sans-Serif" font-size="10.00">/isotropic_remeshing/periodic</text>
<text text-anchor="middle" x="1084.5" y="-95" font-family="Helvetica,sans-Serif" font-size="10.00">_optimization/periodic_optimization.hpp</text>
</a>
</g>
</g>
<!-- Node1&#45;&gt;Node11 -->
<g id="edge11_Node000001_Node000011" class="edge">
<title>Node1&#45;&gt;Node11</title>
<g id="a_edge11_Node000001_Node000011"><a xlink:title=" ">
<path fill="none" stroke="#63b8ff" d="M1686.12,-181.8C1578.36,-177.15 1372.72,-165.58 1199.5,-140 1196.77,-139.6 1194.01,-139.17 1191.23,-138.71"/>
<polygon fill="#63b8ff" stroke="#63b8ff" points="1686.1,-185.3 1696.24,-182.22 1686.4,-178.3 1686.1,-185.3"/>
</a>
</g>
</g>
<!-- Node13 -->
<g id="Node000013" class="node">
<title>Node13</title>
<g id="a_Node000013"><a xlink:href="run__components_8hpp.html" target="_top" xlink:title=" ">
<polygon fill="white" stroke="#666666" points="1394,-129 1209,-129 1209,-99 1394,-99 1394,-129"/>
<text text-anchor="start" x="1217" y="-117" font-family="Helvetica,sans-Serif" font-size="10.00">components/main/wmtk</text>
<text text-anchor="middle" x="1301.5" y="-106" font-family="Helvetica,sans-Serif" font-size="10.00">/components/run_components.hpp</text>
</a>
</g>
</g>
<!-- Node1&#45;&gt;Node13 -->
<g id="edge13_Node000001_Node000013" class="edge">
<title>Node1&#45;&gt;Node13</title>
<g id="a_edge13_Node000001_Node000013"><a xlink:title=" ">
<path fill="none" stroke="#63b8ff" d="M1686.47,-177.89C1613.8,-170.8 1499.99,-158.06 1402.5,-140 1386.34,-137.01 1368.9,-132.98 1353.14,-129.04"/>
<polygon fill="#63b8ff" stroke="#63b8ff" points="1686.16,-181.38 1696.45,-178.86 1686.83,-174.41 1686.16,-181.38"/>
</a>
</g>
</g>
<!-- Node16 -->
<g id="Node000016" class="node">
<title>Node16</title>
<g id="a_Node000016"><a xlink:href="mesh__info_2tests_2volume_8cpp.html" target="_top" xlink:title=" ">
<polygon fill="white" stroke="#666666" points="1543,-129 1412,-129 1412,-99 1543,-99 1543,-129"/>
<text text-anchor="start" x="1420" y="-117" font-family="Helvetica,sans-Serif" font-size="10.00">components/mesh_info</text>
<text text-anchor="middle" x="1477.5" y="-106" font-family="Helvetica,sans-Serif" font-size="10.00">/tests/volume.cpp</text>
</a>
</g>
</g>
<!-- Node1&#45;&gt;Node16 -->
<g id="edge16_Node000001_Node000016" class="edge">
<title>Node1&#45;&gt;Node16</title>
<g id="a_edge16_Node000001_Node000016"><a xlink:title=" ">
<path fill="none" stroke="#63b8ff" d="M1706.47,-173.99C1665.39,-165.68 1607.6,-153.29 1557.5,-140 1545.26,-136.75 1532.1,-132.83 1520.06,-129.06"/>
<polygon fill="#63b8ff" stroke="#63b8ff" points="1705.79,-177.42 1716.28,-175.96 1707.17,-170.56 1705.79,-177.42"/>
</a>
</g>
</g>
<!-- Node17 -->
<g id="Node000017" class="node">
<title>Node17</title>
<g id="a_Node000017"><a xlink:href="regular__space_8cpp.html" target="_top" xlink:title=" ">
<polygon fill="white" stroke="#666666" points="1692.5,-52 1548.5,-52 1548.5,0 1692.5,0 1692.5,-52"/>
<text text-anchor="start" x="1556.5" y="-40" font-family="Helvetica,sans-Serif" font-size="10.00">components/regular</text>
<text text-anchor="start" x="1556.5" y="-29" font-family="Helvetica,sans-Serif" font-size="10.00">_space/wmtk/components</text>
<text text-anchor="start" x="1556.5" y="-18" font-family="Helvetica,sans-Serif" font-size="10.00">/regular_space/regular</text>
<text text-anchor="middle" x="1620.5" y="-7" font-family="Helvetica,sans-Serif" font-size="10.00">_space.cpp</text>
</a>
</g>
</g>
<!-- Node1&#45;&gt;Node17 -->
<g id="edge17_Node000001_Node000017" class="edge">
<title>Node1&#45;&gt;Node17</title>
<g id="a_edge17_Node000001_Node000017"><a xlink:title=" ">
<path fill="none" stroke="#63b8ff" d="M1686.28,-174.18C1646.26,-166.92 1602.62,-155.7 1590.5,-140 1570.78,-114.45 1587.13,-77.05 1602.35,-52.37"/>
<polygon fill="#63b8ff" stroke="#63b8ff" points="1685.91,-177.66 1696.36,-175.94 1687.11,-170.77 1685.91,-177.66"/>
</a>
</g>
</g>
<!-- Node18 -->
<g id="Node000018" class="node">
<title>Node18</title>
<g id="a_Node000018"><a xlink:href="regular__space_8hpp.html" target="_top" xlink:title=" ">
<polygon fill="white" stroke="#666666" points="1743.5,-140 1599.5,-140 1599.5,-88 1743.5,-88 1743.5,-140"/>
<text text-anchor="start" x="1607.5" y="-128" font-family="Helvetica,sans-Serif" font-size="10.00">components/regular</text>
<text text-anchor="start" x="1607.5" y="-117" font-family="Helvetica,sans-Serif" font-size="10.00">_space/wmtk/components</text>
<text text-anchor="start" x="1607.5" y="-106" font-family="Helvetica,sans-Serif" font-size="10.00">/regular_space/regular</text>
<text text-anchor="middle" x="1671.5" y="-95" font-family="Helvetica,sans-Serif" font-size="10.00">_space.hpp</text>
</a>
</g>
</g>
<!-- Node1&#45;&gt;Node18 -->
<g id="edge18_Node000001_Node000018" class="edge">
<title>Node1&#45;&gt;Node18</title>
<g id="a_edge18_Node000001_Node000018"><a xlink:title=" ">
<path fill="none" stroke="#63b8ff" d="M1741.51,-169.67C1730.48,-161.06 1716.3,-149.98 1703.58,-140.05"/>
<polygon fill="#63b8ff" stroke="#63b8ff" points="1739.55,-172.58 1749.59,-175.98 1743.86,-167.06 1739.55,-172.58"/>
</a>
</g>
</g>
<!-- Node20 -->
<g id="Node000020" class="node">
<title>Node20</title>
<g id="a_Node000020"><a xlink:href="simplicial__embedding_8cpp.html" target="_top" xlink:title=" ">
<polygon fill="white" stroke="#666666" points="1939,-140 1762,-140 1762,-88 1939,-88 1939,-140"/>
<text text-anchor="start" x="1770" y="-128" font-family="Helvetica,sans-Serif" font-size="10.00">components/simplicial</text>
<text text-anchor="start" x="1770" y="-117" font-family="Helvetica,sans-Serif" font-size="10.00">_embedding/wmtk/components</text>
<text text-anchor="start" x="1770" y="-106" font-family="Helvetica,sans-Serif" font-size="10.00">/simplicial_embedding/simplicial</text>
<text text-anchor="middle" x="1850.5" y="-95" font-family="Helvetica,sans-Serif" font-size="10.00">_embedding.cpp</text>
</a>
</g>
</g>
<!-- Node1&#45;&gt;Node20 -->
<g id="edge21_Node000001_Node000020" class="edge">
<title>Node1&#45;&gt;Node20</title>
<g id="a_edge21_Node000001_Node000020"><a xlink:title=" ">
<path fill="none" stroke="#63b8ff" d="M1779.71,-169.67C1790.86,-161.06 1805.2,-149.98 1818.06,-140.05"/>
<polygon fill="#63b8ff" stroke="#63b8ff" points="1777.31,-167.1 1771.54,-175.98 1781.59,-172.64 1777.31,-167.1"/>
</a>
</g>
</g>
<!-- Node21 -->
<g id="Node000021" class="node">
<title>Node21</title>
<g id="a_Node000021"><a xlink:href="tag__intersection_8hpp.html" target="_top" xlink:title=" ">
<polygon fill="white" stroke="#666666" points="2149.5,-134.5 1957.5,-134.5 1957.5,-93.5 2149.5,-93.5 2149.5,-134.5"/>
<text text-anchor="start" x="1965.5" y="-122.5" font-family="Helvetica,sans-Serif" font-size="10.00">components/tag_intersection</text>
<text text-anchor="start" x="1965.5" y="-111.5" font-family="Helvetica,sans-Serif" font-size="10.00">/wmtk/components/tag_intersection</text>
<text text-anchor="middle" x="2053.5" y="-100.5" font-family="Helvetica,sans-Serif" font-size="10.00">/tag_intersection.hpp</text>
</a>
</g>
</g>
<!-- Node1&#45;&gt;Node21 -->
<g id="edge22_Node000001_Node000021" class="edge">
<title>Node1&#45;&gt;Node21</title>
<g id="a_edge22_Node000001_Node000021"><a xlink:title=" ">
<path fill="none" stroke="#63b8ff" d="M1806.27,-173.64C1850.28,-163.2 1917.81,-147.19 1971.18,-134.53"/>
<polygon fill="#63b8ff" stroke="#63b8ff" points="1805.35,-170.26 1796.43,-175.98 1806.97,-177.08 1805.35,-170.26"/>
</a>
</g>
</g>
<!-- Node24 -->
<g id="Node000024" class="node">
<title>Node24</title>
<g id="a_Node000024"><a xlink:href="test__component__fusion_8cpp.html" target="_top" xlink:title=" ">
<polygon fill="white" stroke="#666666" points="2299.5,-129 2167.5,-129 2167.5,-99 2299.5,-99 2299.5,-129"/>
<text text-anchor="start" x="2175.5" y="-117" font-family="Helvetica,sans-Serif" font-size="10.00">components/tests/test</text>
<text text-anchor="middle" x="2233.5" y="-106" font-family="Helvetica,sans-Serif" font-size="10.00">_component_fusion.cpp</text>
</a>
</g>
</g>
<!-- Node1&#45;&gt;Node24 -->
<g id="edge25_Node000001_Node000024" class="edge">
<title>Node1&#45;&gt;Node24</title>
<g id="a_edge25_Node000001_Node000024"><a xlink:title=" ">
<path fill="none" stroke="#63b8ff" d="M1834.63,-180.88C1915.14,-175.87 2047.15,-164.5 2158.5,-140 2171.1,-137.23 2184.56,-133.12 2196.55,-129.03"/>
<polygon fill="#63b8ff" stroke="#63b8ff" points="1834.36,-177.39 1824.59,-181.49 1834.78,-184.38 1834.36,-177.39"/>
</a>
</g>
</g>
<!-- Node25 -->
<g id="Node000025" class="node">
<title>Node25</title>
<g id="a_Node000025"><a xlink:href="test__component__isotropic__remeshing_8cpp.html" target="_top" xlink:title=" ">
<polygon fill="white" stroke="#666666" points="2443,-134.5 2318,-134.5 2318,-93.5 2443,-93.5 2443,-134.5"/>
<text text-anchor="start" x="2326" y="-122.5" font-family="Helvetica,sans-Serif" font-size="10.00">components/tests/test</text>
<text text-anchor="start" x="2326" y="-111.5" font-family="Helvetica,sans-Serif" font-size="10.00">_component_isotropic</text>
<text text-anchor="middle" x="2380.5" y="-100.5" font-family="Helvetica,sans-Serif" font-size="10.00">_remeshing.cpp</text>
</a>
</g>
</g>
<!-- Node1&#45;&gt;Node25 -->
<g id="edge26_Node000001_Node000025" class="edge">
<title>Node1&#45;&gt;Node25</title>
<g id="a_edge26_Node000001_Node000025"><a xlink:title=" ">
<path fill="none" stroke="#63b8ff" d="M1834.82,-184.39C1941.01,-182.9 2141.73,-175.13 2308.5,-140 2315.36,-138.55 2322.47,-136.64 2329.43,-134.5"/>
<polygon fill="#63b8ff" stroke="#63b8ff" points="1834.49,-180.9 1824.54,-184.52 1834.58,-187.89 1834.49,-180.9"/>
</a>
</g>
</g>
<!-- Node26 -->
<g id="Node000026" class="node">
<title>Node26</title>
<g id="a_Node000026"><a xlink:href="test__component__mesh__info_8cpp.html" target="_top" xlink:title=" ">
<polygon fill="white" stroke="#666666" points="2614,-129 2461,-129 2461,-99 2614,-99 2614,-129"/>
<text text-anchor="start" x="2469" y="-117" font-family="Helvetica,sans-Serif" font-size="10.00">components/tests/test</text>
<text text-anchor="middle" x="2537.5" y="-106" font-family="Helvetica,sans-Serif" font-size="10.00">_component_mesh_info.cpp</text>
</a>
</g>
</g>
<!-- Node1&#45;&gt;Node26 -->
<g id="edge27_Node000001_Node000026" class="edge">
<title>Node1&#45;&gt;Node26</title>
<g id="a_edge27_Node000001_Node000026"><a xlink:title=" ">
<path fill="none" stroke="#63b8ff" d="M1834.54,-185.1C1961.85,-184.93 2230.03,-179.37 2452.5,-140 2467.04,-137.43 2482.63,-133.27 2496.43,-129.07"/>
<polygon fill="#63b8ff" stroke="#63b8ff" points="1834.51,-181.6 1824.51,-185.1 1834.51,-188.6 1834.51,-181.6"/>
</a>
</g>
</g>
<!-- Node27 -->
<g id="Node000027" class="node">
<title>Node27</title>
<g id="a_Node000027"><a xlink:href="test__component__procedural_8cpp.html" target="_top" xlink:title=" ">
<polygon fill="white" stroke="#666666" points="2786.5,-129 2632.5,-129 2632.5,-99 2786.5,-99 2786.5,-129"/>
<text text-anchor="start" x="2640.5" y="-117" font-family="Helvetica,sans-Serif" font-size="10.00">components/tests/test</text>
<text text-anchor="middle" x="2709.5" y="-106" font-family="Helvetica,sans-Serif" font-size="10.00">_component_procedural.cpp</text>
</a>
</g>
</g>
<!-- Node1&#45;&gt;Node27 -->
<g id="edge28_Node000001_Node000027" class="edge">
<title>Node1&#45;&gt;Node27</title>
<g id="a_edge28_Node000001_Node000027"><a xlink:title=" ">
<path fill="none" stroke="#63b8ff" d="M1834.73,-182.88C2015.11,-178.58 2472.76,-165.44 2623.5,-140 2638.37,-137.49 2654.32,-133.29 2668.4,-129.05"/>
<polygon fill="#63b8ff" stroke="#63b8ff" points="1834.45,-179.38 1824.54,-183.12 1834.62,-186.38 1834.45,-179.38"/>
</a>
</g>
</g>
<!-- Node28 -->
<g id="Node000028" class="node">
<title>Node28</title>
<g id="a_Node000028"><a xlink:href="test__component__wildmeshing_8cpp.html" target="_top" xlink:title=" ">
<polygon fill="white" stroke="#666666" points="2968.5,-129 2804.5,-129 2804.5,-99 2968.5,-99 2968.5,-129"/>
<text text-anchor="start" x="2812.5" y="-117" font-family="Helvetica,sans-Serif" font-size="10.00">components/tests/test</text>
<text text-anchor="middle" x="2886.5" y="-106" font-family="Helvetica,sans-Serif" font-size="10.00">_component_wildmeshing.cpp</text>
</a>
</g>
</g>
<!-- Node1&#45;&gt;Node28 -->
<g id="edge29_Node000001_Node000028" class="edge">
<title>Node1&#45;&gt;Node28</title>
<g id="a_edge29_Node000001_Node000028"><a xlink:title=" ">
<path fill="none" stroke="#63b8ff" d="M1834.74,-183.48C2039.64,-180.31 2610.17,-169.06 2795.5,-140 2811.2,-137.54 2828.07,-133.35 2842.96,-129.1"/>
<polygon fill="#63b8ff" stroke="#63b8ff" points="1834.62,-179.98 1824.68,-183.63 1834.73,-186.98 1834.62,-179.98"/>
</a>
</g>
</g>
<!-- Node29 -->
<g id="Node000029" class="node">
<title>Node29</title>
<g id="a_Node000029"><a xlink:href="wildmeshing__old_8hpp.html" target="_top" xlink:title=" ">
<polygon fill="white" stroke="#666666" points="3162.5,-134.5 2986.5,-134.5 2986.5,-93.5 3162.5,-93.5 3162.5,-134.5"/>
<text text-anchor="start" x="2994.5" y="-122.5" font-family="Helvetica,sans-Serif" font-size="10.00">components/wildmeshing</text>
<text text-anchor="start" x="2994.5" y="-111.5" font-family="Helvetica,sans-Serif" font-size="10.00">/wmtk/components/wildmeshing</text>
<text text-anchor="middle" x="3074.5" y="-100.5" font-family="Helvetica,sans-Serif" font-size="10.00">/wildmeshing_old.hpp</text>
</a>
</g>
</g>
<!-- Node1&#45;&gt;Node29 -->
<g id="edge30_Node000001_Node000029" class="edge">
<title>Node1&#45;&gt;Node29</title>
<g id="a_edge30_Node000001_Node000029"><a xlink:title=" ">
<path fill="none" stroke="#63b8ff" d="M1834.77,-183.88C2063.51,-181.65 2755.21,-172.32 2977.5,-140 2986.88,-138.64 2996.66,-136.72 3006.25,-134.55"/>
<polygon fill="#63b8ff" stroke="#63b8ff" points="1834.52,-180.38 1824.56,-183.98 1834.59,-187.38 1834.52,-180.38"/>
</a>
</g>
</g>
<!-- Node30 -->
<g id="Node000030" class="node">
<title>Node30</title>
<g id="a_Node000030"><a xlink:href="_cache_8cpp.html" target="_top" xlink:title=" ">
<polygon fill="white" stroke="#666666" points="3308,-123.5 3181,-123.5 3181,-104.5 3308,-104.5 3308,-123.5"/>
<text text-anchor="middle" x="3244.5" y="-111.5" font-family="Helvetica,sans-Serif" font-size="10.00">src/wmtk/io/Cache.cpp</text>
</a>
</g>
</g>
<!-- Node1&#45;&gt;Node30 -->
<g id="edge31_Node000001_Node000030" class="edge">
<title>Node1&#45;&gt;Node30</title>
<g id="a_edge31_Node000001_Node000030"><a xlink:title=" ">
<path fill="none" stroke="#63b8ff" d="M1834.66,-183.45C2106.58,-179.44 3039.91,-164.05 3171.5,-140 3190.08,-136.6 3210.34,-129.37 3224.79,-123.55"/>
<polygon fill="#63b8ff" stroke="#63b8ff" points="1834.45,-179.96 1824.5,-183.6 1834.55,-186.96 1834.45,-179.96"/>
</a>
</g>
</g>
<!-- Node3 -->
<g id="Node000003" class="node">
<title>Node3</title>
<g id="a_Node000003"><a xlink:href="export__cache_8cpp.html" target="_top" xlink:title=" ">
<polygon fill="white" stroke="#666666" points="145,-46.5 0,-46.5 0,-5.5 145,-5.5 145,-46.5"/>
<text text-anchor="start" x="8" y="-34.5" font-family="Helvetica,sans-Serif" font-size="10.00">components/export_cache</text>
<text text-anchor="start" x="8" y="-23.5" font-family="Helvetica,sans-Serif" font-size="10.00">/wmtk/components/export</text>
<text text-anchor="middle" x="72.5" y="-12.5" font-family="Helvetica,sans-Serif" font-size="10.00">_cache/export_cache.cpp</text>
</a>
</g>
</g>
<!-- Node2&#45;&gt;Node3 -->
<g id="edge2_Node000002_Node000003" class="edge">
<title>Node2&#45;&gt;Node3</title>
<g id="a_edge2_Node000002_Node000003"><a xlink:title=" ">
<path fill="none" stroke="#63b8ff" d="M273.21,-90.46C230.12,-76.84 175.73,-59.64 134.45,-46.59"/>
<polygon fill="#63b8ff" stroke="#63b8ff" points="272.19,-93.81 282.78,-93.49 274.3,-87.13 272.19,-93.81"/>
</a>
</g>
</g>
<!-- Node4 -->
<g id="Node000004" class="node">
<title>Node4</title>
<g id="a_Node000004"><a xlink:href="test__component__export__cache_8cpp.html" target="_top" xlink:title=" ">
<polygon fill="white" stroke="#666666" points="330,-41 163,-41 163,-11 330,-11 330,-41"/>
<text text-anchor="start" x="171" y="-29" font-family="Helvetica,sans-Serif" font-size="10.00">components/tests/test</text>
<text text-anchor="middle" x="246.5" y="-18" font-family="Helvetica,sans-Serif" font-size="10.00">_component_export_cache.cpp</text>
</a>
</g>
</g>
<!-- Node2&#45;&gt;Node4 -->
<g id="edge3_Node000002_Node000004" class="edge">
<title>Node2&#45;&gt;Node4</title>
<g id="a_edge3_Node000002_Node000004"><a xlink:title=" ">
<path fill="none" stroke="#63b8ff" d="M314.68,-86.83C297.52,-71.78 276.64,-53.45 262.54,-41.08"/>
<polygon fill="#63b8ff" stroke="#63b8ff" points="312.44,-89.52 322.26,-93.49 317.05,-84.26 312.44,-89.52"/>
</a>
</g>
</g>
<!-- Node5 -->
<g id="Node000005" class="node">
<title>Node5</title>
<g id="a_Node000005"><a xlink:href="test__component__import__cache_8cpp.html" target="_top" xlink:title=" ">
<polygon fill="white" stroke="#666666" points="515.5,-41 347.5,-41 347.5,-11 515.5,-11 515.5,-41"/>
<text text-anchor="start" x="355.5" y="-29" font-family="Helvetica,sans-Serif" font-size="10.00">components/tests/test</text>
<text text-anchor="middle" x="431.5" y="-18" font-family="Helvetica,sans-Serif" font-size="10.00">_component_import_cache.cpp</text>
</a>
</g>
</g>
<!-- Node2&#45;&gt;Node5 -->
<g id="edge4_Node000002_Node000005" class="edge">
<title>Node2&#45;&gt;Node5</title>
<g id="a_edge4_Node000002_Node000005"><a xlink:title=" ">
<path fill="none" stroke="#63b8ff" d="M371.39,-86.42C386.54,-71.45 404.85,-53.34 417.26,-41.08"/>
<polygon fill="#63b8ff" stroke="#63b8ff" points="368.89,-83.97 364.24,-93.49 373.81,-88.94 368.89,-83.97"/>
</a>
</g>
</g>
<!-- Node7 -->
<g id="Node000007" class="node">
<title>Node7</title>
<g id="a_Node000007"><a xlink:href="get__all__meshes_8cpp.html" target="_top" xlink:title=" ">
<polygon fill="white" stroke="#666666" points="851.5,-52 697.5,-52 697.5,0 851.5,0 851.5,-52"/>
<text text-anchor="start" x="705.5" y="-40" font-family="Helvetica,sans-Serif" font-size="10.00">components/get_all</text>
<text text-anchor="start" x="705.5" y="-29" font-family="Helvetica,sans-Serif" font-size="10.00">_meshes/wmtk/components</text>
<text text-anchor="start" x="705.5" y="-18" font-family="Helvetica,sans-Serif" font-size="10.00">/get_all_meshes/get_all</text>
<text text-anchor="middle" x="774.5" y="-7" font-family="Helvetica,sans-Serif" font-size="10.00">_meshes.cpp</text>
</a>
</g>
</g>
<!-- Node6&#45;&gt;Node7 -->
<g id="edge6_Node000006_Node000007" class="edge">
<title>Node6&#45;&gt;Node7</title>
<g id="a_edge6_Node000006_Node000007"><a xlink:title=" ">
<path fill="none" stroke="#63b8ff" d="M749.99,-78.4C754.18,-69.63 758.59,-60.36 762.51,-52.16"/>
<polygon fill="#63b8ff" stroke="#63b8ff" points="746.72,-77.13 745.58,-87.66 753.04,-80.14 746.72,-77.13"/>
</a>
</g>
</g>
<!-- Node8&#45;&gt;Node5 -->
<g id="edge9_Node000008_Node000005" class="edge">
<title>Node8&#45;&gt;Node5</title>
<g id="a_edge9_Node000008_Node000005"><a xlink:title=" ">
<path fill="none" stroke="#63b8ff" d="M526.62,-88.04C502.82,-72.77 473.23,-53.78 453.44,-41.08"/>
<polygon fill="#63b8ff" stroke="#63b8ff" points="524.79,-91.03 535.09,-93.49 528.57,-85.14 524.79,-91.03"/>
</a>
</g>
</g>
<!-- Node9 -->
<g id="Node000009" class="node">
<title>Node9</title>
<g id="a_Node000009"><a xlink:href="import__cache_8cpp.html" target="_top" xlink:title=" ">
<polygon fill="white" stroke="#666666" points="679.5,-46.5 533.5,-46.5 533.5,-5.5 679.5,-5.5 679.5,-46.5"/>
<text text-anchor="start" x="541.5" y="-34.5" font-family="Helvetica,sans-Serif" font-size="10.00">components/import_cache</text>
<text text-anchor="start" x="541.5" y="-23.5" font-family="Helvetica,sans-Serif" font-size="10.00">/wmtk/components/import</text>
<text text-anchor="middle" x="606.5" y="-12.5" font-family="Helvetica,sans-Serif" font-size="10.00">_cache/import_cache.cpp</text>
</a>
</g>
</g>
<!-- Node8&#45;&gt;Node9 -->
<g id="edge8_Node000008_Node000009" class="edge">
<title>Node8&#45;&gt;Node9</title>
<g id="a_edge8_Node000008_Node000009"><a xlink:title=" ">
<path fill="none" stroke="#63b8ff" d="M579.11,-84.46C585,-72.09 591.76,-57.91 597.09,-46.74"/>
<polygon fill="#63b8ff" stroke="#63b8ff" points="575.95,-82.95 574.8,-93.49 582.27,-85.96 575.95,-82.95"/>
</a>
</g>
</g>
<!-- Node12 -->
<g id="Node000012" class="node">
<title>Node12</title>
<g id="a_Node000012"><a xlink:href="periodic__optimization_8cpp.html" target="_top" xlink:title=" ">
<polygon fill="white" stroke="#666666" points="1150.5,-52 938.5,-52 938.5,0 1150.5,0 1150.5,-52"/>
<text text-anchor="start" x="946.5" y="-40" font-family="Helvetica,sans-Serif" font-size="10.00">components/isotropic</text>
<text text-anchor="start" x="946.5" y="-29" font-family="Helvetica,sans-Serif" font-size="10.00">_remeshing/wmtk/components</text>
<text text-anchor="start" x="946.5" y="-18" font-family="Helvetica,sans-Serif" font-size="10.00">/isotropic_remeshing/periodic</text>
<text text-anchor="middle" x="1044.5" y="-7" font-family="Helvetica,sans-Serif" font-size="10.00">_optimization/periodic_optimization.cpp</text>
</a>
</g>
</g>
<!-- Node11&#45;&gt;Node12 -->
<g id="edge12_Node000011_Node000012" class="edge">
<title>Node11&#45;&gt;Node12</title>
<g id="a_edge12_Node000011_Node000012"><a xlink:title=" ">
<path fill="none" stroke="#63b8ff" d="M1068.41,-78.4C1064.33,-69.63 1060.02,-60.36 1056.2,-52.16"/>
<polygon fill="#63b8ff" stroke="#63b8ff" points="1065.32,-80.07 1072.72,-87.66 1071.67,-77.12 1065.32,-80.07"/>
</a>
</g>
</g>
<!-- Node14 -->
<g id="Node000014" class="node">
<title>Node14</title>
<g id="a_Node000014"><a xlink:href="run__components_8cpp.html" target="_top" xlink:title=" ">
<polygon fill="white" stroke="#666666" points="1352.5,-41 1168.5,-41 1168.5,-11 1352.5,-11 1352.5,-41"/>
<text text-anchor="start" x="1176.5" y="-29" font-family="Helvetica,sans-Serif" font-size="10.00">components/main/wmtk</text>
<text text-anchor="middle" x="1260.5" y="-18" font-family="Helvetica,sans-Serif" font-size="10.00">/components/run_components.cpp</text>
</a>
</g>
</g>
<!-- Node13&#45;&gt;Node14 -->
<g id="edge14_Node000013_Node000014" class="edge">
<title>Node13&#45;&gt;Node14</title>
<g id="a_edge14_Node000013_Node000014"><a xlink:title=" ">
<path fill="none" stroke="#63b8ff" d="M1290.24,-89.38C1282.88,-73.94 1273.52,-54.3 1267.28,-41.22"/>
<polygon fill="#63b8ff" stroke="#63b8ff" points="1287.27,-91.28 1294.73,-98.8 1293.59,-88.27 1287.27,-91.28"/>
</a>
</g>
</g>
<!-- Node15 -->
<g id="Node000015" class="node">
<title>Node15</title>
<g id="a_Node000015"><a xlink:href="integration__test_8cpp.html" target="_top" xlink:title=" ">
<polygon fill="white" stroke="#666666" points="1530.5,-41 1370.5,-41 1370.5,-11 1530.5,-11 1530.5,-41"/>
<text text-anchor="start" x="1378.5" y="-29" font-family="Helvetica,sans-Serif" font-size="10.00">components/tests/integration</text>
<text text-anchor="middle" x="1450.5" y="-18" font-family="Helvetica,sans-Serif" font-size="10.00">_test.cpp</text>
</a>
</g>
</g>
<!-- Node13&#45;&gt;Node15 -->
<g id="edge15_Node000013_Node000015" class="edge">
<title>Node13&#45;&gt;Node15</title>
<g id="a_edge15_Node000013_Node000015"><a xlink:title=" ">
<path fill="none" stroke="#63b8ff" d="M1334.71,-93.83C1362.45,-77.82 1401.35,-55.37 1426.24,-41"/>
<polygon fill="#63b8ff" stroke="#63b8ff" points="1332.68,-90.96 1325.77,-98.99 1336.18,-97.02 1332.68,-90.96"/>
</a>
</g>
</g>
<!-- Node18&#45;&gt;Node17 -->
<g id="edge19_Node000018_Node000017" class="edge">
<title>Node18&#45;&gt;Node17</title>
<g id="a_edge19_Node000018_Node000017"><a xlink:title=" ">
<path fill="none" stroke="#63b8ff" d="M1651.31,-78.96C1646.01,-70.02 1640.39,-60.54 1635.42,-52.16"/>
<polygon fill="#63b8ff" stroke="#63b8ff" points="1648.36,-80.85 1656.47,-87.66 1654.38,-77.28 1648.36,-80.85"/>
</a>
</g>
</g>
<!-- Node19 -->
<g id="Node000019" class="node">
<title>Node19</title>
<g id="a_Node000019"><a xlink:href="test__component__regular__space_8cpp.html" target="_top" xlink:title=" ">
<polygon fill="white" stroke="#666666" points="1880.5,-41 1710.5,-41 1710.5,-11 1880.5,-11 1880.5,-41"/>
<text text-anchor="start" x="1718.5" y="-29" font-family="Helvetica,sans-Serif" font-size="10.00">components/tests/test</text>
<text text-anchor="middle" x="1795.5" y="-18" font-family="Helvetica,sans-Serif" font-size="10.00">_component_regular_space.cpp</text>
</a>
</g>
</g>
<!-- Node18&#45;&gt;Node19 -->
<g id="edge20_Node000018_Node000019" class="edge">
<title>Node18&#45;&gt;Node19</title>
<g id="a_edge20_Node000018_Node000019"><a xlink:title=" ">
<path fill="none" stroke="#63b8ff" d="M1716.18,-82.02C1736.4,-67.99 1759.3,-52.11 1775.28,-41.03"/>
<polygon fill="#63b8ff" stroke="#63b8ff" points="1713.92,-79.32 1707.7,-87.89 1717.91,-85.07 1713.92,-79.32"/>
</a>
</g>
</g>
<!-- Node22 -->
<g id="Node000022" class="node">
<title>Node22</title>
<g id="a_Node000022"><a xlink:href="tag__intersection_8cpp.html" target="_top" xlink:title=" ">
<polygon fill="white" stroke="#666666" points="2120.5,-46.5 1928.5,-46.5 1928.5,-5.5 2120.5,-5.5 2120.5,-46.5"/>
<text text-anchor="start" x="1936.5" y="-34.5" font-family="Helvetica,sans-Serif" font-size="10.00">components/tag_intersection</text>
<text text-anchor="start" x="1936.5" y="-23.5" font-family="Helvetica,sans-Serif" font-size="10.00">/wmtk/components/tag_intersection</text>
<text text-anchor="middle" x="2024.5" y="-12.5" font-family="Helvetica,sans-Serif" font-size="10.00">/tag_intersection.cpp</text>
</a>
</g>
</g>
<!-- Node21&#45;&gt;Node22 -->
<g id="edge23_Node000021_Node000022" class="edge">
<title>Node21&#45;&gt;Node22</title>
<g id="a_edge23_Node000021_Node000022"><a xlink:title=" ">
<path fill="none" stroke="#63b8ff" d="M2043.63,-83.73C2039.52,-71.53 2034.85,-57.69 2031.15,-46.74"/>
<polygon fill="#63b8ff" stroke="#63b8ff" points="2040.41,-85.13 2046.92,-93.49 2047.04,-82.89 2040.41,-85.13"/>
</a>
</g>
</g>
<!-- Node23 -->
<g id="Node000023" class="node">
<title>Node23</title>
<g id="a_Node000023"><a xlink:href="test__component__tag__intersection_8cpp.html" target="_top" xlink:title=" ">
<polygon fill="white" stroke="#666666" points="2320,-41 2139,-41 2139,-11 2320,-11 2320,-41"/>
<text text-anchor="start" x="2147" y="-29" font-family="Helvetica,sans-Serif" font-size="10.00">components/tests/test</text>
<text text-anchor="middle" x="2229.5" y="-18" font-family="Helvetica,sans-Serif" font-size="10.00">_component_tag_intersection.cpp</text>
</a>
</g>
</g>
<!-- Node21&#45;&gt;Node23 -->
<g id="edge24_Node000021_Node000023" class="edge">
<title>Node21&#45;&gt;Node23</title>
<g id="a_edge24_Node000021_Node000023"><a xlink:title=" ">
<path fill="none" stroke="#63b8ff" d="M2102.53,-89.04C2134.12,-73.61 2174.11,-54.06 2200.69,-41.08"/>
<polygon fill="#63b8ff" stroke="#63b8ff" points="2100.89,-85.95 2093.44,-93.49 2103.96,-92.24 2100.89,-85.95"/>
</a>
</g>
</g>
</g>
</svg>

<g id="navigator" transform="translate(0 0)" fill="#404254">
  <rect fill="#f2f5e9" fill-opacity="0.5" stroke="#606060" stroke-width=".5" x="0" y="0" width="60" height="60"/>
  <use id="zoomplus" xlink:href="#zoomPlus" x="17" y="9" onmousedown="handleZoom(evt,'in')"/>
  <use id="zoomminus" xlink:href="#zoomMin" x="42" y="9" onmousedown="handleZoom(evt,'out')"/>
  <use id="reset" xlink:href="#resetDef" x="30" y="36" onmousedown="handleReset()"/>
   <use id="arrowup" xlink:href="#arrowUp" x="0" y="0" onmousedown="handlePan(0,-1)"/>
  <use id="arrowright" xlink:href="#arrowRight" x="0" y="0" onmousedown="handlePan(1,0)"/>
  <use id="arrowdown" xlink:href="#arrowDown" x="0" y="0" onmousedown="handlePan(0,1)"/>
  <use id="arrowleft" xlink:href="#arrowLeft" x="0" y="0" onmousedown="handlePan(-1,0)"/>
</g>
<svg viewBox="0 0 15 15" width="100%" height="30px" preserveAspectRatio="xMaxYMin meet">
 <g id="arrow_out" transform="scale(0.3 0.3)">
  <a xlink:href="_cache_8hpp__dep__incl_org.svg" target="_base">
   <rect id="button" ry="5" rx="5" y="6" x="6" height="38" width="38"
        fill="#f2f5e9" fill-opacity="0.5" stroke="#606060" stroke-width="1.0"/>
   <path id="arrow"
     d="M 11.500037,31.436501 C 11.940474,20.09759 22.043105,11.32322 32.158766,21.979434 L 37.068811,17.246167 C 37.068811,17.246167 37.088388,32 37.088388,32 L 22.160133,31.978069 C 22.160133,31.978069 26.997745,27.140456 26.997745,27.140456 C 18.528582,18.264221 13.291696,25.230495 11.500037,31.436501 z"
     style="fill:#404040;"/>
  </a>
 </g>
</svg>

<style type='text/css'>
<![CDATA[
[data-mouse-over-selected='false'] { opacity: 0.7; }
[data-mouse-over-selected='true']  { opacity: 1.0; }
]]>
</style>
<script type="application/ecmascript"><![CDATA[
document.addEventListener('DOMContentLoaded', (event) => {
  highlightEdges();
  highlightAdjacentNodes();
});
]]></script>
</svg>
