<?xml version="1.0" encoding="UTF-8" standalone="no"?>
<!DOCTYPE svg PUBLIC "-//W3C//DTD SVG 1.1//EN"
 "http://www.w3.org/Graphics/SVG/1.1/DTD/svg11.dtd">
<!-- Generated by graphviz version 2.43.0 (0)
 -->
<!-- Title: src/wmtk/operations/attribute_new/NewAttributeStrategy.hpp Pages: 1 -->
<svg width="922pt" height="346pt"
 viewBox="0.00 0.00 921.50 346.00" xmlns="http://www.w3.org/2000/svg" xmlns:xlink="http://www.w3.org/1999/xlink">
<g id="graph0" class="graph" transform="scale(1 1) rotate(0) translate(4 342)">
<title>src/wmtk/operations/attribute_new/NewAttributeStrategy.hpp</title>
<!-- Node1 -->
<g id="Node000001" class="node">
<title>Node1</title>
<g id="a_Node000001"><a xlink:title=" ">
<polygon fill="#999999" stroke="#666666" points="493.5,-338 338.5,-338 338.5,-297 493.5,-297 493.5,-338"/>
<text text-anchor="start" x="346.5" y="-326" font-family="Helvetica,sans-Serif" font-size="10.00">src/wmtk/operations</text>
<text text-anchor="start" x="346.5" y="-315" font-family="Helvetica,sans-Serif" font-size="10.00">/attribute_new/NewAttribute</text>
<text text-anchor="middle" x="416" y="-304" font-family="Helvetica,sans-Serif" font-size="10.00">Strategy.hpp</text>
</a>
</g>
</g>
<!-- Node2 -->
<g id="Node000002" class="node">
<title>Node2</title>
<g id="a_Node000002"><a xlink:title=" ">
<polygon fill="#e0e0e0" stroke="#999999" points="158.5,-255.5 93.5,-255.5 93.5,-236.5 158.5,-236.5 158.5,-255.5"/>
<text text-anchor="middle" x="126" y="-243.5" font-family="Helvetica,sans-Serif" font-size="10.00">functional</text>
</a>
</g>
</g>
<!-- Node1&#45;&gt;Node2 -->
<g id="edge1_Node000001_Node000002" class="edge">
<title>Node1&#45;&gt;Node2</title>
<g id="a_edge1_Node000001_Node000002"><a xlink:title=" ">
<path fill="none" stroke="#63b8ff" d="M338.26,-300.09C290.41,-289.66 227.93,-275.44 173,-261 169.87,-260.18 166.64,-259.29 163.39,-258.38"/>
<polygon fill="#63b8ff" stroke="#63b8ff" points="164.33,-255 153.75,-255.59 162.39,-261.73 164.33,-255"/>
</a>
</g>
</g>
<!-- Node3 -->
<g id="Node000003" class="node">
<title>Node3</title>
<g id="a_Node000003"><a xlink:href="_primitive_type_8hpp.html" target="_top" xlink:title=" ">
<polygon fill="white" stroke="#666666" points="445.5,-74 310.5,-74 310.5,-55 445.5,-55 445.5,-74"/>
<text text-anchor="middle" x="378" y="-62" font-family="Helvetica,sans-Serif" font-size="10.00">wmtk/PrimitiveType.hpp</text>
</a>
</g>
</g>
<!-- Node1&#45;&gt;Node3 -->
<g id="edge2_Node000001_Node000003" class="edge">
<title>Node1&#45;&gt;Node3</title>
<g id="a_edge2_Node000001_Node000003"><a xlink:title=" ">
<path fill="none" stroke="#63b8ff" d="M394.96,-296.81C362.9,-265.14 303.28,-199.27 282,-129 279.55,-120.92 277.45,-117.12 282,-110 291.92,-94.47 308.8,-84.28 325.67,-77.62"/>
<polygon fill="#63b8ff" stroke="#63b8ff" points="327.31,-80.76 335.55,-74.1 324.96,-74.16 327.31,-80.76"/>
</a>
</g>
</g>
<!-- Node7 -->
<g id="Node000007" class="node">
<title>Node7</title>
<g id="a_Node000007"><a xlink:href="_types_8hpp.html" target="_top" xlink:title=" ">
<polygon fill="white" stroke="#666666" points="816,-129 720,-129 720,-110 816,-110 816,-129"/>
<text text-anchor="middle" x="768" y="-117" font-family="Helvetica,sans-Serif" font-size="10.00">wmtk/Types.hpp</text>
</a>
</g>
</g>
<!-- Node1&#45;&gt;Node7 -->
<g id="edge6_Node000001_Node000007" class="edge">
<title>Node1&#45;&gt;Node7</title>
<g id="a_edge6_Node000001_Node000007"><a xlink:title=" ">
<path fill="none" stroke="#63b8ff" d="M493.77,-313.55C551.01,-308.44 628.97,-295.11 689,-261 723.47,-241.41 730.21,-229.91 749,-195 758.47,-177.41 763.36,-154.92 765.79,-139.28"/>
<polygon fill="#63b8ff" stroke="#63b8ff" points="769.27,-139.64 767.15,-129.26 762.34,-138.7 769.27,-139.64"/>
</a>
</g>
</g>
<!-- Node13 -->
<g id="Node000013" class="node">
<title>Node13</title>
<g id="a_Node000013"><a xlink:href="_attribute_transfer_edge_8hpp.html" target="_top" xlink:title=" ">
<polygon fill="white" stroke="#666666" points="680.5,-261 535.5,-261 535.5,-231 680.5,-231 680.5,-261"/>
<text text-anchor="start" x="543.5" y="-249" font-family="Helvetica,sans-Serif" font-size="10.00">wmtk/operations/Attribute</text>
<text text-anchor="middle" x="608" y="-238" font-family="Helvetica,sans-Serif" font-size="10.00">TransferEdge.hpp</text>
</a>
</g>
</g>
<!-- Node1&#45;&gt;Node13 -->
<g id="edge13_Node000001_Node000013" class="edge">
<title>Node1&#45;&gt;Node13</title>
<g id="a_edge13_Node000001_Node000013"><a xlink:title=" ">
<path fill="none" stroke="#63b8ff" d="M469.99,-296.96C498.15,-286.76 532.3,-274.4 559.59,-264.52"/>
<polygon fill="#63b8ff" stroke="#63b8ff" points="561.1,-267.7 569.31,-261 558.72,-261.12 561.1,-267.7"/>
</a>
</g>
</g>
<!-- Node15 -->
<g id="Node000015" class="node">
<title>Node15</title>
<g id="a_Node000015"><a xlink:href="_mesh_attribute_handle_8hpp.html" target="_top" xlink:title=" ">
<polygon fill="white" stroke="#666666" points="496.5,-195 335.5,-195 335.5,-165 496.5,-165 496.5,-195"/>
<text text-anchor="start" x="343.5" y="-183" font-family="Helvetica,sans-Serif" font-size="10.00">wmtk/attribute/MeshAttribute</text>
<text text-anchor="middle" x="416" y="-172" font-family="Helvetica,sans-Serif" font-size="10.00">Handle.hpp</text>
</a>
</g>
</g>
<!-- Node1&#45;&gt;Node15 -->
<g id="edge39_Node000001_Node000015" class="edge">
<title>Node1&#45;&gt;Node15</title>
<g id="a_edge39_Node000001_Node000015"><a xlink:title=" ">
<path fill="none" stroke="#63b8ff" d="M416,-296.8C416,-272.65 416,-231.72 416,-205.55"/>
<polygon fill="#63b8ff" stroke="#63b8ff" points="419.5,-205.33 416,-195.33 412.5,-205.33 419.5,-205.33"/>
</a>
</g>
</g>
<!-- Node23 -->
<g id="Node000023" class="node">
<title>Node23</title>
<g id="a_Node000023"><a xlink:href="_simplex_8hpp.html" target="_top" xlink:title=" ">
<polygon fill="white" stroke="#666666" points="197,-189.5 47,-189.5 47,-170.5 197,-170.5 197,-189.5"/>
<text text-anchor="middle" x="122" y="-177.5" font-family="Helvetica,sans-Serif" font-size="10.00">wmtk/simplex/Simplex.hpp</text>
</a>
</g>
</g>
<!-- Node1&#45;&gt;Node23 -->
<g id="edge27_Node000001_Node000023" class="edge">
<title>Node1&#45;&gt;Node23</title>
<g id="a_edge27_Node000001_Node000023"><a xlink:title=" ">
<path fill="none" stroke="#63b8ff" d="M338.29,-304.37C298.53,-296 250.35,-282.41 211,-261 180.89,-244.62 152.62,-216.12 136.33,-197.93"/>
<polygon fill="#63b8ff" stroke="#63b8ff" points="138.55,-195.15 129.34,-189.93 133.28,-199.76 138.55,-195.15"/>
</a>
</g>
</g>
<!-- Node29 -->
<g id="Node000029" class="node">
<title>Node29</title>
<g id="a_Node000029"><a xlink:title=" ">
<polygon fill="#e0e0e0" stroke="#999999" points="840,-255.5 796,-255.5 796,-236.5 840,-236.5 840,-255.5"/>
<text text-anchor="middle" x="818" y="-243.5" font-family="Helvetica,sans-Serif" font-size="10.00">bitset</text>
</a>
</g>
</g>
<!-- Node1&#45;&gt;Node29 -->
<g id="edge40_Node000001_Node000029" class="edge">
<title>Node1&#45;&gt;Node29</title>
<g id="a_edge40_Node000001_Node000029"><a xlink:title=" ">
<path fill="none" stroke="#63b8ff" d="M493.78,-309.72C568.57,-302.04 684.35,-287.05 782,-261 784.3,-260.39 786.65,-259.68 788.99,-258.91"/>
<polygon fill="#63b8ff" stroke="#63b8ff" points="790.23,-262.18 798.46,-255.5 787.86,-255.59 790.23,-262.18"/>
</a>
</g>
</g>
<!-- Node4 -->
<g id="Node000004" class="node">
<title>Node4</title>
<g id="a_Node000004"><a xlink:title=" ">
<polygon fill="#e0e0e0" stroke="#999999" points="410.5,-19 345.5,-19 345.5,0 410.5,0 410.5,-19"/>
<text text-anchor="middle" x="378" y="-7" font-family="Helvetica,sans-Serif" font-size="10.00">stdexcept</text>
</a>
</g>
</g>
<!-- Node3&#45;&gt;Node4 -->
<g id="edge3_Node000003_Node000004" class="edge">
<title>Node3&#45;&gt;Node4</title>
<g id="a_edge3_Node000003_Node000004"><a xlink:title=" ">
<path fill="none" stroke="#63b8ff" d="M378,-54.75C378,-47.8 378,-37.85 378,-29.13"/>
<polygon fill="#63b8ff" stroke="#63b8ff" points="381.5,-29.09 378,-19.09 374.5,-29.09 381.5,-29.09"/>
</a>
</g>
</g>
<!-- Node5 -->
<g id="Node000005" class="node">
<title>Node5</title>
<g id="a_Node000005"><a xlink:title=" ">
<polygon fill="#e0e0e0" stroke="#999999" points="501.5,-19 428.5,-19 428.5,0 501.5,0 501.5,-19"/>
<text text-anchor="middle" x="465" y="-7" font-family="Helvetica,sans-Serif" font-size="10.00">string_view</text>
</a>
</g>
</g>
<!-- Node3&#45;&gt;Node5 -->
<g id="edge4_Node000003_Node000005" class="edge">
<title>Node3&#45;&gt;Node5</title>
<g id="a_edge4_Node000003_Node000005"><a xlink:title=" ">
<path fill="none" stroke="#63b8ff" d="M391.98,-54.98C405.47,-46.77 426.13,-34.18 442.04,-24.49"/>
<polygon fill="#63b8ff" stroke="#63b8ff" points="444.05,-27.36 450.77,-19.17 440.41,-21.38 444.05,-27.36"/>
</a>
</g>
</g>
<!-- Node6 -->
<g id="Node000006" class="node">
<title>Node6</title>
<g id="a_Node000006"><a xlink:title=" ">
<polygon fill="#e0e0e0" stroke="#999999" points="566.5,-19 519.5,-19 519.5,0 566.5,0 566.5,-19"/>
<text text-anchor="middle" x="543" y="-7" font-family="Helvetica,sans-Serif" font-size="10.00">vector</text>
</a>
</g>
</g>
<!-- Node3&#45;&gt;Node6 -->
<g id="edge5_Node000003_Node000006" class="edge">
<title>Node3&#45;&gt;Node6</title>
<g id="a_edge5_Node000003_Node000006"><a xlink:title=" ">
<path fill="none" stroke="#63b8ff" d="M404.51,-54.98C433.07,-45.81 478.59,-31.19 509.59,-21.23"/>
<polygon fill="#63b8ff" stroke="#63b8ff" points="511.04,-24.44 519.5,-18.05 508.9,-17.78 511.04,-24.44"/>
</a>
</g>
</g>
<!-- Node8 -->
<g id="Node000008" class="node">
<title>Node8</title>
<g id="a_Node000008"><a xlink:title=" ">
<polygon fill="#e0e0e0" stroke="#999999" points="741.5,-19 672.5,-19 672.5,0 741.5,0 741.5,-19"/>
<text text-anchor="middle" x="707" y="-7" font-family="Helvetica,sans-Serif" font-size="10.00">Eigen/Core</text>
</a>
</g>
</g>
<!-- Node7&#45;&gt;Node8 -->
<g id="edge7_Node000007_Node000008" class="edge">
<title>Node7&#45;&gt;Node8</title>
<g id="a_edge7_Node000007_Node000008"><a xlink:title=" ">
<path fill="none" stroke="#63b8ff" d="M763.01,-109.66C752.95,-91.85 730.08,-51.37 716.89,-28.01"/>
<polygon fill="#63b8ff" stroke="#63b8ff" points="719.86,-26.14 711.89,-19.16 713.76,-29.59 719.86,-26.14"/>
</a>
</g>
</g>
<!-- Node9 -->
<g id="Node000009" class="node">
<title>Node9</title>
<g id="a_Node000009"><a xlink:href="_rational_8hpp.html" target="_top" xlink:title=" ">
<polygon fill="white" stroke="#666666" points="663.5,-74 530.5,-74 530.5,-55 663.5,-55 663.5,-74"/>
<text text-anchor="middle" x="597" y="-62" font-family="Helvetica,sans-Serif" font-size="10.00">wmtk/utils/Rational.hpp</text>
</a>
</g>
</g>
<!-- Node7&#45;&gt;Node9 -->
<g id="edge8_Node000007_Node000009" class="edge">
<title>Node7&#45;&gt;Node9</title>
<g id="a_edge8_Node000007_Node000009"><a xlink:title=" ">
<path fill="none" stroke="#63b8ff" d="M740.53,-109.98C711.82,-101.09 666.58,-87.07 634.58,-77.15"/>
<polygon fill="#63b8ff" stroke="#63b8ff" points="635.28,-73.7 624.69,-74.08 633.2,-80.39 635.28,-73.7"/>
</a>
</g>
</g>
<!-- Node9&#45;&gt;Node8 -->
<g id="edge9_Node000009_Node000008" class="edge">
<title>Node9&#45;&gt;Node8</title>
<g id="a_edge9_Node000009_Node000008"><a xlink:title=" ">
<path fill="none" stroke="#63b8ff" d="M614.67,-54.98C632.29,-46.5 659.58,-33.35 679.93,-23.54"/>
<polygon fill="#63b8ff" stroke="#63b8ff" points="681.52,-26.66 689.01,-19.17 678.48,-20.36 681.52,-26.66"/>
</a>
</g>
</g>
<!-- Node10 -->
<g id="Node000010" class="node">
<title>Node10</title>
<g id="a_Node000010"><a xlink:title=" ">
<polygon fill="#e0e0e0" stroke="#999999" points="631.5,-19 584.5,-19 584.5,0 631.5,0 631.5,-19"/>
<text text-anchor="middle" x="608" y="-7" font-family="Helvetica,sans-Serif" font-size="10.00">gmp.h</text>
</a>
</g>
</g>
<!-- Node9&#45;&gt;Node10 -->
<g id="edge10_Node000009_Node000010" class="edge">
<title>Node9&#45;&gt;Node10</title>
<g id="a_edge10_Node000009_Node000010"><a xlink:title=" ">
<path fill="none" stroke="#63b8ff" d="M598.82,-54.75C600.26,-47.8 602.32,-37.85 604.13,-29.13"/>
<polygon fill="#63b8ff" stroke="#63b8ff" points="607.61,-29.59 606.22,-19.09 600.76,-28.17 607.61,-29.59"/>
</a>
</g>
</g>
<!-- Node11 -->
<g id="Node000011" class="node">
<title>Node11</title>
<g id="a_Node000011"><a xlink:title=" ">
<polygon fill="#e0e0e0" stroke="#999999" points="327,-19 267,-19 267,0 327,0 327,-19"/>
<text text-anchor="middle" x="297" y="-7" font-family="Helvetica,sans-Serif" font-size="10.00">iostream</text>
</a>
</g>
</g>
<!-- Node9&#45;&gt;Node11 -->
<g id="edge11_Node000009_Node000011" class="edge">
<title>Node9&#45;&gt;Node11</title>
<g id="a_edge11_Node000009_Node000011"><a xlink:title=" ">
<path fill="none" stroke="#63b8ff" d="M542.63,-54.97C491.91,-46.85 413.91,-33.93 337.06,-19.13"/>
<polygon fill="#63b8ff" stroke="#63b8ff" points="337.69,-15.69 327.21,-17.23 336.36,-22.56 337.69,-15.69"/>
</a>
</g>
</g>
<!-- Node12 -->
<g id="Node000012" class="node">
<title>Node12</title>
<g id="a_Node000012"><a xlink:title=" ">
<polygon fill="#e0e0e0" stroke="#999999" points="249,-19 205,-19 205,0 249,0 249,-19"/>
<text text-anchor="middle" x="227" y="-7" font-family="Helvetica,sans-Serif" font-size="10.00">string</text>
</a>
</g>
</g>
<!-- Node9&#45;&gt;Node12 -->
<g id="edge12_Node000009_Node000012" class="edge">
<title>Node9&#45;&gt;Node12</title>
<g id="a_edge12_Node000009_Node000012"><a xlink:title=" ">
<path fill="none" stroke="#63b8ff" d="M530.3,-57.47C463.82,-50.85 358.72,-38.71 259.19,-18.99"/>
<polygon fill="#63b8ff" stroke="#63b8ff" points="259.76,-15.54 249.26,-17 258.38,-22.4 259.76,-15.54"/>
</a>
</g>
</g>
<!-- Node13&#45;&gt;Node6 -->
<g id="edge15_Node000013_Node000006" class="edge">
<title>Node13&#45;&gt;Node6</title>
<g id="a_edge15_Node000013_Node000006"><a xlink:title=" ">
<path fill="none" stroke="#63b8ff" d="M620.79,-230.85C649.37,-197.45 712.81,-112.25 672,-55 666.23,-46.91 612.65,-30.32 576.38,-19.84"/>
<polygon fill="#63b8ff" stroke="#63b8ff" points="577.24,-16.44 566.66,-17.06 575.31,-23.17 577.24,-16.44"/>
</a>
</g>
</g>
<!-- Node14 -->
<g id="Node000014" class="node">
<title>Node14</title>
<g id="a_Node000014"><a xlink:title=" ">
<polygon fill="#e0e0e0" stroke="#999999" points="740,-189.5 682,-189.5 682,-170.5 740,-170.5 740,-189.5"/>
<text text-anchor="middle" x="711" y="-177.5" font-family="Helvetica,sans-Serif" font-size="10.00">memory</text>
</a>
</g>
</g>
<!-- Node13&#45;&gt;Node14 -->
<g id="edge14_Node000013_Node000014" class="edge">
<title>Node13&#45;&gt;Node14</title>
<g id="a_edge14_Node000013_Node000014"><a xlink:title=" ">
<path fill="none" stroke="#63b8ff" d="M630.6,-230.95C647.79,-220.27 671.33,-205.65 688.49,-194.98"/>
<polygon fill="#63b8ff" stroke="#63b8ff" points="690.65,-197.77 697.29,-189.52 686.95,-191.82 690.65,-197.77"/>
</a>
</g>
</g>
<!-- Node13&#45;&gt;Node15 -->
<g id="edge16_Node000013_Node000015" class="edge">
<title>Node13&#45;&gt;Node15</title>
<g id="a_edge16_Node000013_Node000015"><a xlink:title=" ">
<path fill="none" stroke="#63b8ff" d="M565.86,-230.95C536.98,-221.33 498.47,-208.49 467.73,-198.24"/>
<polygon fill="#63b8ff" stroke="#63b8ff" points="468.63,-194.85 458.04,-195.01 466.42,-201.5 468.63,-194.85"/>
</a>
</g>
</g>
<!-- Node15&#45;&gt;Node9 -->
<g id="edge17_Node000015_Node000009" class="edge">
<title>Node15&#45;&gt;Node9</title>
<g id="a_edge17_Node000015_Node000009"><a xlink:title=" ">
<path fill="none" stroke="#63b8ff" d="M403.23,-165C391.19,-150.06 376.81,-126.33 390,-110 406.4,-89.69 468.32,-78.22 520.2,-72.03"/>
<polygon fill="#63b8ff" stroke="#63b8ff" points="520.89,-75.48 530.43,-70.86 520.1,-68.52 520.89,-75.48"/>
</a>
</g>
</g>
<!-- Node16 -->
<g id="Node000016" class="node">
<title>Node16</title>
<g id="a_Node000016"><a xlink:href="_attribute_type_8hpp.html" target="_top" xlink:title=" ">
<polygon fill="white" stroke="#666666" points="663.5,-129 560.5,-129 560.5,-110 663.5,-110 663.5,-129"/>
<text text-anchor="middle" x="612" y="-117" font-family="Helvetica,sans-Serif" font-size="10.00">AttributeType.hpp</text>
</a>
</g>
</g>
<!-- Node15&#45;&gt;Node16 -->
<g id="edge18_Node000015_Node000016" class="edge">
<title>Node15&#45;&gt;Node16</title>
<g id="a_edge18_Node000015_Node000016"><a xlink:title=" ">
<path fill="none" stroke="#63b8ff" d="M462.95,-164.99C496.77,-154.89 541.86,-141.44 573.55,-131.98"/>
<polygon fill="#63b8ff" stroke="#63b8ff" points="574.76,-135.27 583.34,-129.05 572.76,-128.56 574.76,-135.27"/>
</a>
</g>
</g>
<!-- Node17 -->
<g id="Node000017" class="node">
<title>Node17</title>
<g id="a_Node000017"><a xlink:href="_typed_attribute_handle_8hpp.html" target="_top" xlink:title=" ">
<polygon fill="white" stroke="#666666" points="542.5,-129 399.5,-129 399.5,-110 542.5,-110 542.5,-129"/>
<text text-anchor="middle" x="471" y="-117" font-family="Helvetica,sans-Serif" font-size="10.00">TypedAttributeHandle.hpp</text>
</a>
</g>
</g>
<!-- Node15&#45;&gt;Node17 -->
<g id="edge20_Node000015_Node000017" class="edge">
<title>Node15&#45;&gt;Node17</title>
<g id="a_edge20_Node000015_Node000017"><a xlink:title=" ">
<path fill="none" stroke="#63b8ff" d="M429.31,-164.84C437.3,-156.35 447.48,-145.52 455.78,-136.69"/>
<polygon fill="#63b8ff" stroke="#63b8ff" points="458.46,-138.95 462.76,-129.27 453.36,-134.15 458.46,-138.95"/>
</a>
</g>
</g>
<!-- Node21 -->
<g id="Node000021" class="node">
<title>Node21</title>
<g id="a_Node000021"><a xlink:title=" ">
<polygon fill="#e0e0e0" stroke="#999999" points="186.5,-19 145.5,-19 145.5,0 186.5,0 186.5,-19"/>
<text text-anchor="middle" x="166" y="-7" font-family="Helvetica,sans-Serif" font-size="10.00">tuple</text>
</a>
</g>
</g>
<!-- Node15&#45;&gt;Node21 -->
<g id="edge25_Node000015_Node000021" class="edge">
<title>Node15&#45;&gt;Node21</title>
<g id="a_edge25_Node000015_Node000021"><a xlink:title=" ">
<path fill="none" stroke="#63b8ff" d="M361.43,-164.95C335.97,-156.86 306.06,-145.06 282,-129 244.6,-104.03 244.68,-86.92 213,-55 203.3,-45.23 192.13,-34.62 183.1,-26.21"/>
<polygon fill="#63b8ff" stroke="#63b8ff" points="185.24,-23.42 175.53,-19.2 180.49,-28.56 185.24,-23.42"/>
</a>
</g>
</g>
<!-- Node22 -->
<g id="Node000022" class="node">
<title>Node22</title>
<g id="a_Node000022"><a xlink:title=" ">
<polygon fill="#e0e0e0" stroke="#999999" points="342.5,-129 291.5,-129 291.5,-110 342.5,-110 342.5,-129"/>
<text text-anchor="middle" x="317" y="-117" font-family="Helvetica,sans-Serif" font-size="10.00">variant</text>
</a>
</g>
</g>
<!-- Node15&#45;&gt;Node22 -->
<g id="edge26_Node000015_Node000022" class="edge">
<title>Node15&#45;&gt;Node22</title>
<g id="a_edge26_Node000015_Node000022"><a xlink:title=" ">
<path fill="none" stroke="#63b8ff" d="M392.29,-164.99C376.65,-155.75 356.26,-143.7 340.64,-134.47"/>
<polygon fill="#63b8ff" stroke="#63b8ff" points="342.01,-131.21 331.62,-129.14 338.45,-137.24 342.01,-131.21"/>
</a>
</g>
</g>
<!-- Node16&#45;&gt;Node9 -->
<g id="edge19_Node000016_Node000009" class="edge">
<title>Node16&#45;&gt;Node9</title>
<g id="a_edge19_Node000016_Node000009"><a xlink:title=" ">
<path fill="none" stroke="#63b8ff" d="M609.52,-109.75C607.54,-102.72 604.68,-92.62 602.19,-83.84"/>
<polygon fill="#63b8ff" stroke="#63b8ff" points="605.52,-82.76 599.43,-74.09 598.79,-84.66 605.52,-82.76"/>
</a>
</g>
</g>
<!-- Node17&#45;&gt;Node3 -->
<g id="edge21_Node000017_Node000003" class="edge">
<title>Node17&#45;&gt;Node3</title>
<g id="a_edge21_Node000017_Node000003"><a xlink:title=" ">
<path fill="none" stroke="#63b8ff" d="M456.06,-109.98C441.5,-101.69 419.13,-88.94 402.07,-79.22"/>
<polygon fill="#63b8ff" stroke="#63b8ff" points="403.64,-76.08 393.21,-74.17 400.17,-82.16 403.64,-76.08"/>
</a>
</g>
</g>
<!-- Node18 -->
<g id="Node000018" class="node">
<title>Node18</title>
<g id="a_Node000018"><a xlink:href="_attribute_handle_8hpp.html" target="_top" xlink:title=" ">
<polygon fill="white" stroke="#666666" points="873.5,-74 758.5,-74 758.5,-55 873.5,-55 873.5,-74"/>
<text text-anchor="middle" x="816" y="-62" font-family="Helvetica,sans-Serif" font-size="10.00">AttributeHandle.hpp</text>
</a>
</g>
</g>
<!-- Node17&#45;&gt;Node18 -->
<g id="edge22_Node000017_Node000018" class="edge">
<title>Node17&#45;&gt;Node18</title>
<g id="a_edge22_Node000017_Node000018"><a xlink:title=" ">
<path fill="none" stroke="#63b8ff" d="M526.43,-109.98C587.45,-100.61 685.48,-85.55 750.31,-75.59"/>
<polygon fill="#63b8ff" stroke="#63b8ff" points="751.07,-79.02 760.42,-74.04 750.01,-72.1 751.07,-79.02"/>
</a>
</g>
</g>
<!-- Node19 -->
<g id="Node000019" class="node">
<title>Node19</title>
<g id="a_Node000019"><a xlink:title=" ">
<polygon fill="#e0e0e0" stroke="#999999" points="826,-19 776,-19 776,0 826,0 826,-19"/>
<text text-anchor="middle" x="801" y="-7" font-family="Helvetica,sans-Serif" font-size="10.00">cstdint</text>
</a>
</g>
</g>
<!-- Node18&#45;&gt;Node19 -->
<g id="edge23_Node000018_Node000019" class="edge">
<title>Node18&#45;&gt;Node19</title>
<g id="a_edge23_Node000018_Node000019"><a xlink:title=" ">
<path fill="none" stroke="#63b8ff" d="M813.52,-54.75C811.54,-47.72 808.68,-37.62 806.19,-28.84"/>
<polygon fill="#63b8ff" stroke="#63b8ff" points="809.52,-27.76 803.43,-19.09 802.79,-29.66 809.52,-27.76"/>
</a>
</g>
</g>
<!-- Node20 -->
<g id="Node000020" class="node">
<title>Node20</title>
<g id="a_Node000020"><a xlink:title=" ">
<polygon fill="#e0e0e0" stroke="#999999" points="913.5,-19 844.5,-19 844.5,0 913.5,0 913.5,-19"/>
<text text-anchor="middle" x="879" y="-7" font-family="Helvetica,sans-Serif" font-size="10.00">type_traits</text>
</a>
</g>
</g>
<!-- Node18&#45;&gt;Node20 -->
<g id="edge24_Node000018_Node000020" class="edge">
<title>Node18&#45;&gt;Node20</title>
<g id="a_edge24_Node000018_Node000020"><a xlink:title=" ">
<path fill="none" stroke="#63b8ff" d="M826.12,-54.98C835.44,-47.15 849.47,-35.34 860.74,-25.86"/>
<polygon fill="#63b8ff" stroke="#63b8ff" points="863.29,-28.29 868.69,-19.17 858.79,-22.93 863.29,-28.29"/>
</a>
</g>
</g>
<!-- Node23&#45;&gt;Node3 -->
<g id="edge28_Node000023_Node000003" class="edge">
<title>Node23&#45;&gt;Node3</title>
<g id="a_edge28_Node000023_Node000003"><a xlink:title=" ">
<path fill="none" stroke="#63b8ff" d="M130.53,-170.43C145.5,-155.88 178.06,-126.32 211,-110 243.51,-93.9 282.56,-83.08 314.73,-76.14"/>
<polygon fill="#63b8ff" stroke="#63b8ff" points="315.84,-79.49 324.91,-74.03 314.41,-72.63 315.84,-79.49"/>
</a>
</g>
</g>
<!-- Node24 -->
<g id="Node000024" class="node">
<title>Node24</title>
<g id="a_Node000024"><a xlink:href="_tuple_8hpp.html" target="_top" xlink:title=" ">
<polygon fill="white" stroke="#666666" points="159,-129 65,-129 65,-110 159,-110 159,-129"/>
<text text-anchor="middle" x="112" y="-117" font-family="Helvetica,sans-Serif" font-size="10.00">wmtk/Tuple.hpp</text>
</a>
</g>
</g>
<!-- Node23&#45;&gt;Node24 -->
<g id="edge29_Node000023_Node000024" class="edge">
<title>Node23&#45;&gt;Node24</title>
<g id="a_edge29_Node000023_Node000024"><a xlink:title=" ">
<path fill="none" stroke="#63b8ff" d="M120.52,-170.37C119.12,-162.16 116.96,-149.54 115.17,-139.05"/>
<polygon fill="#63b8ff" stroke="#63b8ff" points="118.62,-138.43 113.48,-129.17 111.72,-139.61 118.62,-138.43"/>
</a>
</g>
</g>
<!-- Node24&#45;&gt;Node3 -->
<g id="edge31_Node000024_Node000003" class="edge">
<title>Node24&#45;&gt;Node3</title>
<g id="a_edge31_Node000024_Node000003"><a xlink:title=" ">
<path fill="none" stroke="#63b8ff" d="M154.74,-109.98C201.04,-100.76 274.98,-86.03 324.96,-76.07"/>
<polygon fill="#63b8ff" stroke="#63b8ff" points="325.8,-79.47 334.93,-74.08 324.44,-72.6 325.8,-79.47"/>
</a>
</g>
</g>
<!-- Node25 -->
<g id="Node000025" class="node">
<title>Node25</title>
<g id="a_Node000025"><a xlink:title=" ">
<polygon fill="#e0e0e0" stroke="#999999" points="204,-74 162,-74 162,-55 204,-55 204,-74"/>
<text text-anchor="middle" x="183" y="-62" font-family="Helvetica,sans-Serif" font-size="10.00">array</text>
</a>
</g>
</g>
<!-- Node24&#45;&gt;Node25 -->
<g id="edge30_Node000024_Node000025" class="edge">
<title>Node24&#45;&gt;Node25</title>
<g id="a_edge30_Node000024_Node000025"><a xlink:title=" ">
<path fill="none" stroke="#63b8ff" d="M123.41,-109.98C134.11,-102 150.34,-89.88 163.16,-80.31"/>
<polygon fill="#63b8ff" stroke="#63b8ff" points="165.47,-82.96 171.39,-74.17 161.28,-77.35 165.47,-82.96"/>
</a>
</g>
</g>
<!-- Node26 -->
<g id="Node000026" class="node">
<title>Node26</title>
<g id="a_Node000026"><a xlink:href="_tuple_8hxx.html" target="_top" xlink:title=" ">
<polygon fill="white" stroke="#666666" points="143.5,-74 80.5,-74 80.5,-55 143.5,-55 143.5,-74"/>
<text text-anchor="middle" x="112" y="-62" font-family="Helvetica,sans-Serif" font-size="10.00">Tuple.hxx</text>
</a>
</g>
</g>
<!-- Node24&#45;&gt;Node26 -->
<g id="edge32_Node000024_Node000026" class="edge">
<title>Node24&#45;&gt;Node26</title>
<g id="a_edge32_Node000024_Node000026"><a xlink:title=" ">
<path fill="none" stroke="#63b8ff" d="M106.83,-109.75C105.34,-102.8 104.9,-92.85 105.52,-84.13"/>
<polygon fill="#63b8ff" stroke="#63b8ff" points="109.01,-84.47 106.87,-74.09 102.07,-83.53 109.01,-84.47"/>
</a>
</g>
</g>
<!-- Node26&#45;&gt;Node11 -->
<g id="edge34_Node000026_Node000011" class="edge">
<title>Node26&#45;&gt;Node11</title>
<g id="a_edge34_Node000026_Node000011"><a xlink:title=" ">
<path fill="none" stroke="#63b8ff" d="M141.72,-54.98C173.05,-46.01 222.57,-31.82 257.24,-21.89"/>
<polygon fill="#63b8ff" stroke="#63b8ff" points="258.39,-25.2 267.04,-19.08 256.47,-18.47 258.39,-25.2"/>
</a>
</g>
</g>
<!-- Node26&#45;&gt;Node12 -->
<g id="edge36_Node000026_Node000012" class="edge">
<title>Node26&#45;&gt;Node12</title>
<g id="a_edge36_Node000026_Node000012"><a xlink:title=" ">
<path fill="none" stroke="#63b8ff" d="M130.48,-54.98C148.98,-46.46 177.68,-33.23 198.98,-23.41"/>
<polygon fill="#63b8ff" stroke="#63b8ff" points="200.57,-26.53 208.19,-19.17 197.64,-20.18 200.57,-26.53"/>
</a>
</g>
</g>
<!-- Node26&#45;&gt;Node21 -->
<g id="edge37_Node000026_Node000021" class="edge">
<title>Node26&#45;&gt;Node21</title>
<g id="a_edge37_Node000026_Node000021"><a xlink:title=" ">
<path fill="none" stroke="#63b8ff" d="M120.92,-54.75C128.78,-47.03 140.43,-35.6 149.92,-26.28"/>
<polygon fill="#63b8ff" stroke="#63b8ff" points="152.56,-28.59 157.25,-19.09 147.66,-23.6 152.56,-28.59"/>
</a>
</g>
</g>
<!-- Node26&#45;&gt;Node24 -->
<g id="edge38_Node000026_Node000024" class="edge">
<title>Node26&#45;&gt;Node24</title>
<g id="a_edge38_Node000026_Node000024"><a xlink:title=" ">
<path fill="none" stroke="#63b8ff" d="M117.13,-74.09C118.64,-80.99 119.09,-90.93 118.49,-99.66"/>
<polygon fill="#63b8ff" stroke="#63b8ff" points="115,-99.38 117.17,-109.75 121.94,-100.29 115,-99.38"/>
</a>
</g>
</g>
<!-- Node27 -->
<g id="Node000027" class="node">
<title>Node27</title>
<g id="a_Node000027"><a xlink:title=" ">
<polygon fill="#e0e0e0" stroke="#999999" points="127.5,-19 74.5,-19 74.5,0 127.5,0 127.5,-19"/>
<text text-anchor="middle" x="101" y="-7" font-family="Helvetica,sans-Serif" font-size="10.00">cstddef</text>
</a>
</g>
</g>
<!-- Node26&#45;&gt;Node27 -->
<g id="edge33_Node000026_Node000027" class="edge">
<title>Node26&#45;&gt;Node27</title>
<g id="a_edge33_Node000026_Node000027"><a xlink:title=" ">
<path fill="none" stroke="#63b8ff" d="M110.18,-54.75C108.74,-47.8 106.68,-37.85 104.87,-29.13"/>
<polygon fill="#63b8ff" stroke="#63b8ff" points="108.24,-28.17 102.78,-19.09 101.39,-29.59 108.24,-28.17"/>
</a>
</g>
</g>
<!-- Node28 -->
<g id="Node000028" class="node">
<title>Node28</title>
<g id="a_Node000028"><a xlink:title=" ">
<polygon fill="#e0e0e0" stroke="#999999" points="56,-19 0,-19 0,0 56,0 56,-19"/>
<text text-anchor="middle" x="28" y="-7" font-family="Helvetica,sans-Serif" font-size="10.00">optional</text>
</a>
</g>
</g>
<!-- Node26&#45;&gt;Node28 -->
<g id="edge35_Node000026_Node000028" class="edge">
<title>Node26&#45;&gt;Node28</title>
<g id="a_edge35_Node000026_Node000028"><a xlink:title=" ">
<path fill="none" stroke="#63b8ff" d="M98.5,-54.98C85.6,-46.84 65.9,-34.41 50.6,-24.76"/>
<polygon fill="#63b8ff" stroke="#63b8ff" points="52.07,-21.55 41.74,-19.17 48.33,-27.47 52.07,-21.55"/>
</a>
</g>
</g>
</g>
</svg>
