<?xml version="1.0" encoding="UTF-8" standalone="no"?>
<!DOCTYPE svg PUBLIC "-//W3C//DTD SVG 1.1//EN"
 "http://www.w3.org/Graphics/SVG/1.1/DTD/svg11.dtd">
<!-- Generated by graphviz version 2.43.0 (0)
 -->
<!-- Title: src/wmtk/operations/OperationSequence.hpp Pages: 1 -->
<svg width="1632pt" height="203pt"
 viewBox="0.00 0.00 1631.50 203.00" xmlns="http://www.w3.org/2000/svg" xmlns:xlink="http://www.w3.org/1999/xlink">
<g id="graph0" class="graph" transform="scale(1 1) rotate(0) translate(4 199)">
<title>src/wmtk/operations/OperationSequence.hpp</title>
<!-- Node1 -->
<g id="Node000001" class="node">
<title>Node1</title>
<g id="a_Node000001"><a xlink:title=" ">
<polygon fill="#999999" stroke="#666666" points="967,-195 831,-195 831,-165 967,-165 967,-195"/>
<text text-anchor="start" x="839" y="-183" font-family="Helvetica,sans-Serif" font-size="10.00">src/wmtk/operations</text>
<text text-anchor="middle" x="899" y="-172" font-family="Helvetica,sans-Serif" font-size="10.00">/OperationSequence.hpp</text>
</a>
</g>
</g>
<!-- Node2 -->
<g id="Node000002" class="node">
<title>Node2</title>
<g id="a_Node000002"><a xlink:href="_and_operation_sequence_8hpp.html" target="_top" xlink:title=" ">
<polygon fill="white" stroke="#666666" points="723.5,-129 568.5,-129 568.5,-99 723.5,-99 723.5,-129"/>
<text text-anchor="start" x="576.5" y="-117" font-family="Helvetica,sans-Serif" font-size="10.00">src/wmtk/operations</text>
<text text-anchor="middle" x="646" y="-106" font-family="Helvetica,sans-Serif" font-size="10.00">/AndOperationSequence.hpp</text>
</a>
</g>
</g>
<!-- Node1&#45;&gt;Node2 -->
<g id="edge1_Node000001_Node000002" class="edge">
<title>Node1&#45;&gt;Node2</title>
<g id="a_edge1_Node000001_Node000002"><a xlink:title=" ">
<path fill="none" stroke="#63b8ff" d="M833.58,-162.45C792.59,-152.08 740.33,-138.86 701.39,-129.01"/>
<polygon fill="#63b8ff" stroke="#63b8ff" points="832.93,-165.9 843.48,-164.95 834.64,-159.11 832.93,-165.9"/>
</a>
</g>
</g>
<!-- Node9 -->
<g id="Node000009" class="node">
<title>Node9</title>
<g id="a_Node000009"><a xlink:href="_min_operation_sequence_8hpp.html" target="_top" xlink:title=" ">
<polygon fill="white" stroke="#666666" points="1061,-129 907,-129 907,-99 1061,-99 1061,-129"/>
<text text-anchor="start" x="915" y="-117" font-family="Helvetica,sans-Serif" font-size="10.00">src/wmtk/operations</text>
<text text-anchor="middle" x="984" y="-106" font-family="Helvetica,sans-Serif" font-size="10.00">/MinOperationSequence.hpp</text>
</a>
</g>
</g>
<!-- Node1&#45;&gt;Node9 -->
<g id="edge8_Node000001_Node000009" class="edge">
<title>Node1&#45;&gt;Node9</title>
<g id="a_edge8_Node000001_Node000009"><a xlink:title=" ">
<path fill="none" stroke="#63b8ff" d="M925.89,-158.75C938.67,-149.13 953.64,-137.86 965.19,-129.16"/>
<polygon fill="#63b8ff" stroke="#63b8ff" points="923.75,-155.99 917.86,-164.8 927.96,-161.58 923.75,-155.99"/>
</a>
</g>
</g>
<!-- Node12 -->
<g id="Node000012" class="node">
<title>Node12</title>
<g id="a_Node000012"><a xlink:href="_operation_sequence_8cpp.html" target="_top" xlink:title=" ">
<polygon fill="white" stroke="#666666" points="1214.5,-129 1079.5,-129 1079.5,-99 1214.5,-99 1214.5,-129"/>
<text text-anchor="start" x="1087.5" y="-117" font-family="Helvetica,sans-Serif" font-size="10.00">src/wmtk/operations</text>
<text text-anchor="middle" x="1147" y="-106" font-family="Helvetica,sans-Serif" font-size="10.00">/OperationSequence.cpp</text>
</a>
</g>
</g>
<!-- Node1&#45;&gt;Node12 -->
<g id="edge16_Node000001_Node000012" class="edge">
<title>Node1&#45;&gt;Node12</title>
<g id="a_edge16_Node000001_Node000012"><a xlink:title=" ">
<path fill="none" stroke="#63b8ff" d="M963.13,-162.45C1003.31,-152.08 1054.53,-138.86 1092.7,-129.01"/>
<polygon fill="#63b8ff" stroke="#63b8ff" points="962.23,-159.07 953.42,-164.95 963.98,-165.85 962.23,-159.07"/>
</a>
</g>
</g>
<!-- Node13 -->
<g id="Node000013" class="node">
<title>Node13</title>
<g id="a_Node000013"><a xlink:href="_or_operation_sequence_8hpp.html" target="_top" xlink:title=" ">
<polygon fill="white" stroke="#666666" points="888.5,-129 741.5,-129 741.5,-99 888.5,-99 888.5,-129"/>
<text text-anchor="start" x="749.5" y="-117" font-family="Helvetica,sans-Serif" font-size="10.00">src/wmtk/operations</text>
<text text-anchor="middle" x="815" y="-106" font-family="Helvetica,sans-Serif" font-size="10.00">/OrOperationSequence.hpp</text>
</a>
</g>
</g>
<!-- Node1&#45;&gt;Node13 -->
<g id="edge17_Node000001_Node000013" class="edge">
<title>Node1&#45;&gt;Node13</title>
<g id="a_edge17_Node000001_Node000013"><a xlink:title=" ">
<path fill="none" stroke="#63b8ff" d="M872.06,-158.48C859.51,-148.91 844.89,-137.77 833.59,-129.16"/>
<polygon fill="#63b8ff" stroke="#63b8ff" points="870.28,-161.52 880.36,-164.8 874.52,-155.95 870.28,-161.52"/>
</a>
</g>
</g>
<!-- Node3 -->
<g id="Node000003" class="node">
<title>Node3</title>
<g id="a_Node000003"><a xlink:href="internal_2periodic__optimization_8cpp.html" target="_top" xlink:title=" ">
<polygon fill="white" stroke="#666666" points="891.5,-63 724.5,-63 724.5,0 891.5,0 891.5,-63"/>
<text text-anchor="start" x="732.5" y="-51" font-family="Helvetica,sans-Serif" font-size="10.00">components/isotropic</text>
<text text-anchor="start" x="732.5" y="-40" font-family="Helvetica,sans-Serif" font-size="10.00">_remeshing/wmtk/components</text>
<text text-anchor="start" x="732.5" y="-29" font-family="Helvetica,sans-Serif" font-size="10.00">/isotropic_remeshing/periodic</text>
<text text-anchor="start" x="732.5" y="-18" font-family="Helvetica,sans-Serif" font-size="10.00">_optimization/internal/periodic</text>
<text text-anchor="middle" x="808" y="-7" font-family="Helvetica,sans-Serif" font-size="10.00">_optimization.cpp</text>
</a>
</g>
</g>
<!-- Node2&#45;&gt;Node3 -->
<g id="edge2_Node000002_Node000003" class="edge">
<title>Node2&#45;&gt;Node3</title>
<g id="a_edge2_Node000002_Node000003"><a xlink:title=" ">
<path fill="none" stroke="#63b8ff" d="M683.31,-94.46C702.06,-85.14 725.26,-73.61 746.55,-63.03"/>
<polygon fill="#63b8ff" stroke="#63b8ff" points="681.62,-91.39 674.22,-98.98 684.73,-97.66 681.62,-91.39"/>
</a>
</g>
</g>
<!-- Node4 -->
<g id="Node000004" class="node">
<title>Node4</title>
<g id="a_Node000004"><a xlink:href="test__component__wildmeshing_8cpp.html" target="_top" xlink:title=" ">
<polygon fill="white" stroke="#666666" points="1074,-46.5 910,-46.5 910,-16.5 1074,-16.5 1074,-46.5"/>
<text text-anchor="start" x="918" y="-34.5" font-family="Helvetica,sans-Serif" font-size="10.00">components/tests/test</text>
<text text-anchor="middle" x="992" y="-23.5" font-family="Helvetica,sans-Serif" font-size="10.00">_component_wildmeshing.cpp</text>
</a>
</g>
</g>
<!-- Node2&#45;&gt;Node4 -->
<g id="edge3_Node000002_Node000004" class="edge">
<title>Node2&#45;&gt;Node4</title>
<g id="a_edge3_Node000002_Node000004"><a xlink:title=" ">
<path fill="none" stroke="#63b8ff" d="M733.62,-98.72C783.12,-89.93 845.92,-77.57 901,-63 918.56,-58.36 937.66,-52.14 953.81,-46.53"/>
<polygon fill="#63b8ff" stroke="#63b8ff" points="732.83,-95.3 723.59,-100.48 734.04,-102.2 732.83,-95.3"/>
</a>
</g>
</g>
<!-- Node5 -->
<g id="Node000005" class="node">
<title>Node5</title>
<g id="a_Node000005"><a xlink:href="wildmeshing2d_8cpp.html" target="_top" xlink:title=" ">
<polygon fill="white" stroke="#666666" points="1268,-52 1092,-52 1092,-11 1268,-11 1268,-52"/>
<text text-anchor="start" x="1100" y="-40" font-family="Helvetica,sans-Serif" font-size="10.00">components/wildmeshing</text>
<text text-anchor="start" x="1100" y="-29" font-family="Helvetica,sans-Serif" font-size="10.00">/wmtk/components/wildmeshing</text>
<text text-anchor="middle" x="1180" y="-18" font-family="Helvetica,sans-Serif" font-size="10.00">/internal/wildmeshing2d.cpp</text>
</a>
</g>
</g>
<!-- Node2&#45;&gt;Node5 -->
<g id="edge4_Node000002_Node000005" class="edge">
<title>Node2&#45;&gt;Node5</title>
<g id="a_edge4_Node000002_Node000005"><a xlink:title=" ">
<path fill="none" stroke="#63b8ff" d="M733.71,-98.97C889.8,-79.21 932.99,-93.97 1083,-63 1096.66,-60.18 1111.12,-56.2 1124.6,-52.04"/>
<polygon fill="#63b8ff" stroke="#63b8ff" points="733.22,-95.51 723.76,-100.26 734.12,-102.45 733.22,-95.51"/>
</a>
</g>
</g>
<!-- Node6 -->
<g id="Node000006" class="node">
<title>Node6</title>
<g id="a_Node000006"><a xlink:href="wildmeshing3d_8cpp.html" target="_top" xlink:title=" ">
<polygon fill="white" stroke="#666666" points="348,-52 172,-52 172,-11 348,-11 348,-52"/>
<text text-anchor="start" x="180" y="-40" font-family="Helvetica,sans-Serif" font-size="10.00">components/wildmeshing</text>
<text text-anchor="start" x="180" y="-29" font-family="Helvetica,sans-Serif" font-size="10.00">/wmtk/components/wildmeshing</text>
<text text-anchor="middle" x="260" y="-18" font-family="Helvetica,sans-Serif" font-size="10.00">/internal/wildmeshing3d.cpp</text>
</a>
</g>
</g>
<!-- Node2&#45;&gt;Node6 -->
<g id="edge5_Node000002_Node000006" class="edge">
<title>Node2&#45;&gt;Node6</title>
<g id="a_edge5_Node000002_Node000006"><a xlink:title=" ">
<path fill="none" stroke="#63b8ff" d="M558.29,-100.94C500.67,-92.25 423.87,-79.22 357,-63 344.22,-59.9 330.66,-56.02 317.86,-52.08"/>
<polygon fill="#63b8ff" stroke="#63b8ff" points="558.05,-104.44 568.45,-102.45 559.08,-97.51 558.05,-104.44"/>
</a>
</g>
</g>
<!-- Node7 -->
<g id="Node000007" class="node">
<title>Node7</title>
<g id="a_Node000007"><a xlink:href="wildmeshing__old_8cpp.html" target="_top" xlink:title=" ">
<polygon fill="white" stroke="#666666" points="542,-52 366,-52 366,-11 542,-11 542,-52"/>
<text text-anchor="start" x="374" y="-40" font-family="Helvetica,sans-Serif" font-size="10.00">components/wildmeshing</text>
<text text-anchor="start" x="374" y="-29" font-family="Helvetica,sans-Serif" font-size="10.00">/wmtk/components/wildmeshing</text>
<text text-anchor="middle" x="454" y="-18" font-family="Helvetica,sans-Serif" font-size="10.00">/wildmeshing_old.cpp</text>
</a>
</g>
</g>
<!-- Node2&#45;&gt;Node7 -->
<g id="edge6_Node000002_Node000007" class="edge">
<title>Node2&#45;&gt;Node7</title>
<g id="a_edge6_Node000002_Node000007"><a xlink:title=" ">
<path fill="none" stroke="#63b8ff" d="M603.08,-95C572.68,-82.26 531.94,-65.18 500.72,-52.09"/>
<polygon fill="#63b8ff" stroke="#63b8ff" points="601.98,-98.34 612.56,-98.98 604.69,-91.88 601.98,-98.34"/>
</a>
</g>
</g>
<!-- Node8 -->
<g id="Node000008" class="node">
<title>Node8</title>
<g id="a_Node000008"><a xlink:href="_and_operation_sequence_8cpp.html" target="_top" xlink:title=" ">
<polygon fill="white" stroke="#666666" points="154,-46.5 0,-46.5 0,-16.5 154,-16.5 154,-46.5"/>
<text text-anchor="start" x="8" y="-34.5" font-family="Helvetica,sans-Serif" font-size="10.00">src/wmtk/operations</text>
<text text-anchor="middle" x="77" y="-23.5" font-family="Helvetica,sans-Serif" font-size="10.00">/AndOperationSequence.cpp</text>
</a>
</g>
</g>
<!-- Node2&#45;&gt;Node8 -->
<g id="edge7_Node000002_Node000008" class="edge">
<title>Node2&#45;&gt;Node8</title>
<g id="a_edge7_Node000002_Node000008"><a xlink:title=" ">
<path fill="none" stroke="#63b8ff" d="M558.01,-110.16C460.42,-105.57 298.81,-93.65 163,-63 145.38,-59.02 126.4,-52.54 110.77,-46.57"/>
<polygon fill="#63b8ff" stroke="#63b8ff" points="557.97,-113.66 568.12,-110.62 558.29,-106.67 557.97,-113.66"/>
</a>
</g>
</g>
<!-- Node9&#45;&gt;Node3 -->
<g id="edge10_Node000009_Node000003" class="edge">
<title>Node9&#45;&gt;Node3</title>
<g id="a_edge10_Node000009_Node000003"><a xlink:title=" ">
<path fill="none" stroke="#63b8ff" d="M944.02,-94.72C923.56,-85.35 898.1,-73.71 874.76,-63.03"/>
<polygon fill="#63b8ff" stroke="#63b8ff" points="942.79,-98 953.34,-98.98 945.71,-91.64 942.79,-98"/>
</a>
</g>
</g>
<!-- Node9&#45;&gt;Node4 -->
<g id="edge11_Node000009_Node000004" class="edge">
<title>Node9&#45;&gt;Node4</title>
<g id="a_edge11_Node000009_Node000004"><a xlink:title=" ">
<path fill="none" stroke="#63b8ff" d="M986.41,-88.74C987.78,-74.98 989.44,-58.25 990.6,-46.63"/>
<polygon fill="#63b8ff" stroke="#63b8ff" points="982.9,-88.68 985.39,-98.98 989.87,-89.37 982.9,-88.68"/>
</a>
</g>
</g>
<!-- Node9&#45;&gt;Node5 -->
<g id="edge12_Node000009_Node000005" class="edge">
<title>Node9&#45;&gt;Node5</title>
<g id="a_edge12_Node000009_Node000005"><a xlink:title=" ">
<path fill="none" stroke="#63b8ff" d="M1027.42,-95.17C1058.49,-82.41 1100.3,-65.23 1132.3,-52.09"/>
<polygon fill="#63b8ff" stroke="#63b8ff" points="1026.06,-91.94 1018.14,-98.98 1028.72,-98.42 1026.06,-91.94"/>
</a>
</g>
</g>
<!-- Node9&#45;&gt;Node6 -->
<g id="edge13_Node000009_Node000006" class="edge">
<title>Node9&#45;&gt;Node6</title>
<g id="a_edge13_Node000009_Node000006"><a xlink:title=" ">
<path fill="none" stroke="#63b8ff" d="M896.62,-98.93C656.78,-72.57 590.6,-106.85 357,-63 342.95,-60.36 328.08,-56.34 314.31,-52.07"/>
<polygon fill="#63b8ff" stroke="#63b8ff" points="896.36,-102.42 906.69,-100.06 897.15,-95.47 896.36,-102.42"/>
</a>
</g>
</g>
<!-- Node9&#45;&gt;Node7 -->
<g id="edge14_Node000009_Node000007" class="edge">
<title>Node9&#45;&gt;Node7</title>
<g id="a_edge14_Node000009_Node000007"><a xlink:title=" ">
<path fill="none" stroke="#63b8ff" d="M896.38,-98.85C742.47,-79.2 699.57,-93.74 551,-63 537.34,-60.17 522.88,-56.19 509.4,-52.03"/>
<polygon fill="#63b8ff" stroke="#63b8ff" points="896.31,-102.37 906.68,-100.2 897.21,-95.43 896.31,-102.37"/>
</a>
</g>
</g>
<!-- Node10 -->
<g id="Node000010" class="node">
<title>Node10</title>
<g id="a_Node000010"><a xlink:href="configure__swap__tetmesh_8cpp.html" target="_top" xlink:title=" ">
<polygon fill="white" stroke="#666666" points="1452.5,-57.5 1285.5,-57.5 1285.5,-5.5 1452.5,-5.5 1452.5,-57.5"/>
<text text-anchor="start" x="1293.5" y="-45.5" font-family="Helvetica,sans-Serif" font-size="10.00">components/isotropic</text>
<text text-anchor="start" x="1293.5" y="-34.5" font-family="Helvetica,sans-Serif" font-size="10.00">_remeshing/wmtk/components</text>
<text text-anchor="start" x="1293.5" y="-23.5" font-family="Helvetica,sans-Serif" font-size="10.00">/isotropic_remeshing/internal</text>
<text text-anchor="middle" x="1369" y="-12.5" font-family="Helvetica,sans-Serif" font-size="10.00">/configure_swap_tetmesh.cpp</text>
</a>
</g>
</g>
<!-- Node9&#45;&gt;Node10 -->
<g id="edge9_Node000009_Node000010" class="edge">
<title>Node9&#45;&gt;Node10</title>
<g id="a_edge9_Node000009_Node000010"><a xlink:title=" ">
<path fill="none" stroke="#63b8ff" d="M1071.26,-98.8C1150.26,-85.82 1257.22,-67.94 1277,-63 1283.53,-61.37 1290.27,-59.51 1296.98,-57.52"/>
<polygon fill="#63b8ff" stroke="#63b8ff" points="1070.58,-95.36 1061.28,-100.43 1071.72,-102.27 1070.58,-95.36"/>
</a>
</g>
</g>
<!-- Node11 -->
<g id="Node000011" class="node">
<title>Node11</title>
<g id="a_Node000011"><a xlink:href="_min_operation_sequence_8cpp.html" target="_top" xlink:title=" ">
<polygon fill="white" stroke="#666666" points="1623.5,-46.5 1470.5,-46.5 1470.5,-16.5 1623.5,-16.5 1623.5,-46.5"/>
<text text-anchor="start" x="1478.5" y="-34.5" font-family="Helvetica,sans-Serif" font-size="10.00">src/wmtk/operations</text>
<text text-anchor="middle" x="1547" y="-23.5" font-family="Helvetica,sans-Serif" font-size="10.00">/MinOperationSequence.cpp</text>
</a>
</g>
</g>
<!-- Node9&#45;&gt;Node11 -->
<g id="edge15_Node000009_Node000011" class="edge">
<title>Node9&#45;&gt;Node11</title>
<g id="a_edge15_Node000009_Node000011"><a xlink:title=" ">
<path fill="none" stroke="#63b8ff" d="M1071.32,-99.04C1245.94,-77.98 1294.79,-100.07 1462,-63 1479.6,-59.1 1498.54,-52.55 1514.07,-46.51"/>
<polygon fill="#63b8ff" stroke="#63b8ff" points="1070.78,-95.58 1061.28,-100.29 1071.64,-102.53 1070.78,-95.58"/>
</a>
</g>
</g>
<!-- Node13&#45;&gt;Node3 -->
<g id="edge19_Node000013_Node000003" class="edge">
<title>Node13&#45;&gt;Node3</title>
<g id="a_edge19_Node000013_Node000003"><a xlink:title=" ">
<path fill="none" stroke="#63b8ff" d="M812.89,-88.74C812.19,-80.65 811.39,-71.54 810.66,-63.03"/>
<polygon fill="#63b8ff" stroke="#63b8ff" points="809.43,-89.32 813.78,-98.98 816.4,-88.71 809.43,-89.32"/>
</a>
</g>
</g>
<!-- Node13&#45;&gt;Node4 -->
<g id="edge20_Node000013_Node000004" class="edge">
<title>Node13&#45;&gt;Node4</title>
<g id="a_edge20_Node000013_Node000004"><a xlink:title=" ">
<path fill="none" stroke="#63b8ff" d="M854.95,-94.83C887.04,-80.24 931.46,-60.03 960.93,-46.63"/>
<polygon fill="#63b8ff" stroke="#63b8ff" points="853.48,-91.65 845.83,-98.98 856.38,-98.02 853.48,-91.65"/>
</a>
</g>
</g>
<!-- Node13&#45;&gt;Node5 -->
<g id="edge21_Node000013_Node000005" class="edge">
<title>Node13&#45;&gt;Node5</title>
<g id="a_edge21_Node000013_Node000005"><a xlink:title=" ">
<path fill="none" stroke="#63b8ff" d="M898.57,-98.54C963.77,-87.05 1048.82,-71.53 1083,-63 1095.67,-59.84 1109.13,-55.95 1121.85,-52.03"/>
<polygon fill="#63b8ff" stroke="#63b8ff" points="897.94,-95.1 888.7,-100.28 899.16,-101.99 897.94,-95.1"/>
</a>
</g>
</g>
<!-- Node13&#45;&gt;Node6 -->
<g id="edge22_Node000013_Node000006" class="edge">
<title>Node13&#45;&gt;Node6</title>
<g id="a_edge22_Node000013_Node000006"><a xlink:title=" ">
<path fill="none" stroke="#63b8ff" d="M731.19,-98.83C564.79,-77.6 518.31,-95.71 357,-63 343.25,-60.21 328.68,-56.21 315.13,-52.03"/>
<polygon fill="#63b8ff" stroke="#63b8ff" points="730.91,-102.33 741.28,-100.15 731.82,-95.39 730.91,-102.33"/>
</a>
</g>
</g>
<!-- Node13&#45;&gt;Node7 -->
<g id="edge23_Node000013_Node000007" class="edge">
<title>Node13&#45;&gt;Node7</title>
<g id="a_edge23_Node000013_Node000007"><a xlink:title=" ">
<path fill="none" stroke="#63b8ff" d="M731.36,-98.26C667.31,-86.77 584.45,-71.39 551,-63 538.33,-59.82 524.88,-55.93 512.16,-52.01"/>
<polygon fill="#63b8ff" stroke="#63b8ff" points="731,-101.75 741.46,-100.07 732.24,-94.86 731,-101.75"/>
</a>
</g>
</g>
<!-- Node13&#45;&gt;Node10 -->
<g id="edge18_Node000013_Node000010" class="edge">
<title>Node13&#45;&gt;Node10</title>
<g id="a_edge18_Node000013_Node000010"><a xlink:title=" ">
<path fill="none" stroke="#63b8ff" d="M898.7,-98.99C1067.54,-77.69 1114.58,-97.18 1277,-63 1284.16,-61.49 1291.55,-59.62 1298.87,-57.54"/>
<polygon fill="#63b8ff" stroke="#63b8ff" points="898.19,-95.53 888.72,-100.28 899.09,-102.47 898.19,-95.53"/>
</a>
</g>
</g>
<!-- Node14 -->
<g id="Node000014" class="node">
<title>Node14</title>
<g id="a_Node000014"><a xlink:href="_or_operation_sequence_8cpp.html" target="_top" xlink:title=" ">
<polygon fill="white" stroke="#666666" points="706,-46.5 560,-46.5 560,-16.5 706,-16.5 706,-46.5"/>
<text text-anchor="start" x="568" y="-34.5" font-family="Helvetica,sans-Serif" font-size="10.00">src/wmtk/operations</text>
<text text-anchor="middle" x="633" y="-23.5" font-family="Helvetica,sans-Serif" font-size="10.00">/OrOperationSequence.cpp</text>
</a>
</g>
</g>
<!-- Node13&#45;&gt;Node14 -->
<g id="edge24_Node000013_Node000014" class="edge">
<title>Node13&#45;&gt;Node14</title>
<g id="a_edge24_Node000013_Node000014"><a xlink:title=" ">
<path fill="none" stroke="#63b8ff" d="M773.92,-94.83C740.93,-80.24 695.25,-60.03 664.95,-46.63"/>
<polygon fill="#63b8ff" stroke="#63b8ff" points="772.74,-98.13 783.3,-98.98 775.57,-91.73 772.74,-98.13"/>
</a>
</g>
</g>
</g>
</svg>
