<?xml version="1.0" encoding="UTF-8" standalone="no"?>
<!DOCTYPE svg PUBLIC "-//W3C//DTD SVG 1.1//EN"
 "http://www.w3.org/Graphics/SVG/1.1/DTD/svg11.dtd">
<!-- Generated by graphviz version 2.43.0 (0)
 -->
<!-- Title: components/configurator/src/wmtk/components/configurator/operations/PriorityOptions.hpp Pages: 1 -->
<svg width="1825pt" height="467pt"
 viewBox="0.00 0.00 1825.00 467.00" xmlns="http://www.w3.org/2000/svg" xmlns:xlink="http://www.w3.org/1999/xlink">
<g id="graph0" class="graph" transform="scale(1 1) rotate(0) translate(4 463)">
<title>components/configurator/src/wmtk/components/configurator/operations/PriorityOptions.hpp</title>
<!-- Node1 -->
<g id="Node000001" class="node">
<title>Node1</title>
<g id="a_Node000001"><a xlink:title=" ">
<polygon fill="#999999" stroke="#666666" points="1241,-459 1052,-459 1052,-418 1241,-418 1241,-459"/>
<text text-anchor="start" x="1060" y="-447" font-family="Helvetica,sans-Serif" font-size="10.00">components/configurator</text>
<text text-anchor="start" x="1060" y="-436" font-family="Helvetica,sans-Serif" font-size="10.00">/src/wmtk/components/configurator</text>
<text text-anchor="middle" x="1146.5" y="-425" font-family="Helvetica,sans-Serif" font-size="10.00">/operations/PriorityOptions.hpp</text>
</a>
</g>
</g>
<!-- Node2 -->
<g id="Node000002" class="node">
<title>Node2</title>
<g id="a_Node000002"><a xlink:href="_operation_options_8hpp.html" target="_top" xlink:title=" ">
<polygon fill="white" stroke="#666666" points="1138,-382 949,-382 949,-341 1138,-341 1138,-382"/>
<text text-anchor="start" x="957" y="-370" font-family="Helvetica,sans-Serif" font-size="10.00">components/configurator</text>
<text text-anchor="start" x="957" y="-359" font-family="Helvetica,sans-Serif" font-size="10.00">/src/wmtk/components/configurator</text>
<text text-anchor="middle" x="1043.5" y="-348" font-family="Helvetica,sans-Serif" font-size="10.00">/operations/OperationOptions.hpp</text>
</a>
</g>
</g>
<!-- Node1&#45;&gt;Node2 -->
<g id="edge1_Node000001_Node000002" class="edge">
<title>Node1&#45;&gt;Node2</title>
<g id="a_edge1_Node000001_Node000002"><a xlink:title=" ">
<path fill="none" stroke="#63b8ff" d="M1111.61,-412.09C1098.19,-402.32 1083.08,-391.32 1070.52,-382.17"/>
<polygon fill="#63b8ff" stroke="#63b8ff" points="1109.56,-414.93 1119.71,-417.99 1113.68,-409.27 1109.56,-414.93"/>
</a>
</g>
</g>
<!-- Node22 -->
<g id="Node000022" class="node">
<title>Node22</title>
<g id="a_Node000022"><a xlink:href="_priority_options_8cpp.html" target="_top" xlink:title=" ">
<polygon fill="white" stroke="#666666" points="1345,-382 1156,-382 1156,-341 1345,-341 1345,-382"/>
<text text-anchor="start" x="1164" y="-370" font-family="Helvetica,sans-Serif" font-size="10.00">components/configurator</text>
<text text-anchor="start" x="1164" y="-359" font-family="Helvetica,sans-Serif" font-size="10.00">/src/wmtk/components/configurator</text>
<text text-anchor="middle" x="1250.5" y="-348" font-family="Helvetica,sans-Serif" font-size="10.00">/operations/PriorityOptions.cpp</text>
</a>
</g>
</g>
<!-- Node1&#45;&gt;Node22 -->
<g id="edge23_Node000001_Node000022" class="edge">
<title>Node1&#45;&gt;Node22</title>
<g id="a_edge23_Node000001_Node000022"><a xlink:title=" ">
<path fill="none" stroke="#63b8ff" d="M1181.73,-412.09C1195.28,-402.32 1210.53,-391.32 1223.22,-382.17"/>
<polygon fill="#63b8ff" stroke="#63b8ff" points="1179.62,-409.3 1173.55,-417.99 1183.71,-414.98 1179.62,-409.3"/>
</a>
</g>
</g>
<!-- Node3 -->
<g id="Node000003" class="node">
<title>Node3</title>
<g id="a_Node000003"><a xlink:href="_configuration_8hpp.html" target="_top" xlink:title=" ">
<polygon fill="white" stroke="#666666" points="641,-222.5 452,-222.5 452,-181.5 641,-181.5 641,-222.5"/>
<text text-anchor="start" x="460" y="-210.5" font-family="Helvetica,sans-Serif" font-size="10.00">components/configurator</text>
<text text-anchor="start" x="460" y="-199.5" font-family="Helvetica,sans-Serif" font-size="10.00">/src/wmtk/components/configurator</text>
<text text-anchor="middle" x="546.5" y="-188.5" font-family="Helvetica,sans-Serif" font-size="10.00">/Configuration.hpp</text>
</a>
</g>
</g>
<!-- Node2&#45;&gt;Node3 -->
<g id="edge2_Node000002_Node000003" class="edge">
<title>Node2&#45;&gt;Node3</title>
<g id="a_edge2_Node000002_Node000003"><a xlink:title=" ">
<path fill="none" stroke="#63b8ff" d="M942.83,-338.66C903.17,-329.33 857.41,-317.68 816.5,-305 736.81,-280.31 646.57,-244.59 593.21,-222.63"/>
<polygon fill="#63b8ff" stroke="#63b8ff" points="942.25,-342.12 952.78,-340.98 943.84,-335.3 942.25,-342.12"/>
</a>
</g>
</g>
<!-- Node6 -->
<g id="Node000006" class="node">
<title>Node6</title>
<g id="a_Node000006"><a xlink:href="_pass_configuration_8hpp.html" target="_top" xlink:title=" ">
<polygon fill="white" stroke="#666666" points="1015,-305 826,-305 826,-264 1015,-264 1015,-305"/>
<text text-anchor="start" x="834" y="-293" font-family="Helvetica,sans-Serif" font-size="10.00">components/configurator</text>
<text text-anchor="start" x="834" y="-282" font-family="Helvetica,sans-Serif" font-size="10.00">/src/wmtk/components/configurator</text>
<text text-anchor="middle" x="920.5" y="-271" font-family="Helvetica,sans-Serif" font-size="10.00">/PassConfiguration.hpp</text>
</a>
</g>
</g>
<!-- Node2&#45;&gt;Node6 -->
<g id="edge5_Node000002_Node000006" class="edge">
<title>Node2&#45;&gt;Node6</title>
<g id="a_edge5_Node000002_Node000006"><a xlink:title=" ">
<path fill="none" stroke="#63b8ff" d="M1002.74,-335.64C986.49,-325.74 968.05,-314.5 952.76,-305.17"/>
<polygon fill="#63b8ff" stroke="#63b8ff" points="1001.14,-338.77 1011.5,-340.99 1004.79,-332.8 1001.14,-338.77"/>
</a>
</g>
</g>
<!-- Node7 -->
<g id="Node000007" class="node">
<title>Node7</title>
<g id="a_Node000007"><a xlink:href="_isotropic_remeshing_options_8hpp.html" target="_top" xlink:title=" ">
<polygon fill="white" stroke="#666666" points="1181.5,-228 963.5,-228 963.5,-176 1181.5,-176 1181.5,-228"/>
<text text-anchor="start" x="971.5" y="-216" font-family="Helvetica,sans-Serif" font-size="10.00">components/isotropic</text>
<text text-anchor="start" x="971.5" y="-205" font-family="Helvetica,sans-Serif" font-size="10.00">_remeshing/wmtk/components</text>
<text text-anchor="start" x="971.5" y="-194" font-family="Helvetica,sans-Serif" font-size="10.00">/isotropic_remeshing/IsotropicRemeshing</text>
<text text-anchor="middle" x="1072.5" y="-183" font-family="Helvetica,sans-Serif" font-size="10.00">Options.hpp</text>
</a>
</g>
</g>
<!-- Node2&#45;&gt;Node7 -->
<g id="edge22_Node000002_Node000007" class="edge">
<title>Node2&#45;&gt;Node7</title>
<g id="a_edge22_Node000002_Node000007"><a xlink:title=" ">
<path fill="none" stroke="#63b8ff" d="M1048.99,-330.69C1054.45,-301.02 1062.74,-255.98 1067.88,-228.08"/>
<polygon fill="#63b8ff" stroke="#63b8ff" points="1045.48,-330.4 1047.11,-340.87 1052.37,-331.67 1045.48,-330.4"/>
</a>
</g>
</g>
<!-- Node20 -->
<g id="Node000020" class="node">
<title>Node20</title>
<g id="a_Node000020"><a xlink:href="_operation_factory_8cpp.html" target="_top" xlink:title=" ">
<polygon fill="white" stroke="#666666" points="1261,-305 1072,-305 1072,-264 1261,-264 1261,-305"/>
<text text-anchor="start" x="1080" y="-293" font-family="Helvetica,sans-Serif" font-size="10.00">components/configurator</text>
<text text-anchor="start" x="1080" y="-282" font-family="Helvetica,sans-Serif" font-size="10.00">/src/wmtk/components/configurator</text>
<text text-anchor="middle" x="1166.5" y="-271" font-family="Helvetica,sans-Serif" font-size="10.00">/operations/OperationFactory.cpp</text>
</a>
</g>
</g>
<!-- Node2&#45;&gt;Node20 -->
<g id="edge20_Node000002_Node000020" class="edge">
<title>Node2&#45;&gt;Node20</title>
<g id="a_edge20_Node000002_Node000020"><a xlink:title=" ">
<path fill="none" stroke="#63b8ff" d="M1084.26,-335.64C1100.51,-325.74 1118.95,-314.5 1134.24,-305.17"/>
<polygon fill="#63b8ff" stroke="#63b8ff" points="1082.21,-332.8 1075.5,-340.99 1085.86,-338.77 1082.21,-332.8"/>
</a>
</g>
</g>
<!-- Node21 -->
<g id="Node000021" class="node">
<title>Node21</title>
<g id="a_Node000021"><a xlink:href="_operation_options_8cpp.html" target="_top" xlink:title=" ">
<polygon fill="white" stroke="#666666" points="1468,-305 1279,-305 1279,-264 1468,-264 1468,-305"/>
<text text-anchor="start" x="1287" y="-293" font-family="Helvetica,sans-Serif" font-size="10.00">components/configurator</text>
<text text-anchor="start" x="1287" y="-282" font-family="Helvetica,sans-Serif" font-size="10.00">/src/wmtk/components/configurator</text>
<text text-anchor="middle" x="1373.5" y="-271" font-family="Helvetica,sans-Serif" font-size="10.00">/operations/OperationOptions.cpp</text>
</a>
</g>
</g>
<!-- Node2&#45;&gt;Node21 -->
<g id="edge21_Node000002_Node000021" class="edge">
<title>Node2&#45;&gt;Node21</title>
<g id="a_edge21_Node000002_Node000021"><a xlink:title=" ">
<path fill="none" stroke="#63b8ff" d="M1139.2,-338.75C1186.06,-328.1 1242.03,-315.38 1287.52,-305.04"/>
<polygon fill="#63b8ff" stroke="#63b8ff" points="1138.32,-335.36 1129.34,-340.99 1139.87,-342.19 1138.32,-335.36"/>
</a>
</g>
</g>
<!-- Node4 -->
<g id="Node000004" class="node">
<title>Node4</title>
<g id="a_Node000004"><a xlink:href="_configuration_8cpp.html" target="_top" xlink:title=" ">
<polygon fill="white" stroke="#666666" points="376,-134.5 187,-134.5 187,-93.5 376,-93.5 376,-134.5"/>
<text text-anchor="start" x="195" y="-122.5" font-family="Helvetica,sans-Serif" font-size="10.00">components/configurator</text>
<text text-anchor="start" x="195" y="-111.5" font-family="Helvetica,sans-Serif" font-size="10.00">/src/wmtk/components/configurator</text>
<text text-anchor="middle" x="281.5" y="-100.5" font-family="Helvetica,sans-Serif" font-size="10.00">/Configuration.cpp</text>
</a>
</g>
</g>
<!-- Node3&#45;&gt;Node4 -->
<g id="edge3_Node000003_Node000004" class="edge">
<title>Node3&#45;&gt;Node4</title>
<g id="a_edge3_Node000003_Node000004"><a xlink:title=" ">
<path fill="none" stroke="#63b8ff" d="M476.78,-178.37C434.84,-164.76 381.99,-147.61 341.85,-134.59"/>
<polygon fill="#63b8ff" stroke="#63b8ff" points="475.78,-181.73 486.37,-181.49 477.94,-175.07 475.78,-181.73"/>
</a>
</g>
</g>
<!-- Node5 -->
<g id="Node000005" class="node">
<title>Node5</title>
<g id="a_Node000005"><a xlink:href="_configurator_8cpp.html" target="_top" xlink:title=" ">
<polygon fill="white" stroke="#666666" points="583,-134.5 394,-134.5 394,-93.5 583,-93.5 583,-134.5"/>
<text text-anchor="start" x="402" y="-122.5" font-family="Helvetica,sans-Serif" font-size="10.00">components/configurator</text>
<text text-anchor="start" x="402" y="-111.5" font-family="Helvetica,sans-Serif" font-size="10.00">/src/wmtk/components/configurator</text>
<text text-anchor="middle" x="488.5" y="-100.5" font-family="Helvetica,sans-Serif" font-size="10.00">/Configurator.cpp</text>
</a>
</g>
</g>
<!-- Node3&#45;&gt;Node5 -->
<g id="edge4_Node000003_Node000005" class="edge">
<title>Node3&#45;&gt;Node5</title>
<g id="a_edge4_Node000003_Node000005"><a xlink:title=" ">
<path fill="none" stroke="#63b8ff" d="M527.74,-173.18C519.28,-160.64 509.5,-146.13 501.81,-134.74"/>
<polygon fill="#63b8ff" stroke="#63b8ff" points="524.85,-175.15 533.34,-181.49 530.65,-171.24 524.85,-175.15"/>
</a>
</g>
</g>
<!-- Node6&#45;&gt;Node3 -->
<g id="edge6_Node000006_Node000003" class="edge">
<title>Node6&#45;&gt;Node3</title>
<g id="a_edge6_Node000006_Node000003"><a xlink:title=" ">
<path fill="none" stroke="#63b8ff" d="M819.41,-261.74C762.61,-249.52 692.3,-234.38 637.27,-222.54"/>
<polygon fill="#63b8ff" stroke="#63b8ff" points="818.97,-265.23 829.49,-263.91 820.45,-258.38 818.97,-265.23"/>
</a>
</g>
</g>
<!-- Node6&#45;&gt;Node7 -->
<g id="edge7_Node000006_Node000007" class="edge">
<title>Node6&#45;&gt;Node7</title>
<g id="a_edge7_Node000006_Node000007"><a xlink:title=" ">
<path fill="none" stroke="#63b8ff" d="M966.52,-259.13C985.04,-249.32 1006.39,-238.01 1025.06,-228.13"/>
<polygon fill="#63b8ff" stroke="#63b8ff" points="964.88,-256.03 957.68,-263.81 968.16,-262.22 964.88,-256.03"/>
</a>
</g>
</g>
<!-- Node8 -->
<g id="Node000008" class="node">
<title>Node8</title>
<g id="a_Node000008"><a xlink:href="_isotropic_remeshing_8hpp.html" target="_top" xlink:title=" ">
<polygon fill="white" stroke="#666666" points="840,-134.5 601,-134.5 601,-93.5 840,-93.5 840,-134.5"/>
<text text-anchor="start" x="609" y="-122.5" font-family="Helvetica,sans-Serif" font-size="10.00">components/isotropic</text>
<text text-anchor="start" x="609" y="-111.5" font-family="Helvetica,sans-Serif" font-size="10.00">_remeshing/wmtk/components</text>
<text text-anchor="middle" x="720.5" y="-100.5" font-family="Helvetica,sans-Serif" font-size="10.00">/isotropic_remeshing/IsotropicRemeshing.hpp</text>
</a>
</g>
</g>
<!-- Node7&#45;&gt;Node8 -->
<g id="edge8_Node000007_Node000008" class="edge">
<title>Node7&#45;&gt;Node8</title>
<g id="a_edge8_Node000007_Node000008"><a xlink:title=" ">
<path fill="none" stroke="#63b8ff" d="M959.82,-173.47C907.93,-160.79 847.56,-146.04 800.44,-134.53"/>
<polygon fill="#63b8ff" stroke="#63b8ff" points="959.2,-176.92 969.74,-175.89 960.86,-170.12 959.2,-176.92"/>
</a>
</g>
</g>
<!-- Node15 -->
<g id="Node000015" class="node">
<title>Node15</title>
<g id="a_Node000015"><a xlink:href="_isotropic_remeshing_options_8cpp.html" target="_top" xlink:title=" ">
<polygon fill="white" stroke="#666666" points="1076.5,-140 858.5,-140 858.5,-88 1076.5,-88 1076.5,-140"/>
<text text-anchor="start" x="866.5" y="-128" font-family="Helvetica,sans-Serif" font-size="10.00">components/isotropic</text>
<text text-anchor="start" x="866.5" y="-117" font-family="Helvetica,sans-Serif" font-size="10.00">_remeshing/wmtk/components</text>
<text text-anchor="start" x="866.5" y="-106" font-family="Helvetica,sans-Serif" font-size="10.00">/isotropic_remeshing/IsotropicRemeshing</text>
<text text-anchor="middle" x="967.5" y="-95" font-family="Helvetica,sans-Serif" font-size="10.00">Options.cpp</text>
</a>
</g>
</g>
<!-- Node7&#45;&gt;Node15 -->
<g id="edge15_Node000007_Node000015" class="edge">
<title>Node7&#45;&gt;Node15</title>
<g id="a_edge15_Node000007_Node000015"><a xlink:title=" ">
<path fill="none" stroke="#63b8ff" d="M1033.93,-169.41C1022.22,-159.82 1009.51,-149.41 998.37,-140.29"/>
<polygon fill="#63b8ff" stroke="#63b8ff" points="1031.89,-172.27 1041.85,-175.89 1036.33,-166.85 1031.89,-172.27"/>
</a>
</g>
</g>
<!-- Node16 -->
<g id="Node000016" class="node">
<title>Node16</title>
<g id="a_Node000016"><a xlink:href="configure__collapse_8cpp.html" target="_top" xlink:title=" ">
<polygon fill="white" stroke="#666666" points="1262,-140 1095,-140 1095,-88 1262,-88 1262,-140"/>
<text text-anchor="start" x="1103" y="-128" font-family="Helvetica,sans-Serif" font-size="10.00">components/isotropic</text>
<text text-anchor="start" x="1103" y="-117" font-family="Helvetica,sans-Serif" font-size="10.00">_remeshing/wmtk/components</text>
<text text-anchor="start" x="1103" y="-106" font-family="Helvetica,sans-Serif" font-size="10.00">/isotropic_remeshing/internal</text>
<text text-anchor="middle" x="1178.5" y="-95" font-family="Helvetica,sans-Serif" font-size="10.00">/configure_collapse.cpp</text>
</a>
</g>
</g>
<!-- Node7&#45;&gt;Node16 -->
<g id="edge16_Node000007_Node000016" class="edge">
<title>Node7&#45;&gt;Node16</title>
<g id="a_edge16_Node000007_Node000016"><a xlink:title=" ">
<path fill="none" stroke="#63b8ff" d="M1111.44,-169.41C1123.26,-159.82 1136.09,-149.41 1147.33,-140.29"/>
<polygon fill="#63b8ff" stroke="#63b8ff" points="1109.01,-166.88 1103.44,-175.89 1113.42,-172.31 1109.01,-166.88"/>
</a>
</g>
</g>
<!-- Node17 -->
<g id="Node000017" class="node">
<title>Node17</title>
<g id="a_Node000017"><a xlink:href="configure__split_8cpp.html" target="_top" xlink:title=" ">
<polygon fill="white" stroke="#666666" points="1447,-140 1280,-140 1280,-88 1447,-88 1447,-140"/>
<text text-anchor="start" x="1288" y="-128" font-family="Helvetica,sans-Serif" font-size="10.00">components/isotropic</text>
<text text-anchor="start" x="1288" y="-117" font-family="Helvetica,sans-Serif" font-size="10.00">_remeshing/wmtk/components</text>
<text text-anchor="start" x="1288" y="-106" font-family="Helvetica,sans-Serif" font-size="10.00">/isotropic_remeshing/internal</text>
<text text-anchor="middle" x="1363.5" y="-95" font-family="Helvetica,sans-Serif" font-size="10.00">/configure_split.cpp</text>
</a>
</g>
</g>
<!-- Node7&#45;&gt;Node17 -->
<g id="edge17_Node000007_Node000017" class="edge">
<title>Node7&#45;&gt;Node17</title>
<g id="a_edge17_Node000007_Node000017"><a xlink:title=" ">
<path fill="none" stroke="#63b8ff" d="M1167.08,-173.05C1203.45,-162.3 1244.69,-150.11 1279.95,-139.69"/>
<polygon fill="#63b8ff" stroke="#63b8ff" points="1166.05,-169.7 1157.45,-175.89 1168.03,-176.42 1166.05,-169.7"/>
</a>
</g>
</g>
<!-- Node18 -->
<g id="Node000018" class="node">
<title>Node18</title>
<g id="a_Node000018"><a xlink:href="configure__swap_8cpp.html" target="_top" xlink:title=" ">
<polygon fill="white" stroke="#666666" points="1632,-140 1465,-140 1465,-88 1632,-88 1632,-140"/>
<text text-anchor="start" x="1473" y="-128" font-family="Helvetica,sans-Serif" font-size="10.00">components/isotropic</text>
<text text-anchor="start" x="1473" y="-117" font-family="Helvetica,sans-Serif" font-size="10.00">_remeshing/wmtk/components</text>
<text text-anchor="start" x="1473" y="-106" font-family="Helvetica,sans-Serif" font-size="10.00">/isotropic_remeshing/internal</text>
<text text-anchor="middle" x="1548.5" y="-95" font-family="Helvetica,sans-Serif" font-size="10.00">/configure_swap.cpp</text>
</a>
</g>
</g>
<!-- Node7&#45;&gt;Node18 -->
<g id="edge18_Node000007_Node000018" class="edge">
<title>Node7&#45;&gt;Node18</title>
<g id="a_edge18_Node000007_Node000018"><a xlink:title=" ">
<path fill="none" stroke="#63b8ff" d="M1192.01,-185.4C1268.1,-174.63 1368.54,-158.88 1456.5,-140 1459.25,-139.41 1462.04,-138.79 1464.86,-138.14"/>
<polygon fill="#63b8ff" stroke="#63b8ff" points="1191.32,-181.96 1181.91,-186.82 1192.3,-188.89 1191.32,-181.96"/>
</a>
</g>
</g>
<!-- Node19 -->
<g id="Node000019" class="node">
<title>Node19</title>
<g id="a_Node000019"><a xlink:href="configure__swap__tetmesh_8cpp.html" target="_top" xlink:title=" ">
<polygon fill="white" stroke="#666666" points="1817,-140 1650,-140 1650,-88 1817,-88 1817,-140"/>
<text text-anchor="start" x="1658" y="-128" font-family="Helvetica,sans-Serif" font-size="10.00">components/isotropic</text>
<text text-anchor="start" x="1658" y="-117" font-family="Helvetica,sans-Serif" font-size="10.00">_remeshing/wmtk/components</text>
<text text-anchor="start" x="1658" y="-106" font-family="Helvetica,sans-Serif" font-size="10.00">/isotropic_remeshing/internal</text>
<text text-anchor="middle" x="1733.5" y="-95" font-family="Helvetica,sans-Serif" font-size="10.00">/configure_swap_tetmesh.cpp</text>
</a>
</g>
</g>
<!-- Node7&#45;&gt;Node19 -->
<g id="edge19_Node000007_Node000019" class="edge">
<title>Node7&#45;&gt;Node19</title>
<g id="a_edge19_Node000007_Node000019"><a xlink:title=" ">
<path fill="none" stroke="#63b8ff" d="M1191.83,-193.73C1307.52,-185.39 1487.61,-168.97 1641.5,-140 1644.27,-139.48 1647.07,-138.92 1649.89,-138.32"/>
<polygon fill="#63b8ff" stroke="#63b8ff" points="1191.26,-190.26 1181.54,-194.47 1191.76,-197.25 1191.26,-190.26"/>
</a>
</g>
</g>
<!-- Node9 -->
<g id="Node000009" class="node">
<title>Node9</title>
<g id="a_Node000009"><a xlink:href="_isotropic_remeshing_8cpp.html" target="_top" xlink:title=" ">
<polygon fill="white" stroke="#666666" points="239,-46.5 0,-46.5 0,-5.5 239,-5.5 239,-46.5"/>
<text text-anchor="start" x="8" y="-34.5" font-family="Helvetica,sans-Serif" font-size="10.00">components/isotropic</text>
<text text-anchor="start" x="8" y="-23.5" font-family="Helvetica,sans-Serif" font-size="10.00">_remeshing/wmtk/components</text>
<text text-anchor="middle" x="119.5" y="-12.5" font-family="Helvetica,sans-Serif" font-size="10.00">/isotropic_remeshing/IsotropicRemeshing.cpp</text>
</a>
</g>
</g>
<!-- Node8&#45;&gt;Node9 -->
<g id="edge9_Node000008_Node000009" class="edge">
<title>Node8&#45;&gt;Node9</title>
<g id="a_edge9_Node000008_Node000009"><a xlink:title=" ">
<path fill="none" stroke="#63b8ff" d="M614.61,-91.71C606.8,-90.38 599.04,-89.12 591.5,-88 439.89,-65.4 400.11,-74.6 248.5,-52 237.78,-50.4 226.6,-48.54 215.5,-46.56"/>
<polygon fill="#63b8ff" stroke="#63b8ff" points="614.05,-95.17 624.5,-93.44 615.25,-88.27 614.05,-95.17"/>
</a>
</g>
</g>
<!-- Node10 -->
<g id="Node000010" class="node">
<title>Node10</title>
<g id="a_Node000010"><a xlink:href="_isotropic_remeshing__collapse_8cpp.html" target="_top" xlink:title=" ">
<polygon fill="white" stroke="#666666" points="475.5,-52 257.5,-52 257.5,0 475.5,0 475.5,-52"/>
<text text-anchor="start" x="265.5" y="-40" font-family="Helvetica,sans-Serif" font-size="10.00">components/isotropic</text>
<text text-anchor="start" x="265.5" y="-29" font-family="Helvetica,sans-Serif" font-size="10.00">_remeshing/wmtk/components</text>
<text text-anchor="start" x="265.5" y="-18" font-family="Helvetica,sans-Serif" font-size="10.00">/isotropic_remeshing/IsotropicRemeshing</text>
<text text-anchor="middle" x="366.5" y="-7" font-family="Helvetica,sans-Serif" font-size="10.00">_collapse.cpp</text>
</a>
</g>
</g>
<!-- Node8&#45;&gt;Node10 -->
<g id="edge10_Node000008_Node000010" class="edge">
<title>Node8&#45;&gt;Node10</title>
<g id="a_edge10_Node000008_Node000010"><a xlink:title=" ">
<path fill="none" stroke="#63b8ff" d="M630.23,-91.07C581.27,-79.18 520.56,-64.43 469.73,-52.08"/>
<polygon fill="#63b8ff" stroke="#63b8ff" points="629.63,-94.53 640.17,-93.49 631.28,-87.72 629.63,-94.53"/>
</a>
</g>
</g>
<!-- Node11 -->
<g id="Node000011" class="node">
<title>Node11</title>
<g id="a_Node000011"><a xlink:href="_isotropic_remeshing__smooth_8cpp.html" target="_top" xlink:title=" ">
<polygon fill="white" stroke="#666666" points="711.5,-52 493.5,-52 493.5,0 711.5,0 711.5,-52"/>
<text text-anchor="start" x="501.5" y="-40" font-family="Helvetica,sans-Serif" font-size="10.00">components/isotropic</text>
<text text-anchor="start" x="501.5" y="-29" font-family="Helvetica,sans-Serif" font-size="10.00">_remeshing/wmtk/components</text>
<text text-anchor="start" x="501.5" y="-18" font-family="Helvetica,sans-Serif" font-size="10.00">/isotropic_remeshing/IsotropicRemeshing</text>
<text text-anchor="middle" x="602.5" y="-7" font-family="Helvetica,sans-Serif" font-size="10.00">_smooth.cpp</text>
</a>
</g>
</g>
<!-- Node8&#45;&gt;Node11 -->
<g id="edge11_Node000008_Node000011" class="edge">
<title>Node8&#45;&gt;Node11</title>
<g id="a_edge11_Node000008_Node000011"><a xlink:title=" ">
<path fill="none" stroke="#63b8ff" d="M685.55,-87.53C670.3,-76.41 652.46,-63.41 637.24,-52.32"/>
<polygon fill="#63b8ff" stroke="#63b8ff" points="683.58,-90.42 693.72,-93.49 687.7,-84.77 683.58,-90.42"/>
</a>
</g>
</g>
<!-- Node12 -->
<g id="Node000012" class="node">
<title>Node12</title>
<g id="a_Node000012"><a xlink:href="_isotropic_remeshing__split_8cpp.html" target="_top" xlink:title=" ">
<polygon fill="white" stroke="#666666" points="947.5,-52 729.5,-52 729.5,0 947.5,0 947.5,-52"/>
<text text-anchor="start" x="737.5" y="-40" font-family="Helvetica,sans-Serif" font-size="10.00">components/isotropic</text>
<text text-anchor="start" x="737.5" y="-29" font-family="Helvetica,sans-Serif" font-size="10.00">_remeshing/wmtk/components</text>
<text text-anchor="start" x="737.5" y="-18" font-family="Helvetica,sans-Serif" font-size="10.00">/isotropic_remeshing/IsotropicRemeshing</text>
<text text-anchor="middle" x="838.5" y="-7" font-family="Helvetica,sans-Serif" font-size="10.00">_split.cpp</text>
</a>
</g>
</g>
<!-- Node8&#45;&gt;Node12 -->
<g id="edge12_Node000008_Node000012" class="edge">
<title>Node8&#45;&gt;Node12</title>
<g id="a_edge12_Node000008_Node000012"><a xlink:title=" ">
<path fill="none" stroke="#63b8ff" d="M755.45,-87.53C770.7,-76.41 788.54,-63.41 803.76,-52.32"/>
<polygon fill="#63b8ff" stroke="#63b8ff" points="753.3,-84.77 747.28,-93.49 757.42,-90.42 753.3,-84.77"/>
</a>
</g>
</g>
<!-- Node13 -->
<g id="Node000013" class="node">
<title>Node13</title>
<g id="a_Node000013"><a xlink:href="_isotropic_remeshing__swap_8cpp.html" target="_top" xlink:title=" ">
<polygon fill="white" stroke="#666666" points="1183.5,-52 965.5,-52 965.5,0 1183.5,0 1183.5,-52"/>
<text text-anchor="start" x="973.5" y="-40" font-family="Helvetica,sans-Serif" font-size="10.00">components/isotropic</text>
<text text-anchor="start" x="973.5" y="-29" font-family="Helvetica,sans-Serif" font-size="10.00">_remeshing/wmtk/components</text>
<text text-anchor="start" x="973.5" y="-18" font-family="Helvetica,sans-Serif" font-size="10.00">/isotropic_remeshing/IsotropicRemeshing</text>
<text text-anchor="middle" x="1074.5" y="-7" font-family="Helvetica,sans-Serif" font-size="10.00">_swap.cpp</text>
</a>
</g>
</g>
<!-- Node8&#45;&gt;Node13 -->
<g id="edge13_Node000008_Node000013" class="edge">
<title>Node8&#45;&gt;Node13</title>
<g id="a_edge13_Node000008_Node000013"><a xlink:title=" ">
<path fill="none" stroke="#63b8ff" d="M810.77,-91.07C859.73,-79.18 920.44,-64.43 971.27,-52.08"/>
<polygon fill="#63b8ff" stroke="#63b8ff" points="809.72,-87.72 800.83,-93.49 811.37,-94.53 809.72,-87.72"/>
</a>
</g>
</g>
<!-- Node14 -->
<g id="Node000014" class="node">
<title>Node14</title>
<g id="a_Node000014"><a xlink:href="isotropic__remeshing_8cpp.html" target="_top" xlink:title=" ">
<polygon fill="white" stroke="#666666" points="1369,-52 1202,-52 1202,0 1369,0 1369,-52"/>
<text text-anchor="start" x="1210" y="-40" font-family="Helvetica,sans-Serif" font-size="10.00">components/isotropic</text>
<text text-anchor="start" x="1210" y="-29" font-family="Helvetica,sans-Serif" font-size="10.00">_remeshing/wmtk/components</text>
<text text-anchor="start" x="1210" y="-18" font-family="Helvetica,sans-Serif" font-size="10.00">/isotropic_remeshing/isotropic</text>
<text text-anchor="middle" x="1285.5" y="-7" font-family="Helvetica,sans-Serif" font-size="10.00">_remeshing.cpp</text>
</a>
</g>
</g>
<!-- Node8&#45;&gt;Node14 -->
<g id="edge14_Node000008_Node000014" class="edge">
<title>Node8&#45;&gt;Node14</title>
<g id="a_edge14_Node000008_Node000014"><a xlink:title=" ">
<path fill="none" stroke="#63b8ff" d="M826.39,-91.71C834.2,-90.38 841.96,-89.12 849.5,-88 1001.11,-65.4 1041.79,-79.98 1192.5,-52 1195.62,-51.42 1198.8,-50.79 1201.99,-50.12"/>
<polygon fill="#63b8ff" stroke="#63b8ff" points="825.75,-88.27 816.5,-93.44 826.95,-95.17 825.75,-88.27"/>
</a>
</g>
</g>
</g>
</svg>
