<?xml version="1.0" encoding="UTF-8" standalone="no"?>
<!DOCTYPE svg PUBLIC "-//W3C//DTD SVG 1.1//EN"
 "http://www.w3.org/Graphics/SVG/1.1/DTD/svg11.dtd">
<!-- Generated by graphviz version 2.43.0 (0)
 -->
<!-- Title: src/wmtk/simplex/RawSimplex.hpp Pages: 1 -->
<svg width="986pt" height="181pt"
 viewBox="0.00 0.00 985.50 181.00" xmlns="http://www.w3.org/2000/svg" xmlns:xlink="http://www.w3.org/1999/xlink">
<g id="graph0" class="graph" transform="scale(1 1) rotate(0) translate(4 177)">
<title>src/wmtk/simplex/RawSimplex.hpp</title>
<!-- Node1 -->
<g id="Node000001" class="node">
<title>Node1</title>
<g id="a_Node000001"><a xlink:title=" ">
<polygon fill="#999999" stroke="#666666" points="405,-173 217,-173 217,-154 405,-154 405,-173"/>
<text text-anchor="middle" x="311" y="-161" font-family="Helvetica,sans-Serif" font-size="10.00">src/wmtk/simplex/RawSimplex.hpp</text>
</a>
</g>
</g>
<!-- Node2 -->
<g id="Node000002" class="node">
<title>Node2</title>
<g id="a_Node000002"><a xlink:href="_raw_simplex_8cpp.html" target="_top" xlink:title=" ">
<polygon fill="white" stroke="#666666" points="188,-35.5 0,-35.5 0,-16.5 188,-16.5 188,-35.5"/>
<text text-anchor="middle" x="94" y="-23.5" font-family="Helvetica,sans-Serif" font-size="10.00">src/wmtk/simplex/RawSimplex.cpp</text>
</a>
</g>
</g>
<!-- Node1&#45;&gt;Node2 -->
<g id="edge1_Node000001_Node000002" class="edge">
<title>Node1&#45;&gt;Node2</title>
<g id="a_edge1_Node000001_Node000002"><a xlink:title=" ">
<path fill="none" stroke="#63b8ff" d="M288.38,-148.37C243.47,-120.33 144.25,-58.38 107.79,-35.61"/>
<polygon fill="#63b8ff" stroke="#63b8ff" points="286.76,-151.49 297.1,-153.82 290.47,-145.55 286.76,-151.49"/>
</a>
</g>
</g>
<!-- Node3 -->
<g id="Node000003" class="node">
<title>Node3</title>
<g id="a_Node000003"><a xlink:href="_raw_simplex_collection_8hpp.html" target="_top" xlink:title=" ">
<polygon fill="white" stroke="#666666" points="506.5,-118 339.5,-118 339.5,-88 506.5,-88 506.5,-118"/>
<text text-anchor="start" x="347.5" y="-106" font-family="Helvetica,sans-Serif" font-size="10.00">src/wmtk/simplex/RawSimplex</text>
<text text-anchor="middle" x="423" y="-95" font-family="Helvetica,sans-Serif" font-size="10.00">Collection.hpp</text>
</a>
</g>
</g>
<!-- Node1&#45;&gt;Node3 -->
<g id="edge2_Node000001_Node000003" class="edge">
<title>Node1&#45;&gt;Node3</title>
<g id="a_edge2_Node000001_Node000003"><a xlink:title=" ">
<path fill="none" stroke="#63b8ff" d="M336.71,-149.07C354.44,-139.81 377.97,-127.52 395.98,-118.11"/>
<polygon fill="#63b8ff" stroke="#63b8ff" points="334.77,-146.14 327.53,-153.87 338.01,-152.34 334.77,-146.14"/>
</a>
</g>
</g>
<!-- Node3&#45;&gt;Node2 -->
<g id="edge6_Node000003_Node000002" class="edge">
<title>Node3&#45;&gt;Node2</title>
<g id="a_edge6_Node000003_Node000002"><a xlink:title=" ">
<path fill="none" stroke="#63b8ff" d="M347.61,-85.72C303.63,-76.13 247.12,-63.62 197,-52 174.06,-46.68 148.31,-40.43 128.29,-35.51"/>
<polygon fill="#63b8ff" stroke="#63b8ff" points="347.13,-89.2 357.65,-87.91 348.62,-82.36 347.13,-89.2"/>
</a>
</g>
</g>
<!-- Node4 -->
<g id="Node000004" class="node">
<title>Node4</title>
<g id="a_Node000004"><a xlink:href="_preserve_tagged_substructure_invariant_8cpp.html" target="_top" xlink:title=" ">
<polygon fill="white" stroke="#666666" points="428,-52 206,-52 206,0 428,0 428,-52"/>
<text text-anchor="start" x="214" y="-40" font-family="Helvetica,sans-Serif" font-size="10.00">components/isotropic</text>
<text text-anchor="start" x="214" y="-29" font-family="Helvetica,sans-Serif" font-size="10.00">_remeshing/wmtk/components</text>
<text text-anchor="start" x="214" y="-18" font-family="Helvetica,sans-Serif" font-size="10.00">/isotropic_remeshing/invariants</text>
<text text-anchor="middle" x="317" y="-7" font-family="Helvetica,sans-Serif" font-size="10.00">/PreserveTaggedSubstructureInvariant.cpp</text>
</a>
</g>
</g>
<!-- Node3&#45;&gt;Node4 -->
<g id="edge3_Node000003_Node000004" class="edge">
<title>Node3&#45;&gt;Node4</title>
<g id="a_edge3_Node000003_Node000004"><a xlink:title=" ">
<path fill="none" stroke="#63b8ff" d="M394.6,-81.91C381.73,-72.8 366.37,-61.93 352.73,-52.28"/>
<polygon fill="#63b8ff" stroke="#63b8ff" points="392.88,-84.97 403.06,-87.89 396.92,-79.26 392.88,-84.97"/>
</a>
</g>
</g>
<!-- Node5 -->
<g id="Node000005" class="node">
<title>Node5</title>
<g id="a_Node000005"><a xlink:href="_tet_mesh_substructure_topology_preserving_invariant_8cpp.html" target="_top" xlink:title=" ">
<polygon fill="white" stroke="#666666" points="611.5,-46.5 446.5,-46.5 446.5,-5.5 611.5,-5.5 611.5,-46.5"/>
<text text-anchor="start" x="454.5" y="-34.5" font-family="Helvetica,sans-Serif" font-size="10.00">src/wmtk/invariants</text>
<text text-anchor="start" x="454.5" y="-23.5" font-family="Helvetica,sans-Serif" font-size="10.00">/TetMeshSubstructureTopology</text>
<text text-anchor="middle" x="529" y="-12.5" font-family="Helvetica,sans-Serif" font-size="10.00">PreservingInvariant.cpp</text>
</a>
</g>
</g>
<!-- Node3&#45;&gt;Node5 -->
<g id="edge4_Node000003_Node000005" class="edge">
<title>Node3&#45;&gt;Node5</title>
<g id="a_edge4_Node000003_Node000005"><a xlink:title=" ">
<path fill="none" stroke="#63b8ff" d="M451.11,-82.11C466.58,-71.16 485.72,-57.62 501.15,-46.7"/>
<polygon fill="#63b8ff" stroke="#63b8ff" points="449.08,-79.26 442.94,-87.89 453.12,-84.97 449.08,-79.26"/>
</a>
</g>
</g>
<!-- Node6 -->
<g id="Node000006" class="node">
<title>Node6</title>
<g id="a_Node000006"><a xlink:href="_tri_mesh_substructure_topology_preserving_invariant_8cpp.html" target="_top" xlink:title=" ">
<polygon fill="white" stroke="#666666" points="792,-46.5 630,-46.5 630,-5.5 792,-5.5 792,-46.5"/>
<text text-anchor="start" x="638" y="-34.5" font-family="Helvetica,sans-Serif" font-size="10.00">src/wmtk/invariants</text>
<text text-anchor="start" x="638" y="-23.5" font-family="Helvetica,sans-Serif" font-size="10.00">/TriMeshSubstructureTopology</text>
<text text-anchor="middle" x="711" y="-12.5" font-family="Helvetica,sans-Serif" font-size="10.00">PreservingInvariant.cpp</text>
</a>
</g>
</g>
<!-- Node3&#45;&gt;Node6 -->
<g id="edge5_Node000003_Node000006" class="edge">
<title>Node3&#45;&gt;Node6</title>
<g id="a_edge5_Node000003_Node000006"><a xlink:title=" ">
<path fill="none" stroke="#63b8ff" d="M490.3,-85.42C528.65,-75.87 577.59,-63.51 621,-52 627.58,-50.25 634.43,-48.41 641.27,-46.54"/>
<polygon fill="#63b8ff" stroke="#63b8ff" points="489.14,-82.11 480.28,-87.92 490.83,-88.9 489.14,-82.11"/>
</a>
</g>
</g>
<!-- Node7 -->
<g id="Node000007" class="node">
<title>Node7</title>
<g id="a_Node000007"><a xlink:href="_raw_simplex_collection_8cpp.html" target="_top" xlink:title=" ">
<polygon fill="white" stroke="#666666" points="977.5,-41 810.5,-41 810.5,-11 977.5,-11 977.5,-41"/>
<text text-anchor="start" x="818.5" y="-29" font-family="Helvetica,sans-Serif" font-size="10.00">src/wmtk/simplex/RawSimplex</text>
<text text-anchor="middle" x="894" y="-18" font-family="Helvetica,sans-Serif" font-size="10.00">Collection.cpp</text>
</a>
</g>
</g>
<!-- Node3&#45;&gt;Node7 -->
<g id="edge7_Node000003_Node000007" class="edge">
<title>Node3&#45;&gt;Node7</title>
<g id="a_edge7_Node000003_Node000007"><a xlink:title=" ">
<path fill="none" stroke="#63b8ff" d="M516.98,-93.03C593.81,-84.87 705.02,-71.16 801,-52 815.92,-49.02 831.98,-45 846.49,-41.06"/>
<polygon fill="#63b8ff" stroke="#63b8ff" points="516.43,-89.57 506.85,-94.1 517.16,-96.53 516.43,-89.57"/>
</a>
</g>
</g>
</g>
</svg>
