<?xml version="1.0" encoding="UTF-8" standalone="no"?>
<!DOCTYPE svg PUBLIC "-//W3C//DTD SVG 1.1//EN"
 "http://www.w3.org/Graphics/SVG/1.1/DTD/svg11.dtd">
<!-- Generated by graphviz version 2.43.0 (0)
 -->
<!-- Title: src/wmtk/invariants/SimplexInversionInvariant.hpp Pages: 1 -->
<svg width="3552pt" height="137pt"
 viewBox="0.00 0.00 3551.50 137.00" xmlns="http://www.w3.org/2000/svg" xmlns:xlink="http://www.w3.org/1999/xlink">
<g id="graph0" class="graph" transform="scale(1 1) rotate(0) translate(4 133)">
<title>src/wmtk/invariants/SimplexInversionInvariant.hpp</title>
<!-- Node1 -->
<g id="Node000001" class="node">
<title>Node1</title>
<g id="a_Node000001"><a xlink:title=" ">
<polygon fill="#999999" stroke="#666666" points="1991,-129 1822,-129 1822,-99 1991,-99 1991,-129"/>
<text text-anchor="start" x="1830" y="-117" font-family="Helvetica,sans-Serif" font-size="10.00">src/wmtk/invariants</text>
<text text-anchor="middle" x="1906.5" y="-106" font-family="Helvetica,sans-Serif" font-size="10.00">/SimplexInversionInvariant.hpp</text>
</a>
</g>
</g>
<!-- Node2 -->
<g id="Node000002" class="node">
<title>Node2</title>
<g id="a_Node000002"><a xlink:href="internal_2_c_d_t_8cpp.html" target="_top" xlink:title=" ">
<polygon fill="white" stroke="#666666" points="143,-52 0,-52 0,-11 143,-11 143,-52"/>
<text text-anchor="start" x="8" y="-40" font-family="Helvetica,sans-Serif" font-size="10.00">components/CDT/wmtk</text>
<text text-anchor="start" x="8" y="-29" font-family="Helvetica,sans-Serif" font-size="10.00">/components/CDT/internal</text>
<text text-anchor="middle" x="71.5" y="-18" font-family="Helvetica,sans-Serif" font-size="10.00">/CDT.cpp</text>
</a>
</g>
</g>
<!-- Node1&#45;&gt;Node2 -->
<g id="edge1_Node000001_Node000002" class="edge">
<title>Node1&#45;&gt;Node2</title>
<g id="a_edge1_Node000001_Node000002"><a xlink:title=" ">
<path fill="none" stroke="#63b8ff" d="M1811.79,-112.16C1470.38,-108.85 314.28,-95.38 151.5,-63 139.25,-60.56 126.43,-56.44 114.73,-52"/>
<polygon fill="#63b8ff" stroke="#63b8ff" points="1811.87,-115.66 1821.9,-112.25 1811.93,-108.66 1811.87,-115.66"/>
</a>
</g>
</g>
<!-- Node3 -->
<g id="Node000003" class="node">
<title>Node3</title>
<g id="a_Node000003"><a xlink:href="_isotropic_remeshing_8cpp.html" target="_top" xlink:title=" ">
<polygon fill="white" stroke="#666666" points="400,-52 161,-52 161,-11 400,-11 400,-52"/>
<text text-anchor="start" x="169" y="-40" font-family="Helvetica,sans-Serif" font-size="10.00">components/isotropic</text>
<text text-anchor="start" x="169" y="-29" font-family="Helvetica,sans-Serif" font-size="10.00">_remeshing/wmtk/components</text>
<text text-anchor="middle" x="280.5" y="-18" font-family="Helvetica,sans-Serif" font-size="10.00">/isotropic_remeshing/IsotropicRemeshing.cpp</text>
</a>
</g>
</g>
<!-- Node1&#45;&gt;Node3 -->
<g id="edge2_Node000001_Node000003" class="edge">
<title>Node1&#45;&gt;Node3</title>
<g id="a_edge2_Node000001_Node000003"><a xlink:title=" ">
<path fill="none" stroke="#63b8ff" d="M1811.28,-112.29C1526.14,-109.79 682.09,-99.41 409.5,-63 390.68,-60.49 370.59,-56.43 352.01,-52.08"/>
<polygon fill="#63b8ff" stroke="#63b8ff" points="1811.56,-115.8 1821.59,-112.38 1811.62,-108.8 1811.56,-115.8"/>
</a>
</g>
</g>
<!-- Node4 -->
<g id="Node000004" class="node">
<title>Node4</title>
<g id="a_Node000004"><a xlink:href="_isotropic_remeshing__collapse_8cpp.html" target="_top" xlink:title=" ">
<polygon fill="white" stroke="#666666" points="636.5,-57.5 418.5,-57.5 418.5,-5.5 636.5,-5.5 636.5,-57.5"/>
<text text-anchor="start" x="426.5" y="-45.5" font-family="Helvetica,sans-Serif" font-size="10.00">components/isotropic</text>
<text text-anchor="start" x="426.5" y="-34.5" font-family="Helvetica,sans-Serif" font-size="10.00">_remeshing/wmtk/components</text>
<text text-anchor="start" x="426.5" y="-23.5" font-family="Helvetica,sans-Serif" font-size="10.00">/isotropic_remeshing/IsotropicRemeshing</text>
<text text-anchor="middle" x="527.5" y="-12.5" font-family="Helvetica,sans-Serif" font-size="10.00">_collapse.cpp</text>
</a>
</g>
</g>
<!-- Node1&#45;&gt;Node4 -->
<g id="edge3_Node000001_Node000004" class="edge">
<title>Node1&#45;&gt;Node4</title>
<g id="a_edge3_Node000001_Node000004"><a xlink:title=" ">
<path fill="none" stroke="#63b8ff" d="M1811.63,-111.86C1558.34,-108.39 870.25,-96.11 645.5,-63 635.87,-61.58 625.89,-59.69 616,-57.54"/>
<polygon fill="#63b8ff" stroke="#63b8ff" points="1811.86,-115.36 1821.91,-112 1811.96,-108.36 1811.86,-115.36"/>
</a>
</g>
</g>
<!-- Node5 -->
<g id="Node000005" class="node">
<title>Node5</title>
<g id="a_Node000005"><a xlink:href="_isotropic_remeshing__smooth_8cpp.html" target="_top" xlink:title=" ">
<polygon fill="white" stroke="#666666" points="872.5,-57.5 654.5,-57.5 654.5,-5.5 872.5,-5.5 872.5,-57.5"/>
<text text-anchor="start" x="662.5" y="-45.5" font-family="Helvetica,sans-Serif" font-size="10.00">components/isotropic</text>
<text text-anchor="start" x="662.5" y="-34.5" font-family="Helvetica,sans-Serif" font-size="10.00">_remeshing/wmtk/components</text>
<text text-anchor="start" x="662.5" y="-23.5" font-family="Helvetica,sans-Serif" font-size="10.00">/isotropic_remeshing/IsotropicRemeshing</text>
<text text-anchor="middle" x="763.5" y="-12.5" font-family="Helvetica,sans-Serif" font-size="10.00">_smooth.cpp</text>
</a>
</g>
</g>
<!-- Node1&#45;&gt;Node5 -->
<g id="edge4_Node000001_Node000005" class="edge">
<title>Node1&#45;&gt;Node5</title>
<g id="a_edge4_Node000001_Node000005"><a xlink:title=" ">
<path fill="none" stroke="#63b8ff" d="M1811.61,-110.85C1593.01,-105.49 1059.11,-90 881.5,-63 871.98,-61.55 862.12,-59.66 852.34,-57.52"/>
<polygon fill="#63b8ff" stroke="#63b8ff" points="1811.69,-114.35 1821.78,-111.1 1811.86,-107.35 1811.69,-114.35"/>
</a>
</g>
</g>
<!-- Node6 -->
<g id="Node000006" class="node">
<title>Node6</title>
<g id="a_Node000006"><a xlink:href="_isotropic_remeshing__split_8cpp.html" target="_top" xlink:title=" ">
<polygon fill="white" stroke="#666666" points="1108.5,-57.5 890.5,-57.5 890.5,-5.5 1108.5,-5.5 1108.5,-57.5"/>
<text text-anchor="start" x="898.5" y="-45.5" font-family="Helvetica,sans-Serif" font-size="10.00">components/isotropic</text>
<text text-anchor="start" x="898.5" y="-34.5" font-family="Helvetica,sans-Serif" font-size="10.00">_remeshing/wmtk/components</text>
<text text-anchor="start" x="898.5" y="-23.5" font-family="Helvetica,sans-Serif" font-size="10.00">/isotropic_remeshing/IsotropicRemeshing</text>
<text text-anchor="middle" x="999.5" y="-12.5" font-family="Helvetica,sans-Serif" font-size="10.00">_split.cpp</text>
</a>
</g>
</g>
<!-- Node1&#45;&gt;Node6 -->
<g id="edge5_Node000001_Node000006" class="edge">
<title>Node1&#45;&gt;Node6</title>
<g id="a_edge5_Node000001_Node000006"><a xlink:title=" ">
<path fill="none" stroke="#63b8ff" d="M1811.83,-112.78C1663.08,-111.13 1365.93,-102.61 1117.5,-63 1108.2,-61.52 1098.57,-59.63 1089,-57.52"/>
<polygon fill="#63b8ff" stroke="#63b8ff" points="1811.81,-116.28 1821.85,-112.88 1811.88,-109.28 1811.81,-116.28"/>
</a>
</g>
</g>
<!-- Node7 -->
<g id="Node000007" class="node">
<title>Node7</title>
<g id="a_Node000007"><a xlink:href="_isotropic_remeshing__swap_8cpp.html" target="_top" xlink:title=" ">
<polygon fill="white" stroke="#666666" points="1344.5,-57.5 1126.5,-57.5 1126.5,-5.5 1344.5,-5.5 1344.5,-57.5"/>
<text text-anchor="start" x="1134.5" y="-45.5" font-family="Helvetica,sans-Serif" font-size="10.00">components/isotropic</text>
<text text-anchor="start" x="1134.5" y="-34.5" font-family="Helvetica,sans-Serif" font-size="10.00">_remeshing/wmtk/components</text>
<text text-anchor="start" x="1134.5" y="-23.5" font-family="Helvetica,sans-Serif" font-size="10.00">/isotropic_remeshing/IsotropicRemeshing</text>
<text text-anchor="middle" x="1235.5" y="-12.5" font-family="Helvetica,sans-Serif" font-size="10.00">_swap.cpp</text>
</a>
</g>
</g>
<!-- Node1&#45;&gt;Node7 -->
<g id="edge6_Node000001_Node000007" class="edge">
<title>Node1&#45;&gt;Node7</title>
<g id="a_edge6_Node000001_Node000007"><a xlink:title=" ">
<path fill="none" stroke="#63b8ff" d="M1811.49,-109.11C1700.83,-103.5 1512.85,-90.61 1353.5,-63 1344.64,-61.46 1335.47,-59.6 1326.33,-57.55"/>
<polygon fill="#63b8ff" stroke="#63b8ff" points="1811.46,-112.62 1821.62,-109.62 1811.81,-105.63 1811.46,-112.62"/>
</a>
</g>
</g>
<!-- Node8 -->
<g id="Node000008" class="node">
<title>Node8</title>
<g id="a_Node000008"><a xlink:href="configure__collapse_8cpp.html" target="_top" xlink:title=" ">
<polygon fill="white" stroke="#666666" points="1530,-57.5 1363,-57.5 1363,-5.5 1530,-5.5 1530,-57.5"/>
<text text-anchor="start" x="1371" y="-45.5" font-family="Helvetica,sans-Serif" font-size="10.00">components/isotropic</text>
<text text-anchor="start" x="1371" y="-34.5" font-family="Helvetica,sans-Serif" font-size="10.00">_remeshing/wmtk/components</text>
<text text-anchor="start" x="1371" y="-23.5" font-family="Helvetica,sans-Serif" font-size="10.00">/isotropic_remeshing/internal</text>
<text text-anchor="middle" x="1446.5" y="-12.5" font-family="Helvetica,sans-Serif" font-size="10.00">/configure_collapse.cpp</text>
</a>
</g>
</g>
<!-- Node1&#45;&gt;Node8 -->
<g id="edge7_Node000001_Node000008" class="edge">
<title>Node1&#45;&gt;Node8</title>
<g id="a_edge7_Node000001_Node000008"><a xlink:title=" ">
<path fill="none" stroke="#63b8ff" d="M1811.31,-104.95C1736.49,-97.45 1629.99,-84.19 1538.5,-63 1531.7,-61.42 1524.68,-59.56 1517.7,-57.54"/>
<polygon fill="#63b8ff" stroke="#63b8ff" points="1811.36,-108.47 1821.66,-105.97 1812.05,-101.5 1811.36,-108.47"/>
</a>
</g>
</g>
<!-- Node9 -->
<g id="Node000009" class="node">
<title>Node9</title>
<g id="a_Node000009"><a xlink:href="configure__swap_8cpp.html" target="_top" xlink:title=" ">
<polygon fill="white" stroke="#666666" points="1715,-57.5 1548,-57.5 1548,-5.5 1715,-5.5 1715,-57.5"/>
<text text-anchor="start" x="1556" y="-45.5" font-family="Helvetica,sans-Serif" font-size="10.00">components/isotropic</text>
<text text-anchor="start" x="1556" y="-34.5" font-family="Helvetica,sans-Serif" font-size="10.00">_remeshing/wmtk/components</text>
<text text-anchor="start" x="1556" y="-23.5" font-family="Helvetica,sans-Serif" font-size="10.00">/isotropic_remeshing/internal</text>
<text text-anchor="middle" x="1631.5" y="-12.5" font-family="Helvetica,sans-Serif" font-size="10.00">/configure_swap.cpp</text>
</a>
</g>
</g>
<!-- Node1&#45;&gt;Node9 -->
<g id="edge8_Node000001_Node000009" class="edge">
<title>Node1&#45;&gt;Node9</title>
<g id="a_edge8_Node000001_Node000009"><a xlink:title=" ">
<path fill="none" stroke="#63b8ff" d="M1842.55,-96.42C1807.3,-87.06 1762.84,-74.89 1723.5,-63 1717.78,-61.27 1711.88,-59.44 1705.96,-57.56"/>
<polygon fill="#63b8ff" stroke="#63b8ff" points="1841.67,-99.81 1852.23,-98.99 1843.46,-93.04 1841.67,-99.81"/>
</a>
</g>
</g>
<!-- Node10 -->
<g id="Node000010" class="node">
<title>Node10</title>
<g id="a_Node000010"><a xlink:href="internal_2periodic__optimization_8cpp.html" target="_top" xlink:title=" ">
<polygon fill="white" stroke="#666666" points="1900,-63 1733,-63 1733,0 1900,0 1900,-63"/>
<text text-anchor="start" x="1741" y="-51" font-family="Helvetica,sans-Serif" font-size="10.00">components/isotropic</text>
<text text-anchor="start" x="1741" y="-40" font-family="Helvetica,sans-Serif" font-size="10.00">_remeshing/wmtk/components</text>
<text text-anchor="start" x="1741" y="-29" font-family="Helvetica,sans-Serif" font-size="10.00">/isotropic_remeshing/periodic</text>
<text text-anchor="start" x="1741" y="-18" font-family="Helvetica,sans-Serif" font-size="10.00">_optimization/internal/periodic</text>
<text text-anchor="middle" x="1816.5" y="-7" font-family="Helvetica,sans-Serif" font-size="10.00">_optimization.cpp</text>
</a>
</g>
</g>
<!-- Node1&#45;&gt;Node10 -->
<g id="edge9_Node000001_Node000010" class="edge">
<title>Node1&#45;&gt;Node10</title>
<g id="a_edge9_Node000001_Node000010"><a xlink:title=" ">
<path fill="none" stroke="#63b8ff" d="M1883.3,-92.25C1873.36,-83.36 1861.55,-72.79 1850.64,-63.03"/>
<polygon fill="#63b8ff" stroke="#63b8ff" points="1881.04,-94.92 1890.82,-98.98 1885.7,-89.7 1881.04,-94.92"/>
</a>
</g>
</g>
<!-- Node11 -->
<g id="Node000011" class="node">
<title>Node11</title>
<g id="a_Node000011"><a xlink:href="internal_2_marching_8cpp.html" target="_top" xlink:title=" ">
<polygon fill="white" stroke="#666666" points="2077,-52 1918,-52 1918,-11 2077,-11 2077,-52"/>
<text text-anchor="start" x="1926" y="-40" font-family="Helvetica,sans-Serif" font-size="10.00">components/marching</text>
<text text-anchor="start" x="1926" y="-29" font-family="Helvetica,sans-Serif" font-size="10.00">/wmtk/components/marching</text>
<text text-anchor="middle" x="1997.5" y="-18" font-family="Helvetica,sans-Serif" font-size="10.00">/internal/Marching.cpp</text>
</a>
</g>
</g>
<!-- Node1&#45;&gt;Node11 -->
<g id="edge10_Node000001_Node000011" class="edge">
<title>Node1&#45;&gt;Node11</title>
<g id="a_edge10_Node000001_Node000011"><a xlink:title=" ">
<path fill="none" stroke="#63b8ff" d="M1930.1,-92.12C1944.07,-79.77 1961.65,-64.21 1975.36,-52.09"/>
<polygon fill="#63b8ff" stroke="#63b8ff" points="1927.52,-89.73 1922.35,-98.98 1932.16,-94.97 1927.52,-89.73"/>
</a>
</g>
</g>
<!-- Node12 -->
<g id="Node000012" class="node">
<title>Node12</title>
<g id="a_Node000012"><a xlink:href="shortest__edge__collapse_8cpp.html" target="_top" xlink:title=" ">
<polygon fill="white" stroke="#666666" points="2229.5,-63 2095.5,-63 2095.5,0 2229.5,0 2229.5,-63"/>
<text text-anchor="start" x="2103.5" y="-51" font-family="Helvetica,sans-Serif" font-size="10.00">components/shortest</text>
<text text-anchor="start" x="2103.5" y="-40" font-family="Helvetica,sans-Serif" font-size="10.00">_edge_collapse/wmtk</text>
<text text-anchor="start" x="2103.5" y="-29" font-family="Helvetica,sans-Serif" font-size="10.00">/components/shortest</text>
<text text-anchor="start" x="2103.5" y="-18" font-family="Helvetica,sans-Serif" font-size="10.00">_edge_collapse/shortest</text>
<text text-anchor="middle" x="2162.5" y="-7" font-family="Helvetica,sans-Serif" font-size="10.00">_edge_collapse.cpp</text>
</a>
</g>
</g>
<!-- Node1&#45;&gt;Node12 -->
<g id="edge11_Node000001_Node000012" class="edge">
<title>Node1&#45;&gt;Node12</title>
<g id="a_edge11_Node000001_Node000012"><a xlink:title=" ">
<path fill="none" stroke="#63b8ff" d="M1973.21,-96.36C2007.36,-87.36 2049.45,-75.54 2086.5,-63 2089.33,-62.04 2092.2,-61.04 2095.1,-60"/>
<polygon fill="#63b8ff" stroke="#63b8ff" points="1972.12,-93.02 1963.33,-98.94 1973.89,-99.79 1972.12,-93.02"/>
</a>
</g>
</g>
<!-- Node13 -->
<g id="Node000013" class="node">
<title>Node13</title>
<g id="a_Node000013"><a xlink:href="_simplicial_embedding_8cpp.html" target="_top" xlink:title=" ">
<polygon fill="white" stroke="#666666" points="2417.5,-57.5 2247.5,-57.5 2247.5,-5.5 2417.5,-5.5 2417.5,-57.5"/>
<text text-anchor="start" x="2255.5" y="-45.5" font-family="Helvetica,sans-Serif" font-size="10.00">components/simplicial</text>
<text text-anchor="start" x="2255.5" y="-34.5" font-family="Helvetica,sans-Serif" font-size="10.00">_embedding/wmtk/components</text>
<text text-anchor="start" x="2255.5" y="-23.5" font-family="Helvetica,sans-Serif" font-size="10.00">/simplicial_embedding/internal</text>
<text text-anchor="middle" x="2332.5" y="-12.5" font-family="Helvetica,sans-Serif" font-size="10.00">/SimplicialEmbedding.cpp</text>
</a>
</g>
</g>
<!-- Node1&#45;&gt;Node13 -->
<g id="edge12_Node000001_Node000013" class="edge">
<title>Node1&#45;&gt;Node13</title>
<g id="a_edge12_Node000001_Node000013"><a xlink:title=" ">
<path fill="none" stroke="#63b8ff" d="M2001.24,-102.93C2068.09,-94.81 2159.45,-81.64 2238.5,-63 2245.26,-61.4 2252.24,-59.55 2259.19,-57.56"/>
<polygon fill="#63b8ff" stroke="#63b8ff" points="2000.66,-99.47 1991.14,-104.14 2001.49,-106.42 2000.66,-99.47"/>
</a>
</g>
</g>
<!-- Node14 -->
<g id="Node000014" class="node">
<title>Node14</title>
<g id="a_Node000014"><a xlink:href="test__component__wildmeshing_8cpp.html" target="_top" xlink:title=" ">
<polygon fill="white" stroke="#666666" points="2599.5,-46.5 2435.5,-46.5 2435.5,-16.5 2599.5,-16.5 2599.5,-46.5"/>
<text text-anchor="start" x="2443.5" y="-34.5" font-family="Helvetica,sans-Serif" font-size="10.00">components/tests/test</text>
<text text-anchor="middle" x="2517.5" y="-23.5" font-family="Helvetica,sans-Serif" font-size="10.00">_component_wildmeshing.cpp</text>
</a>
</g>
</g>
<!-- Node1&#45;&gt;Node14 -->
<g id="edge13_Node000001_Node000014" class="edge">
<title>Node1&#45;&gt;Node14</title>
<g id="a_edge13_Node000001_Node000014"><a xlink:title=" ">
<path fill="none" stroke="#63b8ff" d="M2001.41,-110.34C2106.41,-105.91 2280.13,-94.14 2426.5,-63 2445.08,-59.05 2465.16,-52.57 2481.71,-46.59"/>
<polygon fill="#63b8ff" stroke="#63b8ff" points="2001,-106.86 1991.15,-110.76 2001.29,-113.85 2001,-106.86"/>
</a>
</g>
</g>
<!-- Node15 -->
<g id="Node000015" class="node">
<title>Node15</title>
<g id="a_Node000015"><a xlink:href="triangle__insertion_8cpp.html" target="_top" xlink:title=" ">
<polygon fill="white" stroke="#666666" points="2775.5,-57.5 2617.5,-57.5 2617.5,-5.5 2775.5,-5.5 2775.5,-57.5"/>
<text text-anchor="start" x="2625.5" y="-45.5" font-family="Helvetica,sans-Serif" font-size="10.00">components/triangle</text>
<text text-anchor="start" x="2625.5" y="-34.5" font-family="Helvetica,sans-Serif" font-size="10.00">_insertion/wmtk/components</text>
<text text-anchor="start" x="2625.5" y="-23.5" font-family="Helvetica,sans-Serif" font-size="10.00">/triangle_insertion/triangle</text>
<text text-anchor="middle" x="2696.5" y="-12.5" font-family="Helvetica,sans-Serif" font-size="10.00">_insertion.cpp</text>
</a>
</g>
</g>
<!-- Node1&#45;&gt;Node15 -->
<g id="edge14_Node000001_Node000015" class="edge">
<title>Node1&#45;&gt;Node15</title>
<g id="a_edge14_Node000001_Node000015"><a xlink:title=" ">
<path fill="none" stroke="#63b8ff" d="M2001.28,-109.33C2165.24,-102.47 2495.15,-86.26 2608.5,-63 2615.63,-61.54 2622.97,-59.65 2630.23,-57.52"/>
<polygon fill="#63b8ff" stroke="#63b8ff" points="2001.05,-105.84 1991.2,-109.75 2001.34,-112.83 2001.05,-105.84"/>
</a>
</g>
</g>
<!-- Node16 -->
<g id="Node000016" class="node">
<title>Node16</title>
<g id="a_Node000016"><a xlink:href="wildmeshing2d_8cpp.html" target="_top" xlink:title=" ">
<polygon fill="white" stroke="#666666" points="2969.5,-52 2793.5,-52 2793.5,-11 2969.5,-11 2969.5,-52"/>
<text text-anchor="start" x="2801.5" y="-40" font-family="Helvetica,sans-Serif" font-size="10.00">components/wildmeshing</text>
<text text-anchor="start" x="2801.5" y="-29" font-family="Helvetica,sans-Serif" font-size="10.00">/wmtk/components/wildmeshing</text>
<text text-anchor="middle" x="2881.5" y="-18" font-family="Helvetica,sans-Serif" font-size="10.00">/internal/wildmeshing2d.cpp</text>
</a>
</g>
</g>
<!-- Node1&#45;&gt;Node16 -->
<g id="edge15_Node000001_Node000016" class="edge">
<title>Node1&#45;&gt;Node16</title>
<g id="a_edge15_Node000001_Node000016"><a xlink:title=" ">
<path fill="none" stroke="#63b8ff" d="M2001.41,-110.56C2196.49,-105.07 2636.58,-90.03 2784.5,-63 2798.74,-60.4 2813.81,-56.33 2827.72,-52.01"/>
<polygon fill="#63b8ff" stroke="#63b8ff" points="2001.08,-107.07 1991.18,-110.85 2001.27,-114.07 2001.08,-107.07"/>
</a>
</g>
</g>
<!-- Node17 -->
<g id="Node000017" class="node">
<title>Node17</title>
<g id="a_Node000017"><a xlink:href="wildmeshing3d_8cpp.html" target="_top" xlink:title=" ">
<polygon fill="white" stroke="#666666" points="3163.5,-52 2987.5,-52 2987.5,-11 3163.5,-11 3163.5,-52"/>
<text text-anchor="start" x="2995.5" y="-40" font-family="Helvetica,sans-Serif" font-size="10.00">components/wildmeshing</text>
<text text-anchor="start" x="2995.5" y="-29" font-family="Helvetica,sans-Serif" font-size="10.00">/wmtk/components/wildmeshing</text>
<text text-anchor="middle" x="3075.5" y="-18" font-family="Helvetica,sans-Serif" font-size="10.00">/internal/wildmeshing3d.cpp</text>
</a>
</g>
</g>
<!-- Node1&#45;&gt;Node17 -->
<g id="edge16_Node000001_Node000017" class="edge">
<title>Node1&#45;&gt;Node17</title>
<g id="a_edge16_Node000001_Node000017"><a xlink:title=" ">
<path fill="none" stroke="#63b8ff" d="M2001.36,-111.71C2227.3,-108.12 2792.3,-96.04 2978.5,-63 2992.84,-60.46 3008.01,-56.38 3021.99,-52.03"/>
<polygon fill="#63b8ff" stroke="#63b8ff" points="2001.13,-108.21 1991.18,-111.87 2001.24,-115.21 2001.13,-108.21"/>
</a>
</g>
</g>
<!-- Node18 -->
<g id="Node000018" class="node">
<title>Node18</title>
<g id="a_Node000018"><a xlink:href="wildmeshing__old_8cpp.html" target="_top" xlink:title=" ">
<polygon fill="white" stroke="#666666" points="3357.5,-52 3181.5,-52 3181.5,-11 3357.5,-11 3357.5,-52"/>
<text text-anchor="start" x="3189.5" y="-40" font-family="Helvetica,sans-Serif" font-size="10.00">components/wildmeshing</text>
<text text-anchor="start" x="3189.5" y="-29" font-family="Helvetica,sans-Serif" font-size="10.00">/wmtk/components/wildmeshing</text>
<text text-anchor="middle" x="3269.5" y="-18" font-family="Helvetica,sans-Serif" font-size="10.00">/wildmeshing_old.cpp</text>
</a>
</g>
</g>
<!-- Node1&#45;&gt;Node18 -->
<g id="edge17_Node000001_Node000018" class="edge">
<title>Node1&#45;&gt;Node18</title>
<g id="a_edge17_Node000001_Node000018"><a xlink:title=" ">
<path fill="none" stroke="#63b8ff" d="M2001.4,-112.5C2255.57,-110.65 2947.66,-102.07 3172.5,-63 3186.94,-60.49 3202.21,-56.4 3216.26,-52.02"/>
<polygon fill="#63b8ff" stroke="#63b8ff" points="2001.06,-109.01 1991.08,-112.58 2001.11,-116.01 2001.06,-109.01"/>
</a>
</g>
</g>
<!-- Node19 -->
<g id="Node000019" class="node">
<title>Node19</title>
<g id="a_Node000019"><a xlink:href="_simplex_inversion_invariant_8cpp.html" target="_top" xlink:title=" ">
<polygon fill="white" stroke="#666666" points="3543.5,-46.5 3375.5,-46.5 3375.5,-16.5 3543.5,-16.5 3543.5,-46.5"/>
<text text-anchor="start" x="3383.5" y="-34.5" font-family="Helvetica,sans-Serif" font-size="10.00">src/wmtk/invariants</text>
<text text-anchor="middle" x="3459.5" y="-23.5" font-family="Helvetica,sans-Serif" font-size="10.00">/SimplexInversionInvariant.cpp</text>
</a>
</g>
</g>
<!-- Node1&#45;&gt;Node19 -->
<g id="edge18_Node000001_Node000019" class="edge">
<title>Node1&#45;&gt;Node19</title>
<g id="a_edge18_Node000001_Node000019"><a xlink:title=" ">
<path fill="none" stroke="#63b8ff" d="M2001.49,-113.24C2281.91,-113.4 3103.02,-109.74 3366.5,-63 3386.07,-59.53 3407.18,-52.86 3424.33,-46.64"/>
<polygon fill="#63b8ff" stroke="#63b8ff" points="2001.34,-109.74 1991.34,-113.23 2001.34,-116.74 2001.34,-109.74"/>
</a>
</g>
</g>
</g>
</svg>
