<?xml version="1.0" encoding="UTF-8" standalone="no"?>
<!DOCTYPE svg PUBLIC "-//W3C//DTD SVG 1.1//EN"
 "http://www.w3.org/Graphics/SVG/1.1/DTD/svg11.dtd">
<!-- Generated by graphviz version 2.43.0 (0)
 -->
<!-- Title: src/wmtk/operations/TetWildTangentialLaplacianSmoothing.hpp Pages: 1 -->
<!--zoomable 148 -->

<svg id="main" version="1.1" xmlns="http://www.w3.org/2000/svg" xmlns:xlink="http://www.w3.org/1999/xlink" xml:space="preserve" onload="init(evt)">
<style type="text/css"><![CDATA[
.node, .edge {opacity: 0.7;}
.node.selected, .edge.selected {opacity: 1;}
.edge:hover path { stroke: red; }
.edge:hover polygon { stroke: red; fill: red; }
]]></style>

<defs>
  <circle id="rim" cx="0" cy="0" r="7"/>
  <circle id="rim2" cx="0" cy="0" r="3.5"/>
  <g id="zoomPlus">
    <use xlink:href="#rim" fill="#404040"><set attributeName="fill" to="#808080" begin="zoomplus.mouseover" end="zoomplus.mouseout"/></use>
    <path d="M-4,0h8M0,-4v8" fill="none" stroke="white" stroke-width="1.5" pointer-events="none"/>
  </g>
  <g id="zoomMin">
    <use xlink:href="#rim" fill="#404040"><set attributeName="fill" to="#808080" begin="zoomminus.mouseover" end="zoomminus.mouseout"/></use>
    <path d="M-4,0h8" fill="none" stroke="white" stroke-width="1.5" pointer-events="none"/>
  </g>
  <g id="arrowUp" transform="translate(30 24)">
    <use xlink:href="#rim"/>
    <path pointer-events="none" fill="none" stroke="white" stroke-width="1.5" d="M0,-3.0v7 M-2.5,-0.5L0,-3.0L2.5,-0.5"/>
  </g>
  <g id="arrowRight" transform="rotate(90) translate(36 -43)">
    <use xlink:href="#rim"/>
    <path pointer-events="none" fill="none" stroke="white" stroke-width="1.5" d="M0,-3.0v7 M-2.5,-0.5L0,-3.0L2.5,-0.5"/>
  </g>
  <g id="arrowDown" transform="rotate(180) translate(-30 -48)">
    <use xlink:href="#rim"/>
    <path pointer-events="none" fill="none" stroke="white" stroke-width="1.5" d="M0,-3.0v7 M-2.5,-0.5L0,-3.0L2.5,-0.5"/>
  </g>
  <g id="arrowLeft" transform="rotate(270) translate(-36 17)">
    <use xlink:href="#rim"/>
    <path pointer-events="none" fill="none" stroke="white" stroke-width="1.5" d="M0,-3.0v7 M-2.5,-0.5L0,-3.0L2.5,-0.5"/>
  </g>
  <g id="resetDef">
    <use xlink:href="#rim2" fill="#404040"><set attributeName="fill" to="#808080" begin="reset.mouseover" end="reset.mouseout"/></use>
  </g>
</defs>
<script type="application/ecmascript">
var viewWidth = 927;
var viewHeight = 148;
var sectionId = 'dynsection-1';
</script>
<script type="application/ecmascript" xlink:href="svg.min.js"/>
<svg id="graph" class="graph">
<g id="viewport">
<title>src/wmtk/operations/TetWildTangentialLaplacianSmoothing.hpp</title>
<!-- Node1 -->
<g id="Node000001" class="node">
<title>Node1</title>
<g id="a_Node000001"><a xlink:title=" ">
<polygon fill="#999999" stroke="#666666" points="542.5,-140 390.5,-140 390.5,-99 542.5,-99 542.5,-140"/>
<text text-anchor="start" x="398.5" y="-128" font-family="Helvetica,sans-Serif" font-size="10.00">src/wmtk/operations</text>
<text text-anchor="start" x="398.5" y="-117" font-family="Helvetica,sans-Serif" font-size="10.00">/TetWildTangentialLaplacian</text>
<text text-anchor="middle" x="466.5" y="-106" font-family="Helvetica,sans-Serif" font-size="10.00">Smoothing.hpp</text>
</a>
</g>
</g>
<!-- Node2 -->
<g id="Node000002" class="node">
<title>Node2</title>
<g id="a_Node000002"><a xlink:href="internal_2periodic__optimization_8cpp.html" target="_top" xlink:title=" ">
<polygon fill="white" stroke="#666666" points="167,-63 0,-63 0,0 167,0 167,-63"/>
<text text-anchor="start" x="8" y="-51" font-family="Helvetica,sans-Serif" font-size="10.00">components/isotropic</text>
<text text-anchor="start" x="8" y="-40" font-family="Helvetica,sans-Serif" font-size="10.00">_remeshing/wmtk/components</text>
<text text-anchor="start" x="8" y="-29" font-family="Helvetica,sans-Serif" font-size="10.00">/isotropic_remeshing/periodic</text>
<text text-anchor="start" x="8" y="-18" font-family="Helvetica,sans-Serif" font-size="10.00">_optimization/internal/periodic</text>
<text text-anchor="middle" x="83.5" y="-7" font-family="Helvetica,sans-Serif" font-size="10.00">_optimization.cpp</text>
</a>
</g>
</g>
<!-- Node1&#45;&gt;Node2 -->
<g id="edge1_Node000001_Node000002" class="edge">
<title>Node1&#45;&gt;Node2</title>
<g id="a_edge1_Node000001_Node000002"><a xlink:title=" ">
<path fill="none" stroke="#63b8ff" d="M380.32,-105.13C322.05,-95.34 243.61,-80.7 175.5,-63 172.73,-62.28 169.92,-61.52 167.1,-60.73"/>
<polygon fill="#63b8ff" stroke="#63b8ff" points="379.78,-108.59 390.22,-106.78 380.93,-101.68 379.78,-108.59"/>
</a>
</g>
</g>
<!-- Node3 -->
<g id="Node000003" class="node">
<title>Node3</title>
<g id="a_Node000003"><a xlink:href="wildmeshing2d_8cpp.html" target="_top" xlink:title=" ">
<polygon fill="white" stroke="#666666" points="360.5,-52 184.5,-52 184.5,-11 360.5,-11 360.5,-52"/>
<text text-anchor="start" x="192.5" y="-40" font-family="Helvetica,sans-Serif" font-size="10.00">components/wildmeshing</text>
<text text-anchor="start" x="192.5" y="-29" font-family="Helvetica,sans-Serif" font-size="10.00">/wmtk/components/wildmeshing</text>
<text text-anchor="middle" x="272.5" y="-18" font-family="Helvetica,sans-Serif" font-size="10.00">/internal/wildmeshing2d.cpp</text>
</a>
</g>
</g>
<!-- Node1&#45;&gt;Node3 -->
<g id="edge2_Node000001_Node000003" class="edge">
<title>Node1&#45;&gt;Node3</title>
<g id="a_edge2_Node000001_Node000003"><a xlink:title=" ">
<path fill="none" stroke="#63b8ff" d="M413.31,-94.92C382.97,-81.47 345.39,-64.81 316.68,-52.09"/>
<polygon fill="#63b8ff" stroke="#63b8ff" points="411.92,-98.13 422.48,-98.99 414.75,-91.73 411.92,-98.13"/>
</a>
</g>
</g>
<!-- Node4 -->
<g id="Node000004" class="node">
<title>Node4</title>
<g id="a_Node000004"><a xlink:href="wildmeshing3d_8cpp.html" target="_top" xlink:title=" ">
<polygon fill="white" stroke="#666666" points="554.5,-52 378.5,-52 378.5,-11 554.5,-11 554.5,-52"/>
<text text-anchor="start" x="386.5" y="-40" font-family="Helvetica,sans-Serif" font-size="10.00">components/wildmeshing</text>
<text text-anchor="start" x="386.5" y="-29" font-family="Helvetica,sans-Serif" font-size="10.00">/wmtk/components/wildmeshing</text>
<text text-anchor="middle" x="466.5" y="-18" font-family="Helvetica,sans-Serif" font-size="10.00">/internal/wildmeshing3d.cpp</text>
</a>
</g>
</g>
<!-- Node1&#45;&gt;Node4 -->
<g id="edge3_Node000001_Node000004" class="edge">
<title>Node1&#45;&gt;Node4</title>
<g id="a_edge3_Node000001_Node000004"><a xlink:title=" ">
<path fill="none" stroke="#63b8ff" d="M466.5,-88.86C466.5,-76.76 466.5,-63.08 466.5,-52.24"/>
<polygon fill="#63b8ff" stroke="#63b8ff" points="463,-88.99 466.5,-98.99 470,-88.99 463,-88.99"/>
</a>
</g>
</g>
<!-- Node5 -->
<g id="Node000005" class="node">
<title>Node5</title>
<g id="a_Node000005"><a xlink:href="wildmeshing__old_8cpp.html" target="_top" xlink:title=" ">
<polygon fill="white" stroke="#666666" points="748.5,-52 572.5,-52 572.5,-11 748.5,-11 748.5,-52"/>
<text text-anchor="start" x="580.5" y="-40" font-family="Helvetica,sans-Serif" font-size="10.00">components/wildmeshing</text>
<text text-anchor="start" x="580.5" y="-29" font-family="Helvetica,sans-Serif" font-size="10.00">/wmtk/components/wildmeshing</text>
<text text-anchor="middle" x="660.5" y="-18" font-family="Helvetica,sans-Serif" font-size="10.00">/wildmeshing_old.cpp</text>
</a>
</g>
</g>
<!-- Node1&#45;&gt;Node5 -->
<g id="edge4_Node000001_Node000005" class="edge">
<title>Node1&#45;&gt;Node5</title>
<g id="a_edge4_Node000001_Node000005"><a xlink:title=" ">
<path fill="none" stroke="#63b8ff" d="M519.69,-94.92C550.03,-81.47 587.61,-64.81 616.32,-52.09"/>
<polygon fill="#63b8ff" stroke="#63b8ff" points="518.25,-91.73 510.52,-98.99 521.08,-98.13 518.25,-91.73"/>
</a>
</g>
</g>
<!-- Node6 -->
<g id="Node000006" class="node">
<title>Node6</title>
<g id="a_Node000006"><a xlink:href="_tet_wild_tangential_laplacian_smoothing_8cpp.html" target="_top" xlink:title=" ">
<polygon fill="white" stroke="#666666" points="918.5,-52 766.5,-52 766.5,-11 918.5,-11 918.5,-52"/>
<text text-anchor="start" x="774.5" y="-40" font-family="Helvetica,sans-Serif" font-size="10.00">src/wmtk/operations</text>
<text text-anchor="start" x="774.5" y="-29" font-family="Helvetica,sans-Serif" font-size="10.00">/TetWildTangentialLaplacian</text>
<text text-anchor="middle" x="842.5" y="-18" font-family="Helvetica,sans-Serif" font-size="10.00">Smoothing.cpp</text>
</a>
</g>
</g>
<!-- Node1&#45;&gt;Node6 -->
<g id="edge5_Node000001_Node000006" class="edge">
<title>Node1&#45;&gt;Node6</title>
<g id="a_edge5_Node000001_Node000006"><a xlink:title=" ">
<path fill="none" stroke="#63b8ff" d="M552.53,-105.72C610.88,-96.16 689.49,-81.56 757.5,-63 768.84,-59.9 780.84,-56 792.12,-52.04"/>
<polygon fill="#63b8ff" stroke="#63b8ff" points="551.92,-102.27 542.61,-107.32 553.04,-109.18 551.92,-102.27"/>
</a>
</g>
</g>
</g>
</svg>

<g id="navigator" transform="translate(0 0)" fill="#404254">
  <rect fill="#f2f5e9" fill-opacity="0.5" stroke="#606060" stroke-width=".5" x="0" y="0" width="60" height="60"/>
  <use id="zoomplus" xlink:href="#zoomPlus" x="17" y="9" onmousedown="handleZoom(evt,'in')"/>
  <use id="zoomminus" xlink:href="#zoomMin" x="42" y="9" onmousedown="handleZoom(evt,'out')"/>
  <use id="reset" xlink:href="#resetDef" x="30" y="36" onmousedown="handleReset()"/>
   <use id="arrowup" xlink:href="#arrowUp" x="0" y="0" onmousedown="handlePan(0,-1)"/>
  <use id="arrowright" xlink:href="#arrowRight" x="0" y="0" onmousedown="handlePan(1,0)"/>
  <use id="arrowdown" xlink:href="#arrowDown" x="0" y="0" onmousedown="handlePan(0,1)"/>
  <use id="arrowleft" xlink:href="#arrowLeft" x="0" y="0" onmousedown="handlePan(-1,0)"/>
</g>
<svg viewBox="0 0 15 15" width="100%" height="30px" preserveAspectRatio="xMaxYMin meet">
 <g id="arrow_out" transform="scale(0.3 0.3)">
  <a xlink:href="_tet_wild_tangential_laplacian_smoothing_8hpp__dep__incl_org.svg" target="_base">
   <rect id="button" ry="5" rx="5" y="6" x="6" height="38" width="38"
        fill="#f2f5e9" fill-opacity="0.5" stroke="#606060" stroke-width="1.0"/>
   <path id="arrow"
     d="M 11.500037,31.436501 C 11.940474,20.09759 22.043105,11.32322 32.158766,21.979434 L 37.068811,17.246167 C 37.068811,17.246167 37.088388,32 37.088388,32 L 22.160133,31.978069 C 22.160133,31.978069 26.997745,27.140456 26.997745,27.140456 C 18.528582,18.264221 13.291696,25.230495 11.500037,31.436501 z"
     style="fill:#404040;"/>
  </a>
 </g>
</svg>

<style type='text/css'>
<![CDATA[
[data-mouse-over-selected='false'] { opacity: 0.7; }
[data-mouse-over-selected='true']  { opacity: 1.0; }
]]>
</style>
<script type="application/ecmascript"><![CDATA[
document.addEventListener('DOMContentLoaded', (event) => {
  highlightEdges();
  highlightAdjacentNodes();
});
]]></script>
</svg>
