<?xml version="1.0" encoding="UTF-8" standalone="no"?>
<!DOCTYPE svg PUBLIC "-//W3C//DTD SVG 1.1//EN"
 "http://www.w3.org/Graphics/SVG/1.1/DTD/svg11.dtd">
<!-- Generated by graphviz version 2.43.0 (0)
 -->
<!-- Title: components/mesh_info/src/wmtk/components/mesh_info/transfer/TransferStrategyFactoryCollection.hpp Pages: 1 -->
<svg width="2165pt" height="324pt"
 viewBox="0.00 0.00 2164.50 324.00" xmlns="http://www.w3.org/2000/svg" xmlns:xlink="http://www.w3.org/1999/xlink">
<g id="graph0" class="graph" transform="scale(1 1) rotate(0) translate(4 320)">
<title>components/mesh_info/src/wmtk/components/mesh_info/transfer/TransferStrategyFactoryCollection.hpp</title>
<!-- Node1 -->
<g id="Node000001" class="node">
<title>Node1</title>
<g id="a_Node000001"><a xlink:title=" ">
<polygon fill="#999999" stroke="#666666" points="1910,-316 1747,-316 1747,-264 1910,-264 1910,-316"/>
<text text-anchor="start" x="1755" y="-304" font-family="Helvetica,sans-Serif" font-size="10.00">components/mesh_info</text>
<text text-anchor="start" x="1755" y="-293" font-family="Helvetica,sans-Serif" font-size="10.00">/src/wmtk/components</text>
<text text-anchor="start" x="1755" y="-282" font-family="Helvetica,sans-Serif" font-size="10.00">/mesh_info/transfer/Transfer</text>
<text text-anchor="middle" x="1828.5" y="-271" font-family="Helvetica,sans-Serif" font-size="10.00">StrategyFactoryCollection.hpp</text>
</a>
</g>
</g>
<!-- Node2 -->
<g id="Node000002" class="node">
<title>Node2</title>
<g id="a_Node000002"><a xlink:href="_isotropic_remeshing_options_8hpp.html" target="_top" xlink:title=" ">
<polygon fill="white" stroke="#666666" points="1472.5,-228 1254.5,-228 1254.5,-176 1472.5,-176 1472.5,-228"/>
<text text-anchor="start" x="1262.5" y="-216" font-family="Helvetica,sans-Serif" font-size="10.00">components/isotropic</text>
<text text-anchor="start" x="1262.5" y="-205" font-family="Helvetica,sans-Serif" font-size="10.00">_remeshing/wmtk/components</text>
<text text-anchor="start" x="1262.5" y="-194" font-family="Helvetica,sans-Serif" font-size="10.00">/isotropic_remeshing/IsotropicRemeshing</text>
<text text-anchor="middle" x="1363.5" y="-183" font-family="Helvetica,sans-Serif" font-size="10.00">Options.hpp</text>
</a>
</g>
</g>
<!-- Node1&#45;&gt;Node2 -->
<g id="edge1_Node000001_Node000002" class="edge">
<title>Node1&#45;&gt;Node2</title>
<g id="a_edge1_Node000001_Node000002"><a xlink:title=" ">
<path fill="none" stroke="#63b8ff" d="M1736.96,-272.07C1661.17,-258.05 1553.28,-238.1 1472.93,-223.24"/>
<polygon fill="#63b8ff" stroke="#63b8ff" points="1736.5,-275.54 1746.97,-273.92 1737.77,-268.66 1736.5,-275.54"/>
</a>
</g>
</g>
<!-- Node15 -->
<g id="Node000015" class="node">
<title>Node15</title>
<g id="a_Node000015"><a xlink:href="multimesh__from__attribute_8hpp.html" target="_top" xlink:title=" ">
<polygon fill="white" stroke="#666666" points="1818,-228 1663,-228 1663,-176 1818,-176 1818,-228"/>
<text text-anchor="start" x="1671" y="-216" font-family="Helvetica,sans-Serif" font-size="10.00">components/mesh_info</text>
<text text-anchor="start" x="1671" y="-205" font-family="Helvetica,sans-Serif" font-size="10.00">/src/wmtk/components</text>
<text text-anchor="start" x="1671" y="-194" font-family="Helvetica,sans-Serif" font-size="10.00">/mesh_info/multimesh_from</text>
<text text-anchor="middle" x="1740.5" y="-183" font-family="Helvetica,sans-Serif" font-size="10.00">_attribute.hpp</text>
</a>
</g>
</g>
<!-- Node1&#45;&gt;Node15 -->
<g id="edge14_Node000001_Node000015" class="edge">
<title>Node1&#45;&gt;Node15</title>
<g id="a_edge14_Node000001_Node000015"><a xlink:title=" ">
<path fill="none" stroke="#63b8ff" d="M1795.38,-256.63C1785.74,-247.21 1775.36,-237.06 1766.24,-228.16"/>
<polygon fill="#63b8ff" stroke="#63b8ff" points="1792.97,-259.18 1802.57,-263.66 1797.87,-254.17 1792.97,-259.18"/>
</a>
</g>
</g>
<!-- Node17 -->
<g id="Node000017" class="node">
<title>Node17</title>
<g id="a_Node000017"><a xlink:href="_transfer_strategy_factory_collection_8cpp.html" target="_top" xlink:title=" ">
<polygon fill="white" stroke="#666666" points="1998.5,-228 1836.5,-228 1836.5,-176 1998.5,-176 1998.5,-228"/>
<text text-anchor="start" x="1844.5" y="-216" font-family="Helvetica,sans-Serif" font-size="10.00">components/mesh_info</text>
<text text-anchor="start" x="1844.5" y="-205" font-family="Helvetica,sans-Serif" font-size="10.00">/src/wmtk/components</text>
<text text-anchor="start" x="1844.5" y="-194" font-family="Helvetica,sans-Serif" font-size="10.00">/mesh_info/transfer/Transfer</text>
<text text-anchor="middle" x="1917.5" y="-183" font-family="Helvetica,sans-Serif" font-size="10.00">StrategyFactoryCollection.cpp</text>
</a>
</g>
</g>
<!-- Node1&#45;&gt;Node17 -->
<g id="edge16_Node000001_Node000017" class="edge">
<title>Node1&#45;&gt;Node17</title>
<g id="a_edge16_Node000001_Node000017"><a xlink:title=" ">
<path fill="none" stroke="#63b8ff" d="M1862,-256.63C1871.75,-247.21 1882.25,-237.06 1891.47,-228.16"/>
<polygon fill="#63b8ff" stroke="#63b8ff" points="1859.48,-254.2 1854.72,-263.66 1864.34,-259.23 1859.48,-254.2"/>
</a>
</g>
</g>
<!-- Node18 -->
<g id="Node000018" class="node">
<title>Node18</title>
<g id="a_Node000018"><a xlink:href="from__tag_8cpp.html" target="_top" xlink:title=" ">
<polygon fill="white" stroke="#666666" points="2156.5,-222.5 2016.5,-222.5 2016.5,-181.5 2156.5,-181.5 2156.5,-222.5"/>
<text text-anchor="start" x="2024.5" y="-210.5" font-family="Helvetica,sans-Serif" font-size="10.00">components/multimesh</text>
<text text-anchor="start" x="2024.5" y="-199.5" font-family="Helvetica,sans-Serif" font-size="10.00">/src/wmtk/components</text>
<text text-anchor="middle" x="2086.5" y="-188.5" font-family="Helvetica,sans-Serif" font-size="10.00">/multimesh/from_tag.cpp</text>
</a>
</g>
</g>
<!-- Node1&#45;&gt;Node18 -->
<g id="edge17_Node000001_Node000018" class="edge">
<title>Node1&#45;&gt;Node18</title>
<g id="a_edge17_Node000001_Node000018"><a xlink:title=" ">
<path fill="none" stroke="#63b8ff" d="M1913.71,-260.6C1951.14,-248.12 1994.16,-233.78 2027.91,-222.53"/>
<polygon fill="#63b8ff" stroke="#63b8ff" points="1912.2,-257.41 1903.82,-263.89 1914.41,-264.05 1912.2,-257.41"/>
</a>
</g>
</g>
<!-- Node3 -->
<g id="Node000003" class="node">
<title>Node3</title>
<g id="a_Node000003"><a xlink:href="_isotropic_remeshing_8hpp.html" target="_top" xlink:title=" ">
<polygon fill="white" stroke="#666666" points="840,-134.5 601,-134.5 601,-93.5 840,-93.5 840,-134.5"/>
<text text-anchor="start" x="609" y="-122.5" font-family="Helvetica,sans-Serif" font-size="10.00">components/isotropic</text>
<text text-anchor="start" x="609" y="-111.5" font-family="Helvetica,sans-Serif" font-size="10.00">_remeshing/wmtk/components</text>
<text text-anchor="middle" x="720.5" y="-100.5" font-family="Helvetica,sans-Serif" font-size="10.00">/isotropic_remeshing/IsotropicRemeshing.hpp</text>
</a>
</g>
</g>
<!-- Node2&#45;&gt;Node3 -->
<g id="edge2_Node000002_Node000003" class="edge">
<title>Node2&#45;&gt;Node3</title>
<g id="a_edge2_Node000002_Node000003"><a xlink:title=" ">
<path fill="none" stroke="#63b8ff" d="M1244.13,-189.34C1139.74,-178.54 984.19,-161.01 849.5,-140 839.02,-138.36 828.09,-136.5 817.22,-134.54"/>
<polygon fill="#63b8ff" stroke="#63b8ff" points="1244.08,-192.85 1254.39,-190.39 1244.8,-185.89 1244.08,-192.85"/>
</a>
</g>
</g>
<!-- Node10 -->
<g id="Node000010" class="node">
<title>Node10</title>
<g id="a_Node000010"><a xlink:href="_isotropic_remeshing_options_8cpp.html" target="_top" xlink:title=" ">
<polygon fill="white" stroke="#666666" points="1076.5,-140 858.5,-140 858.5,-88 1076.5,-88 1076.5,-140"/>
<text text-anchor="start" x="866.5" y="-128" font-family="Helvetica,sans-Serif" font-size="10.00">components/isotropic</text>
<text text-anchor="start" x="866.5" y="-117" font-family="Helvetica,sans-Serif" font-size="10.00">_remeshing/wmtk/components</text>
<text text-anchor="start" x="866.5" y="-106" font-family="Helvetica,sans-Serif" font-size="10.00">/isotropic_remeshing/IsotropicRemeshing</text>
<text text-anchor="middle" x="967.5" y="-95" font-family="Helvetica,sans-Serif" font-size="10.00">Options.cpp</text>
</a>
</g>
</g>
<!-- Node2&#45;&gt;Node10 -->
<g id="edge9_Node000002_Node000010" class="edge">
<title>Node2&#45;&gt;Node10</title>
<g id="a_edge9_Node000002_Node000010"><a xlink:title=" ">
<path fill="none" stroke="#63b8ff" d="M1244.41,-175.14C1191.15,-163.57 1128.79,-150.03 1076.74,-138.72"/>
<polygon fill="#63b8ff" stroke="#63b8ff" points="1243.73,-178.57 1254.24,-177.27 1245.21,-171.73 1243.73,-178.57"/>
</a>
</g>
</g>
<!-- Node11 -->
<g id="Node000011" class="node">
<title>Node11</title>
<g id="a_Node000011"><a xlink:href="configure__collapse_8cpp.html" target="_top" xlink:title=" ">
<polygon fill="white" stroke="#666666" points="1262,-140 1095,-140 1095,-88 1262,-88 1262,-140"/>
<text text-anchor="start" x="1103" y="-128" font-family="Helvetica,sans-Serif" font-size="10.00">components/isotropic</text>
<text text-anchor="start" x="1103" y="-117" font-family="Helvetica,sans-Serif" font-size="10.00">_remeshing/wmtk/components</text>
<text text-anchor="start" x="1103" y="-106" font-family="Helvetica,sans-Serif" font-size="10.00">/isotropic_remeshing/internal</text>
<text text-anchor="middle" x="1178.5" y="-95" font-family="Helvetica,sans-Serif" font-size="10.00">/configure_collapse.cpp</text>
</a>
</g>
</g>
<!-- Node2&#45;&gt;Node11 -->
<g id="edge10_Node000002_Node000011" class="edge">
<title>Node2&#45;&gt;Node11</title>
<g id="a_edge10_Node000002_Node000011"><a xlink:title=" ">
<path fill="none" stroke="#63b8ff" d="M1300.23,-171.59C1278.23,-161.36 1253.76,-149.99 1232.57,-140.14"/>
<polygon fill="#63b8ff" stroke="#63b8ff" points="1298.95,-174.85 1309.49,-175.89 1301.9,-168.5 1298.95,-174.85"/>
</a>
</g>
</g>
<!-- Node12 -->
<g id="Node000012" class="node">
<title>Node12</title>
<g id="a_Node000012"><a xlink:href="configure__split_8cpp.html" target="_top" xlink:title=" ">
<polygon fill="white" stroke="#666666" points="1447,-140 1280,-140 1280,-88 1447,-88 1447,-140"/>
<text text-anchor="start" x="1288" y="-128" font-family="Helvetica,sans-Serif" font-size="10.00">components/isotropic</text>
<text text-anchor="start" x="1288" y="-117" font-family="Helvetica,sans-Serif" font-size="10.00">_remeshing/wmtk/components</text>
<text text-anchor="start" x="1288" y="-106" font-family="Helvetica,sans-Serif" font-size="10.00">/isotropic_remeshing/internal</text>
<text text-anchor="middle" x="1363.5" y="-95" font-family="Helvetica,sans-Serif" font-size="10.00">/configure_split.cpp</text>
</a>
</g>
</g>
<!-- Node2&#45;&gt;Node12 -->
<g id="edge11_Node000002_Node000012" class="edge">
<title>Node2&#45;&gt;Node12</title>
<g id="a_edge11_Node000002_Node000012"><a xlink:title=" ">
<path fill="none" stroke="#63b8ff" d="M1363.5,-165.56C1363.5,-157.04 1363.5,-148.1 1363.5,-140.16"/>
<polygon fill="#63b8ff" stroke="#63b8ff" points="1360,-165.66 1363.5,-175.66 1367,-165.66 1360,-165.66"/>
</a>
</g>
</g>
<!-- Node13 -->
<g id="Node000013" class="node">
<title>Node13</title>
<g id="a_Node000013"><a xlink:href="configure__swap_8cpp.html" target="_top" xlink:title=" ">
<polygon fill="white" stroke="#666666" points="1632,-140 1465,-140 1465,-88 1632,-88 1632,-140"/>
<text text-anchor="start" x="1473" y="-128" font-family="Helvetica,sans-Serif" font-size="10.00">components/isotropic</text>
<text text-anchor="start" x="1473" y="-117" font-family="Helvetica,sans-Serif" font-size="10.00">_remeshing/wmtk/components</text>
<text text-anchor="start" x="1473" y="-106" font-family="Helvetica,sans-Serif" font-size="10.00">/isotropic_remeshing/internal</text>
<text text-anchor="middle" x="1548.5" y="-95" font-family="Helvetica,sans-Serif" font-size="10.00">/configure_swap.cpp</text>
</a>
</g>
</g>
<!-- Node2&#45;&gt;Node13 -->
<g id="edge12_Node000002_Node000013" class="edge">
<title>Node2&#45;&gt;Node13</title>
<g id="a_edge12_Node000002_Node000013"><a xlink:title=" ">
<path fill="none" stroke="#63b8ff" d="M1426.77,-171.59C1448.77,-161.36 1473.24,-149.99 1494.43,-140.14"/>
<polygon fill="#63b8ff" stroke="#63b8ff" points="1425.1,-168.5 1417.51,-175.89 1428.05,-174.85 1425.1,-168.5"/>
</a>
</g>
</g>
<!-- Node14 -->
<g id="Node000014" class="node">
<title>Node14</title>
<g id="a_Node000014"><a xlink:href="configure__swap__tetmesh_8cpp.html" target="_top" xlink:title=" ">
<polygon fill="white" stroke="#666666" points="1817,-140 1650,-140 1650,-88 1817,-88 1817,-140"/>
<text text-anchor="start" x="1658" y="-128" font-family="Helvetica,sans-Serif" font-size="10.00">components/isotropic</text>
<text text-anchor="start" x="1658" y="-117" font-family="Helvetica,sans-Serif" font-size="10.00">_remeshing/wmtk/components</text>
<text text-anchor="start" x="1658" y="-106" font-family="Helvetica,sans-Serif" font-size="10.00">/isotropic_remeshing/internal</text>
<text text-anchor="middle" x="1733.5" y="-95" font-family="Helvetica,sans-Serif" font-size="10.00">/configure_swap_tetmesh.cpp</text>
</a>
</g>
</g>
<!-- Node2&#45;&gt;Node14 -->
<g id="edge13_Node000002_Node000014" class="edge">
<title>Node2&#45;&gt;Node14</title>
<g id="a_edge13_Node000002_Node000014"><a xlink:title=" ">
<path fill="none" stroke="#63b8ff" d="M1482.64,-176.02C1531.66,-165.41 1588.92,-152.6 1640.5,-140 1643.59,-139.25 1646.73,-138.47 1649.9,-137.67"/>
<polygon fill="#63b8ff" stroke="#63b8ff" points="1481.67,-172.65 1472.63,-178.18 1483.14,-179.49 1481.67,-172.65"/>
</a>
</g>
</g>
<!-- Node4 -->
<g id="Node000004" class="node">
<title>Node4</title>
<g id="a_Node000004"><a xlink:href="_isotropic_remeshing_8cpp.html" target="_top" xlink:title=" ">
<polygon fill="white" stroke="#666666" points="239,-46.5 0,-46.5 0,-5.5 239,-5.5 239,-46.5"/>
<text text-anchor="start" x="8" y="-34.5" font-family="Helvetica,sans-Serif" font-size="10.00">components/isotropic</text>
<text text-anchor="start" x="8" y="-23.5" font-family="Helvetica,sans-Serif" font-size="10.00">_remeshing/wmtk/components</text>
<text text-anchor="middle" x="119.5" y="-12.5" font-family="Helvetica,sans-Serif" font-size="10.00">/isotropic_remeshing/IsotropicRemeshing.cpp</text>
</a>
</g>
</g>
<!-- Node3&#45;&gt;Node4 -->
<g id="edge3_Node000003_Node000004" class="edge">
<title>Node3&#45;&gt;Node4</title>
<g id="a_edge3_Node000003_Node000004"><a xlink:title=" ">
<path fill="none" stroke="#63b8ff" d="M590.95,-98.48C495.94,-87.29 363.92,-70.62 248.5,-52 238.25,-50.35 227.57,-48.49 216.94,-46.56"/>
<polygon fill="#63b8ff" stroke="#63b8ff" points="590.56,-101.96 600.9,-99.65 591.37,-95.01 590.56,-101.96"/>
</a>
</g>
</g>
<!-- Node5 -->
<g id="Node000005" class="node">
<title>Node5</title>
<g id="a_Node000005"><a xlink:href="_isotropic_remeshing__collapse_8cpp.html" target="_top" xlink:title=" ">
<polygon fill="white" stroke="#666666" points="475.5,-52 257.5,-52 257.5,0 475.5,0 475.5,-52"/>
<text text-anchor="start" x="265.5" y="-40" font-family="Helvetica,sans-Serif" font-size="10.00">components/isotropic</text>
<text text-anchor="start" x="265.5" y="-29" font-family="Helvetica,sans-Serif" font-size="10.00">_remeshing/wmtk/components</text>
<text text-anchor="start" x="265.5" y="-18" font-family="Helvetica,sans-Serif" font-size="10.00">/isotropic_remeshing/IsotropicRemeshing</text>
<text text-anchor="middle" x="366.5" y="-7" font-family="Helvetica,sans-Serif" font-size="10.00">_collapse.cpp</text>
</a>
</g>
</g>
<!-- Node3&#45;&gt;Node5 -->
<g id="edge4_Node000003_Node000005" class="edge">
<title>Node3&#45;&gt;Node5</title>
<g id="a_edge4_Node000003_Node000005"><a xlink:title=" ">
<path fill="none" stroke="#63b8ff" d="M630.23,-91.07C581.27,-79.18 520.56,-64.43 469.73,-52.08"/>
<polygon fill="#63b8ff" stroke="#63b8ff" points="629.63,-94.53 640.17,-93.49 631.28,-87.72 629.63,-94.53"/>
</a>
</g>
</g>
<!-- Node6 -->
<g id="Node000006" class="node">
<title>Node6</title>
<g id="a_Node000006"><a xlink:href="_isotropic_remeshing__smooth_8cpp.html" target="_top" xlink:title=" ">
<polygon fill="white" stroke="#666666" points="711.5,-52 493.5,-52 493.5,0 711.5,0 711.5,-52"/>
<text text-anchor="start" x="501.5" y="-40" font-family="Helvetica,sans-Serif" font-size="10.00">components/isotropic</text>
<text text-anchor="start" x="501.5" y="-29" font-family="Helvetica,sans-Serif" font-size="10.00">_remeshing/wmtk/components</text>
<text text-anchor="start" x="501.5" y="-18" font-family="Helvetica,sans-Serif" font-size="10.00">/isotropic_remeshing/IsotropicRemeshing</text>
<text text-anchor="middle" x="602.5" y="-7" font-family="Helvetica,sans-Serif" font-size="10.00">_smooth.cpp</text>
</a>
</g>
</g>
<!-- Node3&#45;&gt;Node6 -->
<g id="edge5_Node000003_Node000006" class="edge">
<title>Node3&#45;&gt;Node6</title>
<g id="a_edge5_Node000003_Node000006"><a xlink:title=" ">
<path fill="none" stroke="#63b8ff" d="M685.55,-87.53C670.3,-76.41 652.46,-63.41 637.24,-52.32"/>
<polygon fill="#63b8ff" stroke="#63b8ff" points="683.58,-90.42 693.72,-93.49 687.7,-84.77 683.58,-90.42"/>
</a>
</g>
</g>
<!-- Node7 -->
<g id="Node000007" class="node">
<title>Node7</title>
<g id="a_Node000007"><a xlink:href="_isotropic_remeshing__split_8cpp.html" target="_top" xlink:title=" ">
<polygon fill="white" stroke="#666666" points="947.5,-52 729.5,-52 729.5,0 947.5,0 947.5,-52"/>
<text text-anchor="start" x="737.5" y="-40" font-family="Helvetica,sans-Serif" font-size="10.00">components/isotropic</text>
<text text-anchor="start" x="737.5" y="-29" font-family="Helvetica,sans-Serif" font-size="10.00">_remeshing/wmtk/components</text>
<text text-anchor="start" x="737.5" y="-18" font-family="Helvetica,sans-Serif" font-size="10.00">/isotropic_remeshing/IsotropicRemeshing</text>
<text text-anchor="middle" x="838.5" y="-7" font-family="Helvetica,sans-Serif" font-size="10.00">_split.cpp</text>
</a>
</g>
</g>
<!-- Node3&#45;&gt;Node7 -->
<g id="edge6_Node000003_Node000007" class="edge">
<title>Node3&#45;&gt;Node7</title>
<g id="a_edge6_Node000003_Node000007"><a xlink:title=" ">
<path fill="none" stroke="#63b8ff" d="M755.45,-87.53C770.7,-76.41 788.54,-63.41 803.76,-52.32"/>
<polygon fill="#63b8ff" stroke="#63b8ff" points="753.3,-84.77 747.28,-93.49 757.42,-90.42 753.3,-84.77"/>
</a>
</g>
</g>
<!-- Node8 -->
<g id="Node000008" class="node">
<title>Node8</title>
<g id="a_Node000008"><a xlink:href="_isotropic_remeshing__swap_8cpp.html" target="_top" xlink:title=" ">
<polygon fill="white" stroke="#666666" points="1183.5,-52 965.5,-52 965.5,0 1183.5,0 1183.5,-52"/>
<text text-anchor="start" x="973.5" y="-40" font-family="Helvetica,sans-Serif" font-size="10.00">components/isotropic</text>
<text text-anchor="start" x="973.5" y="-29" font-family="Helvetica,sans-Serif" font-size="10.00">_remeshing/wmtk/components</text>
<text text-anchor="start" x="973.5" y="-18" font-family="Helvetica,sans-Serif" font-size="10.00">/isotropic_remeshing/IsotropicRemeshing</text>
<text text-anchor="middle" x="1074.5" y="-7" font-family="Helvetica,sans-Serif" font-size="10.00">_swap.cpp</text>
</a>
</g>
</g>
<!-- Node3&#45;&gt;Node8 -->
<g id="edge7_Node000003_Node000008" class="edge">
<title>Node3&#45;&gt;Node8</title>
<g id="a_edge7_Node000003_Node000008"><a xlink:title=" ">
<path fill="none" stroke="#63b8ff" d="M810.77,-91.07C859.73,-79.18 920.44,-64.43 971.27,-52.08"/>
<polygon fill="#63b8ff" stroke="#63b8ff" points="809.72,-87.72 800.83,-93.49 811.37,-94.53 809.72,-87.72"/>
</a>
</g>
</g>
<!-- Node9 -->
<g id="Node000009" class="node">
<title>Node9</title>
<g id="a_Node000009"><a xlink:href="isotropic__remeshing_8cpp.html" target="_top" xlink:title=" ">
<polygon fill="white" stroke="#666666" points="1369,-52 1202,-52 1202,0 1369,0 1369,-52"/>
<text text-anchor="start" x="1210" y="-40" font-family="Helvetica,sans-Serif" font-size="10.00">components/isotropic</text>
<text text-anchor="start" x="1210" y="-29" font-family="Helvetica,sans-Serif" font-size="10.00">_remeshing/wmtk/components</text>
<text text-anchor="start" x="1210" y="-18" font-family="Helvetica,sans-Serif" font-size="10.00">/isotropic_remeshing/isotropic</text>
<text text-anchor="middle" x="1285.5" y="-7" font-family="Helvetica,sans-Serif" font-size="10.00">_remeshing.cpp</text>
</a>
</g>
</g>
<!-- Node3&#45;&gt;Node9 -->
<g id="edge8_Node000003_Node000009" class="edge">
<title>Node3&#45;&gt;Node9</title>
<g id="a_edge8_Node000003_Node000009"><a xlink:title=" ">
<path fill="none" stroke="#63b8ff" d="M826.39,-91.71C834.2,-90.38 841.96,-89.12 849.5,-88 1001.11,-65.4 1041.79,-79.98 1192.5,-52 1195.62,-51.42 1198.8,-50.79 1201.99,-50.12"/>
<polygon fill="#63b8ff" stroke="#63b8ff" points="825.75,-88.27 816.5,-93.44 826.95,-95.17 825.75,-88.27"/>
</a>
</g>
</g>
<!-- Node16 -->
<g id="Node000016" class="node">
<title>Node16</title>
<g id="a_Node000016"><a xlink:href="multimesh__from__attribute_8cpp.html" target="_top" xlink:title=" ">
<polygon fill="white" stroke="#666666" points="1990,-140 1835,-140 1835,-88 1990,-88 1990,-140"/>
<text text-anchor="start" x="1843" y="-128" font-family="Helvetica,sans-Serif" font-size="10.00">components/mesh_info</text>
<text text-anchor="start" x="1843" y="-117" font-family="Helvetica,sans-Serif" font-size="10.00">/src/wmtk/components</text>
<text text-anchor="start" x="1843" y="-106" font-family="Helvetica,sans-Serif" font-size="10.00">/mesh_info/multimesh_from</text>
<text text-anchor="middle" x="1912.5" y="-95" font-family="Helvetica,sans-Serif" font-size="10.00">_attribute.cpp</text>
</a>
</g>
</g>
<!-- Node15&#45;&gt;Node16 -->
<g id="edge15_Node000015_Node000016" class="edge">
<title>Node15&#45;&gt;Node16</title>
<g id="a_edge15_Node000015_Node000016"><a xlink:title=" ">
<path fill="none" stroke="#63b8ff" d="M1799.87,-171.31C1820.19,-161.16 1842.7,-149.9 1862.23,-140.14"/>
<polygon fill="#63b8ff" stroke="#63b8ff" points="1798.09,-168.29 1790.71,-175.89 1801.22,-174.55 1798.09,-168.29"/>
</a>
</g>
</g>
</g>
</svg>
