<?xml version="1.0" encoding="UTF-8" standalone="no"?>
<!DOCTYPE svg PUBLIC "-//W3C//DTD SVG 1.1//EN"
 "http://www.w3.org/Graphics/SVG/1.1/DTD/svg11.dtd">
<!-- Generated by graphviz version 2.43.0 (0)
 -->
<!-- Title: src/wmtk/operations/composite/TriEdgeSwap.hpp Pages: 1 -->
<svg width="1885pt" height="137pt"
 viewBox="0.00 0.00 1885.00 137.00" xmlns="http://www.w3.org/2000/svg" xmlns:xlink="http://www.w3.org/1999/xlink">
<g id="graph0" class="graph" transform="scale(1 1) rotate(0) translate(4 133)">
<title>src/wmtk/operations/composite/TriEdgeSwap.hpp</title>
<!-- Node1 -->
<g id="Node000001" class="node">
<title>Node1</title>
<g id="a_Node000001"><a xlink:title=" ">
<polygon fill="#999999" stroke="#666666" points="1035.5,-129 879.5,-129 879.5,-99 1035.5,-99 1035.5,-129"/>
<text text-anchor="start" x="887.5" y="-117" font-family="Helvetica,sans-Serif" font-size="10.00">src/wmtk/operations</text>
<text text-anchor="middle" x="957.5" y="-106" font-family="Helvetica,sans-Serif" font-size="10.00">/composite/TriEdgeSwap.hpp</text>
</a>
</g>
</g>
<!-- Node2 -->
<g id="Node000002" class="node">
<title>Node2</title>
<g id="a_Node000002"><a xlink:href="_operation_factory_8cpp.html" target="_top" xlink:title=" ">
<polygon fill="white" stroke="#666666" points="189,-52 0,-52 0,-11 189,-11 189,-52"/>
<text text-anchor="start" x="8" y="-40" font-family="Helvetica,sans-Serif" font-size="10.00">components/configurator</text>
<text text-anchor="start" x="8" y="-29" font-family="Helvetica,sans-Serif" font-size="10.00">/src/wmtk/components/configurator</text>
<text text-anchor="middle" x="94.5" y="-18" font-family="Helvetica,sans-Serif" font-size="10.00">/operations/OperationFactory.cpp</text>
</a>
</g>
</g>
<!-- Node1&#45;&gt;Node2 -->
<g id="edge1_Node000001_Node000002" class="edge">
<title>Node1&#45;&gt;Node2</title>
<g id="a_edge1_Node000001_Node000002"><a xlink:title=" ">
<path fill="none" stroke="#63b8ff" d="M868.83,-113.43C726.38,-112.73 438.25,-105.52 198.5,-63 183.49,-60.34 167.57,-56.31 152.82,-52.04"/>
<polygon fill="#63b8ff" stroke="#63b8ff" points="869.23,-116.93 879.25,-113.47 869.26,-109.93 869.23,-116.93"/>
</a>
</g>
</g>
<!-- Node3 -->
<g id="Node000003" class="node">
<title>Node3</title>
<g id="a_Node000003"><a xlink:href="_isotropic_remeshing__swap_8cpp.html" target="_top" xlink:title=" ">
<polygon fill="white" stroke="#666666" points="425.5,-57.5 207.5,-57.5 207.5,-5.5 425.5,-5.5 425.5,-57.5"/>
<text text-anchor="start" x="215.5" y="-45.5" font-family="Helvetica,sans-Serif" font-size="10.00">components/isotropic</text>
<text text-anchor="start" x="215.5" y="-34.5" font-family="Helvetica,sans-Serif" font-size="10.00">_remeshing/wmtk/components</text>
<text text-anchor="start" x="215.5" y="-23.5" font-family="Helvetica,sans-Serif" font-size="10.00">/isotropic_remeshing/IsotropicRemeshing</text>
<text text-anchor="middle" x="316.5" y="-12.5" font-family="Helvetica,sans-Serif" font-size="10.00">_swap.cpp</text>
</a>
</g>
</g>
<!-- Node1&#45;&gt;Node3 -->
<g id="edge2_Node000001_Node000003" class="edge">
<title>Node1&#45;&gt;Node3</title>
<g id="a_edge2_Node000001_Node000003"><a xlink:title=" ">
<path fill="none" stroke="#63b8ff" d="M869.27,-108.82C764.84,-102.88 585.99,-89.65 434.5,-63 425.64,-61.44 416.47,-59.56 407.34,-57.51"/>
<polygon fill="#63b8ff" stroke="#63b8ff" points="869.27,-112.32 879.45,-109.38 869.66,-105.33 869.27,-112.32"/>
</a>
</g>
</g>
<!-- Node4 -->
<g id="Node000004" class="node">
<title>Node4</title>
<g id="a_Node000004"><a xlink:href="configure__swap_8cpp.html" target="_top" xlink:title=" ">
<polygon fill="white" stroke="#666666" points="611,-57.5 444,-57.5 444,-5.5 611,-5.5 611,-57.5"/>
<text text-anchor="start" x="452" y="-45.5" font-family="Helvetica,sans-Serif" font-size="10.00">components/isotropic</text>
<text text-anchor="start" x="452" y="-34.5" font-family="Helvetica,sans-Serif" font-size="10.00">_remeshing/wmtk/components</text>
<text text-anchor="start" x="452" y="-23.5" font-family="Helvetica,sans-Serif" font-size="10.00">/isotropic_remeshing/internal</text>
<text text-anchor="middle" x="527.5" y="-12.5" font-family="Helvetica,sans-Serif" font-size="10.00">/configure_swap.cpp</text>
</a>
</g>
</g>
<!-- Node1&#45;&gt;Node4 -->
<g id="edge3_Node000001_Node000004" class="edge">
<title>Node1&#45;&gt;Node4</title>
<g id="a_edge3_Node000001_Node000004"><a xlink:title=" ">
<path fill="none" stroke="#63b8ff" d="M868.9,-104.15C800.25,-96.26 703.07,-82.88 619.5,-63 612.79,-61.4 605.87,-59.54 598.97,-57.53"/>
<polygon fill="#63b8ff" stroke="#63b8ff" points="868.92,-107.67 879.25,-105.32 869.7,-100.71 868.92,-107.67"/>
</a>
</g>
</g>
<!-- Node5 -->
<g id="Node000005" class="node">
<title>Node5</title>
<g id="a_Node000005"><a xlink:href="internal_2periodic__optimization_8cpp.html" target="_top" xlink:title=" ">
<polygon fill="white" stroke="#666666" points="796,-63 629,-63 629,0 796,0 796,-63"/>
<text text-anchor="start" x="637" y="-51" font-family="Helvetica,sans-Serif" font-size="10.00">components/isotropic</text>
<text text-anchor="start" x="637" y="-40" font-family="Helvetica,sans-Serif" font-size="10.00">_remeshing/wmtk/components</text>
<text text-anchor="start" x="637" y="-29" font-family="Helvetica,sans-Serif" font-size="10.00">/isotropic_remeshing/periodic</text>
<text text-anchor="start" x="637" y="-18" font-family="Helvetica,sans-Serif" font-size="10.00">_optimization/internal/periodic</text>
<text text-anchor="middle" x="712.5" y="-7" font-family="Helvetica,sans-Serif" font-size="10.00">_optimization.cpp</text>
</a>
</g>
</g>
<!-- Node1&#45;&gt;Node5 -->
<g id="edge4_Node000001_Node000005" class="edge">
<title>Node1&#45;&gt;Node5</title>
<g id="a_edge4_Node000001_Node000005"><a xlink:title=" ">
<path fill="none" stroke="#63b8ff" d="M904.61,-95.78C875.13,-86.16 837.77,-73.95 804.5,-63 801.78,-62.11 799.02,-61.2 796.23,-60.28"/>
<polygon fill="#63b8ff" stroke="#63b8ff" points="903.69,-99.16 914.29,-98.93 905.87,-92.5 903.69,-99.16"/>
</a>
</g>
</g>
<!-- Node6 -->
<g id="Node000006" class="node">
<title>Node6</title>
<g id="a_Node000006"><a xlink:href="test__component__isotropic__remeshing_8cpp.html" target="_top" xlink:title=" ">
<polygon fill="white" stroke="#666666" points="939,-52 814,-52 814,-11 939,-11 939,-52"/>
<text text-anchor="start" x="822" y="-40" font-family="Helvetica,sans-Serif" font-size="10.00">components/tests/test</text>
<text text-anchor="start" x="822" y="-29" font-family="Helvetica,sans-Serif" font-size="10.00">_component_isotropic</text>
<text text-anchor="middle" x="876.5" y="-18" font-family="Helvetica,sans-Serif" font-size="10.00">_remeshing.cpp</text>
</a>
</g>
</g>
<!-- Node1&#45;&gt;Node6 -->
<g id="edge5_Node000001_Node000006" class="edge">
<title>Node1&#45;&gt;Node6</title>
<g id="a_edge5_Node000001_Node000006"><a xlink:title=" ">
<path fill="none" stroke="#63b8ff" d="M936.14,-91.78C923.77,-79.48 908.3,-64.1 896.21,-52.09"/>
<polygon fill="#63b8ff" stroke="#63b8ff" points="933.83,-94.41 943.39,-98.98 938.77,-89.45 933.83,-94.41"/>
</a>
</g>
</g>
<!-- Node7 -->
<g id="Node000007" class="node">
<title>Node7</title>
<g id="a_Node000007"><a xlink:href="test__component__wildmeshing_8cpp.html" target="_top" xlink:title=" ">
<polygon fill="white" stroke="#666666" points="1121.5,-46.5 957.5,-46.5 957.5,-16.5 1121.5,-16.5 1121.5,-46.5"/>
<text text-anchor="start" x="965.5" y="-34.5" font-family="Helvetica,sans-Serif" font-size="10.00">components/tests/test</text>
<text text-anchor="middle" x="1039.5" y="-23.5" font-family="Helvetica,sans-Serif" font-size="10.00">_component_wildmeshing.cpp</text>
</a>
</g>
</g>
<!-- Node1&#45;&gt;Node7 -->
<g id="edge6_Node000001_Node000007" class="edge">
<title>Node1&#45;&gt;Node7</title>
<g id="a_edge6_Node000001_Node000007"><a xlink:title=" ">
<path fill="none" stroke="#63b8ff" d="M978.95,-91.95C993.49,-77.66 1012.33,-59.17 1025.11,-46.63"/>
<polygon fill="#63b8ff" stroke="#63b8ff" points="976.47,-89.47 971.78,-98.98 981.37,-94.47 976.47,-89.47"/>
</a>
</g>
</g>
<!-- Node8 -->
<g id="Node000008" class="node">
<title>Node8</title>
<g id="a_Node000008"><a xlink:href="wildmeshing2d_8cpp.html" target="_top" xlink:title=" ">
<polygon fill="white" stroke="#666666" points="1315.5,-52 1139.5,-52 1139.5,-11 1315.5,-11 1315.5,-52"/>
<text text-anchor="start" x="1147.5" y="-40" font-family="Helvetica,sans-Serif" font-size="10.00">components/wildmeshing</text>
<text text-anchor="start" x="1147.5" y="-29" font-family="Helvetica,sans-Serif" font-size="10.00">/wmtk/components/wildmeshing</text>
<text text-anchor="middle" x="1227.5" y="-18" font-family="Helvetica,sans-Serif" font-size="10.00">/internal/wildmeshing2d.cpp</text>
</a>
</g>
</g>
<!-- Node1&#45;&gt;Node8 -->
<g id="edge7_Node000001_Node000008" class="edge">
<title>Node1&#45;&gt;Node8</title>
<g id="a_edge7_Node000001_Node000008"><a xlink:title=" ">
<path fill="none" stroke="#63b8ff" d="M1016.81,-96.23C1050.25,-86.68 1092.77,-74.38 1130.5,-63 1141.99,-59.53 1154.22,-55.76 1165.99,-52.08"/>
<polygon fill="#63b8ff" stroke="#63b8ff" points="1015.84,-92.87 1007.18,-98.97 1017.76,-99.6 1015.84,-92.87"/>
</a>
</g>
</g>
<!-- Node9 -->
<g id="Node000009" class="node">
<title>Node9</title>
<g id="a_Node000009"><a xlink:href="wildmeshing3d_8cpp.html" target="_top" xlink:title=" ">
<polygon fill="white" stroke="#666666" points="1509.5,-52 1333.5,-52 1333.5,-11 1509.5,-11 1509.5,-52"/>
<text text-anchor="start" x="1341.5" y="-40" font-family="Helvetica,sans-Serif" font-size="10.00">components/wildmeshing</text>
<text text-anchor="start" x="1341.5" y="-29" font-family="Helvetica,sans-Serif" font-size="10.00">/wmtk/components/wildmeshing</text>
<text text-anchor="middle" x="1421.5" y="-18" font-family="Helvetica,sans-Serif" font-size="10.00">/internal/wildmeshing3d.cpp</text>
</a>
</g>
</g>
<!-- Node1&#45;&gt;Node9 -->
<g id="edge8_Node000001_Node000009" class="edge">
<title>Node1&#45;&gt;Node9</title>
<g id="a_edge8_Node000001_Node000009"><a xlink:title=" ">
<path fill="none" stroke="#63b8ff" d="M1045.82,-105.2C1120.63,-97.59 1230.4,-84.04 1324.5,-63 1337.77,-60.03 1351.83,-56.09 1365,-52.03"/>
<polygon fill="#63b8ff" stroke="#63b8ff" points="1045.1,-101.76 1035.5,-106.24 1045.8,-108.72 1045.1,-101.76"/>
</a>
</g>
</g>
<!-- Node10 -->
<g id="Node000010" class="node">
<title>Node10</title>
<g id="a_Node000010"><a xlink:href="wildmeshing__old_8cpp.html" target="_top" xlink:title=" ">
<polygon fill="white" stroke="#666666" points="1703.5,-52 1527.5,-52 1527.5,-11 1703.5,-11 1703.5,-52"/>
<text text-anchor="start" x="1535.5" y="-40" font-family="Helvetica,sans-Serif" font-size="10.00">components/wildmeshing</text>
<text text-anchor="start" x="1535.5" y="-29" font-family="Helvetica,sans-Serif" font-size="10.00">/wmtk/components/wildmeshing</text>
<text text-anchor="middle" x="1615.5" y="-18" font-family="Helvetica,sans-Serif" font-size="10.00">/wildmeshing_old.cpp</text>
</a>
</g>
</g>
<!-- Node1&#45;&gt;Node10 -->
<g id="edge9_Node000001_Node000010" class="edge">
<title>Node1&#45;&gt;Node10</title>
<g id="a_edge9_Node000001_Node000010"><a xlink:title=" ">
<path fill="none" stroke="#63b8ff" d="M1046.01,-111C1157.28,-107.13 1353.67,-95.86 1518.5,-63 1532.35,-60.24 1547.02,-56.23 1560.64,-52.01"/>
<polygon fill="#63b8ff" stroke="#63b8ff" points="1045.72,-107.5 1035.85,-111.34 1045.96,-114.5 1045.72,-107.5"/>
</a>
</g>
</g>
<!-- Node11 -->
<g id="Node000011" class="node">
<title>Node11</title>
<g id="a_Node000011"><a xlink:href="_tri_edge_swap_8cpp.html" target="_top" xlink:title=" ">
<polygon fill="white" stroke="#666666" points="1877,-46.5 1722,-46.5 1722,-16.5 1877,-16.5 1877,-46.5"/>
<text text-anchor="start" x="1730" y="-34.5" font-family="Helvetica,sans-Serif" font-size="10.00">src/wmtk/operations</text>
<text text-anchor="middle" x="1799.5" y="-23.5" font-family="Helvetica,sans-Serif" font-size="10.00">/composite/TriEdgeSwap.cpp</text>
</a>
</g>
</g>
<!-- Node1&#45;&gt;Node11 -->
<g id="edge10_Node000001_Node000011" class="edge">
<title>Node1&#45;&gt;Node11</title>
<g id="a_edge10_Node000001_Node000011"><a xlink:title=" ">
<path fill="none" stroke="#63b8ff" d="M1045.87,-110.15C1216.91,-104.14 1587.4,-88.58 1712.5,-63 1730.69,-59.28 1750.26,-52.67 1766.22,-46.55"/>
<polygon fill="#63b8ff" stroke="#63b8ff" points="1045.51,-106.66 1035.64,-110.51 1045.75,-113.66 1045.51,-106.66"/>
</a>
</g>
</g>
</g>
</svg>
