<?xml version="1.0" encoding="UTF-8" standalone="no"?>
<!DOCTYPE svg PUBLIC "-//W3C//DTD SVG 1.1//EN"
 "http://www.w3.org/Graphics/SVG/1.1/DTD/svg11.dtd">
<!-- Generated by graphviz version 2.43.0 (0)
 -->
<!-- Title: src/wmtk/simplex/internal/VisitedArray.hpp Pages: 1 -->
<svg width="2665pt" height="302pt"
 viewBox="0.00 0.00 2665.00 302.00" xmlns="http://www.w3.org/2000/svg" xmlns:xlink="http://www.w3.org/1999/xlink">
<g id="graph0" class="graph" transform="scale(1 1) rotate(0) translate(4 298)">
<title>src/wmtk/simplex/internal/VisitedArray.hpp</title>
<!-- Node1 -->
<g id="Node000001" class="node">
<title>Node1</title>
<g id="a_Node000001"><a xlink:title=" ">
<polygon fill="#999999" stroke="#666666" points="1424,-294 1280,-294 1280,-264 1424,-264 1424,-294"/>
<text text-anchor="start" x="1288" y="-282" font-family="Helvetica,sans-Serif" font-size="10.00">src/wmtk/simplex/internal</text>
<text text-anchor="middle" x="1352" y="-271" font-family="Helvetica,sans-Serif" font-size="10.00">/VisitedArray.hpp</text>
</a>
</g>
</g>
<!-- Node2 -->
<g id="Node000002" class="node">
<title>Node2</title>
<g id="a_Node000002"><a xlink:href="_closed_star_iterable_8hpp.html" target="_top" xlink:title=" ">
<polygon fill="white" stroke="#666666" points="593,-162 449,-162 449,-132 593,-132 593,-162"/>
<text text-anchor="start" x="457" y="-150" font-family="Helvetica,sans-Serif" font-size="10.00">src/wmtk/simplex/iterable</text>
<text text-anchor="middle" x="521" y="-139" font-family="Helvetica,sans-Serif" font-size="10.00">/ClosedStarIterable.hpp</text>
</a>
</g>
</g>
<!-- Node1&#45;&gt;Node2 -->
<g id="edge1_Node000001_Node000002" class="edge">
<title>Node1&#45;&gt;Node2</title>
<g id="a_edge1_Node000001_Node000002"><a xlink:title=" ">
<path fill="none" stroke="#63b8ff" d="M1269.44,-268.63C1190.57,-259.39 1068.45,-244.31 963,-228 831.6,-207.68 679.17,-178.94 592.01,-162.01"/>
<polygon fill="#63b8ff" stroke="#63b8ff" points="1269.45,-272.16 1279.79,-269.84 1270.26,-265.2 1269.45,-272.16"/>
</a>
</g>
</g>
<!-- Node8 -->
<g id="Node000008" class="node">
<title>Node8</title>
<g id="a_Node000008"><a xlink:href="_cofaces_in_simplex_iterable_8hpp.html" target="_top" xlink:title=" ">
<polygon fill="white" stroke="#666666" points="1532,-228 1366,-228 1366,-198 1532,-198 1532,-228"/>
<text text-anchor="start" x="1374" y="-216" font-family="Helvetica,sans-Serif" font-size="10.00">src/wmtk/simplex/iterable</text>
<text text-anchor="middle" x="1449" y="-205" font-family="Helvetica,sans-Serif" font-size="10.00">/CofacesInSimplexIterable.hpp</text>
</a>
</g>
</g>
<!-- Node1&#45;&gt;Node8 -->
<g id="edge7_Node000001_Node000008" class="edge">
<title>Node1&#45;&gt;Node8</title>
<g id="a_edge7_Node000001_Node000008"><a xlink:title=" ">
<path fill="none" stroke="#63b8ff" d="M1382.27,-258.03C1396.95,-248.34 1414.23,-236.94 1427.53,-228.16"/>
<polygon fill="#63b8ff" stroke="#63b8ff" points="1379.95,-255.37 1373.53,-263.8 1383.8,-261.21 1379.95,-255.37"/>
</a>
</g>
</g>
<!-- Node16 -->
<g id="Node000016" class="node">
<title>Node16</title>
<g id="a_Node000016"><a xlink:href="_cofaces_single_dimension_iterable_8hpp.html" target="_top" xlink:title=" ">
<polygon fill="white" stroke="#666666" points="2289,-162 2089,-162 2089,-132 2289,-132 2289,-162"/>
<text text-anchor="start" x="2097" y="-150" font-family="Helvetica,sans-Serif" font-size="10.00">src/wmtk/simplex/iterable</text>
<text text-anchor="middle" x="2189" y="-139" font-family="Helvetica,sans-Serif" font-size="10.00">/CofacesSingleDimensionIterable.hpp</text>
</a>
</g>
</g>
<!-- Node1&#45;&gt;Node16 -->
<g id="edge16_Node000001_Node000016" class="edge">
<title>Node1&#45;&gt;Node16</title>
<g id="a_edge16_Node000001_Node000016"><a xlink:title=" ">
<path fill="none" stroke="#63b8ff" d="M1434.19,-265.23C1591.72,-240.77 1935,-187.45 2098.69,-162.03"/>
<polygon fill="#63b8ff" stroke="#63b8ff" points="1433.43,-261.81 1424.09,-266.8 1434.51,-268.73 1433.43,-261.81"/>
</a>
</g>
</g>
<!-- Node23 -->
<g id="Node000023" class="node">
<title>Node23</title>
<g id="a_Node000023"><a xlink:href="_half_closed_star_iterable_8hpp.html" target="_top" xlink:title=" ">
<polygon fill="white" stroke="#666666" points="841.5,-162 690.5,-162 690.5,-132 841.5,-132 841.5,-162"/>
<text text-anchor="start" x="698.5" y="-150" font-family="Helvetica,sans-Serif" font-size="10.00">src/wmtk/simplex/iterable</text>
<text text-anchor="middle" x="766" y="-139" font-family="Helvetica,sans-Serif" font-size="10.00">/HalfClosedStarIterable.hpp</text>
</a>
</g>
</g>
<!-- Node1&#45;&gt;Node23 -->
<g id="edge23_Node000001_Node000023" class="edge">
<title>Node1&#45;&gt;Node23</title>
<g id="a_edge23_Node000001_Node000023"><a xlink:title=" ">
<path fill="none" stroke="#63b8ff" d="M1269.81,-263.2C1218.78,-253.75 1151.93,-240.89 1093,-228 996.37,-206.87 884.58,-178.71 819.91,-162.05"/>
<polygon fill="#63b8ff" stroke="#63b8ff" points="1269.32,-266.67 1279.79,-265.05 1270.6,-259.79 1269.32,-266.67"/>
</a>
</g>
</g>
<!-- Node27 -->
<g id="Node000027" class="node">
<title>Node27</title>
<g id="a_Node000027"><a xlink:href="_link_iterable_8hpp.html" target="_top" xlink:title=" ">
<polygon fill="white" stroke="#666666" points="1678,-162 1534,-162 1534,-132 1678,-132 1678,-162"/>
<text text-anchor="start" x="1542" y="-150" font-family="Helvetica,sans-Serif" font-size="10.00">src/wmtk/simplex/iterable</text>
<text text-anchor="middle" x="1606" y="-139" font-family="Helvetica,sans-Serif" font-size="10.00">/LinkIterable.hpp</text>
</a>
</g>
</g>
<!-- Node1&#45;&gt;Node27 -->
<g id="edge28_Node000001_Node000027" class="edge">
<title>Node1&#45;&gt;Node27</title>
<g id="a_edge28_Node000001_Node000027"><a xlink:title=" ">
<path fill="none" stroke="#63b8ff" d="M1434.29,-267.82C1469.26,-260.67 1509.21,-248.53 1541,-228 1567.16,-211.1 1587.78,-180.22 1598.32,-162.17"/>
<polygon fill="#63b8ff" stroke="#63b8ff" points="1433.25,-264.46 1424.09,-269.8 1434.58,-271.33 1433.25,-264.46"/>
</a>
</g>
</g>
<!-- Node30 -->
<g id="Node000030" class="node">
<title>Node30</title>
<g id="a_Node000030"><a xlink:href="_link_single_dimension_iterable_8hpp.html" target="_top" xlink:title=" ">
<polygon fill="white" stroke="#666666" points="1112.5,-162 931.5,-162 931.5,-132 1112.5,-132 1112.5,-162"/>
<text text-anchor="start" x="939.5" y="-150" font-family="Helvetica,sans-Serif" font-size="10.00">src/wmtk/simplex/iterable</text>
<text text-anchor="middle" x="1022" y="-139" font-family="Helvetica,sans-Serif" font-size="10.00">/LinkSingleDimensionIterable.hpp</text>
</a>
</g>
</g>
<!-- Node1&#45;&gt;Node30 -->
<g id="edge33_Node000001_Node000030" class="edge">
<title>Node1&#45;&gt;Node30</title>
<g id="a_edge33_Node000001_Node000030"><a xlink:title=" ">
<path fill="none" stroke="#63b8ff" d="M1269.73,-263.18C1233.16,-255.12 1190.08,-243.56 1153,-228 1110.49,-210.17 1065.61,-179.9 1040.98,-162.15"/>
<polygon fill="#63b8ff" stroke="#63b8ff" points="1269.35,-266.68 1279.86,-265.36 1270.82,-259.83 1269.35,-266.68"/>
</a>
</g>
</g>
<!-- Node33 -->
<g id="Node000033" class="node">
<title>Node33</title>
<g id="a_Node000033"><a xlink:href="_open_star_iterable_8hpp.html" target="_top" xlink:title=" ">
<polygon fill="white" stroke="#666666" points="1840,-162 1696,-162 1696,-132 1840,-132 1840,-162"/>
<text text-anchor="start" x="1704" y="-150" font-family="Helvetica,sans-Serif" font-size="10.00">src/wmtk/simplex/iterable</text>
<text text-anchor="middle" x="1768" y="-139" font-family="Helvetica,sans-Serif" font-size="10.00">/OpenStarIterable.hpp</text>
</a>
</g>
</g>
<!-- Node1&#45;&gt;Node33 -->
<g id="edge38_Node000001_Node000033" class="edge">
<title>Node1&#45;&gt;Node33</title>
<g id="a_edge38_Node000001_Node000033"><a xlink:title=" ">
<path fill="none" stroke="#63b8ff" d="M1434.43,-262.32C1475.57,-253.68 1525.86,-241.88 1570,-228 1630.83,-208.87 1699.3,-179.33 1737.68,-162.01"/>
<polygon fill="#63b8ff" stroke="#63b8ff" points="1433.52,-258.93 1424.44,-264.39 1434.95,-265.78 1433.52,-258.93"/>
</a>
</g>
</g>
<!-- Node36 -->
<g id="Node000036" class="node">
<title>Node36</title>
<g id="a_Node000036"><a xlink:href="_top_dimension_cofaces_iterable_8hpp.html" target="_top" xlink:title=" ">
<polygon fill="white" stroke="#666666" points="1348,-228 1162,-228 1162,-198 1348,-198 1348,-228"/>
<text text-anchor="start" x="1170" y="-216" font-family="Helvetica,sans-Serif" font-size="10.00">src/wmtk/simplex/iterable</text>
<text text-anchor="middle" x="1255" y="-205" font-family="Helvetica,sans-Serif" font-size="10.00">/TopDimensionCofacesIterable.hpp</text>
</a>
</g>
</g>
<!-- Node1&#45;&gt;Node36 -->
<g id="edge42_Node000001_Node000036" class="edge">
<title>Node1&#45;&gt;Node36</title>
<g id="a_edge42_Node000001_Node000036"><a xlink:title=" ">
<path fill="none" stroke="#63b8ff" d="M1321.73,-258.03C1307.05,-248.34 1289.77,-236.94 1276.47,-228.16"/>
<polygon fill="#63b8ff" stroke="#63b8ff" points="1320.2,-261.21 1330.47,-263.8 1324.05,-255.37 1320.2,-261.21"/>
</a>
</g>
</g>
<!-- Node3 -->
<g id="Node000003" class="node">
<title>Node3</title>
<g id="a_Node000003"><a xlink:href="closed__star__iterable_8hpp.html" target="_top" xlink:title=" ">
<polygon fill="white" stroke="#666666" points="279,-96 141,-96 141,-66 279,-66 279,-96"/>
<text text-anchor="start" x="149" y="-84" font-family="Helvetica,sans-Serif" font-size="10.00">src/wmtk/simplex/closed</text>
<text text-anchor="middle" x="210" y="-73" font-family="Helvetica,sans-Serif" font-size="10.00">_star_iterable.hpp</text>
</a>
</g>
</g>
<!-- Node2&#45;&gt;Node3 -->
<g id="edge2_Node000002_Node000003" class="edge">
<title>Node2&#45;&gt;Node3</title>
<g id="a_edge2_Node000002_Node000003"><a xlink:title=" ">
<path fill="none" stroke="#63b8ff" d="M442.81,-129.91C392.1,-119.47 326.67,-106.01 278.09,-96.01"/>
<polygon fill="#63b8ff" stroke="#63b8ff" points="442.25,-133.37 452.75,-131.95 443.66,-126.51 442.25,-133.37"/>
</a>
</g>
</g>
<!-- Node7 -->
<g id="Node000007" class="node">
<title>Node7</title>
<g id="a_Node000007"><a xlink:href="_closed_star_iterable_8cpp.html" target="_top" xlink:title=" ">
<polygon fill="white" stroke="#666666" points="441,-96 297,-96 297,-66 441,-66 441,-96"/>
<text text-anchor="start" x="305" y="-84" font-family="Helvetica,sans-Serif" font-size="10.00">src/wmtk/simplex/iterable</text>
<text text-anchor="middle" x="369" y="-73" font-family="Helvetica,sans-Serif" font-size="10.00">/ClosedStarIterable.cpp</text>
</a>
</g>
</g>
<!-- Node2&#45;&gt;Node7 -->
<g id="edge6_Node000002_Node000007" class="edge">
<title>Node2&#45;&gt;Node7</title>
<g id="a_edge6_Node000002_Node000007"><a xlink:title=" ">
<path fill="none" stroke="#63b8ff" d="M478.38,-128.05C454.3,-117.91 424.64,-105.43 402.28,-96.01"/>
<polygon fill="#63b8ff" stroke="#63b8ff" points="477.07,-131.3 487.64,-131.95 479.78,-124.85 477.07,-131.3"/>
</a>
</g>
</g>
<!-- Node4 -->
<g id="Node000004" class="node">
<title>Node4</title>
<g id="a_Node000004"><a xlink:href="_tri_mesh_operation_executor_8cpp.html" target="_top" xlink:title=" ">
<polygon fill="white" stroke="#666666" points="792,-30 642,-30 642,0 792,0 792,-30"/>
<text text-anchor="start" x="650" y="-18" font-family="Helvetica,sans-Serif" font-size="10.00">src/wmtk/TriMeshOperation</text>
<text text-anchor="middle" x="717" y="-7" font-family="Helvetica,sans-Serif" font-size="10.00">Executor.cpp</text>
</a>
</g>
</g>
<!-- Node3&#45;&gt;Node4 -->
<g id="edge3_Node000003_Node000004" class="edge">
<title>Node3&#45;&gt;Node4</title>
<g id="a_edge3_Node000003_Node000004"><a xlink:title=" ">
<path fill="none" stroke="#63b8ff" d="M289.51,-65.85C442.39,-44.63 483.51,-50.24 633,-30 635.93,-29.6 638.92,-29.18 641.93,-28.75"/>
<polygon fill="#63b8ff" stroke="#63b8ff" points="288.7,-62.43 279.28,-67.29 289.67,-69.37 288.7,-62.43"/>
</a>
</g>
</g>
<!-- Node5 -->
<g id="Node000005" class="node">
<title>Node5</title>
<g id="a_Node000005"><a xlink:href="_operation_8cpp.html" target="_top" xlink:title=" ">
<polygon fill="white" stroke="#666666" points="272,-30 156,-30 156,0 272,0 272,-30"/>
<text text-anchor="start" x="164" y="-18" font-family="Helvetica,sans-Serif" font-size="10.00">src/wmtk/operations</text>
<text text-anchor="middle" x="214" y="-7" font-family="Helvetica,sans-Serif" font-size="10.00">/Operation.cpp</text>
</a>
</g>
</g>
<!-- Node3&#45;&gt;Node5 -->
<g id="edge4_Node000003_Node000005" class="edge">
<title>Node3&#45;&gt;Node5</title>
<g id="a_edge4_Node000003_Node000005"><a xlink:title=" ">
<path fill="none" stroke="#63b8ff" d="M211.53,-55.54C212.06,-46.96 212.65,-37.61 213.11,-30.16"/>
<polygon fill="#63b8ff" stroke="#63b8ff" points="208.02,-55.6 210.89,-65.8 215,-56.03 208.02,-55.6"/>
</a>
</g>
</g>
<!-- Node6 -->
<g id="Node000006" class="node">
<title>Node6</title>
<g id="a_Node000006"><a xlink:href="closed__star__iterable_8cpp.html" target="_top" xlink:title=" ">
<polygon fill="white" stroke="#666666" points="138,-30 0,-30 0,0 138,0 138,-30"/>
<text text-anchor="start" x="8" y="-18" font-family="Helvetica,sans-Serif" font-size="10.00">src/wmtk/simplex/closed</text>
<text text-anchor="middle" x="69" y="-7" font-family="Helvetica,sans-Serif" font-size="10.00">_star_iterable.cpp</text>
</a>
</g>
</g>
<!-- Node3&#45;&gt;Node6 -->
<g id="edge5_Node000003_Node000006" class="edge">
<title>Node3&#45;&gt;Node6</title>
<g id="a_edge5_Node000003_Node000006"><a xlink:title=" ">
<path fill="none" stroke="#63b8ff" d="M169.87,-61.78C147.64,-51.69 120.43,-39.34 99.87,-30.01"/>
<polygon fill="#63b8ff" stroke="#63b8ff" points="168.5,-65.01 179.06,-65.95 171.4,-58.63 168.5,-65.01"/>
</a>
</g>
</g>
<!-- Node9 -->
<g id="Node000009" class="node">
<title>Node9</title>
<g id="a_Node000009"><a xlink:href="cofaces__in__simplex__iterable_8hpp.html" target="_top" xlink:title=" ">
<polygon fill="white" stroke="#666666" points="1516,-162 1372,-162 1372,-132 1516,-132 1516,-162"/>
<text text-anchor="start" x="1380" y="-150" font-family="Helvetica,sans-Serif" font-size="10.00">src/wmtk/simplex/cofaces</text>
<text text-anchor="middle" x="1444" y="-139" font-family="Helvetica,sans-Serif" font-size="10.00">_in_simplex_iterable.hpp</text>
</a>
</g>
</g>
<!-- Node8&#45;&gt;Node9 -->
<g id="edge8_Node000008_Node000009" class="edge">
<title>Node8&#45;&gt;Node9</title>
<g id="a_edge8_Node000008_Node000009"><a xlink:title=" ">
<path fill="none" stroke="#63b8ff" d="M1447.11,-187.83C1446.44,-179.17 1445.7,-169.7 1445.11,-162.16"/>
<polygon fill="#63b8ff" stroke="#63b8ff" points="1443.62,-188.1 1447.89,-197.8 1450.6,-187.55 1443.62,-188.1"/>
</a>
</g>
</g>
<!-- Node15 -->
<g id="Node000015" class="node">
<title>Node15</title>
<g id="a_Node000015"><a xlink:href="_cofaces_in_simplex_iterable_8cpp.html" target="_top" xlink:title=" ">
<polygon fill="white" stroke="#666666" points="2023.5,-162 1858.5,-162 1858.5,-132 2023.5,-132 2023.5,-162"/>
<text text-anchor="start" x="1866.5" y="-150" font-family="Helvetica,sans-Serif" font-size="10.00">src/wmtk/simplex/iterable</text>
<text text-anchor="middle" x="1941" y="-139" font-family="Helvetica,sans-Serif" font-size="10.00">/CofacesInSimplexIterable.cpp</text>
</a>
</g>
</g>
<!-- Node8&#45;&gt;Node15 -->
<g id="edge15_Node000008_Node000015" class="edge">
<title>Node8&#45;&gt;Node15</title>
<g id="a_edge15_Node000008_Node000015"><a xlink:title=" ">
<path fill="none" stroke="#63b8ff" d="M1542.39,-201.04C1623.52,-191.35 1744.13,-176.53 1849,-162 1852.04,-161.58 1855.14,-161.14 1858.26,-160.7"/>
<polygon fill="#63b8ff" stroke="#63b8ff" points="1541.72,-197.6 1532.21,-202.25 1542.55,-204.55 1541.72,-197.6"/>
</a>
</g>
</g>
<!-- Node9&#45;&gt;Node7 -->
<g id="edge10_Node000009_Node000007" class="edge">
<title>Node9&#45;&gt;Node7</title>
<g id="a_edge10_Node000009_Node000007"><a xlink:title=" ">
<path fill="none" stroke="#63b8ff" d="M1361.43,-131.94C957.39,-90.14 850.49,-138.32 450,-96 447.16,-95.7 444.27,-95.36 441.36,-94.99"/>
<polygon fill="#63b8ff" stroke="#63b8ff" points="1361.33,-135.45 1371.64,-133.01 1362.06,-128.49 1361.33,-135.45"/>
</a>
</g>
</g>
<!-- Node10 -->
<g id="Node000010" class="node">
<title>Node10</title>
<g id="a_Node000010"><a xlink:href="cofaces__in__simplex__iterable_8cpp.html" target="_top" xlink:title=" ">
<polygon fill="white" stroke="#666666" points="1516,-96 1372,-96 1372,-66 1516,-66 1516,-96"/>
<text text-anchor="start" x="1380" y="-84" font-family="Helvetica,sans-Serif" font-size="10.00">src/wmtk/simplex/cofaces</text>
<text text-anchor="middle" x="1444" y="-73" font-family="Helvetica,sans-Serif" font-size="10.00">_in_simplex_iterable.cpp</text>
</a>
</g>
</g>
<!-- Node9&#45;&gt;Node10 -->
<g id="edge9_Node000009_Node000010" class="edge">
<title>Node9&#45;&gt;Node10</title>
<g id="a_edge9_Node000009_Node000010"><a xlink:title=" ">
<path fill="none" stroke="#63b8ff" d="M1444,-121.54C1444,-112.96 1444,-103.61 1444,-96.16"/>
<polygon fill="#63b8ff" stroke="#63b8ff" points="1440.5,-121.8 1444,-131.8 1447.5,-121.8 1440.5,-121.8"/>
</a>
</g>
</g>
<!-- Node11 -->
<g id="Node000011" class="node">
<title>Node11</title>
<g id="a_Node000011"><a xlink:href="_half_closed_star_iterable_8cpp.html" target="_top" xlink:title=" ">
<polygon fill="white" stroke="#666666" points="769,-96 619,-96 619,-66 769,-66 769,-96"/>
<text text-anchor="start" x="627" y="-84" font-family="Helvetica,sans-Serif" font-size="10.00">src/wmtk/simplex/iterable</text>
<text text-anchor="middle" x="694" y="-73" font-family="Helvetica,sans-Serif" font-size="10.00">/HalfClosedStarIterable.cpp</text>
</a>
</g>
</g>
<!-- Node9&#45;&gt;Node11 -->
<g id="edge11_Node000009_Node000011" class="edge">
<title>Node9&#45;&gt;Node11</title>
<g id="a_edge11_Node000009_Node000011"><a xlink:title=" ">
<path fill="none" stroke="#63b8ff" d="M1361.55,-131.92C1102.52,-102.36 1033.54,-125.08 778,-96 775.06,-95.67 772.07,-95.3 769.05,-94.9"/>
<polygon fill="#63b8ff" stroke="#63b8ff" points="1361.3,-135.42 1371.63,-133.09 1362.1,-128.46 1361.3,-135.42"/>
</a>
</g>
</g>
<!-- Node12 -->
<g id="Node000012" class="node">
<title>Node12</title>
<g id="a_Node000012"><a xlink:href="_link_iterable_8cpp.html" target="_top" xlink:title=" ">
<polygon fill="white" stroke="#666666" points="1678,-96 1534,-96 1534,-66 1678,-66 1678,-96"/>
<text text-anchor="start" x="1542" y="-84" font-family="Helvetica,sans-Serif" font-size="10.00">src/wmtk/simplex/iterable</text>
<text text-anchor="middle" x="1606" y="-73" font-family="Helvetica,sans-Serif" font-size="10.00">/LinkIterable.cpp</text>
</a>
</g>
</g>
<!-- Node9&#45;&gt;Node12 -->
<g id="edge12_Node000009_Node000012" class="edge">
<title>Node9&#45;&gt;Node12</title>
<g id="a_edge12_Node000009_Node000012"><a xlink:title=" ">
<path fill="none" stroke="#63b8ff" d="M1489.09,-128.19C1514.81,-118.02 1546.6,-105.47 1570.53,-96.01"/>
<polygon fill="#63b8ff" stroke="#63b8ff" points="1487.57,-125.03 1479.55,-131.95 1490.14,-131.54 1487.57,-125.03"/>
</a>
</g>
</g>
<!-- Node13 -->
<g id="Node000013" class="node">
<title>Node13</title>
<g id="a_Node000013"><a xlink:href="_link_single_dimension_iterable_8cpp.html" target="_top" xlink:title=" ">
<polygon fill="white" stroke="#666666" points="1354,-96 1174,-96 1174,-66 1354,-66 1354,-96"/>
<text text-anchor="start" x="1182" y="-84" font-family="Helvetica,sans-Serif" font-size="10.00">src/wmtk/simplex/iterable</text>
<text text-anchor="middle" x="1264" y="-73" font-family="Helvetica,sans-Serif" font-size="10.00">/LinkSingleDimensionIterable.cpp</text>
</a>
</g>
</g>
<!-- Node9&#45;&gt;Node13 -->
<g id="edge13_Node000009_Node000013" class="edge">
<title>Node9&#45;&gt;Node13</title>
<g id="a_edge13_Node000009_Node000013"><a xlink:title=" ">
<path fill="none" stroke="#63b8ff" d="M1395.03,-128.59C1366.26,-118.36 1330.35,-105.59 1303.41,-96.01"/>
<polygon fill="#63b8ff" stroke="#63b8ff" points="1393.9,-131.9 1404.5,-131.95 1396.25,-125.31 1393.9,-131.9"/>
</a>
</g>
</g>
<!-- Node14 -->
<g id="Node000014" class="node">
<title>Node14</title>
<g id="a_Node000014"><a xlink:href="_open_star_iterable_8cpp.html" target="_top" xlink:title=" ">
<polygon fill="white" stroke="#666666" points="1984,-96 1840,-96 1840,-66 1984,-66 1984,-96"/>
<text text-anchor="start" x="1848" y="-84" font-family="Helvetica,sans-Serif" font-size="10.00">src/wmtk/simplex/iterable</text>
<text text-anchor="middle" x="1912" y="-73" font-family="Helvetica,sans-Serif" font-size="10.00">/OpenStarIterable.cpp</text>
</a>
</g>
</g>
<!-- Node9&#45;&gt;Node14 -->
<g id="edge14_Node000009_Node000014" class="edge">
<title>Node9&#45;&gt;Node14</title>
<g id="a_edge14_Node000009_Node000014"><a xlink:title=" ">
<path fill="none" stroke="#63b8ff" d="M1526.35,-131.85C1662.21,-112.48 1698.66,-115.21 1831,-96 1833.82,-95.59 1836.7,-95.16 1839.61,-94.71"/>
<polygon fill="#63b8ff" stroke="#63b8ff" points="1525.79,-128.4 1516.39,-133.29 1526.79,-135.33 1525.79,-128.4"/>
</a>
</g>
</g>
<!-- Node17 -->
<g id="Node000017" class="node">
<title>Node17</title>
<g id="a_Node000017"><a xlink:href="cofaces__single__dimension__iterable_8hpp.html" target="_top" xlink:title=" ">
<polygon fill="white" stroke="#666666" points="2322.5,-96 2151.5,-96 2151.5,-66 2322.5,-66 2322.5,-96"/>
<text text-anchor="start" x="2159.5" y="-84" font-family="Helvetica,sans-Serif" font-size="10.00">src/wmtk/simplex/cofaces</text>
<text text-anchor="middle" x="2237" y="-73" font-family="Helvetica,sans-Serif" font-size="10.00">_single_dimension_iterable.hpp</text>
</a>
</g>
</g>
<!-- Node16&#45;&gt;Node17 -->
<g id="edge17_Node000016_Node000017" class="edge">
<title>Node16&#45;&gt;Node17</title>
<g id="a_edge17_Node000016_Node000017"><a xlink:title=" ">
<path fill="none" stroke="#63b8ff" d="M2205.86,-123.53C2212.68,-114.43 2220.35,-104.19 2226.38,-96.16"/>
<polygon fill="#63b8ff" stroke="#63b8ff" points="2202.85,-121.7 2199.65,-131.8 2208.45,-125.9 2202.85,-121.7"/>
</a>
</g>
</g>
<!-- Node22 -->
<g id="Node000022" class="node">
<title>Node22</title>
<g id="a_Node000022"><a xlink:href="_cofaces_single_dimension_iterable_8cpp.html" target="_top" xlink:title=" ">
<polygon fill="white" stroke="#666666" points="2539.5,-96 2340.5,-96 2340.5,-66 2539.5,-66 2539.5,-96"/>
<text text-anchor="start" x="2348.5" y="-84" font-family="Helvetica,sans-Serif" font-size="10.00">src/wmtk/simplex/iterable</text>
<text text-anchor="middle" x="2440" y="-73" font-family="Helvetica,sans-Serif" font-size="10.00">/CofacesSingleDimensionIterable.cpp</text>
</a>
</g>
</g>
<!-- Node16&#45;&gt;Node22 -->
<g id="edge22_Node000016_Node000022" class="edge">
<title>Node16&#45;&gt;Node22</title>
<g id="a_edge22_Node000016_Node000022"><a xlink:title=" ">
<path fill="none" stroke="#63b8ff" d="M2253.9,-129.45C2294.57,-119.08 2346.41,-105.86 2385.05,-96.01"/>
<polygon fill="#63b8ff" stroke="#63b8ff" points="2252.91,-126.09 2244.08,-131.95 2254.64,-132.88 2252.91,-126.09"/>
</a>
</g>
</g>
<!-- Node18 -->
<g id="Node000018" class="node">
<title>Node18</title>
<g id="a_Node000018"><a xlink:href="_tet_mesh_8cpp.html" target="_top" xlink:title=" ">
<polygon fill="white" stroke="#666666" points="2271.5,-24.5 2146.5,-24.5 2146.5,-5.5 2271.5,-5.5 2271.5,-24.5"/>
<text text-anchor="middle" x="2209" y="-12.5" font-family="Helvetica,sans-Serif" font-size="10.00">src/wmtk/TetMesh.cpp</text>
</a>
</g>
</g>
<!-- Node17&#45;&gt;Node18 -->
<g id="edge18_Node000017_Node000018" class="edge">
<title>Node17&#45;&gt;Node18</title>
<g id="a_edge18_Node000017_Node000018"><a xlink:title=" ">
<path fill="none" stroke="#63b8ff" d="M2226.77,-56.61C2221.93,-45.56 2216.45,-33.03 2212.87,-24.84"/>
<polygon fill="#63b8ff" stroke="#63b8ff" points="2223.57,-58.04 2230.79,-65.8 2229.98,-55.23 2223.57,-58.04"/>
</a>
</g>
</g>
<!-- Node19 -->
<g id="Node000019" class="node">
<title>Node19</title>
<g id="a_Node000019"><a xlink:href="_multi_mesh_map_valid_invariant_8cpp.html" target="_top" xlink:title=" ">
<polygon fill="white" stroke="#666666" points="2468.5,-30 2289.5,-30 2289.5,0 2468.5,0 2468.5,-30"/>
<text text-anchor="start" x="2297.5" y="-18" font-family="Helvetica,sans-Serif" font-size="10.00">src/wmtk/invariants</text>
<text text-anchor="middle" x="2379" y="-7" font-family="Helvetica,sans-Serif" font-size="10.00">/MultiMeshMapValidInvariant.cpp</text>
</a>
</g>
</g>
<!-- Node17&#45;&gt;Node19 -->
<g id="edge19_Node000017_Node000019" class="edge">
<title>Node17&#45;&gt;Node19</title>
<g id="a_edge19_Node000017_Node000019"><a xlink:title=" ">
<path fill="none" stroke="#63b8ff" d="M2277.42,-61.78C2299.8,-51.69 2327.21,-39.34 2347.91,-30.01"/>
<polygon fill="#63b8ff" stroke="#63b8ff" points="2275.84,-58.65 2268.16,-65.95 2278.72,-65.04 2275.84,-58.65"/>
</a>
</g>
</g>
<!-- Node20 -->
<g id="Node000020" class="node">
<title>Node20</title>
<g id="a_Node000020"><a xlink:href="cofaces__single__dimension__iterable_8cpp.html" target="_top" xlink:title=" ">
<polygon fill="white" stroke="#666666" points="2657,-30 2487,-30 2487,0 2657,0 2657,-30"/>
<text text-anchor="start" x="2495" y="-18" font-family="Helvetica,sans-Serif" font-size="10.00">src/wmtk/simplex/cofaces</text>
<text text-anchor="middle" x="2572" y="-7" font-family="Helvetica,sans-Serif" font-size="10.00">_single_dimension_iterable.cpp</text>
</a>
</g>
</g>
<!-- Node17&#45;&gt;Node20 -->
<g id="edge20_Node000017_Node000020" class="edge">
<title>Node17&#45;&gt;Node20</title>
<g id="a_edge20_Node000017_Node000020"><a xlink:title=" ">
<path fill="none" stroke="#63b8ff" d="M2320.54,-64.04C2375.26,-53.59 2446.11,-40.05 2498.65,-30.01"/>
<polygon fill="#63b8ff" stroke="#63b8ff" points="2319.68,-60.64 2310.52,-65.95 2321,-67.52 2319.68,-60.64"/>
</a>
</g>
</g>
<!-- Node21 -->
<g id="Node000021" class="node">
<title>Node21</title>
<g id="a_Node000021"><a xlink:href="link__condition_8cpp.html" target="_top" xlink:title=" ">
<polygon fill="white" stroke="#666666" points="1974.5,-30 1849.5,-30 1849.5,0 1974.5,0 1974.5,-30"/>
<text text-anchor="start" x="1857.5" y="-18" font-family="Helvetica,sans-Serif" font-size="10.00">src/wmtk/simplex/link</text>
<text text-anchor="middle" x="1912" y="-7" font-family="Helvetica,sans-Serif" font-size="10.00">_condition.cpp</text>
</a>
</g>
</g>
<!-- Node17&#45;&gt;Node21 -->
<g id="edge21_Node000017_Node000021" class="edge">
<title>Node17&#45;&gt;Node21</title>
<g id="a_edge21_Node000017_Node000021"><a xlink:title=" ">
<path fill="none" stroke="#63b8ff" d="M2155.77,-64C2099.69,-52.96 2026.22,-38.49 1974.65,-28.34"/>
<polygon fill="#63b8ff" stroke="#63b8ff" points="2155.19,-67.46 2165.68,-65.95 2156.54,-60.59 2155.19,-67.46"/>
</a>
</g>
</g>
<!-- Node23&#45;&gt;Node11 -->
<g id="edge27_Node000023_Node000011" class="edge">
<title>Node23&#45;&gt;Node11</title>
<g id="a_edge27_Node000023_Node000011"><a xlink:title=" ">
<path fill="none" stroke="#63b8ff" d="M742.29,-124.92C731.67,-115.49 719.43,-104.61 709.93,-96.16"/>
<polygon fill="#63b8ff" stroke="#63b8ff" points="740.22,-127.77 750.02,-131.8 744.87,-122.54 740.22,-127.77"/>
</a>
</g>
</g>
<!-- Node24 -->
<g id="Node000024" class="node">
<title>Node24</title>
<g id="a_Node000024"><a xlink:href="half__closed__star__iterable_8hpp.html" target="_top" xlink:title=" ">
<polygon fill="white" stroke="#666666" points="600.5,-96 459.5,-96 459.5,-66 600.5,-66 600.5,-96"/>
<text text-anchor="start" x="467.5" y="-84" font-family="Helvetica,sans-Serif" font-size="10.00">src/wmtk/simplex/half</text>
<text text-anchor="middle" x="530" y="-73" font-family="Helvetica,sans-Serif" font-size="10.00">_closed_star_iterable.hpp</text>
</a>
</g>
</g>
<!-- Node23&#45;&gt;Node24 -->
<g id="edge24_Node000023_Node000024" class="edge">
<title>Node23&#45;&gt;Node24</title>
<g id="a_edge24_Node000023_Node000024"><a xlink:title=" ">
<path fill="none" stroke="#63b8ff" d="M704.25,-129.25C666.12,-118.91 617.76,-105.8 581.67,-96.01"/>
<polygon fill="#63b8ff" stroke="#63b8ff" points="703.64,-132.72 714.21,-131.95 705.47,-125.96 703.64,-132.72"/>
</a>
</g>
</g>
<!-- Node25 -->
<g id="Node000025" class="node">
<title>Node25</title>
<g id="a_Node000025"><a xlink:href="_tet_mesh_operation_executor_8cpp.html" target="_top" xlink:title=" ">
<polygon fill="white" stroke="#666666" points="963.5,-30 810.5,-30 810.5,0 963.5,0 963.5,-30"/>
<text text-anchor="start" x="818.5" y="-18" font-family="Helvetica,sans-Serif" font-size="10.00">src/wmtk/TetMeshOperation</text>
<text text-anchor="middle" x="887" y="-7" font-family="Helvetica,sans-Serif" font-size="10.00">Executor.cpp</text>
</a>
</g>
</g>
<!-- Node24&#45;&gt;Node25 -->
<g id="edge25_Node000024_Node000025" class="edge">
<title>Node24&#45;&gt;Node25</title>
<g id="a_edge25_Node000024_Node000025"><a xlink:title=" ">
<path fill="none" stroke="#63b8ff" d="M610.7,-65.53C670.54,-54.81 751.6,-40.27 810.44,-29.73"/>
<polygon fill="#63b8ff" stroke="#63b8ff" points="609.76,-62.15 600.53,-67.36 610.99,-69.04 609.76,-62.15"/>
</a>
</g>
</g>
<!-- Node26 -->
<g id="Node000026" class="node">
<title>Node26</title>
<g id="a_Node000026"><a xlink:href="half__closed__star__iterable_8cpp.html" target="_top" xlink:title=" ">
<polygon fill="white" stroke="#666666" points="436,-30 296,-30 296,0 436,0 436,-30"/>
<text text-anchor="start" x="304" y="-18" font-family="Helvetica,sans-Serif" font-size="10.00">src/wmtk/simplex/half</text>
<text text-anchor="middle" x="366" y="-7" font-family="Helvetica,sans-Serif" font-size="10.00">_closed_star_iterable.cpp</text>
</a>
</g>
</g>
<!-- Node24&#45;&gt;Node26 -->
<g id="edge26_Node000024_Node000026" class="edge">
<title>Node24&#45;&gt;Node26</title>
<g id="a_edge26_Node000024_Node000026"><a xlink:title=" ">
<path fill="none" stroke="#63b8ff" d="M484.36,-62.19C458.31,-52.02 426.13,-39.47 401.91,-30.01"/>
<polygon fill="#63b8ff" stroke="#63b8ff" points="483.42,-65.58 494.01,-65.95 485.97,-59.06 483.42,-65.58"/>
</a>
</g>
</g>
<!-- Node27&#45;&gt;Node12 -->
<g id="edge29_Node000027_Node000012" class="edge">
<title>Node27&#45;&gt;Node12</title>
<g id="a_edge29_Node000027_Node000012"><a xlink:title=" ">
<path fill="none" stroke="#63b8ff" d="M1606,-121.54C1606,-112.96 1606,-103.61 1606,-96.16"/>
<polygon fill="#63b8ff" stroke="#63b8ff" points="1602.5,-121.8 1606,-131.8 1609.5,-121.8 1602.5,-121.8"/>
</a>
</g>
</g>
<!-- Node28 -->
<g id="Node000028" class="node">
<title>Node28</title>
<g id="a_Node000028"><a xlink:href="link__iterable_8hpp.html" target="_top" xlink:title=" ">
<polygon fill="white" stroke="#666666" points="1821.5,-96 1696.5,-96 1696.5,-66 1821.5,-66 1821.5,-96"/>
<text text-anchor="start" x="1704.5" y="-84" font-family="Helvetica,sans-Serif" font-size="10.00">src/wmtk/simplex/link</text>
<text text-anchor="middle" x="1759" y="-73" font-family="Helvetica,sans-Serif" font-size="10.00">_iterable.hpp</text>
</a>
</g>
</g>
<!-- Node27&#45;&gt;Node28 -->
<g id="edge30_Node000027_Node000028" class="edge">
<title>Node27&#45;&gt;Node28</title>
<g id="a_edge30_Node000027_Node000028"><a xlink:title=" ">
<path fill="none" stroke="#63b8ff" d="M1648.9,-128.05C1673.14,-117.91 1703,-105.43 1725.5,-96.01"/>
<polygon fill="#63b8ff" stroke="#63b8ff" points="1647.45,-124.87 1639.58,-131.95 1650.15,-131.32 1647.45,-124.87"/>
</a>
</g>
</g>
<!-- Node28&#45;&gt;Node21 -->
<g id="edge31_Node000028_Node000021" class="edge">
<title>Node28&#45;&gt;Node21</title>
<g id="a_edge31_Node000028_Node000021"><a xlink:title=" ">
<path fill="none" stroke="#63b8ff" d="M1801.9,-62.05C1826.14,-51.91 1856,-39.43 1878.5,-30.01"/>
<polygon fill="#63b8ff" stroke="#63b8ff" points="1800.45,-58.87 1792.58,-65.95 1803.15,-65.32 1800.45,-58.87"/>
</a>
</g>
</g>
<!-- Node29 -->
<g id="Node000029" class="node">
<title>Node29</title>
<g id="a_Node000029"><a xlink:href="link__iterable_8cpp.html" target="_top" xlink:title=" ">
<polygon fill="white" stroke="#666666" points="1821.5,-30 1696.5,-30 1696.5,0 1821.5,0 1821.5,-30"/>
<text text-anchor="start" x="1704.5" y="-18" font-family="Helvetica,sans-Serif" font-size="10.00">src/wmtk/simplex/link</text>
<text text-anchor="middle" x="1759" y="-7" font-family="Helvetica,sans-Serif" font-size="10.00">_iterable.cpp</text>
</a>
</g>
</g>
<!-- Node28&#45;&gt;Node29 -->
<g id="edge32_Node000028_Node000029" class="edge">
<title>Node28&#45;&gt;Node29</title>
<g id="a_edge32_Node000028_Node000029"><a xlink:title=" ">
<path fill="none" stroke="#63b8ff" d="M1759,-55.54C1759,-46.96 1759,-37.61 1759,-30.16"/>
<polygon fill="#63b8ff" stroke="#63b8ff" points="1755.5,-55.8 1759,-65.8 1762.5,-55.8 1755.5,-55.8"/>
</a>
</g>
</g>
<!-- Node30&#45;&gt;Node13 -->
<g id="edge34_Node000030_Node000013" class="edge">
<title>Node30&#45;&gt;Node13</title>
<g id="a_edge34_Node000030_Node000013"><a xlink:title=" ">
<path fill="none" stroke="#63b8ff" d="M1084.82,-129.39C1124,-119.03 1173.85,-105.84 1211.02,-96.01"/>
<polygon fill="#63b8ff" stroke="#63b8ff" points="1083.88,-126.01 1075.11,-131.95 1085.67,-132.78 1083.88,-126.01"/>
</a>
</g>
</g>
<!-- Node31 -->
<g id="Node000031" class="node">
<title>Node31</title>
<g id="a_Node000031"><a xlink:href="link__single__dimension__iterable_8hpp.html" target="_top" xlink:title=" ">
<polygon fill="white" stroke="#666666" points="958.5,-96 787.5,-96 787.5,-66 958.5,-66 958.5,-96"/>
<text text-anchor="start" x="795.5" y="-84" font-family="Helvetica,sans-Serif" font-size="10.00">src/wmtk/simplex/link</text>
<text text-anchor="middle" x="873" y="-73" font-family="Helvetica,sans-Serif" font-size="10.00">_single_dimension_iterable.hpp</text>
</a>
</g>
</g>
<!-- Node30&#45;&gt;Node31 -->
<g id="edge35_Node000030_Node000031" class="edge">
<title>Node30&#45;&gt;Node31</title>
<g id="a_edge35_Node000030_Node000031"><a xlink:title=" ">
<path fill="none" stroke="#63b8ff" d="M979.91,-127.92C956.36,-117.8 927.44,-105.38 905.62,-96.01"/>
<polygon fill="#63b8ff" stroke="#63b8ff" points="978.73,-131.22 989.3,-131.95 981.49,-124.79 978.73,-131.22"/>
</a>
</g>
</g>
<!-- Node31&#45;&gt;Node25 -->
<g id="edge36_Node000031_Node000025" class="edge">
<title>Node31&#45;&gt;Node25</title>
<g id="a_edge36_Node000031_Node000025"><a xlink:title=" ">
<path fill="none" stroke="#63b8ff" d="M878.29,-55.83C880.18,-47.17 882.25,-37.7 883.9,-30.16"/>
<polygon fill="#63b8ff" stroke="#63b8ff" points="874.82,-55.28 876.11,-65.8 881.66,-56.78 874.82,-55.28"/>
</a>
</g>
</g>
<!-- Node32 -->
<g id="Node000032" class="node">
<title>Node32</title>
<g id="a_Node000032"><a xlink:href="link__single__dimension__iterable_8cpp.html" target="_top" xlink:title=" ">
<polygon fill="white" stroke="#666666" points="624,-30 454,-30 454,0 624,0 624,-30"/>
<text text-anchor="start" x="462" y="-18" font-family="Helvetica,sans-Serif" font-size="10.00">src/wmtk/simplex/link</text>
<text text-anchor="middle" x="539" y="-7" font-family="Helvetica,sans-Serif" font-size="10.00">_single_dimension_iterable.cpp</text>
</a>
</g>
</g>
<!-- Node31&#45;&gt;Node32 -->
<g id="edge37_Node000031_Node000032" class="edge">
<title>Node31&#45;&gt;Node32</title>
<g id="a_edge37_Node000031_Node000032"><a xlink:title=" ">
<path fill="none" stroke="#63b8ff" d="M789.71,-64.04C735.15,-53.59 664.51,-40.05 612.13,-30.01"/>
<polygon fill="#63b8ff" stroke="#63b8ff" points="789.22,-67.51 799.7,-65.95 790.54,-60.64 789.22,-67.51"/>
</a>
</g>
</g>
<!-- Node33&#45;&gt;Node14 -->
<g id="edge39_Node000033_Node000014" class="edge">
<title>Node33&#45;&gt;Node14</title>
<g id="a_edge39_Node000033_Node000014"><a xlink:title=" ">
<path fill="none" stroke="#63b8ff" d="M1808.99,-127.78C1831.69,-117.69 1859.48,-105.34 1880.47,-96.01"/>
<polygon fill="#63b8ff" stroke="#63b8ff" points="1807.32,-124.7 1799.6,-131.95 1810.16,-131.09 1807.32,-124.7"/>
</a>
</g>
</g>
<!-- Node34 -->
<g id="Node000034" class="node">
<title>Node34</title>
<g id="a_Node000034"><a xlink:href="open__star__iterable_8hpp.html" target="_top" xlink:title=" ">
<polygon fill="white" stroke="#666666" points="2133.5,-96 2002.5,-96 2002.5,-66 2133.5,-66 2133.5,-96"/>
<text text-anchor="start" x="2010.5" y="-84" font-family="Helvetica,sans-Serif" font-size="10.00">src/wmtk/simplex/open</text>
<text text-anchor="middle" x="2068" y="-73" font-family="Helvetica,sans-Serif" font-size="10.00">_star_iterable.hpp</text>
</a>
</g>
</g>
<!-- Node33&#45;&gt;Node34 -->
<g id="edge40_Node000033_Node000034" class="edge">
<title>Node33&#45;&gt;Node34</title>
<g id="a_edge40_Node000033_Node000034"><a xlink:title=" ">
<path fill="none" stroke="#63b8ff" d="M1843.73,-129.84C1892.61,-119.42 1955.56,-105.99 2002.32,-96.01"/>
<polygon fill="#63b8ff" stroke="#63b8ff" points="1842.89,-126.45 1833.84,-131.95 1844.35,-133.29 1842.89,-126.45"/>
</a>
</g>
</g>
<!-- Node35 -->
<g id="Node000035" class="node">
<title>Node35</title>
<g id="a_Node000035"><a xlink:href="open__star__iterable_8cpp.html" target="_top" xlink:title=" ">
<polygon fill="white" stroke="#666666" points="2128.5,-30 1997.5,-30 1997.5,0 2128.5,0 2128.5,-30"/>
<text text-anchor="start" x="2005.5" y="-18" font-family="Helvetica,sans-Serif" font-size="10.00">src/wmtk/simplex/open</text>
<text text-anchor="middle" x="2063" y="-7" font-family="Helvetica,sans-Serif" font-size="10.00">_star_iterable.cpp</text>
</a>
</g>
</g>
<!-- Node34&#45;&gt;Node35 -->
<g id="edge41_Node000034_Node000035" class="edge">
<title>Node34&#45;&gt;Node35</title>
<g id="a_edge41_Node000034_Node000035"><a xlink:title=" ">
<path fill="none" stroke="#63b8ff" d="M2066.11,-55.83C2065.44,-47.17 2064.7,-37.7 2064.11,-30.16"/>
<polygon fill="#63b8ff" stroke="#63b8ff" points="2062.62,-56.1 2066.89,-65.8 2069.6,-55.55 2062.62,-56.1"/>
</a>
</g>
</g>
<!-- Node36&#45;&gt;Node2 -->
<g id="edge43_Node000036_Node000002" class="edge">
<title>Node36&#45;&gt;Node2</title>
<g id="a_edge43_Node000036_Node000002"><a xlink:title=" ">
<path fill="none" stroke="#63b8ff" d="M1151.35,-202.98C1036.39,-192.98 845.44,-176.36 681,-162 652.25,-159.49 620.59,-156.72 593.08,-154.31"/>
<polygon fill="#63b8ff" stroke="#63b8ff" points="1151.28,-206.49 1161.54,-203.87 1151.88,-199.52 1151.28,-206.49"/>
</a>
</g>
</g>
<!-- Node36&#45;&gt;Node16 -->
<g id="edge44_Node000036_Node000016" class="edge">
<title>Node36&#45;&gt;Node16</title>
<g id="a_edge44_Node000036_Node000016"><a xlink:title=" ">
<path fill="none" stroke="#63b8ff" d="M1358.38,-197.93C1658.26,-169.83 1736.27,-183.21 2033,-162 2051.04,-160.71 2070.23,-159.15 2088.76,-157.54"/>
<polygon fill="#63b8ff" stroke="#63b8ff" points="1357.7,-194.47 1348.07,-198.9 1358.36,-201.44 1357.7,-194.47"/>
</a>
</g>
</g>
<!-- Node36&#45;&gt;Node23 -->
<g id="edge45_Node000036_Node000023" class="edge">
<title>Node36&#45;&gt;Node23</title>
<g id="a_edge45_Node000036_Node000023"><a xlink:title=" ">
<path fill="none" stroke="#63b8ff" d="M1151.89,-198.51C1059.05,-186.35 924.76,-168.78 841.55,-157.89"/>
<polygon fill="#63b8ff" stroke="#63b8ff" points="1151.5,-201.98 1161.87,-199.81 1152.41,-195.04 1151.5,-201.98"/>
</a>
</g>
</g>
<!-- Node36&#45;&gt;Node27 -->
<g id="edge46_Node000036_Node000027" class="edge">
<title>Node36&#45;&gt;Node27</title>
<g id="a_edge46_Node000036_Node000027"><a xlink:title=" ">
<path fill="none" stroke="#63b8ff" d="M1342.09,-196.12C1401.17,-185.35 1478.33,-171.28 1533.94,-161.14"/>
<polygon fill="#63b8ff" stroke="#63b8ff" points="1341.24,-192.72 1332.03,-197.95 1342.49,-199.6 1341.24,-192.72"/>
</a>
</g>
</g>
<!-- Node36&#45;&gt;Node30 -->
<g id="edge47_Node000036_Node000030" class="edge">
<title>Node36&#45;&gt;Node30</title>
<g id="a_edge47_Node000036_Node000030"><a xlink:title=" ">
<path fill="none" stroke="#63b8ff" d="M1194.03,-195.25C1156.39,-184.91 1108.65,-171.8 1073.01,-162.01"/>
<polygon fill="#63b8ff" stroke="#63b8ff" points="1193.3,-198.68 1203.87,-197.95 1195.15,-191.93 1193.3,-198.68"/>
</a>
</g>
</g>
<!-- Node36&#45;&gt;Node33 -->
<g id="edge48_Node000036_Node000033" class="edge">
<title>Node36&#45;&gt;Node33</title>
<g id="a_edge48_Node000036_Node000033"><a xlink:title=" ">
<path fill="none" stroke="#63b8ff" d="M1358.39,-197.86C1505.17,-180.07 1544.19,-182.11 1687,-162 1689.83,-161.6 1692.71,-161.18 1695.61,-160.74"/>
<polygon fill="#63b8ff" stroke="#63b8ff" points="1357.6,-194.43 1348.1,-199.11 1358.45,-201.37 1357.6,-194.43"/>
</a>
</g>
</g>
<!-- Node37 -->
<g id="Node000037" class="node">
<title>Node37</title>
<g id="a_Node000037"><a xlink:href="_top_dimension_cofaces_iterable_8cpp.html" target="_top" xlink:title=" ">
<polygon fill="white" stroke="#666666" points="1353.5,-162 1168.5,-162 1168.5,-132 1353.5,-132 1353.5,-162"/>
<text text-anchor="start" x="1176.5" y="-150" font-family="Helvetica,sans-Serif" font-size="10.00">src/wmtk/simplex/iterable</text>
<text text-anchor="middle" x="1261" y="-139" font-family="Helvetica,sans-Serif" font-size="10.00">/TopDimensionCofacesIterable.cpp</text>
</a>
</g>
</g>
<!-- Node36&#45;&gt;Node37 -->
<g id="edge49_Node000036_Node000037" class="edge">
<title>Node36&#45;&gt;Node37</title>
<g id="a_edge49_Node000036_Node000037"><a xlink:title=" ">
<path fill="none" stroke="#63b8ff" d="M1257.27,-187.83C1258.08,-179.17 1258.97,-169.7 1259.67,-162.16"/>
<polygon fill="#63b8ff" stroke="#63b8ff" points="1253.78,-187.51 1256.33,-197.8 1260.75,-188.17 1253.78,-187.51"/>
</a>
</g>
</g>
<!-- Node38 -->
<g id="Node000038" class="node">
<title>Node38</title>
<g id="a_Node000038"><a xlink:href="top__dimension__cofaces__iterable_8hpp.html" target="_top" xlink:title=" ">
<polygon fill="white" stroke="#666666" points="1155.5,-96 976.5,-96 976.5,-66 1155.5,-66 1155.5,-96"/>
<text text-anchor="start" x="984.5" y="-84" font-family="Helvetica,sans-Serif" font-size="10.00">src/wmtk/simplex/top</text>
<text text-anchor="middle" x="1066" y="-73" font-family="Helvetica,sans-Serif" font-size="10.00">_dimension_cofaces_iterable.hpp</text>
</a>
</g>
</g>
<!-- Node36&#45;&gt;Node38 -->
<g id="edge50_Node000036_Node000038" class="edge">
<title>Node36&#45;&gt;Node38</title>
<g id="a_edge50_Node000036_Node000038"><a xlink:title=" ">
<path fill="none" stroke="#63b8ff" d="M1214.76,-193.29C1197.41,-184.61 1177.19,-173.63 1160,-162 1144.03,-151.19 1104.04,-116.03 1081.71,-96.11"/>
<polygon fill="#63b8ff" stroke="#63b8ff" points="1213.55,-196.6 1224.07,-197.87 1216.64,-190.32 1213.55,-196.6"/>
</a>
</g>
</g>
<!-- Node38&#45;&gt;Node4 -->
<g id="edge53_Node000038_Node000004" class="edge">
<title>Node38&#45;&gt;Node4</title>
<g id="a_edge53_Node000038_Node000004"><a xlink:title=" ">
<path fill="none" stroke="#63b8ff" d="M979.25,-64.09C921.79,-53.55 847.16,-39.87 792.21,-29.79"/>
<polygon fill="#63b8ff" stroke="#63b8ff" points="978.94,-67.59 989.41,-65.95 980.21,-60.71 978.94,-67.59"/>
</a>
</g>
</g>
<!-- Node38&#45;&gt;Node25 -->
<g id="edge52_Node000038_Node000025" class="edge">
<title>Node38&#45;&gt;Node25</title>
<g id="a_edge52_Node000038_Node000025"><a xlink:title=" ">
<path fill="none" stroke="#63b8ff" d="M1016.93,-62.46C988.38,-52.25 952.87,-39.55 926.19,-30.01"/>
<polygon fill="#63b8ff" stroke="#63b8ff" points="1016.12,-65.88 1026.72,-65.95 1018.48,-59.29 1016.12,-65.88"/>
</a>
</g>
</g>
<!-- Node39 -->
<g id="Node000039" class="node">
<title>Node39</title>
<g id="a_Node000039"><a xlink:href="_edge_mesh_operation_executor_8cpp.html" target="_top" xlink:title=" ">
<polygon fill="white" stroke="#666666" points="1144.5,-30 981.5,-30 981.5,0 1144.5,0 1144.5,-30"/>
<text text-anchor="start" x="989.5" y="-18" font-family="Helvetica,sans-Serif" font-size="10.00">src/wmtk/EdgeMeshOperation</text>
<text text-anchor="middle" x="1063" y="-7" font-family="Helvetica,sans-Serif" font-size="10.00">Executor.cpp</text>
</a>
</g>
</g>
<!-- Node38&#45;&gt;Node39 -->
<g id="edge51_Node000038_Node000039" class="edge">
<title>Node38&#45;&gt;Node39</title>
<g id="a_edge51_Node000038_Node000039"><a xlink:title=" ">
<path fill="none" stroke="#63b8ff" d="M1064.85,-55.54C1064.45,-46.96 1064.01,-37.61 1063.66,-30.16"/>
<polygon fill="#63b8ff" stroke="#63b8ff" points="1061.37,-55.97 1065.33,-65.8 1068.36,-55.64 1061.37,-55.97"/>
</a>
</g>
</g>
<!-- Node40 -->
<g id="Node000040" class="node">
<title>Node40</title>
<g id="a_Node000040"><a xlink:href="closed__star_8cpp.html" target="_top" xlink:title=" ">
<polygon fill="white" stroke="#666666" points="1301,-30 1163,-30 1163,0 1301,0 1301,-30"/>
<text text-anchor="start" x="1171" y="-18" font-family="Helvetica,sans-Serif" font-size="10.00">src/wmtk/simplex/closed</text>
<text text-anchor="middle" x="1232" y="-7" font-family="Helvetica,sans-Serif" font-size="10.00">_star.cpp</text>
</a>
</g>
</g>
<!-- Node38&#45;&gt;Node40 -->
<g id="edge54_Node000038_Node000040" class="edge">
<title>Node38&#45;&gt;Node40</title>
<g id="a_edge54_Node000038_Node000040"><a xlink:title=" ">
<path fill="none" stroke="#63b8ff" d="M1111.85,-62.32C1138.27,-52.14 1171.02,-39.51 1195.66,-30.01"/>
<polygon fill="#63b8ff" stroke="#63b8ff" points="1110.5,-59.09 1102.43,-65.95 1113.02,-65.62 1110.5,-59.09"/>
</a>
</g>
</g>
<!-- Node41 -->
<g id="Node000041" class="node">
<title>Node41</title>
<g id="a_Node000041"><a xlink:href="top__dimension__cofaces__iterable_8cpp.html" target="_top" xlink:title=" ">
<polygon fill="white" stroke="#666666" points="1498.5,-30 1319.5,-30 1319.5,0 1498.5,0 1498.5,-30"/>
<text text-anchor="start" x="1327.5" y="-18" font-family="Helvetica,sans-Serif" font-size="10.00">src/wmtk/simplex/top</text>
<text text-anchor="middle" x="1409" y="-7" font-family="Helvetica,sans-Serif" font-size="10.00">_dimension_cofaces_iterable.cpp</text>
</a>
</g>
</g>
<!-- Node38&#45;&gt;Node41 -->
<g id="edge55_Node000038_Node000041" class="edge">
<title>Node38&#45;&gt;Node41</title>
<g id="a_edge55_Node000038_Node000041"><a xlink:title=" ">
<path fill="none" stroke="#63b8ff" d="M1151.19,-64.11C1207.26,-53.64 1279.99,-40.07 1333.9,-30.01"/>
<polygon fill="#63b8ff" stroke="#63b8ff" points="1150.46,-60.68 1141.27,-65.95 1151.75,-67.56 1150.46,-60.68"/>
</a>
</g>
</g>
</g>
</svg>
