<?xml version="1.0" encoding="UTF-8" standalone="no"?>
<!DOCTYPE svg PUBLIC "-//W3C//DTD SVG 1.1//EN"
 "http://www.w3.org/Graphics/SVG/1.1/DTD/svg11.dtd">
<!-- Generated by graphviz version 2.43.0 (0)
 -->
<!-- Title: src/wmtk/autogen/subgroup/convert.hpp Pages: 1 -->
<svg width="648pt" height="170pt"
 viewBox="0.00 0.00 647.50 170.00" xmlns="http://www.w3.org/2000/svg" xmlns:xlink="http://www.w3.org/1999/xlink">
<g id="graph0" class="graph" transform="scale(1 1) rotate(0) translate(4 166)">
<title>src/wmtk/autogen/subgroup/convert.hpp</title>
<!-- Node1 -->
<g id="Node000001" class="node">
<title>Node1</title>
<g id="a_Node000001"><a xlink:title=" ">
<polygon fill="#999999" stroke="#666666" points="312,-162 160,-162 160,-132 312,-132 312,-162"/>
<text text-anchor="start" x="168" y="-150" font-family="Helvetica,sans-Serif" font-size="10.00">src/wmtk/autogen/subgroup</text>
<text text-anchor="middle" x="236" y="-139" font-family="Helvetica,sans-Serif" font-size="10.00">/convert.hpp</text>
</a>
</g>
</g>
<!-- Node2 -->
<g id="Node000002" class="node">
<title>Node2</title>
<g id="a_Node000002"><a xlink:href="convert_8hxx.html" target="_top" xlink:title=" ">
<polygon fill="white" stroke="#666666" points="152,-90.5 0,-90.5 0,-60.5 152,-60.5 152,-90.5"/>
<text text-anchor="start" x="8" y="-78.5" font-family="Helvetica,sans-Serif" font-size="10.00">src/wmtk/autogen/subgroup</text>
<text text-anchor="middle" x="76" y="-67.5" font-family="Helvetica,sans-Serif" font-size="10.00">/convert.hxx</text>
</a>
</g>
</g>
<!-- Node1&#45;&gt;Node2 -->
<g id="edge1_Node000001_Node000002" class="edge">
<title>Node1&#45;&gt;Node2</title>
<g id="a_edge1_Node000001_Node000002"><a xlink:title=" ">
<path fill="none" stroke="#63b8ff" d="M188.83,-128.11C160.77,-116.42 126.27,-101.37 102.78,-90.54"/>
<polygon fill="#63b8ff" stroke="#63b8ff" points="187.49,-131.35 198.07,-131.94 190.17,-124.88 187.49,-131.35"/>
</a>
</g>
</g>
<!-- Node3 -->
<g id="Node000003" class="node">
<title>Node3</title>
<g id="a_Node000003"><a xlink:href="dart_2subgroup_2convert_8hpp.html" target="_top" xlink:title=" ">
<polygon fill="white" stroke="#666666" points="302,-90.5 170,-90.5 170,-60.5 302,-60.5 302,-90.5"/>
<text text-anchor="start" x="178" y="-78.5" font-family="Helvetica,sans-Serif" font-size="10.00">src/wmtk/dart/subgroup</text>
<text text-anchor="middle" x="236" y="-67.5" font-family="Helvetica,sans-Serif" font-size="10.00">/convert.hpp</text>
</a>
</g>
</g>
<!-- Node1&#45;&gt;Node3 -->
<g id="edge3_Node000001_Node000003" class="edge">
<title>Node1&#45;&gt;Node3</title>
<g id="a_edge3_Node000001_Node000003"><a xlink:title=" ">
<path fill="none" stroke="#63b8ff" d="M236,-121.75C236,-111.31 236,-99.49 236,-90.54"/>
<polygon fill="#63b8ff" stroke="#63b8ff" points="232.5,-121.94 236,-131.94 239.5,-121.94 232.5,-121.94"/>
</a>
</g>
</g>
<!-- Node5 -->
<g id="Node000005" class="node">
<title>Node5</title>
<g id="a_Node000005"><a xlink:href="get__simplex__involution_8cpp.html" target="_top" xlink:title=" ">
<polygon fill="white" stroke="#666666" points="474,-90.5 320,-90.5 320,-60.5 474,-60.5 474,-90.5"/>
<text text-anchor="start" x="328" y="-78.5" font-family="Helvetica,sans-Serif" font-size="10.00">src/wmtk/dart/utils</text>
<text text-anchor="middle" x="397" y="-67.5" font-family="Helvetica,sans-Serif" font-size="10.00">/get_simplex_involution.cpp</text>
</a>
</g>
</g>
<!-- Node1&#45;&gt;Node5 -->
<g id="edge5_Node000001_Node000005" class="edge">
<title>Node1&#45;&gt;Node5</title>
<g id="a_edge5_Node000001_Node000005"><a xlink:title=" ">
<path fill="none" stroke="#63b8ff" d="M277.79,-127.96C304.82,-116.29 339.49,-101.32 364.47,-90.54"/>
<polygon fill="#63b8ff" stroke="#63b8ff" points="276.37,-124.76 268.58,-131.94 279.15,-131.19 276.37,-124.76"/>
</a>
</g>
</g>
<!-- Node6 -->
<g id="Node000006" class="node">
<title>Node6</title>
<g id="a_Node000006"><a xlink:href="_collapse_alternate_facet_data_8cpp.html" target="_top" xlink:title=" ">
<polygon fill="white" stroke="#666666" points="639.5,-96 492.5,-96 492.5,-55 639.5,-55 639.5,-96"/>
<text text-anchor="start" x="500.5" y="-84" font-family="Helvetica,sans-Serif" font-size="10.00">src/wmtk/operations</text>
<text text-anchor="start" x="500.5" y="-73" font-family="Helvetica,sans-Serif" font-size="10.00">/internal/CollapseAlternate</text>
<text text-anchor="middle" x="566" y="-62" font-family="Helvetica,sans-Serif" font-size="10.00">FacetData.cpp</text>
</a>
</g>
</g>
<!-- Node1&#45;&gt;Node6 -->
<g id="edge6_Node000001_Node000006" class="edge">
<title>Node1&#45;&gt;Node6</title>
<g id="a_edge6_Node000001_Node000006"><a xlink:title=" ">
<path fill="none" stroke="#63b8ff" d="M318.31,-130C366.41,-120.49 428.23,-107.97 483,-96 486.04,-95.34 489.13,-94.65 492.26,-93.95"/>
<polygon fill="#63b8ff" stroke="#63b8ff" points="317.4,-126.61 308.27,-131.98 318.76,-133.48 317.4,-126.61"/>
</a>
</g>
</g>
<!-- Node2&#45;&gt;Node1 -->
<g id="edge2_Node000002_Node000001" class="edge">
<title>Node2&#45;&gt;Node1</title>
<g id="a_edge2_Node000002_Node000001"><a xlink:title=" ">
<path fill="none" stroke="#63b8ff" d="M123.48,-94.52C151.47,-106.18 185.77,-121.15 209.17,-131.94"/>
<polygon fill="#63b8ff" stroke="#63b8ff" points="124.45,-91.13 113.88,-90.54 121.78,-97.6 124.45,-91.13"/>
</a>
</g>
</g>
<!-- Node4 -->
<g id="Node000004" class="node">
<title>Node4</title>
<g id="a_Node000004"><a xlink:href="dart_2_simplex_dart_8cpp.html" target="_top" xlink:title=" ">
<polygon fill="white" stroke="#666666" points="320,-19 152,-19 152,0 320,0 320,-19"/>
<text text-anchor="middle" x="236" y="-7" font-family="Helvetica,sans-Serif" font-size="10.00">src/wmtk/dart/SimplexDart.cpp</text>
</a>
</g>
</g>
<!-- Node3&#45;&gt;Node4 -->
<g id="edge4_Node000003_Node000004" class="edge">
<title>Node3&#45;&gt;Node4</title>
<g id="a_edge4_Node000003_Node000004"><a xlink:title=" ">
<path fill="none" stroke="#63b8ff" d="M236,-50.1C236,-39.3 236,-27.28 236,-19.34"/>
<polygon fill="#63b8ff" stroke="#63b8ff" points="232.5,-50.3 236,-60.3 239.5,-50.3 232.5,-50.3"/>
</a>
</g>
</g>
</g>
</svg>
