<?xml version="1.0" encoding="UTF-8" standalone="no"?>
<!DOCTYPE svg PUBLIC "-//W3C//DTD SVG 1.1//EN"
 "http://www.w3.org/Graphics/SVG/1.1/DTD/svg11.dtd">
<!-- Generated by graphviz version 2.43.0 (0)
 -->
<!-- Title: src/wmtk/autogen/tri_mesh/local_switch_tuple.hpp Pages: 1 -->
<svg width="747pt" height="445pt"
 viewBox="0.00 0.00 746.50 445.00" xmlns="http://www.w3.org/2000/svg" xmlns:xlink="http://www.w3.org/1999/xlink">
<g id="graph0" class="graph" transform="scale(1 1) rotate(0) translate(4 441)">
<title>src/wmtk/autogen/tri_mesh/local_switch_tuple.hpp</title>
<!-- Node1 -->
<g id="Node000001" class="node">
<title>Node1</title>
<g id="a_Node000001"><a xlink:title=" ">
<polygon fill="#999999" stroke="#666666" points="239,-437 76,-437 76,-407 239,-407 239,-437"/>
<text text-anchor="start" x="84" y="-425" font-family="Helvetica,sans-Serif" font-size="10.00">src/wmtk/autogen/tri</text>
<text text-anchor="middle" x="157.5" y="-414" font-family="Helvetica,sans-Serif" font-size="10.00">_mesh/local_switch_tuple.hpp</text>
</a>
</g>
</g>
<!-- Node2 -->
<g id="Node000002" class="node">
<title>Node2</title>
<g id="a_Node000002"><a xlink:href="_primitive_8hpp.html" target="_top" xlink:title=" ">
<polygon fill="white" stroke="#666666" points="159,-184 46,-184 46,-165 159,-165 159,-184"/>
<text text-anchor="middle" x="102.5" y="-172" font-family="Helvetica,sans-Serif" font-size="10.00">wmtk/Primitive.hpp</text>
</a>
</g>
</g>
<!-- Node1&#45;&gt;Node2 -->
<g id="edge1_Node000001_Node000002" class="edge">
<title>Node1&#45;&gt;Node2</title>
<g id="a_edge1_Node000001_Node000002"><a xlink:title=" ">
<path fill="none" stroke="#63b8ff" d="M153.2,-406.63C150.29,-396.67 146.46,-383.08 143.5,-371 127.73,-306.54 112.63,-229.2 106.01,-194.26"/>
<polygon fill="#63b8ff" stroke="#63b8ff" points="109.39,-193.3 104.1,-184.12 102.51,-194.6 109.39,-193.3"/>
</a>
</g>
</g>
<!-- Node7 -->
<g id="Node000007" class="node">
<title>Node7</title>
<g id="a_Node000007"><a xlink:href="_tuple_8hpp.html" target="_top" xlink:title=" ">
<polygon fill="white" stroke="#666666" points="371,-129 308,-129 308,-110 371,-110 371,-129"/>
<text text-anchor="middle" x="339.5" y="-117" font-family="Helvetica,sans-Serif" font-size="10.00">Tuple.hpp</text>
</a>
</g>
</g>
<!-- Node1&#45;&gt;Node7 -->
<g id="edge16_Node000001_Node000007" class="edge">
<title>Node1&#45;&gt;Node7</title>
<g id="a_edge16_Node000001_Node000007"><a xlink:title=" ">
<path fill="none" stroke="#63b8ff" d="M160.51,-406.82C168.28,-372.46 191.41,-282.96 233.5,-220 257.01,-184.83 295.16,-153.07 318.72,-135.32"/>
<polygon fill="#63b8ff" stroke="#63b8ff" points="321,-137.99 326.97,-129.23 316.84,-132.35 321,-137.99"/>
</a>
</g>
</g>
<!-- Node15 -->
<g id="Node000015" class="node">
<title>Node15</title>
<g id="a_Node000015"><a xlink:href="tri__mesh_2local__switch__tuple_8hxx.html" target="_top" xlink:title=" ">
<polygon fill="white" stroke="#666666" points="353.5,-371 225.5,-371 225.5,-352 353.5,-352 353.5,-371"/>
<text text-anchor="middle" x="289.5" y="-359" font-family="Helvetica,sans-Serif" font-size="10.00">local_switch_tuple.hxx</text>
</a>
</g>
</g>
<!-- Node1&#45;&gt;Node15 -->
<g id="edge17_Node000001_Node000015" class="edge">
<title>Node1&#45;&gt;Node15</title>
<g id="a_edge17_Node000001_Node000015"><a xlink:title=" ">
<path fill="none" stroke="#63b8ff" d="M189.12,-406.99C210.85,-397.36 239.47,-384.67 260.59,-375.31"/>
<polygon fill="#63b8ff" stroke="#63b8ff" points="262.28,-378.39 270.01,-371.14 259.45,-371.99 262.28,-378.39"/>
</a>
</g>
</g>
<!-- Node3 -->
<g id="Node000003" class="node">
<title>Node3</title>
<g id="a_Node000003"><a xlink:href="_primitive_type_8hpp.html" target="_top" xlink:title=" ">
<polygon fill="white" stroke="#666666" points="154.5,-74 50.5,-74 50.5,-55 154.5,-55 154.5,-74"/>
<text text-anchor="middle" x="102.5" y="-62" font-family="Helvetica,sans-Serif" font-size="10.00">PrimitiveType.hpp</text>
</a>
</g>
</g>
<!-- Node2&#45;&gt;Node3 -->
<g id="edge2_Node000002_Node000003" class="edge">
<title>Node2&#45;&gt;Node3</title>
<g id="a_edge2_Node000002_Node000003"><a xlink:title=" ">
<path fill="none" stroke="#63b8ff" d="M102.5,-164.66C102.5,-147.17 102.5,-107.8 102.5,-84.27"/>
<polygon fill="#63b8ff" stroke="#63b8ff" points="106,-84.16 102.5,-74.16 99,-84.16 106,-84.16"/>
</a>
</g>
</g>
<!-- Node2&#45;&gt;Node7 -->
<g id="edge6_Node000002_Node000007" class="edge">
<title>Node2&#45;&gt;Node7</title>
<g id="a_edge6_Node000002_Node000007"><a xlink:title=" ">
<path fill="none" stroke="#63b8ff" d="M140.58,-164.98C183.67,-155.35 253.63,-139.7 298.07,-129.77"/>
<polygon fill="#63b8ff" stroke="#63b8ff" points="298.97,-133.15 307.96,-127.55 297.44,-126.32 298.97,-133.15"/>
</a>
</g>
</g>
<!-- Node4 -->
<g id="Node000004" class="node">
<title>Node4</title>
<g id="a_Node000004"><a xlink:title=" ">
<polygon fill="#e0e0e0" stroke="#999999" points="221,-19 156,-19 156,0 221,0 221,-19"/>
<text text-anchor="middle" x="188.5" y="-7" font-family="Helvetica,sans-Serif" font-size="10.00">stdexcept</text>
</a>
</g>
</g>
<!-- Node3&#45;&gt;Node4 -->
<g id="edge3_Node000003_Node000004" class="edge">
<title>Node3&#45;&gt;Node4</title>
<g id="a_edge3_Node000003_Node000004"><a xlink:title=" ">
<path fill="none" stroke="#63b8ff" d="M116.32,-54.98C129.65,-46.77 150.08,-34.18 165.81,-24.49"/>
<polygon fill="#63b8ff" stroke="#63b8ff" points="167.75,-27.4 174.43,-19.17 164.08,-21.44 167.75,-27.4"/>
</a>
</g>
</g>
<!-- Node5 -->
<g id="Node000005" class="node">
<title>Node5</title>
<g id="a_Node000005"><a xlink:title=" ">
<polygon fill="#e0e0e0" stroke="#999999" points="138,-19 65,-19 65,0 138,0 138,-19"/>
<text text-anchor="middle" x="101.5" y="-7" font-family="Helvetica,sans-Serif" font-size="10.00">string_view</text>
</a>
</g>
</g>
<!-- Node3&#45;&gt;Node5 -->
<g id="edge4_Node000003_Node000005" class="edge">
<title>Node3&#45;&gt;Node5</title>
<g id="a_edge4_Node000003_Node000005"><a xlink:title=" ">
<path fill="none" stroke="#63b8ff" d="M102.33,-54.75C102.2,-47.8 102.02,-37.85 101.85,-29.13"/>
<polygon fill="#63b8ff" stroke="#63b8ff" points="105.35,-29.02 101.66,-19.09 98.35,-29.15 105.35,-29.02"/>
</a>
</g>
</g>
<!-- Node6 -->
<g id="Node000006" class="node">
<title>Node6</title>
<g id="a_Node000006"><a xlink:title=" ">
<polygon fill="#e0e0e0" stroke="#999999" points="47,-19 0,-19 0,0 47,0 47,-19"/>
<text text-anchor="middle" x="23.5" y="-7" font-family="Helvetica,sans-Serif" font-size="10.00">vector</text>
</a>
</g>
</g>
<!-- Node3&#45;&gt;Node6 -->
<g id="edge5_Node000003_Node000006" class="edge">
<title>Node3&#45;&gt;Node6</title>
<g id="a_edge5_Node000003_Node000006"><a xlink:title=" ">
<path fill="none" stroke="#63b8ff" d="M89.81,-54.98C77.67,-46.84 59.14,-34.41 44.75,-24.76"/>
<polygon fill="#63b8ff" stroke="#63b8ff" points="46.68,-21.84 36.42,-19.17 42.78,-27.65 46.68,-21.84"/>
</a>
</g>
</g>
<!-- Node7&#45;&gt;Node3 -->
<g id="edge12_Node000007_Node000003" class="edge">
<title>Node7&#45;&gt;Node3</title>
<g id="a_edge12_Node000007_Node000003"><a xlink:title=" ">
<path fill="none" stroke="#63b8ff" d="M307.54,-111.35C267.16,-102.32 197.32,-86.7 150.51,-76.24"/>
<polygon fill="#63b8ff" stroke="#63b8ff" points="151.13,-72.79 140.6,-74.02 149.6,-79.62 151.13,-72.79"/>
</a>
</g>
</g>
<!-- Node8 -->
<g id="Node000008" class="node">
<title>Node8</title>
<g id="a_Node000008"><a xlink:title=" ">
<polygon fill="#e0e0e0" stroke="#999999" points="576.5,-74 534.5,-74 534.5,-55 576.5,-55 576.5,-74"/>
<text text-anchor="middle" x="555.5" y="-62" font-family="Helvetica,sans-Serif" font-size="10.00">array</text>
</a>
</g>
</g>
<!-- Node7&#45;&gt;Node8 -->
<g id="edge7_Node000007_Node000008" class="edge">
<title>Node7&#45;&gt;Node8</title>
<g id="a_edge7_Node000007_Node000008"><a xlink:title=" ">
<path fill="none" stroke="#63b8ff" d="M371.37,-110.68C412.5,-100.59 483.61,-83.14 524.37,-73.14"/>
<polygon fill="#63b8ff" stroke="#63b8ff" points="525.41,-76.49 534.29,-70.7 523.74,-69.69 525.41,-76.49"/>
</a>
</g>
</g>
<!-- Node9 -->
<g id="Node000009" class="node">
<title>Node9</title>
<g id="a_Node000009"><a xlink:title=" ">
<polygon fill="#e0e0e0" stroke="#999999" points="611.5,-19 561.5,-19 561.5,0 611.5,0 611.5,-19"/>
<text text-anchor="middle" x="586.5" y="-7" font-family="Helvetica,sans-Serif" font-size="10.00">cstdint</text>
</a>
</g>
</g>
<!-- Node7&#45;&gt;Node9 -->
<g id="edge8_Node000007_Node000009" class="edge">
<title>Node7&#45;&gt;Node9</title>
<g id="a_edge8_Node000007_Node000009"><a xlink:title=" ">
<path fill="none" stroke="#63b8ff" d="M371.03,-111.72C401.64,-104.52 448.99,-91.72 487.5,-74 516.97,-60.44 547.98,-39.26 567.28,-25.14"/>
<polygon fill="#63b8ff" stroke="#63b8ff" points="569.57,-27.79 575.51,-19.02 565.4,-22.17 569.57,-27.79"/>
</a>
</g>
</g>
<!-- Node10 -->
<g id="Node000010" class="node">
<title>Node10</title>
<g id="a_Node000010"><a xlink:title=" ">
<polygon fill="#e0e0e0" stroke="#999999" points="478.5,-74 418.5,-74 418.5,-55 478.5,-55 478.5,-74"/>
<text text-anchor="middle" x="448.5" y="-62" font-family="Helvetica,sans-Serif" font-size="10.00">iostream</text>
</a>
</g>
</g>
<!-- Node7&#45;&gt;Node10 -->
<g id="edge9_Node000007_Node000010" class="edge">
<title>Node7&#45;&gt;Node10</title>
<g id="a_edge9_Node000007_Node000010"><a xlink:title=" ">
<path fill="none" stroke="#63b8ff" d="M357.01,-109.98C374.47,-101.5 401.51,-88.35 421.67,-78.54"/>
<polygon fill="#63b8ff" stroke="#63b8ff" points="423.21,-81.69 430.67,-74.17 420.14,-75.4 423.21,-81.69"/>
</a>
</g>
</g>
<!-- Node11 -->
<g id="Node000011" class="node">
<title>Node11</title>
<g id="a_Node000011"><a xlink:title=" ">
<polygon fill="#e0e0e0" stroke="#999999" points="259.5,-74 215.5,-74 215.5,-55 259.5,-55 259.5,-74"/>
<text text-anchor="middle" x="237.5" y="-62" font-family="Helvetica,sans-Serif" font-size="10.00">string</text>
</a>
</g>
</g>
<!-- Node7&#45;&gt;Node11 -->
<g id="edge10_Node000007_Node000011" class="edge">
<title>Node7&#45;&gt;Node11</title>
<g id="a_edge10_Node000007_Node000011"><a xlink:title=" ">
<path fill="none" stroke="#63b8ff" d="M323.11,-109.98C306.93,-101.57 281.93,-88.59 263.12,-78.81"/>
<polygon fill="#63b8ff" stroke="#63b8ff" points="264.67,-75.68 254.19,-74.17 261.45,-81.89 264.67,-75.68"/>
</a>
</g>
</g>
<!-- Node12 -->
<g id="Node000012" class="node">
<title>Node12</title>
<g id="a_Node000012"><a xlink:title=" ">
<polygon fill="#e0e0e0" stroke="#999999" points="400,-74 359,-74 359,-55 400,-55 400,-74"/>
<text text-anchor="middle" x="379.5" y="-62" font-family="Helvetica,sans-Serif" font-size="10.00">tuple</text>
</a>
</g>
</g>
<!-- Node7&#45;&gt;Node12 -->
<g id="edge11_Node000007_Node000012" class="edge">
<title>Node7&#45;&gt;Node12</title>
<g id="a_edge11_Node000007_Node000012"><a xlink:title=" ">
<path fill="none" stroke="#63b8ff" d="M346.11,-109.75C351.76,-102.26 360.04,-91.28 366.95,-82.13"/>
<polygon fill="#63b8ff" stroke="#63b8ff" points="369.79,-84.18 373.02,-74.09 364.2,-79.96 369.79,-84.18"/>
</a>
</g>
</g>
<!-- Node13 -->
<g id="Node000013" class="node">
<title>Node13</title>
<g id="a_Node000013"><a xlink:href="_tuple_8hxx.html" target="_top" xlink:title=" ">
<polygon fill="white" stroke="#666666" points="341,-74 278,-74 278,-55 341,-55 341,-74"/>
<text text-anchor="middle" x="309.5" y="-62" font-family="Helvetica,sans-Serif" font-size="10.00">Tuple.hxx</text>
</a>
</g>
</g>
<!-- Node7&#45;&gt;Node13 -->
<g id="edge13_Node000007_Node000013" class="edge">
<title>Node7&#45;&gt;Node13</title>
<g id="a_edge13_Node000007_Node000013"><a xlink:title=" ">
<path fill="none" stroke="#63b8ff" d="M329.38,-109.75C323.83,-102.65 317.61,-92.4 313.28,-83.56"/>
<polygon fill="#63b8ff" stroke="#63b8ff" points="316.38,-81.9 309.23,-74.09 309.95,-84.66 316.38,-81.9"/>
</a>
</g>
</g>
<!-- Node13&#45;&gt;Node7 -->
<g id="edge14_Node000013_Node000007" class="edge">
<title>Node13&#45;&gt;Node7</title>
<g id="a_edge14_Node000013_Node000007"><a xlink:title=" ">
<path fill="none" stroke="#63b8ff" d="M319.49,-74.09C325.09,-81.22 331.4,-91.6 335.76,-100.53"/>
<polygon fill="#63b8ff" stroke="#63b8ff" points="332.55,-101.94 339.71,-109.75 338.99,-99.18 332.55,-101.94"/>
</a>
</g>
</g>
<!-- Node14 -->
<g id="Node000014" class="node">
<title>Node14</title>
<g id="a_Node000014"><a xlink:title=" ">
<polygon fill="#e0e0e0" stroke="#999999" points="335.5,-19 283.5,-19 283.5,0 335.5,0 335.5,-19"/>
<text text-anchor="middle" x="309.5" y="-7" font-family="Helvetica,sans-Serif" font-size="10.00">cassert</text>
</a>
</g>
</g>
<!-- Node13&#45;&gt;Node14 -->
<g id="edge15_Node000013_Node000014" class="edge">
<title>Node13&#45;&gt;Node14</title>
<g id="a_edge15_Node000013_Node000014"><a xlink:title=" ">
<path fill="none" stroke="#63b8ff" d="M309.5,-54.75C309.5,-47.8 309.5,-37.85 309.5,-29.13"/>
<polygon fill="#63b8ff" stroke="#63b8ff" points="313,-29.09 309.5,-19.09 306,-29.09 313,-29.09"/>
</a>
</g>
</g>
<!-- Node15&#45;&gt;Node4 -->
<g id="edge18_Node000015_Node000004" class="edge">
<title>Node15&#45;&gt;Node4</title>
<g id="a_edge18_Node000015_Node000004"><a xlink:title=" ">
<path fill="none" stroke="#63b8ff" d="M274.92,-351.85C263.11,-344.03 247.07,-331.4 238.5,-316 184.44,-218.84 185.1,-79.2 187.34,-29.19"/>
<polygon fill="#63b8ff" stroke="#63b8ff" points="190.84,-29.37 187.87,-19.2 183.85,-29 190.84,-29.37"/>
</a>
</g>
</g>
<!-- Node16 -->
<g id="Node000016" class="node">
<title>Node16</title>
<g id="a_Node000016"><a xlink:href="tri__mesh_2autogenerated__tables_8hpp.html" target="_top" xlink:title=" ">
<polygon fill="white" stroke="#666666" points="738.5,-74 594.5,-74 594.5,-55 738.5,-55 738.5,-74"/>
<text text-anchor="middle" x="666.5" y="-62" font-family="Helvetica,sans-Serif" font-size="10.00">autogenerated_tables.hpp</text>
</a>
</g>
</g>
<!-- Node15&#45;&gt;Node16 -->
<g id="edge19_Node000015_Node000016" class="edge">
<title>Node15&#45;&gt;Node16</title>
<g id="a_edge19_Node000015_Node000016"><a xlink:title=" ">
<path fill="none" stroke="#63b8ff" d="M353.68,-358.83C414.29,-355.39 506.78,-345.28 581.5,-316 640.49,-292.88 699.5,-299.36 699.5,-236 699.5,-236 699.5,-236 699.5,-173.5 699.5,-140.63 685.34,-104.49 675.57,-83.46"/>
<polygon fill="#63b8ff" stroke="#63b8ff" points="678.59,-81.66 671.09,-74.18 672.29,-84.71 678.59,-81.66"/>
</a>
</g>
</g>
<!-- Node17 -->
<g id="Node000017" class="node">
<title>Node17</title>
<g id="a_Node000017"><a xlink:href="tri__mesh_2local__id__table__offset_8hpp.html" target="_top" xlink:title=" ">
<polygon fill="white" stroke="#666666" points="591.5,-184 453.5,-184 453.5,-165 591.5,-165 591.5,-184"/>
<text text-anchor="middle" x="522.5" y="-172" font-family="Helvetica,sans-Serif" font-size="10.00">local_id_table_offset.hpp</text>
</a>
</g>
</g>
<!-- Node15&#45;&gt;Node17 -->
<g id="edge21_Node000015_Node000017" class="edge">
<title>Node15&#45;&gt;Node17</title>
<g id="a_edge21_Node000015_Node000017"><a xlink:title=" ">
<path fill="none" stroke="#63b8ff" d="M279.06,-351.87C270.08,-343.7 257.76,-330.55 252.5,-316 238,-275.87 224.89,-252.53 252.5,-220 276.6,-191.6 372.46,-181.3 443.14,-177.58"/>
<polygon fill="#63b8ff" stroke="#63b8ff" points="443.55,-181.06 453.37,-177.07 443.21,-174.07 443.55,-181.06"/>
</a>
</g>
</g>
<!-- Node19 -->
<g id="Node000019" class="node">
<title>Node19</title>
<g id="a_Node000019"><a xlink:href="autogen_2tri__mesh_2tuple__from__permutation__index_8hpp.html" target="_top" xlink:title=" ">
<polygon fill="white" stroke="#666666" points="397,-316 262,-316 262,-286 397,-286 397,-316"/>
<text text-anchor="start" x="270" y="-304" font-family="Helvetica,sans-Serif" font-size="10.00">tuple_from_permutation</text>
<text text-anchor="middle" x="329.5" y="-293" font-family="Helvetica,sans-Serif" font-size="10.00">_index.hpp</text>
</a>
</g>
</g>
<!-- Node15&#45;&gt;Node19 -->
<g id="edge26_Node000015_Node000019" class="edge">
<title>Node15&#45;&gt;Node19</title>
<g id="a_edge26_Node000015_Node000019"><a xlink:title=" ">
<path fill="none" stroke="#63b8ff" d="M295.4,-351.87C300.33,-344.67 307.57,-334.07 314.12,-324.49"/>
<polygon fill="#63b8ff" stroke="#63b8ff" points="317.09,-326.34 319.85,-316.11 311.32,-322.39 317.09,-326.34"/>
</a>
</g>
</g>
<!-- Node21 -->
<g id="Node000021" class="node">
<title>Node21</title>
<g id="a_Node000021"><a xlink:href="autogen_2tri__mesh_2permutation__index__from__tuple_8hpp.html" target="_top" xlink:title=" ">
<polygon fill="white" stroke="#666666" points="572,-316 435,-316 435,-286 572,-286 572,-316"/>
<text text-anchor="start" x="443" y="-304" font-family="Helvetica,sans-Serif" font-size="10.00">permutation_index_from</text>
<text text-anchor="middle" x="503.5" y="-293" font-family="Helvetica,sans-Serif" font-size="10.00">_tuple.hpp</text>
</a>
</g>
</g>
<!-- Node15&#45;&gt;Node21 -->
<g id="edge30_Node000015_Node000021" class="edge">
<title>Node15&#45;&gt;Node21</title>
<g id="a_edge30_Node000015_Node000021"><a xlink:title=" ">
<path fill="none" stroke="#63b8ff" d="M320.62,-351.99C352.36,-343.32 402.45,-329.62 442.19,-318.76"/>
<polygon fill="#63b8ff" stroke="#63b8ff" points="443.33,-322.08 452.05,-316.06 441.48,-315.33 443.33,-322.08"/>
</a>
</g>
</g>
<!-- Node16&#45;&gt;Node9 -->
<g id="edge20_Node000016_Node000009" class="edge">
<title>Node16&#45;&gt;Node9</title>
<g id="a_edge20_Node000016_Node000009"><a xlink:title=" ">
<path fill="none" stroke="#63b8ff" d="M653.65,-54.98C641.36,-46.84 622.59,-34.41 608.02,-24.76"/>
<polygon fill="#63b8ff" stroke="#63b8ff" points="609.86,-21.78 599.59,-19.17 605.99,-27.61 609.86,-21.78"/>
</a>
</g>
</g>
<!-- Node17&#45;&gt;Node7 -->
<g id="edge23_Node000017_Node000007" class="edge">
<title>Node17&#45;&gt;Node7</title>
<g id="a_edge23_Node000017_Node000007"><a xlink:title=" ">
<path fill="none" stroke="#63b8ff" d="M493.1,-164.98C462.11,-156.01 413.12,-141.82 378.83,-131.89"/>
<polygon fill="#63b8ff" stroke="#63b8ff" points="379.71,-128.5 369.13,-129.08 377.76,-135.23 379.71,-128.5"/>
</a>
</g>
</g>
<!-- Node17&#45;&gt;Node8 -->
<g id="edge22_Node000017_Node000008" class="edge">
<title>Node17&#45;&gt;Node8</title>
<g id="a_edge22_Node000017_Node000008"><a xlink:title=" ">
<path fill="none" stroke="#63b8ff" d="M497.65,-164.92C470.4,-154.09 432.53,-133.94 448.5,-110 457.3,-96.81 495.84,-82.99 524.15,-74.32"/>
<polygon fill="#63b8ff" stroke="#63b8ff" points="525.46,-77.58 534.04,-71.37 523.46,-70.87 525.46,-77.58"/>
</a>
</g>
</g>
<!-- Node18 -->
<g id="Node000018" class="node">
<title>Node18</title>
<g id="a_Node000018"><a xlink:href="tri__mesh_2local__id__table__offset_8hxx.html" target="_top" xlink:title=" ">
<polygon fill="white" stroke="#666666" points="595.5,-129 457.5,-129 457.5,-110 595.5,-110 595.5,-129"/>
<text text-anchor="middle" x="526.5" y="-117" font-family="Helvetica,sans-Serif" font-size="10.00">local_id_table_offset.hxx</text>
</a>
</g>
</g>
<!-- Node17&#45;&gt;Node18 -->
<g id="edge24_Node000017_Node000018" class="edge">
<title>Node17&#45;&gt;Node18</title>
<g id="a_edge24_Node000017_Node000018"><a xlink:title=" ">
<path fill="none" stroke="#63b8ff" d="M523.16,-164.75C523.68,-157.8 524.44,-147.85 525.09,-139.13"/>
<polygon fill="#63b8ff" stroke="#63b8ff" points="528.59,-139.32 525.85,-129.09 521.61,-138.8 528.59,-139.32"/>
</a>
</g>
</g>
<!-- Node18&#45;&gt;Node16 -->
<g id="edge25_Node000018_Node000016" class="edge">
<title>Node18&#45;&gt;Node16</title>
<g id="a_edge25_Node000018_Node000016"><a xlink:title=" ">
<path fill="none" stroke="#63b8ff" d="M548.99,-109.98C572.02,-101.27 608.04,-87.63 634.13,-77.75"/>
<polygon fill="#63b8ff" stroke="#63b8ff" points="635.48,-80.98 643.6,-74.17 633.01,-74.44 635.48,-80.98"/>
</a>
</g>
</g>
<!-- Node20 -->
<g id="Node000020" class="node">
<title>Node20</title>
<g id="a_Node000020"><a xlink:href="tri__mesh_2tuple__from__permutation__index_8hxx.html" target="_top" xlink:title=" ">
<polygon fill="white" stroke="#666666" points="397,-250 262,-250 262,-220 397,-220 397,-250"/>
<text text-anchor="start" x="270" y="-238" font-family="Helvetica,sans-Serif" font-size="10.00">tuple_from_permutation</text>
<text text-anchor="middle" x="329.5" y="-227" font-family="Helvetica,sans-Serif" font-size="10.00">_index.hxx</text>
</a>
</g>
</g>
<!-- Node19&#45;&gt;Node20 -->
<g id="edge27_Node000019_Node000020" class="edge">
<title>Node19&#45;&gt;Node20</title>
<g id="a_edge27_Node000019_Node000020"><a xlink:title=" ">
<path fill="none" stroke="#63b8ff" d="M323.78,-285.8C322.8,-278.26 322.52,-268.78 322.93,-260.13"/>
<polygon fill="#63b8ff" stroke="#63b8ff" points="326.42,-260.43 323.79,-250.16 319.45,-259.83 326.42,-260.43"/>
</a>
</g>
</g>
<!-- Node20&#45;&gt;Node16 -->
<g id="edge28_Node000020_Node000016" class="edge">
<title>Node20&#45;&gt;Node16</title>
<g id="a_edge28_Node000020_Node000016"><a xlink:title=" ">
<path fill="none" stroke="#63b8ff" d="M397.1,-224.59C471.9,-213.69 584.13,-195.75 600.5,-184 634.98,-159.25 653.63,-110.61 661.64,-83.98"/>
<polygon fill="#63b8ff" stroke="#63b8ff" points="665.1,-84.63 664.44,-74.06 658.36,-82.73 665.1,-84.63"/>
</a>
</g>
</g>
<!-- Node20&#45;&gt;Node19 -->
<g id="edge29_Node000020_Node000019" class="edge">
<title>Node20&#45;&gt;Node19</title>
<g id="a_edge29_Node000020_Node000019"><a xlink:title=" ">
<path fill="none" stroke="#63b8ff" d="M335.21,-250.16C336.19,-257.7 336.48,-267.17 336.07,-275.83"/>
<polygon fill="#63b8ff" stroke="#63b8ff" points="332.58,-275.54 335.22,-285.8 339.55,-276.13 332.58,-275.54"/>
</a>
</g>
</g>
<!-- Node21&#45;&gt;Node7 -->
<g id="edge31_Node000021_Node000007" class="edge">
<title>Node21&#45;&gt;Node7</title>
<g id="a_edge31_Node000021_Node000007"><a xlink:title=" ">
<path fill="none" stroke="#63b8ff" d="M485.53,-285.88C473.7,-276.25 458.12,-262.95 445.5,-250 408.65,-212.2 370.72,-162.83 351.8,-137.35"/>
<polygon fill="#63b8ff" stroke="#63b8ff" points="354.47,-135.08 345.72,-129.11 348.84,-139.23 354.47,-135.08"/>
</a>
</g>
</g>
<!-- Node22 -->
<g id="Node000022" class="node">
<title>Node22</title>
<g id="a_Node000022"><a xlink:href="tri__mesh_2permutation__index__from__tuple_8hxx.html" target="_top" xlink:title=" ">
<polygon fill="white" stroke="#666666" points="591,-250 454,-250 454,-220 591,-220 591,-250"/>
<text text-anchor="start" x="462" y="-238" font-family="Helvetica,sans-Serif" font-size="10.00">permutation_index_from</text>
<text text-anchor="middle" x="522.5" y="-227" font-family="Helvetica,sans-Serif" font-size="10.00">_tuple.hxx</text>
</a>
</g>
</g>
<!-- Node21&#45;&gt;Node22 -->
<g id="edge32_Node000021_Node000022" class="edge">
<title>Node21&#45;&gt;Node22</title>
<g id="a_edge32_Node000021_Node000022"><a xlink:title=" ">
<path fill="none" stroke="#63b8ff" d="M502,-285.8C503.29,-278.09 505.9,-268.37 508.97,-259.56"/>
<polygon fill="#63b8ff" stroke="#63b8ff" points="512.26,-260.75 512.58,-250.16 505.73,-258.24 512.26,-260.75"/>
</a>
</g>
</g>
<!-- Node22&#45;&gt;Node16 -->
<g id="edge33_Node000022_Node000016" class="edge">
<title>Node22&#45;&gt;Node16</title>
<g id="a_edge33_Node000022_Node000016"><a xlink:title=" ">
<path fill="none" stroke="#63b8ff" d="M581.74,-219.92C602.03,-212.37 623.19,-200.98 637.5,-184 661.65,-155.35 666.27,-109.71 666.82,-84.24"/>
<polygon fill="#63b8ff" stroke="#63b8ff" points="670.32,-84.1 666.84,-74.09 663.32,-84.08 670.32,-84.1"/>
</a>
</g>
</g>
<!-- Node22&#45;&gt;Node17 -->
<g id="edge34_Node000022_Node000017" class="edge">
<title>Node22&#45;&gt;Node17</title>
<g id="a_edge34_Node000022_Node000017"><a xlink:title=" ">
<path fill="none" stroke="#63b8ff" d="M522.5,-219.84C522.5,-212.21 522.5,-202.7 522.5,-194.45"/>
<polygon fill="#63b8ff" stroke="#63b8ff" points="526,-194.27 522.5,-184.27 519,-194.27 526,-194.27"/>
</a>
</g>
</g>
<!-- Node22&#45;&gt;Node21 -->
<g id="edge35_Node000022_Node000021" class="edge">
<title>Node22&#45;&gt;Node21</title>
<g id="a_edge35_Node000022_Node000021"><a xlink:title=" ">
<path fill="none" stroke="#63b8ff" d="M524.01,-250.16C522.73,-257.86 520.11,-267.59 517.05,-276.39"/>
<polygon fill="#63b8ff" stroke="#63b8ff" points="513.75,-275.21 513.44,-285.8 520.29,-277.72 513.75,-275.21"/>
</a>
</g>
</g>
</g>
</svg>
