<?xml version="1.0" encoding="UTF-8" standalone="no"?>
<!DOCTYPE svg PUBLIC "-//W3C//DTD SVG 1.1//EN"
 "http://www.w3.org/Graphics/SVG/1.1/DTD/svg11.dtd">
<!-- Generated by graphviz version 2.43.0 (0)
 -->
<!-- Title: src/wmtk/simplex/internal/boundary_with_preserved_face.hpp Pages: 1 -->
<svg width="574pt" height="269pt"
 viewBox="0.00 0.00 574.00 269.00" xmlns="http://www.w3.org/2000/svg" xmlns:xlink="http://www.w3.org/1999/xlink">
<g id="graph0" class="graph" transform="scale(1 1) rotate(0) translate(4 265)">
<title>src/wmtk/simplex/internal/boundary_with_preserved_face.hpp</title>
<!-- Node1 -->
<g id="Node000001" class="node">
<title>Node1</title>
<g id="a_Node000001"><a xlink:title=" ">
<polygon fill="#999999" stroke="#666666" points="305.5,-261 159.5,-261 159.5,-220 305.5,-220 305.5,-261"/>
<text text-anchor="start" x="167.5" y="-249" font-family="Helvetica,sans-Serif" font-size="10.00">src/wmtk/simplex/internal</text>
<text text-anchor="start" x="167.5" y="-238" font-family="Helvetica,sans-Serif" font-size="10.00">/boundary_with_preserved</text>
<text text-anchor="middle" x="232.5" y="-227" font-family="Helvetica,sans-Serif" font-size="10.00">_face.hpp</text>
</a>
</g>
</g>
<!-- Node2 -->
<g id="Node000002" class="node">
<title>Node2</title>
<g id="a_Node000002"><a xlink:href="_simplex_8hpp.html" target="_top" xlink:title=" ">
<polygon fill="white" stroke="#666666" points="307.5,-184 157.5,-184 157.5,-165 307.5,-165 307.5,-184"/>
<text text-anchor="middle" x="232.5" y="-172" font-family="Helvetica,sans-Serif" font-size="10.00">wmtk/simplex/Simplex.hpp</text>
</a>
</g>
</g>
<!-- Node1&#45;&gt;Node2 -->
<g id="edge1_Node000001_Node000002" class="edge">
<title>Node1&#45;&gt;Node2</title>
<g id="a_edge1_Node000001_Node000002"><a xlink:title=" ">
<path fill="none" stroke="#63b8ff" d="M232.5,-219.95C232.5,-211.85 232.5,-202.5 232.5,-194.47"/>
<polygon fill="#63b8ff" stroke="#63b8ff" points="236,-194.26 232.5,-184.26 229,-194.26 236,-194.26"/>
</a>
</g>
</g>
<!-- Node3 -->
<g id="Node000003" class="node">
<title>Node3</title>
<g id="a_Node000003"><a xlink:href="_primitive_type_8hpp.html" target="_top" xlink:title=" ">
<polygon fill="white" stroke="#666666" points="247,-74 112,-74 112,-55 247,-55 247,-74"/>
<text text-anchor="middle" x="179.5" y="-62" font-family="Helvetica,sans-Serif" font-size="10.00">wmtk/PrimitiveType.hpp</text>
</a>
</g>
</g>
<!-- Node2&#45;&gt;Node3 -->
<g id="edge2_Node000002_Node000003" class="edge">
<title>Node2&#45;&gt;Node3</title>
<g id="a_edge2_Node000002_Node000003"><a xlink:title=" ">
<path fill="none" stroke="#63b8ff" d="M228.16,-164.66C219.46,-146.93 199.73,-106.73 188.24,-83.32"/>
<polygon fill="#63b8ff" stroke="#63b8ff" points="191.3,-81.59 183.75,-74.16 185.01,-84.68 191.3,-81.59"/>
</a>
</g>
</g>
<!-- Node7 -->
<g id="Node000007" class="node">
<title>Node7</title>
<g id="a_Node000007"><a xlink:href="_tuple_8hpp.html" target="_top" xlink:title=" ">
<polygon fill="white" stroke="#666666" points="333.5,-129 239.5,-129 239.5,-110 333.5,-110 333.5,-129"/>
<text text-anchor="middle" x="286.5" y="-117" font-family="Helvetica,sans-Serif" font-size="10.00">wmtk/Tuple.hpp</text>
</a>
</g>
</g>
<!-- Node2&#45;&gt;Node7 -->
<g id="edge6_Node000002_Node000007" class="edge">
<title>Node2&#45;&gt;Node7</title>
<g id="a_edge6_Node000002_Node000007"><a xlink:title=" ">
<path fill="none" stroke="#63b8ff" d="M241.42,-164.75C249.28,-157.03 260.93,-145.6 270.42,-136.28"/>
<polygon fill="#63b8ff" stroke="#63b8ff" points="273.06,-138.59 277.75,-129.09 268.16,-133.6 273.06,-138.59"/>
</a>
</g>
</g>
<!-- Node4 -->
<g id="Node000004" class="node">
<title>Node4</title>
<g id="a_Node000004"><a xlink:title=" ">
<polygon fill="#e0e0e0" stroke="#999999" points="65,-19 0,-19 0,0 65,0 65,-19"/>
<text text-anchor="middle" x="32.5" y="-7" font-family="Helvetica,sans-Serif" font-size="10.00">stdexcept</text>
</a>
</g>
</g>
<!-- Node3&#45;&gt;Node4 -->
<g id="edge3_Node000003_Node000004" class="edge">
<title>Node3&#45;&gt;Node4</title>
<g id="a_edge3_Node000003_Node000004"><a xlink:title=" ">
<path fill="none" stroke="#63b8ff" d="M155.88,-54.98C131.6,-46.23 93.55,-32.51 66.13,-22.62"/>
<polygon fill="#63b8ff" stroke="#63b8ff" points="67.14,-19.27 56.55,-19.17 64.77,-25.85 67.14,-19.27"/>
</a>
</g>
</g>
<!-- Node5 -->
<g id="Node000005" class="node">
<title>Node5</title>
<g id="a_Node000005"><a xlink:title=" ">
<polygon fill="#e0e0e0" stroke="#999999" points="156,-19 83,-19 83,0 156,0 156,-19"/>
<text text-anchor="middle" x="119.5" y="-7" font-family="Helvetica,sans-Serif" font-size="10.00">string_view</text>
</a>
</g>
</g>
<!-- Node3&#45;&gt;Node5 -->
<g id="edge4_Node000003_Node000005" class="edge">
<title>Node3&#45;&gt;Node5</title>
<g id="a_edge4_Node000003_Node000005"><a xlink:title=" ">
<path fill="none" stroke="#63b8ff" d="M169.86,-54.98C160.99,-47.15 147.63,-35.34 136.89,-25.86"/>
<polygon fill="#63b8ff" stroke="#63b8ff" points="139.13,-23.17 129.32,-19.17 134.49,-28.41 139.13,-23.17"/>
</a>
</g>
</g>
<!-- Node6 -->
<g id="Node000006" class="node">
<title>Node6</title>
<g id="a_Node000006"><a xlink:title=" ">
<polygon fill="#e0e0e0" stroke="#999999" points="221,-19 174,-19 174,0 221,0 221,-19"/>
<text text-anchor="middle" x="197.5" y="-7" font-family="Helvetica,sans-Serif" font-size="10.00">vector</text>
</a>
</g>
</g>
<!-- Node3&#45;&gt;Node6 -->
<g id="edge5_Node000003_Node000006" class="edge">
<title>Node3&#45;&gt;Node6</title>
<g id="a_edge5_Node000003_Node000006"><a xlink:title=" ">
<path fill="none" stroke="#63b8ff" d="M182.47,-54.75C184.86,-47.72 188.29,-37.62 191.27,-28.84"/>
<polygon fill="#63b8ff" stroke="#63b8ff" points="194.68,-29.68 194.58,-19.09 188.05,-27.43 194.68,-29.68"/>
</a>
</g>
</g>
<!-- Node7&#45;&gt;Node3 -->
<g id="edge8_Node000007_Node000003" class="edge">
<title>Node7&#45;&gt;Node3</title>
<g id="a_edge8_Node000007_Node000003"><a xlink:title=" ">
<path fill="none" stroke="#63b8ff" d="M269.31,-109.98C252.25,-101.54 225.87,-88.47 206.1,-78.68"/>
<polygon fill="#63b8ff" stroke="#63b8ff" points="207.52,-75.47 197,-74.17 204.41,-81.75 207.52,-75.47"/>
</a>
</g>
</g>
<!-- Node8 -->
<g id="Node000008" class="node">
<title>Node8</title>
<g id="a_Node000008"><a xlink:title=" ">
<polygon fill="#e0e0e0" stroke="#999999" points="307.5,-74 265.5,-74 265.5,-55 307.5,-55 307.5,-74"/>
<text text-anchor="middle" x="286.5" y="-62" font-family="Helvetica,sans-Serif" font-size="10.00">array</text>
</a>
</g>
</g>
<!-- Node7&#45;&gt;Node8 -->
<g id="edge7_Node000007_Node000008" class="edge">
<title>Node7&#45;&gt;Node8</title>
<g id="a_edge7_Node000007_Node000008"><a xlink:title=" ">
<path fill="none" stroke="#63b8ff" d="M286.5,-109.75C286.5,-102.8 286.5,-92.85 286.5,-84.13"/>
<polygon fill="#63b8ff" stroke="#63b8ff" points="290,-84.09 286.5,-74.09 283,-84.09 290,-84.09"/>
</a>
</g>
</g>
<!-- Node9 -->
<g id="Node000009" class="node">
<title>Node9</title>
<g id="a_Node000009"><a xlink:href="_tuple_8hxx.html" target="_top" xlink:title=" ">
<polygon fill="white" stroke="#666666" points="389,-74 326,-74 326,-55 389,-55 389,-74"/>
<text text-anchor="middle" x="357.5" y="-62" font-family="Helvetica,sans-Serif" font-size="10.00">Tuple.hxx</text>
</a>
</g>
</g>
<!-- Node7&#45;&gt;Node9 -->
<g id="edge9_Node000007_Node000009" class="edge">
<title>Node7&#45;&gt;Node9</title>
<g id="a_edge9_Node000007_Node000009"><a xlink:title=" ">
<path fill="none" stroke="#63b8ff" d="M292.79,-109.98C301.9,-101.84 318.24,-89.41 332.33,-79.76"/>
<polygon fill="#63b8ff" stroke="#63b8ff" points="334.35,-82.62 340.74,-74.17 330.47,-76.79 334.35,-82.62"/>
</a>
</g>
</g>
<!-- Node9&#45;&gt;Node7 -->
<g id="edge15_Node000009_Node000007" class="edge">
<title>Node9&#45;&gt;Node7</title>
<g id="a_edge15_Node000009_Node000007"><a xlink:title=" ">
<path fill="none" stroke="#63b8ff" d="M351.03,-74.17C341.83,-82.37 325.46,-94.81 311.4,-104.42"/>
<polygon fill="#63b8ff" stroke="#63b8ff" points="309.42,-101.54 303.02,-109.98 313.29,-107.37 309.42,-101.54"/>
</a>
</g>
</g>
<!-- Node10 -->
<g id="Node000010" class="node">
<title>Node10</title>
<g id="a_Node000010"><a xlink:title=" ">
<polygon fill="#e0e0e0" stroke="#999999" points="292,-19 239,-19 239,0 292,0 292,-19"/>
<text text-anchor="middle" x="265.5" y="-7" font-family="Helvetica,sans-Serif" font-size="10.00">cstddef</text>
</a>
</g>
</g>
<!-- Node9&#45;&gt;Node10 -->
<g id="edge10_Node000009_Node000010" class="edge">
<title>Node9&#45;&gt;Node10</title>
<g id="a_edge10_Node000009_Node000010"><a xlink:title=" ">
<path fill="none" stroke="#63b8ff" d="M342.72,-54.98C328.32,-46.69 306.19,-33.94 289.31,-24.22"/>
<polygon fill="#63b8ff" stroke="#63b8ff" points="290.96,-21.13 280.55,-19.17 287.47,-27.19 290.96,-21.13"/>
</a>
</g>
</g>
<!-- Node11 -->
<g id="Node000011" class="node">
<title>Node11</title>
<g id="a_Node000011"><a xlink:title=" ">
<polygon fill="#e0e0e0" stroke="#999999" points="370.5,-19 310.5,-19 310.5,0 370.5,0 370.5,-19"/>
<text text-anchor="middle" x="340.5" y="-7" font-family="Helvetica,sans-Serif" font-size="10.00">iostream</text>
</a>
</g>
</g>
<!-- Node9&#45;&gt;Node11 -->
<g id="edge11_Node000009_Node000011" class="edge">
<title>Node9&#45;&gt;Node11</title>
<g id="a_edge11_Node000009_Node000011"><a xlink:title=" ">
<path fill="none" stroke="#63b8ff" d="M354.69,-54.75C352.44,-47.72 349.2,-37.62 346.38,-28.84"/>
<polygon fill="#63b8ff" stroke="#63b8ff" points="349.64,-27.54 343.25,-19.09 342.98,-29.68 349.64,-27.54"/>
</a>
</g>
</g>
<!-- Node12 -->
<g id="Node000012" class="node">
<title>Node12</title>
<g id="a_Node000012"><a xlink:title=" ">
<polygon fill="#e0e0e0" stroke="#999999" points="444.5,-19 388.5,-19 388.5,0 444.5,0 444.5,-19"/>
<text text-anchor="middle" x="416.5" y="-7" font-family="Helvetica,sans-Serif" font-size="10.00">optional</text>
</a>
</g>
</g>
<!-- Node9&#45;&gt;Node12 -->
<g id="edge12_Node000009_Node000012" class="edge">
<title>Node9&#45;&gt;Node12</title>
<g id="a_edge12_Node000009_Node000012"><a xlink:title=" ">
<path fill="none" stroke="#63b8ff" d="M366.98,-54.98C375.7,-47.15 388.84,-35.34 399.4,-25.86"/>
<polygon fill="#63b8ff" stroke="#63b8ff" points="401.75,-28.46 406.85,-19.17 397.07,-23.25 401.75,-28.46"/>
</a>
</g>
</g>
<!-- Node13 -->
<g id="Node000013" class="node">
<title>Node13</title>
<g id="a_Node000013"><a xlink:title=" ">
<polygon fill="#e0e0e0" stroke="#999999" points="506.5,-19 462.5,-19 462.5,0 506.5,0 506.5,-19"/>
<text text-anchor="middle" x="484.5" y="-7" font-family="Helvetica,sans-Serif" font-size="10.00">string</text>
</a>
</g>
</g>
<!-- Node9&#45;&gt;Node13 -->
<g id="edge13_Node000009_Node000013" class="edge">
<title>Node9&#45;&gt;Node13</title>
<g id="a_edge13_Node000009_Node000013"><a xlink:title=" ">
<path fill="none" stroke="#63b8ff" d="M377.9,-54.98C398.52,-46.38 430.61,-32.99 454.19,-23.15"/>
<polygon fill="#63b8ff" stroke="#63b8ff" points="455.84,-26.25 463.72,-19.17 453.15,-19.79 455.84,-26.25"/>
</a>
</g>
</g>
<!-- Node14 -->
<g id="Node000014" class="node">
<title>Node14</title>
<g id="a_Node000014"><a xlink:title=" ">
<polygon fill="#e0e0e0" stroke="#999999" points="566,-19 525,-19 525,0 566,0 566,-19"/>
<text text-anchor="middle" x="545.5" y="-7" font-family="Helvetica,sans-Serif" font-size="10.00">tuple</text>
</a>
</g>
</g>
<!-- Node9&#45;&gt;Node14 -->
<g id="edge14_Node000009_Node000014" class="edge">
<title>Node9&#45;&gt;Node14</title>
<g id="a_edge14_Node000009_Node000014"><a xlink:title=" ">
<path fill="none" stroke="#63b8ff" d="M387.79,-54.98C417.68,-46.58 464.91,-33.28 515.11,-19.11"/>
<polygon fill="#63b8ff" stroke="#63b8ff" points="516.17,-22.44 524.84,-16.36 514.27,-15.71 516.17,-22.44"/>
</a>
</g>
</g>
</g>
</svg>
