<?xml version="1.0" encoding="UTF-8" standalone="no"?>
<!DOCTYPE svg PUBLIC "-//W3C//DTD SVG 1.1//EN"
 "http://www.w3.org/Graphics/SVG/1.1/DTD/svg11.dtd">
<!-- Generated by graphviz version 2.43.0 (0)
 -->
<!-- Title: wmtk::function::PerSimplexAutodiffFunction::get_coordinates Pages: 1 -->
<svg width="990pt" height="451pt"
 viewBox="0.00 0.00 990.00 451.00" xmlns="http://www.w3.org/2000/svg" xmlns:xlink="http://www.w3.org/1999/xlink">
<g id="graph0" class="graph" transform="scale(1 1) rotate(0) translate(4 447)">
<title>wmtk::function::PerSimplexAutodiffFunction::get_coordinates</title>
<!-- Node1 -->
<g id="Node000001" class="node">
<title>Node1</title>
<g id="a_Node000001"><a xlink:title=" ">
<polygon fill="#999999" stroke="#666666" points="180,-102 0,-102 0,-72 180,-72 180,-102"/>
<text text-anchor="start" x="8" y="-90" font-family="Helvetica,sans-Serif" font-size="10.00">wmtk::function::PerSimplex</text>
<text text-anchor="middle" x="90" y="-79" font-family="Helvetica,sans-Serif" font-size="10.00">AutodiffFunction::get_coordinates</text>
</a>
</g>
</g>
<!-- Node2 -->
<g id="Node000002" class="node">
<title>Node2</title>
<g id="a_Node000002"><a xlink:href="namespacewmtk_1_1function_1_1utils.html#a10708966079a04e25ba0ea7953479662" target="_top" xlink:title="get attributes from a simplex">
<polygon fill="white" stroke="#666666" points="359.5,-217 224.5,-217 224.5,-187 359.5,-187 359.5,-217"/>
<text text-anchor="start" x="232.5" y="-205" font-family="Helvetica,sans-Serif" font-size="10.00">wmtk::function::utils</text>
<text text-anchor="middle" x="292" y="-194" font-family="Helvetica,sans-Serif" font-size="10.00">::get_simplex_attributes</text>
</a>
</g>
</g>
<!-- Node1&#45;&gt;Node2 -->
<g id="edge1_Node000001_Node000002" class="edge">
<title>Node1&#45;&gt;Node2</title>
<g id="a_edge1_Node000001_Node000002"><a xlink:title=" ">
<path fill="none" stroke="#63b8ff" d="M117.15,-102.03C152.71,-122.48 216.42,-159.11 256.05,-181.9"/>
<polygon fill="#63b8ff" stroke="#63b8ff" points="254.43,-185.01 264.85,-186.96 257.92,-178.94 254.43,-185.01"/>
</a>
</g>
</g>
<!-- Node17 -->
<g id="Node000017" class="node">
<title>Node17</title>
<g id="a_Node000017"><a xlink:href="classwmtk_1_1simplex_1_1_simplex.html#aca78b1fb0a3c28c0036cf7919bfb0789" target="_top" xlink:title=" ">
<polygon fill="white" stroke="#666666" points="575.5,-30 440.5,-30 440.5,0 575.5,0 575.5,-30"/>
<text text-anchor="start" x="448.5" y="-18" font-family="Helvetica,sans-Serif" font-size="10.00">wmtk::simplex::Simplex</text>
<text text-anchor="middle" x="508" y="-7" font-family="Helvetica,sans-Serif" font-size="10.00">::tuple</text>
</a>
</g>
</g>
<!-- Node1&#45;&gt;Node17 -->
<g id="edge21_Node000001_Node000017" class="edge">
<title>Node1&#45;&gt;Node17</title>
<g id="a_edge21_Node000001_Node000017"><a xlink:title=" ">
<path fill="none" stroke="#63b8ff" d="M180.05,-94.25C235.87,-95.6 308.31,-91.38 368,-68 387.13,-60.51 385.53,-48 404,-39 412.39,-34.91 421.51,-31.5 430.74,-28.66"/>
<polygon fill="#63b8ff" stroke="#63b8ff" points="431.72,-32.02 440.37,-25.9 429.79,-25.29 431.72,-32.02"/>
</a>
</g>
</g>
<!-- Node18 -->
<g id="Node000018" class="node">
<title>Node18</title>
<g id="a_Node000018"><a xlink:href="classwmtk_1_1function_1_1_per_simplex_function.html#aee3c5642be133dfe8986e52003372178" target="_top" xlink:title=" ">
<polygon fill="white" stroke="#666666" points="368,-59 216,-59 216,-29 368,-29 368,-59"/>
<text text-anchor="start" x="224" y="-47" font-family="Helvetica,sans-Serif" font-size="10.00">wmtk::function::PerSimplex</text>
<text text-anchor="middle" x="292" y="-36" font-family="Helvetica,sans-Serif" font-size="10.00">Function::mesh</text>
</a>
</g>
</g>
<!-- Node1&#45;&gt;Node18 -->
<g id="edge20_Node000001_Node000018" class="edge">
<title>Node1&#45;&gt;Node18</title>
<g id="a_edge20_Node000001_Node000018"><a xlink:title=" ">
<path fill="none" stroke="#63b8ff" d="M160.95,-71.96C177.09,-68.49 194.38,-64.77 210.91,-61.22"/>
<polygon fill="#63b8ff" stroke="#63b8ff" points="212.05,-64.55 221.09,-59.03 210.58,-57.71 212.05,-64.55"/>
</a>
</g>
</g>
<!-- Node3 -->
<g id="Node000003" class="node">
<title>Node3</title>
<g id="a_Node000003"><a xlink:href="classwmtk_1_1simplex_1_1_simplex_collection.html#a82338aad6cf6d613871fdb0d7e375a03" target="_top" xlink:title=" ">
<polygon fill="white" stroke="#666666" points="600,-443 416,-443 416,-413 600,-413 600,-443"/>
<text text-anchor="start" x="424" y="-431" font-family="Helvetica,sans-Serif" font-size="10.00">wmtk::simplex::SimplexCollection</text>
<text text-anchor="middle" x="508" y="-420" font-family="Helvetica,sans-Serif" font-size="10.00">::begin</text>
</a>
</g>
</g>
<!-- Node2&#45;&gt;Node3 -->
<g id="edge2_Node000002_Node000003" class="edge">
<title>Node2&#45;&gt;Node3</title>
<g id="a_edge2_Node000002_Node000003"><a xlink:title=" ">
<path fill="none" stroke="#63b8ff" d="M296.75,-217.23C306.93,-255.21 338.79,-354.57 404,-404 405.84,-405.4 407.75,-406.71 409.72,-407.96"/>
<polygon fill="#63b8ff" stroke="#63b8ff" points="408.24,-411.14 418.68,-412.94 411.64,-405.02 408.24,-411.14"/>
</a>
</g>
</g>
<!-- Node4 -->
<g id="Node000004" class="node">
<title>Node4</title>
<g id="a_Node000004"><a xlink:href="classwmtk_1_1simplex_1_1_simplex_collection.html#aa4a2675404c8e8c1c3fd5a5e34042969" target="_top" xlink:title=" ">
<polygon fill="white" stroke="#666666" points="612,-394.5 404,-394.5 404,-375.5 612,-375.5 612,-394.5"/>
<text text-anchor="middle" x="508" y="-382.5" font-family="Helvetica,sans-Serif" font-size="10.00">wmtk::simplex::SimplexCollection::end</text>
</a>
</g>
</g>
<!-- Node2&#45;&gt;Node4 -->
<g id="edge3_Node000002_Node000004" class="edge">
<title>Node2&#45;&gt;Node4</title>
<g id="a_edge3_Node000002_Node000004"><a xlink:title=" ">
<path fill="none" stroke="#63b8ff" d="M298.39,-217.08C311.09,-250.24 346.23,-329.5 404,-367 406.35,-368.52 408.78,-369.93 411.29,-371.22"/>
<polygon fill="#63b8ff" stroke="#63b8ff" points="410.09,-374.52 420.65,-375.45 412.97,-368.14 410.09,-374.52"/>
</a>
</g>
</g>
<!-- Node5 -->
<g id="Node000005" class="node">
<title>Node5</title>
<g id="a_Node000005"><a xlink:href="classwmtk_1_1simplex_1_1utils_1_1_simplex_comparisons.html#a855a7009bb50500e9b336a05d424b34d" target="_top" xlink:title=" ">
<polygon fill="white" stroke="#666666" points="571,-357.5 445,-357.5 445,-316.5 571,-316.5 571,-357.5"/>
<text text-anchor="start" x="453" y="-345.5" font-family="Helvetica,sans-Serif" font-size="10.00">wmtk::simplex::utils</text>
<text text-anchor="start" x="453" y="-334.5" font-family="Helvetica,sans-Serif" font-size="10.00">::SimplexComparisons</text>
<text text-anchor="middle" x="508" y="-323.5" font-family="Helvetica,sans-Serif" font-size="10.00">::equal</text>
</a>
</g>
</g>
<!-- Node2&#45;&gt;Node5 -->
<g id="edge4_Node000002_Node000005" class="edge">
<title>Node2&#45;&gt;Node5</title>
<g id="a_edge4_Node000002_Node000005"><a xlink:title=" ">
<path fill="none" stroke="#63b8ff" d="M306.22,-217.32C325.64,-238.98 363.95,-278.51 404,-302 413.7,-307.69 424.46,-312.63 435.27,-316.85"/>
<polygon fill="#63b8ff" stroke="#63b8ff" points="434.16,-320.17 444.75,-320.39 436.6,-313.61 434.16,-320.17"/>
</a>
</g>
</g>
<!-- Node8 -->
<g id="Node000008" class="node">
<title>Node8</title>
<g id="a_Node000008"><a xlink:href="classwmtk_1_1simplex_1_1_simplex.html#ad2cc0340a0772b7d6f03ba7a781d1163" target="_top" xlink:title=" ">
<polygon fill="white" stroke="#666666" points="800.5,-315 665.5,-315 665.5,-285 800.5,-285 800.5,-315"/>
<text text-anchor="start" x="673.5" y="-303" font-family="Helvetica,sans-Serif" font-size="10.00">wmtk::simplex::Simplex</text>
<text text-anchor="middle" x="733" y="-292" font-family="Helvetica,sans-Serif" font-size="10.00">::primitive_type</text>
</a>
</g>
</g>
<!-- Node2&#45;&gt;Node8 -->
<g id="edge16_Node000002_Node000008" class="edge">
<title>Node2&#45;&gt;Node8</title>
<g id="a_edge16_Node000002_Node000008"><a xlink:title=" ">
<path fill="none" stroke="#63b8ff" d="M312.12,-217.26C333.25,-233.19 368.94,-257.44 404,-269 486.8,-296.31 587.28,-302.09 655.03,-302.3"/>
<polygon fill="#63b8ff" stroke="#63b8ff" points="655.2,-305.8 665.2,-302.29 655.2,-298.8 655.2,-305.8"/>
</a>
</g>
</g>
<!-- Node9 -->
<g id="Node000009" class="node">
<title>Node9</title>
<g id="a_Node000009"><a xlink:href="namespacewmtk_1_1simplex.html#aedab544fbb3e4c417608c0b5371e94d9" target="_top" xlink:title=" ">
<polygon fill="white" stroke="#666666" points="579.5,-260 436.5,-260 436.5,-230 579.5,-230 579.5,-260"/>
<text text-anchor="start" x="444.5" y="-248" font-family="Helvetica,sans-Serif" font-size="10.00">wmtk::simplex::faces</text>
<text text-anchor="middle" x="508" y="-237" font-family="Helvetica,sans-Serif" font-size="10.00">_single_dimension_tuples</text>
</a>
</g>
</g>
<!-- Node2&#45;&gt;Node9 -->
<g id="edge8_Node000002_Node000009" class="edge">
<title>Node2&#45;&gt;Node9</title>
<g id="a_edge8_Node000002_Node000009"><a xlink:title=" ">
<path fill="none" stroke="#63b8ff" d="M359.54,-215.37C380.71,-219.62 404.36,-224.38 426.42,-228.81"/>
<polygon fill="#63b8ff" stroke="#63b8ff" points="425.93,-232.28 436.43,-230.82 427.31,-225.42 425.93,-232.28"/>
</a>
</g>
</g>
<!-- Node13 -->
<g id="Node000013" class="node">
<title>Node13</title>
<g id="a_Node000013"><a xlink:href="classwmtk_1_1_mesh.html#a56d57041196b23cfa33661c9488c9c4b" target="_top" xlink:title="TODO this needs dimension?">
<polygon fill="white" stroke="#666666" points="565.5,-211.5 450.5,-211.5 450.5,-192.5 565.5,-192.5 565.5,-211.5"/>
<text text-anchor="middle" x="508" y="-199.5" font-family="Helvetica,sans-Serif" font-size="10.00">wmtk::Mesh::is_ccw</text>
</a>
</g>
</g>
<!-- Node2&#45;&gt;Node13 -->
<g id="edge14_Node000002_Node000013" class="edge">
<title>Node2&#45;&gt;Node13</title>
<g id="a_edge14_Node000002_Node000013"><a xlink:title=" ">
<path fill="none" stroke="#63b8ff" d="M359.54,-202C385.21,-202 414.52,-202 440.22,-202"/>
<polygon fill="#63b8ff" stroke="#63b8ff" points="440.24,-205.5 450.24,-202 440.24,-198.5 440.24,-205.5"/>
</a>
</g>
</g>
<!-- Node14 -->
<g id="Node000014" class="node">
<title>Node14</title>
<g id="a_Node000014"><a xlink:href="classwmtk_1_1_mesh.html#ab832ace56e7e07d16291ad568f3d73d9" target="_top" xlink:title=" ">
<polygon fill="white" stroke="#666666" points="563.5,-174 452.5,-174 452.5,-144 563.5,-144 563.5,-174"/>
<text text-anchor="start" x="460.5" y="-162" font-family="Helvetica,sans-Serif" font-size="10.00">wmtk::Mesh::orient</text>
<text text-anchor="middle" x="508" y="-151" font-family="Helvetica,sans-Serif" font-size="10.00">_vertices</text>
</a>
</g>
</g>
<!-- Node2&#45;&gt;Node14 -->
<g id="edge15_Node000002_Node000014" class="edge">
<title>Node2&#45;&gt;Node14</title>
<g id="a_edge15_Node000002_Node000014"><a xlink:title=" ">
<path fill="none" stroke="#63b8ff" d="M359.54,-188.63C385.98,-183.32 416.28,-177.23 442.51,-171.96"/>
<polygon fill="#63b8ff" stroke="#63b8ff" points="443.23,-175.38 452.35,-169.98 441.85,-168.52 443.23,-175.38"/>
</a>
</g>
</g>
<!-- Node15 -->
<g id="Node000015" class="node">
<title>Node15</title>
<g id="a_Node000015"><a xlink:href="classwmtk_1_1simplex_1_1_simplex_collection.html#aa86023a5429af2eaa288fa305399450f" target="_top" xlink:title=" ">
<polygon fill="white" stroke="#666666" points="600,-126 416,-126 416,-96 600,-96 600,-126"/>
<text text-anchor="start" x="424" y="-114" font-family="Helvetica,sans-Serif" font-size="10.00">wmtk::simplex::SimplexCollection</text>
<text text-anchor="middle" x="508" y="-103" font-family="Helvetica,sans-Serif" font-size="10.00">::size</text>
</a>
</g>
</g>
<!-- Node2&#45;&gt;Node15 -->
<g id="edge17_Node000002_Node000015" class="edge">
<title>Node2&#45;&gt;Node15</title>
<g id="a_edge17_Node000002_Node000015"><a xlink:title=" ">
<path fill="none" stroke="#63b8ff" d="M313.64,-186.8C335.18,-171.63 370.43,-148.64 404,-135 409.34,-132.83 414.92,-130.83 420.6,-128.99"/>
<polygon fill="#63b8ff" stroke="#63b8ff" points="421.68,-132.32 430.22,-126.05 419.64,-125.63 421.68,-132.32"/>
</a>
</g>
</g>
<!-- Node16 -->
<g id="Node000016" class="node">
<title>Node16</title>
<g id="a_Node000016"><a xlink:href="classwmtk_1_1_mesh.html#a965a8a24158c4aa8580c57ba09f885f7" target="_top" xlink:title="switch the orientation of the Tuple of the given dimension">
<polygon fill="white" stroke="#666666" points="565,-78 451,-78 451,-48 565,-48 565,-78"/>
<text text-anchor="start" x="459" y="-66" font-family="Helvetica,sans-Serif" font-size="10.00">wmtk::Mesh::switch</text>
<text text-anchor="middle" x="508" y="-55" font-family="Helvetica,sans-Serif" font-size="10.00">_tuple</text>
</a>
</g>
</g>
<!-- Node2&#45;&gt;Node16 -->
<g id="edge18_Node000002_Node000016" class="edge">
<title>Node2&#45;&gt;Node16</title>
<g id="a_edge18_Node000002_Node000016"><a xlink:title=" ">
<path fill="none" stroke="#63b8ff" d="M303.29,-186.62C320.85,-161.63 359.11,-112.47 404,-87 415.33,-80.57 428.28,-75.87 441.1,-72.42"/>
<polygon fill="#63b8ff" stroke="#63b8ff" points="441.96,-75.81 450.84,-70.02 440.29,-69.01 441.96,-75.81"/>
</a>
</g>
</g>
<!-- Node2&#45;&gt;Node17 -->
<g id="edge19_Node000002_Node000017" class="edge">
<title>Node2&#45;&gt;Node17</title>
<g id="a_edge19_Node000002_Node000017"><a xlink:title=" ">
<path fill="none" stroke="#63b8ff" d="M304.99,-186.98C320.27,-167.59 347.22,-132.56 368,-101 385.53,-74.39 378.38,-57.95 404,-39 411.97,-33.1 421.16,-28.63 430.7,-25.23"/>
<polygon fill="#63b8ff" stroke="#63b8ff" points="431.85,-28.54 440.33,-22.19 429.74,-21.87 431.85,-28.54"/>
</a>
</g>
</g>
<!-- Node6 -->
<g id="Node000006" class="node">
<title>Node6</title>
<g id="a_Node000006"><a xlink:href="classwmtk_1_1_mesh.html#a58243712dc3e0d258ad645e7b08870db" target="_top" xlink:title="return the global id of the Tuple of the given dimension">
<polygon fill="white" stroke="#666666" points="779,-352.5 687,-352.5 687,-333.5 779,-333.5 779,-352.5"/>
<text text-anchor="middle" x="733" y="-340.5" font-family="Helvetica,sans-Serif" font-size="10.00">wmtk::Mesh::id</text>
</a>
</g>
</g>
<!-- Node5&#45;&gt;Node6 -->
<g id="edge5_Node000005_Node000006" class="edge">
<title>Node5&#45;&gt;Node6</title>
<g id="a_edge5_Node000005_Node000006"><a xlink:title=" ">
<path fill="none" stroke="#63b8ff" d="M571.12,-338.67C604.26,-339.56 644.7,-340.65 676.74,-341.51"/>
<polygon fill="#63b8ff" stroke="#63b8ff" points="676.74,-345.01 686.83,-341.78 676.93,-338.02 676.74,-345.01"/>
</a>
</g>
</g>
<!-- Node5&#45;&gt;Node8 -->
<g id="edge7_Node000005_Node000008" class="edge">
<title>Node5&#45;&gt;Node8</title>
<g id="a_edge7_Node000005_Node000008"><a xlink:title=" ">
<path fill="none" stroke="#63b8ff" d="M571.12,-326.69C597.17,-322.37 627.74,-317.3 655.18,-312.75"/>
<polygon fill="#63b8ff" stroke="#63b8ff" points="655.85,-316.18 665.14,-311.09 654.7,-309.28 655.85,-316.18"/>
</a>
</g>
</g>
<!-- Node7 -->
<g id="Node000007" class="node">
<title>Node7</title>
<g id="a_Node000007"><a xlink:href="classwmtk_1_1_mesh.html#a6f6c3b9a1d738d05ec8d84cabfa5e4b4" target="_top" xlink:title="Internal utility to allow id to be virtual with a non&#45;virtual overload in derived &#45;Mesh classes.">
<polygon fill="white" stroke="#666666" points="982,-352.5 854,-352.5 854,-333.5 982,-333.5 982,-352.5"/>
<text text-anchor="middle" x="918" y="-340.5" font-family="Helvetica,sans-Serif" font-size="10.00">wmtk::Mesh::id_virtual</text>
</a>
</g>
</g>
<!-- Node6&#45;&gt;Node7 -->
<g id="edge6_Node000006_Node000007" class="edge">
<title>Node6&#45;&gt;Node7</title>
<g id="a_edge6_Node000006_Node000007"><a xlink:title=" ">
<path fill="none" stroke="#63b8ff" d="M779.24,-343C798.7,-343 821.95,-343 843.76,-343"/>
<polygon fill="#63b8ff" stroke="#63b8ff" points="843.99,-346.5 853.99,-343 843.99,-339.5 843.99,-346.5"/>
</a>
</g>
</g>
<!-- Node9&#45;&gt;Node8 -->
<g id="edge11_Node000009_Node000008" class="edge">
<title>Node9&#45;&gt;Node8</title>
<g id="a_edge11_Node000009_Node000008"><a xlink:title=" ">
<path fill="none" stroke="#63b8ff" d="M569.94,-260.03C598.21,-267 631.98,-275.33 661.36,-282.58"/>
<polygon fill="#63b8ff" stroke="#63b8ff" points="660.59,-285.99 671.14,-284.99 662.27,-279.2 660.59,-285.99"/>
</a>
</g>
</g>
<!-- Node10 -->
<g id="Node000010" class="node">
<title>Node10</title>
<g id="a_Node000010"><a xlink:href="namespacewmtk_1_1simplex.html#aee89641a0de7b5ddf8d15bf376f9d33b" target="_top" xlink:title="Returns all faces of a simplex.">
<polygon fill="white" stroke="#666666" points="794,-248.5 672,-248.5 672,-229.5 794,-229.5 794,-248.5"/>
<text text-anchor="middle" x="733" y="-236.5" font-family="Helvetica,sans-Serif" font-size="10.00">wmtk::simplex::faces</text>
</a>
</g>
</g>
<!-- Node9&#45;&gt;Node10 -->
<g id="edge9_Node000009_Node000010" class="edge">
<title>Node9&#45;&gt;Node10</title>
<g id="a_edge9_Node000009_Node000010"><a xlink:title=" ">
<path fill="none" stroke="#63b8ff" d="M579.56,-243.1C605.69,-242.4 635.31,-241.6 661.45,-240.9"/>
<polygon fill="#63b8ff" stroke="#63b8ff" points="661.75,-244.39 671.65,-240.62 661.56,-237.39 661.75,-244.39"/>
</a>
</g>
</g>
<!-- Node11 -->
<g id="Node000011" class="node">
<title>Node11</title>
<g id="a_Node000011"><a xlink:href="classwmtk_1_1_mesh.html#abaf00438d0700358b160e310d69725c9" target="_top" xlink:title=" ">
<polygon fill="white" stroke="#666666" points="818,-211.5 648,-211.5 648,-192.5 818,-192.5 818,-211.5"/>
<text text-anchor="middle" x="733" y="-199.5" font-family="Helvetica,sans-Serif" font-size="10.00">wmtk::Mesh::top_simplex_type</text>
</a>
</g>
</g>
<!-- Node9&#45;&gt;Node11 -->
<g id="edge12_Node000009_Node000011" class="edge">
<title>Node9&#45;&gt;Node11</title>
<g id="a_edge12_Node000009_Node000011"><a xlink:title=" ">
<path fill="none" stroke="#63b8ff" d="M579.56,-231.39C609.58,-225.61 644.2,-218.93 672.85,-213.41"/>
<polygon fill="#63b8ff" stroke="#63b8ff" points="673.56,-216.83 682.72,-211.5 672.23,-209.96 673.56,-216.83"/>
</a>
</g>
</g>
<!-- Node10&#45;&gt;Node10 -->
<g id="edge10_Node000010_Node000010" class="edge">
<title>Node10&#45;&gt;Node10</title>
<g id="a_edge10_Node000010_Node000010"><a xlink:title=" ">
<path fill="none" stroke="#63b8ff" d="M704.64,-248.58C690.84,-257.23 700.3,-266.5 733,-266.5 755.48,-266.5 766.98,-262.12 767.48,-256.57"/>
<polygon fill="#63b8ff" stroke="#63b8ff" points="770.22,-254.39 761.36,-248.58 764.66,-258.65 770.22,-254.39"/>
</a>
</g>
</g>
<!-- Node12 -->
<g id="Node000012" class="node">
<title>Node12</title>
<g id="a_Node000012"><a xlink:href="classwmtk_1_1_mesh.html#a933f681cf24a63b155c9462280385200" target="_top" xlink:title=" ">
<polygon fill="white" stroke="#666666" points="978.5,-217 857.5,-217 857.5,-187 978.5,-187 978.5,-217"/>
<text text-anchor="start" x="865.5" y="-205" font-family="Helvetica,sans-Serif" font-size="10.00">wmtk::Mesh::top_cell</text>
<text text-anchor="middle" x="918" y="-194" font-family="Helvetica,sans-Serif" font-size="10.00">_dimension</text>
</a>
</g>
</g>
<!-- Node11&#45;&gt;Node12 -->
<g id="edge13_Node000011_Node000012" class="edge">
<title>Node11&#45;&gt;Node12</title>
<g id="a_edge13_Node000011_Node000012"><a xlink:title=" ">
<path fill="none" stroke="#63b8ff" d="M818,-202C827.73,-202 837.57,-202 847.09,-202"/>
<polygon fill="#63b8ff" stroke="#63b8ff" points="847.26,-205.5 857.26,-202 847.26,-198.5 847.26,-205.5"/>
</a>
</g>
</g>
</g>
</svg>
