<?xml version="1.0" encoding="UTF-8" standalone="no"?>
<!DOCTYPE svg PUBLIC "-//W3C//DTD SVG 1.1//EN"
 "http://www.w3.org/Graphics/SVG/1.1/DTD/svg11.dtd">
<!-- Generated by graphviz version 2.43.0 (0)
 -->
<!-- Title: wmtk::operations::tet_mesh::CollapseNewAttributeTopoInfo::merged_simplices Pages: 1 -->
<!--zoomable 754 -->

<svg id="main" version="1.1" xmlns="http://www.w3.org/2000/svg" xmlns:xlink="http://www.w3.org/1999/xlink" xml:space="preserve" onload="init(evt)">
<style type="text/css"><![CDATA[
.node, .edge {opacity: 0.7;}
.node.selected, .edge.selected {opacity: 1;}
.edge:hover path { stroke: red; }
.edge:hover polygon { stroke: red; fill: red; }
]]></style>

<defs>
  <circle id="rim" cx="0" cy="0" r="7"/>
  <circle id="rim2" cx="0" cy="0" r="3.5"/>
  <g id="zoomPlus">
    <use xlink:href="#rim" fill="#404040"><set attributeName="fill" to="#808080" begin="zoomplus.mouseover" end="zoomplus.mouseout"/></use>
    <path d="M-4,0h8M0,-4v8" fill="none" stroke="white" stroke-width="1.5" pointer-events="none"/>
  </g>
  <g id="zoomMin">
    <use xlink:href="#rim" fill="#404040"><set attributeName="fill" to="#808080" begin="zoomminus.mouseover" end="zoomminus.mouseout"/></use>
    <path d="M-4,0h8" fill="none" stroke="white" stroke-width="1.5" pointer-events="none"/>
  </g>
  <g id="arrowUp" transform="translate(30 24)">
    <use xlink:href="#rim"/>
    <path pointer-events="none" fill="none" stroke="white" stroke-width="1.5" d="M0,-3.0v7 M-2.5,-0.5L0,-3.0L2.5,-0.5"/>
  </g>
  <g id="arrowRight" transform="rotate(90) translate(36 -43)">
    <use xlink:href="#rim"/>
    <path pointer-events="none" fill="none" stroke="white" stroke-width="1.5" d="M0,-3.0v7 M-2.5,-0.5L0,-3.0L2.5,-0.5"/>
  </g>
  <g id="arrowDown" transform="rotate(180) translate(-30 -48)">
    <use xlink:href="#rim"/>
    <path pointer-events="none" fill="none" stroke="white" stroke-width="1.5" d="M0,-3.0v7 M-2.5,-0.5L0,-3.0L2.5,-0.5"/>
  </g>
  <g id="arrowLeft" transform="rotate(270) translate(-36 17)">
    <use xlink:href="#rim"/>
    <path pointer-events="none" fill="none" stroke="white" stroke-width="1.5" d="M0,-3.0v7 M-2.5,-0.5L0,-3.0L2.5,-0.5"/>
  </g>
  <g id="resetDef">
    <use xlink:href="#rim2" fill="#404040"><set attributeName="fill" to="#808080" begin="reset.mouseover" end="reset.mouseout"/></use>
  </g>
</defs>
<script type="application/ecmascript">
var viewWidth = 1556;
var viewHeight = 754;
var sectionId = 'dynsection-2';
</script>
<script type="application/ecmascript" xlink:href="svg.min.js"/>
<svg id="graph" class="graph">
<g id="viewport">
<title>wmtk::operations::tet_mesh::CollapseNewAttributeTopoInfo::merged_simplices</title>
<!-- Node1 -->
<g id="Node000001" class="node">
<title>Node1</title>
<g id="a_Node000001"><a xlink:title=" ">
<polygon fill="#999999" stroke="#666666" points="161,-588.5 0,-588.5 0,-547.5 161,-547.5 161,-588.5"/>
<text text-anchor="start" x="8" y="-576.5" font-family="Helvetica,sans-Serif" font-size="10.00">wmtk::operations::tet</text>
<text text-anchor="start" x="8" y="-565.5" font-family="Helvetica,sans-Serif" font-size="10.00">_mesh::CollapseNewAttribute</text>
<text text-anchor="middle" x="80.5" y="-554.5" font-family="Helvetica,sans-Serif" font-size="10.00">TopoInfo::merged_simplices</text>
</a>
</g>
</g>
<!-- Node2 -->
<g id="Node000002" class="node">
<title>Node2</title>
<g id="a_Node000002"><a xlink:href="classwmtk_1_1operations_1_1tet__mesh_1_1_edge_operation_data.html#a66a25b17c95f2070f68cc3cc2f1800d4" target="_top" xlink:title=" ">
<polygon fill="white" stroke="#666666" points="347,-696.5 197,-696.5 197,-655.5 347,-655.5 347,-696.5"/>
<text text-anchor="start" x="205" y="-684.5" font-family="Helvetica,sans-Serif" font-size="10.00">wmtk::operations::tet</text>
<text text-anchor="start" x="205" y="-673.5" font-family="Helvetica,sans-Serif" font-size="10.00">_mesh::EdgeOperationData</text>
<text text-anchor="middle" x="272" y="-662.5" font-family="Helvetica,sans-Serif" font-size="10.00">::ear_edges</text>
</a>
</g>
</g>
<!-- Node1&#45;&gt;Node2 -->
<g id="edge1_Node000001_Node000002" class="edge">
<title>Node1&#45;&gt;Node2</title>
<g id="a_edge1_Node000001_Node000002"><a xlink:title=" ">
<path fill="none" stroke="#63b8ff" d="M107.94,-588.65C130.67,-605.76 164.79,-629.96 197,-647 199.72,-648.44 202.52,-649.85 205.38,-651.22"/>
<polygon fill="#63b8ff" stroke="#63b8ff" points="204.09,-654.47 214.63,-655.47 207.01,-648.11 204.09,-654.47"/>
</a>
</g>
</g>
<!-- Node5 -->
<g id="Node000005" class="node">
<title>Node5</title>
<g id="a_Node000005"><a xlink:href="classwmtk_1_1operations_1_1tet__mesh_1_1_edge_operation_data.html#a3f64ab98767a583d112a78fde2a258ba" target="_top" xlink:title=" ">
<polygon fill="white" stroke="#666666" points="347,-637.5 197,-637.5 197,-596.5 347,-596.5 347,-637.5"/>
<text text-anchor="start" x="205" y="-625.5" font-family="Helvetica,sans-Serif" font-size="10.00">wmtk::operations::tet</text>
<text text-anchor="start" x="205" y="-614.5" font-family="Helvetica,sans-Serif" font-size="10.00">_mesh::EdgeOperationData</text>
<text text-anchor="middle" x="272" y="-603.5" font-family="Helvetica,sans-Serif" font-size="10.00">::ear_faces</text>
</a>
</g>
</g>
<!-- Node1&#45;&gt;Node5 -->
<g id="edge4_Node000001_Node000005" class="edge">
<title>Node1&#45;&gt;Node5</title>
<g id="a_edge4_Node000001_Node000005"><a xlink:title=" ">
<path fill="none" stroke="#63b8ff" d="M161.04,-588.57C169.65,-590.79 178.43,-593.06 187.09,-595.3"/>
<polygon fill="#63b8ff" stroke="#63b8ff" points="186.25,-598.7 196.8,-597.81 188,-591.92 186.25,-598.7"/>
</a>
</g>
</g>
<!-- Node7 -->
<g id="Node000007" class="node">
<title>Node7</title>
<g id="a_Node000007"><a xlink:href="namespacewmtk.html#a5cf45c152e856196bb734c6f48919a24" target="_top" xlink:title="Get a unique integer id corresponding to each primitive type.">
<polygon fill="white" stroke="#666666" points="1535,-547 1419,-547 1419,-517 1535,-517 1535,-547"/>
<text text-anchor="start" x="1427" y="-535" font-family="Helvetica,sans-Serif" font-size="10.00">wmtk::get_primitive</text>
<text text-anchor="middle" x="1477" y="-524" font-family="Helvetica,sans-Serif" font-size="10.00">_type_id</text>
</a>
</g>
</g>
<!-- Node1&#45;&gt;Node7 -->
<g id="edge7_Node000001_Node000007" class="edge">
<title>Node1&#45;&gt;Node7</title>
<g id="a_edge7_Node000001_Node000007"><a xlink:title=" ">
<path fill="none" stroke="#63b8ff" d="M161.15,-568C240.07,-568 364.38,-568 472,-568 472,-568 472,-568 1105.5,-568 1223.36,-568 1252.92,-562.57 1370,-549 1382.56,-547.54 1395.91,-545.67 1408.75,-543.69"/>
<polygon fill="#63b8ff" stroke="#63b8ff" points="1409.58,-547.1 1418.91,-542.09 1408.49,-540.19 1409.58,-547.1"/>
</a>
</g>
</g>
<!-- Node8 -->
<g id="Node000008" class="node">
<title>Node8</title>
<g id="a_Node000008"><a xlink:href="classwmtk_1_1operations_1_1tet__mesh_1_1_edge_operation_data.html#a0b36950981ccdbd5b04a2d7eccc758a3" target="_top" xlink:title=" ">
<polygon fill="white" stroke="#666666" points="347,-539.5 197,-539.5 197,-498.5 347,-498.5 347,-539.5"/>
<text text-anchor="start" x="205" y="-527.5" font-family="Helvetica,sans-Serif" font-size="10.00">wmtk::operations::tet</text>
<text text-anchor="start" x="205" y="-516.5" font-family="Helvetica,sans-Serif" font-size="10.00">_mesh::EdgeOperationData</text>
<text text-anchor="middle" x="272" y="-505.5" font-family="Helvetica,sans-Serif" font-size="10.00">::input_endpoints</text>
</a>
</g>
</g>
<!-- Node1&#45;&gt;Node8 -->
<g id="edge8_Node000001_Node000008" class="edge">
<title>Node1&#45;&gt;Node8</title>
<g id="a_edge8_Node000001_Node000008"><a xlink:title=" ">
<path fill="none" stroke="#63b8ff" d="M161.04,-547.43C169.65,-545.21 178.43,-542.94 187.09,-540.7"/>
<polygon fill="#63b8ff" stroke="#63b8ff" points="188,-544.08 196.8,-538.19 186.25,-537.3 188,-544.08"/>
</a>
</g>
</g>
<!-- Node37 -->
<g id="Node000037" class="node">
<title>Node37</title>
<g id="a_Node000037"><a xlink:href="classwmtk_1_1_mesh.html#ac5778c1f8afef3a2b1b1c33a140b3166" target="_top" xlink:title="Evaluate the passed in function inside the parent scope.">
<polygon fill="white" stroke="#666666" points="329,-480 215,-480 215,-450 329,-450 329,-480"/>
<text text-anchor="start" x="223" y="-468" font-family="Helvetica,sans-Serif" font-size="10.00">wmtk::Mesh::parent</text>
<text text-anchor="middle" x="272" y="-457" font-family="Helvetica,sans-Serif" font-size="10.00">_scope</text>
</a>
</g>
</g>
<!-- Node1&#45;&gt;Node37 -->
<g id="edge44_Node000001_Node000037" class="edge">
<title>Node1&#45;&gt;Node37</title>
<g id="a_edge44_Node000001_Node000037"><a xlink:title=" ">
<path fill="none" stroke="#63b8ff" d="M107.78,-547.24C130.41,-530.12 164.48,-506.11 197,-490 201.52,-487.76 206.28,-485.65 211.13,-483.67"/>
<polygon fill="#63b8ff" stroke="#63b8ff" points="212.45,-486.91 220.5,-480.03 209.92,-480.38 212.45,-486.91"/>
</a>
</g>
</g>
<!-- Node3 -->
<g id="Node000003" class="node">
<title>Node3</title>
<g id="a_Node000003"><a xlink:href="classwmtk_1_1operations_1_1tet__mesh_1_1_edge_operation_data.html#a55f6c6c05e6d595a8fb3e0b5d2337c3a" target="_top" xlink:title=" ">
<polygon fill="white" stroke="#666666" points="548,-745.5 398,-745.5 398,-704.5 548,-704.5 548,-745.5"/>
<text text-anchor="start" x="406" y="-733.5" font-family="Helvetica,sans-Serif" font-size="10.00">wmtk::operations::tet</text>
<text text-anchor="start" x="406" y="-722.5" font-family="Helvetica,sans-Serif" font-size="10.00">_mesh::EdgeOperationData</text>
<text text-anchor="middle" x="473" y="-711.5" font-family="Helvetica,sans-Serif" font-size="10.00">::incident_face_datas</text>
</a>
</g>
</g>
<!-- Node2&#45;&gt;Node3 -->
<g id="edge2_Node000002_Node000003" class="edge">
<title>Node2&#45;&gt;Node3</title>
<g id="a_edge2_Node000002_Node000003"><a xlink:title=" ">
<path fill="none" stroke="#63b8ff" d="M347.1,-694.25C360.44,-697.53 374.43,-700.98 388.02,-704.32"/>
<polygon fill="#63b8ff" stroke="#63b8ff" points="387.29,-707.75 397.84,-706.74 388.96,-700.95 387.29,-707.75"/>
</a>
</g>
</g>
<!-- Node4 -->
<g id="Node000004" class="node">
<title>Node4</title>
<g id="a_Node000004"><a xlink:href="classwmtk_1_1operations_1_1_edge_operation_data.html#a37bc93fecbc4e30649298de051eee7ed" target="_top" xlink:title=" ">
<polygon fill="white" stroke="#666666" points="563,-686 383,-686 383,-656 563,-656 563,-686"/>
<text text-anchor="start" x="391" y="-674" font-family="Helvetica,sans-Serif" font-size="10.00">wmtk::operations::EdgeOperation</text>
<text text-anchor="middle" x="473" y="-663" font-family="Helvetica,sans-Serif" font-size="10.00">Data::tuple_from_id</text>
</a>
</g>
</g>
<!-- Node2&#45;&gt;Node4 -->
<g id="edge3_Node000002_Node000004" class="edge">
<title>Node2&#45;&gt;Node4</title>
<g id="a_edge3_Node000002_Node000004"><a xlink:title=" ">
<path fill="none" stroke="#63b8ff" d="M347.1,-674.14C355.44,-673.93 364.03,-673.71 372.63,-673.5"/>
<polygon fill="#63b8ff" stroke="#63b8ff" points="372.79,-676.99 382.7,-673.24 372.62,-670 372.79,-676.99"/>
</a>
</g>
</g>
<!-- Node5&#45;&gt;Node4 -->
<g id="edge6_Node000005_Node000004" class="edge">
<title>Node5&#45;&gt;Node4</title>
<g id="a_edge6_Node000005_Node000004"><a xlink:title=" ">
<path fill="none" stroke="#63b8ff" d="M347.25,-637.28C359.2,-640.54 371.44,-643.87 383,-647 390.49,-649.03 398.34,-651.16 406.14,-653.26"/>
<polygon fill="#63b8ff" stroke="#63b8ff" points="405.4,-656.69 415.97,-655.92 407.23,-649.93 405.4,-656.69"/>
</a>
</g>
</g>
<!-- Node6 -->
<g id="Node000006" class="node">
<title>Node6</title>
<g id="a_Node000006"><a xlink:href="classwmtk_1_1operations_1_1tet__mesh_1_1_edge_operation_data.html#ad4900f4692dd16c3616d47e3b0ba0e1d" target="_top" xlink:title=" ">
<polygon fill="white" stroke="#666666" points="548,-637.5 398,-637.5 398,-596.5 548,-596.5 548,-637.5"/>
<text text-anchor="start" x="406" y="-625.5" font-family="Helvetica,sans-Serif" font-size="10.00">wmtk::operations::tet</text>
<text text-anchor="start" x="406" y="-614.5" font-family="Helvetica,sans-Serif" font-size="10.00">_mesh::EdgeOperationData</text>
<text text-anchor="middle" x="473" y="-603.5" font-family="Helvetica,sans-Serif" font-size="10.00">::incident_tet_datas</text>
</a>
</g>
</g>
<!-- Node5&#45;&gt;Node6 -->
<g id="edge5_Node000005_Node000006" class="edge">
<title>Node5&#45;&gt;Node6</title>
<g id="a_edge5_Node000005_Node000006"><a xlink:title=" ">
<path fill="none" stroke="#63b8ff" d="M347.1,-617C360.31,-617 374.16,-617 387.63,-617"/>
<polygon fill="#63b8ff" stroke="#63b8ff" points="387.84,-620.5 397.84,-617 387.84,-613.5 387.84,-620.5"/>
</a>
</g>
</g>
<!-- Node9 -->
<g id="Node000009" class="node">
<title>Node9</title>
<g id="a_Node000009"><a xlink:href="classwmtk_1_1_tet_mesh.html#a53d9ec91a1c80da4ae10dea485564f27" target="_top" xlink:title="switch the orientation of the Tuple of the given dimension">
<polygon fill="white" stroke="#666666" points="537,-133 409,-133 409,-103 537,-103 537,-133"/>
<text text-anchor="start" x="417" y="-121" font-family="Helvetica,sans-Serif" font-size="10.00">wmtk::TetMesh::switch</text>
<text text-anchor="middle" x="473" y="-110" font-family="Helvetica,sans-Serif" font-size="10.00">_tuple</text>
</a>
</g>
</g>
<!-- Node8&#45;&gt;Node9 -->
<g id="edge9_Node000008_Node000009" class="edge">
<title>Node8&#45;&gt;Node9</title>
<g id="a_edge9_Node000008_Node000009"><a xlink:title=" ">
<path fill="none" stroke="#63b8ff" d="M335.79,-498.43C339.87,-495.66 343.67,-492.53 347,-489 442.8,-387.26 465.35,-209.63 470.51,-143.64"/>
<polygon fill="#63b8ff" stroke="#63b8ff" points="474.03,-143.57 471.24,-133.35 467.04,-143.07 474.03,-143.57"/>
</a>
</g>
</g>
<!-- Node10 -->
<g id="Node000010" class="node">
<title>Node10</title>
<g id="a_Node000010"><a xlink:href="classwmtk_1_1_tet_mesh.html#aa8424e5e4d709981e9e10d659f87f97d" target="_top" xlink:title=" ">
<polygon fill="white" stroke="#666666" points="743,-84.5 637,-84.5 637,-65.5 743,-65.5 743,-84.5"/>
<text text-anchor="middle" x="690" y="-72.5" font-family="Helvetica,sans-Serif" font-size="10.00">wmtk::TetMesh::id</text>
</a>
</g>
</g>
<!-- Node9&#45;&gt;Node10 -->
<g id="edge10_Node000009_Node000010" class="edge">
<title>Node9&#45;&gt;Node10</title>
<g id="a_edge10_Node000009_Node000010"><a xlink:title=" ">
<path fill="none" stroke="#63b8ff" d="M537.05,-105.39C566.87,-99.43 602.22,-92.36 631.32,-86.54"/>
<polygon fill="#63b8ff" stroke="#63b8ff" points="632.21,-89.93 641.33,-84.53 630.84,-83.06 632.21,-89.93"/>
</a>
</g>
</g>
<!-- Node11 -->
<g id="Node000011" class="node">
<title>Node11</title>
<g id="a_Node000011"><a xlink:href="classwmtk_1_1_tet_mesh.html#af4002e7a36e20373deb54576caffa682" target="_top" xlink:title=" ">
<polygon fill="white" stroke="#666666" points="781,-39.5 599,-39.5 599,-20.5 781,-20.5 781,-39.5"/>
<text text-anchor="middle" x="690" y="-27.5" font-family="Helvetica,sans-Serif" font-size="10.00">wmtk::TetMesh::is_boundary_face</text>
</a>
</g>
</g>
<!-- Node9&#45;&gt;Node11 -->
<g id="edge11_Node000009_Node000011" class="edge">
<title>Node9&#45;&gt;Node11</title>
<g id="a_edge11_Node000009_Node000011"><a xlink:title=" ">
<path fill="none" stroke="#63b8ff" d="M501.16,-102.75C526.06,-89.21 564.23,-69.52 599,-56 612.3,-50.83 627.05,-46.15 640.69,-42.23"/>
<polygon fill="#63b8ff" stroke="#63b8ff" points="641.71,-45.58 650.4,-39.52 639.82,-38.84 641.71,-45.58"/>
</a>
</g>
</g>
<!-- Node13 -->
<g id="Node000013" class="node">
<title>Node13</title>
<g id="a_Node000013"><a xlink:href="classwmtk_1_1_tet_mesh.html#af07828ce32b19a3d5fc8e1cb6f365029" target="_top" xlink:title="check validity of tuple including its hash">
<polygon fill="white" stroke="#666666" points="757,-174.5 623,-174.5 623,-155.5 757,-155.5 757,-174.5"/>
<text text-anchor="middle" x="690" y="-162.5" font-family="Helvetica,sans-Serif" font-size="10.00">wmtk::TetMesh::is_valid</text>
</a>
</g>
</g>
<!-- Node9&#45;&gt;Node13 -->
<g id="edge13_Node000009_Node000013" class="edge">
<title>Node9&#45;&gt;Node13</title>
<g id="a_edge13_Node000009_Node000013"><a xlink:title=" ">
<path fill="none" stroke="#63b8ff" d="M537.05,-131.78C568.34,-138.62 605.71,-146.79 635.57,-153.32"/>
<polygon fill="#63b8ff" stroke="#63b8ff" points="634.87,-156.75 645.38,-155.47 636.36,-149.91 634.87,-156.75"/>
</a>
</g>
</g>
<!-- Node36 -->
<g id="Node000036" class="node">
<title>Node36</title>
<g id="a_Node000036"><a xlink:href="namespacewmtk_1_1autogen_1_1tet__mesh.html#a4060d948aa959f21810c425f3f197dd5" target="_top" xlink:title=" ">
<polygon fill="white" stroke="#666666" points="762.5,-133 617.5,-133 617.5,-103 762.5,-103 762.5,-133"/>
<text text-anchor="start" x="625.5" y="-121" font-family="Helvetica,sans-Serif" font-size="10.00">wmtk::autogen::tet</text>
<text text-anchor="middle" x="690" y="-110" font-family="Helvetica,sans-Serif" font-size="10.00">_mesh::local_switch_tuple</text>
</a>
</g>
</g>
<!-- Node9&#45;&gt;Node36 -->
<g id="edge42_Node000009_Node000036" class="edge">
<title>Node9&#45;&gt;Node36</title>
<g id="a_edge42_Node000009_Node000036"><a xlink:title=" ">
<path fill="none" stroke="#63b8ff" d="M537.05,-118C558.97,-118 583.87,-118 607.08,-118"/>
<polygon fill="#63b8ff" stroke="#63b8ff" points="607.26,-121.5 617.26,-118 607.26,-114.5 607.26,-121.5"/>
</a>
</g>
</g>
<!-- Node12 -->
<g id="Node000012" class="node">
<title>Node12</title>
<g id="a_Node000012"><a xlink:href="classwmtk_1_1attribute_1_1_accessor.html#ad6fb9ed9ff56571fe257bf0f4b542368" target="_top" xlink:title=" ">
<polygon fill="white" stroke="#666666" points="973,-40 831,-40 831,-10 973,-10 973,-40"/>
<text text-anchor="start" x="839" y="-28" font-family="Helvetica,sans-Serif" font-size="10.00">wmtk::attribute::Accessor</text>
<text text-anchor="middle" x="902" y="-17" font-family="Helvetica,sans-Serif" font-size="10.00">::const_vector_attribute</text>
</a>
</g>
</g>
<!-- Node11&#45;&gt;Node12 -->
<g id="edge12_Node000011_Node000012" class="edge">
<title>Node11&#45;&gt;Node12</title>
<g id="a_edge12_Node000011_Node000012"><a xlink:title=" ">
<path fill="none" stroke="#63b8ff" d="M781.28,-27.85C794.35,-27.54 807.73,-27.22 820.59,-26.91"/>
<polygon fill="#63b8ff" stroke="#63b8ff" points="820.86,-30.41 830.77,-26.67 820.69,-23.41 820.86,-30.41"/>
</a>
</g>
</g>
<!-- Node14 -->
<g id="Node000014" class="node">
<title>Node14</title>
<g id="a_Node000014"><a xlink:href="classwmtk_1_1_tet_mesh.html#ad4ba72346d616d38086be74705865e55" target="_top" xlink:title=" ">
<polygon fill="white" stroke="#666666" points="987,-364 817,-364 817,-334 987,-334 987,-364"/>
<text text-anchor="start" x="825" y="-352" font-family="Helvetica,sans-Serif" font-size="10.00">wmtk::TetMesh::is_connectivity</text>
<text text-anchor="middle" x="902" y="-341" font-family="Helvetica,sans-Serif" font-size="10.00">_valid</text>
</a>
</g>
</g>
<!-- Node13&#45;&gt;Node14 -->
<g id="edge14_Node000013_Node000014" class="edge">
<title>Node13&#45;&gt;Node14</title>
<g id="a_edge14_Node000013_Node000014"><a xlink:title=" ">
<path fill="none" stroke="#63b8ff" d="M701.99,-174.63C734.4,-203.02 830.11,-286.89 875.96,-327.06"/>
<polygon fill="#63b8ff" stroke="#63b8ff" points="873.83,-329.85 883.66,-333.8 878.44,-324.58 873.83,-329.85"/>
</a>
</g>
</g>
<!-- Node26 -->
<g id="Node000026" class="node">
<title>Node26</title>
<g id="a_Node000026"><a xlink:href="namespacewmtk.html#a6a35f11c12436093d26fdd8be6fecc06" target="_top" xlink:title="Retrieves the current logger.">
<polygon fill="white" stroke="#666666" points="1145,-212.5 1064,-212.5 1064,-193.5 1145,-193.5 1145,-212.5"/>
<text text-anchor="middle" x="1104.5" y="-200.5" font-family="Helvetica,sans-Serif" font-size="10.00">wmtk::logger</text>
</a>
</g>
</g>
<!-- Node13&#45;&gt;Node26 -->
<g id="edge36_Node000013_Node000026" class="edge">
<title>Node13&#45;&gt;Node26</title>
<g id="a_edge36_Node000013_Node000026"><a xlink:title=" ">
<path fill="none" stroke="#63b8ff" d="M747.32,-174.52C769.04,-177.92 794.13,-181.52 817,-184 899.58,-192.95 996.04,-198.3 1053.32,-200.94"/>
<polygon fill="#63b8ff" stroke="#63b8ff" points="1053.4,-204.45 1063.55,-201.4 1053.72,-197.46 1053.4,-204.45"/>
</a>
</g>
</g>
<!-- Node28 -->
<g id="Node000028" class="node">
<title>Node28</title>
<g id="a_Node000028"><a xlink:href="classwmtk_1_1_mesh.html#a8cc8686f0688613806f43720b6db49e7" target="_top" xlink:title="check validity of tuple including its hash">
<polygon fill="white" stroke="#666666" points="962,-174.5 842,-174.5 842,-155.5 962,-155.5 962,-174.5"/>
<text text-anchor="middle" x="902" y="-162.5" font-family="Helvetica,sans-Serif" font-size="10.00">wmtk::Mesh::is_valid</text>
</a>
</g>
</g>
<!-- Node13&#45;&gt;Node28 -->
<g id="edge32_Node000013_Node000028" class="edge">
<title>Node13&#45;&gt;Node28</title>
<g id="a_edge32_Node000013_Node000028"><a xlink:title=" ">
<path fill="none" stroke="#63b8ff" d="M757.16,-165C780.93,-165 807.8,-165 831.82,-165"/>
<polygon fill="#63b8ff" stroke="#63b8ff" points="831.93,-168.5 841.93,-165 831.93,-161.5 831.93,-168.5"/>
</a>
</g>
</g>
<!-- Node31 -->
<g id="Node000031" class="node">
<title>Node31</title>
<g id="a_Node000031"><a xlink:href="namespacewmtk_1_1autogen_1_1tet__mesh.html#a217b7c5c5312a716ad27c99abcfc0eb1" target="_top" xlink:title=" ">
<polygon fill="white" stroke="#666666" points="963,-137.5 841,-137.5 841,-96.5 963,-96.5 963,-137.5"/>
<text text-anchor="start" x="849" y="-125.5" font-family="Helvetica,sans-Serif" font-size="10.00">wmtk::autogen::tet</text>
<text text-anchor="start" x="849" y="-114.5" font-family="Helvetica,sans-Serif" font-size="10.00">_mesh::tuple_is_valid</text>
<text text-anchor="middle" x="902" y="-103.5" font-family="Helvetica,sans-Serif" font-size="10.00">_for_ccw</text>
</a>
</g>
</g>
<!-- Node13&#45;&gt;Node31 -->
<g id="edge37_Node000013_Node000031" class="edge">
<title>Node13&#45;&gt;Node31</title>
<g id="a_edge37_Node000013_Node000031"><a xlink:title=" ">
<path fill="none" stroke="#63b8ff" d="M732.74,-155.46C760.71,-149.07 798.22,-140.49 830.73,-133.06"/>
<polygon fill="#63b8ff" stroke="#63b8ff" points="831.67,-136.44 840.64,-130.8 830.11,-129.61 831.67,-136.44"/>
</a>
</g>
</g>
<!-- Node15 -->
<g id="Node000015" class="node">
<title>Node15</title>
<g id="a_Node000015"><a xlink:href="classwmtk_1_1_mesh.html#a3e8ff83c4a5526a40d18bb9883c6c6c9" target="_top" xlink:title="read in the m_capacities return the upper bound for the number of entities of the given dimension">
<polygon fill="white" stroke="#666666" points="1358,-539.5 1234,-539.5 1234,-520.5 1358,-520.5 1358,-539.5"/>
<text text-anchor="middle" x="1296" y="-527.5" font-family="Helvetica,sans-Serif" font-size="10.00">wmtk::Mesh::capacity</text>
</a>
</g>
</g>
<!-- Node14&#45;&gt;Node15 -->
<g id="edge15_Node000014_Node000015" class="edge">
<title>Node14&#45;&gt;Node15</title>
<g id="a_edge15_Node000014_Node000015"><a xlink:title=" ">
<path fill="none" stroke="#63b8ff" d="M909.27,-364.1C923.74,-396.82 962.94,-473.97 1023,-507 1084.6,-540.88 1166.14,-543.22 1223.83,-539.19"/>
<polygon fill="#63b8ff" stroke="#63b8ff" points="1224.26,-542.67 1233.95,-538.4 1223.71,-535.69 1224.26,-542.67"/>
</a>
</g>
</g>
<!-- Node16 -->
<g id="Node000016" class="node">
<title>Node16</title>
<g id="a_Node000016"><a xlink:href="classwmtk_1_1attribute_1_1_caching_accessor.html#a196b6b32e2495b971113d552be7f45d9" target="_top" xlink:title=" ">
<polygon fill="white" stroke="#666666" points="1364.5,-453.5 1227.5,-453.5 1227.5,-412.5 1364.5,-412.5 1364.5,-453.5"/>
<text text-anchor="start" x="1235.5" y="-441.5" font-family="Helvetica,sans-Serif" font-size="10.00">wmtk::attribute::Caching</text>
<text text-anchor="start" x="1235.5" y="-430.5" font-family="Helvetica,sans-Serif" font-size="10.00">Accessor::const_scalar</text>
<text text-anchor="middle" x="1296" y="-419.5" font-family="Helvetica,sans-Serif" font-size="10.00">_attribute</text>
</a>
</g>
</g>
<!-- Node14&#45;&gt;Node16 -->
<g id="edge17_Node000014_Node000016" class="edge">
<title>Node14&#45;&gt;Node16</title>
<g id="a_edge17_Node000014_Node000016"><a xlink:title=" ">
<path fill="none" stroke="#63b8ff" d="M923.39,-364.17C946.3,-380.28 985.23,-404.9 1023,-416 1086.57,-434.68 1161.98,-438.01 1217.26,-437.19"/>
<polygon fill="#63b8ff" stroke="#63b8ff" points="1217.41,-440.69 1227.34,-437 1217.27,-433.69 1217.41,-440.69"/>
</a>
</g>
</g>
<!-- Node17 -->
<g id="Node000017" class="node">
<title>Node17</title>
<g id="a_Node000017"><a xlink:href="classwmtk_1_1attribute_1_1_caching_accessor.html#ab850fe07669c7bc92ca6cf6e86c60ee0" target="_top" xlink:title=" ">
<polygon fill="white" stroke="#666666" points="1173,-320.5 1036,-320.5 1036,-279.5 1173,-279.5 1173,-320.5"/>
<text text-anchor="start" x="1044" y="-308.5" font-family="Helvetica,sans-Serif" font-size="10.00">wmtk::attribute::Caching</text>
<text text-anchor="start" x="1044" y="-297.5" font-family="Helvetica,sans-Serif" font-size="10.00">Accessor::const_vector</text>
<text text-anchor="middle" x="1104.5" y="-286.5" font-family="Helvetica,sans-Serif" font-size="10.00">_attribute</text>
</a>
</g>
</g>
<!-- Node14&#45;&gt;Node17 -->
<g id="edge18_Node000014_Node000017" class="edge">
<title>Node14&#45;&gt;Node17</title>
<g id="a_edge18_Node000014_Node000017"><a xlink:title=" ">
<path fill="none" stroke="#63b8ff" d="M964.52,-333.97C983.91,-329.23 1005.58,-323.93 1025.94,-318.96"/>
<polygon fill="#63b8ff" stroke="#63b8ff" points="1026.93,-322.32 1035.81,-316.54 1025.26,-315.52 1026.93,-322.32"/>
</a>
</g>
</g>
<!-- Node18 -->
<g id="Node000018" class="node">
<title>Node18</title>
<g id="a_Node000018"><a xlink:href="classwmtk_1_1_mesh.html#ae3493915b766f0f34f0a9e89603d5773" target="_top" xlink:title=" ">
<polygon fill="white" stroke="#666666" points="1165.5,-498 1043.5,-498 1043.5,-468 1165.5,-468 1165.5,-498"/>
<text text-anchor="start" x="1051.5" y="-486" font-family="Helvetica,sans-Serif" font-size="10.00">wmtk::Mesh::get_flag</text>
<text text-anchor="middle" x="1104.5" y="-475" font-family="Helvetica,sans-Serif" font-size="10.00">_accessor</text>
</a>
</g>
</g>
<!-- Node14&#45;&gt;Node18 -->
<g id="edge19_Node000014_Node000018" class="edge">
<title>Node14&#45;&gt;Node18</title>
<g id="a_edge19_Node000014_Node000018"><a xlink:title=" ">
<path fill="none" stroke="#63b8ff" d="M918.15,-364.2C939.86,-385.35 981.78,-423.88 1023,-449 1032.03,-454.5 1042.12,-459.53 1052.01,-463.93"/>
<polygon fill="#63b8ff" stroke="#63b8ff" points="1050.82,-467.23 1061.39,-467.96 1053.58,-460.8 1050.82,-467.23"/>
</a>
</g>
</g>
<!-- Node21 -->
<g id="Node000021" class="node">
<title>Node21</title>
<g id="a_Node000021"><a xlink:href="classwmtk_1_1attribute_1_1_accessor.html#a2d587e12c47a6d839ab80e9198cf75b5" target="_top" xlink:title=" ">
<polygon fill="white" stroke="#666666" points="1367,-346 1225,-346 1225,-316 1367,-316 1367,-346"/>
<text text-anchor="start" x="1233" y="-334" font-family="Helvetica,sans-Serif" font-size="10.00">wmtk::attribute::Accessor</text>
<text text-anchor="middle" x="1296" y="-323" font-family="Helvetica,sans-Serif" font-size="10.00">::index_access</text>
</a>
</g>
</g>
<!-- Node14&#45;&gt;Node21 -->
<g id="edge23_Node000014_Node000021" class="edge">
<title>Node14&#45;&gt;Node21</title>
<g id="a_edge23_Node000014_Node000021"><a xlink:title=" ">
<path fill="none" stroke="#63b8ff" d="M987.09,-345.14C1054.5,-342.04 1148.46,-337.73 1214.81,-334.68"/>
<polygon fill="#63b8ff" stroke="#63b8ff" points="1214.97,-338.18 1224.8,-334.22 1214.65,-331.19 1214.97,-338.18"/>
</a>
</g>
</g>
<!-- Node23 -->
<g id="Node000023" class="node">
<title>Node23</title>
<g id="a_Node000023"><a xlink:href="classwmtk_1_1attribute_1_1_flag_accessor.html#a4f49a666c3811fee9b841c1cd1f66250" target="_top" xlink:title=" ">
<polygon fill="white" stroke="#666666" points="1186,-261 1023,-261 1023,-231 1186,-231 1186,-261"/>
<text text-anchor="start" x="1031" y="-249" font-family="Helvetica,sans-Serif" font-size="10.00">wmtk::attribute::FlagAccessor</text>
<text text-anchor="middle" x="1104.5" y="-238" font-family="Helvetica,sans-Serif" font-size="10.00">::index_access</text>
</a>
</g>
</g>
<!-- Node14&#45;&gt;Node23 -->
<g id="edge25_Node000014_Node000023" class="edge">
<title>Node14&#45;&gt;Node23</title>
<g id="a_edge25_Node000014_Node000023"><a xlink:title=" ">
<path fill="none" stroke="#63b8ff" d="M922.39,-333.97C945.34,-316.78 985.21,-288.73 1023,-271 1027.89,-268.71 1033.03,-266.56 1038.27,-264.55"/>
<polygon fill="#63b8ff" stroke="#63b8ff" points="1039.54,-267.82 1047.74,-261.11 1037.15,-261.24 1039.54,-267.82"/>
</a>
</g>
</g>
<!-- Node24 -->
<g id="Node000024" class="node">
<title>Node24</title>
<g id="a_Node000024"><a xlink:href="classwmtk_1_1attribute_1_1_index_flag_accessor.html#a195252af3f6230f09f0c1379cbec7240" target="_top" xlink:title=" ">
<polygon fill="white" stroke="#666666" points="1177.5,-407 1031.5,-407 1031.5,-377 1177.5,-377 1177.5,-407"/>
<text text-anchor="start" x="1039.5" y="-395" font-family="Helvetica,sans-Serif" font-size="10.00">wmtk::attribute::IndexFlag</text>
<text text-anchor="middle" x="1104.5" y="-384" font-family="Helvetica,sans-Serif" font-size="10.00">Accessor::is_active</text>
</a>
</g>
</g>
<!-- Node14&#45;&gt;Node24 -->
<g id="edge26_Node000014_Node000024" class="edge">
<title>Node14&#45;&gt;Node24</title>
<g id="a_edge26_Node000014_Node000024"><a xlink:title=" ">
<path fill="none" stroke="#63b8ff" d="M973.13,-364.04C989.3,-367.51 1006.64,-371.23 1023.21,-374.78"/>
<polygon fill="#63b8ff" stroke="#63b8ff" points="1022.9,-378.29 1033.41,-376.97 1024.37,-371.45 1022.9,-378.29"/>
</a>
</g>
</g>
<!-- Node14&#45;&gt;Node26 -->
<g id="edge30_Node000014_Node000026" class="edge">
<title>Node14&#45;&gt;Node26</title>
<g id="a_edge30_Node000014_Node000026"><a xlink:title=" ">
<path fill="none" stroke="#63b8ff" d="M912.86,-333.77C931.15,-306.79 973.06,-250.78 1023,-222 1032.33,-216.62 1043.11,-212.76 1053.68,-210"/>
<polygon fill="#63b8ff" stroke="#63b8ff" points="1054.76,-213.34 1063.7,-207.66 1053.17,-206.52 1054.76,-213.34"/>
</a>
</g>
</g>
<!-- Node15&#45;&gt;Node7 -->
<g id="edge16_Node000015_Node000007" class="edge">
<title>Node15&#45;&gt;Node7</title>
<g id="a_edge16_Node000015_Node000007"><a xlink:title=" ">
<path fill="none" stroke="#63b8ff" d="M1358.1,-530.68C1374.37,-530.86 1392.04,-531.06 1408.63,-531.25"/>
<polygon fill="#63b8ff" stroke="#63b8ff" points="1408.75,-534.75 1418.79,-531.36 1408.83,-527.75 1408.75,-534.75"/>
</a>
</g>
</g>
<!-- Node19 -->
<g id="Node000019" class="node">
<title>Node19</title>
<g id="a_Node000019"><a xlink:href="classwmtk_1_1_mesh.html#acfa981b31f00aef4438ff5e73bbce2f4" target="_top" xlink:title=" ">
<polygon fill="white" stroke="#666666" points="1361,-502 1231,-502 1231,-472 1361,-472 1361,-502"/>
<text text-anchor="start" x="1239" y="-490" font-family="Helvetica,sans-Serif" font-size="10.00">wmtk::Mesh::get_const</text>
<text text-anchor="middle" x="1296" y="-479" font-family="Helvetica,sans-Serif" font-size="10.00">_flag_accessor</text>
</a>
</g>
</g>
<!-- Node18&#45;&gt;Node19 -->
<g id="edge20_Node000018_Node000019" class="edge">
<title>Node18&#45;&gt;Node19</title>
<g id="a_edge20_Node000018_Node000019"><a xlink:title=" ">
<path fill="none" stroke="#63b8ff" d="M1165.72,-484.27C1183.1,-484.64 1202.29,-485.04 1220.43,-485.43"/>
<polygon fill="#63b8ff" stroke="#63b8ff" points="1220.61,-488.93 1230.68,-485.64 1220.76,-481.93 1220.61,-488.93"/>
</a>
</g>
</g>
<!-- Node19&#45;&gt;Node7 -->
<g id="edge22_Node000019_Node000007" class="edge">
<title>Node19&#45;&gt;Node7</title>
<g id="a_edge22_Node000019_Node000007"><a xlink:title=" ">
<path fill="none" stroke="#63b8ff" d="M1357.1,-502.11C1373.74,-506.29 1391.91,-510.86 1408.92,-515.14"/>
<polygon fill="#63b8ff" stroke="#63b8ff" points="1408.23,-518.57 1418.78,-517.62 1409.94,-511.78 1408.23,-518.57"/>
</a>
</g>
</g>
<!-- Node20 -->
<g id="Node000020" class="node">
<title>Node20</title>
<g id="a_Node000020"><a xlink:href="classwmtk_1_1_mesh.html#a357182137d99f1e4a7ff536eadfc0e56" target="_top" xlink:title=" ">
<polygon fill="white" stroke="#666666" points="1533.5,-499 1420.5,-499 1420.5,-469 1533.5,-469 1533.5,-499"/>
<text text-anchor="start" x="1428.5" y="-487" font-family="Helvetica,sans-Serif" font-size="10.00">wmtk::Mesh::create</text>
<text text-anchor="middle" x="1477" y="-476" font-family="Helvetica,sans-Serif" font-size="10.00">_const_accessor</text>
</a>
</g>
</g>
<!-- Node19&#45;&gt;Node20 -->
<g id="edge21_Node000019_Node000020" class="edge">
<title>Node19&#45;&gt;Node20</title>
<g id="a_edge21_Node000019_Node000020"><a xlink:title=" ">
<path fill="none" stroke="#63b8ff" d="M1361.12,-485.93C1377,-485.66 1394.04,-485.37 1410.01,-485.11"/>
<polygon fill="#63b8ff" stroke="#63b8ff" points="1410.39,-488.6 1420.33,-484.93 1410.27,-481.6 1410.39,-488.6"/>
</a>
</g>
</g>
<!-- Node22 -->
<g id="Node000022" class="node">
<title>Node22</title>
<g id="a_Node000022"><a xlink:href="classwmtk_1_1attribute_1_1_accessor.html#afd97a48ec5d1db975a030428df81f617" target="_top" xlink:title=" ">
<polygon fill="white" stroke="#666666" points="1548,-346 1406,-346 1406,-316 1548,-316 1548,-346"/>
<text text-anchor="start" x="1414" y="-334" font-family="Helvetica,sans-Serif" font-size="10.00">wmtk::attribute::Accessor</text>
<text text-anchor="middle" x="1477" y="-323" font-family="Helvetica,sans-Serif" font-size="10.00">::caching_base_type</text>
</a>
</g>
</g>
<!-- Node21&#45;&gt;Node22 -->
<g id="edge24_Node000021_Node000022" class="edge">
<title>Node21&#45;&gt;Node22</title>
<g id="a_edge24_Node000021_Node000022"><a xlink:title=" ">
<path fill="none" stroke="#63b8ff" d="M1367.23,-331C1376.58,-331 1386.23,-331 1395.73,-331"/>
<polygon fill="#63b8ff" stroke="#63b8ff" points="1395.97,-334.5 1405.97,-331 1395.97,-327.5 1395.97,-334.5"/>
</a>
</g>
</g>
<!-- Node24&#45;&gt;Node16 -->
<g id="edge28_Node000024_Node000016" class="edge">
<title>Node24&#45;&gt;Node16</title>
<g id="a_edge28_Node000024_Node000016"><a xlink:title=" ">
<path fill="none" stroke="#63b8ff" d="M1174.99,-407.03C1188.76,-410.01 1203.29,-413.16 1217.32,-416.19"/>
<polygon fill="#63b8ff" stroke="#63b8ff" points="1216.9,-419.68 1227.42,-418.38 1218.38,-412.84 1216.9,-419.68"/>
</a>
</g>
</g>
<!-- Node24&#45;&gt;Node21 -->
<g id="edge29_Node000024_Node000021" class="edge">
<title>Node24&#45;&gt;Node21</title>
<g id="a_edge29_Node000024_Node000021"><a xlink:title=" ">
<path fill="none" stroke="#63b8ff" d="M1152.34,-376.92C1178.41,-368.53 1211.03,-358.03 1238.5,-349.19"/>
<polygon fill="#63b8ff" stroke="#63b8ff" points="1239.92,-352.41 1248.37,-346.01 1237.78,-345.74 1239.92,-352.41"/>
</a>
</g>
</g>
<!-- Node25 -->
<g id="Node000025" class="node">
<title>Node25</title>
<g id="a_Node000025"><a xlink:href="classwmtk_1_1attribute_1_1_index_flag_accessor.html#a08ce19b077654f9e384d8c3fffcbbd0b" target="_top" xlink:title=" ">
<polygon fill="white" stroke="#666666" points="1369,-394 1223,-394 1223,-364 1369,-364 1369,-394"/>
<text text-anchor="start" x="1231" y="-382" font-family="Helvetica,sans-Serif" font-size="10.00">wmtk::attribute::IndexFlag</text>
<text text-anchor="middle" x="1296" y="-371" font-family="Helvetica,sans-Serif" font-size="10.00">Accessor::_is_active</text>
</a>
</g>
</g>
<!-- Node24&#45;&gt;Node25 -->
<g id="edge27_Node000024_Node000025" class="edge">
<title>Node24&#45;&gt;Node25</title>
<g id="a_edge27_Node000024_Node000025"><a xlink:title=" ">
<path fill="none" stroke="#63b8ff" d="M1177.68,-387.05C1189.09,-386.27 1200.96,-385.45 1212.58,-384.65"/>
<polygon fill="#63b8ff" stroke="#63b8ff" points="1212.97,-388.14 1222.7,-383.96 1212.49,-381.15 1212.97,-388.14"/>
</a>
</g>
</g>
<!-- Node27 -->
<g id="Node000027" class="node">
<title>Node27</title>
<g id="a_Node000027"><a xlink:href="namespacewmtk.html#a3daa7951a5f8b78cf4600dc047fcc180" target="_top" xlink:title="Setup a logger object to be used by WildmeshToolkit.">
<polygon fill="white" stroke="#666666" points="1346.5,-212.5 1245.5,-212.5 1245.5,-193.5 1346.5,-193.5 1346.5,-212.5"/>
<text text-anchor="middle" x="1296" y="-200.5" font-family="Helvetica,sans-Serif" font-size="10.00">wmtk::set_logger</text>
</a>
</g>
</g>
<!-- Node26&#45;&gt;Node27 -->
<g id="edge31_Node000026_Node000027" class="edge">
<title>Node26&#45;&gt;Node27</title>
<g id="a_edge31_Node000026_Node000027"><a xlink:title=" ">
<path fill="none" stroke="#63b8ff" d="M1145.23,-203C1171.24,-203 1205.73,-203 1235.06,-203"/>
<polygon fill="#63b8ff" stroke="#63b8ff" points="1235.19,-206.5 1245.19,-203 1235.19,-199.5 1235.19,-206.5"/>
</a>
</g>
</g>
<!-- Node29 -->
<g id="Node000029" class="node">
<title>Node29</title>
<g id="a_Node000029"><a xlink:href="classwmtk_1_1_tuple.html#a0023f575be92cd5ceeeaaaa3762ea06d" target="_top" xlink:title="Checks if a tuple is &quot;null&quot;. This merely implies the global index is &#45;1.">
<polygon fill="white" stroke="#666666" points="1161,-175.5 1048,-175.5 1048,-156.5 1161,-156.5 1161,-175.5"/>
<text text-anchor="middle" x="1104.5" y="-163.5" font-family="Helvetica,sans-Serif" font-size="10.00">wmtk::Tuple::is_null</text>
</a>
</g>
</g>
<!-- Node28&#45;&gt;Node29 -->
<g id="edge33_Node000028_Node000029" class="edge">
<title>Node28&#45;&gt;Node29</title>
<g id="a_edge33_Node000028_Node000029"><a xlink:title=" ">
<path fill="none" stroke="#63b8ff" d="M962.07,-165.29C985.82,-165.41 1013.31,-165.55 1037.7,-165.67"/>
<polygon fill="#63b8ff" stroke="#63b8ff" points="1037.92,-169.17 1047.94,-165.72 1037.96,-162.17 1037.92,-169.17"/>
</a>
</g>
</g>
<!-- Node30 -->
<g id="Node000030" class="node">
<title>Node30</title>
<g id="a_Node000030"><a xlink:href="classwmtk_1_1_mesh.html#ade176d345902d97af8c5da04aa3a095b" target="_top" xlink:title=" ">
<polygon fill="white" stroke="#666666" points="1174.5,-120.5 1034.5,-120.5 1034.5,-101.5 1174.5,-101.5 1174.5,-120.5"/>
<text text-anchor="middle" x="1104.5" y="-108.5" font-family="Helvetica,sans-Serif" font-size="10.00">wmtk::Mesh::is_removed</text>
</a>
</g>
</g>
<!-- Node28&#45;&gt;Node30 -->
<g id="edge34_Node000028_Node000030" class="edge">
<title>Node28&#45;&gt;Node30</title>
<g id="a_edge34_Node000028_Node000030"><a xlink:title=" ">
<path fill="none" stroke="#63b8ff" d="M948.04,-155.42C960.69,-152.56 974.42,-149.31 987,-146 1012.68,-139.25 1041.24,-130.68 1063.66,-123.72"/>
<polygon fill="#63b8ff" stroke="#63b8ff" points="1064.99,-126.97 1073.49,-120.64 1062.9,-120.29 1064.99,-126.97"/>
</a>
</g>
</g>
<!-- Node30&#45;&gt;Node30 -->
<g id="edge35_Node000030_Node000030" class="edge">
<title>Node30&#45;&gt;Node30</title>
<g id="a_edge35_Node000030_Node000030"><a xlink:title=" ">
<path fill="none" stroke="#63b8ff" d="M1075.22,-120.58C1060.97,-129.23 1070.73,-138.5 1104.5,-138.5 1127.72,-138.5 1139.59,-134.12 1140.11,-128.57"/>
<polygon fill="#63b8ff" stroke="#63b8ff" points="1142.73,-126.25 1133.78,-120.58 1137.25,-130.6 1142.73,-126.25"/>
</a>
</g>
</g>
<!-- Node32 -->
<g id="Node000032" class="node">
<title>Node32</title>
<g id="a_Node000032"><a xlink:href="namespacewmtk_1_1autogen_1_1tet__mesh.html#ace6b80b1be9aec0d6a5ac5d144b40965" target="_top" xlink:title=" ">
<polygon fill="white" stroke="#666666" points="1165.5,-83.5 1043.5,-83.5 1043.5,-42.5 1165.5,-42.5 1165.5,-83.5"/>
<text text-anchor="start" x="1051.5" y="-71.5" font-family="Helvetica,sans-Serif" font-size="10.00">wmtk::autogen::tet</text>
<text text-anchor="start" x="1051.5" y="-60.5" font-family="Helvetica,sans-Serif" font-size="10.00">_mesh::local_id_table</text>
<text text-anchor="middle" x="1104.5" y="-49.5" font-family="Helvetica,sans-Serif" font-size="10.00">_offset</text>
</a>
</g>
</g>
<!-- Node31&#45;&gt;Node32 -->
<g id="edge38_Node000031_Node000032" class="edge">
<title>Node31&#45;&gt;Node32</title>
<g id="a_edge38_Node000031_Node000032"><a xlink:title=" ">
<path fill="none" stroke="#63b8ff" d="M963.16,-100.8C985.36,-94.82 1010.71,-87.99 1033.69,-81.8"/>
<polygon fill="#63b8ff" stroke="#63b8ff" points="1034.64,-85.17 1043.39,-79.19 1032.82,-78.41 1034.64,-85.17"/>
</a>
</g>
</g>
<!-- Node33 -->
<g id="Node000033" class="node">
<title>Node33</title>
<g id="a_Node000033"><a xlink:href="classwmtk_1_1utils_1_1_tuple_inspector.html#a3a04acf16e0eff80ade8e0fb8753ac1b" target="_top" xlink:title=" ">
<polygon fill="white" stroke="#666666" points="1370,-126 1222,-126 1222,-96 1370,-96 1370,-126"/>
<text text-anchor="start" x="1230" y="-114" font-family="Helvetica,sans-Serif" font-size="10.00">wmtk::utils::TupleInspector</text>
<text text-anchor="middle" x="1296" y="-103" font-family="Helvetica,sans-Serif" font-size="10.00">::local_eid</text>
</a>
</g>
</g>
<!-- Node32&#45;&gt;Node33 -->
<g id="edge39_Node000032_Node000033" class="edge">
<title>Node32&#45;&gt;Node33</title>
<g id="a_edge39_Node000032_Node000033"><a xlink:title=" ">
<path fill="none" stroke="#63b8ff" d="M1165.72,-78.25C1184.82,-83.09 1206.09,-88.48 1225.77,-93.46"/>
<polygon fill="#63b8ff" stroke="#63b8ff" points="1225.03,-96.89 1235.59,-95.95 1226.75,-90.1 1225.03,-96.89"/>
</a>
</g>
</g>
<!-- Node34 -->
<g id="Node000034" class="node">
<title>Node34</title>
<g id="a_Node000034"><a xlink:href="classwmtk_1_1utils_1_1_tuple_inspector.html#ae4f5c770f4a2f9440eef24448929432d" target="_top" xlink:title=" ">
<polygon fill="white" stroke="#666666" points="1370,-78 1222,-78 1222,-48 1370,-48 1370,-78"/>
<text text-anchor="start" x="1230" y="-66" font-family="Helvetica,sans-Serif" font-size="10.00">wmtk::utils::TupleInspector</text>
<text text-anchor="middle" x="1296" y="-55" font-family="Helvetica,sans-Serif" font-size="10.00">::local_fid</text>
</a>
</g>
</g>
<!-- Node32&#45;&gt;Node34 -->
<g id="edge40_Node000032_Node000034" class="edge">
<title>Node32&#45;&gt;Node34</title>
<g id="a_edge40_Node000032_Node000034"><a xlink:title=" ">
<path fill="none" stroke="#63b8ff" d="M1165.72,-63C1180.39,-63 1196.34,-63 1211.86,-63"/>
<polygon fill="#63b8ff" stroke="#63b8ff" points="1211.99,-66.5 1221.99,-63 1211.99,-59.5 1211.99,-66.5"/>
</a>
</g>
</g>
<!-- Node35 -->
<g id="Node000035" class="node">
<title>Node35</title>
<g id="a_Node000035"><a xlink:href="classwmtk_1_1utils_1_1_tuple_inspector.html#a92f5faa08a7f78424f5cd1ec79dcedbb" target="_top" xlink:title=" ">
<polygon fill="white" stroke="#666666" points="1370,-30 1222,-30 1222,0 1370,0 1370,-30"/>
<text text-anchor="start" x="1230" y="-18" font-family="Helvetica,sans-Serif" font-size="10.00">wmtk::utils::TupleInspector</text>
<text text-anchor="middle" x="1296" y="-7" font-family="Helvetica,sans-Serif" font-size="10.00">::local_vid</text>
</a>
</g>
</g>
<!-- Node32&#45;&gt;Node35 -->
<g id="edge41_Node000032_Node000035" class="edge">
<title>Node32&#45;&gt;Node35</title>
<g id="a_edge41_Node000032_Node000035"><a xlink:title=" ">
<path fill="none" stroke="#63b8ff" d="M1165.72,-47.75C1184.82,-42.91 1206.09,-37.52 1225.77,-32.54"/>
<polygon fill="#63b8ff" stroke="#63b8ff" points="1226.75,-35.9 1235.59,-30.05 1225.03,-29.11 1226.75,-35.9"/>
</a>
</g>
</g>
<!-- Node36&#45;&gt;Node32 -->
<g id="edge43_Node000036_Node000032" class="edge">
<title>Node36&#45;&gt;Node32</title>
<g id="a_edge43_Node000036_Node000032"><a xlink:title=" ">
<path fill="none" stroke="#63b8ff" d="M744.26,-102.92C766.57,-97.12 792.88,-90.95 817,-87 890.19,-75.01 974.93,-68.85 1033.16,-65.8"/>
<polygon fill="#63b8ff" stroke="#63b8ff" points="1033.54,-69.28 1043.35,-65.28 1033.19,-62.29 1033.54,-69.28"/>
</a>
</g>
</g>
</g>
</svg>

<g id="navigator" transform="translate(0 0)" fill="#404254">
  <rect fill="#f2f5e9" fill-opacity="0.5" stroke="#606060" stroke-width=".5" x="0" y="0" width="60" height="60"/>
  <use id="zoomplus" xlink:href="#zoomPlus" x="17" y="9" onmousedown="handleZoom(evt,'in')"/>
  <use id="zoomminus" xlink:href="#zoomMin" x="42" y="9" onmousedown="handleZoom(evt,'out')"/>
  <use id="reset" xlink:href="#resetDef" x="30" y="36" onmousedown="handleReset()"/>
   <use id="arrowup" xlink:href="#arrowUp" x="0" y="0" onmousedown="handlePan(0,-1)"/>
  <use id="arrowright" xlink:href="#arrowRight" x="0" y="0" onmousedown="handlePan(1,0)"/>
  <use id="arrowdown" xlink:href="#arrowDown" x="0" y="0" onmousedown="handlePan(0,1)"/>
  <use id="arrowleft" xlink:href="#arrowLeft" x="0" y="0" onmousedown="handlePan(-1,0)"/>
</g>
<svg viewBox="0 0 15 15" width="100%" height="30px" preserveAspectRatio="xMaxYMin meet">
 <g id="arrow_out" transform="scale(0.3 0.3)">
  <a xlink:href="classwmtk_1_1operations_1_1tet__mesh_1_1_collapse_new_attribute_topo_info_a9f0532f826f70f51e8b5a9a2275e426b_cgraph_org.svg" target="_base">
   <rect id="button" ry="5" rx="5" y="6" x="6" height="38" width="38"
        fill="#f2f5e9" fill-opacity="0.5" stroke="#606060" stroke-width="1.0"/>
   <path id="arrow"
     d="M 11.500037,31.436501 C 11.940474,20.09759 22.043105,11.32322 32.158766,21.979434 L 37.068811,17.246167 C 37.068811,17.246167 37.088388,32 37.088388,32 L 22.160133,31.978069 C 22.160133,31.978069 26.997745,27.140456 26.997745,27.140456 C 18.528582,18.264221 13.291696,25.230495 11.500037,31.436501 z"
     style="fill:#404040;"/>
  </a>
 </g>
</svg>

<style type='text/css'>
<![CDATA[
[data-mouse-over-selected='false'] { opacity: 0.7; }
[data-mouse-over-selected='true']  { opacity: 1.0; }
]]>
</style>
<script type="application/ecmascript"><![CDATA[
document.addEventListener('DOMContentLoaded', (event) => {
  highlightEdges();
  highlightAdjacentNodes();
});
]]></script>
</svg>
