<?xml version="1.0" encoding="UTF-8" standalone="no"?>
<!DOCTYPE svg PUBLIC "-//W3C//DTD SVG 1.1//EN"
 "http://www.w3.org/Graphics/SVG/1.1/DTD/svg11.dtd">
<!-- Generated by graphviz version 2.43.0 (0)
 -->
<!-- Title: wmtk::TetMesh::switch_tuple Pages: 1 -->
<!--zoomable 788 -->

<svg id="main" version="1.1" xmlns="http://www.w3.org/2000/svg" xmlns:xlink="http://www.w3.org/1999/xlink" xml:space="preserve" onload="init(evt)">
<style type="text/css"><![CDATA[
.node, .edge {opacity: 0.7;}
.node.selected, .edge.selected {opacity: 1;}
.edge:hover path { stroke: red; }
.edge:hover polygon { stroke: red; fill: red; }
]]></style>

<defs>
  <circle id="rim" cx="0" cy="0" r="7"/>
  <circle id="rim2" cx="0" cy="0" r="3.5"/>
  <g id="zoomPlus">
    <use xlink:href="#rim" fill="#404040"><set attributeName="fill" to="#808080" begin="zoomplus.mouseover" end="zoomplus.mouseout"/></use>
    <path d="M-4,0h8M0,-4v8" fill="none" stroke="white" stroke-width="1.5" pointer-events="none"/>
  </g>
  <g id="zoomMin">
    <use xlink:href="#rim" fill="#404040"><set attributeName="fill" to="#808080" begin="zoomminus.mouseover" end="zoomminus.mouseout"/></use>
    <path d="M-4,0h8" fill="none" stroke="white" stroke-width="1.5" pointer-events="none"/>
  </g>
  <g id="arrowUp" transform="translate(30 24)">
    <use xlink:href="#rim"/>
    <path pointer-events="none" fill="none" stroke="white" stroke-width="1.5" d="M0,-3.0v7 M-2.5,-0.5L0,-3.0L2.5,-0.5"/>
  </g>
  <g id="arrowRight" transform="rotate(90) translate(36 -43)">
    <use xlink:href="#rim"/>
    <path pointer-events="none" fill="none" stroke="white" stroke-width="1.5" d="M0,-3.0v7 M-2.5,-0.5L0,-3.0L2.5,-0.5"/>
  </g>
  <g id="arrowDown" transform="rotate(180) translate(-30 -48)">
    <use xlink:href="#rim"/>
    <path pointer-events="none" fill="none" stroke="white" stroke-width="1.5" d="M0,-3.0v7 M-2.5,-0.5L0,-3.0L2.5,-0.5"/>
  </g>
  <g id="arrowLeft" transform="rotate(270) translate(-36 17)">
    <use xlink:href="#rim"/>
    <path pointer-events="none" fill="none" stroke="white" stroke-width="1.5" d="M0,-3.0v7 M-2.5,-0.5L0,-3.0L2.5,-0.5"/>
  </g>
  <g id="resetDef">
    <use xlink:href="#rim2" fill="#404040"><set attributeName="fill" to="#808080" begin="reset.mouseover" end="reset.mouseout"/></use>
  </g>
</defs>
<script type="application/ecmascript">
var viewWidth = 1087;
var viewHeight = 788;
var sectionId = 'dynsection-46';
</script>
<script type="application/ecmascript" xlink:href="svg.min.js"/>
<svg id="graph" class="graph">
<g id="viewport">
<title>wmtk::TetMesh::switch_tuple</title>
<!-- Node1 -->
<g id="Node000001" class="node">
<title>Node1</title>
<g id="a_Node000001"><a xlink:title="switch the orientation of the Tuple of the given dimension">
<polygon fill="#999999" stroke="#666666" points="128,-255.51 0,-255.51 0,-225.51 128,-225.51 128,-255.51"/>
<text text-anchor="start" x="8" y="-243.51" font-family="Helvetica,sans-Serif" font-size="10.00">wmtk::TetMesh::switch</text>
<text text-anchor="middle" x="64" y="-232.51" font-family="Helvetica,sans-Serif" font-size="10.00">_tuple</text>
</a>
</g>
</g>
<!-- Node2 -->
<g id="Node000002" class="node">
<title>Node2</title>
<g id="a_Node000002"><a xlink:href="classwmtk_1_1_tet_mesh.html#aa8424e5e4d709981e9e10d659f87f97d" target="_top" xlink:title=" ">
<polygon fill="white" stroke="#666666" points="686.5,-58.01 580.5,-58.01 580.5,-39.01 686.5,-39.01 686.5,-58.01"/>
<text text-anchor="middle" x="633.5" y="-46.01" font-family="Helvetica,sans-Serif" font-size="10.00">wmtk::TetMesh::id</text>
</a>
</g>
</g>
<!-- Node1&#45;&gt;Node2 -->
<g id="edge1_Node000001_Node000002" class="edge">
<title>Node1&#45;&gt;Node2</title>
<g id="a_edge1_Node000001_Node000002"><a xlink:title=" ">
<path fill="none" stroke="#63b8ff" d="M73.31,-225.26C88.19,-199.32 121.79,-146.52 164,-116.51 286.63,-29.3 473.47,-32.05 569.97,-40.69"/>
<polygon fill="#63b8ff" stroke="#63b8ff" points="569.86,-44.19 580.15,-41.65 570.52,-37.22 569.86,-44.19"/>
</a>
</g>
</g>
<!-- Node5 -->
<g id="Node000005" class="node">
<title>Node5</title>
<g id="a_Node000005"><a xlink:href="classwmtk_1_1_tuple.html#ab5fa210c660a9d678768c15d7c4f78f0" target="_top" xlink:title=" ">
<polygon fill="white" stroke="#666666" points="885,-667.01 763,-667.01 763,-648.01 885,-648.01 885,-667.01"/>
<text text-anchor="middle" x="824" y="-655.01" font-family="Helvetica,sans-Serif" font-size="10.00">wmtk::Tuple::local_fid</text>
</a>
</g>
</g>
<!-- Node1&#45;&gt;Node5 -->
<g id="edge44_Node000001_Node000005" class="edge">
<title>Node1&#45;&gt;Node5</title>
<g id="a_edge44_Node000001_Node000005"><a xlink:title=" ">
<path fill="none" stroke="#63b8ff" d="M66.68,-255.67C72.64,-304.38 96.24,-459.94 164,-566.51 218.55,-652.28 241.24,-677.94 334,-719.51 488.84,-788.88 554.83,-799.49 715,-743.51 753.95,-729.89 789.35,-695.7 808.37,-674.76"/>
<polygon fill="#63b8ff" stroke="#63b8ff" points="811.05,-677.01 815.04,-667.2 805.8,-672.38 811.05,-677.01"/>
</a>
</g>
</g>
<!-- Node7 -->
<g id="Node000007" class="node">
<title>Node7</title>
<g id="a_Node000007"><a xlink:href="classwmtk_1_1_tet_mesh.html#af4002e7a36e20373deb54576caffa682" target="_top" xlink:title=" ">
<polygon fill="white" stroke="#666666" points="516,-710.01 334,-710.01 334,-691.01 516,-691.01 516,-710.01"/>
<text text-anchor="middle" x="425" y="-698.01" font-family="Helvetica,sans-Serif" font-size="10.00">wmtk::TetMesh::is_boundary_face</text>
</a>
</g>
</g>
<!-- Node1&#45;&gt;Node7 -->
<g id="edge6_Node000001_Node000007" class="edge">
<title>Node1&#45;&gt;Node7</title>
<g id="a_edge6_Node000001_Node000007"><a xlink:title=" ">
<path fill="none" stroke="#63b8ff" d="M70.09,-255.75C91.49,-317.52 180.28,-551.64 334,-671.51 342.72,-678.31 353.09,-683.54 363.63,-687.55"/>
<polygon fill="#63b8ff" stroke="#63b8ff" points="362.72,-690.94 373.31,-690.91 365.01,-684.33 362.72,-690.94"/>
</a>
</g>
</g>
<!-- Node9 -->
<g id="Node000009" class="node">
<title>Node9</title>
<g id="a_Node000009"><a xlink:href="classwmtk_1_1_tet_mesh.html#af07828ce32b19a3d5fc8e1cb6f365029" target="_top" xlink:title="check validity of tuple including its hash">
<polygon fill="white" stroke="#666666" points="298,-250.01 164,-250.01 164,-231.01 298,-231.01 298,-250.01"/>
<text text-anchor="middle" x="231" y="-238.01" font-family="Helvetica,sans-Serif" font-size="10.00">wmtk::TetMesh::is_valid</text>
</a>
</g>
</g>
<!-- Node1&#45;&gt;Node9 -->
<g id="edge9_Node000001_Node000009" class="edge">
<title>Node1&#45;&gt;Node9</title>
<g id="a_edge9_Node000001_Node000009"><a xlink:title=" ">
<path fill="none" stroke="#63b8ff" d="M128.32,-240.51C136.59,-240.51 145.13,-240.51 153.59,-240.51"/>
<polygon fill="#63b8ff" stroke="#63b8ff" points="153.84,-244.01 163.84,-240.51 153.84,-237.01 153.84,-244.01"/>
</a>
</g>
</g>
<!-- Node31 -->
<g id="Node000031" class="node">
<title>Node31</title>
<g id="a_Node000031"><a xlink:href="namespacewmtk_1_1autogen_1_1tet__mesh.html#a4060d948aa959f21810c425f3f197dd5" target="_top" xlink:title=" ">
<polygon fill="white" stroke="#666666" points="497.5,-95.51 352.5,-95.51 352.5,-65.51 497.5,-65.51 497.5,-95.51"/>
<text text-anchor="start" x="360.5" y="-83.51" font-family="Helvetica,sans-Serif" font-size="10.00">wmtk::autogen::tet</text>
<text text-anchor="middle" x="425" y="-72.51" font-family="Helvetica,sans-Serif" font-size="10.00">_mesh::local_switch_tuple</text>
</a>
</g>
</g>
<!-- Node1&#45;&gt;Node31 -->
<g id="edge45_Node000001_Node000031" class="edge">
<title>Node1&#45;&gt;Node31</title>
<g id="a_edge45_Node000001_Node000031"><a xlink:title=" ">
<path fill="none" stroke="#63b8ff" d="M90.53,-225.33C137.38,-197.99 240.85,-140.03 334,-104.51 339.52,-102.4 345.29,-100.41 351.14,-98.54"/>
<polygon fill="#63b8ff" stroke="#63b8ff" points="352.48,-101.79 361.01,-95.51 350.42,-95.1 352.48,-101.79"/>
</a>
</g>
</g>
<!-- Node3 -->
<g id="Node000003" class="node">
<title>Node3</title>
<g id="a_Node000003"><a xlink:href="classwmtk_1_1_tuple.html#aef64a43ff5f5617dbc99d865356bbc25" target="_top" xlink:title=" ">
<polygon fill="white" stroke="#666666" points="889.5,-193.01 758.5,-193.01 758.5,-174.01 889.5,-174.01 889.5,-193.01"/>
<text text-anchor="middle" x="824" y="-181.01" font-family="Helvetica,sans-Serif" font-size="10.00">wmtk::Tuple::global_cid</text>
</a>
</g>
</g>
<!-- Node2&#45;&gt;Node3 -->
<g id="edge2_Node000002_Node000003" class="edge">
<title>Node2&#45;&gt;Node3</title>
<g id="a_edge2_Node000002_Node000003"><a xlink:title=" ">
<path fill="none" stroke="#63b8ff" d="M686.9,-54.59C696.75,-57.25 706.58,-61.06 715,-66.51 737.4,-80.98 733.31,-94.55 751,-114.51 767.95,-133.64 789.3,-153.66 804.34,-167.17"/>
<polygon fill="#63b8ff" stroke="#63b8ff" points="802.17,-169.93 811.97,-173.96 806.83,-164.7 802.17,-169.93"/>
</a>
</g>
</g>
<!-- Node4 -->
<g id="Node000004" class="node">
<title>Node4</title>
<g id="a_Node000004"><a xlink:href="classwmtk_1_1_tuple.html#ac3cd5381c7147e3ff35347c574635311" target="_top" xlink:title=" ">
<polygon fill="white" stroke="#666666" points="886.5,-106.01 761.5,-106.01 761.5,-87.01 886.5,-87.01 886.5,-106.01"/>
<text text-anchor="middle" x="824" y="-94.01" font-family="Helvetica,sans-Serif" font-size="10.00">wmtk::Tuple::local_eid</text>
</a>
</g>
</g>
<!-- Node2&#45;&gt;Node4 -->
<g id="edge3_Node000002_Node000004" class="edge">
<title>Node2&#45;&gt;Node4</title>
<g id="a_edge3_Node000002_Node000004"><a xlink:title=" ">
<path fill="none" stroke="#63b8ff" d="M679.3,-58.1C690.95,-60.71 703.47,-63.62 715,-66.51 736.64,-71.93 760.55,-78.51 780.37,-84.12"/>
<polygon fill="#63b8ff" stroke="#63b8ff" points="779.45,-87.5 790.03,-86.88 781.37,-80.77 779.45,-87.5"/>
</a>
</g>
</g>
<!-- Node2&#45;&gt;Node5 -->
<g id="edge4_Node000002_Node000005" class="edge">
<title>Node2&#45;&gt;Node5</title>
<g id="a_edge4_Node000002_Node000005"><a xlink:title=" ">
<path fill="none" stroke="#63b8ff" d="M686.58,-50.22C697.41,-53.05 707.72,-58.03 715,-66.51 791.89,-156.08 697.76,-491.14 751,-596.51 760.91,-616.12 780.21,-631.93 796.33,-642.54"/>
<polygon fill="#63b8ff" stroke="#63b8ff" points="794.55,-645.55 804.88,-647.88 798.26,-639.61 794.55,-645.55"/>
</a>
</g>
</g>
<!-- Node6 -->
<g id="Node000006" class="node">
<title>Node6</title>
<g id="a_Node000006"><a xlink:href="classwmtk_1_1_tuple.html#a27f6ee155923e848b461bebea1890abc" target="_top" xlink:title=" ">
<polygon fill="white" stroke="#666666" points="886.5,-58.01 761.5,-58.01 761.5,-39.01 886.5,-39.01 886.5,-58.01"/>
<text text-anchor="middle" x="824" y="-46.01" font-family="Helvetica,sans-Serif" font-size="10.00">wmtk::Tuple::local_vid</text>
</a>
</g>
</g>
<!-- Node2&#45;&gt;Node6 -->
<g id="edge5_Node000002_Node000006" class="edge">
<title>Node2&#45;&gt;Node6</title>
<g id="a_edge5_Node000002_Node000006"><a xlink:title=" ">
<path fill="none" stroke="#63b8ff" d="M686.51,-48.51C706.55,-48.51 729.8,-48.51 751.37,-48.51"/>
<polygon fill="#63b8ff" stroke="#63b8ff" points="751.47,-52.01 761.47,-48.51 751.47,-45.01 751.47,-52.01"/>
</a>
</g>
</g>
<!-- Node7&#45;&gt;Node5 -->
<g id="edge8_Node000007_Node000005" class="edge">
<title>Node7&#45;&gt;Node5</title>
<g id="a_edge8_Node000007_Node000005"><a xlink:title=" ">
<path fill="none" stroke="#63b8ff" d="M456.65,-710.06C510.18,-725.21 623.73,-750.52 715,-724.51 749.72,-714.61 784.18,-689.99 804.52,-673.52"/>
<polygon fill="#63b8ff" stroke="#63b8ff" points="806.89,-676.1 812.34,-667.02 802.41,-670.72 806.89,-676.1"/>
</a>
</g>
</g>
<!-- Node8 -->
<g id="Node000008" class="node">
<title>Node8</title>
<g id="a_Node000008"><a xlink:href="classwmtk_1_1attribute_1_1_accessor.html#abecebb154568864219abda80a1beb803" target="_top" xlink:title="Constant access function for a vector attribute.">
<polygon fill="white" stroke="#666666" points="704.5,-715.51 562.5,-715.51 562.5,-685.51 704.5,-685.51 704.5,-715.51"/>
<text text-anchor="start" x="570.5" y="-703.51" font-family="Helvetica,sans-Serif" font-size="10.00">wmtk::attribute::Accessor</text>
<text text-anchor="middle" x="633.5" y="-692.51" font-family="Helvetica,sans-Serif" font-size="10.00">::const_vector_attribute</text>
</a>
</g>
</g>
<!-- Node7&#45;&gt;Node8 -->
<g id="edge7_Node000007_Node000008" class="edge">
<title>Node7&#45;&gt;Node8</title>
<g id="a_edge7_Node000007_Node000008"><a xlink:title=" ">
<path fill="none" stroke="#63b8ff" d="M516.27,-700.51C528.19,-700.51 540.35,-700.51 552.09,-700.51"/>
<polygon fill="#63b8ff" stroke="#63b8ff" points="552.28,-704.01 562.28,-700.51 552.28,-697.01 552.28,-704.01"/>
</a>
</g>
</g>
<!-- Node9&#45;&gt;Node3 -->
<g id="edge10_Node000009_Node000003" class="edge">
<title>Node9&#45;&gt;Node3</title>
<g id="a_edge10_Node000009_Node000003"><a xlink:title=" ">
<path fill="none" stroke="#63b8ff" d="M298.1,-235.47C391.21,-228.17 566.25,-213.76 715,-197.51 725.72,-196.33 737.03,-194.99 748.12,-193.61"/>
<polygon fill="#63b8ff" stroke="#63b8ff" points="748.75,-197.06 758.23,-192.33 747.87,-190.11 748.75,-197.06"/>
</a>
</g>
</g>
<!-- Node9&#45;&gt;Node4 -->
<g id="edge35_Node000009_Node000004" class="edge">
<title>Node9&#45;&gt;Node4</title>
<g id="a_edge35_Node000009_Node000004"><a xlink:title=" ">
<path fill="none" stroke="#63b8ff" d="M266.86,-230.98C286.54,-225.68 311.6,-219.06 334,-213.51 502.69,-171.71 546.38,-167.6 715,-125.51 736.01,-120.26 759.22,-114.08 778.72,-108.77"/>
<polygon fill="#63b8ff" stroke="#63b8ff" points="779.82,-112.1 788.55,-106.09 777.98,-105.35 779.82,-112.1"/>
</a>
</g>
</g>
<!-- Node9&#45;&gt;Node5 -->
<g id="edge36_Node000009_Node000005" class="edge">
<title>Node9&#45;&gt;Node5</title>
<g id="a_edge36_Node000009_Node000005"><a xlink:title=" ">
<path fill="none" stroke="#63b8ff" d="M233.32,-250.23C238.89,-287.82 263.42,-425.62 334,-509.51 406.48,-595.65 444.52,-605 552,-638.51 617.91,-659.05 697.06,-662.31 752.75,-661.34"/>
<polygon fill="#63b8ff" stroke="#63b8ff" points="752.95,-664.83 762.87,-661.11 752.79,-657.84 752.95,-664.83"/>
</a>
</g>
</g>
<!-- Node9&#45;&gt;Node6 -->
<g id="edge37_Node000009_Node000006" class="edge">
<title>Node9&#45;&gt;Node6</title>
<g id="a_edge37_Node000009_Node000006"><a xlink:title=" ">
<path fill="none" stroke="#63b8ff" d="M234.1,-230.8C241.47,-199.44 269.22,-100.25 334,-56.51 475.27,38.89 695.71,-10.42 784.26,-36.14"/>
<polygon fill="#63b8ff" stroke="#63b8ff" points="783.31,-39.51 793.9,-39 785.3,-32.8 783.31,-39.51"/>
</a>
</g>
</g>
<!-- Node10 -->
<g id="Node000010" class="node">
<title>Node10</title>
<g id="a_Node000010"><a xlink:href="classwmtk_1_1_tet_mesh.html#ad4ba72346d616d38086be74705865e55" target="_top" xlink:title=" ">
<polygon fill="white" stroke="#666666" points="510,-500.51 340,-500.51 340,-470.51 510,-470.51 510,-500.51"/>
<text text-anchor="start" x="348" y="-488.51" font-family="Helvetica,sans-Serif" font-size="10.00">wmtk::TetMesh::is_connectivity</text>
<text text-anchor="middle" x="425" y="-477.51" font-family="Helvetica,sans-Serif" font-size="10.00">_valid</text>
</a>
</g>
</g>
<!-- Node9&#45;&gt;Node10 -->
<g id="edge11_Node000009_Node000010" class="edge">
<title>Node9&#45;&gt;Node10</title>
<g id="a_edge11_Node000009_Node000010"><a xlink:title=" ">
<path fill="none" stroke="#63b8ff" d="M239.53,-250.11C267.37,-285.64 365.05,-410.28 405.86,-462.36"/>
<polygon fill="#63b8ff" stroke="#63b8ff" points="403.21,-464.65 412.13,-470.36 408.72,-460.33 403.21,-464.65"/>
</a>
</g>
</g>
<!-- Node23 -->
<g id="Node000023" class="node">
<title>Node23</title>
<g id="a_Node000023"><a xlink:href="namespacewmtk.html#a6a35f11c12436093d26fdd8be6fecc06" target="_top" xlink:title="Retrieves the current logger.">
<polygon fill="white" stroke="#666666" points="674,-361.01 593,-361.01 593,-342.01 674,-342.01 674,-361.01"/>
<text text-anchor="middle" x="633.5" y="-349.01" font-family="Helvetica,sans-Serif" font-size="10.00">wmtk::logger</text>
</a>
</g>
</g>
<!-- Node9&#45;&gt;Node23 -->
<g id="edge38_Node000009_Node000023" class="edge">
<title>Node9&#45;&gt;Node23</title>
<g id="a_edge38_Node000009_Node000023"><a xlink:title=" ">
<path fill="none" stroke="#63b8ff" d="M248.02,-250.2C267.63,-261.67 302.17,-280.57 334,-291.51 419.06,-320.74 522.92,-337.62 583.01,-345.65"/>
<polygon fill="#63b8ff" stroke="#63b8ff" points="582.62,-349.13 592.99,-346.96 583.53,-342.19 582.62,-349.13"/>
</a>
</g>
</g>
<!-- Node26 -->
<g id="Node000026" class="node">
<title>Node26</title>
<g id="a_Node000026"><a xlink:href="classwmtk_1_1_mesh.html#a8cc8686f0688613806f43720b6db49e7" target="_top" xlink:title="check validity of tuple including its hash">
<polygon fill="white" stroke="#666666" points="485,-282.01 365,-282.01 365,-263.01 485,-263.01 485,-282.01"/>
<text text-anchor="middle" x="425" y="-270.01" font-family="Helvetica,sans-Serif" font-size="10.00">wmtk::Mesh::is_valid</text>
</a>
</g>
</g>
<!-- Node9&#45;&gt;Node26 -->
<g id="edge29_Node000009_Node000026" class="edge">
<title>Node9&#45;&gt;Node26</title>
<g id="a_edge29_Node000009_Node000026"><a xlink:title=" ">
<path fill="none" stroke="#63b8ff" d="M289.09,-250.02C310.37,-253.57 334.72,-257.62 356.82,-261.31"/>
<polygon fill="#63b8ff" stroke="#63b8ff" points="356.36,-264.78 366.8,-262.97 357.51,-257.88 356.36,-264.78"/>
</a>
</g>
</g>
<!-- Node29 -->
<g id="Node000029" class="node">
<title>Node29</title>
<g id="a_Node000029"><a xlink:href="namespacewmtk_1_1autogen_1_1tet__mesh.html#a217b7c5c5312a716ad27c99abcfc0eb1" target="_top" xlink:title=" ">
<polygon fill="white" stroke="#666666" points="486,-155.01 364,-155.01 364,-114.01 486,-114.01 486,-155.01"/>
<text text-anchor="start" x="372" y="-143.01" font-family="Helvetica,sans-Serif" font-size="10.00">wmtk::autogen::tet</text>
<text text-anchor="start" x="372" y="-132.01" font-family="Helvetica,sans-Serif" font-size="10.00">_mesh::tuple_is_valid</text>
<text text-anchor="middle" x="425" y="-121.01" font-family="Helvetica,sans-Serif" font-size="10.00">_for_ccw</text>
</a>
</g>
</g>
<!-- Node9&#45;&gt;Node29 -->
<g id="edge39_Node000009_Node000029" class="edge">
<title>Node9&#45;&gt;Node29</title>
<g id="a_edge39_Node000009_Node000029"><a xlink:title=" ">
<path fill="none" stroke="#63b8ff" d="M243.95,-230.77C262.41,-216.06 299.34,-187.97 334,-169.51 340.87,-165.85 348.2,-162.37 355.61,-159.12"/>
<polygon fill="#63b8ff" stroke="#63b8ff" points="357.16,-162.26 365,-155.13 354.43,-155.81 357.16,-162.26"/>
</a>
</g>
</g>
<!-- Node10&#45;&gt;Node8 -->
<g id="edge15_Node000010_Node000008" class="edge">
<title>Node10&#45;&gt;Node8</title>
<g id="a_edge15_Node000010_Node000008"><a xlink:title=" ">
<path fill="none" stroke="#63b8ff" d="M436.79,-500.8C457.39,-529.47 504.53,-592.56 552,-638.51 567.4,-653.41 586.32,-668.13 601.94,-679.49"/>
<polygon fill="#63b8ff" stroke="#63b8ff" points="600.07,-682.46 610.24,-685.43 604.15,-676.76 600.07,-682.46"/>
</a>
</g>
</g>
<!-- Node11 -->
<g id="Node000011" class="node">
<title>Node11</title>
<g id="a_Node000011"><a xlink:href="classwmtk_1_1_mesh.html#a3e8ff83c4a5526a40d18bb9883c6c6c9" target="_top" xlink:title="read in the m_capacities return the upper bound for the number of entities of the given dimension">
<polygon fill="white" stroke="#666666" points="886,-489.01 762,-489.01 762,-470.01 886,-470.01 886,-489.01"/>
<text text-anchor="middle" x="824" y="-477.01" font-family="Helvetica,sans-Serif" font-size="10.00">wmtk::Mesh::capacity</text>
</a>
</g>
</g>
<!-- Node10&#45;&gt;Node11 -->
<g id="edge12_Node000010_Node000011" class="edge">
<title>Node10&#45;&gt;Node11</title>
<g id="a_edge12_Node000010_Node000011"><a xlink:title=" ">
<path fill="none" stroke="#63b8ff" d="M510.19,-484.23C581.96,-483.15 683.97,-481.61 751.75,-480.58"/>
<polygon fill="#63b8ff" stroke="#63b8ff" points="751.97,-484.08 761.91,-480.43 751.86,-477.08 751.97,-484.08"/>
</a>
</g>
</g>
<!-- Node13 -->
<g id="Node000013" class="node">
<title>Node13</title>
<g id="a_Node000013"><a xlink:href="classwmtk_1_1attribute_1_1_accessor.html#a6d3222130c85d3dcd2d7ae51257dc988" target="_top" xlink:title="Constant access function for a scalar attribute.">
<polygon fill="white" stroke="#666666" points="704.5,-457.51 562.5,-457.51 562.5,-427.51 704.5,-427.51 704.5,-457.51"/>
<text text-anchor="start" x="570.5" y="-445.51" font-family="Helvetica,sans-Serif" font-size="10.00">wmtk::attribute::Accessor</text>
<text text-anchor="middle" x="633.5" y="-434.51" font-family="Helvetica,sans-Serif" font-size="10.00">::const_scalar_attribute</text>
</a>
</g>
</g>
<!-- Node10&#45;&gt;Node13 -->
<g id="edge14_Node000010_Node000013" class="edge">
<title>Node10&#45;&gt;Node13</title>
<g id="a_edge14_Node000010_Node000013"><a xlink:title=" ">
<path fill="none" stroke="#63b8ff" d="M498.22,-470.47C515.79,-466.81 534.68,-462.88 552.58,-459.15"/>
<polygon fill="#63b8ff" stroke="#63b8ff" points="553.33,-462.57 562.4,-457.1 551.9,-455.71 553.33,-462.57"/>
</a>
</g>
</g>
<!-- Node14 -->
<g id="Node000014" class="node">
<title>Node14</title>
<g id="a_Node000014"><a xlink:href="classwmtk_1_1_mesh.html#ae3493915b766f0f34f0a9e89603d5773" target="_top" xlink:title=" ">
<polygon fill="white" stroke="#666666" points="694.5,-409.51 572.5,-409.51 572.5,-379.51 694.5,-379.51 694.5,-409.51"/>
<text text-anchor="start" x="580.5" y="-397.51" font-family="Helvetica,sans-Serif" font-size="10.00">wmtk::Mesh::get_flag</text>
<text text-anchor="middle" x="633.5" y="-386.51" font-family="Helvetica,sans-Serif" font-size="10.00">_accessor</text>
</a>
</g>
</g>
<!-- Node10&#45;&gt;Node14 -->
<g id="edge16_Node000010_Node000014" class="edge">
<title>Node10&#45;&gt;Node14</title>
<g id="a_edge16_Node000010_Node000014"><a xlink:title=" ">
<path fill="none" stroke="#63b8ff" d="M450.86,-470.38C475.78,-455.68 515.55,-433.45 552,-418.51 556.77,-416.55 561.76,-414.68 566.81,-412.9"/>
<polygon fill="#63b8ff" stroke="#63b8ff" points="568.21,-416.12 576.57,-409.61 565.97,-409.49 568.21,-416.12"/>
</a>
</g>
</g>
<!-- Node17 -->
<g id="Node000017" class="node">
<title>Node17</title>
<g id="a_Node000017"><a xlink:href="classwmtk_1_1attribute_1_1_flag_accessor.html#a4f49a666c3811fee9b841c1cd1f66250" target="_top" xlink:title=" ">
<polygon fill="white" stroke="#666666" points="715,-629.51 552,-629.51 552,-599.51 715,-599.51 715,-629.51"/>
<text text-anchor="start" x="560" y="-617.51" font-family="Helvetica,sans-Serif" font-size="10.00">wmtk::attribute::FlagAccessor</text>
<text text-anchor="middle" x="633.5" y="-606.51" font-family="Helvetica,sans-Serif" font-size="10.00">::index_access</text>
</a>
</g>
</g>
<!-- Node10&#45;&gt;Node17 -->
<g id="edge20_Node000010_Node000017" class="edge">
<title>Node10&#45;&gt;Node17</title>
<g id="a_edge20_Node000010_Node000017"><a xlink:title=" ">
<path fill="none" stroke="#63b8ff" d="M440.05,-500.61C461.91,-523.28 506.33,-566.01 552,-590.51 555.44,-592.35 559.05,-594.08 562.74,-595.68"/>
<polygon fill="#63b8ff" stroke="#63b8ff" points="561.49,-598.95 572.07,-599.43 564.1,-592.45 561.49,-598.95"/>
</a>
</g>
</g>
<!-- Node18 -->
<g id="Node000018" class="node">
<title>Node18</title>
<g id="a_Node000018"><a xlink:href="classwmtk_1_1attribute_1_1_index_flag_accessor.html#a195252af3f6230f09f0c1379cbec7240" target="_top" xlink:title=" ">
<polygon fill="white" stroke="#666666" points="706.5,-581.51 560.5,-581.51 560.5,-551.51 706.5,-551.51 706.5,-581.51"/>
<text text-anchor="start" x="568.5" y="-569.51" font-family="Helvetica,sans-Serif" font-size="10.00">wmtk::attribute::IndexFlag</text>
<text text-anchor="middle" x="633.5" y="-558.51" font-family="Helvetica,sans-Serif" font-size="10.00">Accessor::is_active</text>
</a>
</g>
</g>
<!-- Node10&#45;&gt;Node18 -->
<g id="edge21_Node000010_Node000018" class="edge">
<title>Node10&#45;&gt;Node18</title>
<g id="a_edge21_Node000010_Node000018"><a xlink:title=" ">
<path fill="none" stroke="#63b8ff" d="M456.32,-500.62C481.55,-512.85 518.6,-530.04 552,-542.51 557.43,-544.53 563.11,-546.51 568.83,-548.4"/>
<polygon fill="#63b8ff" stroke="#63b8ff" points="567.88,-551.77 578.47,-551.49 570.02,-545.1 567.88,-551.77"/>
</a>
</g>
</g>
<!-- Node10&#45;&gt;Node23 -->
<g id="edge26_Node000010_Node000023" class="edge">
<title>Node10&#45;&gt;Node23</title>
<g id="a_edge26_Node000010_Node000023"><a xlink:title=" ">
<path fill="none" stroke="#63b8ff" d="M438.18,-470.18C458.85,-445.28 503.29,-396.23 552,-370.51 561.53,-365.48 572.38,-361.76 582.97,-359.02"/>
<polygon fill="#63b8ff" stroke="#63b8ff" points="584.05,-362.37 592.99,-356.69 582.46,-355.55 584.05,-362.37"/>
</a>
</g>
</g>
<!-- Node25 -->
<g id="Node000025" class="node">
<title>Node25</title>
<g id="a_Node000025"><a xlink:href="classwmtk_1_1_tet_mesh.html#afd39672a8a046e96b7cd0d14516ebe79" target="_top" xlink:title=" ">
<polygon fill="white" stroke="#666666" points="711,-533.01 556,-533.01 556,-514.01 711,-514.01 711,-533.01"/>
<text text-anchor="middle" x="633.5" y="-521.01" font-family="Helvetica,sans-Serif" font-size="10.00">wmtk::TetMesh::tv_accessor</text>
</a>
</g>
</g>
<!-- Node10&#45;&gt;Node25 -->
<g id="edge28_Node000010_Node000025" class="edge">
<title>Node10&#45;&gt;Node25</title>
<g id="a_edge28_Node000010_Node000025"><a xlink:title=" ">
<path fill="none" stroke="#63b8ff" d="M507.61,-500.52C528.73,-504.41 551.12,-508.53 571.02,-512.19"/>
<polygon fill="#63b8ff" stroke="#63b8ff" points="570.4,-515.64 580.87,-514 571.67,-508.75 570.4,-515.64"/>
</a>
</g>
</g>
<!-- Node12 -->
<g id="Node000012" class="node">
<title>Node12</title>
<g id="a_Node000012"><a xlink:href="namespacewmtk.html#a5cf45c152e856196bb734c6f48919a24" target="_top" xlink:title="Get a unique integer id corresponding to each primitive type.">
<polygon fill="white" stroke="#666666" points="1064,-489.51 948,-489.51 948,-459.51 1064,-459.51 1064,-489.51"/>
<text text-anchor="start" x="956" y="-477.51" font-family="Helvetica,sans-Serif" font-size="10.00">wmtk::get_primitive</text>
<text text-anchor="middle" x="1006" y="-466.51" font-family="Helvetica,sans-Serif" font-size="10.00">_type_id</text>
</a>
</g>
</g>
<!-- Node11&#45;&gt;Node12 -->
<g id="edge13_Node000011_Node000012" class="edge">
<title>Node11&#45;&gt;Node12</title>
<g id="a_edge13_Node000011_Node000012"><a xlink:title=" ">
<path fill="none" stroke="#63b8ff" d="M886.19,-477.81C902.73,-477.35 920.73,-476.85 937.59,-476.38"/>
<polygon fill="#63b8ff" stroke="#63b8ff" points="938.02,-479.87 947.92,-476.09 937.83,-472.87 938.02,-479.87"/>
</a>
</g>
</g>
<!-- Node15 -->
<g id="Node000015" class="node">
<title>Node15</title>
<g id="a_Node000015"><a xlink:href="classwmtk_1_1_mesh.html#acfa981b31f00aef4438ff5e73bbce2f4" target="_top" xlink:title=" ">
<polygon fill="white" stroke="#666666" points="889,-427.51 759,-427.51 759,-397.51 889,-397.51 889,-427.51"/>
<text text-anchor="start" x="767" y="-415.51" font-family="Helvetica,sans-Serif" font-size="10.00">wmtk::Mesh::get_const</text>
<text text-anchor="middle" x="824" y="-404.51" font-family="Helvetica,sans-Serif" font-size="10.00">_flag_accessor</text>
</a>
</g>
</g>
<!-- Node14&#45;&gt;Node15 -->
<g id="edge17_Node000014_Node000015" class="edge">
<title>Node14&#45;&gt;Node15</title>
<g id="a_edge17_Node000014_Node000015"><a xlink:title=" ">
<path fill="none" stroke="#63b8ff" d="M694.66,-400.25C711.85,-401.89 730.8,-403.7 748.73,-405.41"/>
<polygon fill="#63b8ff" stroke="#63b8ff" points="748.57,-408.91 758.86,-406.38 749.23,-401.95 748.57,-408.91"/>
</a>
</g>
</g>
<!-- Node15&#45;&gt;Node12 -->
<g id="edge19_Node000015_Node000012" class="edge">
<title>Node15&#45;&gt;Node12</title>
<g id="a_edge19_Node000015_Node000012"><a xlink:title=" ">
<path fill="none" stroke="#63b8ff" d="M868.57,-427.51C893.59,-436.13 925.2,-447.02 951.7,-456.15"/>
<polygon fill="#63b8ff" stroke="#63b8ff" points="950.61,-459.47 961.2,-459.42 952.89,-452.85 950.61,-459.47"/>
</a>
</g>
</g>
<!-- Node16 -->
<g id="Node000016" class="node">
<title>Node16</title>
<g id="a_Node000016"><a xlink:href="classwmtk_1_1_mesh.html#a4cd7e6ca59d8d58cc7057c13bd190d57" target="_top" xlink:title=" ">
<polygon fill="white" stroke="#666666" points="1062.5,-427.51 949.5,-427.51 949.5,-397.51 1062.5,-397.51 1062.5,-427.51"/>
<text text-anchor="start" x="957.5" y="-415.51" font-family="Helvetica,sans-Serif" font-size="10.00">wmtk::Mesh::create</text>
<text text-anchor="middle" x="1006" y="-404.51" font-family="Helvetica,sans-Serif" font-size="10.00">_const_accessor</text>
</a>
</g>
</g>
<!-- Node15&#45;&gt;Node16 -->
<g id="edge18_Node000015_Node000016" class="edge">
<title>Node15&#45;&gt;Node16</title>
<g id="a_edge18_Node000015_Node000016"><a xlink:title=" ">
<path fill="none" stroke="#63b8ff" d="M889.22,-412.51C905.53,-412.51 923.06,-412.51 939.43,-412.51"/>
<polygon fill="#63b8ff" stroke="#63b8ff" points="939.45,-416.01 949.45,-412.51 939.45,-409.01 939.45,-416.01"/>
</a>
</g>
</g>
<!-- Node19 -->
<g id="Node000019" class="node">
<title>Node19</title>
<g id="a_Node000019"><a xlink:href="classwmtk_1_1attribute_1_1_index_flag_accessor.html#a08ce19b077654f9e384d8c3fffcbbd0b" target="_top" xlink:title=" ">
<polygon fill="white" stroke="#666666" points="897,-539.51 751,-539.51 751,-509.51 897,-509.51 897,-539.51"/>
<text text-anchor="start" x="759" y="-527.51" font-family="Helvetica,sans-Serif" font-size="10.00">wmtk::attribute::IndexFlag</text>
<text text-anchor="middle" x="824" y="-516.51" font-family="Helvetica,sans-Serif" font-size="10.00">Accessor::_is_active</text>
</a>
</g>
</g>
<!-- Node18&#45;&gt;Node19 -->
<g id="edge22_Node000018_Node000019" class="edge">
<title>Node18&#45;&gt;Node19</title>
<g id="a_edge22_Node000018_Node000019"><a xlink:title=" ">
<path fill="none" stroke="#63b8ff" d="M702.02,-551.46C716.18,-548.31 731.22,-544.95 745.71,-541.73"/>
<polygon fill="#63b8ff" stroke="#63b8ff" points="746.63,-545.11 755.63,-539.51 745.11,-538.27 746.63,-545.11"/>
</a>
</g>
</g>
<!-- Node20 -->
<g id="Node000020" class="node">
<title>Node20</title>
<g id="a_Node000020"><a xlink:href="classwmtk_1_1attribute_1_1_index_flag_accessor.html#a209b3c34d677a60d321806e30da8d287" target="_top" xlink:title=" ">
<polygon fill="white" stroke="#666666" points="897,-587.51 751,-587.51 751,-557.51 897,-557.51 897,-587.51"/>
<text text-anchor="start" x="759" y="-575.51" font-family="Helvetica,sans-Serif" font-size="10.00">wmtk::attribute::IndexFlag</text>
<text text-anchor="middle" x="824" y="-564.51" font-family="Helvetica,sans-Serif" font-size="10.00">Accessor::attribute</text>
</a>
</g>
</g>
<!-- Node18&#45;&gt;Node20 -->
<g id="edge23_Node000018_Node000020" class="edge">
<title>Node18&#45;&gt;Node20</title>
<g id="a_edge23_Node000018_Node000020"><a xlink:title=" ">
<path fill="none" stroke="#63b8ff" d="M706.57,-568.8C717.71,-569.15 729.29,-569.52 740.64,-569.88"/>
<polygon fill="#63b8ff" stroke="#63b8ff" points="740.86,-573.39 750.97,-570.21 741.09,-566.4 740.86,-573.39"/>
</a>
</g>
</g>
<!-- Node21 -->
<g id="Node000021" class="node">
<title>Node21</title>
<g id="a_Node000021"><a xlink:href="classwmtk_1_1attribute_1_1_accessor.html#aaeafc36889f90d4e4e9478f998d240d7" target="_top" xlink:title=" ">
<polygon fill="white" stroke="#666666" points="1077,-592.51 935,-592.51 935,-562.51 1077,-562.51 1077,-592.51"/>
<text text-anchor="start" x="943" y="-580.51" font-family="Helvetica,sans-Serif" font-size="10.00">wmtk::attribute::Accessor</text>
<text text-anchor="middle" x="1006" y="-569.51" font-family="Helvetica,sans-Serif" font-size="10.00">::attribute</text>
</a>
</g>
</g>
<!-- Node20&#45;&gt;Node21 -->
<g id="edge24_Node000020_Node000021" class="edge">
<title>Node20&#45;&gt;Node21</title>
<g id="a_edge24_Node000020_Node000021"><a xlink:title=" ">
<path fill="none" stroke="#63b8ff" d="M897.18,-574.51C906.2,-574.76 915.47,-575.02 924.62,-575.27"/>
<polygon fill="#63b8ff" stroke="#63b8ff" points="924.76,-578.78 934.86,-575.56 924.96,-571.78 924.76,-578.78"/>
</a>
</g>
</g>
<!-- Node22 -->
<g id="Node000022" class="node">
<title>Node22</title>
<g id="a_Node000022"><a xlink:href="classwmtk_1_1attribute_1_1_index_flag_accessor.html#a37e882007dc57e3571c18163a709a246" target="_top" xlink:title=" ">
<polygon fill="white" stroke="#666666" points="1079,-544.51 933,-544.51 933,-514.51 1079,-514.51 1079,-544.51"/>
<text text-anchor="start" x="941" y="-532.51" font-family="Helvetica,sans-Serif" font-size="10.00">wmtk::attribute::IndexFlag</text>
<text text-anchor="middle" x="1006" y="-521.51" font-family="Helvetica,sans-Serif" font-size="10.00">Accessor::base_accessor</text>
</a>
</g>
</g>
<!-- Node20&#45;&gt;Node22 -->
<g id="edge25_Node000020_Node000022" class="edge">
<title>Node20&#45;&gt;Node22</title>
<g id="a_edge25_Node000020_Node000022"><a xlink:title=" ">
<path fill="none" stroke="#63b8ff" d="M887.96,-557.47C902.21,-554.06 917.45,-550.42 932.08,-546.93"/>
<polygon fill="#63b8ff" stroke="#63b8ff" points="933.17,-550.26 942.08,-544.54 931.54,-543.46 933.17,-550.26"/>
</a>
</g>
</g>
<!-- Node24 -->
<g id="Node000024" class="node">
<title>Node24</title>
<g id="a_Node000024"><a xlink:href="namespacewmtk.html#a3daa7951a5f8b78cf4600dc047fcc180" target="_top" xlink:title="Setup a logger object to be used by WildmeshToolkit.">
<polygon fill="white" stroke="#666666" points="874.5,-361.01 773.5,-361.01 773.5,-342.01 874.5,-342.01 874.5,-361.01"/>
<text text-anchor="middle" x="824" y="-349.01" font-family="Helvetica,sans-Serif" font-size="10.00">wmtk::set_logger</text>
</a>
</g>
</g>
<!-- Node23&#45;&gt;Node24 -->
<g id="edge27_Node000023_Node000024" class="edge">
<title>Node23&#45;&gt;Node24</title>
<g id="a_edge27_Node000023_Node000024"><a xlink:title=" ">
<path fill="none" stroke="#63b8ff" d="M674.02,-351.51C699.9,-351.51 734.2,-351.51 763.37,-351.51"/>
<polygon fill="#63b8ff" stroke="#63b8ff" points="763.45,-355.01 773.45,-351.51 763.45,-348.01 763.45,-355.01"/>
</a>
</g>
</g>
<!-- Node26&#45;&gt;Node23 -->
<g id="edge34_Node000026_Node000023" class="edge">
<title>Node26&#45;&gt;Node23</title>
<g id="a_edge34_Node000026_Node000023"><a xlink:title=" ">
<path fill="none" stroke="#63b8ff" d="M451.74,-282.03C470.04,-289.13 494.98,-299.46 516,-310.51 532.81,-319.34 534.47,-326.21 552,-333.51 561.72,-337.55 572.49,-340.75 582.92,-343.27"/>
<polygon fill="#63b8ff" stroke="#63b8ff" points="582.23,-346.7 592.76,-345.47 583.76,-339.87 582.23,-346.7"/>
</a>
</g>
</g>
<!-- Node27 -->
<g id="Node000027" class="node">
<title>Node27</title>
<g id="a_Node000027"><a xlink:href="classwmtk_1_1_tuple.html#a0023f575be92cd5ceeeaaaa3762ea06d" target="_top" xlink:title="Checks if a tuple is &quot;null&quot;. This merely implies the global index is &#45;1.">
<polygon fill="white" stroke="#666666" points="690,-269.01 577,-269.01 577,-250.01 690,-250.01 690,-269.01"/>
<text text-anchor="middle" x="633.5" y="-257.01" font-family="Helvetica,sans-Serif" font-size="10.00">wmtk::Tuple::is_null</text>
</a>
</g>
</g>
<!-- Node26&#45;&gt;Node27 -->
<g id="edge30_Node000026_Node000027" class="edge">
<title>Node26&#45;&gt;Node27</title>
<g id="a_edge30_Node000026_Node000027"><a xlink:title=" ">
<path fill="none" stroke="#63b8ff" d="M485.17,-268.78C510.64,-267.18 540.5,-265.3 566.66,-263.65"/>
<polygon fill="#63b8ff" stroke="#63b8ff" points="567.1,-267.13 576.86,-263.01 566.66,-260.14 567.1,-267.13"/>
</a>
</g>
</g>
<!-- Node28 -->
<g id="Node000028" class="node">
<title>Node28</title>
<g id="a_Node000028"><a xlink:href="classwmtk_1_1_mesh.html#ade176d345902d97af8c5da04aa3a095b" target="_top" xlink:title=" ">
<polygon fill="white" stroke="#666666" points="703.5,-306.01 563.5,-306.01 563.5,-287.01 703.5,-287.01 703.5,-306.01"/>
<text text-anchor="middle" x="633.5" y="-294.01" font-family="Helvetica,sans-Serif" font-size="10.00">wmtk::Mesh::is_removed</text>
</a>
</g>
</g>
<!-- Node26&#45;&gt;Node28 -->
<g id="edge31_Node000026_Node000028" class="edge">
<title>Node26&#45;&gt;Node28</title>
<g id="a_edge31_Node000026_Node000028"><a xlink:title=" ">
<path fill="none" stroke="#63b8ff" d="M485.17,-279.38C506.46,-281.86 530.82,-284.69 553.52,-287.33"/>
<polygon fill="#63b8ff" stroke="#63b8ff" points="553.13,-290.8 563.47,-288.48 553.94,-283.85 553.13,-290.8"/>
</a>
</g>
</g>
<!-- Node28&#45;&gt;Node3 -->
<g id="edge32_Node000028_Node000003" class="edge">
<title>Node28&#45;&gt;Node3</title>
<g id="a_edge32_Node000028_Node000003"><a xlink:title=" ">
<path fill="none" stroke="#63b8ff" d="M693.32,-286.99C700.82,-284.74 708.24,-281.95 715,-278.51 753.51,-258.91 789.3,-222.4 808.46,-200.8"/>
<polygon fill="#63b8ff" stroke="#63b8ff" points="811.26,-202.9 815.17,-193.06 805.97,-198.32 811.26,-202.9"/>
</a>
</g>
</g>
<!-- Node28&#45;&gt;Node28 -->
<g id="edge33_Node000028_Node000028" class="edge">
<title>Node28&#45;&gt;Node28</title>
<g id="a_edge33_Node000028_Node000028"><a xlink:title=" ">
<path fill="none" stroke="#63b8ff" d="M604.22,-306.09C589.97,-314.74 599.73,-324.01 633.5,-324.01 656.72,-324.01 668.59,-319.63 669.11,-314.08"/>
<polygon fill="#63b8ff" stroke="#63b8ff" points="671.73,-311.76 662.78,-306.09 666.25,-316.1 671.73,-311.76"/>
</a>
</g>
</g>
<!-- Node30 -->
<g id="Node000030" class="node">
<title>Node30</title>
<g id="a_Node000030"><a xlink:href="namespacewmtk_1_1autogen_1_1tet__mesh.html#ace6b80b1be9aec0d6a5ac5d144b40965" target="_top" xlink:title=" ">
<polygon fill="white" stroke="#666666" points="694.5,-117.01 572.5,-117.01 572.5,-76.01 694.5,-76.01 694.5,-117.01"/>
<text text-anchor="start" x="580.5" y="-105.01" font-family="Helvetica,sans-Serif" font-size="10.00">wmtk::autogen::tet</text>
<text text-anchor="start" x="580.5" y="-94.01" font-family="Helvetica,sans-Serif" font-size="10.00">_mesh::local_id_table</text>
<text text-anchor="middle" x="633.5" y="-83.01" font-family="Helvetica,sans-Serif" font-size="10.00">_offset</text>
</a>
</g>
</g>
<!-- Node29&#45;&gt;Node30 -->
<g id="edge40_Node000029_Node000030" class="edge">
<title>Node29&#45;&gt;Node30</title>
<g id="a_edge40_Node000029_Node000030"><a xlink:title=" ">
<path fill="none" stroke="#63b8ff" d="M486.01,-123.46C509.87,-119.07 537.49,-113.99 562.28,-109.43"/>
<polygon fill="#63b8ff" stroke="#63b8ff" points="563.14,-112.83 572.34,-107.57 561.88,-105.94 563.14,-112.83"/>
</a>
</g>
</g>
<!-- Node30&#45;&gt;Node4 -->
<g id="edge41_Node000030_Node000004" class="edge">
<title>Node30&#45;&gt;Node4</title>
<g id="a_edge41_Node000030_Node000004"><a xlink:title=" ">
<path fill="none" stroke="#63b8ff" d="M694.66,-96.51C712.66,-96.51 732.58,-96.51 751.25,-96.51"/>
<polygon fill="#63b8ff" stroke="#63b8ff" points="751.47,-100.01 761.47,-96.51 751.47,-93.01 751.47,-100.01"/>
</a>
</g>
</g>
<!-- Node30&#45;&gt;Node5 -->
<g id="edge42_Node000030_Node000005" class="edge">
<title>Node30&#45;&gt;Node5</title>
<g id="a_edge42_Node000030_Node000005"><a xlink:title=" ">
<path fill="none" stroke="#63b8ff" d="M649.7,-117.36C668.57,-144.47 700.09,-193.98 715,-241.51 762.46,-392.82 677.14,-456.17 751,-596.51 761.3,-616.08 780.76,-631.97 796.85,-642.62"/>
<polygon fill="#63b8ff" stroke="#63b8ff" points="795.04,-645.62 805.37,-647.99 798.78,-639.7 795.04,-645.62"/>
</a>
</g>
</g>
<!-- Node30&#45;&gt;Node6 -->
<g id="edge43_Node000030_Node000006" class="edge">
<title>Node30&#45;&gt;Node6</title>
<g id="a_edge43_Node000030_Node000006"><a xlink:title=" ">
<path fill="none" stroke="#63b8ff" d="M694.66,-81.19C720.89,-74.51 751.2,-66.79 775.77,-60.53"/>
<polygon fill="#63b8ff" stroke="#63b8ff" points="776.74,-63.9 785.57,-58.04 775.02,-57.11 776.74,-63.9"/>
</a>
</g>
</g>
<!-- Node31&#45;&gt;Node3 -->
<g id="edge46_Node000031_Node000003" class="edge">
<title>Node31&#45;&gt;Node3</title>
<g id="a_edge46_Node000031_Node000003"><a xlink:title=" ">
<path fill="none" stroke="#63b8ff" d="M491.1,-95.63C499.59,-98.25 508.09,-101.21 516,-104.51 533.1,-111.62 534.73,-118.82 552,-125.51 615.99,-150.29 692.79,-165.46 748.27,-174.03"/>
<polygon fill="#63b8ff" stroke="#63b8ff" points="747.97,-177.53 758.38,-175.56 749.01,-170.61 747.97,-177.53"/>
</a>
</g>
</g>
<!-- Node31&#45;&gt;Node30 -->
<g id="edge47_Node000031_Node000030" class="edge">
<title>Node31&#45;&gt;Node30</title>
<g id="a_edge47_Node000031_Node000030"><a xlink:title=" ">
<path fill="none" stroke="#63b8ff" d="M497.64,-86.06C518.57,-87.68 541.41,-89.45 562.24,-91.06"/>
<polygon fill="#63b8ff" stroke="#63b8ff" points="562.05,-94.56 572.29,-91.84 562.59,-87.58 562.05,-94.56"/>
</a>
</g>
</g>
</g>
</svg>

<g id="navigator" transform="translate(0 0)" fill="#404254">
  <rect fill="#f2f5e9" fill-opacity="0.5" stroke="#606060" stroke-width=".5" x="0" y="0" width="60" height="60"/>
  <use id="zoomplus" xlink:href="#zoomPlus" x="17" y="9" onmousedown="handleZoom(evt,'in')"/>
  <use id="zoomminus" xlink:href="#zoomMin" x="42" y="9" onmousedown="handleZoom(evt,'out')"/>
  <use id="reset" xlink:href="#resetDef" x="30" y="36" onmousedown="handleReset()"/>
   <use id="arrowup" xlink:href="#arrowUp" x="0" y="0" onmousedown="handlePan(0,-1)"/>
  <use id="arrowright" xlink:href="#arrowRight" x="0" y="0" onmousedown="handlePan(1,0)"/>
  <use id="arrowdown" xlink:href="#arrowDown" x="0" y="0" onmousedown="handlePan(0,1)"/>
  <use id="arrowleft" xlink:href="#arrowLeft" x="0" y="0" onmousedown="handlePan(-1,0)"/>
</g>
<svg viewBox="0 0 15 15" width="100%" height="30px" preserveAspectRatio="xMaxYMin meet">
 <g id="arrow_out" transform="scale(0.3 0.3)">
  <a xlink:href="classwmtk_1_1_tet_mesh_a53d9ec91a1c80da4ae10dea485564f27_cgraph_org.svg" target="_base">
   <rect id="button" ry="5" rx="5" y="6" x="6" height="38" width="38"
        fill="#f2f5e9" fill-opacity="0.5" stroke="#606060" stroke-width="1.0"/>
   <path id="arrow"
     d="M 11.500037,31.436501 C 11.940474,20.09759 22.043105,11.32322 32.158766,21.979434 L 37.068811,17.246167 C 37.068811,17.246167 37.088388,32 37.088388,32 L 22.160133,31.978069 C 22.160133,31.978069 26.997745,27.140456 26.997745,27.140456 C 18.528582,18.264221 13.291696,25.230495 11.500037,31.436501 z"
     style="fill:#404040;"/>
  </a>
 </g>
</svg>

<style type='text/css'>
<![CDATA[
[data-mouse-over-selected='false'] { opacity: 0.7; }
[data-mouse-over-selected='true']  { opacity: 1.0; }
]]>
</style>
<script type="application/ecmascript"><![CDATA[
document.addEventListener('DOMContentLoaded', (event) => {
  highlightEdges();
  highlightAdjacentNodes();
});
]]></script>
</svg>
