<?xml version="1.0" encoding="UTF-8" standalone="no"?>
<!DOCTYPE svg PUBLIC "-//W3C//DTD SVG 1.1//EN"
 "http://www.w3.org/Graphics/SVG/1.1/DTD/svg11.dtd">
<!-- Generated by graphviz version 2.43.0 (0)
 -->
<!-- Title: wmtk::operations::EdgeSplit::set_new_attribute_strategy Pages: 1 -->
<svg width="1527pt" height="195pt"
 viewBox="0.00 0.00 1527.00 195.00" xmlns="http://www.w3.org/2000/svg" xmlns:xlink="http://www.w3.org/1999/xlink">
<g id="graph0" class="graph" transform="scale(1 1) rotate(0) translate(4 191)">
<title>wmtk::operations::EdgeSplit::set_new_attribute_strategy</title>
<!-- Node1 -->
<g id="Node000001" class="node">
<title>Node1</title>
<g id="a_Node000001"><a xlink:title=" ">
<polygon fill="#999999" stroke="#666666" points="156,-131.5 0,-131.5 0,-101.5 156,-101.5 156,-131.5"/>
<text text-anchor="start" x="8" y="-119.5" font-family="Helvetica,sans-Serif" font-size="10.00">wmtk::operations::EdgeSplit</text>
<text text-anchor="middle" x="78" y="-108.5" font-family="Helvetica,sans-Serif" font-size="10.00">::set_new_attribute_strategy</text>
</a>
</g>
</g>
<!-- Node2 -->
<g id="Node000002" class="node">
<title>Node2</title>
<g id="a_Node000002"><a xlink:href="classwmtk_1_1attribute_1_1_mesh_attribute_handle.html#aae37f071e9eab3a1db1aecd118d32b76" target="_top" xlink:title=" ">
<polygon fill="white" stroke="#666666" points="359,-155.5 192,-155.5 192,-125.5 359,-125.5 359,-155.5"/>
<text text-anchor="start" x="200" y="-143.5" font-family="Helvetica,sans-Serif" font-size="10.00">wmtk::attribute::MeshAttribute</text>
<text text-anchor="middle" x="275.5" y="-132.5" font-family="Helvetica,sans-Serif" font-size="10.00">Handle::handle</text>
</a>
</g>
</g>
<!-- Node1&#45;&gt;Node2 -->
<g id="edge1_Node000001_Node000002" class="edge">
<title>Node1&#45;&gt;Node2</title>
<g id="a_edge1_Node000001_Node000002"><a xlink:title=" ">
<path fill="none" stroke="#63b8ff" d="M156.27,-125.99C164.63,-127.01 173.2,-128.06 181.72,-129.11"/>
<polygon fill="#63b8ff" stroke="#63b8ff" points="181.33,-132.59 191.68,-130.33 182.18,-125.64 181.33,-132.59"/>
</a>
</g>
</g>
<!-- Node3 -->
<g id="Node000003" class="node">
<title>Node3</title>
<g id="a_Node000003"><a xlink:href="classwmtk_1_1operations_1_1_edge_split.html#aa2c1515627cd2a577e3821f2213611b3" target="_top" xlink:title=" ">
<polygon fill="white" stroke="#666666" points="353.5,-107.5 197.5,-107.5 197.5,-77.5 353.5,-77.5 353.5,-107.5"/>
<text text-anchor="start" x="205.5" y="-95.5" font-family="Helvetica,sans-Serif" font-size="10.00">wmtk::operations::EdgeSplit</text>
<text text-anchor="middle" x="275.5" y="-84.5" font-family="Helvetica,sans-Serif" font-size="10.00">::set_new_attribute_strategy</text>
</a>
</g>
</g>
<!-- Node1&#45;&gt;Node3 -->
<g id="edge2_Node000001_Node000003" class="edge">
<title>Node1&#45;&gt;Node3</title>
<g id="a_edge2_Node000001_Node000003"><a xlink:title=" ">
<path fill="none" stroke="#63b8ff" d="M156.27,-107.01C166.54,-105.75 177.13,-104.45 187.55,-103.17"/>
<polygon fill="#63b8ff" stroke="#63b8ff" points="187.98,-106.65 197.47,-101.96 187.12,-99.7 187.98,-106.65"/>
</a>
</g>
</g>
<!-- Node4 -->
<g id="Node000004" class="node">
<title>Node4</title>
<g id="a_Node000004"><a xlink:href="namespacewmtk.html#a441d6ad4f19569c7d4946e743da1a925" target="_top" xlink:title=" ">
<polygon fill="white" stroke="#666666" points="539.5,-140.5 417.5,-140.5 417.5,-110.5 539.5,-110.5 539.5,-140.5"/>
<text text-anchor="start" x="425.5" y="-128.5" font-family="Helvetica,sans-Serif" font-size="10.00">wmtk::log_and_throw</text>
<text text-anchor="middle" x="478.5" y="-117.5" font-family="Helvetica,sans-Serif" font-size="10.00">_error</text>
</a>
</g>
</g>
<!-- Node3&#45;&gt;Node4 -->
<g id="edge3_Node000003_Node000004" class="edge">
<title>Node3&#45;&gt;Node4</title>
<g id="a_edge3_Node000003_Node000004"><a xlink:title=" ">
<path fill="none" stroke="#63b8ff" d="M353.64,-105.16C371.31,-108.07 390.01,-111.14 407.37,-113.99"/>
<polygon fill="#63b8ff" stroke="#63b8ff" points="406.99,-117.47 417.42,-115.64 408.12,-110.56 406.99,-117.47"/>
</a>
</g>
</g>
<!-- Node7 -->
<g id="Node000007" class="node">
<title>Node7</title>
<g id="a_Node000007"><a xlink:href="classwmtk_1_1attribute_1_1_mesh_attribute_handle.html#aebd73bfe4d397951350314489834fbe3" target="_top" xlink:title=" ">
<polygon fill="white" stroke="#666666" points="562,-83.5 395,-83.5 395,-53.5 562,-53.5 562,-83.5"/>
<text text-anchor="start" x="403" y="-71.5" font-family="Helvetica,sans-Serif" font-size="10.00">wmtk::attribute::MeshAttribute</text>
<text text-anchor="middle" x="478.5" y="-60.5" font-family="Helvetica,sans-Serif" font-size="10.00">Handle::name</text>
</a>
</g>
</g>
<!-- Node3&#45;&gt;Node7 -->
<g id="edge6_Node000003_Node000007" class="edge">
<title>Node3&#45;&gt;Node7</title>
<g id="a_edge6_Node000003_Node000007"><a xlink:title=" ">
<path fill="none" stroke="#63b8ff" d="M353.64,-83.29C363.87,-82.07 374.45,-80.8 384.91,-79.56"/>
<polygon fill="#63b8ff" stroke="#63b8ff" points="385.38,-83.02 394.89,-78.36 384.55,-76.07 385.38,-83.02"/>
</a>
</g>
</g>
<!-- Node5 -->
<g id="Node000005" class="node">
<title>Node5</title>
<g id="a_Node000005"><a xlink:href="namespacewmtk.html#a6a35f11c12436093d26fdd8be6fecc06" target="_top" xlink:title="Retrieves the current logger.">
<polygon fill="white" stroke="#666666" points="728,-167 647,-167 647,-148 728,-148 728,-167"/>
<text text-anchor="middle" x="687.5" y="-155" font-family="Helvetica,sans-Serif" font-size="10.00">wmtk::logger</text>
</a>
</g>
</g>
<!-- Node4&#45;&gt;Node5 -->
<g id="edge4_Node000004_Node000005" class="edge">
<title>Node4&#45;&gt;Node5</title>
<g id="a_edge4_Node000004_Node000005"><a xlink:title=" ">
<path fill="none" stroke="#63b8ff" d="M539.65,-134.8C570.51,-139.57 607.65,-145.31 636.85,-149.82"/>
<polygon fill="#63b8ff" stroke="#63b8ff" points="636.41,-153.3 646.83,-151.37 637.48,-146.38 636.41,-153.3"/>
</a>
</g>
</g>
<!-- Node6 -->
<g id="Node000006" class="node">
<title>Node6</title>
<g id="a_Node000006"><a xlink:href="namespacewmtk.html#a3daa7951a5f8b78cf4600dc047fcc180" target="_top" xlink:title="Setup a logger object to be used by WildmeshToolkit.">
<polygon fill="white" stroke="#666666" points="947,-187 846,-187 846,-168 947,-168 947,-187"/>
<text text-anchor="middle" x="896.5" y="-175" font-family="Helvetica,sans-Serif" font-size="10.00">wmtk::set_logger</text>
</a>
</g>
</g>
<!-- Node5&#45;&gt;Node6 -->
<g id="edge5_Node000005_Node000006" class="edge">
<title>Node5&#45;&gt;Node6</title>
<g id="a_edge5_Node000005_Node000006"><a xlink:title=" ">
<path fill="none" stroke="#63b8ff" d="M728.41,-161.36C758.89,-164.3 801.37,-168.41 835.87,-171.74"/>
<polygon fill="#63b8ff" stroke="#63b8ff" points="835.55,-175.22 845.84,-172.7 836.22,-168.26 835.55,-175.22"/>
</a>
</g>
</g>
<!-- Node8 -->
<g id="Node000008" class="node">
<title>Node8</title>
<g id="a_Node000008"><a xlink:href="classwmtk_1_1attribute_1_1_mesh_attribute_handle.html#a7f60b49ee06ab72a15ba0507ce2a0316" target="_top" xlink:title=" ">
<polygon fill="white" stroke="#666666" points="771,-109.5 604,-109.5 604,-79.5 771,-79.5 771,-109.5"/>
<text text-anchor="start" x="612" y="-97.5" font-family="Helvetica,sans-Serif" font-size="10.00">wmtk::attribute::MeshAttribute</text>
<text text-anchor="middle" x="687.5" y="-86.5" font-family="Helvetica,sans-Serif" font-size="10.00">Handle::exists</text>
</a>
</g>
</g>
<!-- Node7&#45;&gt;Node8 -->
<g id="edge7_Node000007_Node000008" class="edge">
<title>Node7&#45;&gt;Node8</title>
<g id="a_edge7_Node000007_Node000008"><a xlink:title=" ">
<path fill="none" stroke="#63b8ff" d="M562.2,-78.89C572.62,-80.2 583.32,-81.54 593.87,-82.87"/>
<polygon fill="#63b8ff" stroke="#63b8ff" points="593.57,-86.35 603.93,-84.13 594.44,-79.41 593.57,-86.35"/>
</a>
</g>
</g>
<!-- Node14 -->
<g id="Node000014" class="node">
<title>Node14</title>
<g id="a_Node000014"><a xlink:href="classwmtk_1_1attribute_1_1_mesh_attribute_handle.html#a620620d54776b2c5f4f9cebad465cfa7" target="_top" xlink:title=" ">
<polygon fill="white" stroke="#666666" points="980,-63.5 813,-63.5 813,-33.5 980,-33.5 980,-63.5"/>
<text text-anchor="start" x="821" y="-51.5" font-family="Helvetica,sans-Serif" font-size="10.00">wmtk::attribute::MeshAttribute</text>
<text text-anchor="middle" x="896.5" y="-40.5" font-family="Helvetica,sans-Serif" font-size="10.00">Handle::mesh</text>
</a>
</g>
</g>
<!-- Node7&#45;&gt;Node14 -->
<g id="edge19_Node000007_Node000014" class="edge">
<title>Node7&#45;&gt;Node14</title>
<g id="a_edge19_Node000007_Node000014"><a xlink:title=" ">
<path fill="none" stroke="#63b8ff" d="M562.19,-64.52C631.66,-61.18 730.88,-56.41 802.98,-52.95"/>
<polygon fill="#63b8ff" stroke="#63b8ff" points="803.15,-56.44 812.97,-52.47 802.81,-49.45 803.15,-56.44"/>
</a>
</g>
</g>
<!-- Node15 -->
<g id="Node000015" class="node">
<title>Node15</title>
<g id="a_Node000015"><a xlink:href="classwmtk_1_1_mesh.html#a9c80d92eb6c801b64d52444a9f98d4d3" target="_top" xlink:title=" ">
<polygon fill="white" stroke="#666666" points="777,-19 598,-19 598,0 777,0 777,-19"/>
<text text-anchor="middle" x="687.5" y="-7" font-family="Helvetica,sans-Serif" font-size="10.00">wmtk::Mesh::get_attribute_name</text>
</a>
</g>
</g>
<!-- Node7&#45;&gt;Node15 -->
<g id="edge16_Node000007_Node000015" class="edge">
<title>Node7&#45;&gt;Node15</title>
<g id="a_edge16_Node000007_Node000015"><a xlink:title=" ">
<path fill="none" stroke="#63b8ff" d="M532.27,-53.46C566.53,-43.69 610.65,-31.12 642.92,-21.92"/>
<polygon fill="#63b8ff" stroke="#63b8ff" points="644.29,-25.17 652.95,-19.06 642.37,-18.44 644.29,-25.17"/>
</a>
</g>
</g>
<!-- Node9 -->
<g id="Node000009" class="node">
<title>Node9</title>
<g id="a_Node000009"><a xlink:href="classwmtk_1_1_mesh.html#a89b735bef9cbf8d5ab955d23f787b70f" target="_top" xlink:title=" ">
<polygon fill="white" stroke="#666666" points="1163,-149 1016,-149 1016,-130 1163,-130 1163,-149"/>
<text text-anchor="middle" x="1089.5" y="-137" font-family="Helvetica,sans-Serif" font-size="10.00">wmtk::Mesh::has_attribute</text>
</a>
</g>
</g>
<!-- Node8&#45;&gt;Node9 -->
<g id="edge8_Node000008_Node000009" class="edge">
<title>Node8&#45;&gt;Node9</title>
<g id="a_edge8_Node000008_Node000009"><a xlink:title=" ">
<path fill="none" stroke="#63b8ff" d="M752.18,-109.55C771.61,-113.67 793.1,-117.75 813,-120.5 877.38,-129.4 950.83,-134.2 1005.69,-136.75"/>
<polygon fill="#63b8ff" stroke="#63b8ff" points="1005.57,-140.25 1015.71,-137.2 1005.88,-133.26 1005.57,-140.25"/>
</a>
</g>
</g>
<!-- Node11 -->
<g id="Node000011" class="node">
<title>Node11</title>
<g id="a_Node000011"><a xlink:href="classwmtk_1_1attribute_1_1_mesh_attribute_handle.html#ad577111f5b1fd05f60fae4b7f0ddb1f6" target="_top" xlink:title="Returns true if handle was initialized.">
<polygon fill="white" stroke="#666666" points="980,-111.5 813,-111.5 813,-81.5 980,-81.5 980,-111.5"/>
<text text-anchor="start" x="821" y="-99.5" font-family="Helvetica,sans-Serif" font-size="10.00">wmtk::attribute::MeshAttribute</text>
<text text-anchor="middle" x="896.5" y="-88.5" font-family="Helvetica,sans-Serif" font-size="10.00">Handle::is_valid</text>
</a>
</g>
</g>
<!-- Node8&#45;&gt;Node11 -->
<g id="edge11_Node000008_Node000011" class="edge">
<title>Node8&#45;&gt;Node11</title>
<g id="a_edge11_Node000008_Node000011"><a xlink:title=" ">
<path fill="none" stroke="#63b8ff" d="M771.2,-95.3C781.62,-95.4 792.32,-95.5 802.87,-95.61"/>
<polygon fill="#63b8ff" stroke="#63b8ff" points="802.89,-99.11 812.93,-95.7 802.96,-92.11 802.89,-99.11"/>
</a>
</g>
</g>
<!-- Node8&#45;&gt;Node14 -->
<g id="edge15_Node000008_Node000014" class="edge">
<title>Node8&#45;&gt;Node14</title>
<g id="a_edge15_Node000008_Node000014"><a xlink:title=" ">
<path fill="none" stroke="#63b8ff" d="M756.28,-79.44C776.04,-75.05 797.78,-70.22 818.08,-65.7"/>
<polygon fill="#63b8ff" stroke="#63b8ff" points="818.92,-69.1 827.92,-63.52 817.4,-62.27 818.92,-69.1"/>
</a>
</g>
</g>
<!-- Node9&#45;&gt;Node9 -->
<g id="edge10_Node000009_Node000009" class="edge">
<title>Node9&#45;&gt;Node9</title>
<g id="a_edge10_Node000009_Node000009"><a xlink:title=" ">
<path fill="none" stroke="#63b8ff" d="M1061.76,-149.08C1048.26,-157.73 1057.51,-167 1089.5,-167 1110.99,-167 1122.22,-162.82 1123.18,-157.45"/>
<polygon fill="#63b8ff" stroke="#63b8ff" points="1125.89,-155.21 1117.24,-149.08 1120.18,-159.26 1125.89,-155.21"/>
</a>
</g>
</g>
<!-- Node10 -->
<g id="Node000010" class="node">
<title>Node10</title>
<g id="a_Node000010"><a xlink:href="classwmtk_1_1attribute_1_1_attribute_manager.html#a2169001c03d75b77488dba8494038fe5" target="_top" xlink:title=" ">
<polygon fill="white" stroke="#666666" points="1519,-111.5 1378,-111.5 1378,-81.5 1519,-81.5 1519,-111.5"/>
<text text-anchor="start" x="1386" y="-99.5" font-family="Helvetica,sans-Serif" font-size="10.00">wmtk::attribute::Attribute</text>
<text text-anchor="middle" x="1448.5" y="-88.5" font-family="Helvetica,sans-Serif" font-size="10.00">Manager::get</text>
</a>
</g>
</g>
<!-- Node9&#45;&gt;Node10 -->
<g id="edge9_Node000009_Node000010" class="edge">
<title>Node9&#45;&gt;Node10</title>
<g id="a_edge9_Node000009_Node000010"><a xlink:title=" ">
<path fill="none" stroke="#63b8ff" d="M1163.18,-136.86C1213.58,-134.34 1282.14,-129.52 1342,-120.5 1353.9,-118.71 1366.45,-116.31 1378.58,-113.72"/>
<polygon fill="#63b8ff" stroke="#63b8ff" points="1379.63,-117.07 1388.65,-111.51 1378.13,-110.24 1379.63,-117.07"/>
</a>
</g>
</g>
<!-- Node12 -->
<g id="Node000012" class="node">
<title>Node12</title>
<g id="a_Node000012"><a xlink:href="classwmtk_1_1_mesh.html#a73ea62ce0428cf64f836f77482a87c40" target="_top" xlink:title=" ">
<polygon fill="white" stroke="#666666" points="1150.5,-111.5 1028.5,-111.5 1028.5,-81.5 1150.5,-81.5 1150.5,-111.5"/>
<text text-anchor="start" x="1036.5" y="-99.5" font-family="Helvetica,sans-Serif" font-size="10.00">wmtk::Mesh::validate</text>
<text text-anchor="middle" x="1089.5" y="-88.5" font-family="Helvetica,sans-Serif" font-size="10.00">_handle</text>
</a>
</g>
</g>
<!-- Node11&#45;&gt;Node12 -->
<g id="edge12_Node000011_Node000012" class="edge">
<title>Node11&#45;&gt;Node12</title>
<g id="a_edge12_Node000011_Node000012"><a xlink:title=" ">
<path fill="none" stroke="#63b8ff" d="M980.16,-96.5C992.85,-96.5 1005.83,-96.5 1018.21,-96.5"/>
<polygon fill="#63b8ff" stroke="#63b8ff" points="1018.45,-100 1028.45,-96.5 1018.45,-93 1018.45,-100"/>
</a>
</g>
</g>
<!-- Node13 -->
<g id="Node000013" class="node">
<title>Node13</title>
<g id="a_Node000013"><a xlink:href="classwmtk_1_1attribute_1_1_attribute_manager.html#a3b1a087ab6c03a0f2e6a6a93b87f3147" target="_top" xlink:title=" ">
<polygon fill="white" stroke="#666666" points="1342,-111.5 1199,-111.5 1199,-81.5 1342,-81.5 1342,-111.5"/>
<text text-anchor="start" x="1207" y="-99.5" font-family="Helvetica,sans-Serif" font-size="10.00">wmtk::attribute::Attribute</text>
<text text-anchor="middle" x="1270.5" y="-88.5" font-family="Helvetica,sans-Serif" font-size="10.00">Manager::validate_handle</text>
</a>
</g>
</g>
<!-- Node12&#45;&gt;Node13 -->
<g id="edge13_Node000012_Node000013" class="edge">
<title>Node12&#45;&gt;Node13</title>
<g id="a_edge13_Node000012_Node000013"><a xlink:title=" ">
<path fill="none" stroke="#63b8ff" d="M1150.6,-96.5C1162.78,-96.5 1175.78,-96.5 1188.55,-96.5"/>
<polygon fill="#63b8ff" stroke="#63b8ff" points="1188.71,-100 1198.71,-96.5 1188.71,-93 1188.71,-100"/>
</a>
</g>
</g>
<!-- Node13&#45;&gt;Node10 -->
<g id="edge14_Node000013_Node000010" class="edge">
<title>Node13&#45;&gt;Node10</title>
<g id="a_edge14_Node000013_Node000010"><a xlink:title=" ">
<path fill="none" stroke="#63b8ff" d="M1342.07,-96.5C1350.43,-96.5 1359.02,-96.5 1367.5,-96.5"/>
<polygon fill="#63b8ff" stroke="#63b8ff" points="1367.77,-100 1377.77,-96.5 1367.77,-93 1367.77,-100"/>
</a>
</g>
</g>
<!-- Node16 -->
<g id="Node000016" class="node">
<title>Node16</title>
<g id="a_Node000016"><a xlink:href="classwmtk_1_1attribute_1_1_attribute_manager.html#ab37901c560fe81350c6e2ec34ff3769c" target="_top" xlink:title=" ">
<polygon fill="white" stroke="#666666" points="1341,-42.5 1200,-42.5 1200,-12.5 1341,-12.5 1341,-42.5"/>
<text text-anchor="start" x="1208" y="-30.5" font-family="Helvetica,sans-Serif" font-size="10.00">wmtk::attribute::Attribute</text>
<text text-anchor="middle" x="1270.5" y="-19.5" font-family="Helvetica,sans-Serif" font-size="10.00">Manager::get_name</text>
</a>
</g>
</g>
<!-- Node15&#45;&gt;Node16 -->
<g id="edge17_Node000015_Node000016" class="edge">
<title>Node15&#45;&gt;Node16</title>
<g id="a_edge17_Node000015_Node000016"><a xlink:title=" ">
<path fill="none" stroke="#63b8ff" d="M777.06,-12.24C889.38,-15.72 1081.43,-21.67 1189.51,-25.02"/>
<polygon fill="#63b8ff" stroke="#63b8ff" points="1189.6,-28.53 1199.7,-25.34 1189.82,-21.53 1189.6,-28.53"/>
</a>
</g>
</g>
<!-- Node16&#45;&gt;Node10 -->
<g id="edge18_Node000016_Node000010" class="edge">
<title>Node16&#45;&gt;Node10</title>
<g id="a_edge18_Node000016_Node000010"><a xlink:title=" ">
<path fill="none" stroke="#63b8ff" d="M1310.12,-42.64C1336.37,-52.93 1371.29,-66.62 1399.35,-77.62"/>
<polygon fill="#63b8ff" stroke="#63b8ff" points="1398.38,-81 1408.97,-81.39 1400.93,-74.48 1398.38,-81"/>
</a>
</g>
</g>
</g>
</svg>
