<?xml version="1.0" encoding="UTF-8" standalone="no"?>
<!DOCTYPE svg PUBLIC "-//W3C//DTD SVG 1.1//EN"
 "http://www.w3.org/Graphics/SVG/1.1/DTD/svg11.dtd">
<!-- Generated by graphviz version 2.43.0 (0)
 -->
<!-- Title: wmtk::components::isotropic_remeshing::IsotropicRemeshing::make_envelopes Pages: 1 -->
<!--zoomable 453 -->

<svg id="main" version="1.1" xmlns="http://www.w3.org/2000/svg" xmlns:xlink="http://www.w3.org/1999/xlink" xml:space="preserve" onload="init(evt)">
<style type="text/css"><![CDATA[
.node, .edge {opacity: 0.7;}
.node.selected, .edge.selected {opacity: 1;}
.edge:hover path { stroke: red; }
.edge:hover polygon { stroke: red; fill: red; }
]]></style>

<defs>
  <circle id="rim" cx="0" cy="0" r="7"/>
  <circle id="rim2" cx="0" cy="0" r="3.5"/>
  <g id="zoomPlus">
    <use xlink:href="#rim" fill="#404040"><set attributeName="fill" to="#808080" begin="zoomplus.mouseover" end="zoomplus.mouseout"/></use>
    <path d="M-4,0h8M0,-4v8" fill="none" stroke="white" stroke-width="1.5" pointer-events="none"/>
  </g>
  <g id="zoomMin">
    <use xlink:href="#rim" fill="#404040"><set attributeName="fill" to="#808080" begin="zoomminus.mouseover" end="zoomminus.mouseout"/></use>
    <path d="M-4,0h8" fill="none" stroke="white" stroke-width="1.5" pointer-events="none"/>
  </g>
  <g id="arrowUp" transform="translate(30 24)">
    <use xlink:href="#rim"/>
    <path pointer-events="none" fill="none" stroke="white" stroke-width="1.5" d="M0,-3.0v7 M-2.5,-0.5L0,-3.0L2.5,-0.5"/>
  </g>
  <g id="arrowRight" transform="rotate(90) translate(36 -43)">
    <use xlink:href="#rim"/>
    <path pointer-events="none" fill="none" stroke="white" stroke-width="1.5" d="M0,-3.0v7 M-2.5,-0.5L0,-3.0L2.5,-0.5"/>
  </g>
  <g id="arrowDown" transform="rotate(180) translate(-30 -48)">
    <use xlink:href="#rim"/>
    <path pointer-events="none" fill="none" stroke="white" stroke-width="1.5" d="M0,-3.0v7 M-2.5,-0.5L0,-3.0L2.5,-0.5"/>
  </g>
  <g id="arrowLeft" transform="rotate(270) translate(-36 17)">
    <use xlink:href="#rim"/>
    <path pointer-events="none" fill="none" stroke="white" stroke-width="1.5" d="M0,-3.0v7 M-2.5,-0.5L0,-3.0L2.5,-0.5"/>
  </g>
  <g id="resetDef">
    <use xlink:href="#rim2" fill="#404040"><set attributeName="fill" to="#808080" begin="reset.mouseover" end="reset.mouseout"/></use>
  </g>
</defs>
<script type="application/ecmascript">
var viewWidth = 1834;
var viewHeight = 453;
var sectionId = 'dynsection-17';
</script>
<script type="application/ecmascript" xlink:href="svg.min.js"/>
<svg id="graph" class="graph">
<g id="viewport">
<title>wmtk::components::isotropic_remeshing::IsotropicRemeshing::make_envelopes</title>
<!-- Node1 -->
<g id="Node000001" class="node">
<title>Node1</title>
<g id="a_Node000001"><a xlink:title=" ">
<polygon fill="#999999" stroke="#666666" points="176,-314.5 0,-314.5 0,-273.5 176,-273.5 176,-314.5"/>
<text text-anchor="start" x="8" y="-302.5" font-family="Helvetica,sans-Serif" font-size="10.00">wmtk::components::isotropic</text>
<text text-anchor="start" x="8" y="-291.5" font-family="Helvetica,sans-Serif" font-size="10.00">_remeshing::IsotropicRemeshing</text>
<text text-anchor="middle" x="88" y="-280.5" font-family="Helvetica,sans-Serif" font-size="10.00">::make_envelopes</text>
</a>
</g>
</g>
<!-- Node2 -->
<g id="Node000002" class="node">
<title>Node2</title>
<g id="a_Node000002"><a xlink:href="classwmtk_1_1components_1_1isotropic__remeshing_1_1_isotropic_remeshing.html#a908c885c90ec1d2117fe28438639744f" target="_top" xlink:title=" ">
<polygon fill="white" stroke="#666666" points="388,-337.5 212,-337.5 212,-296.5 388,-296.5 388,-337.5"/>
<text text-anchor="start" x="220" y="-325.5" font-family="Helvetica,sans-Serif" font-size="10.00">wmtk::components::isotropic</text>
<text text-anchor="start" x="220" y="-314.5" font-family="Helvetica,sans-Serif" font-size="10.00">_remeshing::IsotropicRemeshing</text>
<text text-anchor="middle" x="300" y="-303.5" font-family="Helvetica,sans-Serif" font-size="10.00">::all_envelope_positions</text>
</a>
</g>
</g>
<!-- Node1&#45;&gt;Node2 -->
<g id="edge1_Node000001_Node000002" class="edge">
<title>Node1&#45;&gt;Node2</title>
<g id="a_edge1_Node000001_Node000002"><a xlink:title=" ">
<path fill="none" stroke="#63b8ff" d="M176.23,-303.55C184.66,-304.48 193.24,-305.42 201.75,-306.35"/>
<polygon fill="#63b8ff" stroke="#63b8ff" points="201.38,-309.83 211.7,-307.44 202.14,-302.87 201.38,-309.83"/>
</a>
</g>
</g>
<!-- Node4 -->
<g id="Node000004" class="node">
<title>Node4</title>
<g id="a_Node000004"><a xlink:href="classwmtk_1_1components_1_1isotropic__remeshing_1_1_isotropic_remeshing.html#ac9f0caa461b9b1a19b2ce916c6ec1570" target="_top" xlink:title=" ">
<polygon fill="white" stroke="#666666" points="619,-283.5 443,-283.5 443,-242.5 619,-242.5 619,-283.5"/>
<text text-anchor="start" x="451" y="-271.5" font-family="Helvetica,sans-Serif" font-size="10.00">wmtk::components::isotropic</text>
<text text-anchor="start" x="451" y="-260.5" font-family="Helvetica,sans-Serif" font-size="10.00">_remeshing::IsotropicRemeshing</text>
<text text-anchor="middle" x="531" y="-249.5" font-family="Helvetica,sans-Serif" font-size="10.00">::get_attribute</text>
</a>
</g>
</g>
<!-- Node1&#45;&gt;Node4 -->
<g id="edge37_Node000001_Node000004" class="edge">
<title>Node1&#45;&gt;Node4</title>
<g id="a_edge37_Node000001_Node000004"><a xlink:title=" ">
<path fill="none" stroke="#63b8ff" d="M176.13,-287.88C250,-282.68 355.86,-275.24 432.53,-269.85"/>
<polygon fill="#63b8ff" stroke="#63b8ff" points="432.95,-273.33 442.68,-269.14 432.46,-266.35 432.95,-273.33"/>
</a>
</g>
</g>
<!-- Node26 -->
<g id="Node000026" class="node">
<title>Node26</title>
<g id="a_Node000026"><a xlink:href="classwmtk_1_1attribute_1_1_mesh_attribute_handle.html#a620620d54776b2c5f4f9cebad465cfa7" target="_top" xlink:title=" ">
<polygon fill="white" stroke="#666666" points="1263,-445 1096,-445 1096,-415 1263,-415 1263,-445"/>
<text text-anchor="start" x="1104" y="-433" font-family="Helvetica,sans-Serif" font-size="10.00">wmtk::attribute::MeshAttribute</text>
<text text-anchor="middle" x="1179.5" y="-422" font-family="Helvetica,sans-Serif" font-size="10.00">Handle::mesh</text>
</a>
</g>
</g>
<!-- Node1&#45;&gt;Node26 -->
<g id="edge42_Node000001_Node000026" class="edge">
<title>Node1&#45;&gt;Node26</title>
<g id="a_edge42_Node000001_Node000026"><a xlink:title=" ">
<path fill="none" stroke="#63b8ff" d="M124.83,-314.61C198.29,-354.85 372.33,-440 530,-440 530,-440 530,-440 759.5,-440 871.72,-440 1000.81,-436.37 1085.7,-433.48"/>
<polygon fill="#63b8ff" stroke="#63b8ff" points="1085.96,-436.98 1095.83,-433.14 1085.72,-429.98 1085.96,-436.98"/>
</a>
</g>
</g>
<!-- Node32 -->
<g id="Node000032" class="node">
<title>Node32</title>
<g id="a_Node000032"><a xlink:href="classwmtk_1_1_mesh.html#aac3ec1ebbe00982ddfe70cc710d8f54e" target="_top" xlink:title="returns a reference to the root of a multimesh tree">
<polygon fill="white" stroke="#666666" points="364.5,-223 235.5,-223 235.5,-193 364.5,-193 364.5,-223"/>
<text text-anchor="start" x="243.5" y="-211" font-family="Helvetica,sans-Serif" font-size="10.00">wmtk::Mesh::get_multi</text>
<text text-anchor="middle" x="300" y="-200" font-family="Helvetica,sans-Serif" font-size="10.00">_mesh_root</text>
</a>
</g>
</g>
<!-- Node1&#45;&gt;Node32 -->
<g id="edge38_Node000001_Node000032" class="edge">
<title>Node1&#45;&gt;Node32</title>
<g id="a_edge38_Node000001_Node000032"><a xlink:title=" ">
<path fill="none" stroke="#63b8ff" d="M139.3,-273.4C173.76,-259.29 219.12,-240.71 252.69,-226.97"/>
<polygon fill="#63b8ff" stroke="#63b8ff" points="254.34,-230.07 262.26,-223.04 251.68,-223.6 254.34,-230.07"/>
</a>
</g>
</g>
<!-- Node3 -->
<g id="Node000003" class="node">
<title>Node3</title>
<g id="a_Node000003"><a xlink:href="structwmtk_1_1components_1_1isotropic__remeshing_1_1_isotropic_remeshing_options.html#a88977ab0e4214a1020dd8a9718628bc3" target="_top" xlink:title=" ">
<polygon fill="white" stroke="#666666" points="638,-401.5 424,-401.5 424,-360.5 638,-360.5 638,-401.5"/>
<text text-anchor="start" x="432" y="-389.5" font-family="Helvetica,sans-Serif" font-size="10.00">wmtk::components::isotropic</text>
<text text-anchor="start" x="432" y="-378.5" font-family="Helvetica,sans-Serif" font-size="10.00">_remeshing::IsotropicRemeshingOptions</text>
<text text-anchor="middle" x="531" y="-367.5" font-family="Helvetica,sans-Serif" font-size="10.00">::all_positions</text>
</a>
</g>
</g>
<!-- Node2&#45;&gt;Node3 -->
<g id="edge2_Node000002_Node000003" class="edge">
<title>Node2&#45;&gt;Node3</title>
<g id="a_edge2_Node000002_Node000003"><a xlink:title=" ">
<path fill="none" stroke="#63b8ff" d="M372.83,-337.57C389.62,-342.34 407.43,-347.38 424,-352 430.82,-353.9 437.9,-355.87 445,-357.83"/>
<polygon fill="#63b8ff" stroke="#63b8ff" points="444.12,-361.22 454.7,-360.5 445.98,-354.47 444.12,-361.22"/>
</a>
</g>
</g>
<!-- Node2&#45;&gt;Node4 -->
<g id="edge3_Node000002_Node000004" class="edge">
<title>Node2&#45;&gt;Node4</title>
<g id="a_edge3_Node000002_Node000004"><a xlink:title=" ">
<path fill="none" stroke="#63b8ff" d="M388.23,-296.43C402.95,-292.96 418.31,-289.34 433.26,-285.81"/>
<polygon fill="#63b8ff" stroke="#63b8ff" points="434.08,-289.21 443.01,-283.51 432.48,-282.4 434.08,-289.21"/>
</a>
</g>
</g>
<!-- Node20 -->
<g id="Node000020" class="node">
<title>Node20</title>
<g id="a_Node000020"><a xlink:href="classwmtk_1_1components_1_1isotropic__remeshing_1_1_isotropic_remeshing.html#a052c60a578dc44a0124717e9e0332aa4" target="_top" xlink:title=" ">
<polygon fill="white" stroke="#666666" points="619,-342.5 443,-342.5 443,-301.5 619,-301.5 619,-342.5"/>
<text text-anchor="start" x="451" y="-330.5" font-family="Helvetica,sans-Serif" font-size="10.00">wmtk::components::isotropic</text>
<text text-anchor="start" x="451" y="-319.5" font-family="Helvetica,sans-Serif" font-size="10.00">_remeshing::IsotropicRemeshing</text>
<text text-anchor="middle" x="531" y="-308.5" font-family="Helvetica,sans-Serif" font-size="10.00">::is_envelope_position</text>
</a>
</g>
</g>
<!-- Node2&#45;&gt;Node20 -->
<g id="edge20_Node000002_Node000020" class="edge">
<title>Node2&#45;&gt;Node20</title>
<g id="a_edge20_Node000002_Node000020"><a xlink:title=" ">
<path fill="none" stroke="#63b8ff" d="M388.23,-318.9C402.71,-319.22 417.81,-319.55 432.52,-319.87"/>
<polygon fill="#63b8ff" stroke="#63b8ff" points="432.56,-323.37 442.64,-320.09 432.71,-316.37 432.56,-323.37"/>
</a>
</g>
</g>
<!-- Node5 -->
<g id="Node000005" class="node">
<title>Node5</title>
<g id="a_Node000005"><a xlink:href="namespacewmtk_1_1components_1_1multimesh_1_1utils.html#a82d42640978a9aa4ba485febac8b68d0" target="_top" xlink:title=" ">
<polygon fill="white" stroke="#666666" points="843,-176 674,-176 674,-146 843,-146 843,-176"/>
<text text-anchor="start" x="682" y="-164" font-family="Helvetica,sans-Serif" font-size="10.00">wmtk::components::multimesh</text>
<text text-anchor="middle" x="758.5" y="-153" font-family="Helvetica,sans-Serif" font-size="10.00">::utils::get_attribute</text>
</a>
</g>
</g>
<!-- Node4&#45;&gt;Node5 -->
<g id="edge4_Node000004_Node000005" class="edge">
<title>Node4&#45;&gt;Node5</title>
<g id="a_edge4_Node000004_Node000005"><a xlink:title=" ">
<path fill="none" stroke="#63b8ff" d="M577.36,-242.48C617.44,-224.35 675.45,-198.11 714.73,-180.35"/>
<polygon fill="#63b8ff" stroke="#63b8ff" points="716.62,-183.33 724.29,-176.02 713.73,-176.96 716.62,-183.33"/>
</a>
</g>
</g>
<!-- Node6 -->
<g id="Node000006" class="node">
<title>Node6</title>
<g id="a_Node000006"><a xlink:href="namespacewmtk_1_1components_1_1multimesh_1_1utils.html#a2efaab47b2efdb004ae28e811d6c04c4" target="_top" xlink:title=" ">
<polygon fill="white" stroke="#666666" points="1059,-104 879,-104 879,-74 1059,-74 1059,-104"/>
<text text-anchor="start" x="887" y="-92" font-family="Helvetica,sans-Serif" font-size="10.00">wmtk::components::multimesh</text>
<text text-anchor="middle" x="969" y="-81" font-family="Helvetica,sans-Serif" font-size="10.00">::utils::decompose_attribute_path</text>
</a>
</g>
</g>
<!-- Node5&#45;&gt;Node6 -->
<g id="edge5_Node000005_Node000006" class="edge">
<title>Node5&#45;&gt;Node6</title>
<g id="a_edge5_Node000005_Node000006"><a xlink:title=" ">
<path fill="none" stroke="#63b8ff" d="M820.51,-145.85C828.21,-143.25 835.88,-140.3 843,-137 860.45,-128.91 861.49,-120.94 879,-113 883.41,-111 888.03,-109.14 892.73,-107.4"/>
<polygon fill="#63b8ff" stroke="#63b8ff" points="894.18,-110.61 902.49,-104.04 891.89,-103.99 894.18,-110.61"/>
</a>
</g>
</g>
<!-- Node7 -->
<g id="Node000007" class="node">
<title>Node7</title>
<g id="a_Node000007"><a xlink:href="namespacewmtk_1_1components_1_1multimesh_1_1utils_1_1detail.html#a74ad95cd049405e25bc2b4e5355bdc54" target="_top" xlink:title=" ">
<polygon fill="white" stroke="#666666" points="1053.5,-200 884.5,-200 884.5,-170 1053.5,-170 1053.5,-200"/>
<text text-anchor="start" x="892.5" y="-188" font-family="Helvetica,sans-Serif" font-size="10.00">wmtk::components::multimesh</text>
<text text-anchor="middle" x="969" y="-177" font-family="Helvetica,sans-Serif" font-size="10.00">::utils::detail::get_attribute</text>
</a>
</g>
</g>
<!-- Node5&#45;&gt;Node7 -->
<g id="edge6_Node000005_Node000007" class="edge">
<title>Node5&#45;&gt;Node7</title>
<g id="a_edge6_Node000005_Node000007"><a xlink:title=" ">
<path fill="none" stroke="#63b8ff" d="M843.1,-170.62C853.41,-171.81 863.99,-173.03 874.43,-174.23"/>
<polygon fill="#63b8ff" stroke="#63b8ff" points="874.04,-177.71 884.38,-175.37 874.84,-170.75 874.04,-177.71"/>
</a>
</g>
</g>
<!-- Node13 -->
<g id="Node000013" class="node">
<title>Node13</title>
<g id="a_Node000013"><a xlink:href="classwmtk_1_1components_1_1multimesh_1_1_named_multi_mesh.html#a4872fdeb1da1b70569807a0d77c6df52" target="_top" xlink:title=" ">
<polygon fill="white" stroke="#666666" points="1053.5,-152 884.5,-152 884.5,-122 1053.5,-122 1053.5,-152"/>
<text text-anchor="start" x="892.5" y="-140" font-family="Helvetica,sans-Serif" font-size="10.00">wmtk::components::multimesh</text>
<text text-anchor="middle" x="969" y="-129" font-family="Helvetica,sans-Serif" font-size="10.00">::NamedMultiMesh::get_mesh</text>
</a>
</g>
</g>
<!-- Node5&#45;&gt;Node13 -->
<g id="edge13_Node000005_Node000013" class="edge">
<title>Node5&#45;&gt;Node13</title>
<g id="a_edge13_Node000005_Node000013"><a xlink:title=" ">
<path fill="none" stroke="#63b8ff" d="M843.1,-151.38C853.41,-150.19 863.99,-148.97 874.43,-147.77"/>
<polygon fill="#63b8ff" stroke="#63b8ff" points="874.84,-151.25 884.38,-146.63 874.04,-144.29 874.84,-151.25"/>
</a>
</g>
</g>
<!-- Node18 -->
<g id="Node000018" class="node">
<title>Node18</title>
<g id="a_Node000018"><a xlink:href="structwmtk_1_1components_1_1multimesh_1_1utils_1_1_attribute_description.html#a300d0165aafc5dfdeb96bfce804cdd25" target="_top" xlink:title=" ">
<polygon fill="white" stroke="#666666" points="1053.5,-52.5 884.5,-52.5 884.5,-11.5 1053.5,-11.5 1053.5,-52.5"/>
<text text-anchor="start" x="892.5" y="-40.5" font-family="Helvetica,sans-Serif" font-size="10.00">wmtk::components::multimesh</text>
<text text-anchor="start" x="892.5" y="-29.5" font-family="Helvetica,sans-Serif" font-size="10.00">::utils::AttributeDescription</text>
<text text-anchor="middle" x="969" y="-18.5" font-family="Helvetica,sans-Serif" font-size="10.00">::primitive_type</text>
</a>
</g>
</g>
<!-- Node5&#45;&gt;Node18 -->
<g id="edge18_Node000005_Node000018" class="edge">
<title>Node5&#45;&gt;Node18</title>
<g id="a_edge18_Node000005_Node000018"><a xlink:title=" ">
<path fill="none" stroke="#63b8ff" d="M829.26,-145.98C834.17,-143.44 838.82,-140.47 843,-137 870.51,-114.13 852.37,-88.89 879,-65 881.8,-62.49 884.81,-60.16 887.97,-58"/>
<polygon fill="#63b8ff" stroke="#63b8ff" points="889.94,-60.9 896.65,-52.69 886.29,-54.93 889.94,-60.9"/>
</a>
</g>
</g>
<!-- Node8 -->
<g id="Node000008" class="node">
<title>Node8</title>
<g id="a_Node000008"><a xlink:href="classwmtk_1_1_mesh.html#a335d3c86fd7d291b564a44944be6bf79" target="_top" xlink:title=" ">
<polygon fill="white" stroke="#666666" points="1252.5,-234 1106.5,-234 1106.5,-204 1252.5,-204 1252.5,-234"/>
<text text-anchor="start" x="1114.5" y="-222" font-family="Helvetica,sans-Serif" font-size="10.00">wmtk::Mesh::get_attribute</text>
<text text-anchor="middle" x="1179.5" y="-211" font-family="Helvetica,sans-Serif" font-size="10.00">_handle</text>
</a>
</g>
</g>
<!-- Node7&#45;&gt;Node8 -->
<g id="edge7_Node000007_Node000008" class="edge">
<title>Node7&#45;&gt;Node8</title>
<g id="a_edge7_Node000007_Node000008"><a xlink:title=" ">
<path fill="none" stroke="#63b8ff" d="M1053.6,-198.63C1067.64,-200.92 1082.2,-203.3 1096.21,-205.58"/>
<polygon fill="#63b8ff" stroke="#63b8ff" points="1095.86,-209.07 1106.29,-207.23 1096.99,-202.16 1095.86,-209.07"/>
</a>
</g>
</g>
<!-- Node9 -->
<g id="Node000009" class="node">
<title>Node9</title>
<g id="a_Node000009"><a xlink:href="namespacewmtk.html#a5cf45c152e856196bb734c6f48919a24" target="_top" xlink:title="Get a unique integer id corresponding to each primitive type.">
<polygon fill="white" stroke="#666666" points="1237.5,-186 1121.5,-186 1121.5,-156 1237.5,-156 1237.5,-186"/>
<text text-anchor="start" x="1129.5" y="-174" font-family="Helvetica,sans-Serif" font-size="10.00">wmtk::get_primitive</text>
<text text-anchor="middle" x="1179.5" y="-163" font-family="Helvetica,sans-Serif" font-size="10.00">_type_id</text>
</a>
</g>
</g>
<!-- Node7&#45;&gt;Node9 -->
<g id="edge8_Node000007_Node000009" class="edge">
<title>Node7&#45;&gt;Node9</title>
<g id="a_edge8_Node000007_Node000009"><a xlink:title=" ">
<path fill="none" stroke="#63b8ff" d="M1053.6,-179.39C1072.82,-178.1 1093.01,-176.74 1111.42,-175.5"/>
<polygon fill="#63b8ff" stroke="#63b8ff" points="1111.7,-178.99 1121.44,-174.83 1111.23,-172.01 1111.7,-178.99"/>
</a>
</g>
</g>
<!-- Node10 -->
<g id="Node000010" class="node">
<title>Node10</title>
<g id="a_Node000010"><a xlink:href="classwmtk_1_1_mesh.html#a89b735bef9cbf8d5ab955d23f787b70f" target="_top" xlink:title=" ">
<polygon fill="white" stroke="#666666" points="1253,-330.5 1106,-330.5 1106,-311.5 1253,-311.5 1253,-330.5"/>
<text text-anchor="middle" x="1179.5" y="-318.5" font-family="Helvetica,sans-Serif" font-size="10.00">wmtk::Mesh::has_attribute</text>
</a>
</g>
</g>
<!-- Node7&#45;&gt;Node10 -->
<g id="edge9_Node000007_Node000010" class="edge">
<title>Node7&#45;&gt;Node10</title>
<g id="a_edge9_Node000007_Node000010"><a xlink:title=" ">
<path fill="none" stroke="#63b8ff" d="M996.06,-200.2C1014.9,-211.99 1040.23,-229.56 1059,-249 1079.03,-269.75 1071.15,-286.77 1095,-303 1097.28,-304.55 1099.66,-305.97 1102.13,-307.27"/>
<polygon fill="#63b8ff" stroke="#63b8ff" points="1100.82,-310.52 1111.38,-311.48 1103.72,-304.15 1100.82,-310.52"/>
</a>
</g>
</g>
<!-- Node12 -->
<g id="Node000012" class="node">
<title>Node12</title>
<g id="a_Node000012"><a xlink:href="classwmtk_1_1components_1_1multimesh_1_1utils_1_1detail_1_1attribute__missing__error.html#a1fd61a1550a62b7b6ae44e60b1c9c6d8" target="_top" xlink:title=" ">
<polygon fill="white" stroke="#666666" points="1264,-137.5 1095,-137.5 1095,-96.5 1264,-96.5 1264,-137.5"/>
<text text-anchor="start" x="1103" y="-125.5" font-family="Helvetica,sans-Serif" font-size="10.00">wmtk::components::multimesh</text>
<text text-anchor="start" x="1103" y="-114.5" font-family="Helvetica,sans-Serif" font-size="10.00">::utils::detail::attribute</text>
<text text-anchor="middle" x="1179.5" y="-103.5" font-family="Helvetica,sans-Serif" font-size="10.00">_missing_error::make</text>
</a>
</g>
</g>
<!-- Node7&#45;&gt;Node12 -->
<g id="edge12_Node000007_Node000012" class="edge">
<title>Node7&#45;&gt;Node12</title>
<g id="a_edge12_Node000007_Node000012"><a xlink:title=" ">
<path fill="none" stroke="#63b8ff" d="M1029.63,-169.87C1039.49,-167.1 1049.57,-164.09 1059,-161 1075.31,-155.65 1078.92,-153.01 1095,-147 1100.14,-145.08 1105.47,-143.11 1110.83,-141.15"/>
<polygon fill="#63b8ff" stroke="#63b8ff" points="1112.29,-144.34 1120.48,-137.62 1109.89,-137.76 1112.29,-144.34"/>
</a>
</g>
</g>
<!-- Node10&#45;&gt;Node10 -->
<g id="edge11_Node000010_Node000010" class="edge">
<title>Node10&#45;&gt;Node10</title>
<g id="a_edge11_Node000010_Node000010"><a xlink:title=" ">
<path fill="none" stroke="#63b8ff" d="M1148.06,-330.58C1132.76,-339.23 1143.24,-348.5 1179.5,-348.5 1204.99,-348.5 1217.74,-343.92 1217.75,-338.19"/>
<polygon fill="#63b8ff" stroke="#63b8ff" points="1220.22,-335.7 1210.94,-330.58 1215,-340.37 1220.22,-335.7"/>
</a>
</g>
</g>
<!-- Node11 -->
<g id="Node000011" class="node">
<title>Node11</title>
<g id="a_Node000011"><a xlink:href="classwmtk_1_1attribute_1_1_attribute_manager.html#a2169001c03d75b77488dba8494038fe5" target="_top" xlink:title=" ">
<polygon fill="white" stroke="#666666" points="1826,-338 1685,-338 1685,-308 1826,-308 1826,-338"/>
<text text-anchor="start" x="1693" y="-326" font-family="Helvetica,sans-Serif" font-size="10.00">wmtk::attribute::Attribute</text>
<text text-anchor="middle" x="1755.5" y="-315" font-family="Helvetica,sans-Serif" font-size="10.00">Manager::get</text>
</a>
</g>
</g>
<!-- Node10&#45;&gt;Node11 -->
<g id="edge10_Node000010_Node000011" class="edge">
<title>Node10&#45;&gt;Node11</title>
<g id="a_edge10_Node000010_Node000011"><a xlink:title=" ">
<path fill="none" stroke="#63b8ff" d="M1253.2,-321.25C1361,-321.63 1562.52,-322.33 1674.42,-322.72"/>
<polygon fill="#63b8ff" stroke="#63b8ff" points="1674.62,-326.22 1684.63,-322.76 1674.65,-319.22 1674.62,-326.22"/>
</a>
</g>
</g>
<!-- Node14 -->
<g id="Node000014" class="node">
<title>Node14</title>
<g id="a_Node000014"><a xlink:href="classwmtk_1_1components_1_1multimesh_1_1_named_multi_mesh.html#a0a47aede86bb45377eae74c01d313544" target="_top" xlink:title=" ">
<polygon fill="white" stroke="#666666" points="1264,-78 1095,-78 1095,-48 1264,-48 1264,-78"/>
<text text-anchor="start" x="1103" y="-66" font-family="Helvetica,sans-Serif" font-size="10.00">wmtk::components::multimesh</text>
<text text-anchor="middle" x="1179.5" y="-55" font-family="Helvetica,sans-Serif" font-size="10.00">::NamedMultiMesh::get_id</text>
</a>
</g>
</g>
<!-- Node13&#45;&gt;Node14 -->
<g id="edge14_Node000013_Node000014" class="edge">
<title>Node13&#45;&gt;Node14</title>
<g id="a_edge14_Node000013_Node000014"><a xlink:title=" ">
<path fill="none" stroke="#63b8ff" d="M1036.58,-121.91C1044.29,-119.33 1051.92,-116.37 1059,-113 1076.82,-104.51 1077.25,-95.63 1095,-87 1099,-85.05 1103.19,-83.24 1107.46,-81.55"/>
<polygon fill="#63b8ff" stroke="#63b8ff" points="1108.76,-84.8 1116.93,-78.05 1106.34,-78.23 1108.76,-84.8"/>
</a>
</g>
</g>
<!-- Node15 -->
<g id="Node000015" class="node">
<title>Node15</title>
<g id="a_Node000015"><a xlink:href="namespacewmtk.html#a6a35f11c12436093d26fdd8be6fecc06" target="_top" xlink:title="Retrieves the current logger.">
<polygon fill="white" stroke="#666666" points="1425.5,-93.5 1344.5,-93.5 1344.5,-74.5 1425.5,-74.5 1425.5,-93.5"/>
<text text-anchor="middle" x="1385" y="-81.5" font-family="Helvetica,sans-Serif" font-size="10.00">wmtk::logger</text>
</a>
</g>
</g>
<!-- Node14&#45;&gt;Node15 -->
<g id="edge15_Node000014_Node000015" class="edge">
<title>Node14&#45;&gt;Node15</title>
<g id="a_edge15_Node000014_Node000015"><a xlink:title=" ">
<path fill="none" stroke="#63b8ff" d="M1264.15,-71.63C1287.99,-74.09 1313.19,-76.69 1334.3,-78.87"/>
<polygon fill="#63b8ff" stroke="#63b8ff" points="1334.01,-82.36 1344.31,-79.9 1334.73,-75.4 1334.01,-82.36"/>
</a>
</g>
</g>
<!-- Node17 -->
<g id="Node000017" class="node">
<title>Node17</title>
<g id="a_Node000017"><a xlink:href="namespacewmtk_1_1components_1_1multimesh_1_1internal.html#a3b2338b45b680494e5501c97baa6f456" target="_top" xlink:title=" ">
<polygon fill="white" stroke="#666666" points="1469.5,-56 1300.5,-56 1300.5,-26 1469.5,-26 1469.5,-56"/>
<text text-anchor="start" x="1308.5" y="-44" font-family="Helvetica,sans-Serif" font-size="10.00">wmtk::components::multimesh</text>
<text text-anchor="middle" x="1385" y="-33" font-family="Helvetica,sans-Serif" font-size="10.00">::internal::split_path</text>
</a>
</g>
</g>
<!-- Node14&#45;&gt;Node17 -->
<g id="edge17_Node000014_Node000017" class="edge">
<title>Node14&#45;&gt;Node17</title>
<g id="a_edge17_Node000014_Node000017"><a xlink:title=" ">
<path fill="none" stroke="#63b8ff" d="M1264.15,-53.96C1272.74,-53.03 1281.51,-52.08 1290.2,-51.14"/>
<polygon fill="#63b8ff" stroke="#63b8ff" points="1290.78,-54.6 1300.34,-50.04 1290.03,-47.64 1290.78,-54.6"/>
</a>
</g>
</g>
<!-- Node16 -->
<g id="Node000016" class="node">
<title>Node16</title>
<g id="a_Node000016"><a xlink:href="namespacewmtk.html#a3daa7951a5f8b78cf4600dc047fcc180" target="_top" xlink:title="Setup a logger object to be used by WildmeshToolkit.">
<polygon fill="white" stroke="#666666" points="1628,-93.5 1527,-93.5 1527,-74.5 1628,-74.5 1628,-93.5"/>
<text text-anchor="middle" x="1577.5" y="-81.5" font-family="Helvetica,sans-Serif" font-size="10.00">wmtk::set_logger</text>
</a>
</g>
</g>
<!-- Node15&#45;&gt;Node16 -->
<g id="edge16_Node000015_Node000016" class="edge">
<title>Node15&#45;&gt;Node16</title>
<g id="a_edge16_Node000015_Node000016"><a xlink:title=" ">
<path fill="none" stroke="#63b8ff" d="M1425.94,-84C1452.19,-84 1487.02,-84 1516.57,-84"/>
<polygon fill="#63b8ff" stroke="#63b8ff" points="1516.78,-87.5 1526.78,-84 1516.78,-80.5 1516.78,-87.5"/>
</a>
</g>
</g>
<!-- Node19 -->
<g id="Node000019" class="node">
<title>Node19</title>
<g id="a_Node000019"><a xlink:href="namespacewmtk.html#a3b08a5d7fb42f02c54bae85758b39f59" target="_top" xlink:title="Get the primitive type corresponding to its unique integer id.">
<polygon fill="white" stroke="#666666" points="1237.5,-30 1121.5,-30 1121.5,0 1237.5,0 1237.5,-30"/>
<text text-anchor="start" x="1129.5" y="-18" font-family="Helvetica,sans-Serif" font-size="10.00">wmtk::get_primitive</text>
<text text-anchor="middle" x="1179.5" y="-7" font-family="Helvetica,sans-Serif" font-size="10.00">_type_from_id</text>
</a>
</g>
</g>
<!-- Node18&#45;&gt;Node19 -->
<g id="edge19_Node000018_Node000019" class="edge">
<title>Node18&#45;&gt;Node19</title>
<g id="a_edge19_Node000018_Node000019"><a xlink:title=" ">
<path fill="none" stroke="#63b8ff" d="M1053.6,-25.18C1072.82,-23.62 1093.01,-21.97 1111.42,-20.47"/>
<polygon fill="#63b8ff" stroke="#63b8ff" points="1111.76,-23.95 1121.44,-19.65 1111.19,-16.98 1111.76,-23.95"/>
</a>
</g>
</g>
<!-- Node21 -->
<g id="Node000021" class="node">
<title>Node21</title>
<g id="a_Node000021"><a xlink:href="classwmtk_1_1attribute_1_1_mesh_attribute_handle.html#a3c2f0b99a4f3581ac8da264d10c493a1" target="_top" xlink:title=" ">
<polygon fill="white" stroke="#666666" points="842,-326 675,-326 675,-296 842,-296 842,-326"/>
<text text-anchor="start" x="683" y="-314" font-family="Helvetica,sans-Serif" font-size="10.00">wmtk::attribute::MeshAttribute</text>
<text text-anchor="middle" x="758.5" y="-303" font-family="Helvetica,sans-Serif" font-size="10.00">Handle::dimension</text>
</a>
</g>
</g>
<!-- Node20&#45;&gt;Node21 -->
<g id="edge21_Node000020_Node000021" class="edge">
<title>Node20&#45;&gt;Node21</title>
<g id="a_edge21_Node000020_Node000021"><a xlink:title=" ">
<path fill="none" stroke="#63b8ff" d="M619.18,-317.75C634.09,-317.02 649.62,-316.26 664.66,-315.53"/>
<polygon fill="#63b8ff" stroke="#63b8ff" points="665.17,-319.01 674.99,-315.03 664.83,-312.02 665.17,-319.01"/>
</a>
</g>
</g>
<!-- Node20&#45;&gt;Node26 -->
<g id="edge35_Node000020_Node000026" class="edge">
<title>Node20&#45;&gt;Node26</title>
<g id="a_edge35_Node000020_Node000026"><a xlink:title=" ">
<path fill="none" stroke="#63b8ff" d="M617.21,-342.51C624.4,-345.32 631.43,-348.47 638,-352 656.6,-362 654.57,-374.74 674,-383 710.81,-398.65 949.99,-415.79 1085.39,-424.4"/>
<polygon fill="#63b8ff" stroke="#63b8ff" points="1085.55,-427.91 1095.75,-425.05 1085.99,-420.93 1085.55,-427.91"/>
</a>
</g>
</g>
<!-- Node31 -->
<g id="Node000031" class="node">
<title>Node31</title>
<g id="a_Node000031"><a xlink:href="classwmtk_1_1_mesh.html#a933f681cf24a63b155c9462280385200" target="_top" xlink:title=" ">
<polygon fill="white" stroke="#666666" points="819,-374 698,-374 698,-344 819,-344 819,-374"/>
<text text-anchor="start" x="706" y="-362" font-family="Helvetica,sans-Serif" font-size="10.00">wmtk::Mesh::top_cell</text>
<text text-anchor="middle" x="758.5" y="-351" font-family="Helvetica,sans-Serif" font-size="10.00">_dimension</text>
</a>
</g>
</g>
<!-- Node20&#45;&gt;Node31 -->
<g id="edge36_Node000020_Node000031" class="edge">
<title>Node20&#45;&gt;Node31</title>
<g id="a_edge36_Node000020_Node000031"><a xlink:title=" ">
<path fill="none" stroke="#63b8ff" d="M619.18,-336.31C641.87,-340.03 666.01,-343.99 687.66,-347.54"/>
<polygon fill="#63b8ff" stroke="#63b8ff" points="687.32,-351.03 697.75,-349.2 688.45,-344.12 687.32,-351.03"/>
</a>
</g>
</g>
<!-- Node22 -->
<g id="Node000022" class="node">
<title>Node22</title>
<g id="a_Node000022"><a xlink:href="classwmtk_1_1attribute_1_1_mesh_attribute_handle.html#a7f60b49ee06ab72a15ba0507ce2a0316" target="_top" xlink:title=" ">
<polygon fill="white" stroke="#666666" points="1052.5,-336 885.5,-336 885.5,-306 1052.5,-306 1052.5,-336"/>
<text text-anchor="start" x="893.5" y="-324" font-family="Helvetica,sans-Serif" font-size="10.00">wmtk::attribute::MeshAttribute</text>
<text text-anchor="middle" x="969" y="-313" font-family="Helvetica,sans-Serif" font-size="10.00">Handle::exists</text>
</a>
</g>
</g>
<!-- Node21&#45;&gt;Node22 -->
<g id="edge22_Node000021_Node000022" class="edge">
<title>Node21&#45;&gt;Node22</title>
<g id="a_edge22_Node000021_Node000022"><a xlink:title=" ">
<path fill="none" stroke="#63b8ff" d="M842.2,-314.97C853.09,-315.49 864.29,-316.03 875.33,-316.56"/>
<polygon fill="#63b8ff" stroke="#63b8ff" points="875.24,-320.05 885.4,-317.04 875.58,-313.06 875.24,-320.05"/>
</a>
</g>
</g>
<!-- Node21&#45;&gt;Node26 -->
<g id="edge34_Node000021_Node000026" class="edge">
<title>Node21&#45;&gt;Node26</title>
<g id="a_edge34_Node000021_Node000026"><a xlink:title=" ">
<path fill="none" stroke="#63b8ff" d="M811.93,-326.03C840.8,-334.28 872.14,-343.21 879,-345 958.57,-365.81 981.71,-359.87 1059,-388 1075.81,-394.12 1078.33,-399.5 1095,-406 1100.18,-408.02 1105.6,-409.96 1111.09,-411.79"/>
<polygon fill="#63b8ff" stroke="#63b8ff" points="1110.4,-415.25 1120.99,-414.98 1112.54,-408.58 1110.4,-415.25"/>
</a>
</g>
</g>
<!-- Node27 -->
<g id="Node000027" class="node">
<title>Node27</title>
<g id="a_Node000027"><a xlink:href="classwmtk_1_1_mesh.html#a4f546f0125de42db771686220d77ec78" target="_top" xlink:title=" ">
<polygon fill="white" stroke="#666666" points="1042,-288 896,-288 896,-258 1042,-258 1042,-288"/>
<text text-anchor="start" x="904" y="-276" font-family="Helvetica,sans-Serif" font-size="10.00">wmtk::Mesh::get_attribute</text>
<text text-anchor="middle" x="969" y="-265" font-family="Helvetica,sans-Serif" font-size="10.00">_dimension</text>
</a>
</g>
</g>
<!-- Node21&#45;&gt;Node27 -->
<g id="edge29_Node000021_Node000027" class="edge">
<title>Node21&#45;&gt;Node27</title>
<g id="a_edge29_Node000021_Node000027"><a xlink:title=" ">
<path fill="none" stroke="#63b8ff" d="M841.9,-295.98C856.42,-293.34 871.54,-290.58 886.04,-287.94"/>
<polygon fill="#63b8ff" stroke="#63b8ff" points="886.77,-291.36 895.98,-286.13 885.51,-284.48 886.77,-291.36"/>
</a>
</g>
</g>
<!-- Node22&#45;&gt;Node10 -->
<g id="edge23_Node000022_Node000010" class="edge">
<title>Node22&#45;&gt;Node10</title>
<g id="a_edge23_Node000022_Node000010"><a xlink:title=" ">
<path fill="none" stroke="#63b8ff" d="M1052.7,-321C1066.79,-321 1081.43,-321 1095.53,-321"/>
<polygon fill="#63b8ff" stroke="#63b8ff" points="1095.68,-324.5 1105.68,-321 1095.68,-317.5 1095.68,-324.5"/>
</a>
</g>
</g>
<!-- Node23 -->
<g id="Node000023" class="node">
<title>Node23</title>
<g id="a_Node000023"><a xlink:href="classwmtk_1_1attribute_1_1_mesh_attribute_handle.html#ad577111f5b1fd05f60fae4b7f0ddb1f6" target="_top" xlink:title="Returns true if handle was initialized.">
<polygon fill="white" stroke="#666666" points="1263,-397 1096,-397 1096,-367 1263,-367 1263,-397"/>
<text text-anchor="start" x="1104" y="-385" font-family="Helvetica,sans-Serif" font-size="10.00">wmtk::attribute::MeshAttribute</text>
<text text-anchor="middle" x="1179.5" y="-374" font-family="Helvetica,sans-Serif" font-size="10.00">Handle::is_valid</text>
</a>
</g>
</g>
<!-- Node22&#45;&gt;Node23 -->
<g id="edge24_Node000022_Node000023" class="edge">
<title>Node22&#45;&gt;Node23</title>
<g id="a_edge24_Node000022_Node000023"><a xlink:title=" ">
<path fill="none" stroke="#63b8ff" d="M1020.45,-336.03C1043.22,-342.79 1070.45,-350.84 1095,-358 1101.87,-360 1109.06,-362.09 1116.22,-364.16"/>
<polygon fill="#63b8ff" stroke="#63b8ff" points="1115.34,-367.55 1125.92,-366.96 1117.28,-360.82 1115.34,-367.55"/>
</a>
</g>
</g>
<!-- Node22&#45;&gt;Node26 -->
<g id="edge28_Node000022_Node000026" class="edge">
<title>Node22&#45;&gt;Node26</title>
<g id="a_edge28_Node000022_Node000026"><a xlink:title=" ">
<path fill="none" stroke="#63b8ff" d="M1034.43,-336.07C1043.19,-339.76 1051.67,-344.34 1059,-350 1082.42,-368.08 1071.26,-388.34 1095,-406 1096.87,-407.39 1098.81,-408.7 1100.82,-409.93"/>
<polygon fill="#63b8ff" stroke="#63b8ff" points="1099.51,-413.2 1109.98,-414.87 1102.84,-407.04 1099.51,-413.2"/>
</a>
</g>
</g>
<!-- Node24 -->
<g id="Node000024" class="node">
<title>Node24</title>
<g id="a_Node000024"><a xlink:href="classwmtk_1_1_mesh.html#a73ea62ce0428cf64f836f77482a87c40" target="_top" xlink:title=" ">
<polygon fill="white" stroke="#666666" points="1446,-394 1324,-394 1324,-364 1446,-364 1446,-394"/>
<text text-anchor="start" x="1332" y="-382" font-family="Helvetica,sans-Serif" font-size="10.00">wmtk::Mesh::validate</text>
<text text-anchor="middle" x="1385" y="-371" font-family="Helvetica,sans-Serif" font-size="10.00">_handle</text>
</a>
</g>
</g>
<!-- Node23&#45;&gt;Node24 -->
<g id="edge25_Node000023_Node000024" class="edge">
<title>Node23&#45;&gt;Node24</title>
<g id="a_edge25_Node000023_Node000024"><a xlink:title=" ">
<path fill="none" stroke="#63b8ff" d="M1263.27,-380.78C1279.88,-380.53 1297.19,-380.28 1313.34,-380.04"/>
<polygon fill="#63b8ff" stroke="#63b8ff" points="1313.82,-383.54 1323.77,-379.89 1313.72,-376.54 1313.82,-383.54"/>
</a>
</g>
</g>
<!-- Node25 -->
<g id="Node000025" class="node">
<title>Node25</title>
<g id="a_Node000025"><a xlink:href="classwmtk_1_1attribute_1_1_attribute_manager.html#a3b1a087ab6c03a0f2e6a6a93b87f3147" target="_top" xlink:title=" ">
<polygon fill="white" stroke="#666666" points="1649,-385 1506,-385 1506,-355 1649,-355 1649,-385"/>
<text text-anchor="start" x="1514" y="-373" font-family="Helvetica,sans-Serif" font-size="10.00">wmtk::attribute::Attribute</text>
<text text-anchor="middle" x="1577.5" y="-362" font-family="Helvetica,sans-Serif" font-size="10.00">Manager::validate_handle</text>
</a>
</g>
</g>
<!-- Node24&#45;&gt;Node25 -->
<g id="edge26_Node000024_Node000025" class="edge">
<title>Node24&#45;&gt;Node25</title>
<g id="a_edge26_Node000024_Node000025"><a xlink:title=" ">
<path fill="none" stroke="#63b8ff" d="M1446.01,-376.16C1461.73,-375.42 1478.93,-374.61 1495.54,-373.82"/>
<polygon fill="#63b8ff" stroke="#63b8ff" points="1495.97,-377.31 1505.79,-373.34 1495.64,-370.32 1495.97,-377.31"/>
</a>
</g>
</g>
<!-- Node25&#45;&gt;Node11 -->
<g id="edge27_Node000025_Node000011" class="edge">
<title>Node25&#45;&gt;Node11</title>
<g id="a_edge27_Node000025_Node000011"><a xlink:title=" ">
<path fill="none" stroke="#63b8ff" d="M1634.67,-355C1651.82,-350.42 1670.83,-345.34 1688.56,-340.61"/>
<polygon fill="#63b8ff" stroke="#63b8ff" points="1689.5,-343.98 1698.26,-338.02 1687.69,-337.22 1689.5,-343.98"/>
</a>
</g>
</g>
<!-- Node28 -->
<g id="Node000028" class="node">
<title>Node28</title>
<g id="a_Node000028"><a xlink:href="classwmtk_1_1attribute_1_1_attribute_manager.html#a4ae249faad236f8d98287c3ec61e987e" target="_top" xlink:title=" ">
<polygon fill="white" stroke="#666666" points="1250,-293.5 1109,-293.5 1109,-252.5 1250,-252.5 1250,-293.5"/>
<text text-anchor="start" x="1117" y="-281.5" font-family="Helvetica,sans-Serif" font-size="10.00">wmtk::attribute::Attribute</text>
<text text-anchor="start" x="1117" y="-270.5" font-family="Helvetica,sans-Serif" font-size="10.00">Manager::get_attribute</text>
<text text-anchor="middle" x="1179.5" y="-259.5" font-family="Helvetica,sans-Serif" font-size="10.00">_dimension</text>
</a>
</g>
</g>
<!-- Node27&#45;&gt;Node28 -->
<g id="edge30_Node000027_Node000028" class="edge">
<title>Node27&#45;&gt;Node28</title>
<g id="a_edge30_Node000027_Node000028"><a xlink:title=" ">
<path fill="none" stroke="#63b8ff" d="M1042.05,-273C1060.32,-273 1080.06,-273 1098.69,-273"/>
<polygon fill="#63b8ff" stroke="#63b8ff" points="1098.91,-276.5 1108.91,-273 1098.91,-269.5 1098.91,-276.5"/>
</a>
</g>
</g>
<!-- Node28&#45;&gt;Node11 -->
<g id="edge31_Node000028_Node000011" class="edge">
<title>Node28&#45;&gt;Node11</title>
<g id="a_edge31_Node000028_Node000011"><a xlink:title=" ">
<path fill="none" stroke="#63b8ff" d="M1250.02,-279.06C1357.08,-288.38 1561.71,-306.21 1674.68,-316.05"/>
<polygon fill="#63b8ff" stroke="#63b8ff" points="1674.38,-319.53 1684.65,-316.92 1674.99,-312.56 1674.38,-319.53"/>
</a>
</g>
</g>
<!-- Node29 -->
<g id="Node000029" class="node">
<title>Node29</title>
<g id="a_Node000029"><a xlink:href="classwmtk_1_1attribute_1_1_typed_attribute_handle.html#ad473b36dc43489bad4a345dceac443fa" target="_top" xlink:title=" ">
<polygon fill="white" stroke="#666666" points="1470,-257 1300,-257 1300,-227 1470,-227 1470,-257"/>
<text text-anchor="start" x="1308" y="-245" font-family="Helvetica,sans-Serif" font-size="10.00">wmtk::attribute::TypedAttribute</text>
<text text-anchor="middle" x="1385" y="-234" font-family="Helvetica,sans-Serif" font-size="10.00">Handle::is_valid</text>
</a>
</g>
</g>
<!-- Node28&#45;&gt;Node29 -->
<g id="edge32_Node000028_Node000029" class="edge">
<title>Node28&#45;&gt;Node29</title>
<g id="a_edge32_Node000028_Node000029"><a xlink:title=" ">
<path fill="none" stroke="#63b8ff" d="M1250.25,-262.37C1262.99,-260.43 1276.48,-258.38 1289.8,-256.35"/>
<polygon fill="#63b8ff" stroke="#63b8ff" points="1290.58,-259.77 1299.93,-254.81 1289.52,-252.85 1290.58,-259.77"/>
</a>
</g>
</g>
<!-- Node30 -->
<g id="Node000030" class="node">
<title>Node30</title>
<g id="a_Node000030"><a xlink:href="classwmtk_1_1attribute_1_1_attribute_handle.html#afbe0d658f352336562850deaca347fe6" target="_top" xlink:title=" ">
<polygon fill="white" stroke="#666666" points="1648,-257 1507,-257 1507,-227 1648,-227 1648,-257"/>
<text text-anchor="start" x="1515" y="-245" font-family="Helvetica,sans-Serif" font-size="10.00">wmtk::attribute::Attribute</text>
<text text-anchor="middle" x="1577.5" y="-234" font-family="Helvetica,sans-Serif" font-size="10.00">Handle::is_valid</text>
</a>
</g>
</g>
<!-- Node29&#45;&gt;Node30 -->
<g id="edge33_Node000029_Node000030" class="edge">
<title>Node29&#45;&gt;Node30</title>
<g id="a_edge33_Node000029_Node000030"><a xlink:title=" ">
<path fill="none" stroke="#63b8ff" d="M1470.11,-242C1478.92,-242 1487.86,-242 1496.63,-242"/>
<polygon fill="#63b8ff" stroke="#63b8ff" points="1496.81,-245.5 1506.81,-242 1496.81,-238.5 1496.81,-245.5"/>
</a>
</g>
</g>
<!-- Node33 -->
<g id="Node000033" class="node">
<title>Node33</title>
<g id="a_Node000033"><a xlink:href="classwmtk_1_1multimesh_1_1_multi_mesh_manager.html#a434e74f6b295055a45914d41a784124a" target="_top" xlink:title=" ">
<polygon fill="white" stroke="#666666" points="611,-143 451,-143 451,-113 611,-113 611,-143"/>
<text text-anchor="start" x="459" y="-131" font-family="Helvetica,sans-Serif" font-size="10.00">wmtk::multimesh::MultiMesh</text>
<text text-anchor="middle" x="531" y="-120" font-family="Helvetica,sans-Serif" font-size="10.00">Manager::get_root_mesh</text>
</a>
</g>
</g>
<!-- Node32&#45;&gt;Node33 -->
<g id="edge39_Node000032_Node000033" class="edge">
<title>Node32&#45;&gt;Node33</title>
<g id="a_edge39_Node000032_Node000033"><a xlink:title=" ">
<path fill="none" stroke="#63b8ff" d="M344.07,-192.95C381.78,-179.78 436.68,-160.6 477.06,-146.49"/>
<polygon fill="#63b8ff" stroke="#63b8ff" points="478.45,-149.72 486.73,-143.12 476.14,-143.11 478.45,-149.72"/>
</a>
</g>
</g>
<!-- Node33&#45;&gt;Node33 -->
<g id="edge40_Node000033_Node000033" class="edge">
<title>Node33&#45;&gt;Node33</title>
<g id="a_edge40_Node000033_Node000033"><a xlink:title=" ">
<path fill="none" stroke="#63b8ff" d="M491.27,-143.28C482.45,-152.41 495.69,-161 531,-161 551.97,-161 565.15,-157.97 570.56,-153.6"/>
<polygon fill="#63b8ff" stroke="#63b8ff" points="574.06,-153.33 570.73,-143.28 567.06,-153.22 574.06,-153.33"/>
</a>
</g>
</g>
<!-- Node34 -->
<g id="Node000034" class="node">
<title>Node34</title>
<g id="a_Node000034"><a xlink:href="classwmtk_1_1multimesh_1_1_multi_mesh_manager.html#a7d39339adb56b1798fe817d81bfcc67c" target="_top" xlink:title="Specifies whether this structure is the root of a multi&#45;mesh tree.">
<polygon fill="white" stroke="#666666" points="838.5,-128 678.5,-128 678.5,-98 838.5,-98 838.5,-128"/>
<text text-anchor="start" x="686.5" y="-116" font-family="Helvetica,sans-Serif" font-size="10.00">wmtk::multimesh::MultiMesh</text>
<text text-anchor="middle" x="758.5" y="-105" font-family="Helvetica,sans-Serif" font-size="10.00">Manager::is_root</text>
</a>
</g>
</g>
<!-- Node33&#45;&gt;Node34 -->
<g id="edge41_Node000033_Node000034" class="edge">
<title>Node33&#45;&gt;Node34</title>
<g id="a_edge41_Node000033_Node000034"><a xlink:title=" ">
<path fill="none" stroke="#63b8ff" d="M611.19,-122.73C629.58,-121.51 649.29,-120.2 668.09,-118.95"/>
<polygon fill="#63b8ff" stroke="#63b8ff" points="668.38,-122.44 678.12,-118.28 667.91,-115.45 668.38,-122.44"/>
</a>
</g>
</g>
</g>
</svg>

<g id="navigator" transform="translate(0 0)" fill="#404254">
  <rect fill="#f2f5e9" fill-opacity="0.5" stroke="#606060" stroke-width=".5" x="0" y="0" width="60" height="60"/>
  <use id="zoomplus" xlink:href="#zoomPlus" x="17" y="9" onmousedown="handleZoom(evt,'in')"/>
  <use id="zoomminus" xlink:href="#zoomMin" x="42" y="9" onmousedown="handleZoom(evt,'out')"/>
  <use id="reset" xlink:href="#resetDef" x="30" y="36" onmousedown="handleReset()"/>
   <use id="arrowup" xlink:href="#arrowUp" x="0" y="0" onmousedown="handlePan(0,-1)"/>
  <use id="arrowright" xlink:href="#arrowRight" x="0" y="0" onmousedown="handlePan(1,0)"/>
  <use id="arrowdown" xlink:href="#arrowDown" x="0" y="0" onmousedown="handlePan(0,1)"/>
  <use id="arrowleft" xlink:href="#arrowLeft" x="0" y="0" onmousedown="handlePan(-1,0)"/>
</g>
<svg viewBox="0 0 15 15" width="100%" height="30px" preserveAspectRatio="xMaxYMin meet">
 <g id="arrow_out" transform="scale(0.3 0.3)">
  <a xlink:href="classwmtk_1_1components_1_1isotropic__remeshing_1_1_isotropic_remeshing_acfec4d484d48b22125364adef857f804_cgraph_org.svg" target="_base">
   <rect id="button" ry="5" rx="5" y="6" x="6" height="38" width="38"
        fill="#f2f5e9" fill-opacity="0.5" stroke="#606060" stroke-width="1.0"/>
   <path id="arrow"
     d="M 11.500037,31.436501 C 11.940474,20.09759 22.043105,11.32322 32.158766,21.979434 L 37.068811,17.246167 C 37.068811,17.246167 37.088388,32 37.088388,32 L 22.160133,31.978069 C 22.160133,31.978069 26.997745,27.140456 26.997745,27.140456 C 18.528582,18.264221 13.291696,25.230495 11.500037,31.436501 z"
     style="fill:#404040;"/>
  </a>
 </g>
</svg>

<style type='text/css'>
<![CDATA[
[data-mouse-over-selected='false'] { opacity: 0.7; }
[data-mouse-over-selected='true']  { opacity: 1.0; }
]]>
</style>
<script type="application/ecmascript"><![CDATA[
document.addEventListener('DOMContentLoaded', (event) => {
  highlightEdges();
  highlightAdjacentNodes();
});
]]></script>
</svg>
