<?xml version="1.0" encoding="UTF-8" standalone="no"?>
<!DOCTYPE svg PUBLIC "-//W3C//DTD SVG 1.1//EN"
 "http://www.w3.org/Graphics/SVG/1.1/DTD/svg11.dtd">
<!-- Generated by graphviz version 2.43.0 (0)
 -->
<!-- Title: wmtk::dart::_Dart::is_null Pages: 1 -->
<svg width="1236pt" height="601pt"
 viewBox="0.00 0.00 1236.00 601.00" xmlns="http://www.w3.org/2000/svg" xmlns:xlink="http://www.w3.org/1999/xlink">
<g id="graph0" class="graph" transform="scale(1 1) rotate(0) translate(4 597)">
<title>wmtk::dart::_Dart::is_null</title>
<!-- Node1 -->
<g id="Node000001" class="node">
<title>Node1</title>
<g id="a_Node000001"><a xlink:title=" ">
<polygon fill="#999999" stroke="#666666" points="1228,-371.5 1120,-371.5 1120,-341.5 1228,-341.5 1228,-371.5"/>
<text text-anchor="start" x="1128" y="-359.5" font-family="Helvetica,sans-Serif" font-size="10.00">wmtk::dart::_Dart::</text>
<text text-anchor="middle" x="1174" y="-348.5" font-family="Helvetica,sans-Serif" font-size="10.00">is_null</text>
</a>
</g>
</g>
<!-- Node2 -->
<g id="Node000002" class="node">
<title>Node2</title>
<g id="a_Node000002"><a xlink:href="classwmtk_1_1multimesh_1_1utils_1_1_map_validator.html#a830d5603fe0ae9531b45f87eb70e09c2" target="_top" xlink:title=" ">
<polygon fill="white" stroke="#666666" points="1067,-563 910,-563 910,-522 1067,-522 1067,-563"/>
<text text-anchor="start" x="918" y="-551" font-family="Helvetica,sans-Serif" font-size="10.00">wmtk::multimesh::utils</text>
<text text-anchor="start" x="918" y="-540" font-family="Helvetica,sans-Serif" font-size="10.00">::MapValidator::check</text>
<text text-anchor="middle" x="988.5" y="-529" font-family="Helvetica,sans-Serif" font-size="10.00">_parent_map_attribute_valid</text>
</a>
</g>
</g>
<!-- Node1&#45;&gt;Node2 -->
<g id="edge1_Node000001_Node000002" class="edge">
<title>Node1&#45;&gt;Node2</title>
<g id="a_edge1_Node000001_Node000002"><a xlink:title=" ">
<path fill="none" stroke="#63b8ff" d="M1165.19,-381.62C1153.22,-416.08 1127.07,-477.68 1084,-512.5 1078.91,-516.61 1073.25,-520.16 1067.31,-523.23"/>
<polygon fill="#63b8ff" stroke="#63b8ff" points="1168.61,-382.45 1168.46,-371.86 1161.97,-380.23 1168.61,-382.45"/>
</a>
</g>
</g>
<!-- Node13 -->
<g id="Node000013" class="node">
<title>Node13</title>
<g id="a_Node000013"><a xlink:href="namespacewmtk_1_1dart_1_1utils.html#a50fa2050fcefc95e346f6dc4f8766447" target="_top" xlink:title=" ">
<polygon fill="white" stroke="#666666" points="1073,-503.5 904,-503.5 904,-473.5 1073,-473.5 1073,-503.5"/>
<text text-anchor="start" x="912" y="-491.5" font-family="Helvetica,sans-Serif" font-size="10.00">wmtk::dart::utils::</text>
<text text-anchor="middle" x="988.5" y="-480.5" font-family="Helvetica,sans-Serif" font-size="10.00">indexed_topology_initialization</text>
</a>
</g>
</g>
<!-- Node1&#45;&gt;Node13 -->
<g id="edge13_Node000001_Node000013" class="edge">
<title>Node1&#45;&gt;Node13</title>
<g id="a_edge13_Node000001_Node000013"><a xlink:title=" ">
<path fill="none" stroke="#63b8ff" d="M1159.58,-380.44C1144.43,-405.23 1117.48,-443.27 1084,-464.5 1078.57,-467.94 1072.67,-470.9 1066.55,-473.42"/>
<polygon fill="#63b8ff" stroke="#63b8ff" points="1162.71,-382.03 1164.8,-371.64 1156.69,-378.46 1162.71,-382.03"/>
</a>
</g>
</g>
<!-- Node14 -->
<g id="Node000014" class="node">
<title>Node14</title>
<g id="a_Node000014"><a xlink:href="classwmtk_1_1dart_1_1_dart_topology_accessor.html#a1480b035cc4b65f7d2f4a3fcd678f088" target="_top" xlink:title=" ">
<polygon fill="white" stroke="#666666" points="1058.5,-455.5 918.5,-455.5 918.5,-425.5 1058.5,-425.5 1058.5,-455.5"/>
<text text-anchor="start" x="926.5" y="-443.5" font-family="Helvetica,sans-Serif" font-size="10.00">wmtk::dart::DartTopology</text>
<text text-anchor="middle" x="988.5" y="-432.5" font-family="Helvetica,sans-Serif" font-size="10.00">Accessor::is_boundary</text>
</a>
</g>
</g>
<!-- Node1&#45;&gt;Node14 -->
<g id="edge14_Node000001_Node000014" class="edge">
<title>Node1&#45;&gt;Node14</title>
<g id="a_edge14_Node000001_Node000014"><a xlink:title=" ">
<path fill="none" stroke="#63b8ff" d="M1146.38,-378.02C1129.41,-390.81 1106.45,-406.45 1084,-416.5 1075.97,-420.1 1067.3,-423.22 1058.58,-425.92"/>
<polygon fill="#63b8ff" stroke="#63b8ff" points="1148.89,-380.51 1154.68,-371.64 1144.62,-374.96 1148.89,-380.51"/>
</a>
</g>
</g>
<!-- Node15 -->
<g id="Node000015" class="node">
<title>Node15</title>
<g id="a_Node000015"><a xlink:href="classwmtk_1_1operations_1_1internal_1_1_collapse_alternate_facet_option_data.html#a19748ca21d00db56a4ac77999ddacff6" target="_top" xlink:title=" ">
<polygon fill="white" stroke="#666666" points="1084,-407 893,-407 893,-366 1084,-366 1084,-407"/>
<text text-anchor="start" x="901" y="-395" font-family="Helvetica,sans-Serif" font-size="10.00">wmtk::operations::internal</text>
<text text-anchor="start" x="901" y="-384" font-family="Helvetica,sans-Serif" font-size="10.00">::CollapseAlternateFacetOptionData</text>
<text text-anchor="middle" x="988.5" y="-373" font-family="Helvetica,sans-Serif" font-size="10.00">::map_permutation_to_alt</text>
</a>
</g>
</g>
<!-- Node1&#45;&gt;Node15 -->
<g id="edge15_Node000001_Node000015" class="edge">
<title>Node1&#45;&gt;Node15</title>
<g id="a_edge15_Node000001_Node000015"><a xlink:title=" ">
<path fill="none" stroke="#63b8ff" d="M1109.98,-366.8C1101.67,-368.16 1093,-369.58 1084.3,-371"/>
<polygon fill="#63b8ff" stroke="#63b8ff" points="1110.62,-370.24 1119.92,-365.18 1109.49,-363.34 1110.62,-370.24"/>
</a>
</g>
</g>
<!-- Node16 -->
<g id="Node000016" class="node">
<title>Node16</title>
<g id="a_Node000016"><a xlink:href="classwmtk_1_1operations_1_1internal_1_1_collapse_alternate_facet_option_data.html#a9d03ff332c31e2355a006325dd81c7dc" target="_top" xlink:title=" ">
<polygon fill="white" stroke="#666666" points="1084,-348 893,-348 893,-307 1084,-307 1084,-348"/>
<text text-anchor="start" x="901" y="-336" font-family="Helvetica,sans-Serif" font-size="10.00">wmtk::operations::internal</text>
<text text-anchor="start" x="901" y="-325" font-family="Helvetica,sans-Serif" font-size="10.00">::CollapseAlternateFacetOptionData</text>
<text text-anchor="middle" x="988.5" y="-314" font-family="Helvetica,sans-Serif" font-size="10.00">::map_permutation_to_alt</text>
</a>
</g>
</g>
<!-- Node1&#45;&gt;Node16 -->
<g id="edge16_Node000001_Node000016" class="edge">
<title>Node1&#45;&gt;Node16</title>
<g id="a_edge16_Node000001_Node000016"><a xlink:title=" ">
<path fill="none" stroke="#63b8ff" d="M1109.98,-346.54C1101.67,-345.23 1093,-343.86 1084.3,-342.48"/>
<polygon fill="#63b8ff" stroke="#63b8ff" points="1109.5,-350.01 1119.92,-348.11 1110.59,-343.09 1109.5,-350.01"/>
</a>
</g>
</g>
<!-- Node18 -->
<g id="Node000018" class="node">
<title>Node18</title>
<g id="a_Node000018"><a xlink:href="namespacewmtk_1_1multimesh_1_1utils_1_1internal.html#ac309be236e1e95b682343e3896937f18" target="_top" xlink:title=" ">
<polygon fill="white" stroke="#666666" points="826.5,-316 696.5,-316 696.5,-275 826.5,-275 826.5,-316"/>
<text text-anchor="start" x="704.5" y="-304" font-family="Helvetica,sans-Serif" font-size="10.00">wmtk::multimesh::utils</text>
<text text-anchor="start" x="704.5" y="-293" font-family="Helvetica,sans-Serif" font-size="10.00">::internal::print_all</text>
<text text-anchor="middle" x="761.5" y="-282" font-family="Helvetica,sans-Serif" font-size="10.00">_mapped_tuples</text>
</a>
</g>
</g>
<!-- Node1&#45;&gt;Node18 -->
<g id="edge18_Node000001_Node000018" class="edge">
<title>Node1&#45;&gt;Node18</title>
<g id="a_edge18_Node000001_Node000018"><a xlink:title=" ">
<path fill="none" stroke="#63b8ff" d="M1148.27,-334.82C1131.42,-321.53 1107.9,-305.72 1084,-298.5 997.84,-272.47 892.67,-278.04 826.61,-285.73"/>
<polygon fill="#63b8ff" stroke="#63b8ff" points="1146.48,-337.88 1156.44,-341.48 1150.9,-332.45 1146.48,-337.88"/>
</a>
</g>
</g>
<!-- Node19 -->
<g id="Node000019" class="node">
<title>Node19</title>
<g id="a_Node000019"><a xlink:href="classwmtk_1_1dart_1_1_simplex_dart.html#a00e0cc038708281bcb75a6a6d5e6aaff" target="_top" xlink:title=" ">
<polygon fill="white" stroke="#666666" points="1057,-218.5 920,-218.5 920,-188.5 1057,-188.5 1057,-218.5"/>
<text text-anchor="start" x="928" y="-206.5" font-family="Helvetica,sans-Serif" font-size="10.00">wmtk::dart::SimplexDart</text>
<text text-anchor="middle" x="988.5" y="-195.5" font-family="Helvetica,sans-Serif" font-size="10.00">::tuple_from_dart</text>
</a>
</g>
</g>
<!-- Node1&#45;&gt;Node19 -->
<g id="edge19_Node000001_Node000019" class="edge">
<title>Node1&#45;&gt;Node19</title>
<g id="a_edge19_Node000001_Node000019"><a xlink:title=" ">
<path fill="none" stroke="#63b8ff" d="M1153.58,-333.66C1136.37,-314.12 1110,-285.85 1084,-264.5 1062.57,-246.9 1035.84,-230.06 1016.28,-218.55"/>
<polygon fill="#63b8ff" stroke="#63b8ff" points="1151.16,-336.21 1160.37,-341.45 1156.44,-331.61 1151.16,-336.21"/>
</a>
</g>
</g>
<!-- Node23 -->
<g id="Node000023" class="node">
<title>Node23</title>
<g id="a_Node000023"><a xlink:href="classwmtk_1_1multimesh_1_1_multi_mesh_manager.html#a976fa18136619f216426b4fdbeabac38" target="_top" xlink:title=" ">
<polygon fill="white" stroke="#666666" points="630,-94.5 434,-94.5 434,-64.5 630,-64.5 630,-94.5"/>
<text text-anchor="start" x="442" y="-82.5" font-family="Helvetica,sans-Serif" font-size="10.00">wmtk::multimesh::MultiMesh</text>
<text text-anchor="middle" x="532" y="-71.5" font-family="Helvetica,sans-Serif" font-size="10.00">Manager::update_map_tuple_hashes</text>
</a>
</g>
</g>
<!-- Node1&#45;&gt;Node23 -->
<g id="edge31_Node000001_Node000023" class="edge">
<title>Node1&#45;&gt;Node23</title>
<g id="a_edge31_Node000001_Node000023"><a xlink:title=" ">
<path fill="none" stroke="#63b8ff" d="M1165.92,-331.23C1154.33,-293.86 1128.06,-223.54 1084,-179.5 1004.15,-99.69 966.85,-91.54 857,-65.5 774.27,-45.89 676.41,-54.29 610.06,-64.47"/>
<polygon fill="#63b8ff" stroke="#63b8ff" points="1162.71,-332.7 1168.93,-341.28 1169.41,-330.7 1162.71,-332.7"/>
</a>
</g>
</g>
<!-- Node3 -->
<g id="Node000003" class="node">
<title>Node3</title>
<g id="a_Node000003"><a xlink:href="classwmtk_1_1multimesh_1_1utils_1_1_map_validator.html#a7c91255f342becd3f24ffa7bbaebeb3d" target="_top" xlink:title=" ">
<polygon fill="white" stroke="#666666" points="831,-533.5 692,-533.5 692,-503.5 831,-503.5 831,-533.5"/>
<text text-anchor="start" x="700" y="-521.5" font-family="Helvetica,sans-Serif" font-size="10.00">wmtk::multimesh::utils</text>
<text text-anchor="middle" x="761.5" y="-510.5" font-family="Helvetica,sans-Serif" font-size="10.00">::MapValidator::check_all</text>
</a>
</g>
</g>
<!-- Node2&#45;&gt;Node3 -->
<g id="edge2_Node000002_Node000003" class="edge">
<title>Node2&#45;&gt;Node3</title>
<g id="a_edge2_Node000002_Node000003"><a xlink:title=" ">
<path fill="none" stroke="#63b8ff" d="M899.76,-533.14C877.01,-530.71 852.84,-528.14 831.23,-525.83"/>
<polygon fill="#63b8ff" stroke="#63b8ff" points="899.44,-536.63 909.75,-534.21 900.18,-529.67 899.44,-536.63"/>
</a>
</g>
</g>
<!-- Node12 -->
<g id="Node000012" class="node">
<title>Node12</title>
<g id="a_Node000012"><a xlink:href="namespacewmtk_1_1multimesh_1_1utils.html#a72d2a49b74701d0d60edfe4408f4b5a0" target="_top" xlink:title=" ">
<polygon fill="white" stroke="#666666" points="833.5,-581.5 689.5,-581.5 689.5,-551.5 833.5,-551.5 833.5,-581.5"/>
<text text-anchor="start" x="697.5" y="-569.5" font-family="Helvetica,sans-Serif" font-size="10.00">wmtk::multimesh::utils</text>
<text text-anchor="middle" x="761.5" y="-558.5" font-family="Helvetica,sans-Serif" font-size="10.00">::check_parent_map_valid</text>
</a>
</g>
</g>
<!-- Node2&#45;&gt;Node12 -->
<g id="edge12_Node000002_Node000012" class="edge">
<title>Node2&#45;&gt;Node12</title>
<g id="a_edge12_Node000002_Node000012"><a xlink:title=" ">
<path fill="none" stroke="#63b8ff" d="M899.52,-551.88C877.75,-554.21 854.7,-556.67 833.83,-558.89"/>
<polygon fill="#63b8ff" stroke="#63b8ff" points="900.18,-555.33 909.75,-550.79 899.44,-548.37 900.18,-555.33"/>
</a>
</g>
</g>
<!-- Node4 -->
<g id="Node000004" class="node">
<title>Node4</title>
<g id="a_Node000004"><a xlink:href="namespacewmtk_1_1multimesh_1_1utils.html#abcc3f7f7a25879455cafc8a8f4304c4c" target="_top" xlink:title=" ">
<polygon fill="white" stroke="#666666" points="597,-533.5 467,-533.5 467,-503.5 597,-503.5 597,-533.5"/>
<text text-anchor="start" x="475" y="-521.5" font-family="Helvetica,sans-Serif" font-size="10.00">wmtk::multimesh::utils</text>
<text text-anchor="middle" x="532" y="-510.5" font-family="Helvetica,sans-Serif" font-size="10.00">::check_maps_valid</text>
</a>
</g>
</g>
<!-- Node3&#45;&gt;Node4 -->
<g id="edge3_Node000003_Node000004" class="edge">
<title>Node3&#45;&gt;Node4</title>
<g id="a_edge3_Node000003_Node000004"><a xlink:title=" ">
<path fill="none" stroke="#63b8ff" d="M681.89,-518.5C654.22,-518.5 623.48,-518.5 597.15,-518.5"/>
<polygon fill="#63b8ff" stroke="#63b8ff" points="681.93,-522 691.93,-518.5 681.93,-515 681.93,-522"/>
</a>
</g>
</g>
<!-- Node5 -->
<g id="Node000005" class="node">
<title>Node5</title>
<g id="a_Node000005"><a xlink:href="classwmtk_1_1operations_1_1_operation.html#af181d255eb0ef5297646e0dc9dc817a7" target="_top" xlink:title=" ">
<polygon fill="white" stroke="#666666" points="385.5,-533.5 229.5,-533.5 229.5,-503.5 385.5,-503.5 385.5,-533.5"/>
<text text-anchor="start" x="237.5" y="-521.5" font-family="Helvetica,sans-Serif" font-size="10.00">wmtk::operations::Operation</text>
<text text-anchor="middle" x="307.5" y="-510.5" font-family="Helvetica,sans-Serif" font-size="10.00">::apply_attribute_transfer</text>
</a>
</g>
</g>
<!-- Node4&#45;&gt;Node5 -->
<g id="edge4_Node000004_Node000005" class="edge">
<title>Node4&#45;&gt;Node5</title>
<g id="a_edge4_Node000004_Node000005"><a xlink:title=" ">
<path fill="none" stroke="#63b8ff" d="M456.93,-518.5C433.98,-518.5 408.64,-518.5 385.5,-518.5"/>
<polygon fill="#63b8ff" stroke="#63b8ff" points="456.94,-522 466.94,-518.5 456.94,-515 456.94,-522"/>
</a>
</g>
</g>
<!-- Node8 -->
<g id="Node000008" class="node">
<title>Node8</title>
<g id="a_Node000008"><a xlink:href="namespacewmtk_1_1components.html#a1d95b8c424d645d432babf8ba5765e36" target="_top" xlink:title=" ">
<polygon fill="white" stroke="#666666" points="377.5,-467.5 237.5,-467.5 237.5,-437.5 377.5,-437.5 377.5,-467.5"/>
<text text-anchor="start" x="245.5" y="-455.5" font-family="Helvetica,sans-Serif" font-size="10.00">wmtk::components::edge</text>
<text text-anchor="middle" x="307.5" y="-444.5" font-family="Helvetica,sans-Serif" font-size="10.00">_insertion</text>
</a>
</g>
</g>
<!-- Node4&#45;&gt;Node8 -->
<g id="edge7_Node000004_Node000008" class="edge">
<title>Node4&#45;&gt;Node8</title>
<g id="a_edge7_Node000004_Node000008"><a xlink:title=" ">
<path fill="none" stroke="#63b8ff" d="M470.21,-500.47C435.46,-490.16 392.39,-477.38 359.43,-467.61"/>
<polygon fill="#63b8ff" stroke="#63b8ff" points="469.65,-503.95 480.23,-503.44 471.64,-497.24 469.65,-503.95"/>
</a>
</g>
</g>
<!-- Node11 -->
<g id="Node000011" class="node">
<title>Node11</title>
<g id="a_Node000011"><a xlink:href="classwmtk_1_1operations_1_1composite_1_1_collapse_and_update_vertex.html#a8cc10265bc5d7192b42ed9949046a24f" target="_top" xlink:title="returns an empty vector in case of failure">
<polygon fill="white" stroke="#666666" points="387,-593 228,-593 228,-552 387,-552 387,-593"/>
<text text-anchor="start" x="236" y="-581" font-family="Helvetica,sans-Serif" font-size="10.00">wmtk::operations::composite</text>
<text text-anchor="start" x="236" y="-570" font-family="Helvetica,sans-Serif" font-size="10.00">::CollapseAndUpdateVertex</text>
<text text-anchor="middle" x="307.5" y="-559" font-family="Helvetica,sans-Serif" font-size="10.00">::execute</text>
</a>
</g>
</g>
<!-- Node4&#45;&gt;Node11 -->
<g id="edge11_Node000004_Node000011" class="edge">
<title>Node4&#45;&gt;Node11</title>
<g id="a_edge11_Node000004_Node000011"><a xlink:title=" ">
<path fill="none" stroke="#63b8ff" d="M459.03,-535.97C436.1,-541.53 410.63,-547.71 387.25,-553.39"/>
<polygon fill="#63b8ff" stroke="#63b8ff" points="460.13,-539.3 469.02,-533.54 458.48,-532.5 460.13,-539.3"/>
</a>
</g>
</g>
<!-- Node6 -->
<g id="Node000006" class="node">
<title>Node6</title>
<g id="a_Node000006"><a xlink:href="classwmtk_1_1operations_1_1_operation.html#a9c6426d34b54642aacb28e7cf93e328f" target="_top" xlink:title=" ">
<polygon fill="white" stroke="#666666" points="168.5,-529.5 12.5,-529.5 12.5,-499.5 168.5,-499.5 168.5,-529.5"/>
<text text-anchor="start" x="20.5" y="-517.5" font-family="Helvetica,sans-Serif" font-size="10.00">wmtk::operations::Operation</text>
<text text-anchor="middle" x="90.5" y="-506.5" font-family="Helvetica,sans-Serif" font-size="10.00">::operator()</text>
</a>
</g>
</g>
<!-- Node5&#45;&gt;Node6 -->
<g id="edge5_Node000005_Node000006" class="edge">
<title>Node5&#45;&gt;Node6</title>
<g id="a_edge5_Node000005_Node000006"><a xlink:title=" ">
<path fill="none" stroke="#63b8ff" d="M219.18,-516.88C202.46,-516.56 185.07,-516.24 168.7,-515.94"/>
<polygon fill="#63b8ff" stroke="#63b8ff" points="219.42,-520.38 229.49,-517.07 219.55,-513.38 219.42,-520.38"/>
</a>
</g>
</g>
<!-- Node7 -->
<g id="Node000007" class="node">
<title>Node7</title>
<g id="a_Node000007"><a xlink:href="classwmtk_1_1operations_1_1_operation_sequence.html#a547ec2a6ed8a354eff76e733b2e7fb2c" target="_top" xlink:title=" ">
<polygon fill="white" stroke="#666666" points="168.5,-577.5 12.5,-577.5 12.5,-547.5 168.5,-547.5 168.5,-577.5"/>
<text text-anchor="start" x="20.5" y="-565.5" font-family="Helvetica,sans-Serif" font-size="10.00">wmtk::operations::Operation</text>
<text text-anchor="middle" x="90.5" y="-554.5" font-family="Helvetica,sans-Serif" font-size="10.00">Sequence::operator()</text>
</a>
</g>
</g>
<!-- Node5&#45;&gt;Node7 -->
<g id="edge6_Node000005_Node000007" class="edge">
<title>Node5&#45;&gt;Node7</title>
<g id="a_edge6_Node000005_Node000007"><a xlink:title=" ">
<path fill="none" stroke="#63b8ff" d="M223.18,-535.55C203.97,-539.48 183.68,-543.64 164.92,-547.47"/>
<polygon fill="#63b8ff" stroke="#63b8ff" points="224.02,-538.95 233.11,-533.52 222.61,-532.1 224.02,-538.95"/>
</a>
</g>
</g>
<!-- Node8&#45;&gt;Node8 -->
<g id="edge8_Node000008_Node000008" class="edge">
<title>Node8&#45;&gt;Node8</title>
<g id="a_edge8_Node000008_Node000008"><a xlink:title=" ">
<path fill="none" stroke="#63b8ff" d="M345.31,-478.1C340.14,-482.47 327.54,-485.5 307.5,-485.5 273.75,-485.5 261.09,-476.91 269.53,-467.78"/>
<polygon fill="#63b8ff" stroke="#63b8ff" points="348.81,-477.83 345.47,-467.78 341.81,-477.72 348.81,-477.83"/>
</a>
</g>
</g>
<!-- Node9 -->
<g id="Node000009" class="node">
<title>Node9</title>
<g id="a_Node000009"><a xlink:href="namespacewmtk_1_1components_1_1internal.html#aff1250493ee8c47518118b92223c8576" target="_top" xlink:title=" ">
<polygon fill="white" stroke="#666666" points="167.5,-424.5 13.5,-424.5 13.5,-394.5 167.5,-394.5 167.5,-424.5"/>
<text text-anchor="start" x="21.5" y="-412.5" font-family="Helvetica,sans-Serif" font-size="10.00">wmtk::components::internal</text>
<text text-anchor="middle" x="90.5" y="-401.5" font-family="Helvetica,sans-Serif" font-size="10.00">::edge_insertion</text>
</a>
</g>
</g>
<!-- Node8&#45;&gt;Node9 -->
<g id="edge9_Node000008_Node000009" class="edge">
<title>Node8&#45;&gt;Node9</title>
<g id="a_edge9_Node000008_Node000009"><a xlink:title=" ">
<path fill="none" stroke="#63b8ff" d="M227.35,-436.67C207.47,-432.69 186.2,-428.44 166.53,-424.51"/>
<polygon fill="#63b8ff" stroke="#63b8ff" points="226.8,-440.13 237.29,-438.66 228.17,-433.26 226.8,-440.13"/>
</a>
</g>
</g>
<!-- Node10 -->
<g id="Node000010" class="node">
<title>Node10</title>
<g id="a_Node000010"><a xlink:href="namespacewmtk_1_1components_1_1internal.html#ad827cdbb96806fb2e4c19c644277f3c3" target="_top" xlink:title="include the intersection on edgepoints">
<polygon fill="white" stroke="#666666" points="167.5,-472.5 13.5,-472.5 13.5,-442.5 167.5,-442.5 167.5,-472.5"/>
<text text-anchor="start" x="21.5" y="-460.5" font-family="Helvetica,sans-Serif" font-size="10.00">wmtk::components::internal</text>
<text text-anchor="middle" x="90.5" y="-449.5" font-family="Helvetica,sans-Serif" font-size="10.00">::segment_segment_inter</text>
</a>
</g>
</g>
<!-- Node8&#45;&gt;Node10 -->
<g id="edge10_Node000008_Node000010" class="edge">
<title>Node8&#45;&gt;Node10</title>
<g id="a_edge10_Node000008_Node000010"><a xlink:title=" ">
<path fill="none" stroke="#63b8ff" d="M227.24,-454.34C207.77,-454.8 186.97,-455.28 167.65,-455.73"/>
<polygon fill="#63b8ff" stroke="#63b8ff" points="227.37,-457.84 237.29,-454.11 227.21,-450.84 227.37,-457.84"/>
</a>
</g>
</g>
<!-- Node17 -->
<g id="Node000017" class="node">
<title>Node17</title>
<g id="a_Node000017"><a xlink:href="classwmtk_1_1operations_1_1internal_1_1_collapse_alternate_facet_option_data.html#a2564580a95b48a8a56b05e9c59e5c495" target="_top" xlink:title=" ">
<polygon fill="white" stroke="#666666" points="857,-375 666,-375 666,-334 857,-334 857,-375"/>
<text text-anchor="start" x="674" y="-363" font-family="Helvetica,sans-Serif" font-size="10.00">wmtk::operations::internal</text>
<text text-anchor="start" x="674" y="-352" font-family="Helvetica,sans-Serif" font-size="10.00">::CollapseAlternateFacetOptionData</text>
<text text-anchor="middle" x="761.5" y="-341" font-family="Helvetica,sans-Serif" font-size="10.00">::map_dart_to_alt</text>
</a>
</g>
</g>
<!-- Node16&#45;&gt;Node17 -->
<g id="edge17_Node000016_Node000017" class="edge">
<title>Node16&#45;&gt;Node17</title>
<g id="a_edge17_Node000016_Node000017"><a xlink:title=" ">
<path fill="none" stroke="#63b8ff" d="M882.75,-340.07C874.21,-341.09 865.62,-342.13 857.16,-343.14"/>
<polygon fill="#63b8ff" stroke="#63b8ff" points="883.22,-343.54 892.73,-338.87 882.39,-336.59 883.22,-343.54"/>
</a>
</g>
</g>
<!-- Node19&#45;&gt;Node18 -->
<g id="edge29_Node000019_Node000018" class="edge">
<title>Node19&#45;&gt;Node18</title>
<g id="a_edge29_Node000019_Node000018"><a xlink:title=" ">
<path fill="none" stroke="#63b8ff" d="M949.68,-223.15C923.95,-236.1 888.9,-252.93 857,-265.5 847.31,-269.32 836.92,-273.01 826.71,-276.42"/>
<polygon fill="#63b8ff" stroke="#63b8ff" points="951.38,-226.21 958.72,-218.57 948.22,-219.97 951.38,-226.21"/>
</a>
</g>
</g>
<!-- Node20 -->
<g id="Node000020" class="node">
<title>Node20</title>
<g id="a_Node000020"><a xlink:href="classwmtk_1_1operations_1_1internal_1_1_collapse_alternate_facet_data.html#a686489b13952845b5e9b5d96e460decd" target="_top" xlink:title=" ">
<polygon fill="white" stroke="#666666" points="840.5,-208 682.5,-208 682.5,-167 840.5,-167 840.5,-208"/>
<text text-anchor="start" x="690.5" y="-196" font-family="Helvetica,sans-Serif" font-size="10.00">wmtk::operations::internal</text>
<text text-anchor="start" x="690.5" y="-185" font-family="Helvetica,sans-Serif" font-size="10.00">::CollapseAlternateFacetData</text>
<text text-anchor="middle" x="761.5" y="-174" font-family="Helvetica,sans-Serif" font-size="10.00">::get_alternative</text>
</a>
</g>
</g>
<!-- Node19&#45;&gt;Node20 -->
<g id="edge20_Node000019_Node000020" class="edge">
<title>Node19&#45;&gt;Node20</title>
<g id="a_edge20_Node000019_Node000020"><a xlink:title=" ">
<path fill="none" stroke="#63b8ff" d="M909.87,-197.98C887.48,-196.39 863.05,-194.65 840.63,-193.06"/>
<polygon fill="#63b8ff" stroke="#63b8ff" points="909.77,-201.48 919.99,-198.7 910.27,-194.5 909.77,-201.48"/>
</a>
</g>
</g>
<!-- Node21 -->
<g id="Node000021" class="node">
<title>Node21</title>
<g id="a_Node000021"><a xlink:href="classwmtk_1_1operations_1_1internal_1_1_collapse_alternate_facet_data.html#ab1a0c0cd7b37be815821196553f3460a" target="_top" xlink:title=" ">
<polygon fill="white" stroke="#666666" points="840.5,-149 682.5,-149 682.5,-108 840.5,-108 840.5,-149"/>
<text text-anchor="start" x="690.5" y="-137" font-family="Helvetica,sans-Serif" font-size="10.00">wmtk::operations::internal</text>
<text text-anchor="start" x="690.5" y="-126" font-family="Helvetica,sans-Serif" font-size="10.00">::CollapseAlternateFacetData</text>
<text text-anchor="middle" x="761.5" y="-115" font-family="Helvetica,sans-Serif" font-size="10.00">::get_alternatives</text>
</a>
</g>
</g>
<!-- Node19&#45;&gt;Node21 -->
<g id="edge21_Node000019_Node000021" class="edge">
<title>Node19&#45;&gt;Node21</title>
<g id="a_edge21_Node000019_Node000021"><a xlink:title=" ">
<path fill="none" stroke="#63b8ff" d="M935.14,-185.11C911.34,-176.84 882.79,-167.04 857,-158.5 847.6,-155.39 837.66,-152.16 827.89,-149.03"/>
<polygon fill="#63b8ff" stroke="#63b8ff" points="934.09,-188.45 944.68,-188.44 936.39,-181.84 934.09,-188.45"/>
</a>
</g>
</g>
<!-- Node22 -->
<g id="Node000022" class="node">
<title>Node22</title>
<g id="a_Node000022"><a xlink:href="classwmtk_1_1multimesh_1_1_multi_mesh_manager.html#a96f18860efc9874463d5c73d6485ef89" target="_top" xlink:title=" ">
<polygon fill="white" stroke="#666666" points="841.5,-256.5 681.5,-256.5 681.5,-226.5 841.5,-226.5 841.5,-256.5"/>
<text text-anchor="start" x="689.5" y="-244.5" font-family="Helvetica,sans-Serif" font-size="10.00">wmtk::multimesh::MultiMesh</text>
<text text-anchor="middle" x="761.5" y="-233.5" font-family="Helvetica,sans-Serif" font-size="10.00">Manager::mapped_tuples</text>
</a>
</g>
</g>
<!-- Node19&#45;&gt;Node22 -->
<g id="edge22_Node000019_Node000022" class="edge">
<title>Node19&#45;&gt;Node22</title>
<g id="a_edge22_Node000019_Node000022"><a xlink:title=" ">
<path fill="none" stroke="#63b8ff" d="M910.03,-216.58C888,-220.3 863.98,-224.36 841.84,-228.1"/>
<polygon fill="#63b8ff" stroke="#63b8ff" points="910.72,-220.02 919.99,-214.9 909.55,-213.12 910.72,-220.02"/>
</a>
</g>
</g>
<!-- Node19&#45;&gt;Node23 -->
<g id="edge30_Node000019_Node000023" class="edge">
<title>Node19&#45;&gt;Node23</title>
<g id="a_edge30_Node000019_Node000023"><a xlink:title=" ">
<path fill="none" stroke="#63b8ff" d="M967.55,-180.56C944.01,-155.3 902.29,-115.97 857,-98.5 784.58,-70.57 696.29,-67.2 630.17,-70.04"/>
<polygon fill="#63b8ff" stroke="#63b8ff" points="965.21,-183.19 974.54,-188.22 970.38,-178.47 965.21,-183.19"/>
</a>
</g>
</g>
<!-- Node22&#45;&gt;Node23 -->
<g id="edge23_Node000022_Node000023" class="edge">
<title>Node22&#45;&gt;Node23</title>
<g id="a_edge23_Node000022_Node000023"><a xlink:title=" ">
<path fill="none" stroke="#63b8ff" d="M675.4,-222.39C672.16,-220.88 669.02,-219.25 666,-217.5 610.47,-185.24 563.08,-123.19 543.11,-94.6"/>
<polygon fill="#63b8ff" stroke="#63b8ff" points="674.13,-225.65 684.7,-226.34 676.87,-219.21 674.13,-225.65"/>
</a>
</g>
</g>
<!-- Node28 -->
<g id="Node000028" class="node">
<title>Node28</title>
<g id="a_Node000028"><a xlink:href="classwmtk_1_1multimesh_1_1_multi_mesh_manager.html#af9c47d7844feea21e37c259942446d08" target="_top" xlink:title=" ">
<polygon fill="white" stroke="#666666" points="612,-262 452,-262 452,-221 612,-221 612,-262"/>
<text text-anchor="start" x="460" y="-250" font-family="Helvetica,sans-Serif" font-size="10.00">wmtk::multimesh::MultiMesh</text>
<text text-anchor="start" x="460" y="-239" font-family="Helvetica,sans-Serif" font-size="10.00">Manager::update_maps_from</text>
<text text-anchor="middle" x="532" y="-228" font-family="Helvetica,sans-Serif" font-size="10.00">_edge_operation</text>
</a>
</g>
</g>
<!-- Node22&#45;&gt;Node28 -->
<g id="edge28_Node000022_Node000028" class="edge">
<title>Node22&#45;&gt;Node28</title>
<g id="a_edge28_Node000022_Node000028"><a xlink:title=" ">
<path fill="none" stroke="#63b8ff" d="M671.2,-241.5C651.78,-241.5 631.36,-241.5 612.35,-241.5"/>
<polygon fill="#63b8ff" stroke="#63b8ff" points="671.25,-245 681.25,-241.5 671.25,-238 671.25,-245"/>
</a>
</g>
</g>
<!-- Node24 -->
<g id="Node000024" class="node">
<title>Node24</title>
<g id="a_Node000024"><a xlink:href="classwmtk_1_1operations_1_1utils_1_1_update_edge_operation_multi_mesh_map_functor.html#a0e68925616ea65b5fedbf614333658e5" target="_top" xlink:title=" ">
<polygon fill="white" stroke="#666666" points="398,-100 217,-100 217,-59 398,-59 398,-100"/>
<text text-anchor="start" x="225" y="-88" font-family="Helvetica,sans-Serif" font-size="10.00">wmtk::operations::utils</text>
<text text-anchor="start" x="225" y="-77" font-family="Helvetica,sans-Serif" font-size="10.00">::UpdateEdgeOperationMultiMesh</text>
<text text-anchor="middle" x="307.5" y="-66" font-family="Helvetica,sans-Serif" font-size="10.00">MapFunctor::update_all_hashes</text>
</a>
</g>
</g>
<!-- Node23&#45;&gt;Node24 -->
<g id="edge24_Node000023_Node000024" class="edge">
<title>Node23&#45;&gt;Node24</title>
<g id="a_edge24_Node000023_Node000024"><a xlink:title=" ">
<path fill="none" stroke="#63b8ff" d="M423.73,-79.5C415.18,-79.5 406.61,-79.5 398.2,-79.5"/>
<polygon fill="#63b8ff" stroke="#63b8ff" points="423.73,-83 433.73,-79.5 423.73,-76 423.73,-83"/>
</a>
</g>
</g>
<!-- Node25 -->
<g id="Node000025" class="node">
<title>Node25</title>
<g id="a_Node000025"><a xlink:href="classwmtk_1_1operations_1_1utils_1_1_update_edge_operation_multi_mesh_map_functor.html#a34a9d1b901b746f227331b404606ac14" target="_top" xlink:title=" ">
<polygon fill="white" stroke="#666666" points="181,-100 0,-100 0,-59 181,-59 181,-100"/>
<text text-anchor="start" x="8" y="-88" font-family="Helvetica,sans-Serif" font-size="10.00">wmtk::operations::utils</text>
<text text-anchor="start" x="8" y="-77" font-family="Helvetica,sans-Serif" font-size="10.00">::UpdateEdgeOperationMultiMesh</text>
<text text-anchor="middle" x="90.5" y="-66" font-family="Helvetica,sans-Serif" font-size="10.00">MapFunctor::operator()</text>
</a>
</g>
</g>
<!-- Node24&#45;&gt;Node25 -->
<g id="edge25_Node000024_Node000025" class="edge">
<title>Node24&#45;&gt;Node25</title>
<g id="a_edge25_Node000024_Node000025"><a xlink:title=" ">
<path fill="none" stroke="#63b8ff" d="M206.63,-79.5C198.19,-79.5 189.68,-79.5 181.32,-79.5"/>
<polygon fill="#63b8ff" stroke="#63b8ff" points="206.88,-83 216.88,-79.5 206.88,-76 206.88,-83"/>
</a>
</g>
</g>
<!-- Node26 -->
<g id="Node000026" class="node">
<title>Node26</title>
<g id="a_Node000026"><a xlink:href="classwmtk_1_1operations_1_1utils_1_1_update_edge_operation_multi_mesh_map_functor.html#a6f3a220b85044a73d43a4c124d099bbc" target="_top" xlink:title=" ">
<polygon fill="white" stroke="#666666" points="181,-41 0,-41 0,0 181,0 181,-41"/>
<text text-anchor="start" x="8" y="-29" font-family="Helvetica,sans-Serif" font-size="10.00">wmtk::operations::utils</text>
<text text-anchor="start" x="8" y="-18" font-family="Helvetica,sans-Serif" font-size="10.00">::UpdateEdgeOperationMultiMesh</text>
<text text-anchor="middle" x="90.5" y="-7" font-family="Helvetica,sans-Serif" font-size="10.00">MapFunctor::operator()</text>
</a>
</g>
</g>
<!-- Node24&#45;&gt;Node26 -->
<g id="edge26_Node000024_Node000026" class="edge">
<title>Node24&#45;&gt;Node26</title>
<g id="a_edge26_Node000024_Node000026"><a xlink:title=" ">
<path fill="none" stroke="#63b8ff" d="M221.85,-56.27C203.57,-51.25 184.37,-45.99 166.49,-41.08"/>
<polygon fill="#63b8ff" stroke="#63b8ff" points="221.04,-59.68 231.61,-58.95 222.89,-52.93 221.04,-59.68"/>
</a>
</g>
</g>
<!-- Node27 -->
<g id="Node000027" class="node">
<title>Node27</title>
<g id="a_Node000027"><a xlink:href="classwmtk_1_1operations_1_1utils_1_1_update_edge_operation_multi_mesh_map_functor.html#a57611fefa85bea3d1858ca385b0f350a" target="_top" xlink:title=" ">
<polygon fill="white" stroke="#666666" points="181,-159 0,-159 0,-118 181,-118 181,-159"/>
<text text-anchor="start" x="8" y="-147" font-family="Helvetica,sans-Serif" font-size="10.00">wmtk::operations::utils</text>
<text text-anchor="start" x="8" y="-136" font-family="Helvetica,sans-Serif" font-size="10.00">::UpdateEdgeOperationMultiMesh</text>
<text text-anchor="middle" x="90.5" y="-125" font-family="Helvetica,sans-Serif" font-size="10.00">MapFunctor::operator()</text>
</a>
</g>
</g>
<!-- Node24&#45;&gt;Node27 -->
<g id="edge27_Node000024_Node000027" class="edge">
<title>Node24&#45;&gt;Node27</title>
<g id="a_edge27_Node000024_Node000027"><a xlink:title=" ">
<path fill="none" stroke="#63b8ff" d="M221.85,-102.73C203.57,-107.75 184.37,-113.01 166.49,-117.92"/>
<polygon fill="#63b8ff" stroke="#63b8ff" points="222.89,-106.07 231.61,-100.05 221.04,-99.32 222.89,-106.07"/>
</a>
</g>
</g>
</g>
</svg>
