<?xml version="1.0" encoding="UTF-8" standalone="no"?>
<!DOCTYPE svg PUBLIC "-//W3C//DTD SVG 1.1//EN"
 "http://www.w3.org/Graphics/SVG/1.1/DTD/svg11.dtd">
<!-- Generated by graphviz version 2.43.0 (0)
 -->
<!-- Title: wmtk::operations::internal::SplitAlternateFacetOptionData::new_gid Pages: 1 -->
<svg width="859pt" height="216pt"
 viewBox="0.00 0.00 859.00 215.50" xmlns="http://www.w3.org/2000/svg" xmlns:xlink="http://www.w3.org/1999/xlink">
<g id="graph0" class="graph" transform="scale(1 1) rotate(0) translate(4 211.5)">
<title>wmtk::operations::internal::SplitAlternateFacetOptionData::new_gid</title>
<!-- Node1 -->
<g id="Node000001" class="node">
<title>Node1</title>
<g id="a_Node000001"><a xlink:title=" ">
<polygon fill="#999999" stroke="#666666" points="170,-153 0,-153 0,-112 170,-112 170,-153"/>
<text text-anchor="start" x="8" y="-141" font-family="Helvetica,sans-Serif" font-size="10.00">wmtk::operations::internal</text>
<text text-anchor="start" x="8" y="-130" font-family="Helvetica,sans-Serif" font-size="10.00">::SplitAlternateFacetOptionData</text>
<text text-anchor="middle" x="85" y="-119" font-family="Helvetica,sans-Serif" font-size="10.00">::new_gid</text>
</a>
</g>
</g>
<!-- Node2 -->
<g id="Node000002" class="node">
<title>Node2</title>
<g id="a_Node000002"><a xlink:href="classwmtk_1_1dart_1_1_simplex_dart.html#a3949350f736cbf567bf566fd7565e6e8" target="_top" xlink:title=" ">
<polygon fill="white" stroke="#666666" points="352,-189.5 215,-189.5 215,-159.5 352,-159.5 352,-189.5"/>
<text text-anchor="start" x="223" y="-177.5" font-family="Helvetica,sans-Serif" font-size="10.00">wmtk::dart::SimplexDart</text>
<text text-anchor="middle" x="283.5" y="-166.5" font-family="Helvetica,sans-Serif" font-size="10.00">::get_singleton</text>
</a>
</g>
</g>
<!-- Node1&#45;&gt;Node2 -->
<g id="edge1_Node000001_Node000002" class="edge">
<title>Node1&#45;&gt;Node2</title>
<g id="a_edge1_Node000001_Node000002"><a xlink:title=" ">
<path fill="none" stroke="#63b8ff" d="M170.19,-150.49C181.71,-152.96 193.49,-155.48 204.89,-157.91"/>
<polygon fill="#63b8ff" stroke="#63b8ff" points="204.28,-161.36 214.79,-160.03 205.74,-154.51 204.28,-161.36"/>
</a>
</g>
</g>
<!-- Node4 -->
<g id="Node000004" class="node">
<title>Node4</title>
<g id="a_Node000004"><a xlink:href="namespacewmtk_1_1dart_1_1utils.html#a0852f8bf4073cbed6d81504c509bddd8" target="_top" xlink:title=" ">
<polygon fill="white" stroke="#666666" points="361,-123.5 206,-123.5 206,-93.5 361,-93.5 361,-123.5"/>
<text text-anchor="start" x="214" y="-111.5" font-family="Helvetica,sans-Serif" font-size="10.00">wmtk::dart::utils::</text>
<text text-anchor="middle" x="283.5" y="-100.5" font-family="Helvetica,sans-Serif" font-size="10.00">largest_shared_subdart_size</text>
</a>
</g>
</g>
<!-- Node1&#45;&gt;Node4 -->
<g id="edge3_Node000001_Node000004" class="edge">
<title>Node1&#45;&gt;Node4</title>
<g id="a_edge3_Node000001_Node000004"><a xlink:title=" ">
<path fill="none" stroke="#63b8ff" d="M170.19,-122.22C178.72,-121.17 187.4,-120.11 195.96,-119.07"/>
<polygon fill="#63b8ff" stroke="#63b8ff" points="196.44,-122.54 205.94,-117.85 195.59,-115.59 196.44,-122.54"/>
</a>
</g>
</g>
<!-- Node3 -->
<g id="Node000003" class="node">
<title>Node3</title>
<g id="a_Node000003"><a xlink:href="classwmtk_1_1dart_1_1_simplex_dart.html#a75defb2c9d167b36c7fc73cd7d5bba60" target="_top" xlink:title=" ">
<polygon fill="white" stroke="#666666" points="535.5,-207.5 398.5,-207.5 398.5,-177.5 535.5,-177.5 535.5,-207.5"/>
<text text-anchor="start" x="406.5" y="-195.5" font-family="Helvetica,sans-Serif" font-size="10.00">wmtk::dart::SimplexDart</text>
<text text-anchor="middle" x="467" y="-184.5" font-family="Helvetica,sans-Serif" font-size="10.00">::simplex_type</text>
</a>
</g>
</g>
<!-- Node2&#45;&gt;Node3 -->
<g id="edge2_Node000002_Node000003" class="edge">
<title>Node2&#45;&gt;Node3</title>
<g id="a_edge2_Node000002_Node000003"><a xlink:title=" ">
<path fill="none" stroke="#63b8ff" d="M352.08,-181.2C363.89,-182.37 376.27,-183.6 388.32,-184.8"/>
<polygon fill="#63b8ff" stroke="#63b8ff" points="388.06,-188.29 398.36,-185.79 388.75,-181.32 388.06,-188.29"/>
</a>
</g>
</g>
<!-- Node5 -->
<g id="Node000005" class="node">
<title>Node5</title>
<g id="a_Node000005"><a xlink:href="namespacewmtk_1_1autogen_1_1edge__mesh.html#a4d16e098b2116bfbfc4ecf56d2e99657" target="_top" xlink:title=" ">
<polygon fill="white" stroke="#666666" points="537,-159 397,-159 397,-118 537,-118 537,-159"/>
<text text-anchor="start" x="405" y="-147" font-family="Helvetica,sans-Serif" font-size="10.00">wmtk::autogen::edge</text>
<text text-anchor="start" x="405" y="-136" font-family="Helvetica,sans-Serif" font-size="10.00">_mesh::subdart_maximal</text>
<text text-anchor="middle" x="467" y="-125" font-family="Helvetica,sans-Serif" font-size="10.00">_action_to_face_size</text>
</a>
</g>
</g>
<!-- Node4&#45;&gt;Node5 -->
<g id="edge4_Node000004_Node000005" class="edge">
<title>Node4&#45;&gt;Node5</title>
<g id="a_edge4_Node000004_Node000005"><a xlink:title=" ">
<path fill="none" stroke="#63b8ff" d="M361.21,-121.18C369.69,-122.58 378.34,-124.01 386.86,-125.42"/>
<polygon fill="#63b8ff" stroke="#63b8ff" points="386.33,-128.88 396.77,-127.06 387.47,-121.97 386.33,-128.88"/>
</a>
</g>
</g>
<!-- Node6 -->
<g id="Node000006" class="node">
<title>Node6</title>
<g id="a_Node000006"><a xlink:href="namespacewmtk_1_1autogen_1_1tet__mesh.html#a6c2a7209bd594316d454766d6be8c9df" target="_top" xlink:title=" ">
<polygon fill="white" stroke="#666666" points="537,-100 397,-100 397,-59 537,-59 537,-100"/>
<text text-anchor="start" x="405" y="-88" font-family="Helvetica,sans-Serif" font-size="10.00">wmtk::autogen::tet</text>
<text text-anchor="start" x="405" y="-77" font-family="Helvetica,sans-Serif" font-size="10.00">_mesh::subdart_maximal</text>
<text text-anchor="middle" x="467" y="-66" font-family="Helvetica,sans-Serif" font-size="10.00">_action_to_face_size</text>
</a>
</g>
</g>
<!-- Node4&#45;&gt;Node6 -->
<g id="edge5_Node000004_Node000006" class="edge">
<title>Node4&#45;&gt;Node6</title>
<g id="a_edge5_Node000004_Node000006"><a xlink:title=" ">
<path fill="none" stroke="#63b8ff" d="M361.21,-96.24C369.69,-94.89 378.34,-93.51 386.86,-92.15"/>
<polygon fill="#63b8ff" stroke="#63b8ff" points="387.45,-95.6 396.77,-90.56 386.34,-88.68 387.45,-95.6"/>
</a>
</g>
</g>
<!-- Node9 -->
<g id="Node000009" class="node">
<title>Node9</title>
<g id="a_Node000009"><a xlink:href="namespacewmtk_1_1autogen_1_1tri__mesh.html#a6dd4d5f30900add59669380efcb4bdf5" target="_top" xlink:title=" ">
<polygon fill="white" stroke="#666666" points="537,-41 397,-41 397,0 537,0 537,-41"/>
<text text-anchor="start" x="405" y="-29" font-family="Helvetica,sans-Serif" font-size="10.00">wmtk::autogen::tri</text>
<text text-anchor="start" x="405" y="-18" font-family="Helvetica,sans-Serif" font-size="10.00">_mesh::subdart_maximal</text>
<text text-anchor="middle" x="467" y="-7" font-family="Helvetica,sans-Serif" font-size="10.00">_action_to_face_size</text>
</a>
</g>
</g>
<!-- Node4&#45;&gt;Node9 -->
<g id="edge8_Node000004_Node000009" class="edge">
<title>Node4&#45;&gt;Node9</title>
<g id="a_edge8_Node000004_Node000009"><a xlink:title=" ">
<path fill="none" stroke="#63b8ff" d="M311.91,-93.29C334.49,-80.96 367.47,-63.42 397,-49.5 400.09,-48.04 403.27,-46.58 406.5,-45.13"/>
<polygon fill="#63b8ff" stroke="#63b8ff" points="407.93,-48.32 415.66,-41.07 405.1,-41.92 407.93,-48.32"/>
</a>
</g>
</g>
<!-- Node7 -->
<g id="Node000007" class="node">
<title>Node7</title>
<g id="a_Node000007"><a xlink:href="namespacewmtk_1_1autogen_1_1tet__mesh.html#a2fbff4d384c75ccff14367e97bfe36cf" target="_top" xlink:title=" ">
<polygon fill="white" stroke="#666666" points="699,-91.5 573,-91.5 573,-61.5 699,-61.5 699,-91.5"/>
<text text-anchor="start" x="581" y="-79.5" font-family="Helvetica,sans-Serif" font-size="10.00">wmtk::autogen::tet</text>
<text text-anchor="middle" x="636" y="-68.5" font-family="Helvetica,sans-Serif" font-size="10.00">_mesh::simplex_index</text>
</a>
</g>
</g>
<!-- Node6&#45;&gt;Node7 -->
<g id="edge6_Node000006_Node000007" class="edge">
<title>Node6&#45;&gt;Node7</title>
<g id="a_edge6_Node000006_Node000007"><a xlink:title=" ">
<path fill="none" stroke="#63b8ff" d="M537.37,-78.25C545.72,-78.1 554.26,-77.95 562.65,-77.8"/>
<polygon fill="#63b8ff" stroke="#63b8ff" points="562.84,-81.3 572.78,-77.62 562.72,-74.3 562.84,-81.3"/>
</a>
</g>
</g>
<!-- Node8 -->
<g id="Node000008" class="node">
<title>Node8</title>
<g id="a_Node000008"><a xlink:href="namespacewmtk.html#a5cf45c152e856196bb734c6f48919a24" target="_top" xlink:title="Get a unique integer id corresponding to each primitive type.">
<polygon fill="white" stroke="#666666" points="851,-64.5 735,-64.5 735,-34.5 851,-34.5 851,-64.5"/>
<text text-anchor="start" x="743" y="-52.5" font-family="Helvetica,sans-Serif" font-size="10.00">wmtk::get_primitive</text>
<text text-anchor="middle" x="793" y="-41.5" font-family="Helvetica,sans-Serif" font-size="10.00">_type_id</text>
</a>
</g>
</g>
<!-- Node7&#45;&gt;Node8 -->
<g id="edge7_Node000007_Node000008" class="edge">
<title>Node7&#45;&gt;Node8</title>
<g id="a_edge7_Node000007_Node000008"><a xlink:title=" ">
<path fill="none" stroke="#63b8ff" d="M699.15,-65.67C707.63,-64.2 716.36,-62.68 724.91,-61.19"/>
<polygon fill="#63b8ff" stroke="#63b8ff" points="725.6,-64.62 734.85,-59.45 724.4,-57.72 725.6,-64.62"/>
</a>
</g>
</g>
<!-- Node10 -->
<g id="Node000010" class="node">
<title>Node10</title>
<g id="a_Node000010"><a xlink:href="namespacewmtk_1_1autogen_1_1tri__mesh.html#a937ffd0c50dcdfe8458799ae7741f619" target="_top" xlink:title=" ">
<polygon fill="white" stroke="#666666" points="699,-40.5 573,-40.5 573,-10.5 699,-10.5 699,-40.5"/>
<text text-anchor="start" x="581" y="-28.5" font-family="Helvetica,sans-Serif" font-size="10.00">wmtk::autogen::tri</text>
<text text-anchor="middle" x="636" y="-17.5" font-family="Helvetica,sans-Serif" font-size="10.00">_mesh::simplex_index</text>
</a>
</g>
</g>
<!-- Node9&#45;&gt;Node10 -->
<g id="edge9_Node000009_Node000010" class="edge">
<title>Node9&#45;&gt;Node10</title>
<g id="a_edge9_Node000009_Node000010"><a xlink:title=" ">
<path fill="none" stroke="#63b8ff" d="M537.37,-22.58C545.72,-22.83 554.26,-23.08 562.65,-23.33"/>
<polygon fill="#63b8ff" stroke="#63b8ff" points="562.68,-26.84 572.78,-23.64 562.89,-19.84 562.68,-26.84"/>
</a>
</g>
</g>
<!-- Node10&#45;&gt;Node8 -->
<g id="edge10_Node000010_Node000008" class="edge">
<title>Node10&#45;&gt;Node8</title>
<g id="a_edge10_Node000010_Node000008"><a xlink:title=" ">
<path fill="none" stroke="#63b8ff" d="M699.15,-35.12C707.63,-36.44 716.36,-37.79 724.91,-39.11"/>
<polygon fill="#63b8ff" stroke="#63b8ff" points="724.44,-42.58 734.85,-40.65 725.51,-35.66 724.44,-42.58"/>
</a>
</g>
</g>
</g>
</svg>
