<?xml version="1.0" encoding="UTF-8" standalone="no"?>
<!DOCTYPE svg PUBLIC "-//W3C//DTD SVG 1.1//EN"
 "http://www.w3.org/Graphics/SVG/1.1/DTD/svg11.dtd">
<!-- Generated by graphviz version 2.43.0 (0)
 -->
<!-- Title: wmtk::dart::SimplexDart::inverse Pages: 1 -->
<!--zoomable 428 -->

<svg id="main" version="1.1" xmlns="http://www.w3.org/2000/svg" xmlns:xlink="http://www.w3.org/1999/xlink" xml:space="preserve" onload="init(evt)">
<style type="text/css"><![CDATA[
.node, .edge {opacity: 0.7;}
.node.selected, .edge.selected {opacity: 1;}
.edge:hover path { stroke: red; }
.edge:hover polygon { stroke: red; fill: red; }
]]></style>

<defs>
  <circle id="rim" cx="0" cy="0" r="7"/>
  <circle id="rim2" cx="0" cy="0" r="3.5"/>
  <g id="zoomPlus">
    <use xlink:href="#rim" fill="#404040"><set attributeName="fill" to="#808080" begin="zoomplus.mouseover" end="zoomplus.mouseout"/></use>
    <path d="M-4,0h8M0,-4v8" fill="none" stroke="white" stroke-width="1.5" pointer-events="none"/>
  </g>
  <g id="zoomMin">
    <use xlink:href="#rim" fill="#404040"><set attributeName="fill" to="#808080" begin="zoomminus.mouseover" end="zoomminus.mouseout"/></use>
    <path d="M-4,0h8" fill="none" stroke="white" stroke-width="1.5" pointer-events="none"/>
  </g>
  <g id="arrowUp" transform="translate(30 24)">
    <use xlink:href="#rim"/>
    <path pointer-events="none" fill="none" stroke="white" stroke-width="1.5" d="M0,-3.0v7 M-2.5,-0.5L0,-3.0L2.5,-0.5"/>
  </g>
  <g id="arrowRight" transform="rotate(90) translate(36 -43)">
    <use xlink:href="#rim"/>
    <path pointer-events="none" fill="none" stroke="white" stroke-width="1.5" d="M0,-3.0v7 M-2.5,-0.5L0,-3.0L2.5,-0.5"/>
  </g>
  <g id="arrowDown" transform="rotate(180) translate(-30 -48)">
    <use xlink:href="#rim"/>
    <path pointer-events="none" fill="none" stroke="white" stroke-width="1.5" d="M0,-3.0v7 M-2.5,-0.5L0,-3.0L2.5,-0.5"/>
  </g>
  <g id="arrowLeft" transform="rotate(270) translate(-36 17)">
    <use xlink:href="#rim"/>
    <path pointer-events="none" fill="none" stroke="white" stroke-width="1.5" d="M0,-3.0v7 M-2.5,-0.5L0,-3.0L2.5,-0.5"/>
  </g>
  <g id="resetDef">
    <use xlink:href="#rim2" fill="#404040"><set attributeName="fill" to="#808080" begin="reset.mouseover" end="reset.mouseout"/></use>
  </g>
</defs>
<script type="application/ecmascript">
var viewWidth = 1642;
var viewHeight = 428;
var sectionId = 'dynsection-11';
</script>
<script type="application/ecmascript" xlink:href="svg.min.js"/>
<svg id="graph" class="graph">
<g id="viewport">
<title>wmtk::dart::SimplexDart::inverse</title>
<!-- Node1 -->
<g id="Node000001" class="node">
<title>Node1</title>
<g id="a_Node000001"><a xlink:title=" ">
<polygon fill="#999999" stroke="#666666" points="1634,-138 1497,-138 1497,-108 1634,-108 1634,-138"/>
<text text-anchor="start" x="1505" y="-126" font-family="Helvetica,sans-Serif" font-size="10.00">wmtk::dart::SimplexDart</text>
<text text-anchor="middle" x="1565.5" y="-115" font-family="Helvetica,sans-Serif" font-size="10.00">::inverse</text>
</a>
</g>
</g>
<!-- Node2 -->
<g id="Node000002" class="node">
<title>Node2</title>
<g id="a_Node000002"><a xlink:href="namespacewmtk_1_1dart_1_1utils.html#adf4bec80fa2f0838078a389a615803f3" target="_top" xlink:title=" ">
<polygon fill="white" stroke="#666666" points="1062,-353.5 920,-353.5 920,-312.5 1062,-312.5 1062,-353.5"/>
<text text-anchor="start" x="928" y="-341.5" font-family="Helvetica,sans-Serif" font-size="10.00">wmtk::dart::utils::</text>
<text text-anchor="start" x="928" y="-330.5" font-family="Helvetica,sans-Serif" font-size="10.00">apply_simplex_involution</text>
<text text-anchor="middle" x="991" y="-319.5" font-family="Helvetica,sans-Serif" font-size="10.00">_directed</text>
</a>
</g>
</g>
<!-- Node1&#45;&gt;Node2 -->
<g id="edge1_Node000001_Node000002" class="edge">
<title>Node1&#45;&gt;Node2</title>
<g id="a_edge1_Node000001_Node000002"><a xlink:title=" ">
<path fill="none" stroke="#63b8ff" d="M1542.72,-145.32C1500.11,-187.32 1400.78,-277.16 1297,-314 1220.01,-341.34 1125.27,-342.66 1062,-339.37"/>
<polygon fill="#63b8ff" stroke="#63b8ff" points="1545.39,-147.6 1550.01,-138.06 1540.45,-142.64 1545.39,-147.6"/>
</a>
</g>
</g>
<!-- Node8 -->
<g id="Node000008" class="node">
<title>Node8</title>
<g id="a_Node000008"><a xlink:href="namespacewmtk_1_1dart.html#a626f426765e240dbc25a76d9d01ec3f3" target="_top" xlink:title=" ">
<polygon fill="white" stroke="#666666" points="1458,-186 1336,-186 1336,-156 1458,-156 1458,-186"/>
<text text-anchor="start" x="1344" y="-174" font-family="Helvetica,sans-Serif" font-size="10.00">wmtk::dart::find_local</text>
<text text-anchor="middle" x="1397" y="-163" font-family="Helvetica,sans-Serif" font-size="10.00">_dart_action</text>
</a>
</g>
</g>
<!-- Node1&#45;&gt;Node8 -->
<g id="edge7_Node000001_Node000008" class="edge">
<title>Node1&#45;&gt;Node8</title>
<g id="a_edge7_Node000001_Node000008"><a xlink:title=" ">
<path fill="none" stroke="#63b8ff" d="M1502.31,-140.93C1485.1,-145.89 1466.61,-151.22 1450.04,-156"/>
<polygon fill="#63b8ff" stroke="#63b8ff" points="1503.64,-144.19 1512.28,-138.06 1501.7,-137.46 1503.64,-144.19"/>
</a>
</g>
</g>
<!-- Node23 -->
<g id="Node000023" class="node">
<title>Node23</title>
<g id="a_Node000023"><a xlink:href="namespacewmtk_1_1dart.html#a231e35fd144459d332b37666651e7dfb" target="_top" xlink:title=" ">
<polygon fill="white" stroke="#666666" points="1458,-138 1336,-138 1336,-108 1458,-108 1458,-138"/>
<text text-anchor="start" x="1344" y="-126" font-family="Helvetica,sans-Serif" font-size="10.00">wmtk::dart::find_local</text>
<text text-anchor="middle" x="1397" y="-115" font-family="Helvetica,sans-Serif" font-size="10.00">_dart_left_action</text>
</a>
</g>
</g>
<!-- Node1&#45;&gt;Node23 -->
<g id="edge24_Node000001_Node000023" class="edge">
<title>Node1&#45;&gt;Node23</title>
<g id="a_edge24_Node000001_Node000023"><a xlink:title=" ">
<path fill="none" stroke="#63b8ff" d="M1486.51,-123C1476.99,-123 1467.37,-123 1458.17,-123"/>
<polygon fill="#63b8ff" stroke="#63b8ff" points="1486.78,-126.5 1496.78,-123 1486.78,-119.5 1486.78,-126.5"/>
</a>
</g>
</g>
<!-- Node24 -->
<g id="Node000024" class="node">
<title>Node24</title>
<g id="a_Node000024"><a xlink:href="namespacewmtk_1_1dart_1_1utils.html#adc678ea868e984077e26f8b9a79e7ad9" target="_top" xlink:title=" ">
<polygon fill="white" stroke="#666666" points="1461,-89.5 1333,-89.5 1333,-48.5 1461,-48.5 1461,-89.5"/>
<text text-anchor="start" x="1341" y="-77.5" font-family="Helvetica,sans-Serif" font-size="10.00">wmtk::dart::utils::</text>
<text text-anchor="start" x="1341" y="-66.5" font-family="Helvetica,sans-Serif" font-size="10.00">get_canonical_simplex</text>
<text text-anchor="middle" x="1397" y="-55.5" font-family="Helvetica,sans-Serif" font-size="10.00">_orientation</text>
</a>
</g>
</g>
<!-- Node1&#45;&gt;Node24 -->
<g id="edge26_Node000001_Node000024" class="edge">
<title>Node1&#45;&gt;Node24</title>
<g id="a_edge26_Node000001_Node000024"><a xlink:title=" ">
<path fill="none" stroke="#63b8ff" d="M1508.39,-104.8C1493.24,-99.89 1476.75,-94.54 1461.24,-89.51"/>
<polygon fill="#63b8ff" stroke="#63b8ff" points="1507.53,-108.2 1518.12,-107.96 1509.69,-101.54 1507.53,-108.2"/>
</a>
</g>
</g>
<!-- Node25 -->
<g id="Node000025" class="node">
<title>Node25</title>
<g id="a_Node000025"><a xlink:href="namespacewmtk_1_1dart_1_1utils.html#a5f31fe5234df47891fdb49db5909c693" target="_top" xlink:title=": Returns the relative local index of a simplex with respect to an permutation When we switch a dart ...">
<polygon fill="white" stroke="#666666" points="1453.5,-30 1340.5,-30 1340.5,0 1453.5,0 1453.5,-30"/>
<text text-anchor="start" x="1348.5" y="-18" font-family="Helvetica,sans-Serif" font-size="10.00">wmtk::dart::utils::</text>
<text text-anchor="middle" x="1397" y="-7" font-family="Helvetica,sans-Serif" font-size="10.00">relative_face_index</text>
</a>
</g>
</g>
<!-- Node1&#45;&gt;Node25 -->
<g id="edge27_Node000001_Node000025" class="edge">
<title>Node1&#45;&gt;Node25</title>
<g id="a_edge27_Node000001_Node000025"><a xlink:title=" ">
<path fill="none" stroke="#63b8ff" d="M1541.81,-100.99C1521.83,-82.53 1491.27,-56.45 1461,-39 1455.32,-35.73 1449.11,-32.74 1442.88,-30.06"/>
<polygon fill="#63b8ff" stroke="#63b8ff" points="1539.5,-103.62 1549.19,-107.9 1544.28,-98.51 1539.5,-103.62"/>
</a>
</g>
</g>
<!-- Node3 -->
<g id="Node000003" class="node">
<title>Node3</title>
<g id="a_Node000003"><a xlink:href="namespacewmtk_1_1dart_1_1utils.html#a38d4e769a52b66206b96a5bd6c76616c" target="_top" xlink:title=" ">
<polygon fill="white" stroke="#666666" points="876,-348 734,-348 734,-318 876,-318 876,-348"/>
<text text-anchor="start" x="742" y="-336" font-family="Helvetica,sans-Serif" font-size="10.00">wmtk::dart::utils::</text>
<text text-anchor="middle" x="805" y="-325" font-family="Helvetica,sans-Serif" font-size="10.00">apply_simplex_involution</text>
</a>
</g>
</g>
<!-- Node2&#45;&gt;Node3 -->
<g id="edge2_Node000002_Node000003" class="edge">
<title>Node2&#45;&gt;Node3</title>
<g id="a_edge2_Node000002_Node000003"><a xlink:title=" ">
<path fill="none" stroke="#63b8ff" d="M909.74,-333C898.57,-333 887.16,-333 876.2,-333"/>
<polygon fill="#63b8ff" stroke="#63b8ff" points="909.91,-336.5 919.91,-333 909.91,-329.5 909.91,-336.5"/>
</a>
</g>
</g>
<!-- Node4 -->
<g id="Node000004" class="node">
<title>Node4</title>
<g id="a_Node000004"><a xlink:href="classwmtk_1_1dart_1_1_involution.html#ae1896cccd69bf293bb27ae0e99210bff" target="_top" xlink:title=" ">
<polygon fill="white" stroke="#666666" points="683,-420 558,-420 558,-390 683,-390 683,-420"/>
<text text-anchor="start" x="566" y="-408" font-family="Helvetica,sans-Serif" font-size="10.00">wmtk::dart::Involution</text>
<text text-anchor="middle" x="620.5" y="-397" font-family="Helvetica,sans-Serif" font-size="10.00">::apply</text>
</a>
</g>
</g>
<!-- Node3&#45;&gt;Node4 -->
<g id="edge3_Node000003_Node000004" class="edge">
<title>Node3&#45;&gt;Node4</title>
<g id="a_edge3_Node000003_Node000004"><a xlink:title=" ">
<path fill="none" stroke="#63b8ff" d="M764.08,-352.46C744.42,-361.69 720.22,-372.52 698,-381 689.81,-384.13 681.01,-387.17 672.41,-389.98"/>
<polygon fill="#63b8ff" stroke="#63b8ff" points="765.8,-355.52 773.34,-348.08 762.81,-349.19 765.8,-355.52"/>
</a>
</g>
</g>
<!-- Node5 -->
<g id="Node000005" class="node">
<title>Node5</title>
<g id="a_Node000005"><a xlink:href="namespacewmtk_1_1dart_1_1utils.html#a29d84b45f3468553f5e41f1d88e8917d" target="_top" xlink:title=" ">
<polygon fill="white" stroke="#666666" points="691.5,-372 549.5,-372 549.5,-342 691.5,-342 691.5,-372"/>
<text text-anchor="start" x="557.5" y="-360" font-family="Helvetica,sans-Serif" font-size="10.00">wmtk::dart::utils::</text>
<text text-anchor="middle" x="620.5" y="-349" font-family="Helvetica,sans-Serif" font-size="10.00">apply_simplex_involution</text>
</a>
</g>
</g>
<!-- Node3&#45;&gt;Node5 -->
<g id="edge4_Node000003_Node000005" class="edge">
<title>Node3&#45;&gt;Node5</title>
<g id="a_edge4_Node000003_Node000005"><a xlink:title=" ">
<path fill="none" stroke="#63b8ff" d="M723.78,-343.55C713.08,-344.96 702.17,-346.39 691.65,-347.77"/>
<polygon fill="#63b8ff" stroke="#63b8ff" points="724.5,-346.98 733.96,-342.21 723.59,-340.04 724.5,-346.98"/>
</a>
</g>
</g>
<!-- Node6 -->
<g id="Node000006" class="node">
<title>Node6</title>
<g id="a_Node000006"><a xlink:href="classwmtk_1_1dart_1_1_involution.html#a0a49d42a8b2e4d4fada0feb649d6eb13" target="_top" xlink:title=" ">
<polygon fill="white" stroke="#666666" points="683,-324 558,-324 558,-294 683,-294 683,-324"/>
<text text-anchor="start" x="566" y="-312" font-family="Helvetica,sans-Serif" font-size="10.00">wmtk::dart::Involution</text>
<text text-anchor="middle" x="620.5" y="-301" font-family="Helvetica,sans-Serif" font-size="10.00">::invert</text>
</a>
</g>
</g>
<!-- Node3&#45;&gt;Node6 -->
<g id="edge5_Node000003_Node000006" class="edge">
<title>Node3&#45;&gt;Node6</title>
<g id="a_edge5_Node000003_Node000006"><a xlink:title=" ">
<path fill="none" stroke="#63b8ff" d="M724.03,-322.48C710.28,-320.67 696.18,-318.82 683.01,-317.09"/>
<polygon fill="#63b8ff" stroke="#63b8ff" points="723.59,-325.96 733.96,-323.79 724.5,-319.02 723.59,-325.96"/>
</a>
</g>
</g>
<!-- Node7 -->
<g id="Node000007" class="node">
<title>Node7</title>
<g id="a_Node000007"><a xlink:href="classwmtk_1_1dart_1_1_dart_topology_accessor.html#a51daafd112d7ef209418627ea3fb6310" target="_top" xlink:title=" ">
<polygon fill="white" stroke="#666666" points="690.5,-276 550.5,-276 550.5,-246 690.5,-246 690.5,-276"/>
<text text-anchor="start" x="558.5" y="-264" font-family="Helvetica,sans-Serif" font-size="10.00">wmtk::dart::DartTopology</text>
<text text-anchor="middle" x="620.5" y="-253" font-family="Helvetica,sans-Serif" font-size="10.00">Accessor::switch_facet</text>
</a>
</g>
</g>
<!-- Node3&#45;&gt;Node7 -->
<g id="edge6_Node000003_Node000007" class="edge">
<title>Node3&#45;&gt;Node7</title>
<g id="a_edge6_Node000003_Node000007"><a xlink:title=" ">
<path fill="none" stroke="#63b8ff" d="M764.08,-313.54C744.42,-304.31 720.22,-293.48 698,-285 689.81,-281.87 681.01,-278.83 672.41,-276.02"/>
<polygon fill="#63b8ff" stroke="#63b8ff" points="762.81,-316.81 773.34,-317.92 765.8,-310.48 762.81,-316.81"/>
</a>
</g>
</g>
<!-- Node9 -->
<g id="Node000009" class="node">
<title>Node9</title>
<g id="a_Node000009"><a xlink:href="namespacewmtk_1_1multimesh_1_1utils.html#aadbec4cb0d2bef6ab773d9973a1e0d10" target="_top" xlink:title=" ">
<polygon fill="white" stroke="#666666" points="1266.5,-138 1136.5,-138 1136.5,-108 1266.5,-108 1266.5,-138"/>
<text text-anchor="start" x="1144.5" y="-126" font-family="Helvetica,sans-Serif" font-size="10.00">wmtk::multimesh::utils</text>
<text text-anchor="middle" x="1201.5" y="-115" font-family="Helvetica,sans-Serif" font-size="10.00">::find_local_dart_action</text>
</a>
</g>
</g>
<!-- Node8&#45;&gt;Node9 -->
<g id="edge8_Node000008_Node000009" class="edge">
<title>Node8&#45;&gt;Node9</title>
<g id="a_edge8_Node000008_Node000009"><a xlink:title=" ">
<path fill="none" stroke="#63b8ff" d="M1325.93,-153.62C1305.42,-148.53 1283.17,-143.01 1263.29,-138.08"/>
<polygon fill="#63b8ff" stroke="#63b8ff" points="1325.29,-157.06 1335.84,-156.08 1326.97,-150.27 1325.29,-157.06"/>
</a>
</g>
</g>
<!-- Node10 -->
<g id="Node000010" class="node">
<title>Node10</title>
<g id="a_Node000010"><a xlink:href="namespacewmtk_1_1multimesh_1_1utils.html#afdb80f3539fe615906b6d58b5bdac8cb" target="_top" xlink:title=" ">
<polygon fill="white" stroke="#666666" points="1266.5,-90 1136.5,-90 1136.5,-60 1266.5,-60 1266.5,-90"/>
<text text-anchor="start" x="1144.5" y="-78" font-family="Helvetica,sans-Serif" font-size="10.00">wmtk::multimesh::utils</text>
<text text-anchor="middle" x="1201.5" y="-67" font-family="Helvetica,sans-Serif" font-size="10.00">::find_local_dart_action</text>
</a>
</g>
</g>
<!-- Node8&#45;&gt;Node10 -->
<g id="edge9_Node000008_Node000010" class="edge">
<title>Node8&#45;&gt;Node10</title>
<g id="a_edge9_Node000008_Node000010"><a xlink:title=" ">
<path fill="none" stroke="#63b8ff" d="M1338.71,-150.91C1336.73,-149.68 1334.82,-148.37 1333,-147 1311.7,-130.95 1319.19,-113.79 1297,-99 1287.85,-92.9 1277.25,-88.35 1266.53,-84.95"/>
<polygon fill="#63b8ff" stroke="#63b8ff" points="1337.26,-154.11 1347.7,-155.91 1340.66,-147.99 1337.26,-154.11"/>
</a>
</g>
</g>
<!-- Node11 -->
<g id="Node000011" class="node">
<title>Node11</title>
<g id="a_Node000011"><a xlink:href="classwmtk_1_1operations_1_1internal_1_1_collapse_alternate_facet_data.html#ad5d625ffe8c3c7b0e62c77cd2332f053" target="_top" xlink:title=" ">
<polygon fill="white" stroke="#666666" points="1280.5,-304.5 1122.5,-304.5 1122.5,-263.5 1280.5,-263.5 1280.5,-304.5"/>
<text text-anchor="start" x="1130.5" y="-292.5" font-family="Helvetica,sans-Serif" font-size="10.00">wmtk::operations::internal</text>
<text text-anchor="start" x="1130.5" y="-281.5" font-family="Helvetica,sans-Serif" font-size="10.00">::CollapseAlternateFacetData</text>
<text text-anchor="middle" x="1201.5" y="-270.5" font-family="Helvetica,sans-Serif" font-size="10.00">::get_alternatives</text>
</a>
</g>
</g>
<!-- Node8&#45;&gt;Node11 -->
<g id="edge10_Node000008_Node000011" class="edge">
<title>Node8&#45;&gt;Node11</title>
<g id="a_edge10_Node000008_Node000011"><a xlink:title=" ">
<path fill="none" stroke="#63b8ff" d="M1374.16,-193.71C1355.26,-212.21 1326.41,-237.84 1297,-254 1290.66,-257.48 1283.86,-260.63 1276.92,-263.46"/>
<polygon fill="#63b8ff" stroke="#63b8ff" points="1377.01,-195.81 1381.62,-186.26 1372.07,-190.85 1377.01,-195.81"/>
</a>
</g>
</g>
<!-- Node13 -->
<g id="Node000013" class="node">
<title>Node13</title>
<g id="a_Node000013"><a xlink:href="classwmtk_1_1operations_1_1internal_1_1_collapse_alternate_facet_option_data.html#a363fb2114790d2591c476c3910c298c3" target="_top" xlink:title=" ">
<polygon fill="white" stroke="#666666" points="1297,-245.5 1106,-245.5 1106,-204.5 1297,-204.5 1297,-245.5"/>
<text text-anchor="start" x="1114" y="-233.5" font-family="Helvetica,sans-Serif" font-size="10.00">wmtk::operations::internal</text>
<text text-anchor="start" x="1114" y="-222.5" font-family="Helvetica,sans-Serif" font-size="10.00">::CollapseAlternateFacetOptionData</text>
<text text-anchor="middle" x="1201.5" y="-211.5" font-family="Helvetica,sans-Serif" font-size="10.00">::get_neighbor_action</text>
</a>
</g>
</g>
<!-- Node8&#45;&gt;Node13 -->
<g id="edge12_Node000008_Node000013" class="edge">
<title>Node8&#45;&gt;Node13</title>
<g id="a_edge12_Node000008_Node000013"><a xlink:title=" ">
<path fill="none" stroke="#63b8ff" d="M1332.29,-188.78C1314.28,-193.81 1294.53,-199.32 1276,-204.49"/>
<polygon fill="#63b8ff" stroke="#63b8ff" points="1333.41,-192.1 1342.1,-186.04 1331.53,-185.36 1333.41,-192.1"/>
</a>
</g>
</g>
<!-- Node14 -->
<g id="Node000014" class="node">
<title>Node14</title>
<g id="a_Node000014"><a xlink:href="namespacewmtk_1_1dart_1_1utils.html#a10c8d07172593fb9b520e7a6511ad08f" target="_top" xlink:title=" ">
<polygon fill="white" stroke="#666666" points="1282,-186 1121,-186 1121,-156 1282,-156 1282,-186"/>
<text text-anchor="start" x="1129" y="-174" font-family="Helvetica,sans-Serif" font-size="10.00">wmtk::dart::utils::</text>
<text text-anchor="middle" x="1201.5" y="-163" font-family="Helvetica,sans-Serif" font-size="10.00">local_simplex_decomposition</text>
</a>
</g>
</g>
<!-- Node8&#45;&gt;Node14 -->
<g id="edge13_Node000008_Node000014" class="edge">
<title>Node8&#45;&gt;Node14</title>
<g id="a_edge13_Node000008_Node000014"><a xlink:title=" ">
<path fill="none" stroke="#63b8ff" d="M1325.71,-171C1311.57,-171 1296.62,-171 1282.2,-171"/>
<polygon fill="#63b8ff" stroke="#63b8ff" points="1325.84,-174.5 1335.84,-171 1325.84,-167.5 1325.84,-174.5"/>
</a>
</g>
</g>
<!-- Node12 -->
<g id="Node000012" class="node">
<title>Node12</title>
<g id="a_Node000012"><a xlink:href="classwmtk_1_1operations_1_1internal_1_1_collapse_alternate_facet_data.html#aec408f6fcc5cb735d8761af17631bff9" target="_top" xlink:title=" ">
<polygon fill="white" stroke="#666666" points="1070,-294.5 912,-294.5 912,-253.5 1070,-253.5 1070,-294.5"/>
<text text-anchor="start" x="920" y="-282.5" font-family="Helvetica,sans-Serif" font-size="10.00">wmtk::operations::internal</text>
<text text-anchor="start" x="920" y="-271.5" font-family="Helvetica,sans-Serif" font-size="10.00">::CollapseAlternateFacetData</text>
<text text-anchor="middle" x="991" y="-260.5" font-family="Helvetica,sans-Serif" font-size="10.00">::get_alternative</text>
</a>
</g>
</g>
<!-- Node11&#45;&gt;Node12 -->
<g id="edge11_Node000011_Node000012" class="edge">
<title>Node11&#45;&gt;Node12</title>
<g id="a_edge11_Node000011_Node000012"><a xlink:title=" ">
<path fill="none" stroke="#63b8ff" d="M1112.22,-279.77C1098.3,-279.1 1083.99,-278.41 1070.32,-277.76"/>
<polygon fill="#63b8ff" stroke="#63b8ff" points="1112.11,-283.26 1122.27,-280.25 1112.45,-276.27 1112.11,-283.26"/>
</a>
</g>
</g>
<!-- Node14&#45;&gt;Node2 -->
<g id="edge14_Node000014_Node000002" class="edge">
<title>Node14&#45;&gt;Node2</title>
<g id="a_edge14_Node000014_Node000002"><a xlink:title=" ">
<path fill="none" stroke="#63b8ff" d="M1112.18,-189.94C1110.02,-191.5 1107.95,-193.18 1106,-195 1068.68,-229.79 1105.4,-267.26 1070,-304 1066.99,-307.12 1063.62,-309.91 1060.01,-312.4"/>
<polygon fill="#63b8ff" stroke="#63b8ff" points="1114.3,-192.74 1120.96,-184.5 1110.61,-186.79 1114.3,-192.74"/>
</a>
</g>
</g>
<!-- Node15 -->
<g id="Node000015" class="node">
<title>Node15</title>
<g id="a_Node000015"><a xlink:href="namespacewmtk_1_1dart_1_1utils.html#a5a1d80c919ea8054fa6ddb989fb7cc30" target="_top" xlink:title=" ">
<polygon fill="white" stroke="#666666" points="1056.5,-93.5 925.5,-93.5 925.5,-52.5 1056.5,-52.5 1056.5,-93.5"/>
<text text-anchor="start" x="933.5" y="-81.5" font-family="Helvetica,sans-Serif" font-size="10.00">wmtk::dart::utils::</text>
<text text-anchor="start" x="933.5" y="-70.5" font-family="Helvetica,sans-Serif" font-size="10.00">get_simplex_involution</text>
<text text-anchor="middle" x="991" y="-59.5" font-family="Helvetica,sans-Serif" font-size="10.00">_upward</text>
</a>
</g>
</g>
<!-- Node14&#45;&gt;Node15 -->
<g id="edge15_Node000014_Node000015" class="edge">
<title>Node14&#45;&gt;Node15</title>
<g id="a_edge15_Node000014_Node000015"><a xlink:title=" ">
<path fill="none" stroke="#63b8ff" d="M1120.7,-152.75C1115.66,-150.98 1110.73,-149.07 1106,-147 1073.79,-132.91 1040.45,-110.16 1018.22,-93.59"/>
<polygon fill="#63b8ff" stroke="#63b8ff" points="1119.88,-156.16 1130.47,-155.98 1122.07,-149.52 1119.88,-156.16"/>
</a>
</g>
</g>
<!-- Node16 -->
<g id="Node000016" class="node">
<title>Node16</title>
<g id="a_Node000016"><a xlink:href="namespacewmtk_1_1dart_1_1utils.html#aa7884681cab6b16b5eceb3289b679253" target="_top" xlink:title=" ">
<polygon fill="white" stroke="#666666" points="870.5,-88 739.5,-88 739.5,-58 870.5,-58 870.5,-88"/>
<text text-anchor="start" x="747.5" y="-76" font-family="Helvetica,sans-Serif" font-size="10.00">wmtk::dart::utils::</text>
<text text-anchor="middle" x="805" y="-65" font-family="Helvetica,sans-Serif" font-size="10.00">get_simplex_involution</text>
</a>
</g>
</g>
<!-- Node15&#45;&gt;Node16 -->
<g id="edge16_Node000015_Node000016" class="edge">
<title>Node15&#45;&gt;Node16</title>
<g id="a_edge16_Node000015_Node000016"><a xlink:title=" ">
<path fill="none" stroke="#63b8ff" d="M915.29,-73C900.53,-73 885.16,-73 870.77,-73"/>
<polygon fill="#63b8ff" stroke="#63b8ff" points="915.39,-76.5 925.39,-73 915.39,-69.5 915.39,-76.5"/>
</a>
</g>
</g>
<!-- Node17 -->
<g id="Node000017" class="node">
<title>Node17</title>
<g id="a_Node000017"><a xlink:href="classwmtk_1_1dart_1_1_dart_topology_accessor.html#ac79e08ea187ee2465c1755cc4e7526cf" target="_top" xlink:title=" ">
<polygon fill="white" stroke="#666666" points="507,-147 367,-147 367,-117 507,-117 507,-147"/>
<text text-anchor="start" x="375" y="-135" font-family="Helvetica,sans-Serif" font-size="10.00">wmtk::dart::DartTopology</text>
<text text-anchor="middle" x="437" y="-124" font-family="Helvetica,sans-Serif" font-size="10.00">Accessor::fuse</text>
</a>
</g>
</g>
<!-- Node16&#45;&gt;Node17 -->
<g id="edge17_Node000016_Node000017" class="edge">
<title>Node16&#45;&gt;Node17</title>
<g id="a_edge17_Node000016_Node000017"><a xlink:title=" ">
<path fill="none" stroke="#63b8ff" d="M777.31,-94.03C756.9,-108.71 727.35,-127.05 698,-135 635.04,-152.06 560.32,-148.91 507.17,-142.92"/>
<polygon fill="#63b8ff" stroke="#63b8ff" points="779.51,-96.76 785.48,-88 775.35,-91.13 779.51,-96.76"/>
</a>
</g>
</g>
<!-- Node20 -->
<g id="Node000020" class="node">
<title>Node20</title>
<g id="a_Node000020"><a xlink:href="namespacewmtk_1_1dart_1_1utils.html#a2249e556e353c807df88c2daa17aa6c1" target="_top" xlink:title=" ">
<polygon fill="white" stroke="#666666" points="686,-78 555,-78 555,-48 686,-48 686,-78"/>
<text text-anchor="start" x="563" y="-66" font-family="Helvetica,sans-Serif" font-size="10.00">wmtk::dart::utils::</text>
<text text-anchor="middle" x="620.5" y="-55" font-family="Helvetica,sans-Serif" font-size="10.00">get_simplex_involution</text>
</a>
</g>
</g>
<!-- Node16&#45;&gt;Node20 -->
<g id="edge20_Node000016_Node000020" class="edge">
<title>Node16&#45;&gt;Node20</title>
<g id="a_edge20_Node000016_Node000020"><a xlink:title=" ">
<path fill="none" stroke="#63b8ff" d="M729.11,-68.9C714.81,-68.11 699.95,-67.3 686.01,-66.53"/>
<polygon fill="#63b8ff" stroke="#63b8ff" points="729.22,-72.41 739.4,-69.46 729.61,-65.42 729.22,-72.41"/>
</a>
</g>
</g>
<!-- Node21 -->
<g id="Node000021" class="node">
<title>Node21</title>
<g id="a_Node000021"><a xlink:href="namespacewmtk_1_1dart_1_1utils.html#aabd873fac842193741d6ae0cf2e62cbc" target="_top" xlink:title=" ">
<polygon fill="white" stroke="#666666" points="698,-30 543,-30 543,0 698,0 698,-30"/>
<text text-anchor="start" x="551" y="-18" font-family="Helvetica,sans-Serif" font-size="10.00">wmtk::dart::utils::</text>
<text text-anchor="middle" x="620.5" y="-7" font-family="Helvetica,sans-Serif" font-size="10.00">get_simplex_involution_pair</text>
</a>
</g>
</g>
<!-- Node16&#45;&gt;Node21 -->
<g id="edge21_Node000016_Node000021" class="edge">
<title>Node16&#45;&gt;Node21</title>
<g id="a_edge21_Node000016_Node000021"><a xlink:title=" ">
<path fill="none" stroke="#63b8ff" d="M747.56,-54.82C731.55,-49.69 714.09,-44.11 698,-39 688.85,-36.1 679.07,-33.01 669.67,-30.06"/>
<polygon fill="#63b8ff" stroke="#63b8ff" points="746.73,-58.23 757.32,-57.96 748.87,-51.57 746.73,-58.23"/>
</a>
</g>
</g>
<!-- Node22 -->
<g id="Node000022" class="node">
<title>Node22</title>
<g id="a_Node000022"><a xlink:href="namespacewmtk_1_1dart_1_1utils.html#a065ebaae25bcab945f1dd46a8a744db7" target="_top" xlink:title=" ">
<polygon fill="white" stroke="#666666" points="698,-126 543,-126 543,-96 698,-96 698,-126"/>
<text text-anchor="start" x="551" y="-114" font-family="Helvetica,sans-Serif" font-size="10.00">wmtk::dart::utils::</text>
<text text-anchor="middle" x="620.5" y="-103" font-family="Helvetica,sans-Serif" font-size="10.00">get_simplex_involution_pair</text>
</a>
</g>
</g>
<!-- Node16&#45;&gt;Node22 -->
<g id="edge22_Node000016_Node000022" class="edge">
<title>Node16&#45;&gt;Node22</title>
<g id="a_edge22_Node000016_Node000022"><a xlink:title=" ">
<path fill="none" stroke="#63b8ff" d="M729.58,-88.5C717.76,-90.96 705.55,-93.5 693.78,-95.95"/>
<polygon fill="#63b8ff" stroke="#63b8ff" points="730.32,-91.92 739.4,-86.45 728.9,-85.06 730.32,-91.92"/>
</a>
</g>
</g>
<!-- Node18 -->
<g id="Node000018" class="node">
<title>Node18</title>
<g id="a_Node000018"><a xlink:href="classwmtk_1_1dart_1_1_dart_topology_accessor.html#a3e3e91d4b9c8a52353cbf60b10b2830b" target="_top" xlink:title=" ">
<polygon fill="white" stroke="#666666" points="331,-147 191,-147 191,-117 331,-117 331,-147"/>
<text text-anchor="start" x="199" y="-135" font-family="Helvetica,sans-Serif" font-size="10.00">wmtk::dart::DartTopology</text>
<text text-anchor="middle" x="261" y="-124" font-family="Helvetica,sans-Serif" font-size="10.00">Accessor::populate</text>
</a>
</g>
</g>
<!-- Node17&#45;&gt;Node18 -->
<g id="edge18_Node000017_Node000018" class="edge">
<title>Node17&#45;&gt;Node18</title>
<g id="a_edge18_Node000017_Node000018"><a xlink:title=" ">
<path fill="none" stroke="#63b8ff" d="M356.97,-132C348.38,-132 339.68,-132 331.22,-132"/>
<polygon fill="#63b8ff" stroke="#63b8ff" points="356.98,-135.5 366.98,-132 356.98,-128.5 356.98,-135.5"/>
</a>
</g>
</g>
<!-- Node19 -->
<g id="Node000019" class="node">
<title>Node19</title>
<g id="a_Node000019"><a xlink:href="classwmtk_1_1dart_1_1_dart_topology_accessor.html#ad3e9dba0cf529c970de42361019bec19" target="_top" xlink:title=" ">
<polygon fill="white" stroke="#666666" points="155,-152.5 0,-152.5 0,-111.5 155,-111.5 155,-152.5"/>
<text text-anchor="start" x="8" y="-140.5" font-family="Helvetica,sans-Serif" font-size="10.00">wmtk::dart::DartTopology</text>
<text text-anchor="start" x="8" y="-129.5" font-family="Helvetica,sans-Serif" font-size="10.00">Accessor::register_boundary</text>
<text text-anchor="middle" x="77.5" y="-118.5" font-family="Helvetica,sans-Serif" font-size="10.00">_topology_attribute</text>
</a>
</g>
</g>
<!-- Node18&#45;&gt;Node19 -->
<g id="edge19_Node000018_Node000019" class="edge">
<title>Node18&#45;&gt;Node19</title>
<g id="a_edge19_Node000018_Node000019"><a xlink:title=" ">
<path fill="none" stroke="#63b8ff" d="M180.59,-132C172.1,-132 163.47,-132 155.02,-132"/>
<polygon fill="#63b8ff" stroke="#63b8ff" points="180.86,-135.5 190.86,-132 180.86,-128.5 180.86,-135.5"/>
</a>
</g>
</g>
<!-- Node22&#45;&gt;Node17 -->
<g id="edge23_Node000022_Node000017" class="edge">
<title>Node22&#45;&gt;Node17</title>
<g id="a_edge23_Node000022_Node000017"><a xlink:title=" ">
<path fill="none" stroke="#63b8ff" d="M532.77,-121.03C524.2,-122.03 515.59,-123.02 507.23,-123.99"/>
<polygon fill="#63b8ff" stroke="#63b8ff" points="533.26,-124.5 542.79,-119.88 532.45,-117.55 533.26,-124.5"/>
</a>
</g>
</g>
<!-- Node23&#45;&gt;Node15 -->
<g id="edge25_Node000023_Node000015" class="edge">
<title>Node23&#45;&gt;Node15</title>
<g id="a_edge25_Node000023_Node000015"><a xlink:title=" ">
<path fill="none" stroke="#63b8ff" d="M1340.37,-102.97C1337.8,-101.42 1335.33,-99.76 1333,-98 1312.01,-82.13 1320.59,-62.65 1297,-51 1217.74,-11.87 1112.56,-32.95 1048.71,-52.47"/>
<polygon fill="#63b8ff" stroke="#63b8ff" points="1338.91,-106.16 1349.37,-107.87 1342.25,-100.01 1338.91,-106.16"/>
</a>
</g>
</g>
</g>
</svg>

<g id="navigator" transform="translate(0 0)" fill="#404254">
  <rect fill="#f2f5e9" fill-opacity="0.5" stroke="#606060" stroke-width=".5" x="0" y="0" width="60" height="60"/>
  <use id="zoomplus" xlink:href="#zoomPlus" x="17" y="9" onmousedown="handleZoom(evt,'in')"/>
  <use id="zoomminus" xlink:href="#zoomMin" x="42" y="9" onmousedown="handleZoom(evt,'out')"/>
  <use id="reset" xlink:href="#resetDef" x="30" y="36" onmousedown="handleReset()"/>
   <use id="arrowup" xlink:href="#arrowUp" x="0" y="0" onmousedown="handlePan(0,-1)"/>
  <use id="arrowright" xlink:href="#arrowRight" x="0" y="0" onmousedown="handlePan(1,0)"/>
  <use id="arrowdown" xlink:href="#arrowDown" x="0" y="0" onmousedown="handlePan(0,1)"/>
  <use id="arrowleft" xlink:href="#arrowLeft" x="0" y="0" onmousedown="handlePan(-1,0)"/>
</g>
<svg viewBox="0 0 15 15" width="100%" height="30px" preserveAspectRatio="xMaxYMin meet">
 <g id="arrow_out" transform="scale(0.3 0.3)">
  <a xlink:href="classwmtk_1_1dart_1_1_simplex_dart_a6923dbaad52cba2f744265012f9648ed_icgraph_org.svg" target="_base">
   <rect id="button" ry="5" rx="5" y="6" x="6" height="38" width="38"
        fill="#f2f5e9" fill-opacity="0.5" stroke="#606060" stroke-width="1.0"/>
   <path id="arrow"
     d="M 11.500037,31.436501 C 11.940474,20.09759 22.043105,11.32322 32.158766,21.979434 L 37.068811,17.246167 C 37.068811,17.246167 37.088388,32 37.088388,32 L 22.160133,31.978069 C 22.160133,31.978069 26.997745,27.140456 26.997745,27.140456 C 18.528582,18.264221 13.291696,25.230495 11.500037,31.436501 z"
     style="fill:#404040;"/>
  </a>
 </g>
</svg>

<style type='text/css'>
<![CDATA[
[data-mouse-over-selected='false'] { opacity: 0.7; }
[data-mouse-over-selected='true']  { opacity: 1.0; }
]]>
</style>
<script type="application/ecmascript"><![CDATA[
document.addEventListener('DOMContentLoaded', (event) => {
  highlightEdges();
  highlightAdjacentNodes();
});
]]></script>
</svg>
