<?xml version="1.0" encoding="UTF-8" standalone="no"?>
<!DOCTYPE svg PUBLIC "-//W3C//DTD SVG 1.1//EN"
 "http://www.w3.org/Graphics/SVG/1.1/DTD/svg11.dtd">
<!-- Generated by graphviz version 2.43.0 (0)
 -->
<!-- Title: wmtk::components::isotropic_remeshing::IsotropicRemeshing::make_envelope_invariants Pages: 1 -->
<!--zoomable 453 -->

<svg id="main" version="1.1" xmlns="http://www.w3.org/2000/svg" xmlns:xlink="http://www.w3.org/1999/xlink" xml:space="preserve" onload="init(evt)">
<style type="text/css"><![CDATA[
.node, .edge {opacity: 0.7;}
.node.selected, .edge.selected {opacity: 1;}
.edge:hover path { stroke: red; }
.edge:hover polygon { stroke: red; fill: red; }
]]></style>

<defs>
  <circle id="rim" cx="0" cy="0" r="7"/>
  <circle id="rim2" cx="0" cy="0" r="3.5"/>
  <g id="zoomPlus">
    <use xlink:href="#rim" fill="#404040"><set attributeName="fill" to="#808080" begin="zoomplus.mouseover" end="zoomplus.mouseout"/></use>
    <path d="M-4,0h8M0,-4v8" fill="none" stroke="white" stroke-width="1.5" pointer-events="none"/>
  </g>
  <g id="zoomMin">
    <use xlink:href="#rim" fill="#404040"><set attributeName="fill" to="#808080" begin="zoomminus.mouseover" end="zoomminus.mouseout"/></use>
    <path d="M-4,0h8" fill="none" stroke="white" stroke-width="1.5" pointer-events="none"/>
  </g>
  <g id="arrowUp" transform="translate(30 24)">
    <use xlink:href="#rim"/>
    <path pointer-events="none" fill="none" stroke="white" stroke-width="1.5" d="M0,-3.0v7 M-2.5,-0.5L0,-3.0L2.5,-0.5"/>
  </g>
  <g id="arrowRight" transform="rotate(90) translate(36 -43)">
    <use xlink:href="#rim"/>
    <path pointer-events="none" fill="none" stroke="white" stroke-width="1.5" d="M0,-3.0v7 M-2.5,-0.5L0,-3.0L2.5,-0.5"/>
  </g>
  <g id="arrowDown" transform="rotate(180) translate(-30 -48)">
    <use xlink:href="#rim"/>
    <path pointer-events="none" fill="none" stroke="white" stroke-width="1.5" d="M0,-3.0v7 M-2.5,-0.5L0,-3.0L2.5,-0.5"/>
  </g>
  <g id="arrowLeft" transform="rotate(270) translate(-36 17)">
    <use xlink:href="#rim"/>
    <path pointer-events="none" fill="none" stroke="white" stroke-width="1.5" d="M0,-3.0v7 M-2.5,-0.5L0,-3.0L2.5,-0.5"/>
  </g>
  <g id="resetDef">
    <use xlink:href="#rim2" fill="#404040"><set attributeName="fill" to="#808080" begin="reset.mouseover" end="reset.mouseout"/></use>
  </g>
</defs>
<script type="application/ecmascript">
var viewWidth = 2046;
var viewHeight = 453;
var sectionId = 'dynsection-16';
</script>
<script type="application/ecmascript" xlink:href="svg.min.js"/>
<svg id="graph" class="graph">
<g id="viewport">
<title>wmtk::components::isotropic_remeshing::IsotropicRemeshing::make_envelope_invariants</title>
<!-- Node1 -->
<g id="Node000001" class="node">
<title>Node1</title>
<g id="a_Node000001"><a xlink:title=" ">
<polygon fill="#999999" stroke="#666666" points="176,-314.5 0,-314.5 0,-273.5 176,-273.5 176,-314.5"/>
<text text-anchor="start" x="8" y="-302.5" font-family="Helvetica,sans-Serif" font-size="10.00">wmtk::components::isotropic</text>
<text text-anchor="start" x="8" y="-291.5" font-family="Helvetica,sans-Serif" font-size="10.00">_remeshing::IsotropicRemeshing</text>
<text text-anchor="middle" x="88" y="-280.5" font-family="Helvetica,sans-Serif" font-size="10.00">::make_envelope_invariants</text>
</a>
</g>
</g>
<!-- Node2 -->
<g id="Node000002" class="node">
<title>Node2</title>
<g id="a_Node000002"><a xlink:href="classwmtk_1_1components_1_1isotropic__remeshing_1_1_isotropic_remeshing.html#acfec4d484d48b22125364adef857f804" target="_top" xlink:title=" ">
<polygon fill="white" stroke="#666666" points="388,-314.5 212,-314.5 212,-273.5 388,-273.5 388,-314.5"/>
<text text-anchor="start" x="220" y="-302.5" font-family="Helvetica,sans-Serif" font-size="10.00">wmtk::components::isotropic</text>
<text text-anchor="start" x="220" y="-291.5" font-family="Helvetica,sans-Serif" font-size="10.00">_remeshing::IsotropicRemeshing</text>
<text text-anchor="middle" x="300" y="-280.5" font-family="Helvetica,sans-Serif" font-size="10.00">::make_envelopes</text>
</a>
</g>
</g>
<!-- Node1&#45;&gt;Node2 -->
<g id="edge1_Node000001_Node000002" class="edge">
<title>Node1&#45;&gt;Node2</title>
<g id="a_edge1_Node000001_Node000002"><a xlink:title=" ">
<path fill="none" stroke="#63b8ff" d="M176.23,-294C184.57,-294 193.05,-294 201.47,-294"/>
<polygon fill="#63b8ff" stroke="#63b8ff" points="201.7,-297.5 211.7,-294 201.7,-290.5 201.7,-297.5"/>
</a>
</g>
</g>
<!-- Node3 -->
<g id="Node000003" class="node">
<title>Node3</title>
<g id="a_Node000003"><a xlink:href="classwmtk_1_1components_1_1isotropic__remeshing_1_1_isotropic_remeshing.html#a908c885c90ec1d2117fe28438639744f" target="_top" xlink:title=" ">
<polygon fill="white" stroke="#666666" points="600,-337.5 424,-337.5 424,-296.5 600,-296.5 600,-337.5"/>
<text text-anchor="start" x="432" y="-325.5" font-family="Helvetica,sans-Serif" font-size="10.00">wmtk::components::isotropic</text>
<text text-anchor="start" x="432" y="-314.5" font-family="Helvetica,sans-Serif" font-size="10.00">_remeshing::IsotropicRemeshing</text>
<text text-anchor="middle" x="512" y="-303.5" font-family="Helvetica,sans-Serif" font-size="10.00">::all_envelope_positions</text>
</a>
</g>
</g>
<!-- Node2&#45;&gt;Node3 -->
<g id="edge2_Node000002_Node000003" class="edge">
<title>Node2&#45;&gt;Node3</title>
<g id="a_edge2_Node000002_Node000003"><a xlink:title=" ">
<path fill="none" stroke="#63b8ff" d="M388.23,-303.55C396.66,-304.48 405.24,-305.42 413.75,-306.35"/>
<polygon fill="#63b8ff" stroke="#63b8ff" points="413.38,-309.83 423.7,-307.44 414.14,-302.87 413.38,-309.83"/>
</a>
</g>
</g>
<!-- Node5 -->
<g id="Node000005" class="node">
<title>Node5</title>
<g id="a_Node000005"><a xlink:href="classwmtk_1_1components_1_1isotropic__remeshing_1_1_isotropic_remeshing.html#ac9f0caa461b9b1a19b2ce916c6ec1570" target="_top" xlink:title=" ">
<polygon fill="white" stroke="#666666" points="831,-283.5 655,-283.5 655,-242.5 831,-242.5 831,-283.5"/>
<text text-anchor="start" x="663" y="-271.5" font-family="Helvetica,sans-Serif" font-size="10.00">wmtk::components::isotropic</text>
<text text-anchor="start" x="663" y="-260.5" font-family="Helvetica,sans-Serif" font-size="10.00">_remeshing::IsotropicRemeshing</text>
<text text-anchor="middle" x="743" y="-249.5" font-family="Helvetica,sans-Serif" font-size="10.00">::get_attribute</text>
</a>
</g>
</g>
<!-- Node2&#45;&gt;Node5 -->
<g id="edge38_Node000002_Node000005" class="edge">
<title>Node2&#45;&gt;Node5</title>
<g id="a_edge38_Node000002_Node000005"><a xlink:title=" ">
<path fill="none" stroke="#63b8ff" d="M388.13,-287.88C462,-282.68 567.86,-275.24 644.53,-269.85"/>
<polygon fill="#63b8ff" stroke="#63b8ff" points="644.95,-273.33 654.68,-269.14 644.46,-266.35 644.95,-273.33"/>
</a>
</g>
</g>
<!-- Node27 -->
<g id="Node000027" class="node">
<title>Node27</title>
<g id="a_Node000027"><a xlink:href="classwmtk_1_1attribute_1_1_mesh_attribute_handle.html#a620620d54776b2c5f4f9cebad465cfa7" target="_top" xlink:title=" ">
<polygon fill="white" stroke="#666666" points="1475,-445 1308,-445 1308,-415 1475,-415 1475,-445"/>
<text text-anchor="start" x="1316" y="-433" font-family="Helvetica,sans-Serif" font-size="10.00">wmtk::attribute::MeshAttribute</text>
<text text-anchor="middle" x="1391.5" y="-422" font-family="Helvetica,sans-Serif" font-size="10.00">Handle::mesh</text>
</a>
</g>
</g>
<!-- Node2&#45;&gt;Node27 -->
<g id="edge43_Node000002_Node000027" class="edge">
<title>Node2&#45;&gt;Node27</title>
<g id="a_edge43_Node000002_Node000027"><a xlink:title=" ">
<path fill="none" stroke="#63b8ff" d="M336.83,-314.61C410.29,-354.85 584.33,-440 742,-440 742,-440 742,-440 971.5,-440 1083.72,-440 1212.81,-436.37 1297.7,-433.48"/>
<polygon fill="#63b8ff" stroke="#63b8ff" points="1297.96,-436.98 1307.83,-433.14 1297.72,-429.98 1297.96,-436.98"/>
</a>
</g>
</g>
<!-- Node33 -->
<g id="Node000033" class="node">
<title>Node33</title>
<g id="a_Node000033"><a xlink:href="classwmtk_1_1_mesh.html#aac3ec1ebbe00982ddfe70cc710d8f54e" target="_top" xlink:title="returns a reference to the root of a multimesh tree">
<polygon fill="white" stroke="#666666" points="576.5,-223 447.5,-223 447.5,-193 576.5,-193 576.5,-223"/>
<text text-anchor="start" x="455.5" y="-211" font-family="Helvetica,sans-Serif" font-size="10.00">wmtk::Mesh::get_multi</text>
<text text-anchor="middle" x="512" y="-200" font-family="Helvetica,sans-Serif" font-size="10.00">_mesh_root</text>
</a>
</g>
</g>
<!-- Node2&#45;&gt;Node33 -->
<g id="edge39_Node000002_Node000033" class="edge">
<title>Node2&#45;&gt;Node33</title>
<g id="a_edge39_Node000002_Node000033"><a xlink:title=" ">
<path fill="none" stroke="#63b8ff" d="M351.3,-273.4C385.76,-259.29 431.12,-240.71 464.69,-226.97"/>
<polygon fill="#63b8ff" stroke="#63b8ff" points="466.34,-230.07 474.26,-223.04 463.68,-223.6 466.34,-230.07"/>
</a>
</g>
</g>
<!-- Node4 -->
<g id="Node000004" class="node">
<title>Node4</title>
<g id="a_Node000004"><a xlink:href="structwmtk_1_1components_1_1isotropic__remeshing_1_1_isotropic_remeshing_options.html#a88977ab0e4214a1020dd8a9718628bc3" target="_top" xlink:title=" ">
<polygon fill="white" stroke="#666666" points="850,-401.5 636,-401.5 636,-360.5 850,-360.5 850,-401.5"/>
<text text-anchor="start" x="644" y="-389.5" font-family="Helvetica,sans-Serif" font-size="10.00">wmtk::components::isotropic</text>
<text text-anchor="start" x="644" y="-378.5" font-family="Helvetica,sans-Serif" font-size="10.00">_remeshing::IsotropicRemeshingOptions</text>
<text text-anchor="middle" x="743" y="-367.5" font-family="Helvetica,sans-Serif" font-size="10.00">::all_positions</text>
</a>
</g>
</g>
<!-- Node3&#45;&gt;Node4 -->
<g id="edge3_Node000003_Node000004" class="edge">
<title>Node3&#45;&gt;Node4</title>
<g id="a_edge3_Node000003_Node000004"><a xlink:title=" ">
<path fill="none" stroke="#63b8ff" d="M584.83,-337.57C601.62,-342.34 619.43,-347.38 636,-352 642.82,-353.9 649.9,-355.87 657,-357.83"/>
<polygon fill="#63b8ff" stroke="#63b8ff" points="656.12,-361.22 666.7,-360.5 657.98,-354.47 656.12,-361.22"/>
</a>
</g>
</g>
<!-- Node3&#45;&gt;Node5 -->
<g id="edge4_Node000003_Node000005" class="edge">
<title>Node3&#45;&gt;Node5</title>
<g id="a_edge4_Node000003_Node000005"><a xlink:title=" ">
<path fill="none" stroke="#63b8ff" d="M600.23,-296.43C614.95,-292.96 630.31,-289.34 645.26,-285.81"/>
<polygon fill="#63b8ff" stroke="#63b8ff" points="646.08,-289.21 655.01,-283.51 644.48,-282.4 646.08,-289.21"/>
</a>
</g>
</g>
<!-- Node21 -->
<g id="Node000021" class="node">
<title>Node21</title>
<g id="a_Node000021"><a xlink:href="classwmtk_1_1components_1_1isotropic__remeshing_1_1_isotropic_remeshing.html#a052c60a578dc44a0124717e9e0332aa4" target="_top" xlink:title=" ">
<polygon fill="white" stroke="#666666" points="831,-342.5 655,-342.5 655,-301.5 831,-301.5 831,-342.5"/>
<text text-anchor="start" x="663" y="-330.5" font-family="Helvetica,sans-Serif" font-size="10.00">wmtk::components::isotropic</text>
<text text-anchor="start" x="663" y="-319.5" font-family="Helvetica,sans-Serif" font-size="10.00">_remeshing::IsotropicRemeshing</text>
<text text-anchor="middle" x="743" y="-308.5" font-family="Helvetica,sans-Serif" font-size="10.00">::is_envelope_position</text>
</a>
</g>
</g>
<!-- Node3&#45;&gt;Node21 -->
<g id="edge21_Node000003_Node000021" class="edge">
<title>Node3&#45;&gt;Node21</title>
<g id="a_edge21_Node000003_Node000021"><a xlink:title=" ">
<path fill="none" stroke="#63b8ff" d="M600.23,-318.9C614.71,-319.22 629.81,-319.55 644.52,-319.87"/>
<polygon fill="#63b8ff" stroke="#63b8ff" points="644.56,-323.37 654.64,-320.09 644.71,-316.37 644.56,-323.37"/>
</a>
</g>
</g>
<!-- Node6 -->
<g id="Node000006" class="node">
<title>Node6</title>
<g id="a_Node000006"><a xlink:href="namespacewmtk_1_1components_1_1multimesh_1_1utils.html#a82d42640978a9aa4ba485febac8b68d0" target="_top" xlink:title=" ">
<polygon fill="white" stroke="#666666" points="1055,-176 886,-176 886,-146 1055,-146 1055,-176"/>
<text text-anchor="start" x="894" y="-164" font-family="Helvetica,sans-Serif" font-size="10.00">wmtk::components::multimesh</text>
<text text-anchor="middle" x="970.5" y="-153" font-family="Helvetica,sans-Serif" font-size="10.00">::utils::get_attribute</text>
</a>
</g>
</g>
<!-- Node5&#45;&gt;Node6 -->
<g id="edge5_Node000005_Node000006" class="edge">
<title>Node5&#45;&gt;Node6</title>
<g id="a_edge5_Node000005_Node000006"><a xlink:title=" ">
<path fill="none" stroke="#63b8ff" d="M789.36,-242.48C829.44,-224.35 887.45,-198.11 926.73,-180.35"/>
<polygon fill="#63b8ff" stroke="#63b8ff" points="928.62,-183.33 936.29,-176.02 925.73,-176.96 928.62,-183.33"/>
</a>
</g>
</g>
<!-- Node7 -->
<g id="Node000007" class="node">
<title>Node7</title>
<g id="a_Node000007"><a xlink:href="namespacewmtk_1_1components_1_1multimesh_1_1utils.html#a2efaab47b2efdb004ae28e811d6c04c4" target="_top" xlink:title=" ">
<polygon fill="white" stroke="#666666" points="1271,-104 1091,-104 1091,-74 1271,-74 1271,-104"/>
<text text-anchor="start" x="1099" y="-92" font-family="Helvetica,sans-Serif" font-size="10.00">wmtk::components::multimesh</text>
<text text-anchor="middle" x="1181" y="-81" font-family="Helvetica,sans-Serif" font-size="10.00">::utils::decompose_attribute_path</text>
</a>
</g>
</g>
<!-- Node6&#45;&gt;Node7 -->
<g id="edge6_Node000006_Node000007" class="edge">
<title>Node6&#45;&gt;Node7</title>
<g id="a_edge6_Node000006_Node000007"><a xlink:title=" ">
<path fill="none" stroke="#63b8ff" d="M1032.51,-145.85C1040.21,-143.25 1047.88,-140.3 1055,-137 1072.45,-128.91 1073.49,-120.94 1091,-113 1095.41,-111 1100.03,-109.14 1104.73,-107.4"/>
<polygon fill="#63b8ff" stroke="#63b8ff" points="1106.18,-110.61 1114.49,-104.04 1103.89,-103.99 1106.18,-110.61"/>
</a>
</g>
</g>
<!-- Node8 -->
<g id="Node000008" class="node">
<title>Node8</title>
<g id="a_Node000008"><a xlink:href="namespacewmtk_1_1components_1_1multimesh_1_1utils_1_1detail.html#a74ad95cd049405e25bc2b4e5355bdc54" target="_top" xlink:title=" ">
<polygon fill="white" stroke="#666666" points="1265.5,-200 1096.5,-200 1096.5,-170 1265.5,-170 1265.5,-200"/>
<text text-anchor="start" x="1104.5" y="-188" font-family="Helvetica,sans-Serif" font-size="10.00">wmtk::components::multimesh</text>
<text text-anchor="middle" x="1181" y="-177" font-family="Helvetica,sans-Serif" font-size="10.00">::utils::detail::get_attribute</text>
</a>
</g>
</g>
<!-- Node6&#45;&gt;Node8 -->
<g id="edge7_Node000006_Node000008" class="edge">
<title>Node6&#45;&gt;Node8</title>
<g id="a_edge7_Node000006_Node000008"><a xlink:title=" ">
<path fill="none" stroke="#63b8ff" d="M1055.1,-170.62C1065.41,-171.81 1075.99,-173.03 1086.43,-174.23"/>
<polygon fill="#63b8ff" stroke="#63b8ff" points="1086.04,-177.71 1096.38,-175.37 1086.84,-170.75 1086.04,-177.71"/>
</a>
</g>
</g>
<!-- Node14 -->
<g id="Node000014" class="node">
<title>Node14</title>
<g id="a_Node000014"><a xlink:href="classwmtk_1_1components_1_1multimesh_1_1_named_multi_mesh.html#a4872fdeb1da1b70569807a0d77c6df52" target="_top" xlink:title=" ">
<polygon fill="white" stroke="#666666" points="1265.5,-152 1096.5,-152 1096.5,-122 1265.5,-122 1265.5,-152"/>
<text text-anchor="start" x="1104.5" y="-140" font-family="Helvetica,sans-Serif" font-size="10.00">wmtk::components::multimesh</text>
<text text-anchor="middle" x="1181" y="-129" font-family="Helvetica,sans-Serif" font-size="10.00">::NamedMultiMesh::get_mesh</text>
</a>
</g>
</g>
<!-- Node6&#45;&gt;Node14 -->
<g id="edge14_Node000006_Node000014" class="edge">
<title>Node6&#45;&gt;Node14</title>
<g id="a_edge14_Node000006_Node000014"><a xlink:title=" ">
<path fill="none" stroke="#63b8ff" d="M1055.1,-151.38C1065.41,-150.19 1075.99,-148.97 1086.43,-147.77"/>
<polygon fill="#63b8ff" stroke="#63b8ff" points="1086.84,-151.25 1096.38,-146.63 1086.04,-144.29 1086.84,-151.25"/>
</a>
</g>
</g>
<!-- Node19 -->
<g id="Node000019" class="node">
<title>Node19</title>
<g id="a_Node000019"><a xlink:href="structwmtk_1_1components_1_1multimesh_1_1utils_1_1_attribute_description.html#a300d0165aafc5dfdeb96bfce804cdd25" target="_top" xlink:title=" ">
<polygon fill="white" stroke="#666666" points="1265.5,-52.5 1096.5,-52.5 1096.5,-11.5 1265.5,-11.5 1265.5,-52.5"/>
<text text-anchor="start" x="1104.5" y="-40.5" font-family="Helvetica,sans-Serif" font-size="10.00">wmtk::components::multimesh</text>
<text text-anchor="start" x="1104.5" y="-29.5" font-family="Helvetica,sans-Serif" font-size="10.00">::utils::AttributeDescription</text>
<text text-anchor="middle" x="1181" y="-18.5" font-family="Helvetica,sans-Serif" font-size="10.00">::primitive_type</text>
</a>
</g>
</g>
<!-- Node6&#45;&gt;Node19 -->
<g id="edge19_Node000006_Node000019" class="edge">
<title>Node6&#45;&gt;Node19</title>
<g id="a_edge19_Node000006_Node000019"><a xlink:title=" ">
<path fill="none" stroke="#63b8ff" d="M1041.26,-145.98C1046.17,-143.44 1050.82,-140.47 1055,-137 1082.51,-114.13 1064.37,-88.89 1091,-65 1093.8,-62.49 1096.81,-60.16 1099.97,-58"/>
<polygon fill="#63b8ff" stroke="#63b8ff" points="1101.94,-60.9 1108.65,-52.69 1098.29,-54.93 1101.94,-60.9"/>
</a>
</g>
</g>
<!-- Node9 -->
<g id="Node000009" class="node">
<title>Node9</title>
<g id="a_Node000009"><a xlink:href="classwmtk_1_1_mesh.html#a335d3c86fd7d291b564a44944be6bf79" target="_top" xlink:title=" ">
<polygon fill="white" stroke="#666666" points="1464.5,-234 1318.5,-234 1318.5,-204 1464.5,-204 1464.5,-234"/>
<text text-anchor="start" x="1326.5" y="-222" font-family="Helvetica,sans-Serif" font-size="10.00">wmtk::Mesh::get_attribute</text>
<text text-anchor="middle" x="1391.5" y="-211" font-family="Helvetica,sans-Serif" font-size="10.00">_handle</text>
</a>
</g>
</g>
<!-- Node8&#45;&gt;Node9 -->
<g id="edge8_Node000008_Node000009" class="edge">
<title>Node8&#45;&gt;Node9</title>
<g id="a_edge8_Node000008_Node000009"><a xlink:title=" ">
<path fill="none" stroke="#63b8ff" d="M1265.6,-198.63C1279.64,-200.92 1294.2,-203.3 1308.21,-205.58"/>
<polygon fill="#63b8ff" stroke="#63b8ff" points="1307.86,-209.07 1318.29,-207.23 1308.99,-202.16 1307.86,-209.07"/>
</a>
</g>
</g>
<!-- Node10 -->
<g id="Node000010" class="node">
<title>Node10</title>
<g id="a_Node000010"><a xlink:href="namespacewmtk.html#a5cf45c152e856196bb734c6f48919a24" target="_top" xlink:title="Get a unique integer id corresponding to each primitive type.">
<polygon fill="white" stroke="#666666" points="1449.5,-186 1333.5,-186 1333.5,-156 1449.5,-156 1449.5,-186"/>
<text text-anchor="start" x="1341.5" y="-174" font-family="Helvetica,sans-Serif" font-size="10.00">wmtk::get_primitive</text>
<text text-anchor="middle" x="1391.5" y="-163" font-family="Helvetica,sans-Serif" font-size="10.00">_type_id</text>
</a>
</g>
</g>
<!-- Node8&#45;&gt;Node10 -->
<g id="edge9_Node000008_Node000010" class="edge">
<title>Node8&#45;&gt;Node10</title>
<g id="a_edge9_Node000008_Node000010"><a xlink:title=" ">
<path fill="none" stroke="#63b8ff" d="M1265.6,-179.39C1284.82,-178.1 1305.01,-176.74 1323.42,-175.5"/>
<polygon fill="#63b8ff" stroke="#63b8ff" points="1323.7,-178.99 1333.44,-174.83 1323.23,-172.01 1323.7,-178.99"/>
</a>
</g>
</g>
<!-- Node11 -->
<g id="Node000011" class="node">
<title>Node11</title>
<g id="a_Node000011"><a xlink:href="classwmtk_1_1_mesh.html#a89b735bef9cbf8d5ab955d23f787b70f" target="_top" xlink:title=" ">
<polygon fill="white" stroke="#666666" points="1465,-330.5 1318,-330.5 1318,-311.5 1465,-311.5 1465,-330.5"/>
<text text-anchor="middle" x="1391.5" y="-318.5" font-family="Helvetica,sans-Serif" font-size="10.00">wmtk::Mesh::has_attribute</text>
</a>
</g>
</g>
<!-- Node8&#45;&gt;Node11 -->
<g id="edge10_Node000008_Node000011" class="edge">
<title>Node8&#45;&gt;Node11</title>
<g id="a_edge10_Node000008_Node000011"><a xlink:title=" ">
<path fill="none" stroke="#63b8ff" d="M1208.06,-200.2C1226.9,-211.99 1252.23,-229.56 1271,-249 1291.03,-269.75 1283.15,-286.77 1307,-303 1309.28,-304.55 1311.66,-305.97 1314.13,-307.27"/>
<polygon fill="#63b8ff" stroke="#63b8ff" points="1312.82,-310.52 1323.38,-311.48 1315.72,-304.15 1312.82,-310.52"/>
</a>
</g>
</g>
<!-- Node13 -->
<g id="Node000013" class="node">
<title>Node13</title>
<g id="a_Node000013"><a xlink:href="classwmtk_1_1components_1_1multimesh_1_1utils_1_1detail_1_1attribute__missing__error.html#a1fd61a1550a62b7b6ae44e60b1c9c6d8" target="_top" xlink:title=" ">
<polygon fill="white" stroke="#666666" points="1476,-137.5 1307,-137.5 1307,-96.5 1476,-96.5 1476,-137.5"/>
<text text-anchor="start" x="1315" y="-125.5" font-family="Helvetica,sans-Serif" font-size="10.00">wmtk::components::multimesh</text>
<text text-anchor="start" x="1315" y="-114.5" font-family="Helvetica,sans-Serif" font-size="10.00">::utils::detail::attribute</text>
<text text-anchor="middle" x="1391.5" y="-103.5" font-family="Helvetica,sans-Serif" font-size="10.00">_missing_error::make</text>
</a>
</g>
</g>
<!-- Node8&#45;&gt;Node13 -->
<g id="edge13_Node000008_Node000013" class="edge">
<title>Node8&#45;&gt;Node13</title>
<g id="a_edge13_Node000008_Node000013"><a xlink:title=" ">
<path fill="none" stroke="#63b8ff" d="M1241.63,-169.87C1251.49,-167.1 1261.57,-164.09 1271,-161 1287.31,-155.65 1290.92,-153.01 1307,-147 1312.14,-145.08 1317.47,-143.11 1322.83,-141.15"/>
<polygon fill="#63b8ff" stroke="#63b8ff" points="1324.29,-144.34 1332.48,-137.62 1321.89,-137.76 1324.29,-144.34"/>
</a>
</g>
</g>
<!-- Node11&#45;&gt;Node11 -->
<g id="edge12_Node000011_Node000011" class="edge">
<title>Node11&#45;&gt;Node11</title>
<g id="a_edge12_Node000011_Node000011"><a xlink:title=" ">
<path fill="none" stroke="#63b8ff" d="M1360.06,-330.58C1344.76,-339.23 1355.24,-348.5 1391.5,-348.5 1416.99,-348.5 1429.74,-343.92 1429.75,-338.19"/>
<polygon fill="#63b8ff" stroke="#63b8ff" points="1432.22,-335.7 1422.94,-330.58 1427,-340.37 1432.22,-335.7"/>
</a>
</g>
</g>
<!-- Node12 -->
<g id="Node000012" class="node">
<title>Node12</title>
<g id="a_Node000012"><a xlink:href="classwmtk_1_1attribute_1_1_attribute_manager.html#a2169001c03d75b77488dba8494038fe5" target="_top" xlink:title=" ">
<polygon fill="white" stroke="#666666" points="2038,-338 1897,-338 1897,-308 2038,-308 2038,-338"/>
<text text-anchor="start" x="1905" y="-326" font-family="Helvetica,sans-Serif" font-size="10.00">wmtk::attribute::Attribute</text>
<text text-anchor="middle" x="1967.5" y="-315" font-family="Helvetica,sans-Serif" font-size="10.00">Manager::get</text>
</a>
</g>
</g>
<!-- Node11&#45;&gt;Node12 -->
<g id="edge11_Node000011_Node000012" class="edge">
<title>Node11&#45;&gt;Node12</title>
<g id="a_edge11_Node000011_Node000012"><a xlink:title=" ">
<path fill="none" stroke="#63b8ff" d="M1465.2,-321.25C1573,-321.63 1774.52,-322.33 1886.42,-322.72"/>
<polygon fill="#63b8ff" stroke="#63b8ff" points="1886.62,-326.22 1896.63,-322.76 1886.65,-319.22 1886.62,-326.22"/>
</a>
</g>
</g>
<!-- Node15 -->
<g id="Node000015" class="node">
<title>Node15</title>
<g id="a_Node000015"><a xlink:href="classwmtk_1_1components_1_1multimesh_1_1_named_multi_mesh.html#a0a47aede86bb45377eae74c01d313544" target="_top" xlink:title=" ">
<polygon fill="white" stroke="#666666" points="1476,-78 1307,-78 1307,-48 1476,-48 1476,-78"/>
<text text-anchor="start" x="1315" y="-66" font-family="Helvetica,sans-Serif" font-size="10.00">wmtk::components::multimesh</text>
<text text-anchor="middle" x="1391.5" y="-55" font-family="Helvetica,sans-Serif" font-size="10.00">::NamedMultiMesh::get_id</text>
</a>
</g>
</g>
<!-- Node14&#45;&gt;Node15 -->
<g id="edge15_Node000014_Node000015" class="edge">
<title>Node14&#45;&gt;Node15</title>
<g id="a_edge15_Node000014_Node000015"><a xlink:title=" ">
<path fill="none" stroke="#63b8ff" d="M1248.58,-121.91C1256.29,-119.33 1263.92,-116.37 1271,-113 1288.82,-104.51 1289.25,-95.63 1307,-87 1311,-85.05 1315.19,-83.24 1319.46,-81.55"/>
<polygon fill="#63b8ff" stroke="#63b8ff" points="1320.76,-84.8 1328.93,-78.05 1318.34,-78.23 1320.76,-84.8"/>
</a>
</g>
</g>
<!-- Node16 -->
<g id="Node000016" class="node">
<title>Node16</title>
<g id="a_Node000016"><a xlink:href="namespacewmtk.html#a6a35f11c12436093d26fdd8be6fecc06" target="_top" xlink:title="Retrieves the current logger.">
<polygon fill="white" stroke="#666666" points="1637.5,-93.5 1556.5,-93.5 1556.5,-74.5 1637.5,-74.5 1637.5,-93.5"/>
<text text-anchor="middle" x="1597" y="-81.5" font-family="Helvetica,sans-Serif" font-size="10.00">wmtk::logger</text>
</a>
</g>
</g>
<!-- Node15&#45;&gt;Node16 -->
<g id="edge16_Node000015_Node000016" class="edge">
<title>Node15&#45;&gt;Node16</title>
<g id="a_edge16_Node000015_Node000016"><a xlink:title=" ">
<path fill="none" stroke="#63b8ff" d="M1476.15,-71.63C1499.99,-74.09 1525.19,-76.69 1546.3,-78.87"/>
<polygon fill="#63b8ff" stroke="#63b8ff" points="1546.01,-82.36 1556.31,-79.9 1546.73,-75.4 1546.01,-82.36"/>
</a>
</g>
</g>
<!-- Node18 -->
<g id="Node000018" class="node">
<title>Node18</title>
<g id="a_Node000018"><a xlink:href="namespacewmtk_1_1components_1_1multimesh_1_1internal.html#a3b2338b45b680494e5501c97baa6f456" target="_top" xlink:title=" ">
<polygon fill="white" stroke="#666666" points="1681.5,-56 1512.5,-56 1512.5,-26 1681.5,-26 1681.5,-56"/>
<text text-anchor="start" x="1520.5" y="-44" font-family="Helvetica,sans-Serif" font-size="10.00">wmtk::components::multimesh</text>
<text text-anchor="middle" x="1597" y="-33" font-family="Helvetica,sans-Serif" font-size="10.00">::internal::split_path</text>
</a>
</g>
</g>
<!-- Node15&#45;&gt;Node18 -->
<g id="edge18_Node000015_Node000018" class="edge">
<title>Node15&#45;&gt;Node18</title>
<g id="a_edge18_Node000015_Node000018"><a xlink:title=" ">
<path fill="none" stroke="#63b8ff" d="M1476.15,-53.96C1484.74,-53.03 1493.51,-52.08 1502.2,-51.14"/>
<polygon fill="#63b8ff" stroke="#63b8ff" points="1502.78,-54.6 1512.34,-50.04 1502.03,-47.64 1502.78,-54.6"/>
</a>
</g>
</g>
<!-- Node17 -->
<g id="Node000017" class="node">
<title>Node17</title>
<g id="a_Node000017"><a xlink:href="namespacewmtk.html#a3daa7951a5f8b78cf4600dc047fcc180" target="_top" xlink:title="Setup a logger object to be used by WildmeshToolkit.">
<polygon fill="white" stroke="#666666" points="1840,-93.5 1739,-93.5 1739,-74.5 1840,-74.5 1840,-93.5"/>
<text text-anchor="middle" x="1789.5" y="-81.5" font-family="Helvetica,sans-Serif" font-size="10.00">wmtk::set_logger</text>
</a>
</g>
</g>
<!-- Node16&#45;&gt;Node17 -->
<g id="edge17_Node000016_Node000017" class="edge">
<title>Node16&#45;&gt;Node17</title>
<g id="a_edge17_Node000016_Node000017"><a xlink:title=" ">
<path fill="none" stroke="#63b8ff" d="M1637.94,-84C1664.19,-84 1699.02,-84 1728.57,-84"/>
<polygon fill="#63b8ff" stroke="#63b8ff" points="1728.78,-87.5 1738.78,-84 1728.78,-80.5 1728.78,-87.5"/>
</a>
</g>
</g>
<!-- Node20 -->
<g id="Node000020" class="node">
<title>Node20</title>
<g id="a_Node000020"><a xlink:href="namespacewmtk.html#a3b08a5d7fb42f02c54bae85758b39f59" target="_top" xlink:title="Get the primitive type corresponding to its unique integer id.">
<polygon fill="white" stroke="#666666" points="1449.5,-30 1333.5,-30 1333.5,0 1449.5,0 1449.5,-30"/>
<text text-anchor="start" x="1341.5" y="-18" font-family="Helvetica,sans-Serif" font-size="10.00">wmtk::get_primitive</text>
<text text-anchor="middle" x="1391.5" y="-7" font-family="Helvetica,sans-Serif" font-size="10.00">_type_from_id</text>
</a>
</g>
</g>
<!-- Node19&#45;&gt;Node20 -->
<g id="edge20_Node000019_Node000020" class="edge">
<title>Node19&#45;&gt;Node20</title>
<g id="a_edge20_Node000019_Node000020"><a xlink:title=" ">
<path fill="none" stroke="#63b8ff" d="M1265.6,-25.18C1284.82,-23.62 1305.01,-21.97 1323.42,-20.47"/>
<polygon fill="#63b8ff" stroke="#63b8ff" points="1323.76,-23.95 1333.44,-19.65 1323.19,-16.98 1323.76,-23.95"/>
</a>
</g>
</g>
<!-- Node22 -->
<g id="Node000022" class="node">
<title>Node22</title>
<g id="a_Node000022"><a xlink:href="classwmtk_1_1attribute_1_1_mesh_attribute_handle.html#a3c2f0b99a4f3581ac8da264d10c493a1" target="_top" xlink:title=" ">
<polygon fill="white" stroke="#666666" points="1054,-326 887,-326 887,-296 1054,-296 1054,-326"/>
<text text-anchor="start" x="895" y="-314" font-family="Helvetica,sans-Serif" font-size="10.00">wmtk::attribute::MeshAttribute</text>
<text text-anchor="middle" x="970.5" y="-303" font-family="Helvetica,sans-Serif" font-size="10.00">Handle::dimension</text>
</a>
</g>
</g>
<!-- Node21&#45;&gt;Node22 -->
<g id="edge22_Node000021_Node000022" class="edge">
<title>Node21&#45;&gt;Node22</title>
<g id="a_edge22_Node000021_Node000022"><a xlink:title=" ">
<path fill="none" stroke="#63b8ff" d="M831.18,-317.75C846.09,-317.02 861.62,-316.26 876.66,-315.53"/>
<polygon fill="#63b8ff" stroke="#63b8ff" points="877.17,-319.01 886.99,-315.03 876.83,-312.02 877.17,-319.01"/>
</a>
</g>
</g>
<!-- Node21&#45;&gt;Node27 -->
<g id="edge36_Node000021_Node000027" class="edge">
<title>Node21&#45;&gt;Node27</title>
<g id="a_edge36_Node000021_Node000027"><a xlink:title=" ">
<path fill="none" stroke="#63b8ff" d="M829.21,-342.51C836.4,-345.32 843.43,-348.47 850,-352 868.6,-362 866.57,-374.74 886,-383 922.81,-398.65 1161.99,-415.79 1297.39,-424.4"/>
<polygon fill="#63b8ff" stroke="#63b8ff" points="1297.55,-427.91 1307.75,-425.05 1297.99,-420.93 1297.55,-427.91"/>
</a>
</g>
</g>
<!-- Node32 -->
<g id="Node000032" class="node">
<title>Node32</title>
<g id="a_Node000032"><a xlink:href="classwmtk_1_1_mesh.html#a933f681cf24a63b155c9462280385200" target="_top" xlink:title=" ">
<polygon fill="white" stroke="#666666" points="1031,-374 910,-374 910,-344 1031,-344 1031,-374"/>
<text text-anchor="start" x="918" y="-362" font-family="Helvetica,sans-Serif" font-size="10.00">wmtk::Mesh::top_cell</text>
<text text-anchor="middle" x="970.5" y="-351" font-family="Helvetica,sans-Serif" font-size="10.00">_dimension</text>
</a>
</g>
</g>
<!-- Node21&#45;&gt;Node32 -->
<g id="edge37_Node000021_Node000032" class="edge">
<title>Node21&#45;&gt;Node32</title>
<g id="a_edge37_Node000021_Node000032"><a xlink:title=" ">
<path fill="none" stroke="#63b8ff" d="M831.18,-336.31C853.87,-340.03 878.01,-343.99 899.66,-347.54"/>
<polygon fill="#63b8ff" stroke="#63b8ff" points="899.32,-351.03 909.75,-349.2 900.45,-344.12 899.32,-351.03"/>
</a>
</g>
</g>
<!-- Node23 -->
<g id="Node000023" class="node">
<title>Node23</title>
<g id="a_Node000023"><a xlink:href="classwmtk_1_1attribute_1_1_mesh_attribute_handle.html#a7f60b49ee06ab72a15ba0507ce2a0316" target="_top" xlink:title=" ">
<polygon fill="white" stroke="#666666" points="1264.5,-336 1097.5,-336 1097.5,-306 1264.5,-306 1264.5,-336"/>
<text text-anchor="start" x="1105.5" y="-324" font-family="Helvetica,sans-Serif" font-size="10.00">wmtk::attribute::MeshAttribute</text>
<text text-anchor="middle" x="1181" y="-313" font-family="Helvetica,sans-Serif" font-size="10.00">Handle::exists</text>
</a>
</g>
</g>
<!-- Node22&#45;&gt;Node23 -->
<g id="edge23_Node000022_Node000023" class="edge">
<title>Node22&#45;&gt;Node23</title>
<g id="a_edge23_Node000022_Node000023"><a xlink:title=" ">
<path fill="none" stroke="#63b8ff" d="M1054.2,-314.97C1065.09,-315.49 1076.29,-316.03 1087.33,-316.56"/>
<polygon fill="#63b8ff" stroke="#63b8ff" points="1087.24,-320.05 1097.4,-317.04 1087.58,-313.06 1087.24,-320.05"/>
</a>
</g>
</g>
<!-- Node22&#45;&gt;Node27 -->
<g id="edge35_Node000022_Node000027" class="edge">
<title>Node22&#45;&gt;Node27</title>
<g id="a_edge35_Node000022_Node000027"><a xlink:title=" ">
<path fill="none" stroke="#63b8ff" d="M1023.93,-326.03C1052.8,-334.28 1084.14,-343.21 1091,-345 1170.57,-365.81 1193.71,-359.87 1271,-388 1287.81,-394.12 1290.33,-399.5 1307,-406 1312.18,-408.02 1317.6,-409.96 1323.09,-411.79"/>
<polygon fill="#63b8ff" stroke="#63b8ff" points="1322.4,-415.25 1332.99,-414.98 1324.54,-408.58 1322.4,-415.25"/>
</a>
</g>
</g>
<!-- Node28 -->
<g id="Node000028" class="node">
<title>Node28</title>
<g id="a_Node000028"><a xlink:href="classwmtk_1_1_mesh.html#a4f546f0125de42db771686220d77ec78" target="_top" xlink:title=" ">
<polygon fill="white" stroke="#666666" points="1254,-288 1108,-288 1108,-258 1254,-258 1254,-288"/>
<text text-anchor="start" x="1116" y="-276" font-family="Helvetica,sans-Serif" font-size="10.00">wmtk::Mesh::get_attribute</text>
<text text-anchor="middle" x="1181" y="-265" font-family="Helvetica,sans-Serif" font-size="10.00">_dimension</text>
</a>
</g>
</g>
<!-- Node22&#45;&gt;Node28 -->
<g id="edge30_Node000022_Node000028" class="edge">
<title>Node22&#45;&gt;Node28</title>
<g id="a_edge30_Node000022_Node000028"><a xlink:title=" ">
<path fill="none" stroke="#63b8ff" d="M1053.9,-295.98C1068.42,-293.34 1083.54,-290.58 1098.04,-287.94"/>
<polygon fill="#63b8ff" stroke="#63b8ff" points="1098.77,-291.36 1107.98,-286.13 1097.51,-284.48 1098.77,-291.36"/>
</a>
</g>
</g>
<!-- Node23&#45;&gt;Node11 -->
<g id="edge24_Node000023_Node000011" class="edge">
<title>Node23&#45;&gt;Node11</title>
<g id="a_edge24_Node000023_Node000011"><a xlink:title=" ">
<path fill="none" stroke="#63b8ff" d="M1264.7,-321C1278.79,-321 1293.43,-321 1307.53,-321"/>
<polygon fill="#63b8ff" stroke="#63b8ff" points="1307.68,-324.5 1317.68,-321 1307.68,-317.5 1307.68,-324.5"/>
</a>
</g>
</g>
<!-- Node24 -->
<g id="Node000024" class="node">
<title>Node24</title>
<g id="a_Node000024"><a xlink:href="classwmtk_1_1attribute_1_1_mesh_attribute_handle.html#ad577111f5b1fd05f60fae4b7f0ddb1f6" target="_top" xlink:title="Returns true if handle was initialized.">
<polygon fill="white" stroke="#666666" points="1475,-397 1308,-397 1308,-367 1475,-367 1475,-397"/>
<text text-anchor="start" x="1316" y="-385" font-family="Helvetica,sans-Serif" font-size="10.00">wmtk::attribute::MeshAttribute</text>
<text text-anchor="middle" x="1391.5" y="-374" font-family="Helvetica,sans-Serif" font-size="10.00">Handle::is_valid</text>
</a>
</g>
</g>
<!-- Node23&#45;&gt;Node24 -->
<g id="edge25_Node000023_Node000024" class="edge">
<title>Node23&#45;&gt;Node24</title>
<g id="a_edge25_Node000023_Node000024"><a xlink:title=" ">
<path fill="none" stroke="#63b8ff" d="M1232.45,-336.03C1255.22,-342.79 1282.45,-350.84 1307,-358 1313.87,-360 1321.06,-362.09 1328.22,-364.16"/>
<polygon fill="#63b8ff" stroke="#63b8ff" points="1327.34,-367.55 1337.92,-366.96 1329.28,-360.82 1327.34,-367.55"/>
</a>
</g>
</g>
<!-- Node23&#45;&gt;Node27 -->
<g id="edge29_Node000023_Node000027" class="edge">
<title>Node23&#45;&gt;Node27</title>
<g id="a_edge29_Node000023_Node000027"><a xlink:title=" ">
<path fill="none" stroke="#63b8ff" d="M1246.43,-336.07C1255.19,-339.76 1263.67,-344.34 1271,-350 1294.42,-368.08 1283.26,-388.34 1307,-406 1308.87,-407.39 1310.81,-408.7 1312.82,-409.93"/>
<polygon fill="#63b8ff" stroke="#63b8ff" points="1311.51,-413.2 1321.98,-414.87 1314.84,-407.04 1311.51,-413.2"/>
</a>
</g>
</g>
<!-- Node25 -->
<g id="Node000025" class="node">
<title>Node25</title>
<g id="a_Node000025"><a xlink:href="classwmtk_1_1_mesh.html#a73ea62ce0428cf64f836f77482a87c40" target="_top" xlink:title=" ">
<polygon fill="white" stroke="#666666" points="1658,-394 1536,-394 1536,-364 1658,-364 1658,-394"/>
<text text-anchor="start" x="1544" y="-382" font-family="Helvetica,sans-Serif" font-size="10.00">wmtk::Mesh::validate</text>
<text text-anchor="middle" x="1597" y="-371" font-family="Helvetica,sans-Serif" font-size="10.00">_handle</text>
</a>
</g>
</g>
<!-- Node24&#45;&gt;Node25 -->
<g id="edge26_Node000024_Node000025" class="edge">
<title>Node24&#45;&gt;Node25</title>
<g id="a_edge26_Node000024_Node000025"><a xlink:title=" ">
<path fill="none" stroke="#63b8ff" d="M1475.27,-380.78C1491.88,-380.53 1509.19,-380.28 1525.34,-380.04"/>
<polygon fill="#63b8ff" stroke="#63b8ff" points="1525.82,-383.54 1535.77,-379.89 1525.72,-376.54 1525.82,-383.54"/>
</a>
</g>
</g>
<!-- Node26 -->
<g id="Node000026" class="node">
<title>Node26</title>
<g id="a_Node000026"><a xlink:href="classwmtk_1_1attribute_1_1_attribute_manager.html#a3b1a087ab6c03a0f2e6a6a93b87f3147" target="_top" xlink:title=" ">
<polygon fill="white" stroke="#666666" points="1861,-385 1718,-385 1718,-355 1861,-355 1861,-385"/>
<text text-anchor="start" x="1726" y="-373" font-family="Helvetica,sans-Serif" font-size="10.00">wmtk::attribute::Attribute</text>
<text text-anchor="middle" x="1789.5" y="-362" font-family="Helvetica,sans-Serif" font-size="10.00">Manager::validate_handle</text>
</a>
</g>
</g>
<!-- Node25&#45;&gt;Node26 -->
<g id="edge27_Node000025_Node000026" class="edge">
<title>Node25&#45;&gt;Node26</title>
<g id="a_edge27_Node000025_Node000026"><a xlink:title=" ">
<path fill="none" stroke="#63b8ff" d="M1658.01,-376.16C1673.73,-375.42 1690.93,-374.61 1707.54,-373.82"/>
<polygon fill="#63b8ff" stroke="#63b8ff" points="1707.97,-377.31 1717.79,-373.34 1707.64,-370.32 1707.97,-377.31"/>
</a>
</g>
</g>
<!-- Node26&#45;&gt;Node12 -->
<g id="edge28_Node000026_Node000012" class="edge">
<title>Node26&#45;&gt;Node12</title>
<g id="a_edge28_Node000026_Node000012"><a xlink:title=" ">
<path fill="none" stroke="#63b8ff" d="M1846.67,-355C1863.82,-350.42 1882.83,-345.34 1900.56,-340.61"/>
<polygon fill="#63b8ff" stroke="#63b8ff" points="1901.5,-343.98 1910.26,-338.02 1899.69,-337.22 1901.5,-343.98"/>
</a>
</g>
</g>
<!-- Node29 -->
<g id="Node000029" class="node">
<title>Node29</title>
<g id="a_Node000029"><a xlink:href="classwmtk_1_1attribute_1_1_attribute_manager.html#a4ae249faad236f8d98287c3ec61e987e" target="_top" xlink:title=" ">
<polygon fill="white" stroke="#666666" points="1462,-293.5 1321,-293.5 1321,-252.5 1462,-252.5 1462,-293.5"/>
<text text-anchor="start" x="1329" y="-281.5" font-family="Helvetica,sans-Serif" font-size="10.00">wmtk::attribute::Attribute</text>
<text text-anchor="start" x="1329" y="-270.5" font-family="Helvetica,sans-Serif" font-size="10.00">Manager::get_attribute</text>
<text text-anchor="middle" x="1391.5" y="-259.5" font-family="Helvetica,sans-Serif" font-size="10.00">_dimension</text>
</a>
</g>
</g>
<!-- Node28&#45;&gt;Node29 -->
<g id="edge31_Node000028_Node000029" class="edge">
<title>Node28&#45;&gt;Node29</title>
<g id="a_edge31_Node000028_Node000029"><a xlink:title=" ">
<path fill="none" stroke="#63b8ff" d="M1254.05,-273C1272.32,-273 1292.06,-273 1310.69,-273"/>
<polygon fill="#63b8ff" stroke="#63b8ff" points="1310.91,-276.5 1320.91,-273 1310.91,-269.5 1310.91,-276.5"/>
</a>
</g>
</g>
<!-- Node29&#45;&gt;Node12 -->
<g id="edge32_Node000029_Node000012" class="edge">
<title>Node29&#45;&gt;Node12</title>
<g id="a_edge32_Node000029_Node000012"><a xlink:title=" ">
<path fill="none" stroke="#63b8ff" d="M1462.02,-279.06C1569.08,-288.38 1773.71,-306.21 1886.68,-316.05"/>
<polygon fill="#63b8ff" stroke="#63b8ff" points="1886.38,-319.53 1896.65,-316.92 1886.99,-312.56 1886.38,-319.53"/>
</a>
</g>
</g>
<!-- Node30 -->
<g id="Node000030" class="node">
<title>Node30</title>
<g id="a_Node000030"><a xlink:href="classwmtk_1_1attribute_1_1_typed_attribute_handle.html#ad473b36dc43489bad4a345dceac443fa" target="_top" xlink:title=" ">
<polygon fill="white" stroke="#666666" points="1682,-257 1512,-257 1512,-227 1682,-227 1682,-257"/>
<text text-anchor="start" x="1520" y="-245" font-family="Helvetica,sans-Serif" font-size="10.00">wmtk::attribute::TypedAttribute</text>
<text text-anchor="middle" x="1597" y="-234" font-family="Helvetica,sans-Serif" font-size="10.00">Handle::is_valid</text>
</a>
</g>
</g>
<!-- Node29&#45;&gt;Node30 -->
<g id="edge33_Node000029_Node000030" class="edge">
<title>Node29&#45;&gt;Node30</title>
<g id="a_edge33_Node000029_Node000030"><a xlink:title=" ">
<path fill="none" stroke="#63b8ff" d="M1462.25,-262.37C1474.99,-260.43 1488.48,-258.38 1501.8,-256.35"/>
<polygon fill="#63b8ff" stroke="#63b8ff" points="1502.58,-259.77 1511.93,-254.81 1501.52,-252.85 1502.58,-259.77"/>
</a>
</g>
</g>
<!-- Node31 -->
<g id="Node000031" class="node">
<title>Node31</title>
<g id="a_Node000031"><a xlink:href="classwmtk_1_1attribute_1_1_attribute_handle.html#afbe0d658f352336562850deaca347fe6" target="_top" xlink:title=" ">
<polygon fill="white" stroke="#666666" points="1860,-257 1719,-257 1719,-227 1860,-227 1860,-257"/>
<text text-anchor="start" x="1727" y="-245" font-family="Helvetica,sans-Serif" font-size="10.00">wmtk::attribute::Attribute</text>
<text text-anchor="middle" x="1789.5" y="-234" font-family="Helvetica,sans-Serif" font-size="10.00">Handle::is_valid</text>
</a>
</g>
</g>
<!-- Node30&#45;&gt;Node31 -->
<g id="edge34_Node000030_Node000031" class="edge">
<title>Node30&#45;&gt;Node31</title>
<g id="a_edge34_Node000030_Node000031"><a xlink:title=" ">
<path fill="none" stroke="#63b8ff" d="M1682.11,-242C1690.92,-242 1699.86,-242 1708.63,-242"/>
<polygon fill="#63b8ff" stroke="#63b8ff" points="1708.81,-245.5 1718.81,-242 1708.81,-238.5 1708.81,-245.5"/>
</a>
</g>
</g>
<!-- Node34 -->
<g id="Node000034" class="node">
<title>Node34</title>
<g id="a_Node000034"><a xlink:href="classwmtk_1_1multimesh_1_1_multi_mesh_manager.html#a434e74f6b295055a45914d41a784124a" target="_top" xlink:title=" ">
<polygon fill="white" stroke="#666666" points="823,-143 663,-143 663,-113 823,-113 823,-143"/>
<text text-anchor="start" x="671" y="-131" font-family="Helvetica,sans-Serif" font-size="10.00">wmtk::multimesh::MultiMesh</text>
<text text-anchor="middle" x="743" y="-120" font-family="Helvetica,sans-Serif" font-size="10.00">Manager::get_root_mesh</text>
</a>
</g>
</g>
<!-- Node33&#45;&gt;Node34 -->
<g id="edge40_Node000033_Node000034" class="edge">
<title>Node33&#45;&gt;Node34</title>
<g id="a_edge40_Node000033_Node000034"><a xlink:title=" ">
<path fill="none" stroke="#63b8ff" d="M556.07,-192.95C593.78,-179.78 648.68,-160.6 689.06,-146.49"/>
<polygon fill="#63b8ff" stroke="#63b8ff" points="690.45,-149.72 698.73,-143.12 688.14,-143.11 690.45,-149.72"/>
</a>
</g>
</g>
<!-- Node34&#45;&gt;Node34 -->
<g id="edge41_Node000034_Node000034" class="edge">
<title>Node34&#45;&gt;Node34</title>
<g id="a_edge41_Node000034_Node000034"><a xlink:title=" ">
<path fill="none" stroke="#63b8ff" d="M703.27,-143.28C694.45,-152.41 707.69,-161 743,-161 763.97,-161 777.15,-157.97 782.56,-153.6"/>
<polygon fill="#63b8ff" stroke="#63b8ff" points="786.06,-153.33 782.73,-143.28 779.06,-153.22 786.06,-153.33"/>
</a>
</g>
</g>
<!-- Node35 -->
<g id="Node000035" class="node">
<title>Node35</title>
<g id="a_Node000035"><a xlink:href="classwmtk_1_1multimesh_1_1_multi_mesh_manager.html#a7d39339adb56b1798fe817d81bfcc67c" target="_top" xlink:title="Specifies whether this structure is the root of a multi&#45;mesh tree.">
<polygon fill="white" stroke="#666666" points="1050.5,-128 890.5,-128 890.5,-98 1050.5,-98 1050.5,-128"/>
<text text-anchor="start" x="898.5" y="-116" font-family="Helvetica,sans-Serif" font-size="10.00">wmtk::multimesh::MultiMesh</text>
<text text-anchor="middle" x="970.5" y="-105" font-family="Helvetica,sans-Serif" font-size="10.00">Manager::is_root</text>
</a>
</g>
</g>
<!-- Node34&#45;&gt;Node35 -->
<g id="edge42_Node000034_Node000035" class="edge">
<title>Node34&#45;&gt;Node35</title>
<g id="a_edge42_Node000034_Node000035"><a xlink:title=" ">
<path fill="none" stroke="#63b8ff" d="M823.19,-122.73C841.58,-121.51 861.29,-120.2 880.09,-118.95"/>
<polygon fill="#63b8ff" stroke="#63b8ff" points="880.38,-122.44 890.12,-118.28 879.91,-115.45 880.38,-122.44"/>
</a>
</g>
</g>
</g>
</svg>

<g id="navigator" transform="translate(0 0)" fill="#404254">
  <rect fill="#f2f5e9" fill-opacity="0.5" stroke="#606060" stroke-width=".5" x="0" y="0" width="60" height="60"/>
  <use id="zoomplus" xlink:href="#zoomPlus" x="17" y="9" onmousedown="handleZoom(evt,'in')"/>
  <use id="zoomminus" xlink:href="#zoomMin" x="42" y="9" onmousedown="handleZoom(evt,'out')"/>
  <use id="reset" xlink:href="#resetDef" x="30" y="36" onmousedown="handleReset()"/>
   <use id="arrowup" xlink:href="#arrowUp" x="0" y="0" onmousedown="handlePan(0,-1)"/>
  <use id="arrowright" xlink:href="#arrowRight" x="0" y="0" onmousedown="handlePan(1,0)"/>
  <use id="arrowdown" xlink:href="#arrowDown" x="0" y="0" onmousedown="handlePan(0,1)"/>
  <use id="arrowleft" xlink:href="#arrowLeft" x="0" y="0" onmousedown="handlePan(-1,0)"/>
</g>
<svg viewBox="0 0 15 15" width="100%" height="30px" preserveAspectRatio="xMaxYMin meet">
 <g id="arrow_out" transform="scale(0.3 0.3)">
  <a xlink:href="classwmtk_1_1components_1_1isotropic__remeshing_1_1_isotropic_remeshing_aefd40b6c02e33452551477eb1c6371ce_cgraph_org.svg" target="_base">
   <rect id="button" ry="5" rx="5" y="6" x="6" height="38" width="38"
        fill="#f2f5e9" fill-opacity="0.5" stroke="#606060" stroke-width="1.0"/>
   <path id="arrow"
     d="M 11.500037,31.436501 C 11.940474,20.09759 22.043105,11.32322 32.158766,21.979434 L 37.068811,17.246167 C 37.068811,17.246167 37.088388,32 37.088388,32 L 22.160133,31.978069 C 22.160133,31.978069 26.997745,27.140456 26.997745,27.140456 C 18.528582,18.264221 13.291696,25.230495 11.500037,31.436501 z"
     style="fill:#404040;"/>
  </a>
 </g>
</svg>

<style type='text/css'>
<![CDATA[
[data-mouse-over-selected='false'] { opacity: 0.7; }
[data-mouse-over-selected='true']  { opacity: 1.0; }
]]>
</style>
<script type="application/ecmascript"><![CDATA[
document.addEventListener('DOMContentLoaded', (event) => {
  highlightEdges();
  highlightAdjacentNodes();
});
]]></script>
</svg>
