<?xml version="1.0" encoding="UTF-8" standalone="no"?>
<!DOCTYPE svg PUBLIC "-//W3C//DTD SVG 1.1//EN"
 "http://www.w3.org/Graphics/SVG/1.1/DTD/svg11.dtd">
<!-- Generated by graphviz version 2.43.0 (0)
 -->
<!-- Title: wmtk::multimesh::MultiMeshManager::register_child_mesh Pages: 1 -->
<svg width="777pt" height="591pt"
 viewBox="0.00 0.00 777.00 591.00" xmlns="http://www.w3.org/2000/svg" xmlns:xlink="http://www.w3.org/1999/xlink">
<g id="graph0" class="graph" transform="scale(1 1) rotate(0) translate(4 587)">
<title>wmtk::multimesh::MultiMeshManager::register_child_mesh</title>
<!-- Node1 -->
<g id="Node000001" class="node">
<title>Node1</title>
<g id="a_Node000001"><a xlink:title="register a another mesh as a child of this mesh.">
<polygon fill="#999999" stroke="#666666" points="164,-302 0,-302 0,-272 164,-272 164,-302"/>
<text text-anchor="start" x="8" y="-290" font-family="Helvetica,sans-Serif" font-size="10.00">wmtk::multimesh::MultiMesh</text>
<text text-anchor="middle" x="82" y="-279" font-family="Helvetica,sans-Serif" font-size="10.00">Manager::register_child_mesh</text>
</a>
</g>
</g>
<!-- Node2 -->
<g id="Node000002" class="node">
<title>Node2</title>
<g id="a_Node000002"><a xlink:href="classwmtk_1_1multimesh_1_1_multi_mesh_manager.html#a812e0992812b2c48a889e10ae9e50758" target="_top" xlink:title=" ">
<polygon fill="white" stroke="#666666" points="365,-565 205,-565 205,-535 365,-535 365,-565"/>
<text text-anchor="start" x="213" y="-553" font-family="Helvetica,sans-Serif" font-size="10.00">wmtk::multimesh::MultiMesh</text>
<text text-anchor="middle" x="285" y="-542" font-family="Helvetica,sans-Serif" font-size="10.00">Manager::absolute_id</text>
</a>
</g>
</g>
<!-- Node1&#45;&gt;Node2 -->
<g id="edge1_Node000001_Node000002" class="edge">
<title>Node1&#45;&gt;Node2</title>
<g id="a_edge1_Node000001_Node000002"><a xlink:title=" ">
<path fill="none" stroke="#63b8ff" d="M86.3,-302.03C96.12,-343.17 128.96,-458.72 200,-521 203.96,-524.47 208.35,-527.53 213,-530.23"/>
<polygon fill="#63b8ff" stroke="#63b8ff" points="211.71,-533.5 222.2,-534.98 214.92,-527.28 211.71,-533.5"/>
</a>
</g>
</g>
<!-- Node3 -->
<g id="Node000003" class="node">
<title>Node3</title>
<g id="a_Node000003"><a xlink:href="classwmtk_1_1multimesh_1_1_multi_mesh_manager.html#a7d39339adb56b1798fe817d81bfcc67c" target="_top" xlink:title="Specifies whether this structure is the root of a multi&#45;mesh tree.">
<polygon fill="white" stroke="#666666" points="566,-543 406,-543 406,-513 566,-513 566,-543"/>
<text text-anchor="start" x="414" y="-531" font-family="Helvetica,sans-Serif" font-size="10.00">wmtk::multimesh::MultiMesh</text>
<text text-anchor="middle" x="486" y="-520" font-family="Helvetica,sans-Serif" font-size="10.00">Manager::is_root</text>
</a>
</g>
</g>
<!-- Node1&#45;&gt;Node3 -->
<g id="edge9_Node000001_Node000003" class="edge">
<title>Node1&#45;&gt;Node3</title>
<g id="a_edge9_Node000001_Node000003"><a xlink:title=" ">
<path fill="none" stroke="#63b8ff" d="M86.9,-302.26C97.6,-340.72 131.29,-441.84 200,-488 231.18,-508.95 324.05,-519.09 395.38,-523.89"/>
<polygon fill="#63b8ff" stroke="#63b8ff" points="395.54,-527.4 405.74,-524.56 395.99,-520.42 395.54,-527.4"/>
</a>
</g>
</g>
<!-- Node4 -->
<g id="Node000004" class="node">
<title>Node4</title>
<g id="a_Node000004"><a xlink:href="classwmtk_1_1multimesh_1_1_multi_mesh_manager.html#a8bbf1e9eb12a95c6b66bf85d0b900bb6" target="_top" xlink:title=" ">
<polygon fill="white" stroke="#666666" points="365,-478.5 205,-478.5 205,-437.5 365,-437.5 365,-478.5"/>
<text text-anchor="start" x="213" y="-466.5" font-family="Helvetica,sans-Serif" font-size="10.00">wmtk::multimesh::MultiMesh</text>
<text text-anchor="start" x="213" y="-455.5" font-family="Helvetica,sans-Serif" font-size="10.00">Manager::child_to_parent</text>
<text text-anchor="middle" x="285" y="-444.5" font-family="Helvetica,sans-Serif" font-size="10.00">_map_attribute_name</text>
</a>
</g>
</g>
<!-- Node1&#45;&gt;Node4 -->
<g id="edge4_Node000001_Node000004" class="edge">
<title>Node1&#45;&gt;Node4</title>
<g id="a_edge4_Node000001_Node000004"><a xlink:title=" ">
<path fill="none" stroke="#63b8ff" d="M91.63,-302.02C108.74,-330.53 149.7,-392.8 200,-428 202.16,-429.51 204.41,-430.96 206.73,-432.34"/>
<polygon fill="#63b8ff" stroke="#63b8ff" points="205.46,-435.64 215.92,-437.34 208.81,-429.49 205.46,-435.64"/>
</a>
</g>
</g>
<!-- Node5 -->
<g id="Node000005" class="node">
<title>Node5</title>
<g id="a_Node000005"><a xlink:href="classwmtk_1_1_mesh.html#ad85569ecd50cc7c0b5161b1d1cd13ebb" target="_top" xlink:title=" ">
<polygon fill="white" stroke="#666666" points="341.5,-419 228.5,-419 228.5,-389 341.5,-389 341.5,-419"/>
<text text-anchor="start" x="236.5" y="-407" font-family="Helvetica,sans-Serif" font-size="10.00">wmtk::Mesh::create</text>
<text text-anchor="middle" x="285" y="-396" font-family="Helvetica,sans-Serif" font-size="10.00">_accessor</text>
</a>
</g>
</g>
<!-- Node1&#45;&gt;Node5 -->
<g id="edge5_Node000001_Node000005" class="edge">
<title>Node1&#45;&gt;Node5</title>
<g id="a_edge5_Node000001_Node000005"><a xlink:title=" ">
<path fill="none" stroke="#63b8ff" d="M97.88,-302.1C118.86,-322.58 159.16,-359 200,-380 205.89,-383.03 212.22,-385.72 218.66,-388.11"/>
<polygon fill="#63b8ff" stroke="#63b8ff" points="217.54,-391.43 228.14,-391.38 219.83,-384.81 217.54,-391.43"/>
</a>
</g>
</g>
<!-- Node6 -->
<g id="Node000006" class="node">
<title>Node6</title>
<g id="a_Node000006"><a xlink:href="classwmtk_1_1_mesh.html#a89b735bef9cbf8d5ab955d23f787b70f" target="_top" xlink:title=" ">
<polygon fill="white" stroke="#666666" points="358.5,-352.5 211.5,-352.5 211.5,-333.5 358.5,-333.5 358.5,-352.5"/>
<text text-anchor="middle" x="285" y="-340.5" font-family="Helvetica,sans-Serif" font-size="10.00">wmtk::Mesh::has_attribute</text>
</a>
</g>
</g>
<!-- Node1&#45;&gt;Node6 -->
<g id="edge6_Node000001_Node000006" class="edge">
<title>Node1&#45;&gt;Node6</title>
<g id="a_edge6_Node000001_Node000006"><a xlink:title=" ">
<path fill="none" stroke="#63b8ff" d="M125.75,-302.05C147.77,-309.51 175.15,-318.32 200,-325 208.18,-327.2 216.86,-329.31 225.42,-331.26"/>
<polygon fill="#63b8ff" stroke="#63b8ff" points="224.86,-334.72 235.38,-333.47 226.38,-327.88 224.86,-334.72"/>
</a>
</g>
</g>
<!-- Node8 -->
<g id="Node000008" class="node">
<title>Node8</title>
<g id="a_Node000008"><a xlink:href="classwmtk_1_1_mesh.html#a8cc8686f0688613806f43720b6db49e7" target="_top" xlink:title="check validity of tuple including its hash">
<polygon fill="white" stroke="#666666" points="345,-315.5 225,-315.5 225,-296.5 345,-296.5 345,-315.5"/>
<text text-anchor="middle" x="285" y="-303.5" font-family="Helvetica,sans-Serif" font-size="10.00">wmtk::Mesh::is_valid</text>
</a>
</g>
</g>
<!-- Node1&#45;&gt;Node8 -->
<g id="edge10_Node000001_Node000008" class="edge">
<title>Node1&#45;&gt;Node8</title>
<g id="a_edge10_Node000001_Node000008"><a xlink:title=" ">
<path fill="none" stroke="#63b8ff" d="M164.18,-294.67C180.96,-296.26 198.49,-297.92 214.8,-299.46"/>
<polygon fill="#63b8ff" stroke="#63b8ff" points="214.49,-302.94 224.77,-300.4 215.15,-295.98 214.49,-302.94"/>
</a>
</g>
</g>
<!-- Node12 -->
<g id="Node000012" class="node">
<title>Node12</title>
<g id="a_Node000012"><a xlink:href="namespacewmtk.html#a6a35f11c12436093d26fdd8be6fecc06" target="_top" xlink:title="Retrieves the current logger.">
<polygon fill="white" stroke="#666666" points="526.5,-277.5 445.5,-277.5 445.5,-258.5 526.5,-258.5 526.5,-277.5"/>
<text text-anchor="middle" x="486" y="-265.5" font-family="Helvetica,sans-Serif" font-size="10.00">wmtk::logger</text>
</a>
</g>
</g>
<!-- Node1&#45;&gt;Node12 -->
<g id="edge17_Node000001_Node000012" class="edge">
<title>Node1&#45;&gt;Node12</title>
<g id="a_edge17_Node000001_Node000012"><a xlink:title=" ">
<path fill="none" stroke="#63b8ff" d="M164.35,-283.16C245.36,-279.33 367.15,-273.57 434.93,-270.37"/>
<polygon fill="#63b8ff" stroke="#63b8ff" points="435.51,-273.84 445.33,-269.87 435.18,-266.85 435.51,-273.84"/>
</a>
</g>
</g>
<!-- Node14 -->
<g id="Node000014" class="node">
<title>Node14</title>
<g id="a_Node000014"><a xlink:href="classwmtk_1_1multimesh_1_1_multi_mesh_manager.html#a8789badb5de2a644770dcb8cdf6f3bd1" target="_top" xlink:title=" ">
<polygon fill="white" stroke="#666666" points="365,-239.5 205,-239.5 205,-198.5 365,-198.5 365,-239.5"/>
<text text-anchor="start" x="213" y="-227.5" font-family="Helvetica,sans-Serif" font-size="10.00">wmtk::multimesh::MultiMesh</text>
<text text-anchor="start" x="213" y="-216.5" font-family="Helvetica,sans-Serif" font-size="10.00">Manager::parent_to_child</text>
<text text-anchor="middle" x="285" y="-205.5" font-family="Helvetica,sans-Serif" font-size="10.00">_map_attribute_name</text>
</a>
</g>
</g>
<!-- Node1&#45;&gt;Node14 -->
<g id="edge18_Node000001_Node000014" class="edge">
<title>Node1&#45;&gt;Node14</title>
<g id="a_edge18_Node000001_Node000014"><a xlink:title=" ">
<path fill="none" stroke="#63b8ff" d="M127.61,-271.91C152.86,-263.37 185.01,-252.49 213.59,-242.82"/>
<polygon fill="#63b8ff" stroke="#63b8ff" points="214.78,-246.11 223.13,-239.59 212.53,-239.48 214.78,-246.11"/>
</a>
</g>
</g>
<!-- Node15 -->
<g id="Node000015" class="node">
<title>Node15</title>
<g id="a_Node000015"><a xlink:href="classwmtk_1_1_mesh.html#a3faf39088ce02c2a2f208c762d6f2b52" target="_top" xlink:title=" ">
<polygon fill="white" stroke="#666666" points="345,-180 225,-180 225,-150 345,-150 345,-180"/>
<text text-anchor="start" x="233" y="-168" font-family="Helvetica,sans-Serif" font-size="10.00">wmtk::Mesh::register</text>
<text text-anchor="middle" x="285" y="-157" font-family="Helvetica,sans-Serif" font-size="10.00">_attribute_typed</text>
</a>
</g>
</g>
<!-- Node1&#45;&gt;Node15 -->
<g id="edge19_Node000001_Node000015" class="edge">
<title>Node1&#45;&gt;Node15</title>
<g id="a_edge19_Node000001_Node000015"><a xlink:title=" ">
<path fill="none" stroke="#63b8ff" d="M97.08,-271.99C117.74,-250.81 158.34,-212.26 200,-190 204.86,-187.4 210.04,-185.04 215.33,-182.89"/>
<polygon fill="#63b8ff" stroke="#63b8ff" points="216.83,-186.07 224.95,-179.27 214.36,-179.52 216.83,-186.07"/>
</a>
</g>
</g>
<!-- Node18 -->
<g id="Node000018" class="node">
<title>Node18</title>
<g id="a_Node000018"><a xlink:href="namespacewmtk_1_1multimesh_1_1utils.html#ab19d57f46b80f20b1b4685ed83e305d5" target="_top" xlink:title=" ">
<polygon fill="white" stroke="#666666" points="352.5,-131.5 217.5,-131.5 217.5,-90.5 352.5,-90.5 352.5,-131.5"/>
<text text-anchor="start" x="225.5" y="-119.5" font-family="Helvetica,sans-Serif" font-size="10.00">wmtk::multimesh::utils</text>
<text text-anchor="start" x="225.5" y="-108.5" font-family="Helvetica,sans-Serif" font-size="10.00">::symmetric_write_tuple</text>
<text text-anchor="middle" x="285" y="-97.5" font-family="Helvetica,sans-Serif" font-size="10.00">_map_attributes</text>
</a>
</g>
</g>
<!-- Node1&#45;&gt;Node18 -->
<g id="edge22_Node000001_Node000018" class="edge">
<title>Node1&#45;&gt;Node18</title>
<g id="a_edge22_Node000001_Node000018"><a xlink:title=" ">
<path fill="none" stroke="#63b8ff" d="M91.23,-271.89C107.95,-242.56 148.68,-177.57 200,-141 202.65,-139.11 205.43,-137.33 208.3,-135.66"/>
<polygon fill="#63b8ff" stroke="#63b8ff" points="209.97,-138.73 217.14,-130.93 206.68,-132.56 209.97,-138.73"/>
</a>
</g>
</g>
<!-- Node24 -->
<g id="Node000024" class="node">
<title>Node24</title>
<g id="a_Node000024"><a xlink:href="classwmtk_1_1_mesh.html#a933f681cf24a63b155c9462280385200" target="_top" xlink:title=" ">
<polygon fill="white" stroke="#666666" points="546.5,-58 425.5,-58 425.5,-28 546.5,-28 546.5,-58"/>
<text text-anchor="start" x="433.5" y="-46" font-family="Helvetica,sans-Serif" font-size="10.00">wmtk::Mesh::top_cell</text>
<text text-anchor="middle" x="486" y="-35" font-family="Helvetica,sans-Serif" font-size="10.00">_dimension</text>
</a>
</g>
</g>
<!-- Node1&#45;&gt;Node24 -->
<g id="edge28_Node000001_Node000024" class="edge">
<title>Node1&#45;&gt;Node24</title>
<g id="a_edge28_Node000001_Node000024"><a xlink:title=" ">
<path fill="none" stroke="#63b8ff" d="M86.72,-271.72C97.08,-232.7 130.22,-129.14 200,-82 234.09,-58.97 342.34,-49.43 415.18,-45.56"/>
<polygon fill="#63b8ff" stroke="#63b8ff" points="415.4,-49.05 425.21,-45.05 415.04,-42.06 415.4,-49.05"/>
</a>
</g>
</g>
<!-- Node25 -->
<g id="Node000025" class="node">
<title>Node25</title>
<g id="a_Node000025"><a xlink:href="classwmtk_1_1_mesh.html#abaf00438d0700358b160e310d69725c9" target="_top" xlink:title=" ">
<polygon fill="white" stroke="#666666" points="370,-33.5 200,-33.5 200,-14.5 370,-14.5 370,-33.5"/>
<text text-anchor="middle" x="285" y="-21.5" font-family="Helvetica,sans-Serif" font-size="10.00">wmtk::Mesh::top_simplex_type</text>
</a>
</g>
</g>
<!-- Node1&#45;&gt;Node25 -->
<g id="edge29_Node000001_Node000025" class="edge">
<title>Node1&#45;&gt;Node25</title>
<g id="a_edge29_Node000001_Node000025"><a xlink:title=" ">
<path fill="none" stroke="#63b8ff" d="M85.96,-271.75C94.98,-229.48 126.14,-109.83 200,-48 204.96,-43.85 210.6,-40.41 216.56,-37.57"/>
<polygon fill="#63b8ff" stroke="#63b8ff" points="218.24,-40.66 226.12,-33.58 215.54,-34.2 218.24,-40.66"/>
</a>
</g>
</g>
<!-- Node2&#45;&gt;Node2 -->
<g id="edge2_Node000002_Node000002" class="edge">
<title>Node2&#45;&gt;Node2</title>
<g id="a_edge2_Node000002_Node000002"><a xlink:title=" ">
<path fill="none" stroke="#63b8ff" d="M249.84,-565.28C242.03,-574.41 253.75,-583 285,-583 303.55,-583 315.22,-579.97 320.01,-575.6"/>
<polygon fill="#63b8ff" stroke="#63b8ff" points="323.51,-575.32 320.16,-565.28 316.51,-575.22 323.51,-575.32"/>
</a>
</g>
</g>
<!-- Node2&#45;&gt;Node3 -->
<g id="edge3_Node000002_Node000003" class="edge">
<title>Node2&#45;&gt;Node3</title>
<g id="a_edge3_Node000002_Node000003"><a xlink:title=" ">
<path fill="none" stroke="#63b8ff" d="M365.22,-541.24C375.22,-540.14 385.5,-539 395.65,-537.88"/>
<polygon fill="#63b8ff" stroke="#63b8ff" points="396.17,-541.34 405.73,-536.76 395.4,-534.38 396.17,-541.34"/>
</a>
</g>
</g>
<!-- Node6&#45;&gt;Node6 -->
<g id="edge8_Node000006_Node000006" class="edge">
<title>Node6&#45;&gt;Node6</title>
<g id="a_edge8_Node000006_Node000006"><a xlink:title=" ">
<path fill="none" stroke="#63b8ff" d="M254.17,-352.58C239.18,-361.23 249.45,-370.5 285,-370.5 309.99,-370.5 322.49,-365.92 322.5,-360.19"/>
<polygon fill="#63b8ff" stroke="#63b8ff" points="325.05,-357.79 315.83,-352.58 319.79,-362.41 325.05,-357.79"/>
</a>
</g>
</g>
<!-- Node7 -->
<g id="Node000007" class="node">
<title>Node7</title>
<g id="a_Node000007"><a xlink:href="classwmtk_1_1attribute_1_1_attribute_manager.html#a2169001c03d75b77488dba8494038fe5" target="_top" xlink:title=" ">
<polygon fill="white" stroke="#666666" points="556.5,-418 415.5,-418 415.5,-388 556.5,-388 556.5,-418"/>
<text text-anchor="start" x="423.5" y="-406" font-family="Helvetica,sans-Serif" font-size="10.00">wmtk::attribute::Attribute</text>
<text text-anchor="middle" x="486" y="-395" font-family="Helvetica,sans-Serif" font-size="10.00">Manager::get</text>
</a>
</g>
</g>
<!-- Node6&#45;&gt;Node7 -->
<g id="edge7_Node000006_Node000007" class="edge">
<title>Node6&#45;&gt;Node7</title>
<g id="a_edge7_Node000006_Node000007"><a xlink:title=" ">
<path fill="none" stroke="#63b8ff" d="M317.53,-352.51C346.38,-361.21 389.84,-374.31 425.25,-384.99"/>
<polygon fill="#63b8ff" stroke="#63b8ff" points="424.42,-388.39 435.01,-387.93 426.44,-381.69 424.42,-388.39"/>
</a>
</g>
</g>
<!-- Node9 -->
<g id="Node000009" class="node">
<title>Node9</title>
<g id="a_Node000009"><a xlink:href="classwmtk_1_1_tuple.html#a0023f575be92cd5ceeeaaaa3762ea06d" target="_top" xlink:title="Checks if a tuple is &quot;null&quot;. This merely implies the global index is &#45;1.">
<polygon fill="white" stroke="#666666" points="542.5,-369.5 429.5,-369.5 429.5,-350.5 542.5,-350.5 542.5,-369.5"/>
<text text-anchor="middle" x="486" y="-357.5" font-family="Helvetica,sans-Serif" font-size="10.00">wmtk::Tuple::is_null</text>
</a>
</g>
</g>
<!-- Node8&#45;&gt;Node9 -->
<g id="edge11_Node000008_Node000009" class="edge">
<title>Node8&#45;&gt;Node9</title>
<g id="a_edge11_Node000008_Node000009"><a xlink:title=" ">
<path fill="none" stroke="#63b8ff" d="M336.7,-315.58C347.8,-318.2 359.4,-321.35 370,-325 386.73,-330.76 389.28,-336.22 406,-342 412.34,-344.19 419.06,-346.19 425.8,-347.99"/>
<polygon fill="#63b8ff" stroke="#63b8ff" points="425.1,-351.42 435.65,-350.49 426.82,-344.64 425.1,-351.42"/>
</a>
</g>
</g>
<!-- Node10 -->
<g id="Node000010" class="node">
<title>Node10</title>
<g id="a_Node000010"><a xlink:href="classwmtk_1_1_mesh.html#ade176d345902d97af8c5da04aa3a095b" target="_top" xlink:title=" ">
<polygon fill="white" stroke="#666666" points="556,-314.5 416,-314.5 416,-295.5 556,-295.5 556,-314.5"/>
<text text-anchor="middle" x="486" y="-302.5" font-family="Helvetica,sans-Serif" font-size="10.00">wmtk::Mesh::is_removed</text>
</a>
</g>
</g>
<!-- Node8&#45;&gt;Node10 -->
<g id="edge12_Node000008_Node000010" class="edge">
<title>Node8&#45;&gt;Node10</title>
<g id="a_edge12_Node000008_Node000010"><a xlink:title=" ">
<path fill="none" stroke="#63b8ff" d="M345.17,-305.7C364.18,-305.61 385.56,-305.5 405.78,-305.4"/>
<polygon fill="#63b8ff" stroke="#63b8ff" points="405.92,-308.9 415.9,-305.35 405.89,-301.9 405.92,-308.9"/>
</a>
</g>
</g>
<!-- Node8&#45;&gt;Node12 -->
<g id="edge15_Node000008_Node000012" class="edge">
<title>Node8&#45;&gt;Node12</title>
<g id="a_edge15_Node000008_Node000012"><a xlink:title=" ">
<path fill="none" stroke="#63b8ff" d="M335.96,-296.46C366.37,-290.65 405.07,-283.26 435.41,-277.47"/>
<polygon fill="#63b8ff" stroke="#63b8ff" points="436.19,-280.88 445.36,-275.57 434.88,-274.01 436.19,-280.88"/>
</a>
</g>
</g>
<!-- Node10&#45;&gt;Node10 -->
<g id="edge14_Node000010_Node000010" class="edge">
<title>Node10&#45;&gt;Node10</title>
<g id="a_edge14_Node000010_Node000010"><a xlink:title=" ">
<path fill="none" stroke="#63b8ff" d="M455.48,-314.58C440.64,-323.23 450.81,-332.5 486,-332.5 510.74,-332.5 523.12,-327.92 523.12,-322.19"/>
<polygon fill="#63b8ff" stroke="#63b8ff" points="525.72,-319.84 516.52,-314.58 520.43,-324.43 525.72,-319.84"/>
</a>
</g>
</g>
<!-- Node11 -->
<g id="Node000011" class="node">
<title>Node11</title>
<g id="a_Node000011"><a xlink:href="classwmtk_1_1_tuple.html#aef64a43ff5f5617dbc99d865356bbc25" target="_top" xlink:title=" ">
<polygon fill="white" stroke="#666666" points="751,-314.5 620,-314.5 620,-295.5 751,-295.5 751,-314.5"/>
<text text-anchor="middle" x="685.5" y="-302.5" font-family="Helvetica,sans-Serif" font-size="10.00">wmtk::Tuple::global_cid</text>
</a>
</g>
</g>
<!-- Node10&#45;&gt;Node11 -->
<g id="edge13_Node000010_Node000011" class="edge">
<title>Node10&#45;&gt;Node11</title>
<g id="a_edge13_Node000010_Node000011"><a xlink:title=" ">
<path fill="none" stroke="#63b8ff" d="M556.08,-305C573.37,-305 592.01,-305 609.57,-305"/>
<polygon fill="#63b8ff" stroke="#63b8ff" points="609.77,-308.5 619.77,-305 609.77,-301.5 609.77,-308.5"/>
</a>
</g>
</g>
<!-- Node13 -->
<g id="Node000013" class="node">
<title>Node13</title>
<g id="a_Node000013"><a xlink:href="namespacewmtk.html#a3daa7951a5f8b78cf4600dc047fcc180" target="_top" xlink:title="Setup a logger object to be used by WildmeshToolkit.">
<polygon fill="white" stroke="#666666" points="736,-277.5 635,-277.5 635,-258.5 736,-258.5 736,-277.5"/>
<text text-anchor="middle" x="685.5" y="-265.5" font-family="Helvetica,sans-Serif" font-size="10.00">wmtk::set_logger</text>
</a>
</g>
</g>
<!-- Node12&#45;&gt;Node13 -->
<g id="edge16_Node000012_Node000013" class="edge">
<title>Node12&#45;&gt;Node13</title>
<g id="a_edge16_Node000012_Node000013"><a xlink:title=" ">
<path fill="none" stroke="#63b8ff" d="M526.97,-268C555.04,-268 593.07,-268 624.74,-268"/>
<polygon fill="#63b8ff" stroke="#63b8ff" points="624.77,-271.5 634.77,-268 624.77,-264.5 624.77,-271.5"/>
</a>
</g>
</g>
<!-- Node16 -->
<g id="Node000016" class="node">
<title>Node16</title>
<g id="a_Node000016"><a xlink:href="classwmtk_1_1attribute_1_1_attribute_manager.html#ad8c21b193224524ed0f792b0e2d70f83" target="_top" xlink:title=" ">
<polygon fill="white" stroke="#666666" points="561,-201 411,-201 411,-171 561,-171 561,-201"/>
<text text-anchor="start" x="419" y="-189" font-family="Helvetica,sans-Serif" font-size="10.00">wmtk::attribute::Attribute</text>
<text text-anchor="middle" x="486" y="-178" font-family="Helvetica,sans-Serif" font-size="10.00">Manager::register_attribute</text>
</a>
</g>
</g>
<!-- Node15&#45;&gt;Node16 -->
<g id="edge20_Node000015_Node000016" class="edge">
<title>Node15&#45;&gt;Node16</title>
<g id="a_edge20_Node000015_Node000016"><a xlink:title=" ">
<path fill="none" stroke="#63b8ff" d="M345.17,-171.24C362.65,-173.09 382.13,-175.14 400.86,-177.12"/>
<polygon fill="#63b8ff" stroke="#63b8ff" points="400.57,-180.61 410.88,-178.18 401.3,-173.65 400.57,-180.61"/>
</a>
</g>
</g>
<!-- Node17 -->
<g id="Node000017" class="node">
<title>Node17</title>
<g id="a_Node000017"><a xlink:href="classwmtk_1_1attribute_1_1_attribute_manager.html#a87216c73c02b436c7f965faa52553f56" target="_top" xlink:title=" ">
<polygon fill="white" stroke="#666666" points="756,-222 615,-222 615,-192 756,-192 756,-222"/>
<text text-anchor="start" x="623" y="-210" font-family="Helvetica,sans-Serif" font-size="10.00">wmtk::attribute::Attribute</text>
<text text-anchor="middle" x="685.5" y="-199" font-family="Helvetica,sans-Serif" font-size="10.00">Manager::size</text>
</a>
</g>
</g>
<!-- Node16&#45;&gt;Node17 -->
<g id="edge21_Node000016_Node000017" class="edge">
<title>Node16&#45;&gt;Node17</title>
<g id="a_edge21_Node000016_Node000017"><a xlink:title=" ">
<path fill="none" stroke="#63b8ff" d="M561.1,-193.88C575.28,-195.39 590.19,-196.97 604.54,-198.5"/>
<polygon fill="#63b8ff" stroke="#63b8ff" points="604.57,-202.02 614.88,-199.6 605.31,-195.06 604.57,-202.02"/>
</a>
</g>
</g>
<!-- Node19 -->
<g id="Node000019" class="node">
<title>Node19</title>
<g id="a_Node000019"><a xlink:href="namespacewmtk_1_1multimesh_1_1utils.html#aa965e96578f254d53e7ca53d617f5c6a" target="_top" xlink:title=" ">
<polygon fill="white" stroke="#666666" points="562,-126 410,-126 410,-96 562,-96 562,-126"/>
<text text-anchor="start" x="418" y="-114" font-family="Helvetica,sans-Serif" font-size="10.00">wmtk::multimesh::utils</text>
<text text-anchor="middle" x="486" y="-103" font-family="Helvetica,sans-Serif" font-size="10.00">::write_tuple_map_attribute</text>
</a>
</g>
</g>
<!-- Node18&#45;&gt;Node19 -->
<g id="edge23_Node000018_Node000019" class="edge">
<title>Node18&#45;&gt;Node19</title>
<g id="a_edge23_Node000018_Node000019"><a xlink:title=" ">
<path fill="none" stroke="#63b8ff" d="M352.54,-111C367.65,-111 383.9,-111 399.67,-111"/>
<polygon fill="#63b8ff" stroke="#63b8ff" points="399.94,-114.5 409.94,-111 399.94,-107.5 399.94,-114.5"/>
</a>
</g>
</g>
<!-- Node20 -->
<g id="Node000020" class="node">
<title>Node20</title>
<g id="a_Node000020"><a xlink:href="classwmtk_1_1attribute_1_1_accessor.html#abecebb154568864219abda80a1beb803" target="_top" xlink:title="Constant access function for a vector attribute.">
<polygon fill="white" stroke="#666666" points="756.5,-174 614.5,-174 614.5,-144 756.5,-144 756.5,-174"/>
<text text-anchor="start" x="622.5" y="-162" font-family="Helvetica,sans-Serif" font-size="10.00">wmtk::attribute::Accessor</text>
<text text-anchor="middle" x="685.5" y="-151" font-family="Helvetica,sans-Serif" font-size="10.00">::const_vector_attribute</text>
</a>
</g>
</g>
<!-- Node19&#45;&gt;Node20 -->
<g id="edge24_Node000019_Node000020" class="edge">
<title>Node19&#45;&gt;Node20</title>
<g id="a_edge24_Node000019_Node000020"><a xlink:title=" ">
<path fill="none" stroke="#63b8ff" d="M548.95,-126.06C569.26,-130.99 592,-136.52 612.96,-141.61"/>
<polygon fill="#63b8ff" stroke="#63b8ff" points="612.23,-145.04 622.77,-144 613.88,-138.23 612.23,-145.04"/>
</a>
</g>
</g>
<!-- Node21 -->
<g id="Node000021" class="node">
<title>Node21</title>
<g id="a_Node000021"><a xlink:href="classwmtk_1_1attribute_1_1_tuple_accessor.html#a8d04c3529eb7adeead49e8faa7a119db" target="_top" xlink:title=" ">
<polygon fill="white" stroke="#666666" points="769,-126 602,-126 602,-96 769,-96 769,-126"/>
<text text-anchor="start" x="610" y="-114" font-family="Helvetica,sans-Serif" font-size="10.00">wmtk::attribute::TupleAccessor</text>
<text text-anchor="middle" x="685.5" y="-103" font-family="Helvetica,sans-Serif" font-size="10.00">::dimension</text>
</a>
</g>
</g>
<!-- Node19&#45;&gt;Node21 -->
<g id="edge25_Node000019_Node000021" class="edge">
<title>Node19&#45;&gt;Node21</title>
<g id="a_edge25_Node000019_Node000021"><a xlink:title=" ">
<path fill="none" stroke="#63b8ff" d="M562.23,-111C571.86,-111 581.8,-111 591.67,-111"/>
<polygon fill="#63b8ff" stroke="#63b8ff" points="591.9,-114.5 601.9,-111 591.9,-107.5 591.9,-114.5"/>
</a>
</g>
</g>
<!-- Node22 -->
<g id="Node000022" class="node">
<title>Node22</title>
<g id="a_Node000022"><a xlink:href="classwmtk_1_1attribute_1_1_accessor.html#ad1c53d7c161d4f046bedc27006a0256f" target="_top" xlink:title=" ">
<polygon fill="white" stroke="#666666" points="756.5,-78 614.5,-78 614.5,-48 756.5,-48 756.5,-78"/>
<text text-anchor="start" x="622.5" y="-66" font-family="Helvetica,sans-Serif" font-size="10.00">wmtk::attribute::Accessor</text>
<text text-anchor="middle" x="685.5" y="-55" font-family="Helvetica,sans-Serif" font-size="10.00">::dimension</text>
</a>
</g>
</g>
<!-- Node19&#45;&gt;Node22 -->
<g id="edge26_Node000019_Node000022" class="edge">
<title>Node19&#45;&gt;Node22</title>
<g id="a_edge26_Node000019_Node000022"><a xlink:title=" ">
<path fill="none" stroke="#63b8ff" d="M548.95,-95.94C569.26,-91.01 592,-85.48 612.96,-80.39"/>
<polygon fill="#63b8ff" stroke="#63b8ff" points="613.88,-83.77 622.77,-78 612.23,-76.96 613.88,-83.77"/>
</a>
</g>
</g>
<!-- Node23 -->
<g id="Node000023" class="node">
<title>Node23</title>
<g id="a_Node000023"><a xlink:href="classwmtk_1_1attribute_1_1_tuple_accessor.html#ab380e89ad00405e1e82f83f4d33ec6b1" target="_top" xlink:title=" ">
<polygon fill="white" stroke="#666666" points="769,-30 602,-30 602,0 769,0 769,-30"/>
<text text-anchor="start" x="610" y="-18" font-family="Helvetica,sans-Serif" font-size="10.00">wmtk::attribute::TupleAccessor</text>
<text text-anchor="middle" x="685.5" y="-7" font-family="Helvetica,sans-Serif" font-size="10.00">::vector_attribute</text>
</a>
</g>
</g>
<!-- Node19&#45;&gt;Node23 -->
<g id="edge27_Node000019_Node000023" class="edge">
<title>Node19&#45;&gt;Node23</title>
<g id="a_edge27_Node000019_Node000023"><a xlink:title=" ">
<path fill="none" stroke="#63b8ff" d="M516.52,-95.94C531.64,-87.89 550.16,-77.48 566,-67 582.9,-55.81 583.95,-48.22 602,-39 605.74,-37.09 609.65,-35.31 613.65,-33.66"/>
<polygon fill="#63b8ff" stroke="#63b8ff" points="615.04,-36.88 623.12,-30.02 612.53,-30.34 615.04,-36.88"/>
</a>
</g>
</g>
<!-- Node25&#45;&gt;Node24 -->
<g id="edge30_Node000025_Node000024" class="edge">
<title>Node25&#45;&gt;Node24</title>
<g id="a_edge30_Node000025_Node000024"><a xlink:title=" ">
<path fill="none" stroke="#63b8ff" d="M370.11,-32.03C385.04,-33.46 400.46,-34.93 414.95,-36.31"/>
<polygon fill="#63b8ff" stroke="#63b8ff" points="415.04,-39.84 425.32,-37.3 415.7,-32.87 415.04,-39.84"/>
</a>
</g>
</g>
</g>
</svg>
