<?xml version="1.0" encoding="UTF-8" standalone="no"?>
<!DOCTYPE svg PUBLIC "-//W3C//DTD SVG 1.1//EN"
 "http://www.w3.org/Graphics/SVG/1.1/DTD/svg11.dtd">
<!-- Generated by graphviz version 2.43.0 (0)
 -->
<!-- Title: wmtk::Mesh::is_multi_mesh_root Pages: 1 -->
<svg width="1563pt" height="490pt"
 viewBox="0.00 0.00 1563.00 489.50" xmlns="http://www.w3.org/2000/svg" xmlns:xlink="http://www.w3.org/1999/xlink">
<g id="graph0" class="graph" transform="scale(1 1) rotate(0) translate(4 485.5)">
<title>wmtk::Mesh::is_multi_mesh_root</title>
<!-- Node1 -->
<g id="Node000001" class="node">
<title>Node1</title>
<g id="a_Node000001"><a xlink:title="return true if this mesh is the root of a multimesh tree">
<polygon fill="#999999" stroke="#666666" points="1555,-208.5 1433,-208.5 1433,-178.5 1555,-178.5 1555,-208.5"/>
<text text-anchor="start" x="1441" y="-196.5" font-family="Helvetica,sans-Serif" font-size="10.00">wmtk::Mesh::is_multi</text>
<text text-anchor="middle" x="1494" y="-185.5" font-family="Helvetica,sans-Serif" font-size="10.00">_mesh_root</text>
</a>
</g>
</g>
<!-- Node2 -->
<g id="Node000002" class="node">
<title>Node2</title>
<g id="a_Node000002"><a xlink:href="namespacewmtk_1_1components_1_1longest__edge__split.html#a0be451c677a35037d6e49f97356604cb" target="_top" xlink:title="Perform longes&#45;edge split on a mesh.">
<polygon fill="white" stroke="#666666" points="1397,-382.5 1227,-382.5 1227,-352.5 1397,-352.5 1397,-382.5"/>
<text text-anchor="start" x="1235" y="-370.5" font-family="Helvetica,sans-Serif" font-size="10.00">wmtk::components::longest</text>
<text text-anchor="middle" x="1312" y="-359.5" font-family="Helvetica,sans-Serif" font-size="10.00">_edge_split::longest_edge_split</text>
</a>
</g>
</g>
<!-- Node1&#45;&gt;Node2 -->
<g id="edge1_Node000001_Node000002" class="edge">
<title>Node1&#45;&gt;Node2</title>
<g id="a_edge1_Node000001_Node000002"><a xlink:title=" ">
<path fill="none" stroke="#63b8ff" d="M1471.95,-216.12C1452.79,-236.49 1423.53,-267.04 1397,-292.5 1374.71,-313.89 1347.94,-337.44 1330.71,-352.35"/>
<polygon fill="#63b8ff" stroke="#63b8ff" points="1474.73,-218.28 1479.01,-208.59 1469.62,-213.49 1474.73,-218.28"/>
</a>
</g>
</g>
<!-- Node4 -->
<g id="Node000004" class="node">
<title>Node4</title>
<g id="a_Node000004"><a xlink:href="classwmtk_1_1_mesh.html#abef07f1a5ecafc68883891c07d04e610" target="_top" xlink:title=" ">
<polygon fill="white" stroke="#666666" points="1373,-283 1251,-283 1251,-264 1373,-264 1373,-283"/>
<text text-anchor="middle" x="1312" y="-271" font-family="Helvetica,sans-Serif" font-size="10.00">wmtk::Mesh::map_all</text>
</a>
</g>
</g>
<!-- Node1&#45;&gt;Node4 -->
<g id="edge4_Node000001_Node000004" class="edge">
<title>Node1&#45;&gt;Node4</title>
<g id="a_edge4_Node000001_Node000004"><a xlink:title=" ">
<path fill="none" stroke="#63b8ff" d="M1465.29,-214.73C1446.84,-227.94 1421.55,-244.29 1397,-254.5 1387.89,-258.29 1377.89,-261.39 1368.07,-263.9"/>
<polygon fill="#63b8ff" stroke="#63b8ff" points="1467.5,-217.46 1473.52,-208.74 1463.38,-211.8 1467.5,-217.46"/>
</a>
</g>
</g>
<!-- Node5 -->
<g id="Node000005" class="node">
<title>Node5</title>
<g id="a_Node000005"><a xlink:href="classwmtk_1_1_mesh.html#abce79ed965e5c4631713fe534f1699a7" target="_top" xlink:title="optimized map from a simplex from this mesh to its direct parent">
<polygon fill="white" stroke="#666666" points="1371.5,-245.5 1252.5,-245.5 1252.5,-215.5 1371.5,-215.5 1371.5,-245.5"/>
<text text-anchor="start" x="1260.5" y="-233.5" font-family="Helvetica,sans-Serif" font-size="10.00">wmtk::Mesh::map_to</text>
<text text-anchor="middle" x="1312" y="-222.5" font-family="Helvetica,sans-Serif" font-size="10.00">_parent</text>
</a>
</g>
</g>
<!-- Node1&#45;&gt;Node5 -->
<g id="edge5_Node000001_Node000005" class="edge">
<title>Node1&#45;&gt;Node5</title>
<g id="a_edge5_Node000001_Node000005"><a xlink:title=" ">
<path fill="none" stroke="#63b8ff" d="M1422.95,-207.9C1405.97,-211.39 1387.99,-215.08 1371.6,-218.45"/>
<polygon fill="#63b8ff" stroke="#63b8ff" points="1423.72,-211.31 1432.81,-205.87 1422.31,-204.46 1423.72,-211.31"/>
</a>
</g>
</g>
<!-- Node21 -->
<g id="Node000021" class="node">
<title>Node21</title>
<g id="a_Node000021"><a xlink:href="classwmtk_1_1_mesh.html#a9a1a8863d4694baab3679edfb5c0dccb" target="_top" xlink:title="optimized map from a simplex from this mesh to its direct parent">
<polygon fill="white" stroke="#666666" points="1371.5,-179.5 1252.5,-179.5 1252.5,-149.5 1371.5,-149.5 1371.5,-179.5"/>
<text text-anchor="start" x="1260.5" y="-167.5" font-family="Helvetica,sans-Serif" font-size="10.00">wmtk::Mesh::map_to</text>
<text text-anchor="middle" x="1312" y="-156.5" font-family="Helvetica,sans-Serif" font-size="10.00">_parent_tuple</text>
</a>
</g>
</g>
<!-- Node1&#45;&gt;Node21 -->
<g id="edge22_Node000001_Node000021" class="edge">
<title>Node1&#45;&gt;Node21</title>
<g id="a_edge22_Node000001_Node000021"><a xlink:title=" ">
<path fill="none" stroke="#63b8ff" d="M1422.47,-182.14C1405.63,-179.42 1387.84,-176.56 1371.6,-173.94"/>
<polygon fill="#63b8ff" stroke="#63b8ff" points="1422.38,-185.67 1432.81,-183.8 1423.5,-178.76 1422.38,-185.67"/>
</a>
</g>
</g>
<!-- Node33 -->
<g id="Node000033" class="node">
<title>Node33</title>
<g id="a_Node000033"><a xlink:href="classwmtk_1_1_mesh.html#a518b2e0ed7a63885d5b1dc43523de3a4" target="_top" xlink:title=" ">
<polygon fill="white" stroke="#666666" points="1377.5,-131.5 1246.5,-131.5 1246.5,-101.5 1377.5,-101.5 1377.5,-131.5"/>
<text text-anchor="start" x="1254.5" y="-119.5" font-family="Helvetica,sans-Serif" font-size="10.00">wmtk::Mesh::mappable</text>
<text text-anchor="middle" x="1312" y="-108.5" font-family="Helvetica,sans-Serif" font-size="10.00">_meshes</text>
</a>
</g>
</g>
<!-- Node1&#45;&gt;Node33 -->
<g id="edge36_Node000001_Node000033" class="edge">
<title>Node1&#45;&gt;Node33</title>
<g id="a_edge36_Node000001_Node000033"><a xlink:title=" ">
<path fill="none" stroke="#63b8ff" d="M1460.3,-173.03C1442.15,-162.29 1418.88,-149.53 1397,-140.5 1389.15,-137.26 1380.71,-134.29 1372.32,-131.62"/>
<polygon fill="#63b8ff" stroke="#63b8ff" points="1458.92,-176.28 1469.29,-178.43 1462.52,-170.28 1458.92,-176.28"/>
</a>
</g>
</g>
<!-- Node34 -->
<g id="Node000034" class="node">
<title>Node34</title>
<g id="a_Node000034"><a xlink:href="namespacewmtk_1_1components_1_1shortest__edge__collapse.html#a13c53b8b70fc1b63e7bdb22318139dd9" target="_top" xlink:title="Perform shortest&#45;edge collapse on a triangular surface mesh.">
<polygon fill="white" stroke="#666666" points="1390,-62 1234,-62 1234,-21 1390,-21 1390,-62"/>
<text text-anchor="start" x="1242" y="-50" font-family="Helvetica,sans-Serif" font-size="10.00">wmtk::components::shortest</text>
<text text-anchor="start" x="1242" y="-39" font-family="Helvetica,sans-Serif" font-size="10.00">_edge_collapse::shortest</text>
<text text-anchor="middle" x="1312" y="-28" font-family="Helvetica,sans-Serif" font-size="10.00">_edge_collapse</text>
</a>
</g>
</g>
<!-- Node1&#45;&gt;Node34 -->
<g id="edge37_Node000001_Node000034" class="edge">
<title>Node1&#45;&gt;Node34</title>
<g id="a_edge37_Node000001_Node000034"><a xlink:title=" ">
<path fill="none" stroke="#63b8ff" d="M1474.28,-170.54C1455.96,-148.9 1426.57,-116.32 1397,-92.5 1383.05,-81.26 1366.41,-70.66 1351.64,-62.07"/>
<polygon fill="#63b8ff" stroke="#63b8ff" points="1471.64,-172.83 1480.74,-178.26 1477.01,-168.34 1471.64,-172.83"/>
</a>
</g>
</g>
<!-- Node2&#45;&gt;Node2 -->
<g id="edge3_Node000002_Node000002" class="edge">
<title>Node2&#45;&gt;Node2</title>
<g id="a_edge3_Node000002_Node000002"><a xlink:title=" ">
<path fill="none" stroke="#63b8ff" d="M1343.86,-393.1C1339.5,-397.47 1328.88,-400.5 1312,-400.5 1283.56,-400.5 1272.9,-391.91 1280.01,-382.78"/>
<polygon fill="#63b8ff" stroke="#63b8ff" points="1347.36,-392.82 1343.99,-382.78 1340.36,-392.73 1347.36,-392.82"/>
</a>
</g>
</g>
<!-- Node3 -->
<g id="Node000003" class="node">
<title>Node3</title>
<g id="a_Node000003"><a xlink:href="namespacewmtk_1_1components_1_1longest__edge__split.html#a91cd0e6f904d4c6d1e0000504cc0a257" target="_top" xlink:title="Perform longes&#45;edge split on a mesh.">
<polygon fill="white" stroke="#666666" points="1175,-408.5 1005,-408.5 1005,-378.5 1175,-378.5 1175,-408.5"/>
<text text-anchor="start" x="1013" y="-396.5" font-family="Helvetica,sans-Serif" font-size="10.00">wmtk::components::longest</text>
<text text-anchor="middle" x="1090" y="-385.5" font-family="Helvetica,sans-Serif" font-size="10.00">_edge_split::longest_edge_split</text>
</a>
</g>
</g>
<!-- Node2&#45;&gt;Node3 -->
<g id="edge2_Node000002_Node000003" class="edge">
<title>Node2&#45;&gt;Node3</title>
<g id="a_edge2_Node000002_Node000003"><a xlink:title=" ">
<path fill="none" stroke="#63b8ff" d="M1216.85,-378.63C1202.96,-380.27 1188.73,-381.95 1175.07,-383.56"/>
<polygon fill="#63b8ff" stroke="#63b8ff" points="1217.37,-382.09 1226.89,-377.44 1216.54,-375.14 1217.37,-382.09"/>
</a>
</g>
</g>
<!-- Node6 -->
<g id="Node000006" class="node">
<title>Node6</title>
<g id="a_Node000006"><a xlink:href="classwmtk_1_1invariants_1_1_fusion_edge_invariant.html#abb8894b188e06d51bad0c0df062b37fe" target="_top" xlink:title=" ">
<polygon fill="white" stroke="#666666" points="1158.5,-360.5 1021.5,-360.5 1021.5,-330.5 1158.5,-330.5 1158.5,-360.5"/>
<text text-anchor="start" x="1029.5" y="-348.5" font-family="Helvetica,sans-Serif" font-size="10.00">wmtk::invariants::Fusion</text>
<text text-anchor="middle" x="1090" y="-337.5" font-family="Helvetica,sans-Serif" font-size="10.00">EdgeInvariant::before</text>
</a>
</g>
</g>
<!-- Node5&#45;&gt;Node6 -->
<g id="edge6_Node000005_Node000006" class="edge">
<title>Node5&#45;&gt;Node6</title>
<g id="a_edge6_Node000005_Node000006"><a xlink:title=" ">
<path fill="none" stroke="#63b8ff" d="M1242.63,-245.91C1237.07,-248.61 1231.76,-251.78 1227,-255.5 1202.2,-274.89 1215.87,-297.2 1191,-316.5 1181.5,-323.87 1170.19,-329.37 1158.65,-333.47"/>
<polygon fill="#63b8ff" stroke="#63b8ff" points="1244.39,-248.97 1252.2,-241.8 1241.63,-242.53 1244.39,-248.97"/>
</a>
</g>
</g>
<!-- Node7 -->
<g id="Node000007" class="node">
<title>Node7</title>
<g id="a_Node000007"><a xlink:href="classwmtk_1_1components_1_1internal_1_1_multi_mesh_from_tag.html#a00b7df05e0cd44c1a2d4e6ee39dbaacf" target="_top" xlink:title="Create the adjacency (stored as attribute) of the substructure.">
<polygon fill="white" stroke="#666666" points="948,-322 794,-322 794,-281 948,-281 948,-322"/>
<text text-anchor="start" x="802" y="-310" font-family="Helvetica,sans-Serif" font-size="10.00">wmtk::components::internal</text>
<text text-anchor="start" x="802" y="-299" font-family="Helvetica,sans-Serif" font-size="10.00">::MultiMeshFromTag::build</text>
<text text-anchor="middle" x="871" y="-288" font-family="Helvetica,sans-Serif" font-size="10.00">_adjacency_matrix</text>
</a>
</g>
</g>
<!-- Node5&#45;&gt;Node7 -->
<g id="edge7_Node000005_Node000007" class="edge">
<title>Node5&#45;&gt;Node7</title>
<g id="a_edge7_Node000005_Node000007"><a xlink:title=" ">
<path fill="none" stroke="#63b8ff" d="M1242.42,-248.56C1237.1,-250.67 1231.9,-252.98 1227,-255.5 1208.98,-264.77 1209.98,-276.38 1191,-283.5 1112.05,-313.1 1014.39,-313.9 948.08,-309.66"/>
<polygon fill="#63b8ff" stroke="#63b8ff" points="1243.9,-251.74 1252.06,-244.99 1241.47,-245.18 1243.9,-251.74"/>
</a>
</g>
</g>
<!-- Node18 -->
<g id="Node000018" class="node">
<title>Node18</title>
<g id="a_Node000018"><a xlink:href="classwmtk_1_1operations_1_1_a_m_i_p_s_optimization_smoothing_periodic.html#a86df18fe3713cb41dca1687487dea61b" target="_top" xlink:title="returns an empty vector in case of failure">
<polygon fill="white" stroke="#666666" points="1191,-274.5 989,-274.5 989,-244.5 1191,-244.5 1191,-274.5"/>
<text text-anchor="start" x="997" y="-262.5" font-family="Helvetica,sans-Serif" font-size="10.00">wmtk::operations::AMIPSOptimization</text>
<text text-anchor="middle" x="1090" y="-251.5" font-family="Helvetica,sans-Serif" font-size="10.00">SmoothingPeriodic::execute</text>
</a>
</g>
</g>
<!-- Node5&#45;&gt;Node18 -->
<g id="edge18_Node000005_Node000018" class="edge">
<title>Node5&#45;&gt;Node18</title>
<g id="a_edge18_Node000005_Node000018"><a xlink:title=" ">
<path fill="none" stroke="#63b8ff" d="M1242.41,-239.54C1226.14,-241.69 1208.47,-244.02 1191.12,-246.3"/>
<polygon fill="#63b8ff" stroke="#63b8ff" points="1242.88,-243.01 1252.33,-238.23 1241.96,-236.07 1242.88,-243.01"/>
</a>
</g>
</g>
<!-- Node19 -->
<g id="Node000019" class="node">
<title>Node19</title>
<g id="a_Node000019"><a xlink:href="classwmtk_1_1components_1_1internal_1_1_multi_mesh_from_tag.html#a5c6d50173da15e964b0f1dc6367858e6" target="_top" xlink:title="Get tuples with different global_cid that all represent simplex(t_in, ptype) and are in the same tag&#45;...">
<polygon fill="white" stroke="#666666" points="1167,-226 1013,-226 1013,-185 1167,-185 1167,-226"/>
<text text-anchor="start" x="1021" y="-214" font-family="Helvetica,sans-Serif" font-size="10.00">wmtk::components::internal</text>
<text text-anchor="start" x="1021" y="-203" font-family="Helvetica,sans-Serif" font-size="10.00">::MultiMeshFromTag::get</text>
<text text-anchor="middle" x="1090" y="-192" font-family="Helvetica,sans-Serif" font-size="10.00">_connected_region</text>
</a>
</g>
</g>
<!-- Node5&#45;&gt;Node19 -->
<g id="edge19_Node000005_Node000019" class="edge">
<title>Node5&#45;&gt;Node19</title>
<g id="a_edge19_Node000005_Node000019"><a xlink:title=" ">
<path fill="none" stroke="#63b8ff" d="M1242.33,-222.7C1218.52,-219.99 1191.69,-216.94 1167.31,-214.17"/>
<polygon fill="#63b8ff" stroke="#63b8ff" points="1242,-226.18 1252.33,-223.83 1242.79,-219.23 1242,-226.18"/>
</a>
</g>
</g>
<!-- Node8 -->
<g id="Node000008" class="node">
<title>Node8</title>
<g id="a_Node000008"><a xlink:href="classwmtk_1_1components_1_1internal_1_1_multi_mesh_from_tag.html#a96647e9413f2b7e13dd17f02cf29b12d" target="_top" xlink:title="Create a manifold mesh from the substructure.">
<polygon fill="white" stroke="#666666" points="753,-322 589,-322 589,-281 753,-281 753,-322"/>
<text text-anchor="start" x="597" y="-310" font-family="Helvetica,sans-Serif" font-size="10.00">wmtk::components::internal</text>
<text text-anchor="start" x="597" y="-299" font-family="Helvetica,sans-Serif" font-size="10.00">::MultiMeshFromTag::compute</text>
<text text-anchor="middle" x="671" y="-288" font-family="Helvetica,sans-Serif" font-size="10.00">_substructure_mesh</text>
</a>
</g>
</g>
<!-- Node7&#45;&gt;Node8 -->
<g id="edge8_Node000007_Node000008" class="edge">
<title>Node7&#45;&gt;Node8</title>
<g id="a_edge8_Node000007_Node000008"><a xlink:title=" ">
<path fill="none" stroke="#63b8ff" d="M783.67,-301.5C773.53,-301.5 763.22,-301.5 753.16,-301.5"/>
<polygon fill="#63b8ff" stroke="#63b8ff" points="783.73,-305 793.73,-301.5 783.73,-298 783.73,-305"/>
</a>
</g>
</g>
<!-- Node9 -->
<g id="Node000009" class="node">
<title>Node9</title>
<g id="a_Node000009"><a xlink:href="namespacewmtk_1_1components.html#ac309092566399cef68679a1bb8107d1e" target="_top" xlink:title="Generate a multi&#45;mesh from a mesh with a tag that represents the substructure, the mesh is changed.">
<polygon fill="white" stroke="#666666" points="553,-481.5 384,-481.5 384,-451.5 553,-451.5 553,-481.5"/>
<text text-anchor="start" x="392" y="-469.5" font-family="Helvetica,sans-Serif" font-size="10.00">wmtk::components::multimesh</text>
<text text-anchor="middle" x="468.5" y="-458.5" font-family="Helvetica,sans-Serif" font-size="10.00">_from_tag</text>
</a>
</g>
</g>
<!-- Node8&#45;&gt;Node9 -->
<g id="edge9_Node000008_Node000009" class="edge">
<title>Node8&#45;&gt;Node9</title>
<g id="a_edge9_Node000008_Node000009"><a xlink:title=" ">
<path fill="none" stroke="#63b8ff" d="M653.05,-331.02C633.12,-363.11 597.1,-413.67 553,-442.5 547.7,-445.97 541.89,-448.94 535.88,-451.49"/>
<polygon fill="#63b8ff" stroke="#63b8ff" points="656.27,-332.46 658.47,-322.09 650.29,-328.82 656.27,-332.46"/>
</a>
</g>
</g>
<!-- Node11 -->
<g id="Node000011" class="node">
<title>Node11</title>
<g id="a_Node000011"><a xlink:href="namespacewmtk_1_1components.html#a4166e4880553cfacbf79ac3515a637cd" target="_top" xlink:title=" ">
<polygon fill="white" stroke="#666666" points="546,-433.5 391,-433.5 391,-403.5 546,-403.5 546,-433.5"/>
<text text-anchor="start" x="399" y="-421.5" font-family="Helvetica,sans-Serif" font-size="10.00">wmtk::components::periodic</text>
<text text-anchor="middle" x="468.5" y="-410.5" font-family="Helvetica,sans-Serif" font-size="10.00">_optimization</text>
</a>
</g>
</g>
<!-- Node8&#45;&gt;Node11 -->
<g id="edge11_Node000008_Node000011" class="edge">
<title>Node8&#45;&gt;Node11</title>
<g id="a_edge11_Node000008_Node000011"><a xlink:title=" ">
<path fill="none" stroke="#63b8ff" d="M641.91,-329.11C619.5,-349.75 586.43,-377.28 553,-394.5 546.43,-397.89 539.32,-400.85 532.11,-403.44"/>
<polygon fill="#63b8ff" stroke="#63b8ff" points="644.47,-331.51 649.37,-322.12 639.68,-326.4 644.47,-331.51"/>
</a>
</g>
</g>
<!-- Node12 -->
<g id="Node000012" class="node">
<title>Node12</title>
<g id="a_Node000012"><a xlink:href="test__component__multimesh__from__tag_8cpp.html#a2231774bf0d53fb5f6c1b34753afb255" target="_top" xlink:title=" ">
<polygon fill="white" stroke="#666666" points="504,-385 433,-385 433,-366 504,-366 504,-385"/>
<text text-anchor="middle" x="468.5" y="-373" font-family="Helvetica,sans-Serif" font-size="10.00">TEST_CASE</text>
</a>
</g>
</g>
<!-- Node8&#45;&gt;Node12 -->
<g id="edge12_Node000008_Node000012" class="edge">
<title>Node8&#45;&gt;Node12</title>
<g id="a_edge12_Node000008_Node000012"><a xlink:title=" ">
<path fill="none" stroke="#63b8ff" d="M623.7,-326.75C602.61,-337.43 577.04,-349.28 553,-357.5 537.28,-362.87 519.34,-366.99 504.12,-369.92"/>
<polygon fill="#63b8ff" stroke="#63b8ff" points="625.45,-329.78 632.74,-322.1 622.25,-323.56 625.45,-329.78"/>
</a>
</g>
</g>
<!-- Node13 -->
<g id="Node000013" class="node">
<title>Node13</title>
<g id="a_Node000013"><a xlink:href="test__component__multimesh__from__tag_8cpp.html#a9a31cb828b93e2ddcf0a5063d4d1c9e6" target="_top" xlink:title=" ">
<polygon fill="white" stroke="#666666" points="504,-348 433,-348 433,-329 504,-329 504,-348"/>
<text text-anchor="middle" x="468.5" y="-336" font-family="Helvetica,sans-Serif" font-size="10.00">TEST_CASE</text>
</a>
</g>
</g>
<!-- Node8&#45;&gt;Node13 -->
<g id="edge13_Node000008_Node000013" class="edge">
<title>Node8&#45;&gt;Node13</title>
<g id="a_edge13_Node000008_Node000013"><a xlink:title=" ">
<path fill="none" stroke="#63b8ff" d="M578.63,-318.36C552.11,-323.25 524.76,-328.3 504.07,-332.12"/>
<polygon fill="#63b8ff" stroke="#63b8ff" points="579.54,-321.75 588.74,-316.5 578.27,-314.87 579.54,-321.75"/>
</a>
</g>
</g>
<!-- Node14 -->
<g id="Node000014" class="node">
<title>Node14</title>
<g id="a_Node000014"><a xlink:href="test__component__multimesh__from__tag_8cpp.html#a7a8f66a094907f369fa10876691f42f9" target="_top" xlink:title=" ">
<polygon fill="white" stroke="#666666" points="504,-311 433,-311 433,-292 504,-292 504,-311"/>
<text text-anchor="middle" x="468.5" y="-299" font-family="Helvetica,sans-Serif" font-size="10.00">TEST_CASE</text>
</a>
</g>
</g>
<!-- Node8&#45;&gt;Node14 -->
<g id="edge14_Node000008_Node000014" class="edge">
<title>Node8&#45;&gt;Node14</title>
<g id="a_edge14_Node000008_Node000014"><a xlink:title=" ">
<path fill="none" stroke="#63b8ff" d="M578.63,-301.5C552.11,-301.5 524.76,-301.5 504.07,-301.5"/>
<polygon fill="#63b8ff" stroke="#63b8ff" points="578.74,-305 588.74,-301.5 578.74,-298 578.74,-305"/>
</a>
</g>
</g>
<!-- Node15 -->
<g id="Node000015" class="node">
<title>Node15</title>
<g id="a_Node000015"><a xlink:href="test__component__multimesh__from__tag_8cpp.html#af55ce8249624ce4d6a3feaad760949a6" target="_top" xlink:title=" ">
<polygon fill="white" stroke="#666666" points="504,-274 433,-274 433,-255 504,-255 504,-274"/>
<text text-anchor="middle" x="468.5" y="-262" font-family="Helvetica,sans-Serif" font-size="10.00">TEST_CASE</text>
</a>
</g>
</g>
<!-- Node8&#45;&gt;Node15 -->
<g id="edge15_Node000008_Node000015" class="edge">
<title>Node8&#45;&gt;Node15</title>
<g id="a_edge15_Node000008_Node000015"><a xlink:title=" ">
<path fill="none" stroke="#63b8ff" d="M578.63,-284.64C552.11,-279.75 524.76,-274.7 504.07,-270.88"/>
<polygon fill="#63b8ff" stroke="#63b8ff" points="578.27,-288.13 588.74,-286.5 579.54,-281.25 578.27,-288.13"/>
</a>
</g>
</g>
<!-- Node16 -->
<g id="Node000016" class="node">
<title>Node16</title>
<g id="a_Node000016"><a xlink:href="test__component__multimesh__from__tag_8cpp.html#a18cd3d411cfadc472201c20662d62869" target="_top" xlink:title=" ">
<polygon fill="white" stroke="#666666" points="504,-237 433,-237 433,-218 504,-218 504,-237"/>
<text text-anchor="middle" x="468.5" y="-225" font-family="Helvetica,sans-Serif" font-size="10.00">TEST_CASE</text>
</a>
</g>
</g>
<!-- Node8&#45;&gt;Node16 -->
<g id="edge16_Node000008_Node000016" class="edge">
<title>Node8&#45;&gt;Node16</title>
<g id="a_edge16_Node000008_Node000016"><a xlink:title=" ">
<path fill="none" stroke="#63b8ff" d="M622.62,-276.38C601.71,-266.04 576.57,-254.62 553,-246.5 537.26,-241.08 519.31,-236.77 504.09,-233.63"/>
<polygon fill="#63b8ff" stroke="#63b8ff" points="621.1,-279.53 631.61,-280.88 624.24,-273.27 621.1,-279.53"/>
</a>
</g>
</g>
<!-- Node17 -->
<g id="Node000017" class="node">
<title>Node17</title>
<g id="a_Node000017"><a xlink:href="test__component__multimesh__from__tag_8cpp.html#a4caad3dd8a6355f2ca66fdb0b0af7999" target="_top" xlink:title=" ">
<polygon fill="white" stroke="#666666" points="504,-200 433,-200 433,-181 504,-181 504,-200"/>
<text text-anchor="middle" x="468.5" y="-188" font-family="Helvetica,sans-Serif" font-size="10.00">TEST_CASE</text>
</a>
</g>
</g>
<!-- Node8&#45;&gt;Node17 -->
<g id="edge17_Node000008_Node000017" class="edge">
<title>Node8&#45;&gt;Node17</title>
<g id="a_edge17_Node000008_Node000017"><a xlink:title=" ">
<path fill="none" stroke="#63b8ff" d="M642.12,-273.67C619.82,-252.97 586.8,-225.62 553,-209.5 537.84,-202.27 519.79,-197.72 504.36,-194.89"/>
<polygon fill="#63b8ff" stroke="#63b8ff" points="639.87,-276.36 649.54,-280.69 644.68,-271.27 639.87,-276.36"/>
</a>
</g>
</g>
<!-- Node10 -->
<g id="Node000010" class="node">
<title>Node10</title>
<g id="a_Node000010"><a xlink:href="test__component__multimesh__from__tag_8cpp.html#a2b0208caf4b963a36a43604c3e7cf34a" target="_top" xlink:title=" ">
<polygon fill="white" stroke="#666666" points="305.5,-476 234.5,-476 234.5,-457 305.5,-457 305.5,-476"/>
<text text-anchor="middle" x="270" y="-464" font-family="Helvetica,sans-Serif" font-size="10.00">TEST_CASE</text>
</a>
</g>
</g>
<!-- Node9&#45;&gt;Node10 -->
<g id="edge10_Node000009_Node000010" class="edge">
<title>Node9&#45;&gt;Node10</title>
<g id="a_edge10_Node000009_Node000010"><a xlink:title=" ">
<path fill="none" stroke="#63b8ff" d="M373.56,-466.5C349.4,-466.5 324.88,-466.5 305.88,-466.5"/>
<polygon fill="#63b8ff" stroke="#63b8ff" points="373.88,-470 383.88,-466.5 373.88,-463 373.88,-470"/>
</a>
</g>
</g>
<!-- Node20 -->
<g id="Node000020" class="node">
<title>Node20</title>
<g id="a_Node000020"><a xlink:href="classwmtk_1_1components_1_1internal_1_1_multi_mesh_from_tag.html#afb744eb2b5ec264a9a682ccfd3f8dfcb" target="_top" xlink:title="Compute the ids of the manifold substructure.">
<polygon fill="white" stroke="#666666" points="953,-244 789,-244 789,-203 953,-203 953,-244"/>
<text text-anchor="start" x="797" y="-232" font-family="Helvetica,sans-Serif" font-size="10.00">wmtk::components::internal</text>
<text text-anchor="start" x="797" y="-221" font-family="Helvetica,sans-Serif" font-size="10.00">::MultiMeshFromTag::compute</text>
<text text-anchor="middle" x="871" y="-210" font-family="Helvetica,sans-Serif" font-size="10.00">_substructure_ids</text>
</a>
</g>
</g>
<!-- Node19&#45;&gt;Node20 -->
<g id="edge20_Node000019_Node000020" class="edge">
<title>Node19&#45;&gt;Node20</title>
<g id="a_edge20_Node000019_Node000020"><a xlink:title=" ">
<path fill="none" stroke="#63b8ff" d="M1002.73,-212.66C986.39,-214.01 969.35,-215.42 953.18,-216.77"/>
<polygon fill="#63b8ff" stroke="#63b8ff" points="1003.12,-216.14 1012.8,-211.82 1002.54,-209.16 1003.12,-216.14"/>
</a>
</g>
</g>
<!-- Node20&#45;&gt;Node8 -->
<g id="edge21_Node000020_Node000008" class="edge">
<title>Node20&#45;&gt;Node8</title>
<g id="a_edge21_Node000020_Node000008"><a xlink:title=" ">
<path fill="none" stroke="#63b8ff" d="M808.37,-247.78C781.38,-258.41 750.05,-270.75 724.23,-280.92"/>
<polygon fill="#63b8ff" stroke="#63b8ff" points="809.7,-251.02 817.72,-244.1 807.13,-244.5 809.7,-251.02"/>
</a>
</g>
</g>
<!-- Node22 -->
<g id="Node000022" class="node">
<title>Node22</title>
<g id="a_Node000022"><a xlink:href="classwmtk_1_1multimesh_1_1utils_1_1_map_validator.html#a3904ef0aa73b2aa3b9f6c054686bf17f" target="_top" xlink:title=" ">
<polygon fill="white" stroke="#666666" points="1172,-167 1008,-167 1008,-126 1172,-126 1172,-167"/>
<text text-anchor="start" x="1016" y="-155" font-family="Helvetica,sans-Serif" font-size="10.00">wmtk::multimesh::utils</text>
<text text-anchor="start" x="1016" y="-144" font-family="Helvetica,sans-Serif" font-size="10.00">::MapValidator::check</text>
<text text-anchor="middle" x="1090" y="-133" font-family="Helvetica,sans-Serif" font-size="10.00">_child_switch_homomorphism</text>
</a>
</g>
</g>
<!-- Node21&#45;&gt;Node22 -->
<g id="edge23_Node000021_Node000022" class="edge">
<title>Node21&#45;&gt;Node22</title>
<g id="a_edge23_Node000021_Node000022"><a xlink:title=" ">
<path fill="none" stroke="#63b8ff" d="M1242.33,-158.88C1220.11,-157.06 1195.27,-155.03 1172.23,-153.15"/>
<polygon fill="#63b8ff" stroke="#63b8ff" points="1242.08,-162.37 1252.33,-159.7 1242.65,-155.4 1242.08,-162.37"/>
</a>
</g>
</g>
<!-- Node32 -->
<g id="Node000032" class="node">
<title>Node32</title>
<g id="a_Node000032"><a xlink:href="namespacewmtk_1_1components_1_1triangle__insertion.html#a23509bfe845d018ac65e2759fb77c608" target="_top" xlink:title=" ">
<polygon fill="white" stroke="#666666" points="1168,-89.5 1012,-89.5 1012,-59.5 1168,-59.5 1168,-89.5"/>
<text text-anchor="start" x="1020" y="-77.5" font-family="Helvetica,sans-Serif" font-size="10.00">wmtk::components::triangle</text>
<text text-anchor="middle" x="1090" y="-66.5" font-family="Helvetica,sans-Serif" font-size="10.00">_insertion::triangle_insertion</text>
</a>
</g>
</g>
<!-- Node21&#45;&gt;Node32 -->
<g id="edge34_Node000021_Node000032" class="edge">
<title>Node21&#45;&gt;Node32</title>
<g id="a_edge34_Node000021_Node000032"><a xlink:title=" ">
<path fill="none" stroke="#63b8ff" d="M1242.61,-146.91C1237.25,-144.94 1231.99,-142.81 1227,-140.5 1209.55,-132.43 1207.94,-125.6 1191,-116.5 1172.09,-106.34 1150.19,-96.9 1131.71,-89.56"/>
<polygon fill="#63b8ff" stroke="#63b8ff" points="1241.72,-150.3 1252.31,-150.26 1244,-143.69 1241.72,-150.3"/>
</a>
</g>
</g>
<!-- Node23 -->
<g id="Node000023" class="node">
<title>Node23</title>
<g id="a_Node000023"><a xlink:href="classwmtk_1_1multimesh_1_1utils_1_1_map_validator.html#a68f039afe0e44da9486a4d3c38cf5bea" target="_top" xlink:title=" ">
<polygon fill="white" stroke="#666666" points="939,-167 803,-167 803,-126 939,-126 939,-167"/>
<text text-anchor="start" x="811" y="-155" font-family="Helvetica,sans-Serif" font-size="10.00">wmtk::multimesh::utils</text>
<text text-anchor="start" x="811" y="-144" font-family="Helvetica,sans-Serif" font-size="10.00">::MapValidator::check</text>
<text text-anchor="middle" x="871" y="-133" font-family="Helvetica,sans-Serif" font-size="10.00">_switch_homomorphism</text>
</a>
</g>
</g>
<!-- Node22&#45;&gt;Node23 -->
<g id="edge24_Node000022_Node000023" class="edge">
<title>Node22&#45;&gt;Node23</title>
<g id="a_edge24_Node000022_Node000023"><a xlink:title=" ">
<path fill="none" stroke="#63b8ff" d="M997.71,-146.5C978.09,-146.5 957.7,-146.5 939.19,-146.5"/>
<polygon fill="#63b8ff" stroke="#63b8ff" points="997.89,-150 1007.89,-146.5 997.89,-143 997.89,-150"/>
</a>
</g>
</g>
<!-- Node24 -->
<g id="Node000024" class="node">
<title>Node24</title>
<g id="a_Node000024"><a xlink:href="classwmtk_1_1multimesh_1_1utils_1_1_map_validator.html#a7c91255f342becd3f24ffa7bbaebeb3d" target="_top" xlink:title=" ">
<polygon fill="white" stroke="#666666" points="740.5,-161.5 601.5,-161.5 601.5,-131.5 740.5,-131.5 740.5,-161.5"/>
<text text-anchor="start" x="609.5" y="-149.5" font-family="Helvetica,sans-Serif" font-size="10.00">wmtk::multimesh::utils</text>
<text text-anchor="middle" x="671" y="-138.5" font-family="Helvetica,sans-Serif" font-size="10.00">::MapValidator::check_all</text>
</a>
</g>
</g>
<!-- Node23&#45;&gt;Node24 -->
<g id="edge25_Node000023_Node000024" class="edge">
<title>Node23&#45;&gt;Node24</title>
<g id="a_edge25_Node000023_Node000024"><a xlink:title=" ">
<path fill="none" stroke="#63b8ff" d="M792.94,-146.5C775.7,-146.5 757.52,-146.5 740.65,-146.5"/>
<polygon fill="#63b8ff" stroke="#63b8ff" points="792.97,-150 802.97,-146.5 792.97,-143 792.97,-150"/>
</a>
</g>
</g>
<!-- Node25 -->
<g id="Node000025" class="node">
<title>Node25</title>
<g id="a_Node000025"><a xlink:href="namespacewmtk_1_1multimesh_1_1utils.html#abcc3f7f7a25879455cafc8a8f4304c4c" target="_top" xlink:title=" ">
<polygon fill="white" stroke="#666666" points="533.5,-161.5 403.5,-161.5 403.5,-131.5 533.5,-131.5 533.5,-161.5"/>
<text text-anchor="start" x="411.5" y="-149.5" font-family="Helvetica,sans-Serif" font-size="10.00">wmtk::multimesh::utils</text>
<text text-anchor="middle" x="468.5" y="-138.5" font-family="Helvetica,sans-Serif" font-size="10.00">::check_maps_valid</text>
</a>
</g>
</g>
<!-- Node24&#45;&gt;Node25 -->
<g id="edge26_Node000024_Node000025" class="edge">
<title>Node24&#45;&gt;Node25</title>
<g id="a_edge26_Node000024_Node000025"><a xlink:title=" ">
<path fill="none" stroke="#63b8ff" d="M591.14,-146.5C572.11,-146.5 552.01,-146.5 533.74,-146.5"/>
<polygon fill="#63b8ff" stroke="#63b8ff" points="591.28,-150 601.28,-146.5 591.28,-143 591.28,-150"/>
</a>
</g>
</g>
<!-- Node26 -->
<g id="Node000026" class="node">
<title>Node26</title>
<g id="a_Node000026"><a xlink:href="classwmtk_1_1operations_1_1_operation.html#af181d255eb0ef5297646e0dc9dc817a7" target="_top" xlink:title=" ">
<polygon fill="white" stroke="#666666" points="348,-194.5 192,-194.5 192,-164.5 348,-164.5 348,-194.5"/>
<text text-anchor="start" x="200" y="-182.5" font-family="Helvetica,sans-Serif" font-size="10.00">wmtk::operations::Operation</text>
<text text-anchor="middle" x="270" y="-171.5" font-family="Helvetica,sans-Serif" font-size="10.00">::apply_attribute_transfer</text>
</a>
</g>
</g>
<!-- Node25&#45;&gt;Node26 -->
<g id="edge27_Node000025_Node000026" class="edge">
<title>Node25&#45;&gt;Node26</title>
<g id="a_edge27_Node000025_Node000026"><a xlink:title=" ">
<path fill="none" stroke="#63b8ff" d="M393.32,-158.96C378.5,-161.45 362.91,-164.06 348,-166.57"/>
<polygon fill="#63b8ff" stroke="#63b8ff" points="394.15,-162.37 403.43,-157.26 392.99,-155.46 394.15,-162.37"/>
</a>
</g>
</g>
<!-- Node29 -->
<g id="Node000029" class="node">
<title>Node29</title>
<g id="a_Node000029"><a xlink:href="namespacewmtk_1_1components.html#a1d95b8c424d645d432babf8ba5765e36" target="_top" xlink:title=" ">
<polygon fill="white" stroke="#666666" points="340,-128.5 200,-128.5 200,-98.5 340,-98.5 340,-128.5"/>
<text text-anchor="start" x="208" y="-116.5" font-family="Helvetica,sans-Serif" font-size="10.00">wmtk::components::edge</text>
<text text-anchor="middle" x="270" y="-105.5" font-family="Helvetica,sans-Serif" font-size="10.00">_insertion</text>
</a>
</g>
</g>
<!-- Node25&#45;&gt;Node29 -->
<g id="edge30_Node000025_Node000029" class="edge">
<title>Node25&#45;&gt;Node29</title>
<g id="a_edge30_Node000025_Node000029"><a xlink:title=" ">
<path fill="none" stroke="#63b8ff" d="M393.29,-134.04C375.83,-131.11 357.29,-127.99 340.06,-125.1"/>
<polygon fill="#63b8ff" stroke="#63b8ff" points="392.99,-137.54 403.43,-135.74 394.15,-130.63 392.99,-137.54"/>
</a>
</g>
</g>
<!-- Node27 -->
<g id="Node000027" class="node">
<title>Node27</title>
<g id="a_Node000027"><a xlink:href="classwmtk_1_1operations_1_1_operation.html#a9c6426d34b54642aacb28e7cf93e328f" target="_top" xlink:title=" ">
<polygon fill="white" stroke="#666666" points="156,-238.5 0,-238.5 0,-208.5 156,-208.5 156,-238.5"/>
<text text-anchor="start" x="8" y="-226.5" font-family="Helvetica,sans-Serif" font-size="10.00">wmtk::operations::Operation</text>
<text text-anchor="middle" x="78" y="-215.5" font-family="Helvetica,sans-Serif" font-size="10.00">::operator()</text>
</a>
</g>
</g>
<!-- Node26&#45;&gt;Node27 -->
<g id="edge28_Node000026_Node000027" class="edge">
<title>Node26&#45;&gt;Node27</title>
<g id="a_edge28_Node000026_Node000027"><a xlink:title=" ">
<path fill="none" stroke="#63b8ff" d="M193.96,-196.88C177.41,-200.71 160,-204.74 143.89,-208.47"/>
<polygon fill="#63b8ff" stroke="#63b8ff" points="195.19,-200.19 204.14,-194.52 193.61,-193.37 195.19,-200.19"/>
</a>
</g>
</g>
<!-- Node28 -->
<g id="Node000028" class="node">
<title>Node28</title>
<g id="a_Node000028"><a xlink:href="classwmtk_1_1operations_1_1_operation_sequence.html#a547ec2a6ed8a354eff76e733b2e7fb2c" target="_top" xlink:title=" ">
<polygon fill="white" stroke="#666666" points="156,-190.5 0,-190.5 0,-160.5 156,-160.5 156,-190.5"/>
<text text-anchor="start" x="8" y="-178.5" font-family="Helvetica,sans-Serif" font-size="10.00">wmtk::operations::Operation</text>
<text text-anchor="middle" x="78" y="-167.5" font-family="Helvetica,sans-Serif" font-size="10.00">Sequence::operator()</text>
</a>
</g>
</g>
<!-- Node26&#45;&gt;Node28 -->
<g id="edge29_Node000026_Node000028" class="edge">
<title>Node26&#45;&gt;Node28</title>
<g id="a_edge29_Node000026_Node000028"><a xlink:title=" ">
<path fill="none" stroke="#63b8ff" d="M181.94,-177.67C173.32,-177.49 164.62,-177.3 156.12,-177.12"/>
<polygon fill="#63b8ff" stroke="#63b8ff" points="181.92,-181.17 191.99,-177.88 182.07,-174.17 181.92,-181.17"/>
</a>
</g>
</g>
<!-- Node29&#45;&gt;Node29 -->
<g id="edge31_Node000029_Node000029" class="edge">
<title>Node29&#45;&gt;Node29</title>
<g id="a_edge31_Node000029_Node000029"><a xlink:title=" ">
<path fill="none" stroke="#63b8ff" d="M303.61,-139.1C299.01,-143.47 287.81,-146.5 270,-146.5 240,-146.5 228.75,-137.91 236.25,-128.78"/>
<polygon fill="#63b8ff" stroke="#63b8ff" points="307.11,-138.82 303.75,-128.78 300.11,-138.73 307.11,-138.82"/>
</a>
</g>
</g>
<!-- Node30 -->
<g id="Node000030" class="node">
<title>Node30</title>
<g id="a_Node000030"><a xlink:href="namespacewmtk_1_1components_1_1internal.html#aff1250493ee8c47518118b92223c8576" target="_top" xlink:title=" ">
<polygon fill="white" stroke="#666666" points="155,-133.5 1,-133.5 1,-103.5 155,-103.5 155,-133.5"/>
<text text-anchor="start" x="9" y="-121.5" font-family="Helvetica,sans-Serif" font-size="10.00">wmtk::components::internal</text>
<text text-anchor="middle" x="78" y="-110.5" font-family="Helvetica,sans-Serif" font-size="10.00">::edge_insertion</text>
</a>
</g>
</g>
<!-- Node29&#45;&gt;Node30 -->
<g id="edge32_Node000029_Node000030" class="edge">
<title>Node29&#45;&gt;Node30</title>
<g id="a_edge32_Node000029_Node000030"><a xlink:title=" ">
<path fill="none" stroke="#63b8ff" d="M189.87,-115.58C178.38,-115.88 166.57,-116.2 155.14,-116.5"/>
<polygon fill="#63b8ff" stroke="#63b8ff" points="189.96,-119.08 199.87,-115.32 189.78,-112.08 189.96,-119.08"/>
</a>
</g>
</g>
<!-- Node31 -->
<g id="Node000031" class="node">
<title>Node31</title>
<g id="a_Node000031"><a xlink:href="namespacewmtk_1_1components_1_1internal.html#ad827cdbb96806fb2e4c19c644277f3c3" target="_top" xlink:title="include the intersection on edgepoints">
<polygon fill="white" stroke="#666666" points="155,-85.5 1,-85.5 1,-55.5 155,-55.5 155,-85.5"/>
<text text-anchor="start" x="9" y="-73.5" font-family="Helvetica,sans-Serif" font-size="10.00">wmtk::components::internal</text>
<text text-anchor="middle" x="78" y="-62.5" font-family="Helvetica,sans-Serif" font-size="10.00">::segment_segment_inter</text>
</a>
</g>
</g>
<!-- Node29&#45;&gt;Node31 -->
<g id="edge33_Node000029_Node000031" class="edge">
<title>Node29&#45;&gt;Node31</title>
<g id="a_edge33_Node000029_Node000031"><a xlink:title=" ">
<path fill="none" stroke="#63b8ff" d="M192.43,-96.17C176.86,-92.65 160.6,-88.97 145.42,-85.53"/>
<polygon fill="#63b8ff" stroke="#63b8ff" points="192.02,-99.67 202.55,-98.46 193.57,-92.84 192.02,-99.67"/>
</a>
</g>
</g>
<!-- Node32&#45;&gt;Node32 -->
<g id="edge35_Node000032_Node000032" class="edge">
<title>Node32&#45;&gt;Node32</title>
<g id="a_edge35_Node000032_Node000032"><a xlink:title=" ">
<path fill="none" stroke="#63b8ff" d="M1128.16,-100.1C1122.94,-104.47 1110.22,-107.5 1090,-107.5 1055.94,-107.5 1043.16,-98.91 1051.68,-89.78"/>
<polygon fill="#63b8ff" stroke="#63b8ff" points="1131.66,-99.83 1128.32,-89.78 1124.66,-99.72 1131.66,-99.83"/>
</a>
</g>
</g>
<!-- Node34&#45;&gt;Node34 -->
<g id="edge39_Node000034_Node000034" class="edge">
<title>Node34&#45;&gt;Node34</title>
<g id="a_edge39_Node000034_Node000034"><a xlink:title=" ">
<path fill="none" stroke="#63b8ff" d="M1343.31,-71.96C1338.66,-76.74 1328.22,-80 1312,-80 1286.05,-80 1274.9,-71.65 1278.55,-62.1"/>
<polygon fill="#63b8ff" stroke="#63b8ff" points="1346.75,-72.61 1345.45,-62.1 1339.91,-71.13 1346.75,-72.61"/>
</a>
</g>
</g>
<!-- Node35 -->
<g id="Node000035" class="node">
<title>Node35</title>
<g id="a_Node000035"><a xlink:href="namespacewmtk_1_1components_1_1shortest__edge__collapse.html#a1be5a09251cc55d3030f671a39c7ed47" target="_top" xlink:title="Perform shortest&#45;edge collapse on a triangular surface mesh.">
<polygon fill="white" stroke="#666666" points="1168,-41 1012,-41 1012,0 1168,0 1168,-41"/>
<text text-anchor="start" x="1020" y="-29" font-family="Helvetica,sans-Serif" font-size="10.00">wmtk::components::shortest</text>
<text text-anchor="start" x="1020" y="-18" font-family="Helvetica,sans-Serif" font-size="10.00">_edge_collapse::shortest</text>
<text text-anchor="middle" x="1090" y="-7" font-family="Helvetica,sans-Serif" font-size="10.00">_edge_collapse</text>
</a>
</g>
</g>
<!-- Node34&#45;&gt;Node35 -->
<g id="edge38_Node000034_Node000035" class="edge">
<title>Node34&#45;&gt;Node35</title>
<g id="a_edge38_Node000034_Node000035"><a xlink:title=" ">
<path fill="none" stroke="#63b8ff" d="M1223.65,-33.16C1205.28,-31.41 1186.03,-29.57 1168.07,-27.86"/>
<polygon fill="#63b8ff" stroke="#63b8ff" points="1223.46,-36.66 1233.75,-34.13 1224.12,-29.69 1223.46,-36.66"/>
</a>
</g>
</g>
</g>
</svg>
