<?xml version="1.0" encoding="UTF-8" standalone="no"?>
<!DOCTYPE svg PUBLIC "-//W3C//DTD SVG 1.1//EN"
 "http://www.w3.org/Graphics/SVG/1.1/DTD/svg11.dtd">
<!-- Generated by graphviz version 2.43.0 (0)
 -->
<!-- Title: wmtk::components::multimesh::NamedMultiMesh::get_names_json Pages: 1 -->
<svg width="749pt" height="102pt"
 viewBox="0.00 0.00 749.00 101.50" xmlns="http://www.w3.org/2000/svg" xmlns:xlink="http://www.w3.org/1999/xlink">
<g id="graph0" class="graph" transform="scale(1 1) rotate(0) translate(4 97.5)">
<title>wmtk::components::multimesh::NamedMultiMesh::get_names_json</title>
<!-- Node1 -->
<g id="Node000001" class="node">
<title>Node1</title>
<g id="a_Node000001"><a xlink:title=" ">
<polygon fill="#999999" stroke="#666666" points="194,-54 0,-54 0,-24 194,-24 194,-54"/>
<text text-anchor="start" x="8" y="-42" font-family="Helvetica,sans-Serif" font-size="10.00">wmtk::components::multimesh</text>
<text text-anchor="middle" x="97" y="-31" font-family="Helvetica,sans-Serif" font-size="10.00">::NamedMultiMesh::get_names_json</text>
</a>
</g>
</g>
<!-- Node2 -->
<g id="Node000002" class="node">
<title>Node2</title>
<g id="a_Node000002"><a xlink:href="classwmtk_1_1components_1_1multimesh_1_1_named_multi_mesh.html#a0a47aede86bb45377eae74c01d313544" target="_top" xlink:title=" ">
<polygon fill="white" stroke="#666666" points="399,-78 230,-78 230,-48 399,-48 399,-78"/>
<text text-anchor="start" x="238" y="-66" font-family="Helvetica,sans-Serif" font-size="10.00">wmtk::components::multimesh</text>
<text text-anchor="middle" x="314.5" y="-55" font-family="Helvetica,sans-Serif" font-size="10.00">::NamedMultiMesh::get_id</text>
</a>
</g>
</g>
<!-- Node1&#45;&gt;Node2 -->
<g id="edge1_Node000001_Node000002" class="edge">
<title>Node1&#45;&gt;Node2</title>
<g id="a_edge1_Node000001_Node000002"><a xlink:title=" ">
<path fill="none" stroke="#63b8ff" d="M194.09,-49.7C202.64,-50.65 211.29,-51.62 219.82,-52.57"/>
<polygon fill="#63b8ff" stroke="#63b8ff" points="219.44,-56.05 229.77,-53.67 220.22,-49.09 219.44,-56.05"/>
</a>
</g>
</g>
<!-- Node6 -->
<g id="Node000006" class="node">
<title>Node6</title>
<g id="a_Node000006"><a xlink:href="classwmtk_1_1components_1_1multimesh_1_1_named_multi_mesh.html#ab5421972a530f50e6d9e9a1a0359a503" target="_top" xlink:title=" ">
<polygon fill="white" stroke="#666666" points="399,-30 230,-30 230,0 399,0 399,-30"/>
<text text-anchor="start" x="238" y="-18" font-family="Helvetica,sans-Serif" font-size="10.00">wmtk::components::multimesh</text>
<text text-anchor="middle" x="314.5" y="-7" font-family="Helvetica,sans-Serif" font-size="10.00">::NamedMultiMesh::get_node</text>
</a>
</g>
</g>
<!-- Node1&#45;&gt;Node6 -->
<g id="edge5_Node000001_Node000006" class="edge">
<title>Node1&#45;&gt;Node6</title>
<g id="a_edge5_Node000001_Node000006"><a xlink:title=" ">
<path fill="none" stroke="#63b8ff" d="M194.09,-28.3C202.64,-27.35 211.29,-26.38 219.82,-25.43"/>
<polygon fill="#63b8ff" stroke="#63b8ff" points="220.22,-28.91 229.77,-24.33 219.44,-21.95 220.22,-28.91"/>
</a>
</g>
</g>
<!-- Node3 -->
<g id="Node000003" class="node">
<title>Node3</title>
<g id="a_Node000003"><a xlink:href="namespacewmtk.html#a6a35f11c12436093d26fdd8be6fecc06" target="_top" xlink:title="Retrieves the current logger.">
<polygon fill="white" stroke="#666666" points="560,-93.5 479,-93.5 479,-74.5 560,-74.5 560,-93.5"/>
<text text-anchor="middle" x="519.5" y="-81.5" font-family="Helvetica,sans-Serif" font-size="10.00">wmtk::logger</text>
</a>
</g>
</g>
<!-- Node2&#45;&gt;Node3 -->
<g id="edge2_Node000002_Node000003" class="edge">
<title>Node2&#45;&gt;Node3</title>
<g id="a_edge2_Node000002_Node000003"><a xlink:title=" ">
<path fill="none" stroke="#63b8ff" d="M399.24,-71.66C422.78,-74.1 447.65,-76.67 468.54,-78.83"/>
<polygon fill="#63b8ff" stroke="#63b8ff" points="468.46,-82.34 478.76,-79.89 469.18,-75.38 468.46,-82.34"/>
</a>
</g>
</g>
<!-- Node5 -->
<g id="Node000005" class="node">
<title>Node5</title>
<g id="a_Node000005"><a xlink:href="namespacewmtk_1_1components_1_1multimesh_1_1internal.html#a3b2338b45b680494e5501c97baa6f456" target="_top" xlink:title=" ">
<polygon fill="white" stroke="#666666" points="604,-56 435,-56 435,-26 604,-26 604,-56"/>
<text text-anchor="start" x="443" y="-44" font-family="Helvetica,sans-Serif" font-size="10.00">wmtk::components::multimesh</text>
<text text-anchor="middle" x="519.5" y="-33" font-family="Helvetica,sans-Serif" font-size="10.00">::internal::split_path</text>
</a>
</g>
</g>
<!-- Node2&#45;&gt;Node5 -->
<g id="edge4_Node000002_Node000005" class="edge">
<title>Node2&#45;&gt;Node5</title>
<g id="a_edge4_Node000002_Node000005"><a xlink:title=" ">
<path fill="none" stroke="#63b8ff" d="M399.24,-53.92C407.72,-53.01 416.37,-52.07 424.94,-51.14"/>
<polygon fill="#63b8ff" stroke="#63b8ff" points="425.39,-54.61 434.95,-50.05 424.63,-47.65 425.39,-54.61"/>
</a>
</g>
</g>
<!-- Node4 -->
<g id="Node000004" class="node">
<title>Node4</title>
<g id="a_Node000004"><a xlink:href="namespacewmtk.html#a3daa7951a5f8b78cf4600dc047fcc180" target="_top" xlink:title="Setup a logger object to be used by WildmeshToolkit.">
<polygon fill="white" stroke="#666666" points="741,-93.5 640,-93.5 640,-74.5 741,-74.5 741,-93.5"/>
<text text-anchor="middle" x="690.5" y="-81.5" font-family="Helvetica,sans-Serif" font-size="10.00">wmtk::set_logger</text>
</a>
</g>
</g>
<!-- Node3&#45;&gt;Node4 -->
<g id="edge3_Node000003_Node000004" class="edge">
<title>Node3&#45;&gt;Node4</title>
<g id="a_edge3_Node000003_Node000004"><a xlink:title=" ">
<path fill="none" stroke="#63b8ff" d="M560.12,-84C580.86,-84 606.68,-84 629.78,-84"/>
<polygon fill="#63b8ff" stroke="#63b8ff" points="629.83,-87.5 639.83,-84 629.83,-80.5 629.83,-87.5"/>
</a>
</g>
</g>
</g>
</svg>
