<?xml version="1.0" encoding="UTF-8" standalone="no"?>
<!DOCTYPE svg PUBLIC "-//W3C//DTD SVG 1.1//EN"
 "http://www.w3.org/Graphics/SVG/1.1/DTD/svg11.dtd">
<!-- Generated by graphviz version 2.43.0 (0)
 -->
<!-- Title: wmtk::components::envelope::Envelope::is_inside Pages: 1 -->
<svg width="532pt" height="81pt"
 viewBox="0.00 0.00 532.00 81.00" xmlns="http://www.w3.org/2000/svg" xmlns:xlink="http://www.w3.org/1999/xlink">
<g id="graph0" class="graph" transform="scale(1 1) rotate(0) translate(4 77)">
<title>wmtk::components::envelope::Envelope::is_inside</title>
<!-- Node1 -->
<g id="Node000001" class="node">
<title>Node1</title>
<g id="a_Node000001"><a xlink:title=" ">
<polygon fill="#999999" stroke="#666666" points="161,-51 0,-51 0,-21 161,-21 161,-51"/>
<text text-anchor="start" x="8" y="-39" font-family="Helvetica,sans-Serif" font-size="10.00">wmtk::components::envelope</text>
<text text-anchor="middle" x="80.5" y="-28" font-family="Helvetica,sans-Serif" font-size="10.00">::Envelope::is_inside</text>
</a>
</g>
</g>
<!-- Node2 -->
<g id="Node000002" class="node">
<title>Node2</title>
<g id="a_Node000002"><a xlink:href="classwmtk_1_1components_1_1envelope_1_1_envelope.html#a124f0d3175f6ddcf02792c0b62466da3" target="_top" xlink:title=" ">
<polygon fill="white" stroke="#666666" points="362.5,-73 201.5,-73 201.5,-43 362.5,-43 362.5,-73"/>
<text text-anchor="start" x="209.5" y="-61" font-family="Helvetica,sans-Serif" font-size="10.00">wmtk::components::envelope</text>
<text text-anchor="middle" x="282" y="-50" font-family="Helvetica,sans-Serif" font-size="10.00">::Envelope::is_inside</text>
</a>
</g>
</g>
<!-- Node1&#45;&gt;Node2 -->
<g id="edge1_Node000001_Node000002" class="edge">
<title>Node1&#45;&gt;Node2</title>
<g id="a_edge1_Node000001_Node000002"><a xlink:title=" ">
<path fill="none" stroke="#63b8ff" d="M161.21,-44.79C171.14,-45.88 181.35,-47.01 191.41,-48.12"/>
<polygon fill="#63b8ff" stroke="#63b8ff" points="191.1,-51.61 201.42,-49.22 191.86,-44.65 191.1,-51.61"/>
</a>
</g>
</g>
<!-- Node3 -->
<g id="Node000003" class="node">
<title>Node3</title>
<g id="a_Node000003"><a xlink:href="classwmtk_1_1_mesh.html#abaf00438d0700358b160e310d69725c9" target="_top" xlink:title=" ">
<polygon fill="white" stroke="#666666" points="367,-24.5 197,-24.5 197,-5.5 367,-5.5 367,-24.5"/>
<text text-anchor="middle" x="282" y="-12.5" font-family="Helvetica,sans-Serif" font-size="10.00">wmtk::Mesh::top_simplex_type</text>
</a>
</g>
</g>
<!-- Node1&#45;&gt;Node3 -->
<g id="edge2_Node000001_Node000003" class="edge">
<title>Node1&#45;&gt;Node3</title>
<g id="a_edge2_Node000001_Node000003"><a xlink:title=" ">
<path fill="none" stroke="#63b8ff" d="M161.21,-27.61C169.63,-26.72 178.26,-25.82 186.83,-24.91"/>
<polygon fill="#63b8ff" stroke="#63b8ff" points="187.26,-28.39 196.84,-23.86 186.53,-21.42 187.26,-28.39"/>
</a>
</g>
</g>
<!-- Node4 -->
<g id="Node000004" class="node">
<title>Node4</title>
<g id="a_Node000004"><a xlink:href="classwmtk_1_1_mesh.html#a933f681cf24a63b155c9462280385200" target="_top" xlink:title=" ">
<polygon fill="white" stroke="#666666" points="524,-30 403,-30 403,0 524,0 524,-30"/>
<text text-anchor="start" x="411" y="-18" font-family="Helvetica,sans-Serif" font-size="10.00">wmtk::Mesh::top_cell</text>
<text text-anchor="middle" x="463.5" y="-7" font-family="Helvetica,sans-Serif" font-size="10.00">_dimension</text>
</a>
</g>
</g>
<!-- Node3&#45;&gt;Node4 -->
<g id="edge3_Node000003_Node000004" class="edge">
<title>Node3&#45;&gt;Node4</title>
<g id="a_edge3_Node000003_Node000004"><a xlink:title=" ">
<path fill="none" stroke="#63b8ff" d="M367.23,-15C375.78,-15 384.39,-15 392.76,-15"/>
<polygon fill="#63b8ff" stroke="#63b8ff" points="392.83,-18.5 402.83,-15 392.83,-11.5 392.83,-18.5"/>
</a>
</g>
</g>
</g>
</svg>
