<?xml version="1.0" encoding="UTF-8" standalone="no"?>
<!DOCTYPE svg PUBLIC "-//W3C//DTD SVG 1.1//EN"
 "http://www.w3.org/Graphics/SVG/1.1/DTD/svg11.dtd">
<!-- Generated by graphviz version 2.43.0 (0)
 -->
<!-- Title: wmtk::Mesh::map Pages: 1 -->
<svg width="1106pt" height="403pt"
 viewBox="0.00 0.00 1106.00 402.50" xmlns="http://www.w3.org/2000/svg" xmlns:xlink="http://www.w3.org/1999/xlink">
<g id="graph0" class="graph" transform="scale(1 1) rotate(0) translate(4 398.5)">
<title>wmtk::Mesh::map</title>
<!-- Node1 -->
<g id="Node000001" class="node">
<title>Node1</title>
<g id="a_Node000001"><a xlink:title="maps a simplex from this mesh to any other mesh">
<polygon fill="#999999" stroke="#666666" points="104,-291 0,-291 0,-272 104,-272 104,-291"/>
<text text-anchor="middle" x="52" y="-279" font-family="Helvetica,sans-Serif" font-size="10.00">wmtk::Mesh::map</text>
</a>
</g>
</g>
<!-- Node2 -->
<g id="Node000002" class="node">
<title>Node2</title>
<g id="a_Node000002"><a xlink:href="classwmtk_1_1_mesh.html#ad054c074d4776010002321117ec459e8" target="_top" xlink:title=" ">
<polygon fill="white" stroke="#666666" points="301,-366.5 140,-366.5 140,-336.5 301,-336.5 301,-366.5"/>
<text text-anchor="start" x="148" y="-354.5" font-family="Helvetica,sans-Serif" font-size="10.00">wmtk::Mesh::is_from</text>
<text text-anchor="middle" x="220.5" y="-343.5" font-family="Helvetica,sans-Serif" font-size="10.00">_same_multi_mesh_structure</text>
</a>
</g>
</g>
<!-- Node1&#45;&gt;Node2 -->
<g id="edge1_Node000001_Node000002" class="edge">
<title>Node1&#45;&gt;Node2</title>
<g id="a_edge1_Node000001_Node000002"><a xlink:title=" ">
<path fill="none" stroke="#63b8ff" d="M75.8,-291.09C100.98,-301.67 142.18,-318.99 174.02,-332.38"/>
<polygon fill="#63b8ff" stroke="#63b8ff" points="173,-335.75 183.57,-336.39 175.71,-329.29 173,-335.75"/>
</a>
</g>
</g>
<!-- Node6 -->
<g id="Node000006" class="node">
<title>Node6</title>
<g id="a_Node000006"><a xlink:href="classwmtk_1_1_mesh.html#a8cc8686f0688613806f43720b6db49e7" target="_top" xlink:title="check validity of tuple including its hash">
<polygon fill="white" stroke="#666666" points="280.5,-291 160.5,-291 160.5,-272 280.5,-272 280.5,-291"/>
<text text-anchor="middle" x="220.5" y="-279" font-family="Helvetica,sans-Serif" font-size="10.00">wmtk::Mesh::is_valid</text>
</a>
</g>
</g>
<!-- Node1&#45;&gt;Node6 -->
<g id="edge6_Node000001_Node000006" class="edge">
<title>Node1&#45;&gt;Node6</title>
<g id="a_edge6_Node000001_Node000006"><a xlink:title=" ">
<path fill="none" stroke="#63b8ff" d="M104.31,-281.5C118.89,-281.5 135.01,-281.5 150.46,-281.5"/>
<polygon fill="#63b8ff" stroke="#63b8ff" points="150.49,-285 160.49,-281.5 150.49,-278 150.49,-285"/>
</a>
</g>
</g>
<!-- Node12 -->
<g id="Node000012" class="node">
<title>Node12</title>
<g id="a_Node000012"><a xlink:href="classwmtk_1_1multimesh_1_1_multi_mesh_manager.html#a99b3819552ae63c825dd77bebbd65040" target="_top" xlink:title="maps a simplex from this mesh to any other mesh">
<polygon fill="white" stroke="#666666" points="300.5,-106.5 140.5,-106.5 140.5,-76.5 300.5,-76.5 300.5,-106.5"/>
<text text-anchor="start" x="148.5" y="-94.5" font-family="Helvetica,sans-Serif" font-size="10.00">wmtk::multimesh::MultiMesh</text>
<text text-anchor="middle" x="220.5" y="-83.5" font-family="Helvetica,sans-Serif" font-size="10.00">Manager::map</text>
</a>
</g>
</g>
<!-- Node1&#45;&gt;Node12 -->
<g id="edge13_Node000001_Node000012" class="edge">
<title>Node1&#45;&gt;Node12</title>
<g id="a_edge13_Node000001_Node000012"><a xlink:title=" ">
<path fill="none" stroke="#63b8ff" d="M61.49,-271.82C86.9,-242.82 162.87,-156.12 199.42,-114.41"/>
<polygon fill="#63b8ff" stroke="#63b8ff" points="202.22,-116.53 206.18,-106.7 196.96,-111.92 202.22,-116.53"/>
</a>
</g>
</g>
<!-- Node3 -->
<g id="Node000003" class="node">
<title>Node3</title>
<g id="a_Node000003"><a xlink:href="classwmtk_1_1_mesh.html#aac3ec1ebbe00982ddfe70cc710d8f54e" target="_top" xlink:title="returns a reference to the root of a multimesh tree">
<polygon fill="white" stroke="#666666" points="488,-394.5 359,-394.5 359,-364.5 488,-364.5 488,-394.5"/>
<text text-anchor="start" x="367" y="-382.5" font-family="Helvetica,sans-Serif" font-size="10.00">wmtk::Mesh::get_multi</text>
<text text-anchor="middle" x="423.5" y="-371.5" font-family="Helvetica,sans-Serif" font-size="10.00">_mesh_root</text>
</a>
</g>
</g>
<!-- Node2&#45;&gt;Node3 -->
<g id="edge2_Node000002_Node000003" class="edge">
<title>Node2&#45;&gt;Node3</title>
<g id="a_edge2_Node000002_Node000003"><a xlink:title=" ">
<path fill="none" stroke="#63b8ff" d="M301.23,-362.61C316.96,-364.8 333.41,-367.09 348.93,-369.25"/>
<polygon fill="#63b8ff" stroke="#63b8ff" points="348.59,-372.74 358.98,-370.65 349.55,-365.8 348.59,-372.74"/>
</a>
</g>
</g>
<!-- Node4 -->
<g id="Node000004" class="node">
<title>Node4</title>
<g id="a_Node000004"><a xlink:href="classwmtk_1_1multimesh_1_1_multi_mesh_manager.html#a434e74f6b295055a45914d41a784124a" target="_top" xlink:title=" ">
<polygon fill="white" stroke="#666666" points="902,-340.5 742,-340.5 742,-310.5 902,-310.5 902,-340.5"/>
<text text-anchor="start" x="750" y="-328.5" font-family="Helvetica,sans-Serif" font-size="10.00">wmtk::multimesh::MultiMesh</text>
<text text-anchor="middle" x="822" y="-317.5" font-family="Helvetica,sans-Serif" font-size="10.00">Manager::get_root_mesh</text>
</a>
</g>
</g>
<!-- Node3&#45;&gt;Node4 -->
<g id="edge3_Node000003_Node000004" class="edge">
<title>Node3&#45;&gt;Node4</title>
<g id="a_edge3_Node000003_Node000004"><a xlink:title=" ">
<path fill="none" stroke="#63b8ff" d="M488.2,-370.82C554.06,-361.85 657.43,-347.78 731.49,-337.69"/>
<polygon fill="#63b8ff" stroke="#63b8ff" points="732.3,-341.11 741.73,-336.3 731.35,-334.18 732.3,-341.11"/>
</a>
</g>
</g>
<!-- Node4&#45;&gt;Node4 -->
<g id="edge4_Node000004_Node000004" class="edge">
<title>Node4&#45;&gt;Node4</title>
<g id="a_edge4_Node000004_Node000004"><a xlink:title=" ">
<path fill="none" stroke="#63b8ff" d="M787.55,-340.78C779.89,-349.91 791.38,-358.5 822,-358.5 840.18,-358.5 851.62,-355.47 856.31,-351.1"/>
<polygon fill="#63b8ff" stroke="#63b8ff" points="859.81,-350.82 856.45,-340.78 852.81,-350.72 859.81,-350.82"/>
</a>
</g>
</g>
<!-- Node5 -->
<g id="Node000005" class="node">
<title>Node5</title>
<g id="a_Node000005"><a xlink:href="classwmtk_1_1multimesh_1_1_multi_mesh_manager.html#a7d39339adb56b1798fe817d81bfcc67c" target="_top" xlink:title="Specifies whether this structure is the root of a multi&#45;mesh tree.">
<polygon fill="white" stroke="#666666" points="1098,-288.5 938,-288.5 938,-258.5 1098,-258.5 1098,-288.5"/>
<text text-anchor="start" x="946" y="-276.5" font-family="Helvetica,sans-Serif" font-size="10.00">wmtk::multimesh::MultiMesh</text>
<text text-anchor="middle" x="1018" y="-265.5" font-family="Helvetica,sans-Serif" font-size="10.00">Manager::is_root</text>
</a>
</g>
</g>
<!-- Node4&#45;&gt;Node5 -->
<g id="edge5_Node000004_Node000005" class="edge">
<title>Node4&#45;&gt;Node5</title>
<g id="a_edge5_Node000004_Node000005"><a xlink:title=" ">
<path fill="none" stroke="#63b8ff" d="M879.11,-310.46C901.63,-304.42 927.75,-297.42 951.16,-291.15"/>
<polygon fill="#63b8ff" stroke="#63b8ff" points="952.26,-294.48 961.01,-288.51 950.45,-287.72 952.26,-294.48"/>
</a>
</g>
</g>
<!-- Node7 -->
<g id="Node000007" class="node">
<title>Node7</title>
<g id="a_Node000007"><a xlink:href="classwmtk_1_1_tuple.html#a0023f575be92cd5ceeeaaaa3762ea06d" target="_top" xlink:title="Checks if a tuple is &quot;null&quot;. This merely implies the global index is &#45;1.">
<polygon fill="white" stroke="#666666" points="480,-346 367,-346 367,-327 480,-327 480,-346"/>
<text text-anchor="middle" x="423.5" y="-334" font-family="Helvetica,sans-Serif" font-size="10.00">wmtk::Tuple::is_null</text>
</a>
</g>
</g>
<!-- Node6&#45;&gt;Node7 -->
<g id="edge7_Node000006_Node000007" class="edge">
<title>Node6&#45;&gt;Node7</title>
<g id="a_edge7_Node000006_Node000007"><a xlink:title=" ">
<path fill="none" stroke="#63b8ff" d="M248.8,-291.12C272.06,-299.1 306.47,-310.42 337,-318.5 345.42,-320.73 354.36,-322.86 363.16,-324.83"/>
<polygon fill="#63b8ff" stroke="#63b8ff" points="362.5,-328.27 373.02,-326.98 363.99,-321.43 362.5,-328.27"/>
</a>
</g>
</g>
<!-- Node8 -->
<g id="Node000008" class="node">
<title>Node8</title>
<g id="a_Node000008"><a xlink:href="classwmtk_1_1_mesh.html#ade176d345902d97af8c5da04aa3a095b" target="_top" xlink:title=" ">
<polygon fill="white" stroke="#666666" points="493.5,-291 353.5,-291 353.5,-272 493.5,-272 493.5,-291"/>
<text text-anchor="middle" x="423.5" y="-279" font-family="Helvetica,sans-Serif" font-size="10.00">wmtk::Mesh::is_removed</text>
</a>
</g>
</g>
<!-- Node6&#45;&gt;Node8 -->
<g id="edge8_Node000006_Node000008" class="edge">
<title>Node6&#45;&gt;Node8</title>
<g id="a_edge8_Node000006_Node000008"><a xlink:title=" ">
<path fill="none" stroke="#63b8ff" d="M280.72,-281.5C300.32,-281.5 322.47,-281.5 343.32,-281.5"/>
<polygon fill="#63b8ff" stroke="#63b8ff" points="343.44,-285 353.44,-281.5 343.44,-278 343.44,-285"/>
</a>
</g>
</g>
<!-- Node10 -->
<g id="Node000010" class="node">
<title>Node10</title>
<g id="a_Node000010"><a xlink:href="namespacewmtk.html#a6a35f11c12436093d26fdd8be6fecc06" target="_top" xlink:title="Retrieves the current logger.">
<polygon fill="white" stroke="#666666" points="464,-254 383,-254 383,-235 464,-235 464,-254"/>
<text text-anchor="middle" x="423.5" y="-242" font-family="Helvetica,sans-Serif" font-size="10.00">wmtk::logger</text>
</a>
</g>
</g>
<!-- Node6&#45;&gt;Node10 -->
<g id="edge11_Node000006_Node000010" class="edge">
<title>Node6&#45;&gt;Node10</title>
<g id="a_edge11_Node000006_Node000010"><a xlink:title=" ">
<path fill="none" stroke="#63b8ff" d="M273.26,-271.97C303.99,-266.32 342.73,-259.18 373.04,-253.6"/>
<polygon fill="#63b8ff" stroke="#63b8ff" points="373.77,-257.03 382.97,-251.78 372.5,-250.14 373.77,-257.03"/>
</a>
</g>
</g>
<!-- Node8&#45;&gt;Node8 -->
<g id="edge10_Node000008_Node000008" class="edge">
<title>Node8&#45;&gt;Node8</title>
<g id="a_edge10_Node000008_Node000008"><a xlink:title=" ">
<path fill="none" stroke="#63b8ff" d="M392.37,-291.08C377.22,-299.73 387.6,-309 423.5,-309 448.74,-309 461.37,-304.42 461.37,-298.69"/>
<polygon fill="#63b8ff" stroke="#63b8ff" points="463.89,-296.25 454.63,-291.08 458.65,-300.89 463.89,-296.25"/>
</a>
</g>
</g>
<!-- Node9 -->
<g id="Node000009" class="node">
<title>Node9</title>
<g id="a_Node000009"><a xlink:href="classwmtk_1_1_tuple.html#aef64a43ff5f5617dbc99d865356bbc25" target="_top" xlink:title=" ">
<polygon fill="white" stroke="#666666" points="691.5,-306 560.5,-306 560.5,-287 691.5,-287 691.5,-306"/>
<text text-anchor="middle" x="626" y="-294" font-family="Helvetica,sans-Serif" font-size="10.00">wmtk::Tuple::global_cid</text>
</a>
</g>
</g>
<!-- Node8&#45;&gt;Node9 -->
<g id="edge9_Node000008_Node000009" class="edge">
<title>Node8&#45;&gt;Node9</title>
<g id="a_edge9_Node000008_Node000009"><a xlink:title=" ">
<path fill="none" stroke="#63b8ff" d="M493.5,-286.66C511.76,-288.03 531.55,-289.51 550.1,-290.9"/>
<polygon fill="#63b8ff" stroke="#63b8ff" points="550.03,-294.4 560.26,-291.66 550.55,-287.42 550.03,-294.4"/>
</a>
</g>
</g>
<!-- Node11 -->
<g id="Node000011" class="node">
<title>Node11</title>
<g id="a_Node000011"><a xlink:href="namespacewmtk.html#a3daa7951a5f8b78cf4600dc047fcc180" target="_top" xlink:title="Setup a logger object to be used by WildmeshToolkit.">
<polygon fill="white" stroke="#666666" points="676.5,-269 575.5,-269 575.5,-250 676.5,-250 676.5,-269"/>
<text text-anchor="middle" x="626" y="-257" font-family="Helvetica,sans-Serif" font-size="10.00">wmtk::set_logger</text>
</a>
</g>
</g>
<!-- Node10&#45;&gt;Node11 -->
<g id="edge12_Node000010_Node000011" class="edge">
<title>Node10&#45;&gt;Node11</title>
<g id="a_edge12_Node000010_Node000011"><a xlink:title=" ">
<path fill="none" stroke="#63b8ff" d="M464.11,-247.46C492.84,-249.61 532.22,-252.56 564.82,-255"/>
<polygon fill="#63b8ff" stroke="#63b8ff" points="564.92,-258.51 575.15,-255.77 565.44,-251.53 564.92,-258.51"/>
</a>
</g>
</g>
<!-- Node13 -->
<g id="Node000013" class="node">
<title>Node13</title>
<g id="a_Node000013"><a xlink:href="classwmtk_1_1multimesh_1_1_multi_mesh_manager.html#acaaab688faff0e1b2d9142d6cc128e46" target="_top" xlink:title="maps a simplex from this mesh to any other mesh">
<polygon fill="white" stroke="#666666" points="503.5,-127.5 343.5,-127.5 343.5,-97.5 503.5,-97.5 503.5,-127.5"/>
<text text-anchor="start" x="351.5" y="-115.5" font-family="Helvetica,sans-Serif" font-size="10.00">wmtk::multimesh::MultiMesh</text>
<text text-anchor="middle" x="423.5" y="-104.5" font-family="Helvetica,sans-Serif" font-size="10.00">Manager::map_tuples</text>
</a>
</g>
</g>
<!-- Node12&#45;&gt;Node13 -->
<g id="edge14_Node000012_Node000013" class="edge">
<title>Node12&#45;&gt;Node13</title>
<g id="a_edge14_Node000012_Node000013"><a xlink:title=" ">
<path fill="none" stroke="#63b8ff" d="M300.65,-99.77C311.42,-100.89 322.53,-102.06 333.45,-103.2"/>
<polygon fill="#63b8ff" stroke="#63b8ff" points="333.11,-106.68 343.42,-104.24 333.84,-99.72 333.11,-106.68"/>
</a>
</g>
</g>
<!-- Node18 -->
<g id="Node000018" class="node">
<title>Node18</title>
<g id="a_Node000018"><a xlink:href="classwmtk_1_1simplex_1_1_simplex.html#ad2cc0340a0772b7d6f03ba7a781d1163" target="_top" xlink:title=" ">
<polygon fill="white" stroke="#666666" points="693.5,-41.5 558.5,-41.5 558.5,-11.5 693.5,-11.5 693.5,-41.5"/>
<text text-anchor="start" x="566.5" y="-29.5" font-family="Helvetica,sans-Serif" font-size="10.00">wmtk::simplex::Simplex</text>
<text text-anchor="middle" x="626" y="-18.5" font-family="Helvetica,sans-Serif" font-size="10.00">::primitive_type</text>
</a>
</g>
</g>
<!-- Node12&#45;&gt;Node18 -->
<g id="edge25_Node000012_Node000018" class="edge">
<title>Node12&#45;&gt;Node18</title>
<g id="a_edge25_Node000012_Node000018"><a xlink:title=" ">
<path fill="none" stroke="#63b8ff" d="M300.66,-81.12C358.73,-73.23 439.42,-61.69 510,-49.5 522.35,-47.37 535.41,-44.93 548.12,-42.46"/>
<polygon fill="#63b8ff" stroke="#63b8ff" points="549.08,-45.84 558.22,-40.48 547.73,-38.97 549.08,-45.84"/>
</a>
</g>
</g>
<!-- Node19 -->
<g id="Node000019" class="node">
<title>Node19</title>
<g id="a_Node000019"><a xlink:href="namespacewmtk_1_1simplex_1_1utils.html#abc97acf22bd5eb87df2b16ad3b372cfb" target="_top" xlink:title=" ">
<polygon fill="white" stroke="#666666" points="510,-41 337,-41 337,0 510,0 510,-41"/>
<text text-anchor="start" x="345" y="-29" font-family="Helvetica,sans-Serif" font-size="10.00">wmtk::simplex::utils</text>
<text text-anchor="start" x="345" y="-18" font-family="Helvetica,sans-Serif" font-size="10.00">::tuple_vector_to_homogeneous</text>
<text text-anchor="middle" x="423.5" y="-7" font-family="Helvetica,sans-Serif" font-size="10.00">_simplex_vector</text>
</a>
</g>
</g>
<!-- Node12&#45;&gt;Node19 -->
<g id="edge26_Node000012_Node000019" class="edge">
<title>Node12&#45;&gt;Node19</title>
<g id="a_edge26_Node000012_Node000019"><a xlink:title=" ">
<path fill="none" stroke="#63b8ff" d="M264.13,-76.44C290.43,-67.15 324.77,-55.02 354.74,-44.43"/>
<polygon fill="#63b8ff" stroke="#63b8ff" points="356.04,-47.69 364.3,-41.06 353.71,-41.09 356.04,-47.69"/>
</a>
</g>
</g>
<!-- Node14 -->
<g id="Node000014" class="node">
<title>Node14</title>
<g id="a_Node000014"><a xlink:href="classwmtk_1_1multimesh_1_1_multi_mesh_manager.html#a812e0992812b2c48a889e10ae9e50758" target="_top" xlink:title=" ">
<polygon fill="white" stroke="#666666" points="902,-236.5 742,-236.5 742,-206.5 902,-206.5 902,-236.5"/>
<text text-anchor="start" x="750" y="-224.5" font-family="Helvetica,sans-Serif" font-size="10.00">wmtk::multimesh::MultiMesh</text>
<text text-anchor="middle" x="822" y="-213.5" font-family="Helvetica,sans-Serif" font-size="10.00">Manager::absolute_id</text>
</a>
</g>
</g>
<!-- Node13&#45;&gt;Node14 -->
<g id="edge15_Node000013_Node000014" class="edge">
<title>Node13&#45;&gt;Node14</title>
<g id="a_edge15_Node000013_Node000014"><a xlink:title=" ">
<path fill="none" stroke="#63b8ff" d="M438.9,-127.62C460.08,-148.72 501.91,-186.24 546,-202.5 605.28,-224.36 676.57,-228.73 731.7,-227.83"/>
<polygon fill="#63b8ff" stroke="#63b8ff" points="731.88,-231.32 741.8,-227.6 731.73,-224.33 731.88,-231.32"/>
</a>
</g>
</g>
<!-- Node15 -->
<g id="Node000015" class="node">
<title>Node15</title>
<g id="a_Node000015"><a xlink:href="classwmtk_1_1_mesh.html#a2102fdea06a0c543437e67d77aeb2013" target="_top" xlink:title="returns a unique identifier for this mesh within a single multimesh structure">
<polygon fill="white" stroke="#666666" points="688.5,-193.5 563.5,-193.5 563.5,-163.5 688.5,-163.5 688.5,-193.5"/>
<text text-anchor="start" x="571.5" y="-181.5" font-family="Helvetica,sans-Serif" font-size="10.00">wmtk::Mesh::absolute</text>
<text text-anchor="middle" x="626" y="-170.5" font-family="Helvetica,sans-Serif" font-size="10.00">_multi_mesh_id</text>
</a>
</g>
</g>
<!-- Node13&#45;&gt;Node15 -->
<g id="edge18_Node000013_Node000015" class="edge">
<title>Node13&#45;&gt;Node15</title>
<g id="a_edge18_Node000013_Node000015"><a xlink:title=" ">
<path fill="none" stroke="#63b8ff" d="M466.82,-127.57C490.11,-135.75 519.57,-145.92 546,-154.5 551.99,-156.45 558.26,-158.43 564.53,-160.39"/>
<polygon fill="#63b8ff" stroke="#63b8ff" points="563.75,-163.81 574.34,-163.42 565.82,-157.12 563.75,-163.81"/>
</a>
</g>
</g>
<!-- Node16 -->
<g id="Node000016" class="node">
<title>Node16</title>
<g id="a_Node000016"><a xlink:href="classwmtk_1_1multimesh_1_1_multi_mesh_manager.html#aefe5179057c978e227c3349d13578c4a" target="_top" xlink:title=" ">
<polygon fill="white" stroke="#666666" points="706,-127.5 546,-127.5 546,-97.5 706,-97.5 706,-127.5"/>
<text text-anchor="start" x="554" y="-115.5" font-family="Helvetica,sans-Serif" font-size="10.00">wmtk::multimesh::MultiMesh</text>
<text text-anchor="middle" x="626" y="-104.5" font-family="Helvetica,sans-Serif" font-size="10.00">Manager::map_up_to_tuples</text>
</a>
</g>
</g>
<!-- Node13&#45;&gt;Node16 -->
<g id="edge20_Node000013_Node000016" class="edge">
<title>Node13&#45;&gt;Node16</title>
<g id="a_edge20_Node000013_Node000016"><a xlink:title=" ">
<path fill="none" stroke="#63b8ff" d="M503.74,-112.5C514.19,-112.5 524.97,-112.5 535.57,-112.5"/>
<polygon fill="#63b8ff" stroke="#63b8ff" points="535.68,-116 545.68,-112.5 535.68,-109 535.68,-116"/>
</a>
</g>
</g>
<!-- Node17 -->
<g id="Node000017" class="node">
<title>Node17</title>
<g id="a_Node000017"><a xlink:href="classwmtk_1_1simplex_1_1_simplex.html#aca78b1fb0a3c28c0036cf7919bfb0789" target="_top" xlink:title=" ">
<polygon fill="white" stroke="#666666" points="889.5,-106.5 754.5,-106.5 754.5,-76.5 889.5,-76.5 889.5,-106.5"/>
<text text-anchor="start" x="762.5" y="-94.5" font-family="Helvetica,sans-Serif" font-size="10.00">wmtk::simplex::Simplex</text>
<text text-anchor="middle" x="822" y="-83.5" font-family="Helvetica,sans-Serif" font-size="10.00">::tuple</text>
</a>
</g>
</g>
<!-- Node13&#45;&gt;Node17 -->
<g id="edge24_Node000013_Node000017" class="edge">
<title>Node13&#45;&gt;Node17</title>
<g id="a_edge24_Node000013_Node000017"><a xlink:title=" ">
<path fill="none" stroke="#63b8ff" d="M488.47,-97.44C506.93,-93.75 527.17,-90.34 546,-88.5 612.77,-81.97 689.08,-83.51 744.35,-86.23"/>
<polygon fill="#63b8ff" stroke="#63b8ff" points="744.26,-89.73 754.42,-86.75 744.62,-82.74 744.26,-89.73"/>
</a>
</g>
</g>
<!-- Node13&#45;&gt;Node18 -->
<g id="edge23_Node000013_Node000018" class="edge">
<title>Node13&#45;&gt;Node18</title>
<g id="a_edge23_Node000013_Node000018"><a xlink:title=" ">
<path fill="none" stroke="#63b8ff" d="M478.12,-97.38C488.95,-93.49 500.06,-88.85 510,-83.5 527.85,-73.89 528.27,-65.33 546,-55.5 552.74,-51.76 560.05,-48.33 567.42,-45.25"/>
<polygon fill="#63b8ff" stroke="#63b8ff" points="568.75,-48.48 576.74,-41.52 566.15,-41.98 568.75,-48.48"/>
</a>
</g>
</g>
<!-- Node14&#45;&gt;Node5 -->
<g id="edge17_Node000014_Node000005" class="edge">
<title>Node14&#45;&gt;Node5</title>
<g id="a_edge17_Node000014_Node000005"><a xlink:title=" ">
<path fill="none" stroke="#63b8ff" d="M879.11,-236.54C901.63,-242.58 927.75,-249.58 951.16,-255.85"/>
<polygon fill="#63b8ff" stroke="#63b8ff" points="950.45,-259.28 961.01,-258.49 952.26,-252.52 950.45,-259.28"/>
</a>
</g>
</g>
<!-- Node14&#45;&gt;Node14 -->
<g id="edge16_Node000014_Node000014" class="edge">
<title>Node14&#45;&gt;Node14</title>
<g id="a_edge16_Node000014_Node000014"><a xlink:title=" ">
<path fill="none" stroke="#63b8ff" d="M787.55,-236.78C779.89,-245.91 791.38,-254.5 822,-254.5 840.18,-254.5 851.62,-251.47 856.31,-247.1"/>
<polygon fill="#63b8ff" stroke="#63b8ff" points="859.81,-246.82 856.45,-236.78 852.81,-246.72 859.81,-246.82"/>
</a>
</g>
</g>
<!-- Node15&#45;&gt;Node14 -->
<g id="edge19_Node000015_Node000014" class="edge">
<title>Node15&#45;&gt;Node14</title>
<g id="a_edge19_Node000015_Node000014"><a xlink:title=" ">
<path fill="none" stroke="#63b8ff" d="M688.65,-192.16C705.97,-196 725.03,-200.23 743.16,-204.25"/>
<polygon fill="#63b8ff" stroke="#63b8ff" points="742.6,-207.71 753.12,-206.45 744.11,-200.87 742.6,-207.71"/>
</a>
</g>
</g>
<!-- Node16&#45;&gt;Node16 -->
<g id="edge21_Node000016_Node000016" class="edge">
<title>Node16&#45;&gt;Node16</title>
<g id="a_edge21_Node000016_Node000016"><a xlink:title=" ">
<path fill="none" stroke="#63b8ff" d="M591.55,-127.78C583.89,-136.91 595.38,-145.5 626,-145.5 644.18,-145.5 655.62,-142.47 660.31,-138.1"/>
<polygon fill="#63b8ff" stroke="#63b8ff" points="663.81,-137.82 660.45,-127.78 656.81,-137.72 663.81,-137.82"/>
</a>
</g>
</g>
<!-- Node16&#45;&gt;Node17 -->
<g id="edge22_Node000016_Node000017" class="edge">
<title>Node16&#45;&gt;Node17</title>
<g id="a_edge22_Node000016_Node000017"><a xlink:title=" ">
<path fill="none" stroke="#63b8ff" d="M706.19,-103.93C718.84,-102.56 731.9,-101.14 744.49,-99.78"/>
<polygon fill="#63b8ff" stroke="#63b8ff" points="744.9,-103.26 754.46,-98.7 744.14,-96.3 744.9,-103.26"/>
</a>
</g>
</g>
</g>
</svg>
