<?xml version="1.0" encoding="UTF-8" standalone="no"?>
<!DOCTYPE svg PUBLIC "-//W3C//DTD SVG 1.1//EN"
 "http://www.w3.org/Graphics/SVG/1.1/DTD/svg11.dtd">
<!-- Generated by graphviz version 2.43.0 (0)
 -->
<!-- Title: wmtk::operations::internal::SplitAlternateFacetData::SplitAlternateFacetData Pages: 1 -->
<!--zoomable 329 -->

<svg id="main" version="1.1" xmlns="http://www.w3.org/2000/svg" xmlns:xlink="http://www.w3.org/1999/xlink" xml:space="preserve" onload="init(evt)">
<style type="text/css"><![CDATA[
.node, .edge {opacity: 0.7;}
.node.selected, .edge.selected {opacity: 1;}
.edge:hover path { stroke: red; }
.edge:hover polygon { stroke: red; fill: red; }
]]></style>

<defs>
  <circle id="rim" cx="0" cy="0" r="7"/>
  <circle id="rim2" cx="0" cy="0" r="3.5"/>
  <g id="zoomPlus">
    <use xlink:href="#rim" fill="#404040"><set attributeName="fill" to="#808080" begin="zoomplus.mouseover" end="zoomplus.mouseout"/></use>
    <path d="M-4,0h8M0,-4v8" fill="none" stroke="white" stroke-width="1.5" pointer-events="none"/>
  </g>
  <g id="zoomMin">
    <use xlink:href="#rim" fill="#404040"><set attributeName="fill" to="#808080" begin="zoomminus.mouseover" end="zoomminus.mouseout"/></use>
    <path d="M-4,0h8" fill="none" stroke="white" stroke-width="1.5" pointer-events="none"/>
  </g>
  <g id="arrowUp" transform="translate(30 24)">
    <use xlink:href="#rim"/>
    <path pointer-events="none" fill="none" stroke="white" stroke-width="1.5" d="M0,-3.0v7 M-2.5,-0.5L0,-3.0L2.5,-0.5"/>
  </g>
  <g id="arrowRight" transform="rotate(90) translate(36 -43)">
    <use xlink:href="#rim"/>
    <path pointer-events="none" fill="none" stroke="white" stroke-width="1.5" d="M0,-3.0v7 M-2.5,-0.5L0,-3.0L2.5,-0.5"/>
  </g>
  <g id="arrowDown" transform="rotate(180) translate(-30 -48)">
    <use xlink:href="#rim"/>
    <path pointer-events="none" fill="none" stroke="white" stroke-width="1.5" d="M0,-3.0v7 M-2.5,-0.5L0,-3.0L2.5,-0.5"/>
  </g>
  <g id="arrowLeft" transform="rotate(270) translate(-36 17)">
    <use xlink:href="#rim"/>
    <path pointer-events="none" fill="none" stroke="white" stroke-width="1.5" d="M0,-3.0v7 M-2.5,-0.5L0,-3.0L2.5,-0.5"/>
  </g>
  <g id="resetDef">
    <use xlink:href="#rim2" fill="#404040"><set attributeName="fill" to="#808080" begin="reset.mouseover" end="reset.mouseout"/></use>
  </g>
</defs>
<script type="application/ecmascript">
var viewWidth = 1075;
var viewHeight = 329;
var sectionId = 'dynsection-0';
</script>
<script type="application/ecmascript" xlink:href="svg.min.js"/>
<svg id="graph" class="graph">
<g id="viewport">
<title>wmtk::operations::internal::SplitAlternateFacetData::SplitAlternateFacetData</title>
<!-- Node1 -->
<g id="Node000001" class="node">
<title>Node1</title>
<g id="a_Node000001"><a xlink:title=" ">
<polygon fill="#999999" stroke="#666666" points="146,-111.5 0,-111.5 0,-70.5 146,-70.5 146,-111.5"/>
<text text-anchor="start" x="8" y="-99.5" font-family="Helvetica,sans-Serif" font-size="10.00">wmtk::operations::internal</text>
<text text-anchor="start" x="8" y="-88.5" font-family="Helvetica,sans-Serif" font-size="10.00">::SplitAlternateFacetData</text>
<text text-anchor="middle" x="73" y="-77.5" font-family="Helvetica,sans-Serif" font-size="10.00">::SplitAlternateFacetData</text>
</a>
</g>
</g>
<!-- Node2 -->
<g id="Node000002" class="node">
<title>Node2</title>
<g id="a_Node000002"><a xlink:href="classwmtk_1_1operations_1_1internal_1_1_split_alternate_facet_data.html#a54f41c539c7fd9c3381fdf5baeb88a72" target="_top" xlink:title=" ">
<polygon fill="white" stroke="#666666" points="328,-263.5 182,-263.5 182,-222.5 328,-222.5 328,-263.5"/>
<text text-anchor="start" x="190" y="-251.5" font-family="Helvetica,sans-Serif" font-size="10.00">wmtk::operations::internal</text>
<text text-anchor="start" x="190" y="-240.5" font-family="Helvetica,sans-Serif" font-size="10.00">::SplitAlternateFacetData</text>
<text text-anchor="middle" x="255" y="-229.5" font-family="Helvetica,sans-Serif" font-size="10.00">::add_facet</text>
</a>
</g>
</g>
<!-- Node1&#45;&gt;Node2 -->
<g id="edge1_Node000001_Node000002" class="edge">
<title>Node1&#45;&gt;Node2</title>
<g id="a_edge1_Node000001_Node000002"><a xlink:title=" ">
<path fill="none" stroke="#63b8ff" d="M98.65,-111.82C130.56,-138.76 186.26,-185.79 221.57,-215.61"/>
<polygon fill="#63b8ff" stroke="#63b8ff" points="219.75,-218.66 229.65,-222.44 224.26,-213.31 219.75,-218.66"/>
</a>
</g>
</g>
<!-- Node5 -->
<g id="Node000005" class="node">
<title>Node5</title>
<g id="a_Node000005"><a xlink:href="namespacewmtk_1_1simplex.html#abee08ace6632fab4e958282840e65e43" target="_top" xlink:title=" ">
<polygon fill="white" stroke="#666666" points="326.5,-152 183.5,-152 183.5,-122 326.5,-122 326.5,-152"/>
<text text-anchor="start" x="191.5" y="-140" font-family="Helvetica,sans-Serif" font-size="10.00">wmtk::simplex::cofaces</text>
<text text-anchor="middle" x="255" y="-129" font-family="Helvetica,sans-Serif" font-size="10.00">_single_dimension_tuples</text>
</a>
</g>
</g>
<!-- Node1&#45;&gt;Node5 -->
<g id="edge4_Node000001_Node000005" class="edge">
<title>Node1&#45;&gt;Node5</title>
<g id="a_edge4_Node000001_Node000005"><a xlink:title=" ">
<path fill="none" stroke="#63b8ff" d="M146.18,-109.44C158.99,-112.72 172.3,-116.12 185.02,-119.37"/>
<polygon fill="#63b8ff" stroke="#63b8ff" points="184.52,-122.86 195.07,-121.94 186.25,-116.07 184.52,-122.86"/>
</a>
</g>
</g>
<!-- Node16 -->
<g id="Node000016" class="node">
<title>Node16</title>
<g id="a_Node000016"><a xlink:href="classwmtk_1_1_mesh.html#abaf00438d0700358b160e310d69725c9" target="_top" xlink:title=" ">
<polygon fill="white" stroke="#666666" points="534,-67.5 364,-67.5 364,-48.5 534,-48.5 534,-67.5"/>
<text text-anchor="middle" x="449" y="-55.5" font-family="Helvetica,sans-Serif" font-size="10.00">wmtk::Mesh::top_simplex_type</text>
</a>
</g>
</g>
<!-- Node1&#45;&gt;Node16 -->
<g id="edge22_Node000001_Node000016" class="edge">
<title>Node1&#45;&gt;Node16</title>
<g id="a_edge22_Node000001_Node000016"><a xlink:title=" ">
<path fill="none" stroke="#63b8ff" d="M146.11,-84.64C205.15,-79.43 289.12,-72.02 353.53,-66.34"/>
<polygon fill="#63b8ff" stroke="#63b8ff" points="354.03,-69.8 363.69,-65.44 353.42,-62.83 354.03,-69.8"/>
</a>
</g>
</g>
<!-- Node19 -->
<g id="Node000019" class="node">
<title>Node19</title>
<g id="a_Node000019"><a xlink:href="classwmtk_1_1simplex_1_1_simplex.html#a753a9245716f207b57cd92fcab5936e7" target="_top" xlink:title=" ">
<polygon fill="white" stroke="#666666" points="322.5,-42 187.5,-42 187.5,-12 322.5,-12 322.5,-42"/>
<text text-anchor="start" x="195.5" y="-30" font-family="Helvetica,sans-Serif" font-size="10.00">wmtk::simplex::Simplex</text>
<text text-anchor="middle" x="255" y="-19" font-family="Helvetica,sans-Serif" font-size="10.00">::edge</text>
</a>
</g>
</g>
<!-- Node1&#45;&gt;Node19 -->
<g id="edge20_Node000001_Node000019" class="edge">
<title>Node1&#45;&gt;Node19</title>
<g id="a_edge20_Node000001_Node000019"><a xlink:title=" ">
<path fill="none" stroke="#63b8ff" d="M131.94,-70.4C154.5,-62.38 180.16,-53.26 202.1,-45.45"/>
<polygon fill="#63b8ff" stroke="#63b8ff" points="203.33,-48.73 211.58,-42.08 200.98,-42.14 203.33,-48.73"/>
</a>
</g>
</g>
<!-- Node3 -->
<g id="Node000003" class="node">
<title>Node3</title>
<g id="a_Node000003"><a xlink:href="classwmtk_1_1dart_1_1_simplex_dart.html#a3949350f736cbf567bf566fd7565e6e8" target="_top" xlink:title=" ">
<polygon fill="white" stroke="#666666" points="517.5,-310 380.5,-310 380.5,-280 517.5,-280 517.5,-310"/>
<text text-anchor="start" x="388.5" y="-298" font-family="Helvetica,sans-Serif" font-size="10.00">wmtk::dart::SimplexDart</text>
<text text-anchor="middle" x="449" y="-287" font-family="Helvetica,sans-Serif" font-size="10.00">::get_singleton</text>
</a>
</g>
</g>
<!-- Node2&#45;&gt;Node3 -->
<g id="edge2_Node000002_Node000003" class="edge">
<title>Node2&#45;&gt;Node3</title>
<g id="a_edge2_Node000002_Node000003"><a xlink:title=" ">
<path fill="none" stroke="#63b8ff" d="M328.04,-262.51C345.83,-267.33 364.79,-272.46 382.27,-277.2"/>
<polygon fill="#63b8ff" stroke="#63b8ff" points="381.79,-280.7 392.36,-279.93 383.62,-273.94 381.79,-280.7"/>
</a>
</g>
</g>
<!-- Node4 -->
<g id="Node000004" class="node">
<title>Node4</title>
<g id="a_Node000004"><a xlink:href="classwmtk_1_1dart_1_1_simplex_dart.html#a75defb2c9d167b36c7fc73cd7d5bba60" target="_top" xlink:title=" ">
<polygon fill="white" stroke="#666666" points="742.5,-321 605.5,-321 605.5,-291 742.5,-291 742.5,-321"/>
<text text-anchor="start" x="613.5" y="-309" font-family="Helvetica,sans-Serif" font-size="10.00">wmtk::dart::SimplexDart</text>
<text text-anchor="middle" x="674" y="-298" font-family="Helvetica,sans-Serif" font-size="10.00">::simplex_type</text>
</a>
</g>
</g>
<!-- Node3&#45;&gt;Node4 -->
<g id="edge3_Node000003_Node000004" class="edge">
<title>Node3&#45;&gt;Node4</title>
<g id="a_edge3_Node000003_Node000004"><a xlink:title=" ">
<path fill="none" stroke="#63b8ff" d="M517.51,-298.33C541.96,-299.54 569.77,-300.91 595.05,-302.15"/>
<polygon fill="#63b8ff" stroke="#63b8ff" points="595.17,-305.67 605.33,-302.66 595.52,-298.67 595.17,-305.67"/>
</a>
</g>
</g>
<!-- Node6 -->
<g id="Node000006" class="node">
<title>Node6</title>
<g id="a_Node000006"><a xlink:href="namespacewmtk_1_1utils.html#aad86a1efd04407e94f9bd5f92b3ed5d0" target="_top" xlink:title=" ">
<polygon fill="white" stroke="#666666" points="510,-252 388,-252 388,-222 510,-222 510,-252"/>
<text text-anchor="start" x="396" y="-240" font-family="Helvetica,sans-Serif" font-size="10.00">wmtk::utils::primitive</text>
<text text-anchor="middle" x="449" y="-229" font-family="Helvetica,sans-Serif" font-size="10.00">_range</text>
</a>
</g>
</g>
<!-- Node5&#45;&gt;Node6 -->
<g id="edge5_Node000005_Node000006" class="edge">
<title>Node5&#45;&gt;Node6</title>
<g id="a_edge5_Node000005_Node000006"><a xlink:title=" ">
<path fill="none" stroke="#63b8ff" d="M276.72,-152.15C297.9,-167.17 332.12,-190.16 364,-206 372.88,-210.41 382.54,-214.54 392.05,-218.27"/>
<polygon fill="#63b8ff" stroke="#63b8ff" points="390.88,-221.57 401.47,-221.85 393.37,-215.03 390.88,-221.57"/>
</a>
</g>
</g>
<!-- Node10 -->
<g id="Node000010" class="node">
<title>Node10</title>
<g id="a_Node000010"><a xlink:href="classwmtk_1_1simplex_1_1_simplex.html#ad2cc0340a0772b7d6f03ba7a781d1163" target="_top" xlink:title=" ">
<polygon fill="white" stroke="#666666" points="741.5,-207 606.5,-207 606.5,-177 741.5,-177 741.5,-207"/>
<text text-anchor="start" x="614.5" y="-195" font-family="Helvetica,sans-Serif" font-size="10.00">wmtk::simplex::Simplex</text>
<text text-anchor="middle" x="674" y="-184" font-family="Helvetica,sans-Serif" font-size="10.00">::primitive_type</text>
</a>
</g>
</g>
<!-- Node5&#45;&gt;Node10 -->
<g id="edge10_Node000005_Node000010" class="edge">
<title>Node5&#45;&gt;Node10</title>
<g id="a_edge10_Node000005_Node000010"><a xlink:title=" ">
<path fill="none" stroke="#63b8ff" d="M293.34,-152.12C313.85,-159.74 339.94,-168.33 364,-173 442.1,-188.15 533.18,-192.13 596.12,-192.8"/>
<polygon fill="#63b8ff" stroke="#63b8ff" points="596.34,-196.3 606.37,-192.88 596.4,-189.3 596.34,-196.3"/>
</a>
</g>
</g>
<!-- Node11 -->
<g id="Node000011" class="node">
<title>Node11</title>
<g id="a_Node000011"><a xlink:href="namespacewmtk_1_1simplex.html#a0101f27eb2ad82814390b92ab1a4d1a0" target="_top" xlink:title=" ">
<polygon fill="white" stroke="#666666" points="524.5,-164 373.5,-164 373.5,-134 524.5,-134 524.5,-164"/>
<text text-anchor="start" x="381.5" y="-152" font-family="Helvetica,sans-Serif" font-size="10.00">wmtk::simplex::top</text>
<text text-anchor="middle" x="449" y="-141" font-family="Helvetica,sans-Serif" font-size="10.00">_dimension_cofaces_tuples</text>
</a>
</g>
</g>
<!-- Node5&#45;&gt;Node11 -->
<g id="edge11_Node000005_Node000011" class="edge">
<title>Node5&#45;&gt;Node11</title>
<g id="a_edge11_Node000005_Node000011"><a xlink:title=" ">
<path fill="none" stroke="#63b8ff" d="M326.68,-141.42C338.54,-142.16 350.96,-142.93 363.13,-143.7"/>
<polygon fill="#63b8ff" stroke="#63b8ff" points="363.08,-147.2 373.28,-144.33 363.52,-140.21 363.08,-147.2"/>
</a>
</g>
</g>
<!-- Node5&#45;&gt;Node16 -->
<g id="edge17_Node000005_Node000016" class="edge">
<title>Node5&#45;&gt;Node16</title>
<g id="a_edge17_Node000005_Node000016"><a xlink:title=" ">
<path fill="none" stroke="#63b8ff" d="M278.66,-121.89C299.9,-108.35 332.94,-88.86 364,-77 370.72,-74.43 377.89,-72.16 385.09,-70.16"/>
<polygon fill="#63b8ff" stroke="#63b8ff" points="386.1,-73.51 394.89,-67.6 384.33,-66.74 386.1,-73.51"/>
</a>
</g>
</g>
<!-- Node18 -->
<g id="Node000018" class="node">
<title>Node18</title>
<g id="a_Node000018"><a xlink:href="classwmtk_1_1simplex_1_1_simplex.html#aca78b1fb0a3c28c0036cf7919bfb0789" target="_top" xlink:title=" ">
<polygon fill="white" stroke="#666666" points="516.5,-116 381.5,-116 381.5,-86 516.5,-86 516.5,-116"/>
<text text-anchor="start" x="389.5" y="-104" font-family="Helvetica,sans-Serif" font-size="10.00">wmtk::simplex::Simplex</text>
<text text-anchor="middle" x="449" y="-93" font-family="Helvetica,sans-Serif" font-size="10.00">::tuple</text>
</a>
</g>
</g>
<!-- Node5&#45;&gt;Node18 -->
<g id="edge19_Node000005_Node000018" class="edge">
<title>Node5&#45;&gt;Node18</title>
<g id="a_edge19_Node000005_Node000018"><a xlink:title=" ">
<path fill="none" stroke="#63b8ff" d="M326.68,-123.75C341.18,-121.03 356.52,-118.15 371.23,-115.39"/>
<polygon fill="#63b8ff" stroke="#63b8ff" points="372.12,-118.79 381.3,-113.51 370.83,-111.91 372.12,-118.79"/>
</a>
</g>
</g>
<!-- Node7 -->
<g id="Node000007" class="node">
<title>Node7</title>
<g id="a_Node000007"><a xlink:href="namespacewmtk_1_1utils.html#a8dab5bd8df4c7c658413914f37210244" target="_top" xlink:title=" ">
<polygon fill="white" stroke="#666666" points="735,-255 613,-255 613,-225 735,-225 735,-255"/>
<text text-anchor="start" x="621" y="-243" font-family="Helvetica,sans-Serif" font-size="10.00">wmtk::utils::primitive</text>
<text text-anchor="middle" x="674" y="-232" font-family="Helvetica,sans-Serif" font-size="10.00">_range</text>
</a>
</g>
</g>
<!-- Node6&#45;&gt;Node7 -->
<g id="edge6_Node000006_Node000007" class="edge">
<title>Node6&#45;&gt;Node7</title>
<g id="a_edge6_Node000006_Node000007"><a xlink:title=" ">
<path fill="none" stroke="#63b8ff" d="M510.05,-237.81C538.56,-238.19 572.8,-238.65 602.53,-239.05"/>
<polygon fill="#63b8ff" stroke="#63b8ff" points="602.79,-242.56 612.84,-239.19 602.89,-235.56 602.79,-242.56"/>
</a>
</g>
</g>
<!-- Node7&#45;&gt;Node7 -->
<g id="edge9_Node000007_Node000007" class="edge">
<title>Node7&#45;&gt;Node7</title>
<g id="a_edge9_Node000007_Node000007"><a xlink:title=" ">
<path fill="none" stroke="#63b8ff" d="M639.2,-255.28C631.46,-264.41 643.06,-273 674,-273 692.37,-273 703.92,-269.97 708.66,-265.6"/>
<polygon fill="#63b8ff" stroke="#63b8ff" points="712.16,-265.32 708.8,-255.28 705.16,-265.22 712.16,-265.32"/>
</a>
</g>
</g>
<!-- Node8 -->
<g id="Node000008" class="node">
<title>Node8</title>
<g id="a_Node000008"><a xlink:href="namespacewmtk.html#a3b08a5d7fb42f02c54bae85758b39f59" target="_top" xlink:title="Get the primitive type corresponding to its unique integer id.">
<polygon fill="white" stroke="#666666" points="930,-279 814,-279 814,-249 930,-249 930,-279"/>
<text text-anchor="start" x="822" y="-267" font-family="Helvetica,sans-Serif" font-size="10.00">wmtk::get_primitive</text>
<text text-anchor="middle" x="872" y="-256" font-family="Helvetica,sans-Serif" font-size="10.00">_type_from_id</text>
</a>
</g>
</g>
<!-- Node7&#45;&gt;Node8 -->
<g id="edge7_Node000007_Node000008" class="edge">
<title>Node7&#45;&gt;Node8</title>
<g id="a_edge7_Node000007_Node000008"><a xlink:title=" ">
<path fill="none" stroke="#63b8ff" d="M735.14,-247.36C756.9,-250.03 781.6,-253.05 803.92,-255.79"/>
<polygon fill="#63b8ff" stroke="#63b8ff" points="803.64,-259.28 813.99,-257.02 804.49,-252.33 803.64,-259.28"/>
</a>
</g>
</g>
<!-- Node9 -->
<g id="Node000009" class="node">
<title>Node9</title>
<g id="a_Node000009"><a xlink:href="namespacewmtk.html#a5cf45c152e856196bb734c6f48919a24" target="_top" xlink:title="Get a unique integer id corresponding to each primitive type.">
<polygon fill="white" stroke="#666666" points="930,-231 814,-231 814,-201 930,-201 930,-231"/>
<text text-anchor="start" x="822" y="-219" font-family="Helvetica,sans-Serif" font-size="10.00">wmtk::get_primitive</text>
<text text-anchor="middle" x="872" y="-208" font-family="Helvetica,sans-Serif" font-size="10.00">_type_id</text>
</a>
</g>
</g>
<!-- Node7&#45;&gt;Node9 -->
<g id="edge8_Node000007_Node000009" class="edge">
<title>Node7&#45;&gt;Node9</title>
<g id="a_edge8_Node000007_Node000009"><a xlink:title=" ">
<path fill="none" stroke="#63b8ff" d="M735.14,-232.64C756.9,-229.97 781.6,-226.95 803.92,-224.21"/>
<polygon fill="#63b8ff" stroke="#63b8ff" points="804.49,-227.67 813.99,-222.98 803.64,-220.72 804.49,-227.67"/>
</a>
</g>
</g>
<!-- Node11&#45;&gt;Node10 -->
<g id="edge16_Node000011_Node000010" class="edge">
<title>Node11&#45;&gt;Node10</title>
<g id="a_edge16_Node000011_Node000010"><a xlink:title=" ">
<path fill="none" stroke="#63b8ff" d="M524.57,-163.38C547.72,-167.84 573.27,-172.77 596.55,-177.26"/>
<polygon fill="#63b8ff" stroke="#63b8ff" points="595.9,-180.7 606.38,-179.15 597.22,-173.82 595.9,-180.7"/>
</a>
</g>
</g>
<!-- Node12 -->
<g id="Node000012" class="node">
<title>Node12</title>
<g id="a_Node000012"><a xlink:href="classwmtk_1_1simplex_1_1_simplex_collection.html#a1e7079b3b75f70dd28c524556cab76cf" target="_top" xlink:title="Add simplex to the collection.">
<polygon fill="white" stroke="#666666" points="778,-158.5 570,-158.5 570,-139.5 778,-139.5 778,-158.5"/>
<text text-anchor="middle" x="674" y="-146.5" font-family="Helvetica,sans-Serif" font-size="10.00">wmtk::simplex::SimplexCollection::add</text>
</a>
</g>
</g>
<!-- Node11&#45;&gt;Node12 -->
<g id="edge12_Node000011_Node000012" class="edge">
<title>Node11&#45;&gt;Node12</title>
<g id="a_edge12_Node000011_Node000012"><a xlink:title=" ">
<path fill="none" stroke="#63b8ff" d="M524.57,-149C535.94,-149 547.9,-149 559.87,-149"/>
<polygon fill="#63b8ff" stroke="#63b8ff" points="559.93,-152.5 569.93,-149 559.93,-145.5 559.93,-152.5"/>
</a>
</g>
</g>
<!-- Node13 -->
<g id="Node000013" class="node">
<title>Node13</title>
<g id="a_Node000013"><a xlink:href="namespacewmtk.html#a441d6ad4f19569c7d4946e743da1a925" target="_top" xlink:title=" ">
<polygon fill="white" stroke="#666666" points="735,-121 613,-121 613,-91 735,-91 735,-121"/>
<text text-anchor="start" x="621" y="-109" font-family="Helvetica,sans-Serif" font-size="10.00">wmtk::log_and_throw</text>
<text text-anchor="middle" x="674" y="-98" font-family="Helvetica,sans-Serif" font-size="10.00">_error</text>
</a>
</g>
</g>
<!-- Node11&#45;&gt;Node13 -->
<g id="edge13_Node000011_Node000013" class="edge">
<title>Node11&#45;&gt;Node13</title>
<g id="a_edge13_Node000011_Node000013"><a xlink:title=" ">
<path fill="none" stroke="#63b8ff" d="M524.57,-134.62C549.83,-129.75 577.94,-124.33 602.85,-119.53"/>
<polygon fill="#63b8ff" stroke="#63b8ff" points="603.79,-122.91 612.94,-117.58 602.46,-116.04 603.79,-122.91"/>
</a>
</g>
</g>
<!-- Node14 -->
<g id="Node000014" class="node">
<title>Node14</title>
<g id="a_Node000014"><a xlink:href="namespacewmtk.html#a6a35f11c12436093d26fdd8be6fecc06" target="_top" xlink:title="Retrieves the current logger.">
<polygon fill="white" stroke="#666666" points="912.5,-115.5 831.5,-115.5 831.5,-96.5 912.5,-96.5 912.5,-115.5"/>
<text text-anchor="middle" x="872" y="-103.5" font-family="Helvetica,sans-Serif" font-size="10.00">wmtk::logger</text>
</a>
</g>
</g>
<!-- Node13&#45;&gt;Node14 -->
<g id="edge14_Node000013_Node000014" class="edge">
<title>Node13&#45;&gt;Node14</title>
<g id="a_edge14_Node000013_Node000014"><a xlink:title=" ">
<path fill="none" stroke="#63b8ff" d="M735.14,-106C762.76,-106 795.11,-106 821.32,-106"/>
<polygon fill="#63b8ff" stroke="#63b8ff" points="821.41,-109.5 831.41,-106 821.41,-102.5 821.41,-109.5"/>
</a>
</g>
</g>
<!-- Node15 -->
<g id="Node000015" class="node">
<title>Node15</title>
<g id="a_Node000015"><a xlink:href="namespacewmtk.html#a3daa7951a5f8b78cf4600dc047fcc180" target="_top" xlink:title="Setup a logger object to be used by WildmeshToolkit.">
<polygon fill="white" stroke="#666666" points="1067,-115.5 966,-115.5 966,-96.5 1067,-96.5 1067,-115.5"/>
<text text-anchor="middle" x="1016.5" y="-103.5" font-family="Helvetica,sans-Serif" font-size="10.00">wmtk::set_logger</text>
</a>
</g>
</g>
<!-- Node14&#45;&gt;Node15 -->
<g id="edge15_Node000014_Node000015" class="edge">
<title>Node14&#45;&gt;Node15</title>
<g id="a_edge15_Node000014_Node000015"><a xlink:title=" ">
<path fill="none" stroke="#63b8ff" d="M912.69,-106C925.95,-106 941.03,-106 955.47,-106"/>
<polygon fill="#63b8ff" stroke="#63b8ff" points="955.85,-109.5 965.85,-106 955.85,-102.5 955.85,-109.5"/>
</a>
</g>
</g>
<!-- Node17 -->
<g id="Node000017" class="node">
<title>Node17</title>
<g id="a_Node000017"><a xlink:href="classwmtk_1_1_mesh.html#a933f681cf24a63b155c9462280385200" target="_top" xlink:title=" ">
<polygon fill="white" stroke="#666666" points="734.5,-73 613.5,-73 613.5,-43 734.5,-43 734.5,-73"/>
<text text-anchor="start" x="621.5" y="-61" font-family="Helvetica,sans-Serif" font-size="10.00">wmtk::Mesh::top_cell</text>
<text text-anchor="middle" x="674" y="-50" font-family="Helvetica,sans-Serif" font-size="10.00">_dimension</text>
</a>
</g>
</g>
<!-- Node16&#45;&gt;Node17 -->
<g id="edge18_Node000016_Node000017" class="edge">
<title>Node16&#45;&gt;Node17</title>
<g id="a_edge18_Node000016_Node000017"><a xlink:title=" ">
<path fill="none" stroke="#63b8ff" d="M534.31,-58C556.99,-58 581.26,-58 603.07,-58"/>
<polygon fill="#63b8ff" stroke="#63b8ff" points="603.22,-61.5 613.22,-58 603.22,-54.5 603.22,-61.5"/>
</a>
</g>
</g>
<!-- Node20 -->
<g id="Node000020" class="node">
<title>Node20</title>
<g id="a_Node000020"><a xlink:href="classwmtk_1_1simplex_1_1_simplex.html#ab6d51ca0c220792c1c09824d152bb53a" target="_top" xlink:title=" ">
<polygon fill="white" stroke="#666666" points="516.5,-30 381.5,-30 381.5,0 516.5,0 516.5,-30"/>
<text text-anchor="start" x="389.5" y="-18" font-family="Helvetica,sans-Serif" font-size="10.00">wmtk::simplex::Simplex</text>
<text text-anchor="middle" x="449" y="-7" font-family="Helvetica,sans-Serif" font-size="10.00">::Simplex</text>
</a>
</g>
</g>
<!-- Node19&#45;&gt;Node20 -->
<g id="edge21_Node000019_Node000020" class="edge">
<title>Node19&#45;&gt;Node20</title>
<g id="a_edge21_Node000019_Node000020"><a xlink:title=" ">
<path fill="none" stroke="#63b8ff" d="M322.61,-22.84C338.16,-21.86 354.85,-20.82 370.81,-19.82"/>
<polygon fill="#63b8ff" stroke="#63b8ff" points="371.42,-23.29 381.18,-19.18 370.98,-16.31 371.42,-23.29"/>
</a>
</g>
</g>
</g>
</svg>

<g id="navigator" transform="translate(0 0)" fill="#404254">
  <rect fill="#f2f5e9" fill-opacity="0.5" stroke="#606060" stroke-width=".5" x="0" y="0" width="60" height="60"/>
  <use id="zoomplus" xlink:href="#zoomPlus" x="17" y="9" onmousedown="handleZoom(evt,'in')"/>
  <use id="zoomminus" xlink:href="#zoomMin" x="42" y="9" onmousedown="handleZoom(evt,'out')"/>
  <use id="reset" xlink:href="#resetDef" x="30" y="36" onmousedown="handleReset()"/>
   <use id="arrowup" xlink:href="#arrowUp" x="0" y="0" onmousedown="handlePan(0,-1)"/>
  <use id="arrowright" xlink:href="#arrowRight" x="0" y="0" onmousedown="handlePan(1,0)"/>
  <use id="arrowdown" xlink:href="#arrowDown" x="0" y="0" onmousedown="handlePan(0,1)"/>
  <use id="arrowleft" xlink:href="#arrowLeft" x="0" y="0" onmousedown="handlePan(-1,0)"/>
</g>
<svg viewBox="0 0 15 15" width="100%" height="30px" preserveAspectRatio="xMaxYMin meet">
 <g id="arrow_out" transform="scale(0.3 0.3)">
  <a xlink:href="classwmtk_1_1operations_1_1internal_1_1_split_alternate_facet_data_a68f14963cd51823bb52a649758d403b8_cgraph_org.svg" target="_base">
   <rect id="button" ry="5" rx="5" y="6" x="6" height="38" width="38"
        fill="#f2f5e9" fill-opacity="0.5" stroke="#606060" stroke-width="1.0"/>
   <path id="arrow"
     d="M 11.500037,31.436501 C 11.940474,20.09759 22.043105,11.32322 32.158766,21.979434 L 37.068811,17.246167 C 37.068811,17.246167 37.088388,32 37.088388,32 L 22.160133,31.978069 C 22.160133,31.978069 26.997745,27.140456 26.997745,27.140456 C 18.528582,18.264221 13.291696,25.230495 11.500037,31.436501 z"
     style="fill:#404040;"/>
  </a>
 </g>
</svg>

<style type='text/css'>
<![CDATA[
[data-mouse-over-selected='false'] { opacity: 0.7; }
[data-mouse-over-selected='true']  { opacity: 1.0; }
]]>
</style>
<script type="application/ecmascript"><![CDATA[
document.addEventListener('DOMContentLoaded', (event) => {
  highlightEdges();
  highlightAdjacentNodes();
});
]]></script>
</svg>
