<?xml version="1.0" encoding="UTF-8" standalone="no"?>
<!DOCTYPE svg PUBLIC "-//W3C//DTD SVG 1.1//EN"
 "http://www.w3.org/Graphics/SVG/1.1/DTD/svg11.dtd">
<!-- Generated by graphviz version 2.43.0 (0)
 -->
<!-- Title: wmtk::multimesh::MultiMeshManager::mapped_tuples Pages: 1 -->
<svg width="1028pt" height="423pt"
 viewBox="0.00 0.00 1028.00 423.00" xmlns="http://www.w3.org/2000/svg" xmlns:xlink="http://www.w3.org/1999/xlink">
<g id="graph0" class="graph" transform="scale(1 1) rotate(0) translate(4 419)">
<title>wmtk::multimesh::MultiMeshManager::mapped_tuples</title>
<!-- Node1 -->
<g id="Node000001" class="node">
<title>Node1</title>
<g id="a_Node000001"><a xlink:title=" ">
<polygon fill="#999999" stroke="#666666" points="160,-270 0,-270 0,-240 160,-240 160,-270"/>
<text text-anchor="start" x="8" y="-258" font-family="Helvetica,sans-Serif" font-size="10.00">wmtk::multimesh::MultiMesh</text>
<text text-anchor="middle" x="80" y="-247" font-family="Helvetica,sans-Serif" font-size="10.00">Manager::mapped_tuples</text>
</a>
</g>
</g>
<!-- Node2 -->
<g id="Node000002" class="node">
<title>Node2</title>
<g id="a_Node000002"><a xlink:href="classwmtk_1_1_mesh.html#a20cac3ebd122054689c9aeb5a32cfaf0" target="_top" xlink:title=" ">
<polygon fill="white" stroke="#666666" points="346.5,-415 215.5,-415 215.5,-385 346.5,-385 346.5,-415"/>
<text text-anchor="start" x="223.5" y="-403" font-family="Helvetica,sans-Serif" font-size="10.00">wmtk::Mesh::get_index</text>
<text text-anchor="middle" x="281" y="-392" font-family="Helvetica,sans-Serif" font-size="10.00">_access</text>
</a>
</g>
</g>
<!-- Node1&#45;&gt;Node2 -->
<g id="edge1_Node000001_Node000002" class="edge">
<title>Node1&#45;&gt;Node2</title>
<g id="a_edge1_Node000001_Node000002"><a xlink:title=" ">
<path fill="none" stroke="#63b8ff" d="M91.17,-270.1C109.22,-295.75 149.4,-347.77 196,-376 199.17,-377.92 202.5,-379.69 205.93,-381.33"/>
<polygon fill="#63b8ff" stroke="#63b8ff" points="204.64,-384.58 215.21,-385.34 207.42,-378.16 204.64,-384.58"/>
</a>
</g>
</g>
<!-- Node4 -->
<g id="Node000004" class="node">
<title>Node4</title>
<g id="a_Node000004"><a xlink:href="classwmtk_1_1multimesh_1_1_multi_mesh_manager.html#a619b19c10f9690562e3dea05591c8836" target="_top" xlink:title=" ">
<polygon fill="white" stroke="#666666" points="361,-366.5 201,-366.5 201,-325.5 361,-325.5 361,-366.5"/>
<text text-anchor="start" x="209" y="-354.5" font-family="Helvetica,sans-Serif" font-size="10.00">wmtk::multimesh::MultiMesh</text>
<text text-anchor="start" x="209" y="-343.5" font-family="Helvetica,sans-Serif" font-size="10.00">Manager::get_map_const</text>
<text text-anchor="middle" x="281" y="-332.5" font-family="Helvetica,sans-Serif" font-size="10.00">_accessors</text>
</a>
</g>
</g>
<!-- Node1&#45;&gt;Node4 -->
<g id="edge3_Node000001_Node000004" class="edge">
<title>Node1&#45;&gt;Node4</title>
<g id="a_edge3_Node000001_Node000004"><a xlink:title=" ">
<path fill="none" stroke="#63b8ff" d="M105.99,-270C128.89,-283.38 164.01,-302.97 196,-317 199.63,-318.59 203.38,-320.16 207.19,-321.69"/>
<polygon fill="#63b8ff" stroke="#63b8ff" points="206.14,-325.04 216.73,-325.4 208.68,-318.51 206.14,-325.04"/>
</a>
</g>
</g>
<!-- Node5 -->
<g id="Node000005" class="node">
<title>Node5</title>
<g id="a_Node000005"><a xlink:href="classwmtk_1_1dart_1_1_simplex_dart.html#a3949350f736cbf567bf566fd7565e6e8" target="_top" xlink:title=" ">
<polygon fill="white" stroke="#666666" points="557,-126 420,-126 420,-96 557,-96 557,-126"/>
<text text-anchor="start" x="428" y="-114" font-family="Helvetica,sans-Serif" font-size="10.00">wmtk::dart::SimplexDart</text>
<text text-anchor="middle" x="488.5" y="-103" font-family="Helvetica,sans-Serif" font-size="10.00">::get_singleton</text>
</a>
</g>
</g>
<!-- Node1&#45;&gt;Node5 -->
<g id="edge4_Node000001_Node000005" class="edge">
<title>Node1&#45;&gt;Node5</title>
<g id="a_edge4_Node000001_Node000005"><a xlink:title=" ">
<path fill="none" stroke="#63b8ff" d="M100.7,-239.92C122.78,-223.69 160.21,-198.16 196,-183 265.53,-153.54 349.72,-134.36 409.71,-123.27"/>
<polygon fill="#63b8ff" stroke="#63b8ff" points="410.65,-126.65 419.87,-121.42 409.4,-119.77 410.65,-126.65"/>
</a>
</g>
</g>
<!-- Node7 -->
<g id="Node000007" class="node">
<title>Node7</title>
<g id="a_Node000007"><a xlink:href="classwmtk_1_1multimesh_1_1_multi_mesh_manager.html#a4af36827e5ee7bb5832a8d248b85bc2c" target="_top" xlink:title=" ">
<polygon fill="white" stroke="#666666" points="361,-270 201,-270 201,-240 361,-240 361,-270"/>
<text text-anchor="start" x="209" y="-258" font-family="Helvetica,sans-Serif" font-size="10.00">wmtk::multimesh::MultiMesh</text>
<text text-anchor="middle" x="281" y="-247" font-family="Helvetica,sans-Serif" font-size="10.00">Manager::mapped_darts</text>
</a>
</g>
</g>
<!-- Node1&#45;&gt;Node7 -->
<g id="edge6_Node000001_Node000007" class="edge">
<title>Node1&#45;&gt;Node7</title>
<g id="a_edge6_Node000001_Node000007"><a xlink:title=" ">
<path fill="none" stroke="#63b8ff" d="M160.22,-255C170.22,-255 180.5,-255 190.65,-255"/>
<polygon fill="#63b8ff" stroke="#63b8ff" points="190.73,-258.5 200.73,-255 190.73,-251.5 190.73,-258.5"/>
</a>
</g>
</g>
<!-- Node8 -->
<g id="Node000008" class="node">
<title>Node8</title>
<g id="a_Node000008"><a xlink:href="classwmtk_1_1_mesh.html#abaf00438d0700358b160e310d69725c9" target="_top" xlink:title=" ">
<polygon fill="white" stroke="#666666" points="366,-307.5 196,-307.5 196,-288.5 366,-288.5 366,-307.5"/>
<text text-anchor="middle" x="281" y="-295.5" font-family="Helvetica,sans-Serif" font-size="10.00">wmtk::Mesh::top_simplex_type</text>
</a>
</g>
</g>
<!-- Node1&#45;&gt;Node8 -->
<g id="edge7_Node000001_Node000008" class="edge">
<title>Node1&#45;&gt;Node8</title>
<g id="a_edge7_Node000001_Node000008"><a xlink:title=" ">
<path fill="none" stroke="#63b8ff" d="M150.6,-270.04C175.3,-275.38 202.71,-281.3 225.93,-286.32"/>
<polygon fill="#63b8ff" stroke="#63b8ff" points="225.42,-289.79 235.93,-288.48 226.9,-282.94 225.42,-289.79"/>
</a>
</g>
</g>
<!-- Node10 -->
<g id="Node000010" class="node">
<title>Node10</title>
<g id="a_Node000010"><a xlink:href="classwmtk_1_1dart_1_1_simplex_dart.html#a00e0cc038708281bcb75a6a6d5e6aaff" target="_top" xlink:title=" ">
<polygon fill="white" stroke="#666666" points="349.5,-222 212.5,-222 212.5,-192 349.5,-192 349.5,-222"/>
<text text-anchor="start" x="220.5" y="-210" font-family="Helvetica,sans-Serif" font-size="10.00">wmtk::dart::SimplexDart</text>
<text text-anchor="middle" x="281" y="-199" font-family="Helvetica,sans-Serif" font-size="10.00">::tuple_from_dart</text>
</a>
</g>
</g>
<!-- Node1&#45;&gt;Node10 -->
<g id="edge9_Node000001_Node000010" class="edge">
<title>Node1&#45;&gt;Node10</title>
<g id="a_edge9_Node000001_Node000010"><a xlink:title=" ">
<path fill="none" stroke="#63b8ff" d="M143.42,-239.94C163.89,-235.01 186.8,-229.48 207.92,-224.39"/>
<polygon fill="#63b8ff" stroke="#63b8ff" points="208.9,-227.75 217.8,-222 207.26,-220.94 208.9,-227.75"/>
</a>
</g>
</g>
<!-- Node19 -->
<g id="Node000019" class="node">
<title>Node19</title>
<g id="a_Node000019"><a xlink:href="namespacewmtk_1_1multimesh_1_1utils.html#a7382ca1de4356752b14e745f23b6892d" target="_top" xlink:title=" ">
<polygon fill="white" stroke="#666666" points="346,-93 216,-93 216,-63 346,-63 346,-93"/>
<text text-anchor="start" x="224" y="-81" font-family="Helvetica,sans-Serif" font-size="10.00">wmtk::multimesh::utils</text>
<text text-anchor="middle" x="281" y="-70" font-family="Helvetica,sans-Serif" font-size="10.00">::vectors_to_tuples</text>
</a>
</g>
</g>
<!-- Node1&#45;&gt;Node19 -->
<g id="edge20_Node000001_Node000019" class="edge">
<title>Node1&#45;&gt;Node19</title>
<g id="a_edge20_Node000001_Node000019"><a xlink:title=" ">
<path fill="none" stroke="#63b8ff" d="M93.94,-239.79C114.37,-216.2 155.9,-170.01 196,-136 211.97,-122.46 231.08,-109.07 247.04,-98.57"/>
<polygon fill="#63b8ff" stroke="#63b8ff" points="249.06,-101.43 255.54,-93.05 245.25,-95.56 249.06,-101.43"/>
</a>
</g>
</g>
<!-- Node3 -->
<g id="Node000003" class="node">
<title>Node3</title>
<g id="a_Node000003"><a xlink:href="classwmtk_1_1attribute_1_1_accessor.html#aaeafc36889f90d4e4e9478f998d240d7" target="_top" xlink:title=" ">
<polygon fill="white" stroke="#666666" points="559.5,-415 417.5,-415 417.5,-385 559.5,-385 559.5,-415"/>
<text text-anchor="start" x="425.5" y="-403" font-family="Helvetica,sans-Serif" font-size="10.00">wmtk::attribute::Accessor</text>
<text text-anchor="middle" x="488.5" y="-392" font-family="Helvetica,sans-Serif" font-size="10.00">::attribute</text>
</a>
</g>
</g>
<!-- Node2&#45;&gt;Node3 -->
<g id="edge2_Node000002_Node000003" class="edge">
<title>Node2&#45;&gt;Node3</title>
<g id="a_edge2_Node000002_Node000003"><a xlink:title=" ">
<path fill="none" stroke="#63b8ff" d="M346.74,-400C365.96,-400 387.25,-400 407.33,-400"/>
<polygon fill="#63b8ff" stroke="#63b8ff" points="407.39,-403.5 417.39,-400 407.39,-396.5 407.39,-403.5"/>
</a>
</g>
</g>
<!-- Node6 -->
<g id="Node000006" class="node">
<title>Node6</title>
<g id="a_Node000006"><a xlink:href="classwmtk_1_1dart_1_1_simplex_dart.html#a75defb2c9d167b36c7fc73cd7d5bba60" target="_top" xlink:title=" ">
<polygon fill="white" stroke="#666666" points="763,-126 626,-126 626,-96 763,-96 763,-126"/>
<text text-anchor="start" x="634" y="-114" font-family="Helvetica,sans-Serif" font-size="10.00">wmtk::dart::SimplexDart</text>
<text text-anchor="middle" x="694.5" y="-103" font-family="Helvetica,sans-Serif" font-size="10.00">::simplex_type</text>
</a>
</g>
</g>
<!-- Node5&#45;&gt;Node6 -->
<g id="edge5_Node000005_Node000006" class="edge">
<title>Node5&#45;&gt;Node6</title>
<g id="a_edge5_Node000005_Node000006"><a xlink:title=" ">
<path fill="none" stroke="#63b8ff" d="M557.15,-111C575.83,-111 596.24,-111 615.46,-111"/>
<polygon fill="#63b8ff" stroke="#63b8ff" points="615.69,-114.5 625.69,-111 615.69,-107.5 615.69,-114.5"/>
</a>
</g>
</g>
<!-- Node9 -->
<g id="Node000009" class="node">
<title>Node9</title>
<g id="a_Node000009"><a xlink:href="classwmtk_1_1_mesh.html#a933f681cf24a63b155c9462280385200" target="_top" xlink:title=" ">
<polygon fill="white" stroke="#666666" points="549,-356 428,-356 428,-326 549,-326 549,-356"/>
<text text-anchor="start" x="436" y="-344" font-family="Helvetica,sans-Serif" font-size="10.00">wmtk::Mesh::top_cell</text>
<text text-anchor="middle" x="488.5" y="-333" font-family="Helvetica,sans-Serif" font-size="10.00">_dimension</text>
</a>
</g>
</g>
<!-- Node8&#45;&gt;Node9 -->
<g id="edge8_Node000008_Node000009" class="edge">
<title>Node8&#45;&gt;Node9</title>
<g id="a_edge8_Node000008_Node000009"><a xlink:title=" ">
<path fill="none" stroke="#63b8ff" d="M327.61,-307.54C354.17,-313.1 388.19,-320.22 418.03,-326.46"/>
<polygon fill="#63b8ff" stroke="#63b8ff" points="417.46,-329.92 427.97,-328.54 418.89,-323.07 417.46,-329.92"/>
</a>
</g>
</g>
<!-- Node11 -->
<g id="Node000011" class="node">
<title>Node11</title>
<g id="a_Node000011"><a xlink:href="classwmtk_1_1dart_1_1___dart.html#ac92923bc94a0aace84b2cf69f277f63a" target="_top" xlink:title=" ">
<polygon fill="white" stroke="#666666" points="748.5,-291 640.5,-291 640.5,-261 748.5,-261 748.5,-291"/>
<text text-anchor="start" x="648.5" y="-279" font-family="Helvetica,sans-Serif" font-size="10.00">wmtk::dart::_Dart::</text>
<text text-anchor="middle" x="694.5" y="-268" font-family="Helvetica,sans-Serif" font-size="10.00">global_id</text>
</a>
</g>
</g>
<!-- Node10&#45;&gt;Node11 -->
<g id="edge10_Node000010_Node000011" class="edge">
<title>Node10&#45;&gt;Node11</title>
<g id="a_edge10_Node000010_Node000011"><a xlink:title=" ">
<path fill="none" stroke="#63b8ff" d="M349.82,-222.08C355.52,-224.61 361,-227.56 366,-231 387.97,-246.12 378.15,-267.07 402,-279 473.82,-314.91 568.59,-305.16 630.28,-292.55"/>
<polygon fill="#63b8ff" stroke="#63b8ff" points="631.21,-295.93 640.26,-290.42 629.75,-289.08 631.21,-295.93"/>
</a>
</g>
</g>
<!-- Node12 -->
<g id="Node000012" class="node">
<title>Node12</title>
<g id="a_Node000012"><a xlink:href="classwmtk_1_1dart_1_1___dart.html#ae8b8b6cb44a149bdd5b106e1302b062d" target="_top" xlink:title=" ">
<polygon fill="white" stroke="#666666" points="542.5,-270 434.5,-270 434.5,-240 542.5,-240 542.5,-270"/>
<text text-anchor="start" x="442.5" y="-258" font-family="Helvetica,sans-Serif" font-size="10.00">wmtk::dart::_Dart::</text>
<text text-anchor="middle" x="488.5" y="-247" font-family="Helvetica,sans-Serif" font-size="10.00">is_null</text>
</a>
</g>
</g>
<!-- Node10&#45;&gt;Node12 -->
<g id="edge11_Node000010_Node000012" class="edge">
<title>Node10&#45;&gt;Node12</title>
<g id="a_edge11_Node000010_Node000012"><a xlink:title=" ">
<path fill="none" stroke="#63b8ff" d="M346.46,-222.06C371.29,-227.86 399.6,-234.47 424.31,-240.24"/>
<polygon fill="#63b8ff" stroke="#63b8ff" points="423.76,-243.71 434.29,-242.57 425.35,-236.89 423.76,-243.71"/>
</a>
</g>
</g>
<!-- Node13 -->
<g id="Node000013" class="node">
<title>Node13</title>
<g id="a_Node000013"><a xlink:href="classwmtk_1_1dart_1_1___dart.html#aa34a01df7b33bec483a0da0158a1aca4" target="_top" xlink:title=" ">
<polygon fill="white" stroke="#666666" points="542.5,-222 434.5,-222 434.5,-192 542.5,-192 542.5,-222"/>
<text text-anchor="start" x="442.5" y="-210" font-family="Helvetica,sans-Serif" font-size="10.00">wmtk::dart::_Dart::</text>
<text text-anchor="middle" x="488.5" y="-199" font-family="Helvetica,sans-Serif" font-size="10.00">permutation</text>
</a>
</g>
</g>
<!-- Node10&#45;&gt;Node13 -->
<g id="edge13_Node000010_Node000013" class="edge">
<title>Node10&#45;&gt;Node13</title>
<g id="a_edge13_Node000010_Node000013"><a xlink:title=" ">
<path fill="none" stroke="#63b8ff" d="M349.57,-207C373.52,-207 400.37,-207 423.97,-207"/>
<polygon fill="#63b8ff" stroke="#63b8ff" points="424.21,-210.5 434.21,-207 424.21,-203.5 424.21,-210.5"/>
</a>
</g>
</g>
<!-- Node14 -->
<g id="Node000014" class="node">
<title>Node14</title>
<g id="a_Node000014"><a xlink:href="classwmtk_1_1dart_1_1_simplex_dart.html#a7a24ef56741738c40b27cc76fac80afa" target="_top" xlink:title=" ">
<polygon fill="white" stroke="#666666" points="575,-174 402,-174 402,-144 575,-144 575,-174"/>
<text text-anchor="start" x="410" y="-162" font-family="Helvetica,sans-Serif" font-size="10.00">wmtk::dart::SimplexDart</text>
<text text-anchor="middle" x="488.5" y="-151" font-family="Helvetica,sans-Serif" font-size="10.00">::tuple_from_permutation_index</text>
</a>
</g>
</g>
<!-- Node10&#45;&gt;Node14 -->
<g id="edge14_Node000010_Node000014" class="edge">
<title>Node10&#45;&gt;Node14</title>
<g id="a_edge14_Node000010_Node000014"><a xlink:title=" ">
<path fill="none" stroke="#63b8ff" d="M346.46,-191.94C367.69,-186.99 391.47,-181.43 413.36,-176.32"/>
<polygon fill="#63b8ff" stroke="#63b8ff" points="414.33,-179.69 423.27,-174 412.74,-172.87 414.33,-179.69"/>
</a>
</g>
</g>
<!-- Node12&#45;&gt;Node11 -->
<g id="edge12_Node000012_Node000011" class="edge">
<title>Node12&#45;&gt;Node11</title>
<g id="a_edge12_Node000012_Node000011"><a xlink:title=" ">
<path fill="none" stroke="#63b8ff" d="M542.57,-260.46C569.38,-263.22 602.1,-266.59 630.22,-269.49"/>
<polygon fill="#63b8ff" stroke="#63b8ff" points="630.04,-272.99 640.35,-270.53 630.76,-266.02 630.04,-272.99"/>
</a>
</g>
</g>
<!-- Node14&#45;&gt;Node6 -->
<g id="edge15_Node000014_Node000006" class="edge">
<title>Node14&#45;&gt;Node6</title>
<g id="a_edge15_Node000014_Node000006"><a xlink:title=" ">
<path fill="none" stroke="#63b8ff" d="M553.49,-143.94C574.56,-138.99 598.17,-133.43 619.9,-128.32"/>
<polygon fill="#63b8ff" stroke="#63b8ff" points="620.81,-131.7 629.74,-126 619.2,-124.89 620.81,-131.7"/>
</a>
</g>
</g>
<!-- Node15 -->
<g id="Node000015" class="node">
<title>Node15</title>
<g id="a_Node000015"><a xlink:href="namespacewmtk_1_1dart_1_1utils.html#a8220591e048a168274e6c5b45028cc35" target="_top" xlink:title=" ">
<polygon fill="white" stroke="#666666" points="778,-174 611,-174 611,-144 778,-144 778,-174"/>
<text text-anchor="start" x="619" y="-162" font-family="Helvetica,sans-Serif" font-size="10.00">wmtk::dart::utils::</text>
<text text-anchor="middle" x="694.5" y="-151" font-family="Helvetica,sans-Serif" font-size="10.00">tuple_from_permutation_index</text>
</a>
</g>
</g>
<!-- Node14&#45;&gt;Node15 -->
<g id="edge16_Node000014_Node000015" class="edge">
<title>Node14&#45;&gt;Node15</title>
<g id="a_edge16_Node000014_Node000015"><a xlink:title=" ">
<path fill="none" stroke="#63b8ff" d="M575.13,-159C583.5,-159 592.02,-159 600.46,-159"/>
<polygon fill="#63b8ff" stroke="#63b8ff" points="600.7,-162.5 610.7,-159 600.7,-155.5 600.7,-162.5"/>
</a>
</g>
</g>
<!-- Node16 -->
<g id="Node000016" class="node">
<title>Node16</title>
<g id="a_Node000016"><a xlink:href="namespacewmtk_1_1autogen_1_1edge__mesh.html#a733920e99772f077eaf992236a4d44d0" target="_top" xlink:title=" ">
<polygon fill="white" stroke="#666666" points="1020,-222 814,-222 814,-192 1020,-192 1020,-222"/>
<text text-anchor="start" x="822" y="-210" font-family="Helvetica,sans-Serif" font-size="10.00">wmtk::autogen::edge</text>
<text text-anchor="middle" x="917" y="-199" font-family="Helvetica,sans-Serif" font-size="10.00">_mesh::tuple_from_permutation_index</text>
</a>
</g>
</g>
<!-- Node15&#45;&gt;Node16 -->
<g id="edge17_Node000015_Node000016" class="edge">
<title>Node15&#45;&gt;Node16</title>
<g id="a_edge17_Node000015_Node000016"><a xlink:title=" ">
<path fill="none" stroke="#63b8ff" d="M764.66,-174.06C787.65,-179.06 813.42,-184.67 837.08,-189.82"/>
<polygon fill="#63b8ff" stroke="#63b8ff" points="836.57,-193.29 847.08,-192 838.06,-186.45 836.57,-193.29"/>
</a>
</g>
</g>
<!-- Node17 -->
<g id="Node000017" class="node">
<title>Node17</title>
<g id="a_Node000017"><a xlink:href="namespacewmtk_1_1autogen_1_1tet__mesh.html#a76a9e44667b5409342b46f3a6457d2e1" target="_top" xlink:title=" ">
<polygon fill="white" stroke="#666666" points="1020,-174 814,-174 814,-144 1020,-144 1020,-174"/>
<text text-anchor="start" x="822" y="-162" font-family="Helvetica,sans-Serif" font-size="10.00">wmtk::autogen::tet</text>
<text text-anchor="middle" x="917" y="-151" font-family="Helvetica,sans-Serif" font-size="10.00">_mesh::tuple_from_permutation_index</text>
</a>
</g>
</g>
<!-- Node15&#45;&gt;Node17 -->
<g id="edge18_Node000015_Node000017" class="edge">
<title>Node15&#45;&gt;Node17</title>
<g id="a_edge18_Node000015_Node000017"><a xlink:title=" ">
<path fill="none" stroke="#63b8ff" d="M778.23,-159C786.58,-159 795.15,-159 803.73,-159"/>
<polygon fill="#63b8ff" stroke="#63b8ff" points="803.8,-162.5 813.8,-159 803.8,-155.5 803.8,-162.5"/>
</a>
</g>
</g>
<!-- Node18 -->
<g id="Node000018" class="node">
<title>Node18</title>
<g id="a_Node000018"><a xlink:href="namespacewmtk_1_1autogen_1_1tri__mesh.html#a1642768c1a7bc091584eabf48c47ec2f" target="_top" xlink:title=" ">
<polygon fill="white" stroke="#666666" points="1020,-126 814,-126 814,-96 1020,-96 1020,-126"/>
<text text-anchor="start" x="822" y="-114" font-family="Helvetica,sans-Serif" font-size="10.00">wmtk::autogen::tri</text>
<text text-anchor="middle" x="917" y="-103" font-family="Helvetica,sans-Serif" font-size="10.00">_mesh::tuple_from_permutation_index</text>
</a>
</g>
</g>
<!-- Node15&#45;&gt;Node18 -->
<g id="edge19_Node000015_Node000018" class="edge">
<title>Node15&#45;&gt;Node18</title>
<g id="a_edge19_Node000015_Node000018"><a xlink:title=" ">
<path fill="none" stroke="#63b8ff" d="M764.66,-143.94C787.65,-138.94 813.42,-133.33 837.08,-128.18"/>
<polygon fill="#63b8ff" stroke="#63b8ff" points="838.06,-131.55 847.08,-126 836.57,-124.71 838.06,-131.55"/>
</a>
</g>
</g>
<!-- Node20 -->
<g id="Node000020" class="node">
<title>Node20</title>
<g id="a_Node000020"><a xlink:href="namespacewmtk_1_1multimesh_1_1utils.html#afcaf5933957666eacc341add3d727960" target="_top" xlink:title=" ">
<polygon fill="white" stroke="#666666" points="553.5,-78 423.5,-78 423.5,-48 553.5,-48 553.5,-78"/>
<text text-anchor="start" x="431.5" y="-66" font-family="Helvetica,sans-Serif" font-size="10.00">wmtk::multimesh::utils</text>
<text text-anchor="middle" x="488.5" y="-55" font-family="Helvetica,sans-Serif" font-size="10.00">::vector_to_tuple</text>
</a>
</g>
</g>
<!-- Node19&#45;&gt;Node20 -->
<g id="edge21_Node000019_Node000020" class="edge">
<title>Node19&#45;&gt;Node20</title>
<g id="a_edge21_Node000019_Node000020"><a xlink:title=" ">
<path fill="none" stroke="#63b8ff" d="M346.18,-73.32C367.42,-71.76 391.25,-70.03 413.19,-68.42"/>
<polygon fill="#63b8ff" stroke="#63b8ff" points="413.74,-71.89 423.46,-67.67 413.23,-64.91 413.74,-71.89"/>
</a>
</g>
</g>
<!-- Node21 -->
<g id="Node000021" class="node">
<title>Node21</title>
<g id="a_Node000021"><a xlink:href="namespacewmtk_1_1multimesh_1_1utils.html#a335acc709f47df9fe96f4c2ed2e10585" target="_top" xlink:title=" ">
<polygon fill="white" stroke="#666666" points="759.5,-30 629.5,-30 629.5,0 759.5,0 759.5,-30"/>
<text text-anchor="start" x="637.5" y="-18" font-family="Helvetica,sans-Serif" font-size="10.00">wmtk::multimesh::utils</text>
<text text-anchor="middle" x="694.5" y="-7" font-family="Helvetica,sans-Serif" font-size="10.00">::vector2_to_tuple</text>
</a>
</g>
</g>
<!-- Node20&#45;&gt;Node21 -->
<g id="edge22_Node000020_Node000021" class="edge">
<title>Node20&#45;&gt;Node21</title>
<g id="a_edge22_Node000020_Node000021"><a xlink:title=" ">
<path fill="none" stroke="#63b8ff" d="M553.49,-47.94C574.56,-42.99 598.17,-37.43 619.9,-32.32"/>
<polygon fill="#63b8ff" stroke="#63b8ff" points="620.81,-35.7 629.74,-30 619.2,-28.89 620.81,-35.7"/>
</a>
</g>
</g>
<!-- Node22 -->
<g id="Node000022" class="node">
<title>Node22</title>
<g id="a_Node000022"><a xlink:href="namespacewmtk_1_1multimesh_1_1utils.html#a2645b98b3068060a73df0c8cc16b6a3d" target="_top" xlink:title=" ">
<polygon fill="white" stroke="#666666" points="759.5,-78 629.5,-78 629.5,-48 759.5,-48 759.5,-78"/>
<text text-anchor="start" x="637.5" y="-66" font-family="Helvetica,sans-Serif" font-size="10.00">wmtk::multimesh::utils</text>
<text text-anchor="middle" x="694.5" y="-55" font-family="Helvetica,sans-Serif" font-size="10.00">::vector5_to_tuple</text>
</a>
</g>
</g>
<!-- Node20&#45;&gt;Node22 -->
<g id="edge23_Node000020_Node000022" class="edge">
<title>Node20&#45;&gt;Node22</title>
<g id="a_edge23_Node000020_Node000022"><a xlink:title=" ">
<path fill="none" stroke="#63b8ff" d="M553.77,-63C574.54,-63 597.74,-63 619.17,-63"/>
<polygon fill="#63b8ff" stroke="#63b8ff" points="619.21,-66.5 629.21,-63 619.21,-59.5 619.21,-66.5"/>
</a>
</g>
</g>
</g>
</svg>
