<?xml version="1.0" encoding="UTF-8" standalone="no"?>
<!DOCTYPE svg PUBLIC "-//W3C//DTD SVG 1.1//EN"
 "http://www.w3.org/Graphics/SVG/1.1/DTD/svg11.dtd">
<!-- Generated by graphviz version 2.43.0 (0)
 -->
<!-- Title: wmtk::TetMesh::initialize Pages: 1 -->
<!--zoomable 295 -->

<svg id="main" version="1.1" xmlns="http://www.w3.org/2000/svg" xmlns:xlink="http://www.w3.org/1999/xlink" xml:space="preserve" onload="init(evt)">
<style type="text/css"><![CDATA[
.node, .edge {opacity: 0.7;}
.node.selected, .edge.selected {opacity: 1;}
.edge:hover path { stroke: red; }
.edge:hover polygon { stroke: red; fill: red; }
]]></style>

<defs>
  <circle id="rim" cx="0" cy="0" r="7"/>
  <circle id="rim2" cx="0" cy="0" r="3.5"/>
  <g id="zoomPlus">
    <use xlink:href="#rim" fill="#404040"><set attributeName="fill" to="#808080" begin="zoomplus.mouseover" end="zoomplus.mouseout"/></use>
    <path d="M-4,0h8M0,-4v8" fill="none" stroke="white" stroke-width="1.5" pointer-events="none"/>
  </g>
  <g id="zoomMin">
    <use xlink:href="#rim" fill="#404040"><set attributeName="fill" to="#808080" begin="zoomminus.mouseover" end="zoomminus.mouseout"/></use>
    <path d="M-4,0h8" fill="none" stroke="white" stroke-width="1.5" pointer-events="none"/>
  </g>
  <g id="arrowUp" transform="translate(30 24)">
    <use xlink:href="#rim"/>
    <path pointer-events="none" fill="none" stroke="white" stroke-width="1.5" d="M0,-3.0v7 M-2.5,-0.5L0,-3.0L2.5,-0.5"/>
  </g>
  <g id="arrowRight" transform="rotate(90) translate(36 -43)">
    <use xlink:href="#rim"/>
    <path pointer-events="none" fill="none" stroke="white" stroke-width="1.5" d="M0,-3.0v7 M-2.5,-0.5L0,-3.0L2.5,-0.5"/>
  </g>
  <g id="arrowDown" transform="rotate(180) translate(-30 -48)">
    <use xlink:href="#rim"/>
    <path pointer-events="none" fill="none" stroke="white" stroke-width="1.5" d="M0,-3.0v7 M-2.5,-0.5L0,-3.0L2.5,-0.5"/>
  </g>
  <g id="arrowLeft" transform="rotate(270) translate(-36 17)">
    <use xlink:href="#rim"/>
    <path pointer-events="none" fill="none" stroke="white" stroke-width="1.5" d="M0,-3.0v7 M-2.5,-0.5L0,-3.0L2.5,-0.5"/>
  </g>
  <g id="resetDef">
    <use xlink:href="#rim2" fill="#404040"><set attributeName="fill" to="#808080" begin="reset.mouseover" end="reset.mouseout"/></use>
  </g>
</defs>
<script type="application/ecmascript">
var viewWidth = 1115;
var viewHeight = 295;
var sectionId = 'dynsection-18';
</script>
<script type="application/ecmascript" xlink:href="svg.min.js"/>
<svg id="graph" class="graph">
<g id="viewport">
<title>wmtk::TetMesh::initialize</title>
<!-- Node1 -->
<g id="Node000001" class="node">
<title>Node1</title>
<g id="a_Node000001"><a xlink:title=" ">
<polygon fill="#999999" stroke="#666666" points="139,-86 0,-86 0,-67 139,-67 139,-86"/>
<text text-anchor="middle" x="69.5" y="-74" font-family="Helvetica,sans-Serif" font-size="10.00">wmtk::TetMesh::initialize</text>
</a>
</g>
</g>
<!-- Node2 -->
<g id="Node000002" class="node">
<title>Node2</title>
<g id="a_Node000002"><a xlink:href="classwmtk_1_1_tet_mesh.html#ab8b4b3182fb3778fa8da52ea4fa156b6" target="_top" xlink:title=" ">
<polygon fill="white" stroke="#666666" points="314,-123 175,-123 175,-104 314,-104 314,-123"/>
<text text-anchor="middle" x="244.5" y="-111" font-family="Helvetica,sans-Serif" font-size="10.00">wmtk::TetMesh::initialize</text>
</a>
</g>
</g>
<!-- Node1&#45;&gt;Node2 -->
<g id="edge1_Node000001_Node000002" class="edge">
<title>Node1&#45;&gt;Node2</title>
<g id="a_edge1_Node000001_Node000002"><a xlink:title=" ">
<path fill="none" stroke="#63b8ff" d="M115.05,-86.03C137.57,-90.84 165.08,-96.73 188.86,-101.81"/>
<polygon fill="#63b8ff" stroke="#63b8ff" points="188.29,-105.27 198.8,-103.94 189.75,-98.43 188.29,-105.27"/>
</a>
</g>
</g>
<!-- Node20 -->
<g id="Node000020" class="node">
<title>Node20</title>
<g id="a_Node000020"><a xlink:href="classwmtk_1_1_mesh.html#a531f0c59e0f2c07910ba3a31dd097764" target="_top" xlink:title=" ">
<polygon fill="white" stroke="#666666" points="302.5,-86 186.5,-86 186.5,-67 302.5,-67 302.5,-86"/>
<text text-anchor="middle" x="244.5" y="-74" font-family="Helvetica,sans-Serif" font-size="10.00">wmtk::Mesh::is_free</text>
</a>
</g>
</g>
<!-- Node1&#45;&gt;Node20 -->
<g id="edge20_Node000001_Node000020" class="edge">
<title>Node1&#45;&gt;Node20</title>
<g id="a_edge20_Node000001_Node000020"><a xlink:title=" ">
<path fill="none" stroke="#63b8ff" d="M139.37,-76.5C151.52,-76.5 164.15,-76.5 176.25,-76.5"/>
<polygon fill="#63b8ff" stroke="#63b8ff" points="176.27,-80 186.27,-76.5 176.27,-73 176.27,-80"/>
</a>
</g>
</g>
<!-- Node21 -->
<g id="Node000021" class="node">
<title>Node21</title>
<g id="a_Node000021"><a xlink:href="namespacewmtk.html#a2053ce3f92b653701fa876b484bc5170" target="_top" xlink:title="Given the mesh connectivity in matrix format, finds unique edges and faces and their relations.">
<polygon fill="white" stroke="#666666" points="314,-48.5 175,-48.5 175,-18.5 314,-18.5 314,-48.5"/>
<text text-anchor="start" x="183" y="-36.5" font-family="Helvetica,sans-Serif" font-size="10.00">wmtk::tetmesh_topology</text>
<text text-anchor="middle" x="244.5" y="-25.5" font-family="Helvetica,sans-Serif" font-size="10.00">_initialization</text>
</a>
</g>
</g>
<!-- Node1&#45;&gt;Node21 -->
<g id="edge21_Node000001_Node000021" class="edge">
<title>Node1&#45;&gt;Node21</title>
<g id="a_edge21_Node000001_Node000021"><a xlink:title=" ">
<path fill="none" stroke="#63b8ff" d="M108.89,-66.96C127.8,-62.26 151.2,-56.44 173.16,-50.98"/>
<polygon fill="#63b8ff" stroke="#63b8ff" points="174.27,-54.32 183.13,-48.51 172.58,-47.52 174.27,-54.32"/>
</a>
</g>
</g>
<!-- Node3 -->
<g id="Node000003" class="node">
<title>Node3</title>
<g id="a_Node000003"><a xlink:href="classwmtk_1_1attribute_1_1_index_flag_accessor.html#a95874b259daee031cd8bb3635ada83d5" target="_top" xlink:title=" ">
<polygon fill="white" stroke="#666666" points="504.5,-238.5 358.5,-238.5 358.5,-208.5 504.5,-208.5 504.5,-238.5"/>
<text text-anchor="start" x="366.5" y="-226.5" font-family="Helvetica,sans-Serif" font-size="10.00">wmtk::attribute::IndexFlag</text>
<text text-anchor="middle" x="431.5" y="-215.5" font-family="Helvetica,sans-Serif" font-size="10.00">Accessor::activate</text>
</a>
</g>
</g>
<!-- Node2&#45;&gt;Node3 -->
<g id="edge2_Node000002_Node000003" class="edge">
<title>Node2&#45;&gt;Node3</title>
<g id="a_edge2_Node000002_Node000003"><a xlink:title=" ">
<path fill="none" stroke="#63b8ff" d="M255.7,-123.21C273.55,-139.77 312.18,-173.71 350,-194.5 356.77,-198.22 364.12,-201.63 371.52,-204.7"/>
<polygon fill="#63b8ff" stroke="#63b8ff" points="370.31,-207.98 380.9,-208.4 372.88,-201.47 370.31,-207.98"/>
</a>
</g>
</g>
<!-- Node8 -->
<g id="Node000008" class="node">
<title>Node8</title>
<g id="a_Node000008"><a xlink:href="classwmtk_1_1_mesh.html#a3e8ff83c4a5526a40d18bb9883c6c6c9" target="_top" xlink:title="read in the m_capacities return the upper bound for the number of entities of the given dimension">
<polygon fill="white" stroke="#666666" points="684,-190 560,-190 560,-171 684,-171 684,-190"/>
<text text-anchor="middle" x="622" y="-178" font-family="Helvetica,sans-Serif" font-size="10.00">wmtk::Mesh::capacity</text>
</a>
</g>
</g>
<!-- Node2&#45;&gt;Node8 -->
<g id="edge7_Node000002_Node000008" class="edge">
<title>Node2&#45;&gt;Node8</title>
<g id="a_edge7_Node000002_Node000008"><a xlink:title=" ">
<path fill="none" stroke="#63b8ff" d="M261.47,-123.06C281.41,-134.47 316.92,-153.04 350,-161.5 416.25,-178.44 494.37,-182.28 549.68,-182.43"/>
<polygon fill="#63b8ff" stroke="#63b8ff" points="549.74,-185.94 559.73,-182.42 549.73,-178.94 549.74,-185.94"/>
</a>
</g>
</g>
<!-- Node10 -->
<g id="Node000010" class="node">
<title>Node10</title>
<g id="a_Node000010"><a xlink:href="classwmtk_1_1_mesh.html#ae3493915b766f0f34f0a9e89603d5773" target="_top" xlink:title=" ">
<polygon fill="white" stroke="#666666" points="492.5,-152.5 370.5,-152.5 370.5,-122.5 492.5,-122.5 492.5,-152.5"/>
<text text-anchor="start" x="378.5" y="-140.5" font-family="Helvetica,sans-Serif" font-size="10.00">wmtk::Mesh::get_flag</text>
<text text-anchor="middle" x="431.5" y="-129.5" font-family="Helvetica,sans-Serif" font-size="10.00">_accessor</text>
</a>
</g>
</g>
<!-- Node2&#45;&gt;Node10 -->
<g id="edge9_Node000002_Node000010" class="edge">
<title>Node2&#45;&gt;Node10</title>
<g id="a_edge9_Node000002_Node000010"><a xlink:title=" ">
<path fill="none" stroke="#63b8ff" d="M314.12,-122.4C329.08,-124.34 344.93,-126.4 359.96,-128.35"/>
<polygon fill="#63b8ff" stroke="#63b8ff" points="359.84,-131.86 370.21,-129.68 360.74,-124.92 359.84,-131.86"/>
</a>
</g>
</g>
<!-- Node13 -->
<g id="Node000013" class="node">
<title>Node13</title>
<g id="a_Node000013"><a xlink:href="classwmtk_1_1attribute_1_1_flag_accessor.html#a4f49a666c3811fee9b841c1cd1f66250" target="_top" xlink:title=" ">
<polygon fill="white" stroke="#666666" points="513,-104.5 350,-104.5 350,-74.5 513,-74.5 513,-104.5"/>
<text text-anchor="start" x="358" y="-92.5" font-family="Helvetica,sans-Serif" font-size="10.00">wmtk::attribute::FlagAccessor</text>
<text text-anchor="middle" x="431.5" y="-81.5" font-family="Helvetica,sans-Serif" font-size="10.00">::index_access</text>
</a>
</g>
</g>
<!-- Node2&#45;&gt;Node13 -->
<g id="edge13_Node000002_Node000013" class="edge">
<title>Node2&#45;&gt;Node13</title>
<g id="a_edge13_Node000002_Node000013"><a xlink:title=" ">
<path fill="none" stroke="#63b8ff" d="M314.12,-104.6C322.48,-103.51 331.11,-102.39 339.72,-101.28"/>
<polygon fill="#63b8ff" stroke="#63b8ff" points="340.33,-104.73 349.8,-99.97 339.43,-97.79 340.33,-104.73"/>
</a>
</g>
</g>
<!-- Node14 -->
<g id="Node000014" class="node">
<title>Node14</title>
<g id="a_Node000014"><a xlink:href="classwmtk_1_1_mesh.html#a05eaf6f3eeb78949f3b95c359cc6df68" target="_top" xlink:title=" ">
<polygon fill="white" stroke="#666666" points="507.5,-56 355.5,-56 355.5,-37 507.5,-37 507.5,-56"/>
<text text-anchor="middle" x="431.5" y="-44" font-family="Helvetica,sans-Serif" font-size="10.00">wmtk::Mesh::set_capacities</text>
</a>
</g>
</g>
<!-- Node2&#45;&gt;Node14 -->
<g id="edge14_Node000002_Node000014" class="edge">
<title>Node2&#45;&gt;Node14</title>
<g id="a_edge14_Node000002_Node000014"><a xlink:title=" ">
<path fill="none" stroke="#63b8ff" d="M292.94,-103.95C300.2,-101.66 307.44,-98.88 314,-95.5 332.51,-85.96 331.37,-74.81 350,-65.5 354.82,-63.09 359.95,-60.98 365.2,-59.14"/>
<polygon fill="#63b8ff" stroke="#63b8ff" points="366.29,-62.47 374.75,-56.09 364.16,-55.8 366.29,-62.47"/>
</a>
</g>
</g>
<!-- Node19 -->
<g id="Node000019" class="node">
<title>Node19</title>
<g id="a_Node000019"><a xlink:href="classwmtk_1_1_tet_mesh.html#afd39672a8a046e96b7cd0d14516ebe79" target="_top" xlink:title=" ">
<polygon fill="white" stroke="#666666" points="509,-19 354,-19 354,0 509,0 509,-19"/>
<text text-anchor="middle" x="431.5" y="-7" font-family="Helvetica,sans-Serif" font-size="10.00">wmtk::TetMesh::tv_accessor</text>
</a>
</g>
</g>
<!-- Node2&#45;&gt;Node19 -->
<g id="edge19_Node000002_Node000019" class="edge">
<title>Node2&#45;&gt;Node19</title>
<g id="a_edge19_Node000002_Node000019"><a xlink:title=" ">
<path fill="none" stroke="#63b8ff" d="M299.56,-103.98C304.74,-101.72 309.66,-98.94 314,-95.5 340.79,-74.25 322.82,-48.25 350,-27.5 351.8,-26.12 353.69,-24.85 355.65,-23.67"/>
<polygon fill="#63b8ff" stroke="#63b8ff" points="357.31,-26.75 364.61,-19.07 354.11,-20.52 357.31,-26.75"/>
</a>
</g>
</g>
<!-- Node4 -->
<g id="Node000004" class="node">
<title>Node4</title>
<g id="a_Node000004"><a xlink:href="classwmtk_1_1attribute_1_1_index_flag_accessor.html#af06d8fe6a9f16a0b9ac09e6eae9e797d" target="_top" xlink:title=" ">
<polygon fill="white" stroke="#666666" points="695,-286.5 549,-286.5 549,-256.5 695,-256.5 695,-286.5"/>
<text text-anchor="start" x="557" y="-274.5" font-family="Helvetica,sans-Serif" font-size="10.00">wmtk::attribute::IndexFlag</text>
<text text-anchor="middle" x="622" y="-263.5" font-family="Helvetica,sans-Serif" font-size="10.00">Accessor::_activate</text>
</a>
</g>
</g>
<!-- Node3&#45;&gt;Node4 -->
<g id="edge3_Node000003_Node000004" class="edge">
<title>Node3&#45;&gt;Node4</title>
<g id="a_edge3_Node000003_Node000004"><a xlink:title=" ">
<path fill="none" stroke="#63b8ff" d="M491.63,-238.56C510.84,-243.45 532.32,-248.92 552.18,-253.98"/>
<polygon fill="#63b8ff" stroke="#63b8ff" points="551.53,-257.42 562.08,-256.5 553.26,-250.64 551.53,-257.42"/>
</a>
</g>
</g>
<!-- Node5 -->
<g id="Node000005" class="node">
<title>Node5</title>
<g id="a_Node000005"><a xlink:href="classwmtk_1_1attribute_1_1_index_flag_accessor.html#a209b3c34d677a60d321806e30da8d287" target="_top" xlink:title=" ">
<polygon fill="white" stroke="#666666" points="695,-238.5 549,-238.5 549,-208.5 695,-208.5 695,-238.5"/>
<text text-anchor="start" x="557" y="-226.5" font-family="Helvetica,sans-Serif" font-size="10.00">wmtk::attribute::IndexFlag</text>
<text text-anchor="middle" x="622" y="-215.5" font-family="Helvetica,sans-Serif" font-size="10.00">Accessor::attribute</text>
</a>
</g>
</g>
<!-- Node3&#45;&gt;Node5 -->
<g id="edge4_Node000003_Node000005" class="edge">
<title>Node3&#45;&gt;Node5</title>
<g id="a_edge4_Node000003_Node000005"><a xlink:title=" ">
<path fill="none" stroke="#63b8ff" d="M504.57,-223.5C515.71,-223.5 527.29,-223.5 538.64,-223.5"/>
<polygon fill="#63b8ff" stroke="#63b8ff" points="538.97,-227 548.97,-223.5 538.97,-220 538.97,-227"/>
</a>
</g>
</g>
<!-- Node6 -->
<g id="Node000006" class="node">
<title>Node6</title>
<g id="a_Node000006"><a xlink:href="classwmtk_1_1attribute_1_1_accessor.html#aaeafc36889f90d4e4e9478f998d240d7" target="_top" xlink:title=" ">
<polygon fill="white" stroke="#666666" points="894.5,-286.5 752.5,-286.5 752.5,-256.5 894.5,-256.5 894.5,-286.5"/>
<text text-anchor="start" x="760.5" y="-274.5" font-family="Helvetica,sans-Serif" font-size="10.00">wmtk::attribute::Accessor</text>
<text text-anchor="middle" x="823.5" y="-263.5" font-family="Helvetica,sans-Serif" font-size="10.00">::attribute</text>
</a>
</g>
</g>
<!-- Node5&#45;&gt;Node6 -->
<g id="edge5_Node000005_Node000006" class="edge">
<title>Node5&#45;&gt;Node6</title>
<g id="a_edge5_Node000005_Node000006"><a xlink:title=" ">
<path fill="none" stroke="#63b8ff" d="M685.58,-238.56C706.09,-243.49 729.06,-249.02 750.24,-254.11"/>
<polygon fill="#63b8ff" stroke="#63b8ff" points="749.61,-257.56 760.15,-256.5 751.24,-250.76 749.61,-257.56"/>
</a>
</g>
</g>
<!-- Node7 -->
<g id="Node000007" class="node">
<title>Node7</title>
<g id="a_Node000007"><a xlink:href="classwmtk_1_1attribute_1_1_index_flag_accessor.html#a37e882007dc57e3571c18163a709a246" target="_top" xlink:title=" ">
<polygon fill="white" stroke="#666666" points="896.5,-238.5 750.5,-238.5 750.5,-208.5 896.5,-208.5 896.5,-238.5"/>
<text text-anchor="start" x="758.5" y="-226.5" font-family="Helvetica,sans-Serif" font-size="10.00">wmtk::attribute::IndexFlag</text>
<text text-anchor="middle" x="823.5" y="-215.5" font-family="Helvetica,sans-Serif" font-size="10.00">Accessor::base_accessor</text>
</a>
</g>
</g>
<!-- Node5&#45;&gt;Node7 -->
<g id="edge6_Node000005_Node000007" class="edge">
<title>Node5&#45;&gt;Node7</title>
<g id="a_edge6_Node000005_Node000007"><a xlink:title=" ">
<path fill="none" stroke="#63b8ff" d="M695.02,-223.5C709.62,-223.5 725.08,-223.5 740.01,-223.5"/>
<polygon fill="#63b8ff" stroke="#63b8ff" points="740.25,-227 750.25,-223.5 740.25,-220 740.25,-227"/>
</a>
</g>
</g>
<!-- Node9 -->
<g id="Node000009" class="node">
<title>Node9</title>
<g id="a_Node000009"><a xlink:href="namespacewmtk.html#a5cf45c152e856196bb734c6f48919a24" target="_top" xlink:title="Get a unique integer id corresponding to each primitive type.">
<polygon fill="white" stroke="#666666" points="881.5,-190.5 765.5,-190.5 765.5,-160.5 881.5,-160.5 881.5,-190.5"/>
<text text-anchor="start" x="773.5" y="-178.5" font-family="Helvetica,sans-Serif" font-size="10.00">wmtk::get_primitive</text>
<text text-anchor="middle" x="823.5" y="-167.5" font-family="Helvetica,sans-Serif" font-size="10.00">_type_id</text>
</a>
</g>
</g>
<!-- Node8&#45;&gt;Node9 -->
<g id="edge8_Node000008_Node000009" class="edge">
<title>Node8&#45;&gt;Node9</title>
<g id="a_edge8_Node000008_Node000009"><a xlink:title=" ">
<path fill="none" stroke="#63b8ff" d="M684.21,-178.97C706.76,-178.4 732.41,-177.76 755.45,-177.18"/>
<polygon fill="#63b8ff" stroke="#63b8ff" points="755.58,-180.68 765.49,-176.93 755.4,-173.68 755.58,-180.68"/>
</a>
</g>
</g>
<!-- Node11 -->
<g id="Node000011" class="node">
<title>Node11</title>
<g id="a_Node000011"><a xlink:href="classwmtk_1_1_mesh.html#acfa981b31f00aef4438ff5e73bbce2f4" target="_top" xlink:title=" ">
<polygon fill="white" stroke="#666666" points="687,-152.5 557,-152.5 557,-122.5 687,-122.5 687,-152.5"/>
<text text-anchor="start" x="565" y="-140.5" font-family="Helvetica,sans-Serif" font-size="10.00">wmtk::Mesh::get_const</text>
<text text-anchor="middle" x="622" y="-129.5" font-family="Helvetica,sans-Serif" font-size="10.00">_flag_accessor</text>
</a>
</g>
</g>
<!-- Node10&#45;&gt;Node11 -->
<g id="edge10_Node000010_Node000011" class="edge">
<title>Node10&#45;&gt;Node11</title>
<g id="a_edge10_Node000010_Node000011"><a xlink:title=" ">
<path fill="none" stroke="#63b8ff" d="M492.66,-137.5C509.85,-137.5 528.8,-137.5 546.73,-137.5"/>
<polygon fill="#63b8ff" stroke="#63b8ff" points="546.86,-141 556.86,-137.5 546.86,-134 546.86,-141"/>
</a>
</g>
</g>
<!-- Node11&#45;&gt;Node9 -->
<g id="edge12_Node000011_Node000009" class="edge">
<title>Node11&#45;&gt;Node9</title>
<g id="a_edge12_Node000011_Node000009"><a xlink:title=" ">
<path fill="none" stroke="#63b8ff" d="M687.22,-149.73C709.05,-153.89 733.49,-158.55 755.53,-162.74"/>
<polygon fill="#63b8ff" stroke="#63b8ff" points="754.99,-166.2 765.47,-164.64 756.3,-159.33 754.99,-166.2"/>
</a>
</g>
</g>
<!-- Node12 -->
<g id="Node000012" class="node">
<title>Node12</title>
<g id="a_Node000012"><a xlink:href="classwmtk_1_1_mesh.html#a4cd7e6ca59d8d58cc7057c13bd190d57" target="_top" xlink:title=" ">
<polygon fill="white" stroke="#666666" points="880,-142.5 767,-142.5 767,-112.5 880,-112.5 880,-142.5"/>
<text text-anchor="start" x="775" y="-130.5" font-family="Helvetica,sans-Serif" font-size="10.00">wmtk::Mesh::create</text>
<text text-anchor="middle" x="823.5" y="-119.5" font-family="Helvetica,sans-Serif" font-size="10.00">_const_accessor</text>
</a>
</g>
</g>
<!-- Node11&#45;&gt;Node12 -->
<g id="edge11_Node000011_Node000012" class="edge">
<title>Node11&#45;&gt;Node12</title>
<g id="a_edge11_Node000011_Node000012"><a xlink:title=" ">
<path fill="none" stroke="#63b8ff" d="M687.22,-134.28C709.45,-133.17 734.38,-131.92 756.73,-130.8"/>
<polygon fill="#63b8ff" stroke="#63b8ff" points="756.98,-134.29 766.79,-130.29 756.63,-127.3 756.98,-134.29"/>
</a>
</g>
</g>
<!-- Node15 -->
<g id="Node000015" class="node">
<title>Node15</title>
<g id="a_Node000015"><a xlink:href="classwmtk_1_1attribute_1_1_attribute_manager.html#a2dde70c10887ef5a2d5f00844e245b71" target="_top" xlink:title=" ">
<polygon fill="white" stroke="#666666" points="692.5,-61.5 551.5,-61.5 551.5,-31.5 692.5,-31.5 692.5,-61.5"/>
<text text-anchor="start" x="559.5" y="-49.5" font-family="Helvetica,sans-Serif" font-size="10.00">wmtk::attribute::Attribute</text>
<text text-anchor="middle" x="622" y="-38.5" font-family="Helvetica,sans-Serif" font-size="10.00">Manager::set_capacities</text>
</a>
</g>
</g>
<!-- Node14&#45;&gt;Node15 -->
<g id="edge15_Node000014_Node000015" class="edge">
<title>Node14&#45;&gt;Node15</title>
<g id="a_edge15_Node000014_Node000015"><a xlink:title=" ">
<path fill="none" stroke="#63b8ff" d="M507.54,-46.5C518.63,-46.5 530.08,-46.5 541.25,-46.5"/>
<polygon fill="#63b8ff" stroke="#63b8ff" points="541.42,-50 551.42,-46.5 541.42,-43 541.42,-50"/>
</a>
</g>
</g>
<!-- Node16 -->
<g id="Node000016" class="node">
<title>Node16</title>
<g id="a_Node000016"><a xlink:href="classwmtk_1_1attribute_1_1_attribute_manager.html#a4fa415bb426f10d888dd765bf11f3163" target="_top" xlink:title=" ">
<polygon fill="white" stroke="#666666" points="916,-61.5 731,-61.5 731,-31.5 916,-31.5 916,-61.5"/>
<text text-anchor="start" x="739" y="-49.5" font-family="Helvetica,sans-Serif" font-size="10.00">wmtk::attribute::Attribute</text>
<text text-anchor="middle" x="823.5" y="-38.5" font-family="Helvetica,sans-Serif" font-size="10.00">Manager::reserve_attributes_to_fit</text>
</a>
</g>
</g>
<!-- Node15&#45;&gt;Node16 -->
<g id="edge16_Node000015_Node000016" class="edge">
<title>Node15&#45;&gt;Node16</title>
<g id="a_edge16_Node000015_Node000016"><a xlink:title=" ">
<path fill="none" stroke="#63b8ff" d="M692.78,-46.5C701.77,-46.5 711.12,-46.5 720.5,-46.5"/>
<polygon fill="#63b8ff" stroke="#63b8ff" points="720.67,-50 730.67,-46.5 720.67,-43 720.67,-50"/>
</a>
</g>
</g>
<!-- Node17 -->
<g id="Node000017" class="node">
<title>Node17</title>
<g id="a_Node000017"><a xlink:href="classwmtk_1_1attribute_1_1_attribute_manager.html#ade4ad24f8fde18f38a4709bf24ccf549" target="_top" xlink:title=" ">
<polygon fill="white" stroke="#666666" points="1107,-85.5 952,-85.5 952,-55.5 1107,-55.5 1107,-85.5"/>
<text text-anchor="start" x="960" y="-73.5" font-family="Helvetica,sans-Serif" font-size="10.00">wmtk::attribute::Attribute</text>
<text text-anchor="middle" x="1029.5" y="-62.5" font-family="Helvetica,sans-Serif" font-size="10.00">Manager::reserve_attributes</text>
</a>
</g>
</g>
<!-- Node16&#45;&gt;Node17 -->
<g id="edge17_Node000016_Node000017" class="edge">
<title>Node16&#45;&gt;Node17</title>
<g id="a_edge17_Node000016_Node000017"><a xlink:title=" ">
<path fill="none" stroke="#63b8ff" d="M916.06,-57.27C924.66,-58.28 933.36,-59.31 941.92,-60.31"/>
<polygon fill="#63b8ff" stroke="#63b8ff" points="941.54,-63.79 951.88,-61.49 942.36,-56.84 941.54,-63.79"/>
</a>
</g>
</g>
<!-- Node18 -->
<g id="Node000018" class="node">
<title>Node18</title>
<g id="a_Node000018"><a xlink:href="classwmtk_1_1attribute_1_1_attribute_manager.html#a87216c73c02b436c7f965faa52553f56" target="_top" xlink:title=" ">
<polygon fill="white" stroke="#666666" points="1100,-37.5 959,-37.5 959,-7.5 1100,-7.5 1100,-37.5"/>
<text text-anchor="start" x="967" y="-25.5" font-family="Helvetica,sans-Serif" font-size="10.00">wmtk::attribute::Attribute</text>
<text text-anchor="middle" x="1029.5" y="-14.5" font-family="Helvetica,sans-Serif" font-size="10.00">Manager::size</text>
</a>
</g>
</g>
<!-- Node16&#45;&gt;Node18 -->
<g id="edge18_Node000016_Node000018" class="edge">
<title>Node16&#45;&gt;Node18</title>
<g id="a_edge18_Node000016_Node000018"><a xlink:title=" ">
<path fill="none" stroke="#63b8ff" d="M916.06,-35.73C926.97,-34.44 938.05,-33.14 948.78,-31.88"/>
<polygon fill="#63b8ff" stroke="#63b8ff" points="949.43,-35.33 958.95,-30.68 948.61,-28.37 949.43,-35.33"/>
</a>
</g>
</g>
</g>
</svg>

<g id="navigator" transform="translate(0 0)" fill="#404254">
  <rect fill="#f2f5e9" fill-opacity="0.5" stroke="#606060" stroke-width=".5" x="0" y="0" width="60" height="60"/>
  <use id="zoomplus" xlink:href="#zoomPlus" x="17" y="9" onmousedown="handleZoom(evt,'in')"/>
  <use id="zoomminus" xlink:href="#zoomMin" x="42" y="9" onmousedown="handleZoom(evt,'out')"/>
  <use id="reset" xlink:href="#resetDef" x="30" y="36" onmousedown="handleReset()"/>
   <use id="arrowup" xlink:href="#arrowUp" x="0" y="0" onmousedown="handlePan(0,-1)"/>
  <use id="arrowright" xlink:href="#arrowRight" x="0" y="0" onmousedown="handlePan(1,0)"/>
  <use id="arrowdown" xlink:href="#arrowDown" x="0" y="0" onmousedown="handlePan(0,1)"/>
  <use id="arrowleft" xlink:href="#arrowLeft" x="0" y="0" onmousedown="handlePan(-1,0)"/>
</g>
<svg viewBox="0 0 15 15" width="100%" height="30px" preserveAspectRatio="xMaxYMin meet">
 <g id="arrow_out" transform="scale(0.3 0.3)">
  <a xlink:href="classwmtk_1_1_tet_mesh_a679a3ffd1a5375f69e9279e48ddbbb8b_cgraph_org.svg" target="_base">
   <rect id="button" ry="5" rx="5" y="6" x="6" height="38" width="38"
        fill="#f2f5e9" fill-opacity="0.5" stroke="#606060" stroke-width="1.0"/>
   <path id="arrow"
     d="M 11.500037,31.436501 C 11.940474,20.09759 22.043105,11.32322 32.158766,21.979434 L 37.068811,17.246167 C 37.068811,17.246167 37.088388,32 37.088388,32 L 22.160133,31.978069 C 22.160133,31.978069 26.997745,27.140456 26.997745,27.140456 C 18.528582,18.264221 13.291696,25.230495 11.500037,31.436501 z"
     style="fill:#404040;"/>
  </a>
 </g>
</svg>

<style type='text/css'>
<![CDATA[
[data-mouse-over-selected='false'] { opacity: 0.7; }
[data-mouse-over-selected='true']  { opacity: 1.0; }
]]>
</style>
<script type="application/ecmascript"><![CDATA[
document.addEventListener('DOMContentLoaded', (event) => {
  highlightEdges();
  highlightAdjacentNodes();
});
]]></script>
</svg>
