<?xml version="1.0" encoding="UTF-8" standalone="no"?>
<!DOCTYPE svg PUBLIC "-//W3C//DTD SVG 1.1//EN"
 "http://www.w3.org/Graphics/SVG/1.1/DTD/svg11.dtd">
<!-- Generated by graphviz version 2.43.0 (0)
 -->
<!-- Title: wmtk::components::internal::MultiMeshFromTag::is_root_simplex_manifold Pages: 1 -->
<!--zoomable 342 -->

<svg id="main" version="1.1" xmlns="http://www.w3.org/2000/svg" xmlns:xlink="http://www.w3.org/1999/xlink" xml:space="preserve" onload="init(evt)">
<style type="text/css"><![CDATA[
.node, .edge {opacity: 0.7;}
.node.selected, .edge.selected {opacity: 1;}
.edge:hover path { stroke: red; }
.edge:hover polygon { stroke: red; fill: red; }
]]></style>

<defs>
  <circle id="rim" cx="0" cy="0" r="7"/>
  <circle id="rim2" cx="0" cy="0" r="3.5"/>
  <g id="zoomPlus">
    <use xlink:href="#rim" fill="#404040"><set attributeName="fill" to="#808080" begin="zoomplus.mouseover" end="zoomplus.mouseout"/></use>
    <path d="M-4,0h8M0,-4v8" fill="none" stroke="white" stroke-width="1.5" pointer-events="none"/>
  </g>
  <g id="zoomMin">
    <use xlink:href="#rim" fill="#404040"><set attributeName="fill" to="#808080" begin="zoomminus.mouseover" end="zoomminus.mouseout"/></use>
    <path d="M-4,0h8" fill="none" stroke="white" stroke-width="1.5" pointer-events="none"/>
  </g>
  <g id="arrowUp" transform="translate(30 24)">
    <use xlink:href="#rim"/>
    <path pointer-events="none" fill="none" stroke="white" stroke-width="1.5" d="M0,-3.0v7 M-2.5,-0.5L0,-3.0L2.5,-0.5"/>
  </g>
  <g id="arrowRight" transform="rotate(90) translate(36 -43)">
    <use xlink:href="#rim"/>
    <path pointer-events="none" fill="none" stroke="white" stroke-width="1.5" d="M0,-3.0v7 M-2.5,-0.5L0,-3.0L2.5,-0.5"/>
  </g>
  <g id="arrowDown" transform="rotate(180) translate(-30 -48)">
    <use xlink:href="#rim"/>
    <path pointer-events="none" fill="none" stroke="white" stroke-width="1.5" d="M0,-3.0v7 M-2.5,-0.5L0,-3.0L2.5,-0.5"/>
  </g>
  <g id="arrowLeft" transform="rotate(270) translate(-36 17)">
    <use xlink:href="#rim"/>
    <path pointer-events="none" fill="none" stroke="white" stroke-width="1.5" d="M0,-3.0v7 M-2.5,-0.5L0,-3.0L2.5,-0.5"/>
  </g>
  <g id="resetDef">
    <use xlink:href="#rim2" fill="#404040"><set attributeName="fill" to="#808080" begin="reset.mouseover" end="reset.mouseout"/></use>
  </g>
</defs>
<script type="application/ecmascript">
var viewWidth = 1115;
var viewHeight = 342;
var sectionId = 'dynsection-14';
</script>
<script type="application/ecmascript" xlink:href="svg.min.js"/>
<svg id="graph" class="graph">
<g id="viewport">
<title>wmtk::components::internal::MultiMeshFromTag::is_root_simplex_manifold</title>
<!-- Node1 -->
<g id="Node000001" class="node">
<title>Node1</title>
<g id="a_Node000001"><a xlink:title=" ">
<polygon fill="#999999" stroke="#666666" points="154,-241 0,-241 0,-200 154,-200 154,-241"/>
<text text-anchor="start" x="8" y="-229" font-family="Helvetica,sans-Serif" font-size="10.00">wmtk::components::internal</text>
<text text-anchor="start" x="8" y="-218" font-family="Helvetica,sans-Serif" font-size="10.00">::MultiMeshFromTag::is_root</text>
<text text-anchor="middle" x="77" y="-207" font-family="Helvetica,sans-Serif" font-size="10.00">_simplex_manifold</text>
</a>
</g>
</g>
<!-- Node2 -->
<g id="Node000002" class="node">
<title>Node2</title>
<g id="a_Node000002"><a xlink:href="classwmtk_1_1_mesh.html#ae608f09c361bbc3ccda3b4e02cc28940" target="_top" xlink:title="optimized map fromsimplex from this mesh to one of its direct children">
<polygon fill="white" stroke="#666666" points="309,-235.5 190,-235.5 190,-205.5 309,-205.5 309,-235.5"/>
<text text-anchor="start" x="198" y="-223.5" font-family="Helvetica,sans-Serif" font-size="10.00">wmtk::Mesh::map_to</text>
<text text-anchor="middle" x="249.5" y="-212.5" font-family="Helvetica,sans-Serif" font-size="10.00">_child</text>
</a>
</g>
</g>
<!-- Node1&#45;&gt;Node2 -->
<g id="edge1_Node000001_Node000002" class="edge">
<title>Node1&#45;&gt;Node2</title>
<g id="a_edge1_Node000001_Node000002"><a xlink:title=" ">
<path fill="none" stroke="#63b8ff" d="M154.27,-220.5C162.78,-220.5 171.41,-220.5 179.82,-220.5"/>
<polygon fill="#63b8ff" stroke="#63b8ff" points="179.94,-224 189.94,-220.5 179.94,-217 179.94,-224"/>
</a>
</g>
</g>
<!-- Node3 -->
<g id="Node000003" class="node">
<title>Node3</title>
<g id="a_Node000003"><a xlink:href="classwmtk_1_1_mesh.html#ad054c074d4776010002321117ec459e8" target="_top" xlink:title=" ">
<polygon fill="white" stroke="#666666" points="506,-305.5 345,-305.5 345,-275.5 506,-275.5 506,-305.5"/>
<text text-anchor="start" x="353" y="-293.5" font-family="Helvetica,sans-Serif" font-size="10.00">wmtk::Mesh::is_from</text>
<text text-anchor="middle" x="425.5" y="-282.5" font-family="Helvetica,sans-Serif" font-size="10.00">_same_multi_mesh_structure</text>
</a>
</g>
</g>
<!-- Node2&#45;&gt;Node3 -->
<g id="edge2_Node000002_Node000003" class="edge">
<title>Node2&#45;&gt;Node3</title>
<g id="a_edge2_Node000002_Node000003"><a xlink:title=" ">
<path fill="none" stroke="#63b8ff" d="M287.83,-235.52C314,-246.05 349.19,-260.2 377.31,-271.52"/>
<polygon fill="#63b8ff" stroke="#63b8ff" points="376.35,-274.9 386.93,-275.39 378.96,-268.41 376.35,-274.9"/>
</a>
</g>
</g>
<!-- Node7 -->
<g id="Node000007" class="node">
<title>Node7</title>
<g id="a_Node000007"><a xlink:href="classwmtk_1_1_mesh.html#a8cc8686f0688613806f43720b6db49e7" target="_top" xlink:title="check validity of tuple including its hash">
<polygon fill="white" stroke="#666666" points="485.5,-230 365.5,-230 365.5,-211 485.5,-211 485.5,-230"/>
<text text-anchor="middle" x="425.5" y="-218" font-family="Helvetica,sans-Serif" font-size="10.00">wmtk::Mesh::is_valid</text>
</a>
</g>
</g>
<!-- Node2&#45;&gt;Node7 -->
<g id="edge7_Node000002_Node000007" class="edge">
<title>Node2&#45;&gt;Node7</title>
<g id="a_edge7_Node000002_Node000007"><a xlink:title=" ">
<path fill="none" stroke="#63b8ff" d="M309.41,-220.5C324.07,-220.5 339.92,-220.5 355.03,-220.5"/>
<polygon fill="#63b8ff" stroke="#63b8ff" points="355.36,-224 365.36,-220.5 355.36,-217 355.36,-224"/>
</a>
</g>
</g>
<!-- Node13 -->
<g id="Node000013" class="node">
<title>Node13</title>
<g id="a_Node000013"><a xlink:href="classwmtk_1_1multimesh_1_1_multi_mesh_manager.html#ae79d884089139ad2962aef5f496dbc8c" target="_top" xlink:title="optimized map fromsimplex from this mesh to one of its direct children">
<polygon fill="white" stroke="#666666" points="505.5,-113.5 345.5,-113.5 345.5,-83.5 505.5,-83.5 505.5,-113.5"/>
<text text-anchor="start" x="353.5" y="-101.5" font-family="Helvetica,sans-Serif" font-size="10.00">wmtk::multimesh::MultiMesh</text>
<text text-anchor="middle" x="425.5" y="-90.5" font-family="Helvetica,sans-Serif" font-size="10.00">Manager::map_to_child</text>
</a>
</g>
</g>
<!-- Node2&#45;&gt;Node13 -->
<g id="edge14_Node000002_Node000013" class="edge">
<title>Node2&#45;&gt;Node13</title>
<g id="a_edge14_Node000002_Node000013"><a xlink:title=" ">
<path fill="none" stroke="#63b8ff" d="M272.19,-205.3C303.09,-183.63 359.91,-143.79 394.74,-119.37"/>
<polygon fill="#63b8ff" stroke="#63b8ff" points="396.91,-122.12 403.09,-113.51 392.89,-116.39 396.91,-122.12"/>
</a>
</g>
</g>
<!-- Node4 -->
<g id="Node000004" class="node">
<title>Node4</title>
<g id="a_Node000004"><a xlink:href="classwmtk_1_1_mesh.html#aac3ec1ebbe00982ddfe70cc710d8f54e" target="_top" xlink:title="returns a reference to the root of a multimesh tree">
<polygon fill="white" stroke="#666666" points="693,-333.5 564,-333.5 564,-303.5 693,-303.5 693,-333.5"/>
<text text-anchor="start" x="572" y="-321.5" font-family="Helvetica,sans-Serif" font-size="10.00">wmtk::Mesh::get_multi</text>
<text text-anchor="middle" x="628.5" y="-310.5" font-family="Helvetica,sans-Serif" font-size="10.00">_mesh_root</text>
</a>
</g>
</g>
<!-- Node3&#45;&gt;Node4 -->
<g id="edge3_Node000003_Node000004" class="edge">
<title>Node3&#45;&gt;Node4</title>
<g id="a_edge3_Node000003_Node000004"><a xlink:title=" ">
<path fill="none" stroke="#63b8ff" d="M506.23,-301.61C521.96,-303.8 538.41,-306.09 553.93,-308.25"/>
<polygon fill="#63b8ff" stroke="#63b8ff" points="553.59,-311.74 563.98,-309.65 554.55,-304.8 553.59,-311.74"/>
</a>
</g>
</g>
<!-- Node5 -->
<g id="Node000005" class="node">
<title>Node5</title>
<g id="a_Node000005"><a xlink:href="classwmtk_1_1multimesh_1_1_multi_mesh_manager.html#a434e74f6b295055a45914d41a784124a" target="_top" xlink:title=" ">
<polygon fill="white" stroke="#666666" points="911,-305.5 751,-305.5 751,-275.5 911,-275.5 911,-305.5"/>
<text text-anchor="start" x="759" y="-293.5" font-family="Helvetica,sans-Serif" font-size="10.00">wmtk::multimesh::MultiMesh</text>
<text text-anchor="middle" x="831" y="-282.5" font-family="Helvetica,sans-Serif" font-size="10.00">Manager::get_root_mesh</text>
</a>
</g>
</g>
<!-- Node4&#45;&gt;Node5 -->
<g id="edge4_Node000004_Node000005" class="edge">
<title>Node4&#45;&gt;Node5</title>
<g id="a_edge4_Node000004_Node000005"><a xlink:title=" ">
<path fill="none" stroke="#63b8ff" d="M693.21,-309.6C708.41,-307.48 724.9,-305.18 741,-302.93"/>
<polygon fill="#63b8ff" stroke="#63b8ff" points="741.54,-306.39 750.95,-301.54 740.57,-299.46 741.54,-306.39"/>
</a>
</g>
</g>
<!-- Node5&#45;&gt;Node5 -->
<g id="edge5_Node000005_Node000005" class="edge">
<title>Node5&#45;&gt;Node5</title>
<g id="a_edge5_Node000005_Node000005"><a xlink:title=" ">
<path fill="none" stroke="#63b8ff" d="M796.55,-305.78C788.89,-314.91 800.38,-323.5 831,-323.5 849.18,-323.5 860.62,-320.47 865.31,-316.1"/>
<polygon fill="#63b8ff" stroke="#63b8ff" points="868.81,-315.82 865.45,-305.78 861.81,-315.72 868.81,-315.82"/>
</a>
</g>
</g>
<!-- Node6 -->
<g id="Node000006" class="node">
<title>Node6</title>
<g id="a_Node000006"><a xlink:href="classwmtk_1_1multimesh_1_1_multi_mesh_manager.html#a7d39339adb56b1798fe817d81bfcc67c" target="_top" xlink:title="Specifies whether this structure is the root of a multi&#45;mesh tree.">
<polygon fill="white" stroke="#666666" points="1107,-207.5 947,-207.5 947,-177.5 1107,-177.5 1107,-207.5"/>
<text text-anchor="start" x="955" y="-195.5" font-family="Helvetica,sans-Serif" font-size="10.00">wmtk::multimesh::MultiMesh</text>
<text text-anchor="middle" x="1027" y="-184.5" font-family="Helvetica,sans-Serif" font-size="10.00">Manager::is_root</text>
</a>
</g>
</g>
<!-- Node5&#45;&gt;Node6 -->
<g id="edge6_Node000005_Node000006" class="edge">
<title>Node5&#45;&gt;Node6</title>
<g id="a_edge6_Node000005_Node000006"><a xlink:title=" ">
<path fill="none" stroke="#63b8ff" d="M861.89,-275.4C895.5,-258.43 950.19,-230.8 987.1,-212.15"/>
<polygon fill="#63b8ff" stroke="#63b8ff" points="988.73,-215.25 996.08,-207.61 985.57,-209 988.73,-215.25"/>
</a>
</g>
</g>
<!-- Node8 -->
<g id="Node000008" class="node">
<title>Node8</title>
<g id="a_Node000008"><a xlink:href="classwmtk_1_1_tuple.html#a0023f575be92cd5ceeeaaaa3762ea06d" target="_top" xlink:title="Checks if a tuple is &quot;null&quot;. This merely implies the global index is &#45;1.">
<polygon fill="white" stroke="#666666" points="685,-285 572,-285 572,-266 685,-266 685,-285"/>
<text text-anchor="middle" x="628.5" y="-273" font-family="Helvetica,sans-Serif" font-size="10.00">wmtk::Tuple::is_null</text>
</a>
</g>
</g>
<!-- Node7&#45;&gt;Node8 -->
<g id="edge8_Node000007_Node000008" class="edge">
<title>Node7&#45;&gt;Node8</title>
<g id="a_edge8_Node000007_Node000008"><a xlink:title=" ">
<path fill="none" stroke="#63b8ff" d="M453.8,-230.12C477.06,-238.1 511.47,-249.42 542,-257.5 550.42,-259.73 559.36,-261.86 568.16,-263.83"/>
<polygon fill="#63b8ff" stroke="#63b8ff" points="567.5,-267.27 578.02,-265.98 568.99,-260.43 567.5,-267.27"/>
</a>
</g>
</g>
<!-- Node9 -->
<g id="Node000009" class="node">
<title>Node9</title>
<g id="a_Node000009"><a xlink:href="classwmtk_1_1_mesh.html#ade176d345902d97af8c5da04aa3a095b" target="_top" xlink:title=" ">
<polygon fill="white" stroke="#666666" points="698.5,-230 558.5,-230 558.5,-211 698.5,-211 698.5,-230"/>
<text text-anchor="middle" x="628.5" y="-218" font-family="Helvetica,sans-Serif" font-size="10.00">wmtk::Mesh::is_removed</text>
</a>
</g>
</g>
<!-- Node7&#45;&gt;Node9 -->
<g id="edge9_Node000007_Node000009" class="edge">
<title>Node7&#45;&gt;Node9</title>
<g id="a_edge9_Node000007_Node000009"><a xlink:title=" ">
<path fill="none" stroke="#63b8ff" d="M485.72,-220.5C505.32,-220.5 527.47,-220.5 548.32,-220.5"/>
<polygon fill="#63b8ff" stroke="#63b8ff" points="548.44,-224 558.44,-220.5 548.44,-217 548.44,-224"/>
</a>
</g>
</g>
<!-- Node11 -->
<g id="Node000011" class="node">
<title>Node11</title>
<g id="a_Node000011"><a xlink:href="namespacewmtk.html#a6a35f11c12436093d26fdd8be6fecc06" target="_top" xlink:title="Retrieves the current logger.">
<polygon fill="white" stroke="#666666" points="669,-193 588,-193 588,-174 669,-174 669,-193"/>
<text text-anchor="middle" x="628.5" y="-181" font-family="Helvetica,sans-Serif" font-size="10.00">wmtk::logger</text>
</a>
</g>
</g>
<!-- Node7&#45;&gt;Node11 -->
<g id="edge12_Node000007_Node000011" class="edge">
<title>Node7&#45;&gt;Node11</title>
<g id="a_edge12_Node000007_Node000011"><a xlink:title=" ">
<path fill="none" stroke="#63b8ff" d="M478.26,-210.97C508.99,-205.32 547.73,-198.18 578.04,-192.6"/>
<polygon fill="#63b8ff" stroke="#63b8ff" points="578.77,-196.03 587.97,-190.78 577.5,-189.14 578.77,-196.03"/>
</a>
</g>
</g>
<!-- Node9&#45;&gt;Node9 -->
<g id="edge11_Node000009_Node000009" class="edge">
<title>Node9&#45;&gt;Node9</title>
<g id="a_edge11_Node000009_Node000009"><a xlink:title=" ">
<path fill="none" stroke="#63b8ff" d="M597.37,-230.08C582.22,-238.73 592.6,-248 628.5,-248 653.74,-248 666.37,-243.42 666.37,-237.69"/>
<polygon fill="#63b8ff" stroke="#63b8ff" points="668.89,-235.25 659.63,-230.08 663.65,-239.89 668.89,-235.25"/>
</a>
</g>
</g>
<!-- Node10 -->
<g id="Node000010" class="node">
<title>Node10</title>
<g id="a_Node000010"><a xlink:href="classwmtk_1_1_tuple.html#aef64a43ff5f5617dbc99d865356bbc25" target="_top" xlink:title=" ">
<polygon fill="white" stroke="#666666" points="896.5,-230 765.5,-230 765.5,-211 896.5,-211 896.5,-230"/>
<text text-anchor="middle" x="831" y="-218" font-family="Helvetica,sans-Serif" font-size="10.00">wmtk::Tuple::global_cid</text>
</a>
</g>
</g>
<!-- Node9&#45;&gt;Node10 -->
<g id="edge10_Node000009_Node000010" class="edge">
<title>Node9&#45;&gt;Node10</title>
<g id="a_edge10_Node000009_Node000010"><a xlink:title=" ">
<path fill="none" stroke="#63b8ff" d="M698.5,-220.5C716.76,-220.5 736.55,-220.5 755.1,-220.5"/>
<polygon fill="#63b8ff" stroke="#63b8ff" points="755.26,-224 765.26,-220.5 755.26,-217 755.26,-224"/>
</a>
</g>
</g>
<!-- Node12 -->
<g id="Node000012" class="node">
<title>Node12</title>
<g id="a_Node000012"><a xlink:href="namespacewmtk.html#a3daa7951a5f8b78cf4600dc047fcc180" target="_top" xlink:title="Setup a logger object to be used by WildmeshToolkit.">
<polygon fill="white" stroke="#666666" points="881.5,-193 780.5,-193 780.5,-174 881.5,-174 881.5,-193"/>
<text text-anchor="middle" x="831" y="-181" font-family="Helvetica,sans-Serif" font-size="10.00">wmtk::set_logger</text>
</a>
</g>
</g>
<!-- Node11&#45;&gt;Node12 -->
<g id="edge13_Node000011_Node000012" class="edge">
<title>Node11&#45;&gt;Node12</title>
<g id="a_edge13_Node000011_Node000012"><a xlink:title=" ">
<path fill="none" stroke="#63b8ff" d="M669.11,-183.5C697.84,-183.5 737.22,-183.5 769.82,-183.5"/>
<polygon fill="#63b8ff" stroke="#63b8ff" points="770.15,-187 780.15,-183.5 770.15,-180 770.15,-187"/>
</a>
</g>
</g>
<!-- Node14 -->
<g id="Node000014" class="node">
<title>Node14</title>
<g id="a_Node000014"><a xlink:href="classwmtk_1_1multimesh_1_1_multi_mesh_manager.html#ae0a6966669a330ff022fb795818c90f3" target="_top" xlink:title=" ">
<polygon fill="white" stroke="#666666" points="711.5,-137.5 545.5,-137.5 545.5,-107.5 711.5,-107.5 711.5,-137.5"/>
<text text-anchor="start" x="553.5" y="-125.5" font-family="Helvetica,sans-Serif" font-size="10.00">wmtk::multimesh::MultiMesh</text>
<text text-anchor="middle" x="628.5" y="-114.5" font-family="Helvetica,sans-Serif" font-size="10.00">Manager::map_to_child_tuples</text>
</a>
</g>
</g>
<!-- Node13&#45;&gt;Node14 -->
<g id="edge15_Node000013_Node000014" class="edge">
<title>Node13&#45;&gt;Node14</title>
<g id="a_edge15_Node000013_Node000014"><a xlink:title=" ">
<path fill="none" stroke="#63b8ff" d="M505.65,-107.95C515.35,-109.11 525.34,-110.3 535.21,-111.48"/>
<polygon fill="#63b8ff" stroke="#63b8ff" points="535.1,-114.99 545.45,-112.7 535.93,-108.04 535.1,-114.99"/>
</a>
</g>
</g>
<!-- Node16 -->
<g id="Node000016" class="node">
<title>Node16</title>
<g id="a_Node000016"><a xlink:href="classwmtk_1_1simplex_1_1_simplex.html#ad2cc0340a0772b7d6f03ba7a781d1163" target="_top" xlink:title=" ">
<polygon fill="white" stroke="#666666" points="696,-89.5 561,-89.5 561,-59.5 696,-59.5 696,-89.5"/>
<text text-anchor="start" x="569" y="-77.5" font-family="Helvetica,sans-Serif" font-size="10.00">wmtk::simplex::Simplex</text>
<text text-anchor="middle" x="628.5" y="-66.5" font-family="Helvetica,sans-Serif" font-size="10.00">::primitive_type</text>
</a>
</g>
</g>
<!-- Node13&#45;&gt;Node16 -->
<g id="edge19_Node000013_Node000016" class="edge">
<title>Node13&#45;&gt;Node16</title>
<g id="a_edge19_Node000013_Node000016"><a xlink:title=" ">
<path fill="none" stroke="#63b8ff" d="M505.65,-89.05C520.47,-87.28 535.94,-85.43 550.68,-83.67"/>
<polygon fill="#63b8ff" stroke="#63b8ff" points="551.24,-87.13 560.76,-82.47 550.41,-80.18 551.24,-87.13"/>
</a>
</g>
</g>
<!-- Node17 -->
<g id="Node000017" class="node">
<title>Node17</title>
<g id="a_Node000017"><a xlink:href="namespacewmtk_1_1simplex_1_1utils.html#abc97acf22bd5eb87df2b16ad3b372cfb" target="_top" xlink:title=" ">
<polygon fill="white" stroke="#666666" points="715,-41 542,-41 542,0 715,0 715,-41"/>
<text text-anchor="start" x="550" y="-29" font-family="Helvetica,sans-Serif" font-size="10.00">wmtk::simplex::utils</text>
<text text-anchor="start" x="550" y="-18" font-family="Helvetica,sans-Serif" font-size="10.00">::tuple_vector_to_homogeneous</text>
<text text-anchor="middle" x="628.5" y="-7" font-family="Helvetica,sans-Serif" font-size="10.00">_simplex_vector</text>
</a>
</g>
</g>
<!-- Node13&#45;&gt;Node17 -->
<g id="edge20_Node000013_Node000017" class="edge">
<title>Node13&#45;&gt;Node17</title>
<g id="a_edge20_Node000013_Node000017"><a xlink:title=" ">
<path fill="none" stroke="#63b8ff" d="M461.17,-83.49C484,-73.76 514.62,-60.98 542,-50.5 547.14,-48.53 552.48,-46.54 557.85,-44.57"/>
<polygon fill="#63b8ff" stroke="#63b8ff" points="559.34,-47.75 567.55,-41.05 556.95,-41.17 559.34,-47.75"/>
</a>
</g>
</g>
<!-- Node14&#45;&gt;Node14 -->
<g id="edge18_Node000014_Node000014" class="edge">
<title>Node14&#45;&gt;Node14</title>
<g id="a_edge18_Node000014_Node000014"><a xlink:title=" ">
<path fill="none" stroke="#63b8ff" d="M592.99,-137.78C585.1,-146.91 596.94,-155.5 628.5,-155.5 647.24,-155.5 659.03,-152.47 663.86,-148.1"/>
<polygon fill="#63b8ff" stroke="#63b8ff" points="667.36,-147.83 664.01,-137.78 660.36,-147.72 667.36,-147.83"/>
</a>
</g>
</g>
<!-- Node15 -->
<g id="Node000015" class="node">
<title>Node15</title>
<g id="a_Node000015"><a xlink:href="classwmtk_1_1multimesh_1_1_multi_mesh_manager.html#a0fdf5c6dbc3b4d5254526fc7e29e3bbd" target="_top" xlink:title="Specifies the child id of this mesh if it a child mesh in a mult&#45;mesh tree.">
<polygon fill="white" stroke="#666666" points="911,-146.5 751,-146.5 751,-116.5 911,-116.5 911,-146.5"/>
<text text-anchor="start" x="759" y="-134.5" font-family="Helvetica,sans-Serif" font-size="10.00">wmtk::multimesh::MultiMesh</text>
<text text-anchor="middle" x="831" y="-123.5" font-family="Helvetica,sans-Serif" font-size="10.00">Manager::child_id</text>
</a>
</g>
</g>
<!-- Node14&#45;&gt;Node15 -->
<g id="edge16_Node000014_Node000015" class="edge">
<title>Node14&#45;&gt;Node15</title>
<g id="a_edge16_Node000014_Node000015"><a xlink:title=" ">
<path fill="none" stroke="#63b8ff" d="M711.63,-126.19C721.26,-126.62 731.12,-127.06 740.85,-127.5"/>
<polygon fill="#63b8ff" stroke="#63b8ff" points="740.76,-131 750.91,-127.95 741.08,-124 740.76,-131"/>
</a>
</g>
</g>
<!-- Node15&#45;&gt;Node6 -->
<g id="edge17_Node000015_Node000006" class="edge">
<title>Node15&#45;&gt;Node6</title>
<g id="a_edge17_Node000015_Node000006"><a xlink:title=" ">
<path fill="none" stroke="#63b8ff" d="M879.96,-146.58C906.75,-155.01 940.33,-165.56 968.53,-174.43"/>
<polygon fill="#63b8ff" stroke="#63b8ff" points="967.67,-177.83 978.26,-177.49 969.77,-171.15 967.67,-177.83"/>
</a>
</g>
</g>
</g>
</svg>

<g id="navigator" transform="translate(0 0)" fill="#404254">
  <rect fill="#f2f5e9" fill-opacity="0.5" stroke="#606060" stroke-width=".5" x="0" y="0" width="60" height="60"/>
  <use id="zoomplus" xlink:href="#zoomPlus" x="17" y="9" onmousedown="handleZoom(evt,'in')"/>
  <use id="zoomminus" xlink:href="#zoomMin" x="42" y="9" onmousedown="handleZoom(evt,'out')"/>
  <use id="reset" xlink:href="#resetDef" x="30" y="36" onmousedown="handleReset()"/>
   <use id="arrowup" xlink:href="#arrowUp" x="0" y="0" onmousedown="handlePan(0,-1)"/>
  <use id="arrowright" xlink:href="#arrowRight" x="0" y="0" onmousedown="handlePan(1,0)"/>
  <use id="arrowdown" xlink:href="#arrowDown" x="0" y="0" onmousedown="handlePan(0,1)"/>
  <use id="arrowleft" xlink:href="#arrowLeft" x="0" y="0" onmousedown="handlePan(-1,0)"/>
</g>
<svg viewBox="0 0 15 15" width="100%" height="30px" preserveAspectRatio="xMaxYMin meet">
 <g id="arrow_out" transform="scale(0.3 0.3)">
  <a xlink:href="classwmtk_1_1components_1_1internal_1_1_multi_mesh_from_tag_a7396baf219485919ab557c6407162e73_cgraph_org.svg" target="_base">
   <rect id="button" ry="5" rx="5" y="6" x="6" height="38" width="38"
        fill="#f2f5e9" fill-opacity="0.5" stroke="#606060" stroke-width="1.0"/>
   <path id="arrow"
     d="M 11.500037,31.436501 C 11.940474,20.09759 22.043105,11.32322 32.158766,21.979434 L 37.068811,17.246167 C 37.068811,17.246167 37.088388,32 37.088388,32 L 22.160133,31.978069 C 22.160133,31.978069 26.997745,27.140456 26.997745,27.140456 C 18.528582,18.264221 13.291696,25.230495 11.500037,31.436501 z"
     style="fill:#404040;"/>
  </a>
 </g>
</svg>

<style type='text/css'>
<![CDATA[
[data-mouse-over-selected='false'] { opacity: 0.7; }
[data-mouse-over-selected='true']  { opacity: 1.0; }
]]>
</style>
<script type="application/ecmascript"><![CDATA[
document.addEventListener('DOMContentLoaded', (event) => {
  highlightEdges();
  highlightAdjacentNodes();
});
]]></script>
</svg>
