<?xml version="1.0" encoding="UTF-8" standalone="no"?>
<!DOCTYPE svg PUBLIC "-//W3C//DTD SVG 1.1//EN"
 "http://www.w3.org/Graphics/SVG/1.1/DTD/svg11.dtd">
<!-- Generated by graphviz version 2.43.0 (0)
 -->
<!-- Title: wmtk::utils::internal::IndexSimplexMapper::get_internal_dart Pages: 1 -->
<!--zoomable 230 -->

<svg id="main" version="1.1" xmlns="http://www.w3.org/2000/svg" xmlns:xlink="http://www.w3.org/1999/xlink" xml:space="preserve" onload="init(evt)">
<style type="text/css"><![CDATA[
.node, .edge {opacity: 0.7;}
.node.selected, .edge.selected {opacity: 1;}
.edge:hover path { stroke: red; }
.edge:hover polygon { stroke: red; fill: red; }
]]></style>

<defs>
  <circle id="rim" cx="0" cy="0" r="7"/>
  <circle id="rim2" cx="0" cy="0" r="3.5"/>
  <g id="zoomPlus">
    <use xlink:href="#rim" fill="#404040"><set attributeName="fill" to="#808080" begin="zoomplus.mouseover" end="zoomplus.mouseout"/></use>
    <path d="M-4,0h8M0,-4v8" fill="none" stroke="white" stroke-width="1.5" pointer-events="none"/>
  </g>
  <g id="zoomMin">
    <use xlink:href="#rim" fill="#404040"><set attributeName="fill" to="#808080" begin="zoomminus.mouseover" end="zoomminus.mouseout"/></use>
    <path d="M-4,0h8" fill="none" stroke="white" stroke-width="1.5" pointer-events="none"/>
  </g>
  <g id="arrowUp" transform="translate(30 24)">
    <use xlink:href="#rim"/>
    <path pointer-events="none" fill="none" stroke="white" stroke-width="1.5" d="M0,-3.0v7 M-2.5,-0.5L0,-3.0L2.5,-0.5"/>
  </g>
  <g id="arrowRight" transform="rotate(90) translate(36 -43)">
    <use xlink:href="#rim"/>
    <path pointer-events="none" fill="none" stroke="white" stroke-width="1.5" d="M0,-3.0v7 M-2.5,-0.5L0,-3.0L2.5,-0.5"/>
  </g>
  <g id="arrowDown" transform="rotate(180) translate(-30 -48)">
    <use xlink:href="#rim"/>
    <path pointer-events="none" fill="none" stroke="white" stroke-width="1.5" d="M0,-3.0v7 M-2.5,-0.5L0,-3.0L2.5,-0.5"/>
  </g>
  <g id="arrowLeft" transform="rotate(270) translate(-36 17)">
    <use xlink:href="#rim"/>
    <path pointer-events="none" fill="none" stroke="white" stroke-width="1.5" d="M0,-3.0v7 M-2.5,-0.5L0,-3.0L2.5,-0.5"/>
  </g>
  <g id="resetDef">
    <use xlink:href="#rim2" fill="#404040"><set attributeName="fill" to="#808080" begin="reset.mouseover" end="reset.mouseout"/></use>
  </g>
</defs>
<script type="application/ecmascript">
var viewWidth = 753;
var viewHeight = 230;
var sectionId = 'dynsection-7';
</script>
<script type="application/ecmascript" xlink:href="svg.min.js"/>
<svg id="graph" class="graph">
<g id="viewport">
<title>wmtk::utils::internal::IndexSimplexMapper::get_internal_dart</title>
<!-- Node1 -->
<g id="Node000001" class="node">
<title>Node1</title>
<g id="a_Node000001"><a xlink:title=" ">
<polygon fill="#999999" stroke="#666666" points="126,-146.5 0,-146.5 0,-105.5 126,-105.5 126,-146.5"/>
<text text-anchor="start" x="8" y="-134.5" font-family="Helvetica,sans-Serif" font-size="10.00">wmtk::utils::internal</text>
<text text-anchor="start" x="8" y="-123.5" font-family="Helvetica,sans-Serif" font-size="10.00">::IndexSimplexMapper</text>
<text text-anchor="middle" x="63" y="-112.5" font-family="Helvetica,sans-Serif" font-size="10.00">::get_internal_dart</text>
</a>
</g>
</g>
<!-- Node2 -->
<g id="Node000002" class="node">
<title>Node2</title>
<g id="a_Node000002"><a xlink:href="namespacewmtk_1_1dart_1_1utils.html#a064f80c8852f8641a6051ad9d65c7b1e" target="_top" xlink:title=" ">
<polygon fill="white" stroke="#666666" points="304,-141 162,-141 162,-111 304,-111 304,-141"/>
<text text-anchor="start" x="170" y="-129" font-family="Helvetica,sans-Serif" font-size="10.00">wmtk::dart::utils::</text>
<text text-anchor="middle" x="233" y="-118" font-family="Helvetica,sans-Serif" font-size="10.00">from_vertex_permutation</text>
</a>
</g>
</g>
<!-- Node1&#45;&gt;Node2 -->
<g id="edge1_Node000001_Node000002" class="edge">
<title>Node1&#45;&gt;Node2</title>
<g id="a_edge1_Node000001_Node000002"><a xlink:title=" ">
<path fill="none" stroke="#63b8ff" d="M126.08,-126C134.48,-126 143.19,-126 151.85,-126"/>
<polygon fill="#63b8ff" stroke="#63b8ff" points="151.96,-129.5 161.96,-126 151.96,-122.5 151.96,-129.5"/>
</a>
</g>
</g>
<!-- Node7 -->
<g id="Node000007" class="node">
<title>Node7</title>
<g id="a_Node000007"><a xlink:href="namespacewmtk.html#a3b08a5d7fb42f02c54bae85758b39f59" target="_top" xlink:title="Get the primitive type corresponding to its unique integer id.">
<polygon fill="white" stroke="#666666" points="703.5,-222 587.5,-222 587.5,-192 703.5,-192 703.5,-222"/>
<text text-anchor="start" x="595.5" y="-210" font-family="Helvetica,sans-Serif" font-size="10.00">wmtk::get_primitive</text>
<text text-anchor="middle" x="645.5" y="-199" font-family="Helvetica,sans-Serif" font-size="10.00">_type_from_id</text>
</a>
</g>
</g>
<!-- Node1&#45;&gt;Node7 -->
<g id="edge10_Node000001_Node000007" class="edge">
<title>Node1&#45;&gt;Node7</title>
<g id="a_edge10_Node000001_Node000007"><a xlink:title=" ">
<path fill="none" stroke="#63b8ff" d="M126.06,-141.92C137.95,-144.77 150.33,-147.59 162,-150 240.57,-166.22 260.43,-169.78 340,-180 421.4,-190.45 515.57,-198.13 577.38,-202.57"/>
<polygon fill="#63b8ff" stroke="#63b8ff" points="577.17,-206.06 587.39,-203.28 577.67,-199.08 577.17,-206.06"/>
</a>
</g>
</g>
<!-- Node8 -->
<g id="Node000008" class="node">
<title>Node8</title>
<g id="a_Node000008"><a xlink:href="classwmtk_1_1dart_1_1_simplex_dart.html#a3949350f736cbf567bf566fd7565e6e8" target="_top" xlink:title=" ">
<polygon fill="white" stroke="#666666" points="493.5,-93 356.5,-93 356.5,-63 493.5,-63 493.5,-93"/>
<text text-anchor="start" x="364.5" y="-81" font-family="Helvetica,sans-Serif" font-size="10.00">wmtk::dart::SimplexDart</text>
<text text-anchor="middle" x="425" y="-70" font-family="Helvetica,sans-Serif" font-size="10.00">::get_singleton</text>
</a>
</g>
</g>
<!-- Node1&#45;&gt;Node8 -->
<g id="edge11_Node000001_Node000008" class="edge">
<title>Node1&#45;&gt;Node8</title>
<g id="a_edge11_Node000001_Node000008"><a xlink:title=" ">
<path fill="none" stroke="#63b8ff" d="M126.19,-109.3C138.01,-106.54 150.34,-103.95 162,-102 223.45,-91.72 293.8,-85.58 346.12,-82.09"/>
<polygon fill="#63b8ff" stroke="#63b8ff" points="346.58,-85.57 356.34,-81.43 346.13,-78.58 346.58,-85.57"/>
</a>
</g>
</g>
<!-- Node3 -->
<g id="Node000003" class="node">
<title>Node3</title>
<g id="a_Node000003"><a xlink:href="namespacewmtk_1_1dart_1_1utils.html#abde62c0a71389836c3c3284be845b64a" target="_top" xlink:title=" ">
<polygon fill="white" stroke="#666666" points="510,-141 340,-141 340,-111 510,-111 510,-141"/>
<text text-anchor="start" x="348" y="-129" font-family="Helvetica,sans-Serif" font-size="10.00">wmtk::dart::utils::</text>
<text text-anchor="middle" x="425" y="-118" font-family="Helvetica,sans-Serif" font-size="10.00">from_local_vertex_permutation</text>
</a>
</g>
</g>
<!-- Node2&#45;&gt;Node3 -->
<g id="edge2_Node000002_Node000003" class="edge">
<title>Node2&#45;&gt;Node3</title>
<g id="a_edge2_Node000002_Node000003"><a xlink:title=" ">
<path fill="none" stroke="#63b8ff" d="M304.21,-126C312.57,-126 321.2,-126 329.82,-126"/>
<polygon fill="#63b8ff" stroke="#63b8ff" points="329.93,-129.5 339.93,-126 329.93,-122.5 329.93,-129.5"/>
</a>
</g>
</g>
<!-- Node2&#45;&gt;Node7 -->
<g id="edge7_Node000002_Node000007" class="edge">
<title>Node2&#45;&gt;Node7</title>
<g id="a_edge7_Node000002_Node000007"><a xlink:title=" ">
<path fill="none" stroke="#63b8ff" d="M298.66,-141.05C312.29,-144.1 326.6,-147.23 340,-150 421.45,-166.84 515.61,-184.13 577.4,-195.19"/>
<polygon fill="#63b8ff" stroke="#63b8ff" points="576.95,-198.66 587.41,-196.97 578.18,-191.77 576.95,-198.66"/>
</a>
</g>
</g>
<!-- Node2&#45;&gt;Node8 -->
<g id="edge8_Node000002_Node000008" class="edge">
<title>Node2&#45;&gt;Node8</title>
<g id="a_edge8_Node000002_Node000008"><a xlink:title=" ">
<path fill="none" stroke="#63b8ff" d="M293.6,-110.94C313.05,-106.03 334.81,-100.53 354.9,-95.46"/>
<polygon fill="#63b8ff" stroke="#63b8ff" points="355.78,-98.85 364.62,-93 354.06,-92.06 355.78,-98.85"/>
</a>
</g>
</g>
<!-- Node4 -->
<g id="Node000004" class="node">
<title>Node4</title>
<g id="a_Node000004"><a xlink:href="namespacewmtk_1_1dart_1_1utils.html#a13cd76ed1efba55aad86ae9f8faee2dd" target="_top" xlink:title=" ">
<polygon fill="white" stroke="#666666" points="745,-126 546,-126 546,-96 745,-96 745,-126"/>
<text text-anchor="start" x="554" y="-114" font-family="Helvetica,sans-Serif" font-size="10.00">wmtk::dart::utils::</text>
<text text-anchor="middle" x="645.5" y="-103" font-family="Helvetica,sans-Serif" font-size="10.00">from_local_vertex_permutation&lt; 2 &gt;</text>
</a>
</g>
</g>
<!-- Node3&#45;&gt;Node4 -->
<g id="edge3_Node000003_Node000004" class="edge">
<title>Node3&#45;&gt;Node4</title>
<g id="a_edge3_Node000003_Node000004"><a xlink:title=" ">
<path fill="none" stroke="#63b8ff" d="M510.17,-120.22C518.55,-119.65 527.14,-119.06 535.72,-118.47"/>
<polygon fill="#63b8ff" stroke="#63b8ff" points="536.05,-121.95 545.79,-117.78 535.57,-114.97 536.05,-121.95"/>
</a>
</g>
</g>
<!-- Node5 -->
<g id="Node000005" class="node">
<title>Node5</title>
<g id="a_Node000005"><a xlink:href="namespacewmtk_1_1dart_1_1utils.html#aa40f35943640500fab606c0b20fd1049" target="_top" xlink:title=" ">
<polygon fill="white" stroke="#666666" points="745,-78 546,-78 546,-48 745,-48 745,-78"/>
<text text-anchor="start" x="554" y="-66" font-family="Helvetica,sans-Serif" font-size="10.00">wmtk::dart::utils::</text>
<text text-anchor="middle" x="645.5" y="-55" font-family="Helvetica,sans-Serif" font-size="10.00">from_local_vertex_permutation&lt; 3 &gt;</text>
</a>
</g>
</g>
<!-- Node3&#45;&gt;Node5 -->
<g id="edge4_Node000003_Node000005" class="edge">
<title>Node3&#45;&gt;Node5</title>
<g id="a_edge4_Node000003_Node000005"><a xlink:title=" ">
<path fill="none" stroke="#63b8ff" d="M482.31,-110.89C491.62,-108.11 501.12,-105.11 510,-102 526.36,-96.28 529.53,-92.4 546,-87 552.78,-84.78 559.89,-82.65 567.05,-80.66"/>
<polygon fill="#63b8ff" stroke="#63b8ff" points="568.08,-84 576.81,-78.01 566.25,-77.25 568.08,-84"/>
</a>
</g>
</g>
<!-- Node6 -->
<g id="Node000006" class="node">
<title>Node6</title>
<g id="a_Node000006"><a xlink:href="namespacewmtk_1_1dart_1_1utils.html#ad9d59c8cb5df3d18678f5cda2cf9f733" target="_top" xlink:title=" ">
<polygon fill="white" stroke="#666666" points="745,-174 546,-174 546,-144 745,-144 745,-174"/>
<text text-anchor="start" x="554" y="-162" font-family="Helvetica,sans-Serif" font-size="10.00">wmtk::dart::utils::</text>
<text text-anchor="middle" x="645.5" y="-151" font-family="Helvetica,sans-Serif" font-size="10.00">from_local_vertex_permutation&lt; 4 &gt;</text>
</a>
</g>
</g>
<!-- Node3&#45;&gt;Node6 -->
<g id="edge5_Node000003_Node000006" class="edge">
<title>Node3&#45;&gt;Node6</title>
<g id="a_edge5_Node000003_Node000006"><a xlink:title=" ">
<path fill="none" stroke="#63b8ff" d="M510.17,-138.71C518.55,-139.98 527.14,-141.27 535.72,-142.57"/>
<polygon fill="#63b8ff" stroke="#63b8ff" points="535.38,-146.06 545.79,-144.09 536.42,-139.14 535.38,-146.06"/>
</a>
</g>
</g>
<!-- Node3&#45;&gt;Node7 -->
<g id="edge6_Node000003_Node000007" class="edge">
<title>Node3&#45;&gt;Node7</title>
<g id="a_edge6_Node000003_Node000007"><a xlink:title=" ">
<path fill="none" stroke="#63b8ff" d="M478.23,-141.04C489.01,-144.97 500.1,-149.63 510,-155 527.82,-164.66 527.75,-174.18 546,-183 555.83,-187.75 566.68,-191.6 577.47,-194.72"/>
<polygon fill="#63b8ff" stroke="#63b8ff" points="576.77,-198.16 587.34,-197.38 578.6,-191.4 576.77,-198.16"/>
</a>
</g>
</g>
<!-- Node9 -->
<g id="Node000009" class="node">
<title>Node9</title>
<g id="a_Node000009"><a xlink:href="classwmtk_1_1dart_1_1_simplex_dart.html#a75defb2c9d167b36c7fc73cd7d5bba60" target="_top" xlink:title=" ">
<polygon fill="white" stroke="#666666" points="714,-30 577,-30 577,0 714,0 714,-30"/>
<text text-anchor="start" x="585" y="-18" font-family="Helvetica,sans-Serif" font-size="10.00">wmtk::dart::SimplexDart</text>
<text text-anchor="middle" x="645.5" y="-7" font-family="Helvetica,sans-Serif" font-size="10.00">::simplex_type</text>
</a>
</g>
</g>
<!-- Node8&#45;&gt;Node9 -->
<g id="edge9_Node000008_Node000009" class="edge">
<title>Node8&#45;&gt;Node9</title>
<g id="a_edge9_Node000008_Node000009"><a xlink:title=" ">
<path fill="none" stroke="#63b8ff" d="M469.64,-62.94C492.3,-55.35 520.5,-46.24 546,-39 553.7,-36.81 561.78,-34.65 569.86,-32.56"/>
<polygon fill="#63b8ff" stroke="#63b8ff" points="570.85,-35.92 579.68,-30.06 569.12,-29.13 570.85,-35.92"/>
</a>
</g>
</g>
</g>
</svg>

<g id="navigator" transform="translate(0 0)" fill="#404254">
  <rect fill="#f2f5e9" fill-opacity="0.5" stroke="#606060" stroke-width=".5" x="0" y="0" width="60" height="60"/>
  <use id="zoomplus" xlink:href="#zoomPlus" x="17" y="9" onmousedown="handleZoom(evt,'in')"/>
  <use id="zoomminus" xlink:href="#zoomMin" x="42" y="9" onmousedown="handleZoom(evt,'out')"/>
  <use id="reset" xlink:href="#resetDef" x="30" y="36" onmousedown="handleReset()"/>
   <use id="arrowup" xlink:href="#arrowUp" x="0" y="0" onmousedown="handlePan(0,-1)"/>
  <use id="arrowright" xlink:href="#arrowRight" x="0" y="0" onmousedown="handlePan(1,0)"/>
  <use id="arrowdown" xlink:href="#arrowDown" x="0" y="0" onmousedown="handlePan(0,1)"/>
  <use id="arrowleft" xlink:href="#arrowLeft" x="0" y="0" onmousedown="handlePan(-1,0)"/>
</g>
<svg viewBox="0 0 15 15" width="100%" height="30px" preserveAspectRatio="xMaxYMin meet">
 <g id="arrow_out" transform="scale(0.3 0.3)">
  <a xlink:href="classwmtk_1_1utils_1_1internal_1_1_index_simplex_mapper_a86c00eda9c2caddd7835725d37d63838_cgraph_org.svg" target="_base">
   <rect id="button" ry="5" rx="5" y="6" x="6" height="38" width="38"
        fill="#f2f5e9" fill-opacity="0.5" stroke="#606060" stroke-width="1.0"/>
   <path id="arrow"
     d="M 11.500037,31.436501 C 11.940474,20.09759 22.043105,11.32322 32.158766,21.979434 L 37.068811,17.246167 C 37.068811,17.246167 37.088388,32 37.088388,32 L 22.160133,31.978069 C 22.160133,31.978069 26.997745,27.140456 26.997745,27.140456 C 18.528582,18.264221 13.291696,25.230495 11.500037,31.436501 z"
     style="fill:#404040;"/>
  </a>
 </g>
</svg>

<style type='text/css'>
<![CDATA[
[data-mouse-over-selected='false'] { opacity: 0.7; }
[data-mouse-over-selected='true']  { opacity: 1.0; }
]]>
</style>
<script type="application/ecmascript"><![CDATA[
document.addEventListener('DOMContentLoaded', (event) => {
  highlightEdges();
  highlightAdjacentNodes();
});
]]></script>
</svg>
