<?xml version="1.0" encoding="UTF-8" standalone="no"?>
<!DOCTYPE svg PUBLIC "-//W3C//DTD SVG 1.1//EN"
 "http://www.w3.org/Graphics/SVG/1.1/DTD/svg11.dtd">
<!-- Generated by graphviz version 2.43.0 (0)
 -->
<!-- Title: wmtk::TetMesh::TetMeshOperationExecutor::split_edge Pages: 1 -->
<svg width="945pt" height="661pt"
 viewBox="0.00 0.00 945.00 661.00" xmlns="http://www.w3.org/2000/svg" xmlns:xlink="http://www.w3.org/1999/xlink">
<g id="graph0" class="graph" transform="scale(1 1) rotate(0) translate(4 657)">
<title>wmtk::TetMesh::TetMeshOperationExecutor::split_edge</title>
<!-- Node1 -->
<g id="Node000001" class="node">
<title>Node1</title>
<g id="a_Node000001"><a xlink:title="split edge v1&#45;v2">
<polygon fill="#999999" stroke="#666666" points="185,-461 0,-461 0,-431 185,-431 185,-461"/>
<text text-anchor="start" x="8" y="-449" font-family="Helvetica,sans-Serif" font-size="10.00">wmtk::TetMesh::TetMeshOperation</text>
<text text-anchor="middle" x="92.5" y="-438" font-family="Helvetica,sans-Serif" font-size="10.00">Executor::split_edge</text>
</a>
</g>
</g>
<!-- Node2 -->
<g id="Node000002" class="node">
<title>Node2</title>
<g id="a_Node000002"><a xlink:href="classwmtk_1_1simplex_1_1_simplex.html#a753a9245716f207b57cd92fcab5936e7" target="_top" xlink:title=" ">
<polygon fill="white" stroke="#666666" points="362.5,-605 227.5,-605 227.5,-575 362.5,-575 362.5,-605"/>
<text text-anchor="start" x="235.5" y="-593" font-family="Helvetica,sans-Serif" font-size="10.00">wmtk::simplex::Simplex</text>
<text text-anchor="middle" x="295" y="-582" font-family="Helvetica,sans-Serif" font-size="10.00">::edge</text>
</a>
</g>
</g>
<!-- Node1&#45;&gt;Node2 -->
<g id="edge1_Node000001_Node000002" class="edge">
<title>Node1&#45;&gt;Node2</title>
<g id="a_edge1_Node000001_Node000002"><a xlink:title=" ">
<path fill="none" stroke="#63b8ff" d="M105.65,-461.12C126.63,-486.31 172.14,-536.95 221,-566 223.81,-567.67 226.75,-569.24 229.77,-570.72"/>
<polygon fill="#63b8ff" stroke="#63b8ff" points="228.46,-573.96 239.02,-574.85 231.32,-567.57 228.46,-573.96"/>
</a>
</g>
</g>
<!-- Node4 -->
<g id="Node000004" class="node">
<title>Node4</title>
<g id="a_Node000004"><a xlink:href="classwmtk_1_1simplex_1_1_simplex.html#a2b9d969f3c7b1d746abc29d228f91328" target="_top" xlink:title=" ">
<polygon fill="white" stroke="#666666" points="362.5,-413 227.5,-413 227.5,-383 362.5,-383 362.5,-413"/>
<text text-anchor="start" x="235.5" y="-401" font-family="Helvetica,sans-Serif" font-size="10.00">wmtk::simplex::Simplex</text>
<text text-anchor="middle" x="295" y="-390" font-family="Helvetica,sans-Serif" font-size="10.00">::face</text>
</a>
</g>
</g>
<!-- Node1&#45;&gt;Node4 -->
<g id="edge3_Node000001_Node000004" class="edge">
<title>Node1&#45;&gt;Node4</title>
<g id="a_edge3_Node000001_Node000004"><a xlink:title=" ">
<path fill="none" stroke="#63b8ff" d="M156.39,-430.94C177.01,-426.01 200.09,-420.48 221.38,-415.39"/>
<polygon fill="#63b8ff" stroke="#63b8ff" points="222.42,-418.73 231.33,-413 220.79,-411.93 222.42,-418.73"/>
</a>
</g>
</g>
<!-- Node5 -->
<g id="Node000005" class="node">
<title>Node5</title>
<g id="a_Node000005"><a xlink:href="classwmtk_1_1utils_1_1_tuple_inspector.html#a3a04acf16e0eff80ade8e0fb8753ac1b" target="_top" xlink:title=" ">
<polygon fill="white" stroke="#666666" points="369,-557 221,-557 221,-527 369,-527 369,-557"/>
<text text-anchor="start" x="229" y="-545" font-family="Helvetica,sans-Serif" font-size="10.00">wmtk::utils::TupleInspector</text>
<text text-anchor="middle" x="295" y="-534" font-family="Helvetica,sans-Serif" font-size="10.00">::local_eid</text>
</a>
</g>
</g>
<!-- Node1&#45;&gt;Node5 -->
<g id="edge5_Node000001_Node000005" class="edge">
<title>Node1&#45;&gt;Node5</title>
<g id="a_edge5_Node000001_Node000005"><a xlink:title=" ">
<path fill="none" stroke="#63b8ff" d="M117.21,-461.26C142.28,-476.95 183.33,-501.36 221,-518 225.16,-519.84 229.51,-521.61 233.92,-523.31"/>
<polygon fill="#63b8ff" stroke="#63b8ff" points="233.04,-526.71 243.64,-526.89 235.46,-520.14 233.04,-526.71"/>
</a>
</g>
</g>
<!-- Node6 -->
<g id="Node000006" class="node">
<title>Node6</title>
<g id="a_Node000006"><a xlink:href="classwmtk_1_1utils_1_1_tuple_inspector.html#ae4f5c770f4a2f9440eef24448929432d" target="_top" xlink:title=" ">
<polygon fill="white" stroke="#666666" points="369,-509 221,-509 221,-479 369,-479 369,-509"/>
<text text-anchor="start" x="229" y="-497" font-family="Helvetica,sans-Serif" font-size="10.00">wmtk::utils::TupleInspector</text>
<text text-anchor="middle" x="295" y="-486" font-family="Helvetica,sans-Serif" font-size="10.00">::local_fid</text>
</a>
</g>
</g>
<!-- Node1&#45;&gt;Node6 -->
<g id="edge6_Node000001_Node000006" class="edge">
<title>Node1&#45;&gt;Node6</title>
<g id="a_edge6_Node000001_Node000006"><a xlink:title=" ">
<path fill="none" stroke="#63b8ff" d="M156.39,-461.06C177.01,-465.99 200.09,-471.52 221.38,-476.61"/>
<polygon fill="#63b8ff" stroke="#63b8ff" points="220.79,-480.07 231.33,-479 222.42,-473.27 220.79,-480.07"/>
</a>
</g>
</g>
<!-- Node7 -->
<g id="Node000007" class="node">
<title>Node7</title>
<g id="a_Node000007"><a xlink:href="classwmtk_1_1utils_1_1_tuple_inspector.html#a92f5faa08a7f78424f5cd1ec79dcedbb" target="_top" xlink:title=" ">
<polygon fill="white" stroke="#666666" points="369,-461 221,-461 221,-431 369,-431 369,-461"/>
<text text-anchor="start" x="229" y="-449" font-family="Helvetica,sans-Serif" font-size="10.00">wmtk::utils::TupleInspector</text>
<text text-anchor="middle" x="295" y="-438" font-family="Helvetica,sans-Serif" font-size="10.00">::local_vid</text>
</a>
</g>
</g>
<!-- Node1&#45;&gt;Node7 -->
<g id="edge7_Node000001_Node000007" class="edge">
<title>Node1&#45;&gt;Node7</title>
<g id="a_edge7_Node000001_Node000007"><a xlink:title=" ">
<path fill="none" stroke="#63b8ff" d="M185.24,-446C193.75,-446 202.33,-446 210.75,-446"/>
<polygon fill="#63b8ff" stroke="#63b8ff" points="210.93,-449.5 220.93,-446 210.93,-442.5 210.93,-449.5"/>
</a>
</g>
</g>
<!-- Node8 -->
<g id="Node000008" class="node">
<title>Node8</title>
<g id="a_Node000008"><a xlink:href="namespacewmtk.html#a6a35f11c12436093d26fdd8be6fecc06" target="_top" xlink:title="Retrieves the current logger.">
<polygon fill="white" stroke="#666666" points="527,-373.5 446,-373.5 446,-354.5 527,-354.5 527,-373.5"/>
<text text-anchor="middle" x="486.5" y="-361.5" font-family="Helvetica,sans-Serif" font-size="10.00">wmtk::logger</text>
</a>
</g>
</g>
<!-- Node1&#45;&gt;Node8 -->
<g id="edge8_Node000001_Node000008" class="edge">
<title>Node1&#45;&gt;Node8</title>
<g id="a_edge8_Node000001_Node000008"><a xlink:title=" ">
<path fill="none" stroke="#63b8ff" d="M103.55,-430.86C122.62,-403.67 167.03,-347.4 221,-326 282.15,-301.75 305.15,-310.18 369,-326 386.56,-330.35 388.06,-338.65 405,-345 414.78,-348.67 425.51,-351.78 435.84,-354.37"/>
<polygon fill="#63b8ff" stroke="#63b8ff" points="435.06,-357.78 445.6,-356.68 436.68,-350.97 435.06,-357.78"/>
</a>
</g>
</g>
<!-- Node10 -->
<g id="Node000010" class="node">
<title>Node10</title>
<g id="a_Node000010"><a xlink:href="classwmtk_1_1_mesh.html#ac205d6addf4e76f000c70547253735f0" target="_top" xlink:title=" ">
<polygon fill="white" stroke="#666666" points="354.5,-223 235.5,-223 235.5,-193 354.5,-193 354.5,-223"/>
<text text-anchor="start" x="243.5" y="-211" font-family="Helvetica,sans-Serif" font-size="10.00">wmtk::Mesh::request</text>
<text text-anchor="middle" x="295" y="-200" font-family="Helvetica,sans-Serif" font-size="10.00">_simplex_indices</text>
</a>
</g>
</g>
<!-- Node1&#45;&gt;Node10 -->
<g id="edge10_Node000001_Node000010" class="edge">
<title>Node1&#45;&gt;Node10</title>
<g id="a_edge10_Node000001_Node000010"><a xlink:title=" ">
<path fill="none" stroke="#63b8ff" d="M106.09,-430.74C128.89,-403.14 178.57,-343.15 221,-293 238.81,-271.94 259.29,-248.13 274.01,-231.08"/>
<polygon fill="#63b8ff" stroke="#63b8ff" points="276.85,-233.15 280.74,-223.3 271.56,-228.57 276.85,-233.15"/>
</a>
</g>
</g>
<!-- Node25 -->
<g id="Node000025" class="node">
<title>Node25</title>
<g id="a_Node000025"><a xlink:href="classwmtk_1_1simplex_1_1_simplex.html#a7cff84ea4d1ff4f5ba3ec96a7ddd5c01" target="_top" xlink:title=" ">
<polygon fill="white" stroke="#666666" points="362.5,-365 227.5,-365 227.5,-335 362.5,-335 362.5,-365"/>
<text text-anchor="start" x="235.5" y="-353" font-family="Helvetica,sans-Serif" font-size="10.00">wmtk::simplex::Simplex</text>
<text text-anchor="middle" x="295" y="-342" font-family="Helvetica,sans-Serif" font-size="10.00">::tetrahedron</text>
</a>
</g>
</g>
<!-- Node1&#45;&gt;Node25 -->
<g id="edge29_Node000001_Node000025" class="edge">
<title>Node1&#45;&gt;Node25</title>
<g id="a_edge29_Node000001_Node000025"><a xlink:title=" ">
<path fill="none" stroke="#63b8ff" d="M117.21,-430.74C142.28,-415.05 183.33,-390.64 221,-374 225.16,-372.16 229.51,-370.39 233.92,-368.69"/>
<polygon fill="#63b8ff" stroke="#63b8ff" points="235.46,-371.86 243.64,-365.11 233.04,-365.29 235.46,-371.86"/>
</a>
</g>
</g>
<!-- Node26 -->
<g id="Node000026" class="node">
<title>Node26</title>
<g id="a_Node000026"><a xlink:href="classwmtk_1_1simplex_1_1_simplex.html#a7de67a391b9f48b57f4ecb4c412ccaee" target="_top" xlink:title=" ">
<polygon fill="white" stroke="#666666" points="362.5,-653 227.5,-653 227.5,-623 362.5,-623 362.5,-653"/>
<text text-anchor="start" x="235.5" y="-641" font-family="Helvetica,sans-Serif" font-size="10.00">wmtk::simplex::Simplex</text>
<text text-anchor="middle" x="295" y="-630" font-family="Helvetica,sans-Serif" font-size="10.00">::vertex</text>
</a>
</g>
</g>
<!-- Node1&#45;&gt;Node26 -->
<g id="edge31_Node000001_Node000026" class="edge">
<title>Node1&#45;&gt;Node26</title>
<g id="a_edge31_Node000001_Node000026"><a xlink:title=" ">
<path fill="none" stroke="#63b8ff" d="M101.08,-461.48C117.99,-494.42 161.98,-571.9 221,-614 223.09,-615.49 225.28,-616.89 227.54,-618.21"/>
<polygon fill="#63b8ff" stroke="#63b8ff" points="226.07,-621.39 236.56,-622.9 229.3,-615.18 226.07,-621.39"/>
</a>
</g>
</g>
<!-- Node3 -->
<g id="Node000003" class="node">
<title>Node3</title>
<g id="a_Node000003"><a xlink:href="classwmtk_1_1simplex_1_1_simplex.html#ab6d51ca0c220792c1c09824d152bb53a" target="_top" xlink:title=" ">
<polygon fill="white" stroke="#666666" points="554,-514 419,-514 419,-484 554,-484 554,-514"/>
<text text-anchor="start" x="427" y="-502" font-family="Helvetica,sans-Serif" font-size="10.00">wmtk::simplex::Simplex</text>
<text text-anchor="middle" x="486.5" y="-491" font-family="Helvetica,sans-Serif" font-size="10.00">::Simplex</text>
</a>
</g>
</g>
<!-- Node2&#45;&gt;Node3 -->
<g id="edge2_Node000002_Node000003" class="edge">
<title>Node2&#45;&gt;Node3</title>
<g id="a_edge2_Node000002_Node000003"><a xlink:title=" ">
<path fill="none" stroke="#63b8ff" d="M346.39,-574.94C354.06,-572.21 361.81,-569.21 369,-566 398.91,-552.65 431.04,-533.8 453.97,-519.49"/>
<polygon fill="#63b8ff" stroke="#63b8ff" points="456,-522.35 462.59,-514.06 452.26,-516.43 456,-522.35"/>
</a>
</g>
</g>
<!-- Node4&#45;&gt;Node3 -->
<g id="edge4_Node000004_Node000003" class="edge">
<title>Node4&#45;&gt;Node3</title>
<g id="a_edge4_Node000004_Node000003"><a xlink:title=" ">
<path fill="none" stroke="#63b8ff" d="M347.74,-413.1C355,-415.77 362.28,-418.74 369,-422 401.31,-437.64 435.23,-460.95 458.07,-477.83"/>
<polygon fill="#63b8ff" stroke="#63b8ff" points="456.16,-480.76 466.26,-483.95 460.35,-475.16 456.16,-480.76"/>
</a>
</g>
</g>
<!-- Node9 -->
<g id="Node000009" class="node">
<title>Node9</title>
<g id="a_Node000009"><a xlink:href="namespacewmtk.html#a3daa7951a5f8b78cf4600dc047fcc180" target="_top" xlink:title="Setup a logger object to be used by WildmeshToolkit.">
<polygon fill="white" stroke="#666666" points="732,-397.5 631,-397.5 631,-378.5 732,-378.5 732,-397.5"/>
<text text-anchor="middle" x="681.5" y="-385.5" font-family="Helvetica,sans-Serif" font-size="10.00">wmtk::set_logger</text>
</a>
</g>
</g>
<!-- Node8&#45;&gt;Node9 -->
<g id="edge9_Node000008_Node000009" class="edge">
<title>Node8&#45;&gt;Node9</title>
<g id="a_edge9_Node000008_Node000009"><a xlink:title=" ">
<path fill="none" stroke="#63b8ff" d="M527.02,-368.91C553.97,-372.27 590.16,-376.77 620.63,-380.55"/>
<polygon fill="#63b8ff" stroke="#63b8ff" points="620.36,-384.05 630.72,-381.81 621.23,-377.1 620.36,-384.05"/>
</a>
</g>
</g>
<!-- Node10&#45;&gt;Node8 -->
<g id="edge25_Node000010_Node000008" class="edge">
<title>Node10&#45;&gt;Node8</title>
<g id="a_edge25_Node000010_Node000008"><a xlink:title=" ">
<path fill="none" stroke="#63b8ff" d="M309.95,-223.26C325.03,-239.97 349.5,-267.75 369,-293 386.18,-315.25 381.78,-329.16 405,-345 414.17,-351.26 425.15,-355.47 436,-358.3"/>
<polygon fill="#63b8ff" stroke="#63b8ff" points="435.36,-361.74 445.88,-360.53 436.9,-354.91 435.36,-361.74"/>
</a>
</g>
</g>
<!-- Node11 -->
<g id="Node000011" class="node">
<title>Node11</title>
<g id="a_Node000011"><a xlink:href="classwmtk_1_1attribute_1_1_index_flag_accessor.html#a95874b259daee031cd8bb3635ada83d5" target="_top" xlink:title=" ">
<polygon fill="white" stroke="#666666" points="559.5,-336 413.5,-336 413.5,-306 559.5,-306 559.5,-336"/>
<text text-anchor="start" x="421.5" y="-324" font-family="Helvetica,sans-Serif" font-size="10.00">wmtk::attribute::IndexFlag</text>
<text text-anchor="middle" x="486.5" y="-313" font-family="Helvetica,sans-Serif" font-size="10.00">Accessor::activate</text>
</a>
</g>
</g>
<!-- Node10&#45;&gt;Node11 -->
<g id="edge11_Node000010_Node000011" class="edge">
<title>Node10&#45;&gt;Node11</title>
<g id="a_edge11_Node000010_Node000011"><a xlink:title=" ">
<path fill="none" stroke="#63b8ff" d="M310.49,-223.08C330.16,-242.74 367.22,-276.98 405,-297 408.45,-298.83 412.07,-300.54 415.77,-302.13"/>
<polygon fill="#63b8ff" stroke="#63b8ff" points="414.52,-305.4 425.1,-305.86 417.12,-298.9 414.52,-305.4"/>
</a>
</g>
</g>
<!-- Node16 -->
<g id="Node000016" class="node">
<title>Node16</title>
<g id="a_Node000016"><a xlink:href="classwmtk_1_1attribute_1_1_flag_accessor.html#a37e882007dc57e3571c18163a709a246" target="_top" xlink:title=" ">
<polygon fill="white" stroke="#666666" points="568,-202 405,-202 405,-172 568,-172 568,-202"/>
<text text-anchor="start" x="413" y="-190" font-family="Helvetica,sans-Serif" font-size="10.00">wmtk::attribute::FlagAccessor</text>
<text text-anchor="middle" x="486.5" y="-179" font-family="Helvetica,sans-Serif" font-size="10.00">::base_accessor</text>
</a>
</g>
</g>
<!-- Node10&#45;&gt;Node16 -->
<g id="edge16_Node000010_Node000016" class="edge">
<title>Node10&#45;&gt;Node16</title>
<g id="a_edge16_Node000010_Node000016"><a xlink:title=" ">
<path fill="none" stroke="#63b8ff" d="M354.66,-201.5C367.31,-200.1 380.96,-198.58 394.51,-197.08"/>
<polygon fill="#63b8ff" stroke="#63b8ff" points="395.29,-200.52 404.84,-195.94 394.52,-193.56 395.29,-200.52"/>
</a>
</g>
</g>
<!-- Node17 -->
<g id="Node000017" class="node">
<title>Node17</title>
<g id="a_Node000017"><a xlink:href="classwmtk_1_1_mesh.html#a3e8ff83c4a5526a40d18bb9883c6c6c9" target="_top" xlink:title="read in the m_capacities return the upper bound for the number of entities of the given dimension">
<polygon fill="white" stroke="#666666" points="743.5,-215.5 619.5,-215.5 619.5,-196.5 743.5,-196.5 743.5,-215.5"/>
<text text-anchor="middle" x="681.5" y="-203.5" font-family="Helvetica,sans-Serif" font-size="10.00">wmtk::Mesh::capacity</text>
</a>
</g>
</g>
<!-- Node10&#45;&gt;Node17 -->
<g id="edge17_Node000010_Node000017" class="edge">
<title>Node10&#45;&gt;Node17</title>
<g id="a_edge17_Node000010_Node000017"><a xlink:title=" ">
<path fill="none" stroke="#63b8ff" d="M354.54,-209.91C370.87,-210.36 388.63,-210.77 405,-211 477.44,-212 495.57,-212.61 568,-211 581.24,-210.71 595.35,-210.22 608.94,-209.66"/>
<polygon fill="#63b8ff" stroke="#63b8ff" points="609.37,-213.14 619.21,-209.22 609.07,-206.15 609.37,-213.14"/>
</a>
</g>
</g>
<!-- Node18 -->
<g id="Node000018" class="node">
<title>Node18</title>
<g id="a_Node000018"><a xlink:href="namespacewmtk.html#a5cf45c152e856196bb734c6f48919a24" target="_top" xlink:title="Get a unique integer id corresponding to each primitive type.">
<polygon fill="white" stroke="#666666" points="924,-143 808,-143 808,-113 924,-113 924,-143"/>
<text text-anchor="start" x="816" y="-131" font-family="Helvetica,sans-Serif" font-size="10.00">wmtk::get_primitive</text>
<text text-anchor="middle" x="866" y="-120" font-family="Helvetica,sans-Serif" font-size="10.00">_type_id</text>
</a>
</g>
</g>
<!-- Node10&#45;&gt;Node18 -->
<g id="edge23_Node000010_Node000018" class="edge">
<title>Node10&#45;&gt;Node18</title>
<g id="a_edge23_Node000010_Node000018"><a xlink:title=" ">
<path fill="none" stroke="#63b8ff" d="M313.47,-192.98C333.89,-176.42 369.44,-150.58 405,-139 538.8,-95.43 706.26,-106.61 797.71,-117.83"/>
<polygon fill="#63b8ff" stroke="#63b8ff" points="797.3,-121.3 807.66,-119.08 798.18,-114.36 797.3,-121.3"/>
</a>
</g>
</g>
<!-- Node19 -->
<g id="Node000019" class="node">
<title>Node19</title>
<g id="a_Node000019"><a xlink:href="classwmtk_1_1_mesh.html#ae3493915b766f0f34f0a9e89603d5773" target="_top" xlink:title=" ">
<polygon fill="white" stroke="#666666" points="547.5,-78 425.5,-78 425.5,-48 547.5,-48 547.5,-78"/>
<text text-anchor="start" x="433.5" y="-66" font-family="Helvetica,sans-Serif" font-size="10.00">wmtk::Mesh::get_flag</text>
<text text-anchor="middle" x="486.5" y="-55" font-family="Helvetica,sans-Serif" font-size="10.00">_accessor</text>
</a>
</g>
</g>
<!-- Node10&#45;&gt;Node19 -->
<g id="edge19_Node000010_Node000019" class="edge">
<title>Node10&#45;&gt;Node19</title>
<g id="a_edge19_Node000010_Node000019"><a xlink:title=" ">
<path fill="none" stroke="#63b8ff" d="M306.64,-192.66C324.37,-168.15 362.27,-120.07 405,-92 410.59,-88.33 416.7,-85.05 422.98,-82.14"/>
<polygon fill="#63b8ff" stroke="#63b8ff" points="424.46,-85.32 432.26,-78.15 421.69,-78.89 424.46,-85.32"/>
</a>
</g>
</g>
<!-- Node22 -->
<g id="Node000022" class="node">
<title>Node22</title>
<g id="a_Node000022"><a xlink:href="classwmtk_1_1attribute_1_1_flag_accessor.html#a4f49a666c3811fee9b841c1cd1f66250" target="_top" xlink:title=" ">
<polygon fill="white" stroke="#666666" points="568,-30 405,-30 405,0 568,0 568,-30"/>
<text text-anchor="start" x="413" y="-18" font-family="Helvetica,sans-Serif" font-size="10.00">wmtk::attribute::FlagAccessor</text>
<text text-anchor="middle" x="486.5" y="-7" font-family="Helvetica,sans-Serif" font-size="10.00">::index_access</text>
</a>
</g>
</g>
<!-- Node10&#45;&gt;Node22 -->
<g id="edge24_Node000010_Node000022" class="edge">
<title>Node10&#45;&gt;Node22</title>
<g id="a_edge24_Node000010_Node000022"><a xlink:title=" ">
<path fill="none" stroke="#63b8ff" d="M301.54,-192.8C314.39,-159.69 349.43,-80.71 405,-39 406.85,-37.61 408.78,-36.31 410.77,-35.07"/>
<polygon fill="#63b8ff" stroke="#63b8ff" points="412.73,-37.99 419.84,-30.14 409.38,-31.84 412.73,-37.99"/>
</a>
</g>
</g>
<!-- Node23 -->
<g id="Node000023" class="node">
<title>Node23</title>
<g id="a_Node000023"><a xlink:href="namespacewmtk.html#a339897f6efeb23a997750141f12892ee" target="_top" xlink:title=" ">
<polygon fill="white" stroke="#666666" points="759,-153.5 604,-153.5 604,-134.5 759,-134.5 759,-153.5"/>
<text text-anchor="middle" x="681.5" y="-141.5" font-family="Helvetica,sans-Serif" font-size="10.00">wmtk::primitive_type_name</text>
</a>
</g>
</g>
<!-- Node10&#45;&gt;Node23 -->
<g id="edge26_Node000010_Node000023" class="edge">
<title>Node10&#45;&gt;Node23</title>
<g id="a_edge26_Node000010_Node000023"><a xlink:title=" ">
<path fill="none" stroke="#63b8ff" d="M325.21,-192.9C346.68,-182.57 376.89,-169.59 405,-163 467.07,-148.45 538.99,-143.89 593.78,-142.87"/>
<polygon fill="#63b8ff" stroke="#63b8ff" points="593.86,-146.37 603.81,-142.72 593.75,-139.37 593.86,-146.37"/>
</a>
</g>
</g>
<!-- Node24 -->
<g id="Node000024" class="node">
<title>Node24</title>
<g id="a_Node000024"><a xlink:href="classwmtk_1_1attribute_1_1_accessor_base.html#ada0ffe6f114ed47ad205989d8a6f67da" target="_top" xlink:title=" ">
<polygon fill="white" stroke="#666666" points="557.5,-288 415.5,-288 415.5,-258 557.5,-258 557.5,-288"/>
<text text-anchor="start" x="423.5" y="-276" font-family="Helvetica,sans-Serif" font-size="10.00">wmtk::attribute::Accessor</text>
<text text-anchor="middle" x="486.5" y="-265" font-family="Helvetica,sans-Serif" font-size="10.00">Base::reserved_size</text>
</a>
</g>
</g>
<!-- Node10&#45;&gt;Node24 -->
<g id="edge28_Node000010_Node000024" class="edge">
<title>Node10&#45;&gt;Node24</title>
<g id="a_edge28_Node000010_Node000024"><a xlink:title=" ">
<path fill="none" stroke="#63b8ff" d="M339.95,-223.08C367.36,-232.48 402.82,-244.64 431.87,-254.61"/>
<polygon fill="#63b8ff" stroke="#63b8ff" points="430.86,-257.96 441.46,-257.89 433.14,-251.34 430.86,-257.96"/>
</a>
</g>
</g>
<!-- Node12 -->
<g id="Node000012" class="node">
<title>Node12</title>
<g id="a_Node000012"><a xlink:href="classwmtk_1_1attribute_1_1_index_flag_accessor.html#af06d8fe6a9f16a0b9ac09e6eae9e797d" target="_top" xlink:title=" ">
<polygon fill="white" stroke="#666666" points="754.5,-264 608.5,-264 608.5,-234 754.5,-234 754.5,-264"/>
<text text-anchor="start" x="616.5" y="-252" font-family="Helvetica,sans-Serif" font-size="10.00">wmtk::attribute::IndexFlag</text>
<text text-anchor="middle" x="681.5" y="-241" font-family="Helvetica,sans-Serif" font-size="10.00">Accessor::_activate</text>
</a>
</g>
</g>
<!-- Node11&#45;&gt;Node12 -->
<g id="edge12_Node000011_Node000012" class="edge">
<title>Node11&#45;&gt;Node12</title>
<g id="a_edge12_Node000011_Node000012"><a xlink:title=" ">
<path fill="none" stroke="#63b8ff" d="M545.88,-305.86C553.45,-303.24 561,-300.28 568,-297 585.41,-288.83 586.65,-281.29 604,-273 607.99,-271.09 612.17,-269.29 616.44,-267.59"/>
<polygon fill="#63b8ff" stroke="#63b8ff" points="617.72,-270.84 625.85,-264.05 615.26,-264.29 617.72,-270.84"/>
</a>
</g>
</g>
<!-- Node13 -->
<g id="Node000013" class="node">
<title>Node13</title>
<g id="a_Node000013"><a xlink:href="classwmtk_1_1attribute_1_1_accessor.html#a2d587e12c47a6d839ab80e9198cf75b5" target="_top" xlink:title=" ">
<polygon fill="white" stroke="#666666" points="752.5,-360 610.5,-360 610.5,-330 752.5,-330 752.5,-360"/>
<text text-anchor="start" x="618.5" y="-348" font-family="Helvetica,sans-Serif" font-size="10.00">wmtk::attribute::Accessor</text>
<text text-anchor="middle" x="681.5" y="-337" font-family="Helvetica,sans-Serif" font-size="10.00">::index_access</text>
</a>
</g>
</g>
<!-- Node11&#45;&gt;Node13 -->
<g id="edge13_Node000011_Node000013" class="edge">
<title>Node11&#45;&gt;Node13</title>
<g id="a_edge13_Node000011_Node000013"><a xlink:title=" ">
<path fill="none" stroke="#63b8ff" d="M559.64,-329.97C572.87,-331.62 586.74,-333.34 600.19,-335.01"/>
<polygon fill="#63b8ff" stroke="#63b8ff" points="600.01,-338.52 610.37,-336.28 600.88,-331.57 600.01,-338.52"/>
</a>
</g>
</g>
<!-- Node15 -->
<g id="Node000015" class="node">
<title>Node15</title>
<g id="a_Node000015"><a xlink:href="classwmtk_1_1attribute_1_1_caching_accessor.html#a73f8d78b708406dcd6433398e3954e72" target="_top" xlink:title=" ">
<polygon fill="white" stroke="#666666" points="753,-312 610,-312 610,-282 753,-282 753,-312"/>
<text text-anchor="start" x="618" y="-300" font-family="Helvetica,sans-Serif" font-size="10.00">wmtk::attribute::Caching</text>
<text text-anchor="middle" x="681.5" y="-289" font-family="Helvetica,sans-Serif" font-size="10.00">Accessor::scalar_attribute</text>
</a>
</g>
</g>
<!-- Node11&#45;&gt;Node15 -->
<g id="edge15_Node000011_Node000015" class="edge">
<title>Node11&#45;&gt;Node15</title>
<g id="a_edge15_Node000011_Node000015"><a xlink:title=" ">
<path fill="none" stroke="#63b8ff" d="M559.64,-312.03C572.69,-310.41 586.38,-308.7 599.67,-307.05"/>
<polygon fill="#63b8ff" stroke="#63b8ff" points="600.24,-310.51 609.73,-305.8 599.37,-303.56 600.24,-310.51"/>
</a>
</g>
</g>
<!-- Node14 -->
<g id="Node000014" class="node">
<title>Node14</title>
<g id="a_Node000014"><a xlink:href="classwmtk_1_1attribute_1_1_accessor.html#afd97a48ec5d1db975a030428df81f617" target="_top" xlink:title=" ">
<polygon fill="white" stroke="#666666" points="937,-360 795,-360 795,-330 937,-330 937,-360"/>
<text text-anchor="start" x="803" y="-348" font-family="Helvetica,sans-Serif" font-size="10.00">wmtk::attribute::Accessor</text>
<text text-anchor="middle" x="866" y="-337" font-family="Helvetica,sans-Serif" font-size="10.00">::caching_base_type</text>
</a>
</g>
</g>
<!-- Node13&#45;&gt;Node14 -->
<g id="edge14_Node000013_Node000014" class="edge">
<title>Node13&#45;&gt;Node14</title>
<g id="a_edge14_Node000013_Node000014"><a xlink:title=" ">
<path fill="none" stroke="#63b8ff" d="M752.54,-345C763.05,-345 773.96,-345 784.67,-345"/>
<polygon fill="#63b8ff" stroke="#63b8ff" points="784.85,-348.5 794.85,-345 784.85,-341.5 784.85,-348.5"/>
</a>
</g>
</g>
<!-- Node17&#45;&gt;Node18 -->
<g id="edge18_Node000017_Node000018" class="edge">
<title>Node17&#45;&gt;Node18</title>
<g id="a_edge18_Node000017_Node000018"><a xlink:title=" ">
<path fill="none" stroke="#63b8ff" d="M704.88,-196.44C733.45,-184.22 783.56,-162.81 820.13,-147.18"/>
<polygon fill="#63b8ff" stroke="#63b8ff" points="821.76,-150.29 829.58,-143.14 819.01,-143.85 821.76,-150.29"/>
</a>
</g>
</g>
<!-- Node20 -->
<g id="Node000020" class="node">
<title>Node20</title>
<g id="a_Node000020"><a xlink:href="classwmtk_1_1_mesh.html#acfa981b31f00aef4438ff5e73bbce2f4" target="_top" xlink:title=" ">
<polygon fill="white" stroke="#666666" points="746.5,-78 616.5,-78 616.5,-48 746.5,-48 746.5,-78"/>
<text text-anchor="start" x="624.5" y="-66" font-family="Helvetica,sans-Serif" font-size="10.00">wmtk::Mesh::get_const</text>
<text text-anchor="middle" x="681.5" y="-55" font-family="Helvetica,sans-Serif" font-size="10.00">_flag_accessor</text>
</a>
</g>
</g>
<!-- Node19&#45;&gt;Node20 -->
<g id="edge20_Node000019_Node000020" class="edge">
<title>Node19&#45;&gt;Node20</title>
<g id="a_edge20_Node000019_Node000020"><a xlink:title=" ">
<path fill="none" stroke="#63b8ff" d="M547.51,-63C566.07,-63 586.75,-63 606.16,-63"/>
<polygon fill="#63b8ff" stroke="#63b8ff" points="606.18,-66.5 616.18,-63 606.18,-59.5 606.18,-66.5"/>
</a>
</g>
</g>
<!-- Node20&#45;&gt;Node18 -->
<g id="edge22_Node000020_Node000018" class="edge">
<title>Node20&#45;&gt;Node18</title>
<g id="a_edge22_Node000020_Node000018"><a xlink:title=" ">
<path fill="none" stroke="#63b8ff" d="M724.83,-78.08C751.11,-87.44 785.07,-99.53 812.99,-109.47"/>
<polygon fill="#63b8ff" stroke="#63b8ff" points="811.99,-112.84 822.59,-112.89 814.34,-106.24 811.99,-112.84"/>
</a>
</g>
</g>
<!-- Node21 -->
<g id="Node000021" class="node">
<title>Node21</title>
<g id="a_Node000021"><a xlink:href="classwmtk_1_1_mesh.html#a357182137d99f1e4a7ff536eadfc0e56" target="_top" xlink:title=" ">
<polygon fill="white" stroke="#666666" points="922.5,-78 809.5,-78 809.5,-48 922.5,-48 922.5,-78"/>
<text text-anchor="start" x="817.5" y="-66" font-family="Helvetica,sans-Serif" font-size="10.00">wmtk::Mesh::create</text>
<text text-anchor="middle" x="866" y="-55" font-family="Helvetica,sans-Serif" font-size="10.00">_const_accessor</text>
</a>
</g>
</g>
<!-- Node20&#45;&gt;Node21 -->
<g id="edge21_Node000020_Node000021" class="edge">
<title>Node20&#45;&gt;Node21</title>
<g id="a_edge21_Node000020_Node000021"><a xlink:title=" ">
<path fill="none" stroke="#63b8ff" d="M746.59,-63C763.51,-63 781.81,-63 798.84,-63"/>
<polygon fill="#63b8ff" stroke="#63b8ff" points="799.26,-66.5 809.26,-63 799.26,-59.5 799.26,-66.5"/>
</a>
</g>
</g>
<!-- Node23&#45;&gt;Node18 -->
<g id="edge27_Node000023_Node000018" class="edge">
<title>Node23&#45;&gt;Node18</title>
<g id="a_edge27_Node000023_Node000018"><a xlink:title=" ">
<path fill="none" stroke="#63b8ff" d="M759.1,-137.28C771.83,-136.17 784.95,-135.02 797.43,-133.92"/>
<polygon fill="#63b8ff" stroke="#63b8ff" points="798.09,-137.38 807.74,-133.02 797.47,-130.41 798.09,-137.38"/>
</a>
</g>
</g>
<!-- Node25&#45;&gt;Node3 -->
<g id="edge30_Node000025_Node000003" class="edge">
<title>Node25&#45;&gt;Node3</title>
<g id="a_edge30_Node000025_Node000003"><a xlink:title=" ">
<path fill="none" stroke="#63b8ff" d="M351.96,-365.11C357.91,-367.67 363.72,-370.62 369,-374 411.39,-401.12 448.76,-447.19 469.14,-475.18"/>
<polygon fill="#63b8ff" stroke="#63b8ff" points="466.49,-477.49 475.15,-483.59 472.19,-473.42 466.49,-477.49"/>
</a>
</g>
</g>
<!-- Node26&#45;&gt;Node3 -->
<g id="edge32_Node000026_Node000003" class="edge">
<title>Node26&#45;&gt;Node3</title>
<g id="a_edge32_Node000026_Node000003"><a xlink:title=" ">
<path fill="none" stroke="#63b8ff" d="M351.06,-622.98C357.3,-620.39 363.42,-617.41 369,-614 409.31,-589.38 446.39,-548.25 467.44,-522.43"/>
<polygon fill="#63b8ff" stroke="#63b8ff" points="470.42,-524.3 473.94,-514.31 464.96,-519.93 470.42,-524.3"/>
</a>
</g>
</g>
</g>
</svg>
