<?xml version="1.0" encoding="UTF-8" standalone="no"?>
<!DOCTYPE svg PUBLIC "-//W3C//DTD SVG 1.1//EN"
 "http://www.w3.org/Graphics/SVG/1.1/DTD/svg11.dtd">
<!-- Generated by graphviz version 2.43.0 (0)
 -->
<!-- Title: wmtk::multimesh::utils::internal::TupleTag::is_critical_boundary Pages: 1 -->
<svg width="645pt" height="135pt"
 viewBox="0.00 0.00 645.00 134.50" xmlns="http://www.w3.org/2000/svg" xmlns:xlink="http://www.w3.org/1999/xlink">
<g id="graph0" class="graph" transform="scale(1 1) rotate(0) translate(4 130.5)">
<title>wmtk::multimesh::utils::internal::TupleTag::is_critical_boundary</title>
<!-- Node1 -->
<g id="Node000001" class="node">
<title>Node1</title>
<g id="a_Node000001"><a xlink:title="Check if a boundary is a critical point.">
<polygon fill="#999999" stroke="#666666" points="130,-78.5 0,-78.5 0,-37.5 130,-37.5 130,-78.5"/>
<text text-anchor="start" x="8" y="-66.5" font-family="Helvetica,sans-Serif" font-size="10.00">wmtk::multimesh::utils</text>
<text text-anchor="start" x="8" y="-55.5" font-family="Helvetica,sans-Serif" font-size="10.00">::internal::TupleTag::</text>
<text text-anchor="middle" x="65" y="-44.5" font-family="Helvetica,sans-Serif" font-size="10.00">is_critical_boundary</text>
</a>
</g>
</g>
<!-- Node2 -->
<g id="Node000002" class="node">
<title>Node2</title>
<g id="a_Node000002"><a xlink:href="classwmtk_1_1multimesh_1_1utils_1_1internal_1_1_tuple_tag.html#ad921071b9217221d30d56b51419c78e7" target="_top" xlink:title=" ">
<polygon fill="white" stroke="#666666" points="296,-73 166,-73 166,-43 296,-43 296,-73"/>
<text text-anchor="start" x="174" y="-61" font-family="Helvetica,sans-Serif" font-size="10.00">wmtk::multimesh::utils</text>
<text text-anchor="middle" x="231" y="-50" font-family="Helvetica,sans-Serif" font-size="10.00">::internal::TupleTag::vid</text>
</a>
</g>
</g>
<!-- Node1&#45;&gt;Node2 -->
<g id="edge1_Node000001_Node000002" class="edge">
<title>Node1&#45;&gt;Node2</title>
<g id="a_edge1_Node000001_Node000002"><a xlink:title=" ">
<path fill="none" stroke="#63b8ff" d="M130.35,-58C138.64,-58 147.19,-58 155.62,-58"/>
<polygon fill="#63b8ff" stroke="#63b8ff" points="155.84,-61.5 165.84,-58 155.84,-54.5 155.84,-61.5"/>
</a>
</g>
</g>
<!-- Node3 -->
<g id="Node000003" class="node">
<title>Node3</title>
<g id="a_Node000003"><a xlink:href="classwmtk_1_1multimesh_1_1utils_1_1internal_1_1_tuple_tag.html#afa2a24000c5054648137b91588f83d55" target="_top" xlink:title=" ">
<polygon fill="white" stroke="#666666" points="467.5,-126.5 337.5,-126.5 337.5,-85.5 467.5,-85.5 467.5,-126.5"/>
<text text-anchor="start" x="345.5" y="-114.5" font-family="Helvetica,sans-Serif" font-size="10.00">wmtk::multimesh::utils</text>
<text text-anchor="start" x="345.5" y="-103.5" font-family="Helvetica,sans-Serif" font-size="10.00">::internal::TupleTag::</text>
<text text-anchor="middle" x="402.5" y="-92.5" font-family="Helvetica,sans-Serif" font-size="10.00">boundary_type</text>
</a>
</g>
</g>
<!-- Node2&#45;&gt;Node3 -->
<g id="edge2_Node000002_Node000003" class="edge">
<title>Node2&#45;&gt;Node3</title>
<g id="a_edge2_Node000002_Node000003"><a xlink:title=" ">
<path fill="none" stroke="#63b8ff" d="M285.17,-73.06C298.58,-76.85 313.22,-81 327.45,-85.03"/>
<polygon fill="#63b8ff" stroke="#63b8ff" points="326.64,-88.44 337.22,-87.8 328.55,-81.7 326.64,-88.44"/>
</a>
</g>
</g>
<!-- Node4 -->
<g id="Node000004" class="node">
<title>Node4</title>
<g id="a_Node000004"><a xlink:href="classwmtk_1_1_mesh.html#a58243712dc3e0d258ad645e7b08870db" target="_top" xlink:title="return the global id of the Tuple of the given dimension">
<polygon fill="white" stroke="#666666" points="448.5,-67.5 356.5,-67.5 356.5,-48.5 448.5,-48.5 448.5,-67.5"/>
<text text-anchor="middle" x="402.5" y="-55.5" font-family="Helvetica,sans-Serif" font-size="10.00">wmtk::Mesh::id</text>
</a>
</g>
</g>
<!-- Node2&#45;&gt;Node4 -->
<g id="edge3_Node000002_Node000004" class="edge">
<title>Node2&#45;&gt;Node4</title>
<g id="a_edge3_Node000002_Node000004"><a xlink:title=" ">
<path fill="none" stroke="#63b8ff" d="M296.08,-58C312.54,-58 330.1,-58 346.08,-58"/>
<polygon fill="#63b8ff" stroke="#63b8ff" points="346.32,-61.5 356.32,-58 346.32,-54.5 346.32,-61.5"/>
</a>
</g>
</g>
<!-- Node6 -->
<g id="Node000006" class="node">
<title>Node6</title>
<g id="a_Node000006"><a xlink:href="classwmtk_1_1multimesh_1_1utils_1_1internal_1_1_tuple_tag.html#a7ce74a2272389dcdbd3fd1434480ecb1" target="_top" xlink:title=" ">
<polygon fill="white" stroke="#666666" points="473,-30 332,-30 332,0 473,0 473,-30"/>
<text text-anchor="start" x="340" y="-18" font-family="Helvetica,sans-Serif" font-size="10.00">wmtk::multimesh::utils</text>
<text text-anchor="middle" x="402.5" y="-7" font-family="Helvetica,sans-Serif" font-size="10.00">::internal::TupleTag::mesh</text>
</a>
</g>
</g>
<!-- Node2&#45;&gt;Node6 -->
<g id="edge5_Node000002_Node000006" class="edge">
<title>Node2&#45;&gt;Node6</title>
<g id="a_edge5_Node000002_Node000006"><a xlink:title=" ">
<path fill="none" stroke="#63b8ff" d="M291.28,-42.96C304.57,-39.59 318.78,-35.98 332.43,-32.52"/>
<polygon fill="#63b8ff" stroke="#63b8ff" points="333.42,-35.88 342.25,-30.03 331.7,-29.1 333.42,-35.88"/>
</a>
</g>
</g>
<!-- Node5 -->
<g id="Node000005" class="node">
<title>Node5</title>
<g id="a_Node000005"><a xlink:href="classwmtk_1_1_mesh.html#a6f6c3b9a1d738d05ec8d84cabfa5e4b4" target="_top" xlink:title="Internal utility to allow id to be virtual with a non&#45;virtual overload in derived &#45;Mesh classes.">
<polygon fill="white" stroke="#666666" points="637,-67.5 509,-67.5 509,-48.5 637,-48.5 637,-67.5"/>
<text text-anchor="middle" x="573" y="-55.5" font-family="Helvetica,sans-Serif" font-size="10.00">wmtk::Mesh::id_virtual</text>
</a>
</g>
</g>
<!-- Node4&#45;&gt;Node5 -->
<g id="edge4_Node000004_Node000005" class="edge">
<title>Node4&#45;&gt;Node5</title>
<g id="a_edge4_Node000004_Node000005"><a xlink:title=" ">
<path fill="none" stroke="#63b8ff" d="M448.65,-58C463.99,-58 481.55,-58 498.52,-58"/>
<polygon fill="#63b8ff" stroke="#63b8ff" points="498.98,-61.5 508.98,-58 498.98,-54.5 498.98,-61.5"/>
</a>
</g>
</g>
</g>
</svg>
