<?xml version="1.0" encoding="UTF-8" standalone="no"?>
<!DOCTYPE svg PUBLIC "-//W3C//DTD SVG 1.1//EN"
 "http://www.w3.org/Graphics/SVG/1.1/DTD/svg11.dtd">
<!-- Generated by graphviz version 2.43.0 (0)
 -->
<!-- Title: wmtk::Mesh::map_to_child Pages: 1 -->
<svg width="925pt" height="342pt"
 viewBox="0.00 0.00 925.00 341.50" xmlns="http://www.w3.org/2000/svg" xmlns:xlink="http://www.w3.org/1999/xlink">
<g id="graph0" class="graph" transform="scale(1 1) rotate(0) translate(4 337.5)">
<title>wmtk::Mesh::map_to_child</title>
<!-- Node1 -->
<g id="Node000001" class="node">
<title>Node1</title>
<g id="a_Node000001"><a xlink:title="optimized map fromsimplex from this mesh to one of its direct children">
<polygon fill="#999999" stroke="#666666" points="119,-235.5 0,-235.5 0,-205.5 119,-205.5 119,-235.5"/>
<text text-anchor="start" x="8" y="-223.5" font-family="Helvetica,sans-Serif" font-size="10.00">wmtk::Mesh::map_to</text>
<text text-anchor="middle" x="59.5" y="-212.5" font-family="Helvetica,sans-Serif" font-size="10.00">_child</text>
</a>
</g>
</g>
<!-- Node2 -->
<g id="Node000002" class="node">
<title>Node2</title>
<g id="a_Node000002"><a xlink:href="classwmtk_1_1_mesh.html#ad054c074d4776010002321117ec459e8" target="_top" xlink:title=" ">
<polygon fill="white" stroke="#666666" points="316,-305.5 155,-305.5 155,-275.5 316,-275.5 316,-305.5"/>
<text text-anchor="start" x="163" y="-293.5" font-family="Helvetica,sans-Serif" font-size="10.00">wmtk::Mesh::is_from</text>
<text text-anchor="middle" x="235.5" y="-282.5" font-family="Helvetica,sans-Serif" font-size="10.00">_same_multi_mesh_structure</text>
</a>
</g>
</g>
<!-- Node1&#45;&gt;Node2 -->
<g id="edge1_Node000001_Node000002" class="edge">
<title>Node1&#45;&gt;Node2</title>
<g id="a_edge1_Node000001_Node000002"><a xlink:title=" ">
<path fill="none" stroke="#63b8ff" d="M97.83,-235.52C124,-246.05 159.19,-260.2 187.31,-271.52"/>
<polygon fill="#63b8ff" stroke="#63b8ff" points="186.35,-274.9 196.93,-275.39 188.96,-268.41 186.35,-274.9"/>
</a>
</g>
</g>
<!-- Node6 -->
<g id="Node000006" class="node">
<title>Node6</title>
<g id="a_Node000006"><a xlink:href="classwmtk_1_1_mesh.html#a8cc8686f0688613806f43720b6db49e7" target="_top" xlink:title="check validity of tuple including its hash">
<polygon fill="white" stroke="#666666" points="295.5,-230 175.5,-230 175.5,-211 295.5,-211 295.5,-230"/>
<text text-anchor="middle" x="235.5" y="-218" font-family="Helvetica,sans-Serif" font-size="10.00">wmtk::Mesh::is_valid</text>
</a>
</g>
</g>
<!-- Node1&#45;&gt;Node6 -->
<g id="edge6_Node000001_Node000006" class="edge">
<title>Node1&#45;&gt;Node6</title>
<g id="a_edge6_Node000001_Node000006"><a xlink:title=" ">
<path fill="none" stroke="#63b8ff" d="M119.41,-220.5C134.07,-220.5 149.92,-220.5 165.03,-220.5"/>
<polygon fill="#63b8ff" stroke="#63b8ff" points="165.36,-224 175.36,-220.5 165.36,-217 165.36,-224"/>
</a>
</g>
</g>
<!-- Node12 -->
<g id="Node000012" class="node">
<title>Node12</title>
<g id="a_Node000012"><a xlink:href="classwmtk_1_1multimesh_1_1_multi_mesh_manager.html#ae79d884089139ad2962aef5f496dbc8c" target="_top" xlink:title="optimized map fromsimplex from this mesh to one of its direct children">
<polygon fill="white" stroke="#666666" points="315.5,-113.5 155.5,-113.5 155.5,-83.5 315.5,-83.5 315.5,-113.5"/>
<text text-anchor="start" x="163.5" y="-101.5" font-family="Helvetica,sans-Serif" font-size="10.00">wmtk::multimesh::MultiMesh</text>
<text text-anchor="middle" x="235.5" y="-90.5" font-family="Helvetica,sans-Serif" font-size="10.00">Manager::map_to_child</text>
</a>
</g>
</g>
<!-- Node1&#45;&gt;Node12 -->
<g id="edge13_Node000001_Node000012" class="edge">
<title>Node1&#45;&gt;Node12</title>
<g id="a_edge13_Node000001_Node000012"><a xlink:title=" ">
<path fill="none" stroke="#63b8ff" d="M82.19,-205.3C113.09,-183.63 169.91,-143.79 204.74,-119.37"/>
<polygon fill="#63b8ff" stroke="#63b8ff" points="206.91,-122.12 213.09,-113.51 202.89,-116.39 206.91,-122.12"/>
</a>
</g>
</g>
<!-- Node3 -->
<g id="Node000003" class="node">
<title>Node3</title>
<g id="a_Node000003"><a xlink:href="classwmtk_1_1_mesh.html#aac3ec1ebbe00982ddfe70cc710d8f54e" target="_top" xlink:title="returns a reference to the root of a multimesh tree">
<polygon fill="white" stroke="#666666" points="503,-333.5 374,-333.5 374,-303.5 503,-303.5 503,-333.5"/>
<text text-anchor="start" x="382" y="-321.5" font-family="Helvetica,sans-Serif" font-size="10.00">wmtk::Mesh::get_multi</text>
<text text-anchor="middle" x="438.5" y="-310.5" font-family="Helvetica,sans-Serif" font-size="10.00">_mesh_root</text>
</a>
</g>
</g>
<!-- Node2&#45;&gt;Node3 -->
<g id="edge2_Node000002_Node000003" class="edge">
<title>Node2&#45;&gt;Node3</title>
<g id="a_edge2_Node000002_Node000003"><a xlink:title=" ">
<path fill="none" stroke="#63b8ff" d="M316.23,-301.61C331.96,-303.8 348.41,-306.09 363.93,-308.25"/>
<polygon fill="#63b8ff" stroke="#63b8ff" points="363.59,-311.74 373.98,-309.65 364.55,-304.8 363.59,-311.74"/>
</a>
</g>
</g>
<!-- Node4 -->
<g id="Node000004" class="node">
<title>Node4</title>
<g id="a_Node000004"><a xlink:href="classwmtk_1_1multimesh_1_1_multi_mesh_manager.html#a434e74f6b295055a45914d41a784124a" target="_top" xlink:title=" ">
<polygon fill="white" stroke="#666666" points="721,-305.5 561,-305.5 561,-275.5 721,-275.5 721,-305.5"/>
<text text-anchor="start" x="569" y="-293.5" font-family="Helvetica,sans-Serif" font-size="10.00">wmtk::multimesh::MultiMesh</text>
<text text-anchor="middle" x="641" y="-282.5" font-family="Helvetica,sans-Serif" font-size="10.00">Manager::get_root_mesh</text>
</a>
</g>
</g>
<!-- Node3&#45;&gt;Node4 -->
<g id="edge3_Node000003_Node000004" class="edge">
<title>Node3&#45;&gt;Node4</title>
<g id="a_edge3_Node000003_Node000004"><a xlink:title=" ">
<path fill="none" stroke="#63b8ff" d="M503.21,-309.6C518.41,-307.48 534.9,-305.18 551,-302.93"/>
<polygon fill="#63b8ff" stroke="#63b8ff" points="551.54,-306.39 560.95,-301.54 550.57,-299.46 551.54,-306.39"/>
</a>
</g>
</g>
<!-- Node4&#45;&gt;Node4 -->
<g id="edge4_Node000004_Node000004" class="edge">
<title>Node4&#45;&gt;Node4</title>
<g id="a_edge4_Node000004_Node000004"><a xlink:title=" ">
<path fill="none" stroke="#63b8ff" d="M606.55,-305.78C598.89,-314.91 610.38,-323.5 641,-323.5 659.18,-323.5 670.62,-320.47 675.31,-316.1"/>
<polygon fill="#63b8ff" stroke="#63b8ff" points="678.81,-315.82 675.45,-305.78 671.81,-315.72 678.81,-315.82"/>
</a>
</g>
</g>
<!-- Node5 -->
<g id="Node000005" class="node">
<title>Node5</title>
<g id="a_Node000005"><a xlink:href="classwmtk_1_1multimesh_1_1_multi_mesh_manager.html#a7d39339adb56b1798fe817d81bfcc67c" target="_top" xlink:title="Specifies whether this structure is the root of a multi&#45;mesh tree.">
<polygon fill="white" stroke="#666666" points="917,-207.5 757,-207.5 757,-177.5 917,-177.5 917,-207.5"/>
<text text-anchor="start" x="765" y="-195.5" font-family="Helvetica,sans-Serif" font-size="10.00">wmtk::multimesh::MultiMesh</text>
<text text-anchor="middle" x="837" y="-184.5" font-family="Helvetica,sans-Serif" font-size="10.00">Manager::is_root</text>
</a>
</g>
</g>
<!-- Node4&#45;&gt;Node5 -->
<g id="edge5_Node000004_Node000005" class="edge">
<title>Node4&#45;&gt;Node5</title>
<g id="a_edge5_Node000004_Node000005"><a xlink:title=" ">
<path fill="none" stroke="#63b8ff" d="M671.89,-275.4C705.5,-258.43 760.19,-230.8 797.1,-212.15"/>
<polygon fill="#63b8ff" stroke="#63b8ff" points="798.73,-215.25 806.08,-207.61 795.57,-209 798.73,-215.25"/>
</a>
</g>
</g>
<!-- Node7 -->
<g id="Node000007" class="node">
<title>Node7</title>
<g id="a_Node000007"><a xlink:href="classwmtk_1_1_tuple.html#a0023f575be92cd5ceeeaaaa3762ea06d" target="_top" xlink:title="Checks if a tuple is &quot;null&quot;. This merely implies the global index is &#45;1.">
<polygon fill="white" stroke="#666666" points="495,-285 382,-285 382,-266 495,-266 495,-285"/>
<text text-anchor="middle" x="438.5" y="-273" font-family="Helvetica,sans-Serif" font-size="10.00">wmtk::Tuple::is_null</text>
</a>
</g>
</g>
<!-- Node6&#45;&gt;Node7 -->
<g id="edge7_Node000006_Node000007" class="edge">
<title>Node6&#45;&gt;Node7</title>
<g id="a_edge7_Node000006_Node000007"><a xlink:title=" ">
<path fill="none" stroke="#63b8ff" d="M263.8,-230.12C287.06,-238.1 321.47,-249.42 352,-257.5 360.42,-259.73 369.36,-261.86 378.16,-263.83"/>
<polygon fill="#63b8ff" stroke="#63b8ff" points="377.5,-267.27 388.02,-265.98 378.99,-260.43 377.5,-267.27"/>
</a>
</g>
</g>
<!-- Node8 -->
<g id="Node000008" class="node">
<title>Node8</title>
<g id="a_Node000008"><a xlink:href="classwmtk_1_1_mesh.html#ade176d345902d97af8c5da04aa3a095b" target="_top" xlink:title=" ">
<polygon fill="white" stroke="#666666" points="508.5,-230 368.5,-230 368.5,-211 508.5,-211 508.5,-230"/>
<text text-anchor="middle" x="438.5" y="-218" font-family="Helvetica,sans-Serif" font-size="10.00">wmtk::Mesh::is_removed</text>
</a>
</g>
</g>
<!-- Node6&#45;&gt;Node8 -->
<g id="edge8_Node000006_Node000008" class="edge">
<title>Node6&#45;&gt;Node8</title>
<g id="a_edge8_Node000006_Node000008"><a xlink:title=" ">
<path fill="none" stroke="#63b8ff" d="M295.72,-220.5C315.32,-220.5 337.47,-220.5 358.32,-220.5"/>
<polygon fill="#63b8ff" stroke="#63b8ff" points="358.44,-224 368.44,-220.5 358.44,-217 358.44,-224"/>
</a>
</g>
</g>
<!-- Node10 -->
<g id="Node000010" class="node">
<title>Node10</title>
<g id="a_Node000010"><a xlink:href="namespacewmtk.html#a6a35f11c12436093d26fdd8be6fecc06" target="_top" xlink:title="Retrieves the current logger.">
<polygon fill="white" stroke="#666666" points="479,-193 398,-193 398,-174 479,-174 479,-193"/>
<text text-anchor="middle" x="438.5" y="-181" font-family="Helvetica,sans-Serif" font-size="10.00">wmtk::logger</text>
</a>
</g>
</g>
<!-- Node6&#45;&gt;Node10 -->
<g id="edge11_Node000006_Node000010" class="edge">
<title>Node6&#45;&gt;Node10</title>
<g id="a_edge11_Node000006_Node000010"><a xlink:title=" ">
<path fill="none" stroke="#63b8ff" d="M288.26,-210.97C318.99,-205.32 357.73,-198.18 388.04,-192.6"/>
<polygon fill="#63b8ff" stroke="#63b8ff" points="388.77,-196.03 397.97,-190.78 387.5,-189.14 388.77,-196.03"/>
</a>
</g>
</g>
<!-- Node8&#45;&gt;Node8 -->
<g id="edge10_Node000008_Node000008" class="edge">
<title>Node8&#45;&gt;Node8</title>
<g id="a_edge10_Node000008_Node000008"><a xlink:title=" ">
<path fill="none" stroke="#63b8ff" d="M407.37,-230.08C392.22,-238.73 402.6,-248 438.5,-248 463.74,-248 476.37,-243.42 476.37,-237.69"/>
<polygon fill="#63b8ff" stroke="#63b8ff" points="478.89,-235.25 469.63,-230.08 473.65,-239.89 478.89,-235.25"/>
</a>
</g>
</g>
<!-- Node9 -->
<g id="Node000009" class="node">
<title>Node9</title>
<g id="a_Node000009"><a xlink:href="classwmtk_1_1_tuple.html#aef64a43ff5f5617dbc99d865356bbc25" target="_top" xlink:title=" ">
<polygon fill="white" stroke="#666666" points="706.5,-230 575.5,-230 575.5,-211 706.5,-211 706.5,-230"/>
<text text-anchor="middle" x="641" y="-218" font-family="Helvetica,sans-Serif" font-size="10.00">wmtk::Tuple::global_cid</text>
</a>
</g>
</g>
<!-- Node8&#45;&gt;Node9 -->
<g id="edge9_Node000008_Node000009" class="edge">
<title>Node8&#45;&gt;Node9</title>
<g id="a_edge9_Node000008_Node000009"><a xlink:title=" ">
<path fill="none" stroke="#63b8ff" d="M508.5,-220.5C526.76,-220.5 546.55,-220.5 565.1,-220.5"/>
<polygon fill="#63b8ff" stroke="#63b8ff" points="565.26,-224 575.26,-220.5 565.26,-217 565.26,-224"/>
</a>
</g>
</g>
<!-- Node11 -->
<g id="Node000011" class="node">
<title>Node11</title>
<g id="a_Node000011"><a xlink:href="namespacewmtk.html#a3daa7951a5f8b78cf4600dc047fcc180" target="_top" xlink:title="Setup a logger object to be used by WildmeshToolkit.">
<polygon fill="white" stroke="#666666" points="691.5,-193 590.5,-193 590.5,-174 691.5,-174 691.5,-193"/>
<text text-anchor="middle" x="641" y="-181" font-family="Helvetica,sans-Serif" font-size="10.00">wmtk::set_logger</text>
</a>
</g>
</g>
<!-- Node10&#45;&gt;Node11 -->
<g id="edge12_Node000010_Node000011" class="edge">
<title>Node10&#45;&gt;Node11</title>
<g id="a_edge12_Node000010_Node000011"><a xlink:title=" ">
<path fill="none" stroke="#63b8ff" d="M479.11,-183.5C507.84,-183.5 547.22,-183.5 579.82,-183.5"/>
<polygon fill="#63b8ff" stroke="#63b8ff" points="580.15,-187 590.15,-183.5 580.15,-180 580.15,-187"/>
</a>
</g>
</g>
<!-- Node13 -->
<g id="Node000013" class="node">
<title>Node13</title>
<g id="a_Node000013"><a xlink:href="classwmtk_1_1multimesh_1_1_multi_mesh_manager.html#ae0a6966669a330ff022fb795818c90f3" target="_top" xlink:title=" ">
<polygon fill="white" stroke="#666666" points="521.5,-137.5 355.5,-137.5 355.5,-107.5 521.5,-107.5 521.5,-137.5"/>
<text text-anchor="start" x="363.5" y="-125.5" font-family="Helvetica,sans-Serif" font-size="10.00">wmtk::multimesh::MultiMesh</text>
<text text-anchor="middle" x="438.5" y="-114.5" font-family="Helvetica,sans-Serif" font-size="10.00">Manager::map_to_child_tuples</text>
</a>
</g>
</g>
<!-- Node12&#45;&gt;Node13 -->
<g id="edge14_Node000012_Node000013" class="edge">
<title>Node12&#45;&gt;Node13</title>
<g id="a_edge14_Node000012_Node000013"><a xlink:title=" ">
<path fill="none" stroke="#63b8ff" d="M315.65,-107.95C325.35,-109.11 335.34,-110.3 345.21,-111.48"/>
<polygon fill="#63b8ff" stroke="#63b8ff" points="345.1,-114.99 355.45,-112.7 345.93,-108.04 345.1,-114.99"/>
</a>
</g>
</g>
<!-- Node15 -->
<g id="Node000015" class="node">
<title>Node15</title>
<g id="a_Node000015"><a xlink:href="classwmtk_1_1simplex_1_1_simplex.html#ad2cc0340a0772b7d6f03ba7a781d1163" target="_top" xlink:title=" ">
<polygon fill="white" stroke="#666666" points="506,-89.5 371,-89.5 371,-59.5 506,-59.5 506,-89.5"/>
<text text-anchor="start" x="379" y="-77.5" font-family="Helvetica,sans-Serif" font-size="10.00">wmtk::simplex::Simplex</text>
<text text-anchor="middle" x="438.5" y="-66.5" font-family="Helvetica,sans-Serif" font-size="10.00">::primitive_type</text>
</a>
</g>
</g>
<!-- Node12&#45;&gt;Node15 -->
<g id="edge18_Node000012_Node000015" class="edge">
<title>Node12&#45;&gt;Node15</title>
<g id="a_edge18_Node000012_Node000015"><a xlink:title=" ">
<path fill="none" stroke="#63b8ff" d="M315.65,-89.05C330.47,-87.28 345.94,-85.43 360.68,-83.67"/>
<polygon fill="#63b8ff" stroke="#63b8ff" points="361.24,-87.13 370.76,-82.47 360.41,-80.18 361.24,-87.13"/>
</a>
</g>
</g>
<!-- Node16 -->
<g id="Node000016" class="node">
<title>Node16</title>
<g id="a_Node000016"><a xlink:href="namespacewmtk_1_1simplex_1_1utils.html#abc97acf22bd5eb87df2b16ad3b372cfb" target="_top" xlink:title=" ">
<polygon fill="white" stroke="#666666" points="525,-41 352,-41 352,0 525,0 525,-41"/>
<text text-anchor="start" x="360" y="-29" font-family="Helvetica,sans-Serif" font-size="10.00">wmtk::simplex::utils</text>
<text text-anchor="start" x="360" y="-18" font-family="Helvetica,sans-Serif" font-size="10.00">::tuple_vector_to_homogeneous</text>
<text text-anchor="middle" x="438.5" y="-7" font-family="Helvetica,sans-Serif" font-size="10.00">_simplex_vector</text>
</a>
</g>
</g>
<!-- Node12&#45;&gt;Node16 -->
<g id="edge19_Node000012_Node000016" class="edge">
<title>Node12&#45;&gt;Node16</title>
<g id="a_edge19_Node000012_Node000016"><a xlink:title=" ">
<path fill="none" stroke="#63b8ff" d="M271.17,-83.49C294,-73.76 324.62,-60.98 352,-50.5 357.14,-48.53 362.48,-46.54 367.85,-44.57"/>
<polygon fill="#63b8ff" stroke="#63b8ff" points="369.34,-47.75 377.55,-41.05 366.95,-41.17 369.34,-47.75"/>
</a>
</g>
</g>
<!-- Node13&#45;&gt;Node13 -->
<g id="edge17_Node000013_Node000013" class="edge">
<title>Node13&#45;&gt;Node13</title>
<g id="a_edge17_Node000013_Node000013"><a xlink:title=" ">
<path fill="none" stroke="#63b8ff" d="M402.99,-137.78C395.1,-146.91 406.94,-155.5 438.5,-155.5 457.24,-155.5 469.03,-152.47 473.86,-148.1"/>
<polygon fill="#63b8ff" stroke="#63b8ff" points="477.36,-147.83 474.01,-137.78 470.36,-147.72 477.36,-147.83"/>
</a>
</g>
</g>
<!-- Node14 -->
<g id="Node000014" class="node">
<title>Node14</title>
<g id="a_Node000014"><a xlink:href="classwmtk_1_1multimesh_1_1_multi_mesh_manager.html#a0fdf5c6dbc3b4d5254526fc7e29e3bbd" target="_top" xlink:title="Specifies the child id of this mesh if it a child mesh in a mult&#45;mesh tree.">
<polygon fill="white" stroke="#666666" points="721,-146.5 561,-146.5 561,-116.5 721,-116.5 721,-146.5"/>
<text text-anchor="start" x="569" y="-134.5" font-family="Helvetica,sans-Serif" font-size="10.00">wmtk::multimesh::MultiMesh</text>
<text text-anchor="middle" x="641" y="-123.5" font-family="Helvetica,sans-Serif" font-size="10.00">Manager::child_id</text>
</a>
</g>
</g>
<!-- Node13&#45;&gt;Node14 -->
<g id="edge15_Node000013_Node000014" class="edge">
<title>Node13&#45;&gt;Node14</title>
<g id="a_edge15_Node000013_Node000014"><a xlink:title=" ">
<path fill="none" stroke="#63b8ff" d="M521.63,-126.19C531.26,-126.62 541.12,-127.06 550.85,-127.5"/>
<polygon fill="#63b8ff" stroke="#63b8ff" points="550.76,-131 560.91,-127.95 551.08,-124 550.76,-131"/>
</a>
</g>
</g>
<!-- Node14&#45;&gt;Node5 -->
<g id="edge16_Node000014_Node000005" class="edge">
<title>Node14&#45;&gt;Node5</title>
<g id="a_edge16_Node000014_Node000005"><a xlink:title=" ">
<path fill="none" stroke="#63b8ff" d="M689.96,-146.58C716.75,-155.01 750.33,-165.56 778.53,-174.43"/>
<polygon fill="#63b8ff" stroke="#63b8ff" points="777.67,-177.83 788.26,-177.49 779.77,-171.15 777.67,-177.83"/>
</a>
</g>
</g>
</g>
</svg>
