<?xml version="1.0" encoding="UTF-8" standalone="no"?>
<!DOCTYPE svg PUBLIC "-//W3C//DTD SVG 1.1//EN"
 "http://www.w3.org/Graphics/SVG/1.1/DTD/svg11.dtd">
<!-- Generated by graphviz version 2.43.0 (0)
 -->
<!-- Title: wmtk::utils::TupleInspector::global_cid Pages: 1 -->
<!--zoomable 613 -->

<svg id="main" version="1.1" xmlns="http://www.w3.org/2000/svg" xmlns:xlink="http://www.w3.org/1999/xlink" xml:space="preserve" onload="init(evt)">
<style type="text/css"><![CDATA[
.node, .edge {opacity: 0.7;}
.node.selected, .edge.selected {opacity: 1;}
.edge:hover path { stroke: red; }
.edge:hover polygon { stroke: red; fill: red; }
]]></style>

<defs>
  <circle id="rim" cx="0" cy="0" r="7"/>
  <circle id="rim2" cx="0" cy="0" r="3.5"/>
  <g id="zoomPlus">
    <use xlink:href="#rim" fill="#404040"><set attributeName="fill" to="#808080" begin="zoomplus.mouseover" end="zoomplus.mouseout"/></use>
    <path d="M-4,0h8M0,-4v8" fill="none" stroke="white" stroke-width="1.5" pointer-events="none"/>
  </g>
  <g id="zoomMin">
    <use xlink:href="#rim" fill="#404040"><set attributeName="fill" to="#808080" begin="zoomminus.mouseover" end="zoomminus.mouseout"/></use>
    <path d="M-4,0h8" fill="none" stroke="white" stroke-width="1.5" pointer-events="none"/>
  </g>
  <g id="arrowUp" transform="translate(30 24)">
    <use xlink:href="#rim"/>
    <path pointer-events="none" fill="none" stroke="white" stroke-width="1.5" d="M0,-3.0v7 M-2.5,-0.5L0,-3.0L2.5,-0.5"/>
  </g>
  <g id="arrowRight" transform="rotate(90) translate(36 -43)">
    <use xlink:href="#rim"/>
    <path pointer-events="none" fill="none" stroke="white" stroke-width="1.5" d="M0,-3.0v7 M-2.5,-0.5L0,-3.0L2.5,-0.5"/>
  </g>
  <g id="arrowDown" transform="rotate(180) translate(-30 -48)">
    <use xlink:href="#rim"/>
    <path pointer-events="none" fill="none" stroke="white" stroke-width="1.5" d="M0,-3.0v7 M-2.5,-0.5L0,-3.0L2.5,-0.5"/>
  </g>
  <g id="arrowLeft" transform="rotate(270) translate(-36 17)">
    <use xlink:href="#rim"/>
    <path pointer-events="none" fill="none" stroke="white" stroke-width="1.5" d="M0,-3.0v7 M-2.5,-0.5L0,-3.0L2.5,-0.5"/>
  </g>
  <g id="resetDef">
    <use xlink:href="#rim2" fill="#404040"><set attributeName="fill" to="#808080" begin="reset.mouseover" end="reset.mouseout"/></use>
  </g>
</defs>
<script type="application/ecmascript">
var viewWidth = 1120;
var viewHeight = 613;
var sectionId = 'dynsection-2';
</script>
<script type="application/ecmascript" xlink:href="svg.min.js"/>
<svg id="graph" class="graph">
<g id="viewport">
<title>wmtk::utils::TupleInspector::global_cid</title>
<!-- Node1 -->
<g id="Node000001" class="node">
<title>Node1</title>
<g id="a_Node000001"><a xlink:title=" ">
<polygon fill="#999999" stroke="#666666" points="1112,-246 964,-246 964,-216 1112,-216 1112,-246"/>
<text text-anchor="start" x="972" y="-234" font-family="Helvetica,sans-Serif" font-size="10.00">wmtk::utils::TupleInspector</text>
<text text-anchor="middle" x="1038" y="-223" font-family="Helvetica,sans-Serif" font-size="10.00">::global_cid</text>
</a>
</g>
</g>
<!-- Node2 -->
<g id="Node000002" class="node">
<title>Node2</title>
<g id="a_Node000002"><a xlink:href="classwmtk_1_1simplex_1_1_top_dimension_cofaces_iterable_1_1_iterator.html#a6e2b9cb551390a78067ea5db8f078f61" target="_top" xlink:title=" ">
<polygon fill="white" stroke="#666666" points="922,-485.5 758,-485.5 758,-444.5 922,-444.5 922,-485.5"/>
<text text-anchor="start" x="766" y="-473.5" font-family="Helvetica,sans-Serif" font-size="10.00">wmtk::simplex::TopDimension</text>
<text text-anchor="start" x="766" y="-462.5" font-family="Helvetica,sans-Serif" font-size="10.00">CofacesIterable::Iterator</text>
<text text-anchor="middle" x="840" y="-451.5" font-family="Helvetica,sans-Serif" font-size="10.00">::add_neighbors_to_queue</text>
</a>
</g>
</g>
<!-- Node1&#45;&gt;Node2 -->
<g id="edge1_Node000001_Node000002" class="edge">
<title>Node1&#45;&gt;Node2</title>
<g id="a_edge1_Node000001_Node000002"><a xlink:title=" ">
<path fill="none" stroke="#63b8ff" d="M1030.19,-256.12C1017.32,-298.9 985.46,-386 928,-435 923.87,-438.52 919.3,-441.64 914.48,-444.4"/>
<polygon fill="#63b8ff" stroke="#63b8ff" points="1033.62,-256.83 1033.05,-246.25 1026.9,-254.88 1033.62,-256.83"/>
</a>
</g>
</g>
<!-- Node3 -->
<g id="Node000003" class="node">
<title>Node3</title>
<g id="a_Node000003"><a xlink:href="classwmtk_1_1utils_1_1_tuple_inspector.html#a7637fe37249cbe7262a4a5c931c40f75" target="_top" xlink:title=" ">
<polygon fill="white" stroke="#666666" points="914,-426 766,-426 766,-396 914,-396 914,-426"/>
<text text-anchor="start" x="774" y="-414" font-family="Helvetica,sans-Serif" font-size="10.00">wmtk::utils::TupleInspector</text>
<text text-anchor="middle" x="840" y="-403" font-family="Helvetica,sans-Serif" font-size="10.00">::as_string</text>
</a>
</g>
</g>
<!-- Node1&#45;&gt;Node3 -->
<g id="edge2_Node000001_Node000003" class="edge">
<title>Node1&#45;&gt;Node3</title>
<g id="a_edge2_Node000001_Node000003"><a xlink:title=" ">
<path fill="none" stroke="#63b8ff" d="M1026.54,-255.41C1010.46,-289.99 976.38,-352.82 928,-387 923.14,-390.44 917.8,-393.38 912.24,-395.9"/>
<polygon fill="#63b8ff" stroke="#63b8ff" points="1029.84,-256.61 1030.77,-246.05 1023.46,-253.72 1029.84,-256.61"/>
</a>
</g>
</g>
<!-- Node14 -->
<g id="Node000014" class="node">
<title>Node14</title>
<g id="a_Node000014"><a xlink:href="classwmtk_1_1autogen_1_1_simplex_dart.html#ad8072620217a67aaf9d0cd2ec1421f60" target="_top" xlink:title=" ">
<polygon fill="white" stroke="#666666" points="918.5,-378 761.5,-378 761.5,-348 918.5,-348 918.5,-378"/>
<text text-anchor="start" x="769.5" y="-366" font-family="Helvetica,sans-Serif" font-size="10.00">wmtk::autogen::SimplexDart</text>
<text text-anchor="middle" x="840" y="-355" font-family="Helvetica,sans-Serif" font-size="10.00">::dart_from_tuple</text>
</a>
</g>
</g>
<!-- Node1&#45;&gt;Node14 -->
<g id="edge15_Node000001_Node000014" class="edge">
<title>Node1&#45;&gt;Node14</title>
<g id="a_edge15_Node000001_Node000014"><a xlink:title=" ">
<path fill="none" stroke="#63b8ff" d="M1019.43,-254.47C999.78,-279.08 965.74,-317.14 928,-339 922.03,-342.46 915.55,-345.43 908.9,-347.99"/>
<polygon fill="#63b8ff" stroke="#63b8ff" points="1022.35,-256.41 1025.76,-246.38 1016.84,-252.1 1022.35,-256.41"/>
</a>
</g>
</g>
<!-- Node17 -->
<g id="Node000017" class="node">
<title>Node17</title>
<g id="a_Node000017"><a xlink:href="classwmtk_1_1operations_1_1internal_1_1_split_alternate_facet_data.html#a1e89ba699efda4818d81a6b8d2f38057" target="_top" xlink:title=" ">
<polygon fill="white" stroke="#666666" points="913,-329.5 767,-329.5 767,-288.5 913,-288.5 913,-329.5"/>
<text text-anchor="start" x="775" y="-317.5" font-family="Helvetica,sans-Serif" font-size="10.00">wmtk::operations::internal</text>
<text text-anchor="start" x="775" y="-306.5" font-family="Helvetica,sans-Serif" font-size="10.00">::SplitAlternateFacetData</text>
<text text-anchor="middle" x="840" y="-295.5" font-family="Helvetica,sans-Serif" font-size="10.00">::get_alternative</text>
</a>
</g>
</g>
<!-- Node1&#45;&gt;Node17 -->
<g id="edge18_Node000001_Node000017" class="edge">
<title>Node1&#45;&gt;Node17</title>
<g id="a_edge18_Node000001_Node000017"><a xlink:title=" ">
<path fill="none" stroke="#63b8ff" d="M995.18,-250.39C975.04,-259.47 950.44,-270.21 928,-279 919.82,-282.21 911.14,-285.42 902.55,-288.49"/>
<polygon fill="#63b8ff" stroke="#63b8ff" points="996.73,-253.53 1004.39,-246.21 993.83,-247.15 996.73,-253.53"/>
</a>
</g>
</g>
<!-- Node18 -->
<g id="Node000018" class="node">
<title>Node18</title>
<g id="a_Node000018"><a xlink:href="classwmtk_1_1simplex_1_1_top_dimension_cofaces_iterable_1_1_iterator.html#ad4c0bee607f050aba717384956e5b433" target="_top" xlink:title="Depending on the depth, the iterator must be initialized differently.">
<polygon fill="white" stroke="#666666" points="922,-270 758,-270 758,-240 922,-240 922,-270"/>
<text text-anchor="start" x="766" y="-258" font-family="Helvetica,sans-Serif" font-size="10.00">wmtk::simplex::TopDimension</text>
<text text-anchor="middle" x="840" y="-247" font-family="Helvetica,sans-Serif" font-size="10.00">CofacesIterable::Iterator::init</text>
</a>
</g>
</g>
<!-- Node1&#45;&gt;Node18 -->
<g id="edge19_Node000001_Node000018" class="edge">
<title>Node1&#45;&gt;Node18</title>
<g id="a_edge19_Node000001_Node000018"><a xlink:title=" ">
<path fill="none" stroke="#63b8ff" d="M953.76,-241.19C943.26,-242.48 932.53,-243.79 922.07,-245.07"/>
<polygon fill="#63b8ff" stroke="#63b8ff" points="954.24,-244.66 963.74,-239.97 953.39,-237.71 954.24,-244.66"/>
</a>
</g>
</g>
<!-- Node20 -->
<g id="Node000020" class="node">
<title>Node20</title>
<g id="a_Node000020"><a xlink:href="namespacewmtk_1_1autogen_1_1edge__mesh.html#a4a05a2b6b2c2456ec5c1713ae96fd854" target="_top" xlink:title=" ">
<polygon fill="white" stroke="#666666" points="912.5,-222 767.5,-222 767.5,-192 912.5,-192 912.5,-222"/>
<text text-anchor="start" x="775.5" y="-210" font-family="Helvetica,sans-Serif" font-size="10.00">wmtk::autogen::edge</text>
<text text-anchor="middle" x="840" y="-199" font-family="Helvetica,sans-Serif" font-size="10.00">_mesh::local_switch_tuple</text>
</a>
</g>
</g>
<!-- Node1&#45;&gt;Node20 -->
<g id="edge21_Node000001_Node000020" class="edge">
<title>Node1&#45;&gt;Node20</title>
<g id="a_edge21_Node000001_Node000020"><a xlink:title=" ">
<path fill="none" stroke="#63b8ff" d="M953.42,-220.77C939.82,-219.1 925.83,-217.39 912.55,-215.76"/>
<polygon fill="#63b8ff" stroke="#63b8ff" points="953.39,-224.29 963.74,-222.03 954.24,-217.34 953.39,-224.29"/>
</a>
</g>
</g>
<!-- Node21 -->
<g id="Node000021" class="node">
<title>Node21</title>
<g id="a_Node000021"><a xlink:href="namespacewmtk_1_1autogen_1_1tri__mesh.html#a5752d2943ce38291c6da0696d89e62ee" target="_top" xlink:title=" ">
<polygon fill="white" stroke="#666666" points="912.5,-174 767.5,-174 767.5,-144 912.5,-144 912.5,-174"/>
<text text-anchor="start" x="775.5" y="-162" font-family="Helvetica,sans-Serif" font-size="10.00">wmtk::autogen::tri</text>
<text text-anchor="middle" x="840" y="-151" font-family="Helvetica,sans-Serif" font-size="10.00">_mesh::local_switch_tuple</text>
</a>
</g>
</g>
<!-- Node1&#45;&gt;Node21 -->
<g id="edge22_Node000001_Node000021" class="edge">
<title>Node1&#45;&gt;Node21</title>
<g id="a_edge22_Node000001_Node000021"><a xlink:title=" ">
<path fill="none" stroke="#63b8ff" d="M996.75,-211.59C976.42,-202.23 951.21,-191.26 928,-183 919.14,-179.85 909.66,-176.85 900.33,-174.12"/>
<polygon fill="#63b8ff" stroke="#63b8ff" points="995.47,-214.86 1006.01,-215.91 998.42,-208.51 995.47,-214.86"/>
</a>
</g>
</g>
<!-- Node22 -->
<g id="Node000022" class="node">
<title>Node22</title>
<g id="a_Node000022"><a xlink:href="namespacewmtk_1_1autogen_1_1tet__mesh.html#a3742632b545c5a67fda78a6b4112cc9a" target="_top" xlink:title=" ">
<polygon fill="white" stroke="#666666" points="912.5,-126 767.5,-126 767.5,-96 912.5,-96 912.5,-126"/>
<text text-anchor="start" x="775.5" y="-114" font-family="Helvetica,sans-Serif" font-size="10.00">wmtk::autogen::tet</text>
<text text-anchor="middle" x="840" y="-103" font-family="Helvetica,sans-Serif" font-size="10.00">_mesh::local_switch_tuple</text>
</a>
</g>
</g>
<!-- Node1&#45;&gt;Node22 -->
<g id="edge23_Node000001_Node000022" class="edge">
<title>Node1&#45;&gt;Node22</title>
<g id="a_edge23_Node000001_Node000022"><a xlink:title=" ">
<path fill="none" stroke="#63b8ff" d="M1017.26,-208.48C996.95,-186.65 963.36,-154.12 928,-135 921.66,-131.57 914.79,-128.6 907.78,-126.03"/>
<polygon fill="#63b8ff" stroke="#63b8ff" points="1014.8,-210.97 1024.13,-216 1019.97,-206.25 1014.8,-210.97"/>
</a>
</g>
</g>
<!-- Node23 -->
<g id="Node000023" class="node">
<title>Node23</title>
<g id="a_Node000023"><a xlink:href="namespacewmtk_1_1multimesh_1_1utils.html#a549e2fe8d4c13dbff21cc5ee09334678" target="_top" xlink:title=" ">
<polygon fill="white" stroke="#666666" points="905,-78 775,-78 775,-48 905,-48 905,-78"/>
<text text-anchor="start" x="783" y="-66" font-family="Helvetica,sans-Serif" font-size="10.00">wmtk::multimesh::utils</text>
<text text-anchor="middle" x="840" y="-55" font-family="Helvetica,sans-Serif" font-size="10.00">::tuple_to_vector5</text>
</a>
</g>
</g>
<!-- Node1&#45;&gt;Node23 -->
<g id="edge24_Node000001_Node000023" class="edge">
<title>Node1&#45;&gt;Node23</title>
<g id="a_edge24_Node000001_Node000023"><a xlink:title=" ">
<path fill="none" stroke="#63b8ff" d="M1025.04,-206.57C1007.99,-174.3 973.62,-117.94 928,-87 921.13,-82.34 913.37,-78.58 905.39,-75.55"/>
<polygon fill="#63b8ff" stroke="#63b8ff" points="1022.09,-208.47 1029.77,-215.76 1028.31,-205.27 1022.09,-208.47"/>
</a>
</g>
</g>
<!-- Node26 -->
<g id="Node000026" class="node">
<title>Node26</title>
<g id="a_Node000026"><a xlink:href="classwmtk_1_1autogen_1_1_simplex_dart.html#a4ccdc5dc677a964c256bf5f2054d5500" target="_top" xlink:title=" ">
<polygon fill="white" stroke="#666666" points="928,-30 752,-30 752,0 928,0 928,-30"/>
<text text-anchor="start" x="760" y="-18" font-family="Helvetica,sans-Serif" font-size="10.00">wmtk::autogen::SimplexDart</text>
<text text-anchor="middle" x="840" y="-7" font-family="Helvetica,sans-Serif" font-size="10.00">::update_tuple_from_valid_index</text>
</a>
</g>
</g>
<!-- Node1&#45;&gt;Node26 -->
<g id="edge27_Node000001_Node000026" class="edge">
<title>Node1&#45;&gt;Node26</title>
<g id="a_edge27_Node000001_Node000026"><a xlink:title=" ">
<path fill="none" stroke="#63b8ff" d="M1029.78,-206.11C1016.55,-164.97 984.47,-82.99 928,-39 923.55,-35.53 918.63,-32.57 913.46,-30.03"/>
<polygon fill="#63b8ff" stroke="#63b8ff" points="1026.51,-207.35 1032.81,-215.87 1033.19,-205.28 1026.51,-207.35"/>
</a>
</g>
</g>
<!-- Node4 -->
<g id="Node000004" class="node">
<title>Node4</title>
<g id="a_Node000004"><a xlink:href="classwmtk_1_1multimesh_1_1utils_1_1_map_validator.html#ad658ed6db8a746e8f5400b3cf1014a5b" target="_top" xlink:title=" ">
<polygon fill="white" stroke="#666666" points="703.5,-560.5 549.5,-560.5 549.5,-519.5 703.5,-519.5 703.5,-560.5"/>
<text text-anchor="start" x="557.5" y="-548.5" font-family="Helvetica,sans-Serif" font-size="10.00">wmtk::multimesh::utils</text>
<text text-anchor="start" x="557.5" y="-537.5" font-family="Helvetica,sans-Serif" font-size="10.00">::MapValidator::check</text>
<text text-anchor="middle" x="626.5" y="-526.5" font-family="Helvetica,sans-Serif" font-size="10.00">_child_map_attributes_valid</text>
</a>
</g>
</g>
<!-- Node3&#45;&gt;Node4 -->
<g id="edge3_Node000003_Node000004" class="edge">
<title>Node3&#45;&gt;Node4</title>
<g id="a_edge3_Node000003_Node000004"><a xlink:title=" ">
<path fill="none" stroke="#63b8ff" d="M760.42,-430.63C757.49,-432.28 754.67,-434.06 752,-436 728.94,-452.71 736.87,-469.62 716,-489 703.14,-500.95 686.99,-511.28 672.02,-519.46"/>
<polygon fill="#63b8ff" stroke="#63b8ff" points="762.1,-433.7 769.46,-426.08 758.96,-427.45 762.1,-433.7"/>
</a>
</g>
</g>
<!-- Node9 -->
<g id="Node000009" class="node">
<title>Node9</title>
<g id="a_Node000009"><a xlink:href="classwmtk_1_1multimesh_1_1_multi_mesh_manager.html#ad1b3fcd12c4e092d9e92f2aa7db224bf" target="_top" xlink:title=" ">
<polygon fill="white" stroke="#666666" points="716,-480 537,-480 537,-450 716,-450 716,-480"/>
<text text-anchor="start" x="545" y="-468" font-family="Helvetica,sans-Serif" font-size="10.00">wmtk::multimesh::MultiMesh</text>
<text text-anchor="middle" x="626.5" y="-457" font-family="Helvetica,sans-Serif" font-size="10.00">Manager::check_child_map_valid</text>
</a>
</g>
</g>
<!-- Node3&#45;&gt;Node9 -->
<g id="edge8_Node000003_Node000009" class="edge">
<title>Node3&#45;&gt;Node9</title>
<g id="a_edge8_Node000003_Node000009"><a xlink:title=" ">
<path fill="none" stroke="#63b8ff" d="M770.3,-428.54C743.25,-435.45 712.49,-443.3 686.47,-449.95"/>
<polygon fill="#63b8ff" stroke="#63b8ff" points="771.26,-431.91 780.09,-426.04 769.53,-425.12 771.26,-431.91"/>
</a>
</g>
</g>
<!-- Node11 -->
<g id="Node000011" class="node">
<title>Node11</title>
<g id="a_Node000011"><a xlink:href="classwmtk_1_1multimesh_1_1utils_1_1_map_validator.html#a3904ef0aa73b2aa3b9f6c054686bf17f" target="_top" xlink:title=" ">
<polygon fill="white" stroke="#666666" points="708.5,-431.5 544.5,-431.5 544.5,-390.5 708.5,-390.5 708.5,-431.5"/>
<text text-anchor="start" x="552.5" y="-419.5" font-family="Helvetica,sans-Serif" font-size="10.00">wmtk::multimesh::utils</text>
<text text-anchor="start" x="552.5" y="-408.5" font-family="Helvetica,sans-Serif" font-size="10.00">::MapValidator::check</text>
<text text-anchor="middle" x="626.5" y="-397.5" font-family="Helvetica,sans-Serif" font-size="10.00">_child_switch_homomorphism</text>
</a>
</g>
</g>
<!-- Node3&#45;&gt;Node11 -->
<g id="edge10_Node000003_Node000011" class="edge">
<title>Node3&#45;&gt;Node11</title>
<g id="a_edge10_Node000003_Node000011"><a xlink:title=" ">
<path fill="none" stroke="#63b8ff" d="M755.81,-411C740.26,-411 724.03,-411 708.55,-411"/>
<polygon fill="#63b8ff" stroke="#63b8ff" points="755.92,-414.5 765.92,-411 755.92,-407.5 755.92,-414.5"/>
</a>
</g>
</g>
<!-- Node13 -->
<g id="Node000013" class="node">
<title>Node13</title>
<g id="a_Node000013"><a xlink:href="classwmtk_1_1multimesh_1_1utils_1_1_map_validator.html#a830d5603fe0ae9531b45f87eb70e09c2" target="_top" xlink:title=" ">
<polygon fill="white" stroke="#666666" points="499.5,-372.5 342.5,-372.5 342.5,-331.5 499.5,-331.5 499.5,-372.5"/>
<text text-anchor="start" x="350.5" y="-360.5" font-family="Helvetica,sans-Serif" font-size="10.00">wmtk::multimesh::utils</text>
<text text-anchor="start" x="350.5" y="-349.5" font-family="Helvetica,sans-Serif" font-size="10.00">::MapValidator::check</text>
<text text-anchor="middle" x="421" y="-338.5" font-family="Helvetica,sans-Serif" font-size="10.00">_parent_map_attribute_valid</text>
</a>
</g>
</g>
<!-- Node3&#45;&gt;Node13 -->
<g id="edge13_Node000003_Node000013" class="edge">
<title>Node3&#45;&gt;Node13</title>
<g id="a_edge13_Node000003_Node000013"><a xlink:title=" ">
<path fill="none" stroke="#63b8ff" d="M772.16,-393.58C754.03,-389.31 734.35,-385.09 716,-382 643.14,-369.75 559.23,-361.79 499.74,-357.17"/>
<polygon fill="#63b8ff" stroke="#63b8ff" points="771.51,-397.02 782.05,-395.95 773.14,-390.21 771.51,-397.02"/>
</a>
</g>
</g>
<!-- Node5 -->
<g id="Node000005" class="node">
<title>Node5</title>
<g id="a_Node000005"><a xlink:href="classwmtk_1_1multimesh_1_1utils_1_1_map_validator.html#a7c91255f342becd3f24ffa7bbaebeb3d" target="_top" xlink:title=" ">
<polygon fill="white" stroke="#666666" points="305,-426 166,-426 166,-396 305,-396 305,-426"/>
<text text-anchor="start" x="174" y="-414" font-family="Helvetica,sans-Serif" font-size="10.00">wmtk::multimesh::utils</text>
<text text-anchor="middle" x="235.5" y="-403" font-family="Helvetica,sans-Serif" font-size="10.00">::MapValidator::check_all</text>
</a>
</g>
</g>
<!-- Node4&#45;&gt;Node5 -->
<g id="edge4_Node000004_Node000005" class="edge">
<title>Node4&#45;&gt;Node5</title>
<g id="a_edge4_Node000004_Node000005"><a xlink:title=" ">
<path fill="none" stroke="#63b8ff" d="M578.18,-564.9C518.89,-592.37 415.98,-627.43 341,-585 278.9,-549.86 249.66,-461.44 240.15,-426.02"/>
<polygon fill="#63b8ff" stroke="#63b8ff" points="579.77,-568.02 587.31,-560.57 576.77,-561.7 579.77,-568.02"/>
</a>
</g>
</g>
<!-- Node7 -->
<g id="Node000007" class="node">
<title>Node7</title>
<g id="a_Node000007"><a xlink:href="namespacewmtk_1_1multimesh_1_1utils.html#a317686a1574920c114f02dac79146d5b" target="_top" xlink:title=" ">
<polygon fill="white" stroke="#666666" points="491.5,-576 350.5,-576 350.5,-546 491.5,-546 491.5,-576"/>
<text text-anchor="start" x="358.5" y="-564" font-family="Helvetica,sans-Serif" font-size="10.00">wmtk::multimesh::utils</text>
<text text-anchor="middle" x="421" y="-553" font-family="Helvetica,sans-Serif" font-size="10.00">::check_child_maps_valid</text>
</a>
</g>
</g>
<!-- Node4&#45;&gt;Node7 -->
<g id="edge6_Node000004_Node000007" class="edge">
<title>Node4&#45;&gt;Node7</title>
<g id="a_edge6_Node000004_Node000007"><a xlink:title=" ">
<path fill="none" stroke="#63b8ff" d="M539.1,-548.92C523.25,-550.55 506.88,-552.24 491.59,-553.82"/>
<polygon fill="#63b8ff" stroke="#63b8ff" points="539.85,-552.36 549.43,-547.85 539.13,-545.39 539.85,-552.36"/>
</a>
</g>
</g>
<!-- Node8 -->
<g id="Node000008" class="node">
<title>Node8</title>
<g id="a_Node000008"><a xlink:href="namespacewmtk_1_1multimesh_1_1utils.html#a72d2a49b74701d0d60edfe4408f4b5a0" target="_top" xlink:title=" ">
<polygon fill="white" stroke="#666666" points="493,-528 349,-528 349,-498 493,-498 493,-528"/>
<text text-anchor="start" x="357" y="-516" font-family="Helvetica,sans-Serif" font-size="10.00">wmtk::multimesh::utils</text>
<text text-anchor="middle" x="421" y="-505" font-family="Helvetica,sans-Serif" font-size="10.00">::check_parent_map_valid</text>
</a>
</g>
</g>
<!-- Node4&#45;&gt;Node8 -->
<g id="edge7_Node000004_Node000008" class="edge">
<title>Node4&#45;&gt;Node8</title>
<g id="a_edge7_Node000004_Node000008"><a xlink:title=" ">
<path fill="none" stroke="#63b8ff" d="M539.41,-528.58C524.04,-526.54 508.17,-524.43 493.26,-522.45"/>
<polygon fill="#63b8ff" stroke="#63b8ff" points="539.06,-532.06 549.43,-529.91 539.98,-525.12 539.06,-532.06"/>
</a>
</g>
</g>
<!-- Node6 -->
<g id="Node000006" class="node">
<title>Node6</title>
<g id="a_Node000006"><a xlink:href="namespacewmtk_1_1multimesh_1_1utils.html#abcc3f7f7a25879455cafc8a8f4304c4c" target="_top" xlink:title=" ">
<polygon fill="white" stroke="#666666" points="130,-426 0,-426 0,-396 130,-396 130,-426"/>
<text text-anchor="start" x="8" y="-414" font-family="Helvetica,sans-Serif" font-size="10.00">wmtk::multimesh::utils</text>
<text text-anchor="middle" x="65" y="-403" font-family="Helvetica,sans-Serif" font-size="10.00">::check_maps_valid</text>
</a>
</g>
</g>
<!-- Node5&#45;&gt;Node6 -->
<g id="edge5_Node000005_Node000006" class="edge">
<title>Node5&#45;&gt;Node6</title>
<g id="a_edge5_Node000005_Node000006"><a xlink:title=" ">
<path fill="none" stroke="#63b8ff" d="M155.89,-411C147.26,-411 138.55,-411 130.12,-411"/>
<polygon fill="#63b8ff" stroke="#63b8ff" points="155.96,-414.5 165.96,-411 155.96,-407.5 155.96,-414.5"/>
</a>
</g>
</g>
<!-- Node10 -->
<g id="Node000010" class="node">
<title>Node10</title>
<g id="a_Node000010"><a xlink:href="classwmtk_1_1multimesh_1_1_multi_mesh_manager.html#a01d41f4e6fd9e1c07166ac2470068eaf" target="_top" xlink:title="update all the hashes of the top&#45;simplces of the parent mesh around a vertex hashes of the parent tup...">
<polygon fill="white" stroke="#666666" points="501,-480 341,-480 341,-450 501,-450 501,-480"/>
<text text-anchor="start" x="349" y="-468" font-family="Helvetica,sans-Serif" font-size="10.00">wmtk::multimesh::MultiMesh</text>
<text text-anchor="middle" x="421" y="-457" font-family="Helvetica,sans-Serif" font-size="10.00">Manager::check_map_valid</text>
</a>
</g>
</g>
<!-- Node9&#45;&gt;Node10 -->
<g id="edge9_Node000009_Node000010" class="edge">
<title>Node9&#45;&gt;Node10</title>
<g id="a_edge9_Node000009_Node000010"><a xlink:title=" ">
<path fill="none" stroke="#63b8ff" d="M526.76,-465C518.15,-465 509.52,-465 501.1,-465"/>
<polygon fill="#63b8ff" stroke="#63b8ff" points="526.83,-468.5 536.83,-465 526.83,-461.5 526.83,-468.5"/>
</a>
</g>
</g>
<!-- Node12 -->
<g id="Node000012" class="node">
<title>Node12</title>
<g id="a_Node000012"><a xlink:href="classwmtk_1_1multimesh_1_1utils_1_1_map_validator.html#a68f039afe0e44da9486a4d3c38cf5bea" target="_top" xlink:title=" ">
<polygon fill="white" stroke="#666666" points="489,-431.5 353,-431.5 353,-390.5 489,-390.5 489,-431.5"/>
<text text-anchor="start" x="361" y="-419.5" font-family="Helvetica,sans-Serif" font-size="10.00">wmtk::multimesh::utils</text>
<text text-anchor="start" x="361" y="-408.5" font-family="Helvetica,sans-Serif" font-size="10.00">::MapValidator::check</text>
<text text-anchor="middle" x="421" y="-397.5" font-family="Helvetica,sans-Serif" font-size="10.00">_switch_homomorphism</text>
</a>
</g>
</g>
<!-- Node11&#45;&gt;Node12 -->
<g id="edge11_Node000011_Node000012" class="edge">
<title>Node11&#45;&gt;Node12</title>
<g id="a_edge11_Node000011_Node000012"><a xlink:title=" ">
<path fill="none" stroke="#63b8ff" d="M534.05,-411C518.89,-411 503.42,-411 489,-411"/>
<polygon fill="#63b8ff" stroke="#63b8ff" points="534.49,-414.5 544.49,-411 534.49,-407.5 534.49,-414.5"/>
</a>
</g>
</g>
<!-- Node12&#45;&gt;Node5 -->
<g id="edge12_Node000012_Node000005" class="edge">
<title>Node12&#45;&gt;Node5</title>
<g id="a_edge12_Node000012_Node000005"><a xlink:title=" ">
<path fill="none" stroke="#63b8ff" d="M342.63,-411C330.2,-411 317.4,-411 305.19,-411"/>
<polygon fill="#63b8ff" stroke="#63b8ff" points="342.97,-414.5 352.97,-411 342.97,-407.5 342.97,-414.5"/>
</a>
</g>
</g>
<!-- Node13&#45;&gt;Node5 -->
<g id="edge14_Node000013_Node000005" class="edge">
<title>Node13&#45;&gt;Node5</title>
<g id="a_edge14_Node000013_Node000005"><a xlink:title=" ">
<path fill="none" stroke="#63b8ff" d="M346.43,-375.66C325.18,-382.49 302.58,-389.75 283.43,-395.91"/>
<polygon fill="#63b8ff" stroke="#63b8ff" points="347.63,-378.95 356.08,-372.55 345.49,-372.28 347.63,-378.95"/>
</a>
</g>
</g>
<!-- Node15 -->
<g id="Node000015" class="node">
<title>Node15</title>
<g id="a_Node000015"><a xlink:href="classwmtk_1_1operations_1_1internal_1_1_collapse_alternate_facet_data.html#ad5d625ffe8c3c7b0e62c77cd2332f053" target="_top" xlink:title=" ">
<polygon fill="white" stroke="#666666" points="705.5,-333.5 547.5,-333.5 547.5,-292.5 705.5,-292.5 705.5,-333.5"/>
<text text-anchor="start" x="555.5" y="-321.5" font-family="Helvetica,sans-Serif" font-size="10.00">wmtk::operations::internal</text>
<text text-anchor="start" x="555.5" y="-310.5" font-family="Helvetica,sans-Serif" font-size="10.00">::CollapseAlternateFacetData</text>
<text text-anchor="middle" x="626.5" y="-299.5" font-family="Helvetica,sans-Serif" font-size="10.00">::get_alternatives</text>
</a>
</g>
</g>
<!-- Node14&#45;&gt;Node15 -->
<g id="edge16_Node000014_Node000015" class="edge">
<title>Node14&#45;&gt;Node15</title>
<g id="a_edge16_Node000014_Node000015"><a xlink:title=" ">
<path fill="none" stroke="#63b8ff" d="M765.56,-345.64C746.15,-341.05 725.14,-336.08 705.51,-331.44"/>
<polygon fill="#63b8ff" stroke="#63b8ff" points="765.01,-349.1 775.54,-348 766.62,-342.29 765.01,-349.1"/>
</a>
</g>
</g>
<!-- Node16 -->
<g id="Node000016" class="node">
<title>Node16</title>
<g id="a_Node000016"><a xlink:href="classwmtk_1_1operations_1_1internal_1_1_collapse_alternate_facet_data.html#aec408f6fcc5cb735d8761af17631bff9" target="_top" xlink:title=" ">
<polygon fill="white" stroke="#666666" points="500,-313.5 342,-313.5 342,-272.5 500,-272.5 500,-313.5"/>
<text text-anchor="start" x="350" y="-301.5" font-family="Helvetica,sans-Serif" font-size="10.00">wmtk::operations::internal</text>
<text text-anchor="start" x="350" y="-290.5" font-family="Helvetica,sans-Serif" font-size="10.00">::CollapseAlternateFacetData</text>
<text text-anchor="middle" x="421" y="-279.5" font-family="Helvetica,sans-Serif" font-size="10.00">::get_alternative</text>
</a>
</g>
</g>
<!-- Node15&#45;&gt;Node16 -->
<g id="edge17_Node000015_Node000016" class="edge">
<title>Node15&#45;&gt;Node16</title>
<g id="a_edge17_Node000015_Node000016"><a xlink:title=" ">
<path fill="none" stroke="#63b8ff" d="M537.16,-304.32C524.87,-303.11 512.31,-301.88 500.22,-300.69"/>
<polygon fill="#63b8ff" stroke="#63b8ff" points="537.11,-307.83 547.4,-305.32 537.79,-300.86 537.11,-307.83"/>
</a>
</g>
</g>
<!-- Node19 -->
<g id="Node000019" class="node">
<title>Node19</title>
<g id="a_Node000019"><a xlink:href="classwmtk_1_1simplex_1_1_top_dimension_cofaces_iterable_1_1_iterator.html#a8dc1ce9e52668e0bd579d9c7fe4d6626" target="_top" xlink:title=" ">
<polygon fill="white" stroke="#666666" points="708.5,-274.5 544.5,-274.5 544.5,-233.5 708.5,-233.5 708.5,-274.5"/>
<text text-anchor="start" x="552.5" y="-262.5" font-family="Helvetica,sans-Serif" font-size="10.00">wmtk::simplex::TopDimension</text>
<text text-anchor="start" x="552.5" y="-251.5" font-family="Helvetica,sans-Serif" font-size="10.00">CofacesIterable::Iterator</text>
<text text-anchor="middle" x="626.5" y="-240.5" font-family="Helvetica,sans-Serif" font-size="10.00">::Iterator</text>
</a>
</g>
</g>
<!-- Node18&#45;&gt;Node19 -->
<g id="edge20_Node000018_Node000019" class="edge">
<title>Node18&#45;&gt;Node19</title>
<g id="a_edge20_Node000018_Node000019"><a xlink:title=" ">
<path fill="none" stroke="#63b8ff" d="M747.57,-254.57C734.67,-254.51 721.49,-254.44 708.8,-254.38"/>
<polygon fill="#63b8ff" stroke="#63b8ff" points="747.82,-258.07 757.83,-254.62 747.85,-251.07 747.82,-258.07"/>
</a>
</g>
</g>
<!-- Node24 -->
<g id="Node000024" class="node">
<title>Node24</title>
<g id="a_Node000024"><a xlink:href="namespacewmtk_1_1multimesh_1_1utils.html#a1e2e083555fd22678fcf96094992aaae" target="_top" xlink:title=" ">
<polygon fill="white" stroke="#666666" points="691.5,-78 561.5,-78 561.5,-48 691.5,-48 691.5,-78"/>
<text text-anchor="start" x="569.5" y="-66" font-family="Helvetica,sans-Serif" font-size="10.00">wmtk::multimesh::utils</text>
<text text-anchor="middle" x="626.5" y="-55" font-family="Helvetica,sans-Serif" font-size="10.00">::tuple_to_vector</text>
</a>
</g>
</g>
<!-- Node23&#45;&gt;Node24 -->
<g id="edge25_Node000023_Node000024" class="edge">
<title>Node23&#45;&gt;Node24</title>
<g id="a_edge25_Node000023_Node000024"><a xlink:title=" ">
<path fill="none" stroke="#63b8ff" d="M764.9,-63C741.02,-63 714.78,-63 691.68,-63"/>
<polygon fill="#63b8ff" stroke="#63b8ff" points="764.97,-66.5 774.97,-63 764.97,-59.5 764.97,-66.5"/>
</a>
</g>
</g>
<!-- Node25 -->
<g id="Node000025" class="node">
<title>Node25</title>
<g id="a_Node000025"><a xlink:href="namespacewmtk_1_1multimesh_1_1utils.html#aa35461d0dfd6b7202351061ab67b5bc3" target="_top" xlink:title=" ">
<polygon fill="white" stroke="#666666" points="486,-78 356,-78 356,-48 486,-48 486,-78"/>
<text text-anchor="start" x="364" y="-66" font-family="Helvetica,sans-Serif" font-size="10.00">wmtk::multimesh::utils</text>
<text text-anchor="middle" x="421" y="-55" font-family="Helvetica,sans-Serif" font-size="10.00">::tuples_to_vectors</text>
</a>
</g>
</g>
<!-- Node24&#45;&gt;Node25 -->
<g id="edge26_Node000024_Node000025" class="edge">
<title>Node24&#45;&gt;Node25</title>
<g id="a_edge26_Node000024_Node000025"><a xlink:title=" ">
<path fill="none" stroke="#63b8ff" d="M551.38,-63C530,-63 506.86,-63 486.14,-63"/>
<polygon fill="#63b8ff" stroke="#63b8ff" points="551.39,-66.5 561.39,-63 551.39,-59.5 551.39,-66.5"/>
</a>
</g>
</g>
<!-- Node27 -->
<g id="Node000027" class="node">
<title>Node27</title>
<g id="a_Node000027"><a xlink:href="namespacewmtk_1_1multimesh_1_1utils.html#af803d30f20f8182d97c4e298c0bd7d59" target="_top" xlink:title=" ">
<polygon fill="white" stroke="#666666" points="691.5,-30 561.5,-30 561.5,0 691.5,0 691.5,-30"/>
<text text-anchor="start" x="569.5" y="-18" font-family="Helvetica,sans-Serif" font-size="10.00">wmtk::multimesh::utils</text>
<text text-anchor="middle" x="626.5" y="-7" font-family="Helvetica,sans-Serif" font-size="10.00">::transport_tuple</text>
</a>
</g>
</g>
<!-- Node26&#45;&gt;Node27 -->
<g id="edge28_Node000026_Node000027" class="edge">
<title>Node26&#45;&gt;Node27</title>
<g id="a_edge28_Node000026_Node000027"><a xlink:title=" ">
<path fill="none" stroke="#63b8ff" d="M741.3,-15C724.43,-15 707.29,-15 691.61,-15"/>
<polygon fill="#63b8ff" stroke="#63b8ff" points="741.75,-18.5 751.75,-15 741.75,-11.5 741.75,-18.5"/>
</a>
</g>
</g>
</g>
</svg>

<g id="navigator" transform="translate(0 0)" fill="#404254">
  <rect fill="#f2f5e9" fill-opacity="0.5" stroke="#606060" stroke-width=".5" x="0" y="0" width="60" height="60"/>
  <use id="zoomplus" xlink:href="#zoomPlus" x="17" y="9" onmousedown="handleZoom(evt,'in')"/>
  <use id="zoomminus" xlink:href="#zoomMin" x="42" y="9" onmousedown="handleZoom(evt,'out')"/>
  <use id="reset" xlink:href="#resetDef" x="30" y="36" onmousedown="handleReset()"/>
   <use id="arrowup" xlink:href="#arrowUp" x="0" y="0" onmousedown="handlePan(0,-1)"/>
  <use id="arrowright" xlink:href="#arrowRight" x="0" y="0" onmousedown="handlePan(1,0)"/>
  <use id="arrowdown" xlink:href="#arrowDown" x="0" y="0" onmousedown="handlePan(0,1)"/>
  <use id="arrowleft" xlink:href="#arrowLeft" x="0" y="0" onmousedown="handlePan(-1,0)"/>
</g>
<svg viewBox="0 0 15 15" width="100%" height="30px" preserveAspectRatio="xMaxYMin meet">
 <g id="arrow_out" transform="scale(0.3 0.3)">
  <a xlink:href="classwmtk_1_1utils_1_1_tuple_inspector_a5a92c6323c9678ae3785e395bc84d4a9_icgraph_org.svg" target="_base">
   <rect id="button" ry="5" rx="5" y="6" x="6" height="38" width="38"
        fill="#f2f5e9" fill-opacity="0.5" stroke="#606060" stroke-width="1.0"/>
   <path id="arrow"
     d="M 11.500037,31.436501 C 11.940474,20.09759 22.043105,11.32322 32.158766,21.979434 L 37.068811,17.246167 C 37.068811,17.246167 37.088388,32 37.088388,32 L 22.160133,31.978069 C 22.160133,31.978069 26.997745,27.140456 26.997745,27.140456 C 18.528582,18.264221 13.291696,25.230495 11.500037,31.436501 z"
     style="fill:#404040;"/>
  </a>
 </g>
</svg>

<style type='text/css'>
<![CDATA[
[data-mouse-over-selected='false'] { opacity: 0.7; }
[data-mouse-over-selected='true']  { opacity: 1.0; }
]]>
</style>
<script type="application/ecmascript"><![CDATA[
document.addEventListener('DOMContentLoaded', (event) => {
  highlightEdges();
  highlightAdjacentNodes();
});
]]></script>
</svg>
