<?xml version="1.0" encoding="UTF-8" standalone="no"?>
<!DOCTYPE svg PUBLIC "-//W3C//DTD SVG 1.1//EN"
 "http://www.w3.org/Graphics/SVG/1.1/DTD/svg11.dtd">
<!-- Generated by graphviz version 2.43.0 (0)
 -->
<!-- Title: wmtk::operations::composite::TriEdgeSwap::execute Pages: 1 -->
<svg width="741pt" height="332pt"
 viewBox="0.00 0.00 741.00 331.50" xmlns="http://www.w3.org/2000/svg" xmlns:xlink="http://www.w3.org/1999/xlink">
<g id="graph0" class="graph" transform="scale(1 1) rotate(0) translate(4 327.5)">
<title>wmtk::operations::composite::TriEdgeSwap::execute</title>
<!-- Node1 -->
<g id="Node000001" class="node">
<title>Node1</title>
<g id="a_Node000001"><a xlink:title="returns an empty vector in case of failure">
<polygon fill="#999999" stroke="#666666" points="159,-203.5 0,-203.5 0,-173.5 159,-173.5 159,-203.5"/>
<text text-anchor="start" x="8" y="-191.5" font-family="Helvetica,sans-Serif" font-size="10.00">wmtk::operations::composite</text>
<text text-anchor="middle" x="79.5" y="-180.5" font-family="Helvetica,sans-Serif" font-size="10.00">::TriEdgeSwap::execute</text>
</a>
</g>
</g>
<!-- Node2 -->
<g id="Node000002" class="node">
<title>Node2</title>
<g id="a_Node000002"><a xlink:href="classwmtk_1_1operations_1_1composite_1_1_edge_swap.html#ad914026fcf1c3231baa17dfdc2afa61a" target="_top" xlink:title=" ">
<polygon fill="white" stroke="#666666" points="355,-323.5 196,-323.5 196,-293.5 355,-293.5 355,-323.5"/>
<text text-anchor="start" x="204" y="-311.5" font-family="Helvetica,sans-Serif" font-size="10.00">wmtk::operations::composite</text>
<text text-anchor="middle" x="275.5" y="-300.5" font-family="Helvetica,sans-Serif" font-size="10.00">::EdgeSwap::collapse</text>
</a>
</g>
</g>
<!-- Node1&#45;&gt;Node2 -->
<g id="edge1_Node000001_Node000002" class="edge">
<title>Node1&#45;&gt;Node2</title>
<g id="a_edge1_Node000001_Node000002"><a xlink:title=" ">
<path fill="none" stroke="#63b8ff" d="M94.6,-203.69C114.89,-224.71 154.38,-262.55 195,-284.5 198.3,-286.28 201.75,-287.95 205.29,-289.51"/>
<polygon fill="#63b8ff" stroke="#63b8ff" points="204.23,-292.86 214.81,-293.39 206.87,-286.38 204.23,-292.86"/>
</a>
</g>
</g>
<!-- Node3 -->
<g id="Node000003" class="node">
<title>Node3</title>
<g id="a_Node000003"><a xlink:href="classwmtk_1_1simplex_1_1_simplex.html#a753a9245716f207b57cd92fcab5936e7" target="_top" xlink:title=" ">
<polygon fill="white" stroke="#666666" points="343,-275.5 208,-275.5 208,-245.5 343,-245.5 343,-275.5"/>
<text text-anchor="start" x="216" y="-263.5" font-family="Helvetica,sans-Serif" font-size="10.00">wmtk::simplex::Simplex</text>
<text text-anchor="middle" x="275.5" y="-252.5" font-family="Helvetica,sans-Serif" font-size="10.00">::edge</text>
</a>
</g>
</g>
<!-- Node1&#45;&gt;Node3 -->
<g id="edge2_Node000001_Node000003" class="edge">
<title>Node1&#45;&gt;Node3</title>
<g id="a_edge2_Node000001_Node000003"><a xlink:title=" ">
<path fill="none" stroke="#63b8ff" d="M114.21,-203.72C136.82,-213.66 167.41,-226.58 195,-236.5 200.48,-238.47 206.2,-240.41 211.96,-242.29"/>
<polygon fill="#63b8ff" stroke="#63b8ff" points="211.06,-245.68 221.65,-245.38 213.19,-239.01 211.06,-245.68"/>
</a>
</g>
</g>
<!-- Node5 -->
<g id="Node000005" class="node">
<title>Node5</title>
<g id="a_Node000005"><a xlink:href="classwmtk_1_1operations_1_1_operation.html#a741f1c2a8065cf4542ae47f3b6e19c17" target="_top" xlink:title=" ">
<polygon fill="white" stroke="#666666" points="353.5,-227.5 197.5,-227.5 197.5,-197.5 353.5,-197.5 353.5,-227.5"/>
<text text-anchor="start" x="205.5" y="-215.5" font-family="Helvetica,sans-Serif" font-size="10.00">wmtk::operations::Operation</text>
<text text-anchor="middle" x="275.5" y="-204.5" font-family="Helvetica,sans-Serif" font-size="10.00">::mesh</text>
</a>
</g>
</g>
<!-- Node1&#45;&gt;Node5 -->
<g id="edge4_Node000001_Node000005" class="edge">
<title>Node1&#45;&gt;Node5</title>
<g id="a_edge4_Node000001_Node000005"><a xlink:title=" ">
<path fill="none" stroke="#63b8ff" d="M159.13,-198.23C168.38,-199.37 177.87,-200.55 187.24,-201.7"/>
<polygon fill="#63b8ff" stroke="#63b8ff" points="186.98,-205.2 197.33,-202.95 187.84,-198.25 186.98,-205.2"/>
</a>
</g>
</g>
<!-- Node6 -->
<g id="Node000006" class="node">
<title>Node6</title>
<g id="a_Node000006"><a xlink:href="classwmtk_1_1operations_1_1composite_1_1_tri_edge_swap.html#a39329ea7632e9a86d74c466b30d38597" target="_top" xlink:title=" ">
<polygon fill="white" stroke="#666666" points="356,-179.5 195,-179.5 195,-149.5 356,-149.5 356,-179.5"/>
<text text-anchor="start" x="203" y="-167.5" font-family="Helvetica,sans-Serif" font-size="10.00">wmtk::operations::composite</text>
<text text-anchor="middle" x="275.5" y="-156.5" font-family="Helvetica,sans-Serif" font-size="10.00">::TriEdgeSwap::primitive_type</text>
</a>
</g>
</g>
<!-- Node1&#45;&gt;Node6 -->
<g id="edge5_Node000001_Node000006" class="edge">
<title>Node1&#45;&gt;Node6</title>
<g id="a_edge5_Node000001_Node000006"><a xlink:title=" ">
<path fill="none" stroke="#63b8ff" d="M159.13,-178.77C167.58,-177.73 176.23,-176.66 184.8,-175.6"/>
<polygon fill="#63b8ff" stroke="#63b8ff" points="185.32,-179.06 194.81,-174.36 184.46,-172.11 185.32,-179.06"/>
</a>
</g>
</g>
<!-- Node7 -->
<g id="Node000007" class="node">
<title>Node7</title>
<g id="a_Node000007"><a xlink:href="classwmtk_1_1operations_1_1composite_1_1_edge_swap.html#a1e81d5fcd561a0a29a42e909c831936b" target="_top" xlink:title=" ">
<polygon fill="white" stroke="#666666" points="355,-131.5 196,-131.5 196,-101.5 355,-101.5 355,-131.5"/>
<text text-anchor="start" x="204" y="-119.5" font-family="Helvetica,sans-Serif" font-size="10.00">wmtk::operations::composite</text>
<text text-anchor="middle" x="275.5" y="-108.5" font-family="Helvetica,sans-Serif" font-size="10.00">::EdgeSwap::split</text>
</a>
</g>
</g>
<!-- Node1&#45;&gt;Node7 -->
<g id="edge6_Node000001_Node000007" class="edge">
<title>Node1&#45;&gt;Node7</title>
<g id="a_edge6_Node000001_Node000007"><a xlink:title=" ">
<path fill="none" stroke="#63b8ff" d="M114.21,-173.28C136.82,-163.34 167.41,-150.42 195,-140.5 200.48,-138.53 206.2,-136.59 211.96,-134.71"/>
<polygon fill="#63b8ff" stroke="#63b8ff" points="213.19,-137.99 221.65,-131.62 211.06,-131.32 213.19,-137.99"/>
</a>
</g>
</g>
<!-- Node8 -->
<g id="Node000008" class="node">
<title>Node8</title>
<g id="a_Node000008"><a xlink:href="classwmtk_1_1_mesh.html#a7f8a7b7d592fdbf672f2c6c9653487ea" target="_top" xlink:title=" ">
<polygon fill="white" stroke="#666666" points="332.5,-83.5 218.5,-83.5 218.5,-53.5 332.5,-53.5 332.5,-83.5"/>
<text text-anchor="start" x="226.5" y="-71.5" font-family="Helvetica,sans-Serif" font-size="10.00">wmtk::Mesh::switch</text>
<text text-anchor="middle" x="275.5" y="-60.5" font-family="Helvetica,sans-Serif" font-size="10.00">_tuples</text>
</a>
</g>
</g>
<!-- Node1&#45;&gt;Node8 -->
<g id="edge7_Node000001_Node000008" class="edge">
<title>Node1&#45;&gt;Node8</title>
<g id="a_edge7_Node000001_Node000008"><a xlink:title=" ">
<path fill="none" stroke="#63b8ff" d="M94.6,-173.31C114.89,-152.29 154.38,-114.45 195,-92.5 199.29,-90.18 203.84,-88.05 208.5,-86.11"/>
<polygon fill="#63b8ff" stroke="#63b8ff" points="210.11,-89.24 218.17,-82.38 207.59,-82.71 210.11,-89.24"/>
</a>
</g>
</g>
<!-- Node4 -->
<g id="Node000004" class="node">
<title>Node4</title>
<g id="a_Node000004"><a xlink:href="classwmtk_1_1simplex_1_1_simplex.html#ab6d51ca0c220792c1c09824d152bb53a" target="_top" xlink:title=" ">
<polygon fill="white" stroke="#666666" points="544.5,-275.5 409.5,-275.5 409.5,-245.5 544.5,-245.5 544.5,-275.5"/>
<text text-anchor="start" x="417.5" y="-263.5" font-family="Helvetica,sans-Serif" font-size="10.00">wmtk::simplex::Simplex</text>
<text text-anchor="middle" x="477" y="-252.5" font-family="Helvetica,sans-Serif" font-size="10.00">::Simplex</text>
</a>
</g>
</g>
<!-- Node3&#45;&gt;Node4 -->
<g id="edge3_Node000003_Node000004" class="edge">
<title>Node3&#45;&gt;Node4</title>
<g id="a_edge3_Node000003_Node000004"><a xlink:title=" ">
<path fill="none" stroke="#63b8ff" d="M343.21,-260.5C361.18,-260.5 380.76,-260.5 399.23,-260.5"/>
<polygon fill="#63b8ff" stroke="#63b8ff" points="399.35,-264 409.35,-260.5 399.35,-257 399.35,-264"/>
</a>
</g>
</g>
<!-- Node9 -->
<g id="Node000009" class="node">
<title>Node9</title>
<g id="a_Node000009"><a xlink:href="classwmtk_1_1_mesh.html#a58bdbbfa0cd7bd9263241f6501db182a" target="_top" xlink:title="check if a simplex lies on a boundary or not">
<polygon fill="white" stroke="#666666" points="548,-143 406,-143 406,-124 548,-124 548,-143"/>
<text text-anchor="middle" x="477" y="-131" font-family="Helvetica,sans-Serif" font-size="10.00">wmtk::Mesh::is_boundary</text>
</a>
</g>
</g>
<!-- Node8&#45;&gt;Node9 -->
<g id="edge8_Node000008_Node000009" class="edge">
<title>Node8&#45;&gt;Node9</title>
<g id="a_edge8_Node000008_Node000009"><a xlink:title=" ">
<path fill="none" stroke="#63b8ff" d="M332.76,-83.52C340.68,-86.2 348.63,-89.2 356,-92.5 373.11,-100.16 374.62,-107.45 392,-114.5 398.33,-117.07 405.08,-119.33 411.89,-121.3"/>
<polygon fill="#63b8ff" stroke="#63b8ff" points="411.31,-124.77 421.87,-123.99 413.13,-118.01 411.31,-124.77"/>
</a>
</g>
</g>
<!-- Node12 -->
<g id="Node000012" class="node">
<title>Node12</title>
<g id="a_Node000012"><a xlink:href="classwmtk_1_1_mesh.html#a965a8a24158c4aa8580c57ba09f885f7" target="_top" xlink:title="switch the orientation of the Tuple of the given dimension">
<polygon fill="white" stroke="#666666" points="534,-105.5 420,-105.5 420,-75.5 534,-75.5 534,-105.5"/>
<text text-anchor="start" x="428" y="-93.5" font-family="Helvetica,sans-Serif" font-size="10.00">wmtk::Mesh::switch</text>
<text text-anchor="middle" x="477" y="-82.5" font-family="Helvetica,sans-Serif" font-size="10.00">_tuple</text>
</a>
</g>
</g>
<!-- Node8&#45;&gt;Node12 -->
<g id="edge12_Node000008_Node000012" class="edge">
<title>Node8&#45;&gt;Node12</title>
<g id="a_edge12_Node000008_Node000012"><a xlink:title=" ">
<path fill="none" stroke="#63b8ff" d="M332.6,-74.69C356.61,-77.33 384.82,-80.44 409.83,-83.2"/>
<polygon fill="#63b8ff" stroke="#63b8ff" points="409.65,-86.7 419.97,-84.32 410.42,-79.75 409.65,-86.7"/>
</a>
</g>
</g>
<!-- Node13 -->
<g id="Node000013" class="node">
<title>Node13</title>
<g id="a_Node000013"><a xlink:href="classwmtk_1_1_mesh.html#a933f681cf24a63b155c9462280385200" target="_top" xlink:title=" ">
<polygon fill="white" stroke="#666666" points="726,-50.5 605,-50.5 605,-20.5 726,-20.5 726,-50.5"/>
<text text-anchor="start" x="613" y="-38.5" font-family="Helvetica,sans-Serif" font-size="10.00">wmtk::Mesh::top_cell</text>
<text text-anchor="middle" x="665.5" y="-27.5" font-family="Helvetica,sans-Serif" font-size="10.00">_dimension</text>
</a>
</g>
</g>
<!-- Node8&#45;&gt;Node13 -->
<g id="edge13_Node000008_Node000013" class="edge">
<title>Node8&#45;&gt;Node13</title>
<g id="a_edge13_Node000008_Node000013"><a xlink:title=" ">
<path fill="none" stroke="#63b8ff" d="M332.5,-63.74C401.65,-57.86 519.3,-47.85 594.39,-41.46"/>
<polygon fill="#63b8ff" stroke="#63b8ff" points="595.02,-44.92 604.69,-40.59 594.43,-37.95 595.02,-44.92"/>
</a>
</g>
</g>
<!-- Node14 -->
<g id="Node000014" class="node">
<title>Node14</title>
<g id="a_Node000014"><a xlink:href="classwmtk_1_1_mesh.html#abaf00438d0700358b160e310d69725c9" target="_top" xlink:title=" ">
<polygon fill="white" stroke="#666666" points="562,-19 392,-19 392,0 562,0 562,-19"/>
<text text-anchor="middle" x="477" y="-7" font-family="Helvetica,sans-Serif" font-size="10.00">wmtk::Mesh::top_simplex_type</text>
</a>
</g>
</g>
<!-- Node8&#45;&gt;Node14 -->
<g id="edge14_Node000008_Node000014" class="edge">
<title>Node8&#45;&gt;Node14</title>
<g id="a_edge14_Node000008_Node000014"><a xlink:title=" ">
<path fill="none" stroke="#63b8ff" d="M325.63,-53.43C346.12,-47.18 370.19,-39.92 392,-33.5 405.1,-29.64 419.38,-25.53 432.38,-21.82"/>
<polygon fill="#63b8ff" stroke="#63b8ff" points="433.38,-25.17 442.04,-19.07 431.47,-18.44 433.38,-25.17"/>
</a>
</g>
</g>
<!-- Node9&#45;&gt;Node9 -->
<g id="edge9_Node000009_Node000009" class="edge">
<title>Node9&#45;&gt;Node9</title>
<g id="a_edge9_Node000009_Node000009"><a xlink:title=" ">
<path fill="none" stroke="#63b8ff" d="M448.02,-143.08C433.93,-151.73 443.59,-161 477,-161 499.97,-161 511.72,-156.62 512.23,-151.07"/>
<polygon fill="#63b8ff" stroke="#63b8ff" points="514.9,-148.8 505.98,-143.08 509.39,-153.11 514.9,-148.8"/>
</a>
</g>
</g>
<!-- Node10 -->
<g id="Node000010" class="node">
<title>Node10</title>
<g id="a_Node000010"><a xlink:href="classwmtk_1_1simplex_1_1_simplex.html#ad2cc0340a0772b7d6f03ba7a781d1163" target="_top" xlink:title=" ">
<polygon fill="white" stroke="#666666" points="733,-160.5 598,-160.5 598,-130.5 733,-130.5 733,-160.5"/>
<text text-anchor="start" x="606" y="-148.5" font-family="Helvetica,sans-Serif" font-size="10.00">wmtk::simplex::Simplex</text>
<text text-anchor="middle" x="665.5" y="-137.5" font-family="Helvetica,sans-Serif" font-size="10.00">::primitive_type</text>
</a>
</g>
</g>
<!-- Node9&#45;&gt;Node10 -->
<g id="edge10_Node000009_Node000010" class="edge">
<title>Node9&#45;&gt;Node10</title>
<g id="a_edge10_Node000009_Node000010"><a xlink:title=" ">
<path fill="none" stroke="#63b8ff" d="M548.24,-138.02C561.03,-138.84 574.44,-139.71 587.42,-140.54"/>
<polygon fill="#63b8ff" stroke="#63b8ff" points="587.51,-144.05 597.71,-141.2 587.96,-137.07 587.51,-144.05"/>
</a>
</g>
</g>
<!-- Node11 -->
<g id="Node000011" class="node">
<title>Node11</title>
<g id="a_Node000011"><a xlink:href="classwmtk_1_1simplex_1_1_simplex.html#aca78b1fb0a3c28c0036cf7919bfb0789" target="_top" xlink:title=" ">
<polygon fill="white" stroke="#666666" points="733,-112.5 598,-112.5 598,-82.5 733,-82.5 733,-112.5"/>
<text text-anchor="start" x="606" y="-100.5" font-family="Helvetica,sans-Serif" font-size="10.00">wmtk::simplex::Simplex</text>
<text text-anchor="middle" x="665.5" y="-89.5" font-family="Helvetica,sans-Serif" font-size="10.00">::tuple</text>
</a>
</g>
</g>
<!-- Node9&#45;&gt;Node11 -->
<g id="edge11_Node000009_Node000011" class="edge">
<title>Node9&#45;&gt;Node11</title>
<g id="a_edge11_Node000009_Node000011"><a xlink:title=" ">
<path fill="none" stroke="#63b8ff" d="M527.49,-123.95C546.04,-120.37 567.57,-116.21 588,-112.27"/>
<polygon fill="#63b8ff" stroke="#63b8ff" points="588.76,-115.68 597.92,-110.35 587.44,-108.81 588.76,-115.68"/>
</a>
</g>
</g>
<!-- Node14&#45;&gt;Node13 -->
<g id="edge15_Node000014_Node000013" class="edge">
<title>Node14&#45;&gt;Node13</title>
<g id="a_edge15_Node000014_Node000013"><a xlink:title=" ">
<path fill="none" stroke="#63b8ff" d="M546.39,-19.03C562.08,-21.22 578.78,-23.55 594.54,-25.75"/>
<polygon fill="#63b8ff" stroke="#63b8ff" points="594.35,-29.25 604.74,-27.17 595.32,-22.32 594.35,-29.25"/>
</a>
</g>
</g>
</g>
</svg>
