<?xml version="1.0" encoding="UTF-8" standalone="no"?>
<!DOCTYPE svg PUBLIC "-//W3C//DTD SVG 1.1//EN"
 "http://www.w3.org/Graphics/SVG/1.1/DTD/svg11.dtd">
<!-- Generated by graphviz version 2.43.0 (0)
 -->
<!-- Title: wmtk::Mesh::is_multi_mesh_root Pages: 1 -->
<svg width="1566pt" height="423pt"
 viewBox="0.00 0.00 1566.00 422.50" xmlns="http://www.w3.org/2000/svg" xmlns:xlink="http://www.w3.org/1999/xlink">
<g id="graph0" class="graph" transform="scale(1 1) rotate(0) translate(4 418.5)">
<title>wmtk::Mesh::is_multi_mesh_root</title>
<!-- Node1 -->
<g id="Node000001" class="node">
<title>Node1</title>
<g id="a_Node000001"><a xlink:title="return true if this mesh is the root of a multimesh tree">
<polygon fill="#999999" stroke="#666666" points="1558,-183.5 1436,-183.5 1436,-153.5 1558,-153.5 1558,-183.5"/>
<text text-anchor="start" x="1444" y="-171.5" font-family="Helvetica,sans-Serif" font-size="10.00">wmtk::Mesh::is_multi</text>
<text text-anchor="middle" x="1497" y="-160.5" font-family="Helvetica,sans-Serif" font-size="10.00">_mesh_root</text>
</a>
</g>
</g>
<!-- Node2 -->
<g id="Node000002" class="node">
<title>Node2</title>
<g id="a_Node000002"><a xlink:href="namespacewmtk_1_1components_1_1longest__edge__split.html#a0be451c677a35037d6e49f97356604cb" target="_top" xlink:title="Perform longes&#45;edge split on a mesh.">
<polygon fill="white" stroke="#666666" points="1400,-317.5 1230,-317.5 1230,-287.5 1400,-287.5 1400,-317.5"/>
<text text-anchor="start" x="1238" y="-305.5" font-family="Helvetica,sans-Serif" font-size="10.00">wmtk::components::longest</text>
<text text-anchor="middle" x="1315" y="-294.5" font-family="Helvetica,sans-Serif" font-size="10.00">_edge_split::longest_edge_split</text>
</a>
</g>
</g>
<!-- Node1&#45;&gt;Node2 -->
<g id="edge1_Node000001_Node000002" class="edge">
<title>Node1&#45;&gt;Node2</title>
<g id="a_edge1_Node000001_Node000002"><a xlink:title=" ">
<path fill="none" stroke="#63b8ff" d="M1473.78,-190.88C1455.03,-209.15 1427,-235.03 1400,-254.5 1382.97,-266.78 1362.55,-278.51 1346.1,-287.3"/>
<polygon fill="#63b8ff" stroke="#63b8ff" points="1476.55,-193.07 1481.22,-183.56 1471.64,-188.08 1476.55,-193.07"/>
</a>
</g>
</g>
<!-- Node4 -->
<g id="Node000004" class="node">
<title>Node4</title>
<g id="a_Node000004"><a xlink:href="classwmtk_1_1_mesh.html#abef07f1a5ecafc68883891c07d04e610" target="_top" xlink:title=" ">
<polygon fill="white" stroke="#666666" points="1376,-245 1254,-245 1254,-226 1376,-226 1376,-245"/>
<text text-anchor="middle" x="1315" y="-233" font-family="Helvetica,sans-Serif" font-size="10.00">wmtk::Mesh::map_all</text>
</a>
</g>
</g>
<!-- Node1&#45;&gt;Node4 -->
<g id="edge4_Node000001_Node000004" class="edge">
<title>Node1&#45;&gt;Node4</title>
<g id="a_edge4_Node000001_Node000004"><a xlink:title=" ">
<path fill="none" stroke="#63b8ff" d="M1461.37,-188.36C1443.49,-197.95 1421.07,-208.97 1400,-216.5 1389.58,-220.22 1378.17,-223.38 1367.2,-225.99"/>
<polygon fill="#63b8ff" stroke="#63b8ff" points="1463.16,-191.37 1470.27,-183.51 1459.81,-185.22 1463.16,-191.37"/>
</a>
</g>
</g>
<!-- Node5 -->
<g id="Node000005" class="node">
<title>Node5</title>
<g id="a_Node000005"><a xlink:href="classwmtk_1_1_mesh.html#abce79ed965e5c4631713fe534f1699a7" target="_top" xlink:title="optimized map from a simplex from this mesh to its direct parent">
<polygon fill="white" stroke="#666666" points="1374.5,-207.5 1255.5,-207.5 1255.5,-177.5 1374.5,-177.5 1374.5,-207.5"/>
<text text-anchor="start" x="1263.5" y="-195.5" font-family="Helvetica,sans-Serif" font-size="10.00">wmtk::Mesh::map_to</text>
<text text-anchor="middle" x="1315" y="-184.5" font-family="Helvetica,sans-Serif" font-size="10.00">_parent</text>
</a>
</g>
</g>
<!-- Node1&#45;&gt;Node5 -->
<g id="edge5_Node000001_Node000005" class="edge">
<title>Node1&#45;&gt;Node5</title>
<g id="a_edge5_Node000001_Node000005"><a xlink:title=" ">
<path fill="none" stroke="#63b8ff" d="M1425.47,-177.9C1408.63,-180.15 1390.84,-182.52 1374.6,-184.69"/>
<polygon fill="#63b8ff" stroke="#63b8ff" points="1426.36,-181.32 1435.81,-176.53 1425.44,-174.38 1426.36,-181.32"/>
</a>
</g>
</g>
<!-- Node21 -->
<g id="Node000021" class="node">
<title>Node21</title>
<g id="a_Node000021"><a xlink:href="classwmtk_1_1_mesh.html#a9a1a8863d4694baab3679edfb5c0dccb" target="_top" xlink:title="optimized map from a simplex from this mesh to its direct parent">
<polygon fill="white" stroke="#666666" points="1374.5,-159.5 1255.5,-159.5 1255.5,-129.5 1374.5,-129.5 1374.5,-159.5"/>
<text text-anchor="start" x="1263.5" y="-147.5" font-family="Helvetica,sans-Serif" font-size="10.00">wmtk::Mesh::map_to</text>
<text text-anchor="middle" x="1315" y="-136.5" font-family="Helvetica,sans-Serif" font-size="10.00">_parent_tuple</text>
</a>
</g>
</g>
<!-- Node1&#45;&gt;Node21 -->
<g id="edge22_Node000001_Node000021" class="edge">
<title>Node1&#45;&gt;Node21</title>
<g id="a_edge22_Node000001_Node000021"><a xlink:title=" ">
<path fill="none" stroke="#63b8ff" d="M1425.47,-159.1C1408.63,-156.85 1390.84,-154.48 1374.6,-152.31"/>
<polygon fill="#63b8ff" stroke="#63b8ff" points="1425.44,-162.62 1435.81,-160.47 1426.36,-155.68 1425.44,-162.62"/>
</a>
</g>
</g>
<!-- Node33 -->
<g id="Node000033" class="node">
<title>Node33</title>
<g id="a_Node000033"><a xlink:href="classwmtk_1_1_mesh.html#a518b2e0ed7a63885d5b1dc43523de3a4" target="_top" xlink:title=" ">
<polygon fill="white" stroke="#666666" points="1380.5,-111.5 1249.5,-111.5 1249.5,-81.5 1380.5,-81.5 1380.5,-111.5"/>
<text text-anchor="start" x="1257.5" y="-99.5" font-family="Helvetica,sans-Serif" font-size="10.00">wmtk::Mesh::mappable</text>
<text text-anchor="middle" x="1315" y="-88.5" font-family="Helvetica,sans-Serif" font-size="10.00">_meshes</text>
</a>
</g>
</g>
<!-- Node1&#45;&gt;Node33 -->
<g id="edge35_Node000001_Node000033" class="edge">
<title>Node1&#45;&gt;Node33</title>
<g id="a_edge35_Node000001_Node000033"><a xlink:title=" ">
<path fill="none" stroke="#63b8ff" d="M1460.42,-148.73C1442.63,-139.36 1420.56,-128.5 1400,-120.5 1391.66,-117.26 1382.7,-114.23 1373.86,-111.5"/>
<polygon fill="#63b8ff" stroke="#63b8ff" points="1458.83,-151.85 1469.3,-153.47 1462.12,-145.67 1458.83,-151.85"/>
</a>
</g>
</g>
<!-- Node34 -->
<g id="Node000034" class="node">
<title>Node34</title>
<g id="a_Node000034"><a xlink:href="namespacewmtk_1_1components_1_1shortest__edge__collapse.html#a13c53b8b70fc1b63e7bdb22318139dd9" target="_top" xlink:title="Perform shortest&#45;edge collapse on a triangular surface mesh.">
<polygon fill="white" stroke="#666666" points="1393,-43 1237,-43 1237,-2 1393,-2 1393,-43"/>
<text text-anchor="start" x="1245" y="-31" font-family="Helvetica,sans-Serif" font-size="10.00">wmtk::components::shortest</text>
<text text-anchor="start" x="1245" y="-20" font-family="Helvetica,sans-Serif" font-size="10.00">_edge_collapse::shortest</text>
<text text-anchor="middle" x="1315" y="-9" font-family="Helvetica,sans-Serif" font-size="10.00">_edge_collapse</text>
</a>
</g>
</g>
<!-- Node1&#45;&gt;Node34 -->
<g id="edge36_Node000001_Node000034" class="edge">
<title>Node1&#45;&gt;Node34</title>
<g id="a_edge36_Node000001_Node000034"><a xlink:title=" ">
<path fill="none" stroke="#63b8ff" d="M1476.25,-145.74C1457.76,-125.19 1428.74,-94.86 1400,-72.5 1386.2,-61.77 1369.91,-51.58 1355.36,-43.23"/>
<polygon fill="#63b8ff" stroke="#63b8ff" points="1473.76,-148.21 1483.03,-153.36 1478.99,-143.56 1473.76,-148.21"/>
</a>
</g>
</g>
<!-- Node2&#45;&gt;Node2 -->
<g id="edge3_Node000002_Node000002" class="edge">
<title>Node2&#45;&gt;Node2</title>
<g id="a_edge3_Node000002_Node000002"><a xlink:title=" ">
<path fill="none" stroke="#63b8ff" d="M1346.86,-328.1C1342.5,-332.47 1331.88,-335.5 1315,-335.5 1286.56,-335.5 1275.9,-326.91 1283.01,-317.78"/>
<polygon fill="#63b8ff" stroke="#63b8ff" points="1350.36,-327.82 1346.99,-317.78 1343.36,-327.73 1350.36,-327.82"/>
</a>
</g>
</g>
<!-- Node3 -->
<g id="Node000003" class="node">
<title>Node3</title>
<g id="a_Node000003"><a xlink:href="namespacewmtk_1_1components_1_1longest__edge__split.html#a91cd0e6f904d4c6d1e0000504cc0a257" target="_top" xlink:title="Perform longes&#45;edge split on a mesh.">
<polygon fill="white" stroke="#666666" points="1178,-341.5 1008,-341.5 1008,-311.5 1178,-311.5 1178,-341.5"/>
<text text-anchor="start" x="1016" y="-329.5" font-family="Helvetica,sans-Serif" font-size="10.00">wmtk::components::longest</text>
<text text-anchor="middle" x="1093" y="-318.5" font-family="Helvetica,sans-Serif" font-size="10.00">_edge_split::longest_edge_split</text>
</a>
</g>
</g>
<!-- Node2&#45;&gt;Node3 -->
<g id="edge2_Node000002_Node000003" class="edge">
<title>Node2&#45;&gt;Node3</title>
<g id="a_edge2_Node000002_Node000003"><a xlink:title=" ">
<path fill="none" stroke="#63b8ff" d="M1219.85,-312.77C1205.96,-314.29 1191.73,-315.84 1178.07,-317.33"/>
<polygon fill="#63b8ff" stroke="#63b8ff" points="1220.32,-316.24 1229.89,-311.68 1219.57,-309.28 1220.32,-316.24"/>
</a>
</g>
</g>
<!-- Node6 -->
<g id="Node000006" class="node">
<title>Node6</title>
<g id="a_Node000006"><a xlink:href="classwmtk_1_1invariants_1_1_fusion_edge_invariant.html#abb8894b188e06d51bad0c0df062b37fe" target="_top" xlink:title=" ">
<polygon fill="white" stroke="#666666" points="1161.5,-293.5 1024.5,-293.5 1024.5,-263.5 1161.5,-263.5 1161.5,-293.5"/>
<text text-anchor="start" x="1032.5" y="-281.5" font-family="Helvetica,sans-Serif" font-size="10.00">wmtk::invariants::Fusion</text>
<text text-anchor="middle" x="1093" y="-270.5" font-family="Helvetica,sans-Serif" font-size="10.00">EdgeInvariant::before</text>
</a>
</g>
</g>
<!-- Node5&#45;&gt;Node6 -->
<g id="edge6_Node000005_Node000006" class="edge">
<title>Node5&#45;&gt;Node6</title>
<g id="a_edge6_Node000005_Node000006"><a xlink:title=" ">
<path fill="none" stroke="#63b8ff" d="M1245.9,-209.93C1240.4,-212.19 1235.02,-214.7 1230,-217.5 1211.3,-227.91 1212.74,-239.15 1194,-249.5 1183.87,-255.09 1172.56,-259.7 1161.28,-263.47"/>
<polygon fill="#63b8ff" stroke="#63b8ff" points="1247.16,-213.2 1255.26,-206.37 1244.67,-206.65 1247.16,-213.2"/>
</a>
</g>
</g>
<!-- Node7 -->
<g id="Node000007" class="node">
<title>Node7</title>
<g id="a_Node000007"><a xlink:href="classwmtk_1_1components_1_1internal_1_1_multi_mesh_from_tag.html#a00b7df05e0cd44c1a2d4e6ee39dbaacf" target="_top" xlink:title="Create the adjacency (stored as attribute) of the substructure.">
<polygon fill="white" stroke="#666666" points="951,-255 797,-255 797,-214 951,-214 951,-255"/>
<text text-anchor="start" x="805" y="-243" font-family="Helvetica,sans-Serif" font-size="10.00">wmtk::components::internal</text>
<text text-anchor="start" x="805" y="-232" font-family="Helvetica,sans-Serif" font-size="10.00">::MultiMeshFromTag::build</text>
<text text-anchor="middle" x="874" y="-221" font-family="Helvetica,sans-Serif" font-size="10.00">_adjacency_matrix</text>
</a>
</g>
</g>
<!-- Node5&#45;&gt;Node7 -->
<g id="edge7_Node000005_Node000007" class="edge">
<title>Node5&#45;&gt;Node7</title>
<g id="a_edge7_Node000005_Node000007"><a xlink:title=" ">
<path fill="none" stroke="#63b8ff" d="M1245.16,-208C1228.49,-211.27 1210.67,-214.37 1194,-216.5 1111.33,-227.05 1015.81,-231.41 951.01,-233.22"/>
<polygon fill="#63b8ff" stroke="#63b8ff" points="1246.26,-211.35 1255.37,-205.94 1244.88,-204.48 1246.26,-211.35"/>
</a>
</g>
</g>
<!-- Node18 -->
<g id="Node000018" class="node">
<title>Node18</title>
<g id="a_Node000018"><a xlink:href="classwmtk_1_1operations_1_1_a_m_i_p_s_optimization_smoothing_periodic.html#a86df18fe3713cb41dca1687487dea61b" target="_top" xlink:title="returns an empty vector in case of failure">
<polygon fill="white" stroke="#666666" points="1194,-207.5 992,-207.5 992,-177.5 1194,-177.5 1194,-207.5"/>
<text text-anchor="start" x="1000" y="-195.5" font-family="Helvetica,sans-Serif" font-size="10.00">wmtk::operations::AMIPSOptimization</text>
<text text-anchor="middle" x="1093" y="-184.5" font-family="Helvetica,sans-Serif" font-size="10.00">SmoothingPeriodic::execute</text>
</a>
</g>
</g>
<!-- Node5&#45;&gt;Node18 -->
<g id="edge18_Node000005_Node000018" class="edge">
<title>Node5&#45;&gt;Node18</title>
<g id="a_edge18_Node000005_Node000018"><a xlink:title=" ">
<path fill="none" stroke="#63b8ff" d="M1244.94,-192.5C1228.81,-192.5 1211.3,-192.5 1194.12,-192.5"/>
<polygon fill="#63b8ff" stroke="#63b8ff" points="1245.33,-196 1255.33,-192.5 1245.33,-189 1245.33,-196"/>
</a>
</g>
</g>
<!-- Node19 -->
<g id="Node000019" class="node">
<title>Node19</title>
<g id="a_Node000019"><a xlink:href="classwmtk_1_1components_1_1internal_1_1_multi_mesh_from_tag.html#a5c6d50173da15e964b0f1dc6367858e6" target="_top" xlink:title="Get tuples with different global_cid that all represent simplex(t_in, ptype) and are in the same tag&#45;...">
<polygon fill="white" stroke="#666666" points="1170,-159 1016,-159 1016,-118 1170,-118 1170,-159"/>
<text text-anchor="start" x="1024" y="-147" font-family="Helvetica,sans-Serif" font-size="10.00">wmtk::components::internal</text>
<text text-anchor="start" x="1024" y="-136" font-family="Helvetica,sans-Serif" font-size="10.00">::MultiMeshFromTag::get</text>
<text text-anchor="middle" x="1093" y="-125" font-family="Helvetica,sans-Serif" font-size="10.00">_connected_region</text>
</a>
</g>
</g>
<!-- Node5&#45;&gt;Node19 -->
<g id="edge19_Node000005_Node000019" class="edge">
<title>Node5&#45;&gt;Node19</title>
<g id="a_edge19_Node000005_Node000019"><a xlink:title=" ">
<path fill="none" stroke="#63b8ff" d="M1245.33,-175.64C1221.52,-169.8 1194.69,-163.22 1170.31,-157.23"/>
<polygon fill="#63b8ff" stroke="#63b8ff" points="1244.79,-179.12 1255.33,-178.1 1246.46,-172.32 1244.79,-179.12"/>
</a>
</g>
</g>
<!-- Node8 -->
<g id="Node000008" class="node">
<title>Node8</title>
<g id="a_Node000008"><a xlink:href="classwmtk_1_1components_1_1internal_1_1_multi_mesh_from_tag.html#a96647e9413f2b7e13dd17f02cf29b12d" target="_top" xlink:title="Create a manifold mesh from the substructure.">
<polygon fill="white" stroke="#666666" points="756,-255 592,-255 592,-214 756,-214 756,-255"/>
<text text-anchor="start" x="600" y="-243" font-family="Helvetica,sans-Serif" font-size="10.00">wmtk::components::internal</text>
<text text-anchor="start" x="600" y="-232" font-family="Helvetica,sans-Serif" font-size="10.00">::MultiMeshFromTag::compute</text>
<text text-anchor="middle" x="674" y="-221" font-family="Helvetica,sans-Serif" font-size="10.00">_substructure_mesh</text>
</a>
</g>
</g>
<!-- Node7&#45;&gt;Node8 -->
<g id="edge8_Node000007_Node000008" class="edge">
<title>Node7&#45;&gt;Node8</title>
<g id="a_edge8_Node000007_Node000008"><a xlink:title=" ">
<path fill="none" stroke="#63b8ff" d="M786.67,-234.5C776.53,-234.5 766.22,-234.5 756.16,-234.5"/>
<polygon fill="#63b8ff" stroke="#63b8ff" points="786.73,-238 796.73,-234.5 786.73,-231 786.73,-238"/>
</a>
</g>
</g>
<!-- Node9 -->
<g id="Node000009" class="node">
<title>Node9</title>
<g id="a_Node000009"><a xlink:href="namespacewmtk_1_1components.html#ac309092566399cef68679a1bb8107d1e" target="_top" xlink:title="Generate a multi&#45;mesh from a mesh with a tag that represents the substructure, the mesh is changed.">
<polygon fill="white" stroke="#666666" points="556,-414.5 387,-414.5 387,-384.5 556,-384.5 556,-414.5"/>
<text text-anchor="start" x="395" y="-402.5" font-family="Helvetica,sans-Serif" font-size="10.00">wmtk::components::multimesh</text>
<text text-anchor="middle" x="471.5" y="-391.5" font-family="Helvetica,sans-Serif" font-size="10.00">_from_tag</text>
</a>
</g>
</g>
<!-- Node8&#45;&gt;Node9 -->
<g id="edge9_Node000008_Node000009" class="edge">
<title>Node8&#45;&gt;Node9</title>
<g id="a_edge9_Node000008_Node000009"><a xlink:title=" ">
<path fill="none" stroke="#63b8ff" d="M656.05,-264.02C636.12,-296.11 600.1,-346.67 556,-375.5 550.7,-378.97 544.89,-381.94 538.88,-384.49"/>
<polygon fill="#63b8ff" stroke="#63b8ff" points="659.27,-265.46 661.47,-255.09 653.29,-261.82 659.27,-265.46"/>
</a>
</g>
</g>
<!-- Node11 -->
<g id="Node000011" class="node">
<title>Node11</title>
<g id="a_Node000011"><a xlink:href="namespacewmtk_1_1components.html#a4166e4880553cfacbf79ac3515a637cd" target="_top" xlink:title=" ">
<polygon fill="white" stroke="#666666" points="549,-366.5 394,-366.5 394,-336.5 549,-336.5 549,-366.5"/>
<text text-anchor="start" x="402" y="-354.5" font-family="Helvetica,sans-Serif" font-size="10.00">wmtk::components::periodic</text>
<text text-anchor="middle" x="471.5" y="-343.5" font-family="Helvetica,sans-Serif" font-size="10.00">_optimization</text>
</a>
</g>
</g>
<!-- Node8&#45;&gt;Node11 -->
<g id="edge11_Node000008_Node000011" class="edge">
<title>Node8&#45;&gt;Node11</title>
<g id="a_edge11_Node000008_Node000011"><a xlink:title=" ">
<path fill="none" stroke="#63b8ff" d="M644.91,-262.11C622.5,-282.75 589.43,-310.28 556,-327.5 549.43,-330.89 542.32,-333.85 535.11,-336.44"/>
<polygon fill="#63b8ff" stroke="#63b8ff" points="647.47,-264.51 652.37,-255.12 642.68,-259.4 647.47,-264.51"/>
</a>
</g>
</g>
<!-- Node12 -->
<g id="Node000012" class="node">
<title>Node12</title>
<g id="a_Node000012"><a xlink:href="test__component__multimesh__from__tag_8cpp.html#a2231774bf0d53fb5f6c1b34753afb255" target="_top" xlink:title=" ">
<polygon fill="white" stroke="#666666" points="507,-318 436,-318 436,-299 507,-299 507,-318"/>
<text text-anchor="middle" x="471.5" y="-306" font-family="Helvetica,sans-Serif" font-size="10.00">TEST_CASE</text>
</a>
</g>
</g>
<!-- Node8&#45;&gt;Node12 -->
<g id="edge12_Node000008_Node000012" class="edge">
<title>Node8&#45;&gt;Node12</title>
<g id="a_edge12_Node000008_Node000012"><a xlink:title=" ">
<path fill="none" stroke="#63b8ff" d="M626.7,-259.75C605.61,-270.43 580.04,-282.28 556,-290.5 540.28,-295.87 522.34,-299.99 507.12,-302.92"/>
<polygon fill="#63b8ff" stroke="#63b8ff" points="628.45,-262.78 635.74,-255.1 625.25,-256.56 628.45,-262.78"/>
</a>
</g>
</g>
<!-- Node13 -->
<g id="Node000013" class="node">
<title>Node13</title>
<g id="a_Node000013"><a xlink:href="test__component__multimesh__from__tag_8cpp.html#a9a31cb828b93e2ddcf0a5063d4d1c9e6" target="_top" xlink:title=" ">
<polygon fill="white" stroke="#666666" points="507,-281 436,-281 436,-262 507,-262 507,-281"/>
<text text-anchor="middle" x="471.5" y="-269" font-family="Helvetica,sans-Serif" font-size="10.00">TEST_CASE</text>
</a>
</g>
</g>
<!-- Node8&#45;&gt;Node13 -->
<g id="edge13_Node000008_Node000013" class="edge">
<title>Node8&#45;&gt;Node13</title>
<g id="a_edge13_Node000008_Node000013"><a xlink:title=" ">
<path fill="none" stroke="#63b8ff" d="M581.63,-251.36C555.11,-256.25 527.76,-261.3 507.07,-265.12"/>
<polygon fill="#63b8ff" stroke="#63b8ff" points="582.54,-254.75 591.74,-249.5 581.27,-247.87 582.54,-254.75"/>
</a>
</g>
</g>
<!-- Node14 -->
<g id="Node000014" class="node">
<title>Node14</title>
<g id="a_Node000014"><a xlink:href="test__component__multimesh__from__tag_8cpp.html#a7a8f66a094907f369fa10876691f42f9" target="_top" xlink:title=" ">
<polygon fill="white" stroke="#666666" points="507,-244 436,-244 436,-225 507,-225 507,-244"/>
<text text-anchor="middle" x="471.5" y="-232" font-family="Helvetica,sans-Serif" font-size="10.00">TEST_CASE</text>
</a>
</g>
</g>
<!-- Node8&#45;&gt;Node14 -->
<g id="edge14_Node000008_Node000014" class="edge">
<title>Node8&#45;&gt;Node14</title>
<g id="a_edge14_Node000008_Node000014"><a xlink:title=" ">
<path fill="none" stroke="#63b8ff" d="M581.63,-234.5C555.11,-234.5 527.76,-234.5 507.07,-234.5"/>
<polygon fill="#63b8ff" stroke="#63b8ff" points="581.74,-238 591.74,-234.5 581.74,-231 581.74,-238"/>
</a>
</g>
</g>
<!-- Node15 -->
<g id="Node000015" class="node">
<title>Node15</title>
<g id="a_Node000015"><a xlink:href="test__component__multimesh__from__tag_8cpp.html#af55ce8249624ce4d6a3feaad760949a6" target="_top" xlink:title=" ">
<polygon fill="white" stroke="#666666" points="507,-207 436,-207 436,-188 507,-188 507,-207"/>
<text text-anchor="middle" x="471.5" y="-195" font-family="Helvetica,sans-Serif" font-size="10.00">TEST_CASE</text>
</a>
</g>
</g>
<!-- Node8&#45;&gt;Node15 -->
<g id="edge15_Node000008_Node000015" class="edge">
<title>Node8&#45;&gt;Node15</title>
<g id="a_edge15_Node000008_Node000015"><a xlink:title=" ">
<path fill="none" stroke="#63b8ff" d="M581.63,-217.64C555.11,-212.75 527.76,-207.7 507.07,-203.88"/>
<polygon fill="#63b8ff" stroke="#63b8ff" points="581.27,-221.13 591.74,-219.5 582.54,-214.25 581.27,-221.13"/>
</a>
</g>
</g>
<!-- Node16 -->
<g id="Node000016" class="node">
<title>Node16</title>
<g id="a_Node000016"><a xlink:href="test__component__multimesh__from__tag_8cpp.html#a18cd3d411cfadc472201c20662d62869" target="_top" xlink:title=" ">
<polygon fill="white" stroke="#666666" points="507,-170 436,-170 436,-151 507,-151 507,-170"/>
<text text-anchor="middle" x="471.5" y="-158" font-family="Helvetica,sans-Serif" font-size="10.00">TEST_CASE</text>
</a>
</g>
</g>
<!-- Node8&#45;&gt;Node16 -->
<g id="edge16_Node000008_Node000016" class="edge">
<title>Node8&#45;&gt;Node16</title>
<g id="a_edge16_Node000008_Node000016"><a xlink:title=" ">
<path fill="none" stroke="#63b8ff" d="M625.62,-209.38C604.71,-199.04 579.57,-187.62 556,-179.5 540.26,-174.08 522.31,-169.77 507.09,-166.63"/>
<polygon fill="#63b8ff" stroke="#63b8ff" points="624.1,-212.53 634.61,-213.88 627.24,-206.27 624.1,-212.53"/>
</a>
</g>
</g>
<!-- Node17 -->
<g id="Node000017" class="node">
<title>Node17</title>
<g id="a_Node000017"><a xlink:href="test__component__multimesh__from__tag_8cpp.html#a4caad3dd8a6355f2ca66fdb0b0af7999" target="_top" xlink:title=" ">
<polygon fill="white" stroke="#666666" points="507,-133 436,-133 436,-114 507,-114 507,-133"/>
<text text-anchor="middle" x="471.5" y="-121" font-family="Helvetica,sans-Serif" font-size="10.00">TEST_CASE</text>
</a>
</g>
</g>
<!-- Node8&#45;&gt;Node17 -->
<g id="edge17_Node000008_Node000017" class="edge">
<title>Node8&#45;&gt;Node17</title>
<g id="a_edge17_Node000008_Node000017"><a xlink:title=" ">
<path fill="none" stroke="#63b8ff" d="M645.12,-206.67C622.82,-185.97 589.8,-158.62 556,-142.5 540.84,-135.27 522.79,-130.72 507.36,-127.89"/>
<polygon fill="#63b8ff" stroke="#63b8ff" points="642.87,-209.36 652.54,-213.69 647.68,-204.27 642.87,-209.36"/>
</a>
</g>
</g>
<!-- Node10 -->
<g id="Node000010" class="node">
<title>Node10</title>
<g id="a_Node000010"><a xlink:href="test__component__multimesh__from__tag_8cpp.html#a2b0208caf4b963a36a43604c3e7cf34a" target="_top" xlink:title=" ">
<polygon fill="white" stroke="#666666" points="307,-409 236,-409 236,-390 307,-390 307,-409"/>
<text text-anchor="middle" x="271.5" y="-397" font-family="Helvetica,sans-Serif" font-size="10.00">TEST_CASE</text>
</a>
</g>
</g>
<!-- Node9&#45;&gt;Node10 -->
<g id="edge10_Node000009_Node000010" class="edge">
<title>Node9&#45;&gt;Node10</title>
<g id="a_edge10_Node000009_Node000010"><a xlink:title=" ">
<path fill="none" stroke="#63b8ff" d="M376.64,-399.5C351.91,-399.5 326.76,-399.5 307.37,-399.5"/>
<polygon fill="#63b8ff" stroke="#63b8ff" points="376.82,-403 386.82,-399.5 376.82,-396 376.82,-403"/>
</a>
</g>
</g>
<!-- Node20 -->
<g id="Node000020" class="node">
<title>Node20</title>
<g id="a_Node000020"><a xlink:href="classwmtk_1_1components_1_1internal_1_1_multi_mesh_from_tag.html#afb744eb2b5ec264a9a682ccfd3f8dfcb" target="_top" xlink:title="Compute the ids of the manifold substructure.">
<polygon fill="white" stroke="#666666" points="956,-177 792,-177 792,-136 956,-136 956,-177"/>
<text text-anchor="start" x="800" y="-165" font-family="Helvetica,sans-Serif" font-size="10.00">wmtk::components::internal</text>
<text text-anchor="start" x="800" y="-154" font-family="Helvetica,sans-Serif" font-size="10.00">::MultiMeshFromTag::compute</text>
<text text-anchor="middle" x="874" y="-143" font-family="Helvetica,sans-Serif" font-size="10.00">_substructure_ids</text>
</a>
</g>
</g>
<!-- Node19&#45;&gt;Node20 -->
<g id="edge20_Node000019_Node000020" class="edge">
<title>Node19&#45;&gt;Node20</title>
<g id="a_edge20_Node000019_Node000020"><a xlink:title=" ">
<path fill="none" stroke="#63b8ff" d="M1005.73,-145.66C989.39,-147.01 972.35,-148.42 956.18,-149.77"/>
<polygon fill="#63b8ff" stroke="#63b8ff" points="1006.12,-149.14 1015.8,-144.82 1005.54,-142.16 1006.12,-149.14"/>
</a>
</g>
</g>
<!-- Node20&#45;&gt;Node8 -->
<g id="edge21_Node000020_Node000008" class="edge">
<title>Node20&#45;&gt;Node8</title>
<g id="a_edge21_Node000020_Node000008"><a xlink:title=" ">
<path fill="none" stroke="#63b8ff" d="M811.37,-180.78C784.38,-191.41 753.05,-203.75 727.23,-213.92"/>
<polygon fill="#63b8ff" stroke="#63b8ff" points="812.7,-184.02 820.72,-177.1 810.13,-177.5 812.7,-184.02"/>
</a>
</g>
</g>
<!-- Node22 -->
<g id="Node000022" class="node">
<title>Node22</title>
<g id="a_Node000022"><a xlink:href="classwmtk_1_1multimesh_1_1utils_1_1_map_validator.html#a3904ef0aa73b2aa3b9f6c054686bf17f" target="_top" xlink:title=" ">
<polygon fill="white" stroke="#666666" points="1175,-100 1011,-100 1011,-59 1175,-59 1175,-100"/>
<text text-anchor="start" x="1019" y="-88" font-family="Helvetica,sans-Serif" font-size="10.00">wmtk::multimesh::utils</text>
<text text-anchor="start" x="1019" y="-77" font-family="Helvetica,sans-Serif" font-size="10.00">::MapValidator::check</text>
<text text-anchor="middle" x="1093" y="-66" font-family="Helvetica,sans-Serif" font-size="10.00">_child_switch_homomorphism</text>
</a>
</g>
</g>
<!-- Node21&#45;&gt;Node22 -->
<g id="edge23_Node000021_Node000022" class="edge">
<title>Node21&#45;&gt;Node22</title>
<g id="a_edge23_Node000021_Node000022"><a xlink:title=" ">
<path fill="none" stroke="#63b8ff" d="M1251.01,-126.64C1243.92,-124.59 1236.8,-122.51 1230,-120.5 1213.96,-115.76 1210.01,-114.35 1194,-109.5 1183.85,-106.43 1173.12,-103.19 1162.6,-100.03"/>
<polygon fill="#63b8ff" stroke="#63b8ff" points="1250.06,-130 1260.63,-129.41 1251.99,-123.28 1250.06,-130"/>
</a>
</g>
</g>
<!-- Node23 -->
<g id="Node000023" class="node">
<title>Node23</title>
<g id="a_Node000023"><a xlink:href="classwmtk_1_1multimesh_1_1utils_1_1_map_validator.html#a68f039afe0e44da9486a4d3c38cf5bea" target="_top" xlink:title=" ">
<polygon fill="white" stroke="#666666" points="942,-100 806,-100 806,-59 942,-59 942,-100"/>
<text text-anchor="start" x="814" y="-88" font-family="Helvetica,sans-Serif" font-size="10.00">wmtk::multimesh::utils</text>
<text text-anchor="start" x="814" y="-77" font-family="Helvetica,sans-Serif" font-size="10.00">::MapValidator::check</text>
<text text-anchor="middle" x="874" y="-66" font-family="Helvetica,sans-Serif" font-size="10.00">_switch_homomorphism</text>
</a>
</g>
</g>
<!-- Node22&#45;&gt;Node23 -->
<g id="edge24_Node000022_Node000023" class="edge">
<title>Node22&#45;&gt;Node23</title>
<g id="a_edge24_Node000022_Node000023"><a xlink:title=" ">
<path fill="none" stroke="#63b8ff" d="M1000.71,-79.5C981.09,-79.5 960.7,-79.5 942.19,-79.5"/>
<polygon fill="#63b8ff" stroke="#63b8ff" points="1000.89,-83 1010.89,-79.5 1000.89,-76 1000.89,-83"/>
</a>
</g>
</g>
<!-- Node24 -->
<g id="Node000024" class="node">
<title>Node24</title>
<g id="a_Node000024"><a xlink:href="classwmtk_1_1multimesh_1_1utils_1_1_map_validator.html#a7c91255f342becd3f24ffa7bbaebeb3d" target="_top" xlink:title=" ">
<polygon fill="white" stroke="#666666" points="743.5,-94.5 604.5,-94.5 604.5,-64.5 743.5,-64.5 743.5,-94.5"/>
<text text-anchor="start" x="612.5" y="-82.5" font-family="Helvetica,sans-Serif" font-size="10.00">wmtk::multimesh::utils</text>
<text text-anchor="middle" x="674" y="-71.5" font-family="Helvetica,sans-Serif" font-size="10.00">::MapValidator::check_all</text>
</a>
</g>
</g>
<!-- Node23&#45;&gt;Node24 -->
<g id="edge25_Node000023_Node000024" class="edge">
<title>Node23&#45;&gt;Node24</title>
<g id="a_edge25_Node000023_Node000024"><a xlink:title=" ">
<path fill="none" stroke="#63b8ff" d="M795.94,-79.5C778.7,-79.5 760.52,-79.5 743.65,-79.5"/>
<polygon fill="#63b8ff" stroke="#63b8ff" points="795.97,-83 805.97,-79.5 795.97,-76 795.97,-83"/>
</a>
</g>
</g>
<!-- Node25 -->
<g id="Node000025" class="node">
<title>Node25</title>
<g id="a_Node000025"><a xlink:href="namespacewmtk_1_1multimesh_1_1utils.html#abcc3f7f7a25879455cafc8a8f4304c4c" target="_top" xlink:title=" ">
<polygon fill="white" stroke="#666666" points="536.5,-94.5 406.5,-94.5 406.5,-64.5 536.5,-64.5 536.5,-94.5"/>
<text text-anchor="start" x="414.5" y="-82.5" font-family="Helvetica,sans-Serif" font-size="10.00">wmtk::multimesh::utils</text>
<text text-anchor="middle" x="471.5" y="-71.5" font-family="Helvetica,sans-Serif" font-size="10.00">::check_maps_valid</text>
</a>
</g>
</g>
<!-- Node24&#45;&gt;Node25 -->
<g id="edge26_Node000024_Node000025" class="edge">
<title>Node24&#45;&gt;Node25</title>
<g id="a_edge26_Node000024_Node000025"><a xlink:title=" ">
<path fill="none" stroke="#63b8ff" d="M594.14,-79.5C575.11,-79.5 555.01,-79.5 536.74,-79.5"/>
<polygon fill="#63b8ff" stroke="#63b8ff" points="594.28,-83 604.28,-79.5 594.28,-76 594.28,-83"/>
</a>
</g>
</g>
<!-- Node26 -->
<g id="Node000026" class="node">
<title>Node26</title>
<g id="a_Node000026"><a xlink:href="classwmtk_1_1operations_1_1_operation.html#af181d255eb0ef5297646e0dc9dc817a7" target="_top" xlink:title=" ">
<polygon fill="white" stroke="#666666" points="349.5,-160.5 193.5,-160.5 193.5,-130.5 349.5,-130.5 349.5,-160.5"/>
<text text-anchor="start" x="201.5" y="-148.5" font-family="Helvetica,sans-Serif" font-size="10.00">wmtk::operations::Operation</text>
<text text-anchor="middle" x="271.5" y="-137.5" font-family="Helvetica,sans-Serif" font-size="10.00">::apply_attribute_transfer</text>
</a>
</g>
</g>
<!-- Node25&#45;&gt;Node26 -->
<g id="edge27_Node000025_Node000026" class="edge">
<title>Node25&#45;&gt;Node26</title>
<g id="a_edge27_Node000025_Node000026"><a xlink:title=" ">
<path fill="none" stroke="#63b8ff" d="M409.39,-97.62C401.81,-100.14 394.19,-102.79 387,-105.5 370.61,-111.67 367.4,-115.37 351,-121.5 342.72,-124.59 333.85,-127.59 325.16,-130.37"/>
<polygon fill="#63b8ff" stroke="#63b8ff" points="410.53,-100.94 418.96,-94.52 408.36,-94.28 410.53,-100.94"/>
</a>
</g>
</g>
<!-- Node29 -->
<g id="Node000029" class="node">
<title>Node29</title>
<g id="a_Node000029"><a xlink:href="namespacewmtk_1_1components.html#a1d95b8c424d645d432babf8ba5765e36" target="_top" xlink:title=" ">
<polygon fill="white" stroke="#666666" points="341.5,-94.5 201.5,-94.5 201.5,-64.5 341.5,-64.5 341.5,-94.5"/>
<text text-anchor="start" x="209.5" y="-82.5" font-family="Helvetica,sans-Serif" font-size="10.00">wmtk::components::edge</text>
<text text-anchor="middle" x="271.5" y="-71.5" font-family="Helvetica,sans-Serif" font-size="10.00">_insertion</text>
</a>
</g>
</g>
<!-- Node25&#45;&gt;Node29 -->
<g id="edge30_Node000025_Node000029" class="edge">
<title>Node25&#45;&gt;Node29</title>
<g id="a_edge30_Node000025_Node000029"><a xlink:title=" ">
<path fill="none" stroke="#63b8ff" d="M396.39,-79.5C378.49,-79.5 359.43,-79.5 341.76,-79.5"/>
<polygon fill="#63b8ff" stroke="#63b8ff" points="396.49,-83 406.49,-79.5 396.49,-76 396.49,-83"/>
</a>
</g>
</g>
<!-- Node32 -->
<g id="Node000032" class="node">
<title>Node32</title>
<g id="a_Node000032"><a xlink:href="classwmtk_1_1operations_1_1composite_1_1_collapse_and_update_vertex.html#a8cc10265bc5d7192b42ed9949046a24f" target="_top" xlink:title="returns an empty vector in case of failure">
<polygon fill="white" stroke="#666666" points="351,-46 192,-46 192,-5 351,-5 351,-46"/>
<text text-anchor="start" x="200" y="-34" font-family="Helvetica,sans-Serif" font-size="10.00">wmtk::operations::composite</text>
<text text-anchor="start" x="200" y="-23" font-family="Helvetica,sans-Serif" font-size="10.00">::CollapseAndUpdateVertex</text>
<text text-anchor="middle" x="271.5" y="-12" font-family="Helvetica,sans-Serif" font-size="10.00">::execute</text>
</a>
</g>
</g>
<!-- Node25&#45;&gt;Node32 -->
<g id="edge34_Node000025_Node000032" class="edge">
<title>Node25&#45;&gt;Node32</title>
<g id="a_edge34_Node000025_Node000032"><a xlink:title=" ">
<path fill="none" stroke="#63b8ff" d="M405.57,-61.79C387.07,-56.75 366.76,-51.21 347.71,-46.01"/>
<polygon fill="#63b8ff" stroke="#63b8ff" points="404.78,-65.2 415.35,-64.46 406.62,-58.45 404.78,-65.2"/>
</a>
</g>
</g>
<!-- Node27 -->
<g id="Node000027" class="node">
<title>Node27</title>
<g id="a_Node000027"><a xlink:href="classwmtk_1_1operations_1_1_operation.html#a9c6426d34b54642aacb28e7cf93e328f" target="_top" xlink:title=" ">
<polygon fill="white" stroke="#666666" points="156,-203.5 0,-203.5 0,-173.5 156,-173.5 156,-203.5"/>
<text text-anchor="start" x="8" y="-191.5" font-family="Helvetica,sans-Serif" font-size="10.00">wmtk::operations::Operation</text>
<text text-anchor="middle" x="78" y="-180.5" font-family="Helvetica,sans-Serif" font-size="10.00">::operator()</text>
</a>
</g>
</g>
<!-- Node26&#45;&gt;Node27 -->
<g id="edge28_Node000026_Node000027" class="edge">
<title>Node26&#45;&gt;Node27</title>
<g id="a_edge28_Node000026_Node000027"><a xlink:title=" ">
<path fill="none" stroke="#63b8ff" d="M193.33,-162.83C177.63,-166.35 161.24,-170.03 145.94,-173.47"/>
<polygon fill="#63b8ff" stroke="#63b8ff" points="194.53,-166.15 203.52,-160.54 193,-159.32 194.53,-166.15"/>
</a>
</g>
</g>
<!-- Node28 -->
<g id="Node000028" class="node">
<title>Node28</title>
<g id="a_Node000028"><a xlink:href="classwmtk_1_1operations_1_1_operation_sequence.html#a547ec2a6ed8a354eff76e733b2e7fb2c" target="_top" xlink:title=" ">
<polygon fill="white" stroke="#666666" points="156,-155.5 0,-155.5 0,-125.5 156,-125.5 156,-155.5"/>
<text text-anchor="start" x="8" y="-143.5" font-family="Helvetica,sans-Serif" font-size="10.00">wmtk::operations::Operation</text>
<text text-anchor="middle" x="78" y="-132.5" font-family="Helvetica,sans-Serif" font-size="10.00">Sequence::operator()</text>
</a>
</g>
</g>
<!-- Node26&#45;&gt;Node28 -->
<g id="edge29_Node000026_Node000028" class="edge">
<title>Node26&#45;&gt;Node28</title>
<g id="a_edge29_Node000026_Node000028"><a xlink:title=" ">
<path fill="none" stroke="#63b8ff" d="M183.3,-143.22C174.27,-142.99 165.13,-142.75 156.22,-142.52"/>
<polygon fill="#63b8ff" stroke="#63b8ff" points="183.35,-146.73 193.44,-143.49 183.53,-139.73 183.35,-146.73"/>
</a>
</g>
</g>
<!-- Node29&#45;&gt;Node29 -->
<g id="edge31_Node000029_Node000029" class="edge">
<title>Node29&#45;&gt;Node29</title>
<g id="a_edge31_Node000029_Node000029"><a xlink:title=" ">
<path fill="none" stroke="#63b8ff" d="M305.11,-105.1C300.51,-109.47 289.31,-112.5 271.5,-112.5 241.5,-112.5 230.25,-103.91 237.75,-94.78"/>
<polygon fill="#63b8ff" stroke="#63b8ff" points="308.61,-104.82 305.25,-94.78 301.61,-104.73 308.61,-104.82"/>
</a>
</g>
</g>
<!-- Node30 -->
<g id="Node000030" class="node">
<title>Node30</title>
<g id="a_Node000030"><a xlink:href="namespacewmtk_1_1components_1_1internal.html#aff1250493ee8c47518118b92223c8576" target="_top" xlink:title=" ">
<polygon fill="white" stroke="#666666" points="155,-98.5 1,-98.5 1,-68.5 155,-68.5 155,-98.5"/>
<text text-anchor="start" x="9" y="-86.5" font-family="Helvetica,sans-Serif" font-size="10.00">wmtk::components::internal</text>
<text text-anchor="middle" x="78" y="-75.5" font-family="Helvetica,sans-Serif" font-size="10.00">::edge_insertion</text>
</a>
</g>
</g>
<!-- Node29&#45;&gt;Node30 -->
<g id="edge32_Node000029_Node000030" class="edge">
<title>Node29&#45;&gt;Node30</title>
<g id="a_edge32_Node000029_Node000030"><a xlink:title=" ">
<path fill="none" stroke="#63b8ff" d="M191.04,-81.16C179.18,-81.41 166.96,-81.66 155.17,-81.91"/>
<polygon fill="#63b8ff" stroke="#63b8ff" points="191.44,-84.65 201.36,-80.94 191.29,-77.65 191.44,-84.65"/>
</a>
</g>
</g>
<!-- Node31 -->
<g id="Node000031" class="node">
<title>Node31</title>
<g id="a_Node000031"><a xlink:href="namespacewmtk_1_1components_1_1internal.html#ad827cdbb96806fb2e4c19c644277f3c3" target="_top" xlink:title="include the intersection on edgepoints">
<polygon fill="white" stroke="#666666" points="155,-50.5 1,-50.5 1,-20.5 155,-20.5 155,-50.5"/>
<text text-anchor="start" x="9" y="-38.5" font-family="Helvetica,sans-Serif" font-size="10.00">wmtk::components::internal</text>
<text text-anchor="middle" x="78" y="-27.5" font-family="Helvetica,sans-Serif" font-size="10.00">::segment_segment_inter</text>
</a>
</g>
</g>
<!-- Node29&#45;&gt;Node31 -->
<g id="edge33_Node000029_Node000031" class="edge">
<title>Node29&#45;&gt;Node31</title>
<g id="a_edge33_Node000029_Node000031"><a xlink:title=" ">
<path fill="none" stroke="#63b8ff" d="M195.34,-62.23C178.51,-58.36 160.79,-54.29 144.4,-50.53"/>
<polygon fill="#63b8ff" stroke="#63b8ff" points="194.6,-65.65 205.13,-64.48 196.17,-58.83 194.6,-65.65"/>
</a>
</g>
</g>
<!-- Node34&#45;&gt;Node34 -->
<g id="edge38_Node000034_Node000034" class="edge">
<title>Node34&#45;&gt;Node34</title>
<g id="a_edge38_Node000034_Node000034"><a xlink:title=" ">
<path fill="none" stroke="#63b8ff" d="M1346.31,-52.96C1341.66,-57.74 1331.22,-61 1315,-61 1289.05,-61 1277.9,-52.65 1281.55,-43.1"/>
<polygon fill="#63b8ff" stroke="#63b8ff" points="1349.75,-53.61 1348.45,-43.1 1342.91,-52.13 1349.75,-53.61"/>
</a>
</g>
</g>
<!-- Node35 -->
<g id="Node000035" class="node">
<title>Node35</title>
<g id="a_Node000035"><a xlink:href="namespacewmtk_1_1components_1_1shortest__edge__collapse.html#a1be5a09251cc55d3030f671a39c7ed47" target="_top" xlink:title="Perform shortest&#45;edge collapse on a triangular surface mesh.">
<polygon fill="white" stroke="#666666" points="1171,-41 1015,-41 1015,0 1171,0 1171,-41"/>
<text text-anchor="start" x="1023" y="-29" font-family="Helvetica,sans-Serif" font-size="10.00">wmtk::components::shortest</text>
<text text-anchor="start" x="1023" y="-18" font-family="Helvetica,sans-Serif" font-size="10.00">_edge_collapse::shortest</text>
<text text-anchor="middle" x="1093" y="-7" font-family="Helvetica,sans-Serif" font-size="10.00">_edge_collapse</text>
</a>
</g>
</g>
<!-- Node34&#45;&gt;Node35 -->
<g id="edge37_Node000034_Node000035" class="edge">
<title>Node34&#45;&gt;Node35</title>
<g id="a_edge37_Node000034_Node000035"><a xlink:title=" ">
<path fill="none" stroke="#63b8ff" d="M1226.65,-21.71C1208.28,-21.54 1189.03,-21.36 1171.07,-21.2"/>
<polygon fill="#63b8ff" stroke="#63b8ff" points="1226.71,-25.21 1236.75,-21.8 1226.78,-18.21 1226.71,-25.21"/>
</a>
</g>
</g>
</g>
</svg>
