<?xml version="1.0" encoding="UTF-8" standalone="no"?>
<!DOCTYPE svg PUBLIC "-//W3C//DTD SVG 1.1//EN"
 "http://www.w3.org/Graphics/SVG/1.1/DTD/svg11.dtd">
<!-- Generated by graphviz version 2.43.0 (0)
 -->
<!-- Title: wmtk::function::Function::embedded_dimension Pages: 1 -->
<!--zoomable 185 -->

<svg id="main" version="1.1" xmlns="http://www.w3.org/2000/svg" xmlns:xlink="http://www.w3.org/1999/xlink" xml:space="preserve" onload="init(evt)">
<style type="text/css"><![CDATA[
.node, .edge {opacity: 0.7;}
.node.selected, .edge.selected {opacity: 1;}
.edge:hover path { stroke: red; }
.edge:hover polygon { stroke: red; fill: red; }
]]></style>

<defs>
  <circle id="rim" cx="0" cy="0" r="7"/>
  <circle id="rim2" cx="0" cy="0" r="3.5"/>
  <g id="zoomPlus">
    <use xlink:href="#rim" fill="#404040"><set attributeName="fill" to="#808080" begin="zoomplus.mouseover" end="zoomplus.mouseout"/></use>
    <path d="M-4,0h8M0,-4v8" fill="none" stroke="white" stroke-width="1.5" pointer-events="none"/>
  </g>
  <g id="zoomMin">
    <use xlink:href="#rim" fill="#404040"><set attributeName="fill" to="#808080" begin="zoomminus.mouseover" end="zoomminus.mouseout"/></use>
    <path d="M-4,0h8" fill="none" stroke="white" stroke-width="1.5" pointer-events="none"/>
  </g>
  <g id="arrowUp" transform="translate(30 24)">
    <use xlink:href="#rim"/>
    <path pointer-events="none" fill="none" stroke="white" stroke-width="1.5" d="M0,-3.0v7 M-2.5,-0.5L0,-3.0L2.5,-0.5"/>
  </g>
  <g id="arrowRight" transform="rotate(90) translate(36 -43)">
    <use xlink:href="#rim"/>
    <path pointer-events="none" fill="none" stroke="white" stroke-width="1.5" d="M0,-3.0v7 M-2.5,-0.5L0,-3.0L2.5,-0.5"/>
  </g>
  <g id="arrowDown" transform="rotate(180) translate(-30 -48)">
    <use xlink:href="#rim"/>
    <path pointer-events="none" fill="none" stroke="white" stroke-width="1.5" d="M0,-3.0v7 M-2.5,-0.5L0,-3.0L2.5,-0.5"/>
  </g>
  <g id="arrowLeft" transform="rotate(270) translate(-36 17)">
    <use xlink:href="#rim"/>
    <path pointer-events="none" fill="none" stroke="white" stroke-width="1.5" d="M0,-3.0v7 M-2.5,-0.5L0,-3.0L2.5,-0.5"/>
  </g>
  <g id="resetDef">
    <use xlink:href="#rim2" fill="#404040"><set attributeName="fill" to="#808080" begin="reset.mouseover" end="reset.mouseout"/></use>
  </g>
</defs>
<script type="application/ecmascript">
var viewWidth = 1316;
var viewHeight = 185;
var sectionId = 'dynsection-5';
</script>
<script type="application/ecmascript" xlink:href="svg.min.js"/>
<svg id="graph" class="graph">
<g id="viewport">
<title>wmtk::function::Function::embedded_dimension</title>
<!-- Node1 -->
<g id="Node000001" class="node">
<title>Node1</title>
<g id="a_Node000001"><a xlink:title=" ">
<polygon fill="#999999" stroke="#666666" points="137,-132.5 0,-132.5 0,-102.5 137,-102.5 137,-132.5"/>
<text text-anchor="start" x="8" y="-120.5" font-family="Helvetica,sans-Serif" font-size="10.00">wmtk::function::Function</text>
<text text-anchor="middle" x="68.5" y="-109.5" font-family="Helvetica,sans-Serif" font-size="10.00">::embedded_dimension</text>
</a>
</g>
</g>
<!-- Node2 -->
<g id="Node000002" class="node">
<title>Node2</title>
<g id="a_Node000002"><a xlink:href="classwmtk_1_1attribute_1_1_mesh_attribute_handle.html#a3c2f0b99a4f3581ac8da264d10c493a1" target="_top" xlink:title=" ">
<polygon fill="white" stroke="#666666" points="340,-111.5 173,-111.5 173,-81.5 340,-81.5 340,-111.5"/>
<text text-anchor="start" x="181" y="-99.5" font-family="Helvetica,sans-Serif" font-size="10.00">wmtk::attribute::MeshAttribute</text>
<text text-anchor="middle" x="256.5" y="-88.5" font-family="Helvetica,sans-Serif" font-size="10.00">Handle::dimension</text>
</a>
</g>
</g>
<!-- Node1&#45;&gt;Node2 -->
<g id="edge1_Node000001_Node000002" class="edge">
<title>Node1&#45;&gt;Node2</title>
<g id="a_edge1_Node000001_Node000002"><a xlink:title=" ">
<path fill="none" stroke="#63b8ff" d="M137.18,-109.86C145.54,-108.92 154.2,-107.94 162.85,-106.96"/>
<polygon fill="#63b8ff" stroke="#63b8ff" points="163.44,-110.42 172.99,-105.82 162.66,-103.46 163.44,-110.42"/>
</a>
</g>
</g>
<!-- Node6 -->
<g id="Node000006" class="node">
<title>Node6</title>
<g id="a_Node000006"><a xlink:href="classwmtk_1_1attribute_1_1_mesh_attribute_handle.html#ad577111f5b1fd05f60fae4b7f0ddb1f6" target="_top" xlink:title="Returns true if handle was initialized.">
<polygon fill="white" stroke="#666666" points="746,-175.5 579,-175.5 579,-145.5 746,-145.5 746,-175.5"/>
<text text-anchor="start" x="587" y="-163.5" font-family="Helvetica,sans-Serif" font-size="10.00">wmtk::attribute::MeshAttribute</text>
<text text-anchor="middle" x="662.5" y="-152.5" font-family="Helvetica,sans-Serif" font-size="10.00">Handle::is_valid</text>
</a>
</g>
</g>
<!-- Node1&#45;&gt;Node6 -->
<g id="edge17_Node000001_Node000006" class="edge">
<title>Node1&#45;&gt;Node6</title>
<g id="a_edge17_Node000001_Node000006"><a xlink:title=" ">
<path fill="none" stroke="#63b8ff" d="M137.05,-123.02C199.14,-128.03 293.75,-135.54 376,-141.5 440.25,-146.15 512.67,-150.97 568.49,-154.59"/>
<polygon fill="#63b8ff" stroke="#63b8ff" points="568.51,-158.09 578.71,-155.25 568.96,-151.11 568.51,-158.09"/>
</a>
</g>
</g>
<!-- Node3 -->
<g id="Node000003" class="node">
<title>Node3</title>
<g id="a_Node000003"><a xlink:href="classwmtk_1_1attribute_1_1_mesh_attribute_handle.html#a7f60b49ee06ab72a15ba0507ce2a0316" target="_top" xlink:title=" ">
<polygon fill="white" stroke="#666666" points="543,-132.5 376,-132.5 376,-102.5 543,-102.5 543,-132.5"/>
<text text-anchor="start" x="384" y="-120.5" font-family="Helvetica,sans-Serif" font-size="10.00">wmtk::attribute::MeshAttribute</text>
<text text-anchor="middle" x="459.5" y="-109.5" font-family="Helvetica,sans-Serif" font-size="10.00">Handle::exists</text>
</a>
</g>
</g>
<!-- Node2&#45;&gt;Node3 -->
<g id="edge2_Node000002_Node000003" class="edge">
<title>Node2&#45;&gt;Node3</title>
<g id="a_edge2_Node000002_Node000003"><a xlink:title=" ">
<path fill="none" stroke="#63b8ff" d="M340.12,-105.13C348.61,-106.02 357.27,-106.92 365.85,-107.82"/>
<polygon fill="#63b8ff" stroke="#63b8ff" points="365.56,-111.31 375.87,-108.87 366.29,-104.35 365.56,-111.31"/>
</a>
</g>
</g>
<!-- Node9 -->
<g id="Node000009" class="node">
<title>Node9</title>
<g id="a_Node000009"><a xlink:href="classwmtk_1_1attribute_1_1_mesh_attribute_handle.html#a620620d54776b2c5f4f9cebad465cfa7" target="_top" xlink:title=" ">
<polygon fill="white" stroke="#666666" points="746,-89.5 579,-89.5 579,-59.5 746,-59.5 746,-89.5"/>
<text text-anchor="start" x="587" y="-77.5" font-family="Helvetica,sans-Serif" font-size="10.00">wmtk::attribute::MeshAttribute</text>
<text text-anchor="middle" x="662.5" y="-66.5" font-family="Helvetica,sans-Serif" font-size="10.00">Handle::mesh</text>
</a>
</g>
</g>
<!-- Node2&#45;&gt;Node9 -->
<g id="edge16_Node000002_Node000009" class="edge">
<title>Node2&#45;&gt;Node9</title>
<g id="a_edge16_Node000002_Node000009"><a xlink:title=" ">
<path fill="none" stroke="#63b8ff" d="M340.23,-91.99C406.68,-88.38 499.96,-83.3 568.89,-79.54"/>
<polygon fill="#63b8ff" stroke="#63b8ff" points="569.09,-83.04 578.88,-79 568.7,-76.05 569.09,-83.04"/>
</a>
</g>
</g>
<!-- Node10 -->
<g id="Node000010" class="node">
<title>Node10</title>
<g id="a_Node000010"><a xlink:href="classwmtk_1_1_mesh.html#a4f546f0125de42db771686220d77ec78" target="_top" xlink:title=" ">
<polygon fill="white" stroke="#666666" points="532.5,-41.5 386.5,-41.5 386.5,-11.5 532.5,-11.5 532.5,-41.5"/>
<text text-anchor="start" x="394.5" y="-29.5" font-family="Helvetica,sans-Serif" font-size="10.00">wmtk::Mesh::get_attribute</text>
<text text-anchor="middle" x="459.5" y="-18.5" font-family="Helvetica,sans-Serif" font-size="10.00">_dimension</text>
</a>
</g>
</g>
<!-- Node2&#45;&gt;Node10 -->
<g id="edge11_Node000002_Node000010" class="edge">
<title>Node2&#45;&gt;Node10</title>
<g id="a_edge11_Node000002_Node000010"><a xlink:title=" ">
<path fill="none" stroke="#63b8ff" d="M300.62,-81.48C331.25,-70.82 372.57,-56.42 405.26,-45.04"/>
<polygon fill="#63b8ff" stroke="#63b8ff" points="406.81,-48.21 415.11,-41.61 404.51,-41.6 406.81,-48.21"/>
</a>
</g>
</g>
<!-- Node4 -->
<g id="Node000004" class="node">
<title>Node4</title>
<g id="a_Node000004"><a xlink:href="classwmtk_1_1_mesh.html#a89b735bef9cbf8d5ab955d23f787b70f" target="_top" xlink:title=" ">
<polygon fill="white" stroke="#666666" points="940.5,-110 793.5,-110 793.5,-91 940.5,-91 940.5,-110"/>
<text text-anchor="middle" x="867" y="-98" font-family="Helvetica,sans-Serif" font-size="10.00">wmtk::Mesh::has_attribute</text>
</a>
</g>
</g>
<!-- Node3&#45;&gt;Node4 -->
<g id="edge3_Node000003_Node000004" class="edge">
<title>Node3&#45;&gt;Node4</title>
<g id="a_edge3_Node000003_Node000004"><a xlink:title=" ">
<path fill="none" stroke="#63b8ff" d="M543.05,-114.04C613.12,-111.1 713.18,-106.91 783.3,-103.97"/>
<polygon fill="#63b8ff" stroke="#63b8ff" points="783.58,-107.46 793.42,-103.54 783.29,-100.46 783.58,-107.46"/>
</a>
</g>
</g>
<!-- Node3&#45;&gt;Node6 -->
<g id="edge6_Node000003_Node000006" class="edge">
<title>Node3&#45;&gt;Node6</title>
<g id="a_edge6_Node000003_Node000006"><a xlink:title=" ">
<path fill="none" stroke="#63b8ff" d="M530.8,-132.54C547.02,-136.01 564.39,-139.73 581.01,-143.28"/>
<polygon fill="#63b8ff" stroke="#63b8ff" points="580.73,-146.8 591.24,-145.47 582.19,-139.95 580.73,-146.8"/>
</a>
</g>
</g>
<!-- Node3&#45;&gt;Node9 -->
<g id="edge10_Node000003_Node000009" class="edge">
<title>Node3&#45;&gt;Node9</title>
<g id="a_edge10_Node000003_Node000009"><a xlink:title=" ">
<path fill="none" stroke="#63b8ff" d="M530.8,-102.46C547.02,-98.99 564.39,-95.27 581.01,-91.72"/>
<polygon fill="#63b8ff" stroke="#63b8ff" points="582.19,-95.05 591.24,-89.53 580.73,-88.2 582.19,-95.05"/>
</a>
</g>
</g>
<!-- Node4&#45;&gt;Node4 -->
<g id="edge5_Node000004_Node000004" class="edge">
<title>Node4&#45;&gt;Node4</title>
<g id="a_edge5_Node000004_Node000004"><a xlink:title=" ">
<path fill="none" stroke="#63b8ff" d="M837.41,-110.08C823.01,-118.73 832.88,-128 867,-128 890.46,-128 902.45,-123.62 902.98,-118.07"/>
<polygon fill="#63b8ff" stroke="#63b8ff" points="905.57,-115.71 896.59,-110.08 900.11,-120.08 905.57,-115.71"/>
</a>
</g>
</g>
<!-- Node5 -->
<g id="Node000005" class="node">
<title>Node5</title>
<g id="a_Node000005"><a xlink:href="classwmtk_1_1attribute_1_1_attribute_manager.html#a2169001c03d75b77488dba8494038fe5" target="_top" xlink:title=" ">
<polygon fill="white" stroke="#666666" points="1308,-115.5 1167,-115.5 1167,-85.5 1308,-85.5 1308,-115.5"/>
<text text-anchor="start" x="1175" y="-103.5" font-family="Helvetica,sans-Serif" font-size="10.00">wmtk::attribute::Attribute</text>
<text text-anchor="middle" x="1237.5" y="-92.5" font-family="Helvetica,sans-Serif" font-size="10.00">Manager::get</text>
</a>
</g>
</g>
<!-- Node4&#45;&gt;Node5 -->
<g id="edge4_Node000004_Node000005" class="edge">
<title>Node4&#45;&gt;Node5</title>
<g id="a_edge4_Node000004_Node000005"><a xlink:title=" ">
<path fill="none" stroke="#63b8ff" d="M940.8,-100.5C1003.12,-100.5 1092.69,-100.5 1156.89,-100.5"/>
<polygon fill="#63b8ff" stroke="#63b8ff" points="1156.97,-104 1166.97,-100.5 1156.97,-97 1156.97,-104"/>
</a>
</g>
</g>
<!-- Node7 -->
<g id="Node000007" class="node">
<title>Node7</title>
<g id="a_Node000007"><a xlink:href="classwmtk_1_1_mesh.html#a73ea62ce0428cf64f836f77482a87c40" target="_top" xlink:title=" ">
<polygon fill="white" stroke="#666666" points="928,-176.5 806,-176.5 806,-146.5 928,-146.5 928,-176.5"/>
<text text-anchor="start" x="814" y="-164.5" font-family="Helvetica,sans-Serif" font-size="10.00">wmtk::Mesh::validate</text>
<text text-anchor="middle" x="867" y="-153.5" font-family="Helvetica,sans-Serif" font-size="10.00">_handle</text>
</a>
</g>
</g>
<!-- Node6&#45;&gt;Node7 -->
<g id="edge7_Node000006_Node000007" class="edge">
<title>Node6&#45;&gt;Node7</title>
<g id="a_edge7_Node000006_Node000007"><a xlink:title=" ">
<path fill="none" stroke="#63b8ff" d="M746.16,-160.91C762.57,-160.99 779.67,-161.07 795.63,-161.15"/>
<polygon fill="#63b8ff" stroke="#63b8ff" points="795.92,-164.65 805.93,-161.2 795.95,-157.65 795.92,-164.65"/>
</a>
</g>
</g>
<!-- Node8 -->
<g id="Node000008" class="node">
<title>Node8</title>
<g id="a_Node000008"><a xlink:href="classwmtk_1_1attribute_1_1_attribute_manager.html#a3b1a087ab6c03a0f2e6a6a93b87f3147" target="_top" xlink:title=" ">
<polygon fill="white" stroke="#666666" points="1131,-167.5 988,-167.5 988,-137.5 1131,-137.5 1131,-167.5"/>
<text text-anchor="start" x="996" y="-155.5" font-family="Helvetica,sans-Serif" font-size="10.00">wmtk::attribute::Attribute</text>
<text text-anchor="middle" x="1059.5" y="-144.5" font-family="Helvetica,sans-Serif" font-size="10.00">Manager::validate_handle</text>
</a>
</g>
</g>
<!-- Node7&#45;&gt;Node8 -->
<g id="edge8_Node000007_Node000008" class="edge">
<title>Node7&#45;&gt;Node8</title>
<g id="a_edge8_Node000007_Node000008"><a xlink:title=" ">
<path fill="none" stroke="#63b8ff" d="M928.01,-158.66C943.73,-157.92 960.93,-157.11 977.54,-156.32"/>
<polygon fill="#63b8ff" stroke="#63b8ff" points="977.97,-159.81 987.79,-155.84 977.64,-152.82 977.97,-159.81"/>
</a>
</g>
</g>
<!-- Node8&#45;&gt;Node5 -->
<g id="edge9_Node000008_Node000005" class="edge">
<title>Node8&#45;&gt;Node5</title>
<g id="a_edge9_Node000008_Node000005"><a xlink:title=" ">
<path fill="none" stroke="#63b8ff" d="M1111.41,-137.46C1131.56,-131.5 1154.9,-124.61 1175.92,-118.4"/>
<polygon fill="#63b8ff" stroke="#63b8ff" points="1177.11,-121.7 1185.71,-115.51 1175.13,-114.98 1177.11,-121.7"/>
</a>
</g>
</g>
<!-- Node11 -->
<g id="Node000011" class="node">
<title>Node11</title>
<g id="a_Node000011"><a xlink:href="classwmtk_1_1attribute_1_1_attribute_manager.html#a4ae249faad236f8d98287c3ec61e987e" target="_top" xlink:title=" ">
<polygon fill="white" stroke="#666666" points="733,-41 592,-41 592,0 733,0 733,-41"/>
<text text-anchor="start" x="600" y="-29" font-family="Helvetica,sans-Serif" font-size="10.00">wmtk::attribute::Attribute</text>
<text text-anchor="start" x="600" y="-18" font-family="Helvetica,sans-Serif" font-size="10.00">Manager::get_attribute</text>
<text text-anchor="middle" x="662.5" y="-7" font-family="Helvetica,sans-Serif" font-size="10.00">_dimension</text>
</a>
</g>
</g>
<!-- Node10&#45;&gt;Node11 -->
<g id="edge12_Node000010_Node000011" class="edge">
<title>Node10&#45;&gt;Node11</title>
<g id="a_edge12_Node000010_Node000011"><a xlink:title=" ">
<path fill="none" stroke="#63b8ff" d="M532.78,-24.34C548.57,-23.87 565.37,-23.37 581.44,-22.89"/>
<polygon fill="#63b8ff" stroke="#63b8ff" points="581.98,-26.38 591.88,-22.58 581.78,-19.38 581.98,-26.38"/>
</a>
</g>
</g>
<!-- Node11&#45;&gt;Node5 -->
<g id="edge13_Node000011_Node000005" class="edge">
<title>Node11&#45;&gt;Node5</title>
<g id="a_edge13_Node000011_Node000005"><a xlink:title=" ">
<path fill="none" stroke="#63b8ff" d="M733.23,-34.84C749.22,-37.9 766.17,-40.97 782,-43.5 912.95,-64.4 1066.14,-82.25 1157.04,-92.17"/>
<polygon fill="#63b8ff" stroke="#63b8ff" points="1156.68,-95.65 1167,-93.25 1157.43,-88.69 1156.68,-95.65"/>
</a>
</g>
</g>
<!-- Node12 -->
<g id="Node000012" class="node">
<title>Node12</title>
<g id="a_Node000012"><a xlink:href="classwmtk_1_1attribute_1_1_typed_attribute_handle.html#ad473b36dc43489bad4a345dceac443fa" target="_top" xlink:title=" ">
<polygon fill="white" stroke="#666666" points="952,-34.5 782,-34.5 782,-4.5 952,-4.5 952,-34.5"/>
<text text-anchor="start" x="790" y="-22.5" font-family="Helvetica,sans-Serif" font-size="10.00">wmtk::attribute::TypedAttribute</text>
<text text-anchor="middle" x="867" y="-11.5" font-family="Helvetica,sans-Serif" font-size="10.00">Handle::is_valid</text>
</a>
</g>
</g>
<!-- Node11&#45;&gt;Node12 -->
<g id="edge14_Node000011_Node000012" class="edge">
<title>Node11&#45;&gt;Node12</title>
<g id="a_edge14_Node000011_Node000012"><a xlink:title=" ">
<path fill="none" stroke="#63b8ff" d="M733.19,-20.16C745.56,-20.09 758.62,-20.03 771.54,-19.97"/>
<polygon fill="#63b8ff" stroke="#63b8ff" points="771.87,-23.46 781.85,-19.92 771.83,-16.47 771.87,-23.46"/>
</a>
</g>
</g>
<!-- Node13 -->
<g id="Node000013" class="node">
<title>Node13</title>
<g id="a_Node000013"><a xlink:href="classwmtk_1_1attribute_1_1_attribute_handle.html#afbe0d658f352336562850deaca347fe6" target="_top" xlink:title=" ">
<polygon fill="white" stroke="#666666" points="1130,-34.5 989,-34.5 989,-4.5 1130,-4.5 1130,-34.5"/>
<text text-anchor="start" x="997" y="-22.5" font-family="Helvetica,sans-Serif" font-size="10.00">wmtk::attribute::Attribute</text>
<text text-anchor="middle" x="1059.5" y="-11.5" font-family="Helvetica,sans-Serif" font-size="10.00">Handle::is_valid</text>
</a>
</g>
</g>
<!-- Node12&#45;&gt;Node13 -->
<g id="edge15_Node000012_Node000013" class="edge">
<title>Node12&#45;&gt;Node13</title>
<g id="a_edge15_Node000012_Node000013"><a xlink:title=" ">
<path fill="none" stroke="#63b8ff" d="M952.11,-19.5C960.92,-19.5 969.86,-19.5 978.63,-19.5"/>
<polygon fill="#63b8ff" stroke="#63b8ff" points="978.81,-23 988.81,-19.5 978.81,-16 978.81,-23"/>
</a>
</g>
</g>
</g>
</svg>

<g id="navigator" transform="translate(0 0)" fill="#404254">
  <rect fill="#f2f5e9" fill-opacity="0.5" stroke="#606060" stroke-width=".5" x="0" y="0" width="60" height="60"/>
  <use id="zoomplus" xlink:href="#zoomPlus" x="17" y="9" onmousedown="handleZoom(evt,'in')"/>
  <use id="zoomminus" xlink:href="#zoomMin" x="42" y="9" onmousedown="handleZoom(evt,'out')"/>
  <use id="reset" xlink:href="#resetDef" x="30" y="36" onmousedown="handleReset()"/>
   <use id="arrowup" xlink:href="#arrowUp" x="0" y="0" onmousedown="handlePan(0,-1)"/>
  <use id="arrowright" xlink:href="#arrowRight" x="0" y="0" onmousedown="handlePan(1,0)"/>
  <use id="arrowdown" xlink:href="#arrowDown" x="0" y="0" onmousedown="handlePan(0,1)"/>
  <use id="arrowleft" xlink:href="#arrowLeft" x="0" y="0" onmousedown="handlePan(-1,0)"/>
</g>
<svg viewBox="0 0 15 15" width="100%" height="30px" preserveAspectRatio="xMaxYMin meet">
 <g id="arrow_out" transform="scale(0.3 0.3)">
  <a xlink:href="classwmtk_1_1function_1_1_function_a0c62fa4a0fed84733c0c18b1806d1eca_cgraph_org.svg" target="_base">
   <rect id="button" ry="5" rx="5" y="6" x="6" height="38" width="38"
        fill="#f2f5e9" fill-opacity="0.5" stroke="#606060" stroke-width="1.0"/>
   <path id="arrow"
     d="M 11.500037,31.436501 C 11.940474,20.09759 22.043105,11.32322 32.158766,21.979434 L 37.068811,17.246167 C 37.068811,17.246167 37.088388,32 37.088388,32 L 22.160133,31.978069 C 22.160133,31.978069 26.997745,27.140456 26.997745,27.140456 C 18.528582,18.264221 13.291696,25.230495 11.500037,31.436501 z"
     style="fill:#404040;"/>
  </a>
 </g>
</svg>

<style type='text/css'>
<![CDATA[
[data-mouse-over-selected='false'] { opacity: 0.7; }
[data-mouse-over-selected='true']  { opacity: 1.0; }
]]>
</style>
<script type="application/ecmascript"><![CDATA[
document.addEventListener('DOMContentLoaded', (event) => {
  highlightEdges();
  highlightAdjacentNodes();
});
]]></script>
</svg>
