<?xml version="1.0" encoding="UTF-8" standalone="no"?>
<!DOCTYPE svg PUBLIC "-//W3C//DTD SVG 1.1//EN"
 "http://www.w3.org/Graphics/SVG/1.1/DTD/svg11.dtd">
<!-- Generated by graphviz version 2.43.0 (0)
 -->
<!-- Title: wmtk::TriMesh::is_boundary_vertex Pages: 1 -->
<svg width="1662pt" height="553pt"
 viewBox="0.00 0.00 1662.00 552.50" xmlns="http://www.w3.org/2000/svg" xmlns:xlink="http://www.w3.org/1999/xlink">
<g id="graph0" class="graph" transform="scale(1 1) rotate(0) translate(4 548.5)">
<title>wmtk::TriMesh::is_boundary_vertex</title>
<!-- Node1 -->
<g id="Node000001" class="node">
<title>Node1</title>
<g id="a_Node000001"><a xlink:title=" ">
<polygon fill="#999999" stroke="#666666" points="153,-265 0,-265 0,-235 153,-235 153,-265"/>
<text text-anchor="start" x="8" y="-253" font-family="Helvetica,sans-Serif" font-size="10.00">wmtk::TriMesh::is_boundary</text>
<text text-anchor="middle" x="76.5" y="-242" font-family="Helvetica,sans-Serif" font-size="10.00">_vertex</text>
</a>
</g>
</g>
<!-- Node2 -->
<g id="Node000002" class="node">
<title>Node2</title>
<g id="a_Node000002"><a xlink:href="classwmtk_1_1_tri_mesh.html#ac603f7969b10c674eb00e007a507a530" target="_top" xlink:title=" ">
<polygon fill="white" stroke="#666666" points="723,-278.5 541,-278.5 541,-259.5 723,-259.5 723,-278.5"/>
<text text-anchor="middle" x="632" y="-266.5" font-family="Helvetica,sans-Serif" font-size="10.00">wmtk::TriMesh::is_boundary_edge</text>
</a>
</g>
</g>
<!-- Node1&#45;&gt;Node2 -->
<g id="edge1_Node000001_Node000002" class="edge">
<title>Node1&#45;&gt;Node2</title>
<g id="a_edge1_Node000001_Node000002"><a xlink:title=" ">
<path fill="none" stroke="#63b8ff" d="M153.01,-252.59C250.98,-255.96 422.18,-261.83 530.9,-265.56"/>
<polygon fill="#63b8ff" stroke="#63b8ff" points="530.78,-269.06 540.89,-265.91 531.02,-262.07 530.78,-269.06"/>
</a>
</g>
</g>
<!-- Node27 -->
<g id="Node000027" class="node">
<title>Node27</title>
<g id="a_Node000027"><a xlink:href="classwmtk_1_1_tri_mesh.html#a79010f8baac63245558c846aafea10d0" target="_top" xlink:title=" ">
<polygon fill="white" stroke="#666666" points="344,-203.5 189,-203.5 189,-184.5 344,-184.5 344,-203.5"/>
<text text-anchor="middle" x="266.5" y="-191.5" font-family="Helvetica,sans-Serif" font-size="10.00">wmtk::TriMesh::switch_edge</text>
</a>
</g>
</g>
<!-- Node1&#45;&gt;Node27 -->
<g id="edge34_Node000001_Node000027" class="edge">
<title>Node1&#45;&gt;Node27</title>
<g id="a_edge34_Node000001_Node000027"><a xlink:title=" ">
<path fill="none" stroke="#63b8ff" d="M118.5,-234.96C139.44,-227.55 165.41,-218.78 189,-212 196.29,-209.9 204.03,-207.87 211.67,-205.97"/>
<polygon fill="#63b8ff" stroke="#63b8ff" points="212.73,-209.31 221.62,-203.55 211.07,-202.51 212.73,-209.31"/>
</a>
</g>
</g>
<!-- Node33 -->
<g id="Node000033" class="node">
<title>Node33</title>
<g id="a_Node000033"><a xlink:href="classwmtk_1_1_tri_mesh.html#a0ecb0fd199e840ff9f3d206abc10a64b" target="_top" xlink:title=" ">
<polygon fill="white" stroke="#666666" points="342.5,-240.5 190.5,-240.5 190.5,-221.5 342.5,-221.5 342.5,-240.5"/>
<text text-anchor="middle" x="266.5" y="-228.5" font-family="Helvetica,sans-Serif" font-size="10.00">wmtk::TriMesh::switch_face</text>
</a>
</g>
</g>
<!-- Node1&#45;&gt;Node33 -->
<g id="edge46_Node000001_Node000033" class="edge">
<title>Node1&#45;&gt;Node33</title>
<g id="a_edge46_Node000001_Node000033"><a xlink:title=" ">
<path fill="none" stroke="#63b8ff" d="M153.15,-242.35C162.05,-241.46 171.17,-240.53 180.19,-239.62"/>
<polygon fill="#63b8ff" stroke="#63b8ff" points="180.71,-243.09 190.31,-238.6 180.01,-236.12 180.71,-243.09"/>
</a>
</g>
</g>
<!-- Node3 -->
<g id="Node000003" class="node">
<title>Node3</title>
<g id="a_Node000003"><a xlink:href="classwmtk_1_1_tri_mesh.html#a611704f60f24669e957325c7cb79f200" target="_top" xlink:title="check validity of tuple including its hash">
<polygon fill="white" stroke="#666666" points="890,-240.5 759,-240.5 759,-221.5 890,-221.5 890,-240.5"/>
<text text-anchor="middle" x="824.5" y="-228.5" font-family="Helvetica,sans-Serif" font-size="10.00">wmtk::TriMesh::is_valid</text>
</a>
</g>
</g>
<!-- Node2&#45;&gt;Node3 -->
<g id="edge2_Node000002_Node000003" class="edge">
<title>Node2&#45;&gt;Node3</title>
<g id="a_edge2_Node000002_Node000003"><a xlink:title=" ">
<path fill="none" stroke="#63b8ff" d="M681.07,-259.41C706.78,-254.28 738.61,-247.93 765.66,-242.54"/>
<polygon fill="#63b8ff" stroke="#63b8ff" points="766.65,-245.91 775.77,-240.52 765.28,-239.04 766.65,-245.91"/>
</a>
</g>
</g>
<!-- Node4 -->
<g id="Node000004" class="node">
<title>Node4</title>
<g id="a_Node000004"><a xlink:href="classwmtk_1_1_tri_mesh.html#a6375662ccb85d7c8868b3c76d708bae5" target="_top" xlink:title=" ">
<polygon fill="white" stroke="#666666" points="1093,-335 926,-335 926,-305 1093,-305 1093,-335"/>
<text text-anchor="start" x="934" y="-323" font-family="Helvetica,sans-Serif" font-size="10.00">wmtk::TriMesh::is_connectivity</text>
<text text-anchor="middle" x="1009.5" y="-312" font-family="Helvetica,sans-Serif" font-size="10.00">_valid</text>
</a>
</g>
</g>
<!-- Node3&#45;&gt;Node4 -->
<g id="edge3_Node000003_Node000004" class="edge">
<title>Node3&#45;&gt;Node4</title>
<g id="a_edge3_Node000003_Node000004"><a xlink:title=" ">
<path fill="none" stroke="#63b8ff" d="M845.08,-240.52C874.32,-254.75 930.04,-281.84 968.21,-300.4"/>
<polygon fill="#63b8ff" stroke="#63b8ff" points="966.98,-303.7 977.51,-304.93 970.05,-297.41 966.98,-303.7"/>
</a>
</g>
</g>
<!-- Node18 -->
<g id="Node000018" class="node">
<title>Node18</title>
<g id="a_Node000018"><a xlink:href="namespacewmtk.html#a6a35f11c12436093d26fdd8be6fecc06" target="_top" xlink:title="Retrieves the current logger.">
<polygon fill="white" stroke="#666666" points="1251,-507.5 1170,-507.5 1170,-488.5 1251,-488.5 1251,-507.5"/>
<text text-anchor="middle" x="1210.5" y="-495.5" font-family="Helvetica,sans-Serif" font-size="10.00">wmtk::logger</text>
</a>
</g>
</g>
<!-- Node3&#45;&gt;Node18 -->
<g id="edge28_Node000003_Node000018" class="edge">
<title>Node3&#45;&gt;Node18</title>
<g id="a_edge28_Node000003_Node000018"><a xlink:title=" ">
<path fill="none" stroke="#63b8ff" d="M832.51,-240.63C847.83,-261.27 886.17,-310.59 926,-344 1007.18,-412.09 1033.54,-423.02 1129,-469 1141.58,-475.06 1155.79,-480.58 1168.72,-485.14"/>
<polygon fill="#63b8ff" stroke="#63b8ff" points="1167.72,-488.5 1178.31,-488.44 1169.99,-481.88 1167.72,-488.5"/>
</a>
</g>
</g>
<!-- Node20 -->
<g id="Node000020" class="node">
<title>Node20</title>
<g id="a_Node000020"><a xlink:href="classwmtk_1_1_mesh.html#a8cc8686f0688613806f43720b6db49e7" target="_top" xlink:title="check validity of tuple including its hash">
<polygon fill="white" stroke="#666666" points="1069.5,-164.5 949.5,-164.5 949.5,-145.5 1069.5,-145.5 1069.5,-164.5"/>
<text text-anchor="middle" x="1009.5" y="-152.5" font-family="Helvetica,sans-Serif" font-size="10.00">wmtk::Mesh::is_valid</text>
</a>
</g>
</g>
<!-- Node3&#45;&gt;Node20 -->
<g id="edge24_Node000003_Node000020" class="edge">
<title>Node3&#45;&gt;Node20</title>
<g id="a_edge24_Node000003_Node000020"><a xlink:title=" ">
<path fill="none" stroke="#63b8ff" d="M848.68,-221.37C880.99,-207.95 939.72,-183.57 976.28,-168.38"/>
<polygon fill="#63b8ff" stroke="#63b8ff" points="977.62,-171.62 985.51,-164.55 974.93,-165.15 977.62,-171.62"/>
</a>
</g>
</g>
<!-- Node23 -->
<g id="Node000023" class="node">
<title>Node23</title>
<g id="a_Node000023"><a xlink:href="namespacewmtk_1_1autogen_1_1tri__mesh.html#a786155d6d2270c482ffd6a96d3211867" target="_top" xlink:title=" ">
<polygon fill="white" stroke="#666666" points="1070.5,-127.5 948.5,-127.5 948.5,-86.5 1070.5,-86.5 1070.5,-127.5"/>
<text text-anchor="start" x="956.5" y="-115.5" font-family="Helvetica,sans-Serif" font-size="10.00">wmtk::autogen::tri</text>
<text text-anchor="start" x="956.5" y="-104.5" font-family="Helvetica,sans-Serif" font-size="10.00">_mesh::tuple_is_valid</text>
<text text-anchor="middle" x="1009.5" y="-93.5" font-family="Helvetica,sans-Serif" font-size="10.00">_for_ccw</text>
</a>
</g>
</g>
<!-- Node3&#45;&gt;Node23 -->
<g id="edge29_Node000003_Node000023" class="edge">
<title>Node3&#45;&gt;Node23</title>
<g id="a_edge29_Node000003_Node000023"><a xlink:title=" ">
<path fill="none" stroke="#63b8ff" d="M836.66,-221.37C849.68,-210.03 871.76,-190.53 890,-173 906.54,-157.1 906.67,-148.35 926,-136 930.1,-133.38 934.47,-130.96 938.97,-128.73"/>
<polygon fill="#63b8ff" stroke="#63b8ff" points="940.74,-131.78 948.37,-124.43 937.82,-125.41 940.74,-131.78"/>
</a>
</g>
</g>
<!-- Node5 -->
<g id="Node000005" class="node">
<title>Node5</title>
<g id="a_Node000005"><a xlink:href="classwmtk_1_1_mesh.html#a3e8ff83c4a5526a40d18bb9883c6c6c9" target="_top" xlink:title="read in the m_capacities return the upper bound for the number of entities of the given dimension">
<polygon fill="white" stroke="#666666" points="1464,-280.5 1340,-280.5 1340,-261.5 1464,-261.5 1464,-280.5"/>
<text text-anchor="middle" x="1402" y="-268.5" font-family="Helvetica,sans-Serif" font-size="10.00">wmtk::Mesh::capacity</text>
</a>
</g>
</g>
<!-- Node4&#45;&gt;Node5 -->
<g id="edge4_Node000004_Node000005" class="edge">
<title>Node4&#45;&gt;Node5</title>
<g id="a_edge4_Node000004_Node000005"><a xlink:title=" ">
<path fill="none" stroke="#63b8ff" d="M1093.32,-309.61C1163.48,-300.8 1263.04,-288.31 1329.71,-279.95"/>
<polygon fill="#63b8ff" stroke="#63b8ff" points="1330.22,-283.41 1339.71,-278.69 1329.35,-276.46 1330.22,-283.41"/>
</a>
</g>
</g>
<!-- Node7 -->
<g id="Node000007" class="node">
<title>Node7</title>
<g id="a_Node000007"><a xlink:href="classwmtk_1_1attribute_1_1_caching_accessor.html#a196b6b32e2495b971113d552be7f45d9" target="_top" xlink:title=" ">
<polygon fill="white" stroke="#666666" points="1470.5,-361.5 1333.5,-361.5 1333.5,-320.5 1470.5,-320.5 1470.5,-361.5"/>
<text text-anchor="start" x="1341.5" y="-349.5" font-family="Helvetica,sans-Serif" font-size="10.00">wmtk::attribute::Caching</text>
<text text-anchor="start" x="1341.5" y="-338.5" font-family="Helvetica,sans-Serif" font-size="10.00">Accessor::const_scalar</text>
<text text-anchor="middle" x="1402" y="-327.5" font-family="Helvetica,sans-Serif" font-size="10.00">_attribute</text>
</a>
</g>
</g>
<!-- Node4&#45;&gt;Node7 -->
<g id="edge6_Node000004_Node000007" class="edge">
<title>Node4&#45;&gt;Node7</title>
<g id="a_edge6_Node000004_Node000007"><a xlink:title=" ">
<path fill="none" stroke="#63b8ff" d="M1093.04,-323.79C1149.16,-326.45 1225.07,-330.19 1292,-334 1302.11,-334.58 1312.75,-335.22 1323.26,-335.87"/>
<polygon fill="#63b8ff" stroke="#63b8ff" points="1323.07,-339.36 1333.27,-336.5 1323.51,-332.38 1323.07,-339.36"/>
</a>
</g>
</g>
<!-- Node8 -->
<g id="Node000008" class="node">
<title>Node8</title>
<g id="a_Node000008"><a xlink:href="classwmtk_1_1attribute_1_1_caching_accessor.html#ab850fe07669c7bc92ca6cf6e86c60ee0" target="_top" xlink:title=" ">
<polygon fill="white" stroke="#666666" points="1279,-383.5 1142,-383.5 1142,-342.5 1279,-342.5 1279,-383.5"/>
<text text-anchor="start" x="1150" y="-371.5" font-family="Helvetica,sans-Serif" font-size="10.00">wmtk::attribute::Caching</text>
<text text-anchor="start" x="1150" y="-360.5" font-family="Helvetica,sans-Serif" font-size="10.00">Accessor::const_vector</text>
<text text-anchor="middle" x="1210.5" y="-349.5" font-family="Helvetica,sans-Serif" font-size="10.00">_attribute</text>
</a>
</g>
</g>
<!-- Node4&#45;&gt;Node8 -->
<g id="edge7_Node000004_Node000008" class="edge">
<title>Node4&#45;&gt;Node8</title>
<g id="a_edge7_Node000004_Node000008"><a xlink:title=" ">
<path fill="none" stroke="#63b8ff" d="M1080.1,-335.04C1096.87,-338.66 1114.89,-342.56 1132,-346.25"/>
<polygon fill="#63b8ff" stroke="#63b8ff" points="1131.44,-349.71 1141.95,-348.4 1132.91,-342.87 1131.44,-349.71"/>
</a>
</g>
</g>
<!-- Node9 -->
<g id="Node000009" class="node">
<title>Node9</title>
<g id="a_Node000009"><a xlink:href="classwmtk_1_1_mesh.html#ae3493915b766f0f34f0a9e89603d5773" target="_top" xlink:title=" ">
<polygon fill="white" stroke="#666666" points="1271.5,-200 1149.5,-200 1149.5,-170 1271.5,-170 1271.5,-200"/>
<text text-anchor="start" x="1157.5" y="-188" font-family="Helvetica,sans-Serif" font-size="10.00">wmtk::Mesh::get_flag</text>
<text text-anchor="middle" x="1210.5" y="-177" font-family="Helvetica,sans-Serif" font-size="10.00">_accessor</text>
</a>
</g>
</g>
<!-- Node4&#45;&gt;Node9 -->
<g id="edge8_Node000004_Node000009" class="edge">
<title>Node4&#45;&gt;Node9</title>
<g id="a_edge8_Node000004_Node000009"><a xlink:title=" ">
<path fill="none" stroke="#63b8ff" d="M1022.67,-304.73C1042.48,-280.87 1084.02,-234.83 1129,-209 1132.46,-207.01 1136.1,-205.18 1139.84,-203.48"/>
<polygon fill="#63b8ff" stroke="#63b8ff" points="1141.4,-206.62 1149.3,-199.56 1138.72,-200.16 1141.4,-206.62"/>
</a>
</g>
</g>
<!-- Node12 -->
<g id="Node000012" class="node">
<title>Node12</title>
<g id="a_Node000012"><a xlink:href="classwmtk_1_1attribute_1_1_accessor.html#a2d587e12c47a6d839ab80e9198cf75b5" target="_top" xlink:title=" ">
<polygon fill="white" stroke="#666666" points="1473,-472 1331,-472 1331,-442 1473,-442 1473,-472"/>
<text text-anchor="start" x="1339" y="-460" font-family="Helvetica,sans-Serif" font-size="10.00">wmtk::attribute::Accessor</text>
<text text-anchor="middle" x="1402" y="-449" font-family="Helvetica,sans-Serif" font-size="10.00">::index_access</text>
</a>
</g>
</g>
<!-- Node4&#45;&gt;Node12 -->
<g id="edge12_Node000004_Node000012" class="edge">
<title>Node4&#45;&gt;Node12</title>
<g id="a_edge12_Node000004_Node000012"><a xlink:title=" ">
<path fill="none" stroke="#63b8ff" d="M1027,-335.26C1043.93,-351.09 1070.86,-376.73 1093,-400 1109.72,-417.57 1107.21,-430.35 1129,-441 1188.42,-470.03 1264.05,-472.13 1320.48,-468.05"/>
<polygon fill="#63b8ff" stroke="#63b8ff" points="1321.09,-471.51 1330.78,-467.22 1320.53,-464.53 1321.09,-471.51"/>
</a>
</g>
</g>
<!-- Node14 -->
<g id="Node000014" class="node">
<title>Node14</title>
<g id="a_Node000014"><a xlink:href="classwmtk_1_1attribute_1_1_flag_accessor.html#a4f49a666c3811fee9b841c1cd1f66250" target="_top" xlink:title=" ">
<polygon fill="white" stroke="#666666" points="1292,-248 1129,-248 1129,-218 1292,-218 1292,-248"/>
<text text-anchor="start" x="1137" y="-236" font-family="Helvetica,sans-Serif" font-size="10.00">wmtk::attribute::FlagAccessor</text>
<text text-anchor="middle" x="1210.5" y="-225" font-family="Helvetica,sans-Serif" font-size="10.00">::index_access</text>
</a>
</g>
</g>
<!-- Node4&#45;&gt;Node14 -->
<g id="edge14_Node000004_Node000014" class="edge">
<title>Node4&#45;&gt;Node14</title>
<g id="a_edge14_Node000004_Node000014"><a xlink:title=" ">
<path fill="none" stroke="#63b8ff" d="M1039.31,-304.8C1063.05,-292.54 1097.78,-275.22 1129,-262 1137.44,-258.43 1146.48,-254.89 1155.36,-251.59"/>
<polygon fill="#63b8ff" stroke="#63b8ff" points="1156.69,-254.82 1164.87,-248.09 1154.28,-248.25 1156.69,-254.82"/>
</a>
</g>
</g>
<!-- Node15 -->
<g id="Node000015" class="node">
<title>Node15</title>
<g id="a_Node000015"><a xlink:href="classwmtk_1_1attribute_1_1_index_flag_accessor.html#a195252af3f6230f09f0c1379cbec7240" target="_top" xlink:title=" ">
<polygon fill="white" stroke="#666666" points="1283.5,-432 1137.5,-432 1137.5,-402 1283.5,-402 1283.5,-432"/>
<text text-anchor="start" x="1145.5" y="-420" font-family="Helvetica,sans-Serif" font-size="10.00">wmtk::attribute::IndexFlag</text>
<text text-anchor="middle" x="1210.5" y="-409" font-family="Helvetica,sans-Serif" font-size="10.00">Accessor::is_active</text>
</a>
</g>
</g>
<!-- Node4&#45;&gt;Node15 -->
<g id="edge15_Node000004_Node000015" class="edge">
<title>Node4&#45;&gt;Node15</title>
<g id="a_edge15_Node000004_Node000015"><a xlink:title=" ">
<path fill="none" stroke="#63b8ff" d="M1031.4,-335.23C1054.37,-351.4 1092.83,-376.81 1129,-393 1133.35,-394.95 1137.89,-396.79 1142.52,-398.52"/>
<polygon fill="#63b8ff" stroke="#63b8ff" points="1141.49,-401.87 1152.09,-401.91 1143.83,-395.27 1141.49,-401.87"/>
</a>
</g>
</g>
<!-- Node17 -->
<g id="Node000017" class="node">
<title>Node17</title>
<g id="a_Node000017"><a xlink:href="classwmtk_1_1_tri_mesh.html#a2e568aaaffd6e68904c5cecd8256ed93" target="_top" xlink:title="returns if a simplex is on the boundary of hte mesh. For anything but dimension &#45; 1 this checks if th...">
<polygon fill="white" stroke="#666666" points="1287,-544.5 1134,-544.5 1134,-525.5 1287,-525.5 1287,-544.5"/>
<text text-anchor="middle" x="1210.5" y="-532.5" font-family="Helvetica,sans-Serif" font-size="10.00">wmtk::TriMesh::is_boundary</text>
</a>
</g>
</g>
<!-- Node4&#45;&gt;Node17 -->
<g id="edge19_Node000004_Node000017" class="edge">
<title>Node4&#45;&gt;Node17</title>
<g id="a_edge19_Node000004_Node000017"><a xlink:title=" ">
<path fill="none" stroke="#63b8ff" d="M1019.22,-335.23C1045.14,-380.39 1120.44,-510.83 1129,-517 1130.89,-518.36 1132.86,-519.62 1134.9,-520.79"/>
<polygon fill="#63b8ff" stroke="#63b8ff" points="1133.68,-524.09 1144.21,-525.34 1136.76,-517.8 1133.68,-524.09"/>
</a>
</g>
</g>
<!-- Node4&#45;&gt;Node18 -->
<g id="edge22_Node000004_Node000018" class="edge">
<title>Node4&#45;&gt;Node18</title>
<g id="a_edge22_Node000004_Node000018"><a xlink:title=" ">
<path fill="none" stroke="#63b8ff" d="M1029.73,-335.26C1047.76,-350.29 1074.63,-374.63 1093,-400 1114.45,-429.62 1101.12,-450.33 1129,-474 1137.86,-481.52 1149,-486.68 1160.14,-490.23"/>
<polygon fill="#63b8ff" stroke="#63b8ff" points="1159.31,-493.63 1169.88,-492.95 1161.19,-486.89 1159.31,-493.63"/>
</a>
</g>
</g>
<!-- Node6 -->
<g id="Node000006" class="node">
<title>Node6</title>
<g id="a_Node000006"><a xlink:href="namespacewmtk.html#a5cf45c152e856196bb734c6f48919a24" target="_top" xlink:title="Get a unique integer id corresponding to each primitive type.">
<polygon fill="white" stroke="#666666" points="1641,-275 1525,-275 1525,-245 1641,-245 1641,-275"/>
<text text-anchor="start" x="1533" y="-263" font-family="Helvetica,sans-Serif" font-size="10.00">wmtk::get_primitive</text>
<text text-anchor="middle" x="1583" y="-252" font-family="Helvetica,sans-Serif" font-size="10.00">_type_id</text>
</a>
</g>
</g>
<!-- Node5&#45;&gt;Node6 -->
<g id="edge5_Node000005_Node000006" class="edge">
<title>Node5&#45;&gt;Node6</title>
<g id="a_edge5_Node000005_Node000006"><a xlink:title=" ">
<path fill="none" stroke="#63b8ff" d="M1464.1,-267.25C1480.37,-266.25 1498.04,-265.16 1514.63,-264.14"/>
<polygon fill="#63b8ff" stroke="#63b8ff" points="1515.03,-267.62 1524.79,-263.52 1514.6,-260.64 1515.03,-267.62"/>
</a>
</g>
</g>
<!-- Node10 -->
<g id="Node000010" class="node">
<title>Node10</title>
<g id="a_Node000010"><a xlink:href="classwmtk_1_1_mesh.html#acfa981b31f00aef4438ff5e73bbce2f4" target="_top" xlink:title=" ">
<polygon fill="white" stroke="#666666" points="1467,-206 1337,-206 1337,-176 1467,-176 1467,-206"/>
<text text-anchor="start" x="1345" y="-194" font-family="Helvetica,sans-Serif" font-size="10.00">wmtk::Mesh::get_const</text>
<text text-anchor="middle" x="1402" y="-183" font-family="Helvetica,sans-Serif" font-size="10.00">_flag_accessor</text>
</a>
</g>
</g>
<!-- Node9&#45;&gt;Node10 -->
<g id="edge9_Node000009_Node000010" class="edge">
<title>Node9&#45;&gt;Node10</title>
<g id="a_edge9_Node000009_Node000010"><a xlink:title=" ">
<path fill="none" stroke="#63b8ff" d="M1271.72,-186.91C1289.18,-187.46 1308.46,-188.07 1326.68,-188.65"/>
<polygon fill="#63b8ff" stroke="#63b8ff" points="1326.57,-192.15 1336.68,-188.96 1326.8,-185.15 1326.57,-192.15"/>
</a>
</g>
</g>
<!-- Node10&#45;&gt;Node6 -->
<g id="edge11_Node000010_Node000006" class="edge">
<title>Node10&#45;&gt;Node6</title>
<g id="a_edge11_Node000010_Node000006"><a xlink:title=" ">
<path fill="none" stroke="#63b8ff" d="M1442.28,-206.14C1469.1,-216.48 1504.8,-230.24 1533.4,-241.27"/>
<polygon fill="#63b8ff" stroke="#63b8ff" points="1532.22,-244.56 1542.81,-244.89 1534.74,-238.03 1532.22,-244.56"/>
</a>
</g>
</g>
<!-- Node11 -->
<g id="Node000011" class="node">
<title>Node11</title>
<g id="a_Node000011"><a xlink:href="classwmtk_1_1_mesh.html#a357182137d99f1e4a7ff536eadfc0e56" target="_top" xlink:title=" ">
<polygon fill="white" stroke="#666666" points="1639.5,-206 1526.5,-206 1526.5,-176 1639.5,-176 1639.5,-206"/>
<text text-anchor="start" x="1534.5" y="-194" font-family="Helvetica,sans-Serif" font-size="10.00">wmtk::Mesh::create</text>
<text text-anchor="middle" x="1583" y="-183" font-family="Helvetica,sans-Serif" font-size="10.00">_const_accessor</text>
</a>
</g>
</g>
<!-- Node10&#45;&gt;Node11 -->
<g id="edge10_Node000010_Node000011" class="edge">
<title>Node10&#45;&gt;Node11</title>
<g id="a_edge10_Node000010_Node000011"><a xlink:title=" ">
<path fill="none" stroke="#63b8ff" d="M1467.12,-191C1483,-191 1500.04,-191 1516.01,-191"/>
<polygon fill="#63b8ff" stroke="#63b8ff" points="1516.33,-194.5 1526.33,-191 1516.33,-187.5 1516.33,-194.5"/>
</a>
</g>
</g>
<!-- Node13 -->
<g id="Node000013" class="node">
<title>Node13</title>
<g id="a_Node000013"><a xlink:href="classwmtk_1_1attribute_1_1_accessor.html#afd97a48ec5d1db975a030428df81f617" target="_top" xlink:title=" ">
<polygon fill="white" stroke="#666666" points="1654,-472 1512,-472 1512,-442 1654,-442 1654,-472"/>
<text text-anchor="start" x="1520" y="-460" font-family="Helvetica,sans-Serif" font-size="10.00">wmtk::attribute::Accessor</text>
<text text-anchor="middle" x="1583" y="-449" font-family="Helvetica,sans-Serif" font-size="10.00">::caching_base_type</text>
</a>
</g>
</g>
<!-- Node12&#45;&gt;Node13 -->
<g id="edge13_Node000012_Node000013" class="edge">
<title>Node12&#45;&gt;Node13</title>
<g id="a_edge13_Node000012_Node000013"><a xlink:title=" ">
<path fill="none" stroke="#63b8ff" d="M1473.23,-457C1482.58,-457 1492.23,-457 1501.73,-457"/>
<polygon fill="#63b8ff" stroke="#63b8ff" points="1501.97,-460.5 1511.97,-457 1501.97,-453.5 1501.97,-460.5"/>
</a>
</g>
</g>
<!-- Node15&#45;&gt;Node7 -->
<g id="edge17_Node000015_Node000007" class="edge">
<title>Node15&#45;&gt;Node7</title>
<g id="a_edge17_Node000015_Node000007"><a xlink:title=" ">
<path fill="none" stroke="#63b8ff" d="M1266.45,-401.86C1275.07,-399.13 1283.83,-396.14 1292,-393 1312.25,-385.2 1333.95,-375.21 1352.61,-366.07"/>
<polygon fill="#63b8ff" stroke="#63b8ff" points="1354.38,-369.1 1361.79,-361.53 1351.27,-362.83 1354.38,-369.1"/>
</a>
</g>
</g>
<!-- Node15&#45;&gt;Node12 -->
<g id="edge18_Node000015_Node000012" class="edge">
<title>Node15&#45;&gt;Node12</title>
<g id="a_edge18_Node000015_Node000012"><a xlink:title=" ">
<path fill="none" stroke="#63b8ff" d="M1282.6,-432.01C1295.03,-434.63 1308.04,-437.38 1320.7,-440.05"/>
<polygon fill="#63b8ff" stroke="#63b8ff" points="1320.25,-443.53 1330.76,-442.17 1321.7,-436.68 1320.25,-443.53"/>
</a>
</g>
</g>
<!-- Node16 -->
<g id="Node000016" class="node">
<title>Node16</title>
<g id="a_Node000016"><a xlink:href="classwmtk_1_1attribute_1_1_index_flag_accessor.html#a08ce19b077654f9e384d8c3fffcbbd0b" target="_top" xlink:title=" ">
<polygon fill="white" stroke="#666666" points="1475,-424 1329,-424 1329,-394 1475,-394 1475,-424"/>
<text text-anchor="start" x="1337" y="-412" font-family="Helvetica,sans-Serif" font-size="10.00">wmtk::attribute::IndexFlag</text>
<text text-anchor="middle" x="1402" y="-401" font-family="Helvetica,sans-Serif" font-size="10.00">Accessor::_is_active</text>
</a>
</g>
</g>
<!-- Node15&#45;&gt;Node16 -->
<g id="edge16_Node000015_Node000016" class="edge">
<title>Node15&#45;&gt;Node16</title>
<g id="a_edge16_Node000015_Node000016"><a xlink:title=" ">
<path fill="none" stroke="#63b8ff" d="M1283.68,-413.95C1295.09,-413.47 1306.96,-412.97 1318.58,-412.48"/>
<polygon fill="#63b8ff" stroke="#63b8ff" points="1318.86,-415.97 1328.7,-412.05 1318.57,-408.98 1318.86,-415.97"/>
</a>
</g>
</g>
<!-- Node17&#45;&gt;Node1 -->
<g id="edge21_Node000017_Node000001" class="edge">
<title>Node17&#45;&gt;Node1</title>
<g id="a_edge21_Node000017_Node000001"><a xlink:title=" ">
<path fill="none" stroke="#63b8ff" d="M1133.73,-532.8C1056.28,-530.75 932.52,-528 825.5,-528 441.5,-528 441.5,-528 441.5,-528 274.8,-528 137.02,-341.57 92.59,-274.05"/>
<polygon fill="#63b8ff" stroke="#63b8ff" points="95.32,-271.83 86.94,-265.34 89.45,-275.64 95.32,-271.83"/>
</a>
</g>
</g>
<!-- Node17&#45;&gt;Node2 -->
<g id="edge20_Node000017_Node000002" class="edge">
<title>Node17&#45;&gt;Node2</title>
<g id="a_edge20_Node000017_Node000002"><a xlink:title=" ">
<path fill="none" stroke="#63b8ff" d="M1157.87,-525.42C1148.16,-523.06 1138.17,-520.26 1129,-517 938.89,-449.36 727.61,-326.25 657.25,-283.83"/>
<polygon fill="#63b8ff" stroke="#63b8ff" points="659.01,-280.8 648.64,-278.62 655.38,-286.79 659.01,-280.8"/>
</a>
</g>
</g>
<!-- Node19 -->
<g id="Node000019" class="node">
<title>Node19</title>
<g id="a_Node000019"><a xlink:href="namespacewmtk.html#a3daa7951a5f8b78cf4600dc047fcc180" target="_top" xlink:title="Setup a logger object to be used by WildmeshToolkit.">
<polygon fill="white" stroke="#666666" points="1452.5,-509.5 1351.5,-509.5 1351.5,-490.5 1452.5,-490.5 1452.5,-509.5"/>
<text text-anchor="middle" x="1402" y="-497.5" font-family="Helvetica,sans-Serif" font-size="10.00">wmtk::set_logger</text>
</a>
</g>
</g>
<!-- Node18&#45;&gt;Node19 -->
<g id="edge23_Node000018_Node000019" class="edge">
<title>Node18&#45;&gt;Node19</title>
<g id="a_edge23_Node000018_Node000019"><a xlink:title=" ">
<path fill="none" stroke="#63b8ff" d="M1251.23,-498.42C1277.24,-498.69 1311.73,-499.06 1341.06,-499.37"/>
<polygon fill="#63b8ff" stroke="#63b8ff" points="1341.16,-502.87 1351.19,-499.47 1341.23,-495.87 1341.16,-502.87"/>
</a>
</g>
</g>
<!-- Node21 -->
<g id="Node000021" class="node">
<title>Node21</title>
<g id="a_Node000021"><a xlink:href="classwmtk_1_1_tuple.html#a0023f575be92cd5ceeeaaaa3762ea06d" target="_top" xlink:title="Checks if a tuple is &quot;null&quot;. This merely implies the global index is &#45;1.">
<polygon fill="white" stroke="#666666" points="1267,-96.5 1154,-96.5 1154,-77.5 1267,-77.5 1267,-96.5"/>
<text text-anchor="middle" x="1210.5" y="-84.5" font-family="Helvetica,sans-Serif" font-size="10.00">wmtk::Tuple::is_null</text>
</a>
</g>
</g>
<!-- Node20&#45;&gt;Node21 -->
<g id="edge25_Node000020_Node000021" class="edge">
<title>Node20&#45;&gt;Node21</title>
<g id="a_edge25_Node000020_Node000021"><a xlink:title=" ">
<path fill="none" stroke="#63b8ff" d="M1068.57,-145.39C1077,-142.93 1085.39,-139.85 1093,-136 1111.84,-126.46 1110.13,-114.48 1129,-105 1133.68,-102.65 1138.66,-100.6 1143.77,-98.82"/>
<polygon fill="#63b8ff" stroke="#63b8ff" points="1145.2,-102.04 1153.7,-95.72 1143.11,-95.36 1145.2,-102.04"/>
</a>
</g>
</g>
<!-- Node22 -->
<g id="Node000022" class="node">
<title>Node22</title>
<g id="a_Node000022"><a xlink:href="classwmtk_1_1_mesh.html#ade176d345902d97af8c5da04aa3a095b" target="_top" xlink:title=" ">
<polygon fill="white" stroke="#666666" points="1280.5,-133.5 1140.5,-133.5 1140.5,-114.5 1280.5,-114.5 1280.5,-133.5"/>
<text text-anchor="middle" x="1210.5" y="-121.5" font-family="Helvetica,sans-Serif" font-size="10.00">wmtk::Mesh::is_removed</text>
</a>
</g>
</g>
<!-- Node20&#45;&gt;Node22 -->
<g id="edge26_Node000020_Node000022" class="edge">
<title>Node20&#45;&gt;Node22</title>
<g id="a_edge26_Node000020_Node000022"><a xlink:title=" ">
<path fill="none" stroke="#63b8ff" d="M1069.67,-145.78C1091.23,-142.42 1115.83,-138.59 1138.32,-135.09"/>
<polygon fill="#63b8ff" stroke="#63b8ff" points="1139.15,-138.5 1148.49,-133.5 1138.07,-131.58 1139.15,-138.5"/>
</a>
</g>
</g>
<!-- Node22&#45;&gt;Node22 -->
<g id="edge27_Node000022_Node000022" class="edge">
<title>Node22&#45;&gt;Node22</title>
<g id="a_edge27_Node000022_Node000022"><a xlink:title=" ">
<path fill="none" stroke="#63b8ff" d="M1181.22,-133.58C1166.97,-142.23 1176.73,-151.5 1210.5,-151.5 1233.72,-151.5 1245.59,-147.12 1246.11,-141.57"/>
<polygon fill="#63b8ff" stroke="#63b8ff" points="1248.73,-139.25 1239.78,-133.58 1243.25,-143.6 1248.73,-139.25"/>
</a>
</g>
</g>
<!-- Node23&#45;&gt;Node21 -->
<g id="edge30_Node000023_Node000021" class="edge">
<title>Node23&#45;&gt;Node21</title>
<g id="a_edge30_Node000023_Node000021"><a xlink:title=" ">
<path fill="none" stroke="#63b8ff" d="M1070.75,-100.95C1093.77,-98.63 1120.12,-95.98 1143.64,-93.62"/>
<polygon fill="#63b8ff" stroke="#63b8ff" points="1144.27,-97.07 1153.87,-92.59 1143.57,-90.11 1144.27,-97.07"/>
</a>
</g>
</g>
<!-- Node24 -->
<g id="Node000024" class="node">
<title>Node24</title>
<g id="a_Node000024"><a xlink:href="namespacewmtk_1_1autogen_1_1tri__mesh.html#a1c9b651c47ee993e160a8dca570cf35c" target="_top" xlink:title=" ">
<polygon fill="white" stroke="#666666" points="1271.5,-59.5 1149.5,-59.5 1149.5,-18.5 1271.5,-18.5 1271.5,-59.5"/>
<text text-anchor="start" x="1157.5" y="-47.5" font-family="Helvetica,sans-Serif" font-size="10.00">wmtk::autogen::tri</text>
<text text-anchor="start" x="1157.5" y="-36.5" font-family="Helvetica,sans-Serif" font-size="10.00">_mesh::local_id_table</text>
<text text-anchor="middle" x="1210.5" y="-25.5" font-family="Helvetica,sans-Serif" font-size="10.00">_offset</text>
</a>
</g>
</g>
<!-- Node23&#45;&gt;Node24 -->
<g id="edge31_Node000023_Node000024" class="edge">
<title>Node23&#45;&gt;Node24</title>
<g id="a_edge31_Node000023_Node000024"><a xlink:title=" ">
<path fill="none" stroke="#63b8ff" d="M1070.75,-86.41C1092.57,-78.96 1117.39,-70.48 1139.95,-62.77"/>
<polygon fill="#63b8ff" stroke="#63b8ff" points="1141.13,-66.06 1149.46,-59.52 1138.86,-59.44 1141.13,-66.06"/>
</a>
</g>
</g>
<!-- Node25 -->
<g id="Node000025" class="node">
<title>Node25</title>
<g id="a_Node000025"><a xlink:href="classwmtk_1_1utils_1_1_tuple_inspector.html#a3a04acf16e0eff80ade8e0fb8753ac1b" target="_top" xlink:title=" ">
<polygon fill="white" stroke="#666666" points="1476,-78 1328,-78 1328,-48 1476,-48 1476,-78"/>
<text text-anchor="start" x="1336" y="-66" font-family="Helvetica,sans-Serif" font-size="10.00">wmtk::utils::TupleInspector</text>
<text text-anchor="middle" x="1402" y="-55" font-family="Helvetica,sans-Serif" font-size="10.00">::local_eid</text>
</a>
</g>
</g>
<!-- Node24&#45;&gt;Node25 -->
<g id="edge32_Node000024_Node000025" class="edge">
<title>Node24&#45;&gt;Node25</title>
<g id="a_edge32_Node000024_Node000025"><a xlink:title=" ">
<path fill="none" stroke="#63b8ff" d="M1271.72,-46.63C1286.39,-48.48 1302.34,-50.5 1317.86,-52.47"/>
<polygon fill="#63b8ff" stroke="#63b8ff" points="1317.63,-55.97 1327.99,-53.75 1318.5,-49.02 1317.63,-55.97"/>
</a>
</g>
</g>
<!-- Node26 -->
<g id="Node000026" class="node">
<title>Node26</title>
<g id="a_Node000026"><a xlink:href="classwmtk_1_1utils_1_1_tuple_inspector.html#a92f5faa08a7f78424f5cd1ec79dcedbb" target="_top" xlink:title=" ">
<polygon fill="white" stroke="#666666" points="1476,-30 1328,-30 1328,0 1476,0 1476,-30"/>
<text text-anchor="start" x="1336" y="-18" font-family="Helvetica,sans-Serif" font-size="10.00">wmtk::utils::TupleInspector</text>
<text text-anchor="middle" x="1402" y="-7" font-family="Helvetica,sans-Serif" font-size="10.00">::local_vid</text>
</a>
</g>
</g>
<!-- Node24&#45;&gt;Node26 -->
<g id="edge33_Node000024_Node000026" class="edge">
<title>Node24&#45;&gt;Node26</title>
<g id="a_edge33_Node000024_Node000026"><a xlink:title=" ">
<path fill="none" stroke="#63b8ff" d="M1271.72,-31.37C1286.39,-29.52 1302.34,-27.5 1317.86,-25.53"/>
<polygon fill="#63b8ff" stroke="#63b8ff" points="1318.5,-28.98 1327.99,-24.25 1317.63,-22.03 1318.5,-28.98"/>
</a>
</g>
</g>
<!-- Node28 -->
<g id="Node000028" class="node">
<title>Node28</title>
<g id="a_Node000028"><a xlink:href="classwmtk_1_1_tri_mesh.html#a17b808a46d1a31efc12d555e6721bd02" target="_top" xlink:title="switch the orientation of the Tuple of the given dimension">
<polygon fill="white" stroke="#666666" points="505,-209 380,-209 380,-179 505,-179 505,-209"/>
<text text-anchor="start" x="388" y="-197" font-family="Helvetica,sans-Serif" font-size="10.00">wmtk::TriMesh::switch</text>
<text text-anchor="middle" x="442.5" y="-186" font-family="Helvetica,sans-Serif" font-size="10.00">_tuple</text>
</a>
</g>
</g>
<!-- Node27&#45;&gt;Node28 -->
<g id="edge35_Node000027_Node000028" class="edge">
<title>Node27&#45;&gt;Node28</title>
<g id="a_edge35_Node000027_Node000028"><a xlink:title=" ">
<path fill="none" stroke="#63b8ff" d="M344.07,-194C352.56,-194 361.19,-194 369.62,-194"/>
<polygon fill="#63b8ff" stroke="#63b8ff" points="369.78,-197.5 379.78,-194 369.78,-190.5 369.78,-197.5"/>
</a>
</g>
</g>
<!-- Node28&#45;&gt;Node3 -->
<g id="edge43_Node000028_Node000003" class="edge">
<title>Node28&#45;&gt;Node3</title>
<g id="a_edge43_Node000028_Node000003"><a xlink:title=" ">
<path fill="none" stroke="#63b8ff" d="M505.25,-205.74C517.09,-207.72 529.4,-209.58 541,-211 611.21,-219.58 691.72,-224.84 748.79,-227.79"/>
<polygon fill="#63b8ff" stroke="#63b8ff" points="748.64,-231.29 758.81,-228.3 749,-224.3 748.64,-231.29"/>
</a>
</g>
</g>
<!-- Node29 -->
<g id="Node000029" class="node">
<title>Node29</title>
<g id="a_Node000029"><a xlink:href="classwmtk_1_1_tri_mesh.html#a9975c25ed665c9c9a7f1ae92818a1b7c" target="_top" xlink:title=" ">
<polygon fill="white" stroke="#666666" points="876,-164.5 773,-164.5 773,-145.5 876,-145.5 876,-164.5"/>
<text text-anchor="middle" x="824.5" y="-152.5" font-family="Helvetica,sans-Serif" font-size="10.00">wmtk::TriMesh::id</text>
</a>
</g>
</g>
<!-- Node28&#45;&gt;Node29 -->
<g id="edge36_Node000028_Node000029" class="edge">
<title>Node28&#45;&gt;Node29</title>
<g id="a_edge36_Node000028_Node000029"><a xlink:title=" ">
<path fill="none" stroke="#63b8ff" d="M505.18,-180.04C517.02,-177.73 529.36,-175.58 541,-174 616.89,-163.71 705.05,-158.91 762.43,-156.73"/>
<polygon fill="#63b8ff" stroke="#63b8ff" points="762.91,-160.21 772.77,-156.35 762.65,-153.21 762.91,-160.21"/>
</a>
</g>
</g>
<!-- Node30 -->
<g id="Node000030" class="node">
<title>Node30</title>
<g id="a_Node000030"><a xlink:href="classwmtk_1_1_tri_mesh.html#accbde91fccacdfdfd997e20d9ee9eb22" target="_top" xlink:title="returns if a tuple is counterclockwise or not">
<polygon fill="white" stroke="#666666" points="695,-202.5 569,-202.5 569,-183.5 695,-183.5 695,-202.5"/>
<text text-anchor="middle" x="632" y="-190.5" font-family="Helvetica,sans-Serif" font-size="10.00">wmtk::TriMesh::is_ccw</text>
</a>
</g>
</g>
<!-- Node28&#45;&gt;Node30 -->
<g id="edge38_Node000028_Node000030" class="edge">
<title>Node28&#45;&gt;Node30</title>
<g id="a_edge38_Node000028_Node000030"><a xlink:title=" ">
<path fill="none" stroke="#63b8ff" d="M505.15,-193.67C522.29,-193.58 541.04,-193.48 558.72,-193.39"/>
<polygon fill="#63b8ff" stroke="#63b8ff" points="559.01,-196.88 568.99,-193.33 558.97,-189.88 559.01,-196.88"/>
</a>
</g>
</g>
<!-- Node32 -->
<g id="Node000032" class="node">
<title>Node32</title>
<g id="a_Node000032"><a xlink:href="namespacewmtk_1_1autogen_1_1tri__mesh.html#a91e6b348f528d93ad6d9031bae1480da" target="_top" xlink:title=" ">
<polygon fill="white" stroke="#666666" points="704.5,-81 559.5,-81 559.5,-51 704.5,-51 704.5,-81"/>
<text text-anchor="start" x="567.5" y="-69" font-family="Helvetica,sans-Serif" font-size="10.00">wmtk::autogen::tri</text>
<text text-anchor="middle" x="632" y="-58" font-family="Helvetica,sans-Serif" font-size="10.00">_mesh::local_switch_tuple</text>
</a>
</g>
</g>
<!-- Node28&#45;&gt;Node32 -->
<g id="edge44_Node000028_Node000032" class="edge">
<title>Node28&#45;&gt;Node32</title>
<g id="a_edge44_Node000028_Node000032"><a xlink:title=" ">
<path fill="none" stroke="#63b8ff" d="M465.75,-178.81C499.15,-156.01 562.39,-112.84 600.21,-87.02"/>
<polygon fill="#63b8ff" stroke="#63b8ff" points="602.5,-89.7 608.78,-81.17 598.55,-83.91 602.5,-89.7"/>
</a>
</g>
</g>
<!-- Node29&#45;&gt;Node20 -->
<g id="edge37_Node000029_Node000020" class="edge">
<title>Node29&#45;&gt;Node20</title>
<g id="a_edge37_Node000029_Node000020"><a xlink:title=" ">
<path fill="none" stroke="#63b8ff" d="M876.48,-155C895.93,-155 918.44,-155 939.3,-155"/>
<polygon fill="#63b8ff" stroke="#63b8ff" points="939.39,-158.5 949.39,-155 939.39,-151.5 939.39,-158.5"/>
</a>
</g>
</g>
<!-- Node30&#45;&gt;Node3 -->
<g id="edge42_Node000030_Node000003" class="edge">
<title>Node30&#45;&gt;Node3</title>
<g id="a_edge42_Node000030_Node000003"><a xlink:title=" ">
<path fill="none" stroke="#63b8ff" d="M681.07,-202.59C706.78,-207.72 738.61,-214.07 765.66,-219.46"/>
<polygon fill="#63b8ff" stroke="#63b8ff" points="765.28,-222.96 775.77,-221.48 766.65,-216.09 765.28,-222.96"/>
</a>
</g>
</g>
<!-- Node31 -->
<g id="Node000031" class="node">
<title>Node31</title>
<g id="a_Node000031"><a xlink:href="namespacewmtk_1_1autogen_1_1tri__mesh.html#aaab85f5120a223c29bae0881cd7f2c87" target="_top" xlink:title=" ">
<polygon fill="white" stroke="#666666" points="878,-122 771,-122 771,-92 878,-92 878,-122"/>
<text text-anchor="start" x="779" y="-110" font-family="Helvetica,sans-Serif" font-size="10.00">wmtk::autogen::tri</text>
<text text-anchor="middle" x="824.5" y="-99" font-family="Helvetica,sans-Serif" font-size="10.00">_mesh::is_ccw</text>
</a>
</g>
</g>
<!-- Node30&#45;&gt;Node31 -->
<g id="edge39_Node000030_Node000031" class="edge">
<title>Node30&#45;&gt;Node31</title>
<g id="a_edge39_Node000030_Node000031"><a xlink:title=" ">
<path fill="none" stroke="#63b8ff" d="M654.4,-183.3C679.46,-171.95 722.23,-152.58 759,-136 765.93,-132.88 773.27,-129.57 780.43,-126.35"/>
<polygon fill="#63b8ff" stroke="#63b8ff" points="782.33,-129.33 790.02,-122.04 779.46,-122.95 782.33,-129.33"/>
</a>
</g>
</g>
<!-- Node31&#45;&gt;Node23 -->
<g id="edge41_Node000031_Node000023" class="edge">
<title>Node31&#45;&gt;Node23</title>
<g id="a_edge41_Node000031_Node000023"><a xlink:title=" ">
<path fill="none" stroke="#63b8ff" d="M878.43,-107C897.04,-107 918.25,-107 938.07,-107"/>
<polygon fill="#63b8ff" stroke="#63b8ff" points="938.28,-110.5 948.28,-107 938.28,-103.5 938.28,-110.5"/>
</a>
</g>
</g>
<!-- Node31&#45;&gt;Node24 -->
<g id="edge40_Node000031_Node000024" class="edge">
<title>Node31&#45;&gt;Node24</title>
<g id="a_edge40_Node000031_Node000024"><a xlink:title=" ">
<path fill="none" stroke="#63b8ff" d="M870.39,-91.96C887.62,-86.62 907.57,-80.96 926,-77 997.91,-61.55 1081.5,-51.26 1139.19,-45.33"/>
<polygon fill="#63b8ff" stroke="#63b8ff" points="1139.7,-48.79 1149.3,-44.3 1139,-41.83 1139.7,-48.79"/>
</a>
</g>
</g>
<!-- Node32&#45;&gt;Node24 -->
<g id="edge45_Node000032_Node000024" class="edge">
<title>Node32&#45;&gt;Node24</title>
<g id="a_edge45_Node000032_Node000024"><a xlink:title=" ">
<path fill="none" stroke="#63b8ff" d="M704.61,-61.01C763.92,-57.01 850.4,-51.52 926,-48 998.74,-44.61 1082.04,-42.14 1139.42,-40.65"/>
<polygon fill="#63b8ff" stroke="#63b8ff" points="1139.57,-44.14 1149.47,-40.39 1139.39,-37.15 1139.57,-44.14"/>
</a>
</g>
</g>
<!-- Node33&#45;&gt;Node28 -->
<g id="edge47_Node000033_Node000028" class="edge">
<title>Node33&#45;&gt;Node28</title>
<g id="a_edge47_Node000033_Node000028"><a xlink:title=" ">
<path fill="none" stroke="#63b8ff" d="M312.31,-221.47C329.88,-217.73 350.48,-213.35 370.01,-209.2"/>
<polygon fill="#63b8ff" stroke="#63b8ff" points="370.74,-212.62 379.79,-207.12 369.29,-205.78 370.74,-212.62"/>
</a>
</g>
</g>
</g>
</svg>
