<?xml version="1.0" encoding="UTF-8" standalone="no"?>
<!DOCTYPE svg PUBLIC "-//W3C//DTD SVG 1.1//EN"
 "http://www.w3.org/Graphics/SVG/1.1/DTD/svg11.dtd">
<!-- Generated by graphviz version 2.43.0 (0)
 -->
<!-- Title: wmtk::operations::internal::CollapseAlternateFacetOptionData::get_neighbor_action Pages: 1 -->
<svg width="1288pt" height="720pt"
 viewBox="0.00 0.00 1288.00 719.61" xmlns="http://www.w3.org/2000/svg" xmlns:xlink="http://www.w3.org/1999/xlink">
<g id="graph0" class="graph" transform="scale(1 1) rotate(0) translate(4 715.61)">
<title>wmtk::operations::internal::CollapseAlternateFacetOptionData::get_neighbor_action</title>
<!-- Node1 -->
<g id="Node000001" class="node">
<title>Node1</title>
<g id="a_Node000001"><a xlink:title=" ">
<polygon fill="#999999" stroke="#666666" points="191,-346.11 0,-346.11 0,-305.11 191,-305.11 191,-346.11"/>
<text text-anchor="start" x="8" y="-334.11" font-family="Helvetica,sans-Serif" font-size="10.00">wmtk::operations::internal</text>
<text text-anchor="start" x="8" y="-323.11" font-family="Helvetica,sans-Serif" font-size="10.00">::CollapseAlternateFacetOptionData</text>
<text text-anchor="middle" x="95.5" y="-312.11" font-family="Helvetica,sans-Serif" font-size="10.00">::get_neighbor_action</text>
</a>
</g>
</g>
<!-- Node2 -->
<g id="Node000002" class="node">
<title>Node2</title>
<g id="a_Node000002"><a xlink:href="namespacewmtk_1_1dart_1_1utils.html#aa7884681cab6b16b5eceb3289b679253" target="_top" xlink:title=" ">
<polygon fill="white" stroke="#666666" points="358,-467.61 227,-467.61 227,-437.61 358,-437.61 358,-467.61"/>
<text text-anchor="start" x="235" y="-455.61" font-family="Helvetica,sans-Serif" font-size="10.00">wmtk::dart::utils::</text>
<text text-anchor="middle" x="292.5" y="-444.61" font-family="Helvetica,sans-Serif" font-size="10.00">get_simplex_involution</text>
</a>
</g>
</g>
<!-- Node1&#45;&gt;Node2 -->
<g id="edge1_Node000001_Node000002" class="edge">
<title>Node1&#45;&gt;Node2</title>
<g id="a_edge1_Node000001_Node000002"><a xlink:title=" ">
<path fill="none" stroke="#63b8ff" d="M128.26,-346.29C164.48,-369.88 223.34,-408.22 259.61,-431.84"/>
<polygon fill="#63b8ff" stroke="#63b8ff" points="258.02,-434.98 268.31,-437.51 261.84,-429.12 258.02,-434.98"/>
</a>
</g>
</g>
<!-- Node13 -->
<g id="Node000013" class="node">
<title>Node13</title>
<g id="a_Node000013"><a xlink:href="classwmtk_1_1dart_1_1_simplex_dart.html#a3949350f736cbf567bf566fd7565e6e8" target="_top" xlink:title=" ">
<polygon fill="white" stroke="#666666" points="909,-362.61 772,-362.61 772,-332.61 909,-332.61 909,-362.61"/>
<text text-anchor="start" x="780" y="-350.61" font-family="Helvetica,sans-Serif" font-size="10.00">wmtk::dart::SimplexDart</text>
<text text-anchor="middle" x="840.5" y="-339.61" font-family="Helvetica,sans-Serif" font-size="10.00">::get_singleton</text>
</a>
</g>
</g>
<!-- Node1&#45;&gt;Node13 -->
<g id="edge32_Node000001_Node000013" class="edge">
<title>Node1&#45;&gt;Node13</title>
<g id="a_edge32_Node000001_Node000013"><a xlink:title=" ">
<path fill="none" stroke="#63b8ff" d="M191.36,-328.42C339.92,-332.81 624.66,-341.25 761.84,-345.31"/>
<polygon fill="#63b8ff" stroke="#63b8ff" points="761.76,-348.81 771.86,-345.6 761.97,-341.81 761.76,-348.81"/>
</a>
</g>
</g>
<!-- Node18 -->
<g id="Node000018" class="node">
<title>Node18</title>
<g id="a_Node000018"><a xlink:href="classwmtk_1_1dart_1_1___dart.html#aa34a01df7b33bec483a0da0158a1aca4" target="_top" xlink:title=" ">
<polygon fill="white" stroke="#666666" points="1263.5,-405.61 1155.5,-405.61 1155.5,-375.61 1263.5,-375.61 1263.5,-405.61"/>
<text text-anchor="start" x="1163.5" y="-393.61" font-family="Helvetica,sans-Serif" font-size="10.00">wmtk::dart::_Dart::</text>
<text text-anchor="middle" x="1209.5" y="-382.61" font-family="Helvetica,sans-Serif" font-size="10.00">permutation</text>
</a>
</g>
</g>
<!-- Node1&#45;&gt;Node18 -->
<g id="edge51_Node000001_Node000018" class="edge">
<title>Node1&#45;&gt;Node18</title>
<g id="a_edge51_Node000001_Node000018"><a xlink:title=" ">
<path fill="none" stroke="#63b8ff" d="M191.22,-317.25C265.7,-311.39 372.14,-304.61 465.5,-304.61 465.5,-304.61 465.5,-304.61 841.5,-304.61 958.61,-304.61 1091.32,-346.63 1160.6,-371.92"/>
<polygon fill="#63b8ff" stroke="#63b8ff" points="1159.76,-375.35 1170.35,-375.53 1162.19,-368.78 1159.76,-375.35"/>
</a>
</g>
</g>
<!-- Node21 -->
<g id="Node000021" class="node">
<title>Node21</title>
<g id="a_Node000021"><a xlink:href="namespacewmtk_1_1autogen.html#ac90627b246b2f7685a1478d0bc3f053f" target="_top" xlink:title=" ">
<polygon fill="white" stroke="#666666" points="352,-208.61 233,-208.61 233,-178.61 352,-178.61 352,-208.61"/>
<text text-anchor="start" x="241" y="-196.61" font-family="Helvetica,sans-Serif" font-size="10.00">wmtk::autogen::local</text>
<text text-anchor="middle" x="292.5" y="-185.61" font-family="Helvetica,sans-Serif" font-size="10.00">_switch_tuple</text>
</a>
</g>
</g>
<!-- Node1&#45;&gt;Node21 -->
<g id="edge33_Node000001_Node000021" class="edge">
<title>Node1&#45;&gt;Node21</title>
<g id="a_edge33_Node000001_Node000021"><a xlink:title=" ">
<path fill="none" stroke="#63b8ff" d="M126.97,-304.98C163.46,-280.28 224.24,-239.14 260.82,-214.37"/>
<polygon fill="#63b8ff" stroke="#63b8ff" points="262.81,-217.25 269.13,-208.75 258.89,-211.46 262.81,-217.25"/>
</a>
</g>
</g>
<!-- Node3 -->
<g id="Node000003" class="node">
<title>Node3</title>
<g id="a_Node000003"><a xlink:href="namespacewmtk_1_1dart_1_1utils.html#a5a1d80c919ea8054fa6ddb989fb7cc30" target="_top" xlink:title=" ">
<polygon fill="white" stroke="#666666" points="532,-540.11 401,-540.11 401,-499.11 532,-499.11 532,-540.11"/>
<text text-anchor="start" x="409" y="-528.11" font-family="Helvetica,sans-Serif" font-size="10.00">wmtk::dart::utils::</text>
<text text-anchor="start" x="409" y="-517.11" font-family="Helvetica,sans-Serif" font-size="10.00">get_simplex_involution</text>
<text text-anchor="middle" x="466.5" y="-506.11" font-family="Helvetica,sans-Serif" font-size="10.00">_upward</text>
</a>
</g>
</g>
<!-- Node2&#45;&gt;Node3 -->
<g id="edge2_Node000002_Node000003" class="edge">
<title>Node2&#45;&gt;Node3</title>
<g id="a_edge2_Node000002_Node000003"><a xlink:title=" ">
<path fill="none" stroke="#63b8ff" d="M332.1,-467.64C353.09,-475.82 379.55,-486.13 403.36,-495.4"/>
<polygon fill="#63b8ff" stroke="#63b8ff" points="402.09,-498.66 412.68,-499.03 404.63,-492.14 402.09,-498.66"/>
</a>
</g>
</g>
<!-- Node4 -->
<g id="Node000004" class="node">
<title>Node4</title>
<g id="a_Node000004"><a xlink:href="namespacewmtk_1_1autogen_1_1subgroup.html#aa24929f1f8821e8e3fbb2fc51169c80c" target="_top" xlink:title=" ">
<polygon fill="white" stroke="#666666" points="726,-711.61 585,-711.61 585,-681.61 726,-681.61 726,-711.61"/>
<text text-anchor="start" x="593" y="-699.61" font-family="Helvetica,sans-Serif" font-size="10.00">wmtk::autogen::subgroup</text>
<text text-anchor="middle" x="655.5" y="-688.61" font-family="Helvetica,sans-Serif" font-size="10.00">::can_convert</text>
</a>
</g>
</g>
<!-- Node3&#45;&gt;Node4 -->
<g id="edge3_Node000003_Node000004" class="edge">
<title>Node3&#45;&gt;Node4</title>
<g id="a_edge3_Node000003_Node000004"><a xlink:title=" ">
<path fill="none" stroke="#63b8ff" d="M477.42,-540.31C493.61,-572.02 528.6,-632.61 575,-667.61 579.73,-671.18 584.95,-674.34 590.38,-677.14"/>
<polygon fill="#63b8ff" stroke="#63b8ff" points="589.14,-680.42 599.67,-681.51 592.12,-674.09 589.14,-680.42"/>
</a>
</g>
</g>
<!-- Node6 -->
<g id="Node000006" class="node">
<title>Node6</title>
<g id="a_Node000006"><a xlink:href="classwmtk_1_1dart_1_1_simplex_dart.html#a97c4b273ac645149eb59fbe493edf5c6" target="_top" xlink:title=" ">
<polygon fill="white" stroke="#666666" points="909,-534.61 772,-534.61 772,-504.61 909,-504.61 909,-534.61"/>
<text text-anchor="start" x="780" y="-522.61" font-family="Helvetica,sans-Serif" font-size="10.00">wmtk::dart::SimplexDart</text>
<text text-anchor="middle" x="840.5" y="-511.61" font-family="Helvetica,sans-Serif" font-size="10.00">::convert</text>
</a>
</g>
</g>
<!-- Node3&#45;&gt;Node6 -->
<g id="edge6_Node000003_Node000006" class="edge">
<title>Node3&#45;&gt;Node6</title>
<g id="a_edge6_Node000003_Node000006"><a xlink:title=" ">
<path fill="none" stroke="#63b8ff" d="M532.3,-519.61C596.15,-519.61 693.76,-519.61 761.76,-519.61"/>
<polygon fill="#63b8ff" stroke="#63b8ff" points="761.99,-523.11 771.99,-519.61 761.99,-516.11 761.99,-523.11"/>
</a>
</g>
</g>
<!-- Node10 -->
<g id="Node000010" class="node">
<title>Node10</title>
<g id="a_Node000010"><a xlink:href="namespacewmtk_1_1dart.html#a231e35fd144459d332b37666651e7dfb" target="_top" xlink:title=" ">
<polygon fill="white" stroke="#666666" points="716.5,-625.61 594.5,-625.61 594.5,-595.61 716.5,-595.61 716.5,-625.61"/>
<text text-anchor="start" x="602.5" y="-613.61" font-family="Helvetica,sans-Serif" font-size="10.00">wmtk::dart::find_local</text>
<text text-anchor="middle" x="655.5" y="-602.61" font-family="Helvetica,sans-Serif" font-size="10.00">_dart_left_action</text>
</a>
</g>
</g>
<!-- Node3&#45;&gt;Node10 -->
<g id="edge11_Node000003_Node000010" class="edge">
<title>Node3&#45;&gt;Node10</title>
<g id="a_edge11_Node000003_Node000010"><a xlink:title=" ">
<path fill="none" stroke="#63b8ff" d="M509.93,-540.26C541.28,-555.51 583.68,-576.14 614.45,-591.12"/>
<polygon fill="#63b8ff" stroke="#63b8ff" points="613.07,-594.34 623.6,-595.57 616.14,-588.05 613.07,-594.34"/>
</a>
</g>
</g>
<!-- Node12 -->
<g id="Node000012" class="node">
<title>Node12</title>
<g id="a_Node000012"><a xlink:href="classwmtk_1_1dart_1_1_simplex_dart.html#a61de0a16f65d51c565bab5abf01d25aa" target="_top" xlink:title=" ">
<polygon fill="white" stroke="#666666" points="909,-668.61 772,-668.61 772,-638.61 909,-638.61 909,-668.61"/>
<text text-anchor="start" x="780" y="-656.61" font-family="Helvetica,sans-Serif" font-size="10.00">wmtk::dart::SimplexDart</text>
<text text-anchor="middle" x="840.5" y="-645.61" font-family="Helvetica,sans-Serif" font-size="10.00">::product</text>
</a>
</g>
</g>
<!-- Node3&#45;&gt;Node12 -->
<g id="edge31_Node000003_Node000012" class="edge">
<title>Node3&#45;&gt;Node12</title>
<g id="a_edge31_Node000003_Node000012"><a xlink:title=" ">
<path fill="none" stroke="#63b8ff" d="M479.72,-540.21C497.06,-567.3 531.59,-613.88 575,-634.61 633.28,-662.43 707.1,-665.47 761.94,-662.53"/>
<polygon fill="#63b8ff" stroke="#63b8ff" points="762.18,-666.02 771.95,-661.91 761.75,-659.03 762.18,-666.02"/>
</a>
</g>
</g>
<!-- Node3&#45;&gt;Node13 -->
<g id="edge14_Node000003_Node000013" class="edge">
<title>Node3&#45;&gt;Node13</title>
<g id="a_edge14_Node000003_Node000013"><a xlink:title=" ">
<path fill="none" stroke="#63b8ff" d="M497.24,-499.05C518.37,-484.95 547.71,-466.39 575,-452.61 645.31,-417.1 730.63,-385.1 785,-366"/>
<polygon fill="#63b8ff" stroke="#63b8ff" points="786.15,-369.3 794.44,-362.7 783.85,-362.7 786.15,-369.3"/>
</a>
</g>
</g>
<!-- Node14 -->
<g id="Node000014" class="node">
<title>Node14</title>
<g id="a_Node000014"><a xlink:href="namespacewmtk_1_1dart_1_1utils.html#a10c8d07172593fb9b520e7a6511ad08f" target="_top" xlink:title=" ">
<polygon fill="white" stroke="#666666" points="736,-491.61 575,-491.61 575,-461.61 736,-461.61 736,-491.61"/>
<text text-anchor="start" x="583" y="-479.61" font-family="Helvetica,sans-Serif" font-size="10.00">wmtk::dart::utils::</text>
<text text-anchor="middle" x="655.5" y="-468.61" font-family="Helvetica,sans-Serif" font-size="10.00">local_simplex_decomposition</text>
</a>
</g>
</g>
<!-- Node3&#45;&gt;Node14 -->
<g id="edge16_Node000003_Node000014" class="edge">
<title>Node3&#45;&gt;Node14</title>
<g id="a_edge16_Node000003_Node000014"><a xlink:title=" ">
<path fill="none" stroke="#63b8ff" d="M532.12,-504.75C547.27,-501.26 563.55,-497.52 579.13,-493.94"/>
<polygon fill="#63b8ff" stroke="#63b8ff" points="580.29,-497.26 589.25,-491.61 578.72,-490.44 580.29,-497.26"/>
</a>
</g>
</g>
<!-- Node5 -->
<g id="Node000005" class="node">
<title>Node5</title>
<g id="a_Node000005"><a xlink:href="namespacewmtk_1_1autogen_1_1subgroup.html#a9b4c9cc6aebaf0622a95cb3174d984e1" target="_top" xlink:title=" ">
<polygon fill="white" stroke="#666666" points="1280,-655.61 1139,-655.61 1139,-625.61 1280,-625.61 1280,-655.61"/>
<text text-anchor="start" x="1147" y="-643.61" font-family="Helvetica,sans-Serif" font-size="10.00">wmtk::autogen::subgroup</text>
<text text-anchor="middle" x="1209.5" y="-632.61" font-family="Helvetica,sans-Serif" font-size="10.00">::convert</text>
</a>
</g>
</g>
<!-- Node4&#45;&gt;Node5 -->
<g id="edge4_Node000004_Node000005" class="edge">
<title>Node4&#45;&gt;Node5</title>
<g id="a_edge4_Node000004_Node000005"><a xlink:title=" ">
<path fill="none" stroke="#63b8ff" d="M726.23,-692.17C776.97,-688.74 847.3,-683.58 909,-677.61 995.42,-669.24 1016.85,-665.43 1103,-654.61 1111.37,-653.56 1120.1,-652.43 1128.81,-651.3"/>
<polygon fill="#63b8ff" stroke="#63b8ff" points="1129.54,-654.74 1139,-649.97 1128.63,-647.8 1129.54,-654.74"/>
</a>
</g>
</g>
<!-- Node5&#45;&gt;Node5 -->
<g id="edge5_Node000005_Node000005" class="edge">
<title>Node5&#45;&gt;Node5</title>
<g id="a_edge5_Node000005_Node000005"><a xlink:title=" ">
<path fill="none" stroke="#63b8ff" d="M1177.16,-655.88C1169.97,-665.01 1180.75,-673.61 1209.5,-673.61 1226.57,-673.61 1237.31,-670.58 1241.71,-666.2"/>
<polygon fill="#63b8ff" stroke="#63b8ff" points="1245.21,-665.93 1241.84,-655.88 1238.21,-665.84 1245.21,-665.93"/>
</a>
</g>
</g>
<!-- Node7 -->
<g id="Node000007" class="node">
<title>Node7</title>
<g id="a_Node000007"><a xlink:href="namespacewmtk_1_1dart_1_1subgroup.html#a2bf6fed0cc64c6ad326e56135c6e8497" target="_top" xlink:title=" ">
<polygon fill="white" stroke="#666666" points="1084.5,-597.61 963.5,-597.61 963.5,-567.61 1084.5,-567.61 1084.5,-597.61"/>
<text text-anchor="start" x="971.5" y="-585.61" font-family="Helvetica,sans-Serif" font-size="10.00">wmtk::dart::subgroup</text>
<text text-anchor="middle" x="1024" y="-574.61" font-family="Helvetica,sans-Serif" font-size="10.00">::convert</text>
</a>
</g>
</g>
<!-- Node6&#45;&gt;Node7 -->
<g id="edge7_Node000006_Node000007" class="edge">
<title>Node6&#45;&gt;Node7</title>
<g id="a_edge7_Node000006_Node000007"><a xlink:title=" ">
<path fill="none" stroke="#63b8ff" d="M884.84,-534.63C892.9,-537.53 901.23,-540.61 909,-543.61 925.17,-549.85 928.7,-552.72 945,-558.61 950.46,-560.58 956.18,-562.54 961.92,-564.43"/>
<polygon fill="#63b8ff" stroke="#63b8ff" points="960.99,-567.81 971.58,-567.56 963.14,-561.15 960.99,-567.81"/>
</a>
</g>
</g>
<!-- Node8 -->
<g id="Node000008" class="node">
<title>Node8</title>
<g id="a_Node000008"><a xlink:href="classwmtk_1_1dart_1_1_simplex_dart.html#a41f78914333ef35a88337d6ccf53b492" target="_top" xlink:title=" ">
<polygon fill="white" stroke="#666666" points="1092.5,-493.61 955.5,-493.61 955.5,-463.61 1092.5,-463.61 1092.5,-493.61"/>
<text text-anchor="start" x="963.5" y="-481.61" font-family="Helvetica,sans-Serif" font-size="10.00">wmtk::dart::SimplexDart</text>
<text text-anchor="middle" x="1024" y="-470.61" font-family="Helvetica,sans-Serif" font-size="10.00">::identity</text>
</a>
</g>
</g>
<!-- Node6&#45;&gt;Node8 -->
<g id="edge9_Node000006_Node000008" class="edge">
<title>Node6&#45;&gt;Node8</title>
<g id="a_edge9_Node000006_Node000008"><a xlink:title=" ">
<path fill="none" stroke="#63b8ff" d="M908.05,-504.57C920.51,-501.76 933.62,-498.8 946.35,-495.92"/>
<polygon fill="#63b8ff" stroke="#63b8ff" points="947.47,-499.26 956.45,-493.64 945.93,-492.43 947.47,-499.26"/>
</a>
</g>
</g>
<!-- Node9 -->
<g id="Node000009" class="node">
<title>Node9</title>
<g id="a_Node000009"><a xlink:href="classwmtk_1_1dart_1_1_simplex_dart.html#a75defb2c9d167b36c7fc73cd7d5bba60" target="_top" xlink:title=" ">
<polygon fill="white" stroke="#666666" points="1092.5,-397.61 955.5,-397.61 955.5,-367.61 1092.5,-367.61 1092.5,-397.61"/>
<text text-anchor="start" x="963.5" y="-385.61" font-family="Helvetica,sans-Serif" font-size="10.00">wmtk::dart::SimplexDart</text>
<text text-anchor="middle" x="1024" y="-374.61" font-family="Helvetica,sans-Serif" font-size="10.00">::simplex_type</text>
</a>
</g>
</g>
<!-- Node6&#45;&gt;Node9 -->
<g id="edge10_Node000006_Node000009" class="edge">
<title>Node6&#45;&gt;Node9</title>
<g id="a_edge10_Node000006_Node000009"><a xlink:title=" ">
<path fill="none" stroke="#63b8ff" d="M859.97,-504.52C874.13,-492.52 893.76,-474.93 909,-457.61 927.32,-436.77 922.54,-422.89 945,-406.61 947.06,-405.12 949.21,-403.71 951.43,-402.4"/>
<polygon fill="#63b8ff" stroke="#63b8ff" points="953.08,-405.49 960.31,-397.74 949.83,-399.29 953.08,-405.49"/>
</a>
</g>
</g>
<!-- Node7&#45;&gt;Node5 -->
<g id="edge8_Node000007_Node000005" class="edge">
<title>Node7&#45;&gt;Node5</title>
<g id="a_edge8_Node000007_Node000005"><a xlink:title=" ">
<path fill="none" stroke="#63b8ff" d="M1074.13,-597.62C1083.71,-600.57 1093.68,-603.67 1103,-606.61 1119.11,-611.68 1136.58,-617.27 1152.58,-622.43"/>
<polygon fill="#63b8ff" stroke="#63b8ff" points="1151.73,-625.84 1162.32,-625.58 1153.88,-619.18 1151.73,-625.84"/>
</a>
</g>
</g>
<!-- Node11 -->
<g id="Node000011" class="node">
<title>Node11</title>
<g id="a_Node000011"><a xlink:href="classwmtk_1_1dart_1_1_simplex_dart.html#a6923dbaad52cba2f744265012f9648ed" target="_top" xlink:title=" ">
<polygon fill="white" stroke="#666666" points="1092.5,-645.61 955.5,-645.61 955.5,-615.61 1092.5,-615.61 1092.5,-645.61"/>
<text text-anchor="start" x="963.5" y="-633.61" font-family="Helvetica,sans-Serif" font-size="10.00">wmtk::dart::SimplexDart</text>
<text text-anchor="middle" x="1024" y="-622.61" font-family="Helvetica,sans-Serif" font-size="10.00">::inverse</text>
</a>
</g>
</g>
<!-- Node10&#45;&gt;Node11 -->
<g id="edge12_Node000010_Node000011" class="edge">
<title>Node10&#45;&gt;Node11</title>
<g id="a_edge12_Node000010_Node000011"><a xlink:title=" ">
<path fill="none" stroke="#63b8ff" d="M716.61,-613.89C779,-617.29 876.84,-622.63 945.11,-626.36"/>
<polygon fill="#63b8ff" stroke="#63b8ff" points="945.21,-629.87 955.39,-626.92 945.59,-622.88 945.21,-629.87"/>
</a>
</g>
</g>
<!-- Node10&#45;&gt;Node12 -->
<g id="edge13_Node000010_Node000012" class="edge">
<title>Node10&#45;&gt;Node12</title>
<g id="a_edge13_Node000010_Node000012"><a xlink:title=" ">
<path fill="none" stroke="#63b8ff" d="M716.67,-624.75C732.29,-628.42 749.29,-632.41 765.52,-636.22"/>
<polygon fill="#63b8ff" stroke="#63b8ff" points="764.98,-639.69 775.51,-638.57 766.58,-632.88 764.98,-639.69"/>
</a>
</g>
</g>
<!-- Node13&#45;&gt;Node9 -->
<g id="edge15_Node000013_Node000009" class="edge">
<title>Node13&#45;&gt;Node9</title>
<g id="a_edge15_Node000013_Node000009"><a xlink:title=" ">
<path fill="none" stroke="#63b8ff" d="M909.08,-360.64C920.89,-362.92 933.27,-365.3 945.32,-367.63"/>
<polygon fill="#63b8ff" stroke="#63b8ff" points="944.88,-371.11 955.36,-369.56 946.2,-364.23 944.88,-371.11"/>
</a>
</g>
</g>
<!-- Node14&#45;&gt;Node6 -->
<g id="edge17_Node000014_Node000006" class="edge">
<title>Node14&#45;&gt;Node6</title>
<g id="a_edge17_Node000014_Node000006"><a xlink:title=" ">
<path fill="none" stroke="#63b8ff" d="M720.5,-491.65C735.13,-495.08 750.79,-498.76 765.79,-502.29"/>
<polygon fill="#63b8ff" stroke="#63b8ff" points="765,-505.7 775.53,-504.58 766.6,-498.88 765,-505.7"/>
</a>
</g>
</g>
<!-- Node14&#45;&gt;Node8 -->
<g id="edge29_Node000014_Node000008" class="edge">
<title>Node14&#45;&gt;Node8</title>
<g id="a_edge29_Node000014_Node000008"><a xlink:title=" ">
<path fill="none" stroke="#63b8ff" d="M736.03,-477.04C798.05,-477.38 883.7,-477.85 945.27,-478.18"/>
<polygon fill="#63b8ff" stroke="#63b8ff" points="945.3,-481.68 955.31,-478.24 945.33,-474.68 945.3,-481.68"/>
</a>
</g>
</g>
<!-- Node14&#45;&gt;Node9 -->
<g id="edge30_Node000014_Node000009" class="edge">
<title>Node14&#45;&gt;Node9</title>
<g id="a_edge30_Node000014_Node000009"><a xlink:title=" ">
<path fill="none" stroke="#63b8ff" d="M676.53,-461.45C698.63,-445.61 735.87,-421.44 772,-409.61 828.11,-391.24 894.68,-384.72 945.16,-382.68"/>
<polygon fill="#63b8ff" stroke="#63b8ff" points="945.48,-386.17 955.35,-382.31 945.23,-379.17 945.48,-386.17"/>
</a>
</g>
</g>
<!-- Node14&#45;&gt;Node13 -->
<g id="edge28_Node000014_Node000013" class="edge">
<title>Node14&#45;&gt;Node13</title>
<g id="a_edge28_Node000014_Node000013"><a xlink:title=" ">
<path fill="none" stroke="#63b8ff" d="M683.88,-461.44C700,-451.78 720.26,-438.35 736,-423.61 755.21,-405.62 751.24,-392.77 772,-376.61 776.34,-373.23 781.13,-370.17 786.1,-367.41"/>
<polygon fill="#63b8ff" stroke="#63b8ff" points="787.87,-370.43 795.18,-362.77 784.69,-364.2 787.87,-370.43"/>
</a>
</g>
</g>
<!-- Node15 -->
<g id="Node000015" class="node">
<title>Node15</title>
<g id="a_Node000015"><a xlink:href="namespacewmtk_1_1dart.html#a626f426765e240dbc25a76d9d01ec3f3" target="_top" xlink:title=" ">
<polygon fill="white" stroke="#666666" points="901.5,-582.61 779.5,-582.61 779.5,-552.61 901.5,-552.61 901.5,-582.61"/>
<text text-anchor="start" x="787.5" y="-570.61" font-family="Helvetica,sans-Serif" font-size="10.00">wmtk::dart::find_local</text>
<text text-anchor="middle" x="840.5" y="-559.61" font-family="Helvetica,sans-Serif" font-size="10.00">_dart_action</text>
</a>
</g>
</g>
<!-- Node14&#45;&gt;Node15 -->
<g id="edge18_Node000014_Node000015" class="edge">
<title>Node14&#45;&gt;Node15</title>
<g id="a_edge18_Node000014_Node000015"><a xlink:title=" ">
<path fill="none" stroke="#63b8ff" d="M679.71,-491.78C702.56,-506.3 738.76,-528.22 772,-543.61 775.87,-545.4 779.92,-547.14 784.03,-548.82"/>
<polygon fill="#63b8ff" stroke="#63b8ff" points="783.07,-552.2 793.65,-552.59 785.62,-545.69 783.07,-552.2"/>
</a>
</g>
</g>
<!-- Node19 -->
<g id="Node000019" class="node">
<title>Node19</title>
<g id="a_Node000019"><a xlink:href="namespacewmtk_1_1dart_1_1utils.html#a0d0527148877095547bcad7f543c6840" target="_top" xlink:title=" ">
<polygon fill="white" stroke="#666666" points="903.5,-448.61 777.5,-448.61 777.5,-418.61 903.5,-418.61 903.5,-448.61"/>
<text text-anchor="start" x="785.5" y="-436.61" font-family="Helvetica,sans-Serif" font-size="10.00">wmtk::dart::utils::</text>
<text text-anchor="middle" x="840.5" y="-425.61" font-family="Helvetica,sans-Serif" font-size="10.00">get_canonical_supdart</text>
</a>
</g>
</g>
<!-- Node14&#45;&gt;Node19 -->
<g id="edge24_Node000014_Node000019" class="edge">
<title>Node14&#45;&gt;Node19</title>
<g id="a_edge24_Node000014_Node000019"><a xlink:title=" ">
<path fill="none" stroke="#63b8ff" d="M720.5,-461.57C735.64,-458.01 751.88,-454.2 767.35,-450.56"/>
<polygon fill="#63b8ff" stroke="#63b8ff" points="768.45,-453.9 777.38,-448.2 766.85,-447.08 768.45,-453.9"/>
</a>
</g>
</g>
<!-- Node15&#45;&gt;Node11 -->
<g id="edge23_Node000015_Node000011" class="edge">
<title>Node15&#45;&gt;Node11</title>
<g id="a_edge23_Node000015_Node000011"><a xlink:title=" ">
<path fill="none" stroke="#63b8ff" d="M879.63,-582.62C899.09,-590.12 923.2,-599.15 945,-606.61 950.81,-608.59 956.88,-610.59 962.97,-612.55"/>
<polygon fill="#63b8ff" stroke="#63b8ff" points="961.91,-615.88 972.5,-615.57 964.03,-609.21 961.91,-615.88"/>
</a>
</g>
</g>
<!-- Node16 -->
<g id="Node000016" class="node">
<title>Node16</title>
<g id="a_Node000016"><a xlink:href="classwmtk_1_1dart_1_1_simplex_dart.html#a7b929a30594f63ccf71d51b167d4de23" target="_top" xlink:title=" ">
<polygon fill="white" stroke="#666666" points="1103,-531.11 945,-531.11 945,-512.11 1103,-512.11 1103,-531.11"/>
<text text-anchor="middle" x="1024" y="-519.11" font-family="Helvetica,sans-Serif" font-size="10.00">wmtk::dart::SimplexDart::act</text>
</a>
</g>
</g>
<!-- Node15&#45;&gt;Node16 -->
<g id="edge19_Node000015_Node000016" class="edge">
<title>Node15&#45;&gt;Node16</title>
<g id="a_edge19_Node000015_Node000016"><a xlink:title=" ">
<path fill="none" stroke="#63b8ff" d="M900.93,-552.55C925.16,-546.41 952.78,-539.41 975.61,-533.62"/>
<polygon fill="#63b8ff" stroke="#63b8ff" points="976.57,-536.99 985.4,-531.14 974.85,-530.2 976.57,-536.99"/>
</a>
</g>
</g>
<!-- Node16&#45;&gt;Node16 -->
<g id="edge20_Node000016_Node000016" class="edge">
<title>Node16&#45;&gt;Node16</title>
<g id="a_edge20_Node000016_Node000016"><a xlink:title=" ">
<path fill="none" stroke="#63b8ff" d="M995.95,-531.19C982.3,-539.84 991.65,-549.11 1024,-549.11 1046.24,-549.11 1057.61,-544.73 1058.11,-539.18"/>
<polygon fill="#63b8ff" stroke="#63b8ff" points="1060.88,-537.04 1052.05,-531.19 1055.3,-541.27 1060.88,-537.04"/>
</a>
</g>
</g>
<!-- Node17 -->
<g id="Node000017" class="node">
<title>Node17</title>
<g id="a_Node000017"><a xlink:href="classwmtk_1_1dart_1_1___dart.html#ac92923bc94a0aace84b2cf69f277f63a" target="_top" xlink:title=" ">
<polygon fill="white" stroke="#666666" points="1263.5,-536.61 1155.5,-536.61 1155.5,-506.61 1263.5,-506.61 1263.5,-536.61"/>
<text text-anchor="start" x="1163.5" y="-524.61" font-family="Helvetica,sans-Serif" font-size="10.00">wmtk::dart::_Dart::</text>
<text text-anchor="middle" x="1209.5" y="-513.61" font-family="Helvetica,sans-Serif" font-size="10.00">global_id</text>
</a>
</g>
</g>
<!-- Node16&#45;&gt;Node17 -->
<g id="edge21_Node000016_Node000017" class="edge">
<title>Node16&#45;&gt;Node17</title>
<g id="a_edge21_Node000016_Node000017"><a xlink:title=" ">
<path fill="none" stroke="#63b8ff" d="M1103.09,-521.61C1117.16,-521.61 1131.66,-521.61 1145.25,-521.61"/>
<polygon fill="#63b8ff" stroke="#63b8ff" points="1145.43,-525.11 1155.43,-521.61 1145.43,-518.11 1145.43,-525.11"/>
</a>
</g>
</g>
<!-- Node16&#45;&gt;Node18 -->
<g id="edge22_Node000016_Node000018" class="edge">
<title>Node16&#45;&gt;Node18</title>
<g id="a_edge22_Node000016_Node000018"><a xlink:title=" ">
<path fill="none" stroke="#63b8ff" d="M1081.49,-511.99C1089,-509.54 1096.37,-506.46 1103,-502.61 1141.21,-480.37 1174.1,-440.08 1192.59,-414.37"/>
<polygon fill="#63b8ff" stroke="#63b8ff" points="1195.63,-416.13 1198.51,-405.94 1189.9,-412.11 1195.63,-416.13"/>
</a>
</g>
</g>
<!-- Node19&#45;&gt;Node8 -->
<g id="edge26_Node000019_Node000008" class="edge">
<title>Node19&#45;&gt;Node8</title>
<g id="a_edge26_Node000019_Node000008"><a xlink:title=" ">
<path fill="none" stroke="#63b8ff" d="M902.19,-448.65C918.23,-452.63 935.69,-456.96 952.22,-461.06"/>
<polygon fill="#63b8ff" stroke="#63b8ff" points="951.82,-464.57 962.37,-463.57 953.5,-457.77 951.82,-464.57"/>
</a>
</g>
</g>
<!-- Node19&#45;&gt;Node9 -->
<g id="edge27_Node000019_Node000009" class="edge">
<title>Node19&#45;&gt;Node9</title>
<g id="a_edge27_Node000019_Node000009"><a xlink:title=" ">
<path fill="none" stroke="#63b8ff" d="M894.97,-418.58C915.29,-412.87 938.61,-406.32 959.74,-400.38"/>
<polygon fill="#63b8ff" stroke="#63b8ff" points="960.91,-403.69 969.59,-397.61 959.02,-396.95 960.91,-403.69"/>
</a>
</g>
</g>
<!-- Node20 -->
<g id="Node000020" class="node">
<title>Node20</title>
<g id="a_Node000020"><a xlink:href="namespacewmtk.html#a5cf45c152e856196bb734c6f48919a24" target="_top" xlink:title="Get a unique integer id corresponding to each primitive type.">
<polygon fill="white" stroke="#666666" points="1082,-445.61 966,-445.61 966,-415.61 1082,-415.61 1082,-445.61"/>
<text text-anchor="start" x="974" y="-433.61" font-family="Helvetica,sans-Serif" font-size="10.00">wmtk::get_primitive</text>
<text text-anchor="middle" x="1024" y="-422.61" font-family="Helvetica,sans-Serif" font-size="10.00">_type_id</text>
</a>
</g>
</g>
<!-- Node19&#45;&gt;Node20 -->
<g id="edge25_Node000019_Node000020" class="edge">
<title>Node19&#45;&gt;Node20</title>
<g id="a_edge25_Node000019_Node000020"><a xlink:title=" ">
<path fill="none" stroke="#63b8ff" d="M903.71,-432.58C920.36,-432.3 938.45,-432 955.38,-431.72"/>
<polygon fill="#63b8ff" stroke="#63b8ff" points="955.81,-435.22 965.75,-431.55 955.7,-428.22 955.81,-435.22"/>
</a>
</g>
</g>
<!-- Node22 -->
<g id="Node000022" class="node">
<title>Node22</title>
<g id="a_Node000022"><a xlink:href="namespacewmtk_1_1autogen_1_1edge__mesh.html#a31f57ece5d376a6b13f38500d5fc34dc" target="_top" xlink:title=" ">
<polygon fill="white" stroke="#666666" points="539,-136.61 394,-136.61 394,-106.61 539,-106.61 539,-136.61"/>
<text text-anchor="start" x="402" y="-124.61" font-family="Helvetica,sans-Serif" font-size="10.00">wmtk::autogen::edge</text>
<text text-anchor="middle" x="466.5" y="-113.61" font-family="Helvetica,sans-Serif" font-size="10.00">_mesh::local_switch_tuple</text>
</a>
</g>
</g>
<!-- Node21&#45;&gt;Node22 -->
<g id="edge34_Node000021_Node000022" class="edge">
<title>Node21&#45;&gt;Node22</title>
<g id="a_edge34_Node000021_Node000022"><a xlink:title=" ">
<path fill="none" stroke="#63b8ff" d="M322.54,-178.58C342.39,-168.6 369.45,-155.55 394,-145.61 398.66,-143.72 403.53,-141.86 408.44,-140.06"/>
<polygon fill="#63b8ff" stroke="#63b8ff" points="409.66,-143.34 417.9,-136.68 407.3,-136.75 409.66,-143.34"/>
</a>
</g>
</g>
<!-- Node27 -->
<g id="Node000027" class="node">
<title>Node27</title>
<g id="a_Node000027"><a xlink:href="namespacewmtk_1_1autogen_1_1tet__mesh.html#a4060d948aa959f21810c425f3f197dd5" target="_top" xlink:title=" ">
<polygon fill="white" stroke="#666666" points="539,-232.61 394,-232.61 394,-202.61 539,-202.61 539,-232.61"/>
<text text-anchor="start" x="402" y="-220.61" font-family="Helvetica,sans-Serif" font-size="10.00">wmtk::autogen::tet</text>
<text text-anchor="middle" x="466.5" y="-209.61" font-family="Helvetica,sans-Serif" font-size="10.00">_mesh::local_switch_tuple</text>
</a>
</g>
</g>
<!-- Node21&#45;&gt;Node27 -->
<g id="edge39_Node000021_Node000027" class="edge">
<title>Node21&#45;&gt;Node27</title>
<g id="a_edge39_Node000021_Node000027"><a xlink:title=" ">
<path fill="none" stroke="#63b8ff" d="M352.21,-201.8C362.39,-203.22 373.14,-204.72 383.79,-206.21"/>
<polygon fill="#63b8ff" stroke="#63b8ff" points="383.58,-209.71 393.96,-207.63 384.54,-202.78 383.58,-209.71"/>
</a>
</g>
</g>
<!-- Node29 -->
<g id="Node000029" class="node">
<title>Node29</title>
<g id="a_Node000029"><a xlink:href="namespacewmtk_1_1autogen_1_1tri__mesh.html#a91e6b348f528d93ad6d9031bae1480da" target="_top" xlink:title=" ">
<polygon fill="white" stroke="#666666" points="539,-184.61 394,-184.61 394,-154.61 539,-154.61 539,-184.61"/>
<text text-anchor="start" x="402" y="-172.61" font-family="Helvetica,sans-Serif" font-size="10.00">wmtk::autogen::tri</text>
<text text-anchor="middle" x="466.5" y="-161.61" font-family="Helvetica,sans-Serif" font-size="10.00">_mesh::local_switch_tuple</text>
</a>
</g>
</g>
<!-- Node21&#45;&gt;Node29 -->
<g id="edge45_Node000021_Node000029" class="edge">
<title>Node21&#45;&gt;Node29</title>
<g id="a_edge45_Node000021_Node000029"><a xlink:title=" ">
<path fill="none" stroke="#63b8ff" d="M352.21,-185.41C362.39,-183.99 373.14,-182.5 383.79,-181.01"/>
<polygon fill="#63b8ff" stroke="#63b8ff" points="384.54,-184.44 393.96,-179.59 383.58,-177.5 384.54,-184.44"/>
</a>
</g>
</g>
<!-- Node23 -->
<g id="Node000023" class="node">
<title>Node23</title>
<g id="a_Node000023"><a xlink:href="classwmtk_1_1_tuple.html#aef64a43ff5f5617dbc99d865356bbc25" target="_top" xlink:title=" ">
<polygon fill="white" stroke="#666666" points="721,-179.11 590,-179.11 590,-160.11 721,-160.11 721,-179.11"/>
<text text-anchor="middle" x="655.5" y="-167.11" font-family="Helvetica,sans-Serif" font-size="10.00">wmtk::Tuple::global_cid</text>
</a>
</g>
</g>
<!-- Node22&#45;&gt;Node23 -->
<g id="edge35_Node000022_Node000023" class="edge">
<title>Node22&#45;&gt;Node23</title>
<g id="a_edge35_Node000022_Node000023"><a xlink:title=" ">
<path fill="none" stroke="#63b8ff" d="M526.15,-136.66C552.33,-143.38 582.75,-151.19 607.4,-157.52"/>
<polygon fill="#63b8ff" stroke="#63b8ff" points="606.68,-160.95 617.24,-160.04 608.42,-154.17 606.68,-160.95"/>
</a>
</g>
</g>
<!-- Node24 -->
<g id="Node000024" class="node">
<title>Node24</title>
<g id="a_Node000024"><a xlink:href="classwmtk_1_1_tuple.html#ac3cd5381c7147e3ff35347c574635311" target="_top" xlink:title=" ">
<polygon fill="white" stroke="#666666" points="903,-103.11 778,-103.11 778,-84.11 903,-84.11 903,-103.11"/>
<text text-anchor="middle" x="840.5" y="-91.11" font-family="Helvetica,sans-Serif" font-size="10.00">wmtk::Tuple::local_eid</text>
</a>
</g>
</g>
<!-- Node22&#45;&gt;Node24 -->
<g id="edge36_Node000022_Node000024" class="edge">
<title>Node22&#45;&gt;Node24</title>
<g id="a_edge36_Node000022_Node000024"><a xlink:title=" ">
<path fill="none" stroke="#63b8ff" d="M539.23,-116.21C604.96,-111.26 701.78,-103.97 767.58,-99.02"/>
<polygon fill="#63b8ff" stroke="#63b8ff" points="768.15,-102.49 777.86,-98.25 767.63,-95.51 768.15,-102.49"/>
</a>
</g>
</g>
<!-- Node25 -->
<g id="Node000025" class="node">
<title>Node25</title>
<g id="a_Node000025"><a xlink:href="classwmtk_1_1_tuple.html#ab5fa210c660a9d678768c15d7c4f78f0" target="_top" xlink:title=" ">
<polygon fill="white" stroke="#666666" points="901.5,-227.11 779.5,-227.11 779.5,-208.11 901.5,-208.11 901.5,-227.11"/>
<text text-anchor="middle" x="840.5" y="-215.11" font-family="Helvetica,sans-Serif" font-size="10.00">wmtk::Tuple::local_fid</text>
</a>
</g>
</g>
<!-- Node22&#45;&gt;Node25 -->
<g id="edge37_Node000022_Node000025" class="edge">
<title>Node22&#45;&gt;Node25</title>
<g id="a_edge37_Node000022_Node000025"><a xlink:title=" ">
<path fill="none" stroke="#63b8ff" d="M539.28,-120.87C594.52,-122.37 671.98,-129 736,-151.61 768.21,-162.98 800.66,-185.98 820.42,-201.6"/>
<polygon fill="#63b8ff" stroke="#63b8ff" points="818.34,-204.42 828.32,-207.98 822.74,-198.97 818.34,-204.42"/>
</a>
</g>
</g>
<!-- Node26 -->
<g id="Node000026" class="node">
<title>Node26</title>
<g id="a_Node000026"><a xlink:href="classwmtk_1_1_tuple.html#a27f6ee155923e848b461bebea1890abc" target="_top" xlink:title=" ">
<polygon fill="white" stroke="#666666" points="903,-54.11 778,-54.11 778,-35.11 903,-35.11 903,-54.11"/>
<text text-anchor="middle" x="840.5" y="-42.11" font-family="Helvetica,sans-Serif" font-size="10.00">wmtk::Tuple::local_vid</text>
</a>
</g>
</g>
<!-- Node22&#45;&gt;Node26 -->
<g id="edge38_Node000022_Node000026" class="edge">
<title>Node22&#45;&gt;Node26</title>
<g id="a_edge38_Node000022_Node000026"><a xlink:title=" ">
<path fill="none" stroke="#63b8ff" d="M476.8,-106.57C493.1,-81.83 529.48,-33.4 575,-14.61 653.89,17.96 756.62,-12.07 807.73,-31.34"/>
<polygon fill="#63b8ff" stroke="#63b8ff" points="806.65,-34.67 817.24,-35.03 809.18,-28.15 806.65,-34.67"/>
</a>
</g>
</g>
<!-- Node27&#45;&gt;Node23 -->
<g id="edge40_Node000027_Node000023" class="edge">
<title>Node27&#45;&gt;Node23</title>
<g id="a_edge40_Node000027_Node000023"><a xlink:title=" ">
<path fill="none" stroke="#63b8ff" d="M522.11,-202.55C539.03,-197.97 557.76,-192.99 575,-188.61 584.29,-186.24 594.21,-183.81 603.78,-181.5"/>
<polygon fill="#63b8ff" stroke="#63b8ff" points="604.68,-184.88 613.59,-179.14 603.05,-178.07 604.68,-184.88"/>
</a>
</g>
</g>
<!-- Node28 -->
<g id="Node000028" class="node">
<title>Node28</title>
<g id="a_Node000028"><a xlink:href="namespacewmtk_1_1autogen_1_1tet__mesh.html#ace6b80b1be9aec0d6a5ac5d144b40965" target="_top" xlink:title=" ">
<polygon fill="white" stroke="#666666" points="716.5,-238.11 594.5,-238.11 594.5,-197.11 716.5,-197.11 716.5,-238.11"/>
<text text-anchor="start" x="602.5" y="-226.11" font-family="Helvetica,sans-Serif" font-size="10.00">wmtk::autogen::tet</text>
<text text-anchor="start" x="602.5" y="-215.11" font-family="Helvetica,sans-Serif" font-size="10.00">_mesh::local_id_table</text>
<text text-anchor="middle" x="655.5" y="-204.11" font-family="Helvetica,sans-Serif" font-size="10.00">_offset</text>
</a>
</g>
</g>
<!-- Node27&#45;&gt;Node28 -->
<g id="edge41_Node000027_Node000028" class="edge">
<title>Node27&#45;&gt;Node28</title>
<g id="a_edge41_Node000027_Node000028"><a xlink:title=" ">
<path fill="none" stroke="#63b8ff" d="M539.26,-217.61C554.08,-217.61 569.66,-217.61 584.41,-217.61"/>
<polygon fill="#63b8ff" stroke="#63b8ff" points="584.47,-221.11 594.47,-217.61 584.47,-214.11 584.47,-221.11"/>
</a>
</g>
</g>
<!-- Node28&#45;&gt;Node24 -->
<g id="edge42_Node000028_Node000024" class="edge">
<title>Node28&#45;&gt;Node24</title>
<g id="a_edge42_Node000028_Node000024"><a xlink:title=" ">
<path fill="none" stroke="#63b8ff" d="M716.73,-198.54C723.41,-195.58 729.97,-192.27 736,-188.61 771.7,-166.91 805.95,-131.72 824.72,-110.81"/>
<polygon fill="#63b8ff" stroke="#63b8ff" points="827.35,-113.12 831.34,-103.3 822.1,-108.49 827.35,-113.12"/>
</a>
</g>
</g>
<!-- Node28&#45;&gt;Node25 -->
<g id="edge43_Node000028_Node000025" class="edge">
<title>Node28&#45;&gt;Node25</title>
<g id="a_edge43_Node000028_Node000025"><a xlink:title=" ">
<path fill="none" stroke="#63b8ff" d="M716.67,-217.61C733.48,-217.61 751.89,-217.61 769.23,-217.61"/>
<polygon fill="#63b8ff" stroke="#63b8ff" points="769.29,-221.11 779.29,-217.61 769.29,-214.11 769.29,-221.11"/>
</a>
</g>
</g>
<!-- Node28&#45;&gt;Node26 -->
<g id="edge44_Node000028_Node000026" class="edge">
<title>Node28&#45;&gt;Node26</title>
<g id="a_edge44_Node000028_Node000026"><a xlink:title=" ">
<path fill="none" stroke="#63b8ff" d="M716.63,-202.64C723.81,-198.94 730.51,-194.34 736,-188.61 772.74,-150.22 736.6,-114.23 772,-74.61 778.02,-67.87 785.84,-62.57 794.02,-58.42"/>
<polygon fill="#63b8ff" stroke="#63b8ff" points="795.65,-61.52 803.32,-54.22 792.77,-55.14 795.65,-61.52"/>
</a>
</g>
</g>
<!-- Node29&#45;&gt;Node23 -->
<g id="edge46_Node000029_Node000023" class="edge">
<title>Node29&#45;&gt;Node23</title>
<g id="a_edge46_Node000029_Node000023"><a xlink:title=" ">
<path fill="none" stroke="#63b8ff" d="M539.26,-169.61C552.56,-169.61 566.48,-169.61 579.86,-169.61"/>
<polygon fill="#63b8ff" stroke="#63b8ff" points="579.97,-173.11 589.97,-169.61 579.97,-166.11 579.97,-173.11"/>
</a>
</g>
</g>
<!-- Node29&#45;&gt;Node25 -->
<g id="edge47_Node000029_Node000025" class="edge">
<title>Node29&#45;&gt;Node25</title>
<g id="a_edge47_Node000029_Node000025"><a xlink:title=" ">
<path fill="none" stroke="#63b8ff" d="M524.34,-184.7C529.54,-187.24 534.53,-190.18 539,-193.61 561.9,-211.14 549.57,-234 575,-247.61 651.78,-288.7 758.84,-253.04 810,-231.36"/>
<polygon fill="#63b8ff" stroke="#63b8ff" points="811.69,-234.44 819.46,-227.24 808.9,-228.02 811.69,-234.44"/>
</a>
</g>
</g>
<!-- Node30 -->
<g id="Node000030" class="node">
<title>Node30</title>
<g id="a_Node000030"><a xlink:href="namespacewmtk_1_1autogen_1_1tri__mesh.html#a1c9b651c47ee993e160a8dca570cf35c" target="_top" xlink:title=" ">
<polygon fill="white" stroke="#666666" points="716.5,-65.11 594.5,-65.11 594.5,-24.11 716.5,-24.11 716.5,-65.11"/>
<text text-anchor="start" x="602.5" y="-53.11" font-family="Helvetica,sans-Serif" font-size="10.00">wmtk::autogen::tri</text>
<text text-anchor="start" x="602.5" y="-42.11" font-family="Helvetica,sans-Serif" font-size="10.00">_mesh::local_id_table</text>
<text text-anchor="middle" x="655.5" y="-31.11" font-family="Helvetica,sans-Serif" font-size="10.00">_offset</text>
</a>
</g>
</g>
<!-- Node29&#45;&gt;Node30 -->
<g id="edge48_Node000029_Node000030" class="edge">
<title>Node29&#45;&gt;Node30</title>
<g id="a_edge48_Node000029_Node000030"><a xlink:title=" ">
<path fill="none" stroke="#63b8ff" d="M520.48,-154.48C526.89,-151.88 533.21,-148.93 539,-145.61 573.45,-125.83 606.96,-94.81 628.94,-72.37"/>
<polygon fill="#63b8ff" stroke="#63b8ff" points="631.51,-74.74 635.93,-65.12 626.47,-69.89 631.51,-74.74"/>
</a>
</g>
</g>
<!-- Node30&#45;&gt;Node24 -->
<g id="edge49_Node000030_Node000024" class="edge">
<title>Node30&#45;&gt;Node24</title>
<g id="a_edge49_Node000030_Node000024"><a xlink:title=" ">
<path fill="none" stroke="#63b8ff" d="M716.67,-60.72C741.92,-67.48 770.79,-75.21 794.2,-81.48"/>
<polygon fill="#63b8ff" stroke="#63b8ff" points="793.3,-84.86 803.86,-84.07 795.11,-78.1 793.3,-84.86"/>
</a>
</g>
</g>
<!-- Node30&#45;&gt;Node26 -->
<g id="edge50_Node000030_Node000026" class="edge">
<title>Node30&#45;&gt;Node26</title>
<g id="a_edge50_Node000030_Node000026"><a xlink:title=" ">
<path fill="none" stroke="#63b8ff" d="M716.67,-44.61C732.89,-44.61 750.61,-44.61 767.4,-44.61"/>
<polygon fill="#63b8ff" stroke="#63b8ff" points="767.72,-48.11 777.72,-44.61 767.72,-41.11 767.72,-48.11"/>
</a>
</g>
</g>
</g>
</svg>
