<?xml version="1.0" encoding="UTF-8" standalone="no"?>
<!DOCTYPE svg PUBLIC "-//W3C//DTD SVG 1.1//EN"
 "http://www.w3.org/Graphics/SVG/1.1/DTD/svg11.dtd">
<!-- Generated by graphviz version 2.43.0 (0)
 -->
<!-- Title: wmtk::Mesh::register_child_mesh Pages: 1 -->
<!--zoomable 712 -->

<svg id="main" version="1.1" xmlns="http://www.w3.org/2000/svg" xmlns:xlink="http://www.w3.org/1999/xlink" xml:space="preserve" onload="init(evt)">
<style type="text/css"><![CDATA[
.node, .edge {opacity: 0.7;}
.node.selected, .edge.selected {opacity: 1;}
.edge:hover path { stroke: red; }
.edge:hover polygon { stroke: red; fill: red; }
]]></style>

<defs>
  <circle id="rim" cx="0" cy="0" r="7"/>
  <circle id="rim2" cx="0" cy="0" r="3.5"/>
  <g id="zoomPlus">
    <use xlink:href="#rim" fill="#404040"><set attributeName="fill" to="#808080" begin="zoomplus.mouseover" end="zoomplus.mouseout"/></use>
    <path d="M-4,0h8M0,-4v8" fill="none" stroke="white" stroke-width="1.5" pointer-events="none"/>
  </g>
  <g id="zoomMin">
    <use xlink:href="#rim" fill="#404040"><set attributeName="fill" to="#808080" begin="zoomminus.mouseover" end="zoomminus.mouseout"/></use>
    <path d="M-4,0h8" fill="none" stroke="white" stroke-width="1.5" pointer-events="none"/>
  </g>
  <g id="arrowUp" transform="translate(30 24)">
    <use xlink:href="#rim"/>
    <path pointer-events="none" fill="none" stroke="white" stroke-width="1.5" d="M0,-3.0v7 M-2.5,-0.5L0,-3.0L2.5,-0.5"/>
  </g>
  <g id="arrowRight" transform="rotate(90) translate(36 -43)">
    <use xlink:href="#rim"/>
    <path pointer-events="none" fill="none" stroke="white" stroke-width="1.5" d="M0,-3.0v7 M-2.5,-0.5L0,-3.0L2.5,-0.5"/>
  </g>
  <g id="arrowDown" transform="rotate(180) translate(-30 -48)">
    <use xlink:href="#rim"/>
    <path pointer-events="none" fill="none" stroke="white" stroke-width="1.5" d="M0,-3.0v7 M-2.5,-0.5L0,-3.0L2.5,-0.5"/>
  </g>
  <g id="arrowLeft" transform="rotate(270) translate(-36 17)">
    <use xlink:href="#rim"/>
    <path pointer-events="none" fill="none" stroke="white" stroke-width="1.5" d="M0,-3.0v7 M-2.5,-0.5L0,-3.0L2.5,-0.5"/>
  </g>
  <g id="resetDef">
    <use xlink:href="#rim2" fill="#404040"><set attributeName="fill" to="#808080" begin="reset.mouseover" end="reset.mouseout"/></use>
  </g>
</defs>
<script type="application/ecmascript">
var viewWidth = 1163;
var viewHeight = 712;
var sectionId = 'dynsection-155';
</script>
<script type="application/ecmascript" xlink:href="svg.min.js"/>
<svg id="graph" class="graph">
<g id="viewport">
<title>wmtk::Mesh::register_child_mesh</title>
<!-- Node1 -->
<g id="Node000001" class="node">
<title>Node1</title>
<g id="a_Node000001"><a xlink:title="register a mesh as the child of this mesh">
<polygon fill="#999999" stroke="#666666" points="1155,-222 1035,-222 1035,-192 1155,-192 1155,-222"/>
<text text-anchor="start" x="1043" y="-210" font-family="Helvetica,sans-Serif" font-size="10.00">wmtk::Mesh::register</text>
<text text-anchor="middle" x="1095" y="-199" font-family="Helvetica,sans-Serif" font-size="10.00">_child_mesh</text>
</a>
</g>
</g>
<!-- Node2 -->
<g id="Node000002" class="node">
<title>Node2</title>
<g id="a_Node000002"><a xlink:href="classwmtk_1_1components_1_1internal_1_1_multi_mesh_from_tag.html#a96647e9413f2b7e13dd17f02cf29b12d" target="_top" xlink:title="Create a manifold mesh from the substructure.">
<polygon fill="white" stroke="#666666" points="785,-531.5 621,-531.5 621,-490.5 785,-490.5 785,-531.5"/>
<text text-anchor="start" x="629" y="-519.5" font-family="Helvetica,sans-Serif" font-size="10.00">wmtk::components::internal</text>
<text text-anchor="start" x="629" y="-508.5" font-family="Helvetica,sans-Serif" font-size="10.00">::MultiMeshFromTag::compute</text>
<text text-anchor="middle" x="703" y="-497.5" font-family="Helvetica,sans-Serif" font-size="10.00">_substructure_mesh</text>
</a>
</g>
</g>
<!-- Node1&#45;&gt;Node2 -->
<g id="edge1_Node000001_Node000002" class="edge">
<title>Node1&#45;&gt;Node2</title>
<g id="a_edge1_Node000001_Node000002"><a xlink:title=" ">
<path fill="none" stroke="#63b8ff" d="M1092,-232.21C1086.6,-282.36 1067.15,-394.7 999,-452 939.74,-501.83 850.18,-513.73 785.29,-514.93"/>
<polygon fill="#63b8ff" stroke="#63b8ff" points="1095.49,-232.52 1092.98,-222.23 1088.52,-231.84 1095.49,-232.52"/>
</a>
</g>
</g>
<!-- Node12 -->
<g id="Node000012" class="node">
<title>Node12</title>
<g id="a_Node000012"><a xlink:href="classwmtk_1_1components_1_1internal_1_1_multi_mesh_from_tag.html#ad18667b876fc81c8cfb79a408d632b25" target="_top" xlink:title="Create a multimesh where the child&#45;mesh is just a soup (no connectivity) of m_mesh.">
<polygon fill="white" stroke="#666666" points="990,-442.5 836,-442.5 836,-401.5 990,-401.5 990,-442.5"/>
<text text-anchor="start" x="844" y="-430.5" font-family="Helvetica,sans-Serif" font-size="10.00">wmtk::components::internal</text>
<text text-anchor="start" x="844" y="-419.5" font-family="Helvetica,sans-Serif" font-size="10.00">::MultiMeshFromTag::create</text>
<text text-anchor="middle" x="913" y="-408.5" font-family="Helvetica,sans-Serif" font-size="10.00">_substructure_soup</text>
</a>
</g>
</g>
<!-- Node1&#45;&gt;Node12 -->
<g id="edge11_Node000001_Node000012" class="edge">
<title>Node1&#45;&gt;Node12</title>
<g id="a_edge11_Node000001_Node000012"><a xlink:title=" ">
<path fill="none" stroke="#63b8ff" d="M1078.72,-230.76C1060.85,-257.92 1029.78,-303.24 999,-339 979.63,-361.51 955.15,-384.96 937.45,-401.17"/>
<polygon fill="#63b8ff" stroke="#63b8ff" points="1081.72,-232.57 1084.26,-222.28 1075.86,-228.74 1081.72,-232.57"/>
</a>
</g>
</g>
<!-- Node13 -->
<g id="Node000013" class="node">
<title>Node13</title>
<g id="a_Node000013"><a xlink:href="classwmtk_1_1multimesh_1_1utils_1_1internal_1_1_tuple_tag.html#a8ed81816208822ab09a81c000c59952b" target="_top" xlink:title=" ">
<polygon fill="white" stroke="#666666" points="986,-330 840,-330 840,-278 986,-278 986,-330"/>
<text text-anchor="start" x="848" y="-318" font-family="Helvetica,sans-Serif" font-size="10.00">wmtk::multimesh::utils</text>
<text text-anchor="start" x="848" y="-307" font-family="Helvetica,sans-Serif" font-size="10.00">::internal::TupleTag::</text>
<text text-anchor="start" x="848" y="-296" font-family="Helvetica,sans-Serif" font-size="10.00">extract_and_register_child</text>
<text text-anchor="middle" x="913" y="-285" font-family="Helvetica,sans-Serif" font-size="10.00">_mesh_from_tag_handle</text>
</a>
</g>
</g>
<!-- Node1&#45;&gt;Node13 -->
<g id="edge13_Node000001_Node000013" class="edge">
<title>Node1&#45;&gt;Node13</title>
<g id="a_edge13_Node000001_Node000013"><a xlink:title=" ">
<path fill="none" stroke="#63b8ff" d="M1061.2,-227.79C1043.11,-238.98 1020.1,-252.74 999,-264 990.22,-268.68 980.8,-273.41 971.54,-277.88"/>
<polygon fill="#63b8ff" stroke="#63b8ff" points="1063.54,-230.46 1070.18,-222.21 1059.84,-224.52 1063.54,-230.46"/>
</a>
</g>
</g>
<!-- Node17 -->
<g id="Node000017" class="node">
<title>Node17</title>
<g id="a_Node000017"><a xlink:href="namespacewmtk_1_1components_1_1multimesh.html#a1319047d22f3994a0c3c846379ed2196" target="_top" xlink:title=" ">
<polygon fill="white" stroke="#666666" points="374,-265 205,-265 205,-235 374,-235 374,-265"/>
<text text-anchor="start" x="213" y="-253" font-family="Helvetica,sans-Serif" font-size="10.00">wmtk::components::multimesh</text>
<text text-anchor="middle" x="289.5" y="-242" font-family="Helvetica,sans-Serif" font-size="10.00">::multimesh</text>
</a>
</g>
</g>
<!-- Node1&#45;&gt;Node17 -->
<g id="edge34_Node000001_Node000017" class="edge">
<title>Node1&#45;&gt;Node17</title>
<g id="a_edge34_Node000001_Node000017"><a xlink:title=" ">
<path fill="none" stroke="#63b8ff" d="M1033.33,-224.44C1022.01,-227.09 1010.21,-229.45 999,-231 774.87,-261.93 507.19,-258.23 374.15,-253.69"/>
<polygon fill="#63b8ff" stroke="#63b8ff" points="1034.25,-227.82 1043.13,-222.05 1032.59,-221.02 1034.25,-227.82"/>
</a>
</g>
</g>
<!-- Node22 -->
<g id="Node000022" class="node">
<title>Node22</title>
<g id="a_Node000022"><a xlink:href="namespacewmtk_1_1components_1_1multimesh.html#a520cff3557e74c0a0d648947dc42280f" target="_top" xlink:title=" ">
<polygon fill="white" stroke="#666666" points="997.5,-222 828.5,-222 828.5,-192 997.5,-192 997.5,-222"/>
<text text-anchor="start" x="836.5" y="-210" font-family="Helvetica,sans-Serif" font-size="10.00">wmtk::components::multimesh</text>
<text text-anchor="middle" x="913" y="-199" font-family="Helvetica,sans-Serif" font-size="10.00">::from_facet_bijection</text>
</a>
</g>
</g>
<!-- Node1&#45;&gt;Node22 -->
<g id="edge24_Node000001_Node000022" class="edge">
<title>Node1&#45;&gt;Node22</title>
<g id="a_edge24_Node000001_Node000022"><a xlink:title=" ">
<path fill="none" stroke="#63b8ff" d="M1024.46,-207C1015.73,-207 1006.73,-207 997.81,-207"/>
<polygon fill="#63b8ff" stroke="#63b8ff" points="1024.56,-210.5 1034.56,-207 1024.56,-203.5 1024.56,-210.5"/>
</a>
</g>
</g>
<!-- Node25 -->
<g id="Node000025" class="node">
<title>Node25</title>
<g id="a_Node000025"><a xlink:href="namespacewmtk_1_1components_1_1multimesh.html#acb1c9ec0be952fc87f89fd1383935111" target="_top" xlink:title=" ">
<polygon fill="white" stroke="#666666" points="997.5,-174 828.5,-174 828.5,-144 997.5,-144 997.5,-174"/>
<text text-anchor="start" x="836.5" y="-162" font-family="Helvetica,sans-Serif" font-size="10.00">wmtk::components::multimesh</text>
<text text-anchor="middle" x="913" y="-151" font-family="Helvetica,sans-Serif" font-size="10.00">::from_facet_surjection</text>
</a>
</g>
</g>
<!-- Node1&#45;&gt;Node25 -->
<g id="edge28_Node000001_Node000025" class="edge">
<title>Node1&#45;&gt;Node25</title>
<g id="a_edge28_Node000001_Node000025"><a xlink:title=" ">
<path fill="none" stroke="#63b8ff" d="M1027.81,-189.35C1008.91,-184.31 988.51,-178.87 970.26,-174"/>
<polygon fill="#63b8ff" stroke="#63b8ff" points="1026.98,-192.75 1037.54,-191.94 1028.78,-185.99 1026.98,-192.75"/>
</a>
</g>
</g>
<!-- Node26 -->
<g id="Node000026" class="node">
<title>Node26</title>
<g id="a_Node000026"><a xlink:href="namespacewmtk_1_1components_1_1multimesh.html#a4ce78e6a496aee49d62259fdf4272bee" target="_top" xlink:title=" ">
<polygon fill="white" stroke="#666666" points="999,-126 827,-126 827,-96 999,-96 999,-126"/>
<text text-anchor="start" x="835" y="-114" font-family="Helvetica,sans-Serif" font-size="10.00">wmtk::components::multimesh</text>
<text text-anchor="middle" x="913" y="-103" font-family="Helvetica,sans-Serif" font-size="10.00">::from_manifold_decomposition</text>
</a>
</g>
</g>
<!-- Node1&#45;&gt;Node26 -->
<g id="edge29_Node000001_Node000026" class="edge">
<title>Node1&#45;&gt;Node26</title>
<g id="a_edge29_Node000001_Node000026"><a xlink:title=" ">
<path fill="none" stroke="#63b8ff" d="M1070.33,-185.04C1052.06,-169.13 1025.51,-148.2 999,-135 992.27,-131.65 985.01,-128.71 977.66,-126.13"/>
<polygon fill="#63b8ff" stroke="#63b8ff" points="1068.31,-187.92 1078.11,-191.94 1072.96,-182.69 1068.31,-187.92"/>
</a>
</g>
</g>
<!-- Node28 -->
<g id="Node000028" class="node">
<title>Node28</title>
<g id="a_Node000028"><a xlink:href="namespacewmtk_1_1components_1_1multimesh.html#af788a1e34ada6ee56f00f90c733b9dc3" target="_top" xlink:title=" ">
<polygon fill="white" stroke="#666666" points="997.5,-78 828.5,-78 828.5,-48 997.5,-48 997.5,-78"/>
<text text-anchor="start" x="836.5" y="-66" font-family="Helvetica,sans-Serif" font-size="10.00">wmtk::components::multimesh</text>
<text text-anchor="middle" x="913" y="-55" font-family="Helvetica,sans-Serif" font-size="10.00">::from_vertex_simplices</text>
</a>
</g>
</g>
<!-- Node1&#45;&gt;Node28 -->
<g id="edge31_Node000001_Node000028" class="edge">
<title>Node1&#45;&gt;Node28</title>
<g id="a_edge31_Node000001_Node000028"><a xlink:title=" ">
<path fill="none" stroke="#63b8ff" d="M1081.25,-183.07C1065.51,-155.8 1036.18,-111.79 999,-87 993.9,-83.6 988.31,-80.67 982.52,-78.16"/>
<polygon fill="#63b8ff" stroke="#63b8ff" points="1078.3,-184.96 1086.25,-191.96 1084.4,-181.53 1078.3,-184.96"/>
</a>
</g>
</g>
<!-- Node30 -->
<g id="Node000030" class="node">
<title>Node30</title>
<g id="a_Node000030"><a xlink:href="namespacewmtk_1_1multimesh_1_1utils.html#af27583eaf341618f1e7d709d5018156a" target="_top" xlink:title="Extracts a child PointMesh from a sequence of vertex tuples.">
<polygon fill="white" stroke="#666666" points="978,-30 848,-30 848,0 978,0 978,-30"/>
<text text-anchor="start" x="856" y="-18" font-family="Helvetica,sans-Serif" font-size="10.00">wmtk::multimesh::utils</text>
<text text-anchor="middle" x="913" y="-7" font-family="Helvetica,sans-Serif" font-size="10.00">::get_points</text>
</a>
</g>
</g>
<!-- Node1&#45;&gt;Node30 -->
<g id="edge33_Node000001_Node000030" class="edge">
<title>Node1&#45;&gt;Node30</title>
<g id="a_edge33_Node000001_Node000030"><a xlink:title=" ">
<path fill="none" stroke="#63b8ff" d="M1086.62,-181.91C1074.48,-145.02 1046.73,-76.48 999,-39 992.85,-34.17 985.78,-30.31 978.39,-27.23"/>
<polygon fill="#63b8ff" stroke="#63b8ff" points="1083.41,-183.37 1089.77,-191.85 1090.09,-181.26 1083.41,-183.37"/>
</a>
</g>
</g>
<!-- Node3 -->
<g id="Node000003" class="node">
<title>Node3</title>
<g id="a_Node000003"><a xlink:href="namespacewmtk_1_1components.html#ac309092566399cef68679a1bb8107d1e" target="_top" xlink:title="Generate a multi&#45;mesh from a mesh with a tag that represents the substructure, the mesh is changed.">
<polygon fill="white" stroke="#666666" points="579,-704 410,-704 410,-674 579,-674 579,-704"/>
<text text-anchor="start" x="418" y="-692" font-family="Helvetica,sans-Serif" font-size="10.00">wmtk::components::multimesh</text>
<text text-anchor="middle" x="494.5" y="-681" font-family="Helvetica,sans-Serif" font-size="10.00">_from_tag</text>
</a>
</g>
</g>
<!-- Node2&#45;&gt;Node3 -->
<g id="edge2_Node000002_Node000003" class="edge">
<title>Node2&#45;&gt;Node3</title>
<g id="a_edge2_Node000002_Node000003"><a xlink:title=" ">
<path fill="none" stroke="#63b8ff" d="M686.17,-540.36C665.88,-575.21 627.47,-632.66 579,-665 573.86,-668.43 568.22,-671.38 562.38,-673.91"/>
<polygon fill="#63b8ff" stroke="#63b8ff" points="689.25,-542.01 691.17,-531.59 683.17,-538.54 689.25,-542.01"/>
</a>
</g>
</g>
<!-- Node5 -->
<g id="Node000005" class="node">
<title>Node5</title>
<g id="a_Node000005"><a xlink:href="namespacewmtk_1_1components.html#a4166e4880553cfacbf79ac3515a637cd" target="_top" xlink:title=" ">
<polygon fill="white" stroke="#666666" points="572,-656 417,-656 417,-626 572,-626 572,-656"/>
<text text-anchor="start" x="425" y="-644" font-family="Helvetica,sans-Serif" font-size="10.00">wmtk::components::periodic</text>
<text text-anchor="middle" x="494.5" y="-633" font-family="Helvetica,sans-Serif" font-size="10.00">_optimization</text>
</a>
</g>
</g>
<!-- Node2&#45;&gt;Node5 -->
<g id="edge4_Node000002_Node000005" class="edge">
<title>Node2&#45;&gt;Node5</title>
<g id="a_edge4_Node000002_Node000005"><a xlink:title=" ">
<path fill="none" stroke="#63b8ff" d="M676.48,-538.95C653.22,-562.86 616.82,-596.56 579,-617 572.76,-620.37 566,-623.31 559.12,-625.87"/>
<polygon fill="#63b8ff" stroke="#63b8ff" points="679.17,-541.2 683.56,-531.56 674.12,-536.36 679.17,-541.2"/>
</a>
</g>
</g>
<!-- Node6 -->
<g id="Node000006" class="node">
<title>Node6</title>
<g id="a_Node000006"><a xlink:href="test__component__multimesh__from__tag_8cpp.html#a2231774bf0d53fb5f6c1b34753afb255" target="_top" xlink:title=" ">
<polygon fill="white" stroke="#666666" points="530,-607.5 459,-607.5 459,-588.5 530,-588.5 530,-607.5"/>
<text text-anchor="middle" x="494.5" y="-595.5" font-family="Helvetica,sans-Serif" font-size="10.00">TEST_CASE</text>
</a>
</g>
</g>
<!-- Node2&#45;&gt;Node6 -->
<g id="edge5_Node000002_Node000006" class="edge">
<title>Node2&#45;&gt;Node6</title>
<g id="a_edge5_Node000002_Node000006"><a xlink:title=" ">
<path fill="none" stroke="#63b8ff" d="M662.8,-536.99C639.34,-551.5 608.44,-568.86 579,-580 563.47,-585.88 545.54,-590.06 530.29,-592.9"/>
<polygon fill="#63b8ff" stroke="#63b8ff" points="664.8,-539.86 671.41,-531.58 661.08,-533.93 664.8,-539.86"/>
</a>
</g>
</g>
<!-- Node7 -->
<g id="Node000007" class="node">
<title>Node7</title>
<g id="a_Node000007"><a xlink:href="test__component__multimesh__from__tag_8cpp.html#a9a31cb828b93e2ddcf0a5063d4d1c9e6" target="_top" xlink:title=" ">
<polygon fill="white" stroke="#666666" points="530,-570.5 459,-570.5 459,-551.5 530,-551.5 530,-570.5"/>
<text text-anchor="middle" x="494.5" y="-558.5" font-family="Helvetica,sans-Serif" font-size="10.00">TEST_CASE</text>
</a>
</g>
</g>
<!-- Node2&#45;&gt;Node7 -->
<g id="edge6_Node000002_Node000007" class="edge">
<title>Node2&#45;&gt;Node7</title>
<g id="a_edge6_Node000002_Node000007"><a xlink:title=" ">
<path fill="none" stroke="#63b8ff" d="M615.32,-534.04C603.15,-537.13 590.77,-540.2 579,-543 562.99,-546.81 545.16,-550.7 530.11,-553.88"/>
<polygon fill="#63b8ff" stroke="#63b8ff" points="616.21,-537.43 625.03,-531.56 614.47,-530.64 616.21,-537.43"/>
</a>
</g>
</g>
<!-- Node8 -->
<g id="Node000008" class="node">
<title>Node8</title>
<g id="a_Node000008"><a xlink:href="test__component__multimesh__from__tag_8cpp.html#a7a8f66a094907f369fa10876691f42f9" target="_top" xlink:title=" ">
<polygon fill="white" stroke="#666666" points="530,-533.5 459,-533.5 459,-514.5 530,-514.5 530,-533.5"/>
<text text-anchor="middle" x="494.5" y="-521.5" font-family="Helvetica,sans-Serif" font-size="10.00">TEST_CASE</text>
</a>
</g>
</g>
<!-- Node2&#45;&gt;Node8 -->
<g id="edge7_Node000002_Node000008" class="edge">
<title>Node2&#45;&gt;Node8</title>
<g id="a_edge7_Node000002_Node000008"><a xlink:title=" ">
<path fill="none" stroke="#63b8ff" d="M610.92,-516.73C582.3,-518.54 552.41,-520.42 530.22,-521.81"/>
<polygon fill="#63b8ff" stroke="#63b8ff" points="611.22,-520.22 620.98,-516.1 610.78,-513.24 611.22,-520.22"/>
</a>
</g>
</g>
<!-- Node9 -->
<g id="Node000009" class="node">
<title>Node9</title>
<g id="a_Node000009"><a xlink:href="test__component__multimesh__from__tag_8cpp.html#af55ce8249624ce4d6a3feaad760949a6" target="_top" xlink:title=" ">
<polygon fill="white" stroke="#666666" points="530,-496.5 459,-496.5 459,-477.5 530,-477.5 530,-496.5"/>
<text text-anchor="middle" x="494.5" y="-484.5" font-family="Helvetica,sans-Serif" font-size="10.00">TEST_CASE</text>
</a>
</g>
</g>
<!-- Node2&#45;&gt;Node9 -->
<g id="edge8_Node000002_Node000009" class="edge">
<title>Node2&#45;&gt;Node9</title>
<g id="a_edge8_Node000002_Node000009"><a xlink:title=" ">
<path fill="none" stroke="#63b8ff" d="M610.92,-500.41C582.3,-497.09 552.41,-493.61 530.22,-491.04"/>
<polygon fill="#63b8ff" stroke="#63b8ff" points="610.64,-503.91 620.98,-501.58 611.45,-496.95 610.64,-503.91"/>
</a>
</g>
</g>
<!-- Node10 -->
<g id="Node000010" class="node">
<title>Node10</title>
<g id="a_Node000010"><a xlink:href="test__component__multimesh__from__tag_8cpp.html#a18cd3d411cfadc472201c20662d62869" target="_top" xlink:title=" ">
<polygon fill="white" stroke="#666666" points="530,-459.5 459,-459.5 459,-440.5 530,-440.5 530,-459.5"/>
<text text-anchor="middle" x="494.5" y="-447.5" font-family="Helvetica,sans-Serif" font-size="10.00">TEST_CASE</text>
</a>
</g>
</g>
<!-- Node2&#45;&gt;Node10 -->
<g id="edge9_Node000002_Node000010" class="edge">
<title>Node2&#45;&gt;Node10</title>
<g id="a_edge9_Node000002_Node000010"><a xlink:title=" ">
<path fill="none" stroke="#63b8ff" d="M636.29,-487.14C617.88,-480.84 597.76,-474.32 579,-469 563.12,-464.5 545.32,-460.33 530.24,-457.05"/>
<polygon fill="#63b8ff" stroke="#63b8ff" points="635.16,-490.45 645.75,-490.4 637.44,-483.83 635.16,-490.45"/>
</a>
</g>
</g>
<!-- Node11 -->
<g id="Node000011" class="node">
<title>Node11</title>
<g id="a_Node000011"><a xlink:href="test__component__multimesh__from__tag_8cpp.html#a4caad3dd8a6355f2ca66fdb0b0af7999" target="_top" xlink:title=" ">
<polygon fill="white" stroke="#666666" points="530,-422.5 459,-422.5 459,-403.5 530,-403.5 530,-422.5"/>
<text text-anchor="middle" x="494.5" y="-410.5" font-family="Helvetica,sans-Serif" font-size="10.00">TEST_CASE</text>
</a>
</g>
</g>
<!-- Node2&#45;&gt;Node11 -->
<g id="edge10_Node000002_Node000011" class="edge">
<title>Node2&#45;&gt;Node11</title>
<g id="a_edge10_Node000002_Node000011"><a xlink:title=" ">
<path fill="none" stroke="#63b8ff" d="M667.38,-484.1C643.68,-466.9 610.89,-445.38 579,-432 563.51,-425.5 545.42,-421.04 530.05,-418.08"/>
<polygon fill="#63b8ff" stroke="#63b8ff" points="665.55,-487.11 675.68,-490.22 669.7,-481.47 665.55,-487.11"/>
</a>
</g>
</g>
<!-- Node4 -->
<g id="Node000004" class="node">
<title>Node4</title>
<g id="a_Node000004"><a xlink:href="test__component__multimesh__from__tag_8cpp.html#a2b0208caf4b963a36a43604c3e7cf34a" target="_top" xlink:title=" ">
<polygon fill="white" stroke="#666666" points="325,-698.5 254,-698.5 254,-679.5 325,-679.5 325,-698.5"/>
<text text-anchor="middle" x="289.5" y="-686.5" font-family="Helvetica,sans-Serif" font-size="10.00">TEST_CASE</text>
</a>
</g>
</g>
<!-- Node3&#45;&gt;Node4 -->
<g id="edge3_Node000003_Node000004" class="edge">
<title>Node3&#45;&gt;Node4</title>
<g id="a_edge3_Node000003_Node000004"><a xlink:title=" ">
<path fill="none" stroke="#63b8ff" d="M399.64,-689C373.09,-689 345.85,-689 325.22,-689"/>
<polygon fill="#63b8ff" stroke="#63b8ff" points="399.76,-692.5 409.76,-689 399.76,-685.5 399.76,-692.5"/>
</a>
</g>
</g>
<!-- Node12&#45;&gt;Node2 -->
<g id="edge12_Node000012_Node000002" class="edge">
<title>Node12&#45;&gt;Node2</title>
<g id="a_edge12_Node000012_Node000002"><a xlink:title=" ">
<path fill="none" stroke="#63b8ff" d="M854.71,-446.51C822.48,-460.3 782.7,-477.33 752.1,-490.42"/>
<polygon fill="#63b8ff" stroke="#63b8ff" points="856.2,-449.68 864.02,-442.53 853.45,-443.25 856.2,-449.68"/>
</a>
</g>
</g>
<!-- Node14 -->
<g id="Node000014" class="node">
<title>Node14</title>
<g id="a_Node000014"><a xlink:href="namespacewmtk_1_1multimesh_1_1utils.html#a815f038116a0c0b3c7492029dcd1959f" target="_top" xlink:title="extract a child mesh based on the tag handle and the tag value, and register it to the input (parent)...">
<polygon fill="white" stroke="#666666" points="768,-381.5 638,-381.5 638,-340.5 768,-340.5 768,-381.5"/>
<text text-anchor="start" x="646" y="-369.5" font-family="Helvetica,sans-Serif" font-size="10.00">wmtk::multimesh::utils</text>
<text text-anchor="start" x="646" y="-358.5" font-family="Helvetica,sans-Serif" font-size="10.00">::extract_and_register</text>
<text text-anchor="middle" x="703" y="-347.5" font-family="Helvetica,sans-Serif" font-size="10.00">_child_mesh_from_tag</text>
</a>
</g>
</g>
<!-- Node13&#45;&gt;Node14 -->
<g id="edge14_Node000013_Node000014" class="edge">
<title>Node13&#45;&gt;Node14</title>
<g id="a_edge14_Node000013_Node000014"><a xlink:title=" ">
<path fill="none" stroke="#63b8ff" d="M830.14,-326.43C809.51,-332.09 787.66,-338.07 768.05,-343.45"/>
<polygon fill="#63b8ff" stroke="#63b8ff" points="831.12,-329.79 839.84,-323.78 829.27,-323.04 831.12,-329.79"/>
</a>
</g>
</g>
<!-- Node15 -->
<g id="Node000015" class="node">
<title>Node15</title>
<g id="a_Node000015"><a xlink:href="namespacewmtk_1_1multimesh_1_1utils.html#ab1bbd0cb41b6ab9f8075b3f7788aaf4b" target="_top" xlink:title="extract a child mesh based on the tag handle and the tag value, and register it to the input (parent)...">
<polygon fill="white" stroke="#666666" points="785.5,-322.5 620.5,-322.5 620.5,-281.5 785.5,-281.5 785.5,-322.5"/>
<text text-anchor="start" x="628.5" y="-310.5" font-family="Helvetica,sans-Serif" font-size="10.00">wmtk::multimesh::utils</text>
<text text-anchor="start" x="628.5" y="-299.5" font-family="Helvetica,sans-Serif" font-size="10.00">::extract_and_register</text>
<text text-anchor="middle" x="703" y="-288.5" font-family="Helvetica,sans-Serif" font-size="10.00">_child_mesh_from_tag_handle</text>
</a>
</g>
</g>
<!-- Node13&#45;&gt;Node15 -->
<g id="edge15_Node000013_Node000015" class="edge">
<title>Node13&#45;&gt;Node15</title>
<g id="a_edge15_Node000013_Node000015"><a xlink:title=" ">
<path fill="none" stroke="#63b8ff" d="M829.46,-303.21C815.04,-303.07 800.05,-302.92 785.66,-302.79"/>
<polygon fill="#63b8ff" stroke="#63b8ff" points="829.8,-306.71 839.84,-303.31 829.87,-299.71 829.8,-306.71"/>
</a>
</g>
</g>
<!-- Node16 -->
<g id="Node000016" class="node">
<title>Node16</title>
<g id="a_Node000016"><a xlink:href="namespacewmtk_1_1multimesh_1_1utils.html#adfbb74b2e6a2c7a053a9124137f85465" target="_top" xlink:title="extract a child mesh based on the given tag and tag value, and register it to the input (parent) mesh">
<polygon fill="white" stroke="#666666" points="559.5,-385.5 429.5,-385.5 429.5,-344.5 559.5,-344.5 559.5,-385.5"/>
<text text-anchor="start" x="437.5" y="-373.5" font-family="Helvetica,sans-Serif" font-size="10.00">wmtk::multimesh::utils</text>
<text text-anchor="start" x="437.5" y="-362.5" font-family="Helvetica,sans-Serif" font-size="10.00">::extract_and_register</text>
<text text-anchor="middle" x="494.5" y="-351.5" font-family="Helvetica,sans-Serif" font-size="10.00">_child_mesh_from_tag</text>
</a>
</g>
</g>
<!-- Node15&#45;&gt;Node16 -->
<g id="edge16_Node000015_Node000016" class="edge">
<title>Node15&#45;&gt;Node16</title>
<g id="a_edge16_Node000015_Node000016"><a xlink:title=" ">
<path fill="none" stroke="#63b8ff" d="M624.91,-325.52C603.4,-332.08 580.26,-339.14 559.58,-345.45"/>
<polygon fill="#63b8ff" stroke="#63b8ff" points="626.13,-328.81 634.67,-322.54 624.08,-322.11 626.13,-328.81"/>
</a>
</g>
</g>
<!-- Node21 -->
<g id="Node000021" class="node">
<title>Node21</title>
<g id="a_Node000021"><a xlink:href="namespacewmtk_1_1components_1_1triangle__insertion.html#a23509bfe845d018ac65e2759fb77c608" target="_top" xlink:title=" ">
<polygon fill="white" stroke="#666666" points="572.5,-308 416.5,-308 416.5,-278 572.5,-278 572.5,-308"/>
<text text-anchor="start" x="424.5" y="-296" font-family="Helvetica,sans-Serif" font-size="10.00">wmtk::components::triangle</text>
<text text-anchor="middle" x="494.5" y="-285" font-family="Helvetica,sans-Serif" font-size="10.00">_insertion::triangle_insertion</text>
</a>
</g>
</g>
<!-- Node15&#45;&gt;Node21 -->
<g id="edge22_Node000015_Node000021" class="edge">
<title>Node15&#45;&gt;Node21</title>
<g id="a_edge22_Node000015_Node000021"><a xlink:title=" ">
<path fill="none" stroke="#63b8ff" d="M610.39,-298.01C597.85,-297.46 585.07,-296.9 572.82,-296.37"/>
<polygon fill="#63b8ff" stroke="#63b8ff" points="610.24,-301.5 620.39,-298.44 610.55,-294.51 610.24,-301.5"/>
</a>
</g>
</g>
<!-- Node16&#45;&gt;Node17 -->
<g id="edge17_Node000016_Node000017" class="edge">
<title>Node16&#45;&gt;Node17</title>
<g id="a_edge17_Node000016_Node000017"><a xlink:title=" ">
<path fill="none" stroke="#63b8ff" d="M420.88,-340.3C417.15,-338.6 413.51,-336.83 410,-335 371.42,-314.83 331.06,-283.68 308.51,-265.22"/>
<polygon fill="#63b8ff" stroke="#63b8ff" points="419.67,-343.59 430.24,-344.37 422.46,-337.17 419.67,-343.59"/>
</a>
</g>
</g>
<!-- Node19 -->
<g id="Node000019" class="node">
<title>Node19</title>
<g id="a_Node000019"><a xlink:href="test__component__isotropic__remeshing_8cpp.html#aae475685ae29b731655dd43137a950d6" target="_top" xlink:title=" ">
<polygon fill="white" stroke="#666666" points="325,-392.5 254,-392.5 254,-373.5 325,-373.5 325,-392.5"/>
<text text-anchor="middle" x="289.5" y="-380.5" font-family="Helvetica,sans-Serif" font-size="10.00">TEST_CASE</text>
</a>
</g>
</g>
<!-- Node16&#45;&gt;Node19 -->
<g id="edge20_Node000016_Node000019" class="edge">
<title>Node16&#45;&gt;Node19</title>
<g id="a_edge20_Node000016_Node000019"><a xlink:title=" ">
<path fill="none" stroke="#63b8ff" d="M418.99,-371.61C386.85,-374.46 350.82,-377.65 325.11,-379.93"/>
<polygon fill="#63b8ff" stroke="#63b8ff" points="419.62,-375.06 429.27,-370.7 419,-368.09 419.62,-375.06"/>
</a>
</g>
</g>
<!-- Node20 -->
<g id="Node000020" class="node">
<title>Node20</title>
<g id="a_Node000020"><a xlink:href="test__component__isotropic__remeshing_8cpp.html#ab3fcea88943daf212aeeda03eb0baa8b" target="_top" xlink:title=" ">
<polygon fill="white" stroke="#666666" points="325,-355.5 254,-355.5 254,-336.5 325,-336.5 325,-355.5"/>
<text text-anchor="middle" x="289.5" y="-343.5" font-family="Helvetica,sans-Serif" font-size="10.00">TEST_CASE</text>
</a>
</g>
</g>
<!-- Node16&#45;&gt;Node20 -->
<g id="edge21_Node000016_Node000020" class="edge">
<title>Node16&#45;&gt;Node20</title>
<g id="a_edge21_Node000016_Node000020"><a xlink:title=" ">
<path fill="none" stroke="#63b8ff" d="M418.99,-358.03C386.85,-355.02 350.82,-351.65 325.11,-349.24"/>
<polygon fill="#63b8ff" stroke="#63b8ff" points="418.99,-361.54 429.27,-358.99 419.64,-354.57 418.99,-361.54"/>
</a>
</g>
</g>
<!-- Node17&#45;&gt;Node17 -->
<g id="edge18_Node000017_Node000017" class="edge">
<title>Node17&#45;&gt;Node17</title>
<g id="a_edge18_Node000017_Node000017"><a xlink:title=" ">
<path fill="none" stroke="#63b8ff" d="M325.21,-275.6C320.33,-279.97 308.43,-283 289.5,-283 257.62,-283 245.67,-274.41 253.64,-265.28"/>
<polygon fill="#63b8ff" stroke="#63b8ff" points="328.71,-275.33 325.36,-265.28 321.71,-275.22 328.71,-275.33"/>
</a>
</g>
</g>
<!-- Node18 -->
<g id="Node000018" class="node">
<title>Node18</title>
<g id="a_Node000018"><a xlink:href="namespacewmtk_1_1components_1_1multimesh.html#ac618c9d842c85017ac5f1b846a6e9c0a" target="_top" xlink:title=" ">
<polygon fill="white" stroke="#666666" points="169,-265 0,-265 0,-235 169,-235 169,-265"/>
<text text-anchor="start" x="8" y="-253" font-family="Helvetica,sans-Serif" font-size="10.00">wmtk::components::multimesh</text>
<text text-anchor="middle" x="84.5" y="-242" font-family="Helvetica,sans-Serif" font-size="10.00">::multimesh</text>
</a>
</g>
</g>
<!-- Node17&#45;&gt;Node18 -->
<g id="edge19_Node000017_Node000018" class="edge">
<title>Node17&#45;&gt;Node18</title>
<g id="a_edge19_Node000017_Node000018"><a xlink:title=" ">
<path fill="none" stroke="#63b8ff" d="M194.74,-250C186.17,-250 177.52,-250 169.05,-250"/>
<polygon fill="#63b8ff" stroke="#63b8ff" points="194.76,-253.5 204.76,-250 194.76,-246.5 194.76,-253.5"/>
</a>
</g>
</g>
<!-- Node21&#45;&gt;Node21 -->
<g id="edge23_Node000021_Node000021" class="edge">
<title>Node21&#45;&gt;Node21</title>
<g id="a_edge23_Node000021_Node000021"><a xlink:title=" ">
<path fill="none" stroke="#63b8ff" d="M530.21,-318.6C525.33,-322.97 513.43,-326 494.5,-326 462.62,-326 450.67,-317.41 458.64,-308.28"/>
<polygon fill="#63b8ff" stroke="#63b8ff" points="533.71,-318.33 530.36,-308.28 526.71,-318.22 533.71,-318.33"/>
</a>
</g>
</g>
<!-- Node22&#45;&gt;Node17 -->
<g id="edge25_Node000022_Node000017" class="edge">
<title>Node22&#45;&gt;Node17</title>
<g id="a_edge25_Node000022_Node000017"><a xlink:title=" ">
<path fill="none" stroke="#63b8ff" d="M818.23,-210.76C717.3,-215.2 552.09,-223.58 410,-236 398.35,-237.02 386.07,-238.26 374.01,-239.58"/>
<polygon fill="#63b8ff" stroke="#63b8ff" points="818.56,-214.25 828.4,-210.32 818.25,-207.26 818.56,-214.25"/>
</a>
</g>
</g>
<!-- Node23 -->
<g id="Node000023" class="node">
<title>Node23</title>
<g id="a_Node000023"><a xlink:href="structwmtk_1_1components_1_1multimesh_1_1_multimesh_bijection_options.html#adb16fc1892875c0093efcffdeb66e6b8" target="_top" xlink:title=" ">
<polygon fill="white" stroke="#666666" points="791,-184 615,-184 615,-154 791,-154 791,-184"/>
<text text-anchor="start" x="623" y="-172" font-family="Helvetica,sans-Serif" font-size="10.00">wmtk::components::multimesh</text>
<text text-anchor="middle" x="703" y="-161" font-family="Helvetica,sans-Serif" font-size="10.00">::MultimeshBijectionOptions::run</text>
</a>
</g>
</g>
<!-- Node22&#45;&gt;Node23 -->
<g id="edge26_Node000022_Node000023" class="edge">
<title>Node22&#45;&gt;Node23</title>
<g id="a_edge26_Node000022_Node000023"><a xlink:title=" ">
<path fill="none" stroke="#63b8ff" d="M819.65,-190.13C808.54,-188.1 797.25,-186.04 786.29,-184.03"/>
<polygon fill="#63b8ff" stroke="#63b8ff" points="819.33,-193.63 829.79,-191.98 820.58,-186.74 819.33,-193.63"/>
</a>
</g>
</g>
<!-- Node24 -->
<g id="Node000024" class="node">
<title>Node24</title>
<g id="a_Node000024"><a xlink:href="namespacewmtk_1_1components_1_1multimesh.html#a908a13d0c538f9bd57220261b8f4cb67" target="_top" xlink:title=" ">
<polygon fill="white" stroke="#666666" points="787.5,-136 618.5,-136 618.5,-106 787.5,-106 787.5,-136"/>
<text text-anchor="start" x="626.5" y="-124" font-family="Helvetica,sans-Serif" font-size="10.00">wmtk::components::multimesh</text>
<text text-anchor="middle" x="703" y="-113" font-family="Helvetica,sans-Serif" font-size="10.00">::vertex_fusion</text>
</a>
</g>
</g>
<!-- Node22&#45;&gt;Node24 -->
<g id="edge27_Node000022_Node000024" class="edge">
<title>Node22&#45;&gt;Node24</title>
<g id="a_edge27_Node000022_Node000024"><a xlink:title=" ">
<path fill="none" stroke="#63b8ff" d="M835.8,-187.77C832.77,-186.29 829.82,-184.71 827,-183 807.09,-170.96 810.94,-156.98 791,-145 785.36,-141.61 779.23,-138.69 772.92,-136.17"/>
<polygon fill="#63b8ff" stroke="#63b8ff" points="834.55,-191.05 845.11,-191.89 837.38,-184.64 834.55,-191.05"/>
</a>
</g>
</g>
<!-- Node27 -->
<g id="Node000027" class="node">
<title>Node27</title>
<g id="a_Node000027"><a xlink:href="tests_2from__manifold__decomposition_8cpp.html#afe20a722c6b227e960f023d0b684a7d4" target="_top" xlink:title=" ">
<polygon fill="white" stroke="#666666" points="738.5,-87.5 667.5,-87.5 667.5,-68.5 738.5,-68.5 738.5,-87.5"/>
<text text-anchor="middle" x="703" y="-75.5" font-family="Helvetica,sans-Serif" font-size="10.00">TEST_CASE</text>
</a>
</g>
</g>
<!-- Node26&#45;&gt;Node27 -->
<g id="edge30_Node000026_Node000027" class="edge">
<title>Node26&#45;&gt;Node27</title>
<g id="a_edge30_Node000026_Node000027"><a xlink:title=" ">
<path fill="none" stroke="#63b8ff" d="M816.61,-95.87C788.81,-91.45 760.18,-86.91 738.74,-83.51"/>
<polygon fill="#63b8ff" stroke="#63b8ff" points="816.37,-99.37 826.8,-97.48 817.47,-92.46 816.37,-99.37"/>
</a>
</g>
</g>
<!-- Node29 -->
<g id="Node000029" class="node">
<title>Node29</title>
<g id="a_Node000029"><a xlink:href="tests_2vertex__fusion_8cpp.html#a2d116ba419d7a7a055b50607c9f7bea8" target="_top" xlink:title=" ">
<polygon fill="white" stroke="#666666" points="738.5,-50.5 667.5,-50.5 667.5,-31.5 738.5,-31.5 738.5,-50.5"/>
<text text-anchor="middle" x="703" y="-38.5" font-family="Helvetica,sans-Serif" font-size="10.00">TEST_CASE</text>
</a>
</g>
</g>
<!-- Node28&#45;&gt;Node29 -->
<g id="edge32_Node000028_Node000029" class="edge">
<title>Node28&#45;&gt;Node29</title>
<g id="a_edge32_Node000028_Node000029"><a xlink:title=" ">
<path fill="none" stroke="#63b8ff" d="M818.33,-53.09C790,-50.1 760.63,-46.99 738.76,-44.68"/>
<polygon fill="#63b8ff" stroke="#63b8ff" points="817.98,-56.58 828.3,-54.15 818.72,-49.61 817.98,-56.58"/>
</a>
</g>
</g>
</g>
</svg>

<g id="navigator" transform="translate(0 0)" fill="#404254">
  <rect fill="#f2f5e9" fill-opacity="0.5" stroke="#606060" stroke-width=".5" x="0" y="0" width="60" height="60"/>
  <use id="zoomplus" xlink:href="#zoomPlus" x="17" y="9" onmousedown="handleZoom(evt,'in')"/>
  <use id="zoomminus" xlink:href="#zoomMin" x="42" y="9" onmousedown="handleZoom(evt,'out')"/>
  <use id="reset" xlink:href="#resetDef" x="30" y="36" onmousedown="handleReset()"/>
   <use id="arrowup" xlink:href="#arrowUp" x="0" y="0" onmousedown="handlePan(0,-1)"/>
  <use id="arrowright" xlink:href="#arrowRight" x="0" y="0" onmousedown="handlePan(1,0)"/>
  <use id="arrowdown" xlink:href="#arrowDown" x="0" y="0" onmousedown="handlePan(0,1)"/>
  <use id="arrowleft" xlink:href="#arrowLeft" x="0" y="0" onmousedown="handlePan(-1,0)"/>
</g>
<svg viewBox="0 0 15 15" width="100%" height="30px" preserveAspectRatio="xMaxYMin meet">
 <g id="arrow_out" transform="scale(0.3 0.3)">
  <a xlink:href="classwmtk_1_1_mesh_a8b92d89ea4f3d41af5fea130727b137c_icgraph_org.svg" target="_base">
   <rect id="button" ry="5" rx="5" y="6" x="6" height="38" width="38"
        fill="#f2f5e9" fill-opacity="0.5" stroke="#606060" stroke-width="1.0"/>
   <path id="arrow"
     d="M 11.500037,31.436501 C 11.940474,20.09759 22.043105,11.32322 32.158766,21.979434 L 37.068811,17.246167 C 37.068811,17.246167 37.088388,32 37.088388,32 L 22.160133,31.978069 C 22.160133,31.978069 26.997745,27.140456 26.997745,27.140456 C 18.528582,18.264221 13.291696,25.230495 11.500037,31.436501 z"
     style="fill:#404040;"/>
  </a>
 </g>
</svg>

<style type='text/css'>
<![CDATA[
[data-mouse-over-selected='false'] { opacity: 0.7; }
[data-mouse-over-selected='true']  { opacity: 1.0; }
]]>
</style>
<script type="application/ecmascript"><![CDATA[
document.addEventListener('DOMContentLoaded', (event) => {
  highlightEdges();
  highlightAdjacentNodes();
});
]]></script>
</svg>
