<?xml version="1.0" encoding="UTF-8" standalone="no"?>
<!DOCTYPE svg PUBLIC "-//W3C//DTD SVG 1.1//EN"
 "http://www.w3.org/Graphics/SVG/1.1/DTD/svg11.dtd">
<!-- Generated by graphviz version 2.43.0 (0)
 -->
<!-- Title: wmtk::TetMesh::initialize_free Pages: 1 -->
<!--zoomable 295 -->

<svg id="main" version="1.1" xmlns="http://www.w3.org/2000/svg" xmlns:xlink="http://www.w3.org/1999/xlink" xml:space="preserve" onload="init(evt)">
<style type="text/css"><![CDATA[
.node, .edge {opacity: 0.7;}
.node.selected, .edge.selected {opacity: 1;}
.edge:hover path { stroke: red; }
.edge:hover polygon { stroke: red; fill: red; }
]]></style>

<defs>
  <circle id="rim" cx="0" cy="0" r="7"/>
  <circle id="rim2" cx="0" cy="0" r="3.5"/>
  <g id="zoomPlus">
    <use xlink:href="#rim" fill="#404040"><set attributeName="fill" to="#808080" begin="zoomplus.mouseover" end="zoomplus.mouseout"/></use>
    <path d="M-4,0h8M0,-4v8" fill="none" stroke="white" stroke-width="1.5" pointer-events="none"/>
  </g>
  <g id="zoomMin">
    <use xlink:href="#rim" fill="#404040"><set attributeName="fill" to="#808080" begin="zoomminus.mouseover" end="zoomminus.mouseout"/></use>
    <path d="M-4,0h8" fill="none" stroke="white" stroke-width="1.5" pointer-events="none"/>
  </g>
  <g id="arrowUp" transform="translate(30 24)">
    <use xlink:href="#rim"/>
    <path pointer-events="none" fill="none" stroke="white" stroke-width="1.5" d="M0,-3.0v7 M-2.5,-0.5L0,-3.0L2.5,-0.5"/>
  </g>
  <g id="arrowRight" transform="rotate(90) translate(36 -43)">
    <use xlink:href="#rim"/>
    <path pointer-events="none" fill="none" stroke="white" stroke-width="1.5" d="M0,-3.0v7 M-2.5,-0.5L0,-3.0L2.5,-0.5"/>
  </g>
  <g id="arrowDown" transform="rotate(180) translate(-30 -48)">
    <use xlink:href="#rim"/>
    <path pointer-events="none" fill="none" stroke="white" stroke-width="1.5" d="M0,-3.0v7 M-2.5,-0.5L0,-3.0L2.5,-0.5"/>
  </g>
  <g id="arrowLeft" transform="rotate(270) translate(-36 17)">
    <use xlink:href="#rim"/>
    <path pointer-events="none" fill="none" stroke="white" stroke-width="1.5" d="M0,-3.0v7 M-2.5,-0.5L0,-3.0L2.5,-0.5"/>
  </g>
  <g id="resetDef">
    <use xlink:href="#rim2" fill="#404040"><set attributeName="fill" to="#808080" begin="reset.mouseover" end="reset.mouseout"/></use>
  </g>
</defs>
<script type="application/ecmascript">
var viewWidth = 1140;
var viewHeight = 295;
var sectionId = 'dynsection-21';
</script>
<script type="application/ecmascript" xlink:href="svg.min.js"/>
<svg id="graph" class="graph">
<g id="viewport">
<title>wmtk::TetMesh::initialize_free</title>
<!-- Node1 -->
<g id="Node000001" class="node">
<title>Node1</title>
<g id="a_Node000001"><a xlink:title=" ">
<polygon fill="#999999" stroke="#666666" points="164,-123 0,-123 0,-104 164,-104 164,-123"/>
<text text-anchor="middle" x="82" y="-111" font-family="Helvetica,sans-Serif" font-size="10.00">wmtk::TetMesh::initialize_free</text>
</a>
</g>
</g>
<!-- Node2 -->
<g id="Node000002" class="node">
<title>Node2</title>
<g id="a_Node000002"><a xlink:href="classwmtk_1_1_tet_mesh.html#ab8b4b3182fb3778fa8da52ea4fa156b6" target="_top" xlink:title=" ">
<polygon fill="white" stroke="#666666" points="339,-123 200,-123 200,-104 339,-104 339,-123"/>
<text text-anchor="middle" x="269.5" y="-111" font-family="Helvetica,sans-Serif" font-size="10.00">wmtk::TetMesh::initialize</text>
</a>
</g>
</g>
<!-- Node1&#45;&gt;Node2 -->
<g id="edge1_Node000001_Node000002" class="edge">
<title>Node1&#45;&gt;Node2</title>
<g id="a_edge1_Node000001_Node000002"><a xlink:title=" ">
<path fill="none" stroke="#63b8ff" d="M164.09,-113.5C172.55,-113.5 181.14,-113.5 189.57,-113.5"/>
<polygon fill="#63b8ff" stroke="#63b8ff" points="189.76,-117 199.76,-113.5 189.76,-110 189.76,-117"/>
</a>
</g>
</g>
<!-- Node3 -->
<g id="Node000003" class="node">
<title>Node3</title>
<g id="a_Node000003"><a xlink:href="classwmtk_1_1attribute_1_1_index_flag_accessor.html#a95874b259daee031cd8bb3635ada83d5" target="_top" xlink:title=" ">
<polygon fill="white" stroke="#666666" points="529.5,-238.5 383.5,-238.5 383.5,-208.5 529.5,-208.5 529.5,-238.5"/>
<text text-anchor="start" x="391.5" y="-226.5" font-family="Helvetica,sans-Serif" font-size="10.00">wmtk::attribute::IndexFlag</text>
<text text-anchor="middle" x="456.5" y="-215.5" font-family="Helvetica,sans-Serif" font-size="10.00">Accessor::activate</text>
</a>
</g>
</g>
<!-- Node2&#45;&gt;Node3 -->
<g id="edge2_Node000002_Node000003" class="edge">
<title>Node2&#45;&gt;Node3</title>
<g id="a_edge2_Node000002_Node000003"><a xlink:title=" ">
<path fill="none" stroke="#63b8ff" d="M280.7,-123.21C298.55,-139.77 337.18,-173.71 375,-194.5 381.77,-198.22 389.12,-201.63 396.52,-204.7"/>
<polygon fill="#63b8ff" stroke="#63b8ff" points="395.31,-207.98 405.9,-208.4 397.88,-201.47 395.31,-207.98"/>
</a>
</g>
</g>
<!-- Node8 -->
<g id="Node000008" class="node">
<title>Node8</title>
<g id="a_Node000008"><a xlink:href="classwmtk_1_1_mesh.html#a3e8ff83c4a5526a40d18bb9883c6c6c9" target="_top" xlink:title="read in the m_capacities return the upper bound for the number of entities of the given dimension">
<polygon fill="white" stroke="#666666" points="709,-190 585,-190 585,-171 709,-171 709,-190"/>
<text text-anchor="middle" x="647" y="-178" font-family="Helvetica,sans-Serif" font-size="10.00">wmtk::Mesh::capacity</text>
</a>
</g>
</g>
<!-- Node2&#45;&gt;Node8 -->
<g id="edge7_Node000002_Node000008" class="edge">
<title>Node2&#45;&gt;Node8</title>
<g id="a_edge7_Node000002_Node000008"><a xlink:title=" ">
<path fill="none" stroke="#63b8ff" d="M286.47,-123.06C306.41,-134.47 341.92,-153.04 375,-161.5 441.25,-178.44 519.37,-182.28 574.68,-182.43"/>
<polygon fill="#63b8ff" stroke="#63b8ff" points="574.74,-185.94 584.73,-182.42 574.73,-178.94 574.74,-185.94"/>
</a>
</g>
</g>
<!-- Node10 -->
<g id="Node000010" class="node">
<title>Node10</title>
<g id="a_Node000010"><a xlink:href="classwmtk_1_1_mesh.html#ae3493915b766f0f34f0a9e89603d5773" target="_top" xlink:title=" ">
<polygon fill="white" stroke="#666666" points="517.5,-152.5 395.5,-152.5 395.5,-122.5 517.5,-122.5 517.5,-152.5"/>
<text text-anchor="start" x="403.5" y="-140.5" font-family="Helvetica,sans-Serif" font-size="10.00">wmtk::Mesh::get_flag</text>
<text text-anchor="middle" x="456.5" y="-129.5" font-family="Helvetica,sans-Serif" font-size="10.00">_accessor</text>
</a>
</g>
</g>
<!-- Node2&#45;&gt;Node10 -->
<g id="edge9_Node000002_Node000010" class="edge">
<title>Node2&#45;&gt;Node10</title>
<g id="a_edge9_Node000002_Node000010"><a xlink:title=" ">
<path fill="none" stroke="#63b8ff" d="M339.12,-122.4C354.08,-124.34 369.93,-126.4 384.96,-128.35"/>
<polygon fill="#63b8ff" stroke="#63b8ff" points="384.84,-131.86 395.21,-129.68 385.74,-124.92 384.84,-131.86"/>
</a>
</g>
</g>
<!-- Node13 -->
<g id="Node000013" class="node">
<title>Node13</title>
<g id="a_Node000013"><a xlink:href="classwmtk_1_1attribute_1_1_flag_accessor.html#a4f49a666c3811fee9b841c1cd1f66250" target="_top" xlink:title=" ">
<polygon fill="white" stroke="#666666" points="538,-104.5 375,-104.5 375,-74.5 538,-74.5 538,-104.5"/>
<text text-anchor="start" x="383" y="-92.5" font-family="Helvetica,sans-Serif" font-size="10.00">wmtk::attribute::FlagAccessor</text>
<text text-anchor="middle" x="456.5" y="-81.5" font-family="Helvetica,sans-Serif" font-size="10.00">::index_access</text>
</a>
</g>
</g>
<!-- Node2&#45;&gt;Node13 -->
<g id="edge13_Node000002_Node000013" class="edge">
<title>Node2&#45;&gt;Node13</title>
<g id="a_edge13_Node000002_Node000013"><a xlink:title=" ">
<path fill="none" stroke="#63b8ff" d="M339.12,-104.6C347.48,-103.51 356.11,-102.39 364.72,-101.28"/>
<polygon fill="#63b8ff" stroke="#63b8ff" points="365.33,-104.73 374.8,-99.97 364.43,-97.79 365.33,-104.73"/>
</a>
</g>
</g>
<!-- Node14 -->
<g id="Node000014" class="node">
<title>Node14</title>
<g id="a_Node000014"><a xlink:href="classwmtk_1_1_mesh.html#a05eaf6f3eeb78949f3b95c359cc6df68" target="_top" xlink:title=" ">
<polygon fill="white" stroke="#666666" points="532.5,-56 380.5,-56 380.5,-37 532.5,-37 532.5,-56"/>
<text text-anchor="middle" x="456.5" y="-44" font-family="Helvetica,sans-Serif" font-size="10.00">wmtk::Mesh::set_capacities</text>
</a>
</g>
</g>
<!-- Node2&#45;&gt;Node14 -->
<g id="edge14_Node000002_Node000014" class="edge">
<title>Node2&#45;&gt;Node14</title>
<g id="a_edge14_Node000002_Node000014"><a xlink:title=" ">
<path fill="none" stroke="#63b8ff" d="M288.55,-103.87C309.02,-93.26 343.66,-76.28 375,-65.5 382.45,-62.94 390.4,-60.6 398.3,-58.51"/>
<polygon fill="#63b8ff" stroke="#63b8ff" points="399.39,-61.85 408.23,-56 397.67,-55.06 399.39,-61.85"/>
</a>
</g>
</g>
<!-- Node19 -->
<g id="Node000019" class="node">
<title>Node19</title>
<g id="a_Node000019"><a xlink:href="classwmtk_1_1_tet_mesh.html#afd39672a8a046e96b7cd0d14516ebe79" target="_top" xlink:title=" ">
<polygon fill="white" stroke="#666666" points="534,-19 379,-19 379,0 534,0 534,-19"/>
<text text-anchor="middle" x="456.5" y="-7" font-family="Helvetica,sans-Serif" font-size="10.00">wmtk::TetMesh::tv_accessor</text>
</a>
</g>
</g>
<!-- Node2&#45;&gt;Node19 -->
<g id="edge19_Node000002_Node000019" class="edge">
<title>Node2&#45;&gt;Node19</title>
<g id="a_edge19_Node000002_Node000019"><a xlink:title=" ">
<path fill="none" stroke="#63b8ff" d="M279.23,-103.77C295.95,-85.77 334.46,-47.3 375,-27.5 379.02,-25.54 383.25,-23.79 387.59,-22.22"/>
<polygon fill="#63b8ff" stroke="#63b8ff" points="388.79,-25.52 397.21,-19.1 386.62,-18.86 388.79,-25.52"/>
</a>
</g>
</g>
<!-- Node4 -->
<g id="Node000004" class="node">
<title>Node4</title>
<g id="a_Node000004"><a xlink:href="classwmtk_1_1attribute_1_1_index_flag_accessor.html#af06d8fe6a9f16a0b9ac09e6eae9e797d" target="_top" xlink:title=" ">
<polygon fill="white" stroke="#666666" points="720,-286.5 574,-286.5 574,-256.5 720,-256.5 720,-286.5"/>
<text text-anchor="start" x="582" y="-274.5" font-family="Helvetica,sans-Serif" font-size="10.00">wmtk::attribute::IndexFlag</text>
<text text-anchor="middle" x="647" y="-263.5" font-family="Helvetica,sans-Serif" font-size="10.00">Accessor::_activate</text>
</a>
</g>
</g>
<!-- Node3&#45;&gt;Node4 -->
<g id="edge3_Node000003_Node000004" class="edge">
<title>Node3&#45;&gt;Node4</title>
<g id="a_edge3_Node000003_Node000004"><a xlink:title=" ">
<path fill="none" stroke="#63b8ff" d="M516.63,-238.56C535.84,-243.45 557.32,-248.92 577.18,-253.98"/>
<polygon fill="#63b8ff" stroke="#63b8ff" points="576.53,-257.42 587.08,-256.5 578.26,-250.64 576.53,-257.42"/>
</a>
</g>
</g>
<!-- Node5 -->
<g id="Node000005" class="node">
<title>Node5</title>
<g id="a_Node000005"><a xlink:href="classwmtk_1_1attribute_1_1_index_flag_accessor.html#a209b3c34d677a60d321806e30da8d287" target="_top" xlink:title=" ">
<polygon fill="white" stroke="#666666" points="720,-238.5 574,-238.5 574,-208.5 720,-208.5 720,-238.5"/>
<text text-anchor="start" x="582" y="-226.5" font-family="Helvetica,sans-Serif" font-size="10.00">wmtk::attribute::IndexFlag</text>
<text text-anchor="middle" x="647" y="-215.5" font-family="Helvetica,sans-Serif" font-size="10.00">Accessor::attribute</text>
</a>
</g>
</g>
<!-- Node3&#45;&gt;Node5 -->
<g id="edge4_Node000003_Node000005" class="edge">
<title>Node3&#45;&gt;Node5</title>
<g id="a_edge4_Node000003_Node000005"><a xlink:title=" ">
<path fill="none" stroke="#63b8ff" d="M529.57,-223.5C540.71,-223.5 552.29,-223.5 563.64,-223.5"/>
<polygon fill="#63b8ff" stroke="#63b8ff" points="563.97,-227 573.97,-223.5 563.97,-220 563.97,-227"/>
</a>
</g>
</g>
<!-- Node6 -->
<g id="Node000006" class="node">
<title>Node6</title>
<g id="a_Node000006"><a xlink:href="classwmtk_1_1attribute_1_1_accessor.html#aaeafc36889f90d4e4e9478f998d240d7" target="_top" xlink:title=" ">
<polygon fill="white" stroke="#666666" points="919.5,-286.5 777.5,-286.5 777.5,-256.5 919.5,-256.5 919.5,-286.5"/>
<text text-anchor="start" x="785.5" y="-274.5" font-family="Helvetica,sans-Serif" font-size="10.00">wmtk::attribute::Accessor</text>
<text text-anchor="middle" x="848.5" y="-263.5" font-family="Helvetica,sans-Serif" font-size="10.00">::attribute</text>
</a>
</g>
</g>
<!-- Node5&#45;&gt;Node6 -->
<g id="edge5_Node000005_Node000006" class="edge">
<title>Node5&#45;&gt;Node6</title>
<g id="a_edge5_Node000005_Node000006"><a xlink:title=" ">
<path fill="none" stroke="#63b8ff" d="M710.58,-238.56C731.09,-243.49 754.06,-249.02 775.24,-254.11"/>
<polygon fill="#63b8ff" stroke="#63b8ff" points="774.61,-257.56 785.15,-256.5 776.24,-250.76 774.61,-257.56"/>
</a>
</g>
</g>
<!-- Node7 -->
<g id="Node000007" class="node">
<title>Node7</title>
<g id="a_Node000007"><a xlink:href="classwmtk_1_1attribute_1_1_index_flag_accessor.html#a37e882007dc57e3571c18163a709a246" target="_top" xlink:title=" ">
<polygon fill="white" stroke="#666666" points="921.5,-238.5 775.5,-238.5 775.5,-208.5 921.5,-208.5 921.5,-238.5"/>
<text text-anchor="start" x="783.5" y="-226.5" font-family="Helvetica,sans-Serif" font-size="10.00">wmtk::attribute::IndexFlag</text>
<text text-anchor="middle" x="848.5" y="-215.5" font-family="Helvetica,sans-Serif" font-size="10.00">Accessor::base_accessor</text>
</a>
</g>
</g>
<!-- Node5&#45;&gt;Node7 -->
<g id="edge6_Node000005_Node000007" class="edge">
<title>Node5&#45;&gt;Node7</title>
<g id="a_edge6_Node000005_Node000007"><a xlink:title=" ">
<path fill="none" stroke="#63b8ff" d="M720.02,-223.5C734.62,-223.5 750.08,-223.5 765.01,-223.5"/>
<polygon fill="#63b8ff" stroke="#63b8ff" points="765.25,-227 775.25,-223.5 765.25,-220 765.25,-227"/>
</a>
</g>
</g>
<!-- Node9 -->
<g id="Node000009" class="node">
<title>Node9</title>
<g id="a_Node000009"><a xlink:href="namespacewmtk.html#a5cf45c152e856196bb734c6f48919a24" target="_top" xlink:title="Get a unique integer id corresponding to each primitive type.">
<polygon fill="white" stroke="#666666" points="906.5,-190.5 790.5,-190.5 790.5,-160.5 906.5,-160.5 906.5,-190.5"/>
<text text-anchor="start" x="798.5" y="-178.5" font-family="Helvetica,sans-Serif" font-size="10.00">wmtk::get_primitive</text>
<text text-anchor="middle" x="848.5" y="-167.5" font-family="Helvetica,sans-Serif" font-size="10.00">_type_id</text>
</a>
</g>
</g>
<!-- Node8&#45;&gt;Node9 -->
<g id="edge8_Node000008_Node000009" class="edge">
<title>Node8&#45;&gt;Node9</title>
<g id="a_edge8_Node000008_Node000009"><a xlink:title=" ">
<path fill="none" stroke="#63b8ff" d="M709.21,-178.97C731.76,-178.4 757.41,-177.76 780.45,-177.18"/>
<polygon fill="#63b8ff" stroke="#63b8ff" points="780.58,-180.68 790.49,-176.93 780.4,-173.68 780.58,-180.68"/>
</a>
</g>
</g>
<!-- Node11 -->
<g id="Node000011" class="node">
<title>Node11</title>
<g id="a_Node000011"><a xlink:href="classwmtk_1_1_mesh.html#acfa981b31f00aef4438ff5e73bbce2f4" target="_top" xlink:title=" ">
<polygon fill="white" stroke="#666666" points="712,-152.5 582,-152.5 582,-122.5 712,-122.5 712,-152.5"/>
<text text-anchor="start" x="590" y="-140.5" font-family="Helvetica,sans-Serif" font-size="10.00">wmtk::Mesh::get_const</text>
<text text-anchor="middle" x="647" y="-129.5" font-family="Helvetica,sans-Serif" font-size="10.00">_flag_accessor</text>
</a>
</g>
</g>
<!-- Node10&#45;&gt;Node11 -->
<g id="edge10_Node000010_Node000011" class="edge">
<title>Node10&#45;&gt;Node11</title>
<g id="a_edge10_Node000010_Node000011"><a xlink:title=" ">
<path fill="none" stroke="#63b8ff" d="M517.66,-137.5C534.85,-137.5 553.8,-137.5 571.73,-137.5"/>
<polygon fill="#63b8ff" stroke="#63b8ff" points="571.86,-141 581.86,-137.5 571.86,-134 571.86,-141"/>
</a>
</g>
</g>
<!-- Node11&#45;&gt;Node9 -->
<g id="edge12_Node000011_Node000009" class="edge">
<title>Node11&#45;&gt;Node9</title>
<g id="a_edge12_Node000011_Node000009"><a xlink:title=" ">
<path fill="none" stroke="#63b8ff" d="M712.22,-149.73C734.05,-153.89 758.49,-158.55 780.53,-162.74"/>
<polygon fill="#63b8ff" stroke="#63b8ff" points="779.99,-166.2 790.47,-164.64 781.3,-159.33 779.99,-166.2"/>
</a>
</g>
</g>
<!-- Node12 -->
<g id="Node000012" class="node">
<title>Node12</title>
<g id="a_Node000012"><a xlink:href="classwmtk_1_1_mesh.html#a4cd7e6ca59d8d58cc7057c13bd190d57" target="_top" xlink:title=" ">
<polygon fill="white" stroke="#666666" points="905,-142.5 792,-142.5 792,-112.5 905,-112.5 905,-142.5"/>
<text text-anchor="start" x="800" y="-130.5" font-family="Helvetica,sans-Serif" font-size="10.00">wmtk::Mesh::create</text>
<text text-anchor="middle" x="848.5" y="-119.5" font-family="Helvetica,sans-Serif" font-size="10.00">_const_accessor</text>
</a>
</g>
</g>
<!-- Node11&#45;&gt;Node12 -->
<g id="edge11_Node000011_Node000012" class="edge">
<title>Node11&#45;&gt;Node12</title>
<g id="a_edge11_Node000011_Node000012"><a xlink:title=" ">
<path fill="none" stroke="#63b8ff" d="M712.22,-134.28C734.45,-133.17 759.38,-131.92 781.73,-130.8"/>
<polygon fill="#63b8ff" stroke="#63b8ff" points="781.98,-134.29 791.79,-130.29 781.63,-127.3 781.98,-134.29"/>
</a>
</g>
</g>
<!-- Node15 -->
<g id="Node000015" class="node">
<title>Node15</title>
<g id="a_Node000015"><a xlink:href="classwmtk_1_1attribute_1_1_attribute_manager.html#a2dde70c10887ef5a2d5f00844e245b71" target="_top" xlink:title=" ">
<polygon fill="white" stroke="#666666" points="717.5,-61.5 576.5,-61.5 576.5,-31.5 717.5,-31.5 717.5,-61.5"/>
<text text-anchor="start" x="584.5" y="-49.5" font-family="Helvetica,sans-Serif" font-size="10.00">wmtk::attribute::Attribute</text>
<text text-anchor="middle" x="647" y="-38.5" font-family="Helvetica,sans-Serif" font-size="10.00">Manager::set_capacities</text>
</a>
</g>
</g>
<!-- Node14&#45;&gt;Node15 -->
<g id="edge15_Node000014_Node000015" class="edge">
<title>Node14&#45;&gt;Node15</title>
<g id="a_edge15_Node000014_Node000015"><a xlink:title=" ">
<path fill="none" stroke="#63b8ff" d="M532.54,-46.5C543.63,-46.5 555.08,-46.5 566.25,-46.5"/>
<polygon fill="#63b8ff" stroke="#63b8ff" points="566.42,-50 576.42,-46.5 566.42,-43 566.42,-50"/>
</a>
</g>
</g>
<!-- Node16 -->
<g id="Node000016" class="node">
<title>Node16</title>
<g id="a_Node000016"><a xlink:href="classwmtk_1_1attribute_1_1_attribute_manager.html#a4fa415bb426f10d888dd765bf11f3163" target="_top" xlink:title=" ">
<polygon fill="white" stroke="#666666" points="941,-61.5 756,-61.5 756,-31.5 941,-31.5 941,-61.5"/>
<text text-anchor="start" x="764" y="-49.5" font-family="Helvetica,sans-Serif" font-size="10.00">wmtk::attribute::Attribute</text>
<text text-anchor="middle" x="848.5" y="-38.5" font-family="Helvetica,sans-Serif" font-size="10.00">Manager::reserve_attributes_to_fit</text>
</a>
</g>
</g>
<!-- Node15&#45;&gt;Node16 -->
<g id="edge16_Node000015_Node000016" class="edge">
<title>Node15&#45;&gt;Node16</title>
<g id="a_edge16_Node000015_Node000016"><a xlink:title=" ">
<path fill="none" stroke="#63b8ff" d="M717.78,-46.5C726.77,-46.5 736.12,-46.5 745.5,-46.5"/>
<polygon fill="#63b8ff" stroke="#63b8ff" points="745.67,-50 755.67,-46.5 745.67,-43 745.67,-50"/>
</a>
</g>
</g>
<!-- Node17 -->
<g id="Node000017" class="node">
<title>Node17</title>
<g id="a_Node000017"><a xlink:href="classwmtk_1_1attribute_1_1_attribute_manager.html#ade4ad24f8fde18f38a4709bf24ccf549" target="_top" xlink:title=" ">
<polygon fill="white" stroke="#666666" points="1132,-85.5 977,-85.5 977,-55.5 1132,-55.5 1132,-85.5"/>
<text text-anchor="start" x="985" y="-73.5" font-family="Helvetica,sans-Serif" font-size="10.00">wmtk::attribute::Attribute</text>
<text text-anchor="middle" x="1054.5" y="-62.5" font-family="Helvetica,sans-Serif" font-size="10.00">Manager::reserve_attributes</text>
</a>
</g>
</g>
<!-- Node16&#45;&gt;Node17 -->
<g id="edge17_Node000016_Node000017" class="edge">
<title>Node16&#45;&gt;Node17</title>
<g id="a_edge17_Node000016_Node000017"><a xlink:title=" ">
<path fill="none" stroke="#63b8ff" d="M941.06,-57.27C949.66,-58.28 958.36,-59.31 966.92,-60.31"/>
<polygon fill="#63b8ff" stroke="#63b8ff" points="966.54,-63.79 976.88,-61.49 967.36,-56.84 966.54,-63.79"/>
</a>
</g>
</g>
<!-- Node18 -->
<g id="Node000018" class="node">
<title>Node18</title>
<g id="a_Node000018"><a xlink:href="classwmtk_1_1attribute_1_1_attribute_manager.html#a87216c73c02b436c7f965faa52553f56" target="_top" xlink:title=" ">
<polygon fill="white" stroke="#666666" points="1125,-37.5 984,-37.5 984,-7.5 1125,-7.5 1125,-37.5"/>
<text text-anchor="start" x="992" y="-25.5" font-family="Helvetica,sans-Serif" font-size="10.00">wmtk::attribute::Attribute</text>
<text text-anchor="middle" x="1054.5" y="-14.5" font-family="Helvetica,sans-Serif" font-size="10.00">Manager::size</text>
</a>
</g>
</g>
<!-- Node16&#45;&gt;Node18 -->
<g id="edge18_Node000016_Node000018" class="edge">
<title>Node16&#45;&gt;Node18</title>
<g id="a_edge18_Node000016_Node000018"><a xlink:title=" ">
<path fill="none" stroke="#63b8ff" d="M941.06,-35.73C951.97,-34.44 963.05,-33.14 973.78,-31.88"/>
<polygon fill="#63b8ff" stroke="#63b8ff" points="974.43,-35.33 983.95,-30.68 973.61,-28.37 974.43,-35.33"/>
</a>
</g>
</g>
</g>
</svg>

<g id="navigator" transform="translate(0 0)" fill="#404254">
  <rect fill="#f2f5e9" fill-opacity="0.5" stroke="#606060" stroke-width=".5" x="0" y="0" width="60" height="60"/>
  <use id="zoomplus" xlink:href="#zoomPlus" x="17" y="9" onmousedown="handleZoom(evt,'in')"/>
  <use id="zoomminus" xlink:href="#zoomMin" x="42" y="9" onmousedown="handleZoom(evt,'out')"/>
  <use id="reset" xlink:href="#resetDef" x="30" y="36" onmousedown="handleReset()"/>
   <use id="arrowup" xlink:href="#arrowUp" x="0" y="0" onmousedown="handlePan(0,-1)"/>
  <use id="arrowright" xlink:href="#arrowRight" x="0" y="0" onmousedown="handlePan(1,0)"/>
  <use id="arrowdown" xlink:href="#arrowDown" x="0" y="0" onmousedown="handlePan(0,1)"/>
  <use id="arrowleft" xlink:href="#arrowLeft" x="0" y="0" onmousedown="handlePan(-1,0)"/>
</g>
<svg viewBox="0 0 15 15" width="100%" height="30px" preserveAspectRatio="xMaxYMin meet">
 <g id="arrow_out" transform="scale(0.3 0.3)">
  <a xlink:href="classwmtk_1_1_tet_mesh_a7cff4758f5cd0e10da33622a6999cbef_cgraph_org.svg" target="_base">
   <rect id="button" ry="5" rx="5" y="6" x="6" height="38" width="38"
        fill="#f2f5e9" fill-opacity="0.5" stroke="#606060" stroke-width="1.0"/>
   <path id="arrow"
     d="M 11.500037,31.436501 C 11.940474,20.09759 22.043105,11.32322 32.158766,21.979434 L 37.068811,17.246167 C 37.068811,17.246167 37.088388,32 37.088388,32 L 22.160133,31.978069 C 22.160133,31.978069 26.997745,27.140456 26.997745,27.140456 C 18.528582,18.264221 13.291696,25.230495 11.500037,31.436501 z"
     style="fill:#404040;"/>
  </a>
 </g>
</svg>

<style type='text/css'>
<![CDATA[
[data-mouse-over-selected='false'] { opacity: 0.7; }
[data-mouse-over-selected='true']  { opacity: 1.0; }
]]>
</style>
<script type="application/ecmascript"><![CDATA[
document.addEventListener('DOMContentLoaded', (event) => {
  highlightEdges();
  highlightAdjacentNodes();
});
]]></script>
</svg>
