<?xml version="1.0" encoding="UTF-8" standalone="no"?>
<!DOCTYPE svg PUBLIC "-//W3C//DTD SVG 1.1//EN"
 "http://www.w3.org/Graphics/SVG/1.1/DTD/svg11.dtd">
<!-- Generated by graphviz version 2.43.0 (0)
 -->
<!-- Title: wmtk::simplex::NavigatableSimplex::tuple Pages: 1 -->
<svg width="1547pt" height="203pt"
 viewBox="0.00 0.00 1547.00 203.00" xmlns="http://www.w3.org/2000/svg" xmlns:xlink="http://www.w3.org/1999/xlink">
<g id="graph0" class="graph" transform="scale(1 1) rotate(0) translate(4 199)">
<title>wmtk::simplex::NavigatableSimplex::tuple</title>
<!-- Node1 -->
<g id="Node000001" class="node">
<title>Node1</title>
<g id="a_Node000001"><a xlink:title=" ">
<polygon fill="#999999" stroke="#666666" points="1539,-102 1384,-102 1384,-72 1539,-72 1539,-102"/>
<text text-anchor="start" x="1392" y="-90" font-family="Helvetica,sans-Serif" font-size="10.00">wmtk::simplex::Navigatable</text>
<text text-anchor="middle" x="1461.5" y="-79" font-family="Helvetica,sans-Serif" font-size="10.00">Simplex::tuple</text>
</a>
</g>
</g>
<!-- Node2 -->
<g id="Node000002" class="node">
<title>Node2</title>
<g id="a_Node000002"><a xlink:href="classwmtk_1_1multimesh_1_1_multi_mesh_simplex_visitor.html#a4084e9097656664e6138a26c4082957e" target="_top" xlink:title=" ">
<polygon fill="white" stroke="#666666" points="755,-152.5 595,-152.5 595,-111.5 755,-111.5 755,-152.5"/>
<text text-anchor="start" x="603" y="-140.5" font-family="Helvetica,sans-Serif" font-size="10.00">wmtk::multimesh::MultiMesh</text>
<text text-anchor="start" x="603" y="-129.5" font-family="Helvetica,sans-Serif" font-size="10.00">SimplexVisitor::execute</text>
<text text-anchor="middle" x="675" y="-118.5" font-family="Helvetica,sans-Serif" font-size="10.00">_from_root</text>
</a>
</g>
</g>
<!-- Node1&#45;&gt;Node2 -->
<g id="edge1_Node000001_Node000002" class="edge">
<title>Node1&#45;&gt;Node2</title>
<g id="a_edge1_Node000001_Node000002"><a xlink:title=" ">
<path fill="none" stroke="#63b8ff" d="M1424.23,-106.8C1402.75,-117.41 1374.61,-129.42 1348,-135 1137.62,-179.12 881.97,-158.18 755.19,-142.97"/>
<polygon fill="#63b8ff" stroke="#63b8ff" points="1425.96,-109.85 1433.3,-102.21 1422.8,-103.61 1425.96,-109.85"/>
</a>
</g>
</g>
<!-- Node8 -->
<g id="Node000008" class="node">
<title>Node8</title>
<g id="a_Node000008"><a xlink:href="classwmtk_1_1multimesh_1_1_multi_mesh_simplex_visitor_executor.html#a72f23b9620585b126dd9a607ce84341c" target="_top" xlink:title=" ">
<polygon fill="white" stroke="#666666" points="1347.5,-126 1187.5,-126 1187.5,-96 1347.5,-96 1347.5,-126"/>
<text text-anchor="start" x="1195.5" y="-114" font-family="Helvetica,sans-Serif" font-size="10.00">wmtk::multimesh::MultiMesh</text>
<text text-anchor="middle" x="1267.5" y="-103" font-family="Helvetica,sans-Serif" font-size="10.00">SimplexVisitorExecutor::run</text>
</a>
</g>
</g>
<!-- Node1&#45;&gt;Node8 -->
<g id="edge7_Node000001_Node000008" class="edge">
<title>Node1&#45;&gt;Node8</title>
<g id="a_edge7_Node000001_Node000008"><a xlink:title=" ">
<path fill="none" stroke="#63b8ff" d="M1373.66,-97.85C1364.98,-98.94 1356.2,-100.04 1347.6,-101.11"/>
<polygon fill="#63b8ff" stroke="#63b8ff" points="1374.3,-101.3 1383.79,-96.59 1373.43,-94.36 1374.3,-101.3"/>
</a>
</g>
</g>
<!-- Node11 -->
<g id="Node000011" class="node">
<title>Node11</title>
<g id="a_Node000011"><a xlink:href="classwmtk_1_1operations_1_1_split_new_attribute_strategy.html#a3148ebf2e9128c41eaa8fd35d650c5ef" target="_top" xlink:title=" ">
<polygon fill="white" stroke="#666666" points="1343.5,-78 1191.5,-78 1191.5,-48 1343.5,-48 1343.5,-78"/>
<text text-anchor="start" x="1199.5" y="-66" font-family="Helvetica,sans-Serif" font-size="10.00">wmtk::operations::SplitNew</text>
<text text-anchor="middle" x="1267.5" y="-55" font-family="Helvetica,sans-Serif" font-size="10.00">AttributeStrategy::update</text>
</a>
</g>
</g>
<!-- Node1&#45;&gt;Node11 -->
<g id="edge11_Node000001_Node000011" class="edge">
<title>Node1&#45;&gt;Node11</title>
<g id="a_edge11_Node000001_Node000011"><a xlink:title=" ">
<path fill="none" stroke="#63b8ff" d="M1373.76,-76.16C1363.67,-74.9 1353.44,-73.62 1343.53,-72.38"/>
<polygon fill="#63b8ff" stroke="#63b8ff" points="1373.43,-79.64 1383.79,-77.41 1374.3,-72.7 1373.43,-79.64"/>
</a>
</g>
</g>
<!-- Node12 -->
<g id="Node000012" class="node">
<title>Node12</title>
<g id="a_Node000012"><a xlink:href="classwmtk_1_1operations_1_1_collapse_new_attribute_strategy.html#a4bf2b3a7610c88b899a6f84ede95166c" target="_top" xlink:title=" ">
<polygon fill="white" stroke="#666666" points="1348,-30 1187,-30 1187,0 1348,0 1348,-30"/>
<text text-anchor="start" x="1195" y="-18" font-family="Helvetica,sans-Serif" font-size="10.00">wmtk::operations::Collapse</text>
<text text-anchor="middle" x="1267.5" y="-7" font-family="Helvetica,sans-Serif" font-size="10.00">NewAttributeStrategy::update</text>
</a>
</g>
</g>
<!-- Node1&#45;&gt;Node12 -->
<g id="edge12_Node000001_Node000012" class="edge">
<title>Node1&#45;&gt;Node12</title>
<g id="a_edge12_Node000001_Node000012"><a xlink:title=" ">
<path fill="none" stroke="#63b8ff" d="M1418.63,-67.84C1397.65,-58.56 1371.71,-47.61 1348,-39 1339.46,-35.9 1330.31,-32.87 1321.37,-30.07"/>
<polygon fill="#63b8ff" stroke="#63b8ff" points="1417.34,-71.09 1427.9,-71.96 1420.19,-64.7 1417.34,-71.09"/>
</a>
</g>
</g>
<!-- Node3 -->
<g id="Node000003" class="node">
<title>Node3</title>
<g id="a_Node000003"><a xlink:href="classwmtk_1_1invariants_1_1_multi_mesh_link_condition_invariant.html#a0a616eeecbe8a37dc5c0d1f6978cf20a" target="_top" xlink:title=" ">
<polygon fill="white" stroke="#666666" points="546,-195 382,-195 382,-165 546,-165 546,-195"/>
<text text-anchor="start" x="390" y="-183" font-family="Helvetica,sans-Serif" font-size="10.00">wmtk::invariants::MultiMesh</text>
<text text-anchor="middle" x="464" y="-172" font-family="Helvetica,sans-Serif" font-size="10.00">LinkConditionInvariant::before</text>
</a>
</g>
</g>
<!-- Node2&#45;&gt;Node3 -->
<g id="edge2_Node000002_Node000003" class="edge">
<title>Node2&#45;&gt;Node3</title>
<g id="a_edge2_Node000002_Node000003"><a xlink:title=" ">
<path fill="none" stroke="#63b8ff" d="M585.17,-152.4C566.83,-156.61 547.83,-160.98 530.5,-164.96"/>
<polygon fill="#63b8ff" stroke="#63b8ff" points="586.02,-155.8 594.99,-150.15 584.46,-148.97 586.02,-155.8"/>
</a>
</g>
</g>
<!-- Node4 -->
<g id="Node000004" class="node">
<title>Node4</title>
<g id="a_Node000004"><a xlink:href="classwmtk_1_1_multi_mesh_map_valid_invariant.html#a0e3e660f15b5ae131f0a5b59086192f0" target="_top" xlink:title=" ">
<polygon fill="white" stroke="#666666" points="559,-147 369,-147 369,-117 559,-117 559,-147"/>
<text text-anchor="start" x="377" y="-135" font-family="Helvetica,sans-Serif" font-size="10.00">wmtk::MultiMeshMapValidInvariant</text>
<text text-anchor="middle" x="464" y="-124" font-family="Helvetica,sans-Serif" font-size="10.00">::before</text>
</a>
</g>
</g>
<!-- Node2&#45;&gt;Node4 -->
<g id="edge3_Node000002_Node000004" class="edge">
<title>Node2&#45;&gt;Node4</title>
<g id="a_edge3_Node000002_Node000004"><a xlink:title=" ">
<path fill="none" stroke="#63b8ff" d="M584.76,-132C576.31,-132 567.73,-132 559.24,-132"/>
<polygon fill="#63b8ff" stroke="#63b8ff" points="584.99,-135.5 594.99,-132 584.99,-128.5 584.99,-135.5"/>
</a>
</g>
</g>
<!-- Node5 -->
<g id="Node000005" class="node">
<title>Node5</title>
<g id="a_Node000005"><a xlink:href="namespacewmtk_1_1operations_1_1utils.html#a2cedb9b2850283f1a9476aefc0f32ec8" target="_top" xlink:title=" ">
<polygon fill="white" stroke="#666666" points="532,-99 396,-99 396,-69 532,-69 532,-99"/>
<text text-anchor="start" x="404" y="-87" font-family="Helvetica,sans-Serif" font-size="10.00">wmtk::operations::utils</text>
<text text-anchor="middle" x="464" y="-76" font-family="Helvetica,sans-Serif" font-size="10.00">::multi_mesh_edge_split</text>
</a>
</g>
</g>
<!-- Node2&#45;&gt;Node5 -->
<g id="edge4_Node000002_Node000005" class="edge">
<title>Node2&#45;&gt;Node5</title>
<g id="a_edge4_Node000002_Node000005"><a xlink:title=" ">
<path fill="none" stroke="#63b8ff" d="M585.17,-111.6C566.83,-107.39 547.83,-103.02 530.5,-99.04"/>
<polygon fill="#63b8ff" stroke="#63b8ff" points="584.46,-115.03 594.99,-113.85 586.02,-108.2 584.46,-115.03"/>
</a>
</g>
</g>
<!-- Node6 -->
<g id="Node000006" class="node">
<title>Node6</title>
<g id="a_Node000006"><a xlink:href="namespacewmtk_1_1operations_1_1utils.html#a3e79c22eaaba0353e301ffcc93ad6ed5" target="_top" xlink:title=" ">
<polygon fill="white" stroke="#666666" points="333,-104.5 190,-104.5 190,-63.5 333,-63.5 333,-104.5"/>
<text text-anchor="start" x="198" y="-92.5" font-family="Helvetica,sans-Serif" font-size="10.00">wmtk::operations::utils</text>
<text text-anchor="start" x="198" y="-81.5" font-family="Helvetica,sans-Serif" font-size="10.00">::multi_mesh_edge_split</text>
<text text-anchor="middle" x="261.5" y="-70.5" font-family="Helvetica,sans-Serif" font-size="10.00">_with_modified_simplices</text>
</a>
</g>
</g>
<!-- Node5&#45;&gt;Node6 -->
<g id="edge5_Node000005_Node000006" class="edge">
<title>Node5&#45;&gt;Node6</title>
<g id="a_edge5_Node000005_Node000006"><a xlink:title=" ">
<path fill="none" stroke="#63b8ff" d="M385.89,-84C368.58,-84 350.3,-84 333.26,-84"/>
<polygon fill="#63b8ff" stroke="#63b8ff" points="385.96,-87.5 395.96,-84 385.96,-80.5 385.96,-87.5"/>
</a>
</g>
</g>
<!-- Node7 -->
<g id="Node000007" class="node">
<title>Node7</title>
<g id="a_Node000007"><a xlink:href="classwmtk_1_1operations_1_1_edge_split.html#acf2afde09bd19955800804d11f7dfc2b" target="_top" xlink:title=" ">
<polygon fill="white" stroke="#666666" points="154,-99 0,-99 0,-69 154,-69 154,-99"/>
<text text-anchor="start" x="8" y="-87" font-family="Helvetica,sans-Serif" font-size="10.00">wmtk::operations::EdgeSplit</text>
<text text-anchor="middle" x="77" y="-76" font-family="Helvetica,sans-Serif" font-size="10.00">::execute</text>
</a>
</g>
</g>
<!-- Node6&#45;&gt;Node7 -->
<g id="edge6_Node000006_Node000007" class="edge">
<title>Node6&#45;&gt;Node7</title>
<g id="a_edge6_Node000006_Node000007"><a xlink:title=" ">
<path fill="none" stroke="#63b8ff" d="M179.66,-84C171.17,-84 162.56,-84 154.12,-84"/>
<polygon fill="#63b8ff" stroke="#63b8ff" points="179.94,-87.5 189.94,-84 179.94,-80.5 179.94,-87.5"/>
</a>
</g>
</g>
<!-- Node9 -->
<g id="Node000009" class="node">
<title>Node9</title>
<g id="a_Node000009"><a xlink:href="classwmtk_1_1multimesh_1_1_multi_mesh_simplex_visitor_executor.html#a7933f8d74e247125e4f5d0eb5ee319c9" target="_top" xlink:title=" ">
<polygon fill="white" stroke="#666666" points="1151,-128.5 991,-128.5 991,-87.5 1151,-87.5 1151,-128.5"/>
<text text-anchor="start" x="999" y="-116.5" font-family="Helvetica,sans-Serif" font-size="10.00">wmtk::multimesh::MultiMesh</text>
<text text-anchor="start" x="999" y="-105.5" font-family="Helvetica,sans-Serif" font-size="10.00">SimplexVisitorExecutor</text>
<text text-anchor="middle" x="1071" y="-94.5" font-family="Helvetica,sans-Serif" font-size="10.00">::execute</text>
</a>
</g>
</g>
<!-- Node8&#45;&gt;Node9 -->
<g id="edge8_Node000008_Node000009" class="edge">
<title>Node8&#45;&gt;Node9</title>
<g id="a_edge8_Node000008_Node000009"><a xlink:title=" ">
<path fill="none" stroke="#63b8ff" d="M1177.2,-109.62C1168.47,-109.49 1159.66,-109.35 1151.04,-109.22"/>
<polygon fill="#63b8ff" stroke="#63b8ff" points="1177.34,-113.13 1187.39,-109.78 1177.44,-106.13 1177.34,-113.13"/>
</a>
</g>
</g>
<!-- Node10 -->
<g id="Node000010" class="node">
<title>Node10</title>
<g id="a_Node000010"><a xlink:href="classwmtk_1_1multimesh_1_1_multi_mesh_simplex_visitor.html#a7fe63897b1f72c65f0b7144be9536c22" target="_top" xlink:title=" ">
<polygon fill="white" stroke="#666666" points="955,-126 791,-126 791,-96 955,-96 955,-126"/>
<text text-anchor="start" x="799" y="-114" font-family="Helvetica,sans-Serif" font-size="10.00">wmtk::multimesh::MultiMesh</text>
<text text-anchor="middle" x="873" y="-103" font-family="Helvetica,sans-Serif" font-size="10.00">SimplexVisitor::execute_mesh</text>
</a>
</g>
</g>
<!-- Node9&#45;&gt;Node10 -->
<g id="edge9_Node000009_Node000010" class="edge">
<title>Node9&#45;&gt;Node10</title>
<g id="a_edge9_Node000009_Node000010"><a xlink:title=" ">
<path fill="none" stroke="#63b8ff" d="M980.82,-109.37C972.23,-109.5 963.55,-109.63 955.05,-109.76"/>
<polygon fill="#63b8ff" stroke="#63b8ff" points="980.9,-112.86 990.84,-109.21 980.79,-105.87 980.9,-112.86"/>
</a>
</g>
</g>
<!-- Node10&#45;&gt;Node2 -->
<g id="edge10_Node000010_Node000002" class="edge">
<title>Node10&#45;&gt;Node2</title>
<g id="a_edge10_Node000010_Node000002"><a xlink:title=" ">
<path fill="none" stroke="#63b8ff" d="M780.85,-120.77C772.28,-121.68 763.63,-122.61 755.18,-123.52"/>
<polygon fill="#63b8ff" stroke="#63b8ff" points="781.29,-124.24 790.86,-119.69 780.55,-117.28 781.29,-124.24"/>
</a>
</g>
</g>
</g>
</svg>
