<?xml version="1.0" encoding="UTF-8" standalone="no"?>
<!DOCTYPE svg PUBLIC "-//W3C//DTD SVG 1.1//EN"
 "http://www.w3.org/Graphics/SVG/1.1/DTD/svg11.dtd">
<!-- Generated by graphviz version 2.43.0 (0)
 -->
<!-- Title: wmtk::utils::EigenMatrixWriter::get_double_matrix Pages: 1 -->
<!--zoomable 370 -->

<svg id="main" version="1.1" xmlns="http://www.w3.org/2000/svg" xmlns:xlink="http://www.w3.org/1999/xlink" xml:space="preserve" onload="init(evt)">
<style type="text/css"><![CDATA[
.node, .edge {opacity: 0.7;}
.node.selected, .edge.selected {opacity: 1;}
.edge:hover path { stroke: red; }
.edge:hover polygon { stroke: red; fill: red; }
]]></style>

<defs>
  <circle id="rim" cx="0" cy="0" r="7"/>
  <circle id="rim2" cx="0" cy="0" r="3.5"/>
  <g id="zoomPlus">
    <use xlink:href="#rim" fill="#404040"><set attributeName="fill" to="#808080" begin="zoomplus.mouseover" end="zoomplus.mouseout"/></use>
    <path d="M-4,0h8M0,-4v8" fill="none" stroke="white" stroke-width="1.5" pointer-events="none"/>
  </g>
  <g id="zoomMin">
    <use xlink:href="#rim" fill="#404040"><set attributeName="fill" to="#808080" begin="zoomminus.mouseover" end="zoomminus.mouseout"/></use>
    <path d="M-4,0h8" fill="none" stroke="white" stroke-width="1.5" pointer-events="none"/>
  </g>
  <g id="arrowUp" transform="translate(30 24)">
    <use xlink:href="#rim"/>
    <path pointer-events="none" fill="none" stroke="white" stroke-width="1.5" d="M0,-3.0v7 M-2.5,-0.5L0,-3.0L2.5,-0.5"/>
  </g>
  <g id="arrowRight" transform="rotate(90) translate(36 -43)">
    <use xlink:href="#rim"/>
    <path pointer-events="none" fill="none" stroke="white" stroke-width="1.5" d="M0,-3.0v7 M-2.5,-0.5L0,-3.0L2.5,-0.5"/>
  </g>
  <g id="arrowDown" transform="rotate(180) translate(-30 -48)">
    <use xlink:href="#rim"/>
    <path pointer-events="none" fill="none" stroke="white" stroke-width="1.5" d="M0,-3.0v7 M-2.5,-0.5L0,-3.0L2.5,-0.5"/>
  </g>
  <g id="arrowLeft" transform="rotate(270) translate(-36 17)">
    <use xlink:href="#rim"/>
    <path pointer-events="none" fill="none" stroke="white" stroke-width="1.5" d="M0,-3.0v7 M-2.5,-0.5L0,-3.0L2.5,-0.5"/>
  </g>
  <g id="resetDef">
    <use xlink:href="#rim2" fill="#404040"><set attributeName="fill" to="#808080" begin="reset.mouseover" end="reset.mouseout"/></use>
  </g>
</defs>
<script type="application/ecmascript">
var viewWidth = 913;
var viewHeight = 370;
var sectionId = 'dynsection-2';
</script>
<script type="application/ecmascript" xlink:href="svg.min.js"/>
<svg id="graph" class="graph">
<g id="viewport">
<title>wmtk::utils::EigenMatrixWriter::get_double_matrix</title>
<!-- Node1 -->
<g id="Node000001" class="node">
<title>Node1</title>
<g id="a_Node000001"><a xlink:title=" ">
<polygon fill="#999999" stroke="#666666" points="905,-116 761,-116 761,-86 905,-86 905,-116"/>
<text text-anchor="start" x="769" y="-104" font-family="Helvetica,sans-Serif" font-size="10.00">wmtk::utils::EigenMatrix</text>
<text text-anchor="middle" x="833" y="-93" font-family="Helvetica,sans-Serif" font-size="10.00">Writer::get_double_matrix</text>
</a>
</g>
</g>
<!-- Node2 -->
<g id="Node000002" class="node">
<title>Node2</title>
<g id="a_Node000002"><a xlink:href="classwmtk_1_1utils_1_1_eigen_matrix_writer.html#a3907d601b0f4f64c662e4c32da9ca52c" target="_top" xlink:title=" ">
<polygon fill="white" stroke="#666666" points="722,-182 572,-182 572,-152 722,-152 722,-182"/>
<text text-anchor="start" x="580" y="-170" font-family="Helvetica,sans-Serif" font-size="10.00">wmtk::utils::EigenMatrix</text>
<text text-anchor="middle" x="647" y="-159" font-family="Helvetica,sans-Serif" font-size="10.00">Writer::get_position_matrix</text>
</a>
</g>
</g>
<!-- Node1&#45;&gt;Node2 -->
<g id="edge1_Node000001_Node000002" class="edge">
<title>Node1&#45;&gt;Node2</title>
<g id="a_edge1_Node000001_Node000002"><a xlink:title=" ">
<path fill="none" stroke="#63b8ff" d="M786.08,-119.86C767.26,-127.37 745.2,-135.9 725,-143 716.41,-146.02 707.22,-149.05 698.29,-151.9"/>
<polygon fill="#63b8ff" stroke="#63b8ff" points="787.62,-123.01 795.6,-116.04 785.01,-116.52 787.62,-123.01"/>
</a>
</g>
</g>
<!-- Node13 -->
<g id="Node000013" class="node">
<title>Node13</title>
<g id="a_Node000013"><a xlink:href="namespacewmtk_1_1components.html#ab76577dc5b3ef0ad8ac307cff60d5807" target="_top" xlink:title="Perform the simplification from the original tetwild.">
<polygon fill="white" stroke="#666666" points="722,-116 572,-116 572,-86 722,-86 722,-116"/>
<text text-anchor="start" x="580" y="-104" font-family="Helvetica,sans-Serif" font-size="10.00">wmtk::components::tetwild</text>
<text text-anchor="middle" x="647" y="-93" font-family="Helvetica,sans-Serif" font-size="10.00">_simplification</text>
</a>
</g>
</g>
<!-- Node1&#45;&gt;Node13 -->
<g id="edge16_Node000001_Node000013" class="edge">
<title>Node1&#45;&gt;Node13</title>
<g id="a_edge16_Node000001_Node000013"><a xlink:title=" ">
<path fill="none" stroke="#63b8ff" d="M750.69,-101C741.24,-101 731.64,-101 722.3,-101"/>
<polygon fill="#63b8ff" stroke="#63b8ff" points="750.86,-104.5 760.86,-101 750.86,-97.5 750.86,-104.5"/>
</a>
</g>
</g>
<!-- Node14 -->
<g id="Node000014" class="node">
<title>Node14</title>
<g id="a_Node000014"><a xlink:href="namespacewmtk_1_1components_1_1triangle__insertion.html#a23509bfe845d018ac65e2759fb77c608" target="_top" xlink:title=" ">
<polygon fill="white" stroke="#666666" points="725,-50 569,-50 569,-20 725,-20 725,-50"/>
<text text-anchor="start" x="577" y="-38" font-family="Helvetica,sans-Serif" font-size="10.00">wmtk::components::triangle</text>
<text text-anchor="middle" x="647" y="-27" font-family="Helvetica,sans-Serif" font-size="10.00">_insertion::triangle_insertion</text>
</a>
</g>
</g>
<!-- Node1&#45;&gt;Node14 -->
<g id="edge18_Node000001_Node000014" class="edge">
<title>Node1&#45;&gt;Node14</title>
<g id="a_edge18_Node000001_Node000014"><a xlink:title=" ">
<path fill="none" stroke="#63b8ff" d="M780.01,-82.35C751.55,-72.14 716.74,-59.66 690.02,-50.07"/>
<polygon fill="#63b8ff" stroke="#63b8ff" points="779.19,-85.78 789.79,-85.86 781.56,-79.19 779.19,-85.78"/>
</a>
</g>
</g>
<!-- Node3 -->
<g id="Node000003" class="node">
<title>Node3</title>
<g id="a_Node000003"><a xlink:href="namespacewmtk_1_1utils.html#ab1c8cf8a9c202791961c4917dd854151" target="_top" xlink:title=" ">
<polygon fill="white" stroke="#666666" points="516,-344 381,-344 381,-314 516,-314 516,-344"/>
<text text-anchor="start" x="389" y="-332" font-family="Helvetica,sans-Serif" font-size="10.00">wmtk::utils::as_eigen</text>
<text text-anchor="middle" x="448.5" y="-321" font-family="Helvetica,sans-Serif" font-size="10.00">_matrices_with_position</text>
</a>
</g>
</g>
<!-- Node2&#45;&gt;Node3 -->
<g id="edge2_Node000002_Node000003" class="edge">
<title>Node2&#45;&gt;Node3</title>
<g id="a_edge2_Node000002_Node000003"><a xlink:title=" ">
<path fill="none" stroke="#63b8ff" d="M632.5,-191.29C614.03,-222.27 578,-275.37 533,-305 527.83,-308.4 522.18,-311.33 516.33,-313.85"/>
<polygon fill="#63b8ff" stroke="#63b8ff" points="635.65,-192.83 637.65,-182.43 629.6,-189.31 635.65,-192.83"/>
</a>
</g>
</g>
<!-- Node4 -->
<g id="Node000004" class="node">
<title>Node4</title>
<g id="a_Node000004"><a xlink:href="namespacewmtk_1_1components_1_1multimesh.html#abc4283ceabdeef453b2562ab37a6190c" target="_top" xlink:title=" ">
<polygon fill="white" stroke="#666666" points="533,-296 364,-296 364,-266 533,-266 533,-296"/>
<text text-anchor="start" x="372" y="-284" font-family="Helvetica,sans-Serif" font-size="10.00">wmtk::components::multimesh</text>
<text text-anchor="middle" x="448.5" y="-273" font-family="Helvetica,sans-Serif" font-size="10.00">::axis_aligned_fusion</text>
</a>
</g>
</g>
<!-- Node2&#45;&gt;Node4 -->
<g id="edge4_Node000002_Node000004" class="edge">
<title>Node2&#45;&gt;Node4</title>
<g id="a_edge4_Node000002_Node000004"><a xlink:title=" ">
<path fill="none" stroke="#63b8ff" d="M623.6,-189.31C602.06,-209.62 567.74,-239.08 533,-257 526.43,-260.39 519.32,-263.36 512.11,-265.95"/>
<polygon fill="#63b8ff" stroke="#63b8ff" points="626.14,-191.73 630.94,-182.29 621.29,-186.68 626.14,-191.73"/>
</a>
</g>
</g>
<!-- Node5 -->
<g id="Node000005" class="node">
<title>Node5</title>
<g id="a_Node000005"><a xlink:href="namespacewmtk_1_1components_1_1internal.html#aff1250493ee8c47518118b92223c8576" target="_top" xlink:title=" ">
<polygon fill="white" stroke="#666666" points="525.5,-248 371.5,-248 371.5,-218 525.5,-218 525.5,-248"/>
<text text-anchor="start" x="379.5" y="-236" font-family="Helvetica,sans-Serif" font-size="10.00">wmtk::components::internal</text>
<text text-anchor="middle" x="448.5" y="-225" font-family="Helvetica,sans-Serif" font-size="10.00">::edge_insertion</text>
</a>
</g>
</g>
<!-- Node2&#45;&gt;Node5 -->
<g id="edge5_Node000002_Node000005" class="edge">
<title>Node2&#45;&gt;Node5</title>
<g id="a_edge5_Node000002_Node000005"><a xlink:title=" ">
<path fill="none" stroke="#63b8ff" d="M598.29,-185.65C578.25,-193.24 554.61,-201.89 533,-209 523.69,-212.06 513.72,-215.12 504.03,-217.97"/>
<polygon fill="#63b8ff" stroke="#63b8ff" points="599.72,-188.85 607.81,-182.02 597.22,-182.31 599.72,-188.85"/>
</a>
</g>
</g>
<!-- Node6 -->
<g id="Node000006" class="node">
<title>Node6</title>
<g id="a_Node000006"><a xlink:href="namespacewmtk_1_1components_1_1internal.html#ae96e456a97cc6bb91612325fce6c6abb" target="_top" xlink:title=" ">
<polygon fill="white" stroke="#666666" points="525.5,-182 371.5,-182 371.5,-152 525.5,-152 525.5,-182"/>
<text text-anchor="start" x="379.5" y="-170" font-family="Helvetica,sans-Serif" font-size="10.00">wmtk::components::internal</text>
<text text-anchor="middle" x="448.5" y="-159" font-family="Helvetica,sans-Serif" font-size="10.00">::get_vf</text>
</a>
</g>
</g>
<!-- Node2&#45;&gt;Node6 -->
<g id="edge6_Node000002_Node000006" class="edge">
<title>Node2&#45;&gt;Node6</title>
<g id="a_edge6_Node000002_Node000006"><a xlink:title=" ">
<path fill="none" stroke="#63b8ff" d="M561.97,-167C549.93,-167 537.61,-167 525.73,-167"/>
<polygon fill="#63b8ff" stroke="#63b8ff" points="561.99,-170.5 571.99,-167 561.99,-163.5 561.99,-170.5"/>
</a>
</g>
</g>
<!-- Node9 -->
<g id="Node000009" class="node">
<title>Node9</title>
<g id="a_Node000009"><a xlink:href="test__component__fusion_8cpp.html#ad717d3fcca492f6237e8e5f0e3455e4e" target="_top" xlink:title=" ">
<polygon fill="white" stroke="#666666" points="484,-133.5 413,-133.5 413,-114.5 484,-114.5 484,-133.5"/>
<text text-anchor="middle" x="448.5" y="-121.5" font-family="Helvetica,sans-Serif" font-size="10.00">TEST_CASE</text>
</a>
</g>
</g>
<!-- Node2&#45;&gt;Node9 -->
<g id="edge11_Node000002_Node000009" class="edge">
<title>Node2&#45;&gt;Node9</title>
<g id="a_edge11_Node000002_Node000009"><a xlink:title=" ">
<path fill="none" stroke="#63b8ff" d="M567.2,-149.76C538.39,-143.45 507.25,-136.64 484.25,-131.6"/>
<polygon fill="#63b8ff" stroke="#63b8ff" points="566.76,-153.24 577.27,-151.96 568.25,-146.4 566.76,-153.24"/>
</a>
</g>
</g>
<!-- Node10 -->
<g id="Node000010" class="node">
<title>Node10</title>
<g id="a_Node000010"><a xlink:href="namespacewmtk_1_1components_1_1multimesh.html#a908a13d0c538f9bd57220261b8f4cb67" target="_top" xlink:title=" ">
<polygon fill="white" stroke="#666666" points="533,-96 364,-96 364,-66 533,-66 533,-96"/>
<text text-anchor="start" x="372" y="-84" font-family="Helvetica,sans-Serif" font-size="10.00">wmtk::components::multimesh</text>
<text text-anchor="middle" x="448.5" y="-73" font-family="Helvetica,sans-Serif" font-size="10.00">::vertex_fusion</text>
</a>
</g>
</g>
<!-- Node2&#45;&gt;Node10 -->
<g id="edge12_Node000002_Node000010" class="edge">
<title>Node2&#45;&gt;Node10</title>
<g id="a_edge12_Node000002_Node000010"><a xlink:title=" ">
<path fill="none" stroke="#63b8ff" d="M577.3,-147.6C574.44,-146.16 571.66,-144.63 569,-143 549.45,-131 552.62,-117.89 533,-106 526.66,-102.16 519.69,-98.87 512.56,-96.06"/>
<polygon fill="#63b8ff" stroke="#63b8ff" points="576.09,-150.89 586.65,-151.85 578.99,-144.52 576.09,-150.89"/>
</a>
</g>
</g>
<!-- Node11 -->
<g id="Node000011" class="node">
<title>Node11</title>
<g id="a_Node000011"><a xlink:href="namespacewmtk_1_1components_1_1internal.html#a18a56f1ee7f5d72c7557922789a96802" target="_top" xlink:title=" ">
<polygon fill="white" stroke="#666666" points="525.5,-30 371.5,-30 371.5,0 525.5,0 525.5,-30"/>
<text text-anchor="start" x="379.5" y="-18" font-family="Helvetica,sans-Serif" font-size="10.00">wmtk::components::internal</text>
<text text-anchor="middle" x="448.5" y="-7" font-family="Helvetica,sans-Serif" font-size="10.00">::winding_number</text>
</a>
</g>
</g>
<!-- Node2&#45;&gt;Node11 -->
<g id="edge13_Node000002_Node000011" class="edge">
<title>Node2&#45;&gt;Node11</title>
<g id="a_edge13_Node000002_Node000011"><a xlink:title=" ">
<path fill="none" stroke="#63b8ff" d="M573,-146.33C571.62,-145.28 570.28,-144.17 569,-143 538.35,-115.11 561.26,-87.3 533,-57 522.26,-45.49 507.68,-36.67 493.7,-30.16"/>
<polygon fill="#63b8ff" stroke="#63b8ff" points="571.11,-149.28 581.4,-151.81 574.94,-143.41 571.11,-149.28"/>
</a>
</g>
</g>
<!-- Node3&#45;&gt;Node3 -->
<g id="edge3_Node000003_Node000003" class="edge">
<title>Node3&#45;&gt;Node3</title>
<g id="a_edge3_Node000003_Node000003"><a xlink:title=" ">
<path fill="none" stroke="#63b8ff" d="M483.16,-354.6C478.42,-358.97 466.87,-362 448.5,-362 417.56,-362 405.96,-353.41 413.7,-344.28"/>
<polygon fill="#63b8ff" stroke="#63b8ff" points="486.66,-354.32 483.3,-344.28 479.66,-354.22 486.66,-354.32"/>
</a>
</g>
</g>
<!-- Node6&#45;&gt;Node6 -->
<g id="edge10_Node000006_Node000006" class="edge">
<title>Node6&#45;&gt;Node6</title>
<g id="a_edge10_Node000006_Node000006"><a xlink:title=" ">
<path fill="none" stroke="#63b8ff" d="M483.16,-192.6C478.42,-196.97 466.87,-200 448.5,-200 417.56,-200 405.96,-191.41 413.7,-182.28"/>
<polygon fill="#63b8ff" stroke="#63b8ff" points="486.66,-192.32 483.3,-182.28 479.66,-192.22 486.66,-192.32"/>
</a>
</g>
</g>
<!-- Node7 -->
<g id="Node000007" class="node">
<title>Node7</title>
<g id="a_Node000007"><a xlink:href="namespacewmtk_1_1components_1_1internal.html#a06f1c0433aa3057a90d1e7829c851e72" target="_top" xlink:title=" ">
<polygon fill="white" stroke="#666666" points="327.5,-182 173.5,-182 173.5,-152 327.5,-152 327.5,-182"/>
<text text-anchor="start" x="181.5" y="-170" font-family="Helvetica,sans-Serif" font-size="10.00">wmtk::components::internal</text>
<text text-anchor="middle" x="250.5" y="-159" font-family="Helvetica,sans-Serif" font-size="10.00">::CDT_internal</text>
</a>
</g>
</g>
<!-- Node6&#45;&gt;Node7 -->
<g id="edge7_Node000006_Node000007" class="edge">
<title>Node6&#45;&gt;Node7</title>
<g id="a_edge7_Node000006_Node000007"><a xlink:title=" ">
<path fill="none" stroke="#63b8ff" d="M361.21,-167C349.99,-167 338.56,-167 327.52,-167"/>
<polygon fill="#63b8ff" stroke="#63b8ff" points="361.44,-170.5 371.44,-167 361.44,-163.5 361.44,-170.5"/>
</a>
</g>
</g>
<!-- Node7&#45;&gt;Node7 -->
<g id="edge9_Node000007_Node000007" class="edge">
<title>Node7&#45;&gt;Node7</title>
<g id="a_edge9_Node000007_Node000007"><a xlink:title=" ">
<path fill="none" stroke="#63b8ff" d="M282.36,-192.6C278,-196.97 267.38,-200 250.5,-200 222.06,-200 211.4,-191.41 218.51,-182.28"/>
<polygon fill="#63b8ff" stroke="#63b8ff" points="285.86,-192.32 282.49,-182.28 278.86,-192.23 285.86,-192.32"/>
</a>
</g>
</g>
<!-- Node8 -->
<g id="Node000008" class="node">
<title>Node8</title>
<g id="a_Node000008"><a xlink:href="namespacewmtk_1_1components.html#a7bf4c4516032a63182e16035aeacceb4" target="_top" xlink:title=" ">
<polygon fill="white" stroke="#666666" points="137,-176.5 0,-176.5 0,-157.5 137,-157.5 137,-176.5"/>
<text text-anchor="middle" x="68.5" y="-164.5" font-family="Helvetica,sans-Serif" font-size="10.00">wmtk::components::CDT</text>
</a>
</g>
</g>
<!-- Node7&#45;&gt;Node8 -->
<g id="edge8_Node000007_Node000008" class="edge">
<title>Node7&#45;&gt;Node8</title>
<g id="a_edge8_Node000007_Node000008"><a xlink:title=" ">
<path fill="none" stroke="#63b8ff" d="M163.16,-167C154.39,-167 145.56,-167 137.03,-167"/>
<polygon fill="#63b8ff" stroke="#63b8ff" points="163.42,-170.5 173.42,-167 163.42,-163.5 163.42,-170.5"/>
</a>
</g>
</g>
<!-- Node11&#45;&gt;Node11 -->
<g id="edge14_Node000011_Node000011" class="edge">
<title>Node11&#45;&gt;Node11</title>
<g id="a_edge14_Node000011_Node000011"><a xlink:title=" ">
<path fill="none" stroke="#63b8ff" d="M483.16,-40.6C478.42,-44.97 466.87,-48 448.5,-48 417.56,-48 405.96,-39.41 413.7,-30.28"/>
<polygon fill="#63b8ff" stroke="#63b8ff" points="486.66,-40.32 483.3,-30.28 479.66,-40.22 486.66,-40.32"/>
</a>
</g>
</g>
<!-- Node12 -->
<g id="Node000012" class="node">
<title>Node12</title>
<g id="a_Node000012"><a xlink:href="namespacewmtk_1_1components.html#a48154fbe1e5414336fe2337b0ec56dd2" target="_top" xlink:title=" ">
<polygon fill="white" stroke="#666666" points="328,-30 173,-30 173,0 328,0 328,-30"/>
<text text-anchor="start" x="181" y="-18" font-family="Helvetica,sans-Serif" font-size="10.00">wmtk::components::winding</text>
<text text-anchor="middle" x="250.5" y="-7" font-family="Helvetica,sans-Serif" font-size="10.00">_number</text>
</a>
</g>
</g>
<!-- Node11&#45;&gt;Node12 -->
<g id="edge15_Node000011_Node000012" class="edge">
<title>Node11&#45;&gt;Node12</title>
<g id="a_edge15_Node000011_Node000012"><a xlink:title=" ">
<path fill="none" stroke="#63b8ff" d="M361.36,-15C350.31,-15 339.05,-15 328.16,-15"/>
<polygon fill="#63b8ff" stroke="#63b8ff" points="361.44,-18.5 371.44,-15 361.44,-11.5 361.44,-18.5"/>
</a>
</g>
</g>
<!-- Node13&#45;&gt;Node13 -->
<g id="edge17_Node000013_Node000013" class="edge">
<title>Node13&#45;&gt;Node13</title>
<g id="a_edge17_Node000013_Node000013"><a xlink:title=" ">
<path fill="none" stroke="#63b8ff" d="M679.56,-126.6C675.11,-130.97 664.26,-134 647,-134 617.94,-134 607.04,-125.41 614.3,-116.28"/>
<polygon fill="#63b8ff" stroke="#63b8ff" points="683.06,-126.32 679.7,-116.28 676.06,-126.23 683.06,-126.32"/>
</a>
</g>
</g>
<!-- Node14&#45;&gt;Node14 -->
<g id="edge19_Node000014_Node000014" class="edge">
<title>Node14&#45;&gt;Node14</title>
<g id="a_edge19_Node000014_Node000014"><a xlink:title=" ">
<path fill="none" stroke="#63b8ff" d="M679.56,-60.6C675.11,-64.97 664.26,-68 647,-68 617.94,-68 607.04,-59.41 614.3,-50.28"/>
<polygon fill="#63b8ff" stroke="#63b8ff" points="683.06,-60.32 679.7,-50.28 676.06,-60.23 683.06,-60.32"/>
</a>
</g>
</g>
</g>
</svg>

<g id="navigator" transform="translate(0 0)" fill="#404254">
  <rect fill="#f2f5e9" fill-opacity="0.5" stroke="#606060" stroke-width=".5" x="0" y="0" width="60" height="60"/>
  <use id="zoomplus" xlink:href="#zoomPlus" x="17" y="9" onmousedown="handleZoom(evt,'in')"/>
  <use id="zoomminus" xlink:href="#zoomMin" x="42" y="9" onmousedown="handleZoom(evt,'out')"/>
  <use id="reset" xlink:href="#resetDef" x="30" y="36" onmousedown="handleReset()"/>
   <use id="arrowup" xlink:href="#arrowUp" x="0" y="0" onmousedown="handlePan(0,-1)"/>
  <use id="arrowright" xlink:href="#arrowRight" x="0" y="0" onmousedown="handlePan(1,0)"/>
  <use id="arrowdown" xlink:href="#arrowDown" x="0" y="0" onmousedown="handlePan(0,1)"/>
  <use id="arrowleft" xlink:href="#arrowLeft" x="0" y="0" onmousedown="handlePan(-1,0)"/>
</g>
<svg viewBox="0 0 15 15" width="100%" height="30px" preserveAspectRatio="xMaxYMin meet">
 <g id="arrow_out" transform="scale(0.3 0.3)">
  <a xlink:href="classwmtk_1_1utils_1_1_eigen_matrix_writer_ae83d204878455162293807bb06421c6f_icgraph_org.svg" target="_base">
   <rect id="button" ry="5" rx="5" y="6" x="6" height="38" width="38"
        fill="#f2f5e9" fill-opacity="0.5" stroke="#606060" stroke-width="1.0"/>
   <path id="arrow"
     d="M 11.500037,31.436501 C 11.940474,20.09759 22.043105,11.32322 32.158766,21.979434 L 37.068811,17.246167 C 37.068811,17.246167 37.088388,32 37.088388,32 L 22.160133,31.978069 C 22.160133,31.978069 26.997745,27.140456 26.997745,27.140456 C 18.528582,18.264221 13.291696,25.230495 11.500037,31.436501 z"
     style="fill:#404040;"/>
  </a>
 </g>
</svg>

<style type='text/css'>
<![CDATA[
[data-mouse-over-selected='false'] { opacity: 0.7; }
[data-mouse-over-selected='true']  { opacity: 1.0; }
]]>
</style>
<script type="application/ecmascript"><![CDATA[
document.addEventListener('DOMContentLoaded', (event) => {
  highlightEdges();
  highlightAdjacentNodes();
});
]]></script>
</svg>
