<?xml version="1.0" encoding="UTF-8" standalone="no"?>
<!DOCTYPE svg PUBLIC "-//W3C//DTD SVG 1.1//EN"
 "http://www.w3.org/Graphics/SVG/1.1/DTD/svg11.dtd">
<!-- Generated by graphviz version 2.43.0 (0)
 -->
<!-- Title: wmtk::components::isotropic_remeshing::IsotropicRemeshing::run Pages: 1 -->
<svg width="421pt" height="56pt"
 viewBox="0.00 0.00 421.00 56.00" xmlns="http://www.w3.org/2000/svg" xmlns:xlink="http://www.w3.org/1999/xlink">
<g id="graph0" class="graph" transform="scale(1 1) rotate(0) translate(4 52)">
<title>wmtk::components::isotropic_remeshing::IsotropicRemeshing::run</title>
<!-- Node1 -->
<g id="Node000001" class="node">
<title>Node1</title>
<g id="a_Node000001"><a xlink:title=" ">
<polygon fill="#999999" stroke="#666666" points="413,-30 215,-30 215,0 413,0 413,-30"/>
<text text-anchor="start" x="223" y="-18" font-family="Helvetica,sans-Serif" font-size="10.00">wmtk::components::isotropic</text>
<text text-anchor="middle" x="314" y="-7" font-family="Helvetica,sans-Serif" font-size="10.00">_remeshing::IsotropicRemeshing::run</text>
</a>
</g>
</g>
<!-- Node1&#45;&gt;Node1 -->
<g id="edge3_Node000001_Node000001" class="edge">
<title>Node1&#45;&gt;Node1</title>
<g id="a_edge3_Node000001_Node000001"><a xlink:title=" ">
<path fill="none" stroke="#63b8ff" d="M353.21,-40.6C347.85,-44.97 334.78,-48 314,-48 279,-48 265.88,-39.41 274.62,-30.28"/>
<polygon fill="#63b8ff" stroke="#63b8ff" points="356.71,-40.33 353.38,-30.28 349.71,-40.22 356.71,-40.33"/>
</a>
</g>
</g>
<!-- Node2 -->
<g id="Node000002" class="node">
<title>Node2</title>
<g id="a_Node000002"><a xlink:href="namespacewmtk_1_1components_1_1isotropic__remeshing.html#a5bcab5e634086e092020a2edb03a010b" target="_top" xlink:title=" ">
<polygon fill="white" stroke="#666666" points="179,-30 0,-30 0,0 179,0 179,-30"/>
<text text-anchor="start" x="8" y="-18" font-family="Helvetica,sans-Serif" font-size="10.00">wmtk::components::isotropic</text>
<text text-anchor="middle" x="89.5" y="-7" font-family="Helvetica,sans-Serif" font-size="10.00">_remeshing::isotropic_remeshing</text>
</a>
</g>
</g>
<!-- Node1&#45;&gt;Node2 -->
<g id="edge1_Node000001_Node000002" class="edge">
<title>Node1&#45;&gt;Node2</title>
<g id="a_edge1_Node000001_Node000002"><a xlink:title=" ">
<path fill="none" stroke="#63b8ff" d="M204.71,-15C196.12,-15 187.51,-15 179.09,-15"/>
<polygon fill="#63b8ff" stroke="#63b8ff" points="204.76,-18.5 214.76,-15 204.76,-11.5 204.76,-18.5"/>
</a>
</g>
</g>
<!-- Node2&#45;&gt;Node2 -->
<g id="edge2_Node000002_Node000002" class="edge">
<title>Node2&#45;&gt;Node2</title>
<g id="a_edge2_Node000002_Node000002"><a xlink:title=" ">
<path fill="none" stroke="#63b8ff" d="M128.71,-40.6C123.35,-44.97 110.28,-48 89.5,-48 54.5,-48 41.38,-39.41 50.12,-30.28"/>
<polygon fill="#63b8ff" stroke="#63b8ff" points="132.21,-40.33 128.88,-30.28 125.21,-40.22 132.21,-40.33"/>
</a>
</g>
</g>
</g>
</svg>
