<?xml version="1.0" encoding="UTF-8" standalone="no"?>
<!DOCTYPE svg PUBLIC "-//W3C//DTD SVG 1.1//EN"
 "http://www.w3.org/Graphics/SVG/1.1/DTD/svg11.dtd">
<!-- Generated by graphviz version 2.43.0 (0)
 -->
<!-- Title: wmtk::TriMesh::TriMeshOperationExecutor::collapse_edge_precompute Pages: 1 -->
<svg width="450pt" height="220pt"
 viewBox="0.00 0.00 450.00 219.50" xmlns="http://www.w3.org/2000/svg" xmlns:xlink="http://www.w3.org/1999/xlink">
<g id="graph0" class="graph" transform="scale(1 1) rotate(0) translate(4 215.5)">
<title>wmtk::TriMesh::TriMeshOperationExecutor::collapse_edge_precompute</title>
<!-- Node1 -->
<g id="Node000001" class="node">
<title>Node1</title>
<g id="a_Node000001"><a xlink:title=" ">
<polygon fill="#999999" stroke="#666666" points="198,-126 0,-126 0,-96 198,-96 198,-126"/>
<text text-anchor="start" x="8" y="-114" font-family="Helvetica,sans-Serif" font-size="10.00">wmtk::TriMesh::TriMeshOperation</text>
<text text-anchor="middle" x="99" y="-103" font-family="Helvetica,sans-Serif" font-size="10.00">Executor::collapse_edge_precompute</text>
</a>
</g>
</g>
<!-- Node2 -->
<g id="Node000002" class="node">
<title>Node2</title>
<g id="a_Node000002"><a xlink:href="classwmtk_1_1simplex_1_1_simplex_collection.html#a1e7079b3b75f70dd28c524556cab76cf" target="_top" xlink:title="Add simplex to the collection.">
<polygon fill="white" stroke="#666666" points="442,-211.5 234,-211.5 234,-192.5 442,-192.5 442,-211.5"/>
<text text-anchor="middle" x="338" y="-199.5" font-family="Helvetica,sans-Serif" font-size="10.00">wmtk::simplex::SimplexCollection::add</text>
</a>
</g>
</g>
<!-- Node1&#45;&gt;Node2 -->
<g id="edge1_Node000001_Node000002" class="edge">
<title>Node1&#45;&gt;Node2</title>
<g id="a_edge1_Node000001_Node000002"><a xlink:title=" ">
<path fill="none" stroke="#63b8ff" d="M122.7,-126.05C148.57,-142.51 192.64,-168.47 234,-183 241.89,-185.77 250.27,-188.16 258.71,-190.21"/>
<polygon fill="#63b8ff" stroke="#63b8ff" points="258.09,-193.66 268.62,-192.48 259.65,-186.84 258.09,-193.66"/>
</a>
</g>
</g>
<!-- Node3 -->
<g id="Node000003" class="node">
<title>Node3</title>
<g id="a_Node000003"><a xlink:href="namespacewmtk_1_1simplex.html#ae37e7bd61fb3f9b968b6ce6f9cf6f11f" target="_top" xlink:title=" ">
<polygon fill="white" stroke="#666666" points="401.5,-174 274.5,-174 274.5,-144 401.5,-144 401.5,-174"/>
<text text-anchor="start" x="282.5" y="-162" font-family="Helvetica,sans-Serif" font-size="10.00">wmtk::simplex::closed</text>
<text text-anchor="middle" x="338" y="-151" font-family="Helvetica,sans-Serif" font-size="10.00">_star_iterable</text>
</a>
</g>
</g>
<!-- Node1&#45;&gt;Node3 -->
<g id="edge2_Node000001_Node000003" class="edge">
<title>Node1&#45;&gt;Node3</title>
<g id="a_edge2_Node000001_Node000003"><a xlink:title=" ">
<path fill="none" stroke="#63b8ff" d="M174.34,-126.06C203.12,-131.88 235.95,-138.53 264.55,-144.33"/>
<polygon fill="#63b8ff" stroke="#63b8ff" points="263.98,-147.78 274.48,-146.34 265.37,-140.92 263.98,-147.78"/>
</a>
</g>
</g>
<!-- Node4 -->
<g id="Node000004" class="node">
<title>Node4</title>
<g id="a_Node000004"><a xlink:href="namespacewmtk.html#a5cf45c152e856196bb734c6f48919a24" target="_top" xlink:title="Get a unique integer id corresponding to each primitive type.">
<polygon fill="white" stroke="#666666" points="396,-126 280,-126 280,-96 396,-96 396,-126"/>
<text text-anchor="start" x="288" y="-114" font-family="Helvetica,sans-Serif" font-size="10.00">wmtk::get_primitive</text>
<text text-anchor="middle" x="338" y="-103" font-family="Helvetica,sans-Serif" font-size="10.00">_type_id</text>
</a>
</g>
</g>
<!-- Node1&#45;&gt;Node4 -->
<g id="edge3_Node000001_Node000004" class="edge">
<title>Node1&#45;&gt;Node4</title>
<g id="a_edge3_Node000001_Node000004"><a xlink:title=" ">
<path fill="none" stroke="#63b8ff" d="M198.11,-111C222.07,-111 247.19,-111 269.37,-111"/>
<polygon fill="#63b8ff" stroke="#63b8ff" points="269.67,-114.5 279.67,-111 269.67,-107.5 269.67,-114.5"/>
</a>
</g>
</g>
<!-- Node5 -->
<g id="Node000005" class="node">
<title>Node5</title>
<g id="a_Node000005"><a xlink:href="classwmtk_1_1simplex_1_1_simplex_collection.html#a1973c83eede96b64f422049c6fc52976" target="_top" xlink:title=" ">
<polygon fill="white" stroke="#666666" points="430,-78 246,-78 246,-48 430,-48 430,-78"/>
<text text-anchor="start" x="254" y="-66" font-family="Helvetica,sans-Serif" font-size="10.00">wmtk::simplex::SimplexCollection</text>
<text text-anchor="middle" x="338" y="-55" font-family="Helvetica,sans-Serif" font-size="10.00">::reserve</text>
</a>
</g>
</g>
<!-- Node1&#45;&gt;Node5 -->
<g id="edge4_Node000001_Node000005" class="edge">
<title>Node1&#45;&gt;Node5</title>
<g id="a_edge4_Node000001_Node000005"><a xlink:title=" ">
<path fill="none" stroke="#63b8ff" d="M174.34,-95.94C199.27,-90.9 227.23,-85.23 252.86,-80.04"/>
<polygon fill="#63b8ff" stroke="#63b8ff" points="253.82,-83.42 262.93,-78 252.43,-76.56 253.82,-83.42"/>
</a>
</g>
</g>
<!-- Node6 -->
<g id="Node000006" class="node">
<title>Node6</title>
<g id="a_Node000006"><a xlink:href="namespacewmtk_1_1simplex.html#a0d1ccc8ee1bfbe2657f869c2fb95a699" target="_top" xlink:title=" ">
<polygon fill="white" stroke="#666666" points="417,-30 259,-30 259,0 417,0 417,-30"/>
<text text-anchor="start" x="267" y="-18" font-family="Helvetica,sans-Serif" font-size="10.00">wmtk::simplex::top</text>
<text text-anchor="middle" x="338" y="-7" font-family="Helvetica,sans-Serif" font-size="10.00">_dimension_cofaces_iterable</text>
</a>
</g>
</g>
<!-- Node1&#45;&gt;Node6 -->
<g id="edge5_Node000001_Node000006" class="edge">
<title>Node1&#45;&gt;Node6</title>
<g id="a_edge5_Node000001_Node000006"><a xlink:title=" ">
<path fill="none" stroke="#63b8ff" d="M123.78,-95.71C149.88,-79.54 193.48,-54.3 234,-39 239.86,-36.79 245.99,-34.74 252.21,-32.85"/>
<polygon fill="#63b8ff" stroke="#63b8ff" points="253.4,-36.15 262.04,-30.01 251.46,-29.42 253.4,-36.15"/>
</a>
</g>
</g>
</g>
</svg>
