<?xml version="1.0" encoding="UTF-8" standalone="no"?>
<!DOCTYPE svg PUBLIC "-//W3C//DTD SVG 1.1//EN"
 "http://www.w3.org/Graphics/SVG/1.1/DTD/svg11.dtd">
<!-- Generated by graphviz version 2.43.0 (0)
 -->
<!-- Title: wmtk::operations::EdgeOperationData::request_simplex_indices Pages: 1 -->
<svg width="932pt" height="498pt"
 viewBox="0.00 0.00 932.00 497.50" xmlns="http://www.w3.org/2000/svg" xmlns:xlink="http://www.w3.org/1999/xlink">
<g id="graph0" class="graph" transform="scale(1 1) rotate(0) translate(4 493.5)">
<title>wmtk::operations::EdgeOperationData::request_simplex_indices</title>
<!-- Node1 -->
<g id="Node000001" class="node">
<title>Node1</title>
<g id="a_Node000001"><a xlink:title=" ">
<polygon fill="#999999" stroke="#666666" points="180,-184.5 0,-184.5 0,-154.5 180,-154.5 180,-184.5"/>
<text text-anchor="start" x="8" y="-172.5" font-family="Helvetica,sans-Serif" font-size="10.00">wmtk::operations::EdgeOperation</text>
<text text-anchor="middle" x="90" y="-161.5" font-family="Helvetica,sans-Serif" font-size="10.00">Data::request_simplex_indices</text>
</a>
</g>
</g>
<!-- Node2 -->
<g id="Node000002" class="node">
<title>Node2</title>
<g id="a_Node000002"><a xlink:href="classwmtk_1_1_mesh.html#a420345b64402fcc3b0a2432857606b7a" target="_top" xlink:title=" ">
<polygon fill="white" stroke="#666666" points="348,-416.5 216,-416.5 216,-386.5 348,-386.5 348,-416.5"/>
<text text-anchor="start" x="224" y="-404.5" font-family="Helvetica,sans-Serif" font-size="10.00">wmtk::Mesh::guarantee</text>
<text text-anchor="middle" x="282" y="-393.5" font-family="Helvetica,sans-Serif" font-size="10.00">_more_attributes</text>
</a>
</g>
</g>
<!-- Node1&#45;&gt;Node2 -->
<g id="edge1_Node000001_Node000002" class="edge">
<title>Node1&#45;&gt;Node2</title>
<g id="a_edge1_Node000001_Node000002"><a xlink:title=" ">
<path fill="none" stroke="#63b8ff" d="M103.47,-184.72C135.94,-224.38 223.32,-331.07 262.06,-378.37"/>
<polygon fill="#63b8ff" stroke="#63b8ff" points="259.44,-380.7 268.49,-386.22 264.86,-376.27 259.44,-380.7"/>
</a>
</g>
</g>
<!-- Node7 -->
<g id="Node000007" class="node">
<title>Node7</title>
<g id="a_Node000007"><a xlink:href="namespacewmtk.html#a6a35f11c12436093d26fdd8be6fecc06" target="_top" xlink:title="Retrieves the current logger.">
<polygon fill="white" stroke="#666666" points="506,-19 425,-19 425,0 506,0 506,-19"/>
<text text-anchor="middle" x="465.5" y="-7" font-family="Helvetica,sans-Serif" font-size="10.00">wmtk::logger</text>
</a>
</g>
</g>
<!-- Node1&#45;&gt;Node7 -->
<g id="edge7_Node000001_Node000007" class="edge">
<title>Node1&#45;&gt;Node7</title>
<g id="a_edge7_Node000001_Node000007"><a xlink:title=" ">
<path fill="none" stroke="#63b8ff" d="M180.16,-165.21C243.95,-160.4 322.82,-150.34 348,-129.5 384.71,-99.11 348.49,-60.28 384,-28.5 392.61,-20.8 403.75,-16.06 414.99,-13.18"/>
<polygon fill="#63b8ff" stroke="#63b8ff" points="415.77,-16.6 424.83,-11.11 414.32,-9.75 415.77,-16.6"/>
</a>
</g>
</g>
<!-- Node9 -->
<g id="Node000009" class="node">
<title>Node9</title>
<g id="a_Node000009"><a xlink:href="classwmtk_1_1_mesh.html#ac205d6addf4e76f000c70547253735f0" target="_top" xlink:title=" ">
<polygon fill="white" stroke="#666666" points="341.5,-206.5 222.5,-206.5 222.5,-176.5 341.5,-176.5 341.5,-206.5"/>
<text text-anchor="start" x="230.5" y="-194.5" font-family="Helvetica,sans-Serif" font-size="10.00">wmtk::Mesh::request</text>
<text text-anchor="middle" x="282" y="-183.5" font-family="Helvetica,sans-Serif" font-size="10.00">_simplex_indices</text>
</a>
</g>
</g>
<!-- Node1&#45;&gt;Node9 -->
<g id="edge9_Node000001_Node000009" class="edge">
<title>Node1&#45;&gt;Node9</title>
<g id="a_edge9_Node000001_Node000009"><a xlink:title=" ">
<path fill="none" stroke="#63b8ff" d="M180.16,-179.82C190.93,-181.07 201.81,-182.33 212.23,-183.54"/>
<polygon fill="#63b8ff" stroke="#63b8ff" points="212.14,-187.05 222.47,-184.72 212.94,-180.1 212.14,-187.05"/>
</a>
</g>
</g>
<!-- Node23 -->
<g id="Node000023" class="node">
<title>Node23</title>
<g id="a_Node000023"><a xlink:href="classwmtk_1_1_mesh.html#a933f681cf24a63b155c9462280385200" target="_top" xlink:title=" ">
<polygon fill="white" stroke="#666666" points="342.5,-120.5 221.5,-120.5 221.5,-90.5 342.5,-90.5 342.5,-120.5"/>
<text text-anchor="start" x="229.5" y="-108.5" font-family="Helvetica,sans-Serif" font-size="10.00">wmtk::Mesh::top_cell</text>
<text text-anchor="middle" x="282" y="-97.5" font-family="Helvetica,sans-Serif" font-size="10.00">_dimension</text>
</a>
</g>
</g>
<!-- Node1&#45;&gt;Node23 -->
<g id="edge28_Node000001_Node000023" class="edge">
<title>Node1&#45;&gt;Node23</title>
<g id="a_edge28_Node000001_Node000023"><a xlink:title=" ">
<path fill="none" stroke="#63b8ff" d="M135.55,-154.49C162.84,-145.3 197.97,-133.47 226.86,-123.74"/>
<polygon fill="#63b8ff" stroke="#63b8ff" points="228.04,-127.03 236.4,-120.52 225.81,-120.4 228.04,-127.03"/>
</a>
</g>
</g>
<!-- Node3 -->
<g id="Node000003" class="node">
<title>Node3</title>
<g id="a_Node000003"><a xlink:href="namespacewmtk.html#a5cf45c152e856196bb734c6f48919a24" target="_top" xlink:title="Get a unique integer id corresponding to each primitive type.">
<polygon fill="white" stroke="#666666" points="909,-244.5 793,-244.5 793,-214.5 909,-214.5 909,-244.5"/>
<text text-anchor="start" x="801" y="-232.5" font-family="Helvetica,sans-Serif" font-size="10.00">wmtk::get_primitive</text>
<text text-anchor="middle" x="851" y="-221.5" font-family="Helvetica,sans-Serif" font-size="10.00">_type_id</text>
</a>
</g>
</g>
<!-- Node2&#45;&gt;Node3 -->
<g id="edge2_Node000002_Node000003" class="edge">
<title>Node2&#45;&gt;Node3</title>
<g id="a_edge2_Node000002_Node000003"><a xlink:title=" ">
<path fill="none" stroke="#63b8ff" d="M348.17,-404.64C440.92,-406.36 613.92,-399.3 742,-333.5 779.9,-314.03 813.49,-276.93 832.79,-252.72"/>
<polygon fill="#63b8ff" stroke="#63b8ff" points="835.62,-254.78 839,-244.74 830.09,-250.48 835.62,-254.78"/>
</a>
</g>
</g>
<!-- Node4 -->
<g id="Node000004" class="node">
<title>Node4</title>
<g id="a_Node000004"><a xlink:href="classwmtk_1_1attribute_1_1_attribute_manager.html#aa140b8ac06fd93c15a7de9a1feaf3c39" target="_top" xlink:title=" ">
<polygon fill="white" stroke="#666666" points="538.5,-471 392.5,-471 392.5,-430 538.5,-430 538.5,-471"/>
<text text-anchor="start" x="400.5" y="-459" font-family="Helvetica,sans-Serif" font-size="10.00">wmtk::attribute::Attribute</text>
<text text-anchor="start" x="400.5" y="-448" font-family="Helvetica,sans-Serif" font-size="10.00">Manager::guarantee_more</text>
<text text-anchor="middle" x="465.5" y="-437" font-family="Helvetica,sans-Serif" font-size="10.00">_attributes</text>
</a>
</g>
</g>
<!-- Node2&#45;&gt;Node4 -->
<g id="edge3_Node000002_Node000004" class="edge">
<title>Node2&#45;&gt;Node4</title>
<g id="a_edge3_Node000002_Node000004"><a xlink:title=" ">
<path fill="none" stroke="#63b8ff" d="M338.94,-416.6C352.78,-420.34 367.89,-424.42 382.69,-428.41"/>
<polygon fill="#63b8ff" stroke="#63b8ff" points="381.78,-431.79 392.35,-431.02 383.61,-425.04 381.78,-431.79"/>
</a>
</g>
</g>
<!-- Node5 -->
<g id="Node000005" class="node">
<title>Node5</title>
<g id="a_Node000005"><a xlink:href="classwmtk_1_1attribute_1_1_attribute_manager.html#a32f252ac2ef6296a6440030f5e1d2c4f" target="_top" xlink:title=" ">
<polygon fill="white" stroke="#666666" points="742,-471 583,-471 583,-430 742,-430 742,-471"/>
<text text-anchor="start" x="591" y="-459" font-family="Helvetica,sans-Serif" font-size="10.00">wmtk::attribute::Attribute</text>
<text text-anchor="start" x="591" y="-448" font-family="Helvetica,sans-Serif" font-size="10.00">Manager::guarantee_at_least</text>
<text text-anchor="middle" x="662.5" y="-437" font-family="Helvetica,sans-Serif" font-size="10.00">_attributes</text>
</a>
</g>
</g>
<!-- Node4&#45;&gt;Node5 -->
<g id="edge4_Node000004_Node000005" class="edge">
<title>Node4&#45;&gt;Node5</title>
<g id="a_edge4_Node000004_Node000005"><a xlink:title=" ">
<path fill="none" stroke="#63b8ff" d="M538.56,-450.5C549.72,-450.5 561.36,-450.5 572.83,-450.5"/>
<polygon fill="#63b8ff" stroke="#63b8ff" points="572.85,-454 582.85,-450.5 572.85,-447 572.85,-454"/>
</a>
</g>
</g>
<!-- Node6 -->
<g id="Node000006" class="node">
<title>Node6</title>
<g id="a_Node000006"><a xlink:href="classwmtk_1_1attribute_1_1_attribute_manager.html#a87216c73c02b436c7f965faa52553f56" target="_top" xlink:title=" ">
<polygon fill="white" stroke="#666666" points="921.5,-489.5 780.5,-489.5 780.5,-459.5 921.5,-459.5 921.5,-489.5"/>
<text text-anchor="start" x="788.5" y="-477.5" font-family="Helvetica,sans-Serif" font-size="10.00">wmtk::attribute::Attribute</text>
<text text-anchor="middle" x="851" y="-466.5" font-family="Helvetica,sans-Serif" font-size="10.00">Manager::size</text>
</a>
</g>
</g>
<!-- Node4&#45;&gt;Node6 -->
<g id="edge6_Node000004_Node000006" class="edge">
<title>Node4&#45;&gt;Node6</title>
<g id="a_edge6_Node000004_Node000006"><a xlink:title=" ">
<path fill="none" stroke="#63b8ff" d="M534.32,-471.03C550.15,-474.96 567.05,-478.48 583,-480.5 645.55,-488.42 716.99,-486.24 770.22,-482.44"/>
<polygon fill="#63b8ff" stroke="#63b8ff" points="770.57,-485.93 780.28,-481.69 770.04,-478.95 770.57,-485.93"/>
</a>
</g>
</g>
<!-- Node5&#45;&gt;Node6 -->
<g id="edge5_Node000005_Node000006" class="edge">
<title>Node5&#45;&gt;Node6</title>
<g id="a_edge5_Node000005_Node000006"><a xlink:title=" ">
<path fill="none" stroke="#63b8ff" d="M742.05,-460.61C751.41,-461.81 760.97,-463.04 770.34,-464.25"/>
<polygon fill="#63b8ff" stroke="#63b8ff" points="770.06,-467.74 780.42,-465.55 770.95,-460.8 770.06,-467.74"/>
</a>
</g>
</g>
<!-- Node8 -->
<g id="Node000008" class="node">
<title>Node8</title>
<g id="a_Node000008"><a xlink:href="namespacewmtk.html#a3daa7951a5f8b78cf4600dc047fcc180" target="_top" xlink:title="Setup a logger object to be used by WildmeshToolkit.">
<polygon fill="white" stroke="#666666" points="713,-19 612,-19 612,0 713,0 713,-19"/>
<text text-anchor="middle" x="662.5" y="-7" font-family="Helvetica,sans-Serif" font-size="10.00">wmtk::set_logger</text>
</a>
</g>
</g>
<!-- Node7&#45;&gt;Node8 -->
<g id="edge8_Node000007_Node000008" class="edge">
<title>Node7&#45;&gt;Node8</title>
<g id="a_edge8_Node000007_Node000008"><a xlink:title=" ">
<path fill="none" stroke="#63b8ff" d="M506.43,-9.5C533.86,-9.5 570.76,-9.5 601.69,-9.5"/>
<polygon fill="#63b8ff" stroke="#63b8ff" points="601.92,-13 611.92,-9.5 601.92,-6 601.92,-13"/>
</a>
</g>
</g>
<!-- Node9&#45;&gt;Node3 -->
<g id="edge22_Node000009_Node000003" class="edge">
<title>Node9&#45;&gt;Node3</title>
<g id="a_edge22_Node000009_Node000003"><a xlink:title=" ">
<path fill="none" stroke="#63b8ff" d="M341.51,-191.44C428.92,-191.91 598.68,-195 742,-210.5 755.2,-211.93 769.22,-213.99 782.63,-216.23"/>
<polygon fill="#63b8ff" stroke="#63b8ff" points="782.3,-219.72 792.75,-217.97 783.49,-212.82 782.3,-219.72"/>
</a>
</g>
</g>
<!-- Node9&#45;&gt;Node7 -->
<g id="edge24_Node000009_Node000007" class="edge">
<title>Node9&#45;&gt;Node7</title>
<g id="a_edge24_Node000009_Node000007"><a xlink:title=" ">
<path fill="none" stroke="#63b8ff" d="M330.5,-176.45C337.06,-172.73 343.19,-168.14 348,-162.5 388.05,-115.61 339.73,-71.43 384,-28.5 392.37,-20.38 403.53,-15.5 414.87,-12.62"/>
<polygon fill="#63b8ff" stroke="#63b8ff" points="415.73,-16.02 424.82,-10.58 414.32,-9.16 415.73,-16.02"/>
</a>
</g>
</g>
<!-- Node10 -->
<g id="Node000010" class="node">
<title>Node10</title>
<g id="a_Node000010"><a xlink:href="classwmtk_1_1attribute_1_1_index_flag_accessor.html#a95874b259daee031cd8bb3635ada83d5" target="_top" xlink:title=" ">
<polygon fill="white" stroke="#666666" points="538.5,-115.5 392.5,-115.5 392.5,-85.5 538.5,-85.5 538.5,-115.5"/>
<text text-anchor="start" x="400.5" y="-103.5" font-family="Helvetica,sans-Serif" font-size="10.00">wmtk::attribute::IndexFlag</text>
<text text-anchor="middle" x="465.5" y="-92.5" font-family="Helvetica,sans-Serif" font-size="10.00">Accessor::activate</text>
</a>
</g>
</g>
<!-- Node9&#45;&gt;Node10 -->
<g id="edge10_Node000009_Node000010" class="edge">
<title>Node9&#45;&gt;Node10</title>
<g id="a_edge10_Node000009_Node000010"><a xlink:title=" ">
<path fill="none" stroke="#63b8ff" d="M323.53,-176.38C331.96,-172.44 340.54,-167.78 348,-162.5 366.99,-149.06 364.18,-136.68 384,-124.5 386.8,-122.78 389.72,-121.18 392.73,-119.69"/>
<polygon fill="#63b8ff" stroke="#63b8ff" points="394.3,-122.82 401.98,-115.53 391.43,-116.44 394.3,-122.82"/>
</a>
</g>
</g>
<!-- Node15 -->
<g id="Node000015" class="node">
<title>Node15</title>
<g id="a_Node000015"><a xlink:href="classwmtk_1_1attribute_1_1_flag_accessor.html#a37e882007dc57e3571c18163a709a246" target="_top" xlink:title=" ">
<polygon fill="white" stroke="#666666" points="547,-335.5 384,-335.5 384,-305.5 547,-305.5 547,-335.5"/>
<text text-anchor="start" x="392" y="-323.5" font-family="Helvetica,sans-Serif" font-size="10.00">wmtk::attribute::FlagAccessor</text>
<text text-anchor="middle" x="465.5" y="-312.5" font-family="Helvetica,sans-Serif" font-size="10.00">::base_accessor</text>
</a>
</g>
</g>
<!-- Node9&#45;&gt;Node15 -->
<g id="edge15_Node000009_Node000015" class="edge">
<title>Node9&#45;&gt;Node15</title>
<g id="a_edge15_Node000009_Node000015"><a xlink:title=" ">
<path fill="none" stroke="#63b8ff" d="M293.58,-206.74C310.22,-229.58 344.69,-272.55 384,-296.5 386.8,-298.21 389.73,-299.8 392.75,-301.29"/>
<polygon fill="#63b8ff" stroke="#63b8ff" points="391.45,-304.54 402.01,-305.42 394.31,-298.15 391.45,-304.54"/>
</a>
</g>
</g>
<!-- Node16 -->
<g id="Node000016" class="node">
<title>Node16</title>
<g id="a_Node000016"><a xlink:href="classwmtk_1_1_mesh.html#a3e8ff83c4a5526a40d18bb9883c6c6c9" target="_top" xlink:title="read in the m_capacities return the upper bound for the number of entities of the given dimension">
<polygon fill="white" stroke="#666666" points="724.5,-325 600.5,-325 600.5,-306 724.5,-306 724.5,-325"/>
<text text-anchor="middle" x="662.5" y="-313" font-family="Helvetica,sans-Serif" font-size="10.00">wmtk::Mesh::capacity</text>
</a>
</g>
</g>
<!-- Node9&#45;&gt;Node16 -->
<g id="edge16_Node000009_Node000016" class="edge">
<title>Node9&#45;&gt;Node16</title>
<g id="a_edge16_Node000009_Node000016"><a xlink:title=" ">
<path fill="none" stroke="#63b8ff" d="M287.66,-206.9C298.43,-239.44 328.5,-314.64 384,-344.5 464.95,-388.06 578.37,-351.1 631.64,-329.07"/>
<polygon fill="#63b8ff" stroke="#63b8ff" points="633.34,-332.15 641.17,-325.02 630.6,-325.71 633.34,-332.15"/>
</a>
</g>
</g>
<!-- Node17 -->
<g id="Node000017" class="node">
<title>Node17</title>
<g id="a_Node000017"><a xlink:href="classwmtk_1_1_mesh.html#ae3493915b766f0f34f0a9e89603d5773" target="_top" xlink:title=" ">
<polygon fill="white" stroke="#666666" points="526.5,-163.5 404.5,-163.5 404.5,-133.5 526.5,-133.5 526.5,-163.5"/>
<text text-anchor="start" x="412.5" y="-151.5" font-family="Helvetica,sans-Serif" font-size="10.00">wmtk::Mesh::get_flag</text>
<text text-anchor="middle" x="465.5" y="-140.5" font-family="Helvetica,sans-Serif" font-size="10.00">_accessor</text>
</a>
</g>
</g>
<!-- Node9&#45;&gt;Node17 -->
<g id="edge18_Node000009_Node000017" class="edge">
<title>Node9&#45;&gt;Node17</title>
<g id="a_edge18_Node000009_Node000017"><a xlink:title=" ">
<path fill="none" stroke="#63b8ff" d="M341.68,-177.6C358.47,-173.62 376.95,-169.24 394.36,-165.12"/>
<polygon fill="#63b8ff" stroke="#63b8ff" points="395.54,-168.43 404.47,-162.72 393.93,-161.62 395.54,-168.43"/>
</a>
</g>
</g>
<!-- Node20 -->
<g id="Node000020" class="node">
<title>Node20</title>
<g id="a_Node000020"><a xlink:href="classwmtk_1_1attribute_1_1_flag_accessor.html#a4f49a666c3811fee9b841c1cd1f66250" target="_top" xlink:title=" ">
<polygon fill="white" stroke="#666666" points="547,-287.5 384,-287.5 384,-257.5 547,-257.5 547,-287.5"/>
<text text-anchor="start" x="392" y="-275.5" font-family="Helvetica,sans-Serif" font-size="10.00">wmtk::attribute::FlagAccessor</text>
<text text-anchor="middle" x="465.5" y="-264.5" font-family="Helvetica,sans-Serif" font-size="10.00">::index_access</text>
</a>
</g>
</g>
<!-- Node9&#45;&gt;Node20 -->
<g id="edge23_Node000009_Node000020" class="edge">
<title>Node9&#45;&gt;Node20</title>
<g id="a_edge23_Node000009_Node000020"><a xlink:title=" ">
<path fill="none" stroke="#63b8ff" d="M309.97,-206.6C330.06,-217.54 358.32,-232.32 384,-243.5 392.3,-247.11 401.21,-250.65 409.98,-253.94"/>
<polygon fill="#63b8ff" stroke="#63b8ff" points="408.79,-257.24 419.39,-257.41 411.21,-250.67 408.79,-257.24"/>
</a>
</g>
</g>
<!-- Node21 -->
<g id="Node000021" class="node">
<title>Node21</title>
<g id="a_Node000021"><a xlink:href="namespacewmtk.html#a339897f6efeb23a997750141f12892ee" target="_top" xlink:title=" ">
<polygon fill="white" stroke="#666666" points="740,-239 585,-239 585,-220 740,-220 740,-239"/>
<text text-anchor="middle" x="662.5" y="-227" font-family="Helvetica,sans-Serif" font-size="10.00">wmtk::primitive_type_name</text>
</a>
</g>
</g>
<!-- Node9&#45;&gt;Node21 -->
<g id="edge25_Node000009_Node000021" class="edge">
<title>Node9&#45;&gt;Node21</title>
<g id="a_edge25_Node000009_Node000021"><a xlink:title=" ">
<path fill="none" stroke="#63b8ff" d="M341.68,-200.15C355.54,-202.05 370.28,-203.96 384,-205.5 447.79,-212.67 520.03,-218.86 574.81,-223.16"/>
<polygon fill="#63b8ff" stroke="#63b8ff" points="574.59,-226.65 584.83,-223.94 575.14,-219.67 574.59,-226.65"/>
</a>
</g>
</g>
<!-- Node22 -->
<g id="Node000022" class="node">
<title>Node22</title>
<g id="a_Node000022"><a xlink:href="classwmtk_1_1attribute_1_1_accessor.html#aab6226c738fe344ae993a7558c6de3dd" target="_top" xlink:title=" ">
<polygon fill="white" stroke="#666666" points="536.5,-67.5 394.5,-67.5 394.5,-37.5 536.5,-37.5 536.5,-67.5"/>
<text text-anchor="start" x="402.5" y="-55.5" font-family="Helvetica,sans-Serif" font-size="10.00">wmtk::attribute::Accessor</text>
<text text-anchor="middle" x="465.5" y="-44.5" font-family="Helvetica,sans-Serif" font-size="10.00">::reserved_size</text>
</a>
</g>
</g>
<!-- Node9&#45;&gt;Node22 -->
<g id="edge27_Node000009_Node000022" class="edge">
<title>Node9&#45;&gt;Node22</title>
<g id="a_edge27_Node000009_Node000022"><a xlink:title=" ">
<path fill="none" stroke="#63b8ff" d="M328.85,-176.4C335.86,-172.65 342.56,-168.07 348,-162.5 376.96,-132.86 353.18,-104.2 384,-76.5 385.31,-75.33 386.67,-74.21 388.07,-73.15"/>
<polygon fill="#63b8ff" stroke="#63b8ff" points="390.09,-76.01 396.59,-67.65 386.29,-70.13 390.09,-76.01"/>
</a>
</g>
</g>
<!-- Node11 -->
<g id="Node000011" class="node">
<title>Node11</title>
<g id="a_Node000011"><a xlink:href="classwmtk_1_1attribute_1_1_index_flag_accessor.html#af06d8fe6a9f16a0b9ac09e6eae9e797d" target="_top" xlink:title=" ">
<polygon fill="white" stroke="#666666" points="735.5,-115.5 589.5,-115.5 589.5,-85.5 735.5,-85.5 735.5,-115.5"/>
<text text-anchor="start" x="597.5" y="-103.5" font-family="Helvetica,sans-Serif" font-size="10.00">wmtk::attribute::IndexFlag</text>
<text text-anchor="middle" x="662.5" y="-92.5" font-family="Helvetica,sans-Serif" font-size="10.00">Accessor::_activate</text>
</a>
</g>
</g>
<!-- Node10&#45;&gt;Node11 -->
<g id="edge11_Node000010_Node000011" class="edge">
<title>Node10&#45;&gt;Node11</title>
<g id="a_edge11_Node000010_Node000011"><a xlink:title=" ">
<path fill="none" stroke="#63b8ff" d="M538.56,-100.5C551.78,-100.5 565.68,-100.5 579.18,-100.5"/>
<polygon fill="#63b8ff" stroke="#63b8ff" points="579.41,-104 589.41,-100.5 579.41,-97 579.41,-104"/>
</a>
</g>
</g>
<!-- Node12 -->
<g id="Node000012" class="node">
<title>Node12</title>
<g id="a_Node000012"><a xlink:href="classwmtk_1_1attribute_1_1_index_flag_accessor.html#a209b3c34d677a60d321806e30da8d287" target="_top" xlink:title=" ">
<polygon fill="white" stroke="#666666" points="735.5,-67.5 589.5,-67.5 589.5,-37.5 735.5,-37.5 735.5,-67.5"/>
<text text-anchor="start" x="597.5" y="-55.5" font-family="Helvetica,sans-Serif" font-size="10.00">wmtk::attribute::IndexFlag</text>
<text text-anchor="middle" x="662.5" y="-44.5" font-family="Helvetica,sans-Serif" font-size="10.00">Accessor::attribute</text>
</a>
</g>
</g>
<!-- Node10&#45;&gt;Node12 -->
<g id="edge12_Node000010_Node000012" class="edge">
<title>Node10&#45;&gt;Node12</title>
<g id="a_edge12_Node000010_Node000012"><a xlink:title=" ">
<path fill="none" stroke="#63b8ff" d="M527.66,-85.44C547.63,-80.53 569.97,-75.03 590.59,-69.96"/>
<polygon fill="#63b8ff" stroke="#63b8ff" points="591.68,-73.29 600.55,-67.5 590.01,-66.49 591.68,-73.29"/>
</a>
</g>
</g>
<!-- Node13 -->
<g id="Node000013" class="node">
<title>Node13</title>
<g id="a_Node000013"><a xlink:href="classwmtk_1_1attribute_1_1_accessor.html#aaeafc36889f90d4e4e9478f998d240d7" target="_top" xlink:title=" ">
<polygon fill="white" stroke="#666666" points="922,-91.5 780,-91.5 780,-61.5 922,-61.5 922,-91.5"/>
<text text-anchor="start" x="788" y="-79.5" font-family="Helvetica,sans-Serif" font-size="10.00">wmtk::attribute::Accessor</text>
<text text-anchor="middle" x="851" y="-68.5" font-family="Helvetica,sans-Serif" font-size="10.00">::attribute</text>
</a>
</g>
</g>
<!-- Node12&#45;&gt;Node13 -->
<g id="edge13_Node000012_Node000013" class="edge">
<title>Node12&#45;&gt;Node13</title>
<g id="a_edge13_Node000012_Node000013"><a xlink:title=" ">
<path fill="none" stroke="#63b8ff" d="M735.61,-61.78C746.86,-63.23 758.56,-64.73 769.98,-66.2"/>
<polygon fill="#63b8ff" stroke="#63b8ff" points="769.56,-69.68 779.93,-67.48 770.45,-62.73 769.56,-69.68"/>
</a>
</g>
</g>
<!-- Node14 -->
<g id="Node000014" class="node">
<title>Node14</title>
<g id="a_Node000014"><a xlink:href="classwmtk_1_1attribute_1_1_index_flag_accessor.html#a37e882007dc57e3571c18163a709a246" target="_top" xlink:title=" ">
<polygon fill="white" stroke="#666666" points="924,-43.5 778,-43.5 778,-13.5 924,-13.5 924,-43.5"/>
<text text-anchor="start" x="786" y="-31.5" font-family="Helvetica,sans-Serif" font-size="10.00">wmtk::attribute::IndexFlag</text>
<text text-anchor="middle" x="851" y="-20.5" font-family="Helvetica,sans-Serif" font-size="10.00">Accessor::base_accessor</text>
</a>
</g>
</g>
<!-- Node12&#45;&gt;Node14 -->
<g id="edge14_Node000012_Node000014" class="edge">
<title>Node12&#45;&gt;Node14</title>
<g id="a_edge14_Node000012_Node000014"><a xlink:title=" ">
<path fill="none" stroke="#63b8ff" d="M735.61,-43.22C746.09,-41.87 756.96,-40.47 767.63,-39.1"/>
<polygon fill="#63b8ff" stroke="#63b8ff" points="768.31,-42.54 777.78,-37.79 767.41,-35.6 768.31,-42.54"/>
</a>
</g>
</g>
<!-- Node16&#45;&gt;Node3 -->
<g id="edge17_Node000016_Node000003" class="edge">
<title>Node16&#45;&gt;Node3</title>
<g id="a_edge17_Node000016_Node000003"><a xlink:title=" ">
<path fill="none" stroke="#63b8ff" d="M684.17,-305.97C713.9,-292.26 769.38,-266.68 807.93,-248.9"/>
<polygon fill="#63b8ff" stroke="#63b8ff" points="809.73,-251.92 817.35,-244.56 806.8,-245.57 809.73,-251.92"/>
</a>
</g>
</g>
<!-- Node18 -->
<g id="Node000018" class="node">
<title>Node18</title>
<g id="a_Node000018"><a xlink:href="classwmtk_1_1_mesh.html#acfa981b31f00aef4438ff5e73bbce2f4" target="_top" xlink:title=" ">
<polygon fill="white" stroke="#666666" points="727.5,-163.5 597.5,-163.5 597.5,-133.5 727.5,-133.5 727.5,-163.5"/>
<text text-anchor="start" x="605.5" y="-151.5" font-family="Helvetica,sans-Serif" font-size="10.00">wmtk::Mesh::get_const</text>
<text text-anchor="middle" x="662.5" y="-140.5" font-family="Helvetica,sans-Serif" font-size="10.00">_flag_accessor</text>
</a>
</g>
</g>
<!-- Node17&#45;&gt;Node18 -->
<g id="edge19_Node000017_Node000018" class="edge">
<title>Node17&#45;&gt;Node18</title>
<g id="a_edge19_Node000017_Node000018"><a xlink:title=" ">
<path fill="none" stroke="#63b8ff" d="M526.6,-148.5C545.74,-148.5 567.16,-148.5 587.19,-148.5"/>
<polygon fill="#63b8ff" stroke="#63b8ff" points="587.2,-152 597.2,-148.5 587.2,-145 587.2,-152"/>
</a>
</g>
</g>
<!-- Node18&#45;&gt;Node3 -->
<g id="edge21_Node000018_Node000003" class="edge">
<title>Node18&#45;&gt;Node3</title>
<g id="a_edge21_Node000018_Node000003"><a xlink:title=" ">
<path fill="none" stroke="#63b8ff" d="M706.57,-163.57C718.16,-167.86 730.63,-172.68 742,-177.5 765.42,-187.44 791.11,-199.75 811.55,-209.89"/>
<polygon fill="#63b8ff" stroke="#63b8ff" points="810.04,-213.05 820.55,-214.39 813.17,-206.79 810.04,-213.05"/>
</a>
</g>
</g>
<!-- Node19 -->
<g id="Node000019" class="node">
<title>Node19</title>
<g id="a_Node000019"><a xlink:href="classwmtk_1_1_mesh.html#a4cd7e6ca59d8d58cc7057c13bd190d57" target="_top" xlink:title=" ">
<polygon fill="white" stroke="#666666" points="907.5,-163.5 794.5,-163.5 794.5,-133.5 907.5,-133.5 907.5,-163.5"/>
<text text-anchor="start" x="802.5" y="-151.5" font-family="Helvetica,sans-Serif" font-size="10.00">wmtk::Mesh::create</text>
<text text-anchor="middle" x="851" y="-140.5" font-family="Helvetica,sans-Serif" font-size="10.00">_const_accessor</text>
</a>
</g>
</g>
<!-- Node18&#45;&gt;Node19 -->
<g id="edge20_Node000018_Node000019" class="edge">
<title>Node18&#45;&gt;Node19</title>
<g id="a_edge20_Node000018_Node000019"><a xlink:title=" ">
<path fill="none" stroke="#63b8ff" d="M727.68,-148.5C746,-148.5 765.97,-148.5 784.37,-148.5"/>
<polygon fill="#63b8ff" stroke="#63b8ff" points="784.41,-152 794.41,-148.5 784.41,-145 784.41,-152"/>
</a>
</g>
</g>
<!-- Node21&#45;&gt;Node3 -->
<g id="edge26_Node000021_Node000003" class="edge">
<title>Node21&#45;&gt;Node3</title>
<g id="a_edge26_Node000021_Node000003"><a xlink:title=" ">
<path fill="none" stroke="#63b8ff" d="M740.16,-229.5C754.17,-229.5 768.7,-229.5 782.42,-229.5"/>
<polygon fill="#63b8ff" stroke="#63b8ff" points="782.74,-233 792.74,-229.5 782.74,-226 782.74,-233"/>
</a>
</g>
</g>
</g>
</svg>
