<?xml version="1.0" encoding="UTF-8" standalone="no"?>
<!DOCTYPE svg PUBLIC "-//W3C//DTD SVG 1.1//EN"
 "http://www.w3.org/Graphics/SVG/1.1/DTD/svg11.dtd">
<!-- Generated by graphviz version 2.43.0 (0)
 -->
<!-- Title: wmtk::attribute::AttributeManager::guarantee_more_attributes Pages: 1 -->
<svg width="552pt" height="146pt"
 viewBox="0.00 0.00 552.00 145.50" xmlns="http://www.w3.org/2000/svg" xmlns:xlink="http://www.w3.org/1999/xlink">
<g id="graph0" class="graph" transform="scale(1 1) rotate(0) translate(4 141.5)">
<title>wmtk::attribute::AttributeManager::guarantee_more_attributes</title>
<!-- Node1 -->
<g id="Node000001" class="node">
<title>Node1</title>
<g id="a_Node000001"><a xlink:title=" ">
<polygon fill="#999999" stroke="#666666" points="544,-83.5 398,-83.5 398,-42.5 544,-42.5 544,-83.5"/>
<text text-anchor="start" x="406" y="-71.5" font-family="Helvetica,sans-Serif" font-size="10.00">wmtk::attribute::Attribute</text>
<text text-anchor="start" x="406" y="-60.5" font-family="Helvetica,sans-Serif" font-size="10.00">Manager::guarantee_more</text>
<text text-anchor="middle" x="471" y="-49.5" font-family="Helvetica,sans-Serif" font-size="10.00">_attributes</text>
</a>
</g>
</g>
<!-- Node2 -->
<g id="Node000002" class="node">
<title>Node2</title>
<g id="a_Node000002"><a xlink:href="classwmtk_1_1attribute_1_1_attribute_manager.html#ac2e8c8895856f9e4d3103caa55ea078f" target="_top" xlink:title=" ">
<polygon fill="white" stroke="#666666" points="362,-137.5 216,-137.5 216,-96.5 362,-96.5 362,-137.5"/>
<text text-anchor="start" x="224" y="-125.5" font-family="Helvetica,sans-Serif" font-size="10.00">wmtk::attribute::Attribute</text>
<text text-anchor="start" x="224" y="-114.5" font-family="Helvetica,sans-Serif" font-size="10.00">Manager::guarantee_more</text>
<text text-anchor="middle" x="289" y="-103.5" font-family="Helvetica,sans-Serif" font-size="10.00">_attributes</text>
</a>
</g>
</g>
<!-- Node1&#45;&gt;Node2 -->
<g id="edge1_Node000001_Node000002" class="edge">
<title>Node1&#45;&gt;Node2</title>
<g id="a_edge1_Node000001_Node000002"><a xlink:title=" ">
<path fill="none" stroke="#63b8ff" d="M391.75,-86.48C380.64,-89.81 369.28,-93.22 358.37,-96.49"/>
<polygon fill="#63b8ff" stroke="#63b8ff" points="392.86,-89.8 401.44,-83.57 390.85,-83.09 392.86,-89.8"/>
</a>
</g>
</g>
<!-- Node3 -->
<g id="Node000003" class="node">
<title>Node3</title>
<g id="a_Node000003"><a xlink:href="classwmtk_1_1_mesh.html#a2d2027cb4b70a75350f147fed7a373f9" target="_top" xlink:title=" ">
<polygon fill="white" stroke="#666666" points="355,-78 223,-78 223,-48 355,-48 355,-78"/>
<text text-anchor="start" x="231" y="-66" font-family="Helvetica,sans-Serif" font-size="10.00">wmtk::Mesh::guarantee</text>
<text text-anchor="middle" x="289" y="-55" font-family="Helvetica,sans-Serif" font-size="10.00">_more_attributes</text>
</a>
</g>
</g>
<!-- Node1&#45;&gt;Node3 -->
<g id="edge2_Node000001_Node000003" class="edge">
<title>Node1&#45;&gt;Node3</title>
<g id="a_edge2_Node000001_Node000003"><a xlink:title=" ">
<path fill="none" stroke="#63b8ff" d="M387.51,-63C376.67,-63 365.7,-63 355.21,-63"/>
<polygon fill="#63b8ff" stroke="#63b8ff" points="387.82,-66.5 397.82,-63 387.82,-59.5 387.82,-66.5"/>
</a>
</g>
</g>
<!-- Node4 -->
<g id="Node000004" class="node">
<title>Node4</title>
<g id="a_Node000004"><a xlink:href="classwmtk_1_1_mesh.html#a420345b64402fcc3b0a2432857606b7a" target="_top" xlink:title=" ">
<polygon fill="white" stroke="#666666" points="355,-30 223,-30 223,0 355,0 355,-30"/>
<text text-anchor="start" x="231" y="-18" font-family="Helvetica,sans-Serif" font-size="10.00">wmtk::Mesh::guarantee</text>
<text text-anchor="middle" x="289" y="-7" font-family="Helvetica,sans-Serif" font-size="10.00">_more_attributes</text>
</a>
</g>
</g>
<!-- Node1&#45;&gt;Node4 -->
<g id="edge3_Node000001_Node000004" class="edge">
<title>Node1&#45;&gt;Node4</title>
<g id="a_edge3_Node000001_Node000004"><a xlink:title=" ">
<path fill="none" stroke="#63b8ff" d="M388.12,-41.17C374.01,-37.4 359.64,-33.57 346.4,-30.04"/>
<polygon fill="#63b8ff" stroke="#63b8ff" points="387.26,-44.56 397.82,-43.75 389.06,-37.79 387.26,-44.56"/>
</a>
</g>
</g>
<!-- Node5 -->
<g id="Node000005" class="node">
<title>Node5</title>
<g id="a_Node000005"><a xlink:href="classwmtk_1_1operations_1_1_edge_operation_data.html#a80ea6d5059989a2d093179a0dbd2556d" target="_top" xlink:title=" ">
<polygon fill="white" stroke="#666666" points="180,-30 0,-30 0,0 180,0 180,-30"/>
<text text-anchor="start" x="8" y="-18" font-family="Helvetica,sans-Serif" font-size="10.00">wmtk::operations::EdgeOperation</text>
<text text-anchor="middle" x="90" y="-7" font-family="Helvetica,sans-Serif" font-size="10.00">Data::request_simplex_indices</text>
</a>
</g>
</g>
<!-- Node4&#45;&gt;Node5 -->
<g id="edge4_Node000004_Node000005" class="edge">
<title>Node4&#45;&gt;Node5</title>
<g id="a_edge4_Node000004_Node000005"><a xlink:title=" ">
<path fill="none" stroke="#63b8ff" d="M212.86,-15C202.2,-15 191.14,-15 180.24,-15"/>
<polygon fill="#63b8ff" stroke="#63b8ff" points="212.95,-18.5 222.95,-15 212.95,-11.5 212.95,-18.5"/>
</a>
</g>
</g>
</g>
</svg>
