<?xml version="1.0" encoding="UTF-8" standalone="no"?>
<!DOCTYPE svg PUBLIC "-//W3C//DTD SVG 1.1//EN"
 "http://www.w3.org/Graphics/SVG/1.1/DTD/svg11.dtd">
<!-- Generated by graphviz version 2.43.0 (0)
 -->
<!-- Title: wmtk::Mesh::get_all_meshes Pages: 1 -->
<svg width="760pt" height="163pt"
 viewBox="0.00 0.00 760.00 162.50" xmlns="http://www.w3.org/2000/svg" xmlns:xlink="http://www.w3.org/1999/xlink">
<g id="graph0" class="graph" transform="scale(1 1) rotate(0) translate(4 158.5)">
<title>wmtk::Mesh::get_all_meshes</title>
<!-- Node1 -->
<g id="Node000001" class="node">
<title>Node1</title>
<g id="a_Node000001"><a xlink:title="returns all meshes under the mesh, including itself">
<polygon fill="#999999" stroke="#666666" points="752,-63 636,-63 636,-33 752,-33 752,-63"/>
<text text-anchor="start" x="644" y="-51" font-family="Helvetica,sans-Serif" font-size="10.00">wmtk::Mesh::get_all</text>
<text text-anchor="middle" x="694" y="-40" font-family="Helvetica,sans-Serif" font-size="10.00">_meshes</text>
</a>
</g>
</g>
<!-- Node2 -->
<g id="Node000002" class="node">
<title>Node2</title>
<g id="a_Node000002"><a xlink:href="classwmtk_1_1components_1_1isotropic__remeshing_1_1_isotropic_remeshing.html#a0e398f9d873ff2ae28ccd37edb006bc0" target="_top" xlink:title=" ">
<polygon fill="white" stroke="#666666" points="600,-101.5 424,-101.5 424,-60.5 600,-60.5 600,-101.5"/>
<text text-anchor="start" x="432" y="-89.5" font-family="Helvetica,sans-Serif" font-size="10.00">wmtk::components::isotropic</text>
<text text-anchor="start" x="432" y="-78.5" font-family="Helvetica,sans-Serif" font-size="10.00">_remeshing::IsotropicRemeshing</text>
<text text-anchor="middle" x="512" y="-67.5" font-family="Helvetica,sans-Serif" font-size="10.00">::add_core_collapse_invariants</text>
</a>
</g>
</g>
<!-- Node1&#45;&gt;Node2 -->
<g id="edge1_Node000001_Node000002" class="edge">
<title>Node1&#45;&gt;Node2</title>
<g id="a_edge1_Node000001_Node000002"><a xlink:title=" ">
<path fill="none" stroke="#63b8ff" d="M625.56,-60.36C617.24,-61.89 608.64,-63.47 600.08,-65.04"/>
<polygon fill="#63b8ff" stroke="#63b8ff" points="626.35,-63.78 635.55,-58.53 625.08,-56.89 626.35,-63.78"/>
</a>
</g>
</g>
<!-- Node6 -->
<g id="Node000006" class="node">
<title>Node6</title>
<g id="a_Node000006"><a xlink:href="namespacewmtk_1_1utils.html#ae46f37201ea819ec64d9371ee03d7138" target="_top" xlink:title=" ">
<polygon fill="white" stroke="#666666" points="570.5,-24.5 453.5,-24.5 453.5,-5.5 570.5,-5.5 570.5,-24.5"/>
<text text-anchor="middle" x="512" y="-12.5" font-family="Helvetica,sans-Serif" font-size="10.00">wmtk::utils::validate</text>
</a>
</g>
</g>
<!-- Node1&#45;&gt;Node6 -->
<g id="edge6_Node000001_Node000006" class="edge">
<title>Node1&#45;&gt;Node6</title>
<g id="a_edge6_Node000001_Node000006"><a xlink:title=" ">
<path fill="none" stroke="#63b8ff" d="M625.56,-35.64C605.53,-31.96 583.92,-28 565.03,-24.54"/>
<polygon fill="#63b8ff" stroke="#63b8ff" points="625.08,-39.11 635.55,-37.47 626.35,-32.22 625.08,-39.11"/>
</a>
</g>
</g>
<!-- Node3 -->
<g id="Node000003" class="node">
<title>Node3</title>
<g id="a_Node000003"><a xlink:href="classwmtk_1_1components_1_1isotropic__remeshing_1_1_isotropic_remeshing.html#a1b56eedafe8865b7ececb2d19f5eb670" target="_top" xlink:title=" ">
<polygon fill="white" stroke="#666666" points="388,-154.5 212,-154.5 212,-113.5 388,-113.5 388,-154.5"/>
<text text-anchor="start" x="220" y="-142.5" font-family="Helvetica,sans-Serif" font-size="10.00">wmtk::components::isotropic</text>
<text text-anchor="start" x="220" y="-131.5" font-family="Helvetica,sans-Serif" font-size="10.00">_remeshing::IsotropicRemeshing</text>
<text text-anchor="middle" x="300" y="-120.5" font-family="Helvetica,sans-Serif" font-size="10.00">::configure_collapse</text>
</a>
</g>
</g>
<!-- Node2&#45;&gt;Node3 -->
<g id="edge2_Node000002_Node000003" class="edge">
<title>Node2&#45;&gt;Node3</title>
<g id="a_edge2_Node000002_Node000003"><a xlink:title=" ">
<path fill="none" stroke="#63b8ff" d="M419.65,-104.06C407.27,-107.18 394.64,-110.37 382.45,-113.44"/>
<polygon fill="#63b8ff" stroke="#63b8ff" points="420.67,-107.41 429.51,-101.57 418.96,-100.62 420.67,-107.41"/>
</a>
</g>
</g>
<!-- Node5 -->
<g id="Node000005" class="node">
<title>Node5</title>
<g id="a_Node000005"><a xlink:href="classwmtk_1_1components_1_1isotropic__remeshing_1_1_isotropic_remeshing.html#ad22ce058f76ec1434f41ce7fb2bd6ffa" target="_top" xlink:title=" ">
<polygon fill="white" stroke="#666666" points="388,-95.5 212,-95.5 212,-54.5 388,-54.5 388,-95.5"/>
<text text-anchor="start" x="220" y="-83.5" font-family="Helvetica,sans-Serif" font-size="10.00">wmtk::components::isotropic</text>
<text text-anchor="start" x="220" y="-72.5" font-family="Helvetica,sans-Serif" font-size="10.00">_remeshing::IsotropicRemeshing</text>
<text text-anchor="middle" x="300" y="-61.5" font-family="Helvetica,sans-Serif" font-size="10.00">::configure_swap</text>
</a>
</g>
</g>
<!-- Node2&#45;&gt;Node5 -->
<g id="edge4_Node000002_Node000005" class="edge">
<title>Node2&#45;&gt;Node5</title>
<g id="a_edge4_Node000002_Node000005"><a xlink:title=" ">
<path fill="none" stroke="#63b8ff" d="M413.54,-78.22C405.12,-77.97 396.63,-77.73 388.3,-77.49"/>
<polygon fill="#63b8ff" stroke="#63b8ff" points="413.67,-81.72 423.77,-78.51 413.87,-74.72 413.67,-81.72"/>
</a>
</g>
</g>
<!-- Node4 -->
<g id="Node000004" class="node">
<title>Node4</title>
<g id="a_Node000004"><a xlink:href="classwmtk_1_1components_1_1isotropic__remeshing_1_1_isotropic_remeshing.html#a31844ec38531cdf196cd22bc57ca2dba" target="_top" xlink:title=" ">
<polygon fill="white" stroke="#666666" points="176,-124.5 0,-124.5 0,-83.5 176,-83.5 176,-124.5"/>
<text text-anchor="start" x="8" y="-112.5" font-family="Helvetica,sans-Serif" font-size="10.00">wmtk::components::isotropic</text>
<text text-anchor="start" x="8" y="-101.5" font-family="Helvetica,sans-Serif" font-size="10.00">_remeshing::IsotropicRemeshing</text>
<text text-anchor="middle" x="88" y="-90.5" font-family="Helvetica,sans-Serif" font-size="10.00">::IsotropicRemeshing</text>
</a>
</g>
</g>
<!-- Node3&#45;&gt;Node4 -->
<g id="edge3_Node000003_Node000004" class="edge">
<title>Node3&#45;&gt;Node4</title>
<g id="a_edge3_Node000003_Node000004"><a xlink:title=" ">
<path fill="none" stroke="#63b8ff" d="M201.82,-120.12C193.31,-118.9 184.73,-117.68 176.3,-116.47"/>
<polygon fill="#63b8ff" stroke="#63b8ff" points="201.37,-123.59 211.77,-121.54 202.36,-116.66 201.37,-123.59"/>
</a>
</g>
</g>
<!-- Node5&#45;&gt;Node4 -->
<g id="edge5_Node000005_Node000004" class="edge">
<title>Node5&#45;&gt;Node4</title>
<g id="a_edge5_Node000005_Node000004"><a xlink:title=" ">
<path fill="none" stroke="#63b8ff" d="M201.82,-88.42C193.31,-89.6 184.73,-90.78 176.3,-91.94"/>
<polygon fill="#63b8ff" stroke="#63b8ff" points="202.34,-91.88 211.77,-87.05 201.38,-84.95 202.34,-91.88"/>
</a>
</g>
</g>
<!-- Node6&#45;&gt;Node6 -->
<g id="edge8_Node000006_Node000006" class="edge">
<title>Node6&#45;&gt;Node6</title>
<g id="a_edge8_Node000006_Node000006"><a xlink:title=" ">
<path fill="none" stroke="#63b8ff" d="M546.11,-32.57C545.61,-38.12 534.24,-42.5 512,-42.5 479.65,-42.5 470.3,-33.23 483.95,-24.58"/>
<polygon fill="#63b8ff" stroke="#63b8ff" points="548.88,-30.44 540.05,-24.58 543.3,-34.67 548.88,-30.44"/>
</a>
</g>
</g>
<!-- Node7 -->
<g id="Node000007" class="node">
<title>Node7</title>
<g id="a_Node000007"><a xlink:href="namespacewmtk_1_1components_1_1input.html#a983def0b1b64614b2f2b91d18045f13a" target="_top" xlink:title=" ">
<polygon fill="white" stroke="#666666" points="370.5,-30 229.5,-30 229.5,0 370.5,0 370.5,-30"/>
<text text-anchor="start" x="237.5" y="-18" font-family="Helvetica,sans-Serif" font-size="10.00">wmtk::components::input</text>
<text text-anchor="middle" x="300" y="-7" font-family="Helvetica,sans-Serif" font-size="10.00">::input</text>
</a>
</g>
</g>
<!-- Node6&#45;&gt;Node7 -->
<g id="edge7_Node000006_Node000007" class="edge">
<title>Node6&#45;&gt;Node7</title>
<g id="a_edge7_Node000006_Node000007"><a xlink:title=" ">
<path fill="none" stroke="#63b8ff" d="M443.26,-15C420.11,-15 394.18,-15 370.86,-15"/>
<polygon fill="#63b8ff" stroke="#63b8ff" points="443.34,-18.5 453.34,-15 443.34,-11.5 443.34,-18.5"/>
</a>
</g>
</g>
</g>
</svg>
