<?xml version="1.0" encoding="UTF-8" standalone="no"?>
<!DOCTYPE svg PUBLIC "-//W3C//DTD SVG 1.1//EN"
 "http://www.w3.org/Graphics/SVG/1.1/DTD/svg11.dtd">
<!-- Generated by graphviz version 2.43.0 (0)
 -->
<!-- Title: wmtk::components::mesh_info::simplex::operators::VolumeOperator::VolumeOperator Pages: 1 -->
<svg width="399pt" height="98pt"
 viewBox="0.00 0.00 399.00 97.50" xmlns="http://www.w3.org/2000/svg" xmlns:xlink="http://www.w3.org/1999/xlink">
<g id="graph0" class="graph" transform="scale(1 1) rotate(0) translate(4 93.5)">
<title>wmtk::components::mesh_info::simplex::operators::VolumeOperator::VolumeOperator</title>
<!-- Node1 -->
<g id="Node000001" class="node">
<title>Node1</title>
<g id="a_Node000001"><a xlink:title=" ">
<polygon fill="#999999" stroke="#666666" points="188,-62.5 0,-62.5 0,-21.5 188,-21.5 188,-62.5"/>
<text text-anchor="start" x="8" y="-50.5" font-family="Helvetica,sans-Serif" font-size="10.00">wmtk::components::mesh</text>
<text text-anchor="start" x="8" y="-39.5" font-family="Helvetica,sans-Serif" font-size="10.00">_info::simplex::operators</text>
<text text-anchor="middle" x="94" y="-28.5" font-family="Helvetica,sans-Serif" font-size="10.00">::VolumeOperator::VolumeOperator</text>
</a>
</g>
</g>
<!-- Node2 -->
<g id="Node000002" class="node">
<title>Node2</title>
<g id="a_Node000002"><a xlink:href="classwmtk_1_1operations_1_1_single_attribute_transfer_strategy.html#af2688eff75552a455e85777009436c29" target="_top" xlink:title=" ">
<polygon fill="white" stroke="#666666" points="377.5,-89.5 237.5,-89.5 237.5,-48.5 377.5,-48.5 377.5,-89.5"/>
<text text-anchor="start" x="245.5" y="-77.5" font-family="Helvetica,sans-Serif" font-size="10.00">wmtk::operations::Single</text>
<text text-anchor="start" x="245.5" y="-66.5" font-family="Helvetica,sans-Serif" font-size="10.00">AttributeTransferStrategy</text>
<text text-anchor="middle" x="307.5" y="-55.5" font-family="Helvetica,sans-Serif" font-size="10.00">::parent_handle</text>
</a>
</g>
</g>
<!-- Node1&#45;&gt;Node2 -->
<g id="edge1_Node000001_Node000002" class="edge">
<title>Node1&#45;&gt;Node2</title>
<g id="a_edge1_Node000001_Node000002"><a xlink:title=" ">
<path fill="none" stroke="#63b8ff" d="M188.07,-53.88C201.1,-55.55 214.39,-57.24 227.14,-58.87"/>
<polygon fill="#63b8ff" stroke="#63b8ff" points="226.86,-62.36 237.23,-60.16 227.75,-55.42 226.86,-62.36"/>
</a>
</g>
</g>
<!-- Node3 -->
<g id="Node000003" class="node">
<title>Node3</title>
<g id="a_Node000003"><a xlink:href="classwmtk_1_1attribute_1_1_mesh_attribute_handle.html#aee17c525d1547806f9350ad95fa66f5f" target="_top" xlink:title=" ">
<polygon fill="white" stroke="#666666" points="391,-30 224,-30 224,0 391,0 391,-30"/>
<text text-anchor="start" x="232" y="-18" font-family="Helvetica,sans-Serif" font-size="10.00">wmtk::attribute::MeshAttribute</text>
<text text-anchor="middle" x="307.5" y="-7" font-family="Helvetica,sans-Serif" font-size="10.00">Handle::primitive_type</text>
</a>
</g>
</g>
<!-- Node1&#45;&gt;Node3 -->
<g id="edge2_Node000001_Node000003" class="edge">
<title>Node1&#45;&gt;Node3</title>
<g id="a_edge2_Node000001_Node000003"><a xlink:title=" ">
<path fill="none" stroke="#63b8ff" d="M188.07,-30.12C196.6,-29.03 205.23,-27.93 213.75,-26.84"/>
<polygon fill="#63b8ff" stroke="#63b8ff" points="214.21,-30.31 223.69,-25.57 213.33,-23.37 214.21,-30.31"/>
</a>
</g>
</g>
</g>
</svg>
