<?xml version="1.0" encoding="UTF-8" standalone="no"?>
<!DOCTYPE svg PUBLIC "-//W3C//DTD SVG 1.1//EN"
 "http://www.w3.org/Graphics/SVG/1.1/DTD/svg11.dtd">
<!-- Generated by graphviz version 2.43.0 (0)
 -->
<!-- Title: wmtk::multimesh::utils::internal::TupleTag::run Pages: 1 -->
<svg width="1050pt" height="660pt"
 viewBox="0.00 0.00 1050.00 660.10" xmlns="http://www.w3.org/2000/svg" xmlns:xlink="http://www.w3.org/1999/xlink">
<g id="graph0" class="graph" transform="scale(1 1) rotate(0) translate(4 656.1)">
<title>wmtk::multimesh::utils::internal::TupleTag::run</title>
<!-- Node1 -->
<g id="Node000001" class="node">
<title>Node1</title>
<g id="a_Node000001"><a xlink:title=" ">
<polygon fill="#999999" stroke="#666666" points="130,-302 0,-302 0,-272 130,-272 130,-302"/>
<text text-anchor="start" x="8" y="-290" font-family="Helvetica,sans-Serif" font-size="10.00">wmtk::multimesh::utils</text>
<text text-anchor="middle" x="65" y="-279" font-family="Helvetica,sans-Serif" font-size="10.00">::internal::TupleTag::run</text>
</a>
</g>
</g>
<!-- Node1&#45;&gt;Node1 -->
<g id="edge35_Node000001_Node000001" class="edge">
<title>Node1&#45;&gt;Node1</title>
<g id="a_edge35_Node000001_Node000001"><a xlink:title=" ">
<path fill="none" stroke="#63b8ff" d="M34.77,-302.28C28.05,-311.41 38.12,-320 65,-320 80.96,-320 90.99,-316.97 95.11,-312.6"/>
<polygon fill="#63b8ff" stroke="#63b8ff" points="98.61,-312.32 95.23,-302.28 91.61,-312.23 98.61,-312.32"/>
</a>
</g>
</g>
<!-- Node2 -->
<g id="Node000002" class="node">
<title>Node2</title>
<g id="a_Node000002"><a xlink:href="classwmtk_1_1multimesh_1_1utils_1_1internal_1_1_tuple_tag.html#a1cb3c8b25d1d233418f716215f6506cd" target="_top" xlink:title=" ">
<polygon fill="white" stroke="#666666" points="302.5,-467.5 172.5,-467.5 172.5,-426.5 302.5,-426.5 302.5,-467.5"/>
<text text-anchor="start" x="180.5" y="-455.5" font-family="Helvetica,sans-Serif" font-size="10.00">wmtk::multimesh::utils</text>
<text text-anchor="start" x="180.5" y="-444.5" font-family="Helvetica,sans-Serif" font-size="10.00">::internal::TupleTag::</text>
<text text-anchor="middle" x="237.5" y="-433.5" font-family="Helvetica,sans-Serif" font-size="10.00">boundary_get_root</text>
</a>
</g>
</g>
<!-- Node1&#45;&gt;Node2 -->
<g id="edge1_Node000001_Node000002" class="edge">
<title>Node1&#45;&gt;Node2</title>
<g id="a_edge1_Node000001_Node000002"><a xlink:title=" ">
<path fill="none" stroke="#63b8ff" d="M78.44,-302.16C96.6,-323.86 131.91,-364.51 166,-395 175.84,-403.8 187.11,-412.61 197.71,-420.41"/>
<polygon fill="#63b8ff" stroke="#63b8ff" points="195.88,-423.41 206.03,-426.43 199.98,-417.74 195.88,-423.41"/>
</a>
</g>
</g>
<!-- Node6 -->
<g id="Node000006" class="node">
<title>Node6</title>
<g id="a_Node000006"><a xlink:href="classwmtk_1_1multimesh_1_1utils_1_1internal_1_1_tuple_tag.html#afa2a24000c5054648137b91588f83d55" target="_top" xlink:title=" ">
<polygon fill="white" stroke="#666666" points="872.5,-532.5 742.5,-532.5 742.5,-491.5 872.5,-491.5 872.5,-532.5"/>
<text text-anchor="start" x="750.5" y="-520.5" font-family="Helvetica,sans-Serif" font-size="10.00">wmtk::multimesh::utils</text>
<text text-anchor="start" x="750.5" y="-509.5" font-family="Helvetica,sans-Serif" font-size="10.00">::internal::TupleTag::</text>
<text text-anchor="middle" x="807.5" y="-498.5" font-family="Helvetica,sans-Serif" font-size="10.00">boundary_type</text>
</a>
</g>
</g>
<!-- Node1&#45;&gt;Node6 -->
<g id="edge16_Node000001_Node000006" class="edge">
<title>Node1&#45;&gt;Node6</title>
<g id="a_edge16_Node000001_Node000006"><a xlink:title=" ">
<path fill="none" stroke="#63b8ff" d="M109.85,-302.11C127.16,-307.56 147.34,-313.27 166,-317 401.7,-364.07 493.62,-274.5 701,-396 737.72,-417.51 768.93,-456.01 787.67,-482.72"/>
<polygon fill="#63b8ff" stroke="#63b8ff" points="785,-485.02 793.54,-491.29 790.78,-481.06 785,-485.02"/>
</a>
</g>
</g>
<!-- Node9 -->
<g id="Node000009" class="node">
<title>Node9</title>
<g id="a_Node000009"><a xlink:href="classwmtk_1_1multimesh_1_1utils_1_1internal_1_1_tuple_tag.html#a7ce74a2272389dcdbd3fd1434480ecb1" target="_top" xlink:title=" ">
<polygon fill="white" stroke="#666666" points="878,-618 737,-618 737,-588 878,-588 878,-618"/>
<text text-anchor="start" x="745" y="-606" font-family="Helvetica,sans-Serif" font-size="10.00">wmtk::multimesh::utils</text>
<text text-anchor="middle" x="807.5" y="-595" font-family="Helvetica,sans-Serif" font-size="10.00">::internal::TupleTag::mesh</text>
</a>
</g>
</g>
<!-- Node1&#45;&gt;Node9 -->
<g id="edge34_Node000001_Node000009" class="edge">
<title>Node1&#45;&gt;Node9</title>
<g id="a_edge34_Node000001_Node000009"><a xlink:title=" ">
<path fill="none" stroke="#63b8ff" d="M68.5,-302.25C76.04,-344.11 102.16,-462.55 166,-535 226.25,-603.37 256.81,-612.04 345,-635 482.84,-670.89 651.19,-641.7 741.62,-620.37"/>
<polygon fill="#63b8ff" stroke="#63b8ff" points="742.55,-623.74 751.45,-618.01 740.91,-616.94 742.55,-623.74"/>
</a>
</g>
</g>
<!-- Node12 -->
<g id="Node000012" class="node">
<title>Node12</title>
<g id="a_Node000012"><a xlink:href="classwmtk_1_1_mesh.html#a3e8ff83c4a5526a40d18bb9883c6c6c9" target="_top" xlink:title="read in the m_capacities return the upper bound for the number of entities of the given dimension">
<polygon fill="white" stroke="#666666" points="299.5,-385.5 175.5,-385.5 175.5,-366.5 299.5,-366.5 299.5,-385.5"/>
<text text-anchor="middle" x="237.5" y="-373.5" font-family="Helvetica,sans-Serif" font-size="10.00">wmtk::Mesh::capacity</text>
</a>
</g>
</g>
<!-- Node1&#45;&gt;Node12 -->
<g id="edge17_Node000001_Node000012" class="edge">
<title>Node1&#45;&gt;Node12</title>
<g id="a_edge17_Node000001_Node000012"><a xlink:title=" ">
<path fill="none" stroke="#63b8ff" d="M87.09,-302.12C106.83,-315.81 137.47,-335.94 166,-350 175.76,-354.81 186.63,-359.24 196.87,-363.03"/>
<polygon fill="#63b8ff" stroke="#63b8ff" points="195.83,-366.38 206.42,-366.46 198.2,-359.79 195.83,-366.38"/>
</a>
</g>
</g>
<!-- Node14 -->
<g id="Node000014" class="node">
<title>Node14</title>
<g id="a_Node000014"><a xlink:href="namespacewmtk_1_1simplex.html#aedab544fbb3e4c417608c0b5371e94d9" target="_top" xlink:title=" ">
<polygon fill="white" stroke="#666666" points="309,-193 166,-193 166,-163 309,-163 309,-193"/>
<text text-anchor="start" x="174" y="-181" font-family="Helvetica,sans-Serif" font-size="10.00">wmtk::simplex::faces</text>
<text text-anchor="middle" x="237.5" y="-170" font-family="Helvetica,sans-Serif" font-size="10.00">_single_dimension_tuples</text>
</a>
</g>
</g>
<!-- Node1&#45;&gt;Node14 -->
<g id="edge19_Node000001_Node000014" class="edge">
<title>Node1&#45;&gt;Node14</title>
<g id="a_edge19_Node000001_Node000014"><a xlink:title=" ">
<path fill="none" stroke="#63b8ff" d="M80.62,-271.74C99.03,-253.27 132.35,-222.26 166,-203 169.68,-200.9 173.56,-198.92 177.54,-197.08"/>
<polygon fill="#63b8ff" stroke="#63b8ff" points="179.16,-200.2 186.95,-193.02 176.38,-193.77 179.16,-200.2"/>
</a>
</g>
</g>
<!-- Node19 -->
<g id="Node000019" class="node">
<title>Node19</title>
<g id="a_Node000019"><a xlink:href="classwmtk_1_1multimesh_1_1utils_1_1internal_1_1_tuple_tag.html#a1b77d4b38f6a375d6fcdbb219294d5c9" target="_top" xlink:title=" ">
<polygon fill="white" stroke="#666666" points="302.5,-307.5 172.5,-307.5 172.5,-266.5 302.5,-266.5 302.5,-307.5"/>
<text text-anchor="start" x="180.5" y="-295.5" font-family="Helvetica,sans-Serif" font-size="10.00">wmtk::multimesh::utils</text>
<text text-anchor="start" x="180.5" y="-284.5" font-family="Helvetica,sans-Serif" font-size="10.00">::internal::TupleTag::</text>
<text text-anchor="middle" x="237.5" y="-273.5" font-family="Helvetica,sans-Serif" font-size="10.00">facet_type</text>
</a>
</g>
</g>
<!-- Node1&#45;&gt;Node19 -->
<g id="edge25_Node000001_Node000019" class="edge">
<title>Node1&#45;&gt;Node19</title>
<g id="a_edge25_Node000001_Node000019"><a xlink:title=" ">
<path fill="none" stroke="#63b8ff" d="M130.46,-287C140.82,-287 151.62,-287 162.19,-287"/>
<polygon fill="#63b8ff" stroke="#63b8ff" points="162.23,-290.5 172.23,-287 162.23,-283.5 162.23,-290.5"/>
</a>
</g>
</g>
<!-- Node20 -->
<g id="Node000020" class="node">
<title>Node20</title>
<g id="a_Node000020"><a xlink:href="classwmtk_1_1_mesh.html#a6d2a546c8f661bf6386cf845a1693d2f" target="_top" xlink:title="Generate a vector of Tuples from global vertex/edge/triangle/tetrahedron index.">
<polygon fill="white" stroke="#666666" points="295.5,-230.5 179.5,-230.5 179.5,-211.5 295.5,-211.5 295.5,-230.5"/>
<text text-anchor="middle" x="237.5" y="-218.5" font-family="Helvetica,sans-Serif" font-size="10.00">wmtk::Mesh::get_all</text>
</a>
</g>
</g>
<!-- Node1&#45;&gt;Node20 -->
<g id="edge26_Node000001_Node000020" class="edge">
<title>Node1&#45;&gt;Node20</title>
<g id="a_edge26_Node000001_Node000020"><a xlink:title=" ">
<path fill="none" stroke="#63b8ff" d="M105.12,-271.86C134.49,-260.49 174.32,-245.07 202.4,-234.2"/>
<polygon fill="#63b8ff" stroke="#63b8ff" points="203.75,-237.43 211.81,-230.56 201.22,-230.9 203.75,-237.43"/>
</a>
</g>
</g>
<!-- Node21 -->
<g id="Node000021" class="node">
<title>Node21</title>
<g id="a_Node000021"><a xlink:href="classwmtk_1_1_mesh.html#a58bdbbfa0cd7bd9263241f6501db182a" target="_top" xlink:title="check if a simplex lies on a boundary or not">
<polygon fill="white" stroke="#666666" points="308.5,-126.5 166.5,-126.5 166.5,-107.5 308.5,-107.5 308.5,-126.5"/>
<text text-anchor="middle" x="237.5" y="-114.5" font-family="Helvetica,sans-Serif" font-size="10.00">wmtk::Mesh::is_boundary</text>
</a>
</g>
</g>
<!-- Node1&#45;&gt;Node21 -->
<g id="edge28_Node000001_Node000021" class="edge">
<title>Node1&#45;&gt;Node21</title>
<g id="a_edge28_Node000001_Node000021"><a xlink:title=" ">
<path fill="none" stroke="#63b8ff" d="M74.42,-271.71C89.72,-245.01 124.41,-189.37 166,-154 176.91,-144.72 190.53,-136.9 202.89,-130.86"/>
<polygon fill="#63b8ff" stroke="#63b8ff" points="204.44,-134 212.02,-126.61 201.48,-127.66 204.44,-134"/>
</a>
</g>
</g>
<!-- Node23 -->
<g id="Node000023" class="node">
<title>Node23</title>
<g id="a_Node000023"><a xlink:href="classwmtk_1_1multimesh_1_1utils_1_1internal_1_1_tuple_tag.html#aa7202e012d3524bdc7db3a1878ce9df1" target="_top" xlink:title="Check if a boundary is a critical point.">
<polygon fill="white" stroke="#666666" points="495,-625.5 365,-625.5 365,-584.5 495,-584.5 495,-625.5"/>
<text text-anchor="start" x="373" y="-613.5" font-family="Helvetica,sans-Serif" font-size="10.00">wmtk::multimesh::utils</text>
<text text-anchor="start" x="373" y="-602.5" font-family="Helvetica,sans-Serif" font-size="10.00">::internal::TupleTag::</text>
<text text-anchor="middle" x="430" y="-591.5" font-family="Helvetica,sans-Serif" font-size="10.00">is_critical_boundary</text>
</a>
</g>
</g>
<!-- Node1&#45;&gt;Node23 -->
<g id="edge32_Node000001_Node000023" class="edge">
<title>Node1&#45;&gt;Node23</title>
<g id="a_edge32_Node000001_Node000023"><a xlink:title=" ">
<path fill="none" stroke="#63b8ff" d="M70.6,-302.13C81.83,-336.87 113.57,-423.47 166,-477 218.23,-530.33 297.19,-564.61 354.97,-584.15"/>
<polygon fill="#63b8ff" stroke="#63b8ff" points="354.18,-587.57 364.77,-587.39 356.38,-580.93 354.18,-587.57"/>
</a>
</g>
</g>
<!-- Node24 -->
<g id="Node000024" class="node">
<title>Node24</title>
<g id="a_Node000024"><a xlink:href="classwmtk_1_1multimesh_1_1utils_1_1internal_1_1_tuple_tag.html#ad599de685b7a08a168c58569100b8668" target="_top" xlink:title=" ">
<polygon fill="white" stroke="#666666" points="302.5,-89.5 172.5,-89.5 172.5,-48.5 302.5,-48.5 302.5,-89.5"/>
<text text-anchor="start" x="180.5" y="-77.5" font-family="Helvetica,sans-Serif" font-size="10.00">wmtk::multimesh::utils</text>
<text text-anchor="start" x="180.5" y="-66.5" font-family="Helvetica,sans-Serif" font-size="10.00">::internal::TupleTag::</text>
<text text-anchor="middle" x="237.5" y="-55.5" font-family="Helvetica,sans-Serif" font-size="10.00">set_facet_tag</text>
</a>
</g>
</g>
<!-- Node1&#45;&gt;Node24 -->
<g id="edge36_Node000001_Node000024" class="edge">
<title>Node1&#45;&gt;Node24</title>
<g id="a_edge36_Node000001_Node000024"><a xlink:title=" ">
<path fill="none" stroke="#63b8ff" d="M70.2,-271.91C80.67,-236.91 111.1,-149.35 166,-99 167.31,-97.79 168.68,-96.63 170.1,-95.51"/>
<polygon fill="#63b8ff" stroke="#63b8ff" points="172.44,-98.15 178.65,-89.57 168.44,-92.4 172.44,-98.15"/>
</a>
</g>
</g>
<!-- Node25 -->
<g id="Node000025" class="node">
<title>Node25</title>
<g id="a_Node000025"><a xlink:href="classwmtk_1_1_mesh.html#a965a8a24158c4aa8580c57ba09f885f7" target="_top" xlink:title="switch the orientation of the Tuple of the given dimension">
<polygon fill="white" stroke="#666666" points="294.5,-30 180.5,-30 180.5,0 294.5,0 294.5,-30"/>
<text text-anchor="start" x="188.5" y="-18" font-family="Helvetica,sans-Serif" font-size="10.00">wmtk::Mesh::switch</text>
<text text-anchor="middle" x="237.5" y="-7" font-family="Helvetica,sans-Serif" font-size="10.00">_tuple</text>
</a>
</g>
</g>
<!-- Node1&#45;&gt;Node25 -->
<g id="edge37_Node000001_Node000025" class="edge">
<title>Node1&#45;&gt;Node25</title>
<g id="a_edge37_Node000001_Node000025"><a xlink:title=" ">
<path fill="none" stroke="#63b8ff" d="M67.75,-271.74C73.47,-228.78 95.53,-105.69 166,-39 167.72,-37.38 169.55,-35.86 171.47,-34.45"/>
<polygon fill="#63b8ff" stroke="#63b8ff" points="173.75,-37.15 180.38,-28.89 170.05,-31.21 173.75,-37.15"/>
</a>
</g>
</g>
<!-- Node3 -->
<g id="Node000003" class="node">
<title>Node3</title>
<g id="a_Node000003"><a xlink:href="classwmtk_1_1multimesh_1_1utils_1_1internal_1_1_tuple_tag.html#a5968cfbb6c2f0c13aec74839b3e213f9" target="_top" xlink:title=" ">
<polygon fill="white" stroke="#666666" points="495,-489.5 365,-489.5 365,-448.5 495,-448.5 495,-489.5"/>
<text text-anchor="start" x="373" y="-477.5" font-family="Helvetica,sans-Serif" font-size="10.00">wmtk::multimesh::utils</text>
<text text-anchor="start" x="373" y="-466.5" font-family="Helvetica,sans-Serif" font-size="10.00">::internal::TupleTag::</text>
<text text-anchor="middle" x="430" y="-455.5" font-family="Helvetica,sans-Serif" font-size="10.00">boundary_is_root</text>
</a>
</g>
</g>
<!-- Node2&#45;&gt;Node3 -->
<g id="edge2_Node000002_Node000003" class="edge">
<title>Node2&#45;&gt;Node3</title>
<g id="a_edge2_Node000002_Node000003"><a xlink:title=" ">
<path fill="none" stroke="#63b8ff" d="M302.73,-454.42C319.43,-456.35 337.57,-458.44 354.74,-460.42"/>
<polygon fill="#63b8ff" stroke="#63b8ff" points="354.39,-463.91 364.73,-461.58 355.19,-456.95 354.39,-463.91"/>
</a>
</g>
</g>
<!-- Node4 -->
<g id="Node000004" class="node">
<title>Node4</title>
<g id="a_Node000004"><a xlink:href="classwmtk_1_1multimesh_1_1utils_1_1internal_1_1_tuple_tag.html#ae3d7d9eff6ac9ca68e4abcac60ee9c41" target="_top" xlink:title=" ">
<polygon fill="white" stroke="#666666" points="691,-445.5 561,-445.5 561,-404.5 691,-404.5 691,-445.5"/>
<text text-anchor="start" x="569" y="-433.5" font-family="Helvetica,sans-Serif" font-size="10.00">wmtk::multimesh::utils</text>
<text text-anchor="start" x="569" y="-422.5" font-family="Helvetica,sans-Serif" font-size="10.00">::internal::TupleTag::</text>
<text text-anchor="middle" x="626" y="-411.5" font-family="Helvetica,sans-Serif" font-size="10.00">get_boundary_tag</text>
</a>
</g>
</g>
<!-- Node2&#45;&gt;Node4 -->
<g id="edge9_Node000002_Node000004" class="edge">
<title>Node2&#45;&gt;Node4</title>
<g id="a_edge9_Node000002_Node000004"><a xlink:title=" ">
<path fill="none" stroke="#63b8ff" d="M302.69,-442.65C316.64,-441.75 331.31,-440.82 345,-440 414.65,-435.85 494.08,-431.64 550.5,-428.74"/>
<polygon fill="#63b8ff" stroke="#63b8ff" points="550.96,-432.23 560.76,-428.22 550.6,-425.24 550.96,-432.23"/>
</a>
</g>
</g>
<!-- Node10 -->
<g id="Node000010" class="node">
<title>Node10</title>
<g id="a_Node000010"><a xlink:href="classwmtk_1_1multimesh_1_1utils_1_1internal_1_1_tuple_tag.html#acf1cbc3cfaaebc987060989c98bdf6de" target="_top" xlink:title=" ">
<polygon fill="white" stroke="#666666" points="495,-548.5 365,-548.5 365,-507.5 495,-507.5 495,-548.5"/>
<text text-anchor="start" x="373" y="-536.5" font-family="Helvetica,sans-Serif" font-size="10.00">wmtk::multimesh::utils</text>
<text text-anchor="start" x="373" y="-525.5" font-family="Helvetica,sans-Serif" font-size="10.00">::internal::TupleTag::</text>
<text text-anchor="middle" x="430" y="-514.5" font-family="Helvetica,sans-Serif" font-size="10.00">v_tuple</text>
</a>
</g>
</g>
<!-- Node2&#45;&gt;Node10 -->
<g id="edge10_Node000002_Node000010" class="edge">
<title>Node2&#45;&gt;Node10</title>
<g id="a_edge10_Node000002_Node000010"><a xlink:title=" ">
<path fill="none" stroke="#63b8ff" d="M277.68,-467.55C297.57,-477.62 322.29,-489.58 345,-499 348.93,-500.63 352.98,-502.24 357.09,-503.83"/>
<polygon fill="#63b8ff" stroke="#63b8ff" points="356.16,-507.22 366.75,-507.46 358.62,-500.67 356.16,-507.22"/>
</a>
</g>
</g>
<!-- Node3&#45;&gt;Node4 -->
<g id="edge3_Node000003_Node000004" class="edge">
<title>Node3&#45;&gt;Node4</title>
<g id="a_edge3_Node000003_Node000004"><a xlink:title=" ">
<path fill="none" stroke="#63b8ff" d="M495.06,-454.47C512.93,-450.42 532.49,-445.98 550.89,-441.81"/>
<polygon fill="#63b8ff" stroke="#63b8ff" points="551.7,-445.21 560.68,-439.59 550.15,-438.39 551.7,-445.21"/>
</a>
</g>
</g>
<!-- Node5 -->
<g id="Node000005" class="node">
<title>Node5</title>
<g id="a_Node000005"><a xlink:href="classwmtk_1_1multimesh_1_1utils_1_1internal_1_1_tuple_tag.html#ad921071b9217221d30d56b51419c78e7" target="_top" xlink:title=" ">
<polygon fill="white" stroke="#666666" points="691,-575 561,-575 561,-545 691,-545 691,-575"/>
<text text-anchor="start" x="569" y="-563" font-family="Helvetica,sans-Serif" font-size="10.00">wmtk::multimesh::utils</text>
<text text-anchor="middle" x="626" y="-552" font-family="Helvetica,sans-Serif" font-size="10.00">::internal::TupleTag::vid</text>
</a>
</g>
</g>
<!-- Node3&#45;&gt;Node5 -->
<g id="edge4_Node000003_Node000005" class="edge">
<title>Node3&#45;&gt;Node5</title>
<g id="a_edge4_Node000003_Node000005"><a xlink:title=" ">
<path fill="none" stroke="#63b8ff" d="M492.48,-489.64C500.14,-492.6 507.8,-495.75 515,-499 541.46,-510.97 570.12,-526.96 591.55,-539.57"/>
<polygon fill="#63b8ff" stroke="#63b8ff" points="589.88,-542.65 600.26,-544.75 593.45,-536.63 589.88,-542.65"/>
</a>
</g>
</g>
<!-- Node5&#45;&gt;Node6 -->
<g id="edge5_Node000005_Node000006" class="edge">
<title>Node5&#45;&gt;Node6</title>
<g id="a_edge5_Node000005_Node000006"><a xlink:title=" ">
<path fill="none" stroke="#63b8ff" d="M683.3,-544.94C698.8,-540.8 715.85,-536.24 732.19,-531.87"/>
<polygon fill="#63b8ff" stroke="#63b8ff" points="733.5,-535.14 742.26,-529.18 731.69,-528.38 733.5,-535.14"/>
</a>
</g>
</g>
<!-- Node7 -->
<g id="Node000007" class="node">
<title>Node7</title>
<g id="a_Node000007"><a xlink:href="classwmtk_1_1_mesh.html#a58243712dc3e0d258ad645e7b08870db" target="_top" xlink:title="return the global id of the Tuple of the given dimension">
<polygon fill="white" stroke="#666666" points="853.5,-569.5 761.5,-569.5 761.5,-550.5 853.5,-550.5 853.5,-569.5"/>
<text text-anchor="middle" x="807.5" y="-557.5" font-family="Helvetica,sans-Serif" font-size="10.00">wmtk::Mesh::id</text>
</a>
</g>
</g>
<!-- Node5&#45;&gt;Node7 -->
<g id="edge6_Node000005_Node000007" class="edge">
<title>Node5&#45;&gt;Node7</title>
<g id="a_edge6_Node000005_Node000007"><a xlink:title=" ">
<path fill="none" stroke="#63b8ff" d="M691.04,-560C710.76,-560 732.28,-560 751.34,-560"/>
<polygon fill="#63b8ff" stroke="#63b8ff" points="751.36,-563.5 761.36,-560 751.36,-556.5 751.36,-563.5"/>
</a>
</g>
</g>
<!-- Node5&#45;&gt;Node9 -->
<g id="edge8_Node000005_Node000009" class="edge">
<title>Node5&#45;&gt;Node9</title>
<g id="a_edge8_Node000005_Node000009"><a xlink:title=" ">
<path fill="none" stroke="#63b8ff" d="M689.78,-575.04C703.99,-578.44 719.2,-582.09 733.78,-585.58"/>
<polygon fill="#63b8ff" stroke="#63b8ff" points="733.21,-589.04 743.76,-587.97 734.85,-582.24 733.21,-589.04"/>
</a>
</g>
</g>
<!-- Node8 -->
<g id="Node000008" class="node">
<title>Node8</title>
<g id="a_Node000008"><a xlink:href="classwmtk_1_1_mesh.html#a6f6c3b9a1d738d05ec8d84cabfa5e4b4" target="_top" xlink:title="Internal utility to allow id to be virtual with a non&#45;virtual overload in derived &#45;Mesh classes.">
<polygon fill="white" stroke="#666666" points="1042,-569.5 914,-569.5 914,-550.5 1042,-550.5 1042,-569.5"/>
<text text-anchor="middle" x="978" y="-557.5" font-family="Helvetica,sans-Serif" font-size="10.00">wmtk::Mesh::id_virtual</text>
</a>
</g>
</g>
<!-- Node7&#45;&gt;Node8 -->
<g id="edge7_Node000007_Node000008" class="edge">
<title>Node7&#45;&gt;Node8</title>
<g id="a_edge7_Node000007_Node000008"><a xlink:title=" ">
<path fill="none" stroke="#63b8ff" d="M853.65,-560C868.99,-560 886.55,-560 903.52,-560"/>
<polygon fill="#63b8ff" stroke="#63b8ff" points="903.98,-563.5 913.98,-560 903.98,-556.5 903.98,-563.5"/>
</a>
</g>
</g>
<!-- Node10&#45;&gt;Node5 -->
<g id="edge15_Node000010_Node000005" class="edge">
<title>Node10&#45;&gt;Node5</title>
<g id="a_edge15_Node000010_Node000005"><a xlink:title=" ">
<path fill="none" stroke="#63b8ff" d="M495.06,-538.57C512.85,-541.5 532.31,-544.71 550.63,-547.73"/>
<polygon fill="#63b8ff" stroke="#63b8ff" points="550.24,-551.22 560.68,-549.39 551.38,-544.31 550.24,-551.22"/>
</a>
</g>
</g>
<!-- Node10&#45;&gt;Node6 -->
<g id="edge11_Node000010_Node000006" class="edge">
<title>Node10&#45;&gt;Node6</title>
<g id="a_edge11_Node000010_Node000006"><a xlink:title=" ">
<path fill="none" stroke="#63b8ff" d="M495.12,-525.27C560.77,-522.47 662.72,-518.13 731.94,-515.18"/>
<polygon fill="#63b8ff" stroke="#63b8ff" points="732.48,-518.66 742.33,-514.73 732.19,-511.66 732.48,-518.66"/>
</a>
</g>
</g>
<!-- Node10&#45;&gt;Node9 -->
<g id="edge12_Node000010_Node000009" class="edge">
<title>Node10&#45;&gt;Node9</title>
<g id="a_edge12_Node000010_Node000009"><a xlink:title=" ">
<path fill="none" stroke="#63b8ff" d="M466.22,-548.59C489.48,-561.13 521.08,-576.19 551,-584 608.48,-599.01 675.52,-603.53 726.5,-604.42"/>
<polygon fill="#63b8ff" stroke="#63b8ff" points="726.76,-607.92 736.8,-604.55 726.85,-600.92 726.76,-607.92"/>
</a>
</g>
</g>
<!-- Node10&#45;&gt;Node10 -->
<g id="edge14_Node000010_Node000010" class="edge">
<title>Node10&#45;&gt;Node10</title>
<g id="a_edge14_Node000010_Node000010"><a xlink:title=" ">
<path fill="none" stroke="#63b8ff" d="M394.71,-548.6C390.86,-558.15 402.62,-566.5 430,-566.5 447.11,-566.5 458.12,-563.24 463.03,-558.46"/>
<polygon fill="#63b8ff" stroke="#63b8ff" points="466.47,-559.13 465.29,-548.6 459.65,-557.56 466.47,-559.13"/>
</a>
</g>
</g>
<!-- Node11 -->
<g id="Node000011" class="node">
<title>Node11</title>
<g id="a_Node000011"><a xlink:href="classwmtk_1_1_mesh.html#a60165ceb4c2db2731df90e4ac100637d" target="_top" xlink:title="internal function that returns the tuple of requested type, and has the global index cid">
<polygon fill="white" stroke="#666666" points="701,-488.5 551,-488.5 551,-469.5 701,-469.5 701,-488.5"/>
<text text-anchor="middle" x="626" y="-476.5" font-family="Helvetica,sans-Serif" font-size="10.00">wmtk::Mesh::tuple_from_id</text>
</a>
</g>
</g>
<!-- Node10&#45;&gt;Node11 -->
<g id="edge13_Node000010_Node000011" class="edge">
<title>Node10&#45;&gt;Node11</title>
<g id="a_edge13_Node000010_Node000011"><a xlink:title=" ">
<path fill="none" stroke="#63b8ff" d="M495.06,-511.82C521.93,-505.03 552.63,-497.28 577.43,-491.01"/>
<polygon fill="#63b8ff" stroke="#63b8ff" points="578.49,-494.36 587.33,-488.52 576.78,-487.57 578.49,-494.36"/>
</a>
</g>
</g>
<!-- Node13 -->
<g id="Node000013" class="node">
<title>Node13</title>
<g id="a_Node000013"><a xlink:href="namespacewmtk.html#a5cf45c152e856196bb734c6f48919a24" target="_top" xlink:title="Get a unique integer id corresponding to each primitive type.">
<polygon fill="white" stroke="#666666" points="488,-392 372,-392 372,-362 488,-362 488,-392"/>
<text text-anchor="start" x="380" y="-380" font-family="Helvetica,sans-Serif" font-size="10.00">wmtk::get_primitive</text>
<text text-anchor="middle" x="430" y="-369" font-family="Helvetica,sans-Serif" font-size="10.00">_type_id</text>
</a>
</g>
</g>
<!-- Node12&#45;&gt;Node13 -->
<g id="edge18_Node000012_Node000013" class="edge">
<title>Node12&#45;&gt;Node13</title>
<g id="a_edge18_Node000012_Node000013"><a xlink:title=" ">
<path fill="none" stroke="#63b8ff" d="M299.56,-376.32C319.39,-376.42 341.5,-376.54 361.76,-376.65"/>
<polygon fill="#63b8ff" stroke="#63b8ff" points="361.83,-380.15 371.84,-376.7 361.86,-373.15 361.83,-380.15"/>
</a>
</g>
</g>
<!-- Node15 -->
<g id="Node000015" class="node">
<title>Node15</title>
<g id="a_Node000015"><a xlink:href="namespacewmtk_1_1simplex.html#aee89641a0de7b5ddf8d15bf376f9d33b" target="_top" xlink:title="Returns all faces of a simplex.">
<polygon fill="white" stroke="#666666" points="491,-224.5 369,-224.5 369,-205.5 491,-205.5 491,-224.5"/>
<text text-anchor="middle" x="430" y="-212.5" font-family="Helvetica,sans-Serif" font-size="10.00">wmtk::simplex::faces</text>
</a>
</g>
</g>
<!-- Node14&#45;&gt;Node15 -->
<g id="edge20_Node000014_Node000015" class="edge">
<title>Node14&#45;&gt;Node15</title>
<g id="a_edge20_Node000014_Node000015"><a xlink:title=" ">
<path fill="none" stroke="#63b8ff" d="M309.16,-191.72C329.18,-195.61 350.75,-199.8 370.01,-203.54"/>
<polygon fill="#63b8ff" stroke="#63b8ff" points="369.36,-206.98 379.84,-205.45 370.69,-200.11 369.36,-206.98"/>
</a>
</g>
</g>
<!-- Node16 -->
<g id="Node000016" class="node">
<title>Node16</title>
<g id="a_Node000016"><a xlink:href="classwmtk_1_1simplex_1_1_simplex.html#ad2cc0340a0772b7d6f03ba7a781d1163" target="_top" xlink:title=" ">
<polygon fill="white" stroke="#666666" points="497.5,-150 362.5,-150 362.5,-120 497.5,-120 497.5,-150"/>
<text text-anchor="start" x="370.5" y="-138" font-family="Helvetica,sans-Serif" font-size="10.00">wmtk::simplex::Simplex</text>
<text text-anchor="middle" x="430" y="-127" font-family="Helvetica,sans-Serif" font-size="10.00">::primitive_type</text>
</a>
</g>
</g>
<!-- Node14&#45;&gt;Node16 -->
<g id="edge22_Node000014_Node000016" class="edge">
<title>Node14&#45;&gt;Node16</title>
<g id="a_edge22_Node000014_Node000016"><a xlink:title=" ">
<path fill="none" stroke="#63b8ff" d="M305.13,-162.96C320.35,-159.52 336.66,-155.84 352.27,-152.32"/>
<polygon fill="#63b8ff" stroke="#63b8ff" points="353.43,-155.65 362.41,-150.03 351.88,-148.82 353.43,-155.65"/>
</a>
</g>
</g>
<!-- Node17 -->
<g id="Node000017" class="node">
<title>Node17</title>
<g id="a_Node000017"><a xlink:href="classwmtk_1_1_mesh.html#abaf00438d0700358b160e310d69725c9" target="_top" xlink:title=" ">
<polygon fill="white" stroke="#666666" points="515,-187.5 345,-187.5 345,-168.5 515,-168.5 515,-187.5"/>
<text text-anchor="middle" x="430" y="-175.5" font-family="Helvetica,sans-Serif" font-size="10.00">wmtk::Mesh::top_simplex_type</text>
</a>
</g>
</g>
<!-- Node14&#45;&gt;Node17 -->
<g id="edge23_Node000014_Node000017" class="edge">
<title>Node14&#45;&gt;Node17</title>
<g id="a_edge23_Node000014_Node000017"><a xlink:title=" ">
<path fill="none" stroke="#63b8ff" d="M309.16,-178C317.54,-178 326.18,-178 334.81,-178"/>
<polygon fill="#63b8ff" stroke="#63b8ff" points="334.92,-181.5 344.92,-178 334.92,-174.5 334.92,-181.5"/>
</a>
</g>
</g>
<!-- Node15&#45;&gt;Node15 -->
<g id="edge21_Node000015_Node000015" class="edge">
<title>Node15&#45;&gt;Node15</title>
<g id="a_edge21_Node000015_Node000015"><a xlink:title=" ">
<path fill="none" stroke="#63b8ff" d="M400.41,-224.58C386.01,-233.23 395.88,-242.5 430,-242.5 453.46,-242.5 465.45,-238.12 465.98,-232.57"/>
<polygon fill="#63b8ff" stroke="#63b8ff" points="468.57,-230.21 459.59,-224.58 463.11,-234.58 468.57,-230.21"/>
</a>
</g>
</g>
<!-- Node18 -->
<g id="Node000018" class="node">
<title>Node18</title>
<g id="a_Node000018"><a xlink:href="classwmtk_1_1_mesh.html#a933f681cf24a63b155c9462280385200" target="_top" xlink:title=" ">
<polygon fill="white" stroke="#666666" points="686.5,-193 565.5,-193 565.5,-163 686.5,-163 686.5,-193"/>
<text text-anchor="start" x="573.5" y="-181" font-family="Helvetica,sans-Serif" font-size="10.00">wmtk::Mesh::top_cell</text>
<text text-anchor="middle" x="626" y="-170" font-family="Helvetica,sans-Serif" font-size="10.00">_dimension</text>
</a>
</g>
</g>
<!-- Node17&#45;&gt;Node18 -->
<g id="edge24_Node000017_Node000018" class="edge">
<title>Node17&#45;&gt;Node18</title>
<g id="a_edge24_Node000017_Node000018"><a xlink:title=" ">
<path fill="none" stroke="#63b8ff" d="M515.24,-178C528.56,-178 542.2,-178 555.14,-178"/>
<polygon fill="#63b8ff" stroke="#63b8ff" points="555.34,-181.5 565.34,-178 555.34,-174.5 555.34,-181.5"/>
</a>
</g>
</g>
<!-- Node20&#45;&gt;Node20 -->
<g id="edge27_Node000020_Node000020" class="edge">
<title>Node20&#45;&gt;Node20</title>
<g id="a_edge27_Node000020_Node000020"><a xlink:title=" ">
<path fill="none" stroke="#63b8ff" d="M210.99,-230.58C198.09,-239.23 206.93,-248.5 237.5,-248.5 258.04,-248.5 268.77,-244.32 269.69,-238.95"/>
<polygon fill="#63b8ff" stroke="#63b8ff" points="272.52,-236.89 264.01,-230.58 266.73,-240.82 272.52,-236.89"/>
</a>
</g>
</g>
<!-- Node21&#45;&gt;Node16 -->
<g id="edge30_Node000021_Node000016" class="edge">
<title>Node21&#45;&gt;Node16</title>
<g id="a_edge30_Node000021_Node000016"><a xlink:title=" ">
<path fill="none" stroke="#63b8ff" d="M308.62,-123.63C322.71,-124.96 337.58,-126.36 351.89,-127.71"/>
<polygon fill="#63b8ff" stroke="#63b8ff" points="351.91,-131.23 362.19,-128.69 352.57,-124.26 351.91,-131.23"/>
</a>
</g>
</g>
<!-- Node21&#45;&gt;Node21 -->
<g id="edge29_Node000021_Node000021" class="edge">
<title>Node21&#45;&gt;Node21</title>
<g id="a_edge29_Node000021_Node000021"><a xlink:title=" ">
<path fill="none" stroke="#63b8ff" d="M210.99,-126.58C198.09,-135.23 206.93,-144.5 237.5,-144.5 258.04,-144.5 268.77,-140.32 269.69,-134.95"/>
<polygon fill="#63b8ff" stroke="#63b8ff" points="272.52,-132.89 264.01,-126.58 266.73,-136.82 272.52,-132.89"/>
</a>
</g>
</g>
<!-- Node22 -->
<g id="Node000022" class="node">
<title>Node22</title>
<g id="a_Node000022"><a xlink:href="classwmtk_1_1simplex_1_1_simplex.html#aca78b1fb0a3c28c0036cf7919bfb0789" target="_top" xlink:title=" ">
<polygon fill="white" stroke="#666666" points="497.5,-102 362.5,-102 362.5,-72 497.5,-72 497.5,-102"/>
<text text-anchor="start" x="370.5" y="-90" font-family="Helvetica,sans-Serif" font-size="10.00">wmtk::simplex::Simplex</text>
<text text-anchor="middle" x="430" y="-79" font-family="Helvetica,sans-Serif" font-size="10.00">::tuple</text>
</a>
</g>
</g>
<!-- Node21&#45;&gt;Node22 -->
<g id="edge31_Node000021_Node000022" class="edge">
<title>Node21&#45;&gt;Node22</title>
<g id="a_edge31_Node000021_Node000022"><a xlink:title=" ">
<path fill="none" stroke="#63b8ff" d="M299.04,-107.47C315.89,-104.81 334.41,-101.9 352.07,-99.12"/>
<polygon fill="#63b8ff" stroke="#63b8ff" points="353.01,-102.51 362.34,-97.5 351.92,-95.6 353.01,-102.51"/>
</a>
</g>
</g>
<!-- Node23&#45;&gt;Node5 -->
<g id="edge33_Node000023_Node000005" class="edge">
<title>Node23&#45;&gt;Node5</title>
<g id="a_edge33_Node000023_Node000005"><a xlink:title=" ">
<path fill="none" stroke="#63b8ff" d="M495.06,-590.14C512.93,-586 532.49,-581.46 550.89,-577.19"/>
<polygon fill="#63b8ff" stroke="#63b8ff" points="551.73,-580.59 560.68,-574.92 550.14,-573.77 551.73,-580.59"/>
</a>
</g>
</g>
</g>
</svg>
