<?xml version="1.0" encoding="UTF-8" standalone="no"?>
<!DOCTYPE svg PUBLIC "-//W3C//DTD SVG 1.1//EN"
 "http://www.w3.org/Graphics/SVG/1.1/DTD/svg11.dtd">
<!-- Generated by graphviz version 2.43.0 (0)
 -->
<!-- Title: wmtk::operations::utils::UpdateEdgeOperationMultiMeshMapFunctor::operator() Pages: 1 -->
<!--zoomable 666 -->

<svg id="main" version="1.1" xmlns="http://www.w3.org/2000/svg" xmlns:xlink="http://www.w3.org/1999/xlink" xml:space="preserve" onload="init(evt)">
<style type="text/css"><![CDATA[
.node, .edge {opacity: 0.7;}
.node.selected, .edge.selected {opacity: 1;}
.edge:hover path { stroke: red; }
.edge:hover polygon { stroke: red; fill: red; }
]]></style>

<defs>
  <circle id="rim" cx="0" cy="0" r="7"/>
  <circle id="rim2" cx="0" cy="0" r="3.5"/>
  <g id="zoomPlus">
    <use xlink:href="#rim" fill="#404040"><set attributeName="fill" to="#808080" begin="zoomplus.mouseover" end="zoomplus.mouseout"/></use>
    <path d="M-4,0h8M0,-4v8" fill="none" stroke="white" stroke-width="1.5" pointer-events="none"/>
  </g>
  <g id="zoomMin">
    <use xlink:href="#rim" fill="#404040"><set attributeName="fill" to="#808080" begin="zoomminus.mouseover" end="zoomminus.mouseout"/></use>
    <path d="M-4,0h8" fill="none" stroke="white" stroke-width="1.5" pointer-events="none"/>
  </g>
  <g id="arrowUp" transform="translate(30 24)">
    <use xlink:href="#rim"/>
    <path pointer-events="none" fill="none" stroke="white" stroke-width="1.5" d="M0,-3.0v7 M-2.5,-0.5L0,-3.0L2.5,-0.5"/>
  </g>
  <g id="arrowRight" transform="rotate(90) translate(36 -43)">
    <use xlink:href="#rim"/>
    <path pointer-events="none" fill="none" stroke="white" stroke-width="1.5" d="M0,-3.0v7 M-2.5,-0.5L0,-3.0L2.5,-0.5"/>
  </g>
  <g id="arrowDown" transform="rotate(180) translate(-30 -48)">
    <use xlink:href="#rim"/>
    <path pointer-events="none" fill="none" stroke="white" stroke-width="1.5" d="M0,-3.0v7 M-2.5,-0.5L0,-3.0L2.5,-0.5"/>
  </g>
  <g id="arrowLeft" transform="rotate(270) translate(-36 17)">
    <use xlink:href="#rim"/>
    <path pointer-events="none" fill="none" stroke="white" stroke-width="1.5" d="M0,-3.0v7 M-2.5,-0.5L0,-3.0L2.5,-0.5"/>
  </g>
  <g id="resetDef">
    <use xlink:href="#rim2" fill="#404040"><set attributeName="fill" to="#808080" begin="reset.mouseover" end="reset.mouseout"/></use>
  </g>
</defs>
<script type="application/ecmascript">
var viewWidth = 1141;
var viewHeight = 666;
var sectionId = 'dynsection-2';
</script>
<script type="application/ecmascript" xlink:href="svg.min.js"/>
<svg id="graph" class="graph">
<g id="viewport">
<title>wmtk::operations::utils::UpdateEdgeOperationMultiMeshMapFunctor::operator()</title>
<!-- Node1 -->
<g id="Node000001" class="node">
<title>Node1</title>
<g id="a_Node000001"><a xlink:title=" ">
<polygon fill="#999999" stroke="#666666" points="181,-328.5 0,-328.5 0,-287.5 181,-287.5 181,-328.5"/>
<text text-anchor="start" x="8" y="-316.5" font-family="Helvetica,sans-Serif" font-size="10.00">wmtk::operations::utils</text>
<text text-anchor="start" x="8" y="-305.5" font-family="Helvetica,sans-Serif" font-size="10.00">::UpdateEdgeOperationMultiMesh</text>
<text text-anchor="middle" x="90.5" y="-294.5" font-family="Helvetica,sans-Serif" font-size="10.00">MapFunctor::operator()</text>
</a>
</g>
</g>
<!-- Node2 -->
<g id="Node000002" class="node">
<title>Node2</title>
<g id="a_Node000002"><a xlink:href="classwmtk_1_1multimesh_1_1_multi_mesh_manager.html#aaf55bec467d549041f23eb21e2633578" target="_top" xlink:title=" ">
<polygon fill="white" stroke="#666666" points="378,-585 217,-585 217,-555 378,-555 378,-585"/>
<text text-anchor="start" x="225" y="-573" font-family="Helvetica,sans-Serif" font-size="10.00">wmtk::multimesh::MultiMesh</text>
<text text-anchor="middle" x="297.5" y="-562" font-family="Helvetica,sans-Serif" font-size="10.00">Manager::get_map_accessors</text>
</a>
</g>
</g>
<!-- Node1&#45;&gt;Node2 -->
<g id="edge1_Node000001_Node000002" class="edge">
<title>Node1&#45;&gt;Node2</title>
<g id="a_edge1_Node000001_Node000002"><a xlink:title=" ">
<path fill="none" stroke="#63b8ff" d="M107.59,-328.56C145.24,-376.68 238.9,-496.39 278.44,-546.91"/>
<polygon fill="#63b8ff" stroke="#63b8ff" points="275.81,-549.24 284.73,-554.96 281.33,-544.93 275.81,-549.24"/>
</a>
</g>
</g>
<!-- Node4 -->
<g id="Node000004" class="node">
<title>Node4</title>
<g id="a_Node000004"><a xlink:href="classwmtk_1_1_edge_mesh.html#acd802c89cf0cba9c312a8e7ecfa11c80" target="_top" xlink:title="check validity of tuple including its hash">
<polygon fill="white" stroke="#666666" points="355,-413 240,-413 240,-383 355,-383 355,-413"/>
<text text-anchor="start" x="248" y="-401" font-family="Helvetica,sans-Serif" font-size="10.00">wmtk::EdgeMesh::is</text>
<text text-anchor="middle" x="297.5" y="-390" font-family="Helvetica,sans-Serif" font-size="10.00">_valid</text>
</a>
</g>
</g>
<!-- Node1&#45;&gt;Node4 -->
<g id="edge3_Node000001_Node000004" class="edge">
<title>Node1&#45;&gt;Node4</title>
<g id="a_edge3_Node000001_Node000004"><a xlink:title=" ">
<path fill="none" stroke="#63b8ff" d="M138.27,-328.54C172.58,-343.6 218.86,-363.92 252.5,-378.68"/>
<polygon fill="#63b8ff" stroke="#63b8ff" points="251.51,-382.07 262.07,-382.88 254.32,-375.66 251.51,-382.07"/>
</a>
</g>
</g>
<!-- Node26 -->
<g id="Node000026" class="node">
<title>Node26</title>
<g id="a_Node000026"><a xlink:href="namespacewmtk_1_1multimesh_1_1utils.html#ab19d57f46b80f20b1b4685ed83e305d5" target="_top" xlink:title=" ">
<polygon fill="white" stroke="#666666" points="365,-184.5 230,-184.5 230,-143.5 365,-143.5 365,-184.5"/>
<text text-anchor="start" x="238" y="-172.5" font-family="Helvetica,sans-Serif" font-size="10.00">wmtk::multimesh::utils</text>
<text text-anchor="start" x="238" y="-161.5" font-family="Helvetica,sans-Serif" font-size="10.00">::symmetric_write_tuple</text>
<text text-anchor="middle" x="297.5" y="-150.5" font-family="Helvetica,sans-Serif" font-size="10.00">_map_attributes</text>
</a>
</g>
</g>
<!-- Node1&#45;&gt;Node26 -->
<g id="edge31_Node000001_Node000026" class="edge">
<title>Node1&#45;&gt;Node26</title>
<g id="a_edge31_Node000001_Node000026"><a xlink:title=" ">
<path fill="none" stroke="#63b8ff" d="M120.87,-287.37C157.18,-261.87 219.03,-218.42 258.8,-190.48"/>
<polygon fill="#63b8ff" stroke="#63b8ff" points="261.01,-193.21 267.18,-184.59 256.99,-187.48 261.01,-193.21"/>
</a>
</g>
</g>
<!-- Node31 -->
<g id="Node000031" class="node">
<title>Node31</title>
<g id="a_Node000031"><a xlink:href="classwmtk_1_1_edge_mesh.html#a0ab63b29f3f6d75fe26358387d124fc0" target="_top" xlink:title=" ">
<polygon fill="white" stroke="#666666" points="363,-283 232,-283 232,-253 363,-253 363,-283"/>
<text text-anchor="start" x="240" y="-271" font-family="Helvetica,sans-Serif" font-size="10.00">wmtk::EdgeMesh::tuple</text>
<text text-anchor="middle" x="297.5" y="-260" font-family="Helvetica,sans-Serif" font-size="10.00">_from_global_ids</text>
</a>
</g>
</g>
<!-- Node1&#45;&gt;Node31 -->
<g id="edge37_Node000001_Node000031" class="edge">
<title>Node1&#45;&gt;Node31</title>
<g id="a_edge37_Node000001_Node000031"><a xlink:title=" ">
<path fill="none" stroke="#63b8ff" d="M181.12,-290.51C194.68,-287.87 208.55,-285.16 221.76,-282.58"/>
<polygon fill="#63b8ff" stroke="#63b8ff" points="222.57,-285.99 231.71,-280.64 221.23,-279.12 222.57,-285.99"/>
</a>
</g>
</g>
<!-- Node3 -->
<g id="Node000003" class="node">
<title>Node3</title>
<g id="a_Node000003"><a xlink:href="classwmtk_1_1_mesh.html#ad85569ecd50cc7c0b5161b1d1cd13ebb" target="_top" xlink:title=" ">
<polygon fill="white" stroke="#666666" points="546.5,-658 433.5,-658 433.5,-628 546.5,-628 546.5,-658"/>
<text text-anchor="start" x="441.5" y="-646" font-family="Helvetica,sans-Serif" font-size="10.00">wmtk::Mesh::create</text>
<text text-anchor="middle" x="490" y="-635" font-family="Helvetica,sans-Serif" font-size="10.00">_accessor</text>
</a>
</g>
</g>
<!-- Node2&#45;&gt;Node3 -->
<g id="edge2_Node000002_Node000003" class="edge">
<title>Node2&#45;&gt;Node3</title>
<g id="a_edge2_Node000002_Node000003"><a xlink:title=" ">
<path fill="none" stroke="#63b8ff" d="M337.97,-585.13C367.6,-596.48 408.35,-612.09 440.05,-624.24"/>
<polygon fill="#63b8ff" stroke="#63b8ff" points="438.99,-627.58 449.58,-627.89 441.49,-621.05 438.99,-627.58"/>
</a>
</g>
</g>
<!-- Node5 -->
<g id="Node000005" class="node">
<title>Node5</title>
<g id="a_Node000005"><a xlink:href="classwmtk_1_1_tuple.html#aef64a43ff5f5617dbc99d865356bbc25" target="_top" xlink:title=" ">
<polygon fill="white" stroke="#666666" points="943.5,-581.5 812.5,-581.5 812.5,-562.5 943.5,-562.5 943.5,-581.5"/>
<text text-anchor="middle" x="878" y="-569.5" font-family="Helvetica,sans-Serif" font-size="10.00">wmtk::Tuple::global_cid</text>
</a>
</g>
</g>
<!-- Node4&#45;&gt;Node5 -->
<g id="edge4_Node000004_Node000005" class="edge">
<title>Node4&#45;&gt;Node5</title>
<g id="a_edge4_Node000004_Node000005"><a xlink:title=" ">
<path fill="none" stroke="#63b8ff" d="M311.25,-413.32C331.13,-436.36 371.64,-480.1 414,-507 489.81,-555.13 513.78,-564.26 602,-581 670.59,-594.01 750.5,-589.23 806.44,-582.74"/>
<polygon fill="#63b8ff" stroke="#63b8ff" points="807.09,-586.18 816.6,-581.51 806.25,-579.23 807.09,-586.18"/>
</a>
</g>
</g>
<!-- Node6 -->
<g id="Node000006" class="node">
<title>Node6</title>
<g id="a_Node000006"><a xlink:href="classwmtk_1_1_edge_mesh.html#a3bf6f960d630d1e3a79a09c71a43100f" target="_top" xlink:title=" ">
<polygon fill="white" stroke="#666666" points="547.5,-381 432.5,-381 432.5,-351 547.5,-351 547.5,-381"/>
<text text-anchor="start" x="440.5" y="-369" font-family="Helvetica,sans-Serif" font-size="10.00">wmtk::EdgeMesh::is</text>
<text text-anchor="middle" x="490" y="-358" font-family="Helvetica,sans-Serif" font-size="10.00">_connectivity_valid</text>
</a>
</g>
</g>
<!-- Node4&#45;&gt;Node6 -->
<g id="edge5_Node000004_Node000006" class="edge">
<title>Node4&#45;&gt;Node6</title>
<g id="a_edge5_Node000004_Node000006"><a xlink:title=" ">
<path fill="none" stroke="#63b8ff" d="M355.14,-388.49C376.25,-384.94 400.42,-380.88 422.35,-377.2"/>
<polygon fill="#63b8ff" stroke="#63b8ff" points="422.97,-380.64 432.25,-375.53 421.81,-373.74 422.97,-380.64"/>
</a>
</g>
</g>
<!-- Node20 -->
<g id="Node000020" class="node">
<title>Node20</title>
<g id="a_Node000020"><a xlink:href="namespacewmtk.html#a6a35f11c12436093d26fdd8be6fecc06" target="_top" xlink:title="Retrieves the current logger.">
<polygon fill="white" stroke="#666666" points="726,-479.5 645,-479.5 645,-460.5 726,-460.5 726,-479.5"/>
<text text-anchor="middle" x="685.5" y="-467.5" font-family="Helvetica,sans-Serif" font-size="10.00">wmtk::logger</text>
</a>
</g>
</g>
<!-- Node4&#45;&gt;Node20 -->
<g id="edge30_Node000004_Node000020" class="edge">
<title>Node4&#45;&gt;Node20</title>
<g id="a_edge30_Node000004_Node000020"><a xlink:title=" ">
<path fill="none" stroke="#63b8ff" d="M355.04,-408.55C430.49,-422.62 562.89,-447.32 634.73,-460.72"/>
<polygon fill="#63b8ff" stroke="#63b8ff" points="634.41,-464.22 644.88,-462.61 635.69,-457.33 634.41,-464.22"/>
</a>
</g>
</g>
<!-- Node22 -->
<g id="Node000022" class="node">
<title>Node22</title>
<g id="a_Node000022"><a xlink:href="classwmtk_1_1_mesh.html#a8cc8686f0688613806f43720b6db49e7" target="_top" xlink:title="check validity of tuple including its hash">
<polygon fill="white" stroke="#666666" points="550,-497.5 430,-497.5 430,-478.5 550,-478.5 550,-497.5"/>
<text text-anchor="middle" x="490" y="-485.5" font-family="Helvetica,sans-Serif" font-size="10.00">wmtk::Mesh::is_valid</text>
</a>
</g>
</g>
<!-- Node4&#45;&gt;Node22 -->
<g id="edge23_Node000004_Node000022" class="edge">
<title>Node4&#45;&gt;Node22</title>
<g id="a_edge23_Node000004_Node000022"><a xlink:title=" ">
<path fill="none" stroke="#63b8ff" d="M330.39,-413.06C366.4,-430.08 424.54,-457.55 459.53,-474.08"/>
<polygon fill="#63b8ff" stroke="#63b8ff" points="458.21,-477.32 468.75,-478.43 461.2,-470.99 458.21,-477.32"/>
</a>
</g>
</g>
<!-- Node25 -->
<g id="Node000025" class="node">
<title>Node25</title>
<g id="a_Node000025"><a xlink:href="classwmtk_1_1_tuple.html#a27f6ee155923e848b461bebea1890abc" target="_top" xlink:title=" ">
<polygon fill="white" stroke="#666666" points="552.5,-332.5 427.5,-332.5 427.5,-313.5 552.5,-313.5 552.5,-332.5"/>
<text text-anchor="middle" x="490" y="-320.5" font-family="Helvetica,sans-Serif" font-size="10.00">wmtk::Tuple::local_vid</text>
</a>
</g>
</g>
<!-- Node4&#45;&gt;Node25 -->
<g id="edge29_Node000004_Node000025" class="edge">
<title>Node4&#45;&gt;Node25</title>
<g id="a_edge29_Node000004_Node000025"><a xlink:title=" ">
<path fill="none" stroke="#63b8ff" d="M325.82,-382.79C348.8,-370.48 382.81,-353.38 414,-342 420.77,-339.53 427.99,-337.26 435.18,-335.22"/>
<polygon fill="#63b8ff" stroke="#63b8ff" points="436.19,-338.57 444.92,-332.58 434.35,-331.82 436.19,-338.57"/>
</a>
</g>
</g>
<!-- Node7 -->
<g id="Node000007" class="node">
<title>Node7</title>
<g id="a_Node000007"><a xlink:href="classwmtk_1_1attribute_1_1_accessor.html#aaeafc36889f90d4e4e9478f998d240d7" target="_top" xlink:title=" ">
<polygon fill="white" stroke="#666666" points="1131,-447 989,-447 989,-417 1131,-417 1131,-447"/>
<text text-anchor="start" x="997" y="-435" font-family="Helvetica,sans-Serif" font-size="10.00">wmtk::attribute::Accessor</text>
<text text-anchor="middle" x="1060" y="-424" font-family="Helvetica,sans-Serif" font-size="10.00">::attribute</text>
</a>
</g>
</g>
<!-- Node6&#45;&gt;Node7 -->
<g id="edge6_Node000006_Node000007" class="edge">
<title>Node6&#45;&gt;Node7</title>
<g id="a_edge6_Node000006_Node000007"><a xlink:title=" ">
<path fill="none" stroke="#63b8ff" d="M518.81,-381.09C540.72,-392.15 572.39,-406.35 602,-413 731.38,-442.07 886.42,-441.3 978.6,-437.25"/>
<polygon fill="#63b8ff" stroke="#63b8ff" points="978.87,-440.74 988.69,-436.78 978.54,-433.75 978.87,-440.74"/>
</a>
</g>
</g>
<!-- Node8 -->
<g id="Node000008" class="node">
<title>Node8</title>
<g id="a_Node000008"><a xlink:href="classwmtk_1_1_mesh.html#a3e8ff83c4a5526a40d18bb9883c6c6c9" target="_top" xlink:title="read in the m_capacities return the upper bound for the number of entities of the given dimension">
<polygon fill="white" stroke="#666666" points="940,-307.5 816,-307.5 816,-288.5 940,-288.5 940,-307.5"/>
<text text-anchor="middle" x="878" y="-295.5" font-family="Helvetica,sans-Serif" font-size="10.00">wmtk::Mesh::capacity</text>
</a>
</g>
</g>
<!-- Node6&#45;&gt;Node8 -->
<g id="edge7_Node000006_Node000008" class="edge">
<title>Node6&#45;&gt;Node8</title>
<g id="a_edge7_Node000006_Node000008"><a xlink:title=" ">
<path fill="none" stroke="#63b8ff" d="M547.55,-360.27C603.99,-354.04 693.01,-342.81 769,-327 785.26,-323.62 788.97,-321.34 805,-317 813.25,-314.77 822.04,-312.42 830.55,-310.16"/>
<polygon fill="#63b8ff" stroke="#63b8ff" points="831.57,-313.51 840.35,-307.57 829.78,-306.75 831.57,-313.51"/>
</a>
</g>
</g>
<!-- Node10 -->
<g id="Node000010" class="node">
<title>Node10</title>
<g id="a_Node000010"><a xlink:href="classwmtk_1_1attribute_1_1_accessor.html#a6d3222130c85d3dcd2d7ae51257dc988" target="_top" xlink:title="Constant access function for a scalar attribute.">
<polygon fill="white" stroke="#666666" points="756.5,-270 614.5,-270 614.5,-240 756.5,-240 756.5,-270"/>
<text text-anchor="start" x="622.5" y="-258" font-family="Helvetica,sans-Serif" font-size="10.00">wmtk::attribute::Accessor</text>
<text text-anchor="middle" x="685.5" y="-247" font-family="Helvetica,sans-Serif" font-size="10.00">::const_scalar_attribute</text>
</a>
</g>
</g>
<!-- Node6&#45;&gt;Node10 -->
<g id="edge9_Node000006_Node000010" class="edge">
<title>Node6&#45;&gt;Node10</title>
<g id="a_edge9_Node000006_Node000010"><a xlink:title=" ">
<path fill="none" stroke="#63b8ff" d="M547.83,-352.92C554.35,-349.98 560.58,-346.39 566,-342 591.06,-321.71 576.67,-298.96 602,-279 603.63,-277.72 605.32,-276.51 607.06,-275.36"/>
<polygon fill="#63b8ff" stroke="#63b8ff" points="609.25,-278.14 616.19,-270.14 605.77,-272.07 609.25,-278.14"/>
</a>
</g>
</g>
<!-- Node11 -->
<g id="Node000011" class="node">
<title>Node11</title>
<g id="a_Node000011"><a xlink:href="classwmtk_1_1attribute_1_1_accessor.html#abecebb154568864219abda80a1beb803" target="_top" xlink:title="Constant access function for a vector attribute.">
<polygon fill="white" stroke="#666666" points="756.5,-174 614.5,-174 614.5,-144 756.5,-144 756.5,-174"/>
<text text-anchor="start" x="622.5" y="-162" font-family="Helvetica,sans-Serif" font-size="10.00">wmtk::attribute::Accessor</text>
<text text-anchor="middle" x="685.5" y="-151" font-family="Helvetica,sans-Serif" font-size="10.00">::const_vector_attribute</text>
</a>
</g>
</g>
<!-- Node6&#45;&gt;Node11 -->
<g id="edge10_Node000006_Node000011" class="edge">
<title>Node6&#45;&gt;Node11</title>
<g id="a_edge10_Node000006_Node000011"><a xlink:title=" ">
<path fill="none" stroke="#63b8ff" d="M547.71,-355.1C554.56,-351.81 560.92,-347.54 566,-342 614.96,-288.59 552.34,-235.76 602,-183 603.23,-181.69 604.53,-180.46 605.88,-179.29"/>
<polygon fill="#63b8ff" stroke="#63b8ff" points="608.14,-181.97 614.21,-173.28 604.05,-176.29 608.14,-181.97"/>
</a>
</g>
</g>
<!-- Node12 -->
<g id="Node000012" class="node">
<title>Node12</title>
<g id="a_Node000012"><a xlink:href="classwmtk_1_1_mesh.html#ae3493915b766f0f34f0a9e89603d5773" target="_top" xlink:title=" ">
<polygon fill="white" stroke="#666666" points="746.5,-318 624.5,-318 624.5,-288 746.5,-288 746.5,-318"/>
<text text-anchor="start" x="632.5" y="-306" font-family="Helvetica,sans-Serif" font-size="10.00">wmtk::Mesh::get_flag</text>
<text text-anchor="middle" x="685.5" y="-295" font-family="Helvetica,sans-Serif" font-size="10.00">_accessor</text>
</a>
</g>
</g>
<!-- Node6&#45;&gt;Node12 -->
<g id="edge11_Node000006_Node000012" class="edge">
<title>Node6&#45;&gt;Node12</title>
<g id="a_edge11_Node000006_Node000012"><a xlink:title=" ">
<path fill="none" stroke="#63b8ff" d="M538.23,-350.95C547.44,-348 557.03,-344.91 566,-342 586.71,-335.28 609.44,-327.82 629.39,-321.24"/>
<polygon fill="#63b8ff" stroke="#63b8ff" points="630.55,-324.55 638.95,-318.09 628.36,-317.9 630.55,-324.55"/>
</a>
</g>
</g>
<!-- Node15 -->
<g id="Node000015" class="node">
<title>Node15</title>
<g id="a_Node000015"><a xlink:href="classwmtk_1_1attribute_1_1_flag_accessor.html#a4f49a666c3811fee9b841c1cd1f66250" target="_top" xlink:title=" ">
<polygon fill="white" stroke="#666666" points="767,-222 604,-222 604,-192 767,-192 767,-222"/>
<text text-anchor="start" x="612" y="-210" font-family="Helvetica,sans-Serif" font-size="10.00">wmtk::attribute::FlagAccessor</text>
<text text-anchor="middle" x="685.5" y="-199" font-family="Helvetica,sans-Serif" font-size="10.00">::index_access</text>
</a>
</g>
</g>
<!-- Node6&#45;&gt;Node15 -->
<g id="edge15_Node000006_Node000015" class="edge">
<title>Node6&#45;&gt;Node15</title>
<g id="a_edge15_Node000006_Node000015"><a xlink:title=" ">
<path fill="none" stroke="#63b8ff" d="M547.63,-354.48C554.41,-351.29 560.77,-347.21 566,-342 602.74,-305.4 564.77,-267.11 602,-231 603.1,-229.93 604.25,-228.91 605.44,-227.93"/>
<polygon fill="#63b8ff" stroke="#63b8ff" points="607.6,-230.69 613.8,-222.1 603.6,-224.95 607.6,-230.69"/>
</a>
</g>
</g>
<!-- Node16 -->
<g id="Node000016" class="node">
<title>Node16</title>
<g id="a_Node000016"><a xlink:href="classwmtk_1_1attribute_1_1_index_flag_accessor.html#a195252af3f6230f09f0c1379cbec7240" target="_top" xlink:title=" ">
<polygon fill="white" stroke="#666666" points="758.5,-404 612.5,-404 612.5,-374 758.5,-374 758.5,-404"/>
<text text-anchor="start" x="620.5" y="-392" font-family="Helvetica,sans-Serif" font-size="10.00">wmtk::attribute::IndexFlag</text>
<text text-anchor="middle" x="685.5" y="-381" font-family="Helvetica,sans-Serif" font-size="10.00">Accessor::is_active</text>
</a>
</g>
</g>
<!-- Node6&#45;&gt;Node16 -->
<g id="edge16_Node000006_Node000016" class="edge">
<title>Node6&#45;&gt;Node16</title>
<g id="a_edge16_Node000006_Node000016"><a xlink:title=" ">
<path fill="none" stroke="#63b8ff" d="M547.75,-372.75C564.78,-374.77 583.82,-377.03 602.15,-379.21"/>
<polygon fill="#63b8ff" stroke="#63b8ff" points="601.9,-382.71 612.24,-380.41 602.73,-375.76 601.9,-382.71"/>
</a>
</g>
</g>
<!-- Node6&#45;&gt;Node20 -->
<g id="edge21_Node000006_Node000020" class="edge">
<title>Node6&#45;&gt;Node20</title>
<g id="a_edge21_Node000006_Node000020"><a xlink:title=" ">
<path fill="none" stroke="#63b8ff" d="M515.88,-381.09C530.75,-390.4 549.84,-402.85 566,-415 582.88,-427.69 583.44,-435.93 602,-446 612.24,-451.56 623.92,-455.96 635.19,-459.39"/>
<polygon fill="#63b8ff" stroke="#63b8ff" points="634.38,-462.8 644.96,-462.16 636.29,-456.06 634.38,-462.8"/>
</a>
</g>
</g>
<!-- Node9 -->
<g id="Node000009" class="node">
<title>Node9</title>
<g id="a_Node000009"><a xlink:href="namespacewmtk.html#a5cf45c152e856196bb734c6f48919a24" target="_top" xlink:title="Get a unique integer id corresponding to each primitive type.">
<polygon fill="white" stroke="#666666" points="1118,-313 1002,-313 1002,-283 1118,-283 1118,-313"/>
<text text-anchor="start" x="1010" y="-301" font-family="Helvetica,sans-Serif" font-size="10.00">wmtk::get_primitive</text>
<text text-anchor="middle" x="1060" y="-290" font-family="Helvetica,sans-Serif" font-size="10.00">_type_id</text>
</a>
</g>
</g>
<!-- Node8&#45;&gt;Node9 -->
<g id="edge8_Node000008_Node000009" class="edge">
<title>Node8&#45;&gt;Node9</title>
<g id="a_edge8_Node000008_Node000009"><a xlink:title=" ">
<path fill="none" stroke="#63b8ff" d="M940.19,-298C956.73,-298 974.73,-298 991.59,-298"/>
<polygon fill="#63b8ff" stroke="#63b8ff" points="991.92,-301.5 1001.92,-298 991.92,-294.5 991.92,-301.5"/>
</a>
</g>
</g>
<!-- Node13 -->
<g id="Node000013" class="node">
<title>Node13</title>
<g id="a_Node000013"><a xlink:href="classwmtk_1_1_mesh.html#acfa981b31f00aef4438ff5e73bbce2f4" target="_top" xlink:title=" ">
<polygon fill="white" stroke="#666666" points="943,-270 813,-270 813,-240 943,-240 943,-270"/>
<text text-anchor="start" x="821" y="-258" font-family="Helvetica,sans-Serif" font-size="10.00">wmtk::Mesh::get_const</text>
<text text-anchor="middle" x="878" y="-247" font-family="Helvetica,sans-Serif" font-size="10.00">_flag_accessor</text>
</a>
</g>
</g>
<!-- Node12&#45;&gt;Node13 -->
<g id="edge12_Node000012_Node000013" class="edge">
<title>Node12&#45;&gt;Node13</title>
<g id="a_edge12_Node000012_Node000013"><a xlink:title=" ">
<path fill="none" stroke="#63b8ff" d="M746.25,-287.94C765.76,-283.03 787.58,-277.53 807.72,-272.46"/>
<polygon fill="#63b8ff" stroke="#63b8ff" points="808.62,-275.84 817.46,-270 806.91,-269.05 808.62,-275.84"/>
</a>
</g>
</g>
<!-- Node13&#45;&gt;Node9 -->
<g id="edge14_Node000013_Node000009" class="edge">
<title>Node13&#45;&gt;Node9</title>
<g id="a_edge14_Node000013_Node000009"><a xlink:title=" ">
<path fill="none" stroke="#63b8ff" d="M941.96,-270.04C958.07,-273.89 975.47,-278.05 991.79,-281.95"/>
<polygon fill="#63b8ff" stroke="#63b8ff" points="991.26,-285.42 1001.8,-284.34 992.89,-278.61 991.26,-285.42"/>
</a>
</g>
</g>
<!-- Node14 -->
<g id="Node000014" class="node">
<title>Node14</title>
<g id="a_Node000014"><a xlink:href="classwmtk_1_1_mesh.html#a4cd7e6ca59d8d58cc7057c13bd190d57" target="_top" xlink:title=" ">
<polygon fill="white" stroke="#666666" points="1116.5,-265 1003.5,-265 1003.5,-235 1116.5,-235 1116.5,-265"/>
<text text-anchor="start" x="1011.5" y="-253" font-family="Helvetica,sans-Serif" font-size="10.00">wmtk::Mesh::create</text>
<text text-anchor="middle" x="1060" y="-242" font-family="Helvetica,sans-Serif" font-size="10.00">_const_accessor</text>
</a>
</g>
</g>
<!-- Node13&#45;&gt;Node14 -->
<g id="edge13_Node000013_Node000014" class="edge">
<title>Node13&#45;&gt;Node14</title>
<g id="a_edge13_Node000013_Node000014"><a xlink:title=" ">
<path fill="none" stroke="#63b8ff" d="M943.22,-253.22C959.53,-252.76 977.06,-252.28 993.43,-251.82"/>
<polygon fill="#63b8ff" stroke="#63b8ff" points="993.55,-255.32 1003.45,-251.54 993.36,-248.32 993.55,-255.32"/>
</a>
</g>
</g>
<!-- Node17 -->
<g id="Node000017" class="node">
<title>Node17</title>
<g id="a_Node000017"><a xlink:href="classwmtk_1_1attribute_1_1_index_flag_accessor.html#a08ce19b077654f9e384d8c3fffcbbd0b" target="_top" xlink:title=" ">
<polygon fill="white" stroke="#666666" points="951,-356 805,-356 805,-326 951,-326 951,-356"/>
<text text-anchor="start" x="813" y="-344" font-family="Helvetica,sans-Serif" font-size="10.00">wmtk::attribute::IndexFlag</text>
<text text-anchor="middle" x="878" y="-333" font-family="Helvetica,sans-Serif" font-size="10.00">Accessor::_is_active</text>
</a>
</g>
</g>
<!-- Node16&#45;&gt;Node17 -->
<g id="edge17_Node000016_Node000017" class="edge">
<title>Node16&#45;&gt;Node17</title>
<g id="a_edge17_Node000016_Node000017"><a xlink:title=" ">
<path fill="none" stroke="#63b8ff" d="M746.25,-373.94C765.76,-369.03 787.58,-363.53 807.72,-358.46"/>
<polygon fill="#63b8ff" stroke="#63b8ff" points="808.62,-361.84 817.46,-356 806.91,-355.05 808.62,-361.84"/>
</a>
</g>
</g>
<!-- Node18 -->
<g id="Node000018" class="node">
<title>Node18</title>
<g id="a_Node000018"><a xlink:href="classwmtk_1_1attribute_1_1_index_flag_accessor.html#a209b3c34d677a60d321806e30da8d287" target="_top" xlink:title=" ">
<polygon fill="white" stroke="#666666" points="951,-404 805,-404 805,-374 951,-374 951,-404"/>
<text text-anchor="start" x="813" y="-392" font-family="Helvetica,sans-Serif" font-size="10.00">wmtk::attribute::IndexFlag</text>
<text text-anchor="middle" x="878" y="-381" font-family="Helvetica,sans-Serif" font-size="10.00">Accessor::attribute</text>
</a>
</g>
</g>
<!-- Node16&#45;&gt;Node18 -->
<g id="edge18_Node000016_Node000018" class="edge">
<title>Node16&#45;&gt;Node18</title>
<g id="a_edge18_Node000016_Node000018"><a xlink:title=" ">
<path fill="none" stroke="#63b8ff" d="M758.52,-389C770.37,-389 782.74,-389 794.82,-389"/>
<polygon fill="#63b8ff" stroke="#63b8ff" points="794.88,-392.5 804.88,-389 794.88,-385.5 794.88,-392.5"/>
</a>
</g>
</g>
<!-- Node18&#45;&gt;Node7 -->
<g id="edge19_Node000018_Node000007" class="edge">
<title>Node18&#45;&gt;Node7</title>
<g id="a_edge19_Node000018_Node000007"><a xlink:title=" ">
<path fill="none" stroke="#63b8ff" d="M941.96,-404.04C956.21,-407.44 971.45,-411.09 986.08,-414.58"/>
<polygon fill="#63b8ff" stroke="#63b8ff" points="985.54,-418.05 996.08,-416.97 987.17,-411.24 985.54,-418.05"/>
</a>
</g>
</g>
<!-- Node19 -->
<g id="Node000019" class="node">
<title>Node19</title>
<g id="a_Node000019"><a xlink:href="classwmtk_1_1attribute_1_1_index_flag_accessor.html#a37e882007dc57e3571c18163a709a246" target="_top" xlink:title=" ">
<polygon fill="white" stroke="#666666" points="1133,-399 987,-399 987,-369 1133,-369 1133,-399"/>
<text text-anchor="start" x="995" y="-387" font-family="Helvetica,sans-Serif" font-size="10.00">wmtk::attribute::IndexFlag</text>
<text text-anchor="middle" x="1060" y="-376" font-family="Helvetica,sans-Serif" font-size="10.00">Accessor::base_accessor</text>
</a>
</g>
</g>
<!-- Node18&#45;&gt;Node19 -->
<g id="edge20_Node000018_Node000019" class="edge">
<title>Node18&#45;&gt;Node19</title>
<g id="a_edge20_Node000018_Node000019"><a xlink:title=" ">
<path fill="none" stroke="#63b8ff" d="M951.18,-387C959.52,-386.76 968.08,-386.53 976.54,-386.29"/>
<polygon fill="#63b8ff" stroke="#63b8ff" points="976.91,-389.78 986.81,-386.01 976.71,-382.78 976.91,-389.78"/>
</a>
</g>
</g>
<!-- Node21 -->
<g id="Node000021" class="node">
<title>Node21</title>
<g id="a_Node000021"><a xlink:href="namespacewmtk.html#a3daa7951a5f8b78cf4600dc047fcc180" target="_top" xlink:title="Setup a logger object to be used by WildmeshToolkit.">
<polygon fill="white" stroke="#666666" points="928.5,-479.5 827.5,-479.5 827.5,-460.5 928.5,-460.5 928.5,-479.5"/>
<text text-anchor="middle" x="878" y="-467.5" font-family="Helvetica,sans-Serif" font-size="10.00">wmtk::set_logger</text>
</a>
</g>
</g>
<!-- Node20&#45;&gt;Node21 -->
<g id="edge22_Node000020_Node000021" class="edge">
<title>Node20&#45;&gt;Node21</title>
<g id="a_edge22_Node000020_Node000021"><a xlink:title=" ">
<path fill="none" stroke="#63b8ff" d="M726.44,-470C752.69,-470 787.52,-470 817.07,-470"/>
<polygon fill="#63b8ff" stroke="#63b8ff" points="817.28,-473.5 827.28,-470 817.28,-466.5 817.28,-473.5"/>
</a>
</g>
</g>
<!-- Node22&#45;&gt;Node20 -->
<g id="edge28_Node000022_Node000020" class="edge">
<title>Node22&#45;&gt;Node20</title>
<g id="a_edge28_Node000022_Node000020"><a xlink:title=" ">
<path fill="none" stroke="#63b8ff" d="M550.11,-482.5C577.07,-479.99 608.65,-477.06 634.42,-474.66"/>
<polygon fill="#63b8ff" stroke="#63b8ff" points="635.08,-478.11 644.71,-473.7 634.43,-471.14 635.08,-478.11"/>
</a>
</g>
</g>
<!-- Node23 -->
<g id="Node000023" class="node">
<title>Node23</title>
<g id="a_Node000023"><a xlink:href="classwmtk_1_1_tuple.html#a0023f575be92cd5ceeeaaaa3762ea06d" target="_top" xlink:title="Checks if a tuple is &quot;null&quot;. This merely implies the global index is &#45;1.">
<polygon fill="white" stroke="#666666" points="742,-516.5 629,-516.5 629,-497.5 742,-497.5 742,-516.5"/>
<text text-anchor="middle" x="685.5" y="-504.5" font-family="Helvetica,sans-Serif" font-size="10.00">wmtk::Tuple::is_null</text>
</a>
</g>
</g>
<!-- Node22&#45;&gt;Node23 -->
<g id="edge24_Node000022_Node000023" class="edge">
<title>Node22&#45;&gt;Node23</title>
<g id="a_edge24_Node000022_Node000023"><a xlink:title=" ">
<path fill="none" stroke="#63b8ff" d="M550.11,-493.8C571.79,-495.93 596.47,-498.36 618.7,-500.54"/>
<polygon fill="#63b8ff" stroke="#63b8ff" points="618.44,-504.03 628.73,-501.52 619.12,-497.06 618.44,-504.03"/>
</a>
</g>
</g>
<!-- Node24 -->
<g id="Node000024" class="node">
<title>Node24</title>
<g id="a_Node000024"><a xlink:href="classwmtk_1_1_mesh.html#ade176d345902d97af8c5da04aa3a095b" target="_top" xlink:title=" ">
<polygon fill="white" stroke="#666666" points="755.5,-553.5 615.5,-553.5 615.5,-534.5 755.5,-534.5 755.5,-553.5"/>
<text text-anchor="middle" x="685.5" y="-541.5" font-family="Helvetica,sans-Serif" font-size="10.00">wmtk::Mesh::is_removed</text>
</a>
</g>
</g>
<!-- Node22&#45;&gt;Node24 -->
<g id="edge25_Node000022_Node000024" class="edge">
<title>Node22&#45;&gt;Node24</title>
<g id="a_edge25_Node000022_Node000024"><a xlink:title=" ">
<path fill="none" stroke="#63b8ff" d="M516.31,-497.6C538.64,-505.84 572.18,-517.67 602,-526 609.83,-528.19 618.14,-530.27 626.35,-532.19"/>
<polygon fill="#63b8ff" stroke="#63b8ff" points="625.76,-535.65 636.28,-534.46 627.31,-528.82 625.76,-535.65"/>
</a>
</g>
</g>
<!-- Node24&#45;&gt;Node5 -->
<g id="edge26_Node000024_Node000005" class="edge">
<title>Node24&#45;&gt;Node5</title>
<g id="a_edge26_Node000024_Node000005"><a xlink:title=" ">
<path fill="none" stroke="#63b8ff" d="M751.26,-553.52C767.61,-555.92 785.29,-558.52 802.09,-560.99"/>
<polygon fill="#63b8ff" stroke="#63b8ff" points="802.02,-564.52 812.42,-562.51 803.03,-557.59 802.02,-564.52"/>
</a>
</g>
</g>
<!-- Node24&#45;&gt;Node24 -->
<g id="edge27_Node000024_Node000024" class="edge">
<title>Node24&#45;&gt;Node24</title>
<g id="a_edge27_Node000024_Node000024"><a xlink:title=" ">
<path fill="none" stroke="#63b8ff" d="M655.91,-553.58C641.51,-562.23 651.38,-571.5 685.5,-571.5 708.96,-571.5 720.95,-567.12 721.48,-561.57"/>
<polygon fill="#63b8ff" stroke="#63b8ff" points="724.07,-559.21 715.09,-553.58 718.61,-563.58 724.07,-559.21"/>
</a>
</g>
</g>
<!-- Node27 -->
<g id="Node000027" class="node">
<title>Node27</title>
<g id="a_Node000027"><a xlink:href="namespacewmtk_1_1multimesh_1_1utils.html#aa965e96578f254d53e7ca53d617f5c6a" target="_top" xlink:title=" ">
<polygon fill="white" stroke="#666666" points="566,-126 414,-126 414,-96 566,-96 566,-126"/>
<text text-anchor="start" x="422" y="-114" font-family="Helvetica,sans-Serif" font-size="10.00">wmtk::multimesh::utils</text>
<text text-anchor="middle" x="490" y="-103" font-family="Helvetica,sans-Serif" font-size="10.00">::write_tuple_map_attribute</text>
</a>
</g>
</g>
<!-- Node26&#45;&gt;Node27 -->
<g id="edge32_Node000026_Node000027" class="edge">
<title>Node26&#45;&gt;Node27</title>
<g id="a_edge32_Node000026_Node000027"><a xlink:title=" ">
<path fill="none" stroke="#63b8ff" d="M365.13,-145.46C384.59,-140.05 405.81,-134.15 425.1,-128.78"/>
<polygon fill="#63b8ff" stroke="#63b8ff" points="426.29,-132.08 434.99,-126.03 424.42,-125.34 426.29,-132.08"/>
</a>
</g>
</g>
<!-- Node27&#45;&gt;Node11 -->
<g id="edge33_Node000027_Node000011" class="edge">
<title>Node27&#45;&gt;Node11</title>
<g id="a_edge33_Node000027_Node000011"><a xlink:title=" ">
<path fill="none" stroke="#63b8ff" d="M551.69,-126.06C571.51,-130.97 593.67,-136.47 614.13,-141.54"/>
<polygon fill="#63b8ff" stroke="#63b8ff" points="613.47,-144.99 624.02,-144 615.16,-138.19 613.47,-144.99"/>
</a>
</g>
</g>
<!-- Node28 -->
<g id="Node000028" class="node">
<title>Node28</title>
<g id="a_Node000028"><a xlink:href="classwmtk_1_1attribute_1_1_tuple_accessor.html#a8d04c3529eb7adeead49e8faa7a119db" target="_top" xlink:title=" ">
<polygon fill="white" stroke="#666666" points="769,-126 602,-126 602,-96 769,-96 769,-126"/>
<text text-anchor="start" x="610" y="-114" font-family="Helvetica,sans-Serif" font-size="10.00">wmtk::attribute::TupleAccessor</text>
<text text-anchor="middle" x="685.5" y="-103" font-family="Helvetica,sans-Serif" font-size="10.00">::dimension</text>
</a>
</g>
</g>
<!-- Node27&#45;&gt;Node28 -->
<g id="edge34_Node000027_Node000028" class="edge">
<title>Node27&#45;&gt;Node28</title>
<g id="a_edge34_Node000027_Node000028"><a xlink:title=" ">
<path fill="none" stroke="#63b8ff" d="M566.09,-111C574.49,-111 583.12,-111 591.7,-111"/>
<polygon fill="#63b8ff" stroke="#63b8ff" points="591.75,-114.5 601.75,-111 591.75,-107.5 591.75,-114.5"/>
</a>
</g>
</g>
<!-- Node29 -->
<g id="Node000029" class="node">
<title>Node29</title>
<g id="a_Node000029"><a xlink:href="classwmtk_1_1attribute_1_1_accessor.html#ad1c53d7c161d4f046bedc27006a0256f" target="_top" xlink:title=" ">
<polygon fill="white" stroke="#666666" points="756.5,-78 614.5,-78 614.5,-48 756.5,-48 756.5,-78"/>
<text text-anchor="start" x="622.5" y="-66" font-family="Helvetica,sans-Serif" font-size="10.00">wmtk::attribute::Accessor</text>
<text text-anchor="middle" x="685.5" y="-55" font-family="Helvetica,sans-Serif" font-size="10.00">::dimension</text>
</a>
</g>
</g>
<!-- Node27&#45;&gt;Node29 -->
<g id="edge35_Node000027_Node000029" class="edge">
<title>Node27&#45;&gt;Node29</title>
<g id="a_edge35_Node000027_Node000029"><a xlink:title=" ">
<path fill="none" stroke="#63b8ff" d="M551.69,-95.94C571.51,-91.03 593.67,-85.53 614.13,-80.46"/>
<polygon fill="#63b8ff" stroke="#63b8ff" points="615.16,-83.81 624.02,-78 613.47,-77.01 615.16,-83.81"/>
</a>
</g>
</g>
<!-- Node30 -->
<g id="Node000030" class="node">
<title>Node30</title>
<g id="a_Node000030"><a xlink:href="classwmtk_1_1attribute_1_1_tuple_accessor.html#ab380e89ad00405e1e82f83f4d33ec6b1" target="_top" xlink:title=" ">
<polygon fill="white" stroke="#666666" points="769,-30 602,-30 602,0 769,0 769,-30"/>
<text text-anchor="start" x="610" y="-18" font-family="Helvetica,sans-Serif" font-size="10.00">wmtk::attribute::TupleAccessor</text>
<text text-anchor="middle" x="685.5" y="-7" font-family="Helvetica,sans-Serif" font-size="10.00">::vector_attribute</text>
</a>
</g>
</g>
<!-- Node27&#45;&gt;Node30 -->
<g id="edge36_Node000027_Node000030" class="edge">
<title>Node27&#45;&gt;Node30</title>
<g id="a_edge36_Node000027_Node000030"><a xlink:title=" ">
<path fill="none" stroke="#63b8ff" d="M510.43,-95.86C531.83,-79.82 567.75,-54.68 602,-39 606.27,-37.05 610.73,-35.21 615.28,-33.49"/>
<polygon fill="#63b8ff" stroke="#63b8ff" points="616.46,-36.79 624.7,-30.13 614.11,-30.2 616.46,-36.79"/>
</a>
</g>
</g>
<!-- Node31&#45;&gt;Node11 -->
<g id="edge38_Node000031_Node000011" class="edge">
<title>Node31&#45;&gt;Node11</title>
<g id="a_edge38_Node000031_Node000011"><a xlink:title=" ">
<path fill="none" stroke="#63b8ff" d="M351.77,-252.96C422.23,-233.06 546.25,-198.04 621.35,-176.83"/>
<polygon fill="#63b8ff" stroke="#63b8ff" points="622.49,-180.15 631.16,-174.06 620.59,-173.41 622.49,-180.15"/>
</a>
</g>
</g>
</g>
</svg>

<g id="navigator" transform="translate(0 0)" fill="#404254">
  <rect fill="#f2f5e9" fill-opacity="0.5" stroke="#606060" stroke-width=".5" x="0" y="0" width="60" height="60"/>
  <use id="zoomplus" xlink:href="#zoomPlus" x="17" y="9" onmousedown="handleZoom(evt,'in')"/>
  <use id="zoomminus" xlink:href="#zoomMin" x="42" y="9" onmousedown="handleZoom(evt,'out')"/>
  <use id="reset" xlink:href="#resetDef" x="30" y="36" onmousedown="handleReset()"/>
   <use id="arrowup" xlink:href="#arrowUp" x="0" y="0" onmousedown="handlePan(0,-1)"/>
  <use id="arrowright" xlink:href="#arrowRight" x="0" y="0" onmousedown="handlePan(1,0)"/>
  <use id="arrowdown" xlink:href="#arrowDown" x="0" y="0" onmousedown="handlePan(0,1)"/>
  <use id="arrowleft" xlink:href="#arrowLeft" x="0" y="0" onmousedown="handlePan(-1,0)"/>
</g>
<svg viewBox="0 0 15 15" width="100%" height="30px" preserveAspectRatio="xMaxYMin meet">
 <g id="arrow_out" transform="scale(0.3 0.3)">
  <a xlink:href="classwmtk_1_1operations_1_1utils_1_1_update_edge_operation_multi_mesh_map_functor_aea3b79c818c10455e635602977d16b45_cgraph_org.svg" target="_base">
   <rect id="button" ry="5" rx="5" y="6" x="6" height="38" width="38"
        fill="#f2f5e9" fill-opacity="0.5" stroke="#606060" stroke-width="1.0"/>
   <path id="arrow"
     d="M 11.500037,31.436501 C 11.940474,20.09759 22.043105,11.32322 32.158766,21.979434 L 37.068811,17.246167 C 37.068811,17.246167 37.088388,32 37.088388,32 L 22.160133,31.978069 C 22.160133,31.978069 26.997745,27.140456 26.997745,27.140456 C 18.528582,18.264221 13.291696,25.230495 11.500037,31.436501 z"
     style="fill:#404040;"/>
  </a>
 </g>
</svg>

<style type='text/css'>
<![CDATA[
[data-mouse-over-selected='false'] { opacity: 0.7; }
[data-mouse-over-selected='true']  { opacity: 1.0; }
]]>
</style>
<script type="application/ecmascript"><![CDATA[
document.addEventListener('DOMContentLoaded', (event) => {
  highlightEdges();
  highlightAdjacentNodes();
});
]]></script>
</svg>
