<?xml version="1.0" encoding="UTF-8" standalone="no"?>
<!DOCTYPE svg PUBLIC "-//W3C//DTD SVG 1.1//EN"
 "http://www.w3.org/Graphics/SVG/1.1/DTD/svg11.dtd">
<!-- Generated by graphviz version 2.43.0 (0)
 -->
<!-- Title: wmtk::TetMesh::is_valid Pages: 1 -->
<svg width="911pt" height="657pt"
 viewBox="0.00 0.00 911.00 657.48" xmlns="http://www.w3.org/2000/svg" xmlns:xlink="http://www.w3.org/1999/xlink">
<g id="graph0" class="graph" transform="scale(1 1) rotate(0) translate(4 653.48)">
<title>wmtk::TetMesh::is_valid</title>
<!-- Node1 -->
<g id="Node000001" class="node">
<title>Node1</title>
<g id="a_Node000001"><a xlink:title="check validity of tuple including its hash">
<polygon fill="#999999" stroke="#666666" points="134,-267.3 0,-267.3 0,-248.3 134,-248.3 134,-267.3"/>
<text text-anchor="middle" x="67" y="-255.3" font-family="Helvetica,sans-Serif" font-size="10.00">wmtk::TetMesh::is_valid</text>
</a>
</g>
</g>
<!-- Node2 -->
<g id="Node000002" class="node">
<title>Node2</title>
<g id="a_Node000002"><a xlink:href="classwmtk_1_1_tuple.html#aef64a43ff5f5617dbc99d865356bbc25" target="_top" xlink:title=" ">
<polygon fill="white" stroke="#666666" points="713.5,-613.3 582.5,-613.3 582.5,-594.3 713.5,-594.3 713.5,-613.3"/>
<text text-anchor="middle" x="648" y="-601.3" font-family="Helvetica,sans-Serif" font-size="10.00">wmtk::Tuple::global_cid</text>
</a>
</g>
</g>
<!-- Node1&#45;&gt;Node2 -->
<g id="edge1_Node000001_Node000002" class="edge">
<title>Node1&#45;&gt;Node2</title>
<g id="a_edge1_Node000001_Node000002"><a xlink:title=" ">
<path fill="none" stroke="#63b8ff" d="M68.37,-267.38C70.49,-308.33 84.19,-470.51 170,-557.8 287.26,-677.08 373.08,-652.96 539,-631.8 562.61,-628.79 588.44,-622.21 608.92,-616.19"/>
<polygon fill="#63b8ff" stroke="#63b8ff" points="609.95,-619.54 618.51,-613.3 607.92,-612.84 609.95,-619.54"/>
</a>
</g>
</g>
<!-- Node3 -->
<g id="Node000003" class="node">
<title>Node3</title>
<g id="a_Node000003"><a xlink:href="classwmtk_1_1_tet_mesh.html#ad4ba72346d616d38086be74705865e55" target="_top" xlink:title=" ">
<polygon fill="white" stroke="#666666" points="340,-363.8 170,-363.8 170,-333.8 340,-333.8 340,-363.8"/>
<text text-anchor="start" x="178" y="-351.8" font-family="Helvetica,sans-Serif" font-size="10.00">wmtk::TetMesh::is_connectivity</text>
<text text-anchor="middle" x="255" y="-340.8" font-family="Helvetica,sans-Serif" font-size="10.00">_valid</text>
</a>
</g>
</g>
<!-- Node1&#45;&gt;Node3 -->
<g id="edge2_Node000001_Node000003" class="edge">
<title>Node1&#45;&gt;Node3</title>
<g id="a_edge2_Node000001_Node000003"><a xlink:title=" ">
<path fill="none" stroke="#63b8ff" d="M87.55,-267.36C117.43,-281.98 175.07,-310.18 214.04,-329.25"/>
<polygon fill="#63b8ff" stroke="#63b8ff" points="212.51,-332.4 223.03,-333.65 215.59,-326.11 212.51,-332.4"/>
</a>
</g>
</g>
<!-- Node17 -->
<g id="Node000017" class="node">
<title>Node17</title>
<g id="a_Node000017"><a xlink:href="namespacewmtk.html#a6a35f11c12436093d26fdd8be6fecc06" target="_top" xlink:title="Retrieves the current logger.">
<polygon fill="white" stroke="#666666" points="498,-530.3 417,-530.3 417,-511.3 498,-511.3 498,-530.3"/>
<text text-anchor="middle" x="457.5" y="-518.3" font-family="Helvetica,sans-Serif" font-size="10.00">wmtk::logger</text>
</a>
</g>
</g>
<!-- Node1&#45;&gt;Node17 -->
<g id="edge29_Node000001_Node000017" class="edge">
<title>Node1&#45;&gt;Node17</title>
<g id="a_edge29_Node000001_Node000017"><a xlink:title=" ">
<path fill="none" stroke="#63b8ff" d="M75.12,-267.57C90.71,-288.54 129.67,-338.66 170,-372.8 252.46,-442.58 276.32,-460.17 376,-501.8 385.74,-505.87 396.52,-509.16 406.95,-511.8"/>
<polygon fill="#63b8ff" stroke="#63b8ff" points="406.25,-515.23 416.79,-514.13 407.86,-508.42 406.25,-515.23"/>
</a>
</g>
</g>
<!-- Node20 -->
<g id="Node000020" class="node">
<title>Node20</title>
<g id="a_Node000020"><a xlink:href="classwmtk_1_1_mesh.html#a8cc8686f0688613806f43720b6db49e7" target="_top" xlink:title="check validity of tuple including its hash">
<polygon fill="white" stroke="#666666" points="315,-548.3 195,-548.3 195,-529.3 315,-529.3 315,-548.3"/>
<text text-anchor="middle" x="255" y="-536.3" font-family="Helvetica,sans-Serif" font-size="10.00">wmtk::Mesh::is_valid</text>
</a>
</g>
</g>
<!-- Node1&#45;&gt;Node20 -->
<g id="edge20_Node000001_Node000020" class="edge">
<title>Node1&#45;&gt;Node20</title>
<g id="a_edge20_Node000001_Node000020"><a xlink:title=" ">
<path fill="none" stroke="#63b8ff" d="M70.98,-267.49C81.01,-299.1 116.01,-401.06 170,-469.8 187.03,-491.48 211.98,-510.89 230.26,-523.55"/>
<polygon fill="#63b8ff" stroke="#63b8ff" points="228.39,-526.51 238.64,-529.21 232.31,-520.71 228.39,-526.51"/>
</a>
</g>
</g>
<!-- Node23 -->
<g id="Node000023" class="node">
<title>Node23</title>
<g id="a_Node000023"><a xlink:href="classwmtk_1_1_tuple.html#ac3cd5381c7147e3ff35347c574635311" target="_top" xlink:title=" ">
<polygon fill="white" stroke="#666666" points="710.5,-151.3 585.5,-151.3 585.5,-132.3 710.5,-132.3 710.5,-151.3"/>
<text text-anchor="middle" x="648" y="-139.3" font-family="Helvetica,sans-Serif" font-size="10.00">wmtk::Tuple::local_eid</text>
</a>
</g>
</g>
<!-- Node1&#45;&gt;Node23 -->
<g id="edge26_Node000001_Node000023" class="edge">
<title>Node1&#45;&gt;Node23</title>
<g id="a_edge26_Node000001_Node000023"><a xlink:title=" ">
<path fill="none" stroke="#63b8ff" d="M105.28,-248.21C163.02,-233.56 277.69,-205.25 376,-185.8 443.35,-172.47 520.7,-160.21 575.48,-152.04"/>
<polygon fill="#63b8ff" stroke="#63b8ff" points="576.06,-155.49 585.44,-150.56 575.03,-148.57 576.06,-155.49"/>
</a>
</g>
</g>
<!-- Node24 -->
<g id="Node000024" class="node">
<title>Node24</title>
<g id="a_Node000024"><a xlink:href="classwmtk_1_1_tuple.html#ab5fa210c660a9d678768c15d7c4f78f0" target="_top" xlink:title=" ">
<polygon fill="white" stroke="#666666" points="709,-101.3 587,-101.3 587,-82.3 709,-82.3 709,-101.3"/>
<text text-anchor="middle" x="648" y="-89.3" font-family="Helvetica,sans-Serif" font-size="10.00">wmtk::Tuple::local_fid</text>
</a>
</g>
</g>
<!-- Node1&#45;&gt;Node24 -->
<g id="edge27_Node000001_Node000024" class="edge">
<title>Node1&#45;&gt;Node24</title>
<g id="a_edge27_Node000001_Node000024"><a xlink:title=" ">
<path fill="none" stroke="#63b8ff" d="M79.06,-248.11C96.91,-233.01 133.73,-204.03 170,-188.8 207.89,-172.88 463.63,-125.14 584.26,-103.14"/>
<polygon fill="#63b8ff" stroke="#63b8ff" points="584.89,-106.58 594.1,-101.34 583.64,-99.69 584.89,-106.58"/>
</a>
</g>
</g>
<!-- Node25 -->
<g id="Node000025" class="node">
<title>Node25</title>
<g id="a_Node000025"><a xlink:href="classwmtk_1_1_tuple.html#a27f6ee155923e848b461bebea1890abc" target="_top" xlink:title=" ">
<polygon fill="white" stroke="#666666" points="710.5,-58.3 585.5,-58.3 585.5,-39.3 710.5,-39.3 710.5,-58.3"/>
<text text-anchor="middle" x="648" y="-46.3" font-family="Helvetica,sans-Serif" font-size="10.00">wmtk::Tuple::local_vid</text>
</a>
</g>
</g>
<!-- Node1&#45;&gt;Node25 -->
<g id="edge28_Node000001_Node000025" class="edge">
<title>Node1&#45;&gt;Node25</title>
<g id="a_edge28_Node000001_Node000025"><a xlink:title=" ">
<path fill="none" stroke="#63b8ff" d="M69.25,-248.06C74.25,-213.57 96.28,-96.87 170,-50.8 310.34,36.91 522.24,-11.1 608.46,-36.38"/>
<polygon fill="#63b8ff" stroke="#63b8ff" points="607.52,-39.75 618.1,-39.27 609.53,-33.04 607.52,-39.75"/>
</a>
</g>
</g>
<!-- Node26 -->
<g id="Node000026" class="node">
<title>Node26</title>
<g id="a_Node000026"><a xlink:href="namespacewmtk_1_1autogen_1_1tet__mesh.html#a217b7c5c5312a716ad27c99abcfc0eb1" target="_top" xlink:title=" ">
<polygon fill="white" stroke="#666666" points="316,-100.3 194,-100.3 194,-59.3 316,-59.3 316,-100.3"/>
<text text-anchor="start" x="202" y="-88.3" font-family="Helvetica,sans-Serif" font-size="10.00">wmtk::autogen::tet</text>
<text text-anchor="start" x="202" y="-77.3" font-family="Helvetica,sans-Serif" font-size="10.00">_mesh::tuple_is_valid</text>
<text text-anchor="middle" x="255" y="-66.3" font-family="Helvetica,sans-Serif" font-size="10.00">_for_ccw</text>
</a>
</g>
</g>
<!-- Node1&#45;&gt;Node26 -->
<g id="edge30_Node000001_Node000026" class="edge">
<title>Node1&#45;&gt;Node26</title>
<g id="a_edge30_Node000001_Node000026"><a xlink:title=" ">
<path fill="none" stroke="#63b8ff" d="M72.53,-248.04C84.76,-222.69 120.88,-153.95 170,-114.8 174.59,-111.14 179.62,-107.8 184.86,-104.78"/>
<polygon fill="#63b8ff" stroke="#63b8ff" points="186.67,-107.78 193.84,-99.97 183.37,-101.6 186.67,-107.78"/>
</a>
</g>
</g>
<!-- Node4 -->
<g id="Node000004" class="node">
<title>Node4</title>
<g id="a_Node000004"><a xlink:href="classwmtk_1_1_mesh.html#a3e8ff83c4a5526a40d18bb9883c6c6c9" target="_top" xlink:title="read in the m_capacities return the upper bound for the number of entities of the given dimension">
<polygon fill="white" stroke="#666666" points="710,-358.3 586,-358.3 586,-339.3 710,-339.3 710,-358.3"/>
<text text-anchor="middle" x="648" y="-346.3" font-family="Helvetica,sans-Serif" font-size="10.00">wmtk::Mesh::capacity</text>
</a>
</g>
</g>
<!-- Node3&#45;&gt;Node4 -->
<g id="edge3_Node000003_Node000004" class="edge">
<title>Node3&#45;&gt;Node4</title>
<g id="a_edge3_Node000003_Node000004"><a xlink:title=" ">
<path fill="none" stroke="#63b8ff" d="M340.36,-348.8C410.47,-348.8 509.13,-348.8 575.44,-348.8"/>
<polygon fill="#63b8ff" stroke="#63b8ff" points="575.79,-352.3 585.79,-348.8 575.79,-345.3 575.79,-352.3"/>
</a>
</g>
</g>
<!-- Node6 -->
<g id="Node000006" class="node">
<title>Node6</title>
<g id="a_Node000006"><a xlink:href="classwmtk_1_1attribute_1_1_accessor.html#a6d3222130c85d3dcd2d7ae51257dc988" target="_top" xlink:title="Constant access function for a scalar attribute.">
<polygon fill="white" stroke="#666666" points="528.5,-272.8 386.5,-272.8 386.5,-242.8 528.5,-242.8 528.5,-272.8"/>
<text text-anchor="start" x="394.5" y="-260.8" font-family="Helvetica,sans-Serif" font-size="10.00">wmtk::attribute::Accessor</text>
<text text-anchor="middle" x="457.5" y="-249.8" font-family="Helvetica,sans-Serif" font-size="10.00">::const_scalar_attribute</text>
</a>
</g>
</g>
<!-- Node3&#45;&gt;Node6 -->
<g id="edge5_Node000003_Node000006" class="edge">
<title>Node3&#45;&gt;Node6</title>
<g id="a_edge5_Node000003_Node000006"><a xlink:title=" ">
<path fill="none" stroke="#63b8ff" d="M279.58,-333.58C303.22,-318.83 341.05,-296.55 376,-281.8 380.67,-279.83 385.55,-277.95 390.5,-276.18"/>
<polygon fill="#63b8ff" stroke="#63b8ff" points="391.75,-279.45 400.08,-272.9 389.48,-272.83 391.75,-279.45"/>
</a>
</g>
</g>
<!-- Node7 -->
<g id="Node000007" class="node">
<title>Node7</title>
<g id="a_Node000007"><a xlink:href="classwmtk_1_1attribute_1_1_accessor.html#abecebb154568864219abda80a1beb803" target="_top" xlink:title="Constant access function for a vector attribute.">
<polygon fill="white" stroke="#666666" points="528.5,-224.8 386.5,-224.8 386.5,-194.8 528.5,-194.8 528.5,-224.8"/>
<text text-anchor="start" x="394.5" y="-212.8" font-family="Helvetica,sans-Serif" font-size="10.00">wmtk::attribute::Accessor</text>
<text text-anchor="middle" x="457.5" y="-201.8" font-family="Helvetica,sans-Serif" font-size="10.00">::const_vector_attribute</text>
</a>
</g>
</g>
<!-- Node3&#45;&gt;Node7 -->
<g id="edge6_Node000003_Node000007" class="edge">
<title>Node3&#45;&gt;Node7</title>
<g id="a_edge6_Node000003_Node000007"><a xlink:title=" ">
<path fill="none" stroke="#63b8ff" d="M267.6,-333.76C287.28,-309.27 329.61,-260.79 376,-233.8 378.99,-232.06 382.12,-230.43 385.33,-228.92"/>
<polygon fill="#63b8ff" stroke="#63b8ff" points="386.77,-232.11 394.57,-224.94 384,-225.68 386.77,-232.11"/>
</a>
</g>
</g>
<!-- Node8 -->
<g id="Node000008" class="node">
<title>Node8</title>
<g id="a_Node000008"><a xlink:href="classwmtk_1_1_mesh.html#ae3493915b766f0f34f0a9e89603d5773" target="_top" xlink:title=" ">
<polygon fill="white" stroke="#666666" points="518.5,-320.8 396.5,-320.8 396.5,-290.8 518.5,-290.8 518.5,-320.8"/>
<text text-anchor="start" x="404.5" y="-308.8" font-family="Helvetica,sans-Serif" font-size="10.00">wmtk::Mesh::get_flag</text>
<text text-anchor="middle" x="457.5" y="-297.8" font-family="Helvetica,sans-Serif" font-size="10.00">_accessor</text>
</a>
</g>
</g>
<!-- Node3&#45;&gt;Node8 -->
<g id="edge7_Node000003_Node000008" class="edge">
<title>Node3&#45;&gt;Node8</title>
<g id="a_edge7_Node000003_Node000008"><a xlink:title=" ">
<path fill="none" stroke="#63b8ff" d="M326.13,-333.76C345.65,-329.57 366.85,-325.02 386.37,-320.84"/>
<polygon fill="#63b8ff" stroke="#63b8ff" points="387.36,-324.2 396.41,-318.69 385.9,-317.36 387.36,-324.2"/>
</a>
</g>
</g>
<!-- Node11 -->
<g id="Node000011" class="node">
<title>Node11</title>
<g id="a_Node000011"><a xlink:href="classwmtk_1_1attribute_1_1_flag_accessor.html#a4f49a666c3811fee9b841c1cd1f66250" target="_top" xlink:title=" ">
<polygon fill="white" stroke="#666666" points="539,-492.8 376,-492.8 376,-462.8 539,-462.8 539,-492.8"/>
<text text-anchor="start" x="384" y="-480.8" font-family="Helvetica,sans-Serif" font-size="10.00">wmtk::attribute::FlagAccessor</text>
<text text-anchor="middle" x="457.5" y="-469.8" font-family="Helvetica,sans-Serif" font-size="10.00">::index_access</text>
</a>
</g>
</g>
<!-- Node3&#45;&gt;Node11 -->
<g id="edge11_Node000003_Node000011" class="edge">
<title>Node3&#45;&gt;Node11</title>
<g id="a_edge11_Node000003_Node000011"><a xlink:title=" ">
<path fill="none" stroke="#63b8ff" d="M269.23,-363.94C289.85,-386.65 331.89,-429.45 376,-453.8 379.26,-455.59 382.66,-457.27 386.16,-458.83"/>
<polygon fill="#63b8ff" stroke="#63b8ff" points="384.99,-462.14 395.57,-462.71 387.65,-455.67 384.99,-462.14"/>
</a>
</g>
</g>
<!-- Node12 -->
<g id="Node000012" class="node">
<title>Node12</title>
<g id="a_Node000012"><a xlink:href="classwmtk_1_1attribute_1_1_index_flag_accessor.html#a195252af3f6230f09f0c1379cbec7240" target="_top" xlink:title=" ">
<polygon fill="white" stroke="#666666" points="530.5,-444.8 384.5,-444.8 384.5,-414.8 530.5,-414.8 530.5,-444.8"/>
<text text-anchor="start" x="392.5" y="-432.8" font-family="Helvetica,sans-Serif" font-size="10.00">wmtk::attribute::IndexFlag</text>
<text text-anchor="middle" x="457.5" y="-421.8" font-family="Helvetica,sans-Serif" font-size="10.00">Accessor::is_active</text>
</a>
</g>
</g>
<!-- Node3&#45;&gt;Node12 -->
<g id="edge12_Node000003_Node000012" class="edge">
<title>Node3&#45;&gt;Node12</title>
<g id="a_edge12_Node000003_Node000012"><a xlink:title=" ">
<path fill="none" stroke="#63b8ff" d="M284.55,-363.89C308.53,-376.19 343.92,-393.48 376,-405.8 381.19,-407.79 386.62,-409.72 392.1,-411.57"/>
<polygon fill="#63b8ff" stroke="#63b8ff" points="391.4,-415.02 401.99,-414.79 393.57,-408.36 391.4,-415.02"/>
</a>
</g>
</g>
<!-- Node3&#45;&gt;Node17 -->
<g id="edge17_Node000003_Node000017" class="edge">
<title>Node3&#45;&gt;Node17</title>
<g id="a_edge17_Node000003_Node000017"><a xlink:title=" ">
<path fill="none" stroke="#63b8ff" d="M271.24,-363.8C288.87,-381.55 318.24,-412.43 340,-441.8 358.51,-466.79 350.89,-483.45 376,-501.8 385.05,-508.41 396.08,-512.76 407.02,-515.61"/>
<polygon fill="#63b8ff" stroke="#63b8ff" points="406.47,-519.07 416.99,-517.82 407.99,-512.24 406.47,-519.07"/>
</a>
</g>
</g>
<!-- Node19 -->
<g id="Node000019" class="node">
<title>Node19</title>
<g id="a_Node000019"><a xlink:href="classwmtk_1_1_tet_mesh.html#afd39672a8a046e96b7cd0d14516ebe79" target="_top" xlink:title=" ">
<polygon fill="white" stroke="#666666" points="535,-396.3 380,-396.3 380,-377.3 535,-377.3 535,-396.3"/>
<text text-anchor="middle" x="457.5" y="-384.3" font-family="Helvetica,sans-Serif" font-size="10.00">wmtk::TetMesh::tv_accessor</text>
</a>
</g>
</g>
<!-- Node3&#45;&gt;Node19 -->
<g id="edge19_Node000003_Node000019" class="edge">
<title>Node3&#45;&gt;Node19</title>
<g id="a_edge19_Node000003_Node000019"><a xlink:title=" ">
<path fill="none" stroke="#63b8ff" d="M335.24,-363.82C355.66,-367.68 377.29,-371.78 396.54,-375.43"/>
<polygon fill="#63b8ff" stroke="#63b8ff" points="395.89,-378.87 406.37,-377.3 397.2,-372 395.89,-378.87"/>
</a>
</g>
</g>
<!-- Node5 -->
<g id="Node000005" class="node">
<title>Node5</title>
<g id="a_Node000005"><a xlink:href="namespacewmtk.html#a5cf45c152e856196bb734c6f48919a24" target="_top" xlink:title="Get a unique integer id corresponding to each primitive type.">
<polygon fill="white" stroke="#666666" points="888,-363.8 772,-363.8 772,-333.8 888,-333.8 888,-363.8"/>
<text text-anchor="start" x="780" y="-351.8" font-family="Helvetica,sans-Serif" font-size="10.00">wmtk::get_primitive</text>
<text text-anchor="middle" x="830" y="-340.8" font-family="Helvetica,sans-Serif" font-size="10.00">_type_id</text>
</a>
</g>
</g>
<!-- Node4&#45;&gt;Node5 -->
<g id="edge4_Node000004_Node000005" class="edge">
<title>Node4&#45;&gt;Node5</title>
<g id="a_edge4_Node000004_Node000005"><a xlink:title=" ">
<path fill="none" stroke="#63b8ff" d="M710.19,-348.8C726.73,-348.8 744.73,-348.8 761.59,-348.8"/>
<polygon fill="#63b8ff" stroke="#63b8ff" points="761.92,-352.3 771.92,-348.8 761.92,-345.3 761.92,-352.3"/>
</a>
</g>
</g>
<!-- Node9 -->
<g id="Node000009" class="node">
<title>Node9</title>
<g id="a_Node000009"><a xlink:href="classwmtk_1_1_mesh.html#acfa981b31f00aef4438ff5e73bbce2f4" target="_top" xlink:title=" ">
<polygon fill="white" stroke="#666666" points="713,-320.8 583,-320.8 583,-290.8 713,-290.8 713,-320.8"/>
<text text-anchor="start" x="591" y="-308.8" font-family="Helvetica,sans-Serif" font-size="10.00">wmtk::Mesh::get_const</text>
<text text-anchor="middle" x="648" y="-297.8" font-family="Helvetica,sans-Serif" font-size="10.00">_flag_accessor</text>
</a>
</g>
</g>
<!-- Node8&#45;&gt;Node9 -->
<g id="edge8_Node000008_Node000009" class="edge">
<title>Node8&#45;&gt;Node9</title>
<g id="a_edge8_Node000008_Node000009"><a xlink:title=" ">
<path fill="none" stroke="#63b8ff" d="M518.66,-305.8C535.85,-305.8 554.8,-305.8 572.73,-305.8"/>
<polygon fill="#63b8ff" stroke="#63b8ff" points="572.86,-309.3 582.86,-305.8 572.86,-302.3 572.86,-309.3"/>
</a>
</g>
</g>
<!-- Node9&#45;&gt;Node5 -->
<g id="edge10_Node000009_Node000005" class="edge">
<title>Node9&#45;&gt;Node5</title>
<g id="a_edge10_Node000009_Node000005"><a xlink:title=" ">
<path fill="none" stroke="#63b8ff" d="M711.96,-320.84C728.07,-324.69 745.47,-328.84 761.79,-332.74"/>
<polygon fill="#63b8ff" stroke="#63b8ff" points="761.26,-336.21 771.8,-335.13 762.89,-329.4 761.26,-336.21"/>
</a>
</g>
</g>
<!-- Node10 -->
<g id="Node000010" class="node">
<title>Node10</title>
<g id="a_Node000010"><a xlink:href="classwmtk_1_1_mesh.html#a4cd7e6ca59d8d58cc7057c13bd190d57" target="_top" xlink:title=" ">
<polygon fill="white" stroke="#666666" points="886.5,-315.8 773.5,-315.8 773.5,-285.8 886.5,-285.8 886.5,-315.8"/>
<text text-anchor="start" x="781.5" y="-303.8" font-family="Helvetica,sans-Serif" font-size="10.00">wmtk::Mesh::create</text>
<text text-anchor="middle" x="830" y="-292.8" font-family="Helvetica,sans-Serif" font-size="10.00">_const_accessor</text>
</a>
</g>
</g>
<!-- Node9&#45;&gt;Node10 -->
<g id="edge9_Node000009_Node000010" class="edge">
<title>Node9&#45;&gt;Node10</title>
<g id="a_edge9_Node000009_Node000010"><a xlink:title=" ">
<path fill="none" stroke="#63b8ff" d="M713.22,-304.01C729.53,-303.56 747.06,-303.07 763.43,-302.62"/>
<polygon fill="#63b8ff" stroke="#63b8ff" points="763.55,-306.12 773.45,-302.34 763.36,-299.12 763.55,-306.12"/>
</a>
</g>
</g>
<!-- Node13 -->
<g id="Node000013" class="node">
<title>Node13</title>
<g id="a_Node000013"><a xlink:href="classwmtk_1_1attribute_1_1_index_flag_accessor.html#a08ce19b077654f9e384d8c3fffcbbd0b" target="_top" xlink:title=" ">
<polygon fill="white" stroke="#666666" points="721,-417.8 575,-417.8 575,-387.8 721,-387.8 721,-417.8"/>
<text text-anchor="start" x="583" y="-405.8" font-family="Helvetica,sans-Serif" font-size="10.00">wmtk::attribute::IndexFlag</text>
<text text-anchor="middle" x="648" y="-394.8" font-family="Helvetica,sans-Serif" font-size="10.00">Accessor::_is_active</text>
</a>
</g>
</g>
<!-- Node12&#45;&gt;Node13 -->
<g id="edge13_Node000012_Node000013" class="edge">
<title>Node12&#45;&gt;Node13</title>
<g id="a_edge13_Node000012_Node000013"><a xlink:title=" ">
<path fill="none" stroke="#63b8ff" d="M530.57,-419.47C541.82,-417.86 553.53,-416.19 564.98,-414.55"/>
<polygon fill="#63b8ff" stroke="#63b8ff" points="565.57,-418 574.97,-413.11 564.57,-411.07 565.57,-418"/>
</a>
</g>
</g>
<!-- Node14 -->
<g id="Node000014" class="node">
<title>Node14</title>
<g id="a_Node000014"><a xlink:href="classwmtk_1_1attribute_1_1_index_flag_accessor.html#a209b3c34d677a60d321806e30da8d287" target="_top" xlink:title=" ">
<polygon fill="white" stroke="#666666" points="721,-465.8 575,-465.8 575,-435.8 721,-435.8 721,-465.8"/>
<text text-anchor="start" x="583" y="-453.8" font-family="Helvetica,sans-Serif" font-size="10.00">wmtk::attribute::IndexFlag</text>
<text text-anchor="middle" x="648" y="-442.8" font-family="Helvetica,sans-Serif" font-size="10.00">Accessor::attribute</text>
</a>
</g>
</g>
<!-- Node12&#45;&gt;Node14 -->
<g id="edge14_Node000012_Node000014" class="edge">
<title>Node12&#45;&gt;Node14</title>
<g id="a_edge14_Node000012_Node000014"><a xlink:title=" ">
<path fill="none" stroke="#63b8ff" d="M530.57,-437.83C541.82,-439.08 553.53,-440.38 564.98,-441.66"/>
<polygon fill="#63b8ff" stroke="#63b8ff" points="564.64,-445.14 574.97,-442.77 565.42,-438.19 564.64,-445.14"/>
</a>
</g>
</g>
<!-- Node15 -->
<g id="Node000015" class="node">
<title>Node15</title>
<g id="a_Node000015"><a xlink:href="classwmtk_1_1attribute_1_1_accessor.html#aaeafc36889f90d4e4e9478f998d240d7" target="_top" xlink:title=" ">
<polygon fill="white" stroke="#666666" points="901,-475.8 759,-475.8 759,-445.8 901,-445.8 901,-475.8"/>
<text text-anchor="start" x="767" y="-463.8" font-family="Helvetica,sans-Serif" font-size="10.00">wmtk::attribute::Accessor</text>
<text text-anchor="middle" x="830" y="-452.8" font-family="Helvetica,sans-Serif" font-size="10.00">::attribute</text>
</a>
</g>
</g>
<!-- Node14&#45;&gt;Node15 -->
<g id="edge15_Node000014_Node000015" class="edge">
<title>Node14&#45;&gt;Node15</title>
<g id="a_edge15_Node000014_Node000015"><a xlink:title=" ">
<path fill="none" stroke="#63b8ff" d="M721.18,-454.81C730.2,-455.31 739.47,-455.82 748.62,-456.33"/>
<polygon fill="#63b8ff" stroke="#63b8ff" points="748.68,-459.84 758.86,-456.9 749.07,-452.85 748.68,-459.84"/>
</a>
</g>
</g>
<!-- Node16 -->
<g id="Node000016" class="node">
<title>Node16</title>
<g id="a_Node000016"><a xlink:href="classwmtk_1_1attribute_1_1_index_flag_accessor.html#a37e882007dc57e3571c18163a709a246" target="_top" xlink:title=" ">
<polygon fill="white" stroke="#666666" points="903,-427.8 757,-427.8 757,-397.8 903,-397.8 903,-427.8"/>
<text text-anchor="start" x="765" y="-415.8" font-family="Helvetica,sans-Serif" font-size="10.00">wmtk::attribute::IndexFlag</text>
<text text-anchor="middle" x="830" y="-404.8" font-family="Helvetica,sans-Serif" font-size="10.00">Accessor::base_accessor</text>
</a>
</g>
</g>
<!-- Node14&#45;&gt;Node16 -->
<g id="edge16_Node000014_Node000016" class="edge">
<title>Node14&#45;&gt;Node16</title>
<g id="a_edge16_Node000014_Node000016"><a xlink:title=" ">
<path fill="none" stroke="#63b8ff" d="M720.14,-435.78C729.23,-433.86 738.6,-431.88 747.83,-429.93"/>
<polygon fill="#63b8ff" stroke="#63b8ff" points="748.73,-433.32 757.79,-427.83 747.28,-426.47 748.73,-433.32"/>
</a>
</g>
</g>
<!-- Node18 -->
<g id="Node000018" class="node">
<title>Node18</title>
<g id="a_Node000018"><a xlink:href="namespacewmtk.html#a3daa7951a5f8b78cf4600dc047fcc180" target="_top" xlink:title="Setup a logger object to be used by WildmeshToolkit.">
<polygon fill="white" stroke="#666666" points="698.5,-530.3 597.5,-530.3 597.5,-511.3 698.5,-511.3 698.5,-530.3"/>
<text text-anchor="middle" x="648" y="-518.3" font-family="Helvetica,sans-Serif" font-size="10.00">wmtk::set_logger</text>
</a>
</g>
</g>
<!-- Node17&#45;&gt;Node18 -->
<g id="edge18_Node000017_Node000018" class="edge">
<title>Node17&#45;&gt;Node18</title>
<g id="a_edge18_Node000017_Node000018"><a xlink:title=" ">
<path fill="none" stroke="#63b8ff" d="M498.02,-520.8C523.9,-520.8 558.2,-520.8 587.37,-520.8"/>
<polygon fill="#63b8ff" stroke="#63b8ff" points="587.45,-524.3 597.45,-520.8 587.45,-517.3 587.45,-524.3"/>
</a>
</g>
</g>
<!-- Node20&#45;&gt;Node17 -->
<g id="edge25_Node000020_Node000017" class="edge">
<title>Node20&#45;&gt;Node17</title>
<g id="a_edge25_Node000020_Node000017"><a xlink:title=" ">
<path fill="none" stroke="#63b8ff" d="M315.07,-533.49C344.16,-530.88 378.85,-527.77 406.59,-525.28"/>
<polygon fill="#63b8ff" stroke="#63b8ff" points="407.21,-528.74 416.86,-524.36 406.58,-521.76 407.21,-528.74"/>
</a>
</g>
</g>
<!-- Node21 -->
<g id="Node000021" class="node">
<title>Node21</title>
<g id="a_Node000021"><a xlink:href="classwmtk_1_1_tuple.html#a0023f575be92cd5ceeeaaaa3762ea06d" target="_top" xlink:title="Checks if a tuple is &quot;null&quot;. This merely implies the global index is &#45;1.">
<polygon fill="white" stroke="#666666" points="514,-622.3 401,-622.3 401,-603.3 514,-603.3 514,-622.3"/>
<text text-anchor="middle" x="457.5" y="-610.3" font-family="Helvetica,sans-Serif" font-size="10.00">wmtk::Tuple::is_null</text>
</a>
</g>
</g>
<!-- Node20&#45;&gt;Node21 -->
<g id="edge21_Node000020_Node000021" class="edge">
<title>Node20&#45;&gt;Node21</title>
<g id="a_edge21_Node000020_Node000021"><a xlink:title=" ">
<path fill="none" stroke="#63b8ff" d="M273.39,-548.38C296.3,-560.66 338.13,-581.9 376,-594.8 382.38,-596.97 389.13,-598.95 395.9,-600.74"/>
<polygon fill="#63b8ff" stroke="#63b8ff" points="395.24,-604.18 405.79,-603.22 396.94,-597.39 395.24,-604.18"/>
</a>
</g>
</g>
<!-- Node22 -->
<g id="Node000022" class="node">
<title>Node22</title>
<g id="a_Node000022"><a xlink:href="classwmtk_1_1_mesh.html#ade176d345902d97af8c5da04aa3a095b" target="_top" xlink:title=" ">
<polygon fill="white" stroke="#666666" points="527.5,-567.3 387.5,-567.3 387.5,-548.3 527.5,-548.3 527.5,-567.3"/>
<text text-anchor="middle" x="457.5" y="-555.3" font-family="Helvetica,sans-Serif" font-size="10.00">wmtk::Mesh::is_removed</text>
</a>
</g>
</g>
<!-- Node20&#45;&gt;Node22 -->
<g id="edge22_Node000020_Node000022" class="edge">
<title>Node20&#45;&gt;Node22</title>
<g id="a_edge22_Node000020_Node000022"><a xlink:title=" ">
<path fill="none" stroke="#63b8ff" d="M315.07,-544.4C334.53,-546.24 356.49,-548.32 377.2,-550.28"/>
<polygon fill="#63b8ff" stroke="#63b8ff" points="376.97,-553.78 387.25,-551.24 377.63,-546.81 376.97,-553.78"/>
</a>
</g>
</g>
<!-- Node22&#45;&gt;Node2 -->
<g id="edge23_Node000022_Node000002" class="edge">
<title>Node22&#45;&gt;Node2</title>
<g id="a_edge23_Node000022_Node000002"><a xlink:title=" ">
<path fill="none" stroke="#63b8ff" d="M497.56,-567.33C526.75,-574.45 566.85,-584.24 598.16,-591.88"/>
<polygon fill="#63b8ff" stroke="#63b8ff" points="597.45,-595.31 607.99,-594.28 599.11,-588.51 597.45,-595.31"/>
</a>
</g>
</g>
<!-- Node22&#45;&gt;Node22 -->
<g id="edge24_Node000022_Node000022" class="edge">
<title>Node22&#45;&gt;Node22</title>
<g id="a_edge24_Node000022_Node000022"><a xlink:title=" ">
<path fill="none" stroke="#63b8ff" d="M428.22,-567.38C413.97,-576.03 423.73,-585.3 457.5,-585.3 480.72,-585.3 492.59,-580.92 493.11,-575.37"/>
<polygon fill="#63b8ff" stroke="#63b8ff" points="495.73,-573.05 486.78,-567.38 490.25,-577.39 495.73,-573.05"/>
</a>
</g>
</g>
<!-- Node27 -->
<g id="Node000027" class="node">
<title>Node27</title>
<g id="a_Node000027"><a xlink:href="namespacewmtk_1_1autogen_1_1tet__mesh.html#ace6b80b1be9aec0d6a5ac5d144b40965" target="_top" xlink:title=" ">
<polygon fill="white" stroke="#666666" points="518.5,-100.3 396.5,-100.3 396.5,-59.3 518.5,-59.3 518.5,-100.3"/>
<text text-anchor="start" x="404.5" y="-88.3" font-family="Helvetica,sans-Serif" font-size="10.00">wmtk::autogen::tet</text>
<text text-anchor="start" x="404.5" y="-77.3" font-family="Helvetica,sans-Serif" font-size="10.00">_mesh::local_id_table</text>
<text text-anchor="middle" x="457.5" y="-66.3" font-family="Helvetica,sans-Serif" font-size="10.00">_offset</text>
</a>
</g>
</g>
<!-- Node26&#45;&gt;Node27 -->
<g id="edge31_Node000026_Node000027" class="edge">
<title>Node26&#45;&gt;Node27</title>
<g id="a_edge31_Node000026_Node000027"><a xlink:title=" ">
<path fill="none" stroke="#63b8ff" d="M316.16,-79.8C338.16,-79.8 363.26,-79.8 386.08,-79.8"/>
<polygon fill="#63b8ff" stroke="#63b8ff" points="386.39,-83.3 396.39,-79.8 386.39,-76.3 386.39,-83.3"/>
</a>
</g>
</g>
<!-- Node27&#45;&gt;Node23 -->
<g id="edge32_Node000027_Node000023" class="edge">
<title>Node27&#45;&gt;Node23</title>
<g id="a_edge32_Node000027_Node000023"><a xlink:title=" ">
<path fill="none" stroke="#63b8ff" d="M518.66,-99.58C547.96,-109.22 582.33,-120.53 608.13,-129.01"/>
<polygon fill="#63b8ff" stroke="#63b8ff" points="607.33,-132.43 617.92,-132.23 609.51,-125.78 607.33,-132.43"/>
</a>
</g>
</g>
<!-- Node27&#45;&gt;Node24 -->
<g id="edge33_Node000027_Node000024" class="edge">
<title>Node27&#45;&gt;Node24</title>
<g id="a_edge33_Node000027_Node000024"><a xlink:title=" ">
<path fill="none" stroke="#63b8ff" d="M518.66,-83.63C537.11,-84.8 557.57,-86.1 576.64,-87.32"/>
<polygon fill="#63b8ff" stroke="#63b8ff" points="576.56,-90.82 586.76,-87.96 577.01,-83.83 576.56,-90.82"/>
</a>
</g>
</g>
<!-- Node27&#45;&gt;Node25 -->
<g id="edge34_Node000027_Node000025" class="edge">
<title>Node27&#45;&gt;Node25</title>
<g id="a_edge34_Node000027_Node000025"><a xlink:title=" ">
<path fill="none" stroke="#63b8ff" d="M518.66,-69.9C537.84,-66.75 559.19,-63.24 578.89,-60"/>
<polygon fill="#63b8ff" stroke="#63b8ff" points="579.72,-63.41 589.02,-58.33 578.58,-56.5 579.72,-63.41"/>
</a>
</g>
</g>
</g>
</svg>
