<?xml version="1.0" encoding="UTF-8" standalone="no"?>
<!DOCTYPE svg PUBLIC "-//W3C//DTD SVG 1.1//EN"
 "http://www.w3.org/Graphics/SVG/1.1/DTD/svg11.dtd">
<!-- Generated by graphviz version 2.43.0 (0)
 -->
<!-- Title: wmtk::operations::AttributeTransferConfiguration::apply Pages: 1 -->
<!--zoomable 360 -->

<svg id="main" version="1.1" xmlns="http://www.w3.org/2000/svg" xmlns:xlink="http://www.w3.org/1999/xlink" xml:space="preserve" onload="init(evt)">
<style type="text/css"><![CDATA[
.node, .edge {opacity: 0.7;}
.node.selected, .edge.selected {opacity: 1;}
.edge:hover path { stroke: red; }
.edge:hover polygon { stroke: red; fill: red; }
]]></style>

<defs>
  <circle id="rim" cx="0" cy="0" r="7"/>
  <circle id="rim2" cx="0" cy="0" r="3.5"/>
  <g id="zoomPlus">
    <use xlink:href="#rim" fill="#404040"><set attributeName="fill" to="#808080" begin="zoomplus.mouseover" end="zoomplus.mouseout"/></use>
    <path d="M-4,0h8M0,-4v8" fill="none" stroke="white" stroke-width="1.5" pointer-events="none"/>
  </g>
  <g id="zoomMin">
    <use xlink:href="#rim" fill="#404040"><set attributeName="fill" to="#808080" begin="zoomminus.mouseover" end="zoomminus.mouseout"/></use>
    <path d="M-4,0h8" fill="none" stroke="white" stroke-width="1.5" pointer-events="none"/>
  </g>
  <g id="arrowUp" transform="translate(30 24)">
    <use xlink:href="#rim"/>
    <path pointer-events="none" fill="none" stroke="white" stroke-width="1.5" d="M0,-3.0v7 M-2.5,-0.5L0,-3.0L2.5,-0.5"/>
  </g>
  <g id="arrowRight" transform="rotate(90) translate(36 -43)">
    <use xlink:href="#rim"/>
    <path pointer-events="none" fill="none" stroke="white" stroke-width="1.5" d="M0,-3.0v7 M-2.5,-0.5L0,-3.0L2.5,-0.5"/>
  </g>
  <g id="arrowDown" transform="rotate(180) translate(-30 -48)">
    <use xlink:href="#rim"/>
    <path pointer-events="none" fill="none" stroke="white" stroke-width="1.5" d="M0,-3.0v7 M-2.5,-0.5L0,-3.0L2.5,-0.5"/>
  </g>
  <g id="arrowLeft" transform="rotate(270) translate(-36 17)">
    <use xlink:href="#rim"/>
    <path pointer-events="none" fill="none" stroke="white" stroke-width="1.5" d="M0,-3.0v7 M-2.5,-0.5L0,-3.0L2.5,-0.5"/>
  </g>
  <g id="resetDef">
    <use xlink:href="#rim2" fill="#404040"><set attributeName="fill" to="#808080" begin="reset.mouseover" end="reset.mouseout"/></use>
  </g>
</defs>
<script type="application/ecmascript">
var viewWidth = 1533;
var viewHeight = 360;
var sectionId = 'dynsection-4';
</script>
<script type="application/ecmascript" xlink:href="svg.min.js"/>
<svg id="graph" class="graph">
<g id="viewport">
<title>wmtk::operations::AttributeTransferConfiguration::apply</title>
<!-- Node1 -->
<g id="Node000001" class="node">
<title>Node1</title>
<g id="a_Node000001"><a xlink:title=" ">
<polygon fill="#999999" stroke="#666666" points="154,-209 0,-209 0,-179 154,-179 154,-209"/>
<text text-anchor="start" x="8" y="-197" font-family="Helvetica,sans-Serif" font-size="10.00">wmtk::operations::Attribute</text>
<text text-anchor="middle" x="77" y="-186" font-family="Helvetica,sans-Serif" font-size="10.00">TransferConfiguration::apply</text>
</a>
</g>
</g>
<!-- Node2 -->
<g id="Node000002" class="node">
<title>Node2</title>
<g id="a_Node000002"><a xlink:href="classwmtk_1_1operations_1_1_edge_split.html#a9f7c2cb0882244cf41cbbf820f597a98" target="_top" xlink:title=" ">
<polygon fill="white" stroke="#666666" points="364,-352 191,-352 191,-322 364,-322 364,-352"/>
<text text-anchor="start" x="199" y="-340" font-family="Helvetica,sans-Serif" font-size="10.00">wmtk::operations::EdgeSplit</text>
<text text-anchor="middle" x="277.5" y="-329" font-family="Helvetica,sans-Serif" font-size="10.00">::clear_attribute_new_strategies</text>
</a>
</g>
</g>
<!-- Node1&#45;&gt;Node2 -->
<g id="edge1_Node000001_Node000002" class="edge">
<title>Node1&#45;&gt;Node2</title>
<g id="a_edge1_Node000001_Node000002"><a xlink:title=" ">
<path fill="none" stroke="#63b8ff" d="M88.12,-209.3C105.76,-234.72 144.58,-285.58 190,-313 192.96,-314.79 196.05,-316.44 199.24,-317.98"/>
<polygon fill="#63b8ff" stroke="#63b8ff" points="197.85,-321.19 208.42,-322 200.66,-314.78 197.85,-321.19"/>
</a>
</g>
</g>
<!-- Node3 -->
<g id="Node000003" class="node">
<title>Node3</title>
<g id="a_Node000003"><a xlink:href="classwmtk_1_1operations_1_1_operation.html#a5ed26b8a3586a5753f6a731432bcbae3" target="_top" xlink:title=" ">
<polygon fill="white" stroke="#666666" points="355.5,-303.5 199.5,-303.5 199.5,-262.5 355.5,-262.5 355.5,-303.5"/>
<text text-anchor="start" x="207.5" y="-291.5" font-family="Helvetica,sans-Serif" font-size="10.00">wmtk::operations::Operation</text>
<text text-anchor="start" x="207.5" y="-280.5" font-family="Helvetica,sans-Serif" font-size="10.00">::clear_attribute_transfer</text>
<text text-anchor="middle" x="277.5" y="-269.5" font-family="Helvetica,sans-Serif" font-size="10.00">_strategies</text>
</a>
</g>
</g>
<!-- Node1&#45;&gt;Node3 -->
<g id="edge2_Node000001_Node000003" class="edge">
<title>Node1&#45;&gt;Node3</title>
<g id="a_edge2_Node000001_Node000003"><a xlink:title=" ">
<path fill="none" stroke="#63b8ff" d="M103.19,-209.08C125.51,-222.05 159.22,-240.71 190,-254 193.84,-255.66 197.82,-257.29 201.85,-258.87"/>
<polygon fill="#63b8ff" stroke="#63b8ff" points="200.75,-262.19 211.34,-262.47 203.24,-255.65 200.75,-262.19"/>
</a>
</g>
</g>
<!-- Node4 -->
<g id="Node000004" class="node">
<title>Node4</title>
<g id="a_Node000004"><a xlink:href="classwmtk_1_1operations_1_1_attribute_transfer_configuration.html#a793353d007976485af605764966e7cb1" target="_top" xlink:title=" ">
<polygon fill="white" stroke="#666666" points="365,-244.5 190,-244.5 190,-203.5 365,-203.5 365,-244.5"/>
<text text-anchor="start" x="198" y="-232.5" font-family="Helvetica,sans-Serif" font-size="10.00">wmtk::operations::Attribute</text>
<text text-anchor="start" x="198" y="-221.5" font-family="Helvetica,sans-Serif" font-size="10.00">TransferConfiguration::linearized</text>
<text text-anchor="middle" x="277.5" y="-210.5" font-family="Helvetica,sans-Serif" font-size="10.00">_strategies</text>
</a>
</g>
</g>
<!-- Node1&#45;&gt;Node4 -->
<g id="edge3_Node000001_Node000004" class="edge">
<title>Node1&#45;&gt;Node4</title>
<g id="a_edge3_Node000001_Node000004"><a xlink:title=" ">
<path fill="none" stroke="#63b8ff" d="M154.18,-205.51C162.59,-206.78 171.23,-208.09 179.84,-209.39"/>
<polygon fill="#63b8ff" stroke="#63b8ff" points="179.52,-212.88 189.93,-210.92 180.57,-205.96 179.52,-212.88"/>
</a>
</g>
</g>
<!-- Node5 -->
<g id="Node000005" class="node">
<title>Node5</title>
<g id="a_Node000005"><a xlink:href="classwmtk_1_1operations_1_1_attribute_transfer_configuration.html#a589983ed05d74e91ec6fb7cd6623e526" target="_top" xlink:title=" ">
<polygon fill="white" stroke="#666666" points="365,-185.5 190,-185.5 190,-144.5 365,-144.5 365,-185.5"/>
<text text-anchor="start" x="198" y="-173.5" font-family="Helvetica,sans-Serif" font-size="10.00">wmtk::operations::Attribute</text>
<text text-anchor="start" x="198" y="-162.5" font-family="Helvetica,sans-Serif" font-size="10.00">TransferConfiguration::linearized</text>
<text text-anchor="middle" x="277.5" y="-151.5" font-family="Helvetica,sans-Serif" font-size="10.00">_transfer_strategies</text>
</a>
</g>
</g>
<!-- Node1&#45;&gt;Node5 -->
<g id="edge4_Node000001_Node000005" class="edge">
<title>Node1&#45;&gt;Node5</title>
<g id="a_edge4_Node000001_Node000005"><a xlink:title=" ">
<path fill="none" stroke="#63b8ff" d="M154.18,-182.87C162.59,-181.64 171.23,-180.38 179.84,-179.12"/>
<polygon fill="#63b8ff" stroke="#63b8ff" points="180.54,-182.56 189.93,-177.65 179.53,-175.63 180.54,-182.56"/>
</a>
</g>
</g>
<!-- Node6 -->
<g id="Node000006" class="node">
<title>Node6</title>
<g id="a_Node000006"><a xlink:href="classwmtk_1_1operations_1_1_edge_split.html#aa2c1515627cd2a577e3821f2213611b3" target="_top" xlink:title=" ">
<polygon fill="white" stroke="#666666" points="355.5,-126 199.5,-126 199.5,-96 355.5,-96 355.5,-126"/>
<text text-anchor="start" x="207.5" y="-114" font-family="Helvetica,sans-Serif" font-size="10.00">wmtk::operations::EdgeSplit</text>
<text text-anchor="middle" x="277.5" y="-103" font-family="Helvetica,sans-Serif" font-size="10.00">::set_new_attribute_strategy</text>
</a>
</g>
</g>
<!-- Node1&#45;&gt;Node6 -->
<g id="edge5_Node000001_Node000006" class="edge">
<title>Node1&#45;&gt;Node6</title>
<g id="a_edge5_Node000001_Node000006"><a xlink:title=" ">
<path fill="none" stroke="#63b8ff" d="M103.06,-178.8C125.29,-165.81 158.95,-147.32 190,-135 195.16,-132.95 200.56,-131.01 206.03,-129.18"/>
<polygon fill="#63b8ff" stroke="#63b8ff" points="207.46,-132.4 215.92,-126.02 205.33,-125.73 207.46,-132.4"/>
</a>
</g>
</g>
<!-- Node20 -->
<g id="Node000020" class="node">
<title>Node20</title>
<g id="a_Node000020"><a xlink:href="classwmtk_1_1operations_1_1_operation.html#a106cd73b45dab52d8459510edf5c5bef" target="_top" xlink:title=" ">
<polygon fill="white" stroke="#666666" points="355.5,-78 199.5,-78 199.5,-48 355.5,-48 355.5,-78"/>
<text text-anchor="start" x="207.5" y="-66" font-family="Helvetica,sans-Serif" font-size="10.00">wmtk::operations::Operation</text>
<text text-anchor="middle" x="277.5" y="-55" font-family="Helvetica,sans-Serif" font-size="10.00">::set_transfer_strategy</text>
</a>
</g>
</g>
<!-- Node1&#45;&gt;Node20 -->
<g id="edge23_Node000001_Node000020" class="edge">
<title>Node1&#45;&gt;Node20</title>
<g id="a_edge23_Node000001_Node000020"><a xlink:title=" ">
<path fill="none" stroke="#63b8ff" d="M89.69,-178.79C108.36,-155.54 147.21,-111.31 190,-87 193.07,-85.25 196.28,-83.63 199.58,-82.12"/>
<polygon fill="#63b8ff" stroke="#63b8ff" points="201.18,-85.24 209.05,-78.15 198.48,-78.78 201.18,-85.24"/>
</a>
</g>
</g>
<!-- Node7 -->
<g id="Node000007" class="node">
<title>Node7</title>
<g id="a_Node000007"><a xlink:href="namespacewmtk.html#a441d6ad4f19569c7d4946e743da1a925" target="_top" xlink:title=" ">
<polygon fill="white" stroke="#666666" points="545.5,-193 423.5,-193 423.5,-163 545.5,-163 545.5,-193"/>
<text text-anchor="start" x="431.5" y="-181" font-family="Helvetica,sans-Serif" font-size="10.00">wmtk::log_and_throw</text>
<text text-anchor="middle" x="484.5" y="-170" font-family="Helvetica,sans-Serif" font-size="10.00">_error</text>
</a>
</g>
</g>
<!-- Node6&#45;&gt;Node7 -->
<g id="edge6_Node000006_Node000007" class="edge">
<title>Node6&#45;&gt;Node7</title>
<g id="a_edge6_Node000006_Node000007"><a xlink:title=" ">
<path fill="none" stroke="#63b8ff" d="M335.45,-126.13C345.34,-128.94 355.5,-131.96 365,-135 388.23,-142.43 413.69,-151.53 435.04,-159.45"/>
<polygon fill="#63b8ff" stroke="#63b8ff" points="433.94,-162.78 444.53,-163 436.39,-156.22 433.94,-162.78"/>
</a>
</g>
</g>
<!-- Node10 -->
<g id="Node000010" class="node">
<title>Node10</title>
<g id="a_Node000010"><a xlink:href="classwmtk_1_1attribute_1_1_mesh_attribute_handle.html#aebd73bfe4d397951350314489834fbe3" target="_top" xlink:title=" ">
<polygon fill="white" stroke="#666666" points="568,-126 401,-126 401,-96 568,-96 568,-126"/>
<text text-anchor="start" x="409" y="-114" font-family="Helvetica,sans-Serif" font-size="10.00">wmtk::attribute::MeshAttribute</text>
<text text-anchor="middle" x="484.5" y="-103" font-family="Helvetica,sans-Serif" font-size="10.00">Handle::name</text>
</a>
</g>
</g>
<!-- Node6&#45;&gt;Node10 -->
<g id="edge9_Node000006_Node000010" class="edge">
<title>Node6&#45;&gt;Node10</title>
<g id="a_edge9_Node000006_Node000010"><a xlink:title=" ">
<path fill="none" stroke="#63b8ff" d="M355.71,-111C367.12,-111 378.98,-111 390.67,-111"/>
<polygon fill="#63b8ff" stroke="#63b8ff" points="390.88,-114.5 400.88,-111 390.88,-107.5 390.88,-114.5"/>
</a>
</g>
</g>
<!-- Node8 -->
<g id="Node000008" class="node">
<title>Node8</title>
<g id="a_Node000008"><a xlink:href="namespacewmtk.html#a6a35f11c12436093d26fdd8be6fecc06" target="_top" xlink:title="Retrieves the current logger.">
<polygon fill="white" stroke="#666666" points="734,-208.5 653,-208.5 653,-189.5 734,-189.5 734,-208.5"/>
<text text-anchor="middle" x="693.5" y="-196.5" font-family="Helvetica,sans-Serif" font-size="10.00">wmtk::logger</text>
</a>
</g>
</g>
<!-- Node7&#45;&gt;Node8 -->
<g id="edge7_Node000007_Node000008" class="edge">
<title>Node7&#45;&gt;Node8</title>
<g id="a_edge7_Node000007_Node000008"><a xlink:title=" ">
<path fill="none" stroke="#63b8ff" d="M545.65,-184.1C576.51,-187.23 613.65,-191 642.85,-193.96"/>
<polygon fill="#63b8ff" stroke="#63b8ff" points="642.52,-197.45 652.83,-194.98 643.23,-190.48 642.52,-197.45"/>
</a>
</g>
</g>
<!-- Node9 -->
<g id="Node000009" class="node">
<title>Node9</title>
<g id="a_Node000009"><a xlink:href="namespacewmtk.html#a3daa7951a5f8b78cf4600dc047fcc180" target="_top" xlink:title="Setup a logger object to be used by WildmeshToolkit.">
<polygon fill="white" stroke="#666666" points="953,-228.5 852,-228.5 852,-209.5 953,-209.5 953,-228.5"/>
<text text-anchor="middle" x="902.5" y="-216.5" font-family="Helvetica,sans-Serif" font-size="10.00">wmtk::set_logger</text>
</a>
</g>
</g>
<!-- Node8&#45;&gt;Node9 -->
<g id="edge8_Node000008_Node000009" class="edge">
<title>Node8&#45;&gt;Node9</title>
<g id="a_edge8_Node000008_Node000009"><a xlink:title=" ">
<path fill="none" stroke="#63b8ff" d="M734.41,-202.86C764.89,-205.8 807.37,-209.91 841.87,-213.24"/>
<polygon fill="#63b8ff" stroke="#63b8ff" points="841.55,-216.72 851.84,-214.2 842.22,-209.76 841.55,-216.72"/>
</a>
</g>
</g>
<!-- Node11 -->
<g id="Node000011" class="node">
<title>Node11</title>
<g id="a_Node000011"><a xlink:href="classwmtk_1_1attribute_1_1_mesh_attribute_handle.html#a7f60b49ee06ab72a15ba0507ce2a0316" target="_top" xlink:title=" ">
<polygon fill="white" stroke="#666666" points="777,-151 610,-151 610,-121 777,-121 777,-151"/>
<text text-anchor="start" x="618" y="-139" font-family="Helvetica,sans-Serif" font-size="10.00">wmtk::attribute::MeshAttribute</text>
<text text-anchor="middle" x="693.5" y="-128" font-family="Helvetica,sans-Serif" font-size="10.00">Handle::exists</text>
</a>
</g>
</g>
<!-- Node10&#45;&gt;Node11 -->
<g id="edge10_Node000010_Node000011" class="edge">
<title>Node10&#45;&gt;Node11</title>
<g id="a_edge10_Node000010_Node000011"><a xlink:title=" ">
<path fill="none" stroke="#63b8ff" d="M568.2,-120.99C578.62,-122.25 589.32,-123.54 599.87,-124.81"/>
<polygon fill="#63b8ff" stroke="#63b8ff" points="599.58,-128.3 609.93,-126.03 600.42,-121.35 599.58,-128.3"/>
</a>
</g>
</g>
<!-- Node17 -->
<g id="Node000017" class="node">
<title>Node17</title>
<g id="a_Node000017"><a xlink:href="classwmtk_1_1attribute_1_1_mesh_attribute_handle.html#a620620d54776b2c5f4f9cebad465cfa7" target="_top" xlink:title=" ">
<polygon fill="white" stroke="#666666" points="986,-105 819,-105 819,-75 986,-75 986,-105"/>
<text text-anchor="start" x="827" y="-93" font-family="Helvetica,sans-Serif" font-size="10.00">wmtk::attribute::MeshAttribute</text>
<text text-anchor="middle" x="902.5" y="-82" font-family="Helvetica,sans-Serif" font-size="10.00">Handle::mesh</text>
</a>
</g>
</g>
<!-- Node10&#45;&gt;Node17 -->
<g id="edge22_Node000010_Node000017" class="edge">
<title>Node10&#45;&gt;Node17</title>
<g id="a_edge22_Node000010_Node000017"><a xlink:title=" ">
<path fill="none" stroke="#63b8ff" d="M568.19,-106.83C637.66,-103.32 736.88,-98.31 808.98,-94.67"/>
<polygon fill="#63b8ff" stroke="#63b8ff" points="809.16,-98.17 818.97,-94.17 808.81,-91.17 809.16,-98.17"/>
</a>
</g>
</g>
<!-- Node18 -->
<g id="Node000018" class="node">
<title>Node18</title>
<g id="a_Node000018"><a xlink:href="classwmtk_1_1_mesh.html#a9c80d92eb6c801b64d52444a9f98d4d3" target="_top" xlink:title=" ">
<polygon fill="white" stroke="#666666" points="783,-60.5 604,-60.5 604,-41.5 783,-41.5 783,-60.5"/>
<text text-anchor="middle" x="693.5" y="-48.5" font-family="Helvetica,sans-Serif" font-size="10.00">wmtk::Mesh::get_attribute_name</text>
</a>
</g>
</g>
<!-- Node10&#45;&gt;Node18 -->
<g id="edge19_Node000010_Node000018" class="edge">
<title>Node10&#45;&gt;Node18</title>
<g id="a_edge19_Node000010_Node000018"><a xlink:title=" ">
<path fill="none" stroke="#63b8ff" d="M537.47,-95.94C572.2,-85.87 617.32,-72.79 649.92,-63.34"/>
<polygon fill="#63b8ff" stroke="#63b8ff" points="650.98,-66.68 659.61,-60.53 649.04,-59.95 650.98,-66.68"/>
</a>
</g>
</g>
<!-- Node12 -->
<g id="Node000012" class="node">
<title>Node12</title>
<g id="a_Node000012"><a xlink:href="classwmtk_1_1_mesh.html#a89b735bef9cbf8d5ab955d23f787b70f" target="_top" xlink:title=" ">
<polygon fill="white" stroke="#666666" points="1169,-190.5 1022,-190.5 1022,-171.5 1169,-171.5 1169,-190.5"/>
<text text-anchor="middle" x="1095.5" y="-178.5" font-family="Helvetica,sans-Serif" font-size="10.00">wmtk::Mesh::has_attribute</text>
</a>
</g>
</g>
<!-- Node11&#45;&gt;Node12 -->
<g id="edge11_Node000011_Node000012" class="edge">
<title>Node11&#45;&gt;Node12</title>
<g id="a_edge11_Node000011_Node000012"><a xlink:title=" ">
<path fill="none" stroke="#63b8ff" d="M758.18,-151.05C777.61,-155.17 799.1,-159.25 819,-162 883.38,-170.9 956.83,-175.7 1011.69,-178.25"/>
<polygon fill="#63b8ff" stroke="#63b8ff" points="1011.57,-181.75 1021.71,-178.7 1011.88,-174.76 1011.57,-181.75"/>
</a>
</g>
</g>
<!-- Node14 -->
<g id="Node000014" class="node">
<title>Node14</title>
<g id="a_Node000014"><a xlink:href="classwmtk_1_1attribute_1_1_mesh_attribute_handle.html#ad577111f5b1fd05f60fae4b7f0ddb1f6" target="_top" xlink:title="Returns true if handle was initialized.">
<polygon fill="white" stroke="#666666" points="986,-153 819,-153 819,-123 986,-123 986,-153"/>
<text text-anchor="start" x="827" y="-141" font-family="Helvetica,sans-Serif" font-size="10.00">wmtk::attribute::MeshAttribute</text>
<text text-anchor="middle" x="902.5" y="-130" font-family="Helvetica,sans-Serif" font-size="10.00">Handle::is_valid</text>
</a>
</g>
</g>
<!-- Node11&#45;&gt;Node14 -->
<g id="edge14_Node000011_Node000014" class="edge">
<title>Node11&#45;&gt;Node14</title>
<g id="a_edge14_Node000011_Node000014"><a xlink:title=" ">
<path fill="none" stroke="#63b8ff" d="M777.2,-136.8C787.62,-136.9 798.32,-137 808.87,-137.11"/>
<polygon fill="#63b8ff" stroke="#63b8ff" points="808.89,-140.61 818.93,-137.2 808.96,-133.61 808.89,-140.61"/>
</a>
</g>
</g>
<!-- Node11&#45;&gt;Node17 -->
<g id="edge18_Node000011_Node000017" class="edge">
<title>Node11&#45;&gt;Node17</title>
<g id="a_edge18_Node000011_Node000017"><a xlink:title=" ">
<path fill="none" stroke="#63b8ff" d="M762.28,-120.94C782.04,-116.55 803.78,-111.72 824.08,-107.2"/>
<polygon fill="#63b8ff" stroke="#63b8ff" points="824.92,-110.6 833.92,-105.02 823.4,-103.77 824.92,-110.6"/>
</a>
</g>
</g>
<!-- Node12&#45;&gt;Node12 -->
<g id="edge13_Node000012_Node000012" class="edge">
<title>Node12&#45;&gt;Node12</title>
<g id="a_edge13_Node000012_Node000012"><a xlink:title=" ">
<path fill="none" stroke="#63b8ff" d="M1067.76,-190.58C1054.26,-199.23 1063.51,-208.5 1095.5,-208.5 1116.99,-208.5 1128.22,-204.32 1129.18,-198.95"/>
<polygon fill="#63b8ff" stroke="#63b8ff" points="1131.89,-196.71 1123.24,-190.58 1126.18,-200.76 1131.89,-196.71"/>
</a>
</g>
</g>
<!-- Node13 -->
<g id="Node000013" class="node">
<title>Node13</title>
<g id="a_Node000013"><a xlink:href="classwmtk_1_1attribute_1_1_attribute_manager.html#a2169001c03d75b77488dba8494038fe5" target="_top" xlink:title=" ">
<polygon fill="white" stroke="#666666" points="1525,-153 1384,-153 1384,-123 1525,-123 1525,-153"/>
<text text-anchor="start" x="1392" y="-141" font-family="Helvetica,sans-Serif" font-size="10.00">wmtk::attribute::Attribute</text>
<text text-anchor="middle" x="1454.5" y="-130" font-family="Helvetica,sans-Serif" font-size="10.00">Manager::get</text>
</a>
</g>
</g>
<!-- Node12&#45;&gt;Node13 -->
<g id="edge12_Node000012_Node000013" class="edge">
<title>Node12&#45;&gt;Node13</title>
<g id="a_edge12_Node000012_Node000013"><a xlink:title=" ">
<path fill="none" stroke="#63b8ff" d="M1169.18,-178.36C1219.58,-175.84 1288.14,-171.02 1348,-162 1359.9,-160.21 1372.45,-157.81 1384.58,-155.22"/>
<polygon fill="#63b8ff" stroke="#63b8ff" points="1385.63,-158.57 1394.65,-153.01 1384.13,-151.74 1385.63,-158.57"/>
</a>
</g>
</g>
<!-- Node15 -->
<g id="Node000015" class="node">
<title>Node15</title>
<g id="a_Node000015"><a xlink:href="classwmtk_1_1_mesh.html#a73ea62ce0428cf64f836f77482a87c40" target="_top" xlink:title=" ">
<polygon fill="white" stroke="#666666" points="1156.5,-153 1034.5,-153 1034.5,-123 1156.5,-123 1156.5,-153"/>
<text text-anchor="start" x="1042.5" y="-141" font-family="Helvetica,sans-Serif" font-size="10.00">wmtk::Mesh::validate</text>
<text text-anchor="middle" x="1095.5" y="-130" font-family="Helvetica,sans-Serif" font-size="10.00">_handle</text>
</a>
</g>
</g>
<!-- Node14&#45;&gt;Node15 -->
<g id="edge15_Node000014_Node000015" class="edge">
<title>Node14&#45;&gt;Node15</title>
<g id="a_edge15_Node000014_Node000015"><a xlink:title=" ">
<path fill="none" stroke="#63b8ff" d="M986.16,-138C998.85,-138 1011.83,-138 1024.21,-138"/>
<polygon fill="#63b8ff" stroke="#63b8ff" points="1024.45,-141.5 1034.45,-138 1024.45,-134.5 1024.45,-141.5"/>
</a>
</g>
</g>
<!-- Node16 -->
<g id="Node000016" class="node">
<title>Node16</title>
<g id="a_Node000016"><a xlink:href="classwmtk_1_1attribute_1_1_attribute_manager.html#a3b1a087ab6c03a0f2e6a6a93b87f3147" target="_top" xlink:title=" ">
<polygon fill="white" stroke="#666666" points="1348,-153 1205,-153 1205,-123 1348,-123 1348,-153"/>
<text text-anchor="start" x="1213" y="-141" font-family="Helvetica,sans-Serif" font-size="10.00">wmtk::attribute::Attribute</text>
<text text-anchor="middle" x="1276.5" y="-130" font-family="Helvetica,sans-Serif" font-size="10.00">Manager::validate_handle</text>
</a>
</g>
</g>
<!-- Node15&#45;&gt;Node16 -->
<g id="edge16_Node000015_Node000016" class="edge">
<title>Node15&#45;&gt;Node16</title>
<g id="a_edge16_Node000015_Node000016"><a xlink:title=" ">
<path fill="none" stroke="#63b8ff" d="M1156.6,-138C1168.78,-138 1181.78,-138 1194.55,-138"/>
<polygon fill="#63b8ff" stroke="#63b8ff" points="1194.71,-141.5 1204.71,-138 1194.71,-134.5 1194.71,-141.5"/>
</a>
</g>
</g>
<!-- Node16&#45;&gt;Node13 -->
<g id="edge17_Node000016_Node000013" class="edge">
<title>Node16&#45;&gt;Node13</title>
<g id="a_edge17_Node000016_Node000013"><a xlink:title=" ">
<path fill="none" stroke="#63b8ff" d="M1348.07,-138C1356.43,-138 1365.02,-138 1373.5,-138"/>
<polygon fill="#63b8ff" stroke="#63b8ff" points="1373.77,-141.5 1383.77,-138 1373.77,-134.5 1373.77,-141.5"/>
</a>
</g>
</g>
<!-- Node19 -->
<g id="Node000019" class="node">
<title>Node19</title>
<g id="a_Node000019"><a xlink:href="classwmtk_1_1attribute_1_1_attribute_manager.html#ab37901c560fe81350c6e2ec34ff3769c" target="_top" xlink:title=" ">
<polygon fill="white" stroke="#666666" points="1347,-84 1206,-84 1206,-54 1347,-54 1347,-84"/>
<text text-anchor="start" x="1214" y="-72" font-family="Helvetica,sans-Serif" font-size="10.00">wmtk::attribute::Attribute</text>
<text text-anchor="middle" x="1276.5" y="-61" font-family="Helvetica,sans-Serif" font-size="10.00">Manager::get_name</text>
</a>
</g>
</g>
<!-- Node18&#45;&gt;Node19 -->
<g id="edge20_Node000018_Node000019" class="edge">
<title>Node18&#45;&gt;Node19</title>
<g id="a_edge20_Node000018_Node000019"><a xlink:title=" ">
<path fill="none" stroke="#63b8ff" d="M783.06,-53.74C895.38,-57.22 1087.43,-63.17 1195.51,-66.52"/>
<polygon fill="#63b8ff" stroke="#63b8ff" points="1195.6,-70.03 1205.7,-66.84 1195.82,-63.03 1195.6,-70.03"/>
</a>
</g>
</g>
<!-- Node19&#45;&gt;Node13 -->
<g id="edge21_Node000019_Node000013" class="edge">
<title>Node19&#45;&gt;Node13</title>
<g id="a_edge21_Node000019_Node000013"><a xlink:title=" ">
<path fill="none" stroke="#63b8ff" d="M1316.12,-84.14C1342.37,-94.43 1377.29,-108.12 1405.35,-119.12"/>
<polygon fill="#63b8ff" stroke="#63b8ff" points="1404.38,-122.5 1414.97,-122.89 1406.93,-115.98 1404.38,-122.5"/>
</a>
</g>
</g>
<!-- Node21 -->
<g id="Node000021" class="node">
<title>Node21</title>
<g id="a_Node000021"><a xlink:href="classwmtk_1_1attribute_1_1_mesh_attribute_handle.html#a6bdd7e287954ad0837bff15301af3fed" target="_top" xlink:title=" ">
<polygon fill="white" stroke="#666666" points="568,-78 401,-78 401,-48 568,-48 568,-78"/>
<text text-anchor="start" x="409" y="-66" font-family="Helvetica,sans-Serif" font-size="10.00">wmtk::attribute::MeshAttribute</text>
<text text-anchor="middle" x="484.5" y="-55" font-family="Helvetica,sans-Serif" font-size="10.00">Handle::is_same_mesh</text>
</a>
</g>
</g>
<!-- Node20&#45;&gt;Node21 -->
<g id="edge24_Node000020_Node000021" class="edge">
<title>Node20&#45;&gt;Node21</title>
<g id="a_edge24_Node000020_Node000021"><a xlink:title=" ">
<path fill="none" stroke="#63b8ff" d="M355.71,-63C367.12,-63 378.98,-63 390.67,-63"/>
<polygon fill="#63b8ff" stroke="#63b8ff" points="390.88,-66.5 400.88,-63 390.88,-59.5 390.88,-66.5"/>
</a>
</g>
</g>
<!-- Node22 -->
<g id="Node000022" class="node">
<title>Node22</title>
<g id="a_Node000022"><a xlink:href="classwmtk_1_1operations_1_1_operation.html#a741f1c2a8065cf4542ae47f3b6e19c17" target="_top" xlink:title=" ">
<polygon fill="white" stroke="#666666" points="562.5,-30 406.5,-30 406.5,0 562.5,0 562.5,-30"/>
<text text-anchor="start" x="414.5" y="-18" font-family="Helvetica,sans-Serif" font-size="10.00">wmtk::operations::Operation</text>
<text text-anchor="middle" x="484.5" y="-7" font-family="Helvetica,sans-Serif" font-size="10.00">::mesh</text>
</a>
</g>
</g>
<!-- Node20&#45;&gt;Node22 -->
<g id="edge25_Node000020_Node000022" class="edge">
<title>Node20&#45;&gt;Node22</title>
<g id="a_edge25_Node000020_Node000022"><a xlink:title=" ">
<path fill="none" stroke="#63b8ff" d="M342.8,-47.94C363.98,-42.99 387.7,-37.43 409.54,-32.32"/>
<polygon fill="#63b8ff" stroke="#63b8ff" points="410.49,-35.69 419.43,-30 408.89,-28.87 410.49,-35.69"/>
</a>
</g>
</g>
</g>
</svg>

<g id="navigator" transform="translate(0 0)" fill="#404254">
  <rect fill="#f2f5e9" fill-opacity="0.5" stroke="#606060" stroke-width=".5" x="0" y="0" width="60" height="60"/>
  <use id="zoomplus" xlink:href="#zoomPlus" x="17" y="9" onmousedown="handleZoom(evt,'in')"/>
  <use id="zoomminus" xlink:href="#zoomMin" x="42" y="9" onmousedown="handleZoom(evt,'out')"/>
  <use id="reset" xlink:href="#resetDef" x="30" y="36" onmousedown="handleReset()"/>
   <use id="arrowup" xlink:href="#arrowUp" x="0" y="0" onmousedown="handlePan(0,-1)"/>
  <use id="arrowright" xlink:href="#arrowRight" x="0" y="0" onmousedown="handlePan(1,0)"/>
  <use id="arrowdown" xlink:href="#arrowDown" x="0" y="0" onmousedown="handlePan(0,1)"/>
  <use id="arrowleft" xlink:href="#arrowLeft" x="0" y="0" onmousedown="handlePan(-1,0)"/>
</g>
<svg viewBox="0 0 15 15" width="100%" height="30px" preserveAspectRatio="xMaxYMin meet">
 <g id="arrow_out" transform="scale(0.3 0.3)">
  <a xlink:href="classwmtk_1_1operations_1_1_attribute_transfer_configuration_a925a620c457fe7b87785c2dbd0412658_cgraph_org.svg" target="_base">
   <rect id="button" ry="5" rx="5" y="6" x="6" height="38" width="38"
        fill="#f2f5e9" fill-opacity="0.5" stroke="#606060" stroke-width="1.0"/>
   <path id="arrow"
     d="M 11.500037,31.436501 C 11.940474,20.09759 22.043105,11.32322 32.158766,21.979434 L 37.068811,17.246167 C 37.068811,17.246167 37.088388,32 37.088388,32 L 22.160133,31.978069 C 22.160133,31.978069 26.997745,27.140456 26.997745,27.140456 C 18.528582,18.264221 13.291696,25.230495 11.500037,31.436501 z"
     style="fill:#404040;"/>
  </a>
 </g>
</svg>

<style type='text/css'>
<![CDATA[
[data-mouse-over-selected='false'] { opacity: 0.7; }
[data-mouse-over-selected='true']  { opacity: 1.0; }
]]>
</style>
<script type="application/ecmascript"><![CDATA[
document.addEventListener('DOMContentLoaded', (event) => {
  highlightEdges();
  highlightAdjacentNodes();
});
]]></script>
</svg>
