<?xml version="1.0" encoding="UTF-8" standalone="no"?>
<!DOCTYPE svg PUBLIC "-//W3C//DTD SVG 1.1//EN"
 "http://www.w3.org/Graphics/SVG/1.1/DTD/svg11.dtd">
<!-- Generated by graphviz version 2.43.0 (0)
 -->
<!-- Title: wmtk::attribute::IndexFlagAccessor::_activate Pages: 1 -->
<!--zoomable 649 -->

<svg id="main" version="1.1" xmlns="http://www.w3.org/2000/svg" xmlns:xlink="http://www.w3.org/1999/xlink" xml:space="preserve" onload="init(evt)">
<style type="text/css"><![CDATA[
.node, .edge {opacity: 0.7;}
.node.selected, .edge.selected {opacity: 1;}
.edge:hover path { stroke: red; }
.edge:hover polygon { stroke: red; fill: red; }
]]></style>

<defs>
  <circle id="rim" cx="0" cy="0" r="7"/>
  <circle id="rim2" cx="0" cy="0" r="3.5"/>
  <g id="zoomPlus">
    <use xlink:href="#rim" fill="#404040"><set attributeName="fill" to="#808080" begin="zoomplus.mouseover" end="zoomplus.mouseout"/></use>
    <path d="M-4,0h8M0,-4v8" fill="none" stroke="white" stroke-width="1.5" pointer-events="none"/>
  </g>
  <g id="zoomMin">
    <use xlink:href="#rim" fill="#404040"><set attributeName="fill" to="#808080" begin="zoomminus.mouseover" end="zoomminus.mouseout"/></use>
    <path d="M-4,0h8" fill="none" stroke="white" stroke-width="1.5" pointer-events="none"/>
  </g>
  <g id="arrowUp" transform="translate(30 24)">
    <use xlink:href="#rim"/>
    <path pointer-events="none" fill="none" stroke="white" stroke-width="1.5" d="M0,-3.0v7 M-2.5,-0.5L0,-3.0L2.5,-0.5"/>
  </g>
  <g id="arrowRight" transform="rotate(90) translate(36 -43)">
    <use xlink:href="#rim"/>
    <path pointer-events="none" fill="none" stroke="white" stroke-width="1.5" d="M0,-3.0v7 M-2.5,-0.5L0,-3.0L2.5,-0.5"/>
  </g>
  <g id="arrowDown" transform="rotate(180) translate(-30 -48)">
    <use xlink:href="#rim"/>
    <path pointer-events="none" fill="none" stroke="white" stroke-width="1.5" d="M0,-3.0v7 M-2.5,-0.5L0,-3.0L2.5,-0.5"/>
  </g>
  <g id="arrowLeft" transform="rotate(270) translate(-36 17)">
    <use xlink:href="#rim"/>
    <path pointer-events="none" fill="none" stroke="white" stroke-width="1.5" d="M0,-3.0v7 M-2.5,-0.5L0,-3.0L2.5,-0.5"/>
  </g>
  <g id="resetDef">
    <use xlink:href="#rim2" fill="#404040"><set attributeName="fill" to="#808080" begin="reset.mouseover" end="reset.mouseout"/></use>
  </g>
</defs>
<script type="application/ecmascript">
var viewWidth = 1465;
var viewHeight = 649;
var sectionId = 'dynsection-2';
</script>
<script type="application/ecmascript" xlink:href="svg.min.js"/>
<svg id="graph" class="graph">
<g id="viewport">
<title>wmtk::attribute::IndexFlagAccessor::_activate</title>
<!-- Node1 -->
<g id="Node000001" class="node">
<title>Node1</title>
<g id="a_Node000001"><a xlink:title=" ">
<polygon fill="#999999" stroke="#666666" points="1457,-498 1311,-498 1311,-468 1457,-468 1457,-498"/>
<text text-anchor="start" x="1319" y="-486" font-family="Helvetica,sans-Serif" font-size="10.00">wmtk::attribute::IndexFlag</text>
<text text-anchor="middle" x="1384" y="-475" font-family="Helvetica,sans-Serif" font-size="10.00">Accessor::_activate</text>
</a>
</g>
</g>
<!-- Node2 -->
<g id="Node000002" class="node">
<title>Node2</title>
<g id="a_Node000002"><a xlink:href="classwmtk_1_1attribute_1_1_flag_accessor.html#a8685dad6cf885554ab8627124f96c74f" target="_top" xlink:title=" ">
<polygon fill="white" stroke="#666666" points="1275,-522 1112,-522 1112,-492 1275,-492 1275,-522"/>
<text text-anchor="start" x="1120" y="-510" font-family="Helvetica,sans-Serif" font-size="10.00">wmtk::attribute::FlagAccessor</text>
<text text-anchor="middle" x="1193.5" y="-499" font-family="Helvetica,sans-Serif" font-size="10.00">::activate</text>
</a>
</g>
</g>
<!-- Node1&#45;&gt;Node2 -->
<g id="edge1_Node000001_Node000002" class="edge">
<title>Node1&#45;&gt;Node2</title>
<g id="a_edge1_Node000001_Node000002"><a xlink:title=" ">
<path fill="none" stroke="#63b8ff" d="M1300.92,-493.45C1292.33,-494.54 1283.6,-495.66 1275.02,-496.75"/>
<polygon fill="#63b8ff" stroke="#63b8ff" points="1301.45,-496.91 1310.93,-492.18 1300.57,-489.97 1301.45,-496.91"/>
</a>
</g>
</g>
<!-- Node3 -->
<g id="Node000003" class="node">
<title>Node3</title>
<g id="a_Node000003"><a xlink:href="classwmtk_1_1attribute_1_1_index_flag_accessor.html#a95874b259daee031cd8bb3635ada83d5" target="_top" xlink:title=" ">
<polygon fill="white" stroke="#666666" points="1266.5,-474 1120.5,-474 1120.5,-444 1266.5,-444 1266.5,-474"/>
<text text-anchor="start" x="1128.5" y="-462" font-family="Helvetica,sans-Serif" font-size="10.00">wmtk::attribute::IndexFlag</text>
<text text-anchor="middle" x="1193.5" y="-451" font-family="Helvetica,sans-Serif" font-size="10.00">Accessor::activate</text>
</a>
</g>
</g>
<!-- Node1&#45;&gt;Node3 -->
<g id="edge2_Node000001_Node000003" class="edge">
<title>Node1&#45;&gt;Node3</title>
<g id="a_edge2_Node000001_Node000003"><a xlink:title=" ">
<path fill="none" stroke="#63b8ff" d="M1300.94,-472.55C1289.48,-471.09 1277.78,-469.6 1266.53,-468.17"/>
<polygon fill="#63b8ff" stroke="#63b8ff" points="1300.57,-476.03 1310.93,-473.82 1301.45,-469.09 1300.57,-476.03"/>
</a>
</g>
</g>
<!-- Node4 -->
<g id="Node000004" class="node">
<title>Node4</title>
<g id="a_Node000004"><a xlink:href="classwmtk_1_1_edge_mesh.html#abb11a77971448cf4bc93efe610e80bb5" target="_top" xlink:title=" ">
<polygon fill="white" stroke="#666666" points="1076,-543.5 927,-543.5 927,-524.5 1076,-524.5 1076,-543.5"/>
<text text-anchor="middle" x="1001.5" y="-531.5" font-family="Helvetica,sans-Serif" font-size="10.00">wmtk::EdgeMesh::initialize</text>
</a>
</g>
</g>
<!-- Node3&#45;&gt;Node4 -->
<g id="edge3_Node000003_Node000004" class="edge">
<title>Node3&#45;&gt;Node4</title>
<g id="a_edge3_Node000003_Node000004"><a xlink:title=" ">
<path fill="none" stroke="#63b8ff" d="M1121.59,-478.11C1118.29,-479.63 1115.07,-481.26 1112,-483 1093.12,-493.71 1095.14,-505.76 1076,-516 1069.63,-519.41 1062.6,-522.18 1055.5,-524.44"/>
<polygon fill="#63b8ff" stroke="#63b8ff" points="1123.21,-481.22 1131.07,-474.11 1120.49,-474.77 1123.21,-481.22"/>
</a>
</g>
</g>
<!-- Node5 -->
<g id="Node000005" class="node">
<title>Node5</title>
<g id="a_Node000005"><a xlink:href="classwmtk_1_1_tri_mesh.html#a813ae302287fb113bae39b8ec0ee3937" target="_top" xlink:title=" ">
<polygon fill="white" stroke="#666666" points="1069.5,-506.5 933.5,-506.5 933.5,-487.5 1069.5,-487.5 1069.5,-506.5"/>
<text text-anchor="middle" x="1001.5" y="-494.5" font-family="Helvetica,sans-Serif" font-size="10.00">wmtk::TriMesh::initialize</text>
</a>
</g>
</g>
<!-- Node3&#45;&gt;Node5 -->
<g id="edge4_Node000003_Node000005" class="edge">
<title>Node3&#45;&gt;Node5</title>
<g id="a_edge4_Node000003_Node000005"><a xlink:title=" ">
<path fill="none" stroke="#63b8ff" d="M1110.38,-475.42C1089.79,-479.54 1068.39,-483.82 1050.12,-487.48"/>
<polygon fill="#63b8ff" stroke="#63b8ff" points="1111.28,-478.81 1120.4,-473.42 1109.91,-471.95 1111.28,-478.81"/>
</a>
</g>
</g>
<!-- Node21 -->
<g id="Node000021" class="node">
<title>Node21</title>
<g id="a_Node000021"><a xlink:href="classwmtk_1_1_tet_mesh.html#ab8b4b3182fb3778fa8da52ea4fa156b6" target="_top" xlink:title=" ">
<polygon fill="white" stroke="#666666" points="1071,-376.5 932,-376.5 932,-357.5 1071,-357.5 1071,-376.5"/>
<text text-anchor="middle" x="1001.5" y="-364.5" font-family="Helvetica,sans-Serif" font-size="10.00">wmtk::TetMesh::initialize</text>
</a>
</g>
</g>
<!-- Node3&#45;&gt;Node21 -->
<g id="edge21_Node000003_Node000021" class="edge">
<title>Node3&#45;&gt;Node21</title>
<g id="a_edge21_Node000003_Node000021"><a xlink:title=" ">
<path fill="none" stroke="#63b8ff" d="M1151.93,-439.35C1112.02,-420.03 1052.79,-391.35 1022.27,-376.57"/>
<polygon fill="#63b8ff" stroke="#63b8ff" points="1150.6,-442.6 1161.13,-443.81 1153.65,-436.3 1150.6,-442.6"/>
</a>
</g>
</g>
<!-- Node24 -->
<g id="Node000024" class="node">
<title>Node24</title>
<g id="a_Node000024"><a xlink:href="classwmtk_1_1_point_mesh.html#af2a8d977bbf881485efb9843f5348918" target="_top" xlink:title=" ">
<polygon fill="white" stroke="#666666" points="873,-468.5 724,-468.5 724,-449.5 873,-449.5 873,-468.5"/>
<text text-anchor="middle" x="798.5" y="-456.5" font-family="Helvetica,sans-Serif" font-size="10.00">wmtk::PointMesh::initialize</text>
</a>
</g>
</g>
<!-- Node3&#45;&gt;Node24 -->
<g id="edge26_Node000003_Node000024" class="edge">
<title>Node3&#45;&gt;Node24</title>
<g id="a_edge26_Node000003_Node000024"><a xlink:title=" ">
<path fill="none" stroke="#63b8ff" d="M1110.31,-459C1040.29,-459 940.57,-459 873.12,-459"/>
<polygon fill="#63b8ff" stroke="#63b8ff" points="1110.42,-462.5 1120.42,-459 1110.42,-455.5 1110.42,-462.5"/>
</a>
</g>
</g>
<!-- Node26 -->
<g id="Node000026" class="node">
<title>Node26</title>
<g id="a_Node000026"><a xlink:href="classwmtk_1_1_mesh.html#ac205d6addf4e76f000c70547253735f0" target="_top" xlink:title=" ">
<polygon fill="white" stroke="#666666" points="1061,-180 942,-180 942,-150 1061,-150 1061,-180"/>
<text text-anchor="start" x="950" y="-168" font-family="Helvetica,sans-Serif" font-size="10.00">wmtk::Mesh::request</text>
<text text-anchor="middle" x="1001.5" y="-157" font-family="Helvetica,sans-Serif" font-size="10.00">_simplex_indices</text>
</a>
</g>
</g>
<!-- Node3&#45;&gt;Node26 -->
<g id="edge30_Node000003_Node000026" class="edge">
<title>Node3&#45;&gt;Node26</title>
<g id="a_edge30_Node000003_Node000026"><a xlink:title=" ">
<path fill="none" stroke="#63b8ff" d="M1177.01,-435.04C1139.27,-376.64 1043.38,-228.25 1012.35,-180.24"/>
<polygon fill="#63b8ff" stroke="#63b8ff" points="1174.18,-437.11 1182.55,-443.61 1180.06,-433.31 1174.18,-437.11"/>
</a>
</g>
</g>
<!-- Node6 -->
<g id="Node000006" class="node">
<title>Node6</title>
<g id="a_Node000006"><a xlink:href="classwmtk_1_1components_1_1internal_1_1_multi_mesh_from_tag.html#a96647e9413f2b7e13dd17f02cf29b12d" target="_top" xlink:title="Create a manifold mesh from the substructure.">
<polygon fill="white" stroke="#666666" points="476,-416.5 312,-416.5 312,-375.5 476,-375.5 476,-416.5"/>
<text text-anchor="start" x="320" y="-404.5" font-family="Helvetica,sans-Serif" font-size="10.00">wmtk::components::internal</text>
<text text-anchor="start" x="320" y="-393.5" font-family="Helvetica,sans-Serif" font-size="10.00">::MultiMeshFromTag::compute</text>
<text text-anchor="middle" x="394" y="-382.5" font-family="Helvetica,sans-Serif" font-size="10.00">_substructure_mesh</text>
</a>
</g>
</g>
<!-- Node5&#45;&gt;Node6 -->
<g id="edge5_Node000005_Node000006" class="edge">
<title>Node5&#45;&gt;Node6</title>
<g id="a_edge5_Node000005_Node000006"><a xlink:title=" ">
<path fill="none" stroke="#63b8ff" d="M923.01,-507.15C824.59,-517.12 650.85,-524.8 512,-478 474.39,-465.32 438.09,-436.46 416.15,-416.6"/>
<polygon fill="#63b8ff" stroke="#63b8ff" points="923.59,-510.61 933.17,-506.09 922.86,-503.65 923.59,-510.61"/>
</a>
</g>
</g>
<!-- Node16 -->
<g id="Node000016" class="node">
<title>Node16</title>
<g id="a_Node000016"><a xlink:href="classwmtk_1_1_tri_mesh.html#ab765cbb23c54975bbea2beec79439c6f" target="_top" xlink:title=" ">
<polygon fill="white" stroke="#666666" points="866.5,-592.5 730.5,-592.5 730.5,-573.5 866.5,-573.5 866.5,-592.5"/>
<text text-anchor="middle" x="798.5" y="-580.5" font-family="Helvetica,sans-Serif" font-size="10.00">wmtk::TriMesh::initialize</text>
</a>
</g>
</g>
<!-- Node5&#45;&gt;Node16 -->
<g id="edge15_Node000005_Node000016" class="edge">
<title>Node5&#45;&gt;Node16</title>
<g id="a_edge15_Node000005_Node000016"><a xlink:title=" ">
<path fill="none" stroke="#63b8ff" d="M936.8,-510.45C933.38,-512.09 930.08,-513.93 927,-516 904.84,-530.84 913.51,-549.7 891,-564 883.61,-568.7 875.26,-572.26 866.69,-574.96"/>
<polygon fill="#63b8ff" stroke="#63b8ff" points="938.22,-513.65 946.1,-506.56 935.52,-507.2 938.22,-513.65"/>
</a>
</g>
</g>
<!-- Node17 -->
<g id="Node000017" class="node">
<title>Node17</title>
<g id="a_Node000017"><a xlink:href="classwmtk_1_1_tri_mesh.html#a787262a548159fc1ce5dca50079a2c83" target="_top" xlink:title=" ">
<polygon fill="white" stroke="#666666" points="879,-431.5 718,-431.5 718,-412.5 879,-412.5 879,-431.5"/>
<text text-anchor="middle" x="798.5" y="-419.5" font-family="Helvetica,sans-Serif" font-size="10.00">wmtk::TriMesh::initialize_free</text>
</a>
</g>
</g>
<!-- Node5&#45;&gt;Node17 -->
<g id="edge16_Node000005_Node000017" class="edge">
<title>Node5&#45;&gt;Node17</title>
<g id="a_edge16_Node000005_Node000017"><a xlink:title=" ">
<path fill="none" stroke="#63b8ff" d="M976.31,-482.23C954.67,-469.61 921.7,-451.82 891,-441 880.29,-437.23 868.59,-434.1 857.25,-431.54"/>
<polygon fill="#63b8ff" stroke="#63b8ff" points="974.75,-485.37 985.13,-487.46 978.31,-479.35 974.75,-485.37"/>
</a>
</g>
</g>
<!-- Node19 -->
<g id="Node000019" class="node">
<title>Node19</title>
<g id="a_Node000019"><a xlink:href="namespacewmtk_1_1components_1_1procedural.html#ab9c00d6ba2d614ba26750c3c80c6502c" target="_top" xlink:title=" ">
<polygon fill="white" stroke="#666666" points="882.5,-555 714.5,-555 714.5,-525 882.5,-525 882.5,-555"/>
<text text-anchor="start" x="722.5" y="-543" font-family="Helvetica,sans-Serif" font-size="10.00">wmtk::components::procedural</text>
<text text-anchor="middle" x="798.5" y="-532" font-family="Helvetica,sans-Serif" font-size="10.00">::make_mesh</text>
</a>
</g>
</g>
<!-- Node5&#45;&gt;Node19 -->
<g id="edge19_Node000005_Node000019" class="edge">
<title>Node5&#45;&gt;Node19</title>
<g id="a_edge19_Node000005_Node000019"><a xlink:title=" ">
<path fill="none" stroke="#63b8ff" d="M946.09,-508.64C922.55,-513.68 894.71,-519.63 869.65,-524.99"/>
<polygon fill="#63b8ff" stroke="#63b8ff" points="946.85,-512.06 955.89,-506.54 945.38,-505.21 946.85,-512.06"/>
</a>
</g>
</g>
<!-- Node20 -->
<g id="Node000020" class="node">
<title>Node20</title>
<g id="a_Node000020"><a xlink:href="namespacewmtk_1_1components_1_1procedural.html#ad852baba2d5d7211ec55d766497089b3" target="_top" xlink:title=" ">
<polygon fill="white" stroke="#666666" points="882.5,-641 714.5,-641 714.5,-611 882.5,-611 882.5,-641"/>
<text text-anchor="start" x="722.5" y="-629" font-family="Helvetica,sans-Serif" font-size="10.00">wmtk::components::procedural</text>
<text text-anchor="middle" x="798.5" y="-618" font-family="Helvetica,sans-Serif" font-size="10.00">::make_mesh</text>
</a>
</g>
</g>
<!-- Node5&#45;&gt;Node20 -->
<g id="edge20_Node000005_Node000020" class="edge">
<title>Node5&#45;&gt;Node20</title>
<g id="a_edge20_Node000005_Node000020"><a xlink:title=" ">
<path fill="none" stroke="#63b8ff" d="M933.25,-511.34C931.06,-512.75 928.96,-514.3 927,-516 895.68,-543.12 922.28,-574.82 891,-602 887.03,-605.45 882.63,-608.41 877.96,-610.95"/>
<polygon fill="#63b8ff" stroke="#63b8ff" points="935.02,-514.36 942.15,-506.53 931.69,-508.2 935.02,-514.36"/>
</a>
</g>
</g>
<!-- Node7 -->
<g id="Node000007" class="node">
<title>Node7</title>
<g id="a_Node000007"><a xlink:href="namespacewmtk_1_1components.html#ac309092566399cef68679a1bb8107d1e" target="_top" xlink:title="Generate a multi&#45;mesh from a mesh with a tag that represents the substructure, the mesh is changed.">
<polygon fill="white" stroke="#666666" points="276,-558 107,-558 107,-528 276,-528 276,-558"/>
<text text-anchor="start" x="115" y="-546" font-family="Helvetica,sans-Serif" font-size="10.00">wmtk::components::multimesh</text>
<text text-anchor="middle" x="191.5" y="-535" font-family="Helvetica,sans-Serif" font-size="10.00">_from_tag</text>
</a>
</g>
</g>
<!-- Node6&#45;&gt;Node7 -->
<g id="edge6_Node000006_Node000007" class="edge">
<title>Node6&#45;&gt;Node7</title>
<g id="a_edge6_Node000006_Node000007"><a xlink:title=" ">
<path fill="none" stroke="#63b8ff" d="M372.79,-424.87C351.72,-452.88 316.19,-494.62 276,-519 270.33,-522.44 264.13,-525.41 257.77,-527.96"/>
<polygon fill="#63b8ff" stroke="#63b8ff" points="375.74,-426.77 378.86,-416.65 370.1,-422.62 375.74,-426.77"/>
</a>
</g>
</g>
<!-- Node9 -->
<g id="Node000009" class="node">
<title>Node9</title>
<g id="a_Node000009"><a xlink:href="namespacewmtk_1_1components.html#a4166e4880553cfacbf79ac3515a637cd" target="_top" xlink:title=" ">
<polygon fill="white" stroke="#666666" points="269,-510 114,-510 114,-480 269,-480 269,-510"/>
<text text-anchor="start" x="122" y="-498" font-family="Helvetica,sans-Serif" font-size="10.00">wmtk::components::periodic</text>
<text text-anchor="middle" x="191.5" y="-487" font-family="Helvetica,sans-Serif" font-size="10.00">_optimization</text>
</a>
</g>
</g>
<!-- Node6&#45;&gt;Node9 -->
<g id="edge8_Node000006_Node000009" class="edge">
<title>Node6&#45;&gt;Node9</title>
<g id="a_edge8_Node000006_Node000009"><a xlink:title=" ">
<path fill="none" stroke="#63b8ff" d="M357.73,-422.46C335.27,-438.3 305.04,-457.86 276,-471 268.72,-474.3 260.87,-477.26 253.01,-479.88"/>
<polygon fill="#63b8ff" stroke="#63b8ff" points="359.84,-425.25 365.93,-416.59 355.76,-419.56 359.84,-425.25"/>
</a>
</g>
</g>
<!-- Node10 -->
<g id="Node000010" class="node">
<title>Node10</title>
<g id="a_Node000010"><a xlink:href="test__component__multimesh__from__tag_8cpp.html#a2231774bf0d53fb5f6c1b34753afb255" target="_top" xlink:title=" ">
<polygon fill="white" stroke="#666666" points="227,-461.5 156,-461.5 156,-442.5 227,-442.5 227,-461.5"/>
<text text-anchor="middle" x="191.5" y="-449.5" font-family="Helvetica,sans-Serif" font-size="10.00">TEST_CASE</text>
</a>
</g>
</g>
<!-- Node6&#45;&gt;Node10 -->
<g id="edge9_Node000006_Node000010" class="edge">
<title>Node6&#45;&gt;Node10</title>
<g id="a_edge9_Node000006_Node000010"><a xlink:title=" ">
<path fill="none" stroke="#63b8ff" d="M324.17,-419.64C308.43,-424.69 291.71,-429.77 276,-434 260.11,-438.28 242.3,-442.24 227.22,-445.34"/>
<polygon fill="#63b8ff" stroke="#63b8ff" points="325.4,-422.92 333.83,-416.51 323.24,-416.27 325.4,-422.92"/>
</a>
</g>
</g>
<!-- Node11 -->
<g id="Node000011" class="node">
<title>Node11</title>
<g id="a_Node000011"><a xlink:href="test__component__multimesh__from__tag_8cpp.html#a9a31cb828b93e2ddcf0a5063d4d1c9e6" target="_top" xlink:title=" ">
<polygon fill="white" stroke="#666666" points="227,-424.5 156,-424.5 156,-405.5 227,-405.5 227,-424.5"/>
<text text-anchor="middle" x="191.5" y="-412.5" font-family="Helvetica,sans-Serif" font-size="10.00">TEST_CASE</text>
</a>
</g>
</g>
<!-- Node6&#45;&gt;Node11 -->
<g id="edge10_Node000006_Node000011" class="edge">
<title>Node6&#45;&gt;Node11</title>
<g id="a_edge10_Node000006_Node000011"><a xlink:title=" ">
<path fill="none" stroke="#63b8ff" d="M301.63,-404.66C275.11,-407.17 247.76,-409.76 227.07,-411.72"/>
<polygon fill="#63b8ff" stroke="#63b8ff" points="302.11,-408.13 311.74,-403.7 301.45,-401.16 302.11,-408.13"/>
</a>
</g>
</g>
<!-- Node12 -->
<g id="Node000012" class="node">
<title>Node12</title>
<g id="a_Node000012"><a xlink:href="test__component__multimesh__from__tag_8cpp.html#a7a8f66a094907f369fa10876691f42f9" target="_top" xlink:title=" ">
<polygon fill="white" stroke="#666666" points="227,-387.5 156,-387.5 156,-368.5 227,-368.5 227,-387.5"/>
<text text-anchor="middle" x="191.5" y="-375.5" font-family="Helvetica,sans-Serif" font-size="10.00">TEST_CASE</text>
</a>
</g>
</g>
<!-- Node6&#45;&gt;Node12 -->
<g id="edge11_Node000006_Node000012" class="edge">
<title>Node6&#45;&gt;Node12</title>
<g id="a_edge11_Node000006_Node000012"><a xlink:title=" ">
<path fill="none" stroke="#63b8ff" d="M301.63,-387.8C275.11,-385.42 247.76,-382.96 227.07,-381.1"/>
<polygon fill="#63b8ff" stroke="#63b8ff" points="301.47,-391.3 311.74,-388.7 302.09,-384.32 301.47,-391.3"/>
</a>
</g>
</g>
<!-- Node13 -->
<g id="Node000013" class="node">
<title>Node13</title>
<g id="a_Node000013"><a xlink:href="test__component__multimesh__from__tag_8cpp.html#af55ce8249624ce4d6a3feaad760949a6" target="_top" xlink:title=" ">
<polygon fill="white" stroke="#666666" points="227,-350.5 156,-350.5 156,-331.5 227,-331.5 227,-350.5"/>
<text text-anchor="middle" x="191.5" y="-338.5" font-family="Helvetica,sans-Serif" font-size="10.00">TEST_CASE</text>
</a>
</g>
</g>
<!-- Node6&#45;&gt;Node13 -->
<g id="edge12_Node000006_Node000013" class="edge">
<title>Node6&#45;&gt;Node13</title>
<g id="a_edge12_Node000006_Node000013"><a xlink:title=" ">
<path fill="none" stroke="#63b8ff" d="M319.38,-372.43C305.05,-368.1 290.1,-363.77 276,-360 260.06,-355.74 242.24,-351.6 227.17,-348.28"/>
<polygon fill="#63b8ff" stroke="#63b8ff" points="318.6,-375.85 329.19,-375.42 320.64,-369.16 318.6,-375.85"/>
</a>
</g>
</g>
<!-- Node14 -->
<g id="Node000014" class="node">
<title>Node14</title>
<g id="a_Node000014"><a xlink:href="test__component__multimesh__from__tag_8cpp.html#a18cd3d411cfadc472201c20662d62869" target="_top" xlink:title=" ">
<polygon fill="white" stroke="#666666" points="227,-313.5 156,-313.5 156,-294.5 227,-294.5 227,-313.5"/>
<text text-anchor="middle" x="191.5" y="-301.5" font-family="Helvetica,sans-Serif" font-size="10.00">TEST_CASE</text>
</a>
</g>
</g>
<!-- Node6&#45;&gt;Node14 -->
<g id="edge13_Node000006_Node000014" class="edge">
<title>Node6&#45;&gt;Node14</title>
<g id="a_edge13_Node000006_Node000014"><a xlink:title=" ">
<path fill="none" stroke="#63b8ff" d="M357.42,-369.41C335.06,-353.85 305.05,-334.97 276,-323 260.47,-316.6 242.38,-312.15 227.01,-309.17"/>
<polygon fill="#63b8ff" stroke="#63b8ff" points="355.41,-372.28 365.59,-375.19 359.45,-366.56 355.41,-372.28"/>
</a>
</g>
</g>
<!-- Node15 -->
<g id="Node000015" class="node">
<title>Node15</title>
<g id="a_Node000015"><a xlink:href="test__component__multimesh__from__tag_8cpp.html#a4caad3dd8a6355f2ca66fdb0b0af7999" target="_top" xlink:title=" ">
<polygon fill="white" stroke="#666666" points="227,-276.5 156,-276.5 156,-257.5 227,-257.5 227,-276.5"/>
<text text-anchor="middle" x="191.5" y="-264.5" font-family="Helvetica,sans-Serif" font-size="10.00">TEST_CASE</text>
</a>
</g>
</g>
<!-- Node6&#45;&gt;Node15 -->
<g id="edge14_Node000006_Node000015" class="edge">
<title>Node6&#45;&gt;Node15</title>
<g id="a_edge14_Node000006_Node000015"><a xlink:title=" ">
<path fill="none" stroke="#63b8ff" d="M370.26,-367.28C348.68,-342.02 313.97,-306.21 276,-286 261.04,-278.04 242.84,-273.4 227.26,-270.7"/>
<polygon fill="#63b8ff" stroke="#63b8ff" points="367.68,-369.66 376.79,-375.08 373.05,-365.17 367.68,-369.66"/>
</a>
</g>
</g>
<!-- Node8 -->
<g id="Node000008" class="node">
<title>Node8</title>
<g id="a_Node000008"><a xlink:href="test__component__multimesh__from__tag_8cpp.html#a2b0208caf4b963a36a43604c3e7cf34a" target="_top" xlink:title=" ">
<polygon fill="white" stroke="#666666" points="71,-552.5 0,-552.5 0,-533.5 71,-533.5 71,-552.5"/>
<text text-anchor="middle" x="35.5" y="-540.5" font-family="Helvetica,sans-Serif" font-size="10.00">TEST_CASE</text>
</a>
</g>
</g>
<!-- Node7&#45;&gt;Node8 -->
<g id="edge7_Node000007_Node000008" class="edge">
<title>Node7&#45;&gt;Node8</title>
<g id="a_edge7_Node000007_Node000008"><a xlink:title=" ">
<path fill="none" stroke="#63b8ff" d="M96.52,-543C87.57,-543 78.93,-543 71.14,-543"/>
<polygon fill="#63b8ff" stroke="#63b8ff" points="96.74,-546.5 106.74,-543 96.74,-539.5 96.74,-546.5"/>
</a>
</g>
</g>
<!-- Node18 -->
<g id="Node000018" class="node">
<title>Node18</title>
<g id="a_Node000018"><a xlink:href="classwmtk_1_1components_1_1internal_1_1_multi_mesh_from_tag.html#ad18667b876fc81c8cfb79a408d632b25" target="_top" xlink:title="Create a multimesh where the child&#45;mesh is just a soup (no connectivity) of m_mesh.">
<polygon fill="white" stroke="#666666" points="668,-392.5 514,-392.5 514,-351.5 668,-351.5 668,-392.5"/>
<text text-anchor="start" x="522" y="-380.5" font-family="Helvetica,sans-Serif" font-size="10.00">wmtk::components::internal</text>
<text text-anchor="start" x="522" y="-369.5" font-family="Helvetica,sans-Serif" font-size="10.00">::MultiMeshFromTag::create</text>
<text text-anchor="middle" x="591" y="-358.5" font-family="Helvetica,sans-Serif" font-size="10.00">_substructure_soup</text>
</a>
</g>
</g>
<!-- Node17&#45;&gt;Node18 -->
<g id="edge17_Node000017_Node000018" class="edge">
<title>Node17&#45;&gt;Node18</title>
<g id="a_edge17_Node000017_Node000018"><a xlink:title=" ">
<path fill="none" stroke="#63b8ff" d="M735.03,-410.4C725.29,-408.39 715.35,-406.23 706,-404 691.6,-400.57 676.29,-396.54 661.71,-392.51"/>
<polygon fill="#63b8ff" stroke="#63b8ff" points="734.59,-413.88 745.09,-412.43 735.98,-407.02 734.59,-413.88"/>
</a>
</g>
</g>
<!-- Node18&#45;&gt;Node6 -->
<g id="edge18_Node000018_Node000006" class="edge">
<title>Node18&#45;&gt;Node6</title>
<g id="a_edge18_Node000018_Node000006"><a xlink:title=" ">
<path fill="none" stroke="#63b8ff" d="M503.81,-382.61C494.57,-383.75 485.19,-384.9 476.01,-386.03"/>
<polygon fill="#63b8ff" stroke="#63b8ff" points="504.27,-386.08 513.77,-381.38 503.42,-379.13 504.27,-386.08"/>
</a>
</g>
</g>
<!-- Node21&#45;&gt;Node6 -->
<g id="edge22_Node000021_Node000006" class="edge">
<title>Node21&#45;&gt;Node6</title>
<g id="a_edge22_Node000021_Node000006"><a xlink:title=" ">
<path fill="none" stroke="#63b8ff" d="M969.92,-353.67C948.33,-345.01 918.47,-334.52 891,-330 724.69,-302.66 675.46,-301.93 512,-343 483.78,-350.09 453.92,-363.72 431.44,-375.39"/>
<polygon fill="#63b8ff" stroke="#63b8ff" points="968.64,-356.92 979.22,-357.49 971.3,-350.45 968.64,-356.92"/>
</a>
</g>
</g>
<!-- Node22 -->
<g id="Node000022" class="node">
<title>Node22</title>
<g id="a_Node000022"><a xlink:href="classwmtk_1_1_tet_mesh.html#a679a3ffd1a5375f69e9279e48ddbbb8b" target="_top" xlink:title=" ">
<polygon fill="white" stroke="#666666" points="868,-357.5 729,-357.5 729,-338.5 868,-338.5 868,-357.5"/>
<text text-anchor="middle" x="798.5" y="-345.5" font-family="Helvetica,sans-Serif" font-size="10.00">wmtk::TetMesh::initialize</text>
</a>
</g>
</g>
<!-- Node21&#45;&gt;Node22 -->
<g id="edge23_Node000021_Node000022" class="edge">
<title>Node21&#45;&gt;Node22</title>
<g id="a_edge23_Node000021_Node000022"><a xlink:title=" ">
<path fill="none" stroke="#63b8ff" d="M921.61,-359.54C903.95,-357.87 885.35,-356.12 868.14,-354.49"/>
<polygon fill="#63b8ff" stroke="#63b8ff" points="921.6,-363.06 931.89,-360.51 922.26,-356.09 921.6,-363.06"/>
</a>
</g>
</g>
<!-- Node23 -->
<g id="Node000023" class="node">
<title>Node23</title>
<g id="a_Node000023"><a xlink:href="classwmtk_1_1_tet_mesh.html#a7cff4758f5cd0e10da33622a6999cbef" target="_top" xlink:title=" ">
<polygon fill="white" stroke="#666666" points="880.5,-394.5 716.5,-394.5 716.5,-375.5 880.5,-375.5 880.5,-394.5"/>
<text text-anchor="middle" x="798.5" y="-382.5" font-family="Helvetica,sans-Serif" font-size="10.00">wmtk::TetMesh::initialize_free</text>
</a>
</g>
</g>
<!-- Node21&#45;&gt;Node23 -->
<g id="edge24_Node000021_Node000023" class="edge">
<title>Node21&#45;&gt;Node23</title>
<g id="a_edge24_Node000021_Node000023"><a xlink:title=" ">
<path fill="none" stroke="#63b8ff" d="M921.7,-374.06C908.21,-375.26 894.18,-376.52 880.63,-377.73"/>
<polygon fill="#63b8ff" stroke="#63b8ff" points="922.24,-377.52 931.89,-373.14 921.62,-370.55 922.24,-377.52"/>
</a>
</g>
</g>
<!-- Node23&#45;&gt;Node18 -->
<g id="edge25_Node000023_Node000018" class="edge">
<title>Node23&#45;&gt;Node18</title>
<g id="a_edge25_Node000023_Node000018"><a xlink:title=" ">
<path fill="none" stroke="#63b8ff" d="M706.19,-379.22C693.53,-378.42 680.63,-377.61 668.28,-376.83"/>
<polygon fill="#63b8ff" stroke="#63b8ff" points="706.08,-382.72 716.28,-379.86 706.52,-375.74 706.08,-382.72"/>
</a>
</g>
</g>
<!-- Node24&#45;&gt;Node6 -->
<g id="edge27_Node000024_Node000006" class="edge">
<title>Node24&#45;&gt;Node6</title>
<g id="a_edge27_Node000024_Node000006"><a xlink:title=" ">
<path fill="none" stroke="#63b8ff" d="M726.31,-447.86C656.29,-436.9 549.52,-420.19 476.22,-408.71"/>
<polygon fill="#63b8ff" stroke="#63b8ff" points="725.95,-451.34 736.37,-449.43 727.03,-444.43 725.95,-451.34"/>
</a>
</g>
</g>
<!-- Node24&#45;&gt;Node18 -->
<g id="edge28_Node000024_Node000018" class="edge">
<title>Node24&#45;&gt;Node18</title>
<g id="a_edge28_Node000024_Node000018"><a xlink:title=" ">
<path fill="none" stroke="#63b8ff" d="M717.64,-446.16C713.63,-444.63 709.72,-442.92 706,-441 686.43,-430.92 688.3,-419.23 670,-407 662.1,-401.72 653.28,-396.89 644.49,-392.62"/>
<polygon fill="#63b8ff" stroke="#63b8ff" points="716.57,-449.5 727.17,-449.42 718.84,-442.87 716.57,-449.5"/>
</a>
</g>
</g>
<!-- Node25 -->
<g id="Node000025" class="node">
<title>Node25</title>
<g id="a_Node000025"><a xlink:href="classwmtk_1_1_point_mesh.html#a9323586140fbd128b9d52c3d6a6ccae8" target="_top" xlink:title=" ">
<polygon fill="white" stroke="#666666" points="670,-468.5 512,-468.5 512,-449.5 670,-449.5 670,-468.5"/>
<text text-anchor="middle" x="591" y="-456.5" font-family="Helvetica,sans-Serif" font-size="10.00">wmtk::PointMesh::PointMesh</text>
</a>
</g>
</g>
<!-- Node24&#45;&gt;Node25 -->
<g id="edge29_Node000024_Node000025" class="edge">
<title>Node24&#45;&gt;Node25</title>
<g id="a_edge29_Node000024_Node000025"><a xlink:title=" ">
<path fill="none" stroke="#63b8ff" d="M713.58,-459C699.27,-459 684.46,-459 670.31,-459"/>
<polygon fill="#63b8ff" stroke="#63b8ff" points="713.89,-462.5 723.89,-459 713.89,-455.5 713.89,-462.5"/>
</a>
</g>
</g>
<!-- Node27 -->
<g id="Node000027" class="node">
<title>Node27</title>
<g id="a_Node000027"><a xlink:href="classwmtk_1_1_tri_mesh_1_1_tri_mesh_operation_executor.html#a54ec111e8890281195a6d2449f822f02" target="_top" xlink:title=" ">
<polygon fill="white" stroke="#666666" points="888,-126 709,-126 709,-96 888,-96 888,-126"/>
<text text-anchor="start" x="717" y="-114" font-family="Helvetica,sans-Serif" font-size="10.00">wmtk::TriMesh::TriMeshOperation</text>
<text text-anchor="middle" x="798.5" y="-103" font-family="Helvetica,sans-Serif" font-size="10.00">Executor::create_spine_simplices</text>
</a>
</g>
</g>
<!-- Node26&#45;&gt;Node27 -->
<g id="edge31_Node000026_Node000027" class="edge">
<title>Node26&#45;&gt;Node27</title>
<g id="a_edge31_Node000026_Node000027"><a xlink:title=" ">
<path fill="none" stroke="#63b8ff" d="M935.9,-147.18C921.15,-143.14 905.54,-138.9 891,-135 880.05,-132.07 868.36,-128.97 857.12,-126.01"/>
<polygon fill="#63b8ff" stroke="#63b8ff" points="935.38,-150.66 945.95,-149.93 937.23,-143.91 935.38,-150.66"/>
</a>
</g>
</g>
<!-- Node28 -->
<g id="Node000028" class="node">
<title>Node28</title>
<g id="a_Node000028"><a xlink:href="classwmtk_1_1_tri_mesh_1_1_tri_mesh_operation_executor.html#a3df1e4a6e6de766e419522774d6463d6" target="_top" xlink:title=" ">
<polygon fill="white" stroke="#666666" points="888,-78 709,-78 709,-48 888,-48 888,-78"/>
<text text-anchor="start" x="717" y="-66" font-family="Helvetica,sans-Serif" font-size="10.00">wmtk::TriMesh::TriMeshOperation</text>
<text text-anchor="middle" x="798.5" y="-55" font-family="Helvetica,sans-Serif" font-size="10.00">Executor::fill_split_facet_data</text>
</a>
</g>
</g>
<!-- Node26&#45;&gt;Node28 -->
<g id="edge32_Node000026_Node000028" class="edge">
<title>Node26&#45;&gt;Node28</title>
<g id="a_edge32_Node000026_Node000028"><a xlink:title=" ">
<path fill="none" stroke="#63b8ff" d="M975.69,-143.31C954.51,-125.81 922.54,-101.76 891,-87 883.71,-83.59 875.86,-80.6 867.93,-78.01"/>
<polygon fill="#63b8ff" stroke="#63b8ff" points="973.63,-146.14 983.53,-149.89 978.13,-140.78 973.63,-146.14"/>
</a>
</g>
</g>
<!-- Node29 -->
<g id="Node000029" class="node">
<title>Node29</title>
<g id="a_Node000029"><a xlink:href="classwmtk_1_1_tri_mesh_1_1_tri_mesh_operation_executor.html#a998d9ebaf1507d842fb01db91e044644" target="_top" xlink:title=" ">
<polygon fill="white" stroke="#666666" points="888,-30 709,-30 709,0 888,0 888,-30"/>
<text text-anchor="start" x="717" y="-18" font-family="Helvetica,sans-Serif" font-size="10.00">wmtk::TriMesh::TriMeshOperation</text>
<text text-anchor="middle" x="798.5" y="-7" font-family="Helvetica,sans-Serif" font-size="10.00">Executor::replace_incident_face</text>
</a>
</g>
</g>
<!-- Node26&#45;&gt;Node29 -->
<g id="edge33_Node000026_Node000029" class="edge">
<title>Node26&#45;&gt;Node29</title>
<g id="a_edge33_Node000026_Node000029"><a xlink:title=" ">
<path fill="none" stroke="#63b8ff" d="M986.37,-141.42C967.99,-112.83 933.2,-65.22 891,-39 885.42,-35.53 879.35,-32.56 873.08,-30.02"/>
<polygon fill="#63b8ff" stroke="#63b8ff" points="983.46,-143.38 991.74,-149.99 989.39,-139.66 983.46,-143.38"/>
</a>
</g>
</g>
<!-- Node30 -->
<g id="Node000030" class="node">
<title>Node30</title>
<g id="a_Node000030"><a xlink:href="classwmtk_1_1operations_1_1_edge_operation_data.html#a80ea6d5059989a2d093179a0dbd2556d" target="_top" xlink:title=" ">
<polygon fill="white" stroke="#666666" points="888.5,-282 708.5,-282 708.5,-252 888.5,-252 888.5,-282"/>
<text text-anchor="start" x="716.5" y="-270" font-family="Helvetica,sans-Serif" font-size="10.00">wmtk::operations::EdgeOperation</text>
<text text-anchor="middle" x="798.5" y="-259" font-family="Helvetica,sans-Serif" font-size="10.00">Data::request_simplex_indices</text>
</a>
</g>
</g>
<!-- Node26&#45;&gt;Node30 -->
<g id="edge34_Node000026_Node000030" class="edge">
<title>Node26&#45;&gt;Node30</title>
<g id="a_edge34_Node000026_Node000030"><a xlink:title=" ">
<path fill="none" stroke="#63b8ff" d="M975.69,-186.69C954.51,-204.19 922.54,-228.24 891,-243 883.71,-246.41 875.86,-249.4 867.93,-251.99"/>
<polygon fill="#63b8ff" stroke="#63b8ff" points="978.13,-189.22 983.53,-180.11 973.63,-183.86 978.13,-189.22"/>
</a>
</g>
</g>
<!-- Node31 -->
<g id="Node000031" class="node">
<title>Node31</title>
<g id="a_Node000031"><a xlink:href="classwmtk_1_1_tet_mesh_1_1_tet_mesh_operation_executor.html#a01f3a3bac005c290049e69e2c5330dfb" target="_top" xlink:title=" ">
<polygon fill="white" stroke="#666666" points="891,-234 706,-234 706,-204 891,-204 891,-234"/>
<text text-anchor="start" x="714" y="-222" font-family="Helvetica,sans-Serif" font-size="10.00">wmtk::TetMesh::TetMeshOperation</text>
<text text-anchor="middle" x="798.5" y="-211" font-family="Helvetica,sans-Serif" font-size="10.00">Executor::split_edge_precompute</text>
</a>
</g>
</g>
<!-- Node26&#45;&gt;Node31 -->
<g id="edge35_Node000026_Node000031" class="edge">
<title>Node26&#45;&gt;Node31</title>
<g id="a_edge35_Node000026_Node000031"><a xlink:title=" ">
<path fill="none" stroke="#63b8ff" d="M934.53,-182.72C908.99,-189.59 880.05,-197.36 855.54,-203.95"/>
<polygon fill="#63b8ff" stroke="#63b8ff" points="935.76,-186.02 944.51,-180.04 933.94,-179.26 935.76,-186.02"/>
</a>
</g>
</g>
<!-- Node32 -->
<g id="Node000032" class="node">
<title>Node32</title>
<g id="a_Node000032"><a xlink:href="classwmtk_1_1_edge_mesh_1_1_edge_mesh_operation_executor.html#acb42aca716850f7017290140eef6d94e" target="_top" xlink:title=" ">
<polygon fill="white" stroke="#666666" points="877,-185.5 720,-185.5 720,-144.5 877,-144.5 877,-185.5"/>
<text text-anchor="start" x="728" y="-173.5" font-family="Helvetica,sans-Serif" font-size="10.00">wmtk::EdgeMesh::EdgeMesh</text>
<text text-anchor="start" x="728" y="-162.5" font-family="Helvetica,sans-Serif" font-size="10.00">OperationExecutor::split</text>
<text text-anchor="middle" x="798.5" y="-151.5" font-family="Helvetica,sans-Serif" font-size="10.00">_edge_single_mesh</text>
</a>
</g>
</g>
<!-- Node26&#45;&gt;Node32 -->
<g id="edge36_Node000026_Node000032" class="edge">
<title>Node26&#45;&gt;Node32</title>
<g id="a_edge36_Node000026_Node000032"><a xlink:title=" ">
<path fill="none" stroke="#63b8ff" d="M931.7,-165C914.19,-165 895.25,-165 877.32,-165"/>
<polygon fill="#63b8ff" stroke="#63b8ff" points="931.82,-168.5 941.82,-165 931.82,-161.5 931.82,-168.5"/>
</a>
</g>
</g>
</g>
</svg>

<g id="navigator" transform="translate(0 0)" fill="#404254">
  <rect fill="#f2f5e9" fill-opacity="0.5" stroke="#606060" stroke-width=".5" x="0" y="0" width="60" height="60"/>
  <use id="zoomplus" xlink:href="#zoomPlus" x="17" y="9" onmousedown="handleZoom(evt,'in')"/>
  <use id="zoomminus" xlink:href="#zoomMin" x="42" y="9" onmousedown="handleZoom(evt,'out')"/>
  <use id="reset" xlink:href="#resetDef" x="30" y="36" onmousedown="handleReset()"/>
   <use id="arrowup" xlink:href="#arrowUp" x="0" y="0" onmousedown="handlePan(0,-1)"/>
  <use id="arrowright" xlink:href="#arrowRight" x="0" y="0" onmousedown="handlePan(1,0)"/>
  <use id="arrowdown" xlink:href="#arrowDown" x="0" y="0" onmousedown="handlePan(0,1)"/>
  <use id="arrowleft" xlink:href="#arrowLeft" x="0" y="0" onmousedown="handlePan(-1,0)"/>
</g>
<svg viewBox="0 0 15 15" width="100%" height="30px" preserveAspectRatio="xMaxYMin meet">
 <g id="arrow_out" transform="scale(0.3 0.3)">
  <a xlink:href="classwmtk_1_1attribute_1_1_index_flag_accessor_af06d8fe6a9f16a0b9ac09e6eae9e797d_icgraph_org.svg" target="_base">
   <rect id="button" ry="5" rx="5" y="6" x="6" height="38" width="38"
        fill="#f2f5e9" fill-opacity="0.5" stroke="#606060" stroke-width="1.0"/>
   <path id="arrow"
     d="M 11.500037,31.436501 C 11.940474,20.09759 22.043105,11.32322 32.158766,21.979434 L 37.068811,17.246167 C 37.068811,17.246167 37.088388,32 37.088388,32 L 22.160133,31.978069 C 22.160133,31.978069 26.997745,27.140456 26.997745,27.140456 C 18.528582,18.264221 13.291696,25.230495 11.500037,31.436501 z"
     style="fill:#404040;"/>
  </a>
 </g>
</svg>

<style type='text/css'>
<![CDATA[
[data-mouse-over-selected='false'] { opacity: 0.7; }
[data-mouse-over-selected='true']  { opacity: 1.0; }
]]>
</style>
<script type="application/ecmascript"><![CDATA[
document.addEventListener('DOMContentLoaded', (event) => {
  highlightEdges();
  highlightAdjacentNodes();
});
]]></script>
</svg>
