<?xml version="1.0" encoding="UTF-8" standalone="no"?>
<!DOCTYPE svg PUBLIC "-//W3C//DTD SVG 1.1//EN"
 "http://www.w3.org/Graphics/SVG/1.1/DTD/svg11.dtd">
<!-- Generated by graphviz version 2.43.0 (0)
 -->
<!-- Title: wmtk::EdgeMesh::is_valid Pages: 1 -->
<svg width="847pt" height="452pt"
 viewBox="0.00 0.00 847.00 452.05" xmlns="http://www.w3.org/2000/svg" xmlns:xlink="http://www.w3.org/1999/xlink">
<g id="graph0" class="graph" transform="scale(1 1) rotate(0) translate(4 448.05)">
<title>wmtk::EdgeMesh::is_valid</title>
<!-- Node1 -->
<g id="Node000001" class="node">
<title>Node1</title>
<g id="a_Node000001"><a xlink:title="check validity of tuple including its hash">
<polygon fill="#999999" stroke="#666666" points="115,-340 0,-340 0,-310 115,-310 115,-340"/>
<text text-anchor="start" x="8" y="-328" font-family="Helvetica,sans-Serif" font-size="10.00">wmtk::EdgeMesh::is</text>
<text text-anchor="middle" x="57.5" y="-317" font-family="Helvetica,sans-Serif" font-size="10.00">_valid</text>
</a>
</g>
</g>
<!-- Node2 -->
<g id="Node000002" class="node">
<title>Node2</title>
<g id="a_Node000002"><a xlink:href="classwmtk_1_1_tuple.html#aef64a43ff5f5617dbc99d865356bbc25" target="_top" xlink:title=" ">
<polygon fill="white" stroke="#666666" points="649.5,-437.5 518.5,-437.5 518.5,-418.5 649.5,-418.5 649.5,-437.5"/>
<text text-anchor="middle" x="584" y="-425.5" font-family="Helvetica,sans-Serif" font-size="10.00">wmtk::Tuple::global_cid</text>
</a>
</g>
</g>
<!-- Node1&#45;&gt;Node2 -->
<g id="edge1_Node000001_Node000002" class="edge">
<title>Node1&#45;&gt;Node2</title>
<g id="a_edge1_Node000001_Node000002"><a xlink:title=" ">
<path fill="none" stroke="#63b8ff" d="M79.78,-340.02C98.05,-352.43 125.41,-369.93 151,-382 219.39,-414.26 237.41,-424.61 312,-437 377.79,-447.93 453.77,-444 508.5,-438.32"/>
<polygon fill="#63b8ff" stroke="#63b8ff" points="508.9,-441.8 518.47,-437.24 508.15,-434.84 508.9,-441.8"/>
</a>
</g>
</g>
<!-- Node3 -->
<g id="Node000003" class="node">
<title>Node3</title>
<g id="a_Node000003"><a xlink:href="classwmtk_1_1_edge_mesh.html#ae612ac7ca6b0c5bae7c78f2fd4df4346" target="_top" xlink:title=" ">
<polygon fill="white" stroke="#666666" points="271,-239 156,-239 156,-209 271,-209 271,-239"/>
<text text-anchor="start" x="164" y="-227" font-family="Helvetica,sans-Serif" font-size="10.00">wmtk::EdgeMesh::is</text>
<text text-anchor="middle" x="213.5" y="-216" font-family="Helvetica,sans-Serif" font-size="10.00">_connectivity_valid</text>
</a>
</g>
</g>
<!-- Node1&#45;&gt;Node3 -->
<g id="edge2_Node000001_Node000003" class="edge">
<title>Node1&#45;&gt;Node3</title>
<g id="a_edge2_Node000001_Node000003"><a xlink:title=" ">
<path fill="none" stroke="#63b8ff" d="M81.56,-309.88C107.94,-292.57 151.31,-264.13 180.85,-244.76"/>
<polygon fill="#63b8ff" stroke="#63b8ff" points="183.1,-247.47 189.54,-239.06 179.26,-241.62 183.1,-247.47"/>
</a>
</g>
</g>
<!-- Node17 -->
<g id="Node000017" class="node">
<title>Node17</title>
<g id="a_Node000017"><a xlink:href="namespacewmtk.html#a6a35f11c12436093d26fdd8be6fecc06" target="_top" xlink:title="Retrieves the current logger.">
<polygon fill="white" stroke="#666666" points="434,-335.5 353,-335.5 353,-316.5 434,-316.5 434,-335.5"/>
<text text-anchor="middle" x="393.5" y="-323.5" font-family="Helvetica,sans-Serif" font-size="10.00">wmtk::logger</text>
</a>
</g>
</g>
<!-- Node1&#45;&gt;Node17 -->
<g id="edge27_Node000001_Node000017" class="edge">
<title>Node1&#45;&gt;Node17</title>
<g id="a_edge27_Node000001_Node000017"><a xlink:title=" ">
<path fill="none" stroke="#63b8ff" d="M115.16,-325.17C179.02,-325.36 281.86,-325.67 342.74,-325.85"/>
<polygon fill="#63b8ff" stroke="#63b8ff" points="342.86,-329.35 352.87,-325.88 342.88,-322.35 342.86,-329.35"/>
</a>
</g>
</g>
<!-- Node19 -->
<g id="Node000019" class="node">
<title>Node19</title>
<g id="a_Node000019"><a xlink:href="classwmtk_1_1_mesh.html#a8cc8686f0688613806f43720b6db49e7" target="_top" xlink:title="check validity of tuple including its hash">
<polygon fill="white" stroke="#666666" points="273.5,-372.5 153.5,-372.5 153.5,-353.5 273.5,-353.5 273.5,-372.5"/>
<text text-anchor="middle" x="213.5" y="-360.5" font-family="Helvetica,sans-Serif" font-size="10.00">wmtk::Mesh::is_valid</text>
</a>
</g>
</g>
<!-- Node1&#45;&gt;Node19 -->
<g id="edge20_Node000001_Node000019" class="edge">
<title>Node1&#45;&gt;Node19</title>
<g id="a_edge20_Node000001_Node000019"><a xlink:title=" ">
<path fill="none" stroke="#63b8ff" d="M115.41,-339.04C131.29,-342.96 148.4,-347.18 163.77,-350.98"/>
<polygon fill="#63b8ff" stroke="#63b8ff" points="163.04,-354.4 173.58,-353.4 164.71,-347.6 163.04,-354.4"/>
</a>
</g>
</g>
<!-- Node22 -->
<g id="Node000022" class="node">
<title>Node22</title>
<g id="a_Node000022"><a xlink:href="classwmtk_1_1_tuple.html#a27f6ee155923e848b461bebea1890abc" target="_top" xlink:title=" ">
<polygon fill="white" stroke="#666666" points="276,-190.5 151,-190.5 151,-171.5 276,-171.5 276,-190.5"/>
<text text-anchor="middle" x="213.5" y="-178.5" font-family="Helvetica,sans-Serif" font-size="10.00">wmtk::Tuple::local_vid</text>
</a>
</g>
</g>
<!-- Node1&#45;&gt;Node22 -->
<g id="edge26_Node000001_Node000022" class="edge">
<title>Node1&#45;&gt;Node22</title>
<g id="a_edge26_Node000001_Node000022"><a xlink:title=" ">
<path fill="none" stroke="#63b8ff" d="M65.64,-309.86C78.79,-283.58 109.37,-229.51 151,-200 153.82,-198 156.86,-196.21 160.02,-194.6"/>
<polygon fill="#63b8ff" stroke="#63b8ff" points="161.45,-197.79 169.17,-190.54 158.61,-191.39 161.45,-197.79"/>
</a>
</g>
</g>
<!-- Node4 -->
<g id="Node000004" class="node">
<title>Node4</title>
<g id="a_Node000004"><a xlink:href="classwmtk_1_1attribute_1_1_accessor.html#aaeafc36889f90d4e4e9478f998d240d7" target="_top" xlink:title=" ">
<polygon fill="white" stroke="#666666" points="837,-303 695,-303 695,-273 837,-273 837,-303"/>
<text text-anchor="start" x="703" y="-291" font-family="Helvetica,sans-Serif" font-size="10.00">wmtk::attribute::Accessor</text>
<text text-anchor="middle" x="766" y="-280" font-family="Helvetica,sans-Serif" font-size="10.00">::attribute</text>
</a>
</g>
</g>
<!-- Node3&#45;&gt;Node4 -->
<g id="edge3_Node000003_Node000004" class="edge">
<title>Node3&#45;&gt;Node4</title>
<g id="a_edge3_Node000003_Node000004"><a xlink:title=" ">
<path fill="none" stroke="#63b8ff" d="M239.98,-239.12C259.08,-249.62 286.27,-262.78 312,-269 439.58,-299.84 593.16,-298.56 684.73,-293.93"/>
<polygon fill="#63b8ff" stroke="#63b8ff" points="684.96,-297.42 694.76,-293.39 684.59,-290.43 684.96,-297.42"/>
</a>
</g>
</g>
<!-- Node5 -->
<g id="Node000005" class="node">
<title>Node5</title>
<g id="a_Node000005"><a xlink:href="classwmtk_1_1_mesh.html#a3e8ff83c4a5526a40d18bb9883c6c6c9" target="_top" xlink:title="read in the m_capacities return the upper bound for the number of entities of the given dimension">
<polygon fill="white" stroke="#666666" points="646,-163.5 522,-163.5 522,-144.5 646,-144.5 646,-163.5"/>
<text text-anchor="middle" x="584" y="-151.5" font-family="Helvetica,sans-Serif" font-size="10.00">wmtk::Mesh::capacity</text>
</a>
</g>
</g>
<!-- Node3&#45;&gt;Node5 -->
<g id="edge4_Node000003_Node000005" class="edge">
<title>Node3&#45;&gt;Node5</title>
<g id="a_edge4_Node000003_Node000005"><a xlink:title=" ">
<path fill="none" stroke="#63b8ff" d="M271.25,-216.98C324.26,-209.97 405.43,-198.09 475,-183 491.23,-179.48 494.97,-177.34 511,-173 519.25,-170.77 528.04,-168.42 536.55,-166.16"/>
<polygon fill="#63b8ff" stroke="#63b8ff" points="537.57,-169.51 546.35,-163.57 535.78,-162.75 537.57,-169.51"/>
</a>
</g>
</g>
<!-- Node7 -->
<g id="Node000007" class="node">
<title>Node7</title>
<g id="a_Node000007"><a xlink:href="classwmtk_1_1attribute_1_1_accessor.html#a6d3222130c85d3dcd2d7ae51257dc988" target="_top" xlink:title="Constant access function for a scalar attribute.">
<polygon fill="white" stroke="#666666" points="464.5,-126 322.5,-126 322.5,-96 464.5,-96 464.5,-126"/>
<text text-anchor="start" x="330.5" y="-114" font-family="Helvetica,sans-Serif" font-size="10.00">wmtk::attribute::Accessor</text>
<text text-anchor="middle" x="393.5" y="-103" font-family="Helvetica,sans-Serif" font-size="10.00">::const_scalar_attribute</text>
</a>
</g>
</g>
<!-- Node3&#45;&gt;Node7 -->
<g id="edge6_Node000003_Node000007" class="edge">
<title>Node3&#45;&gt;Node7</title>
<g id="a_edge6_Node000003_Node000007"><a xlink:title=" ">
<path fill="none" stroke="#63b8ff" d="M263.05,-208.88C267.7,-206.34 272.12,-203.4 276,-200 300.86,-178.26 286.27,-155.7 312,-135 313.75,-133.59 315.59,-132.26 317.49,-131.01"/>
<polygon fill="#63b8ff" stroke="#63b8ff" points="319.26,-134.03 326.19,-126.01 315.77,-127.96 319.26,-134.03"/>
</a>
</g>
</g>
<!-- Node8 -->
<g id="Node000008" class="node">
<title>Node8</title>
<g id="a_Node000008"><a xlink:href="classwmtk_1_1attribute_1_1_accessor.html#abecebb154568864219abda80a1beb803" target="_top" xlink:title="Constant access function for a vector attribute.">
<polygon fill="white" stroke="#666666" points="464.5,-78 322.5,-78 322.5,-48 464.5,-48 464.5,-78"/>
<text text-anchor="start" x="330.5" y="-66" font-family="Helvetica,sans-Serif" font-size="10.00">wmtk::attribute::Accessor</text>
<text text-anchor="middle" x="393.5" y="-55" font-family="Helvetica,sans-Serif" font-size="10.00">::const_vector_attribute</text>
</a>
</g>
</g>
<!-- Node3&#45;&gt;Node8 -->
<g id="edge7_Node000003_Node000008" class="edge">
<title>Node3&#45;&gt;Node8</title>
<g id="a_edge7_Node000003_Node000008"><a xlink:title=" ">
<path fill="none" stroke="#63b8ff" d="M264.97,-208.9C269.02,-206.37 272.78,-203.43 276,-200 312.07,-161.56 274.38,-123.92 312,-87 313.11,-85.91 314.26,-84.88 315.45,-83.89"/>
<polygon fill="#63b8ff" stroke="#63b8ff" points="317.68,-86.6 323.87,-78.01 313.66,-80.87 317.68,-86.6"/>
</a>
</g>
</g>
<!-- Node9 -->
<g id="Node000009" class="node">
<title>Node9</title>
<g id="a_Node000009"><a xlink:href="classwmtk_1_1_mesh.html#ae3493915b766f0f34f0a9e89603d5773" target="_top" xlink:title=" ">
<polygon fill="white" stroke="#666666" points="454.5,-174 332.5,-174 332.5,-144 454.5,-144 454.5,-174"/>
<text text-anchor="start" x="340.5" y="-162" font-family="Helvetica,sans-Serif" font-size="10.00">wmtk::Mesh::get_flag</text>
<text text-anchor="middle" x="393.5" y="-151" font-family="Helvetica,sans-Serif" font-size="10.00">_accessor</text>
</a>
</g>
</g>
<!-- Node3&#45;&gt;Node9 -->
<g id="edge8_Node000003_Node000009" class="edge">
<title>Node3&#45;&gt;Node9</title>
<g id="a_edge8_Node000003_Node000009"><a xlink:title=" ">
<path fill="none" stroke="#63b8ff" d="M255.27,-208.86C272.73,-202.4 293.35,-194.8 312,-188 321.32,-184.6 331.25,-181 340.84,-177.54"/>
<polygon fill="#63b8ff" stroke="#63b8ff" points="342.06,-180.82 350.28,-174.14 339.69,-174.24 342.06,-180.82"/>
</a>
</g>
</g>
<!-- Node12 -->
<g id="Node000012" class="node">
<title>Node12</title>
<g id="a_Node000012"><a xlink:href="classwmtk_1_1attribute_1_1_flag_accessor.html#a4f49a666c3811fee9b841c1cd1f66250" target="_top" xlink:title=" ">
<polygon fill="white" stroke="#666666" points="475,-30 312,-30 312,0 475,0 475,-30"/>
<text text-anchor="start" x="320" y="-18" font-family="Helvetica,sans-Serif" font-size="10.00">wmtk::attribute::FlagAccessor</text>
<text text-anchor="middle" x="393.5" y="-7" font-family="Helvetica,sans-Serif" font-size="10.00">::index_access</text>
</a>
</g>
</g>
<!-- Node3&#45;&gt;Node12 -->
<g id="edge12_Node000003_Node000012" class="edge">
<title>Node3&#45;&gt;Node12</title>
<g id="a_edge12_Node000003_Node000012"><a xlink:title=" ">
<path fill="none" stroke="#63b8ff" d="M265.88,-208.81C269.64,-206.31 273.09,-203.39 276,-200 323.76,-144.36 261.99,-92.62 312,-39 312.9,-38.04 313.83,-37.12 314.79,-36.23"/>
<polygon fill="#63b8ff" stroke="#63b8ff" points="316.95,-38.99 322.77,-30.13 312.7,-33.43 316.95,-38.99"/>
</a>
</g>
</g>
<!-- Node13 -->
<g id="Node000013" class="node">
<title>Node13</title>
<g id="a_Node000013"><a xlink:href="classwmtk_1_1attribute_1_1_index_flag_accessor.html#a195252af3f6230f09f0c1379cbec7240" target="_top" xlink:title=" ">
<polygon fill="white" stroke="#666666" points="466.5,-260 320.5,-260 320.5,-230 466.5,-230 466.5,-260"/>
<text text-anchor="start" x="328.5" y="-248" font-family="Helvetica,sans-Serif" font-size="10.00">wmtk::attribute::IndexFlag</text>
<text text-anchor="middle" x="393.5" y="-237" font-family="Helvetica,sans-Serif" font-size="10.00">Accessor::is_active</text>
</a>
</g>
</g>
<!-- Node3&#45;&gt;Node13 -->
<g id="edge13_Node000003_Node000013" class="edge">
<title>Node3&#45;&gt;Node13</title>
<g id="a_edge13_Node000003_Node000013"><a xlink:title=" ">
<path fill="none" stroke="#63b8ff" d="M271.31,-230.7C283.71,-232.17 297.08,-233.74 310.25,-235.3"/>
<polygon fill="#63b8ff" stroke="#63b8ff" points="309.93,-238.78 320.27,-236.48 310.75,-231.83 309.93,-238.78"/>
</a>
</g>
</g>
<!-- Node3&#45;&gt;Node17 -->
<g id="edge18_Node000003_Node000017" class="edge">
<title>Node3&#45;&gt;Node17</title>
<g id="a_edge18_Node000003_Node000017"><a xlink:title=" ">
<path fill="none" stroke="#63b8ff" d="M229.38,-239.02C247.45,-256.46 279.54,-285.01 312,-302 321.69,-307.07 332.62,-311.24 343.23,-314.58"/>
<polygon fill="#63b8ff" stroke="#63b8ff" points="342.25,-317.94 352.83,-317.43 344.24,-311.23 342.25,-317.94"/>
</a>
</g>
</g>
<!-- Node6 -->
<g id="Node000006" class="node">
<title>Node6</title>
<g id="a_Node000006"><a xlink:href="namespacewmtk.html#a5cf45c152e856196bb734c6f48919a24" target="_top" xlink:title="Get a unique integer id corresponding to each primitive type.">
<polygon fill="white" stroke="#666666" points="824,-169 708,-169 708,-139 824,-139 824,-169"/>
<text text-anchor="start" x="716" y="-157" font-family="Helvetica,sans-Serif" font-size="10.00">wmtk::get_primitive</text>
<text text-anchor="middle" x="766" y="-146" font-family="Helvetica,sans-Serif" font-size="10.00">_type_id</text>
</a>
</g>
</g>
<!-- Node5&#45;&gt;Node6 -->
<g id="edge5_Node000005_Node000006" class="edge">
<title>Node5&#45;&gt;Node6</title>
<g id="a_edge5_Node000005_Node000006"><a xlink:title=" ">
<path fill="none" stroke="#63b8ff" d="M646.19,-154C662.73,-154 680.73,-154 697.59,-154"/>
<polygon fill="#63b8ff" stroke="#63b8ff" points="697.92,-157.5 707.92,-154 697.92,-150.5 697.92,-157.5"/>
</a>
</g>
</g>
<!-- Node10 -->
<g id="Node000010" class="node">
<title>Node10</title>
<g id="a_Node000010"><a xlink:href="classwmtk_1_1_mesh.html#acfa981b31f00aef4438ff5e73bbce2f4" target="_top" xlink:title=" ">
<polygon fill="white" stroke="#666666" points="649,-126 519,-126 519,-96 649,-96 649,-126"/>
<text text-anchor="start" x="527" y="-114" font-family="Helvetica,sans-Serif" font-size="10.00">wmtk::Mesh::get_const</text>
<text text-anchor="middle" x="584" y="-103" font-family="Helvetica,sans-Serif" font-size="10.00">_flag_accessor</text>
</a>
</g>
</g>
<!-- Node9&#45;&gt;Node10 -->
<g id="edge9_Node000009_Node000010" class="edge">
<title>Node9&#45;&gt;Node10</title>
<g id="a_edge9_Node000009_Node000010"><a xlink:title=" ">
<path fill="none" stroke="#63b8ff" d="M453.63,-143.94C472.84,-139.05 494.32,-133.58 514.18,-128.52"/>
<polygon fill="#63b8ff" stroke="#63b8ff" points="515.26,-131.86 524.08,-126 513.53,-125.08 515.26,-131.86"/>
</a>
</g>
</g>
<!-- Node10&#45;&gt;Node6 -->
<g id="edge11_Node000010_Node000006" class="edge">
<title>Node10&#45;&gt;Node6</title>
<g id="a_edge11_Node000010_Node000006"><a xlink:title=" ">
<path fill="none" stroke="#63b8ff" d="M647.96,-126.04C664.07,-129.89 681.47,-134.05 697.79,-137.95"/>
<polygon fill="#63b8ff" stroke="#63b8ff" points="697.26,-141.42 707.8,-140.34 698.89,-134.61 697.26,-141.42"/>
</a>
</g>
</g>
<!-- Node11 -->
<g id="Node000011" class="node">
<title>Node11</title>
<g id="a_Node000011"><a xlink:href="classwmtk_1_1_mesh.html#a4cd7e6ca59d8d58cc7057c13bd190d57" target="_top" xlink:title=" ">
<polygon fill="white" stroke="#666666" points="822.5,-121 709.5,-121 709.5,-91 822.5,-91 822.5,-121"/>
<text text-anchor="start" x="717.5" y="-109" font-family="Helvetica,sans-Serif" font-size="10.00">wmtk::Mesh::create</text>
<text text-anchor="middle" x="766" y="-98" font-family="Helvetica,sans-Serif" font-size="10.00">_const_accessor</text>
</a>
</g>
</g>
<!-- Node10&#45;&gt;Node11 -->
<g id="edge10_Node000010_Node000011" class="edge">
<title>Node10&#45;&gt;Node11</title>
<g id="a_edge10_Node000010_Node000011"><a xlink:title=" ">
<path fill="none" stroke="#63b8ff" d="M649.22,-109.22C665.53,-108.76 683.06,-108.28 699.43,-107.82"/>
<polygon fill="#63b8ff" stroke="#63b8ff" points="699.55,-111.32 709.45,-107.54 699.36,-104.32 699.55,-111.32"/>
</a>
</g>
</g>
<!-- Node14 -->
<g id="Node000014" class="node">
<title>Node14</title>
<g id="a_Node000014"><a xlink:href="classwmtk_1_1attribute_1_1_index_flag_accessor.html#a08ce19b077654f9e384d8c3fffcbbd0b" target="_top" xlink:title=" ">
<polygon fill="white" stroke="#666666" points="657,-212 511,-212 511,-182 657,-182 657,-212"/>
<text text-anchor="start" x="519" y="-200" font-family="Helvetica,sans-Serif" font-size="10.00">wmtk::attribute::IndexFlag</text>
<text text-anchor="middle" x="584" y="-189" font-family="Helvetica,sans-Serif" font-size="10.00">Accessor::_is_active</text>
</a>
</g>
</g>
<!-- Node13&#45;&gt;Node14 -->
<g id="edge14_Node000013_Node000014" class="edge">
<title>Node13&#45;&gt;Node14</title>
<g id="a_edge14_Node000013_Node000014"><a xlink:title=" ">
<path fill="none" stroke="#63b8ff" d="M453.63,-229.94C472.84,-225.05 494.32,-219.58 514.18,-214.52"/>
<polygon fill="#63b8ff" stroke="#63b8ff" points="515.26,-217.86 524.08,-212 513.53,-211.08 515.26,-217.86"/>
</a>
</g>
</g>
<!-- Node15 -->
<g id="Node000015" class="node">
<title>Node15</title>
<g id="a_Node000015"><a xlink:href="classwmtk_1_1attribute_1_1_index_flag_accessor.html#a209b3c34d677a60d321806e30da8d287" target="_top" xlink:title=" ">
<polygon fill="white" stroke="#666666" points="657,-260 511,-260 511,-230 657,-230 657,-260"/>
<text text-anchor="start" x="519" y="-248" font-family="Helvetica,sans-Serif" font-size="10.00">wmtk::attribute::IndexFlag</text>
<text text-anchor="middle" x="584" y="-237" font-family="Helvetica,sans-Serif" font-size="10.00">Accessor::attribute</text>
</a>
</g>
</g>
<!-- Node13&#45;&gt;Node15 -->
<g id="edge15_Node000013_Node000015" class="edge">
<title>Node13&#45;&gt;Node15</title>
<g id="a_edge15_Node000013_Node000015"><a xlink:title=" ">
<path fill="none" stroke="#63b8ff" d="M466.57,-245C477.71,-245 489.29,-245 500.64,-245"/>
<polygon fill="#63b8ff" stroke="#63b8ff" points="500.97,-248.5 510.97,-245 500.97,-241.5 500.97,-248.5"/>
</a>
</g>
</g>
<!-- Node15&#45;&gt;Node4 -->
<g id="edge16_Node000015_Node000004" class="edge">
<title>Node15&#45;&gt;Node4</title>
<g id="a_edge16_Node000015_Node000004"><a xlink:title=" ">
<path fill="none" stroke="#63b8ff" d="M647.96,-260.04C662.21,-263.44 677.45,-267.09 692.08,-270.58"/>
<polygon fill="#63b8ff" stroke="#63b8ff" points="691.54,-274.05 702.08,-272.97 693.17,-267.24 691.54,-274.05"/>
</a>
</g>
</g>
<!-- Node16 -->
<g id="Node000016" class="node">
<title>Node16</title>
<g id="a_Node000016"><a xlink:href="classwmtk_1_1attribute_1_1_index_flag_accessor.html#a37e882007dc57e3571c18163a709a246" target="_top" xlink:title=" ">
<polygon fill="white" stroke="#666666" points="839,-255 693,-255 693,-225 839,-225 839,-255"/>
<text text-anchor="start" x="701" y="-243" font-family="Helvetica,sans-Serif" font-size="10.00">wmtk::attribute::IndexFlag</text>
<text text-anchor="middle" x="766" y="-232" font-family="Helvetica,sans-Serif" font-size="10.00">Accessor::base_accessor</text>
</a>
</g>
</g>
<!-- Node15&#45;&gt;Node16 -->
<g id="edge17_Node000015_Node000016" class="edge">
<title>Node15&#45;&gt;Node16</title>
<g id="a_edge17_Node000015_Node000016"><a xlink:title=" ">
<path fill="none" stroke="#63b8ff" d="M657.18,-243C665.52,-242.76 674.08,-242.53 682.54,-242.29"/>
<polygon fill="#63b8ff" stroke="#63b8ff" points="682.91,-245.78 692.81,-242.01 682.71,-238.78 682.91,-245.78"/>
</a>
</g>
</g>
<!-- Node18 -->
<g id="Node000018" class="node">
<title>Node18</title>
<g id="a_Node000018"><a xlink:href="namespacewmtk.html#a3daa7951a5f8b78cf4600dc047fcc180" target="_top" xlink:title="Setup a logger object to be used by WildmeshToolkit.">
<polygon fill="white" stroke="#666666" points="634.5,-335.5 533.5,-335.5 533.5,-316.5 634.5,-316.5 634.5,-335.5"/>
<text text-anchor="middle" x="584" y="-323.5" font-family="Helvetica,sans-Serif" font-size="10.00">wmtk::set_logger</text>
</a>
</g>
</g>
<!-- Node17&#45;&gt;Node18 -->
<g id="edge19_Node000017_Node000018" class="edge">
<title>Node17&#45;&gt;Node18</title>
<g id="a_edge19_Node000017_Node000018"><a xlink:title=" ">
<path fill="none" stroke="#63b8ff" d="M434.02,-326C459.9,-326 494.2,-326 523.37,-326"/>
<polygon fill="#63b8ff" stroke="#63b8ff" points="523.45,-329.5 533.45,-326 523.45,-322.5 523.45,-329.5"/>
</a>
</g>
</g>
<!-- Node19&#45;&gt;Node17 -->
<g id="edge25_Node000019_Node000017" class="edge">
<title>Node19&#45;&gt;Node17</title>
<g id="a_edge25_Node000019_Node000017"><a xlink:title=" ">
<path fill="none" stroke="#63b8ff" d="M260.34,-353.47C285.62,-348.22 317.03,-341.69 342.89,-336.31"/>
<polygon fill="#63b8ff" stroke="#63b8ff" points="343.78,-339.7 352.86,-334.24 342.36,-332.85 343.78,-339.7"/>
</a>
</g>
</g>
<!-- Node20 -->
<g id="Node000020" class="node">
<title>Node20</title>
<g id="a_Node000020"><a xlink:href="classwmtk_1_1_tuple.html#a0023f575be92cd5ceeeaaaa3762ea06d" target="_top" xlink:title="Checks if a tuple is &quot;null&quot;. This merely implies the global index is &#45;1.">
<polygon fill="white" stroke="#666666" points="450,-372.5 337,-372.5 337,-353.5 450,-353.5 450,-372.5"/>
<text text-anchor="middle" x="393.5" y="-360.5" font-family="Helvetica,sans-Serif" font-size="10.00">wmtk::Tuple::is_null</text>
</a>
</g>
</g>
<!-- Node19&#45;&gt;Node20 -->
<g id="edge21_Node000019_Node000020" class="edge">
<title>Node19&#45;&gt;Node20</title>
<g id="a_edge21_Node000019_Node000020"><a xlink:title=" ">
<path fill="none" stroke="#63b8ff" d="M273.77,-363C290.76,-363 309.39,-363 326.75,-363"/>
<polygon fill="#63b8ff" stroke="#63b8ff" points="326.8,-366.5 336.8,-363 326.8,-359.5 326.8,-366.5"/>
</a>
</g>
</g>
<!-- Node21 -->
<g id="Node000021" class="node">
<title>Node21</title>
<g id="a_Node000021"><a xlink:href="classwmtk_1_1_mesh.html#ade176d345902d97af8c5da04aa3a095b" target="_top" xlink:title=" ">
<polygon fill="white" stroke="#666666" points="463.5,-409.5 323.5,-409.5 323.5,-390.5 463.5,-390.5 463.5,-409.5"/>
<text text-anchor="middle" x="393.5" y="-397.5" font-family="Helvetica,sans-Serif" font-size="10.00">wmtk::Mesh::is_removed</text>
</a>
</g>
</g>
<!-- Node19&#45;&gt;Node21 -->
<g id="edge22_Node000019_Node000021" class="edge">
<title>Node19&#45;&gt;Node21</title>
<g id="a_edge22_Node000019_Node000021"><a xlink:title=" ">
<path fill="none" stroke="#63b8ff" d="M260.34,-372.53C283.61,-377.36 312.07,-383.28 336.61,-388.38"/>
<polygon fill="#63b8ff" stroke="#63b8ff" points="336,-391.83 346.51,-390.44 337.43,-384.98 336,-391.83"/>
</a>
</g>
</g>
<!-- Node21&#45;&gt;Node2 -->
<g id="edge23_Node000021_Node000002" class="edge">
<title>Node21&#45;&gt;Node2</title>
<g id="a_edge23_Node000021_Node000002"><a xlink:title=" ">
<path fill="none" stroke="#63b8ff" d="M458.58,-409.52C474.67,-411.91 492.06,-414.49 508.61,-416.95"/>
<polygon fill="#63b8ff" stroke="#63b8ff" points="508.37,-420.45 518.78,-418.46 509.4,-413.53 508.37,-420.45"/>
</a>
</g>
</g>
<!-- Node21&#45;&gt;Node21 -->
<g id="edge24_Node000021_Node000021" class="edge">
<title>Node21&#45;&gt;Node21</title>
<g id="a_edge24_Node000021_Node000021"><a xlink:title=" ">
<path fill="none" stroke="#63b8ff" d="M365.76,-409.58C352.26,-418.23 361.51,-427.5 393.5,-427.5 414.99,-427.5 426.22,-423.32 427.18,-417.95"/>
<polygon fill="#63b8ff" stroke="#63b8ff" points="429.89,-415.71 421.24,-409.58 424.18,-419.76 429.89,-415.71"/>
</a>
</g>
</g>
</g>
</svg>
