<?xml version="1.0" encoding="UTF-8" standalone="no"?>
<!DOCTYPE svg PUBLIC "-//W3C//DTD SVG 1.1//EN"
 "http://www.w3.org/Graphics/SVG/1.1/DTD/svg11.dtd">
<!-- Generated by graphviz version 2.43.0 (0)
 -->
<!-- Title: wmtk::multimesh::MultiMeshManager::mapped_tuples Pages: 1 -->
<!--zoomable 774 -->

<svg id="main" version="1.1" xmlns="http://www.w3.org/2000/svg" xmlns:xlink="http://www.w3.org/1999/xlink" xml:space="preserve" onload="init(evt)">
<style type="text/css"><![CDATA[
.node, .edge {opacity: 0.7;}
.node.selected, .edge.selected {opacity: 1;}
.edge:hover path { stroke: red; }
.edge:hover polygon { stroke: red; fill: red; }
]]></style>

<defs>
  <circle id="rim" cx="0" cy="0" r="7"/>
  <circle id="rim2" cx="0" cy="0" r="3.5"/>
  <g id="zoomPlus">
    <use xlink:href="#rim" fill="#404040"><set attributeName="fill" to="#808080" begin="zoomplus.mouseover" end="zoomplus.mouseout"/></use>
    <path d="M-4,0h8M0,-4v8" fill="none" stroke="white" stroke-width="1.5" pointer-events="none"/>
  </g>
  <g id="zoomMin">
    <use xlink:href="#rim" fill="#404040"><set attributeName="fill" to="#808080" begin="zoomminus.mouseover" end="zoomminus.mouseout"/></use>
    <path d="M-4,0h8" fill="none" stroke="white" stroke-width="1.5" pointer-events="none"/>
  </g>
  <g id="arrowUp" transform="translate(30 24)">
    <use xlink:href="#rim"/>
    <path pointer-events="none" fill="none" stroke="white" stroke-width="1.5" d="M0,-3.0v7 M-2.5,-0.5L0,-3.0L2.5,-0.5"/>
  </g>
  <g id="arrowRight" transform="rotate(90) translate(36 -43)">
    <use xlink:href="#rim"/>
    <path pointer-events="none" fill="none" stroke="white" stroke-width="1.5" d="M0,-3.0v7 M-2.5,-0.5L0,-3.0L2.5,-0.5"/>
  </g>
  <g id="arrowDown" transform="rotate(180) translate(-30 -48)">
    <use xlink:href="#rim"/>
    <path pointer-events="none" fill="none" stroke="white" stroke-width="1.5" d="M0,-3.0v7 M-2.5,-0.5L0,-3.0L2.5,-0.5"/>
  </g>
  <g id="arrowLeft" transform="rotate(270) translate(-36 17)">
    <use xlink:href="#rim"/>
    <path pointer-events="none" fill="none" stroke="white" stroke-width="1.5" d="M0,-3.0v7 M-2.5,-0.5L0,-3.0L2.5,-0.5"/>
  </g>
  <g id="resetDef">
    <use xlink:href="#rim2" fill="#404040"><set attributeName="fill" to="#808080" begin="reset.mouseover" end="reset.mouseout"/></use>
  </g>
</defs>
<script type="application/ecmascript">
var viewWidth = 1599;
var viewHeight = 774;
var sectionId = 'dynsection-77';
</script>
<script type="application/ecmascript" xlink:href="svg.min.js"/>
<svg id="graph" class="graph">
<g id="viewport">
<title>wmtk::multimesh::MultiMeshManager::mapped_tuples</title>
<!-- Node1 -->
<g id="Node000001" class="node">
<title>Node1</title>
<g id="a_Node000001"><a xlink:title=" ">
<polygon fill="#999999" stroke="#666666" points="160,-413 0,-413 0,-383 160,-383 160,-413"/>
<text text-anchor="start" x="8" y="-401" font-family="Helvetica,sans-Serif" font-size="10.00">wmtk::multimesh::MultiMesh</text>
<text text-anchor="middle" x="80" y="-390" font-family="Helvetica,sans-Serif" font-size="10.00">Manager::mapped_tuples</text>
</a>
</g>
</g>
<!-- Node2 -->
<g id="Node000002" class="node">
<title>Node2</title>
<g id="a_Node000002"><a xlink:href="classwmtk_1_1dart_1_1_simplex_dart.html#a3949350f736cbf567bf566fd7565e6e8" target="_top" xlink:title=" ">
<polygon fill="white" stroke="#666666" points="1128,-412 991,-412 991,-382 1128,-382 1128,-412"/>
<text text-anchor="start" x="999" y="-400" font-family="Helvetica,sans-Serif" font-size="10.00">wmtk::dart::SimplexDart</text>
<text text-anchor="middle" x="1059.5" y="-389" font-family="Helvetica,sans-Serif" font-size="10.00">::get_singleton</text>
</a>
</g>
</g>
<!-- Node1&#45;&gt;Node2 -->
<g id="edge1_Node000001_Node000002" class="edge">
<title>Node1&#45;&gt;Node2</title>
<g id="a_edge1_Node000001_Node000002"><a xlink:title=" ">
<path fill="none" stroke="#63b8ff" d="M160.37,-405.02C240.08,-411.46 366.45,-420 476,-420 476,-420 476,-420 670,-420 777.83,-420 902.19,-411.06 980.57,-404.33"/>
<polygon fill="#63b8ff" stroke="#63b8ff" points="981.19,-407.79 990.85,-403.44 980.58,-400.82 981.19,-407.79"/>
</a>
</g>
</g>
<!-- Node4 -->
<g id="Node000004" class="node">
<title>Node4</title>
<g id="a_Node000004"><a xlink:href="classwmtk_1_1multimesh_1_1_multi_mesh_manager.html#a4af36827e5ee7bb5832a8d248b85bc2c" target="_top" xlink:title=" ">
<polygon fill="white" stroke="#666666" points="356,-392 196,-392 196,-362 356,-362 356,-392"/>
<text text-anchor="start" x="204" y="-380" font-family="Helvetica,sans-Serif" font-size="10.00">wmtk::multimesh::MultiMesh</text>
<text text-anchor="middle" x="276" y="-369" font-family="Helvetica,sans-Serif" font-size="10.00">Manager::mapped_darts</text>
</a>
</g>
</g>
<!-- Node1&#45;&gt;Node4 -->
<g id="edge3_Node000001_Node000004" class="edge">
<title>Node1&#45;&gt;Node4</title>
<g id="a_edge3_Node000001_Node000004"><a xlink:title=" ">
<path fill="none" stroke="#63b8ff" d="M160.19,-389.43C168.62,-388.52 177.24,-387.58 185.78,-386.66"/>
<polygon fill="#63b8ff" stroke="#63b8ff" points="186.19,-390.13 195.75,-385.58 185.43,-383.18 186.19,-390.13"/>
</a>
</g>
</g>
<!-- Node22 -->
<g id="Node000022" class="node">
<title>Node22</title>
<g id="a_Node000022"><a xlink:href="classwmtk_1_1_mesh.html#abaf00438d0700358b160e310d69725c9" target="_top" xlink:title=" ">
<polygon fill="white" stroke="#666666" points="562,-29.5 392,-29.5 392,-10.5 562,-10.5 562,-29.5"/>
<text text-anchor="middle" x="477" y="-17.5" font-family="Helvetica,sans-Serif" font-size="10.00">wmtk::Mesh::top_simplex_type</text>
</a>
</g>
</g>
<!-- Node1&#45;&gt;Node22 -->
<g id="edge42_Node000001_Node000022" class="edge">
<title>Node1&#45;&gt;Node22</title>
<g id="a_edge42_Node000001_Node000022"><a xlink:title=" ">
<path fill="none" stroke="#63b8ff" d="M89.78,-382.84C122.28,-328.15 241.64,-139.14 392,-44 399.09,-39.51 407.05,-35.84 415.15,-32.85"/>
<polygon fill="#63b8ff" stroke="#63b8ff" points="416.34,-36.14 424.7,-29.63 414.11,-29.51 416.34,-36.14"/>
</a>
</g>
</g>
<!-- Node24 -->
<g id="Node000024" class="node">
<title>Node24</title>
<g id="a_Node000024"><a xlink:href="classwmtk_1_1dart_1_1_simplex_dart.html#a00e0cc038708281bcb75a6a6d5e6aaff" target="_top" xlink:title=" ">
<polygon fill="white" stroke="#666666" points="925,-594 788,-594 788,-564 925,-564 925,-594"/>
<text text-anchor="start" x="796" y="-582" font-family="Helvetica,sans-Serif" font-size="10.00">wmtk::dart::SimplexDart</text>
<text text-anchor="middle" x="856.5" y="-571" font-family="Helvetica,sans-Serif" font-size="10.00">::tuple_from_dart</text>
</a>
</g>
</g>
<!-- Node1&#45;&gt;Node24 -->
<g id="edge43_Node000001_Node000024" class="edge">
<title>Node1&#45;&gt;Node24</title>
<g id="a_edge43_Node000001_Node000024"><a xlink:title=" ">
<path fill="none" stroke="#63b8ff" d="M103.94,-413.19C153.83,-445.29 276.96,-519.58 392,-550 524.04,-584.92 684.29,-586.32 777.59,-583.28"/>
<polygon fill="#63b8ff" stroke="#63b8ff" points="777.93,-586.77 787.8,-582.92 777.68,-579.77 777.93,-586.77"/>
</a>
</g>
</g>
<!-- Node3 -->
<g id="Node000003" class="node">
<title>Node3</title>
<g id="a_Node000003"><a xlink:href="classwmtk_1_1dart_1_1_simplex_dart.html#a75defb2c9d167b36c7fc73cd7d5bba60" target="_top" xlink:title=" ">
<polygon fill="white" stroke="#666666" points="1334,-288 1197,-288 1197,-258 1334,-258 1334,-288"/>
<text text-anchor="start" x="1205" y="-276" font-family="Helvetica,sans-Serif" font-size="10.00">wmtk::dart::SimplexDart</text>
<text text-anchor="middle" x="1265.5" y="-265" font-family="Helvetica,sans-Serif" font-size="10.00">::simplex_type</text>
</a>
</g>
</g>
<!-- Node2&#45;&gt;Node3 -->
<g id="edge2_Node000002_Node000003" class="edge">
<title>Node2&#45;&gt;Node3</title>
<g id="a_edge2_Node000002_Node000003"><a xlink:title=" ">
<path fill="none" stroke="#63b8ff" d="M1083.44,-381.95C1101.13,-369.98 1125.89,-352.4 1146,-335 1163.35,-319.99 1162.4,-309.93 1182,-298 1185.43,-295.92 1189.04,-293.99 1192.76,-292.22"/>
<polygon fill="#63b8ff" stroke="#63b8ff" points="1194.42,-295.32 1202.2,-288.13 1191.63,-288.9 1194.42,-295.32"/>
</a>
</g>
</g>
<!-- Node4&#45;&gt;Node2 -->
<g id="edge34_Node000004_Node000002" class="edge">
<title>Node4&#45;&gt;Node2</title>
<g id="a_edge34_Node000004_Node000002"><a xlink:title=" ">
<path fill="none" stroke="#63b8ff" d="M356.24,-379.03C506.49,-382.87 831.13,-391.18 980.46,-395"/>
<polygon fill="#63b8ff" stroke="#63b8ff" points="980.81,-398.51 990.9,-395.27 980.99,-391.52 980.81,-398.51"/>
</a>
</g>
</g>
<!-- Node5 -->
<g id="Node000005" class="node">
<title>Node5</title>
<g id="a_Node000005"><a xlink:href="namespacewmtk_1_1dart_1_1utils.html#a38d4e769a52b66206b96a5bd6c76616c" target="_top" xlink:title=" ">
<polygon fill="white" stroke="#666666" points="548,-267 406,-267 406,-237 548,-237 548,-267"/>
<text text-anchor="start" x="414" y="-255" font-family="Helvetica,sans-Serif" font-size="10.00">wmtk::dart::utils::</text>
<text text-anchor="middle" x="477" y="-244" font-family="Helvetica,sans-Serif" font-size="10.00">apply_simplex_involution</text>
</a>
</g>
</g>
<!-- Node4&#45;&gt;Node5 -->
<g id="edge4_Node000004_Node000005" class="edge">
<title>Node4&#45;&gt;Node5</title>
<g id="a_edge4_Node000004_Node000005"><a xlink:title=" ">
<path fill="none" stroke="#63b8ff" d="M300.74,-361.82C323.96,-347 360.34,-323.85 392,-304 408.64,-293.57 427.21,-282.06 442.64,-272.53"/>
<polygon fill="#63b8ff" stroke="#63b8ff" points="444.66,-275.4 451.33,-267.17 440.98,-269.44 444.66,-275.4"/>
</a>
</g>
</g>
<!-- Node10 -->
<g id="Node000010" class="node">
<title>Node10</title>
<g id="a_Node000010"><a xlink:href="classwmtk_1_1dart_1_1_simplex_dart.html#a41f78914333ef35a88337d6ccf53b492" target="_top" xlink:title=" ">
<polygon fill="white" stroke="#666666" points="1334,-144 1197,-144 1197,-114 1334,-114 1334,-144"/>
<text text-anchor="start" x="1205" y="-132" font-family="Helvetica,sans-Serif" font-size="10.00">wmtk::dart::SimplexDart</text>
<text text-anchor="middle" x="1265.5" y="-121" font-family="Helvetica,sans-Serif" font-size="10.00">::identity</text>
</a>
</g>
</g>
<!-- Node4&#45;&gt;Node10 -->
<g id="edge36_Node000004_Node000010" class="edge">
<title>Node4&#45;&gt;Node10</title>
<g id="a_edge36_Node000004_Node000010"><a xlink:title=" ">
<path fill="none" stroke="#63b8ff" d="M285.57,-361.61C322.3,-297.89 473.51,-58 668,-58 668,-58 668,-58 857.5,-58 981.31,-58 1123.2,-90.28 1202.5,-111.31"/>
<polygon fill="#63b8ff" stroke="#63b8ff" points="1201.76,-114.73 1212.32,-113.94 1203.57,-107.97 1201.76,-114.73"/>
</a>
</g>
</g>
<!-- Node15 -->
<g id="Node000015" class="node">
<title>Node15</title>
<g id="a_Node000015"><a xlink:href="classwmtk_1_1dart_1_1___dart.html#ac92923bc94a0aace84b2cf69f277f63a" target="_top" xlink:title=" ">
<polygon fill="white" stroke="#666666" points="1542,-484 1434,-484 1434,-454 1542,-454 1542,-484"/>
<text text-anchor="start" x="1442" y="-472" font-family="Helvetica,sans-Serif" font-size="10.00">wmtk::dart::_Dart::</text>
<text text-anchor="middle" x="1488" y="-461" font-family="Helvetica,sans-Serif" font-size="10.00">global_id</text>
</a>
</g>
</g>
<!-- Node4&#45;&gt;Node15 -->
<g id="edge35_Node000004_Node000015" class="edge">
<title>Node4&#45;&gt;Node15</title>
<g id="a_edge35_Node000004_Node000015"><a xlink:title=" ">
<path fill="none" stroke="#63b8ff" d="M356.06,-390.95C368.08,-392.81 380.35,-394.57 392,-396 782.37,-443.92 1255.17,-462.02 1423.64,-467.24"/>
<polygon fill="#63b8ff" stroke="#63b8ff" points="1423.71,-470.74 1433.82,-467.55 1423.93,-463.75 1423.71,-470.74"/>
</a>
</g>
</g>
<!-- Node16 -->
<g id="Node000016" class="node">
<title>Node16</title>
<g id="a_Node000016"><a xlink:href="classwmtk_1_1dart_1_1___dart.html#aa34a01df7b33bec483a0da0158a1aca4" target="_top" xlink:title=" ">
<polygon fill="white" stroke="#666666" points="1542,-551 1434,-551 1434,-521 1542,-521 1542,-551"/>
<text text-anchor="start" x="1442" y="-539" font-family="Helvetica,sans-Serif" font-size="10.00">wmtk::dart::_Dart::</text>
<text text-anchor="middle" x="1488" y="-528" font-family="Helvetica,sans-Serif" font-size="10.00">permutation</text>
</a>
</g>
</g>
<!-- Node4&#45;&gt;Node16 -->
<g id="edge39_Node000004_Node000016" class="edge">
<title>Node4&#45;&gt;Node16</title>
<g id="a_edge39_Node000004_Node000016"><a xlink:title=" ">
<path fill="none" stroke="#63b8ff" d="M291.05,-392.31C320.31,-424.13 385.62,-494.73 392,-498 502.18,-554.5 544.18,-536 668,-536 668,-536 668,-536 1060.5,-536 1189.51,-536 1340.47,-536 1423.75,-536"/>
<polygon fill="#63b8ff" stroke="#63b8ff" points="1423.81,-539.5 1433.81,-536 1423.81,-532.5 1423.81,-539.5"/>
</a>
</g>
</g>
<!-- Node20 -->
<g id="Node000020" class="node">
<title>Node20</title>
<g id="a_Node000020"><a xlink:href="classwmtk_1_1multimesh_1_1_multi_mesh_manager.html#a619b19c10f9690562e3dea05591c8836" target="_top" xlink:title=" ">
<polygon fill="white" stroke="#666666" points="557,-353.5 397,-353.5 397,-312.5 557,-312.5 557,-353.5"/>
<text text-anchor="start" x="405" y="-341.5" font-family="Helvetica,sans-Serif" font-size="10.00">wmtk::multimesh::MultiMesh</text>
<text text-anchor="start" x="405" y="-330.5" font-family="Helvetica,sans-Serif" font-size="10.00">Manager::get_map_const</text>
<text text-anchor="middle" x="477" y="-319.5" font-family="Helvetica,sans-Serif" font-size="10.00">_accessors</text>
</a>
</g>
</g>
<!-- Node4&#45;&gt;Node20 -->
<g id="edge33_Node000004_Node000020" class="edge">
<title>Node4&#45;&gt;Node20</title>
<g id="a_edge33_Node000004_Node000020"><a xlink:title=" ">
<path fill="none" stroke="#63b8ff" d="M344.93,-361.98C358.34,-359.02 372.6,-355.86 386.59,-352.77"/>
<polygon fill="#63b8ff" stroke="#63b8ff" points="387.71,-356.11 396.72,-350.53 386.2,-349.27 387.71,-356.11"/>
</a>
</g>
</g>
<!-- Node21 -->
<g id="Node000021" class="node">
<title>Node21</title>
<g id="a_Node000021"><a xlink:href="classwmtk_1_1dart_1_1___dart.html#ae8b8b6cb44a149bdd5b106e1302b062d" target="_top" xlink:title=" ">
<polygon fill="white" stroke="#666666" points="1113.5,-508 1005.5,-508 1005.5,-478 1113.5,-478 1113.5,-508"/>
<text text-anchor="start" x="1013.5" y="-496" font-family="Helvetica,sans-Serif" font-size="10.00">wmtk::dart::_Dart::</text>
<text text-anchor="middle" x="1059.5" y="-485" font-family="Helvetica,sans-Serif" font-size="10.00">is_null</text>
</a>
</g>
</g>
<!-- Node4&#45;&gt;Node21 -->
<g id="edge37_Node000004_Node000021" class="edge">
<title>Node4&#45;&gt;Node21</title>
<g id="a_edge37_Node000004_Node000021"><a xlink:title=" ">
<path fill="none" stroke="#63b8ff" d="M289.22,-392.05C308.38,-414.36 347.91,-455.35 392,-472 501.08,-513.18 851.09,-502.56 995.4,-496.16"/>
<polygon fill="#63b8ff" stroke="#63b8ff" points="995.59,-499.65 1005.42,-495.71 995.28,-492.66 995.59,-499.65"/>
</a>
</g>
</g>
<!-- Node4&#45;&gt;Node22 -->
<g id="edge40_Node000004_Node000022" class="edge">
<title>Node4&#45;&gt;Node22</title>
<g id="a_edge40_Node000004_Node000022"><a xlink:title=" ">
<path fill="none" stroke="#63b8ff" d="M284.41,-361.89C299.52,-330.62 334.31,-256.25 356,-191 377.22,-127.17 345.35,-92.46 392,-44 395.65,-40.2 399.86,-37 404.41,-34.29"/>
<polygon fill="#63b8ff" stroke="#63b8ff" points="406.17,-37.32 413.51,-29.67 403.01,-31.07 406.17,-37.32"/>
</a>
</g>
</g>
<!-- Node5&#45;&gt;Node2 -->
<g id="edge31_Node000005_Node000002" class="edge">
<title>Node5&#45;&gt;Node2</title>
<g id="a_edge31_Node000005_Node000002"><a xlink:title=" ">
<path fill="none" stroke="#63b8ff" d="M538.21,-267.04C646.43,-294.07 873.24,-350.72 988.32,-379.47"/>
<polygon fill="#63b8ff" stroke="#63b8ff" points="987.54,-382.88 998.09,-381.91 989.23,-376.09 987.54,-382.88"/>
</a>
</g>
</g>
<!-- Node6 -->
<g id="Node000006" class="node">
<title>Node6</title>
<g id="a_Node000006"><a xlink:href="namespacewmtk_1_1dart_1_1utils.html#adf4bec80fa2f0838078a389a615803f3" target="_top" xlink:title=" ">
<polygon fill="white" stroke="#666666" points="740,-245.5 598,-245.5 598,-204.5 740,-204.5 740,-245.5"/>
<text text-anchor="start" x="606" y="-233.5" font-family="Helvetica,sans-Serif" font-size="10.00">wmtk::dart::utils::</text>
<text text-anchor="start" x="606" y="-222.5" font-family="Helvetica,sans-Serif" font-size="10.00">apply_simplex_involution</text>
<text text-anchor="middle" x="669" y="-211.5" font-family="Helvetica,sans-Serif" font-size="10.00">_directed</text>
</a>
</g>
</g>
<!-- Node5&#45;&gt;Node6 -->
<g id="edge5_Node000005_Node000006" class="edge">
<title>Node5&#45;&gt;Node6</title>
<g id="a_edge5_Node000005_Node000006"><a xlink:title=" ">
<path fill="none" stroke="#63b8ff" d="M548.21,-242.02C561.1,-240.19 574.64,-238.27 587.8,-236.4"/>
<polygon fill="#63b8ff" stroke="#63b8ff" points="588.35,-239.85 597.76,-234.98 587.37,-232.92 588.35,-239.85"/>
</a>
</g>
</g>
<!-- Node19 -->
<g id="Node000019" class="node">
<title>Node19</title>
<g id="a_Node000019"><a xlink:href="classwmtk_1_1dart_1_1_simplex_dart.html#a61de0a16f65d51c565bab5abf01d25aa" target="_top" xlink:title=" ">
<polygon fill="white" stroke="#666666" points="925,-116 788,-116 788,-86 925,-86 925,-116"/>
<text text-anchor="start" x="796" y="-104" font-family="Helvetica,sans-Serif" font-size="10.00">wmtk::dart::SimplexDart</text>
<text text-anchor="middle" x="856.5" y="-93" font-family="Helvetica,sans-Serif" font-size="10.00">::product</text>
</a>
</g>
</g>
<!-- Node5&#45;&gt;Node19 -->
<g id="edge32_Node000005_Node000019" class="edge">
<title>Node5&#45;&gt;Node19</title>
<g id="a_edge32_Node000005_Node000019"><a xlink:title=" ">
<path fill="none" stroke="#63b8ff" d="M508.77,-236.8C532.83,-225.11 567.24,-208.85 598,-196 675.85,-163.47 696.81,-159.12 776,-130 785.31,-126.58 795.23,-122.94 804.81,-119.45"/>
<polygon fill="#63b8ff" stroke="#63b8ff" points="806.03,-122.73 814.22,-116.01 803.63,-116.15 806.03,-122.73"/>
</a>
</g>
</g>
<!-- Node6&#45;&gt;Node2 -->
<g id="edge12_Node000006_Node000002" class="edge">
<title>Node6&#45;&gt;Node2</title>
<g id="a_edge12_Node000006_Node000002"><a xlink:title=" ">
<path fill="none" stroke="#63b8ff" d="M703.98,-245.57C724.36,-257.32 751.09,-271.71 776,-282 845.02,-310.5 873.39,-290.9 937,-330 956.82,-342.18 953.41,-355.45 973,-368 978.76,-371.69 985.05,-374.97 991.51,-377.86"/>
<polygon fill="#63b8ff" stroke="#63b8ff" points="990.49,-381.23 1001.06,-381.84 993.17,-374.76 990.49,-381.23"/>
</a>
</g>
</g>
<!-- Node7 -->
<g id="Node000007" class="node">
<title>Node7</title>
<g id="a_Node000007"><a xlink:href="classwmtk_1_1dart_1_1_simplex_dart.html#a97c4b273ac645149eb59fbe493edf5c6" target="_top" xlink:title=" ">
<polygon fill="white" stroke="#666666" points="1128,-192 991,-192 991,-162 1128,-162 1128,-192"/>
<text text-anchor="start" x="999" y="-180" font-family="Helvetica,sans-Serif" font-size="10.00">wmtk::dart::SimplexDart</text>
<text text-anchor="middle" x="1059.5" y="-169" font-family="Helvetica,sans-Serif" font-size="10.00">::convert</text>
</a>
</g>
</g>
<!-- Node6&#45;&gt;Node7 -->
<g id="edge6_Node000006_Node000007" class="edge">
<title>Node6&#45;&gt;Node7</title>
<g id="a_edge6_Node000006_Node000007"><a xlink:title=" ">
<path fill="none" stroke="#63b8ff" d="M740.16,-207.69C752.06,-205.16 764.35,-202.81 776,-201 844.83,-190.34 923.88,-184.13 980.82,-180.71"/>
<polygon fill="#63b8ff" stroke="#63b8ff" points="981.06,-184.2 990.84,-180.12 980.65,-177.21 981.06,-184.2"/>
</a>
</g>
</g>
<!-- Node6&#45;&gt;Node10 -->
<g id="edge13_Node000006_Node000010" class="edge">
<title>Node6&#45;&gt;Node10</title>
<g id="a_edge13_Node000006_Node000010"><a xlink:title=" ">
<path fill="none" stroke="#63b8ff" d="M713.85,-204.47C732.75,-196.02 755.24,-186.47 776,-179 861.76,-148.13 882.76,-134.79 973,-122 1049.13,-111.21 1069.14,-119.73 1146,-122 1159.13,-122.39 1173.07,-123.02 1186.6,-123.74"/>
<polygon fill="#63b8ff" stroke="#63b8ff" points="1186.67,-127.25 1196.85,-124.31 1187.06,-120.26 1186.67,-127.25"/>
</a>
</g>
</g>
<!-- Node11 -->
<g id="Node000011" class="node">
<title>Node11</title>
<g id="a_Node000011"><a xlink:href="classwmtk_1_1dart_1_1_simplex_dart.html#a6923dbaad52cba2f744265012f9648ed" target="_top" xlink:title=" ">
<polygon fill="white" stroke="#666666" points="1334,-392 1197,-392 1197,-362 1334,-362 1334,-392"/>
<text text-anchor="start" x="1205" y="-380" font-family="Helvetica,sans-Serif" font-size="10.00">wmtk::dart::SimplexDart</text>
<text text-anchor="middle" x="1265.5" y="-369" font-family="Helvetica,sans-Serif" font-size="10.00">::inverse</text>
</a>
</g>
</g>
<!-- Node6&#45;&gt;Node11 -->
<g id="edge14_Node000006_Node000011" class="edge">
<title>Node6&#45;&gt;Node11</title>
<g id="a_edge14_Node000006_Node000011"><a xlink:title=" ">
<path fill="none" stroke="#63b8ff" d="M740.09,-241.08C752.06,-243.77 764.38,-246.49 776,-249 847.4,-264.4 876.23,-241.47 937,-282 960.69,-297.8 948.85,-319.91 973,-335 1007.63,-356.64 1112.54,-367.63 1186.54,-372.83"/>
<polygon fill="#63b8ff" stroke="#63b8ff" points="1186.55,-376.34 1196.76,-373.53 1187.02,-369.36 1186.55,-376.34"/>
</a>
</g>
</g>
<!-- Node12 -->
<g id="Node000012" class="node">
<title>Node12</title>
<g id="a_Node000012"><a xlink:href="namespacewmtk_1_1dart_1_1utils.html#a10c8d07172593fb9b520e7a6511ad08f" target="_top" xlink:title=" ">
<polygon fill="white" stroke="#666666" points="937,-240 776,-240 776,-210 937,-210 937,-240"/>
<text text-anchor="start" x="784" y="-228" font-family="Helvetica,sans-Serif" font-size="10.00">wmtk::dart::utils::</text>
<text text-anchor="middle" x="856.5" y="-217" font-family="Helvetica,sans-Serif" font-size="10.00">local_simplex_decomposition</text>
</a>
</g>
</g>
<!-- Node6&#45;&gt;Node12 -->
<g id="edge15_Node000006_Node000012" class="edge">
<title>Node6&#45;&gt;Node12</title>
<g id="a_edge15_Node000006_Node000012"><a xlink:title=" ">
<path fill="none" stroke="#63b8ff" d="M740.13,-225C748.54,-225 757.21,-225 765.84,-225"/>
<polygon fill="#63b8ff" stroke="#63b8ff" points="765.94,-228.5 775.94,-225 765.94,-221.5 765.94,-228.5"/>
</a>
</g>
</g>
<!-- Node6&#45;&gt;Node19 -->
<g id="edge30_Node000006_Node000019" class="edge">
<title>Node6&#45;&gt;Node19</title>
<g id="a_edge30_Node000006_Node000019"><a xlink:title=" ">
<path fill="none" stroke="#63b8ff" d="M688.49,-204.31C708.34,-183.16 741.67,-150.59 776,-130 782.15,-126.31 788.85,-122.98 795.65,-119.99"/>
<polygon fill="#63b8ff" stroke="#63b8ff" points="797.06,-123.2 804.97,-116.14 794.39,-116.73 797.06,-123.2"/>
</a>
</g>
</g>
<!-- Node7&#45;&gt;Node3 -->
<g id="edge11_Node000007_Node000003" class="edge">
<title>Node7&#45;&gt;Node3</title>
<g id="a_edge11_Node000007_Node000003"><a xlink:title=" ">
<path fill="none" stroke="#63b8ff" d="M1128.21,-191.42C1134.49,-194.09 1140.53,-197.25 1146,-201 1168,-216.07 1160.07,-233.83 1182,-249 1184.15,-250.49 1186.39,-251.88 1188.69,-253.19"/>
<polygon fill="#63b8ff" stroke="#63b8ff" points="1187.39,-256.45 1197.89,-257.82 1190.54,-250.2 1187.39,-256.45"/>
</a>
</g>
</g>
<!-- Node8 -->
<g id="Node000008" class="node">
<title>Node8</title>
<g id="a_Node000008"><a xlink:href="namespacewmtk_1_1dart_1_1subgroup.html#a2bf6fed0cc64c6ad326e56135c6e8497" target="_top" xlink:title=" ">
<polygon fill="white" stroke="#666666" points="1326,-192 1205,-192 1205,-162 1326,-162 1326,-192"/>
<text text-anchor="start" x="1213" y="-180" font-family="Helvetica,sans-Serif" font-size="10.00">wmtk::dart::subgroup</text>
<text text-anchor="middle" x="1265.5" y="-169" font-family="Helvetica,sans-Serif" font-size="10.00">::convert</text>
</a>
</g>
</g>
<!-- Node7&#45;&gt;Node8 -->
<g id="edge7_Node000007_Node000008" class="edge">
<title>Node7&#45;&gt;Node8</title>
<g id="a_edge7_Node000007_Node000008"><a xlink:title=" ">
<path fill="none" stroke="#63b8ff" d="M1128.15,-177C1149.57,-177 1173.29,-177 1194.85,-177"/>
<polygon fill="#63b8ff" stroke="#63b8ff" points="1194.92,-180.5 1204.92,-177 1194.92,-173.5 1194.92,-180.5"/>
</a>
</g>
</g>
<!-- Node7&#45;&gt;Node10 -->
<g id="edge10_Node000007_Node000010" class="edge">
<title>Node7&#45;&gt;Node10</title>
<g id="a_edge10_Node000007_Node000010"><a xlink:title=" ">
<path fill="none" stroke="#63b8ff" d="M1124.49,-161.94C1145.56,-156.99 1169.17,-151.43 1190.9,-146.32"/>
<polygon fill="#63b8ff" stroke="#63b8ff" points="1191.81,-149.7 1200.74,-144 1190.2,-142.89 1191.81,-149.7"/>
</a>
</g>
</g>
<!-- Node9 -->
<g id="Node000009" class="node">
<title>Node9</title>
<g id="a_Node000009"><a xlink:href="namespacewmtk_1_1autogen_1_1subgroup.html#a9b4c9cc6aebaf0622a95cb3174d984e1" target="_top" xlink:title=" ">
<polygon fill="white" stroke="#666666" points="1558.5,-192 1417.5,-192 1417.5,-162 1558.5,-162 1558.5,-192"/>
<text text-anchor="start" x="1425.5" y="-180" font-family="Helvetica,sans-Serif" font-size="10.00">wmtk::autogen::subgroup</text>
<text text-anchor="middle" x="1488" y="-169" font-family="Helvetica,sans-Serif" font-size="10.00">::convert</text>
</a>
</g>
</g>
<!-- Node8&#45;&gt;Node9 -->
<g id="edge8_Node000008_Node000009" class="edge">
<title>Node8&#45;&gt;Node9</title>
<g id="a_edge8_Node000008_Node000009"><a xlink:title=" ">
<path fill="none" stroke="#63b8ff" d="M1326.17,-177C1351.05,-177 1380.32,-177 1407.02,-177"/>
<polygon fill="#63b8ff" stroke="#63b8ff" points="1407.11,-180.5 1417.11,-177 1407.11,-173.5 1407.11,-180.5"/>
</a>
</g>
</g>
<!-- Node9&#45;&gt;Node9 -->
<g id="edge9_Node000009_Node000009" class="edge">
<title>Node9&#45;&gt;Node9</title>
<g id="a_edge9_Node000009_Node000009"><a xlink:title=" ">
<path fill="none" stroke="#63b8ff" d="M1448.98,-192.28C1440.3,-201.41 1453.31,-210 1488,-210 1508.6,-210 1521.55,-206.97 1526.86,-202.6"/>
<polygon fill="#63b8ff" stroke="#63b8ff" points="1530.36,-202.33 1527.02,-192.28 1523.36,-202.22 1530.36,-202.33"/>
</a>
</g>
</g>
<!-- Node12&#45;&gt;Node2 -->
<g id="edge27_Node000012_Node000002" class="edge">
<title>Node12&#45;&gt;Node2</title>
<g id="a_edge27_Node000012_Node000002"><a xlink:title=" ">
<path fill="none" stroke="#63b8ff" d="M877.27,-240.09C893.88,-253.12 917.89,-272.82 937,-292 954.6,-309.65 954.77,-318 973,-335 989.33,-350.23 1009.47,-365 1026.1,-376.3"/>
<polygon fill="#63b8ff" stroke="#63b8ff" points="1024.18,-379.23 1034.44,-381.88 1028.07,-373.41 1024.18,-379.23"/>
</a>
</g>
</g>
<!-- Node12&#45;&gt;Node3 -->
<g id="edge29_Node000012_Node000003" class="edge">
<title>Node12&#45;&gt;Node3</title>
<g id="a_edge29_Node000012_Node000003"><a xlink:title=" ">
<path fill="none" stroke="#63b8ff" d="M922.91,-240.05C939.21,-243.39 956.68,-246.64 973,-249 1044.95,-259.4 1127.58,-265.67 1186.45,-269.18"/>
<polygon fill="#63b8ff" stroke="#63b8ff" points="1186.6,-272.7 1196.79,-269.78 1187.01,-265.71 1186.6,-272.7"/>
</a>
</g>
</g>
<!-- Node12&#45;&gt;Node7 -->
<g id="edge16_Node000012_Node000007" class="edge">
<title>Node12&#45;&gt;Node7</title>
<g id="a_edge16_Node000012_Node000007"><a xlink:title=" ">
<path fill="none" stroke="#63b8ff" d="M920.55,-209.94C941.22,-205.01 964.36,-199.48 985.69,-194.39"/>
<polygon fill="#63b8ff" stroke="#63b8ff" points="986.76,-197.73 995.68,-192 985.14,-190.92 986.76,-197.73"/>
</a>
</g>
</g>
<!-- Node12&#45;&gt;Node10 -->
<g id="edge28_Node000012_Node000010" class="edge">
<title>Node12&#45;&gt;Node10</title>
<g id="a_edge28_Node000012_Node000010"><a xlink:title=" ">
<path fill="none" stroke="#63b8ff" d="M875.7,-209.75C897.35,-192.59 935.32,-165.48 973,-153 1042.72,-129.91 1126.7,-125.25 1186.58,-125.57"/>
<polygon fill="#63b8ff" stroke="#63b8ff" points="1186.69,-129.07 1196.72,-125.67 1186.76,-122.07 1186.69,-129.07"/>
</a>
</g>
</g>
<!-- Node13 -->
<g id="Node000013" class="node">
<title>Node13</title>
<g id="a_Node000013"><a xlink:href="namespacewmtk_1_1dart.html#a626f426765e240dbc25a76d9d01ec3f3" target="_top" xlink:title=" ">
<polygon fill="white" stroke="#666666" points="1120.5,-326 998.5,-326 998.5,-296 1120.5,-296 1120.5,-326"/>
<text text-anchor="start" x="1006.5" y="-314" font-family="Helvetica,sans-Serif" font-size="10.00">wmtk::dart::find_local</text>
<text text-anchor="middle" x="1059.5" y="-303" font-family="Helvetica,sans-Serif" font-size="10.00">_dart_action</text>
</a>
</g>
</g>
<!-- Node12&#45;&gt;Node13 -->
<g id="edge17_Node000012_Node000013" class="edge">
<title>Node12&#45;&gt;Node13</title>
<g id="a_edge17_Node000012_Node000013"><a xlink:title=" ">
<path fill="none" stroke="#63b8ff" d="M906.49,-240.15C916.83,-244.09 927.49,-248.74 937,-254 954.74,-263.81 955.15,-272.39 973,-282 980.06,-285.8 987.72,-289.25 995.45,-292.32"/>
<polygon fill="#63b8ff" stroke="#63b8ff" points="994.29,-295.62 1004.88,-295.88 996.77,-289.08 994.29,-295.62"/>
</a>
</g>
</g>
<!-- Node17 -->
<g id="Node000017" class="node">
<title>Node17</title>
<g id="a_Node000017"><a xlink:href="namespacewmtk_1_1dart_1_1utils.html#a0d0527148877095547bcad7f543c6840" target="_top" xlink:title=" ">
<polygon fill="white" stroke="#666666" points="1122.5,-240 996.5,-240 996.5,-210 1122.5,-210 1122.5,-240"/>
<text text-anchor="start" x="1004.5" y="-228" font-family="Helvetica,sans-Serif" font-size="10.00">wmtk::dart::utils::</text>
<text text-anchor="middle" x="1059.5" y="-217" font-family="Helvetica,sans-Serif" font-size="10.00">get_canonical_supdart</text>
</a>
</g>
</g>
<!-- Node12&#45;&gt;Node17 -->
<g id="edge23_Node000012_Node000017" class="edge">
<title>Node12&#45;&gt;Node17</title>
<g id="a_edge23_Node000012_Node000017"><a xlink:title=" ">
<path fill="none" stroke="#63b8ff" d="M937.23,-225C953.32,-225 970.16,-225 985.99,-225"/>
<polygon fill="#63b8ff" stroke="#63b8ff" points="986.23,-228.5 996.23,-225 986.23,-221.5 986.23,-228.5"/>
</a>
</g>
</g>
<!-- Node13&#45;&gt;Node11 -->
<g id="edge22_Node000013_Node000011" class="edge">
<title>Node13&#45;&gt;Node11</title>
<g id="a_edge22_Node000013_Node000011"><a xlink:title=" ">
<path fill="none" stroke="#63b8ff" d="M1105.37,-326.04C1118.49,-330.48 1132.83,-335.39 1146,-340 1162.06,-345.62 1165.82,-347.73 1182,-353 1188.05,-354.97 1194.37,-356.95 1200.71,-358.88"/>
<polygon fill="#63b8ff" stroke="#63b8ff" points="1200.07,-362.34 1210.65,-361.87 1202.08,-355.64 1200.07,-362.34"/>
</a>
</g>
</g>
<!-- Node14 -->
<g id="Node000014" class="node">
<title>Node14</title>
<g id="a_Node000014"><a xlink:href="classwmtk_1_1dart_1_1_simplex_dart.html#a7b929a30594f63ccf71d51b167d4de23" target="_top" xlink:title=" ">
<polygon fill="white" stroke="#666666" points="1344.5,-325.5 1186.5,-325.5 1186.5,-306.5 1344.5,-306.5 1344.5,-325.5"/>
<text text-anchor="middle" x="1265.5" y="-313.5" font-family="Helvetica,sans-Serif" font-size="10.00">wmtk::dart::SimplexDart::act</text>
</a>
</g>
</g>
<!-- Node13&#45;&gt;Node14 -->
<g id="edge18_Node000013_Node000014" class="edge">
<title>Node13&#45;&gt;Node14</title>
<g id="a_edge18_Node000013_Node000014"><a xlink:title=" ">
<path fill="none" stroke="#63b8ff" d="M1120.6,-312.47C1138.04,-312.9 1157.45,-313.38 1176.23,-313.84"/>
<polygon fill="#63b8ff" stroke="#63b8ff" points="1176.19,-317.34 1186.28,-314.08 1176.36,-310.34 1176.19,-317.34"/>
</a>
</g>
</g>
<!-- Node14&#45;&gt;Node14 -->
<g id="edge19_Node000014_Node000014" class="edge">
<title>Node14&#45;&gt;Node14</title>
<g id="a_edge19_Node000014_Node000014"><a xlink:title=" ">
<path fill="none" stroke="#63b8ff" d="M1233.75,-325.58C1218.3,-334.23 1228.89,-343.5 1265.5,-343.5 1291.24,-343.5 1304.12,-338.92 1304.12,-333.19"/>
<polygon fill="#63b8ff" stroke="#63b8ff" points="1306.55,-330.66 1297.25,-325.58 1301.36,-335.35 1306.55,-330.66"/>
</a>
</g>
</g>
<!-- Node14&#45;&gt;Node15 -->
<g id="edge20_Node000014_Node000015" class="edge">
<title>Node14&#45;&gt;Node15</title>
<g id="a_edge20_Node000014_Node000015"><a xlink:title=" ">
<path fill="none" stroke="#63b8ff" d="M1292.71,-325.58C1309.41,-332.21 1331.18,-341.82 1349,-353 1393.21,-380.74 1438.38,-421.56 1464.5,-446.65"/>
<polygon fill="#63b8ff" stroke="#63b8ff" points="1462.35,-449.45 1471.97,-453.9 1467.23,-444.42 1462.35,-449.45"/>
</a>
</g>
</g>
<!-- Node14&#45;&gt;Node16 -->
<g id="edge21_Node000014_Node000016" class="edge">
<title>Node14&#45;&gt;Node16</title>
<g id="a_edge21_Node000014_Node000016"><a xlink:title=" ">
<path fill="none" stroke="#63b8ff" d="M1305.96,-325.65C1321.38,-331.27 1337.97,-339.92 1349,-353 1390.41,-402.12 1343.04,-444.35 1385,-493 1395.35,-505 1409.61,-513.73 1424.19,-520.05"/>
<polygon fill="#63b8ff" stroke="#63b8ff" points="1423.2,-523.42 1433.78,-523.87 1425.78,-516.92 1423.2,-523.42"/>
</a>
</g>
</g>
<!-- Node17&#45;&gt;Node3 -->
<g id="edge26_Node000017_Node000003" class="edge">
<title>Node17&#45;&gt;Node3</title>
<g id="a_edge26_Node000017_Node000003"><a xlink:title=" ">
<path fill="none" stroke="#63b8ff" d="M1122.54,-239.6C1144.08,-244.67 1168.45,-250.4 1190.85,-255.67"/>
<polygon fill="#63b8ff" stroke="#63b8ff" points="1190.11,-259.09 1200.64,-257.97 1191.71,-252.28 1190.11,-259.09"/>
</a>
</g>
</g>
<!-- Node17&#45;&gt;Node10 -->
<g id="edge25_Node000017_Node000010" class="edge">
<title>Node17&#45;&gt;Node10</title>
<g id="a_edge25_Node000017_Node000010"><a xlink:title=" ">
<path fill="none" stroke="#63b8ff" d="M1122.92,-212.71C1131.07,-209.63 1139,-205.79 1146,-201 1168,-185.93 1160.07,-168.17 1182,-153 1184.15,-151.51 1186.39,-150.12 1188.69,-148.81"/>
<polygon fill="#63b8ff" stroke="#63b8ff" points="1190.54,-151.8 1197.89,-144.18 1187.39,-145.55 1190.54,-151.8"/>
</a>
</g>
</g>
<!-- Node18 -->
<g id="Node000018" class="node">
<title>Node18</title>
<g id="a_Node000018"><a xlink:href="namespacewmtk.html#a5cf45c152e856196bb734c6f48919a24" target="_top" xlink:title="Get a unique integer id corresponding to each primitive type.">
<polygon fill="white" stroke="#666666" points="1323.5,-240 1207.5,-240 1207.5,-210 1323.5,-210 1323.5,-240"/>
<text text-anchor="start" x="1215.5" y="-228" font-family="Helvetica,sans-Serif" font-size="10.00">wmtk::get_primitive</text>
<text text-anchor="middle" x="1265.5" y="-217" font-family="Helvetica,sans-Serif" font-size="10.00">_type_id</text>
</a>
</g>
</g>
<!-- Node17&#45;&gt;Node18 -->
<g id="edge24_Node000017_Node000018" class="edge">
<title>Node17&#45;&gt;Node18</title>
<g id="a_edge24_Node000017_Node000018"><a xlink:title=" ">
<path fill="none" stroke="#63b8ff" d="M1122.54,-225C1146.13,-225 1173.11,-225 1197.17,-225"/>
<polygon fill="#63b8ff" stroke="#63b8ff" points="1197.28,-228.5 1207.28,-225 1197.28,-221.5 1197.28,-228.5"/>
</a>
</g>
</g>
<!-- Node21&#45;&gt;Node15 -->
<g id="edge38_Node000021_Node000015" class="edge">
<title>Node21&#45;&gt;Node15</title>
<g id="a_edge38_Node000021_Node000015"><a xlink:title=" ">
<path fill="none" stroke="#63b8ff" d="M1113.65,-490.01C1192.32,-485.58 1339.5,-477.3 1423.66,-472.56"/>
<polygon fill="#63b8ff" stroke="#63b8ff" points="1424.06,-476.05 1433.85,-471.99 1423.67,-469.06 1424.06,-476.05"/>
</a>
</g>
</g>
<!-- Node23 -->
<g id="Node000023" class="node">
<title>Node23</title>
<g id="a_Node000023"><a xlink:href="classwmtk_1_1_mesh.html#a933f681cf24a63b155c9462280385200" target="_top" xlink:title=" ">
<polygon fill="white" stroke="#666666" points="729.5,-30 608.5,-30 608.5,0 729.5,0 729.5,-30"/>
<text text-anchor="start" x="616.5" y="-18" font-family="Helvetica,sans-Serif" font-size="10.00">wmtk::Mesh::top_cell</text>
<text text-anchor="middle" x="669" y="-7" font-family="Helvetica,sans-Serif" font-size="10.00">_dimension</text>
</a>
</g>
</g>
<!-- Node22&#45;&gt;Node23 -->
<g id="edge41_Node000022_Node000023" class="edge">
<title>Node22&#45;&gt;Node23</title>
<g id="a_edge41_Node000022_Node000023"><a xlink:title=" ">
<path fill="none" stroke="#63b8ff" d="M562.17,-17.79C574.22,-17.47 586.51,-17.14 598.24,-16.84"/>
<polygon fill="#63b8ff" stroke="#63b8ff" points="598.49,-20.33 608.39,-16.57 598.3,-13.33 598.49,-20.33"/>
</a>
</g>
</g>
<!-- Node24&#45;&gt;Node15 -->
<g id="edge44_Node000024_Node000015" class="edge">
<title>Node24&#45;&gt;Node15</title>
<g id="a_edge44_Node000024_Node000015"><a xlink:title=" ">
<path fill="none" stroke="#63b8ff" d="M925.14,-567.81C1019.96,-552.04 1197.76,-522.17 1349,-495 1373.57,-490.59 1400.55,-485.55 1424.1,-481.08"/>
<polygon fill="#63b8ff" stroke="#63b8ff" points="1424.79,-484.52 1433.96,-479.21 1423.48,-477.64 1424.79,-484.52"/>
</a>
</g>
</g>
<!-- Node24&#45;&gt;Node16 -->
<g id="edge46_Node000024_Node000016" class="edge">
<title>Node24&#45;&gt;Node16</title>
<g id="a_edge46_Node000024_Node000016"><a xlink:title=" ">
<path fill="none" stroke="#63b8ff" d="M877.91,-594.02C900.04,-609.29 937.02,-631.95 973,-641 1149.24,-685.31 1362.98,-596.77 1448.72,-555.55"/>
<polygon fill="#63b8ff" stroke="#63b8ff" points="1450.35,-558.64 1457.81,-551.12 1447.29,-552.35 1450.35,-558.64"/>
</a>
</g>
</g>
<!-- Node24&#45;&gt;Node21 -->
<g id="edge45_Node000024_Node000021" class="edge">
<title>Node24&#45;&gt;Node21</title>
<g id="a_edge45_Node000024_Node000021"><a xlink:title=" ">
<path fill="none" stroke="#63b8ff" d="M892.97,-563.82C926.7,-549.39 977.55,-527.64 1013.98,-512.05"/>
<polygon fill="#63b8ff" stroke="#63b8ff" points="1015.57,-515.18 1023.38,-508.03 1012.81,-508.74 1015.57,-515.18"/>
</a>
</g>
</g>
<!-- Node25 -->
<g id="Node000025" class="node">
<title>Node25</title>
<g id="a_Node000025"><a xlink:href="classwmtk_1_1dart_1_1_simplex_dart.html#a7a24ef56741738c40b27cc76fac80afa" target="_top" xlink:title=" ">
<polygon fill="white" stroke="#666666" points="1146,-632 973,-632 973,-602 1146,-602 1146,-632"/>
<text text-anchor="start" x="981" y="-620" font-family="Helvetica,sans-Serif" font-size="10.00">wmtk::dart::SimplexDart</text>
<text text-anchor="middle" x="1059.5" y="-609" font-family="Helvetica,sans-Serif" font-size="10.00">::tuple_from_permutation_index</text>
</a>
</g>
</g>
<!-- Node24&#45;&gt;Node25 -->
<g id="edge47_Node000024_Node000025" class="edge">
<title>Node24&#45;&gt;Node25</title>
<g id="a_edge47_Node000024_Node000025"><a xlink:title=" ">
<path fill="none" stroke="#63b8ff" d="M925.27,-591.81C939.25,-594.46 954.18,-597.28 968.81,-600.04"/>
<polygon fill="#63b8ff" stroke="#63b8ff" points="968.39,-603.53 978.86,-601.94 969.69,-596.65 968.39,-603.53"/>
</a>
</g>
</g>
<!-- Node25&#45;&gt;Node3 -->
<g id="edge48_Node000025_Node000003" class="edge">
<title>Node25&#45;&gt;Node3</title>
<g id="a_edge48_Node000025_Node000003"><a xlink:title=" ">
<path fill="none" stroke="#63b8ff" d="M1078.49,-601.69C1098.43,-583.61 1129.92,-551.59 1146,-517 1187.58,-427.55 1116.98,-372.17 1182,-298 1183.81,-295.93 1185.79,-294.03 1187.9,-292.29"/>
<polygon fill="#63b8ff" stroke="#63b8ff" points="1190.36,-294.84 1196.62,-286.29 1186.4,-289.07 1190.36,-294.84"/>
</a>
</g>
</g>
<!-- Node26 -->
<g id="Node000026" class="node">
<title>Node26</title>
<g id="a_Node000026"><a xlink:href="namespacewmtk_1_1dart_1_1utils.html#a8220591e048a168274e6c5b45028cc35" target="_top" xlink:title=" ">
<polygon fill="white" stroke="#666666" points="1349,-718 1182,-718 1182,-688 1349,-688 1349,-718"/>
<text text-anchor="start" x="1190" y="-706" font-family="Helvetica,sans-Serif" font-size="10.00">wmtk::dart::utils::</text>
<text text-anchor="middle" x="1265.5" y="-695" font-family="Helvetica,sans-Serif" font-size="10.00">tuple_from_permutation_index</text>
</a>
</g>
</g>
<!-- Node25&#45;&gt;Node26 -->
<g id="edge49_Node000025_Node000026" class="edge">
<title>Node25&#45;&gt;Node26</title>
<g id="a_edge49_Node000025_Node000026"><a xlink:title=" ">
<path fill="none" stroke="#63b8ff" d="M1096.5,-632.18C1130.73,-646.61 1182.34,-668.36 1219.32,-683.95"/>
<polygon fill="#63b8ff" stroke="#63b8ff" points="1218.28,-687.32 1228.86,-687.97 1221,-680.86 1218.28,-687.32"/>
</a>
</g>
</g>
<!-- Node27 -->
<g id="Node000027" class="node">
<title>Node27</title>
<g id="a_Node000027"><a xlink:href="namespacewmtk_1_1autogen_1_1edge__mesh.html#a733920e99772f077eaf992236a4d44d0" target="_top" xlink:title=" ">
<polygon fill="white" stroke="#666666" points="1591,-766 1385,-766 1385,-736 1591,-736 1591,-766"/>
<text text-anchor="start" x="1393" y="-754" font-family="Helvetica,sans-Serif" font-size="10.00">wmtk::autogen::edge</text>
<text text-anchor="middle" x="1488" y="-743" font-family="Helvetica,sans-Serif" font-size="10.00">_mesh::tuple_from_permutation_index</text>
</a>
</g>
</g>
<!-- Node26&#45;&gt;Node27 -->
<g id="edge50_Node000026_Node000027" class="edge">
<title>Node26&#45;&gt;Node27</title>
<g id="a_edge50_Node000026_Node000027"><a xlink:title=" ">
<path fill="none" stroke="#63b8ff" d="M1335.66,-718.06C1358.65,-723.06 1384.42,-728.67 1408.08,-733.82"/>
<polygon fill="#63b8ff" stroke="#63b8ff" points="1407.57,-737.29 1418.08,-736 1409.06,-730.45 1407.57,-737.29"/>
</a>
</g>
</g>
<!-- Node28 -->
<g id="Node000028" class="node">
<title>Node28</title>
<g id="a_Node000028"><a xlink:href="namespacewmtk_1_1autogen_1_1tet__mesh.html#a76a9e44667b5409342b46f3a6457d2e1" target="_top" xlink:title=" ">
<polygon fill="white" stroke="#666666" points="1591,-718 1385,-718 1385,-688 1591,-688 1591,-718"/>
<text text-anchor="start" x="1393" y="-706" font-family="Helvetica,sans-Serif" font-size="10.00">wmtk::autogen::tet</text>
<text text-anchor="middle" x="1488" y="-695" font-family="Helvetica,sans-Serif" font-size="10.00">_mesh::tuple_from_permutation_index</text>
</a>
</g>
</g>
<!-- Node26&#45;&gt;Node28 -->
<g id="edge51_Node000026_Node000028" class="edge">
<title>Node26&#45;&gt;Node28</title>
<g id="a_edge51_Node000026_Node000028"><a xlink:title=" ">
<path fill="none" stroke="#63b8ff" d="M1349.23,-703C1357.58,-703 1366.15,-703 1374.73,-703"/>
<polygon fill="#63b8ff" stroke="#63b8ff" points="1374.8,-706.5 1384.8,-703 1374.8,-699.5 1374.8,-706.5"/>
</a>
</g>
</g>
<!-- Node29 -->
<g id="Node000029" class="node">
<title>Node29</title>
<g id="a_Node000029"><a xlink:href="namespacewmtk_1_1autogen_1_1tri__mesh.html#a1642768c1a7bc091584eabf48c47ec2f" target="_top" xlink:title=" ">
<polygon fill="white" stroke="#666666" points="1591,-670 1385,-670 1385,-640 1591,-640 1591,-670"/>
<text text-anchor="start" x="1393" y="-658" font-family="Helvetica,sans-Serif" font-size="10.00">wmtk::autogen::tri</text>
<text text-anchor="middle" x="1488" y="-647" font-family="Helvetica,sans-Serif" font-size="10.00">_mesh::tuple_from_permutation_index</text>
</a>
</g>
</g>
<!-- Node26&#45;&gt;Node29 -->
<g id="edge52_Node000026_Node000029" class="edge">
<title>Node26&#45;&gt;Node29</title>
<g id="a_edge52_Node000026_Node000029"><a xlink:title=" ">
<path fill="none" stroke="#63b8ff" d="M1335.66,-687.94C1358.65,-682.94 1384.42,-677.33 1408.08,-672.18"/>
<polygon fill="#63b8ff" stroke="#63b8ff" points="1409.06,-675.55 1418.08,-670 1407.57,-668.71 1409.06,-675.55"/>
</a>
</g>
</g>
</g>
</svg>

<g id="navigator" transform="translate(0 0)" fill="#404254">
  <rect fill="#f2f5e9" fill-opacity="0.5" stroke="#606060" stroke-width=".5" x="0" y="0" width="60" height="60"/>
  <use id="zoomplus" xlink:href="#zoomPlus" x="17" y="9" onmousedown="handleZoom(evt,'in')"/>
  <use id="zoomminus" xlink:href="#zoomMin" x="42" y="9" onmousedown="handleZoom(evt,'out')"/>
  <use id="reset" xlink:href="#resetDef" x="30" y="36" onmousedown="handleReset()"/>
   <use id="arrowup" xlink:href="#arrowUp" x="0" y="0" onmousedown="handlePan(0,-1)"/>
  <use id="arrowright" xlink:href="#arrowRight" x="0" y="0" onmousedown="handlePan(1,0)"/>
  <use id="arrowdown" xlink:href="#arrowDown" x="0" y="0" onmousedown="handlePan(0,1)"/>
  <use id="arrowleft" xlink:href="#arrowLeft" x="0" y="0" onmousedown="handlePan(-1,0)"/>
</g>
<svg viewBox="0 0 15 15" width="100%" height="30px" preserveAspectRatio="xMaxYMin meet">
 <g id="arrow_out" transform="scale(0.3 0.3)">
  <a xlink:href="classwmtk_1_1multimesh_1_1_multi_mesh_manager_a96f18860efc9874463d5c73d6485ef89_cgraph_org.svg" target="_base">
   <rect id="button" ry="5" rx="5" y="6" x="6" height="38" width="38"
        fill="#f2f5e9" fill-opacity="0.5" stroke="#606060" stroke-width="1.0"/>
   <path id="arrow"
     d="M 11.500037,31.436501 C 11.940474,20.09759 22.043105,11.32322 32.158766,21.979434 L 37.068811,17.246167 C 37.068811,17.246167 37.088388,32 37.088388,32 L 22.160133,31.978069 C 22.160133,31.978069 26.997745,27.140456 26.997745,27.140456 C 18.528582,18.264221 13.291696,25.230495 11.500037,31.436501 z"
     style="fill:#404040;"/>
  </a>
 </g>
</svg>

<style type='text/css'>
<![CDATA[
[data-mouse-over-selected='false'] { opacity: 0.7; }
[data-mouse-over-selected='true']  { opacity: 1.0; }
]]>
</style>
<script type="application/ecmascript"><![CDATA[
document.addEventListener('DOMContentLoaded', (event) => {
  highlightEdges();
  highlightAdjacentNodes();
});
]]></script>
</svg>
