<?xml version="1.0" encoding="UTF-8" standalone="no"?>
<!DOCTYPE svg PUBLIC "-//W3C//DTD SVG 1.1//EN"
 "http://www.w3.org/Graphics/SVG/1.1/DTD/svg11.dtd">
<!-- Generated by graphviz version 2.43.0 (0)
 -->
<!-- Title: wmtk::operations::Operation::mesh Pages: 1 -->
<svg width="858pt" height="1577pt"
 viewBox="0.00 0.00 858.00 1576.50" xmlns="http://www.w3.org/2000/svg" xmlns:xlink="http://www.w3.org/1999/xlink">
<g id="graph0" class="graph" transform="scale(1 1) rotate(0) translate(4 1572.5)">
<title>wmtk::operations::Operation::mesh</title>
<!-- Node1 -->
<g id="Node000001" class="node">
<title>Node1</title>
<g id="a_Node000001"><a xlink:title=" ">
<polygon fill="#999999" stroke="#666666" points="850,-810 694,-810 694,-780 850,-780 850,-810"/>
<text text-anchor="start" x="702" y="-798" font-family="Helvetica,sans-Serif" font-size="10.00">wmtk::operations::Operation</text>
<text text-anchor="middle" x="772" y="-787" font-family="Helvetica,sans-Serif" font-size="10.00">::mesh</text>
</a>
</g>
</g>
<!-- Node2 -->
<g id="Node000002" class="node">
<title>Node2</title>
<g id="a_Node000002"><a xlink:href="classwmtk_1_1components_1_1isotropic__remeshing_1_1_isotropic_remeshing.html#a0e398f9d873ff2ae28ccd37edb006bc0" target="_top" xlink:title=" ">
<polygon fill="white" stroke="#666666" points="642,-1531.5 466,-1531.5 466,-1490.5 642,-1490.5 642,-1531.5"/>
<text text-anchor="start" x="474" y="-1519.5" font-family="Helvetica,sans-Serif" font-size="10.00">wmtk::components::isotropic</text>
<text text-anchor="start" x="474" y="-1508.5" font-family="Helvetica,sans-Serif" font-size="10.00">_remeshing::IsotropicRemeshing</text>
<text text-anchor="middle" x="554" y="-1497.5" font-family="Helvetica,sans-Serif" font-size="10.00">::add_core_collapse_invariants</text>
</a>
</g>
</g>
<!-- Node1&#45;&gt;Node2 -->
<g id="edge1_Node000001_Node000002" class="edge">
<title>Node1&#45;&gt;Node2</title>
<g id="a_edge1_Node000001_Node000002"><a xlink:title=" ">
<path fill="none" stroke="#63b8ff" d="M770.33,-820.37C766.86,-932.21 747.51,-1380.03 658,-1481 653.43,-1486.16 648.03,-1490.45 642.13,-1494.02"/>
<polygon fill="#63b8ff" stroke="#63b8ff" points="773.84,-820.17 770.63,-810.07 766.84,-819.96 773.84,-820.17"/>
</a>
</g>
</g>
<!-- Node6 -->
<g id="Node000006" class="node">
<title>Node6</title>
<g id="a_Node000006"><a xlink:href="classwmtk_1_1operations_1_1_edge_collapse.html#ac075c26432623a8592f66d7c4966353c" target="_top" xlink:title=" ">
<polygon fill="white" stroke="#666666" points="641,-1472 467,-1472 467,-1442 641,-1442 641,-1472"/>
<text text-anchor="start" x="475" y="-1460" font-family="Helvetica,sans-Serif" font-size="10.00">wmtk::operations::EdgeCollapse</text>
<text text-anchor="middle" x="554" y="-1449" font-family="Helvetica,sans-Serif" font-size="10.00">::after</text>
</a>
</g>
</g>
<!-- Node1&#45;&gt;Node6 -->
<g id="edge6_Node000001_Node000006" class="edge">
<title>Node1&#45;&gt;Node6</title>
<g id="a_edge6_Node000001_Node000006"><a xlink:title=" ">
<path fill="none" stroke="#63b8ff" d="M769.98,-820.13C765.17,-926.19 741.37,-1336.05 658,-1428 652.88,-1433.64 646.76,-1438.22 640.09,-1441.93"/>
<polygon fill="#63b8ff" stroke="#63b8ff" points="773.48,-820.18 770.42,-810.03 766.49,-819.87 773.48,-820.18"/>
</a>
</g>
</g>
<!-- Node7 -->
<g id="Node000007" class="node">
<title>Node7</title>
<g id="a_Node000007"><a xlink:href="classwmtk_1_1operations_1_1_operation.html#ae802270b57ba3fe8ed2345b5777f46af" target="_top" xlink:title=" ">
<polygon fill="white" stroke="#666666" points="632,-1386 476,-1386 476,-1356 632,-1356 632,-1386"/>
<text text-anchor="start" x="484" y="-1374" font-family="Helvetica,sans-Serif" font-size="10.00">wmtk::operations::Operation</text>
<text text-anchor="middle" x="554" y="-1363" font-family="Helvetica,sans-Serif" font-size="10.00">::before</text>
</a>
</g>
</g>
<!-- Node1&#45;&gt;Node7 -->
<g id="edge7_Node000001_Node000007" class="edge">
<title>Node1&#45;&gt;Node7</title>
<g id="a_edge7_Node000001_Node000007"><a xlink:title=" ">
<path fill="none" stroke="#63b8ff" d="M769.36,-820.4C762.5,-918.35 732.98,-1269.97 658,-1347 650.83,-1354.37 641.87,-1359.66 632.24,-1363.43"/>
<polygon fill="#63b8ff" stroke="#63b8ff" points="772.86,-820.45 770.05,-810.23 765.88,-819.97 772.86,-820.45"/>
</a>
</g>
</g>
<!-- Node8 -->
<g id="Node000008" class="node">
<title>Node8</title>
<g id="a_Node000008"><a xlink:href="classwmtk_1_1operations_1_1_operation.html#a9c6426d34b54642aacb28e7cf93e328f" target="_top" xlink:title=" ">
<polygon fill="white" stroke="#666666" points="391,-1429 235,-1429 235,-1399 391,-1399 391,-1429"/>
<text text-anchor="start" x="243" y="-1417" font-family="Helvetica,sans-Serif" font-size="10.00">wmtk::operations::Operation</text>
<text text-anchor="middle" x="313" y="-1406" font-family="Helvetica,sans-Serif" font-size="10.00">::operator()</text>
</a>
</g>
</g>
<!-- Node1&#45;&gt;Node8 -->
<g id="edge36_Node000001_Node000008" class="edge">
<title>Node1&#45;&gt;Node8</title>
<g id="a_edge36_Node000001_Node000008"><a xlink:title=" ">
<path fill="none" stroke="#63b8ff" d="M770.21,-820.29C766.42,-924.35 746.33,-1317.54 658,-1395 619.72,-1428.57 480.21,-1425.89 391.05,-1420.33"/>
<polygon fill="#63b8ff" stroke="#63b8ff" points="773.72,-820.21 770.57,-810.1 766.72,-819.97 773.72,-820.21"/>
</a>
</g>
</g>
<!-- Node10 -->
<g id="Node000010" class="node">
<title>Node10</title>
<g id="a_Node000010"><a xlink:href="classwmtk_1_1operations_1_1_edge_collapse.html#a64450fa42ff00ebaba65ddca6e94c605" target="_top" xlink:title=" ">
<polygon fill="white" stroke="#666666" points="641,-1338 467,-1338 467,-1308 641,-1308 641,-1338"/>
<text text-anchor="start" x="475" y="-1326" font-family="Helvetica,sans-Serif" font-size="10.00">wmtk::operations::EdgeCollapse</text>
<text text-anchor="middle" x="554" y="-1315" font-family="Helvetica,sans-Serif" font-size="10.00">::EdgeCollapse</text>
</a>
</g>
</g>
<!-- Node1&#45;&gt;Node10 -->
<g id="edge10_Node000001_Node000010" class="edge">
<title>Node1&#45;&gt;Node10</title>
<g id="a_edge10_Node000001_Node000010"><a xlink:title=" ">
<path fill="none" stroke="#63b8ff" d="M768.83,-820.26C760.42,-912.53 726.87,-1229.55 658,-1299 653.09,-1303.95 647.36,-1307.97 641.18,-1311.21"/>
<polygon fill="#63b8ff" stroke="#63b8ff" points="772.33,-820.43 769.74,-810.16 765.36,-819.8 772.33,-820.43"/>
</a>
</g>
</g>
<!-- Node11 -->
<g id="Node000011" class="node">
<title>Node11</title>
<g id="a_Node000011"><a xlink:href="classwmtk_1_1operations_1_1_edge_split.html#a81bb31c49a0200610f79af9a5253a11d" target="_top" xlink:title=" ">
<polygon fill="white" stroke="#666666" points="631,-1290 477,-1290 477,-1260 631,-1260 631,-1290"/>
<text text-anchor="start" x="485" y="-1278" font-family="Helvetica,sans-Serif" font-size="10.00">wmtk::operations::EdgeSplit</text>
<text text-anchor="middle" x="554" y="-1267" font-family="Helvetica,sans-Serif" font-size="10.00">::EdgeSplit</text>
</a>
</g>
</g>
<!-- Node1&#45;&gt;Node11 -->
<g id="edge11_Node000001_Node000011" class="edge">
<title>Node1&#45;&gt;Node11</title>
<g id="a_edge11_Node000001_Node000011"><a xlink:title=" ">
<path fill="none" stroke="#63b8ff" d="M767.97,-820.55C757.27,-906.54 718.62,-1183.6 658,-1246 650.49,-1253.73 641.1,-1259.44 631.06,-1263.66"/>
<polygon fill="#63b8ff" stroke="#63b8ff" points="771.47,-820.72 769.21,-810.37 764.52,-819.87 771.47,-820.72"/>
</a>
</g>
</g>
<!-- Node12 -->
<g id="Node000012" class="node">
<title>Node12</title>
<g id="a_Node000012"><a xlink:href="classwmtk_1_1operations_1_1_a_m_i_p_s_optimization_smoothing.html#a2c409cd3da46f4360119e142ef3c3682" target="_top" xlink:title="returns an empty vector in case of failure">
<polygon fill="white" stroke="#666666" points="414,-1251 212,-1251 212,-1221 414,-1221 414,-1251"/>
<text text-anchor="start" x="220" y="-1239" font-family="Helvetica,sans-Serif" font-size="10.00">wmtk::operations::AMIPSOptimization</text>
<text text-anchor="middle" x="313" y="-1228" font-family="Helvetica,sans-Serif" font-size="10.00">Smoothing::execute</text>
</a>
</g>
</g>
<!-- Node1&#45;&gt;Node12 -->
<g id="edge12_Node000001_Node000012" class="edge">
<title>Node1&#45;&gt;Node12</title>
<g id="a_edge12_Node000001_Node000012"><a xlink:title=" ">
<path fill="none" stroke="#63b8ff" d="M767.61,-820.67C756.34,-901.71 717.51,-1149.72 658,-1200 622.22,-1230.23 502.31,-1236.98 414.08,-1237.65"/>
<polygon fill="#63b8ff" stroke="#63b8ff" points="771.13,-820.76 769.01,-810.38 764.19,-819.81 771.13,-820.76"/>
</a>
</g>
</g>
<!-- Node13 -->
<g id="Node000013" class="node">
<title>Node13</title>
<g id="a_Node000013"><a xlink:href="classwmtk_1_1operations_1_1_a_m_i_p_s_optimization_smoothing_periodic.html#a86df18fe3713cb41dca1687487dea61b" target="_top" xlink:title="returns an empty vector in case of failure">
<polygon fill="white" stroke="#666666" points="414,-1203 212,-1203 212,-1173 414,-1173 414,-1203"/>
<text text-anchor="start" x="220" y="-1191" font-family="Helvetica,sans-Serif" font-size="10.00">wmtk::operations::AMIPSOptimization</text>
<text text-anchor="middle" x="313" y="-1180" font-family="Helvetica,sans-Serif" font-size="10.00">SmoothingPeriodic::execute</text>
</a>
</g>
</g>
<!-- Node1&#45;&gt;Node13 -->
<g id="edge13_Node000001_Node000013" class="edge">
<title>Node1&#45;&gt;Node13</title>
<g id="a_edge13_Node000001_Node000013"><a xlink:title=" ">
<path fill="none" stroke="#63b8ff" d="M766.94,-820.25C754.26,-895.71 712.93,-1117.04 658,-1161 579.65,-1223.69 456.56,-1215.9 380.82,-1203.03"/>
<polygon fill="#63b8ff" stroke="#63b8ff" points="770.42,-820.65 768.6,-810.21 763.51,-819.51 770.42,-820.65"/>
</a>
</g>
</g>
<!-- Node14 -->
<g id="Node000014" class="node">
<title>Node14</title>
<g id="a_Node000014"><a xlink:href="classwmtk_1_1operations_1_1_attributes_update.html#a7cd88fcf959543990319f8e21c95b340" target="_top" xlink:title="returns an empty vector in case of failure">
<polygon fill="white" stroke="#666666" points="632,-1128 476,-1128 476,-1098 632,-1098 632,-1128"/>
<text text-anchor="start" x="484" y="-1116" font-family="Helvetica,sans-Serif" font-size="10.00">wmtk::operations::Attributes</text>
<text text-anchor="middle" x="554" y="-1105" font-family="Helvetica,sans-Serif" font-size="10.00">Update::execute</text>
</a>
</g>
</g>
<!-- Node1&#45;&gt;Node14 -->
<g id="edge14_Node000001_Node000014" class="edge">
<title>Node1&#45;&gt;Node14</title>
<g id="a_edge14_Node000001_Node000014"><a xlink:title=" ">
<path fill="none" stroke="#63b8ff" d="M768.57,-820.31C761.82,-876.38 737.71,-1011.76 658,-1084 650.5,-1090.8 641.52,-1096.02 632.04,-1100.02"/>
<polygon fill="#63b8ff" stroke="#63b8ff" points="772.07,-820.53 769.7,-810.2 765.11,-819.75 772.07,-820.53"/>
</a>
</g>
</g>
<!-- Node15 -->
<g id="Node000015" class="node">
<title>Node15</title>
<g id="a_Node000015"><a xlink:href="classwmtk_1_1operations_1_1_attributes_update_with_function.html#a1c4a62e2c40a2cd6bcdac2219b5a4b52" target="_top" xlink:title="returns an empty vector in case of failure">
<polygon fill="white" stroke="#666666" points="393,-1155 233,-1155 233,-1125 393,-1125 393,-1155"/>
<text text-anchor="start" x="241" y="-1143" font-family="Helvetica,sans-Serif" font-size="10.00">wmtk::operations::Attributes</text>
<text text-anchor="middle" x="313" y="-1132" font-family="Helvetica,sans-Serif" font-size="10.00">UpdateWithFunction::execute</text>
</a>
</g>
</g>
<!-- Node1&#45;&gt;Node15 -->
<g id="edge21_Node000001_Node000015" class="edge">
<title>Node1&#45;&gt;Node15</title>
<g id="a_edge21_Node000001_Node000015"><a xlink:title=" ">
<path fill="none" stroke="#63b8ff" d="M771.66,-820.28C771.83,-885.76 762.11,-1061.06 658,-1137 617.41,-1166.61 481.58,-1158.59 393.24,-1149.62"/>
<polygon fill="#63b8ff" stroke="#63b8ff" points="775.16,-820.02 771.55,-810.06 768.16,-820.1 775.16,-820.02"/>
</a>
</g>
</g>
<!-- Node16 -->
<g id="Node000016" class="node">
<title>Node16</title>
<g id="a_Node000016"><a xlink:href="classwmtk_1_1operations_1_1_optimization_smoothing.html#a6ea07d48fc6e10f364221732d99d0a65" target="_top" xlink:title="returns an empty vector in case of failure">
<polygon fill="white" stroke="#666666" points="398.5,-1107 227.5,-1107 227.5,-1077 398.5,-1077 398.5,-1107"/>
<text text-anchor="start" x="235.5" y="-1095" font-family="Helvetica,sans-Serif" font-size="10.00">wmtk::operations::Optimization</text>
<text text-anchor="middle" x="313" y="-1084" font-family="Helvetica,sans-Serif" font-size="10.00">Smoothing::execute</text>
</a>
</g>
</g>
<!-- Node1&#45;&gt;Node16 -->
<g id="edge31_Node000001_Node000016" class="edge">
<title>Node1&#45;&gt;Node16</title>
<g id="a_edge31_Node000001_Node000016"><a xlink:title=" ">
<path fill="none" stroke="#63b8ff" d="M767.29,-820.14C758.41,-870.6 730.99,-984.09 658,-1039 618.22,-1068.92 487.17,-1082.28 398.8,-1088.01"/>
<polygon fill="#63b8ff" stroke="#63b8ff" points="770.77,-820.53 768.95,-810.09 763.87,-819.39 770.77,-820.53"/>
</a>
</g>
</g>
<!-- Node17 -->
<g id="Node000017" class="node">
<title>Node17</title>
<g id="a_Node000017"><a xlink:href="classwmtk_1_1operations_1_1_rounding.html#a44d2c792261c5d0b9094b23932dac8fc" target="_top" xlink:title="returns an empty vector in case of failure">
<polygon fill="white" stroke="#666666" points="390,-1059 236,-1059 236,-1029 390,-1029 390,-1059"/>
<text text-anchor="start" x="244" y="-1047" font-family="Helvetica,sans-Serif" font-size="10.00">wmtk::operations::Rounding</text>
<text text-anchor="middle" x="313" y="-1036" font-family="Helvetica,sans-Serif" font-size="10.00">::execute</text>
</a>
</g>
</g>
<!-- Node1&#45;&gt;Node17 -->
<g id="edge32_Node000001_Node000017" class="edge">
<title>Node1&#45;&gt;Node17</title>
<g id="a_edge32_Node000001_Node000017"><a xlink:title=" ">
<path fill="none" stroke="#63b8ff" d="M765.77,-820.11C754.76,-866.08 724.5,-963.13 658,-1008 615.69,-1036.55 477.88,-1043.06 390.06,-1044.21"/>
<polygon fill="#63b8ff" stroke="#63b8ff" points="769.25,-820.62 768.06,-810.1 762.42,-819.07 769.25,-820.62"/>
</a>
</g>
</g>
<!-- Node18 -->
<g id="Node000018" class="node">
<title>Node18</title>
<g id="a_Node000018"><a xlink:href="classwmtk_1_1operations_1_1_tet_wild_tangential_laplacian_smoothing.html#a3bf44ec8f70e02db3be952687f922396" target="_top" xlink:title="returns an empty vector in case of failure">
<polygon fill="white" stroke="#666666" points="396,-1010.5 230,-1010.5 230,-969.5 396,-969.5 396,-1010.5"/>
<text text-anchor="start" x="238" y="-998.5" font-family="Helvetica,sans-Serif" font-size="10.00">wmtk::operations::TetWild</text>
<text text-anchor="start" x="238" y="-987.5" font-family="Helvetica,sans-Serif" font-size="10.00">TangentialLaplacianSmoothing</text>
<text text-anchor="middle" x="313" y="-976.5" font-family="Helvetica,sans-Serif" font-size="10.00">::execute</text>
</a>
</g>
</g>
<!-- Node1&#45;&gt;Node18 -->
<g id="edge33_Node000001_Node000018" class="edge">
<title>Node1&#45;&gt;Node18</title>
<g id="a_edge33_Node000001_Node000018"><a xlink:title=" ">
<path fill="none" stroke="#63b8ff" d="M763.74,-819.79C750.36,-860.47 717.56,-940.35 658,-975 578.3,-1021.37 469.75,-1017.3 396.06,-1006.75"/>
<polygon fill="#63b8ff" stroke="#63b8ff" points="767.12,-820.7 766.8,-810.11 760.45,-818.59 767.12,-820.7"/>
</a>
</g>
</g>
<!-- Node19 -->
<g id="Node000019" class="node">
<title>Node19</title>
<g id="a_Node000019"><a xlink:href="classwmtk_1_1operations_1_1composite_1_1_collapse_and_update_vertex.html#a8cc10265bc5d7192b42ed9949046a24f" target="_top" xlink:title="returns an empty vector in case of failure">
<polygon fill="white" stroke="#666666" points="633.5,-965.5 474.5,-965.5 474.5,-924.5 633.5,-924.5 633.5,-965.5"/>
<text text-anchor="start" x="482.5" y="-953.5" font-family="Helvetica,sans-Serif" font-size="10.00">wmtk::operations::composite</text>
<text text-anchor="start" x="482.5" y="-942.5" font-family="Helvetica,sans-Serif" font-size="10.00">::CollapseAndUpdateVertex</text>
<text text-anchor="middle" x="554" y="-931.5" font-family="Helvetica,sans-Serif" font-size="10.00">::execute</text>
</a>
</g>
</g>
<!-- Node1&#45;&gt;Node19 -->
<g id="edge22_Node000001_Node000019" class="edge">
<title>Node1&#45;&gt;Node19</title>
<g id="a_edge22_Node000001_Node000019"><a xlink:title=" ">
<path fill="none" stroke="#63b8ff" d="M754.92,-818.53C735.17,-845.68 699.18,-889.78 658,-915 650.46,-919.62 642.16,-923.56 633.66,-926.91"/>
<polygon fill="#63b8ff" stroke="#63b8ff" points="757.79,-820.54 760.74,-810.36 752.09,-816.47 757.79,-820.54"/>
</a>
</g>
</g>
<!-- Node20 -->
<g id="Node000020" class="node">
<title>Node20</title>
<g id="a_Node000020"><a xlink:href="classwmtk_1_1operations_1_1composite_1_1_project_operation.html#ac0aa2bc6e51b9d8f94fd5943627545dd" target="_top" xlink:title="returns an empty vector in case of failure">
<polygon fill="white" stroke="#666666" points="633.5,-906 474.5,-906 474.5,-876 633.5,-876 633.5,-906"/>
<text text-anchor="start" x="482.5" y="-894" font-family="Helvetica,sans-Serif" font-size="10.00">wmtk::operations::composite</text>
<text text-anchor="middle" x="554" y="-883" font-family="Helvetica,sans-Serif" font-size="10.00">::ProjectOperation::execute</text>
</a>
</g>
</g>
<!-- Node1&#45;&gt;Node20 -->
<g id="edge23_Node000001_Node000020" class="edge">
<title>Node1&#45;&gt;Node20</title>
<g id="a_edge23_Node000001_Node000020"><a xlink:title=" ">
<path fill="none" stroke="#63b8ff" d="M743.53,-816.27C721.51,-832.37 689.23,-853.86 658,-867 649.88,-870.42 641.18,-873.4 632.41,-875.98"/>
<polygon fill="#63b8ff" stroke="#63b8ff" points="745.79,-818.96 751.73,-810.18 741.61,-813.34 745.79,-818.96"/>
</a>
</g>
</g>
<!-- Node21 -->
<g id="Node000021" class="node">
<title>Node21</title>
<g id="a_Node000021"><a xlink:href="classwmtk_1_1operations_1_1composite_1_1_tet_cell_split.html#a6d31a5041eb42f80b71a6ec2ba82b186" target="_top" xlink:title="returns an empty vector in case of failure">
<polygon fill="white" stroke="#666666" points="633.5,-858 474.5,-858 474.5,-828 633.5,-828 633.5,-858"/>
<text text-anchor="start" x="482.5" y="-846" font-family="Helvetica,sans-Serif" font-size="10.00">wmtk::operations::composite</text>
<text text-anchor="middle" x="554" y="-835" font-family="Helvetica,sans-Serif" font-size="10.00">::TetCellSplit::execute</text>
</a>
</g>
</g>
<!-- Node1&#45;&gt;Node21 -->
<g id="edge24_Node000001_Node000021" class="edge">
<title>Node1&#45;&gt;Node21</title>
<g id="a_edge24_Node000001_Node000021"><a xlink:title=" ">
<path fill="none" stroke="#63b8ff" d="M693.45,-812.23C670.25,-817.39 645.01,-823 622.51,-828"/>
<polygon fill="#63b8ff" stroke="#63b8ff" points="694.25,-815.64 703.25,-810.06 692.73,-808.81 694.25,-815.64"/>
</a>
</g>
</g>
<!-- Node22 -->
<g id="Node000022" class="node">
<title>Node22</title>
<g id="a_Node000022"><a xlink:href="classwmtk_1_1operations_1_1composite_1_1_tet_edge_swap.html#aad043bd04d267b27038ff4e824aed8e0" target="_top" xlink:title="returns an empty vector in case of failure">
<polygon fill="white" stroke="#666666" points="633.5,-810 474.5,-810 474.5,-780 633.5,-780 633.5,-810"/>
<text text-anchor="start" x="482.5" y="-798" font-family="Helvetica,sans-Serif" font-size="10.00">wmtk::operations::composite</text>
<text text-anchor="middle" x="554" y="-787" font-family="Helvetica,sans-Serif" font-size="10.00">::TetEdgeSwap::execute</text>
</a>
</g>
</g>
<!-- Node1&#45;&gt;Node22 -->
<g id="edge25_Node000001_Node000022" class="edge">
<title>Node1&#45;&gt;Node22</title>
<g id="a_edge25_Node000001_Node000022"><a xlink:title=" ">
<path fill="none" stroke="#63b8ff" d="M683.76,-795C667.26,-795 650.08,-795 633.86,-795"/>
<polygon fill="#63b8ff" stroke="#63b8ff" points="683.93,-798.5 693.93,-795 683.93,-791.5 683.93,-798.5"/>
</a>
</g>
</g>
<!-- Node23 -->
<g id="Node000023" class="node">
<title>Node23</title>
<g id="a_Node000023"><a xlink:href="classwmtk_1_1operations_1_1composite_1_1_tet_face_swap.html#a31cbdc65275c3680519e077a22f0f47e" target="_top" xlink:title="returns an empty vector in case of failure">
<polygon fill="white" stroke="#666666" points="633.5,-762 474.5,-762 474.5,-732 633.5,-732 633.5,-762"/>
<text text-anchor="start" x="482.5" y="-750" font-family="Helvetica,sans-Serif" font-size="10.00">wmtk::operations::composite</text>
<text text-anchor="middle" x="554" y="-739" font-family="Helvetica,sans-Serif" font-size="10.00">::TetFaceSwap::execute</text>
</a>
</g>
</g>
<!-- Node1&#45;&gt;Node23 -->
<g id="edge26_Node000001_Node000023" class="edge">
<title>Node1&#45;&gt;Node23</title>
<g id="a_edge26_Node000001_Node000023"><a xlink:title=" ">
<path fill="none" stroke="#63b8ff" d="M693.45,-777.77C670.25,-772.61 645.01,-767 622.51,-762"/>
<polygon fill="#63b8ff" stroke="#63b8ff" points="692.73,-781.19 703.25,-779.94 694.25,-774.36 692.73,-781.19"/>
</a>
</g>
</g>
<!-- Node24 -->
<g id="Node000024" class="node">
<title>Node24</title>
<g id="a_Node000024"><a xlink:href="classwmtk_1_1operations_1_1composite_1_1_tri_edge_swap.html#aaea1e9e2ce8dce4ed3a0e79b08793c91" target="_top" xlink:title="returns an empty vector in case of failure">
<polygon fill="white" stroke="#666666" points="633.5,-714 474.5,-714 474.5,-684 633.5,-684 633.5,-714"/>
<text text-anchor="start" x="482.5" y="-702" font-family="Helvetica,sans-Serif" font-size="10.00">wmtk::operations::composite</text>
<text text-anchor="middle" x="554" y="-691" font-family="Helvetica,sans-Serif" font-size="10.00">::TriEdgeSwap::execute</text>
</a>
</g>
</g>
<!-- Node1&#45;&gt;Node24 -->
<g id="edge27_Node000001_Node000024" class="edge">
<title>Node1&#45;&gt;Node24</title>
<g id="a_edge27_Node000001_Node000024"><a xlink:title=" ">
<path fill="none" stroke="#63b8ff" d="M743.53,-773.73C721.51,-757.63 689.23,-736.14 658,-723 649.88,-719.58 641.18,-716.6 632.41,-714.02"/>
<polygon fill="#63b8ff" stroke="#63b8ff" points="741.61,-776.66 751.73,-779.82 745.79,-771.04 741.61,-776.66"/>
</a>
</g>
</g>
<!-- Node25 -->
<g id="Node000025" class="node">
<title>Node25</title>
<g id="a_Node000025"><a xlink:href="classwmtk_1_1operations_1_1composite_1_1_tri_face_split.html#a6001fc5892b1a0179a7da9f72c690583" target="_top" xlink:title="returns an empty vector in case of failure">
<polygon fill="white" stroke="#666666" points="633.5,-666 474.5,-666 474.5,-636 633.5,-636 633.5,-666"/>
<text text-anchor="start" x="482.5" y="-654" font-family="Helvetica,sans-Serif" font-size="10.00">wmtk::operations::composite</text>
<text text-anchor="middle" x="554" y="-643" font-family="Helvetica,sans-Serif" font-size="10.00">::TriFaceSplit::execute</text>
</a>
</g>
</g>
<!-- Node1&#45;&gt;Node25 -->
<g id="edge28_Node000001_Node000025" class="edge">
<title>Node1&#45;&gt;Node25</title>
<g id="a_edge28_Node000001_Node000025"><a xlink:title=" ">
<path fill="none" stroke="#63b8ff" d="M755.46,-771.51C736.01,-744.03 700.08,-699.21 658,-675 650.44,-670.65 642.14,-667.09 633.63,-664.17"/>
<polygon fill="#63b8ff" stroke="#63b8ff" points="752.62,-773.55 761.19,-779.78 758.37,-769.56 752.62,-773.55"/>
</a>
</g>
</g>
<!-- Node26 -->
<g id="Node000026" class="node">
<title>Node26</title>
<g id="a_Node000026"><a xlink:href="classwmtk_1_1operations_1_1_edge_collapse.html#a8d52e8ef34eb9d5b32c8d290270fe5d3" target="_top" xlink:title="returns an empty vector in case of failure">
<polygon fill="white" stroke="#666666" points="641,-618 467,-618 467,-588 641,-588 641,-618"/>
<text text-anchor="start" x="475" y="-606" font-family="Helvetica,sans-Serif" font-size="10.00">wmtk::operations::EdgeCollapse</text>
<text text-anchor="middle" x="554" y="-595" font-family="Helvetica,sans-Serif" font-size="10.00">::execute</text>
</a>
</g>
</g>
<!-- Node1&#45;&gt;Node26 -->
<g id="edge29_Node000001_Node000026" class="edge">
<title>Node1&#45;&gt;Node26</title>
<g id="a_edge29_Node000001_Node000026"><a xlink:title=" ">
<path fill="none" stroke="#63b8ff" d="M761.43,-770.33C745.7,-733.18 710.77,-663.39 658,-627 652.79,-623.4 647.11,-620.34 641.18,-617.73"/>
<polygon fill="#63b8ff" stroke="#63b8ff" points="758.31,-771.96 765.35,-779.88 764.79,-769.3 758.31,-771.96"/>
</a>
</g>
</g>
<!-- Node27 -->
<g id="Node000027" class="node">
<title>Node27</title>
<g id="a_Node000027"><a xlink:href="classwmtk_1_1operations_1_1_edge_split.html#acf2afde09bd19955800804d11f7dfc2b" target="_top" xlink:title=" ">
<polygon fill="white" stroke="#666666" points="631,-570 477,-570 477,-540 631,-540 631,-570"/>
<text text-anchor="start" x="485" y="-558" font-family="Helvetica,sans-Serif" font-size="10.00">wmtk::operations::EdgeSplit</text>
<text text-anchor="middle" x="554" y="-547" font-family="Helvetica,sans-Serif" font-size="10.00">::execute</text>
</a>
</g>
</g>
<!-- Node1&#45;&gt;Node27 -->
<g id="edge30_Node000001_Node000027" class="edge">
<title>Node1&#45;&gt;Node27</title>
<g id="a_edge30_Node000001_Node000027"><a xlink:title=" ">
<path fill="none" stroke="#63b8ff" d="M765.24,-769.99C753.42,-724.54 721.97,-628.53 658,-579 650.02,-572.82 640.71,-568.18 631.01,-564.72"/>
<polygon fill="#63b8ff" stroke="#63b8ff" points="761.89,-771.04 767.71,-779.9 768.68,-769.35 761.89,-771.04"/>
</a>
</g>
</g>
<!-- Node28 -->
<g id="Node000028" class="node">
<title>Node28</title>
<g id="a_Node000028"><a xlink:href="classwmtk_1_1operations_1_1_operation.html#a77e9f9dbe72647e6c5246ad765fd4938" target="_top" xlink:title=" ">
<polygon fill="white" stroke="#666666" points="632,-522 476,-522 476,-492 632,-492 632,-522"/>
<text text-anchor="start" x="484" y="-510" font-family="Helvetica,sans-Serif" font-size="10.00">wmtk::operations::Operation</text>
<text text-anchor="middle" x="554" y="-499" font-family="Helvetica,sans-Serif" font-size="10.00">::get_transfer_strategy</text>
</a>
</g>
</g>
<!-- Node1&#45;&gt;Node28 -->
<g id="edge34_Node000001_Node000028" class="edge">
<title>Node1&#45;&gt;Node28</title>
<g id="a_edge34_Node000001_Node000028"><a xlink:title=" ">
<path fill="none" stroke="#63b8ff" d="M767.81,-769.82C759.73,-716.98 733.44,-594.24 658,-531 650.47,-524.69 641.59,-519.97 632.25,-516.45"/>
<polygon fill="#63b8ff" stroke="#63b8ff" points="764.38,-770.58 769.27,-779.98 771.31,-769.59 764.38,-770.58"/>
</a>
</g>
</g>
<!-- Node29 -->
<g id="Node000029" class="node">
<title>Node29</title>
<g id="a_Node000029"><a xlink:href="classwmtk_1_1operations_1_1_edge_split.html#ac8ebd02932d6f6d211ba9771d0524c4a" target="_top" xlink:title=" ">
<polygon fill="white" stroke="#666666" points="631,-474 477,-474 477,-444 631,-444 631,-474"/>
<text text-anchor="start" x="485" y="-462" font-family="Helvetica,sans-Serif" font-size="10.00">wmtk::operations::EdgeSplit</text>
<text text-anchor="middle" x="554" y="-451" font-family="Helvetica,sans-Serif" font-size="10.00">::new_spine_edges</text>
</a>
</g>
</g>
<!-- Node1&#45;&gt;Node29 -->
<g id="edge35_Node000001_Node000029" class="edge">
<title>Node1&#45;&gt;Node29</title>
<g id="a_edge35_Node000001_Node000029"><a xlink:title=" ">
<path fill="none" stroke="#63b8ff" d="M769.68,-769.88C765.15,-710.45 745.19,-560.42 658,-483 650.24,-476.11 640.89,-471.1 631.03,-467.46"/>
<polygon fill="#63b8ff" stroke="#63b8ff" points="766.19,-770.14 770.36,-779.88 773.17,-769.67 766.19,-770.14"/>
</a>
</g>
</g>
<!-- Node30 -->
<g id="Node000030" class="node">
<title>Node30</title>
<g id="a_Node000030"><a xlink:href="classwmtk_1_1operations_1_1_operation.html#a882eca46d5f1bc42c25dde3baf0a8297" target="_top" xlink:title=" ">
<polygon fill="white" stroke="#666666" points="632,-426 476,-426 476,-396 632,-396 632,-426"/>
<text text-anchor="start" x="484" y="-414" font-family="Helvetica,sans-Serif" font-size="10.00">wmtk::operations::Operation</text>
<text text-anchor="middle" x="554" y="-403" font-family="Helvetica,sans-Serif" font-size="10.00">::reserve_enough_simplices</text>
</a>
</g>
</g>
<!-- Node1&#45;&gt;Node30 -->
<g id="edge37_Node000001_Node000030" class="edge">
<title>Node1&#45;&gt;Node30</title>
<g id="a_edge37_Node000001_Node000030"><a xlink:title=" ">
<path fill="none" stroke="#63b8ff" d="M771.08,-769.74C769.83,-704.09 756.98,-526.8 658,-435 650.6,-428.13 641.62,-423.11 632.09,-419.45"/>
<polygon fill="#63b8ff" stroke="#63b8ff" points="767.58,-770.02 771.19,-779.98 774.58,-769.94 767.58,-770.02"/>
</a>
</g>
</g>
<!-- Node31 -->
<g id="Node000031" class="node">
<title>Node31</title>
<g id="a_Node000031"><a xlink:href="classwmtk_1_1components_1_1isotropic__remeshing_1_1_isotropic_remeshing.html#a973ad24e45384bea1e30523b46ce403c" target="_top" xlink:title=" ">
<polygon fill="white" stroke="#666666" points="653,-378 455,-378 455,-348 653,-348 653,-378"/>
<text text-anchor="start" x="463" y="-366" font-family="Helvetica,sans-Serif" font-size="10.00">wmtk::components::isotropic</text>
<text text-anchor="middle" x="554" y="-355" font-family="Helvetica,sans-Serif" font-size="10.00">_remeshing::IsotropicRemeshing::run</text>
</a>
</g>
</g>
<!-- Node1&#45;&gt;Node31 -->
<g id="edge38_Node000001_Node000031" class="edge">
<title>Node1&#45;&gt;Node31</title>
<g id="a_edge38_Node000001_Node000031"><a xlink:title=" ">
<path fill="none" stroke="#63b8ff" d="M767.37,-769.45C755.38,-688.72 714.6,-441.31 658,-387 654.42,-383.57 650.45,-380.59 646.22,-378.02"/>
<polygon fill="#63b8ff" stroke="#63b8ff" points="763.95,-770.3 768.86,-779.69 770.88,-769.29 763.95,-770.3"/>
</a>
</g>
</g>
<!-- Node32 -->
<g id="Node000032" class="node">
<title>Node32</title>
<g id="a_Node000032"><a xlink:href="classwmtk_1_1_scheduler.html#a246ccf6605333ebb7c020aa8fae1e959" target="_top" xlink:title=" ">
<polygon fill="white" stroke="#666666" points="614,-330 494,-330 494,-300 614,-300 614,-330"/>
<text text-anchor="start" x="502" y="-318" font-family="Helvetica,sans-Serif" font-size="10.00">wmtk::Scheduler::run</text>
<text text-anchor="middle" x="554" y="-307" font-family="Helvetica,sans-Serif" font-size="10.00">_operation_on_all</text>
</a>
</g>
</g>
<!-- Node1&#45;&gt;Node32 -->
<g id="edge39_Node000001_Node000032" class="edge">
<title>Node1&#45;&gt;Node32</title>
<g id="a_edge39_Node000001_Node000032"><a xlink:title=" ">
<path fill="none" stroke="#63b8ff" d="M768.21,-769.91C758.13,-683.62 720.79,-400.92 658,-339 646.3,-327.46 630.19,-321.06 614.19,-317.61"/>
<polygon fill="#63b8ff" stroke="#63b8ff" points="764.74,-770.34 769.36,-779.87 771.69,-769.54 764.74,-770.34"/>
</a>
</g>
</g>
<!-- Node33 -->
<g id="Node000033" class="node">
<title>Node33</title>
<g id="a_Node000033"><a xlink:href="classwmtk_1_1_scheduler.html#a5b05948c71ccb0fabd2f6bb5a49dcbb3" target="_top" xlink:title=" ">
<polygon fill="white" stroke="#666666" points="614,-282 494,-282 494,-252 614,-252 614,-282"/>
<text text-anchor="start" x="502" y="-270" font-family="Helvetica,sans-Serif" font-size="10.00">wmtk::Scheduler::run</text>
<text text-anchor="middle" x="554" y="-259" font-family="Helvetica,sans-Serif" font-size="10.00">_operation_on_all</text>
</a>
</g>
</g>
<!-- Node1&#45;&gt;Node33 -->
<g id="edge40_Node000001_Node000033" class="edge">
<title>Node1&#45;&gt;Node33</title>
<g id="a_edge40_Node000001_Node000033"><a xlink:title=" ">
<path fill="none" stroke="#63b8ff" d="M768.83,-769.74C760.42,-677.47 726.87,-360.45 658,-291 646.36,-279.27 630.18,-272.82 614.08,-269.39"/>
<polygon fill="#63b8ff" stroke="#63b8ff" points="765.36,-770.2 769.74,-779.84 772.33,-769.57 765.36,-770.2"/>
</a>
</g>
</g>
<!-- Node34 -->
<g id="Node000034" class="node">
<title>Node34</title>
<g id="a_Node000034"><a xlink:href="classwmtk_1_1_scheduler.html#a4a654a64c9b1823bb3ddb5fa7a59c7d8" target="_top" xlink:title=" ">
<polygon fill="white" stroke="#666666" points="614,-234 494,-234 494,-204 614,-204 614,-234"/>
<text text-anchor="start" x="502" y="-222" font-family="Helvetica,sans-Serif" font-size="10.00">wmtk::Scheduler::run</text>
<text text-anchor="middle" x="554" y="-211" font-family="Helvetica,sans-Serif" font-size="10.00">_operation_on_all</text>
</a>
</g>
</g>
<!-- Node1&#45;&gt;Node34 -->
<g id="edge41_Node000001_Node000034" class="edge">
<title>Node1&#45;&gt;Node34</title>
<g id="a_edge41_Node000001_Node000034"><a xlink:title=" ">
<path fill="none" stroke="#63b8ff" d="M769.36,-769.6C762.5,-671.65 732.98,-320.03 658,-243 646.47,-231.16 630.32,-224.68 614.22,-221.25"/>
<polygon fill="#63b8ff" stroke="#63b8ff" points="765.88,-770.03 770.05,-779.77 772.86,-769.55 765.88,-770.03"/>
</a>
</g>
</g>
<!-- Node35 -->
<g id="Node000035" class="node">
<title>Node35</title>
<g id="a_Node000035"><a xlink:href="classwmtk_1_1_scheduler.html#a4f7598112b7e77f3432f22427c7fdfb8" target="_top" xlink:title=" ">
<polygon fill="white" stroke="#666666" points="627.5,-186 480.5,-186 480.5,-156 627.5,-156 627.5,-186"/>
<text text-anchor="start" x="488.5" y="-174" font-family="Helvetica,sans-Serif" font-size="10.00">wmtk::Scheduler::run</text>
<text text-anchor="middle" x="554" y="-163" font-family="Helvetica,sans-Serif" font-size="10.00">_operation_on_all_coloring</text>
</a>
</g>
</g>
<!-- Node1&#45;&gt;Node35 -->
<g id="edge42_Node000001_Node000035" class="edge">
<title>Node1&#45;&gt;Node35</title>
<g id="a_edge42_Node000001_Node000035"><a xlink:title=" ">
<path fill="none" stroke="#63b8ff" d="M769.82,-769.77C764.47,-666.79 739.19,-279.74 658,-195 649.74,-186.38 639.04,-180.59 627.66,-176.75"/>
<polygon fill="#63b8ff" stroke="#63b8ff" points="766.33,-770.05 770.32,-779.87 773.32,-769.7 766.33,-770.05"/>
</a>
</g>
</g>
<!-- Node36 -->
<g id="Node000036" class="node">
<title>Node36</title>
<g id="a_Node000036"><a xlink:href="classwmtk_1_1operations_1_1_operation.html#a106cd73b45dab52d8459510edf5c5bef" target="_top" xlink:title=" ">
<polygon fill="white" stroke="#666666" points="632,-138 476,-138 476,-108 632,-108 632,-138"/>
<text text-anchor="start" x="484" y="-126" font-family="Helvetica,sans-Serif" font-size="10.00">wmtk::operations::Operation</text>
<text text-anchor="middle" x="554" y="-115" font-family="Helvetica,sans-Serif" font-size="10.00">::set_transfer_strategy</text>
</a>
</g>
</g>
<!-- Node1&#45;&gt;Node36 -->
<g id="edge43_Node000001_Node000036" class="edge">
<title>Node1&#45;&gt;Node36</title>
<g id="a_edge43_Node000001_Node000036"><a xlink:title=" ">
<path fill="none" stroke="#63b8ff" d="M770.19,-769.54C766.22,-661.13 745.32,-239.38 658,-147 650.87,-139.46 641.88,-134.08 632.18,-130.27"/>
<polygon fill="#63b8ff" stroke="#63b8ff" points="766.7,-769.97 770.55,-779.84 773.7,-769.72 766.7,-769.97"/>
</a>
</g>
</g>
<!-- Node39 -->
<g id="Node000039" class="node">
<title>Node39</title>
<g id="a_Node000039"><a xlink:href="classwmtk_1_1operations_1_1_tet_wild_tangential_laplacian_smoothing.html#a97d5a211925ff7c6c4a0473342b81971" target="_top" xlink:title=" ">
<polygon fill="white" stroke="#666666" points="658,-89.5 450,-89.5 450,-48.5 658,-48.5 658,-89.5"/>
<text text-anchor="start" x="458" y="-77.5" font-family="Helvetica,sans-Serif" font-size="10.00">wmtk::operations::TetWild</text>
<text text-anchor="start" x="458" y="-66.5" font-family="Helvetica,sans-Serif" font-size="10.00">TangentialLaplacianSmoothing</text>
<text text-anchor="middle" x="554" y="-55.5" font-family="Helvetica,sans-Serif" font-size="10.00">::TetWildTangentialLaplacianSmoothing</text>
</a>
</g>
</g>
<!-- Node1&#45;&gt;Node39 -->
<g id="edge46_Node000001_Node000039" class="edge">
<title>Node1&#45;&gt;Node39</title>
<g id="a_edge46_Node000001_Node000039"><a xlink:title=" ">
<path fill="none" stroke="#63b8ff" d="M770.39,-769.6C767.19,-656.73 748.75,-201.61 658,-99 654.92,-95.51 651.45,-92.42 647.71,-89.68"/>
<polygon fill="#63b8ff" stroke="#63b8ff" points="766.9,-769.81 770.67,-779.71 773.9,-769.62 766.9,-769.81"/>
</a>
</g>
</g>
<!-- Node40 -->
<g id="Node000040" class="node">
<title>Node40</title>
<g id="a_Node000040"><a xlink:href="classwmtk_1_1operations_1_1_edge_collapse.html#a15f338a3463830f470ea1cc408257067" target="_top" xlink:title="Returns all simplices that will be potentially affected by the operation.">
<polygon fill="white" stroke="#666666" points="641,-30 467,-30 467,0 641,0 641,-30"/>
<text text-anchor="start" x="475" y="-18" font-family="Helvetica,sans-Serif" font-size="10.00">wmtk::operations::EdgeCollapse</text>
<text text-anchor="middle" x="554" y="-7" font-family="Helvetica,sans-Serif" font-size="10.00">::unmodified_primitives</text>
</a>
</g>
</g>
<!-- Node1&#45;&gt;Node40 -->
<g id="edge47_Node000001_Node000040" class="edge">
<title>Node1&#45;&gt;Node40</title>
<g id="a_edge47_Node000001_Node000040"><a xlink:title=" ">
<path fill="none" stroke="#63b8ff" d="M770.89,-769.63C769.83,-650.61 759.34,-148.85 658,-39 653.14,-33.74 647.38,-29.52 641.09,-26.15"/>
<polygon fill="#63b8ff" stroke="#63b8ff" points="767.39,-769.95 770.96,-779.92 774.39,-769.9 767.39,-769.95"/>
</a>
</g>
</g>
<!-- Node3 -->
<g id="Node000003" class="node">
<title>Node3</title>
<g id="a_Node000003"><a xlink:href="classwmtk_1_1components_1_1isotropic__remeshing_1_1_isotropic_remeshing.html#a1b56eedafe8865b7ececb2d19f5eb670" target="_top" xlink:title=" ">
<polygon fill="white" stroke="#666666" points="401,-1568.5 225,-1568.5 225,-1527.5 401,-1527.5 401,-1568.5"/>
<text text-anchor="start" x="233" y="-1556.5" font-family="Helvetica,sans-Serif" font-size="10.00">wmtk::components::isotropic</text>
<text text-anchor="start" x="233" y="-1545.5" font-family="Helvetica,sans-Serif" font-size="10.00">_remeshing::IsotropicRemeshing</text>
<text text-anchor="middle" x="313" y="-1534.5" font-family="Helvetica,sans-Serif" font-size="10.00">::configure_collapse</text>
</a>
</g>
</g>
<!-- Node2&#45;&gt;Node3 -->
<g id="edge2_Node000002_Node000003" class="edge">
<title>Node2&#45;&gt;Node3</title>
<g id="a_edge2_Node000002_Node000003"><a xlink:title=" ">
<path fill="none" stroke="#63b8ff" d="M455.73,-1526.06C437.63,-1528.86 418.83,-1531.77 401.06,-1534.52"/>
<polygon fill="#63b8ff" stroke="#63b8ff" points="456.35,-1529.5 465.7,-1524.51 455.28,-1522.59 456.35,-1529.5"/>
</a>
</g>
</g>
<!-- Node5 -->
<g id="Node000005" class="node">
<title>Node5</title>
<g id="a_Node000005"><a xlink:href="classwmtk_1_1components_1_1isotropic__remeshing_1_1_isotropic_remeshing.html#ad22ce058f76ec1434f41ce7fb2bd6ffa" target="_top" xlink:title=" ">
<polygon fill="white" stroke="#666666" points="401,-1509.5 225,-1509.5 225,-1468.5 401,-1468.5 401,-1509.5"/>
<text text-anchor="start" x="233" y="-1497.5" font-family="Helvetica,sans-Serif" font-size="10.00">wmtk::components::isotropic</text>
<text text-anchor="start" x="233" y="-1486.5" font-family="Helvetica,sans-Serif" font-size="10.00">_remeshing::IsotropicRemeshing</text>
<text text-anchor="middle" x="313" y="-1475.5" font-family="Helvetica,sans-Serif" font-size="10.00">::configure_swap</text>
</a>
</g>
</g>
<!-- Node2&#45;&gt;Node5 -->
<g id="edge4_Node000002_Node000005" class="edge">
<title>Node2&#45;&gt;Node5</title>
<g id="a_edge4_Node000002_Node000005"><a xlink:title=" ">
<path fill="none" stroke="#63b8ff" d="M455.73,-1502.05C437.63,-1500.38 418.83,-1498.65 401.06,-1497.01"/>
<polygon fill="#63b8ff" stroke="#63b8ff" points="455.42,-1505.53 465.7,-1502.96 456.06,-1498.56 455.42,-1505.53"/>
</a>
</g>
</g>
<!-- Node4 -->
<g id="Node000004" class="node">
<title>Node4</title>
<g id="a_Node000004"><a xlink:href="classwmtk_1_1components_1_1isotropic__remeshing_1_1_isotropic_remeshing.html#a31844ec38531cdf196cd22bc57ca2dba" target="_top" xlink:title=" ">
<polygon fill="white" stroke="#666666" points="176,-1538.5 0,-1538.5 0,-1497.5 176,-1497.5 176,-1538.5"/>
<text text-anchor="start" x="8" y="-1526.5" font-family="Helvetica,sans-Serif" font-size="10.00">wmtk::components::isotropic</text>
<text text-anchor="start" x="8" y="-1515.5" font-family="Helvetica,sans-Serif" font-size="10.00">_remeshing::IsotropicRemeshing</text>
<text text-anchor="middle" x="88" y="-1504.5" font-family="Helvetica,sans-Serif" font-size="10.00">::IsotropicRemeshing</text>
</a>
</g>
</g>
<!-- Node3&#45;&gt;Node4 -->
<g id="edge3_Node000003_Node000004" class="edge">
<title>Node3&#45;&gt;Node4</title>
<g id="a_edge3_Node000003_Node000004"><a xlink:title=" ">
<path fill="none" stroke="#63b8ff" d="M214.62,-1534.9C201.81,-1533.18 188.74,-1531.42 176.12,-1529.72"/>
<polygon fill="#63b8ff" stroke="#63b8ff" points="214.45,-1538.41 224.82,-1536.27 215.38,-1531.47 214.45,-1538.41"/>
</a>
</g>
</g>
<!-- Node5&#45;&gt;Node4 -->
<g id="edge5_Node000005_Node000004" class="edge">
<title>Node5&#45;&gt;Node4</title>
<g id="a_edge5_Node000005_Node000004"><a xlink:title=" ">
<path fill="none" stroke="#63b8ff" d="M214.62,-1501.66C201.81,-1503.33 188.74,-1505.03 176.12,-1506.67"/>
<polygon fill="#63b8ff" stroke="#63b8ff" points="215.36,-1505.1 224.82,-1500.34 214.46,-1498.16 215.36,-1505.1"/>
</a>
</g>
</g>
<!-- Node7&#45;&gt;Node8 -->
<g id="edge8_Node000007_Node000008" class="edge">
<title>Node7&#45;&gt;Node8</title>
<g id="a_edge8_Node000007_Node000008"><a xlink:title=" ">
<path fill="none" stroke="#63b8ff" d="M465.74,-1386.7C441.26,-1391.1 414.83,-1395.86 391,-1400.15"/>
<polygon fill="#63b8ff" stroke="#63b8ff" points="466.51,-1390.12 475.73,-1384.9 465.27,-1383.23 466.51,-1390.12"/>
</a>
</g>
</g>
<!-- Node9 -->
<g id="Node000009" class="node">
<title>Node9</title>
<g id="a_Node000009"><a xlink:href="classwmtk_1_1operations_1_1_operation_sequence.html#a547ec2a6ed8a354eff76e733b2e7fb2c" target="_top" xlink:title=" ">
<polygon fill="white" stroke="#666666" points="391,-1381 235,-1381 235,-1351 391,-1351 391,-1381"/>
<text text-anchor="start" x="243" y="-1369" font-family="Helvetica,sans-Serif" font-size="10.00">wmtk::operations::Operation</text>
<text text-anchor="middle" x="313" y="-1358" font-family="Helvetica,sans-Serif" font-size="10.00">Sequence::operator()</text>
</a>
</g>
</g>
<!-- Node7&#45;&gt;Node9 -->
<g id="edge9_Node000007_Node000009" class="edge">
<title>Node7&#45;&gt;Node9</title>
<g id="a_edge9_Node000007_Node000009"><a xlink:title=" ">
<path fill="none" stroke="#63b8ff" d="M465.41,-1369.17C441.03,-1368.66 414.73,-1368.11 391,-1367.61"/>
<polygon fill="#63b8ff" stroke="#63b8ff" points="465.66,-1372.67 475.73,-1369.38 465.81,-1365.68 465.66,-1372.67"/>
</a>
</g>
</g>
<!-- Node14&#45;&gt;Node12 -->
<g id="edge15_Node000014_Node000012" class="edge">
<title>Node14&#45;&gt;Node12</title>
<g id="a_edge15_Node000014_Node000012"><a xlink:title=" ">
<path fill="none" stroke="#63b8ff" d="M528.76,-1134.73C502.35,-1157.27 457.99,-1191.98 414,-1212 406.44,-1215.44 398.33,-1218.42 390.12,-1221"/>
<polygon fill="#63b8ff" stroke="#63b8ff" points="531.08,-1137.34 536.35,-1128.15 526.5,-1132.05 531.08,-1137.34"/>
</a>
</g>
</g>
<!-- Node14&#45;&gt;Node13 -->
<g id="edge16_Node000014_Node000013" class="edge">
<title>Node14&#45;&gt;Node13</title>
<g id="a_edge16_Node000014_Node000013"><a xlink:title=" ">
<path fill="none" stroke="#63b8ff" d="M506.15,-1131.73C479.41,-1142.03 445.12,-1154.59 414,-1164 403.49,-1167.18 392.26,-1170.21 381.26,-1172.99"/>
<polygon fill="#63b8ff" stroke="#63b8ff" points="507.59,-1134.93 515.64,-1128.05 505.05,-1128.4 507.59,-1134.93"/>
</a>
</g>
</g>
<!-- Node14&#45;&gt;Node15 -->
<g id="edge17_Node000014_Node000015" class="edge">
<title>Node14&#45;&gt;Node15</title>
<g id="a_edge17_Node000014_Node000015"><a xlink:title=" ">
<path fill="none" stroke="#63b8ff" d="M465.68,-1122.87C441.92,-1125.55 416.32,-1128.44 393.05,-1131.07"/>
<polygon fill="#63b8ff" stroke="#63b8ff" points="466.19,-1126.33 475.73,-1121.73 465.4,-1119.37 466.19,-1126.33"/>
</a>
</g>
</g>
<!-- Node14&#45;&gt;Node16 -->
<g id="edge18_Node000014_Node000016" class="edge">
<title>Node14&#45;&gt;Node16</title>
<g id="a_edge18_Node000014_Node000016"><a xlink:title=" ">
<path fill="none" stroke="#63b8ff" d="M465.52,-1105.31C443.77,-1103.4 420.48,-1101.36 398.85,-1099.46"/>
<polygon fill="#63b8ff" stroke="#63b8ff" points="465.47,-1108.82 475.73,-1106.21 466.08,-1101.85 465.47,-1108.82"/>
</a>
</g>
</g>
<!-- Node14&#45;&gt;Node17 -->
<g id="edge19_Node000014_Node000017" class="edge">
<title>Node14&#45;&gt;Node17</title>
<g id="a_edge19_Node000014_Node000017"><a xlink:title=" ">
<path fill="none" stroke="#63b8ff" d="M499.86,-1094.73C474.08,-1086.14 442.58,-1076.04 414,-1068 403,-1064.9 391.25,-1061.86 379.81,-1059.03"/>
<polygon fill="#63b8ff" stroke="#63b8ff" points="498.85,-1098.08 509.44,-1097.94 501.07,-1091.44 498.85,-1098.08"/>
</a>
</g>
</g>
<!-- Node14&#45;&gt;Node18 -->
<g id="edge20_Node000014_Node000018" class="edge">
<title>Node14&#45;&gt;Node18</title>
<g id="a_edge20_Node000014_Node000018"><a xlink:title=" ">
<path fill="none" stroke="#63b8ff" d="M526.14,-1091.47C499.16,-1070.72 455.71,-1039.66 414,-1020 406.7,-1016.56 398.92,-1013.41 391.05,-1010.55"/>
<polygon fill="#63b8ff" stroke="#63b8ff" points="524.26,-1094.44 534.3,-1097.81 528.56,-1088.91 524.26,-1094.44"/>
</a>
</g>
</g>
<!-- Node37 -->
<g id="Node000037" class="node">
<title>Node37</title>
<g id="a_Node000037"><a xlink:href="classwmtk_1_1operations_1_1_attribute_transfer_configuration.html#a2b24abc964e31f0c9c520d3a9e17904c" target="_top" xlink:title=" ">
<polygon fill="white" stroke="#666666" points="390,-162 236,-162 236,-132 390,-132 390,-162"/>
<text text-anchor="start" x="244" y="-150" font-family="Helvetica,sans-Serif" font-size="10.00">wmtk::operations::Attribute</text>
<text text-anchor="middle" x="313" y="-139" font-family="Helvetica,sans-Serif" font-size="10.00">TransferConfiguration::apply</text>
</a>
</g>
</g>
<!-- Node36&#45;&gt;Node37 -->
<g id="edge44_Node000036_Node000037" class="edge">
<title>Node36&#45;&gt;Node37</title>
<g id="a_edge44_Node000036_Node000037"><a xlink:title=" ">
<path fill="none" stroke="#63b8ff" d="M465.64,-131.77C440.91,-134.26 414.2,-136.94 390.18,-139.35"/>
<polygon fill="#63b8ff" stroke="#63b8ff" points="466.13,-135.24 475.73,-130.76 465.43,-128.28 466.13,-135.24"/>
</a>
</g>
</g>
<!-- Node38 -->
<g id="Node000038" class="node">
<title>Node38</title>
<g id="a_Node000038"><a xlink:href="classwmtk_1_1operations_1_1_attribute_transfer_configuration.html#a925a620c457fe7b87785c2dbd0412658" target="_top" xlink:title=" ">
<polygon fill="white" stroke="#666666" points="390,-114 236,-114 236,-84 390,-84 390,-114"/>
<text text-anchor="start" x="244" y="-102" font-family="Helvetica,sans-Serif" font-size="10.00">wmtk::operations::Attribute</text>
<text text-anchor="middle" x="313" y="-91" font-family="Helvetica,sans-Serif" font-size="10.00">TransferConfiguration::apply</text>
</a>
</g>
</g>
<!-- Node36&#45;&gt;Node38 -->
<g id="edge45_Node000036_Node000038" class="edge">
<title>Node36&#45;&gt;Node38</title>
<g id="a_edge45_Node000036_Node000038"><a xlink:title=" ">
<path fill="none" stroke="#63b8ff" d="M465.64,-114.23C440.91,-111.74 414.2,-109.06 390.18,-106.65"/>
<polygon fill="#63b8ff" stroke="#63b8ff" points="465.43,-117.72 475.73,-115.24 466.13,-110.76 465.43,-117.72"/>
</a>
</g>
</g>
</g>
</svg>
