<?xml version="1.0" encoding="UTF-8" standalone="no"?>
<!DOCTYPE svg PUBLIC "-//W3C//DTD SVG 1.1//EN"
 "http://www.w3.org/Graphics/SVG/1.1/DTD/svg11.dtd">
<!-- Generated by graphviz version 2.43.0 (0)
 -->
<!-- Title: wmtk::components::isotropic_remeshing::IsotropicRemeshing::load_transfers Pages: 1 -->
<svg width="1364pt" height="473pt"
 viewBox="0.00 0.00 1364.00 472.50" xmlns="http://www.w3.org/2000/svg" xmlns:xlink="http://www.w3.org/1999/xlink">
<g id="graph0" class="graph" transform="scale(1 1) rotate(0) translate(4 468.5)">
<title>wmtk::components::isotropic_remeshing::IsotropicRemeshing::load_transfers</title>
<!-- Node1 -->
<g id="Node000001" class="node">
<title>Node1</title>
<g id="a_Node000001"><a xlink:title=" ">
<polygon fill="#999999" stroke="#666666" points="176,-302.5 0,-302.5 0,-261.5 176,-261.5 176,-302.5"/>
<text text-anchor="start" x="8" y="-290.5" font-family="Helvetica,sans-Serif" font-size="10.00">wmtk::components::isotropic</text>
<text text-anchor="start" x="8" y="-279.5" font-family="Helvetica,sans-Serif" font-size="10.00">_remeshing::IsotropicRemeshing</text>
<text text-anchor="middle" x="88" y="-268.5" font-family="Helvetica,sans-Serif" font-size="10.00">::load_transfers</text>
</a>
</g>
</g>
<!-- Node2 -->
<g id="Node000002" class="node">
<title>Node2</title>
<g id="a_Node000002"><a xlink:href="namespacewmtk_1_1components_1_1multimesh_1_1utils.html#a223a3e3b3c5ad3157e7e6a53093fd9b5" target="_top" xlink:title=" ">
<polygon fill="white" stroke="#666666" points="593,-346 424,-346 424,-316 593,-316 593,-346"/>
<text text-anchor="start" x="432" y="-334" font-family="Helvetica,sans-Serif" font-size="10.00">wmtk::components::multimesh</text>
<text text-anchor="middle" x="508.5" y="-323" font-family="Helvetica,sans-Serif" font-size="10.00">::utils::create_attribute</text>
</a>
</g>
</g>
<!-- Node1&#45;&gt;Node2 -->
<g id="edge1_Node000001_Node000002" class="edge">
<title>Node1&#45;&gt;Node2</title>
<g id="a_edge1_Node000001_Node000002"><a xlink:title=" ">
<path fill="none" stroke="#63b8ff" d="M164.04,-302.51C179.78,-306.19 196.36,-309.61 212,-312 278.99,-322.24 355.36,-326.98 413.67,-329.16"/>
<polygon fill="#63b8ff" stroke="#63b8ff" points="413.85,-332.66 423.97,-329.52 414.1,-325.67 413.85,-332.66"/>
</a>
</g>
</g>
<!-- Node14 -->
<g id="Node000014" class="node">
<title>Node14</title>
<g id="a_Node000014"><a xlink:href="classwmtk_1_1components_1_1isotropic__remeshing_1_1_isotropic_remeshing.html#ac9f0caa461b9b1a19b2ce916c6ec1570" target="_top" xlink:title=" ">
<polygon fill="white" stroke="#666666" points="388,-302.5 212,-302.5 212,-261.5 388,-261.5 388,-302.5"/>
<text text-anchor="start" x="220" y="-290.5" font-family="Helvetica,sans-Serif" font-size="10.00">wmtk::components::isotropic</text>
<text text-anchor="start" x="220" y="-279.5" font-family="Helvetica,sans-Serif" font-size="10.00">_remeshing::IsotropicRemeshing</text>
<text text-anchor="middle" x="300" y="-268.5" font-family="Helvetica,sans-Serif" font-size="10.00">::get_attribute</text>
</a>
</g>
</g>
<!-- Node1&#45;&gt;Node14 -->
<g id="edge13_Node000001_Node000014" class="edge">
<title>Node1&#45;&gt;Node14</title>
<g id="a_edge13_Node000001_Node000014"><a xlink:title=" ">
<path fill="none" stroke="#63b8ff" d="M176.23,-282C184.57,-282 193.05,-282 201.47,-282"/>
<polygon fill="#63b8ff" stroke="#63b8ff" points="201.7,-285.5 211.7,-282 201.7,-278.5 201.7,-285.5"/>
</a>
</g>
</g>
<!-- Node22 -->
<g id="Node000022" class="node">
<title>Node22</title>
<g id="a_Node000022"><a xlink:href="namespacewmtk_1_1operations_1_1attribute__update.html#acfc9277b9947c423a9b729daa789f6b6" target="_top" xlink:title=" ">
<polygon fill="white" stroke="#666666" points="380.5,-243.5 219.5,-243.5 219.5,-202.5 380.5,-202.5 380.5,-243.5"/>
<text text-anchor="start" x="227.5" y="-231.5" font-family="Helvetica,sans-Serif" font-size="10.00">wmtk::operations::attribute</text>
<text text-anchor="start" x="227.5" y="-220.5" font-family="Helvetica,sans-Serif" font-size="10.00">_update::make_cast_attribute</text>
<text text-anchor="middle" x="300" y="-209.5" font-family="Helvetica,sans-Serif" font-size="10.00">_transfer_strategy</text>
</a>
</g>
</g>
<!-- Node1&#45;&gt;Node22 -->
<g id="edge25_Node000001_Node000022" class="edge">
<title>Node1&#45;&gt;Node22</title>
<g id="a_edge25_Node000001_Node000022"><a xlink:title=" ">
<path fill="none" stroke="#63b8ff" d="M162.15,-261.45C179.53,-256.57 198.2,-251.32 215.98,-246.33"/>
<polygon fill="#63b8ff" stroke="#63b8ff" points="217.07,-249.65 225.75,-243.58 215.18,-242.91 217.07,-249.65"/>
</a>
</g>
</g>
<!-- Node3 -->
<g id="Node000003" class="node">
<title>Node3</title>
<g id="a_Node000003"><a xlink:href="namespacewmtk_1_1components_1_1multimesh_1_1utils_1_1detail.html#a4823307f7929e137bee106cf6c87d9c3" target="_top" xlink:title=" ">
<polygon fill="white" stroke="#666666" points="803.5,-464.5 634.5,-464.5 634.5,-423.5 803.5,-423.5 803.5,-464.5"/>
<text text-anchor="start" x="642.5" y="-452.5" font-family="Helvetica,sans-Serif" font-size="10.00">wmtk::components::multimesh</text>
<text text-anchor="start" x="642.5" y="-441.5" font-family="Helvetica,sans-Serif" font-size="10.00">::utils::detail::create</text>
<text text-anchor="middle" x="719" y="-430.5" font-family="Helvetica,sans-Serif" font-size="10.00">_attribute</text>
</a>
</g>
</g>
<!-- Node2&#45;&gt;Node3 -->
<g id="edge2_Node000002_Node000003" class="edge">
<title>Node2&#45;&gt;Node3</title>
<g id="a_edge2_Node000002_Node000003"><a xlink:title=" ">
<path fill="none" stroke="#63b8ff" d="M527.45,-346.22C549.93,-364.64 590.22,-395.6 629,-415 632.15,-416.57 635.4,-418.09 638.72,-419.55"/>
<polygon fill="#63b8ff" stroke="#63b8ff" points="637.62,-422.88 648.2,-423.49 640.31,-416.42 637.62,-422.88"/>
</a>
</g>
</g>
<!-- Node5 -->
<g id="Node000005" class="node">
<title>Node5</title>
<g id="a_Node000005"><a xlink:href="namespacewmtk_1_1components_1_1multimesh_1_1utils.html#a2efaab47b2efdb004ae28e811d6c04c4" target="_top" xlink:title=" ">
<polygon fill="white" stroke="#666666" points="809,-346 629,-346 629,-316 809,-316 809,-346"/>
<text text-anchor="start" x="637" y="-334" font-family="Helvetica,sans-Serif" font-size="10.00">wmtk::components::multimesh</text>
<text text-anchor="middle" x="719" y="-323" font-family="Helvetica,sans-Serif" font-size="10.00">::utils::decompose_attribute_path</text>
</a>
</g>
</g>
<!-- Node2&#45;&gt;Node5 -->
<g id="edge4_Node000002_Node000005" class="edge">
<title>Node2&#45;&gt;Node5</title>
<g id="a_edge4_Node000002_Node000005"><a xlink:title=" ">
<path fill="none" stroke="#63b8ff" d="M593.1,-331C601.57,-331 610.23,-331 618.84,-331"/>
<polygon fill="#63b8ff" stroke="#63b8ff" points="618.92,-334.5 628.92,-331 618.92,-327.5 618.92,-334.5"/>
</a>
</g>
</g>
<!-- Node6 -->
<g id="Node000006" class="node">
<title>Node6</title>
<g id="a_Node000006"><a xlink:href="structwmtk_1_1components_1_1multimesh_1_1utils_1_1_attribute_description.html#afdb831cdcc1cdc4238a963d0d0ff1fad" target="_top" xlink:title=" ">
<polygon fill="white" stroke="#666666" points="803.5,-405.5 634.5,-405.5 634.5,-364.5 803.5,-364.5 803.5,-405.5"/>
<text text-anchor="start" x="642.5" y="-393.5" font-family="Helvetica,sans-Serif" font-size="10.00">wmtk::components::multimesh</text>
<text text-anchor="start" x="642.5" y="-382.5" font-family="Helvetica,sans-Serif" font-size="10.00">::utils::AttributeDescription</text>
<text text-anchor="middle" x="719" y="-371.5" font-family="Helvetica,sans-Serif" font-size="10.00">::fully_specified</text>
</a>
</g>
</g>
<!-- Node2&#45;&gt;Node6 -->
<g id="edge5_Node000002_Node000006" class="edge">
<title>Node2&#45;&gt;Node6</title>
<g id="a_edge5_Node000002_Node000006"><a xlink:title=" ">
<path fill="none" stroke="#63b8ff" d="M567.58,-346.04C586.61,-350.97 608.22,-356.57 629.01,-361.95"/>
<polygon fill="#63b8ff" stroke="#63b8ff" points="628.25,-365.37 638.81,-364.49 630,-358.59 628.25,-365.37"/>
</a>
</g>
</g>
<!-- Node7 -->
<g id="Node000007" class="node">
<title>Node7</title>
<g id="a_Node000007"><a xlink:href="classwmtk_1_1components_1_1multimesh_1_1_named_multi_mesh.html#a4872fdeb1da1b70569807a0d77c6df52" target="_top" xlink:title=" ">
<polygon fill="white" stroke="#666666" points="803.5,-298 634.5,-298 634.5,-268 803.5,-268 803.5,-298"/>
<text text-anchor="start" x="642.5" y="-286" font-family="Helvetica,sans-Serif" font-size="10.00">wmtk::components::multimesh</text>
<text text-anchor="middle" x="719" y="-275" font-family="Helvetica,sans-Serif" font-size="10.00">::NamedMultiMesh::get_mesh</text>
</a>
</g>
</g>
<!-- Node2&#45;&gt;Node7 -->
<g id="edge6_Node000002_Node000007" class="edge">
<title>Node2&#45;&gt;Node7</title>
<g id="a_edge6_Node000002_Node000007"><a xlink:title=" ">
<path fill="none" stroke="#63b8ff" d="M574.9,-315.94C596.54,-310.96 620.78,-305.38 643.08,-300.25"/>
<polygon fill="#63b8ff" stroke="#63b8ff" points="643.87,-303.66 652.83,-298 642.3,-296.84 643.87,-303.66"/>
</a>
</g>
</g>
<!-- Node12 -->
<g id="Node000012" class="node">
<title>Node12</title>
<g id="a_Node000012"><a xlink:href="structwmtk_1_1components_1_1multimesh_1_1utils_1_1_attribute_description.html#a300d0165aafc5dfdeb96bfce804cdd25" target="_top" xlink:title=" ">
<polygon fill="white" stroke="#666666" points="803.5,-249.5 634.5,-249.5 634.5,-208.5 803.5,-208.5 803.5,-249.5"/>
<text text-anchor="start" x="642.5" y="-237.5" font-family="Helvetica,sans-Serif" font-size="10.00">wmtk::components::multimesh</text>
<text text-anchor="start" x="642.5" y="-226.5" font-family="Helvetica,sans-Serif" font-size="10.00">::utils::AttributeDescription</text>
<text text-anchor="middle" x="719" y="-215.5" font-family="Helvetica,sans-Serif" font-size="10.00">::primitive_type</text>
</a>
</g>
</g>
<!-- Node2&#45;&gt;Node12 -->
<g id="edge11_Node000002_Node000012" class="edge">
<title>Node2&#45;&gt;Node12</title>
<g id="a_edge11_Node000002_Node000012"><a xlink:title=" ">
<path fill="none" stroke="#63b8ff" d="M574.74,-315.93C581.18,-313.15 587.4,-309.87 593,-306 614.66,-291.06 607.6,-274.31 629,-259 631.15,-257.46 633.38,-256 635.67,-254.61"/>
<polygon fill="#63b8ff" stroke="#63b8ff" points="637.73,-257.47 644.81,-249.59 634.36,-251.34 637.73,-257.47"/>
</a>
</g>
</g>
<!-- Node4 -->
<g id="Node000004" class="node">
<title>Node4</title>
<g id="a_Node000004"><a xlink:href="classwmtk_1_1_mesh.html#a26b0600a273bc261624633441e1497cb" target="_top" xlink:title=" ">
<polygon fill="white" stroke="#666666" points="989.5,-459 869.5,-459 869.5,-429 989.5,-429 989.5,-459"/>
<text text-anchor="start" x="877.5" y="-447" font-family="Helvetica,sans-Serif" font-size="10.00">wmtk::Mesh::register</text>
<text text-anchor="middle" x="929.5" y="-436" font-family="Helvetica,sans-Serif" font-size="10.00">_attribute</text>
</a>
</g>
</g>
<!-- Node3&#45;&gt;Node4 -->
<g id="edge3_Node000003_Node000004" class="edge">
<title>Node3&#45;&gt;Node4</title>
<g id="a_edge3_Node000003_Node000004"><a xlink:title=" ">
<path fill="none" stroke="#63b8ff" d="M803.6,-444C821.98,-444 841.24,-444 858.99,-444"/>
<polygon fill="#63b8ff" stroke="#63b8ff" points="859.24,-447.5 869.24,-444 859.24,-440.5 859.24,-447.5"/>
</a>
</g>
</g>
<!-- Node8 -->
<g id="Node000008" class="node">
<title>Node8</title>
<g id="a_Node000008"><a xlink:href="classwmtk_1_1components_1_1multimesh_1_1_named_multi_mesh.html#a0a47aede86bb45377eae74c01d313544" target="_top" xlink:title=" ">
<polygon fill="white" stroke="#666666" points="1014,-298 845,-298 845,-268 1014,-268 1014,-298"/>
<text text-anchor="start" x="853" y="-286" font-family="Helvetica,sans-Serif" font-size="10.00">wmtk::components::multimesh</text>
<text text-anchor="middle" x="929.5" y="-275" font-family="Helvetica,sans-Serif" font-size="10.00">::NamedMultiMesh::get_id</text>
</a>
</g>
</g>
<!-- Node7&#45;&gt;Node8 -->
<g id="edge7_Node000007_Node000008" class="edge">
<title>Node7&#45;&gt;Node8</title>
<g id="a_edge7_Node000007_Node000008"><a xlink:title=" ">
<path fill="none" stroke="#63b8ff" d="M803.6,-283C813.8,-283 824.27,-283 834.6,-283"/>
<polygon fill="#63b8ff" stroke="#63b8ff" points="834.88,-286.5 844.88,-283 834.88,-279.5 834.88,-286.5"/>
</a>
</g>
</g>
<!-- Node9 -->
<g id="Node000009" class="node">
<title>Node9</title>
<g id="a_Node000009"><a xlink:href="namespacewmtk.html#a6a35f11c12436093d26fdd8be6fecc06" target="_top" xlink:title="Retrieves the current logger.">
<polygon fill="white" stroke="#666666" points="1175,-270.5 1094,-270.5 1094,-251.5 1175,-251.5 1175,-270.5"/>
<text text-anchor="middle" x="1134.5" y="-258.5" font-family="Helvetica,sans-Serif" font-size="10.00">wmtk::logger</text>
</a>
</g>
</g>
<!-- Node8&#45;&gt;Node9 -->
<g id="edge8_Node000008_Node000009" class="edge">
<title>Node8&#45;&gt;Node9</title>
<g id="a_edge8_Node000008_Node000009"><a xlink:title=" ">
<path fill="none" stroke="#63b8ff" d="M1014.24,-273.92C1037.78,-271.37 1062.65,-268.68 1083.54,-266.41"/>
<polygon fill="#63b8ff" stroke="#63b8ff" points="1084.2,-269.86 1093.76,-265.31 1083.45,-262.9 1084.2,-269.86"/>
</a>
</g>
</g>
<!-- Node11 -->
<g id="Node000011" class="node">
<title>Node11</title>
<g id="a_Node000011"><a xlink:href="namespacewmtk_1_1components_1_1multimesh_1_1internal.html#a3b2338b45b680494e5501c97baa6f456" target="_top" xlink:title=" ">
<polygon fill="white" stroke="#666666" points="1219,-319 1050,-319 1050,-289 1219,-289 1219,-319"/>
<text text-anchor="start" x="1058" y="-307" font-family="Helvetica,sans-Serif" font-size="10.00">wmtk::components::multimesh</text>
<text text-anchor="middle" x="1134.5" y="-296" font-family="Helvetica,sans-Serif" font-size="10.00">::internal::split_path</text>
</a>
</g>
</g>
<!-- Node8&#45;&gt;Node11 -->
<g id="edge10_Node000008_Node000011" class="edge">
<title>Node8&#45;&gt;Node11</title>
<g id="a_edge10_Node000008_Node000011"><a xlink:title=" ">
<path fill="none" stroke="#63b8ff" d="M1014.24,-291.66C1022.72,-292.54 1031.37,-293.43 1039.94,-294.32"/>
<polygon fill="#63b8ff" stroke="#63b8ff" points="1039.65,-297.81 1049.95,-295.36 1040.37,-290.85 1039.65,-297.81"/>
</a>
</g>
</g>
<!-- Node10 -->
<g id="Node000010" class="node">
<title>Node10</title>
<g id="a_Node000010"><a xlink:href="namespacewmtk.html#a3daa7951a5f8b78cf4600dc047fcc180" target="_top" xlink:title="Setup a logger object to be used by WildmeshToolkit.">
<polygon fill="white" stroke="#666666" points="1356,-270.5 1255,-270.5 1255,-251.5 1356,-251.5 1356,-270.5"/>
<text text-anchor="middle" x="1305.5" y="-258.5" font-family="Helvetica,sans-Serif" font-size="10.00">wmtk::set_logger</text>
</a>
</g>
</g>
<!-- Node9&#45;&gt;Node10 -->
<g id="edge9_Node000009_Node000010" class="edge">
<title>Node9&#45;&gt;Node10</title>
<g id="a_edge9_Node000009_Node000010"><a xlink:title=" ">
<path fill="none" stroke="#63b8ff" d="M1175.12,-261C1195.86,-261 1221.68,-261 1244.78,-261"/>
<polygon fill="#63b8ff" stroke="#63b8ff" points="1244.83,-264.5 1254.83,-261 1244.83,-257.5 1244.83,-264.5"/>
</a>
</g>
</g>
<!-- Node13 -->
<g id="Node000013" class="node">
<title>Node13</title>
<g id="a_Node000013"><a xlink:href="namespacewmtk.html#a3b08a5d7fb42f02c54bae85758b39f59" target="_top" xlink:title="Get the primitive type corresponding to its unique integer id.">
<polygon fill="white" stroke="#666666" points="987.5,-247 871.5,-247 871.5,-217 987.5,-217 987.5,-247"/>
<text text-anchor="start" x="879.5" y="-235" font-family="Helvetica,sans-Serif" font-size="10.00">wmtk::get_primitive</text>
<text text-anchor="middle" x="929.5" y="-224" font-family="Helvetica,sans-Serif" font-size="10.00">_type_from_id</text>
</a>
</g>
</g>
<!-- Node12&#45;&gt;Node13 -->
<g id="edge12_Node000012_Node000013" class="edge">
<title>Node12&#45;&gt;Node13</title>
<g id="a_edge12_Node000012_Node000013"><a xlink:title=" ">
<path fill="none" stroke="#63b8ff" d="M803.6,-230.2C822.82,-230.48 843.01,-230.77 861.42,-231.03"/>
<polygon fill="#63b8ff" stroke="#63b8ff" points="861.39,-234.53 871.44,-231.18 861.49,-227.54 861.39,-234.53"/>
</a>
</g>
</g>
<!-- Node15 -->
<g id="Node000015" class="node">
<title>Node15</title>
<g id="a_Node000015"><a xlink:href="namespacewmtk_1_1components_1_1multimesh_1_1utils.html#a82d42640978a9aa4ba485febac8b68d0" target="_top" xlink:title=" ">
<polygon fill="white" stroke="#666666" points="593,-297 424,-297 424,-267 593,-267 593,-297"/>
<text text-anchor="start" x="432" y="-285" font-family="Helvetica,sans-Serif" font-size="10.00">wmtk::components::multimesh</text>
<text text-anchor="middle" x="508.5" y="-274" font-family="Helvetica,sans-Serif" font-size="10.00">::utils::get_attribute</text>
</a>
</g>
</g>
<!-- Node14&#45;&gt;Node15 -->
<g id="edge14_Node000014_Node000015" class="edge">
<title>Node14&#45;&gt;Node15</title>
<g id="a_edge14_Node000014_Node000015"><a xlink:title=" ">
<path fill="none" stroke="#63b8ff" d="M388.28,-282C396.65,-282 405.17,-282 413.6,-282"/>
<polygon fill="#63b8ff" stroke="#63b8ff" points="413.83,-285.5 423.83,-282 413.83,-278.5 413.83,-285.5"/>
</a>
</g>
</g>
<!-- Node15&#45;&gt;Node5 -->
<g id="edge15_Node000015_Node000005" class="edge">
<title>Node15&#45;&gt;Node5</title>
<g id="a_edge15_Node000015_Node000005"><a xlink:title=" ">
<path fill="none" stroke="#63b8ff" d="M573.47,-297.03C595.89,-302.3 621.24,-308.26 644.38,-313.7"/>
<polygon fill="#63b8ff" stroke="#63b8ff" points="643.61,-317.11 654.15,-315.99 645.21,-310.3 643.61,-317.11"/>
</a>
</g>
</g>
<!-- Node15&#45;&gt;Node7 -->
<g id="edge23_Node000015_Node000007" class="edge">
<title>Node15&#45;&gt;Node7</title>
<g id="a_edge23_Node000015_Node000007"><a xlink:title=" ">
<path fill="none" stroke="#63b8ff" d="M593.1,-282.4C603.3,-282.45 613.77,-282.5 624.1,-282.55"/>
<polygon fill="#63b8ff" stroke="#63b8ff" points="624.36,-286.05 634.38,-282.6 624.39,-279.05 624.36,-286.05"/>
</a>
</g>
</g>
<!-- Node15&#45;&gt;Node12 -->
<g id="edge24_Node000015_Node000012" class="edge">
<title>Node15&#45;&gt;Node12</title>
<g id="a_edge24_Node000015_Node000012"><a xlink:title=" ">
<path fill="none" stroke="#63b8ff" d="M568.69,-266.95C587,-262.3 607.61,-257.06 627.54,-251.99"/>
<polygon fill="#63b8ff" stroke="#63b8ff" points="628.42,-255.38 637.25,-249.53 626.7,-248.6 628.42,-255.38"/>
</a>
</g>
</g>
<!-- Node16 -->
<g id="Node000016" class="node">
<title>Node16</title>
<g id="a_Node000016"><a xlink:href="namespacewmtk_1_1components_1_1multimesh_1_1utils_1_1detail.html#a74ad95cd049405e25bc2b4e5355bdc54" target="_top" xlink:title=" ">
<polygon fill="white" stroke="#666666" points="803.5,-139 634.5,-139 634.5,-109 803.5,-109 803.5,-139"/>
<text text-anchor="start" x="642.5" y="-127" font-family="Helvetica,sans-Serif" font-size="10.00">wmtk::components::multimesh</text>
<text text-anchor="middle" x="719" y="-116" font-family="Helvetica,sans-Serif" font-size="10.00">::utils::detail::get_attribute</text>
</a>
</g>
</g>
<!-- Node15&#45;&gt;Node16 -->
<g id="edge16_Node000015_Node000016" class="edge">
<title>Node15&#45;&gt;Node16</title>
<g id="a_edge16_Node000015_Node000016"><a xlink:title=" ">
<path fill="none" stroke="#63b8ff" d="M557.83,-266.82C570.02,-261.68 582.59,-255.12 593,-247 614.03,-230.61 610.69,-218.38 629,-199 647.65,-179.26 671.25,-159.57 689.46,-145.32"/>
<polygon fill="#63b8ff" stroke="#63b8ff" points="691.64,-148.06 697.42,-139.18 687.36,-142.53 691.64,-148.06"/>
</a>
</g>
</g>
<!-- Node17 -->
<g id="Node000017" class="node">
<title>Node17</title>
<g id="a_Node000017"><a xlink:href="classwmtk_1_1_mesh.html#a335d3c86fd7d291b564a44944be6bf79" target="_top" xlink:title=" ">
<polygon fill="white" stroke="#666666" points="1002.5,-139 856.5,-139 856.5,-109 1002.5,-109 1002.5,-139"/>
<text text-anchor="start" x="864.5" y="-127" font-family="Helvetica,sans-Serif" font-size="10.00">wmtk::Mesh::get_attribute</text>
<text text-anchor="middle" x="929.5" y="-116" font-family="Helvetica,sans-Serif" font-size="10.00">_handle</text>
</a>
</g>
</g>
<!-- Node16&#45;&gt;Node17 -->
<g id="edge17_Node000016_Node000017" class="edge">
<title>Node16&#45;&gt;Node17</title>
<g id="a_edge17_Node000016_Node000017"><a xlink:title=" ">
<path fill="none" stroke="#63b8ff" d="M803.6,-124C817.64,-124 832.2,-124 846.21,-124"/>
<polygon fill="#63b8ff" stroke="#63b8ff" points="846.29,-127.5 856.29,-124 846.29,-120.5 846.29,-127.5"/>
</a>
</g>
</g>
<!-- Node18 -->
<g id="Node000018" class="node">
<title>Node18</title>
<g id="a_Node000018"><a xlink:href="namespacewmtk.html#a5cf45c152e856196bb734c6f48919a24" target="_top" xlink:title="Get a unique integer id corresponding to each primitive type.">
<polygon fill="white" stroke="#666666" points="987.5,-91 871.5,-91 871.5,-61 987.5,-61 987.5,-91"/>
<text text-anchor="start" x="879.5" y="-79" font-family="Helvetica,sans-Serif" font-size="10.00">wmtk::get_primitive</text>
<text text-anchor="middle" x="929.5" y="-68" font-family="Helvetica,sans-Serif" font-size="10.00">_type_id</text>
</a>
</g>
</g>
<!-- Node16&#45;&gt;Node18 -->
<g id="edge18_Node000016_Node000018" class="edge">
<title>Node16&#45;&gt;Node18</title>
<g id="a_edge18_Node000016_Node000018"><a xlink:title=" ">
<path fill="none" stroke="#63b8ff" d="M785.4,-108.94C809.65,-103.36 837.16,-97.03 861.55,-91.41"/>
<polygon fill="#63b8ff" stroke="#63b8ff" points="862.47,-94.79 871.43,-89.14 860.9,-87.97 862.47,-94.79"/>
</a>
</g>
</g>
<!-- Node19 -->
<g id="Node000019" class="node">
<title>Node19</title>
<g id="a_Node000019"><a xlink:href="classwmtk_1_1_mesh.html#a89b735bef9cbf8d5ab955d23f787b70f" target="_top" xlink:title=" ">
<polygon fill="white" stroke="#666666" points="1003,-24.5 856,-24.5 856,-5.5 1003,-5.5 1003,-24.5"/>
<text text-anchor="middle" x="929.5" y="-12.5" font-family="Helvetica,sans-Serif" font-size="10.00">wmtk::Mesh::has_attribute</text>
</a>
</g>
</g>
<!-- Node16&#45;&gt;Node19 -->
<g id="edge19_Node000016_Node000019" class="edge">
<title>Node16&#45;&gt;Node19</title>
<g id="a_edge19_Node000016_Node000019"><a xlink:title=" ">
<path fill="none" stroke="#63b8ff" d="M744.48,-108.87C769.38,-93.73 809.27,-70.14 845,-52 861.51,-43.62 880.33,-35.18 895.92,-28.49"/>
<polygon fill="#63b8ff" stroke="#63b8ff" points="897.32,-31.7 905.16,-24.56 894.58,-25.25 897.32,-31.7"/>
</a>
</g>
</g>
<!-- Node21 -->
<g id="Node000021" class="node">
<title>Node21</title>
<g id="a_Node000021"><a xlink:href="classwmtk_1_1components_1_1multimesh_1_1utils_1_1detail_1_1attribute__missing__error.html#a1fd61a1550a62b7b6ae44e60b1c9c6d8" target="_top" xlink:title=" ">
<polygon fill="white" stroke="#666666" points="1014,-198.5 845,-198.5 845,-157.5 1014,-157.5 1014,-198.5"/>
<text text-anchor="start" x="853" y="-186.5" font-family="Helvetica,sans-Serif" font-size="10.00">wmtk::components::multimesh</text>
<text text-anchor="start" x="853" y="-175.5" font-family="Helvetica,sans-Serif" font-size="10.00">::utils::detail::attribute</text>
<text text-anchor="middle" x="929.5" y="-164.5" font-family="Helvetica,sans-Serif" font-size="10.00">_missing_error::make</text>
</a>
</g>
</g>
<!-- Node16&#45;&gt;Node21 -->
<g id="edge22_Node000016_Node000021" class="edge">
<title>Node16&#45;&gt;Node21</title>
<g id="a_edge22_Node000016_Node000021"><a xlink:title=" ">
<path fill="none" stroke="#63b8ff" d="M778.08,-139.04C797.11,-143.97 818.72,-149.57 839.51,-154.95"/>
<polygon fill="#63b8ff" stroke="#63b8ff" points="838.75,-158.37 849.31,-157.49 840.5,-151.59 838.75,-158.37"/>
</a>
</g>
</g>
<!-- Node19&#45;&gt;Node19 -->
<g id="edge21_Node000019_Node000019" class="edge">
<title>Node19&#45;&gt;Node19</title>
<g id="a_edge21_Node000019_Node000019"><a xlink:title=" ">
<path fill="none" stroke="#63b8ff" d="M898.06,-24.58C882.76,-33.23 893.24,-42.5 929.5,-42.5 954.99,-42.5 967.74,-37.92 967.75,-32.19"/>
<polygon fill="#63b8ff" stroke="#63b8ff" points="970.22,-29.7 960.94,-24.58 965,-34.37 970.22,-29.7"/>
</a>
</g>
</g>
<!-- Node20 -->
<g id="Node000020" class="node">
<title>Node20</title>
<g id="a_Node000020"><a xlink:href="classwmtk_1_1attribute_1_1_attribute_manager.html#a2169001c03d75b77488dba8494038fe5" target="_top" xlink:title=" ">
<polygon fill="white" stroke="#666666" points="1205,-30 1064,-30 1064,0 1205,0 1205,-30"/>
<text text-anchor="start" x="1072" y="-18" font-family="Helvetica,sans-Serif" font-size="10.00">wmtk::attribute::Attribute</text>
<text text-anchor="middle" x="1134.5" y="-7" font-family="Helvetica,sans-Serif" font-size="10.00">Manager::get</text>
</a>
</g>
</g>
<!-- Node19&#45;&gt;Node20 -->
<g id="edge20_Node000019_Node000020" class="edge">
<title>Node19&#45;&gt;Node20</title>
<g id="a_edge20_Node000019_Node000020"><a xlink:title=" ">
<path fill="none" stroke="#63b8ff" d="M1003.21,-15C1019.51,-15 1036.89,-15 1053.47,-15"/>
<polygon fill="#63b8ff" stroke="#63b8ff" points="1053.67,-18.5 1063.67,-15 1053.67,-11.5 1053.67,-18.5"/>
</a>
</g>
</g>
<!-- Node23 -->
<g id="Node000023" class="node">
<title>Node23</title>
<g id="a_Node000023"><a xlink:href="classwmtk_1_1attribute_1_1_mesh_attribute_handle.html#aae37f071e9eab3a1db1aecd118d32b76" target="_top" xlink:title=" ">
<polygon fill="white" stroke="#666666" points="592,-238 425,-238 425,-208 592,-208 592,-238"/>
<text text-anchor="start" x="433" y="-226" font-family="Helvetica,sans-Serif" font-size="10.00">wmtk::attribute::MeshAttribute</text>
<text text-anchor="middle" x="508.5" y="-215" font-family="Helvetica,sans-Serif" font-size="10.00">Handle::handle</text>
</a>
</g>
</g>
<!-- Node22&#45;&gt;Node23 -->
<g id="edge26_Node000022_Node000023" class="edge">
<title>Node22&#45;&gt;Node23</title>
<g id="a_edge26_Node000022_Node000023"><a xlink:title=" ">
<path fill="none" stroke="#63b8ff" d="M380.54,-223C391.79,-223 403.44,-223 414.9,-223"/>
<polygon fill="#63b8ff" stroke="#63b8ff" points="414.92,-226.5 424.92,-223 414.92,-219.5 414.92,-226.5"/>
</a>
</g>
</g>
</g>
</svg>
