<?xml version="1.0" encoding="UTF-8" standalone="no"?>
<!DOCTYPE svg PUBLIC "-//W3C//DTD SVG 1.1//EN"
 "http://www.w3.org/Graphics/SVG/1.1/DTD/svg11.dtd">
<!-- Generated by graphviz version 2.43.0 (0)
 -->
<!-- Title: wmtk::operations::SingleAttributeTransferStrategy::parent_handle Pages: 1 -->
<svg width="372pt" height="108pt"
 viewBox="0.00 0.00 372.00 108.00" xmlns="http://www.w3.org/2000/svg" xmlns:xlink="http://www.w3.org/1999/xlink">
<g id="graph0" class="graph" transform="scale(1 1) rotate(0) translate(4 104)">
<title>wmtk::operations::SingleAttributeTransferStrategy::parent_handle</title>
<!-- Node1 -->
<g id="Node000001" class="node">
<title>Node1</title>
<g id="a_Node000001"><a xlink:title=" ">
<polygon fill="#999999" stroke="#666666" points="364,-70 224,-70 224,-29 364,-29 364,-70"/>
<text text-anchor="start" x="232" y="-58" font-family="Helvetica,sans-Serif" font-size="10.00">wmtk::operations::Single</text>
<text text-anchor="start" x="232" y="-47" font-family="Helvetica,sans-Serif" font-size="10.00">AttributeTransferStrategy</text>
<text text-anchor="middle" x="294" y="-36" font-family="Helvetica,sans-Serif" font-size="10.00">::parent_handle</text>
</a>
</g>
</g>
<!-- Node2 -->
<g id="Node000002" class="node">
<title>Node2</title>
<g id="a_Node000002"><a xlink:href="classwmtk_1_1operations_1_1_single_attribute_transfer_strategy.html#aea41128e318d5a01c6be8b10bef3a9ae" target="_top" xlink:title=" ">
<polygon fill="white" stroke="#666666" points="182,-100 6,-100 6,-59 182,-59 182,-100"/>
<text text-anchor="start" x="14" y="-88" font-family="Helvetica,sans-Serif" font-size="10.00">wmtk::operations::Single</text>
<text text-anchor="start" x="14" y="-77" font-family="Helvetica,sans-Serif" font-size="10.00">AttributeTransferStrategy</text>
<text text-anchor="middle" x="94" y="-66" font-family="Helvetica,sans-Serif" font-size="10.00">::SingleAttributeTransferStrategy</text>
</a>
</g>
</g>
<!-- Node1&#45;&gt;Node2 -->
<g id="edge1_Node000001_Node000002" class="edge">
<title>Node1&#45;&gt;Node2</title>
<g id="a_edge1_Node000001_Node000002"><a xlink:title=" ">
<path fill="none" stroke="#63b8ff" d="M213.58,-61.53C203.3,-63.09 192.72,-64.69 182.31,-66.27"/>
<polygon fill="#63b8ff" stroke="#63b8ff" points="214.39,-64.95 223.75,-59.99 213.34,-58.03 214.39,-64.95"/>
</a>
</g>
</g>
<!-- Node3 -->
<g id="Node000003" class="node">
<title>Node3</title>
<g id="a_Node000003"><a xlink:href="classwmtk_1_1components_1_1mesh__info_1_1simplex_1_1operators_1_1_volume_operator.html#a7b492bd00c5099240b51e64bb9ff6d50" target="_top" xlink:title=" ">
<polygon fill="white" stroke="#666666" points="188,-41 0,-41 0,0 188,0 188,-41"/>
<text text-anchor="start" x="8" y="-29" font-family="Helvetica,sans-Serif" font-size="10.00">wmtk::components::mesh</text>
<text text-anchor="start" x="8" y="-18" font-family="Helvetica,sans-Serif" font-size="10.00">_info::simplex::operators</text>
<text text-anchor="middle" x="94" y="-7" font-family="Helvetica,sans-Serif" font-size="10.00">::VolumeOperator::VolumeOperator</text>
</a>
</g>
</g>
<!-- Node1&#45;&gt;Node3 -->
<g id="edge2_Node000001_Node000003" class="edge">
<title>Node1&#45;&gt;Node3</title>
<g id="a_edge2_Node000001_Node000003"><a xlink:title=" ">
<path fill="none" stroke="#63b8ff" d="M213.66,-37.88C205.29,-36.65 196.73,-35.4 188.22,-34.15"/>
<polygon fill="#63b8ff" stroke="#63b8ff" points="213.35,-41.37 223.75,-39.36 214.36,-34.44 213.35,-41.37"/>
</a>
</g>
</g>
</g>
</svg>
