<?xml version="1.0" encoding="UTF-8" standalone="no"?>
<!DOCTYPE svg PUBLIC "-//W3C//DTD SVG 1.1//EN"
 "http://www.w3.org/Graphics/SVG/1.1/DTD/svg11.dtd">
<!-- Generated by graphviz version 2.43.0 (0)
 -->
<!-- Title: wmtk::operations::CollapseNewAttributeStrategy::CollapseNewAttributeStrategy Pages: 1 -->
<!--zoomable 397 -->

<svg id="main" version="1.1" xmlns="http://www.w3.org/2000/svg" xmlns:xlink="http://www.w3.org/1999/xlink" xml:space="preserve" onload="init(evt)">
<style type="text/css"><![CDATA[
.node, .edge {opacity: 0.7;}
.node.selected, .edge.selected {opacity: 1;}
.edge:hover path { stroke: red; }
.edge:hover polygon { stroke: red; fill: red; }
]]></style>

<defs>
  <circle id="rim" cx="0" cy="0" r="7"/>
  <circle id="rim2" cx="0" cy="0" r="3.5"/>
  <g id="zoomPlus">
    <use xlink:href="#rim" fill="#404040"><set attributeName="fill" to="#808080" begin="zoomplus.mouseover" end="zoomplus.mouseout"/></use>
    <path d="M-4,0h8M0,-4v8" fill="none" stroke="white" stroke-width="1.5" pointer-events="none"/>
  </g>
  <g id="zoomMin">
    <use xlink:href="#rim" fill="#404040"><set attributeName="fill" to="#808080" begin="zoomminus.mouseover" end="zoomminus.mouseout"/></use>
    <path d="M-4,0h8" fill="none" stroke="white" stroke-width="1.5" pointer-events="none"/>
  </g>
  <g id="arrowUp" transform="translate(30 24)">
    <use xlink:href="#rim"/>
    <path pointer-events="none" fill="none" stroke="white" stroke-width="1.5" d="M0,-3.0v7 M-2.5,-0.5L0,-3.0L2.5,-0.5"/>
  </g>
  <g id="arrowRight" transform="rotate(90) translate(36 -43)">
    <use xlink:href="#rim"/>
    <path pointer-events="none" fill="none" stroke="white" stroke-width="1.5" d="M0,-3.0v7 M-2.5,-0.5L0,-3.0L2.5,-0.5"/>
  </g>
  <g id="arrowDown" transform="rotate(180) translate(-30 -48)">
    <use xlink:href="#rim"/>
    <path pointer-events="none" fill="none" stroke="white" stroke-width="1.5" d="M0,-3.0v7 M-2.5,-0.5L0,-3.0L2.5,-0.5"/>
  </g>
  <g id="arrowLeft" transform="rotate(270) translate(-36 17)">
    <use xlink:href="#rim"/>
    <path pointer-events="none" fill="none" stroke="white" stroke-width="1.5" d="M0,-3.0v7 M-2.5,-0.5L0,-3.0L2.5,-0.5"/>
  </g>
  <g id="resetDef">
    <use xlink:href="#rim2" fill="#404040"><set attributeName="fill" to="#808080" begin="reset.mouseover" end="reset.mouseout"/></use>
  </g>
</defs>
<script type="application/ecmascript">
var viewWidth = 1362;
var viewHeight = 397;
var sectionId = 'dynsection-2';
</script>
<script type="application/ecmascript" xlink:href="svg.min.js"/>
<svg id="graph" class="graph">
<g id="viewport">
<title>wmtk::operations::CollapseNewAttributeStrategy::CollapseNewAttributeStrategy</title>
<!-- Node1 -->
<g id="Node000001" class="node">
<title>Node1</title>
<g id="a_Node000001"><a xlink:title=" ">
<polygon fill="#999999" stroke="#666666" points="170,-228.5 0,-228.5 0,-187.5 170,-187.5 170,-228.5"/>
<text text-anchor="start" x="8" y="-216.5" font-family="Helvetica,sans-Serif" font-size="10.00">wmtk::operations::Collapse</text>
<text text-anchor="start" x="8" y="-205.5" font-family="Helvetica,sans-Serif" font-size="10.00">NewAttributeStrategy::Collapse</text>
<text text-anchor="middle" x="85" y="-194.5" font-family="Helvetica,sans-Serif" font-size="10.00">NewAttributeStrategy</text>
</a>
</g>
</g>
<!-- Node2 -->
<g id="Node000002" class="node">
<title>Node2</title>
<g id="a_Node000002"><a xlink:href="classwmtk_1_1attribute_1_1_mesh_attribute_handle.html#a2b86caeb22b007b85b138ebc6b0ed837" target="_top" xlink:title=" ">
<polygon fill="white" stroke="#666666" points="385,-389 218,-389 218,-359 385,-359 385,-389"/>
<text text-anchor="start" x="226" y="-377" font-family="Helvetica,sans-Serif" font-size="10.00">wmtk::attribute::MeshAttribute</text>
<text text-anchor="middle" x="301.5" y="-366" font-family="Helvetica,sans-Serif" font-size="10.00">Handle::holds</text>
</a>
</g>
</g>
<!-- Node1&#45;&gt;Node2 -->
<g id="edge1_Node000001_Node000002" class="edge">
<title>Node1&#45;&gt;Node2</title>
<g id="a_edge1_Node000001_Node000002"><a xlink:title=" ">
<path fill="none" stroke="#63b8ff" d="M97.65,-228.67C116.34,-259.9 156.06,-318.76 206,-350 208.64,-351.65 211.39,-353.19 214.22,-354.62"/>
<polygon fill="#63b8ff" stroke="#63b8ff" points="212.94,-357.89 223.49,-358.85 215.84,-351.52 212.94,-357.89"/>
</a>
</g>
</g>
<!-- Node3 -->
<g id="Node000003" class="node">
<title>Node3</title>
<g id="a_Node000003"><a xlink:href="classwmtk_1_1operations_1_1_collapse_new_attribute_strategy.html#ac0aec2bf1b8744295ad053b663764e09" target="_top" xlink:title=" ">
<polygon fill="white" stroke="#666666" points="397,-341 206,-341 206,-311 397,-311 397,-341"/>
<text text-anchor="start" x="214" y="-329" font-family="Helvetica,sans-Serif" font-size="10.00">wmtk::operations::Collapse</text>
<text text-anchor="middle" x="301.5" y="-318" font-family="Helvetica,sans-Serif" font-size="10.00">NewAttributeStrategy::invalid_state</text>
</a>
</g>
</g>
<!-- Node1&#45;&gt;Node3 -->
<g id="edge2_Node000001_Node000003" class="edge">
<title>Node1&#45;&gt;Node3</title>
<g id="a_edge2_Node000001_Node000003"><a xlink:title=" ">
<path fill="none" stroke="#63b8ff" d="M106.67,-228.67C129.22,-250.07 167.28,-282.98 206,-302 210.04,-303.98 214.26,-305.82 218.58,-307.5"/>
<polygon fill="#63b8ff" stroke="#63b8ff" points="217.57,-310.86 228.17,-310.98 219.96,-304.28 217.57,-310.86"/>
</a>
</g>
</g>
<!-- Node4 -->
<g id="Node000004" class="node">
<title>Node4</title>
<g id="a_Node000004"><a xlink:href="classwmtk_1_1_mesh.html#a531f0c59e0f2c07910ba3a31dd097764" target="_top" xlink:title=" ">
<polygon fill="white" stroke="#666666" points="359.5,-292.5 243.5,-292.5 243.5,-273.5 359.5,-273.5 359.5,-292.5"/>
<text text-anchor="middle" x="301.5" y="-280.5" font-family="Helvetica,sans-Serif" font-size="10.00">wmtk::Mesh::is_free</text>
</a>
</g>
</g>
<!-- Node1&#45;&gt;Node4 -->
<g id="edge3_Node000001_Node000004" class="edge">
<title>Node1&#45;&gt;Node4</title>
<g id="a_edge3_Node000001_Node000004"><a xlink:title=" ">
<path fill="none" stroke="#63b8ff" d="M122.82,-228.51C146.06,-240.68 177.06,-255.54 206,-265 214.74,-267.86 224.1,-270.32 233.4,-272.42"/>
<polygon fill="#63b8ff" stroke="#63b8ff" points="232.93,-275.9 243.44,-274.56 234.39,-269.05 232.93,-275.9"/>
</a>
</g>
</g>
<!-- Node5 -->
<g id="Node000005" class="node">
<title>Node5</title>
<g id="a_Node000005"><a xlink:href="namespacewmtk.html#a6a35f11c12436093d26fdd8be6fecc06" target="_top" xlink:title="Retrieves the current logger.">
<polygon fill="white" stroke="#666666" points="342,-255.5 261,-255.5 261,-236.5 342,-236.5 342,-255.5"/>
<text text-anchor="middle" x="301.5" y="-243.5" font-family="Helvetica,sans-Serif" font-size="10.00">wmtk::logger</text>
</a>
</g>
</g>
<!-- Node1&#45;&gt;Node5 -->
<g id="edge4_Node000001_Node000005" class="edge">
<title>Node1&#45;&gt;Node5</title>
<g id="a_edge4_Node000001_Node000005"><a xlink:title=" ">
<path fill="none" stroke="#63b8ff" d="M170.16,-222.91C197.48,-227.75 226.89,-232.96 250.86,-237.21"/>
<polygon fill="#63b8ff" stroke="#63b8ff" points="250.31,-240.66 260.77,-238.96 251.53,-233.77 250.31,-240.66"/>
</a>
</g>
</g>
<!-- Node7 -->
<g id="Node000007" class="node">
<title>Node7</title>
<g id="a_Node000007"><a xlink:href="classwmtk_1_1attribute_1_1_mesh_attribute_handle.html#a620620d54776b2c5f4f9cebad465cfa7" target="_top" xlink:title=" ">
<polygon fill="white" stroke="#666666" points="815,-197 648,-197 648,-167 815,-167 815,-197"/>
<text text-anchor="start" x="656" y="-185" font-family="Helvetica,sans-Serif" font-size="10.00">wmtk::attribute::MeshAttribute</text>
<text text-anchor="middle" x="731.5" y="-174" font-family="Helvetica,sans-Serif" font-size="10.00">Handle::mesh</text>
</a>
</g>
</g>
<!-- Node1&#45;&gt;Node7 -->
<g id="edge6_Node000001_Node000007" class="edge">
<title>Node1&#45;&gt;Node7</title>
<g id="a_edge6_Node000001_Node000007"><a xlink:title=" ">
<path fill="none" stroke="#63b8ff" d="M170.26,-204.6C290.9,-199.73 512.08,-190.81 637.41,-185.76"/>
<polygon fill="#63b8ff" stroke="#63b8ff" points="637.9,-189.24 647.75,-185.34 637.62,-182.24 637.9,-189.24"/>
</a>
</g>
</g>
<!-- Node8 -->
<g id="Node000008" class="node">
<title>Node8</title>
<g id="a_Node000008"><a xlink:href="classwmtk_1_1operations_1_1_collapse_new_attribute_strategy.html#a643a1eb55b6f91f93055616d59fa0488" target="_top" xlink:title=" ">
<polygon fill="white" stroke="#666666" points="379,-180 224,-180 224,-150 379,-150 379,-180"/>
<text text-anchor="start" x="232" y="-168" font-family="Helvetica,sans-Serif" font-size="10.00">wmtk::operations::Collapse</text>
<text text-anchor="middle" x="301.5" y="-157" font-family="Helvetica,sans-Serif" font-size="10.00">NewAttributeStrategy::mesh</text>
</a>
</g>
</g>
<!-- Node1&#45;&gt;Node8 -->
<g id="edge7_Node000001_Node000008" class="edge">
<title>Node1&#45;&gt;Node8</title>
<g id="a_edge7_Node000001_Node000008"><a xlink:title=" ">
<path fill="none" stroke="#63b8ff" d="M170.16,-191.13C185.04,-188.15 200.54,-185.04 215.44,-182.05"/>
<polygon fill="#63b8ff" stroke="#63b8ff" points="216.53,-185.4 225.64,-180.01 215.15,-178.54 216.53,-185.4"/>
</a>
</g>
</g>
<!-- Node9 -->
<g id="Node000009" class="node">
<title>Node9</title>
<g id="a_Node000009"><a xlink:href="classwmtk_1_1attribute_1_1_mesh_attribute_handle.html#aebd73bfe4d397951350314489834fbe3" target="_top" xlink:title=" ">
<polygon fill="white" stroke="#666666" points="385,-132 218,-132 218,-102 385,-102 385,-132"/>
<text text-anchor="start" x="226" y="-120" font-family="Helvetica,sans-Serif" font-size="10.00">wmtk::attribute::MeshAttribute</text>
<text text-anchor="middle" x="301.5" y="-109" font-family="Helvetica,sans-Serif" font-size="10.00">Handle::name</text>
</a>
</g>
</g>
<!-- Node1&#45;&gt;Node9 -->
<g id="edge8_Node000001_Node000009" class="edge">
<title>Node1&#45;&gt;Node9</title>
<g id="a_edge8_Node000001_Node000009"><a xlink:title=" ">
<path fill="none" stroke="#63b8ff" d="M117.47,-187.43C141.04,-172.78 174.52,-153.53 206,-141 211.39,-138.85 217.03,-136.85 222.76,-134.99"/>
<polygon fill="#63b8ff" stroke="#63b8ff" points="223.93,-138.3 232.45,-132 221.86,-131.61 223.93,-138.3"/>
</a>
</g>
</g>
<!-- Node18 -->
<g id="Node000018" class="node">
<title>Node18</title>
<g id="a_Node000018"><a xlink:href="classwmtk_1_1operations_1_1_collapse_new_attribute_strategy.html#ae9756dc5225d6d12179b4a62fd1d8763" target="_top" xlink:title=" ">
<polygon fill="white" stroke="#666666" points="376.5,-83.5 226.5,-83.5 226.5,-42.5 376.5,-42.5 376.5,-83.5"/>
<text text-anchor="start" x="234.5" y="-71.5" font-family="Helvetica,sans-Serif" font-size="10.00">wmtk::operations::Collapse</text>
<text text-anchor="start" x="234.5" y="-60.5" font-family="Helvetica,sans-Serif" font-size="10.00">NewAttributeStrategy::set</text>
<text text-anchor="middle" x="301.5" y="-49.5" font-family="Helvetica,sans-Serif" font-size="10.00">_strategy</text>
</a>
</g>
</g>
<!-- Node1&#45;&gt;Node18 -->
<g id="edge22_Node000001_Node000018" class="edge">
<title>Node1&#45;&gt;Node18</title>
<g id="a_edge22_Node000001_Node000018"><a xlink:title=" ">
<path fill="none" stroke="#63b8ff" d="M102.5,-187.16C123.82,-161.54 163.32,-118.34 206,-93 209.58,-90.87 213.33,-88.88 217.18,-87.02"/>
<polygon fill="#63b8ff" stroke="#63b8ff" points="218.64,-90.2 226.32,-82.9 215.77,-83.82 218.64,-90.2"/>
</a>
</g>
</g>
<!-- Node19 -->
<g id="Node000019" class="node">
<title>Node19</title>
<g id="a_Node000019"><a xlink:href="classwmtk_1_1_mesh.html#abaf00438d0700358b160e310d69725c9" target="_top" xlink:title=" ">
<polygon fill="white" stroke="#666666" points="386.5,-24.5 216.5,-24.5 216.5,-5.5 386.5,-5.5 386.5,-24.5"/>
<text text-anchor="middle" x="301.5" y="-12.5" font-family="Helvetica,sans-Serif" font-size="10.00">wmtk::Mesh::top_simplex_type</text>
</a>
</g>
</g>
<!-- Node1&#45;&gt;Node19 -->
<g id="edge23_Node000001_Node000019" class="edge">
<title>Node1&#45;&gt;Node19</title>
<g id="a_edge23_Node000001_Node000019"><a xlink:title=" ">
<path fill="none" stroke="#63b8ff" d="M94.08,-187.21C109.68,-150.04 147.63,-72.47 206,-34 209.12,-31.95 212.41,-30.1 215.82,-28.46"/>
<polygon fill="#63b8ff" stroke="#63b8ff" points="217.26,-31.65 225.1,-24.53 214.53,-25.2 217.26,-31.65"/>
</a>
</g>
</g>
<!-- Node6 -->
<g id="Node000006" class="node">
<title>Node6</title>
<g id="a_Node000006"><a xlink:href="namespacewmtk.html#a3daa7951a5f8b78cf4600dc047fcc180" target="_top" xlink:title="Setup a logger object to be used by WildmeshToolkit.">
<polygon fill="white" stroke="#666666" points="573,-255.5 472,-255.5 472,-236.5 573,-236.5 573,-255.5"/>
<text text-anchor="middle" x="522.5" y="-243.5" font-family="Helvetica,sans-Serif" font-size="10.00">wmtk::set_logger</text>
</a>
</g>
</g>
<!-- Node5&#45;&gt;Node6 -->
<g id="edge5_Node000005_Node000006" class="edge">
<title>Node5&#45;&gt;Node6</title>
<g id="a_edge5_Node000005_Node000006"><a xlink:title=" ">
<path fill="none" stroke="#63b8ff" d="M342.16,-246C375.4,-246 423.37,-246 461.33,-246"/>
<polygon fill="#63b8ff" stroke="#63b8ff" points="461.76,-249.5 471.76,-246 461.76,-242.5 461.76,-249.5"/>
</a>
</g>
</g>
<!-- Node9&#45;&gt;Node7 -->
<g id="edge21_Node000009_Node000007" class="edge">
<title>Node9&#45;&gt;Node7</title>
<g id="a_edge21_Node000009_Node000007"><a xlink:title=" ">
<path fill="none" stroke="#63b8ff" d="M373.46,-132.03C392.73,-135.86 413.63,-139.8 433,-143 501.38,-154.28 579.05,-164.37 637.87,-171.46"/>
<polygon fill="#63b8ff" stroke="#63b8ff" points="637.54,-174.95 647.89,-172.66 638.37,-168 637.54,-174.95"/>
</a>
</g>
</g>
<!-- Node10 -->
<g id="Node000010" class="node">
<title>Node10</title>
<g id="a_Node000010"><a xlink:href="classwmtk_1_1attribute_1_1_mesh_attribute_handle.html#a7f60b49ee06ab72a15ba0507ce2a0316" target="_top" xlink:title=" ">
<polygon fill="white" stroke="#666666" points="606,-134 439,-134 439,-104 606,-104 606,-134"/>
<text text-anchor="start" x="447" y="-122" font-family="Helvetica,sans-Serif" font-size="10.00">wmtk::attribute::MeshAttribute</text>
<text text-anchor="middle" x="522.5" y="-111" font-family="Helvetica,sans-Serif" font-size="10.00">Handle::exists</text>
</a>
</g>
</g>
<!-- Node9&#45;&gt;Node10 -->
<g id="edge9_Node000009_Node000010" class="edge">
<title>Node9&#45;&gt;Node10</title>
<g id="a_edge9_Node000009_Node000010"><a xlink:title=" ">
<path fill="none" stroke="#63b8ff" d="M385.29,-117.76C399.43,-117.89 414.19,-118.02 428.57,-118.15"/>
<polygon fill="#63b8ff" stroke="#63b8ff" points="428.92,-121.65 438.95,-118.25 428.98,-114.65 428.92,-121.65"/>
</a>
</g>
</g>
<!-- Node16 -->
<g id="Node000016" class="node">
<title>Node16</title>
<g id="a_Node000016"><a xlink:href="classwmtk_1_1_mesh.html#a9c80d92eb6c801b64d52444a9f98d4d3" target="_top" xlink:title=" ">
<polygon fill="white" stroke="#666666" points="612,-77.5 433,-77.5 433,-58.5 612,-58.5 612,-77.5"/>
<text text-anchor="middle" x="522.5" y="-65.5" font-family="Helvetica,sans-Serif" font-size="10.00">wmtk::Mesh::get_attribute_name</text>
</a>
</g>
</g>
<!-- Node9&#45;&gt;Node16 -->
<g id="edge18_Node000009_Node000016" class="edge">
<title>Node9&#45;&gt;Node16</title>
<g id="a_edge18_Node000009_Node000016"><a xlink:title=" ">
<path fill="none" stroke="#63b8ff" d="M369.7,-101.97C401.66,-94.81 439.32,-86.39 469.13,-79.72"/>
<polygon fill="#63b8ff" stroke="#63b8ff" points="469.92,-83.13 478.92,-77.53 468.39,-76.3 469.92,-83.13"/>
</a>
</g>
</g>
<!-- Node10&#45;&gt;Node7 -->
<g id="edge17_Node000010_Node000007" class="edge">
<title>Node10&#45;&gt;Node7</title>
<g id="a_edge17_Node000010_Node000007"><a xlink:title=" ">
<path fill="none" stroke="#63b8ff" d="M572.82,-134.01C602.38,-143.01 640.17,-154.51 671.33,-163.99"/>
<polygon fill="#63b8ff" stroke="#63b8ff" points="670.62,-167.43 681.2,-167 672.65,-160.74 670.62,-167.43"/>
</a>
</g>
</g>
<!-- Node11 -->
<g id="Node000011" class="node">
<title>Node11</title>
<g id="a_Node000011"><a xlink:href="classwmtk_1_1_mesh.html#a89b735bef9cbf8d5ab955d23f787b70f" target="_top" xlink:title=" ">
<polygon fill="white" stroke="#666666" points="998,-148.5 851,-148.5 851,-129.5 998,-129.5 998,-148.5"/>
<text text-anchor="middle" x="924.5" y="-136.5" font-family="Helvetica,sans-Serif" font-size="10.00">wmtk::Mesh::has_attribute</text>
</a>
</g>
</g>
<!-- Node10&#45;&gt;Node11 -->
<g id="edge10_Node000010_Node000011" class="edge">
<title>Node10&#45;&gt;Node11</title>
<g id="a_edge10_Node000010_Node000011"><a xlink:title=" ">
<path fill="none" stroke="#63b8ff" d="M606.38,-123.14C674.94,-126.57 771.86,-131.42 840.46,-134.85"/>
<polygon fill="#63b8ff" stroke="#63b8ff" points="840.64,-138.36 850.8,-135.36 840.99,-131.37 840.64,-138.36"/>
</a>
</g>
</g>
<!-- Node13 -->
<g id="Node000013" class="node">
<title>Node13</title>
<g id="a_Node000013"><a xlink:href="classwmtk_1_1attribute_1_1_mesh_attribute_handle.html#ad577111f5b1fd05f60fae4b7f0ddb1f6" target="_top" xlink:title="Returns true if handle was initialized.">
<polygon fill="white" stroke="#666666" points="815,-111 648,-111 648,-81 815,-81 815,-111"/>
<text text-anchor="start" x="656" y="-99" font-family="Helvetica,sans-Serif" font-size="10.00">wmtk::attribute::MeshAttribute</text>
<text text-anchor="middle" x="731.5" y="-88" font-family="Helvetica,sans-Serif" font-size="10.00">Handle::is_valid</text>
</a>
</g>
</g>
<!-- Node10&#45;&gt;Node13 -->
<g id="edge13_Node000010_Node000013" class="edge">
<title>Node10&#45;&gt;Node13</title>
<g id="a_edge13_Node000010_Node000013"><a xlink:title=" ">
<path fill="none" stroke="#63b8ff" d="M606.2,-109.81C616.62,-108.65 627.32,-107.46 637.87,-106.29"/>
<polygon fill="#63b8ff" stroke="#63b8ff" points="638.37,-109.76 647.93,-105.17 637.6,-102.8 638.37,-109.76"/>
</a>
</g>
</g>
<!-- Node11&#45;&gt;Node11 -->
<g id="edge12_Node000011_Node000011" class="edge">
<title>Node11&#45;&gt;Node11</title>
<g id="a_edge12_Node000011_Node000011"><a xlink:title=" ">
<path fill="none" stroke="#63b8ff" d="M896.76,-148.58C883.26,-157.23 892.51,-166.5 924.5,-166.5 945.99,-166.5 957.22,-162.32 958.18,-156.95"/>
<polygon fill="#63b8ff" stroke="#63b8ff" points="960.89,-154.71 952.24,-148.58 955.18,-158.76 960.89,-154.71"/>
</a>
</g>
</g>
<!-- Node12 -->
<g id="Node000012" class="node">
<title>Node12</title>
<g id="a_Node000012"><a xlink:href="classwmtk_1_1attribute_1_1_attribute_manager.html#a2169001c03d75b77488dba8494038fe5" target="_top" xlink:title=" ">
<polygon fill="white" stroke="#666666" points="1354,-111 1213,-111 1213,-81 1354,-81 1354,-111"/>
<text text-anchor="start" x="1221" y="-99" font-family="Helvetica,sans-Serif" font-size="10.00">wmtk::attribute::Attribute</text>
<text text-anchor="middle" x="1283.5" y="-88" font-family="Helvetica,sans-Serif" font-size="10.00">Manager::get</text>
</a>
</g>
</g>
<!-- Node11&#45;&gt;Node12 -->
<g id="edge11_Node000011_Node000012" class="edge">
<title>Node11&#45;&gt;Node12</title>
<g id="a_edge11_Node000011_Node000012"><a xlink:title=" ">
<path fill="none" stroke="#63b8ff" d="M998.18,-136.36C1048.58,-133.84 1117.14,-129.02 1177,-120 1188.9,-118.21 1201.45,-115.81 1213.58,-113.22"/>
<polygon fill="#63b8ff" stroke="#63b8ff" points="1214.63,-116.57 1223.65,-111.01 1213.13,-109.74 1214.63,-116.57"/>
</a>
</g>
</g>
<!-- Node14 -->
<g id="Node000014" class="node">
<title>Node14</title>
<g id="a_Node000014"><a xlink:href="classwmtk_1_1_mesh.html#a73ea62ce0428cf64f836f77482a87c40" target="_top" xlink:title=" ">
<polygon fill="white" stroke="#666666" points="985.5,-111 863.5,-111 863.5,-81 985.5,-81 985.5,-111"/>
<text text-anchor="start" x="871.5" y="-99" font-family="Helvetica,sans-Serif" font-size="10.00">wmtk::Mesh::validate</text>
<text text-anchor="middle" x="924.5" y="-88" font-family="Helvetica,sans-Serif" font-size="10.00">_handle</text>
</a>
</g>
</g>
<!-- Node13&#45;&gt;Node14 -->
<g id="edge14_Node000013_Node000014" class="edge">
<title>Node13&#45;&gt;Node14</title>
<g id="a_edge14_Node000013_Node000014"><a xlink:title=" ">
<path fill="none" stroke="#63b8ff" d="M815.16,-96C827.85,-96 840.83,-96 853.21,-96"/>
<polygon fill="#63b8ff" stroke="#63b8ff" points="853.45,-99.5 863.45,-96 853.45,-92.5 853.45,-99.5"/>
</a>
</g>
</g>
<!-- Node15 -->
<g id="Node000015" class="node">
<title>Node15</title>
<g id="a_Node000015"><a xlink:href="classwmtk_1_1attribute_1_1_attribute_manager.html#a3b1a087ab6c03a0f2e6a6a93b87f3147" target="_top" xlink:title=" ">
<polygon fill="white" stroke="#666666" points="1177,-111 1034,-111 1034,-81 1177,-81 1177,-111"/>
<text text-anchor="start" x="1042" y="-99" font-family="Helvetica,sans-Serif" font-size="10.00">wmtk::attribute::Attribute</text>
<text text-anchor="middle" x="1105.5" y="-88" font-family="Helvetica,sans-Serif" font-size="10.00">Manager::validate_handle</text>
</a>
</g>
</g>
<!-- Node14&#45;&gt;Node15 -->
<g id="edge15_Node000014_Node000015" class="edge">
<title>Node14&#45;&gt;Node15</title>
<g id="a_edge15_Node000014_Node000015"><a xlink:title=" ">
<path fill="none" stroke="#63b8ff" d="M985.6,-96C997.78,-96 1010.78,-96 1023.55,-96"/>
<polygon fill="#63b8ff" stroke="#63b8ff" points="1023.71,-99.5 1033.71,-96 1023.71,-92.5 1023.71,-99.5"/>
</a>
</g>
</g>
<!-- Node15&#45;&gt;Node12 -->
<g id="edge16_Node000015_Node000012" class="edge">
<title>Node15&#45;&gt;Node12</title>
<g id="a_edge16_Node000015_Node000012"><a xlink:title=" ">
<path fill="none" stroke="#63b8ff" d="M1177.07,-96C1185.43,-96 1194.02,-96 1202.5,-96"/>
<polygon fill="#63b8ff" stroke="#63b8ff" points="1202.77,-99.5 1212.77,-96 1202.77,-92.5 1202.77,-99.5"/>
</a>
</g>
</g>
<!-- Node17 -->
<g id="Node000017" class="node">
<title>Node17</title>
<g id="a_Node000017"><a xlink:href="classwmtk_1_1attribute_1_1_attribute_manager.html#ab37901c560fe81350c6e2ec34ff3769c" target="_top" xlink:title=" ">
<polygon fill="white" stroke="#666666" points="1176,-63 1035,-63 1035,-33 1176,-33 1176,-63"/>
<text text-anchor="start" x="1043" y="-51" font-family="Helvetica,sans-Serif" font-size="10.00">wmtk::attribute::Attribute</text>
<text text-anchor="middle" x="1105.5" y="-40" font-family="Helvetica,sans-Serif" font-size="10.00">Manager::get_name</text>
</a>
</g>
</g>
<!-- Node16&#45;&gt;Node17 -->
<g id="edge19_Node000016_Node000017" class="edge">
<title>Node16&#45;&gt;Node17</title>
<g id="a_edge19_Node000016_Node000017"><a xlink:title=" ">
<path fill="none" stroke="#63b8ff" d="M612.06,-64.95C724.38,-61.08 916.43,-54.47 1024.51,-50.75"/>
<polygon fill="#63b8ff" stroke="#63b8ff" points="1024.83,-54.24 1034.7,-50.4 1024.59,-47.25 1024.83,-54.24"/>
</a>
</g>
</g>
<!-- Node17&#45;&gt;Node12 -->
<g id="edge20_Node000017_Node000012" class="edge">
<title>Node17&#45;&gt;Node12</title>
<g id="a_edge20_Node000017_Node000012"><a xlink:title=" ">
<path fill="none" stroke="#63b8ff" d="M1161.7,-63.06C1179.48,-67.9 1199.34,-73.32 1217.73,-78.34"/>
<polygon fill="#63b8ff" stroke="#63b8ff" points="1216.92,-81.74 1227.49,-81 1218.76,-74.99 1216.92,-81.74"/>
</a>
</g>
</g>
<!-- Node20 -->
<g id="Node000020" class="node">
<title>Node20</title>
<g id="a_Node000020"><a xlink:href="classwmtk_1_1_mesh.html#a933f681cf24a63b155c9462280385200" target="_top" xlink:title=" ">
<polygon fill="white" stroke="#666666" points="583,-30 462,-30 462,0 583,0 583,-30"/>
<text text-anchor="start" x="470" y="-18" font-family="Helvetica,sans-Serif" font-size="10.00">wmtk::Mesh::top_cell</text>
<text text-anchor="middle" x="522.5" y="-7" font-family="Helvetica,sans-Serif" font-size="10.00">_dimension</text>
</a>
</g>
</g>
<!-- Node19&#45;&gt;Node20 -->
<g id="edge24_Node000019_Node000020" class="edge">
<title>Node19&#45;&gt;Node20</title>
<g id="a_edge24_Node000019_Node000020"><a xlink:title=" ">
<path fill="none" stroke="#63b8ff" d="M386.54,-15C408.01,-15 430.85,-15 451.53,-15"/>
<polygon fill="#63b8ff" stroke="#63b8ff" points="451.8,-18.5 461.8,-15 451.8,-11.5 451.8,-18.5"/>
</a>
</g>
</g>
</g>
</svg>

<g id="navigator" transform="translate(0 0)" fill="#404254">
  <rect fill="#f2f5e9" fill-opacity="0.5" stroke="#606060" stroke-width=".5" x="0" y="0" width="60" height="60"/>
  <use id="zoomplus" xlink:href="#zoomPlus" x="17" y="9" onmousedown="handleZoom(evt,'in')"/>
  <use id="zoomminus" xlink:href="#zoomMin" x="42" y="9" onmousedown="handleZoom(evt,'out')"/>
  <use id="reset" xlink:href="#resetDef" x="30" y="36" onmousedown="handleReset()"/>
   <use id="arrowup" xlink:href="#arrowUp" x="0" y="0" onmousedown="handlePan(0,-1)"/>
  <use id="arrowright" xlink:href="#arrowRight" x="0" y="0" onmousedown="handlePan(1,0)"/>
  <use id="arrowdown" xlink:href="#arrowDown" x="0" y="0" onmousedown="handlePan(0,1)"/>
  <use id="arrowleft" xlink:href="#arrowLeft" x="0" y="0" onmousedown="handlePan(-1,0)"/>
</g>
<svg viewBox="0 0 15 15" width="100%" height="30px" preserveAspectRatio="xMaxYMin meet">
 <g id="arrow_out" transform="scale(0.3 0.3)">
  <a xlink:href="classwmtk_1_1operations_1_1_collapse_new_attribute_strategy_a0a4ee7f8de76cb4cd958357334e8f908_cgraph_org.svg" target="_base">
   <rect id="button" ry="5" rx="5" y="6" x="6" height="38" width="38"
        fill="#f2f5e9" fill-opacity="0.5" stroke="#606060" stroke-width="1.0"/>
   <path id="arrow"
     d="M 11.500037,31.436501 C 11.940474,20.09759 22.043105,11.32322 32.158766,21.979434 L 37.068811,17.246167 C 37.068811,17.246167 37.088388,32 37.088388,32 L 22.160133,31.978069 C 22.160133,31.978069 26.997745,27.140456 26.997745,27.140456 C 18.528582,18.264221 13.291696,25.230495 11.500037,31.436501 z"
     style="fill:#404040;"/>
  </a>
 </g>
</svg>

<style type='text/css'>
<![CDATA[
[data-mouse-over-selected='false'] { opacity: 0.7; }
[data-mouse-over-selected='true']  { opacity: 1.0; }
]]>
</style>
<script type="application/ecmascript"><![CDATA[
document.addEventListener('DOMContentLoaded', (event) => {
  highlightEdges();
  highlightAdjacentNodes();
});
]]></script>
</svg>
