<?xml version="1.0" encoding="UTF-8" standalone="no"?>
<!DOCTYPE svg PUBLIC "-//W3C//DTD SVG 1.1//EN"
 "http://www.w3.org/Graphics/SVG/1.1/DTD/svg11.dtd">
<!-- Generated by graphviz version 2.43.0 (0)
 -->
<!-- Title: wmtk::Mesh::is_multi_mesh_root Pages: 1 -->
<svg width="1790pt" height="773pt"
 viewBox="0.00 0.00 1790.00 772.50" xmlns="http://www.w3.org/2000/svg" xmlns:xlink="http://www.w3.org/1999/xlink">
<g id="graph0" class="graph" transform="scale(1 1) rotate(0) translate(4 768.5)">
<title>wmtk::Mesh::is_multi_mesh_root</title>
<!-- Node1 -->
<g id="Node000001" class="node">
<title>Node1</title>
<g id="a_Node000001"><a xlink:title="return true if this mesh is the root of a multimesh tree">
<polygon fill="#999999" stroke="#666666" points="1782,-429 1660,-429 1660,-399 1782,-399 1782,-429"/>
<text text-anchor="start" x="1668" y="-417" font-family="Helvetica,sans-Serif" font-size="10.00">wmtk::Mesh::is_multi</text>
<text text-anchor="middle" x="1721" y="-406" font-family="Helvetica,sans-Serif" font-size="10.00">_mesh_root</text>
</a>
</g>
</g>
<!-- Node2 -->
<g id="Node000002" class="node">
<title>Node2</title>
<g id="a_Node000002"><a xlink:href="namespacewmtk_1_1components_1_1longest__edge__split.html#a0be451c677a35037d6e49f97356604cb" target="_top" xlink:title="Perform longes&#45;edge split on a mesh.">
<polygon fill="white" stroke="#666666" points="399,-487 229,-487 229,-457 399,-457 399,-487"/>
<text text-anchor="start" x="237" y="-475" font-family="Helvetica,sans-Serif" font-size="10.00">wmtk::components::longest</text>
<text text-anchor="middle" x="314" y="-464" font-family="Helvetica,sans-Serif" font-size="10.00">_edge_split::longest_edge_split</text>
</a>
</g>
</g>
<!-- Node1&#45;&gt;Node2 -->
<g id="edge1_Node000001_Node000002" class="edge">
<title>Node1&#45;&gt;Node2</title>
<g id="a_edge1_Node000001_Node000002"><a xlink:title=" ">
<path fill="none" stroke="#63b8ff" d="M1649.71,-421.72C1576.65,-429.06 1458.96,-439 1357,-439 1357,-439 1357,-439 733.5,-439 617.25,-439 483.4,-451.81 399.01,-461.47"/>
<polygon fill="#63b8ff" stroke="#63b8ff" points="1650.12,-425.19 1659.71,-420.7 1649.41,-418.23 1650.12,-425.19"/>
</a>
</g>
</g>
<!-- Node4 -->
<g id="Node000004" class="node">
<title>Node4</title>
<g id="a_Node000004"><a xlink:href="classwmtk_1_1_mesh.html#abef07f1a5ecafc68883891c07d04e610" target="_top" xlink:title=" ">
<polygon fill="white" stroke="#666666" points="1619.5,-486.5 1497.5,-486.5 1497.5,-467.5 1619.5,-467.5 1619.5,-486.5"/>
<text text-anchor="middle" x="1558.5" y="-474.5" font-family="Helvetica,sans-Serif" font-size="10.00">wmtk::Mesh::map_all</text>
</a>
</g>
</g>
<!-- Node1&#45;&gt;Node4 -->
<g id="edge4_Node000001_Node000004" class="edge">
<title>Node1&#45;&gt;Node4</title>
<g id="a_edge4_Node000001_Node000004"><a xlink:title=" ">
<path fill="none" stroke="#63b8ff" d="M1674.07,-432.98C1658.25,-439.44 1640.38,-446.63 1624,-453 1611.42,-457.9 1597.38,-463.15 1585.61,-467.48"/>
<polygon fill="#63b8ff" stroke="#63b8ff" points="1675.7,-436.1 1683.63,-429.07 1673.05,-429.62 1675.7,-436.1"/>
</a>
</g>
</g>
<!-- Node5 -->
<g id="Node000005" class="node">
<title>Node5</title>
<g id="a_Node000005"><a xlink:href="classwmtk_1_1_mesh.html#abce79ed965e5c4631713fe534f1699a7" target="_top" xlink:title="optimized map from a simplex from this mesh to its direct parent">
<polygon fill="white" stroke="#666666" points="1618,-540 1499,-540 1499,-510 1618,-510 1618,-540"/>
<text text-anchor="start" x="1507" y="-528" font-family="Helvetica,sans-Serif" font-size="10.00">wmtk::Mesh::map_to</text>
<text text-anchor="middle" x="1558.5" y="-517" font-family="Helvetica,sans-Serif" font-size="10.00">_parent</text>
</a>
</g>
</g>
<!-- Node1&#45;&gt;Node5 -->
<g id="edge5_Node000001_Node000005" class="edge">
<title>Node1&#45;&gt;Node5</title>
<g id="a_edge5_Node000001_Node000005"><a xlink:title=" ">
<path fill="none" stroke="#63b8ff" d="M1697.74,-436.24C1679.16,-453.99 1651.38,-478.65 1624,-496 1615.91,-501.13 1606.76,-505.82 1597.95,-509.87"/>
<polygon fill="#63b8ff" stroke="#63b8ff" points="1700.37,-438.58 1705.12,-429.11 1695.5,-433.55 1700.37,-438.58"/>
</a>
</g>
</g>
<!-- Node21 -->
<g id="Node000021" class="node">
<title>Node21</title>
<g id="a_Node000021"><a xlink:href="classwmtk_1_1_mesh.html#a9a1a8863d4694baab3679edfb5c0dccb" target="_top" xlink:title="optimized map from a simplex from this mesh to its direct parent">
<polygon fill="white" stroke="#666666" points="1618,-405 1499,-405 1499,-375 1618,-375 1618,-405"/>
<text text-anchor="start" x="1507" y="-393" font-family="Helvetica,sans-Serif" font-size="10.00">wmtk::Mesh::map_to</text>
<text text-anchor="middle" x="1558.5" y="-382" font-family="Helvetica,sans-Serif" font-size="10.00">_parent_tuple</text>
</a>
</g>
</g>
<!-- Node1&#45;&gt;Node21 -->
<g id="edge22_Node000001_Node000021" class="edge">
<title>Node1&#45;&gt;Node21</title>
<g id="a_edge22_Node000001_Node000021"><a xlink:title=" ">
<path fill="none" stroke="#63b8ff" d="M1649.77,-403.5C1639.23,-401.92 1628.46,-400.31 1618.19,-398.78"/>
<polygon fill="#63b8ff" stroke="#63b8ff" points="1649.37,-406.98 1659.78,-405 1650.41,-400.05 1649.37,-406.98"/>
</a>
</g>
</g>
<!-- Node32 -->
<g id="Node000032" class="node">
<title>Node32</title>
<g id="a_Node000032"><a xlink:href="namespacewmtk_1_1components_1_1shortest__edge__collapse.html#a13c53b8b70fc1b63e7bdb22318139dd9" target="_top" xlink:title="Perform shortest&#45;edge collapse on a triangular surface mesh.">
<polygon fill="white" stroke="#666666" points="392,-137.5 236,-137.5 236,-96.5 392,-96.5 392,-137.5"/>
<text text-anchor="start" x="244" y="-125.5" font-family="Helvetica,sans-Serif" font-size="10.00">wmtk::components::shortest</text>
<text text-anchor="start" x="244" y="-114.5" font-family="Helvetica,sans-Serif" font-size="10.00">_edge_collapse::shortest</text>
<text text-anchor="middle" x="314" y="-103.5" font-family="Helvetica,sans-Serif" font-size="10.00">_edge_collapse</text>
</a>
</g>
</g>
<!-- Node1&#45;&gt;Node32 -->
<g id="edge54_Node000001_Node000032" class="edge">
<title>Node1&#45;&gt;Node32</title>
<g id="a_edge54_Node000001_Node000032"><a xlink:title=" ">
<path fill="none" stroke="#63b8ff" d="M1689.06,-393.23C1628.24,-354.47 1487.62,-275 1357,-275 1357,-275 1357,-275 733.5,-275 656.61,-275 448.31,-180.48 357.87,-137.66"/>
<polygon fill="#63b8ff" stroke="#63b8ff" points="1687.49,-396.38 1697.79,-398.86 1691.29,-390.5 1687.49,-396.38"/>
</a>
</g>
</g>
<!-- Node42 -->
<g id="Node000042" class="node">
<title>Node42</title>
<g id="a_Node000042"><a xlink:href="classwmtk_1_1_mesh.html#a518b2e0ed7a63885d5b1dc43523de3a4" target="_top" xlink:title=" ">
<polygon fill="white" stroke="#666666" points="1624,-247 1493,-247 1493,-217 1624,-217 1624,-247"/>
<text text-anchor="start" x="1501" y="-235" font-family="Helvetica,sans-Serif" font-size="10.00">wmtk::Mesh::mappable</text>
<text text-anchor="middle" x="1558.5" y="-224" font-family="Helvetica,sans-Serif" font-size="10.00">_meshes</text>
</a>
</g>
</g>
<!-- Node1&#45;&gt;Node42 -->
<g id="edge53_Node000001_Node000042" class="edge">
<title>Node1&#45;&gt;Node42</title>
<g id="a_edge53_Node000001_Node000042"><a xlink:title=" ">
<path fill="none" stroke="#63b8ff" d="M1710.11,-389.54C1695.63,-356.45 1665.79,-297.39 1624,-261 1617.7,-255.52 1610.2,-250.9 1602.58,-247.08"/>
<polygon fill="#63b8ff" stroke="#63b8ff" points="1706.96,-391.09 1714.1,-398.92 1713.4,-388.35 1706.96,-391.09"/>
</a>
</g>
</g>
<!-- Node2&#45;&gt;Node2 -->
<g id="edge3_Node000002_Node000002" class="edge">
<title>Node2&#45;&gt;Node2</title>
<g id="a_edge3_Node000002_Node000002"><a xlink:title=" ">
<path fill="none" stroke="#63b8ff" d="M351.81,-497.6C346.64,-501.97 334.04,-505 314,-505 280.25,-505 267.59,-496.41 276.03,-487.28"/>
<polygon fill="#63b8ff" stroke="#63b8ff" points="355.31,-497.33 351.97,-487.28 348.31,-497.22 355.31,-497.33"/>
</a>
</g>
</g>
<!-- Node3 -->
<g id="Node000003" class="node">
<title>Node3</title>
<g id="a_Node000003"><a xlink:href="namespacewmtk_1_1components_1_1longest__edge__split.html#a91cd0e6f904d4c6d1e0000504cc0a257" target="_top" xlink:title="Perform longes&#45;edge split on a mesh.">
<polygon fill="white" stroke="#666666" points="174.5,-487 4.5,-487 4.5,-457 174.5,-457 174.5,-487"/>
<text text-anchor="start" x="12.5" y="-475" font-family="Helvetica,sans-Serif" font-size="10.00">wmtk::components::longest</text>
<text text-anchor="middle" x="89.5" y="-464" font-family="Helvetica,sans-Serif" font-size="10.00">_edge_split::longest_edge_split</text>
</a>
</g>
</g>
<!-- Node2&#45;&gt;Node3 -->
<g id="edge2_Node000002_Node000003" class="edge">
<title>Node2&#45;&gt;Node3</title>
<g id="a_edge2_Node000002_Node000003"><a xlink:title=" ">
<path fill="none" stroke="#63b8ff" d="M218.82,-472C204.18,-472 189.14,-472 174.74,-472"/>
<polygon fill="#63b8ff" stroke="#63b8ff" points="218.88,-475.5 228.88,-472 218.88,-468.5 218.88,-475.5"/>
</a>
</g>
</g>
<!-- Node6 -->
<g id="Node000006" class="node">
<title>Node6</title>
<g id="a_Node000006"><a xlink:href="classwmtk_1_1invariants_1_1_fusion_edge_invariant.html#abb8894b188e06d51bad0c0df062b37fe" target="_top" xlink:title=" ">
<polygon fill="white" stroke="#666666" points="1424.5,-583 1287.5,-583 1287.5,-553 1424.5,-553 1424.5,-583"/>
<text text-anchor="start" x="1295.5" y="-571" font-family="Helvetica,sans-Serif" font-size="10.00">wmtk::invariants::Fusion</text>
<text text-anchor="middle" x="1356" y="-560" font-family="Helvetica,sans-Serif" font-size="10.00">EdgeInvariant::before</text>
</a>
</g>
</g>
<!-- Node5&#45;&gt;Node6 -->
<g id="edge6_Node000005_Node000006" class="edge">
<title>Node5&#45;&gt;Node6</title>
<g id="a_edge6_Node000005_Node000006"><a xlink:title=" ">
<path fill="none" stroke="#63b8ff" d="M1488.97,-539.7C1468.23,-544.14 1445.48,-549.02 1424.79,-553.46"/>
<polygon fill="#63b8ff" stroke="#63b8ff" points="1489.92,-543.07 1498.97,-537.55 1488.46,-536.23 1489.92,-543.07"/>
</a>
</g>
</g>
<!-- Node7 -->
<g id="Node000007" class="node">
<title>Node7</title>
<g id="a_Node000007"><a xlink:href="classwmtk_1_1components_1_1internal_1_1_multi_mesh_from_tag.html#a00b7df05e0cd44c1a2d4e6ee39dbaacf" target="_top" xlink:title="Create the adjacency (stored as attribute) of the substructure.">
<polygon fill="white" stroke="#666666" points="1214,-561.5 1060,-561.5 1060,-520.5 1214,-520.5 1214,-561.5"/>
<text text-anchor="start" x="1068" y="-549.5" font-family="Helvetica,sans-Serif" font-size="10.00">wmtk::components::internal</text>
<text text-anchor="start" x="1068" y="-538.5" font-family="Helvetica,sans-Serif" font-size="10.00">::MultiMeshFromTag::build</text>
<text text-anchor="middle" x="1137" y="-527.5" font-family="Helvetica,sans-Serif" font-size="10.00">_adjacency_matrix</text>
</a>
</g>
</g>
<!-- Node5&#45;&gt;Node7 -->
<g id="edge7_Node000005_Node000007" class="edge">
<title>Node5&#45;&gt;Node7</title>
<g id="a_edge7_Node000005_Node000007"><a xlink:title=" ">
<path fill="none" stroke="#63b8ff" d="M1488.38,-527.64C1412.88,-530.52 1292.3,-535.12 1214.13,-538.1"/>
<polygon fill="#63b8ff" stroke="#63b8ff" points="1488.87,-531.12 1498.73,-527.24 1488.6,-524.13 1488.87,-531.12"/>
</a>
</g>
</g>
<!-- Node18 -->
<g id="Node000018" class="node">
<title>Node18</title>
<g id="a_Node000018"><a xlink:href="classwmtk_1_1operations_1_1_a_m_i_p_s_optimization_smoothing_periodic.html#a86df18fe3713cb41dca1687487dea61b" target="_top" xlink:title="returns an empty vector in case of failure">
<polygon fill="white" stroke="#666666" points="1457,-497 1255,-497 1255,-467 1457,-467 1457,-497"/>
<text text-anchor="start" x="1263" y="-485" font-family="Helvetica,sans-Serif" font-size="10.00">wmtk::operations::AMIPSOptimization</text>
<text text-anchor="middle" x="1356" y="-474" font-family="Helvetica,sans-Serif" font-size="10.00">SmoothingPeriodic::execute</text>
</a>
</g>
</g>
<!-- Node5&#45;&gt;Node18 -->
<g id="edge18_Node000005_Node000018" class="edge">
<title>Node5&#45;&gt;Node18</title>
<g id="a_edge18_Node000005_Node000018"><a xlink:title=" ">
<path fill="none" stroke="#63b8ff" d="M1489,-510.31C1468.97,-506.01 1447.07,-501.32 1426.95,-497"/>
<polygon fill="#63b8ff" stroke="#63b8ff" points="1488.46,-513.77 1498.97,-512.45 1489.92,-506.93 1488.46,-513.77"/>
</a>
</g>
</g>
<!-- Node19 -->
<g id="Node000019" class="node">
<title>Node19</title>
<g id="a_Node000019"><a xlink:href="classwmtk_1_1components_1_1internal_1_1_multi_mesh_from_tag.html#a5c6d50173da15e964b0f1dc6367858e6" target="_top" xlink:title="Get tuples with different global_cid that all represent simplex(t_in, ptype) and are in the same tag&#45;...">
<polygon fill="white" stroke="#666666" points="1433,-642.5 1279,-642.5 1279,-601.5 1433,-601.5 1433,-642.5"/>
<text text-anchor="start" x="1287" y="-630.5" font-family="Helvetica,sans-Serif" font-size="10.00">wmtk::components::internal</text>
<text text-anchor="start" x="1287" y="-619.5" font-family="Helvetica,sans-Serif" font-size="10.00">::MultiMeshFromTag::get</text>
<text text-anchor="middle" x="1356" y="-608.5" font-family="Helvetica,sans-Serif" font-size="10.00">_connected_region</text>
</a>
</g>
</g>
<!-- Node5&#45;&gt;Node19 -->
<g id="edge19_Node000005_Node000019" class="edge">
<title>Node5&#45;&gt;Node19</title>
<g id="a_edge19_Node000005_Node000019"><a xlink:title=" ">
<path fill="none" stroke="#63b8ff" d="M1530.4,-546.3C1510.89,-560.8 1483.45,-579.56 1457,-592 1449.46,-595.55 1441.39,-598.79 1433.24,-601.72"/>
<polygon fill="#63b8ff" stroke="#63b8ff" points="1532.64,-548.99 1538.51,-540.17 1528.42,-543.41 1532.64,-548.99"/>
</a>
</g>
</g>
<!-- Node8 -->
<g id="Node000008" class="node">
<title>Node8</title>
<g id="a_Node000008"><a xlink:href="classwmtk_1_1components_1_1internal_1_1_multi_mesh_from_tag.html#a96647e9413f2b7e13dd17f02cf29b12d" target="_top" xlink:title="Create a manifold mesh from the substructure.">
<polygon fill="white" stroke="#666666" points="1019,-636.5 855,-636.5 855,-595.5 1019,-595.5 1019,-636.5"/>
<text text-anchor="start" x="863" y="-624.5" font-family="Helvetica,sans-Serif" font-size="10.00">wmtk::components::internal</text>
<text text-anchor="start" x="863" y="-613.5" font-family="Helvetica,sans-Serif" font-size="10.00">::MultiMeshFromTag::compute</text>
<text text-anchor="middle" x="937" y="-602.5" font-family="Helvetica,sans-Serif" font-size="10.00">_substructure_mesh</text>
</a>
</g>
</g>
<!-- Node7&#45;&gt;Node8 -->
<g id="edge8_Node000007_Node000008" class="edge">
<title>Node7&#45;&gt;Node8</title>
<g id="a_edge8_Node000007_Node000008"><a xlink:title=" ">
<path fill="none" stroke="#63b8ff" d="M1071.97,-565.25C1046.24,-575 1016.9,-586.11 992.24,-595.45"/>
<polygon fill="#63b8ff" stroke="#63b8ff" points="1073.52,-568.41 1081.63,-561.59 1071.04,-561.86 1073.52,-568.41"/>
</a>
</g>
</g>
<!-- Node9 -->
<g id="Node000009" class="node">
<title>Node9</title>
<g id="a_Node000009"><a xlink:href="namespacewmtk_1_1components.html#ac309092566399cef68679a1bb8107d1e" target="_top" xlink:title="Generate a multi&#45;mesh from a mesh with a tag that represents the substructure, the mesh is changed.">
<polygon fill="white" stroke="#666666" points="819,-503 650,-503 650,-473 819,-473 819,-503"/>
<text text-anchor="start" x="658" y="-491" font-family="Helvetica,sans-Serif" font-size="10.00">wmtk::components::multimesh</text>
<text text-anchor="middle" x="734.5" y="-480" font-family="Helvetica,sans-Serif" font-size="10.00">_from_tag</text>
</a>
</g>
</g>
<!-- Node8&#45;&gt;Node9 -->
<g id="edge9_Node000008_Node000009" class="edge">
<title>Node8&#45;&gt;Node9</title>
<g id="a_edge9_Node000008_Node000009"><a xlink:title=" ">
<path fill="none" stroke="#63b8ff" d="M910.71,-587.79C888.58,-564.68 854.51,-532.69 819,-513 812.12,-509.18 804.59,-505.89 796.95,-503.05"/>
<polygon fill="#63b8ff" stroke="#63b8ff" points="908.34,-590.38 917.74,-595.26 913.43,-585.58 908.34,-590.38"/>
</a>
</g>
</g>
<!-- Node11 -->
<g id="Node000011" class="node">
<title>Node11</title>
<g id="a_Node000011"><a xlink:href="namespacewmtk_1_1components.html#a4166e4880553cfacbf79ac3515a637cd" target="_top" xlink:title=" ">
<polygon fill="white" stroke="#666666" points="167,-406 12,-406 12,-376 167,-376 167,-406"/>
<text text-anchor="start" x="20" y="-394" font-family="Helvetica,sans-Serif" font-size="10.00">wmtk::components::periodic</text>
<text text-anchor="middle" x="89.5" y="-383" font-family="Helvetica,sans-Serif" font-size="10.00">_optimization</text>
</a>
</g>
</g>
<!-- Node8&#45;&gt;Node11 -->
<g id="edge11_Node000008_Node000011" class="edge">
<title>Node8&#45;&gt;Node11</title>
<g id="a_edge11_Node000008_Node000011"><a xlink:title=" ">
<path fill="none" stroke="#63b8ff" d="M844.78,-628.92C672.53,-651.16 308.25,-687.3 215,-610 158.22,-562.93 221.17,-508.51 179,-448 166.04,-429.41 144.87,-415.45 126.49,-406.01"/>
<polygon fill="#63b8ff" stroke="#63b8ff" points="845.38,-632.37 854.85,-627.6 844.48,-625.43 845.38,-632.37"/>
</a>
</g>
</g>
<!-- Node12 -->
<g id="Node000012" class="node">
<title>Node12</title>
<g id="a_Node000012"><a xlink:href="test__component__multimesh__from__tag_8cpp.html#a2231774bf0d53fb5f6c1b34753afb255" target="_top" xlink:title=" ">
<polygon fill="white" stroke="#666666" points="770,-764.5 699,-764.5 699,-745.5 770,-745.5 770,-764.5"/>
<text text-anchor="middle" x="734.5" y="-752.5" font-family="Helvetica,sans-Serif" font-size="10.00">TEST_CASE</text>
</a>
</g>
</g>
<!-- Node8&#45;&gt;Node12 -->
<g id="edge12_Node000008_Node000012" class="edge">
<title>Node8&#45;&gt;Node12</title>
<g id="a_edge12_Node000008_Node000012"><a xlink:title=" ">
<path fill="none" stroke="#63b8ff" d="M916.03,-644.97C895.13,-672.96 859.74,-714.36 819,-737 804.09,-745.28 785.73,-749.76 770.02,-752.17"/>
<polygon fill="#63b8ff" stroke="#63b8ff" points="918.96,-646.88 922.03,-636.74 913.31,-642.75 918.96,-646.88"/>
</a>
</g>
</g>
<!-- Node13 -->
<g id="Node000013" class="node">
<title>Node13</title>
<g id="a_Node000013"><a xlink:href="test__component__multimesh__from__tag_8cpp.html#a9a31cb828b93e2ddcf0a5063d4d1c9e6" target="_top" xlink:title=" ">
<polygon fill="white" stroke="#666666" points="770,-727.5 699,-727.5 699,-708.5 770,-708.5 770,-727.5"/>
<text text-anchor="middle" x="734.5" y="-715.5" font-family="Helvetica,sans-Serif" font-size="10.00">TEST_CASE</text>
</a>
</g>
</g>
<!-- Node8&#45;&gt;Node13 -->
<g id="edge13_Node000008_Node000013" class="edge">
<title>Node8&#45;&gt;Node13</title>
<g id="a_edge13_Node000008_Node000013"><a xlink:title=" ">
<path fill="none" stroke="#63b8ff" d="M905.33,-643.44C882.91,-662.07 850.96,-685.82 819,-700 803.68,-706.79 785.62,-711.1 770.22,-713.79"/>
<polygon fill="#63b8ff" stroke="#63b8ff" points="907.77,-645.96 913.14,-636.83 903.25,-640.62 907.77,-645.96"/>
</a>
</g>
</g>
<!-- Node14 -->
<g id="Node000014" class="node">
<title>Node14</title>
<g id="a_Node000014"><a xlink:href="test__component__multimesh__from__tag_8cpp.html#a7a8f66a094907f369fa10876691f42f9" target="_top" xlink:title=" ">
<polygon fill="white" stroke="#666666" points="770,-690.5 699,-690.5 699,-671.5 770,-671.5 770,-690.5"/>
<text text-anchor="middle" x="734.5" y="-678.5" font-family="Helvetica,sans-Serif" font-size="10.00">TEST_CASE</text>
</a>
</g>
</g>
<!-- Node8&#45;&gt;Node14 -->
<g id="edge14_Node000008_Node000014" class="edge">
<title>Node8&#45;&gt;Node14</title>
<g id="a_edge14_Node000008_Node000014"><a xlink:title=" ">
<path fill="none" stroke="#63b8ff" d="M869.81,-639.93C853.28,-645.71 835.54,-651.73 819,-657 803.05,-662.08 785.23,-667.27 770.17,-671.52"/>
<polygon fill="#63b8ff" stroke="#63b8ff" points="871.11,-643.19 879.39,-636.57 868.79,-636.58 871.11,-643.19"/>
</a>
</g>
</g>
<!-- Node15 -->
<g id="Node000015" class="node">
<title>Node15</title>
<g id="a_Node000015"><a xlink:href="test__component__multimesh__from__tag_8cpp.html#af55ce8249624ce4d6a3feaad760949a6" target="_top" xlink:title=" ">
<polygon fill="white" stroke="#666666" points="770,-614.5 699,-614.5 699,-595.5 770,-595.5 770,-614.5"/>
<text text-anchor="middle" x="734.5" y="-602.5" font-family="Helvetica,sans-Serif" font-size="10.00">TEST_CASE</text>
</a>
</g>
</g>
<!-- Node8&#45;&gt;Node15 -->
<g id="edge15_Node000008_Node000015" class="edge">
<title>Node8&#45;&gt;Node15</title>
<g id="a_edge15_Node000008_Node000015"><a xlink:title=" ">
<path fill="none" stroke="#63b8ff" d="M844.63,-610.99C818.11,-609.53 790.76,-608.03 770.07,-606.9"/>
<polygon fill="#63b8ff" stroke="#63b8ff" points="844.56,-614.49 854.74,-611.54 844.94,-607.5 844.56,-614.49"/>
</a>
</g>
</g>
<!-- Node16 -->
<g id="Node000016" class="node">
<title>Node16</title>
<g id="a_Node000016"><a xlink:href="test__component__multimesh__from__tag_8cpp.html#a18cd3d411cfadc472201c20662d62869" target="_top" xlink:title=" ">
<polygon fill="white" stroke="#666666" points="770,-577.5 699,-577.5 699,-558.5 770,-558.5 770,-577.5"/>
<text text-anchor="middle" x="734.5" y="-565.5" font-family="Helvetica,sans-Serif" font-size="10.00">TEST_CASE</text>
</a>
</g>
</g>
<!-- Node8&#45;&gt;Node16 -->
<g id="edge16_Node000008_Node000016" class="edge">
<title>Node8&#45;&gt;Node16</title>
<g id="a_edge16_Node000008_Node000016"><a xlink:title=" ">
<path fill="none" stroke="#63b8ff" d="M844.97,-593.26C836.2,-591.12 827.43,-589 819,-587 802.94,-583.18 785.11,-579.11 770.07,-575.71"/>
<polygon fill="#63b8ff" stroke="#63b8ff" points="844.31,-596.7 854.86,-595.67 845.97,-589.9 844.31,-596.7"/>
</a>
</g>
</g>
<!-- Node17 -->
<g id="Node000017" class="node">
<title>Node17</title>
<g id="a_Node000017"><a xlink:href="test__component__multimesh__from__tag_8cpp.html#a4caad3dd8a6355f2ca66fdb0b0af7999" target="_top" xlink:title=" ">
<polygon fill="white" stroke="#666666" points="770,-540.5 699,-540.5 699,-521.5 770,-521.5 770,-540.5"/>
<text text-anchor="middle" x="734.5" y="-528.5" font-family="Helvetica,sans-Serif" font-size="10.00">TEST_CASE</text>
</a>
</g>
</g>
<!-- Node8&#45;&gt;Node17 -->
<g id="edge17_Node000008_Node000017" class="edge">
<title>Node8&#45;&gt;Node17</title>
<g id="a_edge17_Node000008_Node000017"><a xlink:title=" ">
<path fill="none" stroke="#63b8ff" d="M896.7,-590.03C874.64,-576.44 846.15,-560.49 819,-550 803.47,-544 785.54,-539.61 770.29,-536.58"/>
<polygon fill="#63b8ff" stroke="#63b8ff" points="895.1,-593.16 905.44,-595.49 898.81,-587.22 895.1,-593.16"/>
</a>
</g>
</g>
<!-- Node10 -->
<g id="Node000010" class="node">
<title>Node10</title>
<g id="a_Node000010"><a xlink:href="test__component__multimesh__from__tag_8cpp.html#a2b0208caf4b963a36a43604c3e7cf34a" target="_top" xlink:title=" ">
<polygon fill="white" stroke="#666666" points="567,-586.5 496,-586.5 496,-567.5 567,-567.5 567,-586.5"/>
<text text-anchor="middle" x="531.5" y="-574.5" font-family="Helvetica,sans-Serif" font-size="10.00">TEST_CASE</text>
</a>
</g>
</g>
<!-- Node9&#45;&gt;Node10 -->
<g id="edge10_Node000009_Node000010" class="edge">
<title>Node9&#45;&gt;Node10</title>
<g id="a_edge10_Node000009_Node000010"><a xlink:title=" ">
<path fill="none" stroke="#63b8ff" d="M659.66,-507.28C656.31,-509.03 653.07,-510.93 650,-513 628.77,-527.32 635.67,-544.34 614,-558 600.11,-566.76 582.61,-571.48 567.38,-574.03"/>
<polygon fill="#63b8ff" stroke="#63b8ff" points="661.2,-510.43 668.77,-503.01 658.23,-504.09 661.2,-510.43"/>
</a>
</g>
</g>
<!-- Node20 -->
<g id="Node000020" class="node">
<title>Node20</title>
<g id="a_Node000020"><a xlink:href="classwmtk_1_1components_1_1internal_1_1_multi_mesh_from_tag.html#afb744eb2b5ec264a9a682ccfd3f8dfcb" target="_top" xlink:title="Compute the ids of the manifold substructure.">
<polygon fill="white" stroke="#666666" points="1219,-639.5 1055,-639.5 1055,-598.5 1219,-598.5 1219,-639.5"/>
<text text-anchor="start" x="1063" y="-627.5" font-family="Helvetica,sans-Serif" font-size="10.00">wmtk::components::internal</text>
<text text-anchor="start" x="1063" y="-616.5" font-family="Helvetica,sans-Serif" font-size="10.00">::MultiMeshFromTag::compute</text>
<text text-anchor="middle" x="1137" y="-605.5" font-family="Helvetica,sans-Serif" font-size="10.00">_substructure_ids</text>
</a>
</g>
</g>
<!-- Node19&#45;&gt;Node20 -->
<g id="edge20_Node000019_Node000020" class="edge">
<title>Node19&#45;&gt;Node20</title>
<g id="a_edge20_Node000019_Node000020"><a xlink:title=" ">
<path fill="none" stroke="#63b8ff" d="M1268.73,-620.81C1252.39,-620.58 1235.35,-620.35 1219.18,-620.12"/>
<polygon fill="#63b8ff" stroke="#63b8ff" points="1268.75,-624.31 1278.8,-620.95 1268.85,-617.31 1268.75,-624.31"/>
</a>
</g>
</g>
<!-- Node20&#45;&gt;Node8 -->
<g id="edge21_Node000020_Node000008" class="edge">
<title>Node20&#45;&gt;Node8</title>
<g id="a_edge21_Node000020_Node000008"><a xlink:title=" ">
<path fill="none" stroke="#63b8ff" d="M1044.64,-617.62C1036.18,-617.49 1027.65,-617.36 1019.3,-617.23"/>
<polygon fill="#63b8ff" stroke="#63b8ff" points="1044.84,-621.12 1054.89,-617.77 1044.95,-614.12 1044.84,-621.12"/>
</a>
</g>
</g>
<!-- Node22 -->
<g id="Node000022" class="node">
<title>Node22</title>
<g id="a_Node000022"><a xlink:href="classwmtk_1_1multimesh_1_1utils_1_1_map_validator.html#a3904ef0aa73b2aa3b9f6c054686bf17f" target="_top" xlink:title=" ">
<polygon fill="white" stroke="#666666" points="1438,-410.5 1274,-410.5 1274,-369.5 1438,-369.5 1438,-410.5"/>
<text text-anchor="start" x="1282" y="-398.5" font-family="Helvetica,sans-Serif" font-size="10.00">wmtk::multimesh::utils</text>
<text text-anchor="start" x="1282" y="-387.5" font-family="Helvetica,sans-Serif" font-size="10.00">::MapValidator::check</text>
<text text-anchor="middle" x="1356" y="-376.5" font-family="Helvetica,sans-Serif" font-size="10.00">_child_switch_homomorphism</text>
</a>
</g>
</g>
<!-- Node21&#45;&gt;Node22 -->
<g id="edge23_Node000021_Node000022" class="edge">
<title>Node21&#45;&gt;Node22</title>
<g id="a_edge23_Node000021_Node000022"><a xlink:title=" ">
<path fill="none" stroke="#63b8ff" d="M1488.54,-390C1472.36,-390 1454.99,-390 1438.33,-390"/>
<polygon fill="#63b8ff" stroke="#63b8ff" points="1488.97,-393.5 1498.97,-390 1488.97,-386.5 1488.97,-393.5"/>
</a>
</g>
</g>
<!-- Node41 -->
<g id="Node000041" class="node">
<title>Node41</title>
<g id="a_Node000041"><a xlink:href="namespacewmtk_1_1components_1_1triangle__insertion.html#a23509bfe845d018ac65e2759fb77c608" target="_top" xlink:title=" ">
<polygon fill="white" stroke="#666666" points="1434,-333 1278,-333 1278,-303 1434,-303 1434,-333"/>
<text text-anchor="start" x="1286" y="-321" font-family="Helvetica,sans-Serif" font-size="10.00">wmtk::components::triangle</text>
<text text-anchor="middle" x="1356" y="-310" font-family="Helvetica,sans-Serif" font-size="10.00">_insertion::triangle_insertion</text>
</a>
</g>
</g>
<!-- Node21&#45;&gt;Node41 -->
<g id="edge51_Node000021_Node000041" class="edge">
<title>Node21&#45;&gt;Node41</title>
<g id="a_edge51_Node000021_Node000041"><a xlink:title=" ">
<path fill="none" stroke="#63b8ff" d="M1505.93,-371.48C1472.72,-359.56 1430.11,-344.25 1398.98,-333.07"/>
<polygon fill="#63b8ff" stroke="#63b8ff" points="1504.87,-374.82 1515.47,-374.91 1507.24,-368.23 1504.87,-374.82"/>
</a>
</g>
</g>
<!-- Node23 -->
<g id="Node000023" class="node">
<title>Node23</title>
<g id="a_Node000023"><a xlink:href="classwmtk_1_1multimesh_1_1utils_1_1_map_validator.html#a68f039afe0e44da9486a4d3c38cf5bea" target="_top" xlink:title=" ">
<polygon fill="white" stroke="#666666" points="1205,-410.5 1069,-410.5 1069,-369.5 1205,-369.5 1205,-410.5"/>
<text text-anchor="start" x="1077" y="-398.5" font-family="Helvetica,sans-Serif" font-size="10.00">wmtk::multimesh::utils</text>
<text text-anchor="start" x="1077" y="-387.5" font-family="Helvetica,sans-Serif" font-size="10.00">::MapValidator::check</text>
<text text-anchor="middle" x="1137" y="-376.5" font-family="Helvetica,sans-Serif" font-size="10.00">_switch_homomorphism</text>
</a>
</g>
</g>
<!-- Node22&#45;&gt;Node23 -->
<g id="edge24_Node000022_Node000023" class="edge">
<title>Node22&#45;&gt;Node23</title>
<g id="a_edge24_Node000022_Node000023"><a xlink:title=" ">
<path fill="none" stroke="#63b8ff" d="M1263.71,-390C1244.09,-390 1223.7,-390 1205.19,-390"/>
<polygon fill="#63b8ff" stroke="#63b8ff" points="1263.89,-393.5 1273.89,-390 1263.89,-386.5 1263.89,-393.5"/>
</a>
</g>
</g>
<!-- Node24 -->
<g id="Node000024" class="node">
<title>Node24</title>
<g id="a_Node000024"><a xlink:href="classwmtk_1_1multimesh_1_1utils_1_1_map_validator.html#a7c91255f342becd3f24ffa7bbaebeb3d" target="_top" xlink:title=" ">
<polygon fill="white" stroke="#666666" points="1006.5,-405 867.5,-405 867.5,-375 1006.5,-375 1006.5,-405"/>
<text text-anchor="start" x="875.5" y="-393" font-family="Helvetica,sans-Serif" font-size="10.00">wmtk::multimesh::utils</text>
<text text-anchor="middle" x="937" y="-382" font-family="Helvetica,sans-Serif" font-size="10.00">::MapValidator::check_all</text>
</a>
</g>
</g>
<!-- Node23&#45;&gt;Node24 -->
<g id="edge25_Node000023_Node000024" class="edge">
<title>Node23&#45;&gt;Node24</title>
<g id="a_edge25_Node000023_Node000024"><a xlink:title=" ">
<path fill="none" stroke="#63b8ff" d="M1058.94,-390C1041.7,-390 1023.52,-390 1006.65,-390"/>
<polygon fill="#63b8ff" stroke="#63b8ff" points="1058.97,-393.5 1068.97,-390 1058.97,-386.5 1058.97,-393.5"/>
</a>
</g>
</g>
<!-- Node25 -->
<g id="Node000025" class="node">
<title>Node25</title>
<g id="a_Node000025"><a xlink:href="namespacewmtk_1_1multimesh_1_1utils.html#abcc3f7f7a25879455cafc8a8f4304c4c" target="_top" xlink:title=" ">
<polygon fill="white" stroke="#666666" points="799.5,-405 669.5,-405 669.5,-375 799.5,-375 799.5,-405"/>
<text text-anchor="start" x="677.5" y="-393" font-family="Helvetica,sans-Serif" font-size="10.00">wmtk::multimesh::utils</text>
<text text-anchor="middle" x="734.5" y="-382" font-family="Helvetica,sans-Serif" font-size="10.00">::check_maps_valid</text>
</a>
</g>
</g>
<!-- Node24&#45;&gt;Node25 -->
<g id="edge26_Node000024_Node000025" class="edge">
<title>Node24&#45;&gt;Node25</title>
<g id="a_edge26_Node000024_Node000025"><a xlink:title=" ">
<path fill="none" stroke="#63b8ff" d="M857.14,-390C838.11,-390 818.01,-390 799.74,-390"/>
<polygon fill="#63b8ff" stroke="#63b8ff" points="857.28,-393.5 867.28,-390 857.28,-386.5 857.28,-393.5"/>
</a>
</g>
</g>
<!-- Node26 -->
<g id="Node000026" class="node">
<title>Node26</title>
<g id="a_Node000026"><a xlink:href="classwmtk_1_1operations_1_1_operation.html#af181d255eb0ef5297646e0dc9dc817a7" target="_top" xlink:title=" ">
<polygon fill="white" stroke="#666666" points="609.5,-78 453.5,-78 453.5,-48 609.5,-48 609.5,-78"/>
<text text-anchor="start" x="461.5" y="-66" font-family="Helvetica,sans-Serif" font-size="10.00">wmtk::operations::Operation</text>
<text text-anchor="middle" x="531.5" y="-55" font-family="Helvetica,sans-Serif" font-size="10.00">::apply_attribute_transfer</text>
</a>
</g>
</g>
<!-- Node25&#45;&gt;Node26 -->
<g id="edge27_Node000025_Node000026" class="edge">
<title>Node25&#45;&gt;Node26</title>
<g id="a_edge27_Node000025_Node000026"><a xlink:title=" ">
<path fill="none" stroke="#63b8ff" d="M718.81,-366.1C679.74,-302.54 574.05,-130.6 541.9,-78.3"/>
<polygon fill="#63b8ff" stroke="#63b8ff" points="715.86,-367.98 724.07,-374.67 721.82,-364.31 715.86,-367.98"/>
</a>
</g>
</g>
<!-- Node29 -->
<g id="Node000029" class="node">
<title>Node29</title>
<g id="a_Node000029"><a xlink:href="namespacewmtk_1_1multimesh.html#a75477c4fe069fcdff90f57a76087afe0" target="_top" xlink:title=" ">
<polygon fill="white" stroke="#666666" points="614,-347.5 449,-347.5 449,-328.5 614,-328.5 614,-347.5"/>
<text text-anchor="middle" x="531.5" y="-335.5" font-family="Helvetica,sans-Serif" font-size="10.00">wmtk::multimesh::consolidate</text>
</a>
</g>
</g>
<!-- Node25&#45;&gt;Node29 -->
<g id="edge30_Node000025_Node000029" class="edge">
<title>Node25&#45;&gt;Node29</title>
<g id="a_edge30_Node000025_Node000029"><a xlink:title=" ">
<path fill="none" stroke="#63b8ff" d="M665.55,-372.42C633.35,-364.09 596.16,-354.47 569.3,-347.52"/>
<polygon fill="#63b8ff" stroke="#63b8ff" points="664.8,-375.84 675.36,-374.96 666.56,-369.07 664.8,-375.84"/>
</a>
</g>
</g>
<!-- Node31 -->
<g id="Node000031" class="node">
<title>Node31</title>
<g id="a_Node000031"><a xlink:href="classwmtk_1_1components_1_1isotropic__remeshing_1_1_isotropic_remeshing.html#a973ad24e45384bea1e30523b46ce403c" target="_top" xlink:title=" ">
<polygon fill="white" stroke="#666666" points="413,-439 215,-439 215,-409 413,-409 413,-439"/>
<text text-anchor="start" x="223" y="-427" font-family="Helvetica,sans-Serif" font-size="10.00">wmtk::components::isotropic</text>
<text text-anchor="middle" x="314" y="-416" font-family="Helvetica,sans-Serif" font-size="10.00">_remeshing::IsotropicRemeshing::run</text>
</a>
</g>
</g>
<!-- Node25&#45;&gt;Node31 -->
<g id="edge50_Node000025_Node000031" class="edge">
<title>Node25&#45;&gt;Node31</title>
<g id="a_edge50_Node000025_Node000031"><a xlink:title=" ">
<path fill="none" stroke="#63b8ff" d="M659.21,-396.04C590.69,-401.6 488.5,-409.9 413.25,-416.02"/>
<polygon fill="#63b8ff" stroke="#63b8ff" points="659.8,-399.5 669.48,-395.2 659.23,-392.52 659.8,-399.5"/>
</a>
</g>
</g>
<!-- Node38 -->
<g id="Node000038" class="node">
<title>Node38</title>
<g id="a_Node000038"><a xlink:href="namespacewmtk_1_1components.html#a1d95b8c424d645d432babf8ba5765e36" target="_top" xlink:title=" ">
<polygon fill="white" stroke="#666666" points="601.5,-531 461.5,-531 461.5,-501 601.5,-501 601.5,-531"/>
<text text-anchor="start" x="469.5" y="-519" font-family="Helvetica,sans-Serif" font-size="10.00">wmtk::components::edge</text>
<text text-anchor="middle" x="531.5" y="-508" font-family="Helvetica,sans-Serif" font-size="10.00">_insertion</text>
</a>
</g>
</g>
<!-- Node25&#45;&gt;Node38 -->
<g id="edge46_Node000025_Node000038" class="edge">
<title>Node25&#45;&gt;Node38</title>
<g id="a_edge46_Node000025_Node000038"><a xlink:title=" ">
<path fill="none" stroke="#63b8ff" d="M700.57,-410.65C660.1,-436.01 592.4,-478.45 556.52,-500.94"/>
<polygon fill="#63b8ff" stroke="#63b8ff" points="702.64,-413.48 709.25,-405.2 698.92,-407.54 702.64,-413.48"/>
</a>
</g>
</g>
<!-- Node27 -->
<g id="Node000027" class="node">
<title>Node27</title>
<g id="a_Node000027"><a xlink:href="classwmtk_1_1operations_1_1_operation.html#a9c6426d34b54642aacb28e7cf93e328f" target="_top" xlink:title=" ">
<polygon fill="white" stroke="#666666" points="392,-78 236,-78 236,-48 392,-48 392,-78"/>
<text text-anchor="start" x="244" y="-66" font-family="Helvetica,sans-Serif" font-size="10.00">wmtk::operations::Operation</text>
<text text-anchor="middle" x="314" y="-55" font-family="Helvetica,sans-Serif" font-size="10.00">::operator()</text>
</a>
</g>
</g>
<!-- Node26&#45;&gt;Node27 -->
<g id="edge28_Node000026_Node000027" class="edge">
<title>Node26&#45;&gt;Node27</title>
<g id="a_edge28_Node000026_Node000027"><a xlink:title=" ">
<path fill="none" stroke="#63b8ff" d="M442.91,-63C426.05,-63 408.51,-63 392.01,-63"/>
<polygon fill="#63b8ff" stroke="#63b8ff" points="443.31,-66.5 453.31,-63 443.31,-59.5 443.31,-66.5"/>
</a>
</g>
</g>
<!-- Node28 -->
<g id="Node000028" class="node">
<title>Node28</title>
<g id="a_Node000028"><a xlink:href="classwmtk_1_1operations_1_1_operation_sequence.html#a547ec2a6ed8a354eff76e733b2e7fb2c" target="_top" xlink:title=" ">
<polygon fill="white" stroke="#666666" points="392,-30 236,-30 236,0 392,0 392,-30"/>
<text text-anchor="start" x="244" y="-18" font-family="Helvetica,sans-Serif" font-size="10.00">wmtk::operations::Operation</text>
<text text-anchor="middle" x="314" y="-7" font-family="Helvetica,sans-Serif" font-size="10.00">Sequence::operator()</text>
</a>
</g>
</g>
<!-- Node26&#45;&gt;Node28 -->
<g id="edge29_Node000026_Node000028" class="edge">
<title>Node26&#45;&gt;Node28</title>
<g id="a_edge29_Node000026_Node000028"><a xlink:title=" ">
<path fill="none" stroke="#63b8ff" d="M453.13,-45.77C429.98,-40.61 404.8,-35 382.35,-30"/>
<polygon fill="#63b8ff" stroke="#63b8ff" points="452.38,-49.19 462.91,-47.94 453.91,-42.35 452.38,-49.19"/>
</a>
</g>
</g>
<!-- Node29&#45;&gt;Node2 -->
<g id="edge31_Node000029_Node000002" class="edge">
<title>Node29&#45;&gt;Node2</title>
<g id="a_edge31_Node000029_Node000002"><a xlink:title=" ">
<path fill="none" stroke="#63b8ff" d="M516.65,-355.76C496.52,-380.32 456.77,-424.3 413,-448 406.61,-451.46 399.71,-454.43 392.65,-456.98"/>
<polygon fill="#63b8ff" stroke="#63b8ff" points="519.62,-357.66 523.15,-347.67 514.16,-353.27 519.62,-357.66"/>
</a>
</g>
</g>
<!-- Node30 -->
<g id="Node000030" class="node">
<title>Node30</title>
<g id="a_Node000030"><a xlink:href="namespacewmtk_1_1components_1_1internal.html#a8890d5e5bb5f11779d4e40e07882253a" target="_top" xlink:title=" ">
<polygon fill="white" stroke="#666666" points="391,-373 237,-373 237,-343 391,-343 391,-373"/>
<text text-anchor="start" x="245" y="-361" font-family="Helvetica,sans-Serif" font-size="10.00">wmtk::components::internal</text>
<text text-anchor="middle" x="314" y="-350" font-family="Helvetica,sans-Serif" font-size="10.00">::periodic_optimization</text>
</a>
</g>
</g>
<!-- Node29&#45;&gt;Node30 -->
<g id="edge32_Node000029_Node000030" class="edge">
<title>Node29&#45;&gt;Node30</title>
<g id="a_edge32_Node000029_Node000030"><a xlink:title=" ">
<path fill="none" stroke="#63b8ff" d="M438.42,-346.55C422.62,-348.01 406.36,-349.52 391.05,-350.94"/>
<polygon fill="#63b8ff" stroke="#63b8ff" points="439.09,-350 448.72,-345.59 438.44,-343.03 439.09,-350"/>
</a>
</g>
</g>
<!-- Node29&#45;&gt;Node31 -->
<g id="edge35_Node000029_Node000031" class="edge">
<title>Node29&#45;&gt;Node31</title>
<g id="a_edge35_Node000029_Node000031"><a xlink:title=" ">
<path fill="none" stroke="#63b8ff" d="M503.86,-352.5C472.14,-369.7 422.27,-396.48 413,-400 404.24,-403.33 394.86,-406.31 385.5,-408.95"/>
<polygon fill="#63b8ff" stroke="#63b8ff" points="505.54,-355.57 512.66,-347.72 502.2,-349.42 505.54,-355.57"/>
</a>
</g>
</g>
<!-- Node29&#45;&gt;Node32 -->
<g id="edge36_Node000029_Node000032" class="edge">
<title>Node29&#45;&gt;Node32</title>
<g id="a_edge36_Node000029_Node000032"><a xlink:title=" ">
<path fill="none" stroke="#63b8ff" d="M495.27,-324.08C479.07,-316.04 460.85,-304.43 449,-289 413.78,-243.15 450.33,-208.14 413,-164 403.62,-152.91 391.01,-144.23 377.97,-137.53"/>
<polygon fill="#63b8ff" stroke="#63b8ff" points="493.98,-327.33 504.52,-328.4 496.94,-320.99 493.98,-327.33"/>
</a>
</g>
</g>
<!-- Node34 -->
<g id="Node000034" class="node">
<title>Node34</title>
<g id="a_Node000034"><a xlink:href="namespacewmtk_1_1components.html#ac6ca52668bd22e164d4baf59ec533864" target="_top" xlink:title=" ">
<polygon fill="white" stroke="#666666" points="403.5,-192.5 224.5,-192.5 224.5,-173.5 403.5,-173.5 403.5,-192.5"/>
<text text-anchor="middle" x="314" y="-180.5" font-family="Helvetica,sans-Serif" font-size="10.00">wmtk::components::wildmeshing</text>
</a>
</g>
</g>
<!-- Node29&#45;&gt;Node34 -->
<g id="edge39_Node000029_Node000034" class="edge">
<title>Node29&#45;&gt;Node34</title>
<g id="a_edge39_Node000029_Node000034"><a xlink:title=" ">
<path fill="none" stroke="#63b8ff" d="M497.03,-323.99C480.76,-315.79 461.97,-304.06 449,-289 421.69,-257.29 445.41,-228.47 413,-202 408.44,-198.27 403.36,-195.2 397.98,-192.67"/>
<polygon fill="#63b8ff" stroke="#63b8ff" points="495.73,-327.25 506.26,-328.41 498.75,-320.94 495.73,-327.25"/>
</a>
</g>
</g>
<!-- Node35 -->
<g id="Node000035" class="node">
<title>Node35</title>
<g id="a_Node000035"><a xlink:href="namespacewmtk_1_1components_1_1internal.html#a28a63b9ae929bfe3ccb0fa3a266a272c" target="_top" xlink:title=" ">
<polygon fill="white" stroke="#666666" points="391,-307 237,-307 237,-277 391,-277 391,-307"/>
<text text-anchor="start" x="245" y="-295" font-family="Helvetica,sans-Serif" font-size="10.00">wmtk::components::internal</text>
<text text-anchor="middle" x="314" y="-284" font-family="Helvetica,sans-Serif" font-size="10.00">::wildmeshing2d</text>
</a>
</g>
</g>
<!-- Node29&#45;&gt;Node35 -->
<g id="edge40_Node000029_Node000035" class="edge">
<title>Node29&#45;&gt;Node35</title>
<g id="a_edge40_Node000029_Node000035"><a xlink:title=" ">
<path fill="none" stroke="#63b8ff" d="M476.02,-326.37C448.55,-320.51 414.89,-313.32 385.47,-307.04"/>
<polygon fill="#63b8ff" stroke="#63b8ff" points="475.34,-329.8 485.85,-328.47 476.8,-322.96 475.34,-329.8"/>
</a>
</g>
</g>
<!-- Node37 -->
<g id="Node000037" class="node">
<title>Node37</title>
<g id="a_Node000037"><a xlink:href="namespacewmtk_1_1components_1_1internal.html#a798951bc2a6b1069a5ae8c946ddfdecd" target="_top" xlink:title=" ">
<polygon fill="white" stroke="#666666" points="391,-241 237,-241 237,-211 391,-211 391,-241"/>
<text text-anchor="start" x="245" y="-229" font-family="Helvetica,sans-Serif" font-size="10.00">wmtk::components::internal</text>
<text text-anchor="middle" x="314" y="-218" font-family="Helvetica,sans-Serif" font-size="10.00">::wildmeshing3d</text>
</a>
</g>
</g>
<!-- Node29&#45;&gt;Node37 -->
<g id="edge43_Node000029_Node000037" class="edge">
<title>Node29&#45;&gt;Node37</title>
<g id="a_edge43_Node000029_Node000037"><a xlink:title=" ">
<path fill="none" stroke="#63b8ff" d="M505.87,-323.21C472.82,-303.39 417.71,-270.4 413,-268 393.7,-258.17 371.57,-248.55 353.23,-241.01"/>
<polygon fill="#63b8ff" stroke="#63b8ff" points="504.17,-326.27 514.54,-328.42 507.77,-320.27 504.17,-326.27"/>
</a>
</g>
</g>
<!-- Node30&#45;&gt;Node11 -->
<g id="edge33_Node000030_Node000011" class="edge">
<title>Node30&#45;&gt;Node11</title>
<g id="a_edge33_Node000030_Node000011"><a xlink:title=" ">
<path fill="none" stroke="#63b8ff" d="M226.58,-370.82C206.95,-373.73 186.23,-376.8 167.04,-379.65"/>
<polygon fill="#63b8ff" stroke="#63b8ff" points="227.36,-374.24 236.74,-369.31 226.33,-367.32 227.36,-374.24"/>
</a>
</g>
</g>
<!-- Node30&#45;&gt;Node30 -->
<g id="edge34_Node000030_Node000030" class="edge">
<title>Node30&#45;&gt;Node30</title>
<g id="a_edge34_Node000030_Node000030"><a xlink:title=" ">
<path fill="none" stroke="#63b8ff" d="M351.81,-383.6C346.64,-387.97 334.04,-391 314,-391 280.25,-391 267.59,-382.41 276.03,-373.28"/>
<polygon fill="#63b8ff" stroke="#63b8ff" points="355.31,-383.33 351.97,-373.28 348.31,-383.22 355.31,-383.33"/>
</a>
</g>
</g>
<!-- Node32&#45;&gt;Node32 -->
<g id="edge38_Node000032_Node000032" class="edge">
<title>Node32&#45;&gt;Node32</title>
<g id="a_edge38_Node000032_Node000032"><a xlink:title=" ">
<path fill="none" stroke="#63b8ff" d="M351.16,-147.46C345.64,-152.24 333.25,-155.5 314,-155.5 283.2,-155.5 269.97,-147.15 274.3,-137.6"/>
<polygon fill="#63b8ff" stroke="#63b8ff" points="354.6,-148.15 353.7,-137.6 347.82,-146.41 354.6,-148.15"/>
</a>
</g>
</g>
<!-- Node33 -->
<g id="Node000033" class="node">
<title>Node33</title>
<g id="a_Node000033"><a xlink:href="namespacewmtk_1_1components_1_1shortest__edge__collapse.html#a1be5a09251cc55d3030f671a39c7ed47" target="_top" xlink:title="Perform shortest&#45;edge collapse on a triangular surface mesh.">
<polygon fill="white" stroke="#666666" points="167.5,-137.5 11.5,-137.5 11.5,-96.5 167.5,-96.5 167.5,-137.5"/>
<text text-anchor="start" x="19.5" y="-125.5" font-family="Helvetica,sans-Serif" font-size="10.00">wmtk::components::shortest</text>
<text text-anchor="start" x="19.5" y="-114.5" font-family="Helvetica,sans-Serif" font-size="10.00">_edge_collapse::shortest</text>
<text text-anchor="middle" x="89.5" y="-103.5" font-family="Helvetica,sans-Serif" font-size="10.00">_edge_collapse</text>
</a>
</g>
</g>
<!-- Node32&#45;&gt;Node33 -->
<g id="edge37_Node000032_Node000033" class="edge">
<title>Node32&#45;&gt;Node33</title>
<g id="a_edge37_Node000032_Node000033"><a xlink:title=" ">
<path fill="none" stroke="#63b8ff" d="M225.58,-117C206.43,-117 186.28,-117 167.56,-117"/>
<polygon fill="#63b8ff" stroke="#63b8ff" points="225.8,-120.5 235.8,-117 225.8,-113.5 225.8,-120.5"/>
</a>
</g>
</g>
<!-- Node35&#45;&gt;Node35 -->
<g id="edge42_Node000035_Node000035" class="edge">
<title>Node35&#45;&gt;Node35</title>
<g id="a_edge42_Node000035_Node000035"><a xlink:title=" ">
<path fill="none" stroke="#63b8ff" d="M351.81,-317.6C346.64,-321.97 334.04,-325 314,-325 280.25,-325 267.59,-316.41 276.03,-307.28"/>
<polygon fill="#63b8ff" stroke="#63b8ff" points="355.31,-317.33 351.97,-307.28 348.31,-317.22 355.31,-317.33"/>
</a>
</g>
</g>
<!-- Node36 -->
<g id="Node000036" class="node">
<title>Node36</title>
<g id="a_Node000036"><a xlink:href="namespacewmtk_1_1components.html#a7c75b44e67ee059f20849f2ea5e04e49" target="_top" xlink:title=" ">
<polygon fill="white" stroke="#666666" points="179,-268.5 0,-268.5 0,-249.5 179,-249.5 179,-268.5"/>
<text text-anchor="middle" x="89.5" y="-256.5" font-family="Helvetica,sans-Serif" font-size="10.00">wmtk::components::wildmeshing</text>
</a>
</g>
</g>
<!-- Node35&#45;&gt;Node36 -->
<g id="edge41_Node000035_Node000036" class="edge">
<title>Node35&#45;&gt;Node36</title>
<g id="a_edge41_Node000035_Node000036"><a xlink:title=" ">
<path fill="none" stroke="#63b8ff" d="M226.61,-279.19C202.72,-275.64 177.21,-271.86 154.82,-268.54"/>
<polygon fill="#63b8ff" stroke="#63b8ff" points="226.33,-282.68 236.74,-280.69 227.36,-275.76 226.33,-282.68"/>
</a>
</g>
</g>
<!-- Node37&#45;&gt;Node36 -->
<g id="edge44_Node000037_Node000036" class="edge">
<title>Node37&#45;&gt;Node36</title>
<g id="a_edge44_Node000037_Node000036"><a xlink:title=" ">
<path fill="none" stroke="#63b8ff" d="M226.61,-238.81C202.72,-242.36 177.21,-246.14 154.82,-249.46"/>
<polygon fill="#63b8ff" stroke="#63b8ff" points="227.36,-242.24 236.74,-237.31 226.33,-235.32 227.36,-242.24"/>
</a>
</g>
</g>
<!-- Node37&#45;&gt;Node37 -->
<g id="edge45_Node000037_Node000037" class="edge">
<title>Node37&#45;&gt;Node37</title>
<g id="a_edge45_Node000037_Node000037"><a xlink:title=" ">
<path fill="none" stroke="#63b8ff" d="M351.81,-251.6C346.64,-255.97 334.04,-259 314,-259 280.25,-259 267.59,-250.41 276.03,-241.28"/>
<polygon fill="#63b8ff" stroke="#63b8ff" points="355.31,-251.33 351.97,-241.28 348.31,-251.22 355.31,-251.33"/>
</a>
</g>
</g>
<!-- Node38&#45;&gt;Node38 -->
<g id="edge47_Node000038_Node000038" class="edge">
<title>Node38&#45;&gt;Node38</title>
<g id="a_edge47_Node000038_Node000038"><a xlink:title=" ">
<path fill="none" stroke="#63b8ff" d="M566.86,-541.6C562.03,-545.97 550.24,-549 531.5,-549 499.94,-549 488.1,-540.41 495.99,-531.28"/>
<polygon fill="#63b8ff" stroke="#63b8ff" points="570.36,-541.33 567.01,-531.28 563.36,-541.22 570.36,-541.33"/>
</a>
</g>
</g>
<!-- Node39 -->
<g id="Node000039" class="node">
<title>Node39</title>
<g id="a_Node000039"><a xlink:href="namespacewmtk_1_1components_1_1internal.html#aff1250493ee8c47518118b92223c8576" target="_top" xlink:title=" ">
<polygon fill="white" stroke="#666666" points="391,-553 237,-553 237,-523 391,-523 391,-553"/>
<text text-anchor="start" x="245" y="-541" font-family="Helvetica,sans-Serif" font-size="10.00">wmtk::components::internal</text>
<text text-anchor="middle" x="314" y="-530" font-family="Helvetica,sans-Serif" font-size="10.00">::edge_insertion</text>
</a>
</g>
</g>
<!-- Node38&#45;&gt;Node39 -->
<g id="edge48_Node000038_Node000039" class="edge">
<title>Node38&#45;&gt;Node39</title>
<g id="a_edge48_Node000038_Node000039"><a xlink:title=" ">
<path fill="none" stroke="#63b8ff" d="M451.29,-524.09C431.65,-526.09 410.64,-528.24 391.15,-530.23"/>
<polygon fill="#63b8ff" stroke="#63b8ff" points="451.83,-527.55 461.43,-523.05 451.12,-520.59 451.83,-527.55"/>
</a>
</g>
</g>
<!-- Node40 -->
<g id="Node000040" class="node">
<title>Node40</title>
<g id="a_Node000040"><a xlink:href="namespacewmtk_1_1components_1_1internal.html#ad827cdbb96806fb2e4c19c644277f3c3" target="_top" xlink:title="include the intersection on edgepoints">
<polygon fill="white" stroke="#666666" points="391,-601 237,-601 237,-571 391,-571 391,-601"/>
<text text-anchor="start" x="245" y="-589" font-family="Helvetica,sans-Serif" font-size="10.00">wmtk::components::internal</text>
<text text-anchor="middle" x="314" y="-578" font-family="Helvetica,sans-Serif" font-size="10.00">::segment_segment_inter</text>
</a>
</g>
</g>
<!-- Node38&#45;&gt;Node40 -->
<g id="edge49_Node000038_Node000040" class="edge">
<title>Node38&#45;&gt;Node40</title>
<g id="a_edge49_Node000038_Node000040"><a xlink:title=" ">
<path fill="none" stroke="#63b8ff" d="M486.38,-534.88C464.55,-543.81 437.65,-554.19 413,-562 402.9,-565.2 392.1,-568.23 381.49,-570.98"/>
<polygon fill="#63b8ff" stroke="#63b8ff" points="487.81,-538.08 495.72,-531.02 485.14,-531.61 487.81,-538.08"/>
</a>
</g>
</g>
<!-- Node41&#45;&gt;Node41 -->
<g id="edge52_Node000041_Node000041" class="edge">
<title>Node41&#45;&gt;Node41</title>
<g id="a_edge52_Node000041_Node000041"><a xlink:title=" ">
<path fill="none" stroke="#63b8ff" d="M1391.36,-343.6C1386.53,-347.97 1374.74,-351 1356,-351 1324.44,-351 1312.6,-342.41 1320.49,-333.28"/>
<polygon fill="#63b8ff" stroke="#63b8ff" points="1394.86,-343.33 1391.51,-333.28 1387.86,-343.22 1394.86,-343.33"/>
</a>
</g>
</g>
</g>
</svg>
