<?xml version="1.0" encoding="UTF-8" standalone="no"?>
<!DOCTYPE svg PUBLIC "-//W3C//DTD SVG 1.1//EN"
 "http://www.w3.org/Graphics/SVG/1.1/DTD/svg11.dtd">
<!-- Generated by graphviz version 2.43.0 (0)
 -->
<!-- Title: wmtk::TetMesh::is_valid Pages: 1 -->
<svg width="909pt" height="543pt"
 viewBox="0.00 0.00 909.00 543.00" xmlns="http://www.w3.org/2000/svg" xmlns:xlink="http://www.w3.org/1999/xlink">
<g id="graph0" class="graph" transform="scale(1 1) rotate(0) translate(4 539)">
<title>wmtk::TetMesh::is_valid</title>
<!-- Node1 -->
<g id="Node000001" class="node">
<title>Node1</title>
<g id="a_Node000001"><a xlink:title="check validity of tuple including its hash">
<polygon fill="#999999" stroke="#666666" points="134,-184.5 0,-184.5 0,-165.5 134,-165.5 134,-184.5"/>
<text text-anchor="middle" x="67" y="-172.5" font-family="Helvetica,sans-Serif" font-size="10.00">wmtk::TetMesh::is_valid</text>
</a>
</g>
</g>
<!-- Node2 -->
<g id="Node000002" class="node">
<title>Node2</title>
<g id="a_Node000002"><a xlink:href="classwmtk_1_1_tet_mesh.html#ad4ba72346d616d38086be74705865e55" target="_top" xlink:title=" ">
<polygon fill="white" stroke="#666666" points="340,-358 170,-358 170,-328 340,-328 340,-358"/>
<text text-anchor="start" x="178" y="-346" font-family="Helvetica,sans-Serif" font-size="10.00">wmtk::TetMesh::is_connectivity</text>
<text text-anchor="middle" x="255" y="-335" font-family="Helvetica,sans-Serif" font-size="10.00">_valid</text>
</a>
</g>
</g>
<!-- Node1&#45;&gt;Node2 -->
<g id="edge1_Node000001_Node000002" class="edge">
<title>Node1&#45;&gt;Node2</title>
<g id="a_edge1_Node000001_Node000002"><a xlink:title=" ">
<path fill="none" stroke="#63b8ff" d="M78.53,-184.51C107.42,-210.61 188.49,-283.83 229.53,-320.9"/>
<polygon fill="#63b8ff" stroke="#63b8ff" points="227.41,-323.7 237.18,-327.81 232.1,-318.51 227.41,-323.7"/>
</a>
</g>
</g>
<!-- Node15 -->
<g id="Node000015" class="node">
<title>Node15</title>
<g id="a_Node000015"><a xlink:href="namespacewmtk.html#a6a35f11c12436093d26fdd8be6fecc06" target="_top" xlink:title="Retrieves the current logger.">
<polygon fill="white" stroke="#666666" points="498,-212.5 417,-212.5 417,-193.5 498,-193.5 498,-212.5"/>
<text text-anchor="middle" x="457.5" y="-200.5" font-family="Helvetica,sans-Serif" font-size="10.00">wmtk::logger</text>
</a>
</g>
</g>
<!-- Node1&#45;&gt;Node15 -->
<g id="edge23_Node000001_Node000015" class="edge">
<title>Node1&#45;&gt;Node15</title>
<g id="a_edge23_Node000001_Node000015"><a xlink:title=" ">
<path fill="none" stroke="#63b8ff" d="M134.34,-179.78C211.54,-185.35 337.26,-194.41 406.62,-199.4"/>
<polygon fill="#63b8ff" stroke="#63b8ff" points="406.61,-202.91 416.84,-200.14 407.11,-195.93 406.61,-202.91"/>
</a>
</g>
</g>
<!-- Node17 -->
<g id="Node000017" class="node">
<title>Node17</title>
<g id="a_Node000017"><a xlink:href="classwmtk_1_1_mesh.html#a8cc8686f0688613806f43720b6db49e7" target="_top" xlink:title="check validity of tuple including its hash">
<polygon fill="white" stroke="#666666" points="315,-157.5 195,-157.5 195,-138.5 315,-138.5 315,-157.5"/>
<text text-anchor="middle" x="255" y="-145.5" font-family="Helvetica,sans-Serif" font-size="10.00">wmtk::Mesh::is_valid</text>
</a>
</g>
</g>
<!-- Node1&#45;&gt;Node17 -->
<g id="edge19_Node000001_Node000017" class="edge">
<title>Node1&#45;&gt;Node17</title>
<g id="a_edge19_Node000001_Node000017"><a xlink:title=" ">
<path fill="none" stroke="#63b8ff" d="M133.58,-165.48C150.12,-163.08 167.93,-160.49 184.66,-158.07"/>
<polygon fill="#63b8ff" stroke="#63b8ff" points="185.51,-161.48 194.91,-156.58 184.51,-154.55 185.51,-161.48"/>
</a>
</g>
</g>
<!-- Node20 -->
<g id="Node000020" class="node">
<title>Node20</title>
<g id="a_Node000020"><a xlink:href="namespacewmtk_1_1autogen_1_1tet__mesh.html#a217b7c5c5312a716ad27c99abcfc0eb1" target="_top" xlink:title=" ">
<polygon fill="white" stroke="#666666" points="316,-102.5 194,-102.5 194,-61.5 316,-61.5 316,-102.5"/>
<text text-anchor="start" x="202" y="-90.5" font-family="Helvetica,sans-Serif" font-size="10.00">wmtk::autogen::tet</text>
<text text-anchor="start" x="202" y="-79.5" font-family="Helvetica,sans-Serif" font-size="10.00">_mesh::tuple_is_valid</text>
<text text-anchor="middle" x="255" y="-68.5" font-family="Helvetica,sans-Serif" font-size="10.00">_for_ccw</text>
</a>
</g>
</g>
<!-- Node1&#45;&gt;Node20 -->
<g id="edge24_Node000001_Node000020" class="edge">
<title>Node1&#45;&gt;Node20</title>
<g id="a_edge24_Node000001_Node000020"><a xlink:title=" ">
<path fill="none" stroke="#63b8ff" d="M87.2,-165.4C114.44,-151.78 165.26,-126.37 203.67,-107.17"/>
<polygon fill="#63b8ff" stroke="#63b8ff" points="205.27,-110.28 212.65,-102.67 202.14,-104.02 205.27,-110.28"/>
</a>
</g>
</g>
<!-- Node3 -->
<g id="Node000003" class="node">
<title>Node3</title>
<g id="a_Node000003"><a xlink:href="classwmtk_1_1_mesh.html#a3e8ff83c4a5526a40d18bb9883c6c6c9" target="_top" xlink:title="read in the m_capacities return the upper bound for the number of entities of the given dimension">
<polygon fill="white" stroke="#666666" points="711,-481.5 587,-481.5 587,-462.5 711,-462.5 711,-481.5"/>
<text text-anchor="middle" x="649" y="-469.5" font-family="Helvetica,sans-Serif" font-size="10.00">wmtk::Mesh::capacity</text>
</a>
</g>
</g>
<!-- Node2&#45;&gt;Node3 -->
<g id="edge2_Node000002_Node000003" class="edge">
<title>Node2&#45;&gt;Node3</title>
<g id="a_edge2_Node000002_Node000003"><a xlink:title=" ">
<path fill="none" stroke="#63b8ff" d="M266.87,-358.12C285.79,-383.06 327.44,-432.14 376,-453 439.87,-480.45 519.98,-482.65 576.67,-479.55"/>
<polygon fill="#63b8ff" stroke="#63b8ff" points="577.21,-483.02 586.97,-478.91 576.77,-476.04 577.21,-483.02"/>
</a>
</g>
</g>
<!-- Node5 -->
<g id="Node000005" class="node">
<title>Node5</title>
<g id="a_Node000005"><a xlink:href="classwmtk_1_1attribute_1_1_caching_accessor.html#a196b6b32e2495b971113d552be7f45d9" target="_top" xlink:title=" ">
<polygon fill="white" stroke="#666666" points="717.5,-417.5 580.5,-417.5 580.5,-376.5 717.5,-376.5 717.5,-417.5"/>
<text text-anchor="start" x="588.5" y="-405.5" font-family="Helvetica,sans-Serif" font-size="10.00">wmtk::attribute::Caching</text>
<text text-anchor="start" x="588.5" y="-394.5" font-family="Helvetica,sans-Serif" font-size="10.00">Accessor::const_scalar</text>
<text text-anchor="middle" x="649" y="-383.5" font-family="Helvetica,sans-Serif" font-size="10.00">_attribute</text>
</a>
</g>
</g>
<!-- Node2&#45;&gt;Node5 -->
<g id="edge4_Node000002_Node000005" class="edge">
<title>Node2&#45;&gt;Node5</title>
<g id="a_edge4_Node000002_Node000005"><a xlink:title=" ">
<path fill="none" stroke="#63b8ff" d="M325.93,-358.06C342.31,-361.29 359.73,-364.48 376,-367 441.17,-377.09 515.63,-385.06 570.15,-390.24"/>
<polygon fill="#63b8ff" stroke="#63b8ff" points="570.15,-393.75 580.44,-391.21 570.81,-386.79 570.15,-393.75"/>
</a>
</g>
</g>
<!-- Node6 -->
<g id="Node000006" class="node">
<title>Node6</title>
<g id="a_Node000006"><a xlink:href="classwmtk_1_1attribute_1_1_caching_accessor.html#ab850fe07669c7bc92ca6cf6e86c60ee0" target="_top" xlink:title=" ">
<polygon fill="white" stroke="#666666" points="526,-271.5 389,-271.5 389,-230.5 526,-230.5 526,-271.5"/>
<text text-anchor="start" x="397" y="-259.5" font-family="Helvetica,sans-Serif" font-size="10.00">wmtk::attribute::Caching</text>
<text text-anchor="start" x="397" y="-248.5" font-family="Helvetica,sans-Serif" font-size="10.00">Accessor::const_vector</text>
<text text-anchor="middle" x="457.5" y="-237.5" font-family="Helvetica,sans-Serif" font-size="10.00">_attribute</text>
</a>
</g>
</g>
<!-- Node2&#45;&gt;Node6 -->
<g id="edge5_Node000002_Node000006" class="edge">
<title>Node2&#45;&gt;Node6</title>
<g id="a_edge5_Node000002_Node000006"><a xlink:title=" ">
<path fill="none" stroke="#63b8ff" d="M286.95,-327.95C311.1,-316.29 345.56,-299.84 376,-286 383.4,-282.64 391.2,-279.16 398.93,-275.75"/>
<polygon fill="#63b8ff" stroke="#63b8ff" points="400.53,-278.87 408.28,-271.65 397.72,-272.46 400.53,-278.87"/>
</a>
</g>
</g>
<!-- Node7 -->
<g id="Node000007" class="node">
<title>Node7</title>
<g id="a_Node000007"><a xlink:href="classwmtk_1_1_mesh.html#ae3493915b766f0f34f0a9e89603d5773" target="_top" xlink:title=" ">
<polygon fill="white" stroke="#666666" points="518.5,-530 396.5,-530 396.5,-500 518.5,-500 518.5,-530"/>
<text text-anchor="start" x="404.5" y="-518" font-family="Helvetica,sans-Serif" font-size="10.00">wmtk::Mesh::get_flag</text>
<text text-anchor="middle" x="457.5" y="-507" font-family="Helvetica,sans-Serif" font-size="10.00">_accessor</text>
</a>
</g>
</g>
<!-- Node2&#45;&gt;Node7 -->
<g id="edge6_Node000002_Node000007" class="edge">
<title>Node2&#45;&gt;Node7</title>
<g id="a_edge6_Node000002_Node000007"><a xlink:title=" ">
<path fill="none" stroke="#63b8ff" d="M264.91,-358.22C282.55,-387.11 324.7,-450.21 376,-486 381.2,-489.63 386.9,-492.85 392.79,-495.7"/>
<polygon fill="#63b8ff" stroke="#63b8ff" points="391.6,-499 402.16,-499.89 394.45,-492.61 391.6,-499"/>
</a>
</g>
</g>
<!-- Node10 -->
<g id="Node000010" class="node">
<title>Node10</title>
<g id="a_Node000010"><a xlink:href="classwmtk_1_1attribute_1_1_accessor.html#a2d587e12c47a6d839ab80e9198cf75b5" target="_top" xlink:title=" ">
<polygon fill="white" stroke="#666666" points="720,-310 578,-310 578,-280 720,-280 720,-310"/>
<text text-anchor="start" x="586" y="-298" font-family="Helvetica,sans-Serif" font-size="10.00">wmtk::attribute::Accessor</text>
<text text-anchor="middle" x="649" y="-287" font-family="Helvetica,sans-Serif" font-size="10.00">::index_access</text>
</a>
</g>
</g>
<!-- Node2&#45;&gt;Node10 -->
<g id="edge10_Node000002_Node000010" class="edge">
<title>Node2&#45;&gt;Node10</title>
<g id="a_edge10_Node000002_Node000010"><a xlink:title=" ">
<path fill="none" stroke="#63b8ff" d="M324.31,-327.99C341.15,-324.67 359.18,-321.42 376,-319 440.14,-309.78 513.33,-303.57 567.62,-299.77"/>
<polygon fill="#63b8ff" stroke="#63b8ff" points="568.14,-303.25 577.88,-299.07 567.66,-296.26 568.14,-303.25"/>
</a>
</g>
</g>
<!-- Node12 -->
<g id="Node000012" class="node">
<title>Node12</title>
<g id="a_Node000012"><a xlink:href="classwmtk_1_1attribute_1_1_flag_accessor.html#a4f49a666c3811fee9b841c1cd1f66250" target="_top" xlink:title=" ">
<polygon fill="white" stroke="#666666" points="539,-444 376,-444 376,-414 539,-414 539,-444"/>
<text text-anchor="start" x="384" y="-432" font-family="Helvetica,sans-Serif" font-size="10.00">wmtk::attribute::FlagAccessor</text>
<text text-anchor="middle" x="457.5" y="-421" font-family="Helvetica,sans-Serif" font-size="10.00">::index_access</text>
</a>
</g>
</g>
<!-- Node2&#45;&gt;Node12 -->
<g id="edge12_Node000002_Node000012" class="edge">
<title>Node2&#45;&gt;Node12</title>
<g id="a_edge12_Node000002_Node000012"><a xlink:title=" ">
<path fill="none" stroke="#63b8ff" d="M285.72,-358.11C309.78,-370.11 344.7,-386.97 376,-400 384.56,-403.56 393.73,-407.12 402.71,-410.45"/>
<polygon fill="#63b8ff" stroke="#63b8ff" points="401.74,-413.82 412.33,-413.97 404.14,-407.24 401.74,-413.82"/>
</a>
</g>
</g>
<!-- Node13 -->
<g id="Node000013" class="node">
<title>Node13</title>
<g id="a_Node000013"><a xlink:href="classwmtk_1_1attribute_1_1_index_flag_accessor.html#a195252af3f6230f09f0c1379cbec7240" target="_top" xlink:title=" ">
<polygon fill="white" stroke="#666666" points="530.5,-358 384.5,-358 384.5,-328 530.5,-328 530.5,-358"/>
<text text-anchor="start" x="392.5" y="-346" font-family="Helvetica,sans-Serif" font-size="10.00">wmtk::attribute::IndexFlag</text>
<text text-anchor="middle" x="457.5" y="-335" font-family="Helvetica,sans-Serif" font-size="10.00">Accessor::is_active</text>
</a>
</g>
</g>
<!-- Node2&#45;&gt;Node13 -->
<g id="edge13_Node000002_Node000013" class="edge">
<title>Node2&#45;&gt;Node13</title>
<g id="a_edge13_Node000002_Node000013"><a xlink:title=" ">
<path fill="none" stroke="#63b8ff" d="M340.16,-343C351.4,-343 362.92,-343 374.13,-343"/>
<polygon fill="#63b8ff" stroke="#63b8ff" points="374.32,-346.5 384.32,-343 374.32,-339.5 374.32,-346.5"/>
</a>
</g>
</g>
<!-- Node2&#45;&gt;Node15 -->
<g id="edge17_Node000002_Node000015" class="edge">
<title>Node2&#45;&gt;Node15</title>
<g id="a_edge17_Node000002_Node000015"><a xlink:title=" ">
<path fill="none" stroke="#63b8ff" d="M266.63,-327.68C285.5,-301.7 327.47,-249.19 376,-222 385.4,-216.73 396.2,-212.92 406.78,-210.17"/>
<polygon fill="#63b8ff" stroke="#63b8ff" points="407.85,-213.51 416.8,-207.83 406.27,-206.69 407.85,-213.51"/>
</a>
</g>
</g>
<!-- Node4 -->
<g id="Node000004" class="node">
<title>Node4</title>
<g id="a_Node000004"><a xlink:href="namespacewmtk.html#a5cf45c152e856196bb734c6f48919a24" target="_top" xlink:title="Get a unique integer id corresponding to each primitive type.">
<polygon fill="white" stroke="#666666" points="888,-487 772,-487 772,-457 888,-457 888,-487"/>
<text text-anchor="start" x="780" y="-475" font-family="Helvetica,sans-Serif" font-size="10.00">wmtk::get_primitive</text>
<text text-anchor="middle" x="830" y="-464" font-family="Helvetica,sans-Serif" font-size="10.00">_type_id</text>
</a>
</g>
</g>
<!-- Node3&#45;&gt;Node4 -->
<g id="edge3_Node000003_Node000004" class="edge">
<title>Node3&#45;&gt;Node4</title>
<g id="a_edge3_Node000003_Node000004"><a xlink:title=" ">
<path fill="none" stroke="#63b8ff" d="M711.1,-472C727.37,-472 745.04,-472 761.63,-472"/>
<polygon fill="#63b8ff" stroke="#63b8ff" points="761.79,-475.5 771.79,-472 761.79,-468.5 761.79,-475.5"/>
</a>
</g>
</g>
<!-- Node8 -->
<g id="Node000008" class="node">
<title>Node8</title>
<g id="a_Node000008"><a xlink:href="classwmtk_1_1_mesh.html#acfa981b31f00aef4438ff5e73bbce2f4" target="_top" xlink:title=" ">
<polygon fill="white" stroke="#666666" points="714,-530 584,-530 584,-500 714,-500 714,-530"/>
<text text-anchor="start" x="592" y="-518" font-family="Helvetica,sans-Serif" font-size="10.00">wmtk::Mesh::get_const</text>
<text text-anchor="middle" x="649" y="-507" font-family="Helvetica,sans-Serif" font-size="10.00">_flag_accessor</text>
</a>
</g>
</g>
<!-- Node7&#45;&gt;Node8 -->
<g id="edge7_Node000007_Node000008" class="edge">
<title>Node7&#45;&gt;Node8</title>
<g id="a_edge7_Node000007_Node000008"><a xlink:title=" ">
<path fill="none" stroke="#63b8ff" d="M518.72,-515C536.1,-515 555.29,-515 573.43,-515"/>
<polygon fill="#63b8ff" stroke="#63b8ff" points="573.68,-518.5 583.68,-515 573.68,-511.5 573.68,-518.5"/>
</a>
</g>
</g>
<!-- Node8&#45;&gt;Node4 -->
<g id="edge9_Node000008_Node000004" class="edge">
<title>Node8&#45;&gt;Node4</title>
<g id="a_edge9_Node000008_Node000004"><a xlink:title=" ">
<path fill="none" stroke="#63b8ff" d="M712.61,-499.96C728.55,-496.13 745.75,-492 761.91,-488.12"/>
<polygon fill="#63b8ff" stroke="#63b8ff" points="762.92,-491.47 771.82,-485.74 761.28,-484.67 762.92,-491.47"/>
</a>
</g>
</g>
<!-- Node9 -->
<g id="Node000009" class="node">
<title>Node9</title>
<g id="a_Node000009"><a xlink:href="classwmtk_1_1_mesh.html#a357182137d99f1e4a7ff536eadfc0e56" target="_top" xlink:title=" ">
<polygon fill="white" stroke="#666666" points="886.5,-535 773.5,-535 773.5,-505 886.5,-505 886.5,-535"/>
<text text-anchor="start" x="781.5" y="-523" font-family="Helvetica,sans-Serif" font-size="10.00">wmtk::Mesh::create</text>
<text text-anchor="middle" x="830" y="-512" font-family="Helvetica,sans-Serif" font-size="10.00">_const_accessor</text>
</a>
</g>
</g>
<!-- Node8&#45;&gt;Node9 -->
<g id="edge8_Node000008_Node000009" class="edge">
<title>Node8&#45;&gt;Node9</title>
<g id="a_edge8_Node000008_Node000009"><a xlink:title=" ">
<path fill="none" stroke="#63b8ff" d="M714.12,-516.79C730,-517.23 747.04,-517.71 763.01,-518.16"/>
<polygon fill="#63b8ff" stroke="#63b8ff" points="763.24,-521.66 773.33,-518.44 763.43,-514.67 763.24,-521.66"/>
</a>
</g>
</g>
<!-- Node11 -->
<g id="Node000011" class="node">
<title>Node11</title>
<g id="a_Node000011"><a xlink:href="classwmtk_1_1attribute_1_1_accessor.html#afd97a48ec5d1db975a030428df81f617" target="_top" xlink:title=" ">
<polygon fill="white" stroke="#666666" points="901,-310 759,-310 759,-280 901,-280 901,-310"/>
<text text-anchor="start" x="767" y="-298" font-family="Helvetica,sans-Serif" font-size="10.00">wmtk::attribute::Accessor</text>
<text text-anchor="middle" x="830" y="-287" font-family="Helvetica,sans-Serif" font-size="10.00">::caching_base_type</text>
</a>
</g>
</g>
<!-- Node10&#45;&gt;Node11 -->
<g id="edge11_Node000010_Node000011" class="edge">
<title>Node10&#45;&gt;Node11</title>
<g id="a_edge11_Node000010_Node000011"><a xlink:title=" ">
<path fill="none" stroke="#63b8ff" d="M720.23,-295C729.58,-295 739.23,-295 748.73,-295"/>
<polygon fill="#63b8ff" stroke="#63b8ff" points="748.97,-298.5 758.97,-295 748.97,-291.5 748.97,-298.5"/>
</a>
</g>
</g>
<!-- Node13&#45;&gt;Node5 -->
<g id="edge15_Node000013_Node000005" class="edge">
<title>Node13&#45;&gt;Node5</title>
<g id="a_edge15_Node000013_Node000005"><a xlink:title=" ">
<path fill="none" stroke="#63b8ff" d="M511.29,-358.04C529.64,-363.27 550.62,-369.25 570.55,-374.93"/>
<polygon fill="#63b8ff" stroke="#63b8ff" points="569.66,-378.31 580.23,-377.69 571.57,-371.58 569.66,-378.31"/>
</a>
</g>
</g>
<!-- Node13&#45;&gt;Node10 -->
<g id="edge16_Node000013_Node000010" class="edge">
<title>Node13&#45;&gt;Node10</title>
<g id="a_edge16_Node000013_Node000010"><a xlink:title=" ">
<path fill="none" stroke="#63b8ff" d="M517.94,-327.94C537.25,-323.05 558.85,-317.58 578.81,-312.52"/>
<polygon fill="#63b8ff" stroke="#63b8ff" points="579.94,-315.85 588.77,-310 578.22,-309.07 579.94,-315.85"/>
</a>
</g>
</g>
<!-- Node14 -->
<g id="Node000014" class="node">
<title>Node14</title>
<g id="a_Node000014"><a xlink:href="classwmtk_1_1attribute_1_1_index_flag_accessor.html#a08ce19b077654f9e384d8c3fffcbbd0b" target="_top" xlink:title=" ">
<polygon fill="white" stroke="#666666" points="722,-358 576,-358 576,-328 722,-328 722,-358"/>
<text text-anchor="start" x="584" y="-346" font-family="Helvetica,sans-Serif" font-size="10.00">wmtk::attribute::IndexFlag</text>
<text text-anchor="middle" x="649" y="-335" font-family="Helvetica,sans-Serif" font-size="10.00">Accessor::_is_active</text>
</a>
</g>
</g>
<!-- Node13&#45;&gt;Node14 -->
<g id="edge14_Node000013_Node000014" class="edge">
<title>Node13&#45;&gt;Node14</title>
<g id="a_edge14_Node000013_Node000014"><a xlink:title=" ">
<path fill="none" stroke="#63b8ff" d="M530.68,-343C542.09,-343 553.96,-343 565.58,-343"/>
<polygon fill="#63b8ff" stroke="#63b8ff" points="565.7,-346.5 575.7,-343 565.7,-339.5 565.7,-346.5"/>
</a>
</g>
</g>
<!-- Node16 -->
<g id="Node000016" class="node">
<title>Node16</title>
<g id="a_Node000016"><a xlink:href="namespacewmtk.html#a3daa7951a5f8b78cf4600dc047fcc180" target="_top" xlink:title="Setup a logger object to be used by WildmeshToolkit.">
<polygon fill="white" stroke="#666666" points="699.5,-212.5 598.5,-212.5 598.5,-193.5 699.5,-193.5 699.5,-212.5"/>
<text text-anchor="middle" x="649" y="-200.5" font-family="Helvetica,sans-Serif" font-size="10.00">wmtk::set_logger</text>
</a>
</g>
</g>
<!-- Node15&#45;&gt;Node16 -->
<g id="edge18_Node000015_Node000016" class="edge">
<title>Node15&#45;&gt;Node16</title>
<g id="a_edge18_Node000015_Node000016"><a xlink:title=" ">
<path fill="none" stroke="#63b8ff" d="M498.23,-203C524.24,-203 558.73,-203 588.06,-203"/>
<polygon fill="#63b8ff" stroke="#63b8ff" points="588.19,-206.5 598.19,-203 588.19,-199.5 588.19,-206.5"/>
</a>
</g>
</g>
<!-- Node18 -->
<g id="Node000018" class="node">
<title>Node18</title>
<g id="a_Node000018"><a xlink:href="classwmtk_1_1_tuple.html#a0023f575be92cd5ceeeaaaa3762ea06d" target="_top" xlink:title="Checks if a tuple is &quot;null&quot;. This merely implies the global index is &#45;1.">
<polygon fill="white" stroke="#666666" points="514,-120.5 401,-120.5 401,-101.5 514,-101.5 514,-120.5"/>
<text text-anchor="middle" x="457.5" y="-108.5" font-family="Helvetica,sans-Serif" font-size="10.00">wmtk::Tuple::is_null</text>
</a>
</g>
</g>
<!-- Node17&#45;&gt;Node18 -->
<g id="edge20_Node000017_Node000018" class="edge">
<title>Node17&#45;&gt;Node18</title>
<g id="a_edge20_Node000017_Node000018"><a xlink:title=" ">
<path fill="none" stroke="#63b8ff" d="M307.63,-138.47C334.19,-133.57 366.76,-127.56 394.65,-122.41"/>
<polygon fill="#63b8ff" stroke="#63b8ff" points="395.49,-125.82 404.69,-120.56 394.22,-118.93 395.49,-125.82"/>
</a>
</g>
</g>
<!-- Node19 -->
<g id="Node000019" class="node">
<title>Node19</title>
<g id="a_Node000019"><a xlink:href="classwmtk_1_1_mesh.html#ade176d345902d97af8c5da04aa3a095b" target="_top" xlink:title=" ">
<polygon fill="white" stroke="#666666" points="527.5,-157.5 387.5,-157.5 387.5,-138.5 527.5,-138.5 527.5,-157.5"/>
<text text-anchor="middle" x="457.5" y="-145.5" font-family="Helvetica,sans-Serif" font-size="10.00">wmtk::Mesh::is_removed</text>
</a>
</g>
</g>
<!-- Node17&#45;&gt;Node19 -->
<g id="edge21_Node000017_Node000019" class="edge">
<title>Node17&#45;&gt;Node19</title>
<g id="a_edge21_Node000017_Node000019"><a xlink:title=" ">
<path fill="none" stroke="#63b8ff" d="M315.07,-148C334.53,-148 356.49,-148 377.2,-148"/>
<polygon fill="#63b8ff" stroke="#63b8ff" points="377.25,-151.5 387.25,-148 377.25,-144.5 377.25,-151.5"/>
</a>
</g>
</g>
<!-- Node19&#45;&gt;Node19 -->
<g id="edge22_Node000019_Node000019" class="edge">
<title>Node19&#45;&gt;Node19</title>
<g id="a_edge22_Node000019_Node000019"><a xlink:title=" ">
<path fill="none" stroke="#63b8ff" d="M428.22,-157.58C413.97,-166.23 423.73,-175.5 457.5,-175.5 480.72,-175.5 492.59,-171.12 493.11,-165.57"/>
<polygon fill="#63b8ff" stroke="#63b8ff" points="495.73,-163.25 486.78,-157.58 490.25,-167.6 495.73,-163.25"/>
</a>
</g>
</g>
<!-- Node21 -->
<g id="Node000021" class="node">
<title>Node21</title>
<g id="a_Node000021"><a xlink:href="namespacewmtk_1_1autogen_1_1tet__mesh.html#ace6b80b1be9aec0d6a5ac5d144b40965" target="_top" xlink:title=" ">
<polygon fill="white" stroke="#666666" points="518.5,-83.5 396.5,-83.5 396.5,-42.5 518.5,-42.5 518.5,-83.5"/>
<text text-anchor="start" x="404.5" y="-71.5" font-family="Helvetica,sans-Serif" font-size="10.00">wmtk::autogen::tet</text>
<text text-anchor="start" x="404.5" y="-60.5" font-family="Helvetica,sans-Serif" font-size="10.00">_mesh::local_id_table</text>
<text text-anchor="middle" x="457.5" y="-49.5" font-family="Helvetica,sans-Serif" font-size="10.00">_offset</text>
</a>
</g>
</g>
<!-- Node20&#45;&gt;Node21 -->
<g id="edge25_Node000020_Node000021" class="edge">
<title>Node20&#45;&gt;Node21</title>
<g id="a_edge25_Node000020_Node000021"><a xlink:title=" ">
<path fill="none" stroke="#63b8ff" d="M316.16,-76.3C338.26,-74.2 363.48,-71.81 386.39,-69.64"/>
<polygon fill="#63b8ff" stroke="#63b8ff" points="386.76,-73.12 396.39,-68.7 386.1,-66.16 386.76,-73.12"/>
</a>
</g>
</g>
<!-- Node22 -->
<g id="Node000022" class="node">
<title>Node22</title>
<g id="a_Node000022"><a xlink:href="classwmtk_1_1utils_1_1_tuple_inspector.html#a3a04acf16e0eff80ade8e0fb8753ac1b" target="_top" xlink:title=" ">
<polygon fill="white" stroke="#666666" points="723,-126 575,-126 575,-96 723,-96 723,-126"/>
<text text-anchor="start" x="583" y="-114" font-family="Helvetica,sans-Serif" font-size="10.00">wmtk::utils::TupleInspector</text>
<text text-anchor="middle" x="649" y="-103" font-family="Helvetica,sans-Serif" font-size="10.00">::local_eid</text>
</a>
</g>
</g>
<!-- Node21&#45;&gt;Node22 -->
<g id="edge26_Node000021_Node000022" class="edge">
<title>Node21&#45;&gt;Node22</title>
<g id="a_edge26_Node000021_Node000022"><a xlink:title=" ">
<path fill="none" stroke="#63b8ff" d="M518.72,-78.25C537.82,-83.09 559.09,-88.48 578.77,-93.46"/>
<polygon fill="#63b8ff" stroke="#63b8ff" points="578.03,-96.89 588.59,-95.95 579.75,-90.1 578.03,-96.89"/>
</a>
</g>
</g>
<!-- Node23 -->
<g id="Node000023" class="node">
<title>Node23</title>
<g id="a_Node000023"><a xlink:href="classwmtk_1_1utils_1_1_tuple_inspector.html#ae4f5c770f4a2f9440eef24448929432d" target="_top" xlink:title=" ">
<polygon fill="white" stroke="#666666" points="723,-78 575,-78 575,-48 723,-48 723,-78"/>
<text text-anchor="start" x="583" y="-66" font-family="Helvetica,sans-Serif" font-size="10.00">wmtk::utils::TupleInspector</text>
<text text-anchor="middle" x="649" y="-55" font-family="Helvetica,sans-Serif" font-size="10.00">::local_fid</text>
</a>
</g>
</g>
<!-- Node21&#45;&gt;Node23 -->
<g id="edge27_Node000021_Node000023" class="edge">
<title>Node21&#45;&gt;Node23</title>
<g id="a_edge27_Node000021_Node000023"><a xlink:title=" ">
<path fill="none" stroke="#63b8ff" d="M518.72,-63C533.39,-63 549.34,-63 564.86,-63"/>
<polygon fill="#63b8ff" stroke="#63b8ff" points="564.99,-66.5 574.99,-63 564.99,-59.5 564.99,-66.5"/>
</a>
</g>
</g>
<!-- Node24 -->
<g id="Node000024" class="node">
<title>Node24</title>
<g id="a_Node000024"><a xlink:href="classwmtk_1_1utils_1_1_tuple_inspector.html#a92f5faa08a7f78424f5cd1ec79dcedbb" target="_top" xlink:title=" ">
<polygon fill="white" stroke="#666666" points="723,-30 575,-30 575,0 723,0 723,-30"/>
<text text-anchor="start" x="583" y="-18" font-family="Helvetica,sans-Serif" font-size="10.00">wmtk::utils::TupleInspector</text>
<text text-anchor="middle" x="649" y="-7" font-family="Helvetica,sans-Serif" font-size="10.00">::local_vid</text>
</a>
</g>
</g>
<!-- Node21&#45;&gt;Node24 -->
<g id="edge28_Node000021_Node000024" class="edge">
<title>Node21&#45;&gt;Node24</title>
<g id="a_edge28_Node000021_Node000024"><a xlink:title=" ">
<path fill="none" stroke="#63b8ff" d="M518.72,-47.75C537.82,-42.91 559.09,-37.52 578.77,-32.54"/>
<polygon fill="#63b8ff" stroke="#63b8ff" points="579.75,-35.9 588.59,-30.05 578.03,-29.11 579.75,-35.9"/>
</a>
</g>
</g>
</g>
</svg>
