<?xml version="1.0" encoding="UTF-8" standalone="no"?>
<!DOCTYPE svg PUBLIC "-//W3C//DTD SVG 1.1//EN"
 "http://www.w3.org/Graphics/SVG/1.1/DTD/svg11.dtd">
<!-- Generated by graphviz version 2.43.0 (0)
 -->
<!-- Title: wmtk::function::TriangleAMIPS::eval Pages: 1 -->
<!--zoomable 217 -->

<svg id="main" version="1.1" xmlns="http://www.w3.org/2000/svg" xmlns:xlink="http://www.w3.org/1999/xlink" xml:space="preserve" onload="init(evt)">
<style type="text/css"><![CDATA[
.node, .edge {opacity: 0.7;}
.node.selected, .edge.selected {opacity: 1;}
.edge:hover path { stroke: red; }
.edge:hover polygon { stroke: red; fill: red; }
]]></style>

<defs>
  <circle id="rim" cx="0" cy="0" r="7"/>
  <circle id="rim2" cx="0" cy="0" r="3.5"/>
  <g id="zoomPlus">
    <use xlink:href="#rim" fill="#404040"><set attributeName="fill" to="#808080" begin="zoomplus.mouseover" end="zoomplus.mouseout"/></use>
    <path d="M-4,0h8M0,-4v8" fill="none" stroke="white" stroke-width="1.5" pointer-events="none"/>
  </g>
  <g id="zoomMin">
    <use xlink:href="#rim" fill="#404040"><set attributeName="fill" to="#808080" begin="zoomminus.mouseover" end="zoomminus.mouseout"/></use>
    <path d="M-4,0h8" fill="none" stroke="white" stroke-width="1.5" pointer-events="none"/>
  </g>
  <g id="arrowUp" transform="translate(30 24)">
    <use xlink:href="#rim"/>
    <path pointer-events="none" fill="none" stroke="white" stroke-width="1.5" d="M0,-3.0v7 M-2.5,-0.5L0,-3.0L2.5,-0.5"/>
  </g>
  <g id="arrowRight" transform="rotate(90) translate(36 -43)">
    <use xlink:href="#rim"/>
    <path pointer-events="none" fill="none" stroke="white" stroke-width="1.5" d="M0,-3.0v7 M-2.5,-0.5L0,-3.0L2.5,-0.5"/>
  </g>
  <g id="arrowDown" transform="rotate(180) translate(-30 -48)">
    <use xlink:href="#rim"/>
    <path pointer-events="none" fill="none" stroke="white" stroke-width="1.5" d="M0,-3.0v7 M-2.5,-0.5L0,-3.0L2.5,-0.5"/>
  </g>
  <g id="arrowLeft" transform="rotate(270) translate(-36 17)">
    <use xlink:href="#rim"/>
    <path pointer-events="none" fill="none" stroke="white" stroke-width="1.5" d="M0,-3.0v7 M-2.5,-0.5L0,-3.0L2.5,-0.5"/>
  </g>
  <g id="resetDef">
    <use xlink:href="#rim2" fill="#404040"><set attributeName="fill" to="#808080" begin="reset.mouseover" end="reset.mouseout"/></use>
  </g>
</defs>
<script type="application/ecmascript">
var viewWidth = 1521;
var viewHeight = 217;
var sectionId = 'dynsection-2';
</script>
<script type="application/ecmascript" xlink:href="svg.min.js"/>
<svg id="graph" class="graph">
<g id="viewport">
<title>wmtk::function::TriangleAMIPS::eval</title>
<!-- Node1 -->
<g id="Node000001" class="node">
<title>Node1</title>
<g id="a_Node000001"><a xlink:title="This function defines a function f(x) where f is defined over a simplex domain and the variables for ...">
<polygon fill="#999999" stroke="#666666" points="134,-160.5 0,-160.5 0,-130.5 134,-130.5 134,-160.5"/>
<text text-anchor="start" x="8" y="-148.5" font-family="Helvetica,sans-Serif" font-size="10.00">wmtk::function::Triangle</text>
<text text-anchor="middle" x="67" y="-137.5" font-family="Helvetica,sans-Serif" font-size="10.00">AMIPS::eval</text>
</a>
</g>
</g>
<!-- Node2 -->
<g id="Node000002" class="node">
<title>Node2</title>
<g id="a_Node000002"><a xlink:href="namespacewmtk_1_1function_1_1utils.html#a5566d601b7700a203e925d5eaca49ddd" target="_top" xlink:title=" ">
<polygon fill="white" stroke="#666666" points="314.5,-208.5 197.5,-208.5 197.5,-178.5 314.5,-178.5 314.5,-208.5"/>
<text text-anchor="start" x="205.5" y="-196.5" font-family="Helvetica,sans-Serif" font-size="10.00">wmtk::function::utils</text>
<text text-anchor="middle" x="256" y="-185.5" font-family="Helvetica,sans-Serif" font-size="10.00">::amips</text>
</a>
</g>
</g>
<!-- Node1&#45;&gt;Node2 -->
<g id="edge1_Node000001_Node000002" class="edge">
<title>Node1&#45;&gt;Node2</title>
<g id="a_edge1_Node000001_Node000002"><a xlink:title=" ">
<path fill="none" stroke="#63b8ff" d="M126.65,-160.56C145.9,-165.5 167.44,-171.02 187.29,-176.12"/>
<polygon fill="#63b8ff" stroke="#63b8ff" points="186.64,-179.57 197.19,-178.66 188.38,-172.79 186.64,-179.57"/>
</a>
</g>
</g>
<!-- Node4 -->
<g id="Node000004" class="node">
<title>Node4</title>
<g id="a_Node000004"><a xlink:href="classwmtk_1_1function_1_1_per_simplex_function.html#a102906d1b23aa53d451853ca779ca2c4" target="_top" xlink:title=" ">
<polygon fill="white" stroke="#666666" points="342,-160.5 170,-160.5 170,-130.5 342,-130.5 342,-160.5"/>
<text text-anchor="start" x="178" y="-148.5" font-family="Helvetica,sans-Serif" font-size="10.00">wmtk::function::PerSimplex</text>
<text text-anchor="middle" x="256" y="-137.5" font-family="Helvetica,sans-Serif" font-size="10.00">Function::embedded_dimension</text>
</a>
</g>
</g>
<!-- Node1&#45;&gt;Node4 -->
<g id="edge3_Node000001_Node000004" class="edge">
<title>Node1&#45;&gt;Node4</title>
<g id="a_edge3_Node000001_Node000004"><a xlink:title=" ">
<path fill="none" stroke="#63b8ff" d="M134.19,-145.5C142.5,-145.5 151.12,-145.5 159.76,-145.5"/>
<polygon fill="#63b8ff" stroke="#63b8ff" points="159.9,-149 169.9,-145.5 159.9,-142 159.9,-149"/>
</a>
</g>
</g>
<!-- Node18 -->
<g id="Node000018" class="node">
<title>Node18</title>
<g id="a_Node000018"><a xlink:href="classwmtk_1_1simplex_1_1_simplex.html#ad2cc0340a0772b7d6f03ba7a781d1163" target="_top" xlink:title=" ">
<polygon fill="white" stroke="#666666" points="323.5,-112.5 188.5,-112.5 188.5,-82.5 323.5,-82.5 323.5,-112.5"/>
<text text-anchor="start" x="196.5" y="-100.5" font-family="Helvetica,sans-Serif" font-size="10.00">wmtk::simplex::Simplex</text>
<text text-anchor="middle" x="256" y="-89.5" font-family="Helvetica,sans-Serif" font-size="10.00">::primitive_type</text>
</a>
</g>
</g>
<!-- Node1&#45;&gt;Node18 -->
<g id="edge22_Node000001_Node000018" class="edge">
<title>Node1&#45;&gt;Node18</title>
<g id="a_edge22_Node000001_Node000018"><a xlink:title=" ">
<path fill="none" stroke="#63b8ff" d="M126.65,-130.44C145.71,-125.55 167.03,-120.08 186.73,-115.02"/>
<polygon fill="#63b8ff" stroke="#63b8ff" points="187.74,-118.38 196.55,-112.5 186,-111.6 187.74,-118.38"/>
</a>
</g>
</g>
<!-- Node3 -->
<g id="Node000003" class="node">
<title>Node3</title>
<g id="a_Node000003"><a xlink:href="namespacewmtk.html#a415d7a83177f8770f317416478c57cae" target="_top" xlink:title=" ">
<polygon fill="white" stroke="#666666" points="495.5,-203 427.5,-203 427.5,-184 495.5,-184 495.5,-203"/>
<text text-anchor="middle" x="461.5" y="-191" font-family="Helvetica,sans-Serif" font-size="10.00">wmtk::abs</text>
</a>
</g>
</g>
<!-- Node2&#45;&gt;Node3 -->
<g id="edge2_Node000002_Node000003" class="edge">
<title>Node2&#45;&gt;Node3</title>
<g id="a_edge2_Node000002_Node000003"><a xlink:title=" ">
<path fill="none" stroke="#63b8ff" d="M314.77,-193.5C347.36,-193.5 387.39,-193.5 417.25,-193.5"/>
<polygon fill="#63b8ff" stroke="#63b8ff" points="417.36,-197 427.36,-193.5 417.36,-190 417.36,-197"/>
</a>
</g>
</g>
<!-- Node5 -->
<g id="Node000005" class="node">
<title>Node5</title>
<g id="a_Node000005"><a xlink:href="classwmtk_1_1function_1_1_per_simplex_function.html#a79733e074d9fda13baa0354915b5c08e" target="_top" xlink:title=" ">
<polygon fill="white" stroke="#666666" points="740.5,-179.5 588.5,-179.5 588.5,-149.5 740.5,-149.5 740.5,-179.5"/>
<text text-anchor="start" x="596.5" y="-167.5" font-family="Helvetica,sans-Serif" font-size="10.00">wmtk::function::PerSimplex</text>
<text text-anchor="middle" x="664.5" y="-156.5" font-family="Helvetica,sans-Serif" font-size="10.00">Function::attribute_handle</text>
</a>
</g>
</g>
<!-- Node4&#45;&gt;Node5 -->
<g id="edge4_Node000004_Node000005" class="edge">
<title>Node4&#45;&gt;Node5</title>
<g id="a_edge4_Node000004_Node000005"><a xlink:title=" ">
<path fill="none" stroke="#63b8ff" d="M342.22,-149.48C411.56,-152.72 508.95,-157.28 578.29,-160.52"/>
<polygon fill="#63b8ff" stroke="#63b8ff" points="578.16,-164.01 588.31,-160.99 578.49,-157.02 578.16,-164.01"/>
</a>
</g>
</g>
<!-- Node10 -->
<g id="Node000010" class="node">
<title>Node10</title>
<g id="a_Node000010"><a xlink:href="classwmtk_1_1attribute_1_1_mesh_attribute_handle.html#a3c2f0b99a4f3581ac8da264d10c493a1" target="_top" xlink:title=" ">
<polygon fill="white" stroke="#666666" points="545,-109.5 378,-109.5 378,-79.5 545,-79.5 545,-109.5"/>
<text text-anchor="start" x="386" y="-97.5" font-family="Helvetica,sans-Serif" font-size="10.00">wmtk::attribute::MeshAttribute</text>
<text text-anchor="middle" x="461.5" y="-86.5" font-family="Helvetica,sans-Serif" font-size="10.00">Handle::dimension</text>
</a>
</g>
</g>
<!-- Node4&#45;&gt;Node10 -->
<g id="edge9_Node000004_Node000010" class="edge">
<title>Node4&#45;&gt;Node10</title>
<g id="a_edge9_Node000004_Node000010"><a xlink:title=" ">
<path fill="none" stroke="#63b8ff" d="M316.96,-130.47C340.14,-124.66 366.83,-117.98 390.86,-111.95"/>
<polygon fill="#63b8ff" stroke="#63b8ff" points="391.77,-115.33 400.62,-109.51 390.07,-108.54 391.77,-115.33"/>
</a>
</g>
</g>
<!-- Node6 -->
<g id="Node000006" class="node">
<title>Node6</title>
<g id="a_Node000006"><a xlink:href="classwmtk_1_1attribute_1_1_mesh_attribute_handle.html#ad577111f5b1fd05f60fae4b7f0ddb1f6" target="_top" xlink:title="Returns true if handle was initialized.">
<polygon fill="white" stroke="#666666" points="951,-179.5 784,-179.5 784,-149.5 951,-149.5 951,-179.5"/>
<text text-anchor="start" x="792" y="-167.5" font-family="Helvetica,sans-Serif" font-size="10.00">wmtk::attribute::MeshAttribute</text>
<text text-anchor="middle" x="867.5" y="-156.5" font-family="Helvetica,sans-Serif" font-size="10.00">Handle::is_valid</text>
</a>
</g>
</g>
<!-- Node5&#45;&gt;Node6 -->
<g id="edge5_Node000005_Node000006" class="edge">
<title>Node5&#45;&gt;Node6</title>
<g id="a_edge5_Node000005_Node000006"><a xlink:title=" ">
<path fill="none" stroke="#63b8ff" d="M740.63,-164.5C751.39,-164.5 762.56,-164.5 773.61,-164.5"/>
<polygon fill="#63b8ff" stroke="#63b8ff" points="773.7,-168 783.7,-164.5 773.7,-161 773.7,-168"/>
</a>
</g>
</g>
<!-- Node7 -->
<g id="Node000007" class="node">
<title>Node7</title>
<g id="a_Node000007"><a xlink:href="classwmtk_1_1_mesh.html#a73ea62ce0428cf64f836f77482a87c40" target="_top" xlink:title=" ">
<polygon fill="white" stroke="#666666" points="1133,-179.5 1011,-179.5 1011,-149.5 1133,-149.5 1133,-179.5"/>
<text text-anchor="start" x="1019" y="-167.5" font-family="Helvetica,sans-Serif" font-size="10.00">wmtk::Mesh::validate</text>
<text text-anchor="middle" x="1072" y="-156.5" font-family="Helvetica,sans-Serif" font-size="10.00">_handle</text>
</a>
</g>
</g>
<!-- Node6&#45;&gt;Node7 -->
<g id="edge6_Node000006_Node000007" class="edge">
<title>Node6&#45;&gt;Node7</title>
<g id="a_edge6_Node000006_Node000007"><a xlink:title=" ">
<path fill="none" stroke="#63b8ff" d="M951.16,-164.5C967.57,-164.5 984.67,-164.5 1000.63,-164.5"/>
<polygon fill="#63b8ff" stroke="#63b8ff" points="1000.93,-168 1010.93,-164.5 1000.93,-161 1000.93,-168"/>
</a>
</g>
</g>
<!-- Node8 -->
<g id="Node000008" class="node">
<title>Node8</title>
<g id="a_Node000008"><a xlink:href="classwmtk_1_1attribute_1_1_attribute_manager.html#a3b1a087ab6c03a0f2e6a6a93b87f3147" target="_top" xlink:title=" ">
<polygon fill="white" stroke="#666666" points="1336,-170.5 1193,-170.5 1193,-140.5 1336,-140.5 1336,-170.5"/>
<text text-anchor="start" x="1201" y="-158.5" font-family="Helvetica,sans-Serif" font-size="10.00">wmtk::attribute::Attribute</text>
<text text-anchor="middle" x="1264.5" y="-147.5" font-family="Helvetica,sans-Serif" font-size="10.00">Manager::validate_handle</text>
</a>
</g>
</g>
<!-- Node7&#45;&gt;Node8 -->
<g id="edge7_Node000007_Node000008" class="edge">
<title>Node7&#45;&gt;Node8</title>
<g id="a_edge7_Node000007_Node000008"><a xlink:title=" ">
<path fill="none" stroke="#63b8ff" d="M1133.01,-161.66C1148.73,-160.92 1165.93,-160.11 1182.54,-159.32"/>
<polygon fill="#63b8ff" stroke="#63b8ff" points="1182.97,-162.81 1192.79,-158.84 1182.64,-155.82 1182.97,-162.81"/>
</a>
</g>
</g>
<!-- Node9 -->
<g id="Node000009" class="node">
<title>Node9</title>
<g id="a_Node000009"><a xlink:href="classwmtk_1_1attribute_1_1_attribute_manager.html#a2169001c03d75b77488dba8494038fe5" target="_top" xlink:title=" ">
<polygon fill="white" stroke="#666666" points="1513,-118.5 1372,-118.5 1372,-88.5 1513,-88.5 1513,-118.5"/>
<text text-anchor="start" x="1380" y="-106.5" font-family="Helvetica,sans-Serif" font-size="10.00">wmtk::attribute::Attribute</text>
<text text-anchor="middle" x="1442.5" y="-95.5" font-family="Helvetica,sans-Serif" font-size="10.00">Manager::get</text>
</a>
</g>
</g>
<!-- Node8&#45;&gt;Node9 -->
<g id="edge8_Node000008_Node000009" class="edge">
<title>Node8&#45;&gt;Node9</title>
<g id="a_edge8_Node000008_Node000009"><a xlink:title=" ">
<path fill="none" stroke="#63b8ff" d="M1316.41,-140.46C1336.56,-134.5 1359.9,-127.61 1380.92,-121.4"/>
<polygon fill="#63b8ff" stroke="#63b8ff" points="1382.11,-124.7 1390.71,-118.51 1380.13,-117.98 1382.11,-124.7"/>
</a>
</g>
</g>
<!-- Node11 -->
<g id="Node000011" class="node">
<title>Node11</title>
<g id="a_Node000011"><a xlink:href="classwmtk_1_1attribute_1_1_mesh_attribute_handle.html#a7f60b49ee06ab72a15ba0507ce2a0316" target="_top" xlink:title=" ">
<polygon fill="white" stroke="#666666" points="748,-131.5 581,-131.5 581,-101.5 748,-101.5 748,-131.5"/>
<text text-anchor="start" x="589" y="-119.5" font-family="Helvetica,sans-Serif" font-size="10.00">wmtk::attribute::MeshAttribute</text>
<text text-anchor="middle" x="664.5" y="-108.5" font-family="Helvetica,sans-Serif" font-size="10.00">Handle::exists</text>
</a>
</g>
</g>
<!-- Node10&#45;&gt;Node11 -->
<g id="edge10_Node000010_Node000011" class="edge">
<title>Node10&#45;&gt;Node11</title>
<g id="a_edge10_Node000010_Node000011"><a xlink:title=" ">
<path fill="none" stroke="#63b8ff" d="M545.12,-103.54C553.61,-104.47 562.27,-105.42 570.85,-106.36"/>
<polygon fill="#63b8ff" stroke="#63b8ff" points="570.55,-109.85 580.87,-107.46 571.31,-102.89 570.55,-109.85"/>
</a>
</g>
</g>
<!-- Node13 -->
<g id="Node000013" class="node">
<title>Node13</title>
<g id="a_Node000013"><a xlink:href="classwmtk_1_1attribute_1_1_mesh_attribute_handle.html#a620620d54776b2c5f4f9cebad465cfa7" target="_top" xlink:title=" ">
<polygon fill="white" stroke="#666666" points="951,-89.5 784,-89.5 784,-59.5 951,-59.5 951,-89.5"/>
<text text-anchor="start" x="792" y="-77.5" font-family="Helvetica,sans-Serif" font-size="10.00">wmtk::attribute::MeshAttribute</text>
<text text-anchor="middle" x="867.5" y="-66.5" font-family="Helvetica,sans-Serif" font-size="10.00">Handle::mesh</text>
</a>
</g>
</g>
<!-- Node10&#45;&gt;Node13 -->
<g id="edge21_Node000010_Node000013" class="edge">
<title>Node10&#45;&gt;Node13</title>
<g id="a_edge21_Node000010_Node000013"><a xlink:title=" ">
<path fill="none" stroke="#63b8ff" d="M545.23,-90.4C611.68,-87.11 704.96,-82.5 773.89,-79.08"/>
<polygon fill="#63b8ff" stroke="#63b8ff" points="774.07,-82.58 783.88,-78.59 773.72,-75.59 774.07,-82.58"/>
</a>
</g>
</g>
<!-- Node14 -->
<g id="Node000014" class="node">
<title>Node14</title>
<g id="a_Node000014"><a xlink:href="classwmtk_1_1_mesh.html#a4f546f0125de42db771686220d77ec78" target="_top" xlink:title=" ">
<polygon fill="white" stroke="#666666" points="737.5,-41.5 591.5,-41.5 591.5,-11.5 737.5,-11.5 737.5,-41.5"/>
<text text-anchor="start" x="599.5" y="-29.5" font-family="Helvetica,sans-Serif" font-size="10.00">wmtk::Mesh::get_attribute</text>
<text text-anchor="middle" x="664.5" y="-18.5" font-family="Helvetica,sans-Serif" font-size="10.00">_dimension</text>
</a>
</g>
</g>
<!-- Node10&#45;&gt;Node14 -->
<g id="edge16_Node000010_Node000014" class="edge">
<title>Node10&#45;&gt;Node14</title>
<g id="a_edge16_Node000010_Node000014"><a xlink:title=" ">
<path fill="none" stroke="#63b8ff" d="M507.11,-79.41C537.29,-69.2 577.35,-55.65 609.36,-44.82"/>
<polygon fill="#63b8ff" stroke="#63b8ff" points="610.67,-48.07 619.02,-41.55 608.42,-41.44 610.67,-48.07"/>
</a>
</g>
</g>
<!-- Node11&#45;&gt;Node6 -->
<g id="edge14_Node000011_Node000006" class="edge">
<title>Node11&#45;&gt;Node6</title>
<g id="a_edge14_Node000011_Node000006"><a xlink:title=" ">
<path fill="none" stroke="#63b8ff" d="M728.55,-131.56C749.22,-136.49 772.36,-142.02 793.69,-147.11"/>
<polygon fill="#63b8ff" stroke="#63b8ff" points="793.14,-150.58 803.68,-149.5 794.76,-143.77 793.14,-150.58"/>
</a>
</g>
</g>
<!-- Node12 -->
<g id="Node000012" class="node">
<title>Node12</title>
<g id="a_Node000012"><a xlink:href="classwmtk_1_1_mesh.html#a89b735bef9cbf8d5ab955d23f787b70f" target="_top" xlink:title=" ">
<polygon fill="white" stroke="#666666" points="1145.5,-113 998.5,-113 998.5,-94 1145.5,-94 1145.5,-113"/>
<text text-anchor="middle" x="1072" y="-101" font-family="Helvetica,sans-Serif" font-size="10.00">wmtk::Mesh::has_attribute</text>
</a>
</g>
</g>
<!-- Node11&#45;&gt;Node12 -->
<g id="edge11_Node000011_Node000012" class="edge">
<title>Node11&#45;&gt;Node12</title>
<g id="a_edge11_Node000011_Node000012"><a xlink:title=" ">
<path fill="none" stroke="#63b8ff" d="M748.05,-113.85C818.12,-111.61 918.18,-108.4 988.3,-106.15"/>
<polygon fill="#63b8ff" stroke="#63b8ff" points="988.54,-109.65 998.42,-105.83 988.32,-102.65 988.54,-109.65"/>
</a>
</g>
</g>
<!-- Node11&#45;&gt;Node13 -->
<g id="edge15_Node000011_Node000013" class="edge">
<title>Node11&#45;&gt;Node13</title>
<g id="a_edge15_Node000011_Node000013"><a xlink:title=" ">
<path fill="none" stroke="#63b8ff" d="M737.5,-101.46C752.74,-98.27 768.95,-94.88 784.53,-91.63"/>
<polygon fill="#63b8ff" stroke="#63b8ff" points="785.59,-94.98 794.67,-89.51 784.16,-88.13 785.59,-94.98"/>
</a>
</g>
</g>
<!-- Node12&#45;&gt;Node9 -->
<g id="edge12_Node000012_Node000009" class="edge">
<title>Node12&#45;&gt;Node9</title>
<g id="a_edge12_Node000012_Node000009"><a xlink:title=" ">
<path fill="none" stroke="#63b8ff" d="M1145.8,-103.5C1208.12,-103.5 1297.69,-103.5 1361.89,-103.5"/>
<polygon fill="#63b8ff" stroke="#63b8ff" points="1361.97,-107 1371.97,-103.5 1361.97,-100 1361.97,-107"/>
</a>
</g>
</g>
<!-- Node12&#45;&gt;Node12 -->
<g id="edge13_Node000012_Node000012" class="edge">
<title>Node12&#45;&gt;Node12</title>
<g id="a_edge13_Node000012_Node000012"><a xlink:title=" ">
<path fill="none" stroke="#63b8ff" d="M1042.41,-113.08C1028.01,-121.73 1037.88,-131 1072,-131 1095.46,-131 1107.45,-126.62 1107.98,-121.07"/>
<polygon fill="#63b8ff" stroke="#63b8ff" points="1110.57,-118.71 1101.59,-113.08 1105.11,-123.08 1110.57,-118.71"/>
</a>
</g>
</g>
<!-- Node15 -->
<g id="Node000015" class="node">
<title>Node15</title>
<g id="a_Node000015"><a xlink:href="classwmtk_1_1attribute_1_1_attribute_manager.html#a4ae249faad236f8d98287c3ec61e987e" target="_top" xlink:title=" ">
<polygon fill="white" stroke="#666666" points="938,-41 797,-41 797,0 938,0 938,-41"/>
<text text-anchor="start" x="805" y="-29" font-family="Helvetica,sans-Serif" font-size="10.00">wmtk::attribute::Attribute</text>
<text text-anchor="start" x="805" y="-18" font-family="Helvetica,sans-Serif" font-size="10.00">Manager::get_attribute</text>
<text text-anchor="middle" x="867.5" y="-7" font-family="Helvetica,sans-Serif" font-size="10.00">_dimension</text>
</a>
</g>
</g>
<!-- Node14&#45;&gt;Node15 -->
<g id="edge17_Node000014_Node000015" class="edge">
<title>Node14&#45;&gt;Node15</title>
<g id="a_edge17_Node000014_Node000015"><a xlink:title=" ">
<path fill="none" stroke="#63b8ff" d="M737.78,-24.34C753.57,-23.87 770.37,-23.37 786.44,-22.89"/>
<polygon fill="#63b8ff" stroke="#63b8ff" points="786.98,-26.38 796.88,-22.58 786.78,-19.38 786.98,-26.38"/>
</a>
</g>
</g>
<!-- Node15&#45;&gt;Node9 -->
<g id="edge18_Node000015_Node000009" class="edge">
<title>Node15&#45;&gt;Node9</title>
<g id="a_edge18_Node000015_Node000009"><a xlink:title=" ">
<path fill="none" stroke="#63b8ff" d="M938.21,-35.47C954.2,-38.67 971.16,-41.87 987,-44.5 1117.89,-66.22 1271.1,-84.68 1362.02,-94.91"/>
<polygon fill="#63b8ff" stroke="#63b8ff" points="1361.65,-98.39 1371.98,-96.02 1362.43,-91.43 1361.65,-98.39"/>
</a>
</g>
</g>
<!-- Node16 -->
<g id="Node000016" class="node">
<title>Node16</title>
<g id="a_Node000016"><a xlink:href="classwmtk_1_1attribute_1_1_typed_attribute_handle.html#ad473b36dc43489bad4a345dceac443fa" target="_top" xlink:title=" ">
<polygon fill="white" stroke="#666666" points="1157,-35.5 987,-35.5 987,-5.5 1157,-5.5 1157,-35.5"/>
<text text-anchor="start" x="995" y="-23.5" font-family="Helvetica,sans-Serif" font-size="10.00">wmtk::attribute::TypedAttribute</text>
<text text-anchor="middle" x="1072" y="-12.5" font-family="Helvetica,sans-Serif" font-size="10.00">Handle::is_valid</text>
</a>
</g>
</g>
<!-- Node15&#45;&gt;Node16 -->
<g id="edge19_Node000015_Node000016" class="edge">
<title>Node15&#45;&gt;Node16</title>
<g id="a_edge19_Node000015_Node000016"><a xlink:title=" ">
<path fill="none" stroke="#63b8ff" d="M938.19,-20.5C950.56,-20.5 963.62,-20.5 976.54,-20.5"/>
<polygon fill="#63b8ff" stroke="#63b8ff" points="976.85,-24 986.85,-20.5 976.85,-17 976.85,-24"/>
</a>
</g>
</g>
<!-- Node17 -->
<g id="Node000017" class="node">
<title>Node17</title>
<g id="a_Node000017"><a xlink:href="classwmtk_1_1attribute_1_1_attribute_handle.html#afbe0d658f352336562850deaca347fe6" target="_top" xlink:title=" ">
<polygon fill="white" stroke="#666666" points="1335,-35.5 1194,-35.5 1194,-5.5 1335,-5.5 1335,-35.5"/>
<text text-anchor="start" x="1202" y="-23.5" font-family="Helvetica,sans-Serif" font-size="10.00">wmtk::attribute::Attribute</text>
<text text-anchor="middle" x="1264.5" y="-12.5" font-family="Helvetica,sans-Serif" font-size="10.00">Handle::is_valid</text>
</a>
</g>
</g>
<!-- Node16&#45;&gt;Node17 -->
<g id="edge20_Node000016_Node000017" class="edge">
<title>Node16&#45;&gt;Node17</title>
<g id="a_edge20_Node000016_Node000017"><a xlink:title=" ">
<path fill="none" stroke="#63b8ff" d="M1157.11,-20.5C1165.92,-20.5 1174.86,-20.5 1183.63,-20.5"/>
<polygon fill="#63b8ff" stroke="#63b8ff" points="1183.81,-24 1193.81,-20.5 1183.81,-17 1183.81,-24"/>
</a>
</g>
</g>
</g>
</svg>

<g id="navigator" transform="translate(0 0)" fill="#404254">
  <rect fill="#f2f5e9" fill-opacity="0.5" stroke="#606060" stroke-width=".5" x="0" y="0" width="60" height="60"/>
  <use id="zoomplus" xlink:href="#zoomPlus" x="17" y="9" onmousedown="handleZoom(evt,'in')"/>
  <use id="zoomminus" xlink:href="#zoomMin" x="42" y="9" onmousedown="handleZoom(evt,'out')"/>
  <use id="reset" xlink:href="#resetDef" x="30" y="36" onmousedown="handleReset()"/>
   <use id="arrowup" xlink:href="#arrowUp" x="0" y="0" onmousedown="handlePan(0,-1)"/>
  <use id="arrowright" xlink:href="#arrowRight" x="0" y="0" onmousedown="handlePan(1,0)"/>
  <use id="arrowdown" xlink:href="#arrowDown" x="0" y="0" onmousedown="handlePan(0,1)"/>
  <use id="arrowleft" xlink:href="#arrowLeft" x="0" y="0" onmousedown="handlePan(-1,0)"/>
</g>
<svg viewBox="0 0 15 15" width="100%" height="30px" preserveAspectRatio="xMaxYMin meet">
 <g id="arrow_out" transform="scale(0.3 0.3)">
  <a xlink:href="classwmtk_1_1function_1_1_triangle_a_m_i_p_s_a9efeeacdc9da3b8000a13d44be7e62b7_cgraph_org.svg" target="_base">
   <rect id="button" ry="5" rx="5" y="6" x="6" height="38" width="38"
        fill="#f2f5e9" fill-opacity="0.5" stroke="#606060" stroke-width="1.0"/>
   <path id="arrow"
     d="M 11.500037,31.436501 C 11.940474,20.09759 22.043105,11.32322 32.158766,21.979434 L 37.068811,17.246167 C 37.068811,17.246167 37.088388,32 37.088388,32 L 22.160133,31.978069 C 22.160133,31.978069 26.997745,27.140456 26.997745,27.140456 C 18.528582,18.264221 13.291696,25.230495 11.500037,31.436501 z"
     style="fill:#404040;"/>
  </a>
 </g>
</svg>

<style type='text/css'>
<![CDATA[
[data-mouse-over-selected='false'] { opacity: 0.7; }
[data-mouse-over-selected='true']  { opacity: 1.0; }
]]>
</style>
<script type="application/ecmascript"><![CDATA[
document.addEventListener('DOMContentLoaded', (event) => {
  highlightEdges();
  highlightAdjacentNodes();
});
]]></script>
</svg>
