<?xml version="1.0" encoding="UTF-8" standalone="no"?>
<!DOCTYPE svg PUBLIC "-//W3C//DTD SVG 1.1//EN"
 "http://www.w3.org/Graphics/SVG/1.1/DTD/svg11.dtd">
<!-- Generated by graphviz version 2.43.0 (0)
 -->
<!-- Title: wmtk::dart::SimplexDart::permutation_index_from_primitive_switch Pages: 1 -->
<svg width="899pt" height="194pt"
 viewBox="0.00 0.00 899.00 194.00" xmlns="http://www.w3.org/2000/svg" xmlns:xlink="http://www.w3.org/1999/xlink">
<g id="graph0" class="graph" transform="scale(1 1) rotate(0) translate(4 190)">
<title>wmtk::dart::SimplexDart::permutation_index_from_primitive_switch</title>
<!-- Node1 -->
<g id="Node000001" class="node">
<title>Node1</title>
<g id="a_Node000001"><a xlink:title=" ">
<polygon fill="#999999" stroke="#666666" points="891,-116.5 748,-116.5 748,-75.5 891,-75.5 891,-116.5"/>
<text text-anchor="start" x="756" y="-104.5" font-family="Helvetica,sans-Serif" font-size="10.00">wmtk::dart::SimplexDart</text>
<text text-anchor="start" x="756" y="-93.5" font-family="Helvetica,sans-Serif" font-size="10.00">::permutation_index_from</text>
<text text-anchor="middle" x="819.5" y="-82.5" font-family="Helvetica,sans-Serif" font-size="10.00">_primitive_switch</text>
</a>
</g>
</g>
<!-- Node2 -->
<g id="Node000002" class="node">
<title>Node2</title>
<g id="a_Node000002"><a xlink:href="classwmtk_1_1dart_1_1_simplex_dart.html#ad837f9caa9ec5bf4833f13b3a0d69a46" target="_top" xlink:title=" ">
<polygon fill="white" stroke="#666666" points="712,-111 575,-111 575,-81 712,-81 712,-111"/>
<text text-anchor="start" x="583" y="-99" font-family="Helvetica,sans-Serif" font-size="10.00">wmtk::dart::SimplexDart</text>
<text text-anchor="middle" x="643.5" y="-88" font-family="Helvetica,sans-Serif" font-size="10.00">::primitive_as_index</text>
</a>
</g>
</g>
<!-- Node1&#45;&gt;Node2 -->
<g id="edge1_Node000001_Node000002" class="edge">
<title>Node1&#45;&gt;Node2</title>
<g id="a_edge1_Node000001_Node000002"><a xlink:title=" ">
<path fill="none" stroke="#63b8ff" d="M737.88,-96C729.23,-96 720.5,-96 712.02,-96"/>
<polygon fill="#63b8ff" stroke="#63b8ff" points="737.98,-99.5 747.98,-96 737.98,-92.5 737.98,-99.5"/>
</a>
</g>
</g>
<!-- Node3 -->
<g id="Node000003" class="node">
<title>Node3</title>
<g id="a_Node000003"><a xlink:href="namespacewmtk_1_1dart_1_1utils.html#a62cdf3ebb0a6bb03853783a3c54493cd" target="_top" xlink:title=" ">
<polygon fill="white" stroke="#666666" points="520.5,-159 417.5,-159 417.5,-129 520.5,-129 520.5,-159"/>
<text text-anchor="start" x="425.5" y="-147" font-family="Helvetica,sans-Serif" font-size="10.00">wmtk::dart::utils::</text>
<text text-anchor="middle" x="469" y="-136" font-family="Helvetica,sans-Serif" font-size="10.00">edge_mirror</text>
</a>
</g>
</g>
<!-- Node2&#45;&gt;Node3 -->
<g id="edge2_Node000002_Node000003" class="edge">
<title>Node2&#45;&gt;Node3</title>
<g id="a_edge2_Node000002_Node000003"><a xlink:title=" ">
<path fill="none" stroke="#63b8ff" d="M578.57,-113.79C559.47,-119.1 538.81,-124.85 520.68,-129.9"/>
<polygon fill="#63b8ff" stroke="#63b8ff" points="579.7,-117.11 588.39,-111.06 577.82,-110.36 579.7,-117.11"/>
</a>
</g>
</g>
<!-- Node4 -->
<g id="Node000004" class="node">
<title>Node4</title>
<g id="a_Node000004"><a xlink:href="namespacewmtk_1_1dart_1_1utils.html#adb71d0c4b7bee860a02037c07f29f927" target="_top" xlink:title=" ">
<polygon fill="white" stroke="#666666" points="520.5,-111 417.5,-111 417.5,-81 520.5,-81 520.5,-111"/>
<text text-anchor="start" x="425.5" y="-99" font-family="Helvetica,sans-Serif" font-size="10.00">wmtk::dart::utils::</text>
<text text-anchor="middle" x="469" y="-88" font-family="Helvetica,sans-Serif" font-size="10.00">edge_mirror</text>
</a>
</g>
</g>
<!-- Node2&#45;&gt;Node4 -->
<g id="edge3_Node000002_Node000004" class="edge">
<title>Node2&#45;&gt;Node4</title>
<g id="a_edge3_Node000002_Node000004"><a xlink:title=" ">
<path fill="none" stroke="#63b8ff" d="M564.58,-96C549.68,-96 534.45,-96 520.68,-96"/>
<polygon fill="#63b8ff" stroke="#63b8ff" points="564.82,-99.5 574.82,-96 564.82,-92.5 564.82,-99.5"/>
</a>
</g>
</g>
<!-- Node9 -->
<g id="Node000009" class="node">
<title>Node9</title>
<g id="a_Node000009"><a xlink:href="classwmtk_1_1dart_1_1_dart_topology_accessor.html#aad0eea77aaff583749cc87a3d3823aad" target="_top" xlink:title=" ">
<polygon fill="white" stroke="#666666" points="539,-60 399,-60 399,-30 539,-30 539,-60"/>
<text text-anchor="start" x="407" y="-48" font-family="Helvetica,sans-Serif" font-size="10.00">wmtk::dart::DartTopology</text>
<text text-anchor="middle" x="469" y="-37" font-family="Helvetica,sans-Serif" font-size="10.00">Accessor::switch_dart</text>
</a>
</g>
</g>
<!-- Node2&#45;&gt;Node9 -->
<g id="edge8_Node000002_Node000009" class="edge">
<title>Node2&#45;&gt;Node9</title>
<g id="a_edge8_Node000002_Node000009"><a xlink:title=" ">
<path fill="none" stroke="#63b8ff" d="M582.04,-78.12C562.02,-72.21 539.97,-65.69 520.76,-60.01"/>
<polygon fill="#63b8ff" stroke="#63b8ff" points="581.1,-81.5 591.68,-80.97 583.08,-74.78 581.1,-81.5"/>
</a>
</g>
</g>
<!-- Node5 -->
<g id="Node000005" class="node">
<title>Node5</title>
<g id="a_Node000005"><a xlink:href="namespacewmtk_1_1dart_1_1utils.html#ab7930d3cc0ee0f5f062eb264d2e49ed7" target="_top" xlink:title=" ">
<polygon fill="white" stroke="#666666" points="330,-186 227,-186 227,-156 330,-156 330,-186"/>
<text text-anchor="start" x="235" y="-174" font-family="Helvetica,sans-Serif" font-size="10.00">wmtk::dart::utils::</text>
<text text-anchor="middle" x="278.5" y="-163" font-family="Helvetica,sans-Serif" font-size="10.00">edge_mirror</text>
</a>
</g>
</g>
<!-- Node4&#45;&gt;Node5 -->
<g id="edge4_Node000004_Node000005" class="edge">
<title>Node4&#45;&gt;Node5</title>
<g id="a_edge4_Node000004_Node000005"><a xlink:title=" ">
<path fill="none" stroke="#63b8ff" d="M409.19,-115.03C405.69,-116.6 402.27,-118.26 399,-120 381.35,-129.4 380.91,-138.09 363,-147 352.74,-152.11 341.21,-156.3 330.07,-159.66"/>
<polygon fill="#63b8ff" stroke="#63b8ff" points="410.71,-118.19 418.57,-111.09 408,-111.74 410.71,-118.19"/>
</a>
</g>
</g>
<!-- Node6 -->
<g id="Node000006" class="node">
<title>Node6</title>
<g id="a_Node000006"><a xlink:href="namespacewmtk_1_1dart_1_1utils.html#af00e21f7312b26e4ca9766c3ffeee076" target="_top" xlink:title=" ">
<polygon fill="white" stroke="#666666" points="330,-138 227,-138 227,-108 330,-108 330,-138"/>
<text text-anchor="start" x="235" y="-126" font-family="Helvetica,sans-Serif" font-size="10.00">wmtk::dart::utils::</text>
<text text-anchor="middle" x="278.5" y="-115" font-family="Helvetica,sans-Serif" font-size="10.00">edge_mirror</text>
</a>
</g>
</g>
<!-- Node4&#45;&gt;Node6 -->
<g id="edge5_Node000004_Node000006" class="edge">
<title>Node4&#45;&gt;Node6</title>
<g id="a_edge5_Node000004_Node000006"><a xlink:title=" ">
<path fill="none" stroke="#63b8ff" d="M407.41,-104.68C382.48,-108.25 353.94,-112.34 330.15,-115.74"/>
<polygon fill="#63b8ff" stroke="#63b8ff" points="408.08,-108.12 417.49,-103.24 407.09,-101.19 408.08,-108.12"/>
</a>
</g>
</g>
<!-- Node7 -->
<g id="Node000007" class="node">
<title>Node7</title>
<g id="a_Node000007"><a xlink:href="classwmtk_1_1operations_1_1internal_1_1_collapse_alternate_facet_data.html#ad5d625ffe8c3c7b0e62c77cd2332f053" target="_top" xlink:title=" ">
<polygon fill="white" stroke="#666666" points="357.5,-89.5 199.5,-89.5 199.5,-48.5 357.5,-48.5 357.5,-89.5"/>
<text text-anchor="start" x="207.5" y="-77.5" font-family="Helvetica,sans-Serif" font-size="10.00">wmtk::operations::internal</text>
<text text-anchor="start" x="207.5" y="-66.5" font-family="Helvetica,sans-Serif" font-size="10.00">::CollapseAlternateFacetData</text>
<text text-anchor="middle" x="278.5" y="-55.5" font-family="Helvetica,sans-Serif" font-size="10.00">::get_alternatives</text>
</a>
</g>
</g>
<!-- Node4&#45;&gt;Node7 -->
<g id="edge6_Node000004_Node000007" class="edge">
<title>Node4&#45;&gt;Node7</title>
<g id="a_edge6_Node000004_Node000007"><a xlink:title=" ">
<path fill="none" stroke="#63b8ff" d="M407.36,-87.31C391.59,-85.06 374.39,-82.59 357.85,-80.22"/>
<polygon fill="#63b8ff" stroke="#63b8ff" points="407.09,-90.81 417.49,-88.76 408.08,-83.88 407.09,-90.81"/>
</a>
</g>
</g>
<!-- Node8 -->
<g id="Node000008" class="node">
<title>Node8</title>
<g id="a_Node000008"><a xlink:href="classwmtk_1_1operations_1_1internal_1_1_collapse_alternate_facet_data.html#aec408f6fcc5cb735d8761af17631bff9" target="_top" xlink:title=" ">
<polygon fill="white" stroke="#666666" points="158,-89.5 0,-89.5 0,-48.5 158,-48.5 158,-89.5"/>
<text text-anchor="start" x="8" y="-77.5" font-family="Helvetica,sans-Serif" font-size="10.00">wmtk::operations::internal</text>
<text text-anchor="start" x="8" y="-66.5" font-family="Helvetica,sans-Serif" font-size="10.00">::CollapseAlternateFacetData</text>
<text text-anchor="middle" x="79" y="-55.5" font-family="Helvetica,sans-Serif" font-size="10.00">::get_alternative</text>
</a>
</g>
</g>
<!-- Node7&#45;&gt;Node8 -->
<g id="edge7_Node000007_Node000008" class="edge">
<title>Node7&#45;&gt;Node8</title>
<g id="a_edge7_Node000007_Node000008"><a xlink:title=" ">
<path fill="none" stroke="#63b8ff" d="M189.17,-69C178.83,-69 168.33,-69 158.14,-69"/>
<polygon fill="#63b8ff" stroke="#63b8ff" points="189.44,-72.5 199.44,-69 189.44,-65.5 189.44,-72.5"/>
</a>
</g>
</g>
<!-- Node10 -->
<g id="Node000010" class="node">
<title>Node10</title>
<g id="a_Node000010"><a xlink:href="namespacewmtk_1_1dart_1_1utils.html#a50fa2050fcefc95e346f6dc4f8766447" target="_top" xlink:title=" ">
<polygon fill="white" stroke="#666666" points="363,-30 194,-30 194,0 363,0 363,-30"/>
<text text-anchor="start" x="202" y="-18" font-family="Helvetica,sans-Serif" font-size="10.00">wmtk::dart::utils::</text>
<text text-anchor="middle" x="278.5" y="-7" font-family="Helvetica,sans-Serif" font-size="10.00">indexed_topology_initialization</text>
</a>
</g>
</g>
<!-- Node9&#45;&gt;Node10 -->
<g id="edge9_Node000009_Node000010" class="edge">
<title>Node9&#45;&gt;Node10</title>
<g id="a_edge9_Node000009_Node000010"><a xlink:title=" ">
<path fill="none" stroke="#63b8ff" d="M388.93,-32.42C380.36,-31.05 371.63,-29.66 363.02,-28.29"/>
<polygon fill="#63b8ff" stroke="#63b8ff" points="388.45,-35.88 398.88,-34 389.55,-28.97 388.45,-35.88"/>
</a>
</g>
</g>
</g>
</svg>
