<?xml version="1.0" encoding="UTF-8" standalone="no"?>
<!DOCTYPE svg PUBLIC "-//W3C//DTD SVG 1.1//EN"
 "http://www.w3.org/Graphics/SVG/1.1/DTD/svg11.dtd">
<!-- Generated by graphviz version 2.43.0 (0)
 -->
<!-- Title: wmtk::components::isotropic_remeshing::IsotropicRemeshing::load_transfers Pages: 1 -->
<!--zoomable 297 -->

<svg id="main" version="1.1" xmlns="http://www.w3.org/2000/svg" xmlns:xlink="http://www.w3.org/1999/xlink" xml:space="preserve" onload="init(evt)">
<style type="text/css"><![CDATA[
.node, .edge {opacity: 0.7;}
.node.selected, .edge.selected {opacity: 1;}
.edge:hover path { stroke: red; }
.edge:hover polygon { stroke: red; fill: red; }
]]></style>

<defs>
  <circle id="rim" cx="0" cy="0" r="7"/>
  <circle id="rim2" cx="0" cy="0" r="3.5"/>
  <g id="zoomPlus">
    <use xlink:href="#rim" fill="#404040"><set attributeName="fill" to="#808080" begin="zoomplus.mouseover" end="zoomplus.mouseout"/></use>
    <path d="M-4,0h8M0,-4v8" fill="none" stroke="white" stroke-width="1.5" pointer-events="none"/>
  </g>
  <g id="zoomMin">
    <use xlink:href="#rim" fill="#404040"><set attributeName="fill" to="#808080" begin="zoomminus.mouseover" end="zoomminus.mouseout"/></use>
    <path d="M-4,0h8" fill="none" stroke="white" stroke-width="1.5" pointer-events="none"/>
  </g>
  <g id="arrowUp" transform="translate(30 24)">
    <use xlink:href="#rim"/>
    <path pointer-events="none" fill="none" stroke="white" stroke-width="1.5" d="M0,-3.0v7 M-2.5,-0.5L0,-3.0L2.5,-0.5"/>
  </g>
  <g id="arrowRight" transform="rotate(90) translate(36 -43)">
    <use xlink:href="#rim"/>
    <path pointer-events="none" fill="none" stroke="white" stroke-width="1.5" d="M0,-3.0v7 M-2.5,-0.5L0,-3.0L2.5,-0.5"/>
  </g>
  <g id="arrowDown" transform="rotate(180) translate(-30 -48)">
    <use xlink:href="#rim"/>
    <path pointer-events="none" fill="none" stroke="white" stroke-width="1.5" d="M0,-3.0v7 M-2.5,-0.5L0,-3.0L2.5,-0.5"/>
  </g>
  <g id="arrowLeft" transform="rotate(270) translate(-36 17)">
    <use xlink:href="#rim"/>
    <path pointer-events="none" fill="none" stroke="white" stroke-width="1.5" d="M0,-3.0v7 M-2.5,-0.5L0,-3.0L2.5,-0.5"/>
  </g>
  <g id="resetDef">
    <use xlink:href="#rim2" fill="#404040"><set attributeName="fill" to="#808080" begin="reset.mouseover" end="reset.mouseout"/></use>
  </g>
</defs>
<script type="application/ecmascript">
var viewWidth = 1364;
var viewHeight = 297;
var sectionId = 'dynsection-20';
</script>
<script type="application/ecmascript" xlink:href="svg.min.js"/>
<svg id="graph" class="graph">
<g id="viewport">
<title>wmtk::components::isotropic_remeshing::IsotropicRemeshing::load_transfers</title>
<!-- Node1 -->
<g id="Node000001" class="node">
<title>Node1</title>
<g id="a_Node000001"><a xlink:title=" ">
<polygon fill="#999999" stroke="#666666" points="176,-107.5 0,-107.5 0,-66.5 176,-66.5 176,-107.5"/>
<text text-anchor="start" x="8" y="-95.5" font-family="Helvetica,sans-Serif" font-size="10.00">wmtk::components::isotropic</text>
<text text-anchor="start" x="8" y="-84.5" font-family="Helvetica,sans-Serif" font-size="10.00">_remeshing::IsotropicRemeshing</text>
<text text-anchor="middle" x="88" y="-73.5" font-family="Helvetica,sans-Serif" font-size="10.00">::load_transfers</text>
</a>
</g>
</g>
<!-- Node2 -->
<g id="Node000002" class="node">
<title>Node2</title>
<g id="a_Node000002"><a xlink:href="classwmtk_1_1components_1_1isotropic__remeshing_1_1_isotropic_remeshing.html#ac9f0caa461b9b1a19b2ce916c6ec1570" target="_top" xlink:title=" ">
<polygon fill="white" stroke="#666666" points="388,-137.5 212,-137.5 212,-96.5 388,-96.5 388,-137.5"/>
<text text-anchor="start" x="220" y="-125.5" font-family="Helvetica,sans-Serif" font-size="10.00">wmtk::components::isotropic</text>
<text text-anchor="start" x="220" y="-114.5" font-family="Helvetica,sans-Serif" font-size="10.00">_remeshing::IsotropicRemeshing</text>
<text text-anchor="middle" x="300" y="-103.5" font-family="Helvetica,sans-Serif" font-size="10.00">::get_attribute</text>
</a>
</g>
</g>
<!-- Node1&#45;&gt;Node2 -->
<g id="edge1_Node000001_Node000002" class="edge">
<title>Node1&#45;&gt;Node2</title>
<g id="a_edge1_Node000001_Node000002"><a xlink:title=" ">
<path fill="none" stroke="#63b8ff" d="M176.23,-99.46C184.66,-100.67 193.24,-101.89 201.75,-103.11"/>
<polygon fill="#63b8ff" stroke="#63b8ff" points="201.3,-106.58 211.7,-104.53 202.29,-99.65 201.3,-106.58"/>
</a>
</g>
</g>
<!-- Node18 -->
<g id="Node000018" class="node">
<title>Node18</title>
<g id="a_Node000018"><a xlink:href="namespacewmtk_1_1operations_1_1attribute__update.html#acfc9277b9947c423a9b729daa789f6b6" target="_top" xlink:title=" ">
<polygon fill="white" stroke="#666666" points="380.5,-78.5 219.5,-78.5 219.5,-37.5 380.5,-37.5 380.5,-78.5"/>
<text text-anchor="start" x="227.5" y="-66.5" font-family="Helvetica,sans-Serif" font-size="10.00">wmtk::operations::attribute</text>
<text text-anchor="start" x="227.5" y="-55.5" font-family="Helvetica,sans-Serif" font-size="10.00">_update::make_cast_attribute</text>
<text text-anchor="middle" x="300" y="-44.5" font-family="Helvetica,sans-Serif" font-size="10.00">_transfer_strategy</text>
</a>
</g>
</g>
<!-- Node1&#45;&gt;Node18 -->
<g id="edge18_Node000001_Node000018" class="edge">
<title>Node1&#45;&gt;Node18</title>
<g id="a_edge18_Node000001_Node000018"><a xlink:title=" ">
<path fill="none" stroke="#63b8ff" d="M176.23,-74.95C187.19,-73.44 198.42,-71.89 209.41,-70.37"/>
<polygon fill="#63b8ff" stroke="#63b8ff" points="210,-73.82 219.42,-68.99 209.04,-66.89 210,-73.82"/>
</a>
</g>
</g>
<!-- Node3 -->
<g id="Node000003" class="node">
<title>Node3</title>
<g id="a_Node000003"><a xlink:href="namespacewmtk_1_1components_1_1multimesh_1_1utils.html#a82d42640978a9aa4ba485febac8b68d0" target="_top" xlink:title=" ">
<polygon fill="white" stroke="#666666" points="593,-132 424,-132 424,-102 593,-102 593,-132"/>
<text text-anchor="start" x="432" y="-120" font-family="Helvetica,sans-Serif" font-size="10.00">wmtk::components::multimesh</text>
<text text-anchor="middle" x="508.5" y="-109" font-family="Helvetica,sans-Serif" font-size="10.00">::utils::get_attribute</text>
</a>
</g>
</g>
<!-- Node2&#45;&gt;Node3 -->
<g id="edge2_Node000002_Node000003" class="edge">
<title>Node2&#45;&gt;Node3</title>
<g id="a_edge2_Node000002_Node000003"><a xlink:title=" ">
<path fill="none" stroke="#63b8ff" d="M388.28,-117C396.65,-117 405.17,-117 413.6,-117"/>
<polygon fill="#63b8ff" stroke="#63b8ff" points="413.83,-120.5 423.83,-117 413.83,-113.5 413.83,-120.5"/>
</a>
</g>
</g>
<!-- Node4 -->
<g id="Node000004" class="node">
<title>Node4</title>
<g id="a_Node000004"><a xlink:href="namespacewmtk_1_1components_1_1multimesh_1_1utils.html#a2efaab47b2efdb004ae28e811d6c04c4" target="_top" xlink:title=" ">
<polygon fill="white" stroke="#666666" points="809,-204 629,-204 629,-174 809,-174 809,-204"/>
<text text-anchor="start" x="637" y="-192" font-family="Helvetica,sans-Serif" font-size="10.00">wmtk::components::multimesh</text>
<text text-anchor="middle" x="719" y="-181" font-family="Helvetica,sans-Serif" font-size="10.00">::utils::decompose_attribute_path</text>
</a>
</g>
</g>
<!-- Node3&#45;&gt;Node4 -->
<g id="edge3_Node000003_Node000004" class="edge">
<title>Node3&#45;&gt;Node4</title>
<g id="a_edge3_Node000003_Node000004"><a xlink:title=" ">
<path fill="none" stroke="#63b8ff" d="M543.87,-132.07C567.53,-142.13 599.84,-155.25 629,-165 635.32,-167.11 641.94,-169.18 648.6,-171.15"/>
<polygon fill="#63b8ff" stroke="#63b8ff" points="647.77,-174.55 658.34,-173.96 649.71,-167.82 647.77,-174.55"/>
</a>
</g>
</g>
<!-- Node5 -->
<g id="Node000005" class="node">
<title>Node5</title>
<g id="a_Node000005"><a xlink:href="namespacewmtk_1_1components_1_1multimesh_1_1utils_1_1detail.html#a74ad95cd049405e25bc2b4e5355bdc54" target="_top" xlink:title=" ">
<polygon fill="white" stroke="#666666" points="803.5,-156 634.5,-156 634.5,-126 803.5,-126 803.5,-156"/>
<text text-anchor="start" x="642.5" y="-144" font-family="Helvetica,sans-Serif" font-size="10.00">wmtk::components::multimesh</text>
<text text-anchor="middle" x="719" y="-133" font-family="Helvetica,sans-Serif" font-size="10.00">::utils::detail::get_attribute</text>
</a>
</g>
</g>
<!-- Node3&#45;&gt;Node5 -->
<g id="edge4_Node000003_Node000005" class="edge">
<title>Node3&#45;&gt;Node5</title>
<g id="a_edge4_Node000003_Node000005"><a xlink:title=" ">
<path fill="none" stroke="#63b8ff" d="M593.1,-126.62C603.41,-127.81 613.99,-129.03 624.43,-130.23"/>
<polygon fill="#63b8ff" stroke="#63b8ff" points="624.04,-133.71 634.38,-131.37 624.84,-126.75 624.04,-133.71"/>
</a>
</g>
</g>
<!-- Node11 -->
<g id="Node000011" class="node">
<title>Node11</title>
<g id="a_Node000011"><a xlink:href="classwmtk_1_1components_1_1multimesh_1_1_named_multi_mesh.html#a4872fdeb1da1b70569807a0d77c6df52" target="_top" xlink:title=" ">
<polygon fill="white" stroke="#666666" points="803.5,-108 634.5,-108 634.5,-78 803.5,-78 803.5,-108"/>
<text text-anchor="start" x="642.5" y="-96" font-family="Helvetica,sans-Serif" font-size="10.00">wmtk::components::multimesh</text>
<text text-anchor="middle" x="719" y="-85" font-family="Helvetica,sans-Serif" font-size="10.00">::NamedMultiMesh::get_mesh</text>
</a>
</g>
</g>
<!-- Node3&#45;&gt;Node11 -->
<g id="edge11_Node000003_Node000011" class="edge">
<title>Node3&#45;&gt;Node11</title>
<g id="a_edge11_Node000003_Node000011"><a xlink:title=" ">
<path fill="none" stroke="#63b8ff" d="M593.1,-107.38C603.41,-106.19 613.99,-104.97 624.43,-103.77"/>
<polygon fill="#63b8ff" stroke="#63b8ff" points="624.84,-107.25 634.38,-102.63 624.04,-100.29 624.84,-107.25"/>
</a>
</g>
</g>
<!-- Node16 -->
<g id="Node000016" class="node">
<title>Node16</title>
<g id="a_Node000016"><a xlink:href="structwmtk_1_1components_1_1multimesh_1_1utils_1_1_attribute_description.html#a300d0165aafc5dfdeb96bfce804cdd25" target="_top" xlink:title=" ">
<polygon fill="white" stroke="#666666" points="803.5,-59.5 634.5,-59.5 634.5,-18.5 803.5,-18.5 803.5,-59.5"/>
<text text-anchor="start" x="642.5" y="-47.5" font-family="Helvetica,sans-Serif" font-size="10.00">wmtk::components::multimesh</text>
<text text-anchor="start" x="642.5" y="-36.5" font-family="Helvetica,sans-Serif" font-size="10.00">::utils::AttributeDescription</text>
<text text-anchor="middle" x="719" y="-25.5" font-family="Helvetica,sans-Serif" font-size="10.00">::primitive_type</text>
</a>
</g>
</g>
<!-- Node3&#45;&gt;Node16 -->
<g id="edge16_Node000003_Node000016" class="edge">
<title>Node3&#45;&gt;Node16</title>
<g id="a_edge16_Node000003_Node000016"><a xlink:title=" ">
<path fill="none" stroke="#63b8ff" d="M545.38,-101.97C569,-92.23 600.68,-79.45 629,-69 634.49,-66.97 640.19,-64.93 645.93,-62.91"/>
<polygon fill="#63b8ff" stroke="#63b8ff" points="647.31,-66.13 655.6,-59.53 645,-59.52 647.31,-66.13"/>
</a>
</g>
</g>
<!-- Node6 -->
<g id="Node000006" class="node">
<title>Node6</title>
<g id="a_Node000006"><a xlink:href="classwmtk_1_1_mesh.html#a335d3c86fd7d291b564a44944be6bf79" target="_top" xlink:title=" ">
<polygon fill="white" stroke="#666666" points="1002.5,-289 856.5,-289 856.5,-259 1002.5,-259 1002.5,-289"/>
<text text-anchor="start" x="864.5" y="-277" font-family="Helvetica,sans-Serif" font-size="10.00">wmtk::Mesh::get_attribute</text>
<text text-anchor="middle" x="929.5" y="-266" font-family="Helvetica,sans-Serif" font-size="10.00">_handle</text>
</a>
</g>
</g>
<!-- Node5&#45;&gt;Node6 -->
<g id="edge5_Node000005_Node000006" class="edge">
<title>Node5&#45;&gt;Node6</title>
<g id="a_edge5_Node000005_Node000006"><a xlink:title=" ">
<path fill="none" stroke="#63b8ff" d="M795.88,-156.01C800.58,-158.56 805.02,-161.53 809,-165 839.93,-191.95 814.29,-222.79 845,-250 846.32,-251.17 847.69,-252.28 849.11,-253.34"/>
<polygon fill="#63b8ff" stroke="#63b8ff" points="847.38,-256.39 857.69,-258.83 851.15,-250.49 847.38,-256.39"/>
</a>
</g>
</g>
<!-- Node7 -->
<g id="Node000007" class="node">
<title>Node7</title>
<g id="a_Node000007"><a xlink:href="namespacewmtk.html#a5cf45c152e856196bb734c6f48919a24" target="_top" xlink:title="Get a unique integer id corresponding to each primitive type.">
<polygon fill="white" stroke="#666666" points="987.5,-241 871.5,-241 871.5,-211 987.5,-211 987.5,-241"/>
<text text-anchor="start" x="879.5" y="-229" font-family="Helvetica,sans-Serif" font-size="10.00">wmtk::get_primitive</text>
<text text-anchor="middle" x="929.5" y="-218" font-family="Helvetica,sans-Serif" font-size="10.00">_type_id</text>
</a>
</g>
</g>
<!-- Node5&#45;&gt;Node7 -->
<g id="edge6_Node000005_Node000007" class="edge">
<title>Node5&#45;&gt;Node7</title>
<g id="a_edge6_Node000005_Node000007"><a xlink:title=" ">
<path fill="none" stroke="#63b8ff" d="M790.45,-156.14C796.92,-158.66 803.2,-161.59 809,-165 828.78,-176.62 825.31,-190.21 845,-202 850.14,-205.08 855.7,-207.78 861.41,-210.14"/>
<polygon fill="#63b8ff" stroke="#63b8ff" points="860.55,-213.56 871.14,-213.82 863.02,-207.01 860.55,-213.56"/>
</a>
</g>
</g>
<!-- Node8 -->
<g id="Node000008" class="node">
<title>Node8</title>
<g id="a_Node000008"><a xlink:href="classwmtk_1_1_mesh.html#a89b735bef9cbf8d5ab955d23f787b70f" target="_top" xlink:title=" ">
<polygon fill="white" stroke="#666666" points="1003,-174.5 856,-174.5 856,-155.5 1003,-155.5 1003,-174.5"/>
<text text-anchor="middle" x="929.5" y="-162.5" font-family="Helvetica,sans-Serif" font-size="10.00">wmtk::Mesh::has_attribute</text>
</a>
</g>
</g>
<!-- Node5&#45;&gt;Node8 -->
<g id="edge7_Node000005_Node000008" class="edge">
<title>Node5&#45;&gt;Node8</title>
<g id="a_edge7_Node000005_Node000008"><a xlink:title=" ">
<path fill="none" stroke="#63b8ff" d="M803.6,-150.62C817.55,-152.23 832.01,-153.89 845.94,-155.5"/>
<polygon fill="#63b8ff" stroke="#63b8ff" points="845.63,-158.98 855.96,-156.65 846.43,-152.03 845.63,-158.98"/>
</a>
</g>
</g>
<!-- Node10 -->
<g id="Node000010" class="node">
<title>Node10</title>
<g id="a_Node000010"><a xlink:href="classwmtk_1_1components_1_1multimesh_1_1utils_1_1detail_1_1attribute__missing__error.html#a1fd61a1550a62b7b6ae44e60b1c9c6d8" target="_top" xlink:title=" ">
<polygon fill="white" stroke="#666666" points="1014,-137.5 845,-137.5 845,-96.5 1014,-96.5 1014,-137.5"/>
<text text-anchor="start" x="853" y="-125.5" font-family="Helvetica,sans-Serif" font-size="10.00">wmtk::components::multimesh</text>
<text text-anchor="start" x="853" y="-114.5" font-family="Helvetica,sans-Serif" font-size="10.00">::utils::detail::attribute</text>
<text text-anchor="middle" x="929.5" y="-103.5" font-family="Helvetica,sans-Serif" font-size="10.00">_missing_error::make</text>
</a>
</g>
</g>
<!-- Node5&#45;&gt;Node10 -->
<g id="edge10_Node000005_Node000010" class="edge">
<title>Node5&#45;&gt;Node10</title>
<g id="a_edge10_Node000005_Node000010"><a xlink:title=" ">
<path fill="none" stroke="#63b8ff" d="M803.6,-131.38C813.91,-130.19 824.49,-128.97 834.93,-127.77"/>
<polygon fill="#63b8ff" stroke="#63b8ff" points="835.34,-131.25 844.88,-126.63 834.54,-124.29 835.34,-131.25"/>
</a>
</g>
</g>
<!-- Node8&#45;&gt;Node8 -->
<g id="edge9_Node000008_Node000008" class="edge">
<title>Node8&#45;&gt;Node8</title>
<g id="a_edge9_Node000008_Node000008"><a xlink:title=" ">
<path fill="none" stroke="#63b8ff" d="M898.06,-174.58C882.76,-183.23 893.24,-192.5 929.5,-192.5 954.99,-192.5 967.74,-187.92 967.75,-182.19"/>
<polygon fill="#63b8ff" stroke="#63b8ff" points="970.22,-179.7 960.94,-174.58 965,-184.37 970.22,-179.7"/>
</a>
</g>
</g>
<!-- Node9 -->
<g id="Node000009" class="node">
<title>Node9</title>
<g id="a_Node000009"><a xlink:href="classwmtk_1_1attribute_1_1_attribute_manager.html#a2169001c03d75b77488dba8494038fe5" target="_top" xlink:title=" ">
<polygon fill="white" stroke="#666666" points="1205,-180 1064,-180 1064,-150 1205,-150 1205,-180"/>
<text text-anchor="start" x="1072" y="-168" font-family="Helvetica,sans-Serif" font-size="10.00">wmtk::attribute::Attribute</text>
<text text-anchor="middle" x="1134.5" y="-157" font-family="Helvetica,sans-Serif" font-size="10.00">Manager::get</text>
</a>
</g>
</g>
<!-- Node8&#45;&gt;Node9 -->
<g id="edge8_Node000008_Node000009" class="edge">
<title>Node8&#45;&gt;Node9</title>
<g id="a_edge8_Node000008_Node000009"><a xlink:title=" ">
<path fill="none" stroke="#63b8ff" d="M1003.21,-165C1019.51,-165 1036.89,-165 1053.47,-165"/>
<polygon fill="#63b8ff" stroke="#63b8ff" points="1053.67,-168.5 1063.67,-165 1053.67,-161.5 1053.67,-168.5"/>
</a>
</g>
</g>
<!-- Node12 -->
<g id="Node000012" class="node">
<title>Node12</title>
<g id="a_Node000012"><a xlink:href="classwmtk_1_1components_1_1multimesh_1_1_named_multi_mesh.html#a0a47aede86bb45377eae74c01d313544" target="_top" xlink:title=" ">
<polygon fill="white" stroke="#666666" points="1014,-78 845,-78 845,-48 1014,-48 1014,-78"/>
<text text-anchor="start" x="853" y="-66" font-family="Helvetica,sans-Serif" font-size="10.00">wmtk::components::multimesh</text>
<text text-anchor="middle" x="929.5" y="-55" font-family="Helvetica,sans-Serif" font-size="10.00">::NamedMultiMesh::get_id</text>
</a>
</g>
</g>
<!-- Node11&#45;&gt;Node12 -->
<g id="edge12_Node000011_Node000012" class="edge">
<title>Node11&#45;&gt;Node12</title>
<g id="a_edge12_Node000011_Node000012"><a xlink:title=" ">
<path fill="none" stroke="#63b8ff" d="M803.6,-80.97C813.91,-79.49 824.49,-77.97 834.93,-76.46"/>
<polygon fill="#63b8ff" stroke="#63b8ff" points="835.48,-79.92 844.88,-75.03 834.48,-72.99 835.48,-79.92"/>
</a>
</g>
</g>
<!-- Node13 -->
<g id="Node000013" class="node">
<title>Node13</title>
<g id="a_Node000013"><a xlink:href="namespacewmtk.html#a6a35f11c12436093d26fdd8be6fecc06" target="_top" xlink:title="Retrieves the current logger.">
<polygon fill="white" stroke="#666666" points="1175,-94.5 1094,-94.5 1094,-75.5 1175,-75.5 1175,-94.5"/>
<text text-anchor="middle" x="1134.5" y="-82.5" font-family="Helvetica,sans-Serif" font-size="10.00">wmtk::logger</text>
</a>
</g>
</g>
<!-- Node12&#45;&gt;Node13 -->
<g id="edge13_Node000012_Node000013" class="edge">
<title>Node12&#45;&gt;Node13</title>
<g id="a_edge13_Node000012_Node000013"><a xlink:title=" ">
<path fill="none" stroke="#63b8ff" d="M1014.24,-72.08C1037.78,-74.63 1062.65,-77.32 1083.54,-79.59"/>
<polygon fill="#63b8ff" stroke="#63b8ff" points="1083.45,-83.1 1093.76,-80.69 1084.2,-76.14 1083.45,-83.1"/>
</a>
</g>
</g>
<!-- Node15 -->
<g id="Node000015" class="node">
<title>Node15</title>
<g id="a_Node000015"><a xlink:href="namespacewmtk_1_1components_1_1multimesh_1_1internal.html#a3b2338b45b680494e5501c97baa6f456" target="_top" xlink:title=" ">
<polygon fill="white" stroke="#666666" points="1219,-57 1050,-57 1050,-27 1219,-27 1219,-57"/>
<text text-anchor="start" x="1058" y="-45" font-family="Helvetica,sans-Serif" font-size="10.00">wmtk::components::multimesh</text>
<text text-anchor="middle" x="1134.5" y="-34" font-family="Helvetica,sans-Serif" font-size="10.00">::internal::split_path</text>
</a>
</g>
</g>
<!-- Node12&#45;&gt;Node15 -->
<g id="edge15_Node000012_Node000015" class="edge">
<title>Node12&#45;&gt;Node15</title>
<g id="a_edge15_Node000012_Node000015"><a xlink:title=" ">
<path fill="none" stroke="#63b8ff" d="M1014.24,-54.34C1022.72,-53.46 1031.37,-52.57 1039.94,-51.68"/>
<polygon fill="#63b8ff" stroke="#63b8ff" points="1040.37,-55.15 1049.95,-50.64 1039.65,-48.19 1040.37,-55.15"/>
</a>
</g>
</g>
<!-- Node14 -->
<g id="Node000014" class="node">
<title>Node14</title>
<g id="a_Node000014"><a xlink:href="namespacewmtk.html#a3daa7951a5f8b78cf4600dc047fcc180" target="_top" xlink:title="Setup a logger object to be used by WildmeshToolkit.">
<polygon fill="white" stroke="#666666" points="1356,-94.5 1255,-94.5 1255,-75.5 1356,-75.5 1356,-94.5"/>
<text text-anchor="middle" x="1305.5" y="-82.5" font-family="Helvetica,sans-Serif" font-size="10.00">wmtk::set_logger</text>
</a>
</g>
</g>
<!-- Node13&#45;&gt;Node14 -->
<g id="edge14_Node000013_Node000014" class="edge">
<title>Node13&#45;&gt;Node14</title>
<g id="a_edge14_Node000013_Node000014"><a xlink:title=" ">
<path fill="none" stroke="#63b8ff" d="M1175.12,-85C1195.86,-85 1221.68,-85 1244.78,-85"/>
<polygon fill="#63b8ff" stroke="#63b8ff" points="1244.83,-88.5 1254.83,-85 1244.83,-81.5 1244.83,-88.5"/>
</a>
</g>
</g>
<!-- Node17 -->
<g id="Node000017" class="node">
<title>Node17</title>
<g id="a_Node000017"><a xlink:href="namespacewmtk.html#a3b08a5d7fb42f02c54bae85758b39f59" target="_top" xlink:title="Get the primitive type corresponding to its unique integer id.">
<polygon fill="white" stroke="#666666" points="987.5,-30 871.5,-30 871.5,0 987.5,0 987.5,-30"/>
<text text-anchor="start" x="879.5" y="-18" font-family="Helvetica,sans-Serif" font-size="10.00">wmtk::get_primitive</text>
<text text-anchor="middle" x="929.5" y="-7" font-family="Helvetica,sans-Serif" font-size="10.00">_type_from_id</text>
</a>
</g>
</g>
<!-- Node16&#45;&gt;Node17 -->
<g id="edge17_Node000016_Node000017" class="edge">
<title>Node16&#45;&gt;Node17</title>
<g id="a_edge17_Node000016_Node000017"><a xlink:title=" ">
<path fill="none" stroke="#63b8ff" d="M803.6,-29.38C822.82,-27.16 843.01,-24.84 861.42,-22.72"/>
<polygon fill="#63b8ff" stroke="#63b8ff" points="861.91,-26.19 871.44,-21.57 861.11,-19.23 861.91,-26.19"/>
</a>
</g>
</g>
<!-- Node19 -->
<g id="Node000019" class="node">
<title>Node19</title>
<g id="a_Node000019"><a xlink:href="classwmtk_1_1attribute_1_1_mesh_attribute_handle.html#aae37f071e9eab3a1db1aecd118d32b76" target="_top" xlink:title=" ">
<polygon fill="white" stroke="#666666" points="592,-73 425,-73 425,-43 592,-43 592,-73"/>
<text text-anchor="start" x="433" y="-61" font-family="Helvetica,sans-Serif" font-size="10.00">wmtk::attribute::MeshAttribute</text>
<text text-anchor="middle" x="508.5" y="-50" font-family="Helvetica,sans-Serif" font-size="10.00">Handle::handle</text>
</a>
</g>
</g>
<!-- Node18&#45;&gt;Node19 -->
<g id="edge19_Node000018_Node000019" class="edge">
<title>Node18&#45;&gt;Node19</title>
<g id="a_edge19_Node000018_Node000019"><a xlink:title=" ">
<path fill="none" stroke="#63b8ff" d="M380.54,-58C391.79,-58 403.44,-58 414.9,-58"/>
<polygon fill="#63b8ff" stroke="#63b8ff" points="414.92,-61.5 424.92,-58 414.92,-54.5 414.92,-61.5"/>
</a>
</g>
</g>
</g>
</svg>

<g id="navigator" transform="translate(0 0)" fill="#404254">
  <rect fill="#f2f5e9" fill-opacity="0.5" stroke="#606060" stroke-width=".5" x="0" y="0" width="60" height="60"/>
  <use id="zoomplus" xlink:href="#zoomPlus" x="17" y="9" onmousedown="handleZoom(evt,'in')"/>
  <use id="zoomminus" xlink:href="#zoomMin" x="42" y="9" onmousedown="handleZoom(evt,'out')"/>
  <use id="reset" xlink:href="#resetDef" x="30" y="36" onmousedown="handleReset()"/>
   <use id="arrowup" xlink:href="#arrowUp" x="0" y="0" onmousedown="handlePan(0,-1)"/>
  <use id="arrowright" xlink:href="#arrowRight" x="0" y="0" onmousedown="handlePan(1,0)"/>
  <use id="arrowdown" xlink:href="#arrowDown" x="0" y="0" onmousedown="handlePan(0,1)"/>
  <use id="arrowleft" xlink:href="#arrowLeft" x="0" y="0" onmousedown="handlePan(-1,0)"/>
</g>
<svg viewBox="0 0 15 15" width="100%" height="30px" preserveAspectRatio="xMaxYMin meet">
 <g id="arrow_out" transform="scale(0.3 0.3)">
  <a xlink:href="classwmtk_1_1components_1_1isotropic__remeshing_1_1_isotropic_remeshing_ab9a3a611c8520fba55213c87fc15dbe6_cgraph_org.svg" target="_base">
   <rect id="button" ry="5" rx="5" y="6" x="6" height="38" width="38"
        fill="#f2f5e9" fill-opacity="0.5" stroke="#606060" stroke-width="1.0"/>
   <path id="arrow"
     d="M 11.500037,31.436501 C 11.940474,20.09759 22.043105,11.32322 32.158766,21.979434 L 37.068811,17.246167 C 37.068811,17.246167 37.088388,32 37.088388,32 L 22.160133,31.978069 C 22.160133,31.978069 26.997745,27.140456 26.997745,27.140456 C 18.528582,18.264221 13.291696,25.230495 11.500037,31.436501 z"
     style="fill:#404040;"/>
  </a>
 </g>
</svg>

<style type='text/css'>
<![CDATA[
[data-mouse-over-selected='false'] { opacity: 0.7; }
[data-mouse-over-selected='true']  { opacity: 1.0; }
]]>
</style>
<script type="application/ecmascript"><![CDATA[
document.addEventListener('DOMContentLoaded', (event) => {
  highlightEdges();
  highlightAdjacentNodes();
});
]]></script>
</svg>
