<?xml version="1.0" encoding="UTF-8" standalone="no"?>
<!DOCTYPE svg PUBLIC "-//W3C//DTD SVG 1.1//EN"
 "http://www.w3.org/Graphics/SVG/1.1/DTD/svg11.dtd">
<!-- Generated by graphviz version 2.43.0 (0)
 -->
<!-- Title: wmtk::attribute::Accessor::reserved_size Pages: 1 -->
<svg width="574pt" height="290pt"
 viewBox="0.00 0.00 574.00 289.50" xmlns="http://www.w3.org/2000/svg" xmlns:xlink="http://www.w3.org/1999/xlink">
<g id="graph0" class="graph" transform="scale(1 1) rotate(0) translate(4 285.5)">
<title>wmtk::attribute::Accessor::reserved_size</title>
<!-- Node1 -->
<g id="Node000001" class="node">
<title>Node1</title>
<g id="a_Node000001"><a xlink:title=" ">
<polygon fill="#999999" stroke="#666666" points="566,-113.5 424,-113.5 424,-83.5 566,-83.5 566,-113.5"/>
<text text-anchor="start" x="432" y="-101.5" font-family="Helvetica,sans-Serif" font-size="10.00">wmtk::attribute::Accessor</text>
<text text-anchor="middle" x="495" y="-90.5" font-family="Helvetica,sans-Serif" font-size="10.00">::reserved_size</text>
</a>
</g>
</g>
<!-- Node2 -->
<g id="Node000002" class="node">
<title>Node2</title>
<g id="a_Node000002"><a xlink:href="classwmtk_1_1_mesh.html#ac205d6addf4e76f000c70547253735f0" target="_top" xlink:title=" ">
<polygon fill="white" stroke="#666666" points="364,-161.5 245,-161.5 245,-131.5 364,-131.5 364,-161.5"/>
<text text-anchor="start" x="253" y="-149.5" font-family="Helvetica,sans-Serif" font-size="10.00">wmtk::Mesh::request</text>
<text text-anchor="middle" x="304.5" y="-138.5" font-family="Helvetica,sans-Serif" font-size="10.00">_simplex_indices</text>
</a>
</g>
</g>
<!-- Node1&#45;&gt;Node2 -->
<g id="edge1_Node000001_Node000002" class="edge">
<title>Node1&#45;&gt;Node2</title>
<g id="a_edge1_Node000001_Node000002"><a xlink:title=" ">
<path fill="none" stroke="#63b8ff" d="M424.91,-116.09C404.95,-121.18 383.35,-126.68 364.09,-131.58"/>
<polygon fill="#63b8ff" stroke="#63b8ff" points="426.05,-119.42 434.87,-113.56 424.32,-112.63 426.05,-119.42"/>
</a>
</g>
</g>
<!-- Node9 -->
<g id="Node000009" class="node">
<title>Node9</title>
<g id="a_Node000009"><a xlink:href="classwmtk_1_1_mesh.html#a90f0fba7d6c94d2e545eb671df6af558" target="_top" xlink:title=" ">
<polygon fill="white" stroke="#666666" points="380.5,-113.5 228.5,-113.5 228.5,-83.5 380.5,-83.5 380.5,-113.5"/>
<text text-anchor="start" x="236.5" y="-101.5" font-family="Helvetica,sans-Serif" font-size="10.00">wmtk::Mesh::set_capacities</text>
<text text-anchor="middle" x="304.5" y="-90.5" font-family="Helvetica,sans-Serif" font-size="10.00">_from_flags</text>
</a>
</g>
</g>
<!-- Node1&#45;&gt;Node9 -->
<g id="edge8_Node000001_Node000009" class="edge">
<title>Node1&#45;&gt;Node9</title>
<g id="a_edge8_Node000001_Node000009"><a xlink:title=" ">
<path fill="none" stroke="#63b8ff" d="M413.5,-98.5C402.66,-98.5 391.56,-98.5 380.8,-98.5"/>
<polygon fill="#63b8ff" stroke="#63b8ff" points="413.81,-102 423.81,-98.5 413.81,-95 413.81,-102"/>
</a>
</g>
</g>
<!-- Node10 -->
<g id="Node000010" class="node">
<title>Node10</title>
<g id="a_Node000010"><a xlink:href="classwmtk_1_1dart_1_1_dart_index_accessor.html#a5ba02f9317c9f6c42e8d9569f8bcbfe7" target="_top" xlink:title=" ">
<polygon fill="white" stroke="#666666" points="388,-65.5 221,-65.5 221,-35.5 388,-35.5 388,-65.5"/>
<text text-anchor="start" x="229" y="-53.5" font-family="Helvetica,sans-Serif" font-size="10.00">wmtk::dart::DartIndexAccessor</text>
<text text-anchor="middle" x="304.5" y="-42.5" font-family="Helvetica,sans-Serif" font-size="10.00">::size</text>
</a>
</g>
</g>
<!-- Node1&#45;&gt;Node10 -->
<g id="edge9_Node000001_Node000010" class="edge">
<title>Node1&#45;&gt;Node10</title>
<g id="a_edge9_Node000001_Node000010"><a xlink:title=" ">
<path fill="none" stroke="#63b8ff" d="M424.96,-80.92C405.09,-75.86 383.61,-70.39 364.42,-65.5"/>
<polygon fill="#63b8ff" stroke="#63b8ff" points="424.32,-84.37 434.87,-83.44 426.05,-77.58 424.32,-84.37"/>
</a>
</g>
</g>
<!-- Node3 -->
<g id="Node000003" class="node">
<title>Node3</title>
<g id="a_Node000003"><a xlink:href="classwmtk_1_1_tri_mesh_1_1_tri_mesh_operation_executor.html#a54ec111e8890281195a6d2449f822f02" target="_top" xlink:title=" ">
<polygon fill="white" stroke="#666666" points="182,-281.5 3,-281.5 3,-251.5 182,-251.5 182,-281.5"/>
<text text-anchor="start" x="11" y="-269.5" font-family="Helvetica,sans-Serif" font-size="10.00">wmtk::TriMesh::TriMeshOperation</text>
<text text-anchor="middle" x="92.5" y="-258.5" font-family="Helvetica,sans-Serif" font-size="10.00">Executor::create_spine_simplices</text>
</a>
</g>
</g>
<!-- Node2&#45;&gt;Node3 -->
<g id="edge2_Node000002_Node000003" class="edge">
<title>Node2&#45;&gt;Node3</title>
<g id="a_edge2_Node000002_Node000003"><a xlink:title=" ">
<path fill="none" stroke="#63b8ff" d="M282,-168.75C259.69,-190.6 222.82,-223.35 185,-242.5 178.26,-245.91 170.99,-248.87 163.59,-251.44"/>
<polygon fill="#63b8ff" stroke="#63b8ff" points="284.65,-171.06 289.26,-161.52 279.71,-166.1 284.65,-171.06"/>
</a>
</g>
</g>
<!-- Node4 -->
<g id="Node000004" class="node">
<title>Node4</title>
<g id="a_Node000004"><a xlink:href="classwmtk_1_1_tri_mesh_1_1_tri_mesh_operation_executor.html#a3df1e4a6e6de766e419522774d6463d6" target="_top" xlink:title=" ">
<polygon fill="white" stroke="#666666" points="182,-233.5 3,-233.5 3,-203.5 182,-203.5 182,-233.5"/>
<text text-anchor="start" x="11" y="-221.5" font-family="Helvetica,sans-Serif" font-size="10.00">wmtk::TriMesh::TriMeshOperation</text>
<text text-anchor="middle" x="92.5" y="-210.5" font-family="Helvetica,sans-Serif" font-size="10.00">Executor::fill_split_facet_data</text>
</a>
</g>
</g>
<!-- Node2&#45;&gt;Node4 -->
<g id="edge3_Node000002_Node000004" class="edge">
<title>Node2&#45;&gt;Node4</title>
<g id="a_edge3_Node000002_Node000004"><a xlink:title=" ">
<path fill="none" stroke="#63b8ff" d="M260.22,-165.59C237.99,-174.99 210.32,-186.09 185,-194.5 175.49,-197.66 165.32,-200.67 155.34,-203.44"/>
<polygon fill="#63b8ff" stroke="#63b8ff" points="261.89,-168.68 269.71,-161.54 259.14,-162.25 261.89,-168.68"/>
</a>
</g>
</g>
<!-- Node5 -->
<g id="Node000005" class="node">
<title>Node5</title>
<g id="a_Node000005"><a xlink:href="classwmtk_1_1_tri_mesh_1_1_tri_mesh_operation_executor.html#a998d9ebaf1507d842fb01db91e044644" target="_top" xlink:title=" ">
<polygon fill="white" stroke="#666666" points="182,-185.5 3,-185.5 3,-155.5 182,-155.5 182,-185.5"/>
<text text-anchor="start" x="11" y="-173.5" font-family="Helvetica,sans-Serif" font-size="10.00">wmtk::TriMesh::TriMeshOperation</text>
<text text-anchor="middle" x="92.5" y="-162.5" font-family="Helvetica,sans-Serif" font-size="10.00">Executor::replace_incident_face</text>
</a>
</g>
</g>
<!-- Node2&#45;&gt;Node5 -->
<g id="edge4_Node000002_Node000005" class="edge">
<title>Node2&#45;&gt;Node5</title>
<g id="a_edge4_Node000002_Node000005"><a xlink:title=" ">
<path fill="none" stroke="#63b8ff" d="M234.5,-154.39C217.76,-156.3 199.63,-158.37 182.12,-160.37"/>
<polygon fill="#63b8ff" stroke="#63b8ff" points="235.19,-157.83 244.72,-153.22 234.39,-150.88 235.19,-157.83"/>
</a>
</g>
</g>
<!-- Node6 -->
<g id="Node000006" class="node">
<title>Node6</title>
<g id="a_Node000006"><a xlink:href="classwmtk_1_1operations_1_1_edge_operation_data.html#a80ea6d5059989a2d093179a0dbd2556d" target="_top" xlink:title=" ">
<polygon fill="white" stroke="#666666" points="182.5,-137.5 2.5,-137.5 2.5,-107.5 182.5,-107.5 182.5,-137.5"/>
<text text-anchor="start" x="10.5" y="-125.5" font-family="Helvetica,sans-Serif" font-size="10.00">wmtk::operations::EdgeOperation</text>
<text text-anchor="middle" x="92.5" y="-114.5" font-family="Helvetica,sans-Serif" font-size="10.00">Data::request_simplex_indices</text>
</a>
</g>
</g>
<!-- Node2&#45;&gt;Node6 -->
<g id="edge5_Node000002_Node000006" class="edge">
<title>Node2&#45;&gt;Node6</title>
<g id="a_edge5_Node000002_Node000006"><a xlink:title=" ">
<path fill="none" stroke="#63b8ff" d="M234.56,-138.62C217.93,-136.72 199.92,-134.66 182.52,-132.67"/>
<polygon fill="#63b8ff" stroke="#63b8ff" points="234.39,-142.12 244.72,-139.78 235.19,-135.17 234.39,-142.12"/>
</a>
</g>
</g>
<!-- Node7 -->
<g id="Node000007" class="node">
<title>Node7</title>
<g id="a_Node000007"><a xlink:href="classwmtk_1_1_tet_mesh_1_1_tet_mesh_operation_executor.html#a01f3a3bac005c290049e69e2c5330dfb" target="_top" xlink:title=" ">
<polygon fill="white" stroke="#666666" points="185,-89.5 0,-89.5 0,-59.5 185,-59.5 185,-89.5"/>
<text text-anchor="start" x="8" y="-77.5" font-family="Helvetica,sans-Serif" font-size="10.00">wmtk::TetMesh::TetMeshOperation</text>
<text text-anchor="middle" x="92.5" y="-66.5" font-family="Helvetica,sans-Serif" font-size="10.00">Executor::split_edge_precompute</text>
</a>
</g>
</g>
<!-- Node2&#45;&gt;Node7 -->
<g id="edge6_Node000002_Node000007" class="edge">
<title>Node2&#45;&gt;Node7</title>
<g id="a_edge6_Node000002_Node000007"><a xlink:title=" ">
<path fill="none" stroke="#63b8ff" d="M235.41,-128.51C230.47,-126.65 225.62,-124.65 221,-122.5 203.57,-114.39 202.54,-106.38 185,-98.5 177.51,-95.13 169.46,-92.17 161.34,-89.57"/>
<polygon fill="#63b8ff" stroke="#63b8ff" points="234.39,-131.86 244.98,-131.9 236.73,-125.26 234.39,-131.86"/>
</a>
</g>
</g>
<!-- Node8 -->
<g id="Node000008" class="node">
<title>Node8</title>
<g id="a_Node000008"><a xlink:href="classwmtk_1_1_edge_mesh_1_1_edge_mesh_operation_executor.html#acb42aca716850f7017290140eef6d94e" target="_top" xlink:title=" ">
<polygon fill="white" stroke="#666666" points="171,-41 14,-41 14,0 171,0 171,-41"/>
<text text-anchor="start" x="22" y="-29" font-family="Helvetica,sans-Serif" font-size="10.00">wmtk::EdgeMesh::EdgeMesh</text>
<text text-anchor="start" x="22" y="-18" font-family="Helvetica,sans-Serif" font-size="10.00">OperationExecutor::split</text>
<text text-anchor="middle" x="92.5" y="-7" font-family="Helvetica,sans-Serif" font-size="10.00">_edge_single_mesh</text>
</a>
</g>
</g>
<!-- Node2&#45;&gt;Node8 -->
<g id="edge7_Node000002_Node000008" class="edge">
<title>Node2&#45;&gt;Node8</title>
<g id="a_edge7_Node000002_Node000008"><a xlink:title=" ">
<path fill="none" stroke="#63b8ff" d="M235.82,-132.05C230.51,-129.39 225.48,-126.23 221,-122.5 193.52,-99.59 212.09,-73.87 185,-50.5 180.82,-46.9 176.2,-43.72 171.32,-40.93"/>
<polygon fill="#63b8ff" stroke="#63b8ff" points="234.42,-135.26 244.98,-136.08 237.24,-128.85 234.42,-135.26"/>
</a>
</g>
</g>
</g>
</svg>
