<?xml version="1.0" encoding="UTF-8" standalone="no"?>
<!DOCTYPE svg PUBLIC "-//W3C//DTD SVG 1.1//EN"
 "http://www.w3.org/Graphics/SVG/1.1/DTD/svg11.dtd">
<!-- Generated by graphviz version 2.43.0 (0)
 -->
<!-- Title: wmtk::components::multimesh::MeshCollection::all_meshes Pages: 1 -->
<svg width="626pt" height="156pt"
 viewBox="0.00 0.00 626.00 156.00" xmlns="http://www.w3.org/2000/svg" xmlns:xlink="http://www.w3.org/1999/xlink">
<g id="graph0" class="graph" transform="scale(1 1) rotate(0) translate(4 152)">
<title>wmtk::components::multimesh::MeshCollection::all_meshes</title>
<!-- Node1 -->
<g id="Node000001" class="node">
<title>Node1</title>
<g id="a_Node000001"><a xlink:title=" ">
<polygon fill="#999999" stroke="#666666" points="618,-100 449,-100 449,-70 618,-70 618,-100"/>
<text text-anchor="start" x="457" y="-88" font-family="Helvetica,sans-Serif" font-size="10.00">wmtk::components::multimesh</text>
<text text-anchor="middle" x="533.5" y="-77" font-family="Helvetica,sans-Serif" font-size="10.00">::MeshCollection::all_meshes</text>
</a>
</g>
</g>
<!-- Node2 -->
<g id="Node000002" class="node">
<title>Node2</title>
<g id="a_Node000002"><a xlink:href="namespacewmtk_1_1components_1_1mesh__info.html#a82ef6344f66cec4d1e52990d148fcd36" target="_top" xlink:title=" ">
<polygon fill="white" stroke="#666666" points="410.5,-148 217.5,-148 217.5,-118 410.5,-118 410.5,-148"/>
<text text-anchor="start" x="225.5" y="-136" font-family="Helvetica,sans-Serif" font-size="10.00">wmtk::components::mesh</text>
<text text-anchor="middle" x="314" y="-125" font-family="Helvetica,sans-Serif" font-size="10.00">_info::element_count_report_named</text>
</a>
</g>
</g>
<!-- Node1&#45;&gt;Node2 -->
<g id="edge1_Node000001_Node000002" class="edge">
<title>Node1&#45;&gt;Node2</title>
<g id="a_edge1_Node000001_Node000002"><a xlink:title=" ">
<path fill="none" stroke="#63b8ff" d="M454.41,-102.23C431.05,-107.39 405.63,-113 382.98,-118"/>
<polygon fill="#63b8ff" stroke="#63b8ff" points="455.27,-105.63 464.28,-100.06 453.76,-98.79 455.27,-105.63"/>
</a>
</g>
</g>
<!-- Node3 -->
<g id="Node000003" class="node">
<title>Node3</title>
<g id="a_Node000003"><a xlink:href="classwmtk_1_1components_1_1multimesh_1_1_mesh_collection.html#a5b4d30ac2230ead10861a658484056f3" target="_top" xlink:title=" ">
<polygon fill="white" stroke="#666666" points="403.5,-100 224.5,-100 224.5,-70 403.5,-70 403.5,-100"/>
<text text-anchor="start" x="232.5" y="-88" font-family="Helvetica,sans-Serif" font-size="10.00">wmtk::components::multimesh</text>
<text text-anchor="middle" x="314" y="-77" font-family="Helvetica,sans-Serif" font-size="10.00">::MeshCollection::get_mesh_path</text>
</a>
</g>
</g>
<!-- Node1&#45;&gt;Node3 -->
<g id="edge2_Node000001_Node000003" class="edge">
<title>Node1&#45;&gt;Node3</title>
<g id="a_edge2_Node000001_Node000003"><a xlink:title=" ">
<path fill="none" stroke="#63b8ff" d="M438.63,-85C427.07,-85 415.27,-85 403.79,-85"/>
<polygon fill="#63b8ff" stroke="#63b8ff" points="438.72,-88.5 448.72,-85 438.72,-81.5 438.72,-88.5"/>
</a>
</g>
</g>
<!-- Node5 -->
<g id="Node000005" class="node">
<title>Node5</title>
<g id="a_Node000005"><a xlink:href="classwmtk_1_1components_1_1isotropic__remeshing_1_1_isotropic_remeshing.html#afb0bcdadcd90f4b6963b9aca8e482853" target="_top" xlink:title=" ">
<polygon fill="white" stroke="#666666" points="413,-33 215,-33 215,-3 413,-3 413,-33"/>
<text text-anchor="start" x="223" y="-21" font-family="Helvetica,sans-Serif" font-size="10.00">wmtk::components::isotropic</text>
<text text-anchor="middle" x="314" y="-10" font-family="Helvetica,sans-Serif" font-size="10.00">_remeshing::IsotropicRemeshing::run</text>
</a>
</g>
</g>
<!-- Node1&#45;&gt;Node5 -->
<g id="edge4_Node000001_Node000005" class="edge">
<title>Node1&#45;&gt;Node5</title>
<g id="a_edge4_Node000001_Node000005"><a xlink:title=" ">
<path fill="none" stroke="#63b8ff" d="M473.78,-66.91C439.43,-56.33 396.56,-43.12 364.02,-33.1"/>
<polygon fill="#63b8ff" stroke="#63b8ff" points="473.1,-70.36 483.69,-69.96 475.16,-63.67 473.1,-70.36"/>
</a>
</g>
</g>
<!-- Node4 -->
<g id="Node000004" class="node">
<title>Node4</title>
<g id="a_Node000004"><a xlink:href="classwmtk_1_1components_1_1isotropic__remeshing_1_1_isotropic_remeshing.html#a951640c38ad8cae68ec2bf2ad67df72d" target="_top" xlink:title=" ">
<polygon fill="white" stroke="#666666" points="177.5,-107.5 1.5,-107.5 1.5,-66.5 177.5,-66.5 177.5,-107.5"/>
<text text-anchor="start" x="9.5" y="-95.5" font-family="Helvetica,sans-Serif" font-size="10.00">wmtk::components::isotropic</text>
<text text-anchor="start" x="9.5" y="-84.5" font-family="Helvetica,sans-Serif" font-size="10.00">_remeshing::IsotropicRemeshing</text>
<text text-anchor="middle" x="89.5" y="-73.5" font-family="Helvetica,sans-Serif" font-size="10.00">::IsotropicRemeshing</text>
</a>
</g>
</g>
<!-- Node3&#45;&gt;Node4 -->
<g id="edge3_Node000003_Node000004" class="edge">
<title>Node3&#45;&gt;Node4</title>
<g id="a_edge3_Node000003_Node000004"><a xlink:title=" ">
<path fill="none" stroke="#63b8ff" d="M214.25,-85.89C202.06,-86 189.68,-86.11 177.68,-86.22"/>
<polygon fill="#63b8ff" stroke="#63b8ff" points="214.45,-89.39 224.42,-85.8 214.39,-82.39 214.45,-89.39"/>
</a>
</g>
</g>
<!-- Node5&#45;&gt;Node5 -->
<g id="edge7_Node000005_Node000005" class="edge">
<title>Node5&#45;&gt;Node5</title>
<g id="a_edge7_Node000005_Node000005"><a xlink:title=" ">
<path fill="none" stroke="#63b8ff" d="M352.16,-43.6C346.94,-47.97 334.22,-51 314,-51 279.94,-51 267.16,-42.41 275.68,-33.28"/>
<polygon fill="#63b8ff" stroke="#63b8ff" points="355.66,-43.33 352.32,-33.28 348.66,-43.22 355.66,-43.33"/>
</a>
</g>
</g>
<!-- Node6 -->
<g id="Node000006" class="node">
<title>Node6</title>
<g id="a_Node000006"><a xlink:href="namespacewmtk_1_1components_1_1isotropic__remeshing.html#a5bcab5e634086e092020a2edb03a010b" target="_top" xlink:title=" ">
<polygon fill="white" stroke="#666666" points="179,-30 0,-30 0,0 179,0 179,-30"/>
<text text-anchor="start" x="8" y="-18" font-family="Helvetica,sans-Serif" font-size="10.00">wmtk::components::isotropic</text>
<text text-anchor="middle" x="89.5" y="-7" font-family="Helvetica,sans-Serif" font-size="10.00">_remeshing::isotropic_remeshing</text>
</a>
</g>
</g>
<!-- Node5&#45;&gt;Node6 -->
<g id="edge5_Node000005_Node000006" class="edge">
<title>Node5&#45;&gt;Node6</title>
<g id="a_edge5_Node000005_Node000006"><a xlink:title=" ">
<path fill="none" stroke="#63b8ff" d="M204.71,-16.54C196.12,-16.42 187.51,-16.31 179.09,-16.19"/>
<polygon fill="#63b8ff" stroke="#63b8ff" points="204.71,-20.04 214.76,-16.68 204.81,-13.04 204.71,-20.04"/>
</a>
</g>
</g>
<!-- Node6&#45;&gt;Node6 -->
<g id="edge6_Node000006_Node000006" class="edge">
<title>Node6&#45;&gt;Node6</title>
<g id="a_edge6_Node000006_Node000006"><a xlink:title=" ">
<path fill="none" stroke="#63b8ff" d="M128.71,-40.6C123.35,-44.97 110.28,-48 89.5,-48 54.5,-48 41.38,-39.41 50.12,-30.28"/>
<polygon fill="#63b8ff" stroke="#63b8ff" points="132.21,-40.33 128.88,-30.28 125.21,-40.22 132.21,-40.33"/>
</a>
</g>
</g>
</g>
</svg>
