<?xml version="1.0" encoding="UTF-8" standalone="no"?>
<!DOCTYPE svg PUBLIC "-//W3C//DTD SVG 1.1//EN"
 "http://www.w3.org/Graphics/SVG/1.1/DTD/svg11.dtd">
<!-- Generated by graphviz version 2.43.0 (0)
 -->
<!-- Title: wmtk::TetMesh::TetMeshOperationExecutor Pages: 1 -->
<svg width="2503pt" height="508pt"
 viewBox="0.00 0.00 2503.00 508.00" xmlns="http://www.w3.org/2000/svg" xmlns:xlink="http://www.w3.org/1999/xlink">
<g id="graph0" class="graph" transform="scale(1 1) rotate(0) translate(4 504)">
<title>wmtk::TetMesh::TetMeshOperationExecutor</title>
<!-- Node1 -->
<g id="Node000001" class="node">
<title>Node1</title>
<g id="a_Node000001"><a xlink:title=" ">
<polygon fill="#999999" stroke="#666666" points="2495,-216 2310,-216 2310,-186 2495,-186 2495,-216"/>
<text text-anchor="start" x="2318" y="-204" font-family="Helvetica,sans-Serif" font-size="10.00">wmtk::TetMesh::TetMeshOperation</text>
<text text-anchor="middle" x="2402.5" y="-193" font-family="Helvetica,sans-Serif" font-size="10.00">Executor</text>
</a>
</g>
</g>
<!-- Node2 -->
<g id="Node000002" class="node">
<title>Node2</title>
<g id="a_Node000002"><a xlink:href="classwmtk_1_1operations_1_1tet__mesh_1_1_edge_operation_data.html" target="_top" xlink:title=" ">
<polygon fill="white" stroke="#666666" points="1649,-30 1499,-30 1499,0 1649,0 1649,-30"/>
<text text-anchor="start" x="1507" y="-18" font-family="Helvetica,sans-Serif" font-size="10.00">wmtk::operations::tet</text>
<text text-anchor="middle" x="1574" y="-7" font-family="Helvetica,sans-Serif" font-size="10.00">_mesh::EdgeOperationData</text>
</a>
</g>
</g>
<!-- Node2&#45;&gt;Node1 -->
<g id="edge1_Node000001_Node000002" class="edge">
<title>Node2&#45;&gt;Node1</title>
<g id="a_edge1_Node000001_Node000002"><a xlink:title=" ">
<path fill="none" stroke="#63b8ff" d="M1659.34,-12.59C1783.99,-11.61 2023.15,-19.74 2213,-86 2281.05,-109.75 2350.81,-160.64 2383.07,-186"/>
<polygon fill="#63b8ff" stroke="#63b8ff" points="1659.06,-9.09 1649.1,-12.69 1659.13,-16.09 1659.06,-9.09"/>
</a>
</g>
</g>
<!-- Node3 -->
<g id="Node000003" class="node">
<title>Node3</title>
<g id="a_Node000003"><a xlink:href="classwmtk_1_1operations_1_1_edge_operation_data.html" target="_top" xlink:title=" ">
<polygon fill="white" stroke="#666666" points="1150,-103.5 947,-103.5 947,-84.5 1150,-84.5 1150,-103.5"/>
<text text-anchor="middle" x="1048.5" y="-91.5" font-family="Helvetica,sans-Serif" font-size="10.00">wmtk::operations::EdgeOperationData</text>
</a>
</g>
</g>
<!-- Node3&#45;&gt;Node2 -->
<g id="edge2_Node000002_Node000003" class="edge">
<title>Node3&#45;&gt;Node2</title>
<g id="a_edge2_Node000002_Node000003"><a xlink:title=" ">
<path fill="none" stroke="#63b8ff" d="M1122.6,-82.97C1221.96,-67.97 1398.68,-41.31 1498.67,-26.22"/>
<polygon fill="#63b8ff" stroke="#63b8ff" points="1122.01,-79.52 1112.65,-84.47 1123.06,-86.44 1122.01,-79.52"/>
</a>
</g>
</g>
<!-- Node4 -->
<g id="Node000004" class="node">
<title>Node4</title>
<g id="a_Node000004"><a xlink:href="classwmtk_1_1_mesh.html" target="_top" xlink:title=" ">
<polygon fill="white" stroke="#666666" points="784,-395.5 707,-395.5 707,-376.5 784,-376.5 784,-395.5"/>
<text text-anchor="middle" x="745.5" y="-383.5" font-family="Helvetica,sans-Serif" font-size="10.00">wmtk::Mesh</text>
</a>
</g>
</g>
<!-- Node4&#45;&gt;Node3 -->
<g id="edge3_Node000003_Node000004" class="edge">
<title>Node4&#45;&gt;Node3</title>
<g id="a_edge3_Node000003_Node000004"><a xlink:title=" ">
<path fill="none" stroke="#9a32cd" stroke-dasharray="5,2" d="M751.22,-366.62C760.71,-332 785.43,-259.63 834,-222 868.34,-195.4 897.9,-229.33 929,-199 951.07,-177.47 926.3,-154.86 947,-132 959.65,-118.04 977.96,-109.17 995.49,-103.56"/>
<polygon fill="#9a32cd" stroke="#9a32cd" points="747.8,-365.89 748.67,-376.44 754.57,-367.65 747.8,-365.89"/>
</a>
</g>
<text text-anchor="middle" x="881.5" y="-225" font-family="Helvetica,sans-Serif" font-size="10.00" fill="grey"> m_mesh</text>
</g>
<!-- Node9 -->
<g id="Node000009" class="node">
<title>Node9</title>
<g id="a_Node000009"><a xlink:href="classwmtk_1_1multimesh_1_1_multi_mesh_manager.html" target="_top" xlink:title="Implementation details for how the Mesh class implements multiple meshes.">
<polygon fill="white" stroke="#666666" points="1827,-461 1667,-461 1667,-431 1827,-431 1827,-461"/>
<text text-anchor="start" x="1675" y="-449" font-family="Helvetica,sans-Serif" font-size="10.00">wmtk::multimesh::MultiMesh</text>
<text text-anchor="middle" x="1747" y="-438" font-family="Helvetica,sans-Serif" font-size="10.00">Manager</text>
</a>
</g>
</g>
<!-- Node4&#45;&gt;Node9 -->
<g id="edge11_Node000009_Node000004" class="edge">
<title>Node4&#45;&gt;Node9</title>
<g id="a_edge11_Node000009_Node000004"><a xlink:title=" ">
<path fill="none" stroke="#9a32cd" stroke-dasharray="5,2" d="M794.32,-394.61C807.17,-396.66 821.08,-398.64 834,-400 994.43,-416.83 1476.09,-435.97 1666.91,-443.11"/>
<polygon fill="#9a32cd" stroke="#9a32cd" points="794.72,-391.13 784.28,-392.96 793.58,-398.04 794.72,-391.13"/>
</a>
</g>
<text text-anchor="middle" x="1230.5" y="-430" font-family="Helvetica,sans-Serif" font-size="10.00" fill="grey"> m_parent</text>
</g>
<!-- Node16 -->
<g id="Node000016" class="node">
<title>Node16</title>
<g id="a_Node000016"><a xlink:href="classwmtk_1_1_mesh_c_r_t_p.html" target="_top" xlink:title=" ">
<polygon fill="white" stroke="#666666" points="1478,-381.5 1314,-381.5 1314,-362.5 1478,-362.5 1478,-381.5"/>
<text text-anchor="middle" x="1396" y="-369.5" font-family="Helvetica,sans-Serif" font-size="10.00">wmtk::MeshCRTP&lt; TetMesh &gt;</text>
</a>
</g>
</g>
<!-- Node4&#45;&gt;Node16 -->
<g id="edge21_Node000016_Node000004" class="edge">
<title>Node4&#45;&gt;Node16</title>
<g id="a_edge21_Node000016_Node000004"><a xlink:title=" ">
<path fill="none" stroke="#63b8ff" d="M794.26,-380.5C834.84,-376.12 894.65,-370.35 947,-368 1075.02,-362.27 1223.81,-365.57 1313.61,-368.65"/>
<polygon fill="#63b8ff" stroke="#63b8ff" points="793.68,-377.04 784.12,-381.61 794.45,-384 793.68,-377.04"/>
</a>
</g>
</g>
<!-- Node17 -->
<g id="Node000017" class="node">
<title>Node17</title>
<g id="a_Node000017"><a xlink:href="classwmtk_1_1_mesh_c_r_t_p.html" target="_top" xlink:title="A Curiously Recurring Template Pattern shim to enable generic specialization of functions.">
<polygon fill="white" stroke="#666666" points="1129.5,-395.5 967.5,-395.5 967.5,-376.5 1129.5,-376.5 1129.5,-395.5"/>
<text text-anchor="middle" x="1048.5" y="-383.5" font-family="Helvetica,sans-Serif" font-size="10.00">wmtk::MeshCRTP&lt; Derived &gt;</text>
</a>
</g>
</g>
<!-- Node4&#45;&gt;Node17 -->
<g id="edge23_Node000017_Node000004" class="edge">
<title>Node4&#45;&gt;Node17</title>
<g id="a_edge23_Node000017_Node000004"><a xlink:title=" ">
<path fill="none" stroke="#63b8ff" d="M794.1,-386C840.55,-386 912.08,-386 967.32,-386"/>
<polygon fill="#63b8ff" stroke="#63b8ff" points="794.01,-382.5 784.01,-386 794.01,-389.5 794.01,-382.5"/>
</a>
</g>
</g>
<!-- Node18 -->
<g id="Node000018" class="node">
<title>Node18</title>
<g id="a_Node000018"><a xlink:href="classwmtk_1_1attribute_1_1_accessor.html" target="_top" xlink:title="An Accessor that uses tuples for accessing attributes instead of indices.">
<polygon fill="white" stroke="#666666" points="1827,-228.5 1667,-228.5 1667,-187.5 1827,-187.5 1827,-228.5"/>
<text text-anchor="start" x="1675" y="-216.5" font-family="Helvetica,sans-Serif" font-size="10.00">wmtk::attribute::Accessor</text>
<text text-anchor="start" x="1675" y="-205.5" font-family="Helvetica,sans-Serif" font-size="10.00">&lt; T, MeshType, AttributeType</text>
<text text-anchor="middle" x="1747" y="-194.5" font-family="Helvetica,sans-Serif" font-size="10.00">_, Dim &gt;</text>
</a>
</g>
</g>
<!-- Node4&#45;&gt;Node18 -->
<g id="edge26_Node000018_Node000004" class="edge">
<title>Node4&#45;&gt;Node18</title>
<g id="a_edge26_Node000018_Node000004"><a xlink:title=" ">
<path fill="none" stroke="#9a32cd" stroke-dasharray="5,2" d="M791.74,-373.92C805.28,-370.5 820.2,-366.91 834,-364 1140.1,-299.44 1508.27,-242.83 1666.93,-219.43"/>
<polygon fill="#9a32cd" stroke="#9a32cd" points="790.51,-370.62 781.69,-376.49 792.25,-377.4 790.51,-370.62"/>
</a>
</g>
<text text-anchor="middle" x="1230.5" y="-302" font-family="Helvetica,sans-Serif" font-size="10.00" fill="grey"> m_mesh</text>
</g>
<!-- Node5 -->
<g id="Node000005" class="node">
<title>Node5</title>
<g id="a_Node000005"><a xlink:title=" ">
<polygon fill="white" stroke="#666666" points="518,-373 401,-373 401,-343 518,-343 518,-373"/>
<text text-anchor="start" x="409" y="-361" font-family="Helvetica,sans-Serif" font-size="10.00">std::enable_shared</text>
<text text-anchor="middle" x="459.5" y="-350" font-family="Helvetica,sans-Serif" font-size="10.00">_from_this&lt; Mesh &gt;</text>
</a>
</g>
</g>
<!-- Node5&#45;&gt;Node4 -->
<g id="edge4_Node000004_Node000005" class="edge">
<title>Node5&#45;&gt;Node4</title>
<g id="a_edge4_Node000004_Node000005"><a xlink:title=" ">
<path fill="none" stroke="#63b8ff" d="M528.48,-364.7C584.3,-370.21 661.3,-377.8 706.7,-382.27"/>
<polygon fill="#63b8ff" stroke="#63b8ff" points="528.61,-361.2 518.31,-363.7 527.92,-368.16 528.61,-361.2"/>
</a>
</g>
</g>
<!-- Node6 -->
<g id="Node000006" class="node">
<title>Node6</title>
<g id="a_Node000006"><a xlink:href="classwmtk_1_1utils_1_1_merkle_tree_interior_node.html" target="_top" xlink:title=" ">
<polygon fill="white" stroke="#666666" points="352,-458.5 160,-458.5 160,-439.5 352,-439.5 352,-458.5"/>
<text text-anchor="middle" x="256" y="-446.5" font-family="Helvetica,sans-Serif" font-size="10.00">wmtk::utils::MerkleTreeInteriorNode</text>
</a>
</g>
</g>
<!-- Node6&#45;&gt;Node4 -->
<g id="edge5_Node000004_Node000006" class="edge">
<title>Node6&#45;&gt;Node4</title>
<g id="a_edge5_Node000004_Node000006"><a xlink:title=" ">
<path fill="none" stroke="#63b8ff" d="M362.45,-447.24C443.77,-444.09 558.6,-435.75 657,-414 678.18,-409.32 701.55,-401.71 718.81,-395.6"/>
<polygon fill="#63b8ff" stroke="#63b8ff" points="362.07,-443.75 352.21,-447.62 362.33,-450.75 362.07,-443.75"/>
</a>
</g>
</g>
<!-- Node8 -->
<g id="Node000008" class="node">
<title>Node8</title>
<g id="a_Node000008"><a xlink:href="classwmtk_1_1attribute_1_1_attribute_manager.html" target="_top" xlink:title=" ">
<polygon fill="white" stroke="#666666" points="530,-421 389,-421 389,-391 530,-391 530,-421"/>
<text text-anchor="start" x="397" y="-409" font-family="Helvetica,sans-Serif" font-size="10.00">wmtk::attribute::Attribute</text>
<text text-anchor="middle" x="459.5" y="-398" font-family="Helvetica,sans-Serif" font-size="10.00">Manager</text>
</a>
</g>
</g>
<!-- Node6&#45;&gt;Node8 -->
<g id="edge8_Node000008_Node000006" class="edge">
<title>Node6&#45;&gt;Node8</title>
<g id="a_edge8_Node000008_Node000006"><a xlink:title=" ">
<path fill="none" stroke="#63b8ff" d="M311.64,-437.34C335.46,-432.26 363.67,-426.24 388.97,-420.84"/>
<polygon fill="#63b8ff" stroke="#63b8ff" points="310.77,-433.95 301.72,-439.46 312.23,-440.79 310.77,-433.95"/>
</a>
</g>
</g>
<!-- Node6&#45;&gt;Node9 -->
<g id="edge10_Node000009_Node000006" class="edge">
<title>Node6&#45;&gt;Node9</title>
<g id="a_edge10_Node000009_Node000006"><a xlink:title=" ">
<path fill="none" stroke="#63b8ff" d="M289.04,-462.35C328.28,-477.46 397.09,-500 458.5,-500 458.5,-500 458.5,-500 1397,-500 1499.39,-500 1616.71,-477.02 1685.91,-461.04"/>
<polygon fill="#63b8ff" stroke="#63b8ff" points="290.08,-459 279.5,-458.59 287.52,-465.51 290.08,-459"/>
</a>
</g>
</g>
<!-- Node7 -->
<g id="Node000007" class="node">
<title>Node7</title>
<g id="a_Node000007"><a xlink:href="classwmtk_1_1utils_1_1_hashable.html" target="_top" xlink:title=" ">
<polygon fill="white" stroke="#666666" points="123,-458.5 0,-458.5 0,-439.5 123,-439.5 123,-458.5"/>
<text text-anchor="middle" x="61.5" y="-446.5" font-family="Helvetica,sans-Serif" font-size="10.00">wmtk::utils::Hashable</text>
</a>
</g>
</g>
<!-- Node7&#45;&gt;Node6 -->
<g id="edge6_Node000006_Node000007" class="edge">
<title>Node7&#45;&gt;Node6</title>
<g id="a_edge6_Node000006_Node000007"><a xlink:title=" ">
<path fill="none" stroke="#63b8ff" d="M133.18,-449C141.85,-449 150.83,-449 159.8,-449"/>
<polygon fill="#63b8ff" stroke="#63b8ff" points="133.14,-445.5 123.14,-449 133.14,-452.5 133.14,-445.5"/>
</a>
</g>
</g>
<!-- Node8&#45;&gt;Node4 -->
<g id="edge7_Node000004_Node000008" class="edge">
<title>Node8&#45;&gt;Node4</title>
<g id="a_edge7_Node000004_Node000008"><a xlink:title=" ">
<path fill="none" stroke="#9a32cd" stroke-dasharray="5,2" d="M540.32,-400.38C594.8,-396.54 664.48,-391.64 706.74,-388.66"/>
<polygon fill="#9a32cd" stroke="#9a32cd" points="540.07,-396.89 530.34,-401.08 540.56,-403.87 540.07,-396.89"/>
</a>
</g>
<text text-anchor="middle" x="602.5" y="-402" font-family="Helvetica,sans-Serif" font-size="10.00" fill="grey"> m_attribute_manager</text>
</g>
<!-- Node9&#45;&gt;Node4 -->
<g id="edge9_Node000004_Node000009" class="edge">
<title>Node9&#45;&gt;Node4</title>
<g id="a_edge9_Node000004_Node000009"><a xlink:title=" ">
<path fill="none" stroke="#9a32cd" stroke-dasharray="5,2" d="M1656.61,-445.78C1609.68,-445.63 1551.23,-445.38 1499,-445 1203.44,-442.85 1118.6,-517.8 834,-438 804.05,-429.6 773.93,-408.17 758.02,-395.6"/>
<polygon fill="#9a32cd" stroke="#9a32cd" points="1656.73,-449.28 1666.74,-445.81 1656.75,-442.28 1656.73,-449.28"/>
</a>
</g>
<text text-anchor="middle" x="1230.5" y="-472" font-family="Helvetica,sans-Serif" font-size="10.00" fill="grey"> m_multi_mesh_manager</text>
</g>
<!-- Node10 -->
<g id="Node000010" class="node">
<title>Node10</title>
<g id="a_Node000010"><a xlink:href="classwmtk_1_1attribute_1_1_typed_attribute_handle.html" target="_top" xlink:title=" ">
<polygon fill="white" stroke="#666666" points="1481,-213 1311,-213 1311,-183 1481,-183 1481,-213"/>
<text text-anchor="start" x="1319" y="-201" font-family="Helvetica,sans-Serif" font-size="10.00">wmtk::attribute::TypedAttribute</text>
<text text-anchor="middle" x="1396" y="-190" font-family="Helvetica,sans-Serif" font-size="10.00">Handle&lt; int64_t &gt;</text>
</a>
</g>
</g>
<!-- Node10&#45;&gt;Node9 -->
<g id="edge12_Node000009_Node000010" class="edge">
<title>Node10&#45;&gt;Node9</title>
<g id="a_edge12_Node000009_Node000010"><a xlink:title=" ">
<path fill="none" stroke="#9a32cd" stroke-dasharray="5,2" d="M1406.38,-222.77C1420.93,-257.91 1452.21,-321.95 1499,-358 1554.45,-400.72 1583.26,-381.97 1649,-406 1669.87,-413.63 1692.88,-423.07 1711.25,-430.87"/>
<polygon fill="#9a32cd" stroke="#9a32cd" points="1409.54,-221.24 1402.56,-213.27 1403.04,-223.85 1409.54,-221.24"/>
</a>
</g>
<text text-anchor="middle" x="1574" y="-409" font-family="Helvetica,sans-Serif" font-size="10.00" fill="grey"> map_to_parent_handle</text>
</g>
<!-- Node14 -->
<g id="Node000014" class="node">
<title>Node14</title>
<g id="a_Node000014"><a xlink:href="classwmtk_1_1attribute_1_1_accessor.html" target="_top" xlink:title=" ">
<polygon fill="white" stroke="#666666" points="2213,-329 2030,-329 2030,-277 2213,-277 2213,-329"/>
<text text-anchor="start" x="2038" y="-317" font-family="Helvetica,sans-Serif" font-size="10.00">wmtk::attribute::Accessor</text>
<text text-anchor="start" x="2038" y="-306" font-family="Helvetica,sans-Serif" font-size="10.00">&lt; int64_t, wmtk::TetMesh,</text>
<text text-anchor="start" x="2038" y="-295" font-family="Helvetica,sans-Serif" font-size="10.00"> wmtk::attribute::CachingAttribute</text>
<text text-anchor="middle" x="2121.5" y="-284" font-family="Helvetica,sans-Serif" font-size="10.00">&lt; int64_t &gt;, 4 &gt;</text>
</a>
</g>
</g>
<!-- Node10&#45;&gt;Node14 -->
<g id="edge18_Node000014_Node000010" class="edge">
<title>Node10&#45;&gt;Node14</title>
<g id="a_edge18_Node000014_Node000010"><a xlink:title=" ">
<path fill="none" stroke="#9a32cd" stroke-dasharray="5,2" d="M1491.27,-208.92C1538.86,-215.26 1597.33,-224.33 1649,-236 1729.64,-254.21 1763.51,-237.05 1827,-290 1840.43,-301.2 1830.07,-315.89 1845,-325 1908.08,-363.49 1994.96,-347.71 2054.18,-329.03"/>
<polygon fill="#9a32cd" stroke="#9a32cd" points="1491.65,-205.44 1481.28,-207.61 1490.74,-212.38 1491.65,-205.44"/>
</a>
</g>
<text text-anchor="middle" x="1747" y="-293" font-family="Helvetica,sans-Serif" font-size="10.00" fill="grey"> m_handle</text>
</g>
<!-- Node15 -->
<g id="Node000015" class="node">
<title>Node15</title>
<g id="a_Node000015"><a xlink:href="classwmtk_1_1_tet_mesh.html" target="_top" xlink:title=" ">
<polygon fill="white" stroke="#666666" points="1792.5,-328.5 1701.5,-328.5 1701.5,-309.5 1792.5,-309.5 1792.5,-328.5"/>
<text text-anchor="middle" x="1747" y="-316.5" font-family="Helvetica,sans-Serif" font-size="10.00">wmtk::TetMesh</text>
</a>
</g>
</g>
<!-- Node10&#45;&gt;Node15 -->
<g id="edge24_Node000015_Node000010" class="edge">
<title>Node10&#45;&gt;Node15</title>
<g id="a_edge24_Node000015_Node000010"><a xlink:title=" ">
<path fill="none" stroke="#9a32cd" stroke-dasharray="5,2" d="M1444.7,-216.78C1461.72,-223.21 1481.11,-230.23 1499,-236 1564.78,-257.2 1585,-250.92 1649,-277 1657.48,-280.45 1658.74,-283.05 1667,-287 1684.36,-295.3 1704.46,-303.42 1720.04,-309.41"/>
<polygon fill="#9a32cd" stroke="#9a32cd" points="1445.57,-213.37 1434.98,-213.07 1443.08,-219.91 1445.57,-213.37"/>
</a>
</g>
<text text-anchor="middle" x="1574" y="-346" font-family="Helvetica,sans-Serif" font-size="10.00" fill="grey"> m_et_handle</text>
<text text-anchor="middle" x="1574" y="-335" font-family="Helvetica,sans-Serif" font-size="10.00" fill="grey">m_ft_handle</text>
<text text-anchor="middle" x="1574" y="-324" font-family="Helvetica,sans-Serif" font-size="10.00" fill="grey">m_te_handle</text>
<text text-anchor="middle" x="1574" y="-313" font-family="Helvetica,sans-Serif" font-size="10.00" fill="grey">m_tf_handle</text>
<text text-anchor="middle" x="1574" y="-302" font-family="Helvetica,sans-Serif" font-size="10.00" fill="grey">m_tt_handle</text>
<text text-anchor="middle" x="1574" y="-291" font-family="Helvetica,sans-Serif" font-size="10.00" fill="grey">m_tv_handle</text>
<text text-anchor="middle" x="1574" y="-280" font-family="Helvetica,sans-Serif" font-size="10.00" fill="grey">m_vt_handle</text>
</g>
<!-- Node19 -->
<g id="Node000019" class="node">
<title>Node19</title>
<g id="a_Node000019"><a xlink:href="classwmtk_1_1attribute_1_1_accessor.html" target="_top" xlink:title=" ">
<polygon fill="white" stroke="#666666" points="2213,-227 2030,-227 2030,-175 2213,-175 2213,-227"/>
<text text-anchor="start" x="2038" y="-215" font-family="Helvetica,sans-Serif" font-size="10.00">wmtk::attribute::Accessor</text>
<text text-anchor="start" x="2038" y="-204" font-family="Helvetica,sans-Serif" font-size="10.00">&lt; int64_t, wmtk::TetMesh,</text>
<text text-anchor="start" x="2038" y="-193" font-family="Helvetica,sans-Serif" font-size="10.00"> wmtk::attribute::CachingAttribute</text>
<text text-anchor="middle" x="2121.5" y="-182" font-family="Helvetica,sans-Serif" font-size="10.00">&lt; int64_t &gt;, 6 &gt;</text>
</a>
</g>
</g>
<!-- Node10&#45;&gt;Node19 -->
<g id="edge28_Node000019_Node000010" class="edge">
<title>Node10&#45;&gt;Node19</title>
<g id="a_edge28_Node000019_Node000010"><a xlink:title=" ">
<path fill="none" stroke="#9a32cd" stroke-dasharray="5,2" d="M1448.33,-179.64C1579.53,-134.15 1923.11,-24.66 2012,-92 2035.55,-109.84 2011.15,-133.24 2030,-156 2036.04,-163.3 2043.57,-169.52 2051.67,-174.79"/>
<polygon fill="#9a32cd" stroke="#9a32cd" points="1447.17,-176.33 1438.88,-182.93 1449.48,-182.94 1447.17,-176.33"/>
</a>
</g>
<text text-anchor="middle" x="1747" y="-115" font-family="Helvetica,sans-Serif" font-size="10.00" fill="grey"> m_handle</text>
</g>
<!-- Node20 -->
<g id="Node000020" class="node">
<title>Node20</title>
<g id="a_Node000020"><a xlink:href="classwmtk_1_1attribute_1_1_accessor.html" target="_top" xlink:title=" ">
<polygon fill="white" stroke="#666666" points="2213,-147 2030,-147 2030,-95 2213,-95 2213,-147"/>
<text text-anchor="start" x="2038" y="-135" font-family="Helvetica,sans-Serif" font-size="10.00">wmtk::attribute::Accessor</text>
<text text-anchor="start" x="2038" y="-124" font-family="Helvetica,sans-Serif" font-size="10.00">&lt; int64_t, wmtk::TetMesh,</text>
<text text-anchor="start" x="2038" y="-113" font-family="Helvetica,sans-Serif" font-size="10.00"> wmtk::attribute::CachingAttribute</text>
<text text-anchor="middle" x="2121.5" y="-102" font-family="Helvetica,sans-Serif" font-size="10.00">&lt; int64_t &gt;, 1 &gt;</text>
</a>
</g>
</g>
<!-- Node10&#45;&gt;Node20 -->
<g id="edge32_Node000020_Node000010" class="edge">
<title>Node10&#45;&gt;Node20</title>
<g id="a_edge32_Node000020_Node000010"><a xlink:title=" ">
<path fill="none" stroke="#9a32cd" stroke-dasharray="5,2" d="M1418.69,-176.01C1438.17,-157.38 1468.35,-131.2 1499,-115 1567.88,-78.6 1589.91,-76.23 1667,-65 1687.61,-62 2011.85,-66.96 2012,-67 2035.42,-72.64 2059.6,-84.04 2079.17,-94.91"/>
<polygon fill="#9a32cd" stroke="#9a32cd" points="1416.25,-173.5 1411.52,-182.98 1421.13,-178.52 1416.25,-173.5"/>
</a>
</g>
<text text-anchor="middle" x="1747" y="-68" font-family="Helvetica,sans-Serif" font-size="10.00" fill="grey"> m_handle</text>
</g>
<!-- Node11 -->
<g id="Node000011" class="node">
<title>Node11</title>
<g id="a_Node000011"><a xlink:href="classwmtk_1_1attribute_1_1_attribute_handle.html" target="_top" xlink:title="Internal handle representation used by TypedAttributeManager.">
<polygon fill="white" stroke="#666666" points="816,-186 675,-186 675,-156 816,-156 816,-186"/>
<text text-anchor="start" x="683" y="-174" font-family="Helvetica,sans-Serif" font-size="10.00">wmtk::attribute::Attribute</text>
<text text-anchor="middle" x="745.5" y="-163" font-family="Helvetica,sans-Serif" font-size="10.00">Handle</text>
</a>
</g>
</g>
<!-- Node11&#45;&gt;Node10 -->
<g id="edge13_Node000010_Node000011" class="edge">
<title>Node11&#45;&gt;Node10</title>
<g id="a_edge13_Node000010_Node000011"><a xlink:title=" ">
<path fill="none" stroke="#9a32cd" stroke-dasharray="5,2" d="M826.23,-167.09C862.99,-165.47 907.2,-163.79 947,-163 1037.2,-161.2 1060,-156.6 1150,-163 1203.79,-166.82 1263.72,-175.31 1310.84,-182.97"/>
<polygon fill="#9a32cd" stroke="#9a32cd" points="825.91,-163.6 816.07,-167.54 826.22,-170.59 825.91,-163.6"/>
</a>
</g>
<text text-anchor="middle" x="1048.5" y="-166" font-family="Helvetica,sans-Serif" font-size="10.00" fill="grey"> m_base_handle</text>
</g>
<!-- Node12 -->
<g id="Node000012" class="node">
<title>Node12</title>
<g id="a_Node000012"><a xlink:href="classwmtk_1_1attribute_1_1_typed_attribute_handle.html" target="_top" xlink:title="Handle that represents attributes for some mesh.">
<polygon fill="white" stroke="#666666" points="1133.5,-213 963.5,-213 963.5,-183 1133.5,-183 1133.5,-213"/>
<text text-anchor="start" x="971.5" y="-201" font-family="Helvetica,sans-Serif" font-size="10.00">wmtk::attribute::TypedAttribute</text>
<text text-anchor="middle" x="1048.5" y="-190" font-family="Helvetica,sans-Serif" font-size="10.00">Handle&lt; T &gt;</text>
</a>
</g>
</g>
<!-- Node11&#45;&gt;Node12 -->
<g id="edge15_Node000012_Node000011" class="edge">
<title>Node11&#45;&gt;Node12</title>
<g id="a_edge15_Node000012_Node000011"><a xlink:title=" ">
<path fill="none" stroke="#9a32cd" stroke-dasharray="5,2" d="M826.28,-178.16C868.54,-181.95 920.43,-186.6 963.33,-190.45"/>
<polygon fill="#9a32cd" stroke="#9a32cd" points="826.58,-174.67 816.31,-177.26 825.96,-181.64 826.58,-174.67"/>
</a>
</g>
<text text-anchor="middle" x="881.5" y="-189" font-family="Helvetica,sans-Serif" font-size="10.00" fill="grey"> m_base_handle</text>
</g>
<!-- Node12&#45;&gt;Node10 -->
<g id="edge14_Node000010_Node000012" class="edge">
<title>Node12&#45;&gt;Node10</title>
<g id="a_edge14_Node000010_Node000012"><a xlink:title=" ">
<path fill="none" stroke="orange" stroke-dasharray="5,2" d="M1143.85,-198C1196.05,-198 1260.37,-198 1310.85,-198"/>
<polygon fill="orange" stroke="orange" points="1143.58,-194.5 1133.58,-198 1143.58,-201.5 1143.58,-194.5"/>
</a>
</g>
<text text-anchor="middle" x="1230.5" y="-201" font-family="Helvetica,sans-Serif" font-size="10.00" fill="grey"> &lt; int64_t &gt;</text>
</g>
<!-- Node13 -->
<g id="Node000013" class="node">
<title>Node13</title>
<g id="a_Node000013"><a xlink:href="classwmtk_1_1_tuple.html" target="_top" xlink:title="The Tuple is the basic navigation tool in our mesh data structure.">
<polygon fill="white" stroke="#666666" points="783.5,-103.5 707.5,-103.5 707.5,-84.5 783.5,-84.5 783.5,-103.5"/>
<text text-anchor="middle" x="745.5" y="-91.5" font-family="Helvetica,sans-Serif" font-size="10.00">wmtk::Tuple</text>
</a>
</g>
</g>
<!-- Node13&#45;&gt;Node3 -->
<g id="edge16_Node000003_Node000013" class="edge">
<title>Node13&#45;&gt;Node3</title>
<g id="a_edge16_Node000003_Node000013"><a xlink:title=" ">
<path fill="none" stroke="#9a32cd" stroke-dasharray="5,2" d="M793.92,-94C834.79,-94 895.19,-94 946.79,-94"/>
<polygon fill="#9a32cd" stroke="#9a32cd" points="793.71,-90.5 783.71,-94 793.71,-97.5 793.71,-90.5"/>
</a>
</g>
<text text-anchor="middle" x="881.5" y="-108" font-family="Helvetica,sans-Serif" font-size="10.00" fill="grey"> m_operating_tuple</text>
<text text-anchor="middle" x="881.5" y="-97" font-family="Helvetica,sans-Serif" font-size="10.00" fill="grey">m_output_tuple</text>
</g>
<!-- Node14&#45;&gt;Node1 -->
<g id="edge17_Node000001_Node000014" class="edge">
<title>Node14&#45;&gt;Node1</title>
<g id="a_edge17_Node000001_Node000014"><a xlink:title=" ">
<path fill="none" stroke="#9a32cd" stroke-dasharray="5,2" d="M2203.08,-273.54C2254.55,-254.72 2319.14,-231.11 2360.37,-216.04"/>
<polygon fill="#9a32cd" stroke="#9a32cd" points="2201.82,-270.28 2193.63,-277 2204.22,-276.85 2201.82,-270.28"/>
</a>
</g>
<text text-anchor="middle" x="2261.5" y="-286" font-family="Helvetica,sans-Serif" font-size="10.00" fill="grey"> tf_accessor</text>
<text text-anchor="middle" x="2261.5" y="-275" font-family="Helvetica,sans-Serif" font-size="10.00" fill="grey">tt_accessor</text>
<text text-anchor="middle" x="2261.5" y="-264" font-family="Helvetica,sans-Serif" font-size="10.00" fill="grey">tv_accessor</text>
</g>
<!-- Node15&#45;&gt;Node1 -->
<g id="edge35_Node000001_Node000015" class="edge">
<title>Node15&#45;&gt;Node1</title>
<g id="a_edge35_Node000001_Node000015"><a xlink:title=" ">
<path fill="none" stroke="#9a32cd" stroke-dasharray="5,2" d="M1768,-334.48C1786.73,-347.91 1816.07,-366.37 1845,-374 2003.9,-415.91 2057.16,-390.16 2213,-338 2250.32,-325.51 2259.45,-320.12 2292,-298 2328.97,-272.88 2366.86,-236.45 2386.93,-216.14"/>
<polygon fill="#9a32cd" stroke="#9a32cd" points="1770.08,-331.66 1759.95,-328.54 1765.92,-337.29 1770.08,-331.66"/>
</a>
</g>
<text text-anchor="middle" x="2121.5" y="-394" font-family="Helvetica,sans-Serif" font-size="10.00" fill="grey"> m_mesh</text>
</g>
<!-- Node15&#45;&gt;Node14 -->
<g id="edge19_Node000014_Node000015" class="edge">
<title>Node15&#45;&gt;Node14</title>
<g id="a_edge19_Node000014_Node000015"><a xlink:title=" ">
<path fill="none" stroke="#9a32cd" stroke-dasharray="5,2" d="M1780.48,-332.16C1799.03,-338.97 1822.94,-346.56 1845,-350 1918.34,-361.43 1939.32,-365.06 2012,-350 2032.4,-345.77 2053.68,-337.51 2071.94,-329.07"/>
<polygon fill="#9a32cd" stroke="#9a32cd" points="1781.62,-328.85 1771.03,-328.59 1779.15,-335.4 1781.62,-328.85"/>
</a>
</g>
<text text-anchor="middle" x="1928.5" y="-362" font-family="Helvetica,sans-Serif" font-size="10.00" fill="grey"> m_mesh</text>
</g>
<!-- Node15&#45;&gt;Node19 -->
<g id="edge29_Node000019_Node000015" class="edge">
<title>Node15&#45;&gt;Node19</title>
<g id="a_edge29_Node000019_Node000015"><a xlink:title=" ">
<path fill="none" stroke="#9a32cd" stroke-dasharray="5,2" d="M1802.8,-325.13C1858.92,-328.79 1946.92,-327.08 2012,-291 2023.35,-284.71 2020.7,-277.05 2030,-268 2045.27,-253.14 2063.94,-238.78 2080.35,-227.2"/>
<polygon fill="#9a32cd" stroke="#9a32cd" points="1802.93,-321.63 1792.71,-324.39 1802.42,-328.61 1802.93,-321.63"/>
</a>
</g>
<text text-anchor="middle" x="1928.5" y="-329" font-family="Helvetica,sans-Serif" font-size="10.00" fill="grey"> m_mesh</text>
</g>
<!-- Node15&#45;&gt;Node20 -->
<g id="edge33_Node000020_Node000015" class="edge">
<title>Node15&#45;&gt;Node20</title>
<g id="a_edge33_Node000020_Node000015"><a xlink:title=" ">
<path fill="none" stroke="#9a32cd" stroke-dasharray="5,2" d="M1802.01,-305.72C1811.51,-301.18 1820.45,-295.11 1827,-287 1856.2,-250.85 1813,-217.7 1845,-184 1846.66,-182.25 1950.23,-158.88 2029.89,-141.11"/>
<polygon fill="#9a32cd" stroke="#9a32cd" points="1800.63,-302.51 1792.78,-309.62 1803.35,-308.95 1800.63,-302.51"/>
</a>
</g>
<text text-anchor="middle" x="1928.5" y="-187" font-family="Helvetica,sans-Serif" font-size="10.00" fill="grey"> m_mesh</text>
</g>
<!-- Node16&#45;&gt;Node15 -->
<g id="edge20_Node000015_Node000016" class="edge">
<title>Node16&#45;&gt;Node15</title>
<g id="a_edge20_Node000015_Node000016"><a xlink:title=" ">
<path fill="none" stroke="#63b8ff" d="M1488.33,-374.06C1536.62,-373.36 1596.59,-369.66 1649,-358 1677.52,-351.65 1708.54,-337.87 1727.62,-328.5"/>
<polygon fill="#63b8ff" stroke="#63b8ff" points="1488.17,-370.56 1478.21,-374.16 1488.25,-377.56 1488.17,-370.56"/>
</a>
</g>
</g>
<!-- Node17&#45;&gt;Node16 -->
<g id="edge22_Node000016_Node000017" class="edge">
<title>Node17&#45;&gt;Node16</title>
<g id="a_edge22_Node000016_Node000017"><a xlink:title=" ">
<path fill="none" stroke="orange" stroke-dasharray="5,2" d="M1139.87,-382.34C1193.76,-380.15 1261.62,-377.4 1313.8,-375.29"/>
<polygon fill="orange" stroke="orange" points="1139.48,-378.85 1129.63,-382.75 1139.77,-385.85 1139.48,-378.85"/>
</a>
</g>
<text text-anchor="middle" x="1230.5" y="-384" font-family="Helvetica,sans-Serif" font-size="10.00" fill="grey"> &lt; TetMesh &gt;</text>
</g>
<!-- Node18&#45;&gt;Node14 -->
<g id="edge25_Node000014_Node000018" class="edge">
<title>Node18&#45;&gt;Node14</title>
<g id="a_edge25_Node000014_Node000018"><a xlink:title=" ">
<path fill="none" stroke="orange" stroke-dasharray="5,2" d="M1827.39,-231.03C1833.32,-232.46 1839.24,-233.81 1845,-235 1918.37,-250.19 1939.69,-238.38 2012,-258 2029.81,-262.83 2048.59,-269.87 2065.42,-276.96"/>
<polygon fill="orange" stroke="orange" points="1827.95,-227.56 1817.4,-228.53 1826.25,-234.35 1827.95,-227.56"/>
</a>
</g>
<text text-anchor="start" x="1845" y="-283" font-family="Helvetica,sans-Serif" font-size="10.00" fill="grey"> &lt; int64_t, wmtk::TetMesh,</text>
<text text-anchor="start" x="1845" y="-272" font-family="Helvetica,sans-Serif" font-size="10.00" fill="grey"> wmtk::attribute::CachingAttribute</text>
<text text-anchor="middle" x="1928.5" y="-261" font-family="Helvetica,sans-Serif" font-size="10.00" fill="grey">&lt; int64_t &gt;, 4 &gt;</text>
</g>
<!-- Node18&#45;&gt;Node19 -->
<g id="edge30_Node000019_Node000018" class="edge">
<title>Node18&#45;&gt;Node19</title>
<g id="a_edge30_Node000019_Node000018"><a xlink:title=" ">
<path fill="none" stroke="orange" stroke-dasharray="5,2" d="M1837.27,-202.28C1839.87,-202.18 1842.45,-202.08 1845,-202 1906.67,-199.98 1976.14,-199.74 2029.9,-200"/>
<polygon fill="orange" stroke="orange" points="1836.96,-198.79 1827.12,-202.73 1837.27,-205.78 1836.96,-198.79"/>
</a>
</g>
<text text-anchor="start" x="1845" y="-227" font-family="Helvetica,sans-Serif" font-size="10.00" fill="grey"> &lt; int64_t, wmtk::TetMesh,</text>
<text text-anchor="start" x="1845" y="-216" font-family="Helvetica,sans-Serif" font-size="10.00" fill="grey"> wmtk::attribute::CachingAttribute</text>
<text text-anchor="middle" x="1928.5" y="-205" font-family="Helvetica,sans-Serif" font-size="10.00" fill="grey">&lt; int64_t &gt;, 6 &gt;</text>
</g>
<!-- Node18&#45;&gt;Node20 -->
<g id="edge34_Node000020_Node000018" class="edge">
<title>Node18&#45;&gt;Node20</title>
<g id="a_edge34_Node000020_Node000018"><a xlink:title=" ">
<path fill="none" stroke="orange" stroke-dasharray="5,2" d="M1767.34,-179.03C1784.62,-156 1812.21,-125.48 1845,-112 1903.2,-88.07 1974.3,-91.1 2029.7,-99.7"/>
<polygon fill="orange" stroke="orange" points="1764.5,-176.99 1761.46,-187.13 1770.17,-181.1 1764.5,-176.99"/>
</a>
</g>
<text text-anchor="start" x="1845" y="-137" font-family="Helvetica,sans-Serif" font-size="10.00" fill="grey"> &lt; int64_t, wmtk::TetMesh,</text>
<text text-anchor="start" x="1845" y="-126" font-family="Helvetica,sans-Serif" font-size="10.00" fill="grey"> wmtk::attribute::CachingAttribute</text>
<text text-anchor="middle" x="1928.5" y="-115" font-family="Helvetica,sans-Serif" font-size="10.00" fill="grey">&lt; int64_t &gt;, 1 &gt;</text>
</g>
<!-- Node19&#45;&gt;Node1 -->
<g id="edge27_Node000001_Node000019" class="edge">
<title>Node19&#45;&gt;Node1</title>
<g id="a_edge27_Node000001_Node000019"><a xlink:title=" ">
<path fill="none" stroke="#9a32cd" stroke-dasharray="5,2" d="M2223.39,-201C2251.66,-201 2282.24,-201 2309.94,-201"/>
<polygon fill="#9a32cd" stroke="#9a32cd" points="2223.08,-197.5 2213.08,-201 2223.08,-204.5 2223.08,-197.5"/>
</a>
</g>
<text text-anchor="middle" x="2261.5" y="-204" font-family="Helvetica,sans-Serif" font-size="10.00" fill="grey"> te_accessor</text>
</g>
<!-- Node20&#45;&gt;Node1 -->
<g id="edge31_Node000001_Node000020" class="edge">
<title>Node20&#45;&gt;Node1</title>
<g id="a_edge31_Node000001_Node000020"><a xlink:title=" ">
<path fill="none" stroke="#9a32cd" stroke-dasharray="5,2" d="M2222.73,-145.06C2245.59,-150.93 2269.71,-157.42 2292,-164 2314.42,-170.62 2339.11,-178.88 2359.36,-185.91"/>
<polygon fill="#9a32cd" stroke="#9a32cd" points="2223.57,-141.66 2213.02,-142.59 2221.85,-148.45 2223.57,-141.66"/>
</a>
</g>
<text text-anchor="middle" x="2261.5" y="-189" font-family="Helvetica,sans-Serif" font-size="10.00" fill="grey"> et_accessor</text>
<text text-anchor="middle" x="2261.5" y="-178" font-family="Helvetica,sans-Serif" font-size="10.00" fill="grey">ft_accessor</text>
<text text-anchor="middle" x="2261.5" y="-167" font-family="Helvetica,sans-Serif" font-size="10.00" fill="grey">vt_accessor</text>
</g>
</g>
</svg>
