<?xml version="1.0" encoding="UTF-8" standalone="no"?>
<!DOCTYPE svg PUBLIC "-//W3C//DTD SVG 1.1//EN"
 "http://www.w3.org/Graphics/SVG/1.1/DTD/svg11.dtd">
<!-- Generated by graphviz version 2.43.0 (0)
 -->
<!-- Title: wmtk::multimesh::MultiMeshManager::map_to_child_tuples Pages: 1 -->
<!--zoomable 486 -->

<svg id="main" version="1.1" xmlns="http://www.w3.org/2000/svg" xmlns:xlink="http://www.w3.org/1999/xlink" xml:space="preserve" onload="init(evt)">
<style type="text/css"><![CDATA[
.node, .edge {opacity: 0.7;}
.node.selected, .edge.selected {opacity: 1;}
.edge:hover path { stroke: red; }
.edge:hover polygon { stroke: red; fill: red; }
]]></style>

<defs>
  <circle id="rim" cx="0" cy="0" r="7"/>
  <circle id="rim2" cx="0" cy="0" r="3.5"/>
  <g id="zoomPlus">
    <use xlink:href="#rim" fill="#404040"><set attributeName="fill" to="#808080" begin="zoomplus.mouseover" end="zoomplus.mouseout"/></use>
    <path d="M-4,0h8M0,-4v8" fill="none" stroke="white" stroke-width="1.5" pointer-events="none"/>
  </g>
  <g id="zoomMin">
    <use xlink:href="#rim" fill="#404040"><set attributeName="fill" to="#808080" begin="zoomminus.mouseover" end="zoomminus.mouseout"/></use>
    <path d="M-4,0h8" fill="none" stroke="white" stroke-width="1.5" pointer-events="none"/>
  </g>
  <g id="arrowUp" transform="translate(30 24)">
    <use xlink:href="#rim"/>
    <path pointer-events="none" fill="none" stroke="white" stroke-width="1.5" d="M0,-3.0v7 M-2.5,-0.5L0,-3.0L2.5,-0.5"/>
  </g>
  <g id="arrowRight" transform="rotate(90) translate(36 -43)">
    <use xlink:href="#rim"/>
    <path pointer-events="none" fill="none" stroke="white" stroke-width="1.5" d="M0,-3.0v7 M-2.5,-0.5L0,-3.0L2.5,-0.5"/>
  </g>
  <g id="arrowDown" transform="rotate(180) translate(-30 -48)">
    <use xlink:href="#rim"/>
    <path pointer-events="none" fill="none" stroke="white" stroke-width="1.5" d="M0,-3.0v7 M-2.5,-0.5L0,-3.0L2.5,-0.5"/>
  </g>
  <g id="arrowLeft" transform="rotate(270) translate(-36 17)">
    <use xlink:href="#rim"/>
    <path pointer-events="none" fill="none" stroke="white" stroke-width="1.5" d="M0,-3.0v7 M-2.5,-0.5L0,-3.0L2.5,-0.5"/>
  </g>
  <g id="resetDef">
    <use xlink:href="#rim2" fill="#404040"><set attributeName="fill" to="#808080" begin="reset.mouseover" end="reset.mouseout"/></use>
  </g>
</defs>
<script type="application/ecmascript">
var viewWidth = 1827;
var viewHeight = 486;
var sectionId = 'dynsection-53';
</script>
<script type="application/ecmascript" xlink:href="svg.min.js"/>
<svg id="graph" class="graph">
<g id="viewport">
<title>wmtk::multimesh::MultiMeshManager::map_to_child_tuples</title>
<!-- Node1 -->
<g id="Node000001" class="node">
<title>Node1</title>
<g id="a_Node000001"><a xlink:title=" ">
<polygon fill="#999999" stroke="#666666" points="1819,-226 1653,-226 1653,-196 1819,-196 1819,-226"/>
<text text-anchor="start" x="1661" y="-214" font-family="Helvetica,sans-Serif" font-size="10.00">wmtk::multimesh::MultiMesh</text>
<text text-anchor="middle" x="1736" y="-203" font-family="Helvetica,sans-Serif" font-size="10.00">Manager::map_to_child_tuples</text>
</a>
</g>
</g>
<!-- Node1&#45;&gt;Node1 -->
<g id="edge43_Node000001_Node000001" class="edge">
<title>Node1&#45;&gt;Node1</title>
<g id="a_edge43_Node000001_Node000001"><a xlink:title=" ">
<path fill="none" stroke="#63b8ff" d="M1773.81,-236.6C1768.64,-240.97 1756.04,-244 1736,-244 1702.25,-244 1689.59,-235.41 1698.03,-226.28"/>
<polygon fill="#63b8ff" stroke="#63b8ff" points="1777.31,-236.33 1773.97,-226.28 1770.31,-236.22 1777.31,-236.33"/>
</a>
</g>
</g>
<!-- Node2 -->
<g id="Node000002" class="node">
<title>Node2</title>
<g id="a_Node000002"><a xlink:href="classwmtk_1_1multimesh_1_1_multi_mesh_manager.html#aa608e402a5d55152ce96cbacb88ba50a" target="_top" xlink:title=" ">
<polygon fill="white" stroke="#666666" points="1617,-298 1420,-298 1420,-268 1617,-268 1617,-298"/>
<text text-anchor="start" x="1428" y="-286" font-family="Helvetica,sans-Serif" font-size="10.00">wmtk::multimesh::MultiMesh</text>
<text text-anchor="middle" x="1518.5" y="-275" font-family="Helvetica,sans-Serif" font-size="10.00">Manager::map_down_relative_tuples</text>
</a>
</g>
</g>
<!-- Node1&#45;&gt;Node2 -->
<g id="edge1_Node000001_Node000002" class="edge">
<title>Node1&#45;&gt;Node2</title>
<g id="a_edge1_Node000001_Node000002"><a xlink:title=" ">
<path fill="none" stroke="#63b8ff" d="M1692.21,-230.16C1670.04,-239.63 1642.38,-250.76 1617,-259 1607.13,-262.2 1596.59,-265.21 1586.21,-267.95"/>
<polygon fill="#63b8ff" stroke="#63b8ff" points="1693.86,-233.25 1701.66,-226.08 1691.09,-226.83 1693.86,-233.25"/>
</a>
</g>
</g>
<!-- Node3 -->
<g id="Node000003" class="node">
<title>Node3</title>
<g id="a_Node000003"><a xlink:href="classwmtk_1_1multimesh_1_1_multi_mesh_manager.html#ae79d884089139ad2962aef5f496dbc8c" target="_top" xlink:title="optimized map fromsimplex from this mesh to one of its direct children">
<polygon fill="white" stroke="#666666" points="1598.5,-250 1438.5,-250 1438.5,-220 1598.5,-220 1598.5,-250"/>
<text text-anchor="start" x="1446.5" y="-238" font-family="Helvetica,sans-Serif" font-size="10.00">wmtk::multimesh::MultiMesh</text>
<text text-anchor="middle" x="1518.5" y="-227" font-family="Helvetica,sans-Serif" font-size="10.00">Manager::map_to_child</text>
</a>
</g>
</g>
<!-- Node1&#45;&gt;Node3 -->
<g id="edge2_Node000001_Node000003" class="edge">
<title>Node1&#45;&gt;Node3</title>
<g id="a_edge2_Node000001_Node000003"><a xlink:title=" ">
<path fill="none" stroke="#63b8ff" d="M1642.79,-221.27C1628.05,-222.91 1612.91,-224.6 1598.51,-226.2"/>
<polygon fill="#63b8ff" stroke="#63b8ff" points="1643.36,-224.73 1652.91,-220.14 1642.59,-217.77 1643.36,-224.73"/>
</a>
</g>
</g>
<!-- Node35 -->
<g id="Node000035" class="node">
<title>Node35</title>
<g id="a_Node000035"><a xlink:href="classwmtk_1_1_mesh.html#ae253a3cf3720e87d12b9560d43882e76" target="_top" xlink:title="optimized map fromsimplex from this mesh to one of its direct children">
<polygon fill="white" stroke="#666666" points="1578,-202 1459,-202 1459,-172 1578,-172 1578,-202"/>
<text text-anchor="start" x="1467" y="-190" font-family="Helvetica,sans-Serif" font-size="10.00">wmtk::Mesh::map_to</text>
<text text-anchor="middle" x="1518.5" y="-179" font-family="Helvetica,sans-Serif" font-size="10.00">_child_tuples</text>
</a>
</g>
</g>
<!-- Node1&#45;&gt;Node35 -->
<g id="edge41_Node000001_Node000035" class="edge">
<title>Node1&#45;&gt;Node35</title>
<g id="a_edge41_Node000001_Node000035"><a xlink:title=" ">
<path fill="none" stroke="#63b8ff" d="M1642.92,-200.75C1621,-198.3 1598.2,-195.77 1578.25,-193.54"/>
<polygon fill="#63b8ff" stroke="#63b8ff" points="1642.59,-204.23 1652.91,-201.86 1643.36,-197.27 1642.59,-204.23"/>
</a>
</g>
</g>
<!-- Node37 -->
<g id="Node000037" class="node">
<title>Node37</title>
<g id="a_Node000037"><a xlink:href="classwmtk_1_1multimesh_1_1_multi_mesh_manager.html#aee135fbde11aefaf476a00007f524d25" target="_top" xlink:title=" ">
<polygon fill="white" stroke="#666666" points="1601.5,-154 1435.5,-154 1435.5,-124 1601.5,-124 1601.5,-154"/>
<text text-anchor="start" x="1443.5" y="-142" font-family="Helvetica,sans-Serif" font-size="10.00">wmtk::multimesh::MultiMesh</text>
<text text-anchor="middle" x="1518.5" y="-131" font-family="Helvetica,sans-Serif" font-size="10.00">Manager::map_to_child_tuples</text>
</a>
</g>
</g>
<!-- Node1&#45;&gt;Node37 -->
<g id="edge44_Node000001_Node000037" class="edge">
<title>Node1&#45;&gt;Node37</title>
<g id="a_edge44_Node000001_Node000037"><a xlink:title=" ">
<path fill="none" stroke="#63b8ff" d="M1692.21,-191.84C1670.04,-182.37 1642.38,-171.24 1617,-163 1607.13,-159.8 1596.59,-156.79 1586.21,-154.05"/>
<polygon fill="#63b8ff" stroke="#63b8ff" points="1691.09,-195.17 1701.66,-195.92 1693.86,-188.75 1691.09,-195.17"/>
</a>
</g>
</g>
<!-- Node4 -->
<g id="Node000004" class="node">
<title>Node4</title>
<g id="a_Node000004"><a xlink:href="classwmtk_1_1_mesh.html#ae608f09c361bbc3ccda3b4e02cc28940" target="_top" xlink:title="optimized map fromsimplex from this mesh to one of its direct children">
<polygon fill="white" stroke="#666666" points="1369,-253 1250,-253 1250,-223 1369,-223 1369,-253"/>
<text text-anchor="start" x="1258" y="-241" font-family="Helvetica,sans-Serif" font-size="10.00">wmtk::Mesh::map_to</text>
<text text-anchor="middle" x="1309.5" y="-230" font-family="Helvetica,sans-Serif" font-size="10.00">_child</text>
</a>
</g>
</g>
<!-- Node3&#45;&gt;Node4 -->
<g id="edge3_Node000003_Node000004" class="edge">
<title>Node3&#45;&gt;Node4</title>
<g id="a_edge3_Node000003_Node000004"><a xlink:title=" ">
<path fill="none" stroke="#63b8ff" d="M1428.32,-236.29C1408.36,-236.58 1387.68,-236.88 1369.32,-237.15"/>
<polygon fill="#63b8ff" stroke="#63b8ff" points="1428.41,-239.79 1438.36,-236.15 1428.31,-232.79 1428.41,-239.79"/>
</a>
</g>
</g>
<!-- Node5 -->
<g id="Node000005" class="node">
<title>Node5</title>
<g id="a_Node000005"><a xlink:href="classwmtk_1_1invariants_1_1_fusion_edge_invariant.html#abb8894b188e06d51bad0c0df062b37fe" target="_top" xlink:title=" ">
<polygon fill="white" stroke="#666666" points="1166.5,-478 1029.5,-478 1029.5,-448 1166.5,-448 1166.5,-478"/>
<text text-anchor="start" x="1037.5" y="-466" font-family="Helvetica,sans-Serif" font-size="10.00">wmtk::invariants::Fusion</text>
<text text-anchor="middle" x="1098" y="-455" font-family="Helvetica,sans-Serif" font-size="10.00">EdgeInvariant::before</text>
</a>
</g>
</g>
<!-- Node4&#45;&gt;Node5 -->
<g id="edge4_Node000004_Node000005" class="edge">
<title>Node4&#45;&gt;Node5</title>
<g id="a_edge4_Node000004_Node000005"><a xlink:title=" ">
<path fill="none" stroke="#63b8ff" d="M1302.08,-263.04C1289.73,-305.98 1258.47,-393.44 1199,-439 1189.5,-446.28 1178.13,-451.39 1166.51,-454.97"/>
<polygon fill="#63b8ff" stroke="#63b8ff" points="1305.53,-263.7 1304.82,-253.13 1298.78,-261.84 1305.53,-263.7"/>
</a>
</g>
</g>
<!-- Node6 -->
<g id="Node000006" class="node">
<title>Node6</title>
<g id="a_Node000006"><a xlink:href="classwmtk_1_1invariants_1_1uv_edge_invariant.html#a74dc103d7b91a971bdeaa197a1cf9dbd" target="_top" xlink:title=" ">
<polygon fill="white" stroke="#666666" points="1168.5,-430 1027.5,-430 1027.5,-400 1168.5,-400 1168.5,-430"/>
<text text-anchor="start" x="1035.5" y="-418" font-family="Helvetica,sans-Serif" font-size="10.00">wmtk::invariants::uvEdge</text>
<text text-anchor="middle" x="1098" y="-407" font-family="Helvetica,sans-Serif" font-size="10.00">Invariant::before</text>
</a>
</g>
</g>
<!-- Node4&#45;&gt;Node6 -->
<g id="edge5_Node000004_Node000006" class="edge">
<title>Node4&#45;&gt;Node6</title>
<g id="a_edge5_Node000004_Node000006"><a xlink:title=" ">
<path fill="none" stroke="#63b8ff" d="M1297.74,-262.69C1281.48,-296.97 1247.34,-358.46 1199,-391 1189.89,-397.13 1179.39,-401.7 1168.69,-405.11"/>
<polygon fill="#63b8ff" stroke="#63b8ff" points="1301.02,-263.93 1302.03,-253.38 1294.66,-261 1301.02,-263.93"/>
</a>
</g>
</g>
<!-- Node7 -->
<g id="Node000007" class="node">
<title>Node7</title>
<g id="a_Node000007"><a xlink:href="classwmtk_1_1invariants_1_1_no_child_mesh_attaching_invariant.html#a31d593e7cfecc62f5a1711ee37554535" target="_top" xlink:title=" ">
<polygon fill="white" stroke="#666666" points="1169.5,-381.5 1026.5,-381.5 1026.5,-340.5 1169.5,-340.5 1169.5,-381.5"/>
<text text-anchor="start" x="1034.5" y="-369.5" font-family="Helvetica,sans-Serif" font-size="10.00">wmtk::invariants::NoChild</text>
<text text-anchor="start" x="1034.5" y="-358.5" font-family="Helvetica,sans-Serif" font-size="10.00">MeshAttachingInvariant</text>
<text text-anchor="middle" x="1098" y="-347.5" font-family="Helvetica,sans-Serif" font-size="10.00">::before</text>
</a>
</g>
</g>
<!-- Node4&#45;&gt;Node7 -->
<g id="edge6_Node000004_Node000007" class="edge">
<title>Node4&#45;&gt;Node7</title>
<g id="a_edge6_Node000004_Node000007"><a xlink:title=" ">
<path fill="none" stroke="#63b8ff" d="M1285.6,-260.32C1264.54,-279.85 1231.71,-307.84 1199,-326 1189.19,-331.45 1178.38,-336.28 1167.6,-340.49"/>
<polygon fill="#63b8ff" stroke="#63b8ff" points="1288.18,-262.7 1293.07,-253.29 1283.38,-257.6 1288.18,-262.7"/>
</a>
</g>
</g>
<!-- Node8 -->
<g id="Node000008" class="node">
<title>Node8</title>
<g id="a_Node000008"><a xlink:href="classwmtk_1_1components_1_1internal_1_1_multi_mesh_from_tag.html#a00b7df05e0cd44c1a2d4e6ee39dbaacf" target="_top" xlink:title="Create the adjacency (stored as attribute) of the substructure.">
<polygon fill="white" stroke="#666666" points="956,-342.5 802,-342.5 802,-301.5 956,-301.5 956,-342.5"/>
<text text-anchor="start" x="810" y="-330.5" font-family="Helvetica,sans-Serif" font-size="10.00">wmtk::components::internal</text>
<text text-anchor="start" x="810" y="-319.5" font-family="Helvetica,sans-Serif" font-size="10.00">::MultiMeshFromTag::build</text>
<text text-anchor="middle" x="879" y="-308.5" font-family="Helvetica,sans-Serif" font-size="10.00">_adjacency_matrix</text>
</a>
</g>
</g>
<!-- Node4&#45;&gt;Node8 -->
<g id="edge7_Node000004_Node000008" class="edge">
<title>Node4&#45;&gt;Node8</title>
<g id="a_edge7_Node000004_Node000008"><a xlink:title=" ">
<path fill="none" stroke="#63b8ff" d="M1275.46,-258.26C1254.37,-270.17 1226,-284.35 1199,-292 1118.18,-314.89 1021.72,-321.21 956.19,-322.55"/>
<polygon fill="#63b8ff" stroke="#63b8ff" points="1277.4,-261.18 1284.32,-253.15 1273.91,-255.11 1277.4,-261.18"/>
</a>
</g>
</g>
<!-- Node19 -->
<g id="Node000019" class="node">
<title>Node19</title>
<g id="a_Node000019"><a xlink:href="classwmtk_1_1multimesh_1_1utils_1_1_map_validator.html#a346f2a15b9f0281994151d335dff2ff2" target="_top" xlink:title=" ">
<polygon fill="white" stroke="#666666" points="1166,-185.5 1030,-185.5 1030,-144.5 1166,-144.5 1166,-185.5"/>
<text text-anchor="start" x="1038" y="-173.5" font-family="Helvetica,sans-Serif" font-size="10.00">wmtk::multimesh::utils</text>
<text text-anchor="start" x="1038" y="-162.5" font-family="Helvetica,sans-Serif" font-size="10.00">::MapValidator::check</text>
<text text-anchor="middle" x="1098" y="-151.5" font-family="Helvetica,sans-Serif" font-size="10.00">_child_facet_uniqueness</text>
</a>
</g>
</g>
<!-- Node4&#45;&gt;Node19 -->
<g id="edge18_Node000004_Node000019" class="edge">
<title>Node4&#45;&gt;Node19</title>
<g id="a_edge18_Node000004_Node000019"><a xlink:title=" ">
<path fill="none" stroke="#63b8ff" d="M1254.29,-219.69C1247.78,-217.45 1241.24,-215.19 1235,-213 1218.95,-207.37 1215.03,-205.7 1199,-200 1185.74,-195.29 1171.48,-190.26 1157.99,-185.54"/>
<polygon fill="#63b8ff" stroke="#63b8ff" points="1253.16,-223 1263.76,-222.93 1255.43,-216.38 1253.16,-223"/>
</a>
</g>
</g>
<!-- Node26 -->
<g id="Node000026" class="node">
<title>Node26</title>
<g id="a_Node000026"><a xlink:href="classwmtk_1_1operations_1_1_a_m_i_p_s_optimization_smoothing_periodic.html#a86df18fe3713cb41dca1687487dea61b" target="_top" xlink:title="returns an empty vector in case of failure">
<polygon fill="white" stroke="#666666" points="1199,-126 997,-126 997,-96 1199,-96 1199,-126"/>
<text text-anchor="start" x="1005" y="-114" font-family="Helvetica,sans-Serif" font-size="10.00">wmtk::operations::AMIPSOptimization</text>
<text text-anchor="middle" x="1098" y="-103" font-family="Helvetica,sans-Serif" font-size="10.00">SmoothingPeriodic::execute</text>
</a>
</g>
</g>
<!-- Node4&#45;&gt;Node26 -->
<g id="edge26_Node000004_Node000026" class="edge">
<title>Node4&#45;&gt;Node26</title>
<g id="a_edge26_Node000004_Node000026"><a xlink:title=" ">
<path fill="none" stroke="#63b8ff" d="M1241.13,-217.86C1238.98,-216.35 1236.93,-214.74 1235,-213 1206.63,-187.45 1228.52,-159.21 1199,-135 1194.86,-131.6 1190.31,-128.67 1185.52,-126.15"/>
<polygon fill="#63b8ff" stroke="#63b8ff" points="1239.47,-220.94 1249.83,-223.13 1243.09,-214.95 1239.47,-220.94"/>
</a>
</g>
</g>
<!-- Node27 -->
<g id="Node000027" class="node">
<title>Node27</title>
<g id="a_Node000027"><a xlink:href="classwmtk_1_1components_1_1internal_1_1_multi_mesh_from_tag.html#a5c6d50173da15e964b0f1dc6367858e6" target="_top" xlink:title="Get tuples with different global_cid that all represent simplex(t_in, ptype) and are in the same tag&#45;...">
<polygon fill="white" stroke="#666666" points="1175,-283.5 1021,-283.5 1021,-242.5 1175,-242.5 1175,-283.5"/>
<text text-anchor="start" x="1029" y="-271.5" font-family="Helvetica,sans-Serif" font-size="10.00">wmtk::components::internal</text>
<text text-anchor="start" x="1029" y="-260.5" font-family="Helvetica,sans-Serif" font-size="10.00">::MultiMeshFromTag::get</text>
<text text-anchor="middle" x="1098" y="-249.5" font-family="Helvetica,sans-Serif" font-size="10.00">_connected_region</text>
</a>
</g>
</g>
<!-- Node4&#45;&gt;Node27 -->
<g id="edge27_Node000004_Node000027" class="edge">
<title>Node4&#45;&gt;Node27</title>
<g id="a_edge27_Node000004_Node000027"><a xlink:title=" ">
<path fill="none" stroke="#63b8ff" d="M1239.9,-246.19C1219.23,-248.65 1196.42,-251.37 1175.28,-253.9"/>
<polygon fill="#63b8ff" stroke="#63b8ff" points="1240.35,-249.66 1249.86,-245 1239.52,-242.71 1240.35,-249.66"/>
</a>
</g>
</g>
<!-- Node29 -->
<g id="Node000029" class="node">
<title>Node29</title>
<g id="a_Node000029"><a xlink:href="classwmtk_1_1components_1_1internal_1_1_multi_mesh_from_tag.html#a7396baf219485919ab557c6407162e73" target="_top" xlink:title=" ">
<polygon fill="white" stroke="#666666" points="756,-242.5 602,-242.5 602,-201.5 756,-201.5 756,-242.5"/>
<text text-anchor="start" x="610" y="-230.5" font-family="Helvetica,sans-Serif" font-size="10.00">wmtk::components::internal</text>
<text text-anchor="start" x="610" y="-219.5" font-family="Helvetica,sans-Serif" font-size="10.00">::MultiMeshFromTag::is_root</text>
<text text-anchor="middle" x="679" y="-208.5" font-family="Helvetica,sans-Serif" font-size="10.00">_simplex_manifold</text>
</a>
</g>
</g>
<!-- Node4&#45;&gt;Node29 -->
<g id="edge30_Node000004_Node000029" class="edge">
<title>Node4&#45;&gt;Node29</title>
<g id="a_edge30_Node000004_Node000029"><a xlink:title=" ">
<path fill="none" stroke="#63b8ff" d="M1239.78,-234.6C1226.26,-234.01 1212.19,-233.44 1199,-233 1041.6,-227.74 857.25,-224.53 756.09,-223.03"/>
<polygon fill="#63b8ff" stroke="#63b8ff" points="1239.83,-238.11 1249.98,-235.06 1240.15,-231.12 1239.83,-238.11"/>
</a>
</g>
</g>
<!-- Node31 -->
<g id="Node000031" class="node">
<title>Node31</title>
<g id="a_Node000031"><a xlink:href="classwmtk_1_1_mesh.html#a60f1f03ac5eb308ca74b7203c63c593e" target="_top" xlink:title=" ">
<polygon fill="white" stroke="#666666" points="1159,-78 1037,-78 1037,-48 1159,-48 1159,-78"/>
<text text-anchor="start" x="1045" y="-66" font-family="Helvetica,sans-Serif" font-size="10.00">wmtk::Mesh::map_all</text>
<text text-anchor="middle" x="1098" y="-55" font-family="Helvetica,sans-Serif" font-size="10.00">_children</text>
</a>
</g>
</g>
<!-- Node4&#45;&gt;Node31 -->
<g id="edge37_Node000004_Node000031" class="edge">
<title>Node4&#45;&gt;Node31</title>
<g id="a_edge37_Node000004_Node000031"><a xlink:title=" ">
<path fill="none" stroke="#63b8ff" d="M1241.05,-218.44C1238.9,-216.78 1236.87,-214.96 1235,-213 1194.85,-170.81 1241.05,-127.29 1199,-87 1188.17,-76.62 1173.68,-70.47 1159.1,-66.89"/>
<polygon fill="#63b8ff" stroke="#63b8ff" points="1239.6,-221.68 1249.89,-224.2 1243.42,-215.81 1239.6,-221.68"/>
</a>
</g>
</g>
<!-- Node33 -->
<g id="Node000033" class="node">
<title>Node33</title>
<g id="a_Node000033"><a xlink:href="classwmtk_1_1_mesh.html#afe5b1594a91db7db61280326877ffa99" target="_top" xlink:title=" ">
<polygon fill="white" stroke="#666666" points="1163.5,-30 1032.5,-30 1032.5,0 1163.5,0 1163.5,-30"/>
<text text-anchor="start" x="1040.5" y="-18" font-family="Helvetica,sans-Serif" font-size="10.00">wmtk::Mesh::mappable</text>
<text text-anchor="middle" x="1098" y="-7" font-family="Helvetica,sans-Serif" font-size="10.00">_child_meshes</text>
</a>
</g>
</g>
<!-- Node4&#45;&gt;Node33 -->
<g id="edge39_Node000004_Node000033" class="edge">
<title>Node4&#45;&gt;Node33</title>
<g id="a_edge39_Node000004_Node000033"><a xlink:title=" ">
<path fill="none" stroke="#63b8ff" d="M1241.47,-219.1C1239.14,-217.25 1236.97,-215.23 1235,-213 1182.72,-153.81 1253.95,-95.71 1199,-39 1189.5,-29.19 1176.74,-23.1 1163.53,-19.38"/>
<polygon fill="#63b8ff" stroke="#63b8ff" points="1239.64,-222.09 1249.91,-224.71 1243.52,-216.26 1239.64,-222.09"/>
</a>
</g>
</g>
<!-- Node9 -->
<g id="Node000009" class="node">
<title>Node9</title>
<g id="a_Node000009"><a xlink:href="classwmtk_1_1components_1_1internal_1_1_multi_mesh_from_tag.html#a96647e9413f2b7e13dd17f02cf29b12d" target="_top" xlink:title="Create a manifold mesh from the substructure.">
<polygon fill="white" stroke="#666666" points="761,-333.5 597,-333.5 597,-292.5 761,-292.5 761,-333.5"/>
<text text-anchor="start" x="605" y="-321.5" font-family="Helvetica,sans-Serif" font-size="10.00">wmtk::components::internal</text>
<text text-anchor="start" x="605" y="-310.5" font-family="Helvetica,sans-Serif" font-size="10.00">::MultiMeshFromTag::compute</text>
<text text-anchor="middle" x="679" y="-299.5" font-family="Helvetica,sans-Serif" font-size="10.00">_substructure_mesh</text>
</a>
</g>
</g>
<!-- Node8&#45;&gt;Node9 -->
<g id="edge8_Node000008_Node000009" class="edge">
<title>Node8&#45;&gt;Node9</title>
<g id="a_edge8_Node000008_Node000009"><a xlink:title=" ">
<path fill="none" stroke="#63b8ff" d="M791.67,-318.08C781.53,-317.62 771.22,-317.15 761.16,-316.69"/>
<polygon fill="#63b8ff" stroke="#63b8ff" points="791.58,-321.58 801.73,-318.53 791.9,-314.58 791.58,-321.58"/>
</a>
</g>
</g>
<!-- Node10 -->
<g id="Node000010" class="node">
<title>Node10</title>
<g id="a_Node000010"><a xlink:href="namespacewmtk_1_1components.html#ac309092566399cef68679a1bb8107d1e" target="_top" xlink:title="Generate a multi&#45;mesh from a mesh with a tag that represents the substructure, the mesh is changed.">
<polygon fill="white" stroke="#666666" points="548,-476 379,-476 379,-446 548,-446 548,-476"/>
<text text-anchor="start" x="387" y="-464" font-family="Helvetica,sans-Serif" font-size="10.00">wmtk::components::multimesh</text>
<text text-anchor="middle" x="463.5" y="-453" font-family="Helvetica,sans-Serif" font-size="10.00">_from_tag</text>
</a>
</g>
</g>
<!-- Node9&#45;&gt;Node10 -->
<g id="edge9_Node000009_Node000010" class="edge">
<title>Node9&#45;&gt;Node10</title>
<g id="a_edge9_Node000009_Node000010"><a xlink:title=" ">
<path fill="none" stroke="#63b8ff" d="M658.39,-341.93C637.54,-370.42 601.99,-413.04 561,-437 555.19,-440.4 548.91,-443.32 542.43,-445.83"/>
<polygon fill="#63b8ff" stroke="#63b8ff" points="661.39,-343.75 664.37,-333.58 655.7,-339.67 661.39,-343.75"/>
</a>
</g>
</g>
<!-- Node12 -->
<g id="Node000012" class="node">
<title>Node12</title>
<g id="a_Node000012"><a xlink:href="namespacewmtk_1_1components.html#a4166e4880553cfacbf79ac3515a637cd" target="_top" xlink:title=" ">
<polygon fill="white" stroke="#666666" points="541,-428 386,-428 386,-398 541,-398 541,-428"/>
<text text-anchor="start" x="394" y="-416" font-family="Helvetica,sans-Serif" font-size="10.00">wmtk::components::periodic</text>
<text text-anchor="middle" x="463.5" y="-405" font-family="Helvetica,sans-Serif" font-size="10.00">_optimization</text>
</a>
</g>
</g>
<!-- Node9&#45;&gt;Node12 -->
<g id="edge11_Node000009_Node000012" class="edge">
<title>Node9&#45;&gt;Node12</title>
<g id="a_edge11_Node000009_Node000012"><a xlink:title=" ">
<path fill="none" stroke="#63b8ff" d="M643.84,-339.56C621.38,-355.88 590.74,-376.07 561,-389 553.16,-392.41 544.75,-395.39 536.27,-397.99"/>
<polygon fill="#63b8ff" stroke="#63b8ff" points="646.06,-342.27 652.03,-333.51 641.9,-336.63 646.06,-342.27"/>
</a>
</g>
</g>
<!-- Node13 -->
<g id="Node000013" class="node">
<title>Node13</title>
<g id="a_Node000013"><a xlink:href="test__component__multimesh__from__tag_8cpp.html#a2231774bf0d53fb5f6c1b34753afb255" target="_top" xlink:title=" ">
<polygon fill="white" stroke="#666666" points="499,-305.5 428,-305.5 428,-286.5 499,-286.5 499,-305.5"/>
<text text-anchor="middle" x="463.5" y="-293.5" font-family="Helvetica,sans-Serif" font-size="10.00">TEST_CASE</text>
</a>
</g>
</g>
<!-- Node9&#45;&gt;Node13 -->
<g id="edge12_Node000009_Node000013" class="edge">
<title>Node9&#45;&gt;Node13</title>
<g id="a_edge12_Node000009_Node000013"><a xlink:title=" ">
<path fill="none" stroke="#63b8ff" d="M586.97,-305.75C555.9,-303.28 523.01,-300.66 499.15,-298.76"/>
<polygon fill="#63b8ff" stroke="#63b8ff" points="586.73,-309.24 596.98,-306.55 587.29,-302.27 586.73,-309.24"/>
</a>
</g>
</g>
<!-- Node14 -->
<g id="Node000014" class="node">
<title>Node14</title>
<g id="a_Node000014"><a xlink:href="test__component__multimesh__from__tag_8cpp.html#a9a31cb828b93e2ddcf0a5063d4d1c9e6" target="_top" xlink:title=" ">
<polygon fill="white" stroke="#666666" points="499,-268.5 428,-268.5 428,-249.5 499,-249.5 499,-268.5"/>
<text text-anchor="middle" x="463.5" y="-256.5" font-family="Helvetica,sans-Serif" font-size="10.00">TEST_CASE</text>
</a>
</g>
</g>
<!-- Node9&#45;&gt;Node14 -->
<g id="edge13_Node000009_Node000014" class="edge">
<title>Node9&#45;&gt;Node14</title>
<g id="a_edge13_Node000009_Node000014"><a xlink:title=" ">
<path fill="none" stroke="#63b8ff" d="M606.19,-289.49C591.34,-285.03 575.73,-280.63 561,-277 540.65,-271.99 517.57,-267.64 499.09,-264.47"/>
<polygon fill="#63b8ff" stroke="#63b8ff" points="605.24,-292.86 615.83,-292.43 607.28,-286.17 605.24,-292.86"/>
</a>
</g>
</g>
<!-- Node15 -->
<g id="Node000015" class="node">
<title>Node15</title>
<g id="a_Node000015"><a xlink:href="test__component__multimesh__from__tag_8cpp.html#a7a8f66a094907f369fa10876691f42f9" target="_top" xlink:title=" ">
<polygon fill="white" stroke="#666666" points="499,-231.5 428,-231.5 428,-212.5 499,-212.5 499,-231.5"/>
<text text-anchor="middle" x="463.5" y="-219.5" font-family="Helvetica,sans-Serif" font-size="10.00">TEST_CASE</text>
</a>
</g>
</g>
<!-- Node9&#45;&gt;Node15 -->
<g id="edge14_Node000009_Node000015" class="edge">
<title>Node9&#45;&gt;Node15</title>
<g id="a_edge14_Node000009_Node000015"><a xlink:title=" ">
<path fill="none" stroke="#63b8ff" d="M643.03,-286.32C620.69,-270.55 590.48,-251.47 561,-240 541.31,-232.34 518.05,-227.87 499.3,-225.31"/>
<polygon fill="#63b8ff" stroke="#63b8ff" points="641.03,-289.19 651.19,-292.18 645.11,-283.5 641.03,-289.19"/>
</a>
</g>
</g>
<!-- Node16 -->
<g id="Node000016" class="node">
<title>Node16</title>
<g id="a_Node000016"><a xlink:href="test__component__multimesh__from__tag_8cpp.html#af55ce8249624ce4d6a3feaad760949a6" target="_top" xlink:title=" ">
<polygon fill="white" stroke="#666666" points="499,-194.5 428,-194.5 428,-175.5 499,-175.5 499,-194.5"/>
<text text-anchor="middle" x="463.5" y="-182.5" font-family="Helvetica,sans-Serif" font-size="10.00">TEST_CASE</text>
</a>
</g>
</g>
<!-- Node9&#45;&gt;Node16 -->
<g id="edge15_Node000009_Node000016" class="edge">
<title>Node9&#45;&gt;Node16</title>
<g id="a_edge15_Node000009_Node000016"><a xlink:title=" ">
<path fill="none" stroke="#63b8ff" d="M638.73,-286.32C624.86,-276.05 609.59,-263.71 597,-251 578.24,-232.05 583.65,-217.07 561,-203 542.61,-191.58 518.72,-187.06 499.31,-185.41"/>
<polygon fill="#63b8ff" stroke="#63b8ff" points="637,-289.4 647.15,-292.44 641.12,-283.73 637,-289.4"/>
</a>
</g>
</g>
<!-- Node17 -->
<g id="Node000017" class="node">
<title>Node17</title>
<g id="a_Node000017"><a xlink:href="test__component__multimesh__from__tag_8cpp.html#a18cd3d411cfadc472201c20662d62869" target="_top" xlink:title=" ">
<polygon fill="white" stroke="#666666" points="499,-342.5 428,-342.5 428,-323.5 499,-323.5 499,-342.5"/>
<text text-anchor="middle" x="463.5" y="-330.5" font-family="Helvetica,sans-Serif" font-size="10.00">TEST_CASE</text>
</a>
</g>
</g>
<!-- Node9&#45;&gt;Node17 -->
<g id="edge16_Node000009_Node000017" class="edge">
<title>Node9&#45;&gt;Node17</title>
<g id="a_edge16_Node000009_Node000017"><a xlink:title=" ">
<path fill="none" stroke="#63b8ff" d="M586.97,-321.53C555.9,-324.44 523.01,-327.52 499.15,-329.75"/>
<polygon fill="#63b8ff" stroke="#63b8ff" points="587.35,-325.01 596.98,-320.59 586.7,-318.04 587.35,-325.01"/>
</a>
</g>
</g>
<!-- Node18 -->
<g id="Node000018" class="node">
<title>Node18</title>
<g id="a_Node000018"><a xlink:href="test__component__multimesh__from__tag_8cpp.html#a4caad3dd8a6355f2ca66fdb0b0af7999" target="_top" xlink:title=" ">
<polygon fill="white" stroke="#666666" points="499,-379.5 428,-379.5 428,-360.5 499,-360.5 499,-379.5"/>
<text text-anchor="middle" x="463.5" y="-367.5" font-family="Helvetica,sans-Serif" font-size="10.00">TEST_CASE</text>
</a>
</g>
</g>
<!-- Node9&#45;&gt;Node18 -->
<g id="edge17_Node000009_Node000018" class="edge">
<title>Node9&#45;&gt;Node18</title>
<g id="a_edge17_Node000009_Node000018"><a xlink:title=" ">
<path fill="none" stroke="#63b8ff" d="M612.06,-336.74C595.52,-342.2 577.72,-347.68 561,-352 540.71,-357.25 517.64,-361.61 499.14,-364.72"/>
<polygon fill="#63b8ff" stroke="#63b8ff" points="613.27,-340.02 621.64,-333.53 611.04,-333.39 613.27,-340.02"/>
</a>
</g>
</g>
<!-- Node11 -->
<g id="Node000011" class="node">
<title>Node11</title>
<g id="a_Node000011"><a xlink:href="test__component__multimesh__from__tag_8cpp.html#a2b0208caf4b963a36a43604c3e7cf34a" target="_top" xlink:title=" ">
<polygon fill="white" stroke="#666666" points="295.5,-470.5 224.5,-470.5 224.5,-451.5 295.5,-451.5 295.5,-470.5"/>
<text text-anchor="middle" x="260" y="-458.5" font-family="Helvetica,sans-Serif" font-size="10.00">TEST_CASE</text>
</a>
</g>
</g>
<!-- Node10&#45;&gt;Node11 -->
<g id="edge10_Node000010_Node000011" class="edge">
<title>Node10&#45;&gt;Node11</title>
<g id="a_edge10_Node000010_Node000011"><a xlink:title=" ">
<path fill="none" stroke="#63b8ff" d="M368.47,-461C342.41,-461 315.75,-461 295.5,-461"/>
<polygon fill="#63b8ff" stroke="#63b8ff" points="368.8,-464.5 378.8,-461 368.8,-457.5 368.8,-464.5"/>
</a>
</g>
</g>
<!-- Node20 -->
<g id="Node000020" class="node">
<title>Node20</title>
<g id="a_Node000020"><a xlink:href="classwmtk_1_1multimesh_1_1utils_1_1_map_validator.html#a6a4636de62a99248b6155c78cb35ff55" target="_top" xlink:title=" ">
<polygon fill="white" stroke="#666666" points="944,-162.5 814,-162.5 814,-121.5 944,-121.5 944,-162.5"/>
<text text-anchor="start" x="822" y="-150.5" font-family="Helvetica,sans-Serif" font-size="10.00">wmtk::multimesh::utils</text>
<text text-anchor="start" x="822" y="-139.5" font-family="Helvetica,sans-Serif" font-size="10.00">::MapValidator::check</text>
<text text-anchor="middle" x="879" y="-128.5" font-family="Helvetica,sans-Serif" font-size="10.00">_facet_uniqueness</text>
</a>
</g>
</g>
<!-- Node19&#45;&gt;Node20 -->
<g id="edge19_Node000019_Node000020" class="edge">
<title>Node19&#45;&gt;Node20</title>
<g id="a_edge19_Node000019_Node000020"><a xlink:title=" ">
<path fill="none" stroke="#63b8ff" d="M1019.76,-156.81C995.04,-154.19 967.95,-151.32 944.26,-148.81"/>
<polygon fill="#63b8ff" stroke="#63b8ff" points="1019.51,-160.31 1029.83,-157.88 1020.25,-153.35 1019.51,-160.31"/>
</a>
</g>
</g>
<!-- Node21 -->
<g id="Node000021" class="node">
<title>Node21</title>
<g id="a_Node000021"><a xlink:href="classwmtk_1_1multimesh_1_1utils_1_1_map_validator.html#a7c91255f342becd3f24ffa7bbaebeb3d" target="_top" xlink:title=" ">
<polygon fill="white" stroke="#666666" points="748.5,-141 609.5,-141 609.5,-111 748.5,-111 748.5,-141"/>
<text text-anchor="start" x="617.5" y="-129" font-family="Helvetica,sans-Serif" font-size="10.00">wmtk::multimesh::utils</text>
<text text-anchor="middle" x="679" y="-118" font-family="Helvetica,sans-Serif" font-size="10.00">::MapValidator::check_all</text>
</a>
</g>
</g>
<!-- Node20&#45;&gt;Node21 -->
<g id="edge20_Node000020_Node000021" class="edge">
<title>Node20&#45;&gt;Node21</title>
<g id="a_edge20_Node000020_Node000021"><a xlink:title=" ">
<path fill="none" stroke="#63b8ff" d="M803.78,-136C785.68,-134.54 766.4,-132.98 748.57,-131.54"/>
<polygon fill="#63b8ff" stroke="#63b8ff" points="803.74,-139.51 813.99,-136.83 804.3,-132.53 803.74,-139.51"/>
</a>
</g>
</g>
<!-- Node22 -->
<g id="Node000022" class="node">
<title>Node22</title>
<g id="a_Node000022"><a xlink:href="namespacewmtk_1_1multimesh_1_1utils.html#abcc3f7f7a25879455cafc8a8f4304c4c" target="_top" xlink:title=" ">
<polygon fill="white" stroke="#666666" points="528.5,-98 398.5,-98 398.5,-68 528.5,-68 528.5,-98"/>
<text text-anchor="start" x="406.5" y="-86" font-family="Helvetica,sans-Serif" font-size="10.00">wmtk::multimesh::utils</text>
<text text-anchor="middle" x="463.5" y="-75" font-family="Helvetica,sans-Serif" font-size="10.00">::check_maps_valid</text>
</a>
</g>
</g>
<!-- Node21&#45;&gt;Node22 -->
<g id="edge21_Node000021_Node000022" class="edge">
<title>Node21&#45;&gt;Node22</title>
<g id="a_edge21_Node000021_Node000022"><a xlink:title=" ">
<path fill="none" stroke="#63b8ff" d="M599.43,-110.18C576.17,-105.49 550.99,-100.42 528.75,-95.94"/>
<polygon fill="#63b8ff" stroke="#63b8ff" points="598.78,-113.61 609.27,-112.16 600.16,-106.75 598.78,-113.61"/>
</a>
</g>
</g>
<!-- Node23 -->
<g id="Node000023" class="node">
<title>Node23</title>
<g id="a_Node000023"><a xlink:href="namespacewmtk_1_1components.html#a1d95b8c424d645d432babf8ba5765e36" target="_top" xlink:title=" ">
<polygon fill="white" stroke="#666666" points="330,-98 190,-98 190,-68 330,-68 330,-98"/>
<text text-anchor="start" x="198" y="-86" font-family="Helvetica,sans-Serif" font-size="10.00">wmtk::components::edge</text>
<text text-anchor="middle" x="260" y="-75" font-family="Helvetica,sans-Serif" font-size="10.00">_insertion</text>
</a>
</g>
</g>
<!-- Node22&#45;&gt;Node23 -->
<g id="edge22_Node000022_Node000023" class="edge">
<title>Node22&#45;&gt;Node23</title>
<g id="a_edge22_Node000022_Node000023"><a xlink:title=" ">
<path fill="none" stroke="#63b8ff" d="M388.35,-83C369.3,-83 348.88,-83 330.1,-83"/>
<polygon fill="#63b8ff" stroke="#63b8ff" points="388.47,-86.5 398.47,-83 388.47,-79.5 388.47,-86.5"/>
</a>
</g>
</g>
<!-- Node23&#45;&gt;Node23 -->
<g id="edge23_Node000023_Node000023" class="edge">
<title>Node23&#45;&gt;Node23</title>
<g id="a_edge23_Node000023_Node000023"><a xlink:title=" ">
<path fill="none" stroke="#63b8ff" d="M291.86,-108.6C287.5,-112.97 276.88,-116 260,-116 231.56,-116 220.9,-107.41 228.01,-98.28"/>
<polygon fill="#63b8ff" stroke="#63b8ff" points="295.36,-108.32 291.99,-98.28 288.36,-108.23 295.36,-108.32"/>
</a>
</g>
</g>
<!-- Node24 -->
<g id="Node000024" class="node">
<title>Node24</title>
<g id="a_Node000024"><a xlink:href="namespacewmtk_1_1components_1_1internal.html#aff1250493ee8c47518118b92223c8576" target="_top" xlink:title=" ">
<polygon fill="white" stroke="#666666" points="154,-122 0,-122 0,-92 154,-92 154,-122"/>
<text text-anchor="start" x="8" y="-110" font-family="Helvetica,sans-Serif" font-size="10.00">wmtk::components::internal</text>
<text text-anchor="middle" x="77" y="-99" font-family="Helvetica,sans-Serif" font-size="10.00">::edge_insertion</text>
</a>
</g>
</g>
<!-- Node23&#45;&gt;Node24 -->
<g id="edge24_Node000023_Node000024" class="edge">
<title>Node23&#45;&gt;Node24</title>
<g id="a_edge24_Node000023_Node000024"><a xlink:title=" ">
<path fill="none" stroke="#63b8ff" d="M179.84,-93.5C171.3,-94.63 162.61,-95.78 154.1,-96.91"/>
<polygon fill="#63b8ff" stroke="#63b8ff" points="180.34,-96.96 189.8,-92.18 179.42,-90.02 180.34,-96.96"/>
</a>
</g>
</g>
<!-- Node25 -->
<g id="Node000025" class="node">
<title>Node25</title>
<g id="a_Node000025"><a xlink:href="namespacewmtk_1_1components_1_1internal.html#ad827cdbb96806fb2e4c19c644277f3c3" target="_top" xlink:title="include the intersection on edgepoints">
<polygon fill="white" stroke="#666666" points="154,-74 0,-74 0,-44 154,-44 154,-74"/>
<text text-anchor="start" x="8" y="-62" font-family="Helvetica,sans-Serif" font-size="10.00">wmtk::components::internal</text>
<text text-anchor="middle" x="77" y="-51" font-family="Helvetica,sans-Serif" font-size="10.00">::segment_segment_inter</text>
</a>
</g>
</g>
<!-- Node23&#45;&gt;Node25 -->
<g id="edge25_Node000023_Node000025" class="edge">
<title>Node23&#45;&gt;Node25</title>
<g id="a_edge25_Node000023_Node000025"><a xlink:title=" ">
<path fill="none" stroke="#63b8ff" d="M179.84,-72.5C171.3,-71.37 162.61,-70.22 154.1,-69.09"/>
<polygon fill="#63b8ff" stroke="#63b8ff" points="179.42,-75.98 189.8,-73.82 180.34,-69.04 179.42,-75.98"/>
</a>
</g>
</g>
<!-- Node28 -->
<g id="Node000028" class="node">
<title>Node28</title>
<g id="a_Node000028"><a xlink:href="classwmtk_1_1components_1_1internal_1_1_multi_mesh_from_tag.html#afb744eb2b5ec264a9a682ccfd3f8dfcb" target="_top" xlink:title="Compute the ids of the manifold substructure.">
<polygon fill="white" stroke="#666666" points="961,-283.5 797,-283.5 797,-242.5 961,-242.5 961,-283.5"/>
<text text-anchor="start" x="805" y="-271.5" font-family="Helvetica,sans-Serif" font-size="10.00">wmtk::components::internal</text>
<text text-anchor="start" x="805" y="-260.5" font-family="Helvetica,sans-Serif" font-size="10.00">::MultiMeshFromTag::compute</text>
<text text-anchor="middle" x="879" y="-249.5" font-family="Helvetica,sans-Serif" font-size="10.00">_substructure_ids</text>
</a>
</g>
</g>
<!-- Node27&#45;&gt;Node28 -->
<g id="edge28_Node000027_Node000028" class="edge">
<title>Node27&#45;&gt;Node28</title>
<g id="a_edge28_Node000027_Node000028"><a xlink:title=" ">
<path fill="none" stroke="#63b8ff" d="M1010.73,-263C994.39,-263 977.35,-263 961.18,-263"/>
<polygon fill="#63b8ff" stroke="#63b8ff" points="1010.8,-266.5 1020.8,-263 1010.8,-259.5 1010.8,-266.5"/>
</a>
</g>
</g>
<!-- Node28&#45;&gt;Node9 -->
<g id="edge29_Node000028_Node000009" class="edge">
<title>Node28&#45;&gt;Node9</title>
<g id="a_edge29_Node000028_Node000009"><a xlink:title=" ">
<path fill="none" stroke="#63b8ff" d="M787.19,-285.93C778.56,-288.11 769.84,-290.31 761.3,-292.47"/>
<polygon fill="#63b8ff" stroke="#63b8ff" points="788.06,-289.32 796.89,-283.48 786.34,-282.54 788.06,-289.32"/>
</a>
</g>
</g>
<!-- Node29&#45;&gt;Node13 -->
<g id="edge32_Node000029_Node000013" class="edge">
<title>Node29&#45;&gt;Node13</title>
<g id="a_edge32_Node000029_Node000013"><a xlink:title=" ">
<path fill="none" stroke="#63b8ff" d="M631.47,-247.09C610.43,-257.58 584.97,-269.14 561,-277 541.04,-283.55 517.99,-288.19 499.42,-291.24"/>
<polygon fill="#63b8ff" stroke="#63b8ff" points="633.16,-250.16 640.5,-242.52 630,-243.91 633.16,-250.16"/>
</a>
</g>
</g>
<!-- Node29&#45;&gt;Node14 -->
<g id="edge33_Node000029_Node000014" class="edge">
<title>Node29&#45;&gt;Node14</title>
<g id="a_edge33_Node000029_Node000014"><a xlink:title=" ">
<path fill="none" stroke="#63b8ff" d="M591.84,-236.93C559.36,-242.56 524.24,-248.65 499.12,-253"/>
<polygon fill="#63b8ff" stroke="#63b8ff" points="592.57,-240.36 601.83,-235.2 591.37,-233.46 592.57,-240.36"/>
</a>
</g>
</g>
<!-- Node29&#45;&gt;Node15 -->
<g id="edge34_Node000029_Node000015" class="edge">
<title>Node29&#45;&gt;Node15</title>
<g id="a_edge34_Node000029_Node000015"><a xlink:title=" ">
<path fill="none" stroke="#63b8ff" d="M591.42,-222C559.06,-222 524.13,-222 499.12,-222"/>
<polygon fill="#63b8ff" stroke="#63b8ff" points="591.83,-225.5 601.83,-222 591.83,-218.5 591.83,-225.5"/>
</a>
</g>
</g>
<!-- Node29&#45;&gt;Node16 -->
<g id="edge35_Node000029_Node000016" class="edge">
<title>Node29&#45;&gt;Node16</title>
<g id="a_edge35_Node000029_Node000016"><a xlink:title=" ">
<path fill="none" stroke="#63b8ff" d="M591.84,-207.07C559.36,-201.44 524.24,-195.35 499.12,-191"/>
<polygon fill="#63b8ff" stroke="#63b8ff" points="591.37,-210.54 601.83,-208.8 592.57,-203.64 591.37,-210.54"/>
</a>
</g>
</g>
<!-- Node29&#45;&gt;Node17 -->
<g id="edge36_Node000029_Node000017" class="edge">
<title>Node29&#45;&gt;Node17</title>
<g id="a_edge36_Node000029_Node000017"><a xlink:title=" ">
<path fill="none" stroke="#63b8ff" d="M641.13,-248.98C627.15,-259.41 611.19,-271.57 597,-283 580.56,-296.25 579.99,-304.77 561,-314 541.81,-323.33 518.35,-328.08 499.37,-330.5"/>
<polygon fill="#63b8ff" stroke="#63b8ff" points="643.6,-251.5 649.54,-242.73 639.42,-245.88 643.6,-251.5"/>
</a>
</g>
</g>
<!-- Node30 -->
<g id="Node000030" class="node">
<title>Node30</title>
<g id="a_Node000030"><a xlink:href="classwmtk_1_1components_1_1internal_1_1_multi_mesh_from_tag.html#ae581997dd90bdc86e7d007f46ec28e14" target="_top" xlink:title=" ">
<polygon fill="white" stroke="#666666" points="561,-157.5 366,-157.5 366,-116.5 561,-116.5 561,-157.5"/>
<text text-anchor="start" x="374" y="-145.5" font-family="Helvetica,sans-Serif" font-size="10.00">wmtk::components::internal</text>
<text text-anchor="start" x="374" y="-134.5" font-family="Helvetica,sans-Serif" font-size="10.00">::MultiMeshFromTag::is_substructure</text>
<text text-anchor="middle" x="463.5" y="-123.5" font-family="Helvetica,sans-Serif" font-size="10.00">_simplex_manifold</text>
</a>
</g>
</g>
<!-- Node29&#45;&gt;Node30 -->
<g id="edge31_Node000029_Node000030" class="edge">
<title>Node29&#45;&gt;Node30</title>
<g id="a_edge31_Node000029_Node000030"><a xlink:title=" ">
<path fill="none" stroke="#63b8ff" d="M629.89,-196.91C609.04,-186.58 584.14,-174.95 561,-166 553.41,-163.06 545.4,-160.24 537.36,-157.58"/>
<polygon fill="#63b8ff" stroke="#63b8ff" points="628.36,-200.05 638.87,-201.4 631.49,-193.79 628.36,-200.05"/>
</a>
</g>
</g>
<!-- Node32 -->
<g id="Node000032" class="node">
<title>Node32</title>
<g id="a_Node000032"><a xlink:href="classwmtk_1_1_mesh.html#abef07f1a5ecafc68883891c07d04e610" target="_top" xlink:title=" ">
<polygon fill="white" stroke="#666666" points="940,-72.5 818,-72.5 818,-53.5 940,-53.5 940,-72.5"/>
<text text-anchor="middle" x="879" y="-60.5" font-family="Helvetica,sans-Serif" font-size="10.00">wmtk::Mesh::map_all</text>
</a>
</g>
</g>
<!-- Node31&#45;&gt;Node32 -->
<g id="edge38_Node000031_Node000032" class="edge">
<title>Node31&#45;&gt;Node32</title>
<g id="a_edge38_Node000031_Node000032"><a xlink:title=" ">
<path fill="none" stroke="#63b8ff" d="M1026.76,-63C998.86,-63 967.1,-63 940.28,-63"/>
<polygon fill="#63b8ff" stroke="#63b8ff" points="1026.84,-66.5 1036.84,-63 1026.84,-59.5 1026.84,-66.5"/>
</a>
</g>
</g>
<!-- Node34 -->
<g id="Node000034" class="node">
<title>Node34</title>
<g id="a_Node000034"><a xlink:href="classwmtk_1_1_mesh.html#a518b2e0ed7a63885d5b1dc43523de3a4" target="_top" xlink:title=" ">
<polygon fill="white" stroke="#666666" points="944.5,-30 813.5,-30 813.5,0 944.5,0 944.5,-30"/>
<text text-anchor="start" x="821.5" y="-18" font-family="Helvetica,sans-Serif" font-size="10.00">wmtk::Mesh::mappable</text>
<text text-anchor="middle" x="879" y="-7" font-family="Helvetica,sans-Serif" font-size="10.00">_meshes</text>
</a>
</g>
</g>
<!-- Node33&#45;&gt;Node34 -->
<g id="edge40_Node000033_Node000034" class="edge">
<title>Node33&#45;&gt;Node34</title>
<g id="a_edge40_Node000033_Node000034"><a xlink:title=" ">
<path fill="none" stroke="#63b8ff" d="M1022.22,-15C996.98,-15 969.03,-15 944.65,-15"/>
<polygon fill="#63b8ff" stroke="#63b8ff" points="1022.48,-18.5 1032.48,-15 1022.48,-11.5 1022.48,-18.5"/>
</a>
</g>
</g>
<!-- Node36 -->
<g id="Node000036" class="node">
<title>Node36</title>
<g id="a_Node000036"><a xlink:href="classwmtk_1_1invariants_1_1_separate_substructures_invariant.html#a61369d82ed2241444a204b1ccca89ba1" target="_top" xlink:title=" ">
<polygon fill="white" stroke="#666666" points="1384,-204.5 1235,-204.5 1235,-163.5 1384,-163.5 1384,-204.5"/>
<text text-anchor="start" x="1243" y="-192.5" font-family="Helvetica,sans-Serif" font-size="10.00">wmtk::invariants::Separate</text>
<text text-anchor="start" x="1243" y="-181.5" font-family="Helvetica,sans-Serif" font-size="10.00">SubstructuresInvariant</text>
<text text-anchor="middle" x="1309.5" y="-170.5" font-family="Helvetica,sans-Serif" font-size="10.00">::before</text>
</a>
</g>
</g>
<!-- Node35&#45;&gt;Node36 -->
<g id="edge42_Node000035_Node000036" class="edge">
<title>Node35&#45;&gt;Node36</title>
<g id="a_edge42_Node000035_Node000036"><a xlink:title=" ">
<path fill="none" stroke="#63b8ff" d="M1448.47,-186C1427.82,-185.7 1405.11,-185.37 1384.18,-185.07"/>
<polygon fill="#63b8ff" stroke="#63b8ff" points="1448.69,-189.5 1458.74,-186.15 1448.79,-182.5 1448.69,-189.5"/>
</a>
</g>
</g>
</g>
</svg>

<g id="navigator" transform="translate(0 0)" fill="#404254">
  <rect fill="#f2f5e9" fill-opacity="0.5" stroke="#606060" stroke-width=".5" x="0" y="0" width="60" height="60"/>
  <use id="zoomplus" xlink:href="#zoomPlus" x="17" y="9" onmousedown="handleZoom(evt,'in')"/>
  <use id="zoomminus" xlink:href="#zoomMin" x="42" y="9" onmousedown="handleZoom(evt,'out')"/>
  <use id="reset" xlink:href="#resetDef" x="30" y="36" onmousedown="handleReset()"/>
   <use id="arrowup" xlink:href="#arrowUp" x="0" y="0" onmousedown="handlePan(0,-1)"/>
  <use id="arrowright" xlink:href="#arrowRight" x="0" y="0" onmousedown="handlePan(1,0)"/>
  <use id="arrowdown" xlink:href="#arrowDown" x="0" y="0" onmousedown="handlePan(0,1)"/>
  <use id="arrowleft" xlink:href="#arrowLeft" x="0" y="0" onmousedown="handlePan(-1,0)"/>
</g>
<svg viewBox="0 0 15 15" width="100%" height="30px" preserveAspectRatio="xMaxYMin meet">
 <g id="arrow_out" transform="scale(0.3 0.3)">
  <a xlink:href="classwmtk_1_1multimesh_1_1_multi_mesh_manager_ae0a6966669a330ff022fb795818c90f3_icgraph_org.svg" target="_base">
   <rect id="button" ry="5" rx="5" y="6" x="6" height="38" width="38"
        fill="#f2f5e9" fill-opacity="0.5" stroke="#606060" stroke-width="1.0"/>
   <path id="arrow"
     d="M 11.500037,31.436501 C 11.940474,20.09759 22.043105,11.32322 32.158766,21.979434 L 37.068811,17.246167 C 37.068811,17.246167 37.088388,32 37.088388,32 L 22.160133,31.978069 C 22.160133,31.978069 26.997745,27.140456 26.997745,27.140456 C 18.528582,18.264221 13.291696,25.230495 11.500037,31.436501 z"
     style="fill:#404040;"/>
  </a>
 </g>
</svg>

<style type='text/css'>
<![CDATA[
[data-mouse-over-selected='false'] { opacity: 0.7; }
[data-mouse-over-selected='true']  { opacity: 1.0; }
]]>
</style>
<script type="application/ecmascript"><![CDATA[
document.addEventListener('DOMContentLoaded', (event) => {
  highlightEdges();
  highlightAdjacentNodes();
});
]]></script>
</svg>
