<?xml version="1.0" encoding="UTF-8" standalone="no"?>
<!DOCTYPE svg PUBLIC "-//W3C//DTD SVG 1.1//EN"
 "http://www.w3.org/Graphics/SVG/1.1/DTD/svg11.dtd">
<!-- Generated by graphviz version 2.43.0 (0)
 -->
<!-- Title: wmtk::EdgeMesh::EdgeMeshOperationExecutor::collapse_edge_single_mesh Pages: 1 -->
<svg width="1564pt" height="589pt"
 viewBox="0.00 0.00 1564.00 589.44" xmlns="http://www.w3.org/2000/svg" xmlns:xlink="http://www.w3.org/1999/xlink">
<g id="graph0" class="graph" transform="scale(1 1) rotate(0) translate(4 585.44)">
<title>wmtk::EdgeMesh::EdgeMeshOperationExecutor::collapse_edge_single_mesh</title>
<!-- Node1 -->
<g id="Node000001" class="node">
<title>Node1</title>
<g id="a_Node000001"><a xlink:title=" ">
<polygon fill="#999999" stroke="#666666" points="157,-133.44 0,-133.44 0,-92.44 157,-92.44 157,-133.44"/>
<text text-anchor="start" x="8" y="-121.44" font-family="Helvetica,sans-Serif" font-size="10.00">wmtk::EdgeMesh::EdgeMesh</text>
<text text-anchor="start" x="8" y="-110.44" font-family="Helvetica,sans-Serif" font-size="10.00">OperationExecutor::collapse</text>
<text text-anchor="middle" x="78.5" y="-99.44" font-family="Helvetica,sans-Serif" font-size="10.00">_edge_single_mesh</text>
</a>
</g>
</g>
<!-- Node2 -->
<g id="Node000002" class="node">
<title>Node2</title>
<g id="a_Node000002"><a xlink:href="classwmtk_1_1_edge_mesh.html#a90181e4a8ae3981f82ac6620fe978fc5" target="_top" xlink:title=" ">
<polygon fill="white" stroke="#666666" points="494,-50.94 378,-50.94 378,-20.94 494,-20.94 494,-50.94"/>
<text text-anchor="start" x="386" y="-38.94" font-family="Helvetica,sans-Serif" font-size="10.00">wmtk::EdgeMesh::id</text>
<text text-anchor="middle" x="436" y="-27.94" font-family="Helvetica,sans-Serif" font-size="10.00">_vertex</text>
</a>
</g>
</g>
<!-- Node1&#45;&gt;Node2 -->
<g id="edge1_Node000001_Node000002" class="edge">
<title>Node1&#45;&gt;Node2</title>
<g id="a_edge1_Node000001_Node000002"><a xlink:title=" ">
<path fill="none" stroke="#63b8ff" d="M157.25,-103.78C207.31,-97.02 273.52,-86.46 331,-71.94 349.6,-67.25 369.61,-60.7 387.06,-54.47"/>
<polygon fill="#63b8ff" stroke="#63b8ff" points="388.26,-57.76 396.46,-51.06 385.87,-51.18 388.26,-57.76"/>
</a>
</g>
</g>
<!-- Node7 -->
<g id="Node000007" class="node">
<title>Node7</title>
<g id="a_Node000007"><a xlink:href="classwmtk_1_1_edge_mesh.html#a534952cf2729f1509a380e3e9afb65b7" target="_top" xlink:title=" ">
<polygon fill="white" stroke="#666666" points="668,-287.94 553,-287.94 553,-257.94 668,-257.94 668,-287.94"/>
<text text-anchor="start" x="561" y="-275.94" font-family="Helvetica,sans-Serif" font-size="10.00">wmtk::EdgeMesh::is</text>
<text text-anchor="middle" x="610.5" y="-264.94" font-family="Helvetica,sans-Serif" font-size="10.00">_boundary_vertex</text>
</a>
</g>
</g>
<!-- Node1&#45;&gt;Node7 -->
<g id="edge6_Node000001_Node000007" class="edge">
<title>Node1&#45;&gt;Node7</title>
<g id="a_edge6_Node000001_Node000007"><a xlink:title=" ">
<path fill="none" stroke="#63b8ff" d="M126.52,-133.45C146.77,-141.91 170.84,-151.45 193,-158.94 314.81,-200.14 460.37,-237.31 543.17,-257.36"/>
<polygon fill="#63b8ff" stroke="#63b8ff" points="542.41,-260.77 552.95,-259.71 544.05,-253.97 542.41,-260.77"/>
</a>
</g>
</g>
<!-- Node27 -->
<g id="Node000027" class="node">
<title>Node27</title>
<g id="a_Node000027"><a xlink:href="classwmtk_1_1_mesh.html#a531f0c59e0f2c07910ba3a31dd097764" target="_top" xlink:title=" ">
<polygon fill="white" stroke="#666666" points="320,-63.44 204,-63.44 204,-44.44 320,-44.44 320,-63.44"/>
<text text-anchor="middle" x="262" y="-51.44" font-family="Helvetica,sans-Serif" font-size="10.00">wmtk::Mesh::is_free</text>
</a>
</g>
</g>
<!-- Node1&#45;&gt;Node27 -->
<g id="edge37_Node000001_Node000027" class="edge">
<title>Node1&#45;&gt;Node27</title>
<g id="a_edge37_Node000001_Node000027"><a xlink:title=" ">
<path fill="none" stroke="#63b8ff" d="M142.73,-92.39C168.93,-83.88 198.51,-74.26 221.53,-66.77"/>
<polygon fill="#63b8ff" stroke="#63b8ff" points="222.86,-70.02 231.29,-63.6 220.7,-63.37 222.86,-70.02"/>
</a>
</g>
</g>
<!-- Node28 -->
<g id="Node000028" class="node">
<title>Node28</title>
<g id="a_Node000028"><a xlink:href="classwmtk_1_1_edge_mesh.html#a20b926a28b5f5e906085c2ac84e706f5" target="_top" xlink:title=" ">
<polygon fill="white" stroke="#666666" points="331,-149.94 193,-149.94 193,-119.94 331,-119.94 331,-149.94"/>
<text text-anchor="start" x="201" y="-137.94" font-family="Helvetica,sans-Serif" font-size="10.00">wmtk::EdgeMesh::switch</text>
<text text-anchor="middle" x="262" y="-126.94" font-family="Helvetica,sans-Serif" font-size="10.00">_vertex</text>
</a>
</g>
</g>
<!-- Node1&#45;&gt;Node28 -->
<g id="edge38_Node000001_Node000028" class="edge">
<title>Node1&#45;&gt;Node28</title>
<g id="a_edge38_Node000001_Node000028"><a xlink:title=" ">
<path fill="none" stroke="#63b8ff" d="M157.26,-122.37C165.68,-123.39 174.24,-124.43 182.66,-125.45"/>
<polygon fill="#63b8ff" stroke="#63b8ff" points="182.49,-128.95 192.84,-126.68 183.33,-122.01 182.49,-128.95"/>
</a>
</g>
</g>
<!-- Node3 -->
<g id="Node000003" class="node">
<title>Node3</title>
<g id="a_Node000003"><a xlink:href="classwmtk_1_1_edge_mesh.html#a34530ca80c07ae67ffe601c2b8f22e3e" target="_top" xlink:title=" ">
<polygon fill="white" stroke="#666666" points="832,-128.44 716,-128.44 716,-109.44 832,-109.44 832,-128.44"/>
<text text-anchor="middle" x="774" y="-116.44" font-family="Helvetica,sans-Serif" font-size="10.00">wmtk::EdgeMesh::id</text>
</a>
</g>
</g>
<!-- Node2&#45;&gt;Node3 -->
<g id="edge2_Node000002_Node000003" class="edge">
<title>Node2&#45;&gt;Node3</title>
<g id="a_edge2_Node000002_Node000003"><a xlink:title=" ">
<path fill="none" stroke="#63b8ff" d="M494.07,-34.21C544.35,-34.4 618.88,-38.88 680,-59.94 707.96,-69.58 736.09,-89.11 753.97,-103.07"/>
<polygon fill="#63b8ff" stroke="#63b8ff" points="751.89,-105.88 761.88,-109.4 756.26,-100.42 751.89,-105.88"/>
</a>
</g>
</g>
<!-- Node4 -->
<g id="Node000004" class="node">
<title>Node4</title>
<g id="a_Node000004"><a xlink:href="classwmtk_1_1attribute_1_1_accessor.html#abecebb154568864219abda80a1beb803" target="_top" xlink:title="Constant access function for a vector attribute.">
<polygon fill="white" stroke="#666666" points="1181.5,-133.94 1039.5,-133.94 1039.5,-103.94 1181.5,-103.94 1181.5,-133.94"/>
<text text-anchor="start" x="1047.5" y="-121.94" font-family="Helvetica,sans-Serif" font-size="10.00">wmtk::attribute::Accessor</text>
<text text-anchor="middle" x="1110.5" y="-110.94" font-family="Helvetica,sans-Serif" font-size="10.00">::const_vector_attribute</text>
</a>
</g>
</g>
<!-- Node3&#45;&gt;Node4 -->
<g id="edge3_Node000003_Node000004" class="edge">
<title>Node3&#45;&gt;Node4</title>
<g id="a_edge3_Node000003_Node000004"><a xlink:title=" ">
<path fill="none" stroke="#63b8ff" d="M832.12,-118.94C886.27,-118.94 968.15,-118.94 1028.93,-118.94"/>
<polygon fill="#63b8ff" stroke="#63b8ff" points="1029.26,-122.45 1039.26,-118.94 1029.26,-115.45 1029.26,-122.45"/>
</a>
</g>
</g>
<!-- Node5 -->
<g id="Node000005" class="node">
<title>Node5</title>
<g id="a_Node000005"><a xlink:href="classwmtk_1_1_tuple.html#aef64a43ff5f5617dbc99d865356bbc25" target="_top" xlink:title=" ">
<polygon fill="white" stroke="#666666" points="1366.5,-111.44 1235.5,-111.44 1235.5,-92.44 1366.5,-92.44 1366.5,-111.44"/>
<text text-anchor="middle" x="1301" y="-99.44" font-family="Helvetica,sans-Serif" font-size="10.00">wmtk::Tuple::global_cid</text>
</a>
</g>
</g>
<!-- Node3&#45;&gt;Node5 -->
<g id="edge4_Node000003_Node000005" class="edge">
<title>Node3&#45;&gt;Node5</title>
<g id="a_edge4_Node000003_Node000005"><a xlink:title=" ">
<path fill="none" stroke="#63b8ff" d="M832.14,-111.99C883.55,-106.11 961.2,-98.14 1029,-94.94 1101.36,-91.53 1119.59,-92.6 1192,-94.94 1202.71,-95.29 1214.01,-95.83 1225.11,-96.46"/>
<polygon fill="#63b8ff" stroke="#63b8ff" points="1225.02,-99.96 1235.21,-97.06 1225.44,-92.97 1225.02,-99.96"/>
</a>
</g>
</g>
<!-- Node6 -->
<g id="Node000006" class="node">
<title>Node6</title>
<g id="a_Node000006"><a xlink:href="classwmtk_1_1_tuple.html#a27f6ee155923e848b461bebea1890abc" target="_top" xlink:title=" ">
<polygon fill="white" stroke="#666666" points="993,-206.44 868,-206.44 868,-187.44 993,-187.44 993,-206.44"/>
<text text-anchor="middle" x="930.5" y="-194.44" font-family="Helvetica,sans-Serif" font-size="10.00">wmtk::Tuple::local_vid</text>
</a>
</g>
</g>
<!-- Node3&#45;&gt;Node6 -->
<g id="edge5_Node000003_Node000006" class="edge">
<title>Node3&#45;&gt;Node6</title>
<g id="a_edge5_Node000003_Node000006"><a xlink:title=" ">
<path fill="none" stroke="#63b8ff" d="M796.8,-128.51C807.48,-133.29 820.49,-139.26 832,-144.94 856.54,-157.07 884,-171.83 903.52,-182.52"/>
<polygon fill="#63b8ff" stroke="#63b8ff" points="901.96,-185.66 912.41,-187.41 905.33,-179.53 901.96,-185.66"/>
</a>
</g>
</g>
<!-- Node7&#45;&gt;Node4 -->
<g id="edge7_Node000007_Node000004" class="edge">
<title>Node7&#45;&gt;Node4</title>
<g id="a_edge7_Node000007_Node000004"><a xlink:title=" ">
<path fill="none" stroke="#63b8ff" d="M668.01,-270.77C761.39,-266.13 942.62,-252.45 993,-214.94 1020.11,-194.76 1003.4,-170.02 1029,-147.94 1032.98,-144.52 1037.39,-141.48 1042.04,-138.8"/>
<polygon fill="#63b8ff" stroke="#63b8ff" points="1043.95,-141.75 1051.23,-134.05 1040.74,-135.53 1043.95,-141.75"/>
</a>
</g>
</g>
<!-- Node7&#45;&gt;Node6 -->
<g id="edge36_Node000007_Node000006" class="edge">
<title>Node7&#45;&gt;Node6</title>
<g id="a_edge36_Node000007_Node000006"><a xlink:title=" ">
<path fill="none" stroke="#63b8ff" d="M668.18,-259.74C712.74,-249.32 776.37,-234.35 832,-220.94 847.99,-217.09 865.43,-212.82 881.09,-208.96"/>
<polygon fill="#63b8ff" stroke="#63b8ff" points="882.22,-212.29 891.09,-206.49 880.54,-205.49 882.22,-212.29"/>
</a>
</g>
</g>
<!-- Node8 -->
<g id="Node000008" class="node">
<title>Node8</title>
<g id="a_Node000008"><a xlink:href="classwmtk_1_1_edge_mesh.html#acd802c89cf0cba9c312a8e7ecfa11c80" target="_top" xlink:title="check validity of tuple including its hash">
<polygon fill="white" stroke="#666666" points="831.5,-330.94 716.5,-330.94 716.5,-300.94 831.5,-300.94 831.5,-330.94"/>
<text text-anchor="start" x="724.5" y="-318.94" font-family="Helvetica,sans-Serif" font-size="10.00">wmtk::EdgeMesh::is</text>
<text text-anchor="middle" x="774" y="-307.94" font-family="Helvetica,sans-Serif" font-size="10.00">_valid</text>
</a>
</g>
</g>
<!-- Node7&#45;&gt;Node8 -->
<g id="edge8_Node000007_Node000008" class="edge">
<title>Node7&#45;&gt;Node8</title>
<g id="a_edge8_Node000007_Node000008"><a xlink:title=" ">
<path fill="none" stroke="#63b8ff" d="M667.98,-287.98C680.52,-291.32 693.93,-294.89 706.81,-298.32"/>
<polygon fill="#63b8ff" stroke="#63b8ff" points="705.98,-301.72 716.55,-300.91 707.78,-294.96 705.98,-301.72"/>
</a>
</g>
</g>
<!-- Node8&#45;&gt;Node5 -->
<g id="edge9_Node000008_Node000005" class="edge">
<title>Node8&#45;&gt;Node5</title>
<g id="a_edge9_Node000008_Node000005"><a xlink:title=" ">
<path fill="none" stroke="#63b8ff" d="M830.83,-300.9C891.09,-284.29 980.22,-258.5 993,-247.94 1019.07,-226.43 1002.16,-201.49 1029,-180.94 1088.07,-135.73 1120.85,-164.64 1192,-142.94 1218,-135.02 1246.74,-123.99 1268.04,-115.37"/>
<polygon fill="#63b8ff" stroke="#63b8ff" points="1269.62,-118.5 1277.55,-111.48 1266.97,-112.03 1269.62,-118.5"/>
</a>
</g>
</g>
<!-- Node8&#45;&gt;Node6 -->
<g id="edge34_Node000008_Node000006" class="edge">
<title>Node8&#45;&gt;Node6</title>
<g id="a_edge34_Node000008_Node000006"><a xlink:title=" ">
<path fill="none" stroke="#63b8ff" d="M794.57,-300.87C823.83,-278.33 878.76,-236.03 908.72,-212.95"/>
<polygon fill="#63b8ff" stroke="#63b8ff" points="911.02,-215.59 916.81,-206.72 906.75,-210.05 911.02,-215.59"/>
</a>
</g>
</g>
<!-- Node9 -->
<g id="Node000009" class="node">
<title>Node9</title>
<g id="a_Node000009"><a xlink:href="classwmtk_1_1_edge_mesh.html#a3bf6f960d630d1e3a79a09c71a43100f" target="_top" xlink:title=" ">
<polygon fill="white" stroke="#666666" points="988,-330.94 873,-330.94 873,-300.94 988,-300.94 988,-330.94"/>
<text text-anchor="start" x="881" y="-318.94" font-family="Helvetica,sans-Serif" font-size="10.00">wmtk::EdgeMesh::is</text>
<text text-anchor="middle" x="930.5" y="-307.94" font-family="Helvetica,sans-Serif" font-size="10.00">_connectivity_valid</text>
</a>
</g>
</g>
<!-- Node8&#45;&gt;Node9 -->
<g id="edge10_Node000008_Node000009" class="edge">
<title>Node8&#45;&gt;Node9</title>
<g id="a_edge10_Node000008_Node000009"><a xlink:title=" ">
<path fill="none" stroke="#63b8ff" d="M831.65,-315.94C841.73,-315.94 852.31,-315.94 862.64,-315.94"/>
<polygon fill="#63b8ff" stroke="#63b8ff" points="862.85,-319.45 872.85,-315.94 862.85,-312.45 862.85,-319.45"/>
</a>
</g>
</g>
<!-- Node22 -->
<g id="Node000022" class="node">
<title>Node22</title>
<g id="a_Node000022"><a xlink:href="namespacewmtk.html#a6a35f11c12436093d26fdd8be6fecc06" target="_top" xlink:title="Retrieves the current logger.">
<polygon fill="white" stroke="#666666" points="1151,-533.44 1070,-533.44 1070,-514.44 1151,-514.44 1151,-533.44"/>
<text text-anchor="middle" x="1110.5" y="-521.44" font-family="Helvetica,sans-Serif" font-size="10.00">wmtk::logger</text>
</a>
</g>
</g>
<!-- Node8&#45;&gt;Node22 -->
<g id="edge35_Node000008_Node000022" class="edge">
<title>Node8&#45;&gt;Node22</title>
<g id="a_edge35_Node000008_Node000022"><a xlink:title=" ">
<path fill="none" stroke="#63b8ff" d="M784.52,-330.97C799.79,-354.09 831.72,-398.65 868,-426.94 930.7,-475.84 954.08,-478.32 1029,-504.94 1038.84,-508.44 1049.59,-511.49 1059.94,-514.05"/>
<polygon fill="#63b8ff" stroke="#63b8ff" points="1059.15,-517.46 1069.69,-516.37 1060.77,-510.65 1059.15,-517.46"/>
</a>
</g>
</g>
<!-- Node24 -->
<g id="Node000024" class="node">
<title>Node24</title>
<g id="a_Node000024"><a xlink:href="classwmtk_1_1_mesh.html#a8cc8686f0688613806f43720b6db49e7" target="_top" xlink:title="check validity of tuple including its hash">
<polygon fill="white" stroke="#666666" points="990.5,-417.44 870.5,-417.44 870.5,-398.44 990.5,-398.44 990.5,-417.44"/>
<text text-anchor="middle" x="930.5" y="-405.44" font-family="Helvetica,sans-Serif" font-size="10.00">wmtk::Mesh::is_valid</text>
</a>
</g>
</g>
<!-- Node8&#45;&gt;Node24 -->
<g id="edge28_Node000008_Node000024" class="edge">
<title>Node8&#45;&gt;Node24</title>
<g id="a_edge28_Node000008_Node000024"><a xlink:title=" ">
<path fill="none" stroke="#63b8ff" d="M800.51,-331.14C829.31,-348.29 875.87,-376.01 904.47,-393.04"/>
<polygon fill="#63b8ff" stroke="#63b8ff" points="903.04,-396.26 913.43,-398.37 906.62,-390.25 903.04,-396.26"/>
</a>
</g>
</g>
<!-- Node9&#45;&gt;Node4 -->
<g id="edge15_Node000009_Node000004" class="edge">
<title>Node9&#45;&gt;Node4</title>
<g id="a_edge15_Node000009_Node000004"><a xlink:title=" ">
<path fill="none" stroke="#63b8ff" d="M947.64,-300.69C960.82,-287.71 979.43,-268.16 993,-248.94 1012.72,-221.01 1006.95,-207.08 1029,-180.94 1042.44,-165.02 1060.61,-150.59 1076.29,-139.66"/>
<polygon fill="#63b8ff" stroke="#63b8ff" points="1078.38,-142.48 1084.7,-133.97 1074.46,-136.68 1078.38,-142.48"/>
</a>
</g>
</g>
<!-- Node10 -->
<g id="Node000010" class="node">
<title>Node10</title>
<g id="a_Node000010"><a xlink:href="classwmtk_1_1attribute_1_1_accessor.html#aaeafc36889f90d4e4e9478f998d240d7" target="_top" xlink:title=" ">
<polygon fill="white" stroke="#666666" points="1554,-452.94 1412,-452.94 1412,-422.94 1554,-422.94 1554,-452.94"/>
<text text-anchor="start" x="1420" y="-440.94" font-family="Helvetica,sans-Serif" font-size="10.00">wmtk::attribute::Accessor</text>
<text text-anchor="middle" x="1483" y="-429.94" font-family="Helvetica,sans-Serif" font-size="10.00">::attribute</text>
</a>
</g>
</g>
<!-- Node9&#45;&gt;Node10 -->
<g id="edge11_Node000009_Node000010" class="edge">
<title>Node9&#45;&gt;Node10</title>
<g id="a_edge11_Node000009_Node000010"><a xlink:title=" ">
<path fill="none" stroke="#63b8ff" d="M943.36,-331.02C964.32,-357.21 1007.71,-409.25 1029,-418.94 1093.17,-448.17 1289.39,-445.8 1401.4,-441.74"/>
<polygon fill="#63b8ff" stroke="#63b8ff" points="1401.78,-445.23 1411.64,-441.35 1401.52,-438.23 1401.78,-445.23"/>
</a>
</g>
</g>
<!-- Node11 -->
<g id="Node000011" class="node">
<title>Node11</title>
<g id="a_Node000011"><a xlink:href="classwmtk_1_1_mesh.html#a3e8ff83c4a5526a40d18bb9883c6c6c9" target="_top" xlink:title="read in the m_capacities return the upper bound for the number of entities of the given dimension">
<polygon fill="white" stroke="#666666" points="1363,-308.44 1239,-308.44 1239,-289.44 1363,-289.44 1363,-308.44"/>
<text text-anchor="middle" x="1301" y="-296.44" font-family="Helvetica,sans-Serif" font-size="10.00">wmtk::Mesh::capacity</text>
</a>
</g>
</g>
<!-- Node9&#45;&gt;Node11 -->
<g id="edge12_Node000009_Node000011" class="edge">
<title>Node9&#45;&gt;Node11</title>
<g id="a_edge12_Node000009_Node000011"><a xlink:title=" ">
<path fill="none" stroke="#63b8ff" d="M988.11,-322.85C1041.02,-328.14 1122.12,-333.24 1192,-324.94 1214.45,-322.28 1238.97,-316.61 1258.98,-311.24"/>
<polygon fill="#63b8ff" stroke="#63b8ff" points="1259.98,-314.59 1268.69,-308.56 1258.12,-307.84 1259.98,-314.59"/>
</a>
</g>
</g>
<!-- Node13 -->
<g id="Node000013" class="node">
<title>Node13</title>
<g id="a_Node000013"><a xlink:href="classwmtk_1_1attribute_1_1_accessor.html#a6d3222130c85d3dcd2d7ae51257dc988" target="_top" xlink:title="Constant access function for a scalar attribute.">
<polygon fill="white" stroke="#666666" points="1181.5,-267.94 1039.5,-267.94 1039.5,-237.94 1181.5,-237.94 1181.5,-267.94"/>
<text text-anchor="start" x="1047.5" y="-255.94" font-family="Helvetica,sans-Serif" font-size="10.00">wmtk::attribute::Accessor</text>
<text text-anchor="middle" x="1110.5" y="-244.94" font-family="Helvetica,sans-Serif" font-size="10.00">::const_scalar_attribute</text>
</a>
</g>
</g>
<!-- Node9&#45;&gt;Node13 -->
<g id="edge14_Node000009_Node000013" class="edge">
<title>Node9&#45;&gt;Node13</title>
<g id="a_edge14_Node000009_Node000013"><a xlink:title=" ">
<path fill="none" stroke="#63b8ff" d="M966.87,-300.9C985.25,-293.31 1008.17,-284.2 1029,-276.94 1034.65,-274.98 1040.55,-273.03 1046.48,-271.13"/>
<polygon fill="#63b8ff" stroke="#63b8ff" points="1047.95,-274.34 1056.45,-268.01 1045.86,-267.66 1047.95,-274.34"/>
</a>
</g>
</g>
<!-- Node14 -->
<g id="Node000014" class="node">
<title>Node14</title>
<g id="a_Node000014"><a xlink:href="classwmtk_1_1_mesh.html#ae3493915b766f0f34f0a9e89603d5773" target="_top" xlink:title=" ">
<polygon fill="white" stroke="#666666" points="1171.5,-219.94 1049.5,-219.94 1049.5,-189.94 1171.5,-189.94 1171.5,-219.94"/>
<text text-anchor="start" x="1057.5" y="-207.94" font-family="Helvetica,sans-Serif" font-size="10.00">wmtk::Mesh::get_flag</text>
<text text-anchor="middle" x="1110.5" y="-196.94" font-family="Helvetica,sans-Serif" font-size="10.00">_accessor</text>
</a>
</g>
</g>
<!-- Node9&#45;&gt;Node14 -->
<g id="edge16_Node000009_Node000014" class="edge">
<title>Node9&#45;&gt;Node14</title>
<g id="a_edge16_Node000009_Node000014"><a xlink:title=" ">
<path fill="none" stroke="#63b8ff" d="M972.27,-300.8C979.65,-296.97 986.92,-292.36 993,-286.94 1015.65,-266.76 1004.89,-247.37 1029,-228.94 1032.39,-226.35 1036.06,-224.04 1039.89,-221.98"/>
<polygon fill="#63b8ff" stroke="#63b8ff" points="1041.57,-225.06 1049.09,-217.6 1038.56,-218.74 1041.57,-225.06"/>
</a>
</g>
</g>
<!-- Node17 -->
<g id="Node000017" class="node">
<title>Node17</title>
<g id="a_Node000017"><a xlink:href="classwmtk_1_1attribute_1_1_flag_accessor.html#a4f49a666c3811fee9b841c1cd1f66250" target="_top" xlink:title=" ">
<polygon fill="white" stroke="#666666" points="1192,-315.94 1029,-315.94 1029,-285.94 1192,-285.94 1192,-315.94"/>
<text text-anchor="start" x="1037" y="-303.94" font-family="Helvetica,sans-Serif" font-size="10.00">wmtk::attribute::FlagAccessor</text>
<text text-anchor="middle" x="1110.5" y="-292.94" font-family="Helvetica,sans-Serif" font-size="10.00">::index_access</text>
</a>
</g>
</g>
<!-- Node9&#45;&gt;Node17 -->
<g id="edge20_Node000009_Node000017" class="edge">
<title>Node9&#45;&gt;Node17</title>
<g id="a_edge20_Node000009_Node000017"><a xlink:title=" ">
<path fill="none" stroke="#63b8ff" d="M988.31,-311.16C998.1,-310.33 1008.49,-309.46 1018.92,-308.58"/>
<polygon fill="#63b8ff" stroke="#63b8ff" points="1019.23,-312.06 1028.9,-307.74 1018.64,-305.09 1019.23,-312.06"/>
</a>
</g>
</g>
<!-- Node18 -->
<g id="Node000018" class="node">
<title>Node18</title>
<g id="a_Node000018"><a xlink:href="classwmtk_1_1attribute_1_1_index_flag_accessor.html#a195252af3f6230f09f0c1379cbec7240" target="_top" xlink:title=" ">
<polygon fill="white" stroke="#666666" points="1183.5,-495.94 1037.5,-495.94 1037.5,-465.94 1183.5,-465.94 1183.5,-495.94"/>
<text text-anchor="start" x="1045.5" y="-483.94" font-family="Helvetica,sans-Serif" font-size="10.00">wmtk::attribute::IndexFlag</text>
<text text-anchor="middle" x="1110.5" y="-472.94" font-family="Helvetica,sans-Serif" font-size="10.00">Accessor::is_active</text>
</a>
</g>
</g>
<!-- Node9&#45;&gt;Node18 -->
<g id="edge21_Node000009_Node000018" class="edge">
<title>Node9&#45;&gt;Node18</title>
<g id="a_edge21_Node000009_Node000018"><a xlink:title=" ">
<path fill="none" stroke="#63b8ff" d="M945.49,-331.22C958.5,-345.78 978.08,-368.58 993,-389.94 1011.25,-416.07 1004.53,-431.53 1029,-451.94 1033.21,-455.45 1037.87,-458.55 1042.77,-461.29"/>
<polygon fill="#63b8ff" stroke="#63b8ff" points="1041.31,-464.47 1051.81,-465.83 1044.45,-458.21 1041.31,-464.47"/>
</a>
</g>
</g>
<!-- Node9&#45;&gt;Node22 -->
<g id="edge26_Node000009_Node000022" class="edge">
<title>Node9&#45;&gt;Node22</title>
<g id="a_edge26_Node000009_Node000022"><a xlink:title=" ">
<path fill="none" stroke="#63b8ff" d="M947.15,-331.07C960.95,-345.16 980.7,-367.35 993,-389.94 1018.6,-436.99 989.8,-468.45 1029,-504.94 1037.45,-512.81 1048.54,-517.62 1059.78,-520.5"/>
<polygon fill="#63b8ff" stroke="#63b8ff" points="1059.12,-523.94 1069.62,-522.57 1060.56,-517.08 1059.12,-523.94"/>
</a>
</g>
</g>
<!-- Node12 -->
<g id="Node000012" class="node">
<title>Node12</title>
<g id="a_Node000012"><a xlink:href="namespacewmtk.html#a5cf45c152e856196bb734c6f48919a24" target="_top" xlink:title="Get a unique integer id corresponding to each primitive type.">
<polygon fill="white" stroke="#666666" points="1541,-302.94 1425,-302.94 1425,-272.94 1541,-272.94 1541,-302.94"/>
<text text-anchor="start" x="1433" y="-290.94" font-family="Helvetica,sans-Serif" font-size="10.00">wmtk::get_primitive</text>
<text text-anchor="middle" x="1483" y="-279.94" font-family="Helvetica,sans-Serif" font-size="10.00">_type_id</text>
</a>
</g>
</g>
<!-- Node11&#45;&gt;Node12 -->
<g id="edge13_Node000011_Node000012" class="edge">
<title>Node11&#45;&gt;Node12</title>
<g id="a_edge13_Node000011_Node000012"><a xlink:title=" ">
<path fill="none" stroke="#63b8ff" d="M1363.19,-295.21C1379.73,-294.19 1397.73,-293.09 1414.59,-292.06"/>
<polygon fill="#63b8ff" stroke="#63b8ff" points="1415.15,-295.54 1424.92,-291.43 1414.73,-288.55 1415.15,-295.54"/>
</a>
</g>
</g>
<!-- Node15 -->
<g id="Node000015" class="node">
<title>Node15</title>
<g id="a_Node000015"><a xlink:href="classwmtk_1_1_mesh.html#acfa981b31f00aef4438ff5e73bbce2f4" target="_top" xlink:title=" ">
<polygon fill="white" stroke="#666666" points="1366,-231.94 1236,-231.94 1236,-201.94 1366,-201.94 1366,-231.94"/>
<text text-anchor="start" x="1244" y="-219.94" font-family="Helvetica,sans-Serif" font-size="10.00">wmtk::Mesh::get_const</text>
<text text-anchor="middle" x="1301" y="-208.94" font-family="Helvetica,sans-Serif" font-size="10.00">_flag_accessor</text>
</a>
</g>
</g>
<!-- Node14&#45;&gt;Node15 -->
<g id="edge17_Node000014_Node000015" class="edge">
<title>Node14&#45;&gt;Node15</title>
<g id="a_edge17_Node000014_Node000015"><a xlink:title=" ">
<path fill="none" stroke="#63b8ff" d="M1171.66,-208.77C1188.85,-209.87 1207.8,-211.08 1225.73,-212.22"/>
<polygon fill="#63b8ff" stroke="#63b8ff" points="1225.65,-215.72 1235.86,-212.86 1226.1,-208.73 1225.65,-215.72"/>
</a>
</g>
</g>
<!-- Node15&#45;&gt;Node12 -->
<g id="edge19_Node000015_Node000012" class="edge">
<title>Node15&#45;&gt;Node12</title>
<g id="a_edge19_Node000015_Node000012"><a xlink:title=" ">
<path fill="none" stroke="#63b8ff" d="M1340.17,-232C1367.62,-242.83 1404.82,-257.5 1434.23,-269.1"/>
<polygon fill="#63b8ff" stroke="#63b8ff" points="1433.29,-272.5 1443.88,-272.91 1435.86,-265.98 1433.29,-272.5"/>
</a>
</g>
</g>
<!-- Node16 -->
<g id="Node000016" class="node">
<title>Node16</title>
<g id="a_Node000016"><a xlink:href="classwmtk_1_1_mesh.html#a4cd7e6ca59d8d58cc7057c13bd190d57" target="_top" xlink:title=" ">
<polygon fill="white" stroke="#666666" points="1539.5,-231.94 1426.5,-231.94 1426.5,-201.94 1539.5,-201.94 1539.5,-231.94"/>
<text text-anchor="start" x="1434.5" y="-219.94" font-family="Helvetica,sans-Serif" font-size="10.00">wmtk::Mesh::create</text>
<text text-anchor="middle" x="1483" y="-208.94" font-family="Helvetica,sans-Serif" font-size="10.00">_const_accessor</text>
</a>
</g>
</g>
<!-- Node15&#45;&gt;Node16 -->
<g id="edge18_Node000015_Node000016" class="edge">
<title>Node15&#45;&gt;Node16</title>
<g id="a_edge18_Node000015_Node000016"><a xlink:title=" ">
<path fill="none" stroke="#63b8ff" d="M1366.22,-216.94C1382.53,-216.94 1400.06,-216.94 1416.43,-216.94"/>
<polygon fill="#63b8ff" stroke="#63b8ff" points="1416.45,-220.45 1426.45,-216.94 1416.45,-213.45 1416.45,-220.45"/>
</a>
</g>
</g>
<!-- Node19 -->
<g id="Node000019" class="node">
<title>Node19</title>
<g id="a_Node000019"><a xlink:href="classwmtk_1_1attribute_1_1_index_flag_accessor.html#a08ce19b077654f9e384d8c3fffcbbd0b" target="_top" xlink:title=" ">
<polygon fill="white" stroke="#666666" points="1374,-543.94 1228,-543.94 1228,-513.94 1374,-513.94 1374,-543.94"/>
<text text-anchor="start" x="1236" y="-531.94" font-family="Helvetica,sans-Serif" font-size="10.00">wmtk::attribute::IndexFlag</text>
<text text-anchor="middle" x="1301" y="-520.94" font-family="Helvetica,sans-Serif" font-size="10.00">Accessor::_is_active</text>
</a>
</g>
</g>
<!-- Node18&#45;&gt;Node19 -->
<g id="edge22_Node000018_Node000019" class="edge">
<title>Node18&#45;&gt;Node19</title>
<g id="a_edge22_Node000018_Node000019"><a xlink:title=" ">
<path fill="none" stroke="#63b8ff" d="M1170.63,-496C1189.84,-500.89 1211.32,-506.36 1231.18,-511.42"/>
<polygon fill="#63b8ff" stroke="#63b8ff" points="1230.53,-514.87 1241.08,-513.94 1232.26,-508.08 1230.53,-514.87"/>
</a>
</g>
</g>
<!-- Node20 -->
<g id="Node000020" class="node">
<title>Node20</title>
<g id="a_Node000020"><a xlink:href="classwmtk_1_1attribute_1_1_index_flag_accessor.html#a209b3c34d677a60d321806e30da8d287" target="_top" xlink:title=" ">
<polygon fill="white" stroke="#666666" points="1374,-495.94 1228,-495.94 1228,-465.94 1374,-465.94 1374,-495.94"/>
<text text-anchor="start" x="1236" y="-483.94" font-family="Helvetica,sans-Serif" font-size="10.00">wmtk::attribute::IndexFlag</text>
<text text-anchor="middle" x="1301" y="-472.94" font-family="Helvetica,sans-Serif" font-size="10.00">Accessor::attribute</text>
</a>
</g>
</g>
<!-- Node18&#45;&gt;Node20 -->
<g id="edge23_Node000018_Node000020" class="edge">
<title>Node18&#45;&gt;Node20</title>
<g id="a_edge23_Node000018_Node000020"><a xlink:title=" ">
<path fill="none" stroke="#63b8ff" d="M1183.57,-480.94C1194.71,-480.94 1206.29,-480.94 1217.64,-480.94"/>
<polygon fill="#63b8ff" stroke="#63b8ff" points="1217.97,-484.45 1227.97,-480.94 1217.97,-477.45 1217.97,-484.45"/>
</a>
</g>
</g>
<!-- Node20&#45;&gt;Node10 -->
<g id="edge24_Node000020_Node000010" class="edge">
<title>Node20&#45;&gt;Node10</title>
<g id="a_edge24_Node000020_Node000010"><a xlink:title=" ">
<path fill="none" stroke="#63b8ff" d="M1364.96,-465.91C1379.21,-462.5 1394.45,-458.86 1409.08,-455.37"/>
<polygon fill="#63b8ff" stroke="#63b8ff" points="1410.17,-458.7 1419.08,-452.98 1408.54,-451.9 1410.17,-458.7"/>
</a>
</g>
</g>
<!-- Node21 -->
<g id="Node000021" class="node">
<title>Node21</title>
<g id="a_Node000021"><a xlink:href="classwmtk_1_1attribute_1_1_index_flag_accessor.html#a37e882007dc57e3571c18163a709a246" target="_top" xlink:title=" ">
<polygon fill="white" stroke="#666666" points="1556,-500.94 1410,-500.94 1410,-470.94 1556,-470.94 1556,-500.94"/>
<text text-anchor="start" x="1418" y="-488.94" font-family="Helvetica,sans-Serif" font-size="10.00">wmtk::attribute::IndexFlag</text>
<text text-anchor="middle" x="1483" y="-477.94" font-family="Helvetica,sans-Serif" font-size="10.00">Accessor::base_accessor</text>
</a>
</g>
</g>
<!-- Node20&#45;&gt;Node21 -->
<g id="edge25_Node000020_Node000021" class="edge">
<title>Node20&#45;&gt;Node21</title>
<g id="a_edge25_Node000020_Node000021"><a xlink:title=" ">
<path fill="none" stroke="#63b8ff" d="M1374.18,-482.95C1382.52,-483.18 1391.08,-483.42 1399.54,-483.65"/>
<polygon fill="#63b8ff" stroke="#63b8ff" points="1399.71,-487.16 1409.81,-483.94 1399.91,-480.16 1399.71,-487.16"/>
</a>
</g>
</g>
<!-- Node23 -->
<g id="Node000023" class="node">
<title>Node23</title>
<g id="a_Node000023"><a xlink:href="namespacewmtk.html#a3daa7951a5f8b78cf4600dc047fcc180" target="_top" xlink:title="Setup a logger object to be used by WildmeshToolkit.">
<polygon fill="white" stroke="#666666" points="1351.5,-581.44 1250.5,-581.44 1250.5,-562.44 1351.5,-562.44 1351.5,-581.44"/>
<text text-anchor="middle" x="1301" y="-569.44" font-family="Helvetica,sans-Serif" font-size="10.00">wmtk::set_logger</text>
</a>
</g>
</g>
<!-- Node22&#45;&gt;Node23 -->
<g id="edge27_Node000022_Node000023" class="edge">
<title>Node22&#45;&gt;Node23</title>
<g id="a_edge27_Node000022_Node000023"><a xlink:title=" ">
<path fill="none" stroke="#63b8ff" d="M1151.29,-533.01C1164.29,-536.06 1178.79,-539.55 1192,-542.94 1208.08,-547.08 1211.97,-548.6 1228,-552.94 1236.25,-555.18 1245.04,-557.53 1253.55,-559.78"/>
<polygon fill="#63b8ff" stroke="#63b8ff" points="1252.78,-563.2 1263.35,-562.37 1254.57,-556.43 1252.78,-563.2"/>
</a>
</g>
</g>
<!-- Node24&#45;&gt;Node22 -->
<g id="edge33_Node000024_Node000022" class="edge">
<title>Node24&#45;&gt;Node22</title>
<g id="a_edge33_Node000024_Node000022"><a xlink:title=" ">
<path fill="none" stroke="#63b8ff" d="M938.32,-417.69C952.67,-437.43 988.09,-482.21 1029,-504.94 1038.42,-510.18 1049.23,-513.98 1059.81,-516.73"/>
<polygon fill="#63b8ff" stroke="#63b8ff" points="1059.29,-520.2 1069.83,-519.06 1060.88,-513.39 1059.29,-520.2"/>
</a>
</g>
</g>
<!-- Node25 -->
<g id="Node000025" class="node">
<title>Node25</title>
<g id="a_Node000025"><a xlink:href="classwmtk_1_1_tuple.html#a0023f575be92cd5ceeeaaaa3762ea06d" target="_top" xlink:title="Checks if a tuple is &quot;null&quot;. This merely implies the global index is &#45;1.">
<polygon fill="white" stroke="#666666" points="1167,-570.44 1054,-570.44 1054,-551.44 1167,-551.44 1167,-570.44"/>
<text text-anchor="middle" x="1110.5" y="-558.44" font-family="Helvetica,sans-Serif" font-size="10.00">wmtk::Tuple::is_null</text>
</a>
</g>
</g>
<!-- Node24&#45;&gt;Node25 -->
<g id="edge29_Node000024_Node000025" class="edge">
<title>Node24&#45;&gt;Node25</title>
<g id="a_edge29_Node000024_Node000025"><a xlink:title=" ">
<path fill="none" stroke="#63b8ff" d="M935.51,-417.63C946.44,-442.73 979.27,-510.17 1029,-542.94 1033.63,-546 1038.71,-548.54 1043.99,-550.65"/>
<polygon fill="#63b8ff" stroke="#63b8ff" points="1043.06,-554.04 1053.65,-554.02 1045.36,-547.43 1043.06,-554.04"/>
</a>
</g>
</g>
<!-- Node26 -->
<g id="Node000026" class="node">
<title>Node26</title>
<g id="a_Node000026"><a xlink:href="classwmtk_1_1_mesh.html#ade176d345902d97af8c5da04aa3a095b" target="_top" xlink:title=" ">
<polygon fill="white" stroke="#666666" points="1180.5,-391.44 1040.5,-391.44 1040.5,-372.44 1180.5,-372.44 1180.5,-391.44"/>
<text text-anchor="middle" x="1110.5" y="-379.44" font-family="Helvetica,sans-Serif" font-size="10.00">wmtk::Mesh::is_removed</text>
</a>
</g>
</g>
<!-- Node24&#45;&gt;Node26 -->
<g id="edge30_Node000024_Node000026" class="edge">
<title>Node24&#45;&gt;Node26</title>
<g id="a_edge30_Node000024_Node000026"><a xlink:title=" ">
<path fill="none" stroke="#63b8ff" d="M990.77,-399.29C1004.74,-397.25 1019.81,-395.05 1034.38,-392.92"/>
<polygon fill="#63b8ff" stroke="#63b8ff" points="1034.97,-396.37 1044.36,-391.46 1033.96,-389.44 1034.97,-396.37"/>
</a>
</g>
</g>
<!-- Node26&#45;&gt;Node5 -->
<g id="edge31_Node000026_Node000005" class="edge">
<title>Node26&#45;&gt;Node5</title>
<g id="a_edge31_Node000026_Node000005"><a xlink:title=" ">
<path fill="none" stroke="#63b8ff" d="M1132.46,-372.3C1150.82,-362.79 1176.88,-346.55 1192,-324.94 1226.86,-275.12 1200.58,-247.22 1228,-192.94 1242.36,-164.51 1266.45,-136.49 1282.77,-119.21"/>
<polygon fill="#63b8ff" stroke="#63b8ff" points="1285.66,-121.26 1290.08,-111.64 1280.62,-116.4 1285.66,-121.26"/>
</a>
</g>
</g>
<!-- Node26&#45;&gt;Node26 -->
<g id="edge32_Node000026_Node000026" class="edge">
<title>Node26&#45;&gt;Node26</title>
<g id="a_edge32_Node000026_Node000026"><a xlink:title=" ">
<path fill="none" stroke="#63b8ff" d="M1082.76,-391.53C1069.26,-400.18 1078.51,-409.44 1110.5,-409.44 1131.99,-409.44 1143.22,-405.26 1144.18,-399.89"/>
<polygon fill="#63b8ff" stroke="#63b8ff" points="1146.89,-397.66 1138.24,-391.53 1141.18,-401.71 1146.89,-397.66"/>
</a>
</g>
</g>
<!-- Node29 -->
<g id="Node000029" class="node">
<title>Node29</title>
<g id="a_Node000029"><a xlink:href="classwmtk_1_1_edge_mesh.html#a46725851b572b51a356450adc30c14ed" target="_top" xlink:title="switch the orientation of the Tuple of the given dimension">
<polygon fill="white" stroke="#666666" points="505,-149.94 367,-149.94 367,-119.94 505,-119.94 505,-149.94"/>
<text text-anchor="start" x="375" y="-137.94" font-family="Helvetica,sans-Serif" font-size="10.00">wmtk::EdgeMesh::switch</text>
<text text-anchor="middle" x="436" y="-126.94" font-family="Helvetica,sans-Serif" font-size="10.00">_tuple</text>
</a>
</g>
</g>
<!-- Node28&#45;&gt;Node29 -->
<g id="edge39_Node000028_Node000029" class="edge">
<title>Node28&#45;&gt;Node29</title>
<g id="a_edge39_Node000028_Node000029"><a xlink:title=" ">
<path fill="none" stroke="#63b8ff" d="M331.47,-134.94C339.73,-134.94 348.22,-134.94 356.6,-134.94"/>
<polygon fill="#63b8ff" stroke="#63b8ff" points="356.76,-138.45 366.76,-134.94 356.76,-131.45 356.76,-138.45"/>
</a>
</g>
</g>
<!-- Node29&#45;&gt;Node3 -->
<g id="edge42_Node000029_Node000003" class="edge">
<title>Node29&#45;&gt;Node3</title>
<g id="a_edge42_Node000029_Node000003"><a xlink:title=" ">
<path fill="none" stroke="#63b8ff" d="M505.21,-137.5C553.98,-138.63 621.14,-138.78 680,-133.94 690.73,-133.06 702.1,-131.64 713.06,-130.02"/>
<polygon fill="#63b8ff" stroke="#63b8ff" points="713.63,-133.47 722.98,-128.48 712.56,-126.55 713.63,-133.47"/>
</a>
</g>
</g>
<!-- Node29&#45;&gt;Node4 -->
<g id="edge40_Node000029_Node000004" class="edge">
<title>Node29&#45;&gt;Node4</title>
<g id="a_edge40_Node000029_Node000004"><a xlink:title=" ">
<path fill="none" stroke="#63b8ff" d="M451.47,-119.82C470.14,-101.52 504.56,-71.71 541,-59.94 725.36,-0.4 959.2,-66 1059.8,-100.49"/>
<polygon fill="#63b8ff" stroke="#63b8ff" points="1058.8,-103.85 1069.4,-103.83 1061.1,-97.24 1058.8,-103.85"/>
</a>
</g>
</g>
<!-- Node29&#45;&gt;Node5 -->
<g id="edge41_Node000029_Node000005" class="edge">
<title>Node29&#45;&gt;Node5</title>
<g id="a_edge41_Node000029_Node000005"><a xlink:title=" ">
<path fill="none" stroke="#63b8ff" d="M450.22,-119.79C473.06,-94.01 519.5,-43.39 541,-32.94 634.52,12.48 669.03,-2.94 773,-2.94 773,-2.94 773,-2.94 931.5,-2.94 1061.35,-2.94 1208.39,-60.98 1270.17,-88.19"/>
<polygon fill="#63b8ff" stroke="#63b8ff" points="1268.78,-91.4 1279.34,-92.27 1271.63,-85 1268.78,-91.4"/>
</a>
</g>
</g>
<!-- Node29&#45;&gt;Node6 -->
<g id="edge49_Node000029_Node000006" class="edge">
<title>Node29&#45;&gt;Node6</title>
<g id="a_edge49_Node000029_Node000006"><a xlink:title=" ">
<path fill="none" stroke="#63b8ff" d="M505.2,-145.78C517.12,-147.58 529.42,-149.37 541,-150.94 651.3,-165.95 779.6,-180.6 857.65,-189.19"/>
<polygon fill="#63b8ff" stroke="#63b8ff" points="857.53,-192.7 867.85,-190.32 858.29,-185.74 857.53,-192.7"/>
</a>
</g>
</g>
<!-- Node29&#45;&gt;Node8 -->
<g id="edge46_Node000029_Node000008" class="edge">
<title>Node29&#45;&gt;Node8</title>
<g id="a_edge46_Node000029_Node000008"><a xlink:title=" ">
<path fill="none" stroke="#63b8ff" d="M441.61,-150.12C452.61,-183.41 483.84,-262.61 541,-296.94 590.48,-326.67 656.98,-329.14 706.09,-325.51"/>
<polygon fill="#63b8ff" stroke="#63b8ff" points="706.62,-328.98 716.29,-324.65 706.04,-322 706.62,-328.98"/>
</a>
</g>
</g>
<!-- Node30 -->
<g id="Node000030" class="node">
<title>Node30</title>
<g id="a_Node000030"><a xlink:href="classwmtk_1_1_edge_mesh.html#a83db0c93833dacdfb169807d8ba4b6ca" target="_top" xlink:title="TODO this needs dimension?">
<polygon fill="white" stroke="#666666" points="680,-239.44 541,-239.44 541,-220.44 680,-220.44 680,-239.44"/>
<text text-anchor="middle" x="610.5" y="-227.44" font-family="Helvetica,sans-Serif" font-size="10.00">wmtk::EdgeMesh::is_ccw</text>
</a>
</g>
</g>
<!-- Node29&#45;&gt;Node30 -->
<g id="edge43_Node000029_Node000030" class="edge">
<title>Node29&#45;&gt;Node30</title>
<g id="a_edge43_Node000029_Node000030"><a xlink:title=" ">
<path fill="none" stroke="#63b8ff" d="M455.98,-150.17C476.14,-165.78 509.39,-189.97 541,-205.94 549.26,-210.12 558.42,-213.87 567.28,-217.11"/>
<polygon fill="#63b8ff" stroke="#63b8ff" points="566.12,-220.41 576.72,-220.4 568.43,-213.8 566.12,-220.41"/>
</a>
</g>
</g>
<!-- Node31 -->
<g id="Node000031" class="node">
<title>Node31</title>
<g id="a_Node000031"><a xlink:href="classwmtk_1_1_tuple.html#ac3cd5381c7147e3ff35347c574635311" target="_top" xlink:title=" ">
<polygon fill="white" stroke="#666666" points="673,-125.44 548,-125.44 548,-106.44 673,-106.44 673,-125.44"/>
<text text-anchor="middle" x="610.5" y="-113.44" font-family="Helvetica,sans-Serif" font-size="10.00">wmtk::Tuple::local_eid</text>
</a>
</g>
</g>
<!-- Node29&#45;&gt;Node31 -->
<g id="edge47_Node000029_Node000031" class="edge">
<title>Node29&#45;&gt;Node31</title>
<g id="a_edge47_Node000029_Node000031"><a xlink:title=" ">
<path fill="none" stroke="#63b8ff" d="M505.18,-127.44C515.88,-126.26 526.98,-125.03 537.76,-123.85"/>
<polygon fill="#63b8ff" stroke="#63b8ff" points="538.42,-127.3 547.98,-122.72 537.65,-120.34 538.42,-127.3"/>
</a>
</g>
</g>
<!-- Node32 -->
<g id="Node000032" class="node">
<title>Node32</title>
<g id="a_Node000032"><a xlink:href="classwmtk_1_1_tuple.html#ab5fa210c660a9d678768c15d7c4f78f0" target="_top" xlink:title=" ">
<polygon fill="white" stroke="#666666" points="671.5,-88.44 549.5,-88.44 549.5,-69.44 671.5,-69.44 671.5,-88.44"/>
<text text-anchor="middle" x="610.5" y="-76.44" font-family="Helvetica,sans-Serif" font-size="10.00">wmtk::Tuple::local_fid</text>
</a>
</g>
</g>
<!-- Node29&#45;&gt;Node32 -->
<g id="edge48_Node000029_Node000032" class="edge">
<title>Node29&#45;&gt;Node32</title>
<g id="a_edge48_Node000029_Node000032"><a xlink:title=" ">
<path fill="none" stroke="#63b8ff" d="M475.72,-119.82C495.16,-112.48 519.17,-103.78 541,-96.94 547.39,-94.94 554.15,-92.98 560.85,-91.13"/>
<polygon fill="#63b8ff" stroke="#63b8ff" points="561.82,-94.49 570.56,-88.5 559.99,-87.74 561.82,-94.49"/>
</a>
</g>
</g>
<!-- Node30&#45;&gt;Node6 -->
<g id="edge45_Node000030_Node000006" class="edge">
<title>Node30&#45;&gt;Node6</title>
<g id="a_edge45_Node000030_Node000006"><a xlink:title=" ">
<path fill="none" stroke="#63b8ff" d="M680.11,-222.83C732.51,-217.39 804.53,-209.91 857.7,-204.4"/>
<polygon fill="#63b8ff" stroke="#63b8ff" points="858.16,-207.87 867.74,-203.35 857.43,-200.9 858.16,-207.87"/>
</a>
</g>
</g>
<!-- Node30&#45;&gt;Node8 -->
<g id="edge44_Node000030_Node000008" class="edge">
<title>Node30&#45;&gt;Node8</title>
<g id="a_edge44_Node000030_Node000008"><a xlink:title=" ">
<path fill="none" stroke="#63b8ff" d="M655.1,-239.54C663.56,-242.09 672.21,-245.21 680,-248.94 704.82,-260.86 729.98,-279.46 747.86,-294.05"/>
<polygon fill="#63b8ff" stroke="#63b8ff" points="746.09,-297.13 756.02,-300.84 750.57,-291.75 746.09,-297.13"/>
</a>
</g>
</g>
</g>
</svg>
