<?xml version="1.0" encoding="UTF-8" standalone="no"?>
<!DOCTYPE svg PUBLIC "-//W3C//DTD SVG 1.1//EN"
 "http://www.w3.org/Graphics/SVG/1.1/DTD/svg11.dtd">
<!-- Generated by graphviz version 2.43.0 (0)
 -->
<!-- Title: wmtk::EdgeMesh::is_boundary_vertex Pages: 1 -->
<!--zoomable 475 -->

<svg id="main" version="1.1" xmlns="http://www.w3.org/2000/svg" xmlns:xlink="http://www.w3.org/1999/xlink" xml:space="preserve" onload="init(evt)">
<style type="text/css"><![CDATA[
.node, .edge {opacity: 0.7;}
.node.selected, .edge.selected {opacity: 1;}
.edge:hover path { stroke: red; }
.edge:hover polygon { stroke: red; fill: red; }
]]></style>

<defs>
  <circle id="rim" cx="0" cy="0" r="7"/>
  <circle id="rim2" cx="0" cy="0" r="3.5"/>
  <g id="zoomPlus">
    <use xlink:href="#rim" fill="#404040"><set attributeName="fill" to="#808080" begin="zoomplus.mouseover" end="zoomplus.mouseout"/></use>
    <path d="M-4,0h8M0,-4v8" fill="none" stroke="white" stroke-width="1.5" pointer-events="none"/>
  </g>
  <g id="zoomMin">
    <use xlink:href="#rim" fill="#404040"><set attributeName="fill" to="#808080" begin="zoomminus.mouseover" end="zoomminus.mouseout"/></use>
    <path d="M-4,0h8" fill="none" stroke="white" stroke-width="1.5" pointer-events="none"/>
  </g>
  <g id="arrowUp" transform="translate(30 24)">
    <use xlink:href="#rim"/>
    <path pointer-events="none" fill="none" stroke="white" stroke-width="1.5" d="M0,-3.0v7 M-2.5,-0.5L0,-3.0L2.5,-0.5"/>
  </g>
  <g id="arrowRight" transform="rotate(90) translate(36 -43)">
    <use xlink:href="#rim"/>
    <path pointer-events="none" fill="none" stroke="white" stroke-width="1.5" d="M0,-3.0v7 M-2.5,-0.5L0,-3.0L2.5,-0.5"/>
  </g>
  <g id="arrowDown" transform="rotate(180) translate(-30 -48)">
    <use xlink:href="#rim"/>
    <path pointer-events="none" fill="none" stroke="white" stroke-width="1.5" d="M0,-3.0v7 M-2.5,-0.5L0,-3.0L2.5,-0.5"/>
  </g>
  <g id="arrowLeft" transform="rotate(270) translate(-36 17)">
    <use xlink:href="#rim"/>
    <path pointer-events="none" fill="none" stroke="white" stroke-width="1.5" d="M0,-3.0v7 M-2.5,-0.5L0,-3.0L2.5,-0.5"/>
  </g>
  <g id="resetDef">
    <use xlink:href="#rim2" fill="#404040"><set attributeName="fill" to="#808080" begin="reset.mouseover" end="reset.mouseout"/></use>
  </g>
</defs>
<script type="application/ecmascript">
var viewWidth = 998;
var viewHeight = 475;
var sectionId = 'dynsection-17';
</script>
<script type="application/ecmascript" xlink:href="svg.min.js"/>
<svg id="graph" class="graph">
<g id="viewport">
<title>wmtk::EdgeMesh::is_boundary_vertex</title>
<!-- Node1 -->
<g id="Node000001" class="node">
<title>Node1</title>
<g id="a_Node000001"><a xlink:title=" ">
<polygon fill="#999999" stroke="#666666" points="115,-117.5 0,-117.5 0,-87.5 115,-87.5 115,-117.5"/>
<text text-anchor="start" x="8" y="-105.5" font-family="Helvetica,sans-Serif" font-size="10.00">wmtk::EdgeMesh::is</text>
<text text-anchor="middle" x="57.5" y="-94.5" font-family="Helvetica,sans-Serif" font-size="10.00">_boundary_vertex</text>
</a>
</g>
</g>
<!-- Node2 -->
<g id="Node000002" class="node">
<title>Node2</title>
<g id="a_Node000002"><a xlink:href="classwmtk_1_1attribute_1_1_accessor.html#abecebb154568864219abda80a1beb803" target="_top" xlink:title="Constant access function for a vector attribute.">
<polygon fill="white" stroke="#666666" points="615.5,-466.5 473.5,-466.5 473.5,-436.5 615.5,-436.5 615.5,-466.5"/>
<text text-anchor="start" x="481.5" y="-454.5" font-family="Helvetica,sans-Serif" font-size="10.00">wmtk::attribute::Accessor</text>
<text text-anchor="middle" x="544.5" y="-443.5" font-family="Helvetica,sans-Serif" font-size="10.00">::const_vector_attribute</text>
</a>
</g>
</g>
<!-- Node1&#45;&gt;Node2 -->
<g id="edge1_Node000001_Node000002" class="edge">
<title>Node1&#45;&gt;Node2</title>
<g id="a_edge1_Node000001_Node000002"><a xlink:title=" ">
<path fill="none" stroke="#63b8ff" d="M74.26,-117.51C126.18,-166.34 297.94,-322.98 463,-418.5 471.82,-423.61 481.59,-428.31 491.19,-432.48"/>
<polygon fill="#63b8ff" stroke="#63b8ff" points="490.12,-435.82 500.69,-436.46 492.82,-429.37 490.12,-435.82"/>
</a>
</g>
</g>
<!-- Node3 -->
<g id="Node000003" class="node">
<title>Node3</title>
<g id="a_Node000003"><a xlink:href="classwmtk_1_1_edge_mesh.html#acd802c89cf0cba9c312a8e7ecfa11c80" target="_top" xlink:title="check validity of tuple including its hash">
<polygon fill="white" stroke="#666666" points="266,-117.5 151,-117.5 151,-87.5 266,-87.5 266,-117.5"/>
<text text-anchor="start" x="159" y="-105.5" font-family="Helvetica,sans-Serif" font-size="10.00">wmtk::EdgeMesh::is</text>
<text text-anchor="middle" x="208.5" y="-94.5" font-family="Helvetica,sans-Serif" font-size="10.00">_valid</text>
</a>
</g>
</g>
<!-- Node1&#45;&gt;Node3 -->
<g id="edge2_Node000001_Node000003" class="edge">
<title>Node1&#45;&gt;Node3</title>
<g id="a_edge2_Node000001_Node000003"><a xlink:title=" ">
<path fill="none" stroke="#63b8ff" d="M115.26,-102.5C123.56,-102.5 132.17,-102.5 140.65,-102.5"/>
<polygon fill="#63b8ff" stroke="#63b8ff" points="140.9,-106 150.9,-102.5 140.9,-99 140.9,-106"/>
</a>
</g>
</g>
<!-- Node23 -->
<g id="Node000023" class="node">
<title>Node23</title>
<g id="a_Node000023"><a xlink:href="classwmtk_1_1_tuple.html#a27f6ee155923e848b461bebea1890abc" target="_top" xlink:title=" ">
<polygon fill="white" stroke="#666666" points="427,-37 302,-37 302,-18 427,-18 427,-37"/>
<text text-anchor="middle" x="364.5" y="-25" font-family="Helvetica,sans-Serif" font-size="10.00">wmtk::Tuple::local_vid</text>
</a>
</g>
</g>
<!-- Node1&#45;&gt;Node23 -->
<g id="edge30_Node000001_Node000023" class="edge">
<title>Node1&#45;&gt;Node23</title>
<g id="a_edge30_Node000001_Node000023"><a xlink:title=" ">
<path fill="none" stroke="#63b8ff" d="M115.2,-87.61C127.02,-84.56 139.41,-81.39 151,-78.5 206.21,-64.71 269.66,-49.58 312.75,-39.4"/>
<polygon fill="#63b8ff" stroke="#63b8ff" points="313.78,-42.76 322.71,-37.06 312.17,-35.94 313.78,-42.76"/>
</a>
</g>
</g>
<!-- Node4 -->
<g id="Node000004" class="node">
<title>Node4</title>
<g id="a_Node000004"><a xlink:href="classwmtk_1_1_tuple.html#aef64a43ff5f5617dbc99d865356bbc25" target="_top" xlink:title=" ">
<polygon fill="white" stroke="#666666" points="800.5,-42 669.5,-42 669.5,-23 800.5,-23 800.5,-42"/>
<text text-anchor="middle" x="735" y="-30" font-family="Helvetica,sans-Serif" font-size="10.00">wmtk::Tuple::global_cid</text>
</a>
</g>
</g>
<!-- Node3&#45;&gt;Node4 -->
<g id="edge3_Node000003_Node000004" class="edge">
<title>Node3&#45;&gt;Node4</title>
<g id="a_edge3_Node000003_Node000004"><a xlink:title=" ">
<path fill="none" stroke="#63b8ff" d="M266.08,-106.87C347.15,-111.58 500.43,-114.68 626,-83.5 656.5,-75.93 688.74,-59.44 709.97,-47.26"/>
<polygon fill="#63b8ff" stroke="#63b8ff" points="711.78,-50.25 718.63,-42.17 708.24,-44.22 711.78,-50.25"/>
</a>
</g>
</g>
<!-- Node5 -->
<g id="Node000005" class="node">
<title>Node5</title>
<g id="a_Node000005"><a xlink:href="classwmtk_1_1_edge_mesh.html#a3bf6f960d630d1e3a79a09c71a43100f" target="_top" xlink:title=" ">
<polygon fill="white" stroke="#666666" points="422,-284.5 307,-284.5 307,-254.5 422,-254.5 422,-284.5"/>
<text text-anchor="start" x="315" y="-272.5" font-family="Helvetica,sans-Serif" font-size="10.00">wmtk::EdgeMesh::is</text>
<text text-anchor="middle" x="364.5" y="-261.5" font-family="Helvetica,sans-Serif" font-size="10.00">_connectivity_valid</text>
</a>
</g>
</g>
<!-- Node3&#45;&gt;Node5 -->
<g id="edge4_Node000003_Node000005" class="edge">
<title>Node3&#45;&gt;Node5</title>
<g id="a_edge4_Node000003_Node000005"><a xlink:title=" ">
<path fill="none" stroke="#63b8ff" d="M223.44,-117.61C250.44,-146.9 310.06,-211.55 342.11,-246.31"/>
<polygon fill="#63b8ff" stroke="#63b8ff" points="339.91,-249.08 349.26,-254.06 345.05,-244.33 339.91,-249.08"/>
</a>
</g>
</g>
<!-- Node18 -->
<g id="Node000018" class="node">
<title>Node18</title>
<g id="a_Node000018"><a xlink:href="namespacewmtk.html#a6a35f11c12436093d26fdd8be6fecc06" target="_top" xlink:title="Retrieves the current logger.">
<polygon fill="white" stroke="#666666" points="585,-150 504,-150 504,-131 585,-131 585,-150"/>
<text text-anchor="middle" x="544.5" y="-138" font-family="Helvetica,sans-Serif" font-size="10.00">wmtk::logger</text>
</a>
</g>
</g>
<!-- Node3&#45;&gt;Node18 -->
<g id="edge29_Node000003_Node000018" class="edge">
<title>Node3&#45;&gt;Node18</title>
<g id="a_edge29_Node000003_Node000018"><a xlink:title=" ">
<path fill="none" stroke="#63b8ff" d="M266.18,-111.55C278,-113.3 290.4,-115.05 302,-116.5 368.16,-124.79 444.8,-132 493.69,-136.3"/>
<polygon fill="#63b8ff" stroke="#63b8ff" points="493.42,-139.79 503.69,-137.17 494.03,-132.82 493.42,-139.79"/>
</a>
</g>
</g>
<!-- Node20 -->
<g id="Node000020" class="node">
<title>Node20</title>
<g id="a_Node000020"><a xlink:href="classwmtk_1_1_mesh.html#a8cc8686f0688613806f43720b6db49e7" target="_top" xlink:title="check validity of tuple including its hash">
<polygon fill="white" stroke="#666666" points="424.5,-74 304.5,-74 304.5,-55 424.5,-55 424.5,-74"/>
<text text-anchor="middle" x="364.5" y="-62" font-family="Helvetica,sans-Serif" font-size="10.00">wmtk::Mesh::is_valid</text>
</a>
</g>
</g>
<!-- Node3&#45;&gt;Node20 -->
<g id="edge22_Node000003_Node000020" class="edge">
<title>Node3&#45;&gt;Node20</title>
<g id="a_edge22_Node000003_Node000020"><a xlink:title=" ">
<path fill="none" stroke="#63b8ff" d="M266.41,-88.46C282.29,-84.54 299.4,-80.32 314.77,-76.52"/>
<polygon fill="#63b8ff" stroke="#63b8ff" points="315.71,-79.9 324.58,-74.1 314.04,-73.1 315.71,-79.9"/>
</a>
</g>
</g>
<!-- Node3&#45;&gt;Node23 -->
<g id="edge28_Node000003_Node000023" class="edge">
<title>Node3&#45;&gt;Node23</title>
<g id="a_edge28_Node000003_Node000023"><a xlink:title=" ">
<path fill="none" stroke="#63b8ff" d="M231.1,-87.33C249.33,-75.05 276.48,-57.96 302,-46.5 307.03,-44.24 312.41,-42.14 317.82,-40.24"/>
<polygon fill="#63b8ff" stroke="#63b8ff" points="319.13,-43.49 327.51,-37 316.91,-36.85 319.13,-43.49"/>
</a>
</g>
</g>
<!-- Node5&#45;&gt;Node2 -->
<g id="edge9_Node000005_Node000002" class="edge">
<title>Node5&#45;&gt;Node2</title>
<g id="a_edge9_Node000005_Node000002"><a xlink:title=" ">
<path fill="none" stroke="#63b8ff" d="M375.02,-284.72C398.93,-322.91 459.84,-419.97 463,-422.5 467.35,-425.98 472.15,-429.06 477.18,-431.79"/>
<polygon fill="#63b8ff" stroke="#63b8ff" points="475.91,-435.06 486.43,-436.32 478.99,-428.78 475.91,-435.06"/>
</a>
</g>
</g>
<!-- Node6 -->
<g id="Node000006" class="node">
<title>Node6</title>
<g id="a_Node000006"><a xlink:href="classwmtk_1_1attribute_1_1_accessor.html#aaeafc36889f90d4e4e9478f998d240d7" target="_top" xlink:title=" ">
<polygon fill="white" stroke="#666666" points="988,-241.5 846,-241.5 846,-211.5 988,-211.5 988,-241.5"/>
<text text-anchor="start" x="854" y="-229.5" font-family="Helvetica,sans-Serif" font-size="10.00">wmtk::attribute::Accessor</text>
<text text-anchor="middle" x="917" y="-218.5" font-family="Helvetica,sans-Serif" font-size="10.00">::attribute</text>
</a>
</g>
</g>
<!-- Node5&#45;&gt;Node6 -->
<g id="edge5_Node000005_Node000006" class="edge">
<title>Node5&#45;&gt;Node6</title>
<g id="a_edge5_Node000005_Node000006"><a xlink:title=" ">
<path fill="none" stroke="#63b8ff" d="M418.26,-254.48C432.65,-250.94 448.33,-247.59 463,-245.5 592.44,-227.04 744.61,-224.54 835.53,-225.06"/>
<polygon fill="#63b8ff" stroke="#63b8ff" points="835.74,-228.56 845.76,-225.13 835.79,-221.56 835.74,-228.56"/>
</a>
</g>
</g>
<!-- Node7 -->
<g id="Node000007" class="node">
<title>Node7</title>
<g id="a_Node000007"><a xlink:href="classwmtk_1_1_mesh.html#a3e8ff83c4a5526a40d18bb9883c6c6c9" target="_top" xlink:title="read in the m_capacities return the upper bound for the number of entities of the given dimension">
<polygon fill="white" stroke="#666666" points="797,-418 673,-418 673,-399 797,-399 797,-418"/>
<text text-anchor="middle" x="735" y="-406" font-family="Helvetica,sans-Serif" font-size="10.00">wmtk::Mesh::capacity</text>
</a>
</g>
</g>
<!-- Node5&#45;&gt;Node7 -->
<g id="edge6_Node000005_Node000007" class="edge">
<title>Node5&#45;&gt;Node7</title>
<g id="a_edge6_Node000005_Node000007"><a xlink:title=" ">
<path fill="none" stroke="#63b8ff" d="M372.58,-284.63C385.96,-311.27 417.74,-365.98 463,-389.5 524.89,-421.66 605.7,-423.01 662.92,-418.41"/>
<polygon fill="#63b8ff" stroke="#63b8ff" points="663.31,-421.89 672.97,-417.52 662.7,-414.91 663.31,-421.89"/>
</a>
</g>
</g>
<!-- Node9 -->
<g id="Node000009" class="node">
<title>Node9</title>
<g id="a_Node000009"><a xlink:href="classwmtk_1_1attribute_1_1_accessor.html#a6d3222130c85d3dcd2d7ae51257dc988" target="_top" xlink:title="Constant access function for a scalar attribute.">
<polygon fill="white" stroke="#666666" points="615.5,-332.5 473.5,-332.5 473.5,-302.5 615.5,-302.5 615.5,-332.5"/>
<text text-anchor="start" x="481.5" y="-320.5" font-family="Helvetica,sans-Serif" font-size="10.00">wmtk::attribute::Accessor</text>
<text text-anchor="middle" x="544.5" y="-309.5" font-family="Helvetica,sans-Serif" font-size="10.00">::const_scalar_attribute</text>
</a>
</g>
</g>
<!-- Node5&#45;&gt;Node9 -->
<g id="edge8_Node000005_Node000009" class="edge">
<title>Node5&#45;&gt;Node9</title>
<g id="a_edge8_Node000005_Node000009"><a xlink:title=" ">
<path fill="none" stroke="#63b8ff" d="M421.33,-284.56C439.31,-289.4 459.39,-294.82 478,-299.84"/>
<polygon fill="#63b8ff" stroke="#63b8ff" points="477.3,-303.27 487.87,-302.5 479.12,-296.51 477.3,-303.27"/>
</a>
</g>
</g>
<!-- Node10 -->
<g id="Node000010" class="node">
<title>Node10</title>
<g id="a_Node000010"><a xlink:href="classwmtk_1_1_mesh.html#ae3493915b766f0f34f0a9e89603d5773" target="_top" xlink:title=" ">
<polygon fill="white" stroke="#666666" points="605.5,-380.5 483.5,-380.5 483.5,-350.5 605.5,-350.5 605.5,-380.5"/>
<text text-anchor="start" x="491.5" y="-368.5" font-family="Helvetica,sans-Serif" font-size="10.00">wmtk::Mesh::get_flag</text>
<text text-anchor="middle" x="544.5" y="-357.5" font-family="Helvetica,sans-Serif" font-size="10.00">_accessor</text>
</a>
</g>
</g>
<!-- Node5&#45;&gt;Node10 -->
<g id="edge10_Node000005_Node000010" class="edge">
<title>Node5&#45;&gt;Node10</title>
<g id="a_edge10_Node000005_Node000010"><a xlink:title=" ">
<path fill="none" stroke="#63b8ff" d="M382.26,-284.74C400.79,-300.88 432.12,-326.09 463,-341.5 466.74,-343.37 470.66,-345.12 474.66,-346.76"/>
<polygon fill="#63b8ff" stroke="#63b8ff" points="473.52,-350.07 484.11,-350.37 476.02,-343.53 473.52,-350.07"/>
</a>
</g>
</g>
<!-- Node13 -->
<g id="Node000013" class="node">
<title>Node13</title>
<g id="a_Node000013"><a xlink:href="classwmtk_1_1attribute_1_1_flag_accessor.html#a4f49a666c3811fee9b841c1cd1f66250" target="_top" xlink:title=" ">
<polygon fill="white" stroke="#666666" points="626,-284.5 463,-284.5 463,-254.5 626,-254.5 626,-284.5"/>
<text text-anchor="start" x="471" y="-272.5" font-family="Helvetica,sans-Serif" font-size="10.00">wmtk::attribute::FlagAccessor</text>
<text text-anchor="middle" x="544.5" y="-261.5" font-family="Helvetica,sans-Serif" font-size="10.00">::index_access</text>
</a>
</g>
</g>
<!-- Node5&#45;&gt;Node13 -->
<g id="edge14_Node000005_Node000013" class="edge">
<title>Node5&#45;&gt;Node13</title>
<g id="a_edge14_Node000005_Node000013"><a xlink:title=" ">
<path fill="none" stroke="#63b8ff" d="M422.31,-269.5C432,-269.5 442.28,-269.5 452.59,-269.5"/>
<polygon fill="#63b8ff" stroke="#63b8ff" points="452.9,-273 462.9,-269.5 452.9,-266 452.9,-273"/>
</a>
</g>
</g>
<!-- Node14 -->
<g id="Node000014" class="node">
<title>Node14</title>
<g id="a_Node000014"><a xlink:href="classwmtk_1_1attribute_1_1_index_flag_accessor.html#a195252af3f6230f09f0c1379cbec7240" target="_top" xlink:title=" ">
<polygon fill="white" stroke="#666666" points="617.5,-198.5 471.5,-198.5 471.5,-168.5 617.5,-168.5 617.5,-198.5"/>
<text text-anchor="start" x="479.5" y="-186.5" font-family="Helvetica,sans-Serif" font-size="10.00">wmtk::attribute::IndexFlag</text>
<text text-anchor="middle" x="544.5" y="-175.5" font-family="Helvetica,sans-Serif" font-size="10.00">Accessor::is_active</text>
</a>
</g>
</g>
<!-- Node5&#45;&gt;Node14 -->
<g id="edge15_Node000005_Node000014" class="edge">
<title>Node5&#45;&gt;Node14</title>
<g id="a_edge15_Node000005_Node000014"><a xlink:title=" ">
<path fill="none" stroke="#63b8ff" d="M388.49,-254.44C407.85,-242.15 436.54,-224.88 463,-212.5 470.74,-208.88 479.06,-205.43 487.32,-202.24"/>
<polygon fill="#63b8ff" stroke="#63b8ff" points="488.8,-205.42 496.94,-198.64 486.34,-198.87 488.8,-205.42"/>
</a>
</g>
</g>
<!-- Node5&#45;&gt;Node18 -->
<g id="edge20_Node000005_Node000018" class="edge">
<title>Node5&#45;&gt;Node18</title>
<g id="a_edge20_Node000005_Node000018"><a xlink:title=" ">
<path fill="none" stroke="#63b8ff" d="M374.49,-254.4C389.6,-230.38 422.47,-183.72 463,-159.5 472.44,-153.86 483.43,-149.89 494.2,-147.11"/>
<polygon fill="#63b8ff" stroke="#63b8ff" points="495.02,-150.51 503.99,-144.86 493.46,-143.69 495.02,-150.51"/>
</a>
</g>
</g>
<!-- Node8 -->
<g id="Node000008" class="node">
<title>Node8</title>
<g id="a_Node000008"><a xlink:href="namespacewmtk.html#a5cf45c152e856196bb734c6f48919a24" target="_top" xlink:title="Get a unique integer id corresponding to each primitive type.">
<polygon fill="white" stroke="#666666" points="975,-423.5 859,-423.5 859,-393.5 975,-393.5 975,-423.5"/>
<text text-anchor="start" x="867" y="-411.5" font-family="Helvetica,sans-Serif" font-size="10.00">wmtk::get_primitive</text>
<text text-anchor="middle" x="917" y="-400.5" font-family="Helvetica,sans-Serif" font-size="10.00">_type_id</text>
</a>
</g>
</g>
<!-- Node7&#45;&gt;Node8 -->
<g id="edge7_Node000007_Node000008" class="edge">
<title>Node7&#45;&gt;Node8</title>
<g id="a_edge7_Node000007_Node000008"><a xlink:title=" ">
<path fill="none" stroke="#63b8ff" d="M797.19,-408.5C813.73,-408.5 831.73,-408.5 848.59,-408.5"/>
<polygon fill="#63b8ff" stroke="#63b8ff" points="848.92,-412 858.92,-408.5 848.92,-405 848.92,-412"/>
</a>
</g>
</g>
<!-- Node11 -->
<g id="Node000011" class="node">
<title>Node11</title>
<g id="a_Node000011"><a xlink:href="classwmtk_1_1_mesh.html#acfa981b31f00aef4438ff5e73bbce2f4" target="_top" xlink:title=" ">
<polygon fill="white" stroke="#666666" points="800,-380.5 670,-380.5 670,-350.5 800,-350.5 800,-380.5"/>
<text text-anchor="start" x="678" y="-368.5" font-family="Helvetica,sans-Serif" font-size="10.00">wmtk::Mesh::get_const</text>
<text text-anchor="middle" x="735" y="-357.5" font-family="Helvetica,sans-Serif" font-size="10.00">_flag_accessor</text>
</a>
</g>
</g>
<!-- Node10&#45;&gt;Node11 -->
<g id="edge11_Node000010_Node000011" class="edge">
<title>Node10&#45;&gt;Node11</title>
<g id="a_edge11_Node000010_Node000011"><a xlink:title=" ">
<path fill="none" stroke="#63b8ff" d="M605.66,-365.5C622.85,-365.5 641.8,-365.5 659.73,-365.5"/>
<polygon fill="#63b8ff" stroke="#63b8ff" points="659.86,-369 669.86,-365.5 659.86,-362 659.86,-369"/>
</a>
</g>
</g>
<!-- Node11&#45;&gt;Node8 -->
<g id="edge13_Node000011_Node000008" class="edge">
<title>Node11&#45;&gt;Node8</title>
<g id="a_edge13_Node000011_Node000008"><a xlink:title=" ">
<path fill="none" stroke="#63b8ff" d="M798.96,-380.54C815.07,-384.39 832.47,-388.55 848.79,-392.45"/>
<polygon fill="#63b8ff" stroke="#63b8ff" points="848.26,-395.92 858.8,-394.84 849.89,-389.11 848.26,-395.92"/>
</a>
</g>
</g>
<!-- Node12 -->
<g id="Node000012" class="node">
<title>Node12</title>
<g id="a_Node000012"><a xlink:href="classwmtk_1_1_mesh.html#a4cd7e6ca59d8d58cc7057c13bd190d57" target="_top" xlink:title=" ">
<polygon fill="white" stroke="#666666" points="973.5,-375.5 860.5,-375.5 860.5,-345.5 973.5,-345.5 973.5,-375.5"/>
<text text-anchor="start" x="868.5" y="-363.5" font-family="Helvetica,sans-Serif" font-size="10.00">wmtk::Mesh::create</text>
<text text-anchor="middle" x="917" y="-352.5" font-family="Helvetica,sans-Serif" font-size="10.00">_const_accessor</text>
</a>
</g>
</g>
<!-- Node11&#45;&gt;Node12 -->
<g id="edge12_Node000011_Node000012" class="edge">
<title>Node11&#45;&gt;Node12</title>
<g id="a_edge12_Node000011_Node000012"><a xlink:title=" ">
<path fill="none" stroke="#63b8ff" d="M800.22,-363.72C816.53,-363.26 834.06,-362.78 850.43,-362.32"/>
<polygon fill="#63b8ff" stroke="#63b8ff" points="850.55,-365.82 860.45,-362.04 850.36,-358.82 850.55,-365.82"/>
</a>
</g>
</g>
<!-- Node15 -->
<g id="Node000015" class="node">
<title>Node15</title>
<g id="a_Node000015"><a xlink:href="classwmtk_1_1attribute_1_1_index_flag_accessor.html#a08ce19b077654f9e384d8c3fffcbbd0b" target="_top" xlink:title=" ">
<polygon fill="white" stroke="#666666" points="808,-150.5 662,-150.5 662,-120.5 808,-120.5 808,-150.5"/>
<text text-anchor="start" x="670" y="-138.5" font-family="Helvetica,sans-Serif" font-size="10.00">wmtk::attribute::IndexFlag</text>
<text text-anchor="middle" x="735" y="-127.5" font-family="Helvetica,sans-Serif" font-size="10.00">Accessor::_is_active</text>
</a>
</g>
</g>
<!-- Node14&#45;&gt;Node15 -->
<g id="edge16_Node000014_Node000015" class="edge">
<title>Node14&#45;&gt;Node15</title>
<g id="a_edge16_Node000014_Node000015"><a xlink:title=" ">
<path fill="none" stroke="#63b8ff" d="M604.63,-168.44C623.84,-163.55 645.32,-158.08 665.18,-153.02"/>
<polygon fill="#63b8ff" stroke="#63b8ff" points="666.26,-156.36 675.08,-150.5 664.53,-149.58 666.26,-156.36"/>
</a>
</g>
</g>
<!-- Node16 -->
<g id="Node000016" class="node">
<title>Node16</title>
<g id="a_Node000016"><a xlink:href="classwmtk_1_1attribute_1_1_index_flag_accessor.html#a209b3c34d677a60d321806e30da8d287" target="_top" xlink:title=" ">
<polygon fill="white" stroke="#666666" points="808,-198.5 662,-198.5 662,-168.5 808,-168.5 808,-198.5"/>
<text text-anchor="start" x="670" y="-186.5" font-family="Helvetica,sans-Serif" font-size="10.00">wmtk::attribute::IndexFlag</text>
<text text-anchor="middle" x="735" y="-175.5" font-family="Helvetica,sans-Serif" font-size="10.00">Accessor::attribute</text>
</a>
</g>
</g>
<!-- Node14&#45;&gt;Node16 -->
<g id="edge17_Node000014_Node000016" class="edge">
<title>Node14&#45;&gt;Node16</title>
<g id="a_edge17_Node000014_Node000016"><a xlink:title=" ">
<path fill="none" stroke="#63b8ff" d="M617.57,-183.5C628.71,-183.5 640.29,-183.5 651.64,-183.5"/>
<polygon fill="#63b8ff" stroke="#63b8ff" points="651.97,-187 661.97,-183.5 651.97,-180 651.97,-187"/>
</a>
</g>
</g>
<!-- Node16&#45;&gt;Node6 -->
<g id="edge18_Node000016_Node000006" class="edge">
<title>Node16&#45;&gt;Node6</title>
<g id="a_edge18_Node000016_Node000006"><a xlink:title=" ">
<path fill="none" stroke="#63b8ff" d="M798.96,-198.54C813.21,-201.94 828.45,-205.59 843.08,-209.08"/>
<polygon fill="#63b8ff" stroke="#63b8ff" points="842.54,-212.55 853.08,-211.47 844.17,-205.74 842.54,-212.55"/>
</a>
</g>
</g>
<!-- Node17 -->
<g id="Node000017" class="node">
<title>Node17</title>
<g id="a_Node000017"><a xlink:href="classwmtk_1_1attribute_1_1_index_flag_accessor.html#a37e882007dc57e3571c18163a709a246" target="_top" xlink:title=" ">
<polygon fill="white" stroke="#666666" points="990,-193.5 844,-193.5 844,-163.5 990,-163.5 990,-193.5"/>
<text text-anchor="start" x="852" y="-181.5" font-family="Helvetica,sans-Serif" font-size="10.00">wmtk::attribute::IndexFlag</text>
<text text-anchor="middle" x="917" y="-170.5" font-family="Helvetica,sans-Serif" font-size="10.00">Accessor::base_accessor</text>
</a>
</g>
</g>
<!-- Node16&#45;&gt;Node17 -->
<g id="edge19_Node000016_Node000017" class="edge">
<title>Node16&#45;&gt;Node17</title>
<g id="a_edge19_Node000016_Node000017"><a xlink:title=" ">
<path fill="none" stroke="#63b8ff" d="M808.18,-181.5C816.52,-181.26 825.08,-181.03 833.54,-180.79"/>
<polygon fill="#63b8ff" stroke="#63b8ff" points="833.91,-184.28 843.81,-180.51 833.71,-177.28 833.91,-184.28"/>
</a>
</g>
</g>
<!-- Node19 -->
<g id="Node000019" class="node">
<title>Node19</title>
<g id="a_Node000019"><a xlink:href="namespacewmtk.html#a3daa7951a5f8b78cf4600dc047fcc180" target="_top" xlink:title="Setup a logger object to be used by WildmeshToolkit.">
<polygon fill="white" stroke="#666666" points="785.5,-102 684.5,-102 684.5,-83 785.5,-83 785.5,-102"/>
<text text-anchor="middle" x="735" y="-90" font-family="Helvetica,sans-Serif" font-size="10.00">wmtk::set_logger</text>
</a>
</g>
</g>
<!-- Node18&#45;&gt;Node19 -->
<g id="edge21_Node000018_Node000019" class="edge">
<title>Node18&#45;&gt;Node19</title>
<g id="a_edge21_Node000018_Node000019"><a xlink:title=" ">
<path fill="none" stroke="#63b8ff" d="M583.19,-130.9C612.86,-123.35 654.39,-112.77 686.36,-104.63"/>
<polygon fill="#63b8ff" stroke="#63b8ff" points="687.55,-107.94 696.37,-102.08 685.82,-101.16 687.55,-107.94"/>
</a>
</g>
</g>
<!-- Node20&#45;&gt;Node18 -->
<g id="edge27_Node000020_Node000018" class="edge">
<title>Node20&#45;&gt;Node18</title>
<g id="a_edge27_Node000020_Node000018"><a xlink:title=" ">
<path fill="none" stroke="#63b8ff" d="M388.04,-74.13C419.34,-87.49 476.11,-111.73 511.7,-126.92"/>
<polygon fill="#63b8ff" stroke="#63b8ff" points="510.57,-130.24 521.14,-130.95 513.32,-123.81 510.57,-130.24"/>
</a>
</g>
</g>
<!-- Node21 -->
<g id="Node000021" class="node">
<title>Node21</title>
<g id="a_Node000021"><a xlink:href="classwmtk_1_1_tuple.html#a0023f575be92cd5ceeeaaaa3762ea06d" target="_top" xlink:title="Checks if a tuple is &quot;null&quot;. This merely implies the global index is &#45;1.">
<polygon fill="white" stroke="#666666" points="601,-74 488,-74 488,-55 601,-55 601,-74"/>
<text text-anchor="middle" x="544.5" y="-62" font-family="Helvetica,sans-Serif" font-size="10.00">wmtk::Tuple::is_null</text>
</a>
</g>
</g>
<!-- Node20&#45;&gt;Node21 -->
<g id="edge23_Node000020_Node000021" class="edge">
<title>Node20&#45;&gt;Node21</title>
<g id="a_edge23_Node000020_Node000021"><a xlink:title=" ">
<path fill="none" stroke="#63b8ff" d="M424.77,-64.5C441.76,-64.5 460.39,-64.5 477.75,-64.5"/>
<polygon fill="#63b8ff" stroke="#63b8ff" points="477.8,-68 487.8,-64.5 477.8,-61 477.8,-68"/>
</a>
</g>
</g>
<!-- Node22 -->
<g id="Node000022" class="node">
<title>Node22</title>
<g id="a_Node000022"><a xlink:href="classwmtk_1_1_mesh.html#ade176d345902d97af8c5da04aa3a095b" target="_top" xlink:title=" ">
<polygon fill="white" stroke="#666666" points="614.5,-19 474.5,-19 474.5,0 614.5,0 614.5,-19"/>
<text text-anchor="middle" x="544.5" y="-7" font-family="Helvetica,sans-Serif" font-size="10.00">wmtk::Mesh::is_removed</text>
</a>
</g>
</g>
<!-- Node20&#45;&gt;Node22 -->
<g id="edge24_Node000020_Node000022" class="edge">
<title>Node20&#45;&gt;Node22</title>
<g id="a_edge24_Node000020_Node000022"><a xlink:title=" ">
<path fill="none" stroke="#63b8ff" d="M398.74,-54.92C407.91,-52.24 417.85,-49.29 427,-46.5 452.81,-38.62 481.73,-29.44 504.3,-22.19"/>
<polygon fill="#63b8ff" stroke="#63b8ff" points="505.42,-25.51 513.87,-19.12 503.28,-18.85 505.42,-25.51"/>
</a>
</g>
</g>
<!-- Node22&#45;&gt;Node4 -->
<g id="edge25_Node000022_Node000004" class="edge">
<title>Node22&#45;&gt;Node4</title>
<g id="a_edge25_Node000022_Node000004"><a xlink:title=" ">
<path fill="none" stroke="#63b8ff" d="M614.62,-17.93C629.13,-19.7 644.5,-21.58 659.21,-23.37"/>
<polygon fill="#63b8ff" stroke="#63b8ff" points="658.92,-26.87 669.27,-24.6 659.77,-19.92 658.92,-26.87"/>
</a>
</g>
</g>
<!-- Node22&#45;&gt;Node22 -->
<g id="edge26_Node000022_Node000022" class="edge">
<title>Node22&#45;&gt;Node22</title>
<g id="a_edge26_Node000022_Node000022"><a xlink:title=" ">
<path fill="none" stroke="#63b8ff" d="M516.76,-19.08C503.26,-27.73 512.51,-37 544.5,-37 565.99,-37 577.22,-32.82 578.18,-27.45"/>
<polygon fill="#63b8ff" stroke="#63b8ff" points="580.89,-25.21 572.24,-19.08 575.18,-29.26 580.89,-25.21"/>
</a>
</g>
</g>
</g>
</svg>

<g id="navigator" transform="translate(0 0)" fill="#404254">
  <rect fill="#f2f5e9" fill-opacity="0.5" stroke="#606060" stroke-width=".5" x="0" y="0" width="60" height="60"/>
  <use id="zoomplus" xlink:href="#zoomPlus" x="17" y="9" onmousedown="handleZoom(evt,'in')"/>
  <use id="zoomminus" xlink:href="#zoomMin" x="42" y="9" onmousedown="handleZoom(evt,'out')"/>
  <use id="reset" xlink:href="#resetDef" x="30" y="36" onmousedown="handleReset()"/>
   <use id="arrowup" xlink:href="#arrowUp" x="0" y="0" onmousedown="handlePan(0,-1)"/>
  <use id="arrowright" xlink:href="#arrowRight" x="0" y="0" onmousedown="handlePan(1,0)"/>
  <use id="arrowdown" xlink:href="#arrowDown" x="0" y="0" onmousedown="handlePan(0,1)"/>
  <use id="arrowleft" xlink:href="#arrowLeft" x="0" y="0" onmousedown="handlePan(-1,0)"/>
</g>
<svg viewBox="0 0 15 15" width="100%" height="30px" preserveAspectRatio="xMaxYMin meet">
 <g id="arrow_out" transform="scale(0.3 0.3)">
  <a xlink:href="classwmtk_1_1_edge_mesh_a534952cf2729f1509a380e3e9afb65b7_cgraph_org.svg" target="_base">
   <rect id="button" ry="5" rx="5" y="6" x="6" height="38" width="38"
        fill="#f2f5e9" fill-opacity="0.5" stroke="#606060" stroke-width="1.0"/>
   <path id="arrow"
     d="M 11.500037,31.436501 C 11.940474,20.09759 22.043105,11.32322 32.158766,21.979434 L 37.068811,17.246167 C 37.068811,17.246167 37.088388,32 37.088388,32 L 22.160133,31.978069 C 22.160133,31.978069 26.997745,27.140456 26.997745,27.140456 C 18.528582,18.264221 13.291696,25.230495 11.500037,31.436501 z"
     style="fill:#404040;"/>
  </a>
 </g>
</svg>

<style type='text/css'>
<![CDATA[
[data-mouse-over-selected='false'] { opacity: 0.7; }
[data-mouse-over-selected='true']  { opacity: 1.0; }
]]>
</style>
<script type="application/ecmascript"><![CDATA[
document.addEventListener('DOMContentLoaded', (event) => {
  highlightEdges();
  highlightAdjacentNodes();
});
]]></script>
</svg>
