<?xml version="1.0" encoding="UTF-8" standalone="no"?>
<!DOCTYPE svg PUBLIC "-//W3C//DTD SVG 1.1//EN"
 "http://www.w3.org/Graphics/SVG/1.1/DTD/svg11.dtd">
<!-- Generated by graphviz version 2.43.0 (0)
 -->
<!-- Title: wmtk::multimesh::MultiMeshManager::get_child_meshes Pages: 1 -->
<svg width="1482pt" height="658pt"
 viewBox="0.00 0.00 1482.00 658.00" xmlns="http://www.w3.org/2000/svg" xmlns:xlink="http://www.w3.org/1999/xlink">
<g id="graph0" class="graph" transform="scale(1 1) rotate(0) translate(4 654)">
<title>wmtk::multimesh::MultiMeshManager::get_child_meshes</title>
<!-- Node1 -->
<g id="Node000001" class="node">
<title>Node1</title>
<g id="a_Node000001"><a xlink:title=" ">
<polygon fill="#999999" stroke="#666666" points="1474,-424.5 1314,-424.5 1314,-394.5 1474,-394.5 1474,-424.5"/>
<text text-anchor="start" x="1322" y="-412.5" font-family="Helvetica,sans-Serif" font-size="10.00">wmtk::multimesh::MultiMesh</text>
<text text-anchor="middle" x="1394" y="-401.5" font-family="Helvetica,sans-Serif" font-size="10.00">Manager::get_child_meshes</text>
</a>
</g>
</g>
<!-- Node2 -->
<g id="Node000002" class="node">
<title>Node2</title>
<g id="a_Node000002"><a xlink:href="classwmtk_1_1_mesh.html#ae897154d1c035113188f81c201fa44c6" target="_top" xlink:title="returns the direct multimesh child meshes for the current mesh">
<polygon fill="white" stroke="#666666" points="1278,-424.5 1151,-424.5 1151,-394.5 1278,-394.5 1278,-424.5"/>
<text text-anchor="start" x="1159" y="-412.5" font-family="Helvetica,sans-Serif" font-size="10.00">wmtk::Mesh::get_child</text>
<text text-anchor="middle" x="1214.5" y="-401.5" font-family="Helvetica,sans-Serif" font-size="10.00">_meshes</text>
</a>
</g>
</g>
<!-- Node1&#45;&gt;Node2 -->
<g id="edge1_Node000001_Node000002" class="edge">
<title>Node1&#45;&gt;Node2</title>
<g id="a_edge1_Node000001_Node000002"><a xlink:title=" ">
<path fill="none" stroke="#63b8ff" d="M1303.76,-409.5C1295.14,-409.5 1286.53,-409.5 1278.25,-409.5"/>
<polygon fill="#63b8ff" stroke="#63b8ff" points="1303.85,-413 1313.85,-409.5 1303.85,-406 1303.85,-413"/>
</a>
</g>
</g>
<!-- Node3 -->
<g id="Node000003" class="node">
<title>Node3</title>
<g id="a_Node000003"><a xlink:href="classwmtk_1_1invariants_1_1_no_child_mesh_attaching_invariant.html#a31d593e7cfecc62f5a1711ee37554535" target="_top" xlink:title=" ">
<polygon fill="white" stroke="#666666" points="1085.5,-650 942.5,-650 942.5,-609 1085.5,-609 1085.5,-650"/>
<text text-anchor="start" x="950.5" y="-638" font-family="Helvetica,sans-Serif" font-size="10.00">wmtk::invariants::NoChild</text>
<text text-anchor="start" x="950.5" y="-627" font-family="Helvetica,sans-Serif" font-size="10.00">MeshAttachingInvariant</text>
<text text-anchor="middle" x="1014" y="-616" font-family="Helvetica,sans-Serif" font-size="10.00">::before</text>
</a>
</g>
</g>
<!-- Node2&#45;&gt;Node3 -->
<g id="edge2_Node000002_Node000003" class="edge">
<title>Node2&#45;&gt;Node3</title>
<g id="a_edge2_Node000002_Node000003"><a xlink:title=" ">
<path fill="none" stroke="#63b8ff" d="M1207.5,-434.46C1196.39,-475.31 1168.67,-556.34 1115,-600.5 1106.42,-607.56 1096.18,-612.91 1085.59,-616.95"/>
<polygon fill="#63b8ff" stroke="#63b8ff" points="1210.9,-435.31 1210.04,-424.75 1204.13,-433.54 1210.9,-435.31"/>
</a>
</g>
</g>
<!-- Node4 -->
<g id="Node000004" class="node">
<title>Node4</title>
<g id="a_Node000004"><a xlink:href="classwmtk_1_1multimesh_1_1utils_1_1_map_validator.html#a6a4636de62a99248b6155c78cb35ff55" target="_top" xlink:title=" ">
<polygon fill="white" stroke="#666666" points="1079,-591 949,-591 949,-550 1079,-550 1079,-591"/>
<text text-anchor="start" x="957" y="-579" font-family="Helvetica,sans-Serif" font-size="10.00">wmtk::multimesh::utils</text>
<text text-anchor="start" x="957" y="-568" font-family="Helvetica,sans-Serif" font-size="10.00">::MapValidator::check</text>
<text text-anchor="middle" x="1014" y="-557" font-family="Helvetica,sans-Serif" font-size="10.00">_facet_uniqueness</text>
</a>
</g>
</g>
<!-- Node2&#45;&gt;Node4 -->
<g id="edge3_Node000002_Node000004" class="edge">
<title>Node2&#45;&gt;Node4</title>
<g id="a_edge3_Node000002_Node000004"><a xlink:title=" ">
<path fill="none" stroke="#63b8ff" d="M1201.59,-433.97C1185.85,-463.76 1155.33,-513.55 1115,-541.5 1104.3,-548.91 1091.71,-554.45 1079.14,-558.58"/>
<polygon fill="#63b8ff" stroke="#63b8ff" points="1204.9,-435.19 1206.36,-424.69 1198.67,-431.99 1204.9,-435.19"/>
</a>
</g>
</g>
<!-- Node10 -->
<g id="Node000010" class="node">
<title>Node10</title>
<g id="a_Node000010"><a xlink:href="classwmtk_1_1multimesh_1_1utils_1_1_map_validator.html#a68f039afe0e44da9486a4d3c38cf5bea" target="_top" xlink:title=" ">
<polygon fill="white" stroke="#666666" points="1082,-532 946,-532 946,-491 1082,-491 1082,-532"/>
<text text-anchor="start" x="954" y="-520" font-family="Helvetica,sans-Serif" font-size="10.00">wmtk::multimesh::utils</text>
<text text-anchor="start" x="954" y="-509" font-family="Helvetica,sans-Serif" font-size="10.00">::MapValidator::check</text>
<text text-anchor="middle" x="1014" y="-498" font-family="Helvetica,sans-Serif" font-size="10.00">_switch_homomorphism</text>
</a>
</g>
</g>
<!-- Node2&#45;&gt;Node10 -->
<g id="edge10_Node000002_Node000010" class="edge">
<title>Node2&#45;&gt;Node10</title>
<g id="a_edge10_Node000002_Node000010"><a xlink:title=" ">
<path fill="none" stroke="#63b8ff" d="M1188.67,-431.37C1169.63,-447.17 1142.1,-468.03 1115,-481.5 1104.69,-486.62 1093.35,-491.05 1082.11,-494.81"/>
<polygon fill="#63b8ff" stroke="#63b8ff" points="1191.15,-433.85 1196.53,-424.72 1186.63,-428.5 1191.15,-433.85"/>
</a>
</g>
</g>
<!-- Node11 -->
<g id="Node000011" class="node">
<title>Node11</title>
<g id="a_Node000011"><a xlink:href="classwmtk_1_1operations_1_1_a_m_i_p_s_optimization_smoothing.html#a2c409cd3da46f4360119e142ef3c3682" target="_top" xlink:title="returns an empty vector in case of failure">
<polygon fill="white" stroke="#666666" points="1115,-472.5 913,-472.5 913,-442.5 1115,-442.5 1115,-472.5"/>
<text text-anchor="start" x="921" y="-460.5" font-family="Helvetica,sans-Serif" font-size="10.00">wmtk::operations::AMIPSOptimization</text>
<text text-anchor="middle" x="1014" y="-449.5" font-family="Helvetica,sans-Serif" font-size="10.00">Smoothing::execute</text>
</a>
</g>
</g>
<!-- Node2&#45;&gt;Node11 -->
<g id="edge12_Node000002_Node000011" class="edge">
<title>Node2&#45;&gt;Node11</title>
<g id="a_edge12_Node000002_Node000011"><a xlink:title=" ">
<path fill="none" stroke="#63b8ff" d="M1142.17,-426.91C1133.03,-429.13 1123.79,-431.37 1115,-433.5 1102.94,-436.42 1090.06,-439.52 1077.69,-442.49"/>
<polygon fill="#63b8ff" stroke="#63b8ff" points="1143.14,-430.28 1152.03,-424.51 1141.49,-423.47 1143.14,-430.28"/>
</a>
</g>
</g>
<!-- Node12 -->
<g id="Node000012" class="node">
<title>Node12</title>
<g id="a_Node000012"><a xlink:href="classwmtk_1_1operations_1_1_a_m_i_p_s_optimization_smoothing_periodic.html#a86df18fe3713cb41dca1687487dea61b" target="_top" xlink:title="returns an empty vector in case of failure">
<polygon fill="white" stroke="#666666" points="1115,-424.5 913,-424.5 913,-394.5 1115,-394.5 1115,-424.5"/>
<text text-anchor="start" x="921" y="-412.5" font-family="Helvetica,sans-Serif" font-size="10.00">wmtk::operations::AMIPSOptimization</text>
<text text-anchor="middle" x="1014" y="-401.5" font-family="Helvetica,sans-Serif" font-size="10.00">SmoothingPeriodic::execute</text>
</a>
</g>
</g>
<!-- Node2&#45;&gt;Node12 -->
<g id="edge13_Node000002_Node000012" class="edge">
<title>Node2&#45;&gt;Node12</title>
<g id="a_edge13_Node000002_Node000012"><a xlink:title=" ">
<path fill="none" stroke="#63b8ff" d="M1140.94,-409.5C1132.6,-409.5 1123.98,-409.5 1115.36,-409.5"/>
<polygon fill="#63b8ff" stroke="#63b8ff" points="1140.97,-413 1150.97,-409.5 1140.97,-406 1140.97,-413"/>
</a>
</g>
</g>
<!-- Node13 -->
<g id="Node000013" class="node">
<title>Node13</title>
<g id="a_Node000013"><a xlink:href="classwmtk_1_1_mesh.html#a64befe40e4c1e1c00ead66ed8adef232" target="_top" xlink:title="returns all multimesh child meshes in the &quot;subtree&quot; under this mesh, not including itself">
<polygon fill="white" stroke="#666666" points="1072,-376.5 956,-376.5 956,-346.5 1072,-346.5 1072,-376.5"/>
<text text-anchor="start" x="964" y="-364.5" font-family="Helvetica,sans-Serif" font-size="10.00">wmtk::Mesh::get_all</text>
<text text-anchor="middle" x="1014" y="-353.5" font-family="Helvetica,sans-Serif" font-size="10.00">_child_meshes</text>
</a>
</g>
</g>
<!-- Node2&#45;&gt;Node13 -->
<g id="edge14_Node000002_Node000013" class="edge">
<title>Node2&#45;&gt;Node13</title>
<g id="a_edge14_Node000002_Node000013"><a xlink:title=" ">
<path fill="none" stroke="#63b8ff" d="M1142.17,-392.09C1133.03,-389.87 1123.79,-387.63 1115,-385.5 1101.12,-382.14 1086.15,-378.54 1072.12,-375.17"/>
<polygon fill="#63b8ff" stroke="#63b8ff" points="1141.49,-395.53 1152.03,-394.49 1143.14,-388.72 1141.49,-395.53"/>
</a>
</g>
</g>
<!-- Node23 -->
<g id="Node000023" class="node">
<title>Node23</title>
<g id="a_Node000023"><a xlink:href="classwmtk_1_1components_1_1multimesh_1_1_named_multi_mesh.html#ab9ccf238ab78796d1b082083a61d252f" target="_top" xlink:title=" ">
<polygon fill="white" stroke="#666666" points="1098.5,-282 929.5,-282 929.5,-241 1098.5,-241 1098.5,-282"/>
<text text-anchor="start" x="937.5" y="-270" font-family="Helvetica,sans-Serif" font-size="10.00">wmtk::components::multimesh</text>
<text text-anchor="start" x="937.5" y="-259" font-family="Helvetica,sans-Serif" font-size="10.00">::NamedMultiMesh::populate</text>
<text text-anchor="middle" x="1014" y="-248" font-family="Helvetica,sans-Serif" font-size="10.00">_default_names</text>
</a>
</g>
</g>
<!-- Node2&#45;&gt;Node23 -->
<g id="edge26_Node000002_Node000023" class="edge">
<title>Node2&#45;&gt;Node23</title>
<g id="a_edge26_Node000002_Node000023"><a xlink:title=" ">
<path fill="none" stroke="#63b8ff" d="M1185.3,-388.47C1147.4,-360.22 1080.45,-310.3 1042.77,-282.21"/>
<polygon fill="#63b8ff" stroke="#63b8ff" points="1183.27,-391.32 1193.37,-394.49 1187.45,-385.71 1183.27,-391.32"/>
</a>
</g>
</g>
<!-- Node35 -->
<g id="Node000035" class="node">
<title>Node35</title>
<g id="a_Node000035"><a xlink:href="classwmtk_1_1operations_1_1utils_1_1_update_edge_operation_multi_mesh_map_functor.html#a572bd6605137e21189ac91b5290af06d" target="_top" xlink:title=" ">
<polygon fill="white" stroke="#666666" points="1114.5,-223 913.5,-223 913.5,-182 1114.5,-182 1114.5,-223"/>
<text text-anchor="start" x="921.5" y="-211" font-family="Helvetica,sans-Serif" font-size="10.00">wmtk::operations::utils</text>
<text text-anchor="start" x="921.5" y="-200" font-family="Helvetica,sans-Serif" font-size="10.00">::UpdateEdgeOperationMultiMesh</text>
<text text-anchor="middle" x="1014" y="-189" font-family="Helvetica,sans-Serif" font-size="10.00">MapFunctor::update_ear_replacement</text>
</a>
</g>
</g>
<!-- Node2&#45;&gt;Node35 -->
<g id="edge38_Node000002_Node000035" class="edge">
<title>Node2&#45;&gt;Node35</title>
<g id="a_edge38_Node000002_Node000035"><a xlink:title=" ">
<path fill="none" stroke="#63b8ff" d="M1206.33,-384.54C1194.02,-346.16 1165.23,-272.89 1115,-232.5 1110.62,-228.98 1105.84,-225.87 1100.81,-223.13"/>
<polygon fill="#63b8ff" stroke="#63b8ff" points="1203.07,-385.86 1209.37,-394.38 1209.76,-383.79 1203.07,-385.86"/>
</a>
</g>
</g>
<!-- Node36 -->
<g id="Node000036" class="node">
<title>Node36</title>
<g id="a_Node000036"><a xlink:href="classwmtk_1_1operations_1_1utils_1_1_update_edge_operation_multi_mesh_map_functor.html#a4c69338c29bf0105b1881d829a177d45" target="_top" xlink:title=" ">
<polygon fill="white" stroke="#666666" points="1114.5,-164 913.5,-164 913.5,-123 1114.5,-123 1114.5,-164"/>
<text text-anchor="start" x="921.5" y="-152" font-family="Helvetica,sans-Serif" font-size="10.00">wmtk::operations::utils</text>
<text text-anchor="start" x="921.5" y="-141" font-family="Helvetica,sans-Serif" font-size="10.00">::UpdateEdgeOperationMultiMesh</text>
<text text-anchor="middle" x="1014" y="-130" font-family="Helvetica,sans-Serif" font-size="10.00">MapFunctor::update_ear_replacement</text>
</a>
</g>
</g>
<!-- Node2&#45;&gt;Node36 -->
<g id="edge39_Node000002_Node000036" class="edge">
<title>Node2&#45;&gt;Node36</title>
<g id="a_edge39_Node000002_Node000036"><a xlink:title=" ">
<path fill="none" stroke="#63b8ff" d="M1210.1,-384.05C1202.31,-335.83 1178.65,-230.85 1115,-173.5 1111.1,-169.98 1106.79,-166.87 1102.23,-164.13"/>
<polygon fill="#63b8ff" stroke="#63b8ff" points="1206.69,-384.88 1211.65,-394.24 1213.61,-383.83 1206.69,-384.88"/>
</a>
</g>
</g>
<!-- Node5 -->
<g id="Node000005" class="node">
<title>Node5</title>
<g id="a_Node000005"><a xlink:href="classwmtk_1_1multimesh_1_1utils_1_1_map_validator.html#a7c91255f342becd3f24ffa7bbaebeb3d" target="_top" xlink:title=" ">
<polygon fill="white" stroke="#666666" points="862,-585.5 723,-585.5 723,-555.5 862,-555.5 862,-585.5"/>
<text text-anchor="start" x="731" y="-573.5" font-family="Helvetica,sans-Serif" font-size="10.00">wmtk::multimesh::utils</text>
<text text-anchor="middle" x="792.5" y="-562.5" font-family="Helvetica,sans-Serif" font-size="10.00">::MapValidator::check_all</text>
</a>
</g>
</g>
<!-- Node4&#45;&gt;Node5 -->
<g id="edge4_Node000004_Node000005" class="edge">
<title>Node4&#45;&gt;Node5</title>
<g id="a_edge4_Node000004_Node000005"><a xlink:title=" ">
<path fill="none" stroke="#63b8ff" d="M938.85,-570.5C914.08,-570.5 886.6,-570.5 862.26,-570.5"/>
<polygon fill="#63b8ff" stroke="#63b8ff" points="938.92,-574 948.92,-570.5 938.92,-567 938.92,-574"/>
</a>
</g>
</g>
<!-- Node6 -->
<g id="Node000006" class="node">
<title>Node6</title>
<g id="a_Node000006"><a xlink:href="namespacewmtk_1_1multimesh_1_1utils.html#abcc3f7f7a25879455cafc8a8f4304c4c" target="_top" xlink:title=" ">
<polygon fill="white" stroke="#666666" points="625.5,-585.5 495.5,-585.5 495.5,-555.5 625.5,-555.5 625.5,-585.5"/>
<text text-anchor="start" x="503.5" y="-573.5" font-family="Helvetica,sans-Serif" font-size="10.00">wmtk::multimesh::utils</text>
<text text-anchor="middle" x="560.5" y="-562.5" font-family="Helvetica,sans-Serif" font-size="10.00">::check_maps_valid</text>
</a>
</g>
</g>
<!-- Node5&#45;&gt;Node6 -->
<g id="edge5_Node000005_Node000006" class="edge">
<title>Node5&#45;&gt;Node6</title>
<g id="a_edge5_Node000005_Node000006"><a xlink:title=" ">
<path fill="none" stroke="#63b8ff" d="M712.51,-570.5C684.12,-570.5 652.47,-570.5 625.52,-570.5"/>
<polygon fill="#63b8ff" stroke="#63b8ff" points="712.8,-574 722.8,-570.5 712.8,-567 712.8,-574"/>
</a>
</g>
</g>
<!-- Node7 -->
<g id="Node000007" class="node">
<title>Node7</title>
<g id="a_Node000007"><a xlink:href="namespacewmtk_1_1components.html#a1d95b8c424d645d432babf8ba5765e36" target="_top" xlink:title=" ">
<polygon fill="white" stroke="#666666" points="382.5,-585.5 242.5,-585.5 242.5,-555.5 382.5,-555.5 382.5,-585.5"/>
<text text-anchor="start" x="250.5" y="-573.5" font-family="Helvetica,sans-Serif" font-size="10.00">wmtk::components::edge</text>
<text text-anchor="middle" x="312.5" y="-562.5" font-family="Helvetica,sans-Serif" font-size="10.00">_insertion</text>
</a>
</g>
</g>
<!-- Node6&#45;&gt;Node7 -->
<g id="edge6_Node000006_Node000007" class="edge">
<title>Node6&#45;&gt;Node7</title>
<g id="a_edge6_Node000006_Node000007"><a xlink:title=" ">
<path fill="none" stroke="#63b8ff" d="M484.84,-570.5C452.33,-570.5 414.46,-570.5 382.61,-570.5"/>
<polygon fill="#63b8ff" stroke="#63b8ff" points="485.19,-574 495.19,-570.5 485.19,-567 485.19,-574"/>
</a>
</g>
</g>
<!-- Node7&#45;&gt;Node7 -->
<g id="edge7_Node000007_Node000007" class="edge">
<title>Node7&#45;&gt;Node7</title>
<g id="a_edge7_Node000007_Node000007"><a xlink:title=" ">
<path fill="none" stroke="#63b8ff" d="M351.71,-596.1C346.35,-600.47 333.28,-603.5 312.5,-603.5 277.5,-603.5 264.38,-594.91 273.12,-585.78"/>
<polygon fill="#63b8ff" stroke="#63b8ff" points="355.21,-595.83 351.88,-585.78 348.21,-595.72 355.21,-595.83"/>
</a>
</g>
</g>
<!-- Node8 -->
<g id="Node000008" class="node">
<title>Node8</title>
<g id="a_Node000008"><a xlink:href="namespacewmtk_1_1components_1_1internal.html#aff1250493ee8c47518118b92223c8576" target="_top" xlink:title=" ">
<polygon fill="white" stroke="#666666" points="165,-609.5 11,-609.5 11,-579.5 165,-579.5 165,-609.5"/>
<text text-anchor="start" x="19" y="-597.5" font-family="Helvetica,sans-Serif" font-size="10.00">wmtk::components::internal</text>
<text text-anchor="middle" x="88" y="-586.5" font-family="Helvetica,sans-Serif" font-size="10.00">::edge_insertion</text>
</a>
</g>
</g>
<!-- Node7&#45;&gt;Node8 -->
<g id="edge8_Node000007_Node000008" class="edge">
<title>Node7&#45;&gt;Node8</title>
<g id="a_edge8_Node000007_Node000008"><a xlink:title=" ">
<path fill="none" stroke="#63b8ff" d="M232.11,-579.06C210.31,-581.42 186.72,-583.96 165.11,-586.29"/>
<polygon fill="#63b8ff" stroke="#63b8ff" points="232.75,-582.51 242.32,-577.96 232,-575.55 232.75,-582.51"/>
</a>
</g>
</g>
<!-- Node9 -->
<g id="Node000009" class="node">
<title>Node9</title>
<g id="a_Node000009"><a xlink:href="namespacewmtk_1_1components_1_1internal.html#ad827cdbb96806fb2e4c19c644277f3c3" target="_top" xlink:title="include the intersection on edgepoints">
<polygon fill="white" stroke="#666666" points="165,-561.5 11,-561.5 11,-531.5 165,-531.5 165,-561.5"/>
<text text-anchor="start" x="19" y="-549.5" font-family="Helvetica,sans-Serif" font-size="10.00">wmtk::components::internal</text>
<text text-anchor="middle" x="88" y="-538.5" font-family="Helvetica,sans-Serif" font-size="10.00">::segment_segment_inter</text>
</a>
</g>
</g>
<!-- Node7&#45;&gt;Node9 -->
<g id="edge9_Node000007_Node000009" class="edge">
<title>Node7&#45;&gt;Node9</title>
<g id="a_edge9_Node000007_Node000009"><a xlink:title=" ">
<path fill="none" stroke="#63b8ff" d="M232.11,-561.94C210.31,-559.58 186.72,-557.04 165.11,-554.71"/>
<polygon fill="#63b8ff" stroke="#63b8ff" points="232,-565.45 242.32,-563.04 232.75,-558.49 232,-565.45"/>
</a>
</g>
</g>
<!-- Node10&#45;&gt;Node5 -->
<g id="edge11_Node000010_Node000005" class="edge">
<title>Node10&#45;&gt;Node5</title>
<g id="a_edge11_Node000010_Node000005"><a xlink:title=" ">
<path fill="none" stroke="#63b8ff" d="M936.01,-532.19C907.49,-539.86 875.73,-548.4 849.43,-555.47"/>
<polygon fill="#63b8ff" stroke="#63b8ff" points="937.2,-535.5 945.95,-529.52 935.38,-528.74 937.2,-535.5"/>
</a>
</g>
</g>
<!-- Node14 -->
<g id="Node000014" class="node">
<title>Node14</title>
<g id="a_Node000014"><a xlink:href="classwmtk_1_1invariants_1_1_separate_substructures_invariant.html#a61369d82ed2241444a204b1ccca89ba1" target="_top" xlink:title=" ">
<polygon fill="white" stroke="#666666" points="867,-537 718,-537 718,-496 867,-496 867,-537"/>
<text text-anchor="start" x="726" y="-525" font-family="Helvetica,sans-Serif" font-size="10.00">wmtk::invariants::Separate</text>
<text text-anchor="start" x="726" y="-514" font-family="Helvetica,sans-Serif" font-size="10.00">SubstructuresInvariant</text>
<text text-anchor="middle" x="792.5" y="-503" font-family="Helvetica,sans-Serif" font-size="10.00">::before</text>
</a>
</g>
</g>
<!-- Node13&#45;&gt;Node14 -->
<g id="edge15_Node000013_Node000014" class="edge">
<title>Node13&#45;&gt;Node14</title>
<g id="a_edge15_Node000013_Node000014"><a xlink:title=" ">
<path fill="none" stroke="#63b8ff" d="M946.16,-367.81C934.04,-371.51 922.31,-377.11 913,-385.5 877.29,-417.69 911.08,-453.59 877,-487.5 873.85,-490.64 870.33,-493.44 866.59,-495.94"/>
<polygon fill="#63b8ff" stroke="#63b8ff" points="947.15,-371.17 955.92,-365.23 945.36,-364.4 947.15,-371.17"/>
</a>
</g>
</g>
<!-- Node15 -->
<g id="Node000015" class="node">
<title>Node15</title>
<g id="a_Node000015"><a xlink:href="namespacewmtk_1_1components_1_1isotropic__remeshing_1_1internal.html#a91f805d6aafd13f1f8ff5dd0885d5db5" target="_top" xlink:title=" ">
<polygon fill="white" stroke="#666666" points="876.5,-478 708.5,-478 708.5,-437 876.5,-437 876.5,-478"/>
<text text-anchor="start" x="716.5" y="-466" font-family="Helvetica,sans-Serif" font-size="10.00">wmtk::components::isotropic</text>
<text text-anchor="start" x="716.5" y="-455" font-family="Helvetica,sans-Serif" font-size="10.00">_remeshing::internal::configure</text>
<text text-anchor="middle" x="792.5" y="-444" font-family="Helvetica,sans-Serif" font-size="10.00">_collapse</text>
</a>
</g>
</g>
<!-- Node13&#45;&gt;Node15 -->
<g id="edge16_Node000013_Node000015" class="edge">
<title>Node13&#45;&gt;Node15</title>
<g id="a_edge16_Node000013_Node000015"><a xlink:title=" ">
<path fill="none" stroke="#63b8ff" d="M945.89,-372.06C934.49,-375.39 923.08,-379.76 913,-385.5 893.06,-396.85 895.96,-409.58 877,-422.5 869.08,-427.9 860.19,-432.71 851.24,-436.91"/>
<polygon fill="#63b8ff" stroke="#63b8ff" points="947.13,-375.36 955.89,-369.4 945.32,-368.59 947.13,-375.36"/>
</a>
</g>
</g>
<!-- Node16 -->
<g id="Node000016" class="node">
<title>Node16</title>
<g id="a_Node000016"><a xlink:href="classwmtk_1_1components_1_1isotropic__remeshing_1_1_isotropic_remeshing.html#ad22ce058f76ec1434f41ce7fb2bd6ffa" target="_top" xlink:title=" ">
<polygon fill="white" stroke="#666666" points="400.5,-398 224.5,-398 224.5,-357 400.5,-357 400.5,-398"/>
<text text-anchor="start" x="232.5" y="-386" font-family="Helvetica,sans-Serif" font-size="10.00">wmtk::components::isotropic</text>
<text text-anchor="start" x="232.5" y="-375" font-family="Helvetica,sans-Serif" font-size="10.00">_remeshing::IsotropicRemeshing</text>
<text text-anchor="middle" x="312.5" y="-364" font-family="Helvetica,sans-Serif" font-size="10.00">::configure_swap</text>
</a>
</g>
</g>
<!-- Node13&#45;&gt;Node16 -->
<g id="edge17_Node000013_Node000016" class="edge">
<title>Node13&#45;&gt;Node16</title>
<g id="a_edge17_Node000013_Node000016"><a xlink:title=" ">
<path fill="none" stroke="#63b8ff" d="M945.99,-378.11C924.14,-382.77 899.67,-387.19 877,-389.5 709.07,-406.61 511.6,-395.21 400.65,-385.96"/>
<polygon fill="#63b8ff" stroke="#63b8ff" points="946.81,-381.51 955.83,-375.96 945.31,-374.68 946.81,-381.51"/>
</a>
</g>
</g>
<!-- Node18 -->
<g id="Node000018" class="node">
<title>Node18</title>
<g id="a_Node000018"><a xlink:href="classwmtk_1_1multimesh_1_1_boundary_checker.html#a558f458af4e9469a585223eaf684b26a" target="_top" xlink:title=" ">
<polygon fill="white" stroke="#666666" points="870,-380.5 715,-380.5 715,-350.5 870,-350.5 870,-380.5"/>
<text text-anchor="start" x="723" y="-368.5" font-family="Helvetica,sans-Serif" font-size="10.00">wmtk::multimesh::Boundary</text>
<text text-anchor="middle" x="792.5" y="-357.5" font-family="Helvetica,sans-Serif" font-size="10.00">Checker::for_all_meshes</text>
</a>
</g>
</g>
<!-- Node13&#45;&gt;Node18 -->
<g id="edge19_Node000013_Node000018" class="edge">
<title>Node13&#45;&gt;Node18</title>
<g id="a_edge19_Node000013_Node000018"><a xlink:title=" ">
<path fill="none" stroke="#63b8ff" d="M945.86,-362.72C921.93,-363.16 894.81,-363.65 870.15,-364.1"/>
<polygon fill="#63b8ff" stroke="#63b8ff" points="945.97,-366.22 955.9,-362.54 945.84,-359.22 945.97,-366.22"/>
</a>
</g>
</g>
<!-- Node19 -->
<g id="Node000019" class="node">
<title>Node19</title>
<g id="a_Node000019"><a xlink:href="classwmtk_1_1_mesh.html#a3d246e2b6ea7571fda001752a9668e10" target="_top" xlink:title=" ">
<polygon fill="white" stroke="#666666" points="850.5,-332.5 734.5,-332.5 734.5,-302.5 850.5,-302.5 850.5,-332.5"/>
<text text-anchor="start" x="742.5" y="-320.5" font-family="Helvetica,sans-Serif" font-size="10.00">wmtk::Mesh::get_all</text>
<text text-anchor="middle" x="792.5" y="-309.5" font-family="Helvetica,sans-Serif" font-size="10.00">_meshes</text>
</a>
</g>
</g>
<!-- Node13&#45;&gt;Node19 -->
<g id="edge20_Node000013_Node000019" class="edge">
<title>Node13&#45;&gt;Node19</title>
<g id="a_edge20_Node000013_Node000019"><a xlink:title=" ">
<path fill="none" stroke="#63b8ff" d="M945.8,-348.03C915.38,-341.93 879.81,-334.8 850.69,-328.96"/>
<polygon fill="#63b8ff" stroke="#63b8ff" points="945.41,-351.52 955.9,-350.05 946.78,-344.66 945.41,-351.52"/>
</a>
</g>
</g>
<!-- Node20 -->
<g id="Node000020" class="node">
<title>Node20</title>
<g id="a_Node000020"><a xlink:href="classwmtk_1_1_mesh.html#aba46f9c47f89784ed555dcf3835daaec" target="_top" xlink:title="returns all meshes under the mesh, including itself">
<polygon fill="white" stroke="#666666" points="850.5,-284.5 734.5,-284.5 734.5,-254.5 850.5,-254.5 850.5,-284.5"/>
<text text-anchor="start" x="742.5" y="-272.5" font-family="Helvetica,sans-Serif" font-size="10.00">wmtk::Mesh::get_all</text>
<text text-anchor="middle" x="792.5" y="-261.5" font-family="Helvetica,sans-Serif" font-size="10.00">_meshes</text>
</a>
</g>
</g>
<!-- Node13&#45;&gt;Node20 -->
<g id="edge21_Node000013_Node000020" class="edge">
<title>Node13&#45;&gt;Node20</title>
<g id="a_edge21_Node000013_Node000020"><a xlink:title=" ">
<path fill="none" stroke="#63b8ff" d="M977.53,-341.5C950.55,-326.86 912.2,-307.22 877,-293.5 868.57,-290.21 859.5,-287.15 850.56,-284.38"/>
<polygon fill="#63b8ff" stroke="#63b8ff" points="976.12,-344.72 986.57,-346.46 979.48,-338.58 976.12,-344.72"/>
</a>
</g>
</g>
<!-- Node17 -->
<g id="Node000017" class="node">
<title>Node17</title>
<g id="a_Node000017"><a xlink:href="classwmtk_1_1components_1_1isotropic__remeshing_1_1_isotropic_remeshing.html#a31844ec38531cdf196cd22bc57ca2dba" target="_top" xlink:title=" ">
<polygon fill="white" stroke="#666666" points="176,-369 0,-369 0,-328 176,-328 176,-369"/>
<text text-anchor="start" x="8" y="-357" font-family="Helvetica,sans-Serif" font-size="10.00">wmtk::components::isotropic</text>
<text text-anchor="start" x="8" y="-346" font-family="Helvetica,sans-Serif" font-size="10.00">_remeshing::IsotropicRemeshing</text>
<text text-anchor="middle" x="88" y="-335" font-family="Helvetica,sans-Serif" font-size="10.00">::IsotropicRemeshing</text>
</a>
</g>
</g>
<!-- Node16&#45;&gt;Node17 -->
<g id="edge18_Node000016_Node000017" class="edge">
<title>Node16&#45;&gt;Node17</title>
<g id="a_edge18_Node000016_Node000017"><a xlink:title=" ">
<path fill="none" stroke="#63b8ff" d="M214.11,-364.81C201.44,-363.16 188.53,-361.47 176.05,-359.85"/>
<polygon fill="#63b8ff" stroke="#63b8ff" points="213.83,-368.3 224.2,-366.12 214.74,-361.36 213.83,-368.3"/>
</a>
</g>
</g>
<!-- Node21 -->
<g id="Node000021" class="node">
<title>Node21</title>
<g id="a_Node000021"><a xlink:href="classwmtk_1_1components_1_1isotropic__remeshing_1_1_isotropic_remeshing.html#a0e398f9d873ff2ae28ccd37edb006bc0" target="_top" xlink:title=" ">
<polygon fill="white" stroke="#666666" points="648.5,-339 472.5,-339 472.5,-298 648.5,-298 648.5,-339"/>
<text text-anchor="start" x="480.5" y="-327" font-family="Helvetica,sans-Serif" font-size="10.00">wmtk::components::isotropic</text>
<text text-anchor="start" x="480.5" y="-316" font-family="Helvetica,sans-Serif" font-size="10.00">_remeshing::IsotropicRemeshing</text>
<text text-anchor="middle" x="560.5" y="-305" font-family="Helvetica,sans-Serif" font-size="10.00">::add_core_collapse_invariants</text>
</a>
</g>
</g>
<!-- Node20&#45;&gt;Node21 -->
<g id="edge22_Node000020_Node000021" class="edge">
<title>Node20&#45;&gt;Node21</title>
<g id="a_edge22_Node000020_Node000021"><a xlink:title=" ">
<path fill="none" stroke="#63b8ff" d="M724.44,-283.79C700.81,-288.82 673.89,-294.56 648.84,-299.89"/>
<polygon fill="#63b8ff" stroke="#63b8ff" points="725.3,-287.18 734.35,-281.68 723.84,-280.34 725.3,-287.18"/>
</a>
</g>
</g>
<!-- Node21&#45;&gt;Node16 -->
<g id="edge25_Node000021_Node000016" class="edge">
<title>Node21&#45;&gt;Node16</title>
<g id="a_edge25_Node000021_Node000016"><a xlink:title=" ">
<path fill="none" stroke="#63b8ff" d="M463.8,-341.45C442.54,-346.55 420.14,-351.92 399.3,-356.92"/>
<polygon fill="#63b8ff" stroke="#63b8ff" points="464.9,-344.79 473.81,-339.05 463.27,-337.98 464.9,-344.79"/>
</a>
</g>
</g>
<!-- Node22 -->
<g id="Node000022" class="node">
<title>Node22</title>
<g id="a_Node000022"><a xlink:href="classwmtk_1_1components_1_1isotropic__remeshing_1_1_isotropic_remeshing.html#a1b56eedafe8865b7ececb2d19f5eb670" target="_top" xlink:title=" ">
<polygon fill="white" stroke="#666666" points="400.5,-339 224.5,-339 224.5,-298 400.5,-298 400.5,-339"/>
<text text-anchor="start" x="232.5" y="-327" font-family="Helvetica,sans-Serif" font-size="10.00">wmtk::components::isotropic</text>
<text text-anchor="start" x="232.5" y="-316" font-family="Helvetica,sans-Serif" font-size="10.00">_remeshing::IsotropicRemeshing</text>
<text text-anchor="middle" x="312.5" y="-305" font-family="Helvetica,sans-Serif" font-size="10.00">::configure_collapse</text>
</a>
</g>
</g>
<!-- Node21&#45;&gt;Node22 -->
<g id="edge23_Node000021_Node000022" class="edge">
<title>Node21&#45;&gt;Node22</title>
<g id="a_edge23_Node000021_Node000022"><a xlink:title=" ">
<path fill="none" stroke="#63b8ff" d="M462.25,-318.5C441.99,-318.5 420.75,-318.5 400.87,-318.5"/>
<polygon fill="#63b8ff" stroke="#63b8ff" points="462.42,-322 472.42,-318.5 462.42,-315 462.42,-322"/>
</a>
</g>
</g>
<!-- Node22&#45;&gt;Node17 -->
<g id="edge24_Node000022_Node000017" class="edge">
<title>Node22&#45;&gt;Node17</title>
<g id="a_edge24_Node000022_Node000017"><a xlink:title=" ">
<path fill="none" stroke="#63b8ff" d="M214.11,-331.63C201.44,-333.34 188.53,-335.08 176.05,-336.76"/>
<polygon fill="#63b8ff" stroke="#63b8ff" points="214.76,-335.08 224.2,-330.27 213.82,-328.14 214.76,-335.08"/>
</a>
</g>
</g>
<!-- Node24 -->
<g id="Node000024" class="node">
<title>Node24</title>
<g id="a_Node000024"><a xlink:href="classwmtk_1_1components_1_1multimesh_1_1_named_multi_mesh.html#a903cb762a7e8b638664444c9d824bf47" target="_top" xlink:title=" ">
<polygon fill="white" stroke="#666666" points="877,-236 708,-236 708,-195 877,-195 877,-236"/>
<text text-anchor="start" x="716" y="-224" font-family="Helvetica,sans-Serif" font-size="10.00">wmtk::components::multimesh</text>
<text text-anchor="start" x="716" y="-213" font-family="Helvetica,sans-Serif" font-size="10.00">::NamedMultiMesh::append</text>
<text text-anchor="middle" x="792.5" y="-202" font-family="Helvetica,sans-Serif" font-size="10.00">_child_mesh_names</text>
</a>
</g>
</g>
<!-- Node23&#45;&gt;Node24 -->
<g id="edge27_Node000023_Node000024" class="edge">
<title>Node23&#45;&gt;Node24</title>
<g id="a_edge27_Node000023_Node000024"><a xlink:title=" ">
<path fill="none" stroke="#63b8ff" d="M919.29,-241.86C905.32,-238.93 890.99,-235.93 877.24,-233.05"/>
<polygon fill="#63b8ff" stroke="#63b8ff" points="918.88,-245.35 929.39,-243.98 920.32,-238.5 918.88,-245.35"/>
</a>
</g>
</g>
<!-- Node26 -->
<g id="Node000026" class="node">
<title>Node26</title>
<g id="a_Node000026"><a xlink:href="classwmtk_1_1components_1_1multimesh_1_1_named_multi_mesh.html#a4aa9e54e85bd0dffbafc6fdc2eb6a6c2" target="_top" xlink:title=" ">
<polygon fill="white" stroke="#666666" points="877,-176.5 708,-176.5 708,-146.5 877,-146.5 877,-176.5"/>
<text text-anchor="start" x="716" y="-164.5" font-family="Helvetica,sans-Serif" font-size="10.00">wmtk::components::multimesh</text>
<text text-anchor="middle" x="792.5" y="-153.5" font-family="Helvetica,sans-Serif" font-size="10.00">::NamedMultiMesh::set_name</text>
</a>
</g>
</g>
<!-- Node23&#45;&gt;Node26 -->
<g id="edge29_Node000023_Node000026" class="edge">
<title>Node23&#45;&gt;Node26</title>
<g id="a_edge29_Node000023_Node000026"><a xlink:title=" ">
<path fill="none" stroke="#63b8ff" d="M920.41,-237.08C917.86,-235.64 915.39,-234.11 913,-232.5 891.49,-217.96 898.44,-201.13 877,-186.5 871.38,-182.66 865.15,-179.4 858.7,-176.63"/>
<polygon fill="#63b8ff" stroke="#63b8ff" points="918.82,-240.2 929.31,-241.66 922.02,-233.97 918.82,-240.2"/>
</a>
</g>
</g>
<!-- Node27 -->
<g id="Node000027" class="node">
<title>Node27</title>
<g id="a_Node000027"><a xlink:href="classwmtk_1_1components_1_1multimesh_1_1_named_multi_mesh.html#a1f3aeab6b61a52fe56b8a8ced4f281e2" target="_top" xlink:title=" ">
<polygon fill="white" stroke="#666666" points="877,-128.5 708,-128.5 708,-98.5 877,-98.5 877,-128.5"/>
<text text-anchor="start" x="716" y="-116.5" font-family="Helvetica,sans-Serif" font-size="10.00">wmtk::components::multimesh</text>
<text text-anchor="middle" x="792.5" y="-105.5" font-family="Helvetica,sans-Serif" font-size="10.00">::NamedMultiMesh::set_root</text>
</a>
</g>
</g>
<!-- Node23&#45;&gt;Node27 -->
<g id="edge30_Node000023_Node000027" class="edge">
<title>Node23&#45;&gt;Node27</title>
<g id="a_edge30_Node000023_Node000027"><a xlink:title=" ">
<path fill="none" stroke="#63b8ff" d="M920.84,-238.79C918.08,-236.86 915.46,-234.77 913,-232.5 879.82,-201.87 910.21,-168.09 877,-137.5 873.23,-134.03 868.98,-131.05 864.46,-128.51"/>
<polygon fill="#63b8ff" stroke="#63b8ff" points="919.1,-241.83 929.45,-244.1 922.78,-235.87 919.1,-241.83"/>
</a>
</g>
</g>
<!-- Node25 -->
<g id="Node000025" class="node">
<title>Node25</title>
<g id="a_Node000025"><a xlink:href="structwmtk_1_1components_1_1multimesh_1_1_multimesh_axis_aligned_fusion_options.html#a2f812d98a26c384f53bcbbe92c863bce" target="_top" xlink:title=" ">
<polygon fill="white" stroke="#666666" points="672,-230.5 449,-230.5 449,-200.5 672,-200.5 672,-230.5"/>
<text text-anchor="start" x="457" y="-218.5" font-family="Helvetica,sans-Serif" font-size="10.00">wmtk::components::multimesh</text>
<text text-anchor="middle" x="560.5" y="-207.5" font-family="Helvetica,sans-Serif" font-size="10.00">::MultimeshAxisAlignedFusionOptions::run</text>
</a>
</g>
</g>
<!-- Node24&#45;&gt;Node25 -->
<g id="edge28_Node000024_Node000025" class="edge">
<title>Node24&#45;&gt;Node25</title>
<g id="a_edge28_Node000024_Node000025"><a xlink:title=" ">
<path fill="none" stroke="#63b8ff" d="M697.69,-215.5C689.31,-215.5 680.78,-215.5 672.28,-215.5"/>
<polygon fill="#63b8ff" stroke="#63b8ff" points="697.81,-219 707.81,-215.5 697.81,-212 697.81,-219"/>
</a>
</g>
</g>
<!-- Node28 -->
<g id="Node000028" class="node">
<title>Node28</title>
<g id="a_Node000028"><a xlink:href="classwmtk_1_1components_1_1multimesh_1_1_named_multi_mesh.html#ac68f017668a835a996bdcb29f298e21c" target="_top" xlink:title="Navigates to the root of the multimesh.">
<polygon fill="white" stroke="#666666" points="645,-128.5 476,-128.5 476,-98.5 645,-98.5 645,-128.5"/>
<text text-anchor="start" x="484" y="-116.5" font-family="Helvetica,sans-Serif" font-size="10.00">wmtk::components::multimesh</text>
<text text-anchor="middle" x="560.5" y="-105.5" font-family="Helvetica,sans-Serif" font-size="10.00">::NamedMultiMesh::set_mesh</text>
</a>
</g>
</g>
<!-- Node27&#45;&gt;Node28 -->
<g id="edge31_Node000027_Node000028" class="edge">
<title>Node27&#45;&gt;Node28</title>
<g id="a_edge31_Node000027_Node000028"><a xlink:title=" ">
<path fill="none" stroke="#63b8ff" d="M697.66,-113.5C680.26,-113.5 662.19,-113.5 645.12,-113.5"/>
<polygon fill="#63b8ff" stroke="#63b8ff" points="697.81,-117 707.81,-113.5 697.81,-110 697.81,-117"/>
</a>
</g>
</g>
<!-- Node29 -->
<g id="Node000029" class="node">
<title>Node29</title>
<g id="a_Node000029"><a xlink:href="namespacewmtk_1_1components_1_1input.html#a983def0b1b64614b2f2b91d18045f13a" target="_top" xlink:title=" ">
<polygon fill="white" stroke="#666666" points="383,-248.5 242,-248.5 242,-218.5 383,-218.5 383,-248.5"/>
<text text-anchor="start" x="250" y="-236.5" font-family="Helvetica,sans-Serif" font-size="10.00">wmtk::components::input</text>
<text text-anchor="middle" x="312.5" y="-225.5" font-family="Helvetica,sans-Serif" font-size="10.00">::input</text>
</a>
</g>
</g>
<!-- Node28&#45;&gt;Node29 -->
<g id="edge32_Node000028_Node000029" class="edge">
<title>Node28&#45;&gt;Node29</title>
<g id="a_edge32_Node000028_Node000029"><a xlink:title=" ">
<path fill="none" stroke="#63b8ff" d="M532.68,-135.19C504.47,-156.97 458.02,-190.02 413,-209.5 403.54,-213.59 393.26,-217.06 383.02,-219.98"/>
<polygon fill="#63b8ff" stroke="#63b8ff" points="535.1,-137.74 540.82,-128.82 530.79,-132.22 535.1,-137.74"/>
</a>
</g>
</g>
<!-- Node30 -->
<g id="Node000030" class="node">
<title>Node30</title>
<g id="a_Node000030"><a xlink:href="classwmtk_1_1components_1_1multimesh_1_1_named_multi_mesh.html#ae2b0be5d98237e15ced92facefbca32d" target="_top" xlink:title=" ">
<polygon fill="white" stroke="#666666" points="413,-200.5 212,-200.5 212,-170.5 413,-170.5 413,-200.5"/>
<text text-anchor="start" x="220" y="-188.5" font-family="Helvetica,sans-Serif" font-size="10.00">wmtk::components::multimesh</text>
<text text-anchor="middle" x="312.5" y="-177.5" font-family="Helvetica,sans-Serif" font-size="10.00">::NamedMultiMesh::NamedMultiMesh</text>
</a>
</g>
</g>
<!-- Node28&#45;&gt;Node30 -->
<g id="edge33_Node000028_Node000030" class="edge">
<title>Node28&#45;&gt;Node30</title>
<g id="a_edge33_Node000028_Node000030"><a xlink:title=" ">
<path fill="none" stroke="#63b8ff" d="M506.99,-131.83C479.21,-141.24 444.44,-152.57 413,-161.5 402.06,-164.61 390.37,-167.66 378.99,-170.49"/>
<polygon fill="#63b8ff" stroke="#63b8ff" points="508.17,-135.13 516.51,-128.59 505.91,-128.5 508.17,-135.13"/>
</a>
</g>
</g>
<!-- Node31 -->
<g id="Node000031" class="node">
<title>Node31</title>
<g id="a_Node000031"><a xlink:href="classwmtk_1_1components_1_1multimesh_1_1_named_multi_mesh.html#ab64fcacb0448378c0e72451acec84f49" target="_top" xlink:title=" ">
<polygon fill="white" stroke="#666666" points="413,-152.5 212,-152.5 212,-122.5 413,-122.5 413,-152.5"/>
<text text-anchor="start" x="220" y="-140.5" font-family="Helvetica,sans-Serif" font-size="10.00">wmtk::components::multimesh</text>
<text text-anchor="middle" x="312.5" y="-129.5" font-family="Helvetica,sans-Serif" font-size="10.00">::NamedMultiMesh::NamedMultiMesh</text>
</a>
</g>
</g>
<!-- Node28&#45;&gt;Node31 -->
<g id="edge34_Node000028_Node000031" class="edge">
<title>Node28&#45;&gt;Node31</title>
<g id="a_edge34_Node000028_Node000031"><a xlink:title=" ">
<path fill="none" stroke="#63b8ff" d="M465.81,-122.64C448.55,-124.32 430.48,-126.09 413.05,-127.79"/>
<polygon fill="#63b8ff" stroke="#63b8ff" points="466.26,-126.11 475.87,-121.66 465.58,-119.15 466.26,-126.11"/>
</a>
</g>
</g>
<!-- Node32 -->
<g id="Node000032" class="node">
<title>Node32</title>
<g id="a_Node000032"><a xlink:href="classwmtk_1_1components_1_1multimesh_1_1_named_multi_mesh.html#ad929a84b72e757a59ef4b277acab9ed3" target="_top" xlink:title=" ">
<polygon fill="white" stroke="#666666" points="413,-104.5 212,-104.5 212,-74.5 413,-74.5 413,-104.5"/>
<text text-anchor="start" x="220" y="-92.5" font-family="Helvetica,sans-Serif" font-size="10.00">wmtk::components::multimesh</text>
<text text-anchor="middle" x="312.5" y="-81.5" font-family="Helvetica,sans-Serif" font-size="10.00">::NamedMultiMesh::NamedMultiMesh</text>
</a>
</g>
</g>
<!-- Node28&#45;&gt;Node32 -->
<g id="edge35_Node000028_Node000032" class="edge">
<title>Node28&#45;&gt;Node32</title>
<g id="a_edge35_Node000028_Node000032"><a xlink:title=" ">
<path fill="none" stroke="#63b8ff" d="M465.81,-104.36C448.55,-102.68 430.48,-100.91 413.05,-99.21"/>
<polygon fill="#63b8ff" stroke="#63b8ff" points="465.58,-107.85 475.87,-105.34 466.26,-100.89 465.58,-107.85"/>
</a>
</g>
</g>
<!-- Node33 -->
<g id="Node000033" class="node">
<title>Node33</title>
<g id="a_Node000033"><a xlink:href="named__multimesh_8cpp.html#a3a3e0c34a0e81fb400da274f457df062" target="_top" xlink:title=" ">
<polygon fill="white" stroke="#666666" points="348,-56 277,-56 277,-37 348,-37 348,-56"/>
<text text-anchor="middle" x="312.5" y="-44" font-family="Helvetica,sans-Serif" font-size="10.00">TEST_CASE</text>
</a>
</g>
</g>
<!-- Node28&#45;&gt;Node33 -->
<g id="edge36_Node000028_Node000033" class="edge">
<title>Node28&#45;&gt;Node33</title>
<g id="a_edge36_Node000028_Node000033"><a xlink:title=" ">
<path fill="none" stroke="#63b8ff" d="M508.68,-95.07C480.7,-85.38 445.22,-73.82 413,-65.5 391.71,-60 367.49,-55.35 348.28,-52.02"/>
<polygon fill="#63b8ff" stroke="#63b8ff" points="507.65,-98.42 518.24,-98.41 509.96,-91.81 507.65,-98.42"/>
</a>
</g>
</g>
<!-- Node34 -->
<g id="Node000034" class="node">
<title>Node34</title>
<g id="a_Node000034"><a xlink:href="multimesh_2tests_2get__attributes_8cpp.html#ab58664a9c6a5969c3d97bd05c9ad2ec1" target="_top" xlink:title=" ">
<polygon fill="white" stroke="#666666" points="348,-19 277,-19 277,0 348,0 348,-19"/>
<text text-anchor="middle" x="312.5" y="-7" font-family="Helvetica,sans-Serif" font-size="10.00">TEST_CASE</text>
</a>
</g>
</g>
<!-- Node28&#45;&gt;Node34 -->
<g id="edge37_Node000028_Node000034" class="edge">
<title>Node28&#45;&gt;Node34</title>
<g id="a_edge37_Node000028_Node000034"><a xlink:title=" ">
<path fill="none" stroke="#63b8ff" d="M530.57,-92.34C502.08,-72.54 456.61,-43.66 413,-27.5 392.26,-19.81 367.83,-15.33 348.37,-12.76"/>
<polygon fill="#63b8ff" stroke="#63b8ff" points="528.66,-95.27 538.85,-98.17 532.69,-89.55 528.66,-95.27"/>
</a>
</g>
</g>
</g>
</svg>
