<?xml version="1.0" encoding="UTF-8" standalone="no"?>
<!DOCTYPE svg PUBLIC "-//W3C//DTD SVG 1.1//EN"
 "http://www.w3.org/Graphics/SVG/1.1/DTD/svg11.dtd">
<!-- Generated by graphviz version 2.43.0 (0)
 -->
<!-- Title: wmtk::components::multimesh::MeshCollection::add_mesh Pages: 1 -->
<svg width="650pt" height="261pt"
 viewBox="0.00 0.00 650.00 260.50" xmlns="http://www.w3.org/2000/svg" xmlns:xlink="http://www.w3.org/1999/xlink">
<g id="graph0" class="graph" transform="scale(1 1) rotate(0) translate(4 256.5)">
<title>wmtk::components::multimesh::MeshCollection::add_mesh</title>
<!-- Node1 -->
<g id="Node000001" class="node">
<title>Node1</title>
<g id="a_Node000001"><a xlink:title=" ">
<polygon fill="#999999" stroke="#666666" points="642,-135.5 473,-135.5 473,-105.5 642,-105.5 642,-135.5"/>
<text text-anchor="start" x="481" y="-123.5" font-family="Helvetica,sans-Serif" font-size="10.00">wmtk::components::multimesh</text>
<text text-anchor="middle" x="557.5" y="-112.5" font-family="Helvetica,sans-Serif" font-size="10.00">::MeshCollection::add_mesh</text>
</a>
</g>
</g>
<!-- Node2 -->
<g id="Node000002" class="node">
<title>Node2</title>
<g id="a_Node000002"><a xlink:href="classwmtk_1_1components_1_1multimesh_1_1_mesh_collection.html#ad7435f657e7d577d3a4d8f0ac12e6502" target="_top" xlink:title=" ">
<polygon fill="white" stroke="#666666" points="437,-135.5 259,-135.5 259,-105.5 437,-105.5 437,-135.5"/>
<text text-anchor="start" x="267" y="-123.5" font-family="Helvetica,sans-Serif" font-size="10.00">wmtk::components::multimesh</text>
<text text-anchor="middle" x="348" y="-112.5" font-family="Helvetica,sans-Serif" font-size="10.00">::MeshCollection::emplace_mesh</text>
</a>
</g>
</g>
<!-- Node1&#45;&gt;Node2 -->
<g id="edge1_Node000001_Node000002" class="edge">
<title>Node1&#45;&gt;Node2</title>
<g id="a_edge1_Node000001_Node000002"><a xlink:title=" ">
<path fill="none" stroke="#63b8ff" d="M462.95,-120.5C454.34,-120.5 445.64,-120.5 437.08,-120.5"/>
<polygon fill="#63b8ff" stroke="#63b8ff" points="463,-124 473,-120.5 463,-117 463,-124"/>
</a>
</g>
</g>
<!-- Node3 -->
<g id="Node000003" class="node">
<title>Node3</title>
<g id="a_Node000003"><a xlink:href="structwmtk_1_1components_1_1multimesh_1_1_multimesh_axis_aligned_fusion_options.html#a2f812d98a26c384f53bcbbe92c863bce" target="_top" xlink:title=" ">
<polygon fill="white" stroke="#666666" points="223,-252.5 0,-252.5 0,-222.5 223,-222.5 223,-252.5"/>
<text text-anchor="start" x="8" y="-240.5" font-family="Helvetica,sans-Serif" font-size="10.00">wmtk::components::multimesh</text>
<text text-anchor="middle" x="111.5" y="-229.5" font-family="Helvetica,sans-Serif" font-size="10.00">::MultimeshAxisAlignedFusionOptions::run</text>
</a>
</g>
</g>
<!-- Node2&#45;&gt;Node3 -->
<g id="edge2_Node000002_Node000003" class="edge">
<title>Node2&#45;&gt;Node3</title>
<g id="a_edge2_Node000002_Node000003"><a xlink:title=" ">
<path fill="none" stroke="#63b8ff" d="M324.25,-142.41C300.77,-163.78 262.14,-195.61 223,-213.5 215.5,-216.93 207.49,-219.88 199.33,-222.41"/>
<polygon fill="#63b8ff" stroke="#63b8ff" points="326.65,-144.96 331.61,-135.59 321.9,-139.82 326.65,-144.96"/>
</a>
</g>
</g>
<!-- Node4 -->
<g id="Node000004" class="node">
<title>Node4</title>
<g id="a_Node000004"><a xlink:href="json_8cpp.html#a926ec05d20533e9442eb38b6af3f933a" target="_top" xlink:title=" ">
<polygon fill="white" stroke="#666666" points="147,-204 76,-204 76,-185 147,-185 147,-204"/>
<text text-anchor="middle" x="111.5" y="-192" font-family="Helvetica,sans-Serif" font-size="10.00">TEST_CASE</text>
</a>
</g>
</g>
<!-- Node2&#45;&gt;Node4 -->
<g id="edge3_Node000002_Node000004" class="edge">
<title>Node2&#45;&gt;Node4</title>
<g id="a_edge3_Node000002_Node000004"><a xlink:title=" ">
<path fill="none" stroke="#63b8ff" d="M310.11,-140.26C285.95,-152.41 253.35,-167.35 223,-176.5 198.25,-183.96 169.39,-188.53 147.37,-191.2"/>
<polygon fill="#63b8ff" stroke="#63b8ff" points="311.94,-143.25 319.25,-135.59 308.76,-137.02 311.94,-143.25"/>
</a>
</g>
</g>
<!-- Node5 -->
<g id="Node000005" class="node">
<title>Node5</title>
<g id="a_Node000005"><a xlink:href="json_8cpp.html#a034d46582f037a382b0999522b442ca8" target="_top" xlink:title=" ">
<polygon fill="white" stroke="#666666" points="147,-167 76,-167 76,-148 147,-148 147,-167"/>
<text text-anchor="middle" x="111.5" y="-155" font-family="Helvetica,sans-Serif" font-size="10.00">TEST_CASE</text>
</a>
</g>
</g>
<!-- Node2&#45;&gt;Node5 -->
<g id="edge4_Node000002_Node000005" class="edge">
<title>Node2&#45;&gt;Node5</title>
<g id="a_edge4_Node000002_Node000005"><a xlink:title=" ">
<path fill="none" stroke="#63b8ff" d="M248.58,-136.03C212.52,-141.72 174.01,-147.8 147.19,-152.03"/>
<polygon fill="#63b8ff" stroke="#63b8ff" points="249.35,-139.45 258.68,-134.44 248.26,-132.54 249.35,-139.45"/>
</a>
</g>
</g>
<!-- Node6 -->
<g id="Node000006" class="node">
<title>Node6</title>
<g id="a_Node000006"><a xlink:href="json_8cpp.html#aa89e56eb42571af9e525720c92762418" target="_top" xlink:title=" ">
<polygon fill="white" stroke="#666666" points="147,-130 76,-130 76,-111 147,-111 147,-130"/>
<text text-anchor="middle" x="111.5" y="-118" font-family="Helvetica,sans-Serif" font-size="10.00">TEST_CASE</text>
</a>
</g>
</g>
<!-- Node2&#45;&gt;Node6 -->
<g id="edge5_Node000002_Node000006" class="edge">
<title>Node2&#45;&gt;Node6</title>
<g id="a_edge5_Node000002_Node000006"><a xlink:title=" ">
<path fill="none" stroke="#63b8ff" d="M248.58,-120.5C212.52,-120.5 174.01,-120.5 147.19,-120.5"/>
<polygon fill="#63b8ff" stroke="#63b8ff" points="248.68,-124 258.68,-120.5 248.68,-117 248.68,-124"/>
</a>
</g>
</g>
<!-- Node7 -->
<g id="Node000007" class="node">
<title>Node7</title>
<g id="a_Node000007"><a xlink:href="json_8cpp.html#a4b7d01c882acb168b3a150c613cb72ff" target="_top" xlink:title=" ">
<polygon fill="white" stroke="#666666" points="147,-93 76,-93 76,-74 147,-74 147,-93"/>
<text text-anchor="middle" x="111.5" y="-81" font-family="Helvetica,sans-Serif" font-size="10.00">TEST_CASE</text>
</a>
</g>
</g>
<!-- Node2&#45;&gt;Node7 -->
<g id="edge6_Node000002_Node000007" class="edge">
<title>Node2&#45;&gt;Node7</title>
<g id="a_edge6_Node000002_Node000007"><a xlink:title=" ">
<path fill="none" stroke="#63b8ff" d="M248.58,-104.97C212.52,-99.28 174.01,-93.2 147.19,-88.97"/>
<polygon fill="#63b8ff" stroke="#63b8ff" points="248.26,-108.46 258.68,-106.56 249.35,-101.55 248.26,-108.46"/>
</a>
</g>
</g>
<!-- Node8 -->
<g id="Node000008" class="node">
<title>Node8</title>
<g id="a_Node000008"><a xlink:href="json_8cpp.html#adbdf415c66cdae29538783127119b4c1" target="_top" xlink:title=" ">
<polygon fill="white" stroke="#666666" points="147,-56 76,-56 76,-37 147,-37 147,-56"/>
<text text-anchor="middle" x="111.5" y="-44" font-family="Helvetica,sans-Serif" font-size="10.00">TEST_CASE</text>
</a>
</g>
</g>
<!-- Node2&#45;&gt;Node8 -->
<g id="edge7_Node000002_Node000008" class="edge">
<title>Node2&#45;&gt;Node8</title>
<g id="a_edge7_Node000002_Node000008"><a xlink:title=" ">
<path fill="none" stroke="#63b8ff" d="M309.08,-100.74C285,-88.94 252.85,-74.53 223,-65.5 198.22,-58 169.36,-53.17 147.35,-50.25"/>
<polygon fill="#63b8ff" stroke="#63b8ff" points="307.7,-103.97 318.22,-105.28 310.82,-97.7 307.7,-103.97"/>
</a>
</g>
</g>
<!-- Node9 -->
<g id="Node000009" class="node">
<title>Node9</title>
<g id="a_Node000009"><a xlink:href="multimesh_2tests_2get__attributes_8cpp.html#ab58664a9c6a5969c3d97bd05c9ad2ec1" target="_top" xlink:title=" ">
<polygon fill="white" stroke="#666666" points="147,-19 76,-19 76,0 147,0 147,-19"/>
<text text-anchor="middle" x="111.5" y="-7" font-family="Helvetica,sans-Serif" font-size="10.00">TEST_CASE</text>
</a>
</g>
</g>
<!-- Node2&#45;&gt;Node9 -->
<g id="edge8_Node000002_Node000009" class="edge">
<title>Node2&#45;&gt;Node9</title>
<g id="a_edge8_Node000002_Node000009"><a xlink:title=" ">
<path fill="none" stroke="#63b8ff" d="M324.37,-98.48C300.97,-77.06 262.41,-45.36 223,-28.5 198.84,-18.16 169.43,-13.44 147.03,-11.29"/>
<polygon fill="#63b8ff" stroke="#63b8ff" points="322,-101.05 331.7,-105.31 326.77,-95.93 322,-101.05"/>
</a>
</g>
</g>
</g>
</svg>
