<?xml version="1.0" encoding="UTF-8" standalone="no"?>
<!DOCTYPE svg PUBLIC "-//W3C//DTD SVG 1.1//EN"
 "http://www.w3.org/Graphics/SVG/1.1/DTD/svg11.dtd">
<!-- Generated by graphviz version 2.43.0 (0)
 -->
<!-- Title: wmtk::Mesh::lub_map_tuples Pages: 1 -->
<!--zoomable 428 -->

<svg id="main" version="1.1" xmlns="http://www.w3.org/2000/svg" xmlns:xlink="http://www.w3.org/1999/xlink" xml:space="preserve" onload="init(evt)">
<style type="text/css"><![CDATA[
.node, .edge {opacity: 0.7;}
.node.selected, .edge.selected {opacity: 1;}
.edge:hover path { stroke: red; }
.edge:hover polygon { stroke: red; fill: red; }
]]></style>

<defs>
  <circle id="rim" cx="0" cy="0" r="7"/>
  <circle id="rim2" cx="0" cy="0" r="3.5"/>
  <g id="zoomPlus">
    <use xlink:href="#rim" fill="#404040"><set attributeName="fill" to="#808080" begin="zoomplus.mouseover" end="zoomplus.mouseout"/></use>
    <path d="M-4,0h8M0,-4v8" fill="none" stroke="white" stroke-width="1.5" pointer-events="none"/>
  </g>
  <g id="zoomMin">
    <use xlink:href="#rim" fill="#404040"><set attributeName="fill" to="#808080" begin="zoomminus.mouseover" end="zoomminus.mouseout"/></use>
    <path d="M-4,0h8" fill="none" stroke="white" stroke-width="1.5" pointer-events="none"/>
  </g>
  <g id="arrowUp" transform="translate(30 24)">
    <use xlink:href="#rim"/>
    <path pointer-events="none" fill="none" stroke="white" stroke-width="1.5" d="M0,-3.0v7 M-2.5,-0.5L0,-3.0L2.5,-0.5"/>
  </g>
  <g id="arrowRight" transform="rotate(90) translate(36 -43)">
    <use xlink:href="#rim"/>
    <path pointer-events="none" fill="none" stroke="white" stroke-width="1.5" d="M0,-3.0v7 M-2.5,-0.5L0,-3.0L2.5,-0.5"/>
  </g>
  <g id="arrowDown" transform="rotate(180) translate(-30 -48)">
    <use xlink:href="#rim"/>
    <path pointer-events="none" fill="none" stroke="white" stroke-width="1.5" d="M0,-3.0v7 M-2.5,-0.5L0,-3.0L2.5,-0.5"/>
  </g>
  <g id="arrowLeft" transform="rotate(270) translate(-36 17)">
    <use xlink:href="#rim"/>
    <path pointer-events="none" fill="none" stroke="white" stroke-width="1.5" d="M0,-3.0v7 M-2.5,-0.5L0,-3.0L2.5,-0.5"/>
  </g>
  <g id="resetDef">
    <use xlink:href="#rim2" fill="#404040"><set attributeName="fill" to="#808080" begin="reset.mouseover" end="reset.mouseout"/></use>
  </g>
</defs>
<script type="application/ecmascript">
var viewWidth = 1091;
var viewHeight = 428;
var sectionId = 'dynsection-131';
</script>
<script type="application/ecmascript" xlink:href="svg.min.js"/>
<svg id="graph" class="graph">
<g id="viewport">
<title>wmtk::Mesh::lub_map_tuples</title>
<!-- Node1 -->
<g id="Node000001" class="node">
<title>Node1</title>
<g id="a_Node000001"><a xlink:title=" ">
<polygon fill="#999999" stroke="#666666" points="125,-249 0,-249 0,-219 125,-219 125,-249"/>
<text text-anchor="start" x="8" y="-237" font-family="Helvetica,sans-Serif" font-size="10.00">wmtk::Mesh::lub_map</text>
<text text-anchor="middle" x="62.5" y="-226" font-family="Helvetica,sans-Serif" font-size="10.00">_tuples</text>
</a>
</g>
</g>
<!-- Node2 -->
<g id="Node000002" class="node">
<title>Node2</title>
<g id="a_Node000002"><a xlink:href="classwmtk_1_1_mesh.html#afca213673a7f569665d73353eae95ccc" target="_top" xlink:title="maps a simplex from this mesh to any other mesh using LUB mesh as root">
<polygon fill="white" stroke="#666666" points="286,-249 161,-249 161,-219 286,-219 286,-249"/>
<text text-anchor="start" x="169" y="-237" font-family="Helvetica,sans-Serif" font-size="10.00">wmtk::Mesh::lub_map</text>
<text text-anchor="middle" x="223.5" y="-226" font-family="Helvetica,sans-Serif" font-size="10.00">_tuples</text>
</a>
</g>
</g>
<!-- Node1&#45;&gt;Node2 -->
<g id="edge1_Node000001_Node000002" class="edge">
<title>Node1&#45;&gt;Node2</title>
<g id="a_edge1_Node000001_Node000002"><a xlink:title=" ">
<path fill="none" stroke="#63b8ff" d="M125.43,-234C133.67,-234 142.18,-234 150.58,-234"/>
<polygon fill="#63b8ff" stroke="#63b8ff" points="150.74,-237.5 160.74,-234 150.74,-230.5 150.74,-237.5"/>
</a>
</g>
</g>
<!-- Node3 -->
<g id="Node000003" class="node">
<title>Node3</title>
<g id="a_Node000003"><a xlink:href="classwmtk_1_1_mesh.html#ad054c074d4776010002321117ec459e8" target="_top" xlink:title=" ">
<polygon fill="white" stroke="#666666" points="483,-337 322,-337 322,-307 483,-307 483,-337"/>
<text text-anchor="start" x="330" y="-325" font-family="Helvetica,sans-Serif" font-size="10.00">wmtk::Mesh::is_from</text>
<text text-anchor="middle" x="402.5" y="-314" font-family="Helvetica,sans-Serif" font-size="10.00">_same_multi_mesh_structure</text>
</a>
</g>
</g>
<!-- Node2&#45;&gt;Node3 -->
<g id="edge2_Node000002_Node000003" class="edge">
<title>Node2&#45;&gt;Node3</title>
<g id="a_edge2_Node000002_Node000003"><a xlink:title=" ">
<path fill="none" stroke="#63b8ff" d="M254.93,-249.13C284.52,-263.84 329.64,-286.27 361.99,-302.36"/>
<polygon fill="#63b8ff" stroke="#63b8ff" points="360.66,-305.6 371.17,-306.92 363.78,-299.34 360.66,-305.6"/>
</a>
</g>
</g>
<!-- Node7 -->
<g id="Node000007" class="node">
<title>Node7</title>
<g id="a_Node000007"><a xlink:href="classwmtk_1_1multimesh_1_1_multi_mesh_manager.html#ab5c1f3b38daa298b1ef25867a2dcd349" target="_top" xlink:title="maps a simplex from this mesh to any other mesh using the LUB as the root">
<polygon fill="white" stroke="#666666" points="482.5,-225 322.5,-225 322.5,-195 482.5,-195 482.5,-225"/>
<text text-anchor="start" x="330.5" y="-213" font-family="Helvetica,sans-Serif" font-size="10.00">wmtk::multimesh::MultiMesh</text>
<text text-anchor="middle" x="402.5" y="-202" font-family="Helvetica,sans-Serif" font-size="10.00">Manager::lub_map_tuples</text>
</a>
</g>
</g>
<!-- Node2&#45;&gt;Node7 -->
<g id="edge7_Node000002_Node000007" class="edge">
<title>Node2&#45;&gt;Node7</title>
<g id="a_edge7_Node000002_Node000007"><a xlink:title=" ">
<path fill="none" stroke="#63b8ff" d="M286.41,-225.61C294.72,-224.48 303.37,-223.31 312.04,-222.13"/>
<polygon fill="#63b8ff" stroke="#63b8ff" points="312.77,-225.56 322.21,-220.75 311.83,-218.63 312.77,-225.56"/>
</a>
</g>
</g>
<!-- Node4 -->
<g id="Node000004" class="node">
<title>Node4</title>
<g id="a_Node000004"><a xlink:href="classwmtk_1_1_mesh.html#aac3ec1ebbe00982ddfe70cc710d8f54e" target="_top" xlink:title="returns a reference to the root of a multimesh tree">
<polygon fill="white" stroke="#666666" points="669.5,-402 540.5,-402 540.5,-372 669.5,-372 669.5,-402"/>
<text text-anchor="start" x="548.5" y="-390" font-family="Helvetica,sans-Serif" font-size="10.00">wmtk::Mesh::get_multi</text>
<text text-anchor="middle" x="605" y="-379" font-family="Helvetica,sans-Serif" font-size="10.00">_mesh_root</text>
</a>
</g>
</g>
<!-- Node3&#45;&gt;Node4 -->
<g id="edge3_Node000003_Node000004" class="edge">
<title>Node3&#45;&gt;Node4</title>
<g id="a_edge3_Node000003_Node000004"><a xlink:title=" ">
<path fill="none" stroke="#63b8ff" d="M450,-337.08C479.13,-346.52 516.84,-358.74 547.66,-368.73"/>
<polygon fill="#63b8ff" stroke="#63b8ff" points="546.81,-372.14 557.4,-371.89 548.97,-365.48 546.81,-372.14"/>
</a>
</g>
</g>
<!-- Node5 -->
<g id="Node000005" class="node">
<title>Node5</title>
<g id="a_Node000005"><a xlink:href="classwmtk_1_1multimesh_1_1_multi_mesh_manager.html#a434e74f6b295055a45914d41a784124a" target="_top" xlink:title=" ">
<polygon fill="white" stroke="#666666" points="887,-402 727,-402 727,-372 887,-372 887,-402"/>
<text text-anchor="start" x="735" y="-390" font-family="Helvetica,sans-Serif" font-size="10.00">wmtk::multimesh::MultiMesh</text>
<text text-anchor="middle" x="807" y="-379" font-family="Helvetica,sans-Serif" font-size="10.00">Manager::get_root_mesh</text>
</a>
</g>
</g>
<!-- Node4&#45;&gt;Node5 -->
<g id="edge4_Node000004_Node000005" class="edge">
<title>Node4&#45;&gt;Node5</title>
<g id="a_edge4_Node000004_Node000005"><a xlink:title=" ">
<path fill="none" stroke="#63b8ff" d="M669.56,-387C684.47,-387 700.65,-387 716.47,-387"/>
<polygon fill="#63b8ff" stroke="#63b8ff" points="716.79,-390.5 726.79,-387 716.79,-383.5 716.79,-390.5"/>
</a>
</g>
</g>
<!-- Node5&#45;&gt;Node5 -->
<g id="edge5_Node000005_Node000005" class="edge">
<title>Node5&#45;&gt;Node5</title>
<g id="a_edge5_Node000005_Node000005"><a xlink:title=" ">
<path fill="none" stroke="#63b8ff" d="M772.55,-402.28C764.89,-411.41 776.38,-420 807,-420 825.18,-420 836.62,-416.97 841.31,-412.6"/>
<polygon fill="#63b8ff" stroke="#63b8ff" points="844.81,-412.32 841.45,-402.28 837.81,-412.22 844.81,-412.32"/>
</a>
</g>
</g>
<!-- Node6 -->
<g id="Node000006" class="node">
<title>Node6</title>
<g id="a_Node000006"><a xlink:href="classwmtk_1_1multimesh_1_1_multi_mesh_manager.html#a7d39339adb56b1798fe817d81bfcc67c" target="_top" xlink:title="Specifies whether this structure is the root of a multi&#45;mesh tree.">
<polygon fill="white" stroke="#666666" points="1083,-369 923,-369 923,-339 1083,-339 1083,-369"/>
<text text-anchor="start" x="931" y="-357" font-family="Helvetica,sans-Serif" font-size="10.00">wmtk::multimesh::MultiMesh</text>
<text text-anchor="middle" x="1003" y="-346" font-family="Helvetica,sans-Serif" font-size="10.00">Manager::is_root</text>
</a>
</g>
</g>
<!-- Node5&#45;&gt;Node6 -->
<g id="edge6_Node000005_Node000006" class="edge">
<title>Node5&#45;&gt;Node6</title>
<g id="a_edge6_Node000005_Node000006"><a xlink:title=" ">
<path fill="none" stroke="#63b8ff" d="M887.19,-373.53C895.62,-372.1 904.24,-370.63 912.78,-369.18"/>
<polygon fill="#63b8ff" stroke="#63b8ff" points="913.48,-372.61 922.75,-367.48 912.31,-365.71 913.48,-372.61"/>
</a>
</g>
</g>
<!-- Node8 -->
<g id="Node000008" class="node">
<title>Node8</title>
<g id="a_Node000008"><a xlink:href="classwmtk_1_1multimesh_1_1_multi_mesh_manager.html#a812e0992812b2c48a889e10ae9e50758" target="_top" xlink:title=" ">
<polygon fill="white" stroke="#666666" points="887,-336 727,-336 727,-306 887,-306 887,-336"/>
<text text-anchor="start" x="735" y="-324" font-family="Helvetica,sans-Serif" font-size="10.00">wmtk::multimesh::MultiMesh</text>
<text text-anchor="middle" x="807" y="-313" font-family="Helvetica,sans-Serif" font-size="10.00">Manager::absolute_id</text>
</a>
</g>
</g>
<!-- Node7&#45;&gt;Node8 -->
<g id="edge8_Node000007_Node000008" class="edge">
<title>Node7&#45;&gt;Node8</title>
<g id="a_edge8_Node000007_Node000008"><a xlink:title=" ">
<path fill="none" stroke="#63b8ff" d="M416.08,-225.13C440.38,-253.88 493.63,-314.52 519,-325 586.7,-352.96 671.28,-347.49 731.04,-337.76"/>
<polygon fill="#63b8ff" stroke="#63b8ff" points="731.88,-341.17 741.15,-336.04 730.7,-334.27 731.88,-341.17"/>
</a>
</g>
</g>
<!-- Node9 -->
<g id="Node000009" class="node">
<title>Node9</title>
<g id="a_Node000009"><a xlink:href="classwmtk_1_1_mesh.html#a2102fdea06a0c543437e67d77aeb2013" target="_top" xlink:title="returns a unique identifier for this mesh within a single multimesh structure">
<polygon fill="white" stroke="#666666" points="667.5,-316 542.5,-316 542.5,-286 667.5,-286 667.5,-316"/>
<text text-anchor="start" x="550.5" y="-304" font-family="Helvetica,sans-Serif" font-size="10.00">wmtk::Mesh::absolute</text>
<text text-anchor="middle" x="605" y="-293" font-family="Helvetica,sans-Serif" font-size="10.00">_multi_mesh_id</text>
</a>
</g>
</g>
<!-- Node7&#45;&gt;Node9 -->
<g id="edge11_Node000007_Node000009" class="edge">
<title>Node7&#45;&gt;Node9</title>
<g id="a_edge11_Node000007_Node000009"><a xlink:title=" ">
<path fill="none" stroke="#63b8ff" d="M425.64,-225.1C448.27,-239.98 484.84,-262.54 519,-277 523.73,-279 528.68,-280.89 533.71,-282.67"/>
<polygon fill="#63b8ff" stroke="#63b8ff" points="532.85,-286.07 543.45,-285.93 535.08,-279.43 532.85,-286.07"/>
</a>
</g>
</g>
<!-- Node10 -->
<g id="Node000010" class="node">
<title>Node10</title>
<g id="a_Node000010"><a xlink:href="classwmtk_1_1multimesh_1_1_multi_mesh_manager.html#a4f99281b52dfca1c9baff535917d58a7" target="_top" xlink:title=" ">
<polygon fill="white" stroke="#666666" points="887,-247 727,-247 727,-217 887,-217 887,-247"/>
<text text-anchor="start" x="735" y="-235" font-family="Helvetica,sans-Serif" font-size="10.00">wmtk::multimesh::MultiMesh</text>
<text text-anchor="middle" x="807" y="-224" font-family="Helvetica,sans-Serif" font-size="10.00">Manager::is_child</text>
</a>
</g>
</g>
<!-- Node7&#45;&gt;Node10 -->
<g id="edge13_Node000007_Node000010" class="edge">
<title>Node7&#45;&gt;Node10</title>
<g id="a_edge13_Node000007_Node000010"><a xlink:title=" ">
<path fill="none" stroke="#63b8ff" d="M482.54,-214.32C549.86,-218 646.54,-223.28 716.65,-227.12"/>
<polygon fill="#63b8ff" stroke="#63b8ff" points="716.62,-230.62 726.8,-227.67 717,-223.63 716.62,-230.62"/>
</a>
</g>
</g>
<!-- Node11 -->
<g id="Node000011" class="node">
<title>Node11</title>
<g id="a_Node000011"><a xlink:href="classwmtk_1_1multimesh_1_1_multi_mesh_manager.html#a81d71e39e4f82968119c346e4f1ebda9" target="_top" xlink:title=" ">
<polygon fill="white" stroke="#666666" points="691,-182 519,-182 519,-152 691,-152 691,-182"/>
<text text-anchor="start" x="527" y="-170" font-family="Helvetica,sans-Serif" font-size="10.00">wmtk::multimesh::MultiMesh</text>
<text text-anchor="middle" x="605" y="-159" font-family="Helvetica,sans-Serif" font-size="10.00">Manager::least_upper_bound_id</text>
</a>
</g>
</g>
<!-- Node7&#45;&gt;Node11 -->
<g id="edge14_Node000007_Node000011" class="edge">
<title>Node7&#45;&gt;Node11</title>
<g id="a_edge14_Node000007_Node000011"><a xlink:title=" ">
<path fill="none" stroke="#63b8ff" d="M473.63,-194.96C489.8,-191.49 507.14,-187.77 523.71,-184.22"/>
<polygon fill="#63b8ff" stroke="#63b8ff" points="524.87,-187.55 533.91,-182.03 523.4,-180.71 524.87,-187.55"/>
</a>
</g>
</g>
<!-- Node12 -->
<g id="Node000012" class="node">
<title>Node12</title>
<g id="a_Node000012"><a xlink:href="classwmtk_1_1multimesh_1_1_multi_mesh_manager.html#aefe5179057c978e227c3349d13578c4a" target="_top" xlink:title=" ">
<polygon fill="white" stroke="#666666" points="685,-116 525,-116 525,-86 685,-86 685,-116"/>
<text text-anchor="start" x="533" y="-104" font-family="Helvetica,sans-Serif" font-size="10.00">wmtk::multimesh::MultiMesh</text>
<text text-anchor="middle" x="605" y="-93" font-family="Helvetica,sans-Serif" font-size="10.00">Manager::map_up_to_tuples</text>
</a>
</g>
</g>
<!-- Node7&#45;&gt;Node12 -->
<g id="edge15_Node000007_Node000012" class="edge">
<title>Node7&#45;&gt;Node12</title>
<g id="a_edge15_Node000007_Node000012"><a xlink:title=" ">
<path fill="none" stroke="#63b8ff" d="M428.46,-194.87C451.67,-180.96 487.34,-159.98 519,-143 533.28,-135.34 549.14,-127.36 563.27,-120.44"/>
<polygon fill="#63b8ff" stroke="#63b8ff" points="564.8,-123.59 572.26,-116.06 561.74,-117.29 564.8,-123.59"/>
</a>
</g>
</g>
<!-- Node13 -->
<g id="Node000013" class="node">
<title>Node13</title>
<g id="a_Node000013"><a xlink:href="classwmtk_1_1simplex_1_1_simplex.html#aca78b1fb0a3c28c0036cf7919bfb0789" target="_top" xlink:title=" ">
<polygon fill="white" stroke="#666666" points="874.5,-95 739.5,-95 739.5,-65 874.5,-65 874.5,-95"/>
<text text-anchor="start" x="747.5" y="-83" font-family="Helvetica,sans-Serif" font-size="10.00">wmtk::simplex::Simplex</text>
<text text-anchor="middle" x="807" y="-72" font-family="Helvetica,sans-Serif" font-size="10.00">::tuple</text>
</a>
</g>
</g>
<!-- Node7&#45;&gt;Node13 -->
<g id="edge21_Node000007_Node000013" class="edge">
<title>Node7&#45;&gt;Node13</title>
<g id="a_edge21_Node000007_Node000013"><a xlink:title=" ">
<path fill="none" stroke="#63b8ff" d="M411.04,-194.71C426.52,-165.3 465.02,-101.62 519,-77 587.36,-45.83 674.75,-52.41 735.05,-63.1"/>
<polygon fill="#63b8ff" stroke="#63b8ff" points="734.76,-66.6 745.23,-64.99 736.03,-59.72 734.76,-66.6"/>
</a>
</g>
</g>
<!-- Node14 -->
<g id="Node000014" class="node">
<title>Node14</title>
<g id="a_Node000014"><a xlink:href="classwmtk_1_1simplex_1_1_simplex.html#ad2cc0340a0772b7d6f03ba7a781d1163" target="_top" xlink:title=" ">
<polygon fill="white" stroke="#666666" points="672.5,-30 537.5,-30 537.5,0 672.5,0 672.5,-30"/>
<text text-anchor="start" x="545.5" y="-18" font-family="Helvetica,sans-Serif" font-size="10.00">wmtk::simplex::Simplex</text>
<text text-anchor="middle" x="605" y="-7" font-family="Helvetica,sans-Serif" font-size="10.00">::primitive_type</text>
</a>
</g>
</g>
<!-- Node7&#45;&gt;Node14 -->
<g id="edge18_Node000007_Node000014" class="edge">
<title>Node7&#45;&gt;Node14</title>
<g id="a_edge18_Node000007_Node000014"><a xlink:title=" ">
<path fill="none" stroke="#63b8ff" d="M410.05,-194.74C424.75,-162.26 463.49,-85.84 519,-44 523.79,-40.39 529.05,-37.22 534.54,-34.42"/>
<polygon fill="#63b8ff" stroke="#63b8ff" points="536.35,-37.44 543.96,-30.07 533.41,-31.09 536.35,-37.44"/>
</a>
</g>
</g>
<!-- Node15 -->
<g id="Node000015" class="node">
<title>Node15</title>
<g id="a_Node000015"><a xlink:href="classwmtk_1_1multimesh_1_1_multi_mesh_manager.html#ab29db13e4be68177d7ae3c188d7b275e" target="_top" xlink:title=" ">
<polygon fill="white" stroke="#666666" points="685,-268 525,-268 525,-238 685,-238 685,-268"/>
<text text-anchor="start" x="533" y="-256" font-family="Helvetica,sans-Serif" font-size="10.00">wmtk::multimesh::MultiMesh</text>
<text text-anchor="middle" x="605" y="-245" font-family="Helvetica,sans-Serif" font-size="10.00">Manager::relative_id</text>
</a>
</g>
</g>
<!-- Node7&#45;&gt;Node15 -->
<g id="edge19_Node000007_Node000015" class="edge">
<title>Node7&#45;&gt;Node15</title>
<g id="a_edge19_Node000007_Node000015"><a xlink:title=" ">
<path fill="none" stroke="#63b8ff" d="M473.63,-225.04C489.8,-228.51 507.14,-232.23 523.71,-235.78"/>
<polygon fill="#63b8ff" stroke="#63b8ff" points="523.4,-239.29 533.91,-237.97 524.87,-232.45 523.4,-239.29"/>
</a>
</g>
</g>
<!-- Node8&#45;&gt;Node6 -->
<g id="edge10_Node000008_Node000006" class="edge">
<title>Node8&#45;&gt;Node6</title>
<g id="a_edge10_Node000008_Node000006"><a xlink:title=" ">
<path fill="none" stroke="#63b8ff" d="M887.19,-334.47C895.62,-335.9 904.24,-337.37 912.78,-338.82"/>
<polygon fill="#63b8ff" stroke="#63b8ff" points="912.31,-342.29 922.75,-340.52 913.48,-335.39 912.31,-342.29"/>
</a>
</g>
</g>
<!-- Node8&#45;&gt;Node8 -->
<g id="edge9_Node000008_Node000008" class="edge">
<title>Node8&#45;&gt;Node8</title>
<g id="a_edge9_Node000008_Node000008"><a xlink:title=" ">
<path fill="none" stroke="#63b8ff" d="M772.55,-336.28C764.89,-345.41 776.38,-354 807,-354 825.18,-354 836.62,-350.97 841.31,-346.6"/>
<polygon fill="#63b8ff" stroke="#63b8ff" points="844.81,-346.32 841.45,-336.28 837.81,-346.22 844.81,-346.32"/>
</a>
</g>
</g>
<!-- Node9&#45;&gt;Node8 -->
<g id="edge12_Node000009_Node000008" class="edge">
<title>Node9&#45;&gt;Node8</title>
<g id="a_edge12_Node000009_Node000008"><a xlink:title=" ">
<path fill="none" stroke="#63b8ff" d="M667.64,-307.16C683.13,-308.71 700.07,-310.41 716.62,-312.06"/>
<polygon fill="#63b8ff" stroke="#63b8ff" points="716.56,-315.57 726.86,-313.09 717.26,-308.61 716.56,-315.57"/>
</a>
</g>
</g>
<!-- Node12&#45;&gt;Node12 -->
<g id="edge16_Node000012_Node000012" class="edge">
<title>Node12&#45;&gt;Node12</title>
<g id="a_edge16_Node000012_Node000012"><a xlink:title=" ">
<path fill="none" stroke="#63b8ff" d="M569.49,-116.28C561.6,-125.41 573.44,-134 605,-134 623.74,-134 635.53,-130.97 640.36,-126.6"/>
<polygon fill="#63b8ff" stroke="#63b8ff" points="643.86,-126.33 640.51,-116.28 636.86,-126.22 643.86,-126.33"/>
</a>
</g>
</g>
<!-- Node12&#45;&gt;Node13 -->
<g id="edge17_Node000012_Node000013" class="edge">
<title>Node12&#45;&gt;Node13</title>
<g id="a_edge17_Node000012_Node000013"><a xlink:title=" ">
<path fill="none" stroke="#63b8ff" d="M685.05,-92.7C699.68,-91.16 714.95,-89.56 729.51,-88.03"/>
<polygon fill="#63b8ff" stroke="#63b8ff" points="729.88,-91.51 739.46,-86.99 729.15,-84.55 729.88,-91.51"/>
</a>
</g>
</g>
<!-- Node15&#45;&gt;Node10 -->
<g id="edge20_Node000015_Node000010" class="edge">
<title>Node15&#45;&gt;Node10</title>
<g id="a_edge20_Node000015_Node000010"><a xlink:title=" ">
<path fill="none" stroke="#63b8ff" d="M685.05,-244.7C695.47,-243.61 706.21,-242.48 716.8,-241.37"/>
<polygon fill="#63b8ff" stroke="#63b8ff" points="717.29,-244.83 726.87,-240.31 716.56,-237.87 717.29,-244.83"/>
</a>
</g>
</g>
</g>
</svg>

<g id="navigator" transform="translate(0 0)" fill="#404254">
  <rect fill="#f2f5e9" fill-opacity="0.5" stroke="#606060" stroke-width=".5" x="0" y="0" width="60" height="60"/>
  <use id="zoomplus" xlink:href="#zoomPlus" x="17" y="9" onmousedown="handleZoom(evt,'in')"/>
  <use id="zoomminus" xlink:href="#zoomMin" x="42" y="9" onmousedown="handleZoom(evt,'out')"/>
  <use id="reset" xlink:href="#resetDef" x="30" y="36" onmousedown="handleReset()"/>
   <use id="arrowup" xlink:href="#arrowUp" x="0" y="0" onmousedown="handlePan(0,-1)"/>
  <use id="arrowright" xlink:href="#arrowRight" x="0" y="0" onmousedown="handlePan(1,0)"/>
  <use id="arrowdown" xlink:href="#arrowDown" x="0" y="0" onmousedown="handlePan(0,1)"/>
  <use id="arrowleft" xlink:href="#arrowLeft" x="0" y="0" onmousedown="handlePan(-1,0)"/>
</g>
<svg viewBox="0 0 15 15" width="100%" height="30px" preserveAspectRatio="xMaxYMin meet">
 <g id="arrow_out" transform="scale(0.3 0.3)">
  <a xlink:href="classwmtk_1_1_mesh_a200e9023103df15f15802116aa19ec03_cgraph_org.svg" target="_base">
   <rect id="button" ry="5" rx="5" y="6" x="6" height="38" width="38"
        fill="#f2f5e9" fill-opacity="0.5" stroke="#606060" stroke-width="1.0"/>
   <path id="arrow"
     d="M 11.500037,31.436501 C 11.940474,20.09759 22.043105,11.32322 32.158766,21.979434 L 37.068811,17.246167 C 37.068811,17.246167 37.088388,32 37.088388,32 L 22.160133,31.978069 C 22.160133,31.978069 26.997745,27.140456 26.997745,27.140456 C 18.528582,18.264221 13.291696,25.230495 11.500037,31.436501 z"
     style="fill:#404040;"/>
  </a>
 </g>
</svg>

<style type='text/css'>
<![CDATA[
[data-mouse-over-selected='false'] { opacity: 0.7; }
[data-mouse-over-selected='true']  { opacity: 1.0; }
]]>
</style>
<script type="application/ecmascript"><![CDATA[
document.addEventListener('DOMContentLoaded', (event) => {
  highlightEdges();
  highlightAdjacentNodes();
});
]]></script>
</svg>
