<?xml version="1.0" encoding="UTF-8" standalone="no"?>
<!DOCTYPE svg PUBLIC "-//W3C//DTD SVG 1.1//EN"
 "http://www.w3.org/Graphics/SVG/1.1/DTD/svg11.dtd">
<!-- Generated by graphviz version 2.43.0 (0)
 -->
<!-- Title: wmtk::components::multimesh::NamedMultiMesh::get_name Pages: 1 -->
<!--zoomable 326 -->

<svg id="main" version="1.1" xmlns="http://www.w3.org/2000/svg" xmlns:xlink="http://www.w3.org/1999/xlink" xml:space="preserve" onload="init(evt)">
<style type="text/css"><![CDATA[
.node, .edge {opacity: 0.7;}
.node.selected, .edge.selected {opacity: 1;}
.edge:hover path { stroke: red; }
.edge:hover polygon { stroke: red; fill: red; }
]]></style>

<defs>
  <circle id="rim" cx="0" cy="0" r="7"/>
  <circle id="rim2" cx="0" cy="0" r="3.5"/>
  <g id="zoomPlus">
    <use xlink:href="#rim" fill="#404040"><set attributeName="fill" to="#808080" begin="zoomplus.mouseover" end="zoomplus.mouseout"/></use>
    <path d="M-4,0h8M0,-4v8" fill="none" stroke="white" stroke-width="1.5" pointer-events="none"/>
  </g>
  <g id="zoomMin">
    <use xlink:href="#rim" fill="#404040"><set attributeName="fill" to="#808080" begin="zoomminus.mouseover" end="zoomminus.mouseout"/></use>
    <path d="M-4,0h8" fill="none" stroke="white" stroke-width="1.5" pointer-events="none"/>
  </g>
  <g id="arrowUp" transform="translate(30 24)">
    <use xlink:href="#rim"/>
    <path pointer-events="none" fill="none" stroke="white" stroke-width="1.5" d="M0,-3.0v7 M-2.5,-0.5L0,-3.0L2.5,-0.5"/>
  </g>
  <g id="arrowRight" transform="rotate(90) translate(36 -43)">
    <use xlink:href="#rim"/>
    <path pointer-events="none" fill="none" stroke="white" stroke-width="1.5" d="M0,-3.0v7 M-2.5,-0.5L0,-3.0L2.5,-0.5"/>
  </g>
  <g id="arrowDown" transform="rotate(180) translate(-30 -48)">
    <use xlink:href="#rim"/>
    <path pointer-events="none" fill="none" stroke="white" stroke-width="1.5" d="M0,-3.0v7 M-2.5,-0.5L0,-3.0L2.5,-0.5"/>
  </g>
  <g id="arrowLeft" transform="rotate(270) translate(-36 17)">
    <use xlink:href="#rim"/>
    <path pointer-events="none" fill="none" stroke="white" stroke-width="1.5" d="M0,-3.0v7 M-2.5,-0.5L0,-3.0L2.5,-0.5"/>
  </g>
  <g id="resetDef">
    <use xlink:href="#rim2" fill="#404040"><set attributeName="fill" to="#808080" begin="reset.mouseover" end="reset.mouseout"/></use>
  </g>
</defs>
<script type="application/ecmascript">
var viewWidth = 588;
var viewHeight = 326;
var sectionId = 'dynsection-14';
</script>
<script type="application/ecmascript" xlink:href="svg.min.js"/>
<svg id="graph" class="graph">
<g id="viewport">
<title>wmtk::components::multimesh::NamedMultiMesh::get_name</title>
<!-- Node1 -->
<g id="Node000001" class="node">
<title>Node1</title>
<g id="a_Node000001"><a xlink:title=" ">
<polygon fill="#999999" stroke="#666666" points="580,-174 411,-174 411,-144 580,-144 580,-174"/>
<text text-anchor="start" x="419" y="-162" font-family="Helvetica,sans-Serif" font-size="10.00">wmtk::components::multimesh</text>
<text text-anchor="middle" x="495.5" y="-151" font-family="Helvetica,sans-Serif" font-size="10.00">::NamedMultiMesh::get_name</text>
</a>
</g>
</g>
<!-- Node2 -->
<g id="Node000002" class="node">
<title>Node2</title>
<g id="a_Node000002"><a xlink:href="classwmtk_1_1components_1_1multimesh_1_1_named_multi_mesh.html#a6ec9aa246e6ca30a7c6288c3cbb3c6d6" target="_top" xlink:title=" ">
<polygon fill="white" stroke="#666666" points="375,-318 205,-318 205,-288 375,-288 375,-318"/>
<text text-anchor="start" x="213" y="-306" font-family="Helvetica,sans-Serif" font-size="10.00">wmtk::components::multimesh</text>
<text text-anchor="middle" x="290" y="-295" font-family="Helvetica,sans-Serif" font-size="10.00">::NamedMultiMesh::all_meshes</text>
</a>
</g>
</g>
<!-- Node1&#45;&gt;Node2 -->
<g id="edge1_Node000001_Node000002" class="edge">
<title>Node1&#45;&gt;Node2</title>
<g id="a_edge1_Node000001_Node000002"><a xlink:title=" ">
<path fill="none" stroke="#63b8ff" d="M477.21,-182.54C456.05,-209.68 417.73,-253.8 375,-279 369.25,-282.39 363,-285.32 356.58,-287.86"/>
<polygon fill="#63b8ff" stroke="#63b8ff" points="480.16,-184.44 483.46,-174.37 474.6,-180.18 480.16,-184.44"/>
</a>
</g>
</g>
<!-- Node3 -->
<g id="Node000003" class="node">
<title>Node3</title>
<g id="a_Node000003"><a xlink:href="classwmtk_1_1components_1_1multimesh_1_1_named_multi_mesh.html#a1f0edcc8f1da21aaa1449fbd1c1a4059" target="_top" xlink:title=" ">
<polygon fill="white" stroke="#666666" points="375,-270 205,-270 205,-240 375,-240 375,-270"/>
<text text-anchor="start" x="213" y="-258" font-family="Helvetica,sans-Serif" font-size="10.00">wmtk::components::multimesh</text>
<text text-anchor="middle" x="290" y="-247" font-family="Helvetica,sans-Serif" font-size="10.00">::NamedMultiMesh::all_meshes</text>
</a>
</g>
</g>
<!-- Node1&#45;&gt;Node3 -->
<g id="edge2_Node000001_Node000003" class="edge">
<title>Node1&#45;&gt;Node3</title>
<g id="a_edge2_Node000001_Node000003"><a xlink:title=" ">
<path fill="none" stroke="#63b8ff" d="M464.95,-179.83C441.46,-195.63 407.3,-216.95 375,-231 367.49,-234.27 359.41,-237.22 351.34,-239.85"/>
<polygon fill="#63b8ff" stroke="#63b8ff" points="467.11,-182.6 473.41,-174.07 463.17,-176.81 467.11,-182.6"/>
</a>
</g>
</g>
<!-- Node4 -->
<g id="Node000004" class="node">
<title>Node4</title>
<g id="a_Node000004"><a xlink:href="namespacewmtk_1_1components_1_1multimesh_1_1utils.html#a7156a75d6bd02943bfacfe462098324e" target="_top" xlink:title=" ">
<polygon fill="white" stroke="#666666" points="374.5,-222 205.5,-222 205.5,-192 374.5,-192 374.5,-222"/>
<text text-anchor="start" x="213.5" y="-210" font-family="Helvetica,sans-Serif" font-size="10.00">wmtk::components::multimesh</text>
<text text-anchor="middle" x="290" y="-199" font-family="Helvetica,sans-Serif" font-size="10.00">::utils::get_attribute_handle</text>
</a>
</g>
</g>
<!-- Node1&#45;&gt;Node4 -->
<g id="edge3_Node000001_Node000004" class="edge">
<title>Node1&#45;&gt;Node4</title>
<g id="a_edge3_Node000001_Node000004"><a xlink:title=" ">
<path fill="none" stroke="#63b8ff" d="M420.85,-176.37C399.15,-181.49 375.61,-187.04 354.6,-192"/>
<polygon fill="#63b8ff" stroke="#63b8ff" points="421.74,-179.76 430.67,-174.06 420.13,-172.95 421.74,-179.76"/>
</a>
</g>
</g>
<!-- Node5 -->
<g id="Node000005" class="node">
<title>Node5</title>
<g id="a_Node000005"><a xlink:href="classwmtk_1_1components_1_1multimesh_1_1_named_multi_mesh.html#ad371246a12bc961ac93f1fc8e702cd6e" target="_top" xlink:title=" ">
<polygon fill="white" stroke="#666666" points="374.5,-174 205.5,-174 205.5,-144 374.5,-144 374.5,-174"/>
<text text-anchor="start" x="213.5" y="-162" font-family="Helvetica,sans-Serif" font-size="10.00">wmtk::components::multimesh</text>
<text text-anchor="middle" x="290" y="-151" font-family="Helvetica,sans-Serif" font-size="10.00">::NamedMultiMesh::get_path</text>
</a>
</g>
</g>
<!-- Node1&#45;&gt;Node5 -->
<g id="edge4_Node000001_Node000005" class="edge">
<title>Node1&#45;&gt;Node5</title>
<g id="a_edge4_Node000001_Node000005"><a xlink:title=" ">
<path fill="none" stroke="#63b8ff" d="M400.7,-159C392.01,-159 383.24,-159 374.66,-159"/>
<polygon fill="#63b8ff" stroke="#63b8ff" points="400.85,-162.5 410.85,-159 400.85,-155.5 400.85,-162.5"/>
</a>
</g>
</g>
<!-- Node6 -->
<g id="Node000006" class="node">
<title>Node6</title>
<g id="a_Node000006"><a xlink:href="namespacewmtk_1_1components_1_1input.html#a983def0b1b64614b2f2b91d18045f13a" target="_top" xlink:title=" ">
<polygon fill="white" stroke="#666666" points="360.5,-126 219.5,-126 219.5,-96 360.5,-96 360.5,-126"/>
<text text-anchor="start" x="227.5" y="-114" font-family="Helvetica,sans-Serif" font-size="10.00">wmtk::components::input</text>
<text text-anchor="middle" x="290" y="-103" font-family="Helvetica,sans-Serif" font-size="10.00">::input</text>
</a>
</g>
</g>
<!-- Node1&#45;&gt;Node6 -->
<g id="edge5_Node000001_Node000006" class="edge">
<title>Node1&#45;&gt;Node6</title>
<g id="a_edge5_Node000001_Node000006"><a xlink:title=" ">
<path fill="none" stroke="#63b8ff" d="M420.85,-141.63C399.15,-136.51 375.61,-130.96 354.6,-126"/>
<polygon fill="#63b8ff" stroke="#63b8ff" points="420.13,-145.05 430.67,-143.94 421.74,-138.24 420.13,-145.05"/>
</a>
</g>
</g>
<!-- Node7 -->
<g id="Node000007" class="node">
<title>Node7</title>
<g id="a_Node000007"><a xlink:href="classwmtk_1_1components_1_1multimesh_1_1_named_multi_mesh.html#a55e9cb94892a7dac9efeb35a307e4149" target="_top" xlink:title=" ">
<polygon fill="white" stroke="#666666" points="374.5,-78 205.5,-78 205.5,-48 374.5,-48 374.5,-78"/>
<text text-anchor="start" x="213.5" y="-66" font-family="Helvetica,sans-Serif" font-size="10.00">wmtk::components::multimesh</text>
<text text-anchor="middle" x="290" y="-55" font-family="Helvetica,sans-Serif" font-size="10.00">::NamedMultiMesh::is_valid</text>
</a>
</g>
</g>
<!-- Node1&#45;&gt;Node7 -->
<g id="edge6_Node000001_Node000007" class="edge">
<title>Node1&#45;&gt;Node7</title>
<g id="a_edge6_Node000001_Node000007"><a xlink:title=" ">
<path fill="none" stroke="#63b8ff" d="M464.95,-138.17C441.46,-122.37 407.3,-101.05 375,-87 367.49,-83.73 359.41,-80.78 351.34,-78.15"/>
<polygon fill="#63b8ff" stroke="#63b8ff" points="463.17,-141.19 473.41,-143.93 467.11,-135.4 463.17,-141.19"/>
</a>
</g>
</g>
<!-- Node8 -->
<g id="Node000008" class="node">
<title>Node8</title>
<g id="a_Node000008"><a xlink:href="classwmtk_1_1components_1_1multimesh_1_1_named_multi_mesh.html#a4040f237867ca303d2c596b7296c39b5" target="_top" xlink:title=" ">
<polygon fill="white" stroke="#666666" points="374.5,-30 205.5,-30 205.5,0 374.5,0 374.5,-30"/>
<text text-anchor="start" x="213.5" y="-18" font-family="Helvetica,sans-Serif" font-size="10.00">wmtk::components::multimesh</text>
<text text-anchor="middle" x="290" y="-7" font-family="Helvetica,sans-Serif" font-size="10.00">::NamedMultiMesh::name</text>
</a>
</g>
</g>
<!-- Node1&#45;&gt;Node8 -->
<g id="edge7_Node000001_Node000008" class="edge">
<title>Node1&#45;&gt;Node8</title>
<g id="a_edge7_Node000001_Node000008"><a xlink:title=" ">
<path fill="none" stroke="#63b8ff" d="M477.21,-135.46C456.05,-108.32 417.73,-64.2 375,-39 369.25,-35.61 363,-32.68 356.58,-30.14"/>
<polygon fill="#63b8ff" stroke="#63b8ff" points="474.6,-137.82 483.46,-143.63 480.16,-133.56 474.6,-137.82"/>
</a>
</g>
</g>
<!-- Node9 -->
<g id="Node000009" class="node">
<title>Node9</title>
<g id="a_Node000009"><a xlink:href="classwmtk_1_1components_1_1multimesh_1_1_named_multi_mesh.html#a4aa9e54e85bd0dffbafc6fdc2eb6a6c2" target="_top" xlink:title=" ">
<polygon fill="white" stroke="#666666" points="169,-30 0,-30 0,0 169,0 169,-30"/>
<text text-anchor="start" x="8" y="-18" font-family="Helvetica,sans-Serif" font-size="10.00">wmtk::components::multimesh</text>
<text text-anchor="middle" x="84.5" y="-7" font-family="Helvetica,sans-Serif" font-size="10.00">::NamedMultiMesh::set_name</text>
</a>
</g>
</g>
<!-- Node8&#45;&gt;Node9 -->
<g id="edge8_Node000008_Node000009" class="edge">
<title>Node8&#45;&gt;Node9</title>
<g id="a_edge8_Node000008_Node000009"><a xlink:title=" ">
<path fill="none" stroke="#63b8ff" d="M195.2,-15C186.51,-15 177.74,-15 169.16,-15"/>
<polygon fill="#63b8ff" stroke="#63b8ff" points="195.35,-18.5 205.35,-15 195.35,-11.5 195.35,-18.5"/>
</a>
</g>
</g>
</g>
</svg>

<g id="navigator" transform="translate(0 0)" fill="#404254">
  <rect fill="#f2f5e9" fill-opacity="0.5" stroke="#606060" stroke-width=".5" x="0" y="0" width="60" height="60"/>
  <use id="zoomplus" xlink:href="#zoomPlus" x="17" y="9" onmousedown="handleZoom(evt,'in')"/>
  <use id="zoomminus" xlink:href="#zoomMin" x="42" y="9" onmousedown="handleZoom(evt,'out')"/>
  <use id="reset" xlink:href="#resetDef" x="30" y="36" onmousedown="handleReset()"/>
   <use id="arrowup" xlink:href="#arrowUp" x="0" y="0" onmousedown="handlePan(0,-1)"/>
  <use id="arrowright" xlink:href="#arrowRight" x="0" y="0" onmousedown="handlePan(1,0)"/>
  <use id="arrowdown" xlink:href="#arrowDown" x="0" y="0" onmousedown="handlePan(0,1)"/>
  <use id="arrowleft" xlink:href="#arrowLeft" x="0" y="0" onmousedown="handlePan(-1,0)"/>
</g>
<svg viewBox="0 0 15 15" width="100%" height="30px" preserveAspectRatio="xMaxYMin meet">
 <g id="arrow_out" transform="scale(0.3 0.3)">
  <a xlink:href="classwmtk_1_1components_1_1multimesh_1_1_named_multi_mesh_a15f433f83192efb922875a8a86e93294_icgraph_org.svg" target="_base">
   <rect id="button" ry="5" rx="5" y="6" x="6" height="38" width="38"
        fill="#f2f5e9" fill-opacity="0.5" stroke="#606060" stroke-width="1.0"/>
   <path id="arrow"
     d="M 11.500037,31.436501 C 11.940474,20.09759 22.043105,11.32322 32.158766,21.979434 L 37.068811,17.246167 C 37.068811,17.246167 37.088388,32 37.088388,32 L 22.160133,31.978069 C 22.160133,31.978069 26.997745,27.140456 26.997745,27.140456 C 18.528582,18.264221 13.291696,25.230495 11.500037,31.436501 z"
     style="fill:#404040;"/>
  </a>
 </g>
</svg>

<style type='text/css'>
<![CDATA[
[data-mouse-over-selected='false'] { opacity: 0.7; }
[data-mouse-over-selected='true']  { opacity: 1.0; }
]]>
</style>
<script type="application/ecmascript"><![CDATA[
document.addEventListener('DOMContentLoaded', (event) => {
  highlightEdges();
  highlightAdjacentNodes();
});
]]></script>
</svg>
