<?xml version="1.0" encoding="UTF-8" standalone="no"?>
<!DOCTYPE svg PUBLIC "-//W3C//DTD SVG 1.1//EN"
 "http://www.w3.org/Graphics/SVG/1.1/DTD/svg11.dtd">
<!-- Generated by graphviz version 2.43.0 (0)
 -->
<!-- Title: wmtk::operations::utils::UpdateEdgeOperationMultiMeshMapFunctor::update_ear_replacement Pages: 1 -->
<svg width="1681pt" height="689pt"
 viewBox="0.00 0.00 1681.00 688.50" xmlns="http://www.w3.org/2000/svg" xmlns:xlink="http://www.w3.org/1999/xlink">
<g id="graph0" class="graph" transform="scale(1 1) rotate(0) translate(4 684.5)">
<title>wmtk::operations::utils::UpdateEdgeOperationMultiMeshMapFunctor::update_ear_replacement</title>
<!-- Node1 -->
<g id="Node000001" class="node">
<title>Node1</title>
<g id="a_Node000001"><a xlink:title=" ">
<polygon fill="#999999" stroke="#666666" points="201,-484.5 0,-484.5 0,-443.5 201,-443.5 201,-484.5"/>
<text text-anchor="start" x="8" y="-472.5" font-family="Helvetica,sans-Serif" font-size="10.00">wmtk::operations::utils</text>
<text text-anchor="start" x="8" y="-461.5" font-family="Helvetica,sans-Serif" font-size="10.00">::UpdateEdgeOperationMultiMesh</text>
<text text-anchor="middle" x="100.5" y="-450.5" font-family="Helvetica,sans-Serif" font-size="10.00">MapFunctor::update_ear_replacement</text>
</a>
</g>
</g>
<!-- Node2 -->
<g id="Node000002" class="node">
<title>Node2</title>
<g id="a_Node000002"><a xlink:href="classwmtk_1_1_mesh.html#ae897154d1c035113188f81c201fa44c6" target="_top" xlink:title="returns the direct multimesh child meshes for the current mesh">
<polygon fill="white" stroke="#666666" points="375.5,-629 248.5,-629 248.5,-599 375.5,-599 375.5,-629"/>
<text text-anchor="start" x="256.5" y="-617" font-family="Helvetica,sans-Serif" font-size="10.00">wmtk::Mesh::get_child</text>
<text text-anchor="middle" x="312" y="-606" font-family="Helvetica,sans-Serif" font-size="10.00">_meshes</text>
</a>
</g>
</g>
<!-- Node1&#45;&gt;Node2 -->
<g id="edge1_Node000001_Node000002" class="edge">
<title>Node1&#45;&gt;Node2</title>
<g id="a_edge1_Node000001_Node000002"><a xlink:title=" ">
<path fill="none" stroke="#63b8ff" d="M118.65,-484.83C142.49,-512.54 188.26,-561.35 237,-590 239.85,-591.68 242.84,-593.25 245.9,-594.73"/>
<polygon fill="#63b8ff" stroke="#63b8ff" points="244.73,-598.04 255.29,-598.88 247.56,-591.63 244.73,-598.04"/>
</a>
</g>
</g>
<!-- Node4 -->
<g id="Node000004" class="node">
<title>Node4</title>
<g id="a_Node000004"><a xlink:href="classwmtk_1_1_tri_mesh.html#a51b9b18bfd6bd9223a2b39f01773a12c" target="_top" xlink:title=" ">
<polygon fill="white" stroke="#666666" points="382,-580.5 242,-580.5 242,-561.5 382,-561.5 382,-580.5"/>
<text text-anchor="middle" x="312" y="-568.5" font-family="Helvetica,sans-Serif" font-size="10.00">wmtk::TriMesh::id_vertex</text>
</a>
</g>
</g>
<!-- Node1&#45;&gt;Node4 -->
<g id="edge3_Node000001_Node000004" class="edge">
<title>Node1&#45;&gt;Node4</title>
<g id="a_edge3_Node000001_Node000004"><a xlink:title=" ">
<path fill="none" stroke="#63b8ff" d="M126.95,-484.59C153.09,-504.78 195.7,-535.05 237,-553 241.66,-555.02 246.58,-556.84 251.59,-558.48"/>
<polygon fill="#63b8ff" stroke="#63b8ff" points="250.68,-561.86 261.27,-561.39 252.7,-555.16 250.68,-561.86"/>
</a>
</g>
</g>
<!-- Node12 -->
<g id="Node000012" class="node">
<title>Node12</title>
<g id="a_Node000012"><a xlink:href="classwmtk_1_1operations_1_1tri__mesh_1_1_edge_operation_data.html#ad6f95bf136af03b883df9899c2154923" target="_top" xlink:title=" ">
<polygon fill="white" stroke="#666666" points="387,-543.5 237,-543.5 237,-502.5 387,-502.5 387,-543.5"/>
<text text-anchor="start" x="245" y="-531.5" font-family="Helvetica,sans-Serif" font-size="10.00">wmtk::operations::tri</text>
<text text-anchor="start" x="245" y="-520.5" font-family="Helvetica,sans-Serif" font-size="10.00">_mesh::EdgeOperationData</text>
<text text-anchor="middle" x="312" y="-509.5" font-family="Helvetica,sans-Serif" font-size="10.00">::incident_face_datas</text>
</a>
</g>
</g>
<!-- Node1&#45;&gt;Node12 -->
<g id="edge13_Node000001_Node000012" class="edge">
<title>Node1&#45;&gt;Node12</title>
<g id="a_edge13_Node000001_Node000012"><a xlink:title=" ">
<path fill="none" stroke="#63b8ff" d="M174.48,-484.55C191.82,-489.43 210.44,-494.68 228.18,-499.67"/>
<polygon fill="#63b8ff" stroke="#63b8ff" points="227.35,-503.08 237.93,-502.42 229.25,-496.34 227.35,-503.08"/>
</a>
</g>
</g>
<!-- Node13 -->
<g id="Node000013" class="node">
<title>Node13</title>
<g id="a_Node000013"><a xlink:href="classwmtk_1_1operations_1_1tri__mesh_1_1_edge_operation_data.html#a912b767d92fd2ec12ca96231f41c64d3" target="_top" xlink:title=" ">
<polygon fill="white" stroke="#666666" points="387,-484.5 237,-484.5 237,-443.5 387,-443.5 387,-484.5"/>
<text text-anchor="start" x="245" y="-472.5" font-family="Helvetica,sans-Serif" font-size="10.00">wmtk::operations::tri</text>
<text text-anchor="start" x="245" y="-461.5" font-family="Helvetica,sans-Serif" font-size="10.00">_mesh::EdgeOperationData</text>
<text text-anchor="middle" x="312" y="-450.5" font-family="Helvetica,sans-Serif" font-size="10.00">::incident_vids</text>
</a>
</g>
</g>
<!-- Node1&#45;&gt;Node13 -->
<g id="edge14_Node000001_Node000013" class="edge">
<title>Node1&#45;&gt;Node13</title>
<g id="a_edge14_Node000001_Node000013"><a xlink:title=" ">
<path fill="none" stroke="#63b8ff" d="M201.03,-464C209.59,-464 218.19,-464 226.61,-464"/>
<polygon fill="#63b8ff" stroke="#63b8ff" points="226.78,-467.5 236.78,-464 226.78,-460.5 226.78,-467.5"/>
</a>
</g>
</g>
<!-- Node14 -->
<g id="Node000014" class="node">
<title>Node14</title>
<g id="a_Node000014"><a xlink:href="classwmtk_1_1_mesh.html#ac5778c1f8afef3a2b1b1c33a140b3166" target="_top" xlink:title="Evaluate the passed in function inside the parent scope.">
<polygon fill="white" stroke="#666666" points="369,-425 255,-425 255,-395 369,-395 369,-425"/>
<text text-anchor="start" x="263" y="-413" font-family="Helvetica,sans-Serif" font-size="10.00">wmtk::Mesh::parent</text>
<text text-anchor="middle" x="312" y="-402" font-family="Helvetica,sans-Serif" font-size="10.00">_scope</text>
</a>
</g>
</g>
<!-- Node1&#45;&gt;Node14 -->
<g id="edge15_Node000001_Node000014" class="edge">
<title>Node1&#45;&gt;Node14</title>
<g id="a_edge15_Node000001_Node000014"><a xlink:title=" ">
<path fill="none" stroke="#63b8ff" d="M181.3,-443.43C202.37,-438 224.86,-432.2 245.11,-426.98"/>
<polygon fill="#63b8ff" stroke="#63b8ff" points="246.04,-430.36 254.84,-424.47 244.29,-423.58 246.04,-430.36"/>
</a>
</g>
</g>
<!-- Node15 -->
<g id="Node000015" class="node">
<title>Node15</title>
<g id="a_Node000015"><a xlink:href="namespacewmtk_1_1multimesh_1_1utils.html#aa69cf0f02a02a6088e26eee272bb490a" target="_top" xlink:title=" ">
<polygon fill="white" stroke="#666666" points="379.5,-376.5 244.5,-376.5 244.5,-335.5 379.5,-335.5 379.5,-376.5"/>
<text text-anchor="start" x="252.5" y="-364.5" font-family="Helvetica,sans-Serif" font-size="10.00">wmtk::multimesh::utils</text>
<text text-anchor="start" x="252.5" y="-353.5" font-family="Helvetica,sans-Serif" font-size="10.00">::symmetric_write_tuple</text>
<text text-anchor="middle" x="312" y="-342.5" font-family="Helvetica,sans-Serif" font-size="10.00">_map_attributes</text>
</a>
</g>
</g>
<!-- Node1&#45;&gt;Node15 -->
<g id="edge16_Node000001_Node000015" class="edge">
<title>Node1&#45;&gt;Node15</title>
<g id="a_edge16_Node000001_Node000015"><a xlink:title=" ">
<path fill="none" stroke="#63b8ff" d="M134.22,-443.47C161.25,-426.93 200.89,-403.61 237,-386 240.71,-384.19 244.57,-382.39 248.48,-380.63"/>
<polygon fill="#63b8ff" stroke="#63b8ff" points="249.91,-383.82 257.66,-376.6 247.1,-377.42 249.91,-383.82"/>
</a>
</g>
</g>
<!-- Node39 -->
<g id="Node000039" class="node">
<title>Node39</title>
<g id="a_Node000039"><a xlink:href="classwmtk_1_1_tri_mesh.html#a67a70482852aa4ac6583cf4c36d91767" target="_top" xlink:title=" ">
<polygon fill="white" stroke="#666666" points="371.5,-317 252.5,-317 252.5,-287 371.5,-287 371.5,-317"/>
<text text-anchor="start" x="260.5" y="-305" font-family="Helvetica,sans-Serif" font-size="10.00">wmtk::TriMesh::tuple</text>
<text text-anchor="middle" x="312" y="-294" font-family="Helvetica,sans-Serif" font-size="10.00">_from_global_ids</text>
</a>
</g>
</g>
<!-- Node1&#45;&gt;Node39 -->
<g id="edge53_Node000001_Node000039" class="edge">
<title>Node1&#45;&gt;Node39</title>
<g id="a_edge53_Node000001_Node000039"><a xlink:title=" ">
<path fill="none" stroke="#63b8ff" d="M116.65,-443.14C139.49,-413.11 185.6,-357.8 237,-326 239.76,-324.29 242.65,-322.7 245.62,-321.2"/>
<polygon fill="#63b8ff" stroke="#63b8ff" points="247.11,-324.37 254.75,-317.03 244.2,-318.01 247.11,-324.37"/>
</a>
</g>
</g>
<!-- Node3 -->
<g id="Node000003" class="node">
<title>Node3</title>
<g id="a_Node000003"><a xlink:href="classwmtk_1_1multimesh_1_1_multi_mesh_manager.html#aa191a41ae86378fcb29fc80259d07e4a" target="_top" xlink:title=" ">
<polygon fill="white" stroke="#666666" points="583,-629 423,-629 423,-599 583,-599 583,-629"/>
<text text-anchor="start" x="431" y="-617" font-family="Helvetica,sans-Serif" font-size="10.00">wmtk::multimesh::MultiMesh</text>
<text text-anchor="middle" x="503" y="-606" font-family="Helvetica,sans-Serif" font-size="10.00">Manager::get_child_meshes</text>
</a>
</g>
</g>
<!-- Node2&#45;&gt;Node3 -->
<g id="edge2_Node000002_Node000003" class="edge">
<title>Node2&#45;&gt;Node3</title>
<g id="a_edge2_Node000002_Node000003"><a xlink:title=" ">
<path fill="none" stroke="#63b8ff" d="M375.67,-614C387.42,-614 399.92,-614 412.31,-614"/>
<polygon fill="#63b8ff" stroke="#63b8ff" points="412.67,-617.5 422.67,-614 412.67,-610.5 412.67,-617.5"/>
</a>
</g>
</g>
<!-- Node5 -->
<g id="Node000005" class="node">
<title>Node5</title>
<g id="a_Node000005"><a xlink:href="classwmtk_1_1_tri_mesh.html#a9975c25ed665c9c9a7f1ae92818a1b7c" target="_top" xlink:title=" ">
<polygon fill="white" stroke="#666666" points="554.5,-580.5 451.5,-580.5 451.5,-561.5 554.5,-561.5 554.5,-580.5"/>
<text text-anchor="middle" x="503" y="-568.5" font-family="Helvetica,sans-Serif" font-size="10.00">wmtk::TriMesh::id</text>
</a>
</g>
</g>
<!-- Node4&#45;&gt;Node5 -->
<g id="edge4_Node000004_Node000005" class="edge">
<title>Node4&#45;&gt;Node5</title>
<g id="a_edge4_Node000004_Node000005"><a xlink:title=" ">
<path fill="none" stroke="#63b8ff" d="M382.04,-571C401.43,-571 422.37,-571 441.25,-571"/>
<polygon fill="#63b8ff" stroke="#63b8ff" points="441.5,-574.5 451.5,-571 441.5,-567.5 441.5,-574.5"/>
</a>
</g>
</g>
<!-- Node6 -->
<g id="Node000006" class="node">
<title>Node6</title>
<g id="a_Node000006"><a xlink:href="classwmtk_1_1_tuple.html#aef64a43ff5f5617dbc99d865356bbc25" target="_top" xlink:title=" ">
<polygon fill="white" stroke="#666666" points="1114,-569.5 983,-569.5 983,-550.5 1114,-550.5 1114,-569.5"/>
<text text-anchor="middle" x="1048.5" y="-557.5" font-family="Helvetica,sans-Serif" font-size="10.00">wmtk::Tuple::global_cid</text>
</a>
</g>
</g>
<!-- Node5&#45;&gt;Node6 -->
<g id="edge5_Node000005_Node000006" class="edge">
<title>Node5&#45;&gt;Node6</title>
<g id="a_edge5_Node000005_Node000006"><a xlink:title=" ">
<path fill="none" stroke="#63b8ff" d="M554.71,-568.77C612.23,-566.34 708.84,-562.61 792,-561 852.78,-559.83 921.72,-559.62 972.65,-559.69"/>
<polygon fill="#63b8ff" stroke="#63b8ff" points="972.91,-563.19 982.91,-559.7 972.92,-556.19 972.91,-563.19"/>
</a>
</g>
</g>
<!-- Node7 -->
<g id="Node000007" class="node">
<title>Node7</title>
<g id="a_Node000007"><a xlink:href="classwmtk_1_1_mesh.html#a8cc8686f0688613806f43720b6db49e7" target="_top" xlink:title="check validity of tuple including its hash">
<polygon fill="white" stroke="#666666" points="747.5,-609.5 627.5,-609.5 627.5,-590.5 747.5,-590.5 747.5,-609.5"/>
<text text-anchor="middle" x="687.5" y="-597.5" font-family="Helvetica,sans-Serif" font-size="10.00">wmtk::Mesh::is_valid</text>
</a>
</g>
</g>
<!-- Node5&#45;&gt;Node7 -->
<g id="edge6_Node000005_Node000007" class="edge">
<title>Node5&#45;&gt;Node7</title>
<g id="a_edge6_Node000005_Node000007"><a xlink:title=" ">
<path fill="none" stroke="#63b8ff" d="M554.84,-579.08C574.14,-582.15 596.47,-585.69 617.2,-588.99"/>
<polygon fill="#63b8ff" stroke="#63b8ff" points="616.8,-592.47 627.22,-590.58 617.9,-585.55 616.8,-592.47"/>
</a>
</g>
</g>
<!-- Node8 -->
<g id="Node000008" class="node">
<title>Node8</title>
<g id="a_Node000008"><a xlink:href="classwmtk_1_1_tuple.html#a0023f575be92cd5ceeeaaaa3762ea06d" target="_top" xlink:title="Checks if a tuple is &quot;null&quot;. This merely implies the global index is &#45;1.">
<polygon fill="white" stroke="#666666" points="918.5,-680.5 805.5,-680.5 805.5,-661.5 918.5,-661.5 918.5,-680.5"/>
<text text-anchor="middle" x="862" y="-668.5" font-family="Helvetica,sans-Serif" font-size="10.00">wmtk::Tuple::is_null</text>
</a>
</g>
</g>
<!-- Node7&#45;&gt;Node8 -->
<g id="edge7_Node000007_Node000008" class="edge">
<title>Node7&#45;&gt;Node8</title>
<g id="a_edge7_Node000007_Node000008"><a xlink:title=" ">
<path fill="none" stroke="#63b8ff" d="M704.49,-609.58C724.4,-621.19 759.74,-640.7 792,-653 797.41,-655.06 803.15,-656.97 808.91,-658.72"/>
<polygon fill="#63b8ff" stroke="#63b8ff" points="808,-662.1 818.58,-661.49 809.93,-655.37 808,-662.1"/>
</a>
</g>
</g>
<!-- Node9 -->
<g id="Node000009" class="node">
<title>Node9</title>
<g id="a_Node000009"><a xlink:href="classwmtk_1_1_mesh.html#ade176d345902d97af8c5da04aa3a095b" target="_top" xlink:title=" ">
<polygon fill="white" stroke="#666666" points="932,-588.5 792,-588.5 792,-569.5 932,-569.5 932,-588.5"/>
<text text-anchor="middle" x="862" y="-576.5" font-family="Helvetica,sans-Serif" font-size="10.00">wmtk::Mesh::is_removed</text>
</a>
</g>
</g>
<!-- Node7&#45;&gt;Node9 -->
<g id="edge8_Node000007_Node000009" class="edge">
<title>Node7&#45;&gt;Node9</title>
<g id="a_edge8_Node000007_Node000009"><a xlink:title=" ">
<path fill="none" stroke="#63b8ff" d="M747.86,-592.77C758.79,-591.44 770.36,-590.03 781.77,-588.65"/>
<polygon fill="#63b8ff" stroke="#63b8ff" points="782.23,-592.12 791.73,-587.43 781.38,-585.17 782.23,-592.12"/>
</a>
</g>
</g>
<!-- Node10 -->
<g id="Node000010" class="node">
<title>Node10</title>
<g id="a_Node000010"><a xlink:href="namespacewmtk.html#a6a35f11c12436093d26fdd8be6fecc06" target="_top" xlink:title="Retrieves the current logger.">
<polygon fill="white" stroke="#666666" points="902.5,-643.5 821.5,-643.5 821.5,-624.5 902.5,-624.5 902.5,-643.5"/>
<text text-anchor="middle" x="862" y="-631.5" font-family="Helvetica,sans-Serif" font-size="10.00">wmtk::logger</text>
</a>
</g>
</g>
<!-- Node7&#45;&gt;Node10 -->
<g id="edge11_Node000007_Node000010" class="edge">
<title>Node7&#45;&gt;Node10</title>
<g id="a_edge11_Node000007_Node000010"><a xlink:title=" ">
<path fill="none" stroke="#63b8ff" d="M737.01,-609.56C760.19,-614.13 787.89,-619.59 811.23,-624.19"/>
<polygon fill="#63b8ff" stroke="#63b8ff" points="810.79,-627.67 821.28,-626.17 812.14,-620.8 810.79,-627.67"/>
</a>
</g>
</g>
<!-- Node9&#45;&gt;Node6 -->
<g id="edge9_Node000009_Node000006" class="edge">
<title>Node9&#45;&gt;Node6</title>
<g id="a_edge9_Node000009_Node000006"><a xlink:title=" ">
<path fill="none" stroke="#63b8ff" d="M932.23,-571.87C945.43,-570.51 959.3,-569.08 972.66,-567.71"/>
<polygon fill="#63b8ff" stroke="#63b8ff" points="973.18,-571.17 982.77,-566.67 972.46,-564.21 973.18,-571.17"/>
</a>
</g>
</g>
<!-- Node9&#45;&gt;Node9 -->
<g id="edge10_Node000009_Node000009" class="edge">
<title>Node9&#45;&gt;Node9</title>
<g id="a_edge10_Node000009_Node000009"><a xlink:title=" ">
<path fill="none" stroke="#63b8ff" d="M835.18,-588.58C822.13,-597.23 831.07,-606.5 862,-606.5 882.78,-606.5 893.63,-602.32 894.56,-596.95"/>
<polygon fill="#63b8ff" stroke="#63b8ff" points="897.36,-594.85 888.82,-588.58 891.59,-598.81 897.36,-594.85"/>
</a>
</g>
</g>
<!-- Node11 -->
<g id="Node000011" class="node">
<title>Node11</title>
<g id="a_Node000011"><a xlink:href="namespacewmtk.html#a3daa7951a5f8b78cf4600dc047fcc180" target="_top" xlink:title="Setup a logger object to be used by WildmeshToolkit.">
<polygon fill="white" stroke="#666666" points="1099,-643.5 998,-643.5 998,-624.5 1099,-624.5 1099,-643.5"/>
<text text-anchor="middle" x="1048.5" y="-631.5" font-family="Helvetica,sans-Serif" font-size="10.00">wmtk::set_logger</text>
</a>
</g>
</g>
<!-- Node10&#45;&gt;Node11 -->
<g id="edge12_Node000010_Node000011" class="edge">
<title>Node10&#45;&gt;Node11</title>
<g id="a_edge12_Node000010_Node000011"><a xlink:title=" ">
<path fill="none" stroke="#63b8ff" d="M902.58,-634C927.38,-634 959.82,-634 987.72,-634"/>
<polygon fill="#63b8ff" stroke="#63b8ff" points="987.77,-637.5 997.77,-634 987.77,-630.5 987.77,-637.5"/>
</a>
</g>
</g>
<!-- Node16 -->
<g id="Node000016" class="node">
<title>Node16</title>
<g id="a_Node000016"><a xlink:href="namespacewmtk_1_1dart_1_1utils.html#a065ebaae25bcab945f1dd46a8a744db7" target="_top" xlink:title=" ">
<polygon fill="white" stroke="#666666" points="580.5,-307 425.5,-307 425.5,-277 580.5,-277 580.5,-307"/>
<text text-anchor="start" x="433.5" y="-295" font-family="Helvetica,sans-Serif" font-size="10.00">wmtk::dart::utils::</text>
<text text-anchor="middle" x="503" y="-284" font-family="Helvetica,sans-Serif" font-size="10.00">get_simplex_involution_pair</text>
</a>
</g>
</g>
<!-- Node15&#45;&gt;Node16 -->
<g id="edge17_Node000015_Node000016" class="edge">
<title>Node15&#45;&gt;Node16</title>
<g id="a_edge17_Node000015_Node000016"><a xlink:title=" ">
<path fill="none" stroke="#63b8ff" d="M373.58,-335.49C397.48,-327.39 424.72,-318.17 447.95,-310.3"/>
<polygon fill="#63b8ff" stroke="#63b8ff" points="449.28,-313.55 457.63,-307.02 447.04,-306.92 449.28,-313.55"/>
</a>
</g>
</g>
<!-- Node28 -->
<g id="Node000028" class="node">
<title>Node28</title>
<g id="a_Node000028"><a xlink:href="classwmtk_1_1dart_1_1_simplex_dart.html#a3949350f736cbf567bf566fd7565e6e8" target="_top" xlink:title=" ">
<polygon fill="white" stroke="#666666" points="1302,-362 1165,-362 1165,-332 1302,-332 1302,-362"/>
<text text-anchor="start" x="1173" y="-350" font-family="Helvetica,sans-Serif" font-size="10.00">wmtk::dart::SimplexDart</text>
<text text-anchor="middle" x="1233.5" y="-339" font-family="Helvetica,sans-Serif" font-size="10.00">::get_singleton</text>
</a>
</g>
</g>
<!-- Node15&#45;&gt;Node28 -->
<g id="edge49_Node000015_Node000028" class="edge">
<title>Node15&#45;&gt;Node28</title>
<g id="a_edge49_Node000015_Node000028"><a xlink:title=" ">
<path fill="none" stroke="#63b8ff" d="M379.73,-349.98C454.4,-343.78 579.01,-335 686.5,-335 686.5,-335 686.5,-335 863,-335 963.69,-335 1079.72,-339.51 1154.49,-343"/>
<polygon fill="#63b8ff" stroke="#63b8ff" points="1154.6,-346.5 1164.76,-343.48 1154.93,-339.51 1154.6,-346.5"/>
</a>
</g>
</g>
<!-- Node36 -->
<g id="Node000036" class="node">
<title>Node36</title>
<g id="a_Node000036"><a xlink:href="classwmtk_1_1dart_1_1_simplex_dart.html#a0ba31a7c8f5b6fa62e4f64da7fef5120" target="_top" xlink:title=" ">
<polygon fill="white" stroke="#666666" points="571.5,-441 434.5,-441 434.5,-411 571.5,-411 571.5,-441"/>
<text text-anchor="start" x="442.5" y="-429" font-family="Helvetica,sans-Serif" font-size="10.00">wmtk::dart::SimplexDart</text>
<text text-anchor="middle" x="503" y="-418" font-family="Helvetica,sans-Serif" font-size="10.00">::is_valid</text>
</a>
</g>
</g>
<!-- Node15&#45;&gt;Node36 -->
<g id="edge50_Node000015_Node000036" class="edge">
<title>Node15&#45;&gt;Node36</title>
<g id="a_edge50_Node000015_Node000036"><a xlink:title=" ">
<path fill="none" stroke="#63b8ff" d="M364.44,-376.6C372.02,-379.71 379.73,-382.91 387,-386 403.12,-392.85 406.59,-395.89 423,-402 428.21,-403.94 433.64,-405.84 439.13,-407.67"/>
<polygon fill="#63b8ff" stroke="#63b8ff" points="438.41,-411.12 449,-410.89 440.58,-404.46 438.41,-411.12"/>
</a>
</g>
</g>
<!-- Node38 -->
<g id="Node000038" class="node">
<title>Node38</title>
<g id="a_Node000038"><a xlink:href="classwmtk_1_1dart_1_1_dart_accessor.html#abe133ce32adc52abfc8632338d3e1be9" target="_top" xlink:title=" ">
<polygon fill="white" stroke="#666666" points="573,-393 433,-393 433,-363 573,-363 573,-393"/>
<text text-anchor="start" x="441" y="-381" font-family="Helvetica,sans-Serif" font-size="10.00">wmtk::dart::DartAccessor</text>
<text text-anchor="middle" x="503" y="-370" font-family="Helvetica,sans-Serif" font-size="10.00">::mesh</text>
</a>
</g>
</g>
<!-- Node15&#45;&gt;Node38 -->
<g id="edge52_Node000015_Node000038" class="edge">
<title>Node15&#45;&gt;Node38</title>
<g id="a_edge52_Node000015_Node000038"><a xlink:title=" ">
<path fill="none" stroke="#63b8ff" d="M379.63,-363.76C393.49,-365.37 408.22,-367.08 422.48,-368.74"/>
<polygon fill="#63b8ff" stroke="#63b8ff" points="422.43,-372.26 432.77,-369.94 423.24,-365.31 422.43,-372.26"/>
</a>
</g>
</g>
<!-- Node17 -->
<g id="Node000017" class="node">
<title>Node17</title>
<g id="a_Node000017"><a xlink:href="namespacewmtk_1_1dart_1_1utils.html#aa7884681cab6b16b5eceb3289b679253" target="_top" xlink:title=" ">
<polygon fill="white" stroke="#666666" points="753,-267 622,-267 622,-237 753,-237 753,-267"/>
<text text-anchor="start" x="630" y="-255" font-family="Helvetica,sans-Serif" font-size="10.00">wmtk::dart::utils::</text>
<text text-anchor="middle" x="687.5" y="-244" font-family="Helvetica,sans-Serif" font-size="10.00">get_simplex_involution</text>
</a>
</g>
</g>
<!-- Node16&#45;&gt;Node17 -->
<g id="edge18_Node000016_Node000017" class="edge">
<title>Node16&#45;&gt;Node17</title>
<g id="a_edge18_Node000016_Node000017"><a xlink:title=" ">
<path fill="none" stroke="#63b8ff" d="M572.48,-276.99C585.37,-274.17 598.92,-271.2 611.98,-268.33"/>
<polygon fill="#63b8ff" stroke="#63b8ff" points="612.85,-271.73 621.87,-266.17 611.35,-264.89 612.85,-271.73"/>
</a>
</g>
</g>
<!-- Node18 -->
<g id="Node000018" class="node">
<title>Node18</title>
<g id="a_Node000018"><a xlink:href="namespacewmtk_1_1dart_1_1utils.html#a5a1d80c919ea8054fa6ddb989fb7cc30" target="_top" xlink:title=" ">
<polygon fill="white" stroke="#666666" points="927.5,-195.5 796.5,-195.5 796.5,-154.5 927.5,-154.5 927.5,-195.5"/>
<text text-anchor="start" x="804.5" y="-183.5" font-family="Helvetica,sans-Serif" font-size="10.00">wmtk::dart::utils::</text>
<text text-anchor="start" x="804.5" y="-172.5" font-family="Helvetica,sans-Serif" font-size="10.00">get_simplex_involution</text>
<text text-anchor="middle" x="862" y="-161.5" font-family="Helvetica,sans-Serif" font-size="10.00">_upward</text>
</a>
</g>
</g>
<!-- Node17&#45;&gt;Node18 -->
<g id="edge19_Node000017_Node000018" class="edge">
<title>Node17&#45;&gt;Node18</title>
<g id="a_edge19_Node000017_Node000018"><a xlink:title=" ">
<path fill="none" stroke="#63b8ff" d="M722.17,-236.97C745.85,-226.4 778.08,-212.01 805.53,-199.76"/>
<polygon fill="#63b8ff" stroke="#63b8ff" points="807.31,-202.8 815.02,-195.53 804.46,-196.41 807.31,-202.8"/>
</a>
</g>
</g>
<!-- Node19 -->
<g id="Node000019" class="node">
<title>Node19</title>
<g id="a_Node000019"><a xlink:href="namespacewmtk_1_1autogen_1_1subgroup.html#aa24929f1f8821e8e3fbb2fc51169c80c" target="_top" xlink:title=" ">
<polygon fill="white" stroke="#666666" points="1119,-30 978,-30 978,0 1119,0 1119,-30"/>
<text text-anchor="start" x="986" y="-18" font-family="Helvetica,sans-Serif" font-size="10.00">wmtk::autogen::subgroup</text>
<text text-anchor="middle" x="1048.5" y="-7" font-family="Helvetica,sans-Serif" font-size="10.00">::can_convert</text>
</a>
</g>
</g>
<!-- Node18&#45;&gt;Node19 -->
<g id="edge20_Node000018_Node000019" class="edge">
<title>Node18&#45;&gt;Node19</title>
<g id="a_edge20_Node000018_Node000019"><a xlink:title=" ">
<path fill="none" stroke="#63b8ff" d="M877.34,-154.14C895.9,-128.3 930.36,-84.16 968,-55 978.02,-47.24 989.79,-40.34 1001.15,-34.55"/>
<polygon fill="#63b8ff" stroke="#63b8ff" points="1002.69,-37.69 1010.14,-30.15 999.62,-31.41 1002.69,-37.69"/>
</a>
</g>
</g>
<!-- Node21 -->
<g id="Node000021" class="node">
<title>Node21</title>
<g id="a_Node000021"><a xlink:href="classwmtk_1_1dart_1_1_simplex_dart.html#a97c4b273ac645149eb59fbe493edf5c6" target="_top" xlink:title=" ">
<polygon fill="white" stroke="#666666" points="1302,-190 1165,-190 1165,-160 1302,-160 1302,-190"/>
<text text-anchor="start" x="1173" y="-178" font-family="Helvetica,sans-Serif" font-size="10.00">wmtk::dart::SimplexDart</text>
<text text-anchor="middle" x="1233.5" y="-167" font-family="Helvetica,sans-Serif" font-size="10.00">::convert</text>
</a>
</g>
</g>
<!-- Node18&#45;&gt;Node21 -->
<g id="edge23_Node000018_Node000021" class="edge">
<title>Node18&#45;&gt;Node21</title>
<g id="a_edge23_Node000018_Node000021"><a xlink:title=" ">
<path fill="none" stroke="#63b8ff" d="M927.78,-175C991.08,-175 1087.47,-175 1154.84,-175"/>
<polygon fill="#63b8ff" stroke="#63b8ff" points="1154.98,-178.5 1164.98,-175 1154.98,-171.5 1154.98,-178.5"/>
</a>
</g>
</g>
<!-- Node25 -->
<g id="Node000025" class="node">
<title>Node25</title>
<g id="a_Node000025"><a xlink:href="namespacewmtk_1_1dart.html#a231e35fd144459d332b37666651e7dfb" target="_top" xlink:title=" ">
<polygon fill="white" stroke="#666666" points="1109.5,-94 987.5,-94 987.5,-64 1109.5,-64 1109.5,-94"/>
<text text-anchor="start" x="995.5" y="-82" font-family="Helvetica,sans-Serif" font-size="10.00">wmtk::dart::find_local</text>
<text text-anchor="middle" x="1048.5" y="-71" font-family="Helvetica,sans-Serif" font-size="10.00">_dart_left_action</text>
</a>
</g>
</g>
<!-- Node18&#45;&gt;Node25 -->
<g id="edge28_Node000018_Node000025" class="edge">
<title>Node18&#45;&gt;Node25</title>
<g id="a_edge28_Node000018_Node000025"><a xlink:title=" ">
<path fill="none" stroke="#63b8ff" d="M898.11,-154.38C918.34,-142.73 944.37,-128.12 968,-116 979.65,-110.03 992.45,-103.89 1004.3,-98.37"/>
<polygon fill="#63b8ff" stroke="#63b8ff" points="1005.96,-101.47 1013.57,-94.1 1003.02,-95.11 1005.96,-101.47"/>
</a>
</g>
</g>
<!-- Node27 -->
<g id="Node000027" class="node">
<title>Node27</title>
<g id="a_Node000027"><a xlink:href="classwmtk_1_1dart_1_1_simplex_dart.html#a61de0a16f65d51c565bab5abf01d25aa" target="_top" xlink:title=" ">
<polygon fill="white" stroke="#666666" points="1302,-94 1165,-94 1165,-64 1302,-64 1302,-94"/>
<text text-anchor="start" x="1173" y="-82" font-family="Helvetica,sans-Serif" font-size="10.00">wmtk::dart::SimplexDart</text>
<text text-anchor="middle" x="1233.5" y="-71" font-family="Helvetica,sans-Serif" font-size="10.00">::product</text>
</a>
</g>
</g>
<!-- Node18&#45;&gt;Node27 -->
<g id="edge48_Node000018_Node000027" class="edge">
<title>Node18&#45;&gt;Node27</title>
<g id="a_edge48_Node000018_Node000027"><a xlink:title=" ">
<path fill="none" stroke="#63b8ff" d="M927.78,-158.17C994.27,-140.9 1097.26,-114.14 1164.79,-96.59"/>
<polygon fill="#63b8ff" stroke="#63b8ff" points="1165.69,-99.98 1174.49,-94.07 1163.93,-93.2 1165.69,-99.98"/>
</a>
</g>
</g>
<!-- Node18&#45;&gt;Node28 -->
<g id="edge31_Node000018_Node000028" class="edge">
<title>Node18&#45;&gt;Node28</title>
<g id="a_edge31_Node000018_Node000028"><a xlink:title=" ">
<path fill="none" stroke="#63b8ff" d="M891.98,-195.61C912.59,-209.73 941.24,-228.31 968,-242 1037.91,-277.77 1122.98,-309.6 1177.43,-328.6"/>
<polygon fill="#63b8ff" stroke="#63b8ff" points="1176.3,-331.91 1186.9,-331.88 1178.59,-325.29 1176.3,-331.91"/>
</a>
</g>
</g>
<!-- Node29 -->
<g id="Node000029" class="node">
<title>Node29</title>
<g id="a_Node000029"><a xlink:href="namespacewmtk_1_1dart_1_1utils.html#a10c8d07172593fb9b520e7a6511ad08f" target="_top" xlink:title=" ">
<polygon fill="white" stroke="#666666" points="1129,-233 968,-233 968,-203 1129,-203 1129,-233"/>
<text text-anchor="start" x="976" y="-221" font-family="Helvetica,sans-Serif" font-size="10.00">wmtk::dart::utils::</text>
<text text-anchor="middle" x="1048.5" y="-210" font-family="Helvetica,sans-Serif" font-size="10.00">local_simplex_decomposition</text>
</a>
</g>
</g>
<!-- Node18&#45;&gt;Node29 -->
<g id="edge33_Node000018_Node000029" class="edge">
<title>Node18&#45;&gt;Node29</title>
<g id="a_edge33_Node000018_Node000029"><a xlink:title=" ">
<path fill="none" stroke="#63b8ff" d="M927.53,-190.04C942.28,-193.48 958.07,-197.16 973.19,-200.68"/>
<polygon fill="#63b8ff" stroke="#63b8ff" points="972.47,-204.11 983.01,-202.97 974.06,-197.29 972.47,-204.11"/>
</a>
</g>
</g>
<!-- Node20 -->
<g id="Node000020" class="node">
<title>Node20</title>
<g id="a_Node000020"><a xlink:href="namespacewmtk_1_1autogen_1_1subgroup.html#a9b4c9cc6aebaf0622a95cb3174d984e1" target="_top" xlink:title=" ">
<polygon fill="white" stroke="#666666" points="1673,-47 1532,-47 1532,-17 1673,-17 1673,-47"/>
<text text-anchor="start" x="1540" y="-35" font-family="Helvetica,sans-Serif" font-size="10.00">wmtk::autogen::subgroup</text>
<text text-anchor="middle" x="1602.5" y="-24" font-family="Helvetica,sans-Serif" font-size="10.00">::convert</text>
</a>
</g>
</g>
<!-- Node19&#45;&gt;Node20 -->
<g id="edge21_Node000019_Node000020" class="edge">
<title>Node19&#45;&gt;Node20</title>
<g id="a_edge21_Node000019_Node000020"><a xlink:title=" ">
<path fill="none" stroke="#63b8ff" d="M1119.22,-12.37C1207.18,-9.73 1363.02,-7.29 1496,-17 1504.35,-17.61 1513.05,-18.47 1521.72,-19.48"/>
<polygon fill="#63b8ff" stroke="#63b8ff" points="1521.49,-22.98 1531.84,-20.72 1522.34,-16.03 1521.49,-22.98"/>
</a>
</g>
</g>
<!-- Node20&#45;&gt;Node20 -->
<g id="edge22_Node000020_Node000020" class="edge">
<title>Node20&#45;&gt;Node20</title>
<g id="a_edge22_Node000020_Node000020"><a xlink:title=" ">
<path fill="none" stroke="#63b8ff" d="M1570.16,-47.28C1562.97,-56.41 1573.75,-65 1602.5,-65 1619.57,-65 1630.31,-61.97 1634.71,-57.6"/>
<polygon fill="#63b8ff" stroke="#63b8ff" points="1638.21,-57.32 1634.84,-47.28 1631.21,-57.23 1638.21,-57.32"/>
</a>
</g>
</g>
<!-- Node22 -->
<g id="Node000022" class="node">
<title>Node22</title>
<g id="a_Node000022"><a xlink:href="namespacewmtk_1_1dart_1_1subgroup.html#a2bf6fed0cc64c6ad326e56135c6e8497" target="_top" xlink:title=" ">
<polygon fill="white" stroke="#666666" points="1477.5,-104 1356.5,-104 1356.5,-74 1477.5,-74 1477.5,-104"/>
<text text-anchor="start" x="1364.5" y="-92" font-family="Helvetica,sans-Serif" font-size="10.00">wmtk::dart::subgroup</text>
<text text-anchor="middle" x="1417" y="-81" font-family="Helvetica,sans-Serif" font-size="10.00">::convert</text>
</a>
</g>
</g>
<!-- Node21&#45;&gt;Node22 -->
<g id="edge24_Node000021_Node000022" class="edge">
<title>Node21&#45;&gt;Node22</title>
<g id="a_edge24_Node000021_Node000022"><a xlink:title=" ">
<path fill="none" stroke="#63b8ff" d="M1285.16,-159.98C1291.04,-157.38 1296.79,-154.39 1302,-151 1321.5,-138.31 1318.23,-125.27 1338,-113 1340.83,-111.24 1343.8,-109.61 1346.85,-108.09"/>
<polygon fill="#63b8ff" stroke="#63b8ff" points="1348.56,-111.15 1356.24,-103.85 1345.68,-104.77 1348.56,-111.15"/>
</a>
</g>
</g>
<!-- Node23 -->
<g id="Node000023" class="node">
<title>Node23</title>
<g id="a_Node000023"><a xlink:href="classwmtk_1_1dart_1_1_simplex_dart.html#a41f78914333ef35a88337d6ccf53b492" target="_top" xlink:title=" ">
<polygon fill="white" stroke="#666666" points="1485.5,-225 1348.5,-225 1348.5,-195 1485.5,-195 1485.5,-225"/>
<text text-anchor="start" x="1356.5" y="-213" font-family="Helvetica,sans-Serif" font-size="10.00">wmtk::dart::SimplexDart</text>
<text text-anchor="middle" x="1417" y="-202" font-family="Helvetica,sans-Serif" font-size="10.00">::identity</text>
</a>
</g>
</g>
<!-- Node21&#45;&gt;Node23 -->
<g id="edge26_Node000021_Node000023" class="edge">
<title>Node21&#45;&gt;Node23</title>
<g id="a_edge26_Node000021_Node000023"><a xlink:title=" ">
<path fill="none" stroke="#63b8ff" d="M1302.08,-188.03C1313.89,-190.31 1326.27,-192.7 1338.32,-195.02"/>
<polygon fill="#63b8ff" stroke="#63b8ff" points="1337.88,-198.5 1348.36,-196.96 1339.2,-191.63 1337.88,-198.5"/>
</a>
</g>
</g>
<!-- Node24 -->
<g id="Node000024" class="node">
<title>Node24</title>
<g id="a_Node000024"><a xlink:href="classwmtk_1_1dart_1_1_simplex_dart.html#a75defb2c9d167b36c7fc73cd7d5bba60" target="_top" xlink:title=" ">
<polygon fill="white" stroke="#666666" points="1485.5,-321 1348.5,-321 1348.5,-291 1485.5,-291 1485.5,-321"/>
<text text-anchor="start" x="1356.5" y="-309" font-family="Helvetica,sans-Serif" font-size="10.00">wmtk::dart::SimplexDart</text>
<text text-anchor="middle" x="1417" y="-298" font-family="Helvetica,sans-Serif" font-size="10.00">::simplex_type</text>
</a>
</g>
</g>
<!-- Node21&#45;&gt;Node24 -->
<g id="edge27_Node000021_Node000024" class="edge">
<title>Node21&#45;&gt;Node24</title>
<g id="a_edge27_Node000021_Node000024"><a xlink:title=" ">
<path fill="none" stroke="#63b8ff" d="M1252.39,-190.1C1266.42,-202.24 1286.14,-220.02 1302,-237 1319.48,-255.72 1316.82,-267.6 1338,-282 1340.28,-283.55 1342.67,-285.01 1345.13,-286.37"/>
<polygon fill="#63b8ff" stroke="#63b8ff" points="1343.81,-289.62 1354.32,-290.92 1346.91,-283.35 1343.81,-289.62"/>
</a>
</g>
</g>
<!-- Node22&#45;&gt;Node20 -->
<g id="edge25_Node000022_Node000020" class="edge">
<title>Node22&#45;&gt;Node20</title>
<g id="a_edge25_Node000022_Node000020"><a xlink:title=" ">
<path fill="none" stroke="#63b8ff" d="M1467.11,-73.93C1476.69,-70.98 1486.66,-67.9 1496,-65 1511.41,-60.22 1528.08,-55.02 1543.52,-50.19"/>
<polygon fill="#63b8ff" stroke="#63b8ff" points="1544.96,-53.41 1553.46,-47.08 1542.87,-46.73 1544.96,-53.41"/>
</a>
</g>
</g>
<!-- Node26 -->
<g id="Node000026" class="node">
<title>Node26</title>
<g id="a_Node000026"><a xlink:href="classwmtk_1_1dart_1_1_simplex_dart.html#a6923dbaad52cba2f744265012f9648ed" target="_top" xlink:title=" ">
<polygon fill="white" stroke="#666666" points="1485.5,-56 1348.5,-56 1348.5,-26 1485.5,-26 1485.5,-56"/>
<text text-anchor="start" x="1356.5" y="-44" font-family="Helvetica,sans-Serif" font-size="10.00">wmtk::dart::SimplexDart</text>
<text text-anchor="middle" x="1417" y="-33" font-family="Helvetica,sans-Serif" font-size="10.00">::inverse</text>
</a>
</g>
</g>
<!-- Node25&#45;&gt;Node26 -->
<g id="edge29_Node000025_Node000026" class="edge">
<title>Node25&#45;&gt;Node26</title>
<g id="a_edge29_Node000025_Node000026"><a xlink:title=" ">
<path fill="none" stroke="#63b8ff" d="M1109.75,-64.71C1127.46,-60.99 1146.93,-57.37 1165,-55 1222.79,-47.43 1288.6,-43.95 1338.32,-42.35"/>
<polygon fill="#63b8ff" stroke="#63b8ff" points="1338.48,-45.84 1348.36,-42.04 1338.26,-38.85 1338.48,-45.84"/>
</a>
</g>
</g>
<!-- Node25&#45;&gt;Node27 -->
<g id="edge30_Node000025_Node000027" class="edge">
<title>Node25&#45;&gt;Node27</title>
<g id="a_edge30_Node000025_Node000027"><a xlink:title=" ">
<path fill="none" stroke="#63b8ff" d="M1109.67,-79C1123.98,-79 1139.45,-79 1154.42,-79"/>
<polygon fill="#63b8ff" stroke="#63b8ff" points="1154.69,-82.5 1164.69,-79 1154.69,-75.5 1154.69,-82.5"/>
</a>
</g>
</g>
<!-- Node28&#45;&gt;Node24 -->
<g id="edge32_Node000028_Node000024" class="edge">
<title>Node28&#45;&gt;Node24</title>
<g id="a_edge32_Node000028_Node000024"><a xlink:title=" ">
<path fill="none" stroke="#63b8ff" d="M1301.05,-331.97C1313.51,-329.15 1326.62,-326.19 1339.35,-323.32"/>
<polygon fill="#63b8ff" stroke="#63b8ff" points="1340.47,-326.65 1349.45,-321.03 1338.93,-319.82 1340.47,-326.65"/>
</a>
</g>
</g>
<!-- Node29&#45;&gt;Node21 -->
<g id="edge34_Node000029_Node000021" class="edge">
<title>Node29&#45;&gt;Node21</title>
<g id="a_edge34_Node000029_Node000021"><a xlink:title=" ">
<path fill="none" stroke="#63b8ff" d="M1113.5,-202.96C1128.13,-199.52 1143.79,-195.84 1158.79,-192.32"/>
<polygon fill="#63b8ff" stroke="#63b8ff" points="1159.6,-195.73 1168.53,-190.03 1158,-188.91 1159.6,-195.73"/>
</a>
</g>
</g>
<!-- Node29&#45;&gt;Node23 -->
<g id="edge46_Node000029_Node000023" class="edge">
<title>Node29&#45;&gt;Node23</title>
<g id="a_edge46_Node000029_Node000023"><a xlink:title=" ">
<path fill="none" stroke="#63b8ff" d="M1129.03,-216.26C1191.05,-214.91 1276.7,-213.04 1338.27,-211.7"/>
<polygon fill="#63b8ff" stroke="#63b8ff" points="1338.39,-215.19 1348.31,-211.48 1338.24,-208.2 1338.39,-215.19"/>
</a>
</g>
</g>
<!-- Node29&#45;&gt;Node24 -->
<g id="edge47_Node000029_Node000024" class="edge">
<title>Node29&#45;&gt;Node24</title>
<g id="a_edge47_Node000029_Node000024"><a xlink:title=" ">
<path fill="none" stroke="#63b8ff" d="M1069.08,-233.03C1091.08,-249.01 1128.51,-273.53 1165,-285 1221.2,-302.67 1287.76,-307.55 1338.21,-308.22"/>
<polygon fill="#63b8ff" stroke="#63b8ff" points="1338.38,-311.72 1348.4,-308.3 1338.43,-304.72 1338.38,-311.72"/>
</a>
</g>
</g>
<!-- Node29&#45;&gt;Node28 -->
<g id="edge45_Node000029_Node000028" class="edge">
<title>Node29&#45;&gt;Node28</title>
<g id="a_edge45_Node000029_Node000028"><a xlink:title=" ">
<path fill="none" stroke="#63b8ff" d="M1076.88,-233.17C1093,-242.82 1113.26,-256.26 1129,-271 1148.21,-288.99 1144.24,-301.84 1165,-318 1169.34,-321.38 1174.13,-324.44 1179.1,-327.2"/>
<polygon fill="#63b8ff" stroke="#63b8ff" points="1177.69,-330.41 1188.18,-331.84 1180.87,-324.17 1177.69,-330.41"/>
</a>
</g>
</g>
<!-- Node30 -->
<g id="Node000030" class="node">
<title>Node30</title>
<g id="a_Node000030"><a xlink:href="namespacewmtk_1_1dart.html#a626f426765e240dbc25a76d9d01ec3f3" target="_top" xlink:title=" ">
<polygon fill="white" stroke="#666666" points="1294.5,-142 1172.5,-142 1172.5,-112 1294.5,-112 1294.5,-142"/>
<text text-anchor="start" x="1180.5" y="-130" font-family="Helvetica,sans-Serif" font-size="10.00">wmtk::dart::find_local</text>
<text text-anchor="middle" x="1233.5" y="-119" font-family="Helvetica,sans-Serif" font-size="10.00">_dart_action</text>
</a>
</g>
</g>
<!-- Node29&#45;&gt;Node30 -->
<g id="edge35_Node000029_Node000030" class="edge">
<title>Node29&#45;&gt;Node30</title>
<g id="a_edge35_Node000029_Node000030"><a xlink:title=" ">
<path fill="none" stroke="#63b8ff" d="M1072.71,-202.83C1095.56,-188.3 1131.76,-166.39 1165,-151 1168.87,-149.21 1172.92,-147.46 1177.03,-145.79"/>
<polygon fill="#63b8ff" stroke="#63b8ff" points="1178.62,-148.92 1186.65,-142.01 1176.07,-142.4 1178.62,-148.92"/>
</a>
</g>
</g>
<!-- Node34 -->
<g id="Node000034" class="node">
<title>Node34</title>
<g id="a_Node000034"><a xlink:href="namespacewmtk_1_1dart_1_1utils.html#a0d0527148877095547bcad7f543c6840" target="_top" xlink:title=" ">
<polygon fill="white" stroke="#666666" points="1296.5,-276 1170.5,-276 1170.5,-246 1296.5,-246 1296.5,-276"/>
<text text-anchor="start" x="1178.5" y="-264" font-family="Helvetica,sans-Serif" font-size="10.00">wmtk::dart::utils::</text>
<text text-anchor="middle" x="1233.5" y="-253" font-family="Helvetica,sans-Serif" font-size="10.00">get_canonical_supdart</text>
</a>
</g>
</g>
<!-- Node29&#45;&gt;Node34 -->
<g id="edge41_Node000029_Node000034" class="edge">
<title>Node29&#45;&gt;Node34</title>
<g id="a_edge41_Node000029_Node000034"><a xlink:title=" ">
<path fill="none" stroke="#63b8ff" d="M1113.5,-233.04C1128.64,-236.6 1144.88,-240.41 1160.35,-244.05"/>
<polygon fill="#63b8ff" stroke="#63b8ff" points="1159.85,-247.52 1170.38,-246.4 1161.45,-240.71 1159.85,-247.52"/>
</a>
</g>
</g>
<!-- Node30&#45;&gt;Node26 -->
<g id="edge40_Node000030_Node000026" class="edge">
<title>Node30&#45;&gt;Node26</title>
<g id="a_edge40_Node000030_Node000026"><a xlink:title=" ">
<path fill="none" stroke="#63b8ff" d="M1285.16,-111.98C1291.04,-109.38 1296.79,-106.39 1302,-103 1321.5,-90.31 1318.23,-77.27 1338,-65 1340.77,-63.28 1343.67,-61.68 1346.66,-60.18"/>
<polygon fill="#63b8ff" stroke="#63b8ff" points="1348.17,-63.34 1355.83,-56.02 1345.28,-56.97 1348.17,-63.34"/>
</a>
</g>
</g>
<!-- Node31 -->
<g id="Node000031" class="node">
<title>Node31</title>
<g id="a_Node000031"><a xlink:href="classwmtk_1_1dart_1_1_simplex_dart.html#a7b929a30594f63ccf71d51b167d4de23" target="_top" xlink:title=" ">
<polygon fill="white" stroke="#666666" points="1496,-141.5 1338,-141.5 1338,-122.5 1496,-122.5 1496,-141.5"/>
<text text-anchor="middle" x="1417" y="-129.5" font-family="Helvetica,sans-Serif" font-size="10.00">wmtk::dart::SimplexDart::act</text>
</a>
</g>
</g>
<!-- Node30&#45;&gt;Node31 -->
<g id="edge36_Node000030_Node000031" class="edge">
<title>Node30&#45;&gt;Node31</title>
<g id="a_edge36_Node000030_Node000031"><a xlink:title=" ">
<path fill="none" stroke="#63b8ff" d="M1294.68,-128.66C1305.27,-128.95 1316.49,-129.26 1327.65,-129.57"/>
<polygon fill="#63b8ff" stroke="#63b8ff" points="1327.78,-133.07 1337.87,-129.85 1327.97,-126.07 1327.78,-133.07"/>
</a>
</g>
</g>
<!-- Node31&#45;&gt;Node31 -->
<g id="edge37_Node000031_Node000031" class="edge">
<title>Node31&#45;&gt;Node31</title>
<g id="a_edge37_Node000031_Node000031"><a xlink:title=" ">
<path fill="none" stroke="#63b8ff" d="M1388.95,-141.58C1375.3,-150.23 1384.65,-159.5 1417,-159.5 1439.24,-159.5 1450.61,-155.12 1451.11,-149.57"/>
<polygon fill="#63b8ff" stroke="#63b8ff" points="1453.88,-147.44 1445.05,-141.58 1448.3,-151.67 1453.88,-147.44"/>
</a>
</g>
</g>
<!-- Node32 -->
<g id="Node000032" class="node">
<title>Node32</title>
<g id="a_Node000032"><a xlink:href="classwmtk_1_1dart_1_1___dart.html#ac92923bc94a0aace84b2cf69f277f63a" target="_top" xlink:title=" ">
<polygon fill="white" stroke="#666666" points="1656.5,-123 1548.5,-123 1548.5,-93 1656.5,-93 1656.5,-123"/>
<text text-anchor="start" x="1556.5" y="-111" font-family="Helvetica,sans-Serif" font-size="10.00">wmtk::dart::_Dart::</text>
<text text-anchor="middle" x="1602.5" y="-100" font-family="Helvetica,sans-Serif" font-size="10.00">global_id</text>
</a>
</g>
</g>
<!-- Node31&#45;&gt;Node32 -->
<g id="edge38_Node000031_Node000032" class="edge">
<title>Node31&#45;&gt;Node32</title>
<g id="a_edge38_Node000031_Node000032"><a xlink:title=" ">
<path fill="none" stroke="#63b8ff" d="M1490.79,-122.48C1506.4,-120.44 1522.77,-118.3 1538,-116.31"/>
<polygon fill="#63b8ff" stroke="#63b8ff" points="1538.87,-119.72 1548.33,-114.95 1537.96,-112.78 1538.87,-119.72"/>
</a>
</g>
</g>
<!-- Node33 -->
<g id="Node000033" class="node">
<title>Node33</title>
<g id="a_Node000033"><a xlink:href="classwmtk_1_1dart_1_1___dart.html#aa34a01df7b33bec483a0da0158a1aca4" target="_top" xlink:title=" ">
<polygon fill="white" stroke="#666666" points="1656.5,-171 1548.5,-171 1548.5,-141 1656.5,-141 1656.5,-171"/>
<text text-anchor="start" x="1556.5" y="-159" font-family="Helvetica,sans-Serif" font-size="10.00">wmtk::dart::_Dart::</text>
<text text-anchor="middle" x="1602.5" y="-148" font-family="Helvetica,sans-Serif" font-size="10.00">permutation</text>
</a>
</g>
</g>
<!-- Node31&#45;&gt;Node33 -->
<g id="edge39_Node000031_Node000033" class="edge">
<title>Node31&#45;&gt;Node33</title>
<g id="a_edge39_Node000031_Node000033"><a xlink:title=" ">
<path fill="none" stroke="#63b8ff" d="M1490.79,-141.52C1506.4,-143.56 1522.77,-145.7 1538,-147.69"/>
<polygon fill="#63b8ff" stroke="#63b8ff" points="1537.96,-151.22 1548.33,-149.05 1538.87,-144.28 1537.96,-151.22"/>
</a>
</g>
</g>
<!-- Node34&#45;&gt;Node23 -->
<g id="edge43_Node000034_Node000023" class="edge">
<title>Node34&#45;&gt;Node23</title>
<g id="a_edge43_Node000034_Node000023"><a xlink:title=" ">
<path fill="none" stroke="#63b8ff" d="M1287.97,-245.97C1308.29,-240.27 1331.61,-233.71 1352.74,-227.78"/>
<polygon fill="#63b8ff" stroke="#63b8ff" points="1353.91,-231.08 1362.59,-225.01 1352.02,-224.34 1353.91,-231.08"/>
</a>
</g>
</g>
<!-- Node34&#45;&gt;Node24 -->
<g id="edge44_Node000034_Node000024" class="edge">
<title>Node34&#45;&gt;Node24</title>
<g id="a_edge44_Node000034_Node000024"><a xlink:title=" ">
<path fill="none" stroke="#63b8ff" d="M1295.19,-276.05C1311.23,-280.02 1328.69,-284.35 1345.22,-288.45"/>
<polygon fill="#63b8ff" stroke="#63b8ff" points="1344.82,-291.96 1355.37,-290.97 1346.5,-285.16 1344.82,-291.96"/>
</a>
</g>
</g>
<!-- Node35 -->
<g id="Node000035" class="node">
<title>Node35</title>
<g id="a_Node000035"><a xlink:href="namespacewmtk.html#a5cf45c152e856196bb734c6f48919a24" target="_top" xlink:title="Get a unique integer id corresponding to each primitive type.">
<polygon fill="white" stroke="#666666" points="1475,-273 1359,-273 1359,-243 1475,-243 1475,-273"/>
<text text-anchor="start" x="1367" y="-261" font-family="Helvetica,sans-Serif" font-size="10.00">wmtk::get_primitive</text>
<text text-anchor="middle" x="1417" y="-250" font-family="Helvetica,sans-Serif" font-size="10.00">_type_id</text>
</a>
</g>
</g>
<!-- Node34&#45;&gt;Node35 -->
<g id="edge42_Node000034_Node000035" class="edge">
<title>Node34&#45;&gt;Node35</title>
<g id="a_edge42_Node000034_Node000035"><a xlink:title=" ">
<path fill="none" stroke="#63b8ff" d="M1296.71,-259.97C1313.36,-259.7 1331.45,-259.4 1348.38,-259.12"/>
<polygon fill="#63b8ff" stroke="#63b8ff" points="1348.81,-262.61 1358.75,-258.95 1348.7,-255.61 1348.81,-262.61"/>
</a>
</g>
</g>
<!-- Node37 -->
<g id="Node000037" class="node">
<title>Node37</title>
<g id="a_Node000037"><a xlink:href="classwmtk_1_1dart_1_1_simplex_dart.html#aff44cf4ef3928369c194a1b13573d3e3" target="_top" xlink:title=" ">
<polygon fill="white" stroke="#666666" points="756,-441 619,-441 619,-411 756,-411 756,-441"/>
<text text-anchor="start" x="627" y="-429" font-family="Helvetica,sans-Serif" font-size="10.00">wmtk::dart::SimplexDart</text>
<text text-anchor="middle" x="687.5" y="-418" font-family="Helvetica,sans-Serif" font-size="10.00">::size</text>
</a>
</g>
</g>
<!-- Node36&#45;&gt;Node37 -->
<g id="edge51_Node000036_Node000037" class="edge">
<title>Node36&#45;&gt;Node37</title>
<g id="a_edge51_Node000036_Node000037"><a xlink:title=" ">
<path fill="none" stroke="#63b8ff" d="M571.7,-426C583.74,-426 596.38,-426 608.68,-426"/>
<polygon fill="#63b8ff" stroke="#63b8ff" points="608.91,-429.5 618.91,-426 608.91,-422.5 608.91,-429.5"/>
</a>
</g>
</g>
</g>
</svg>
