<?xml version="1.0" encoding="UTF-8" standalone="no"?>
<!DOCTYPE svg PUBLIC "-//W3C//DTD SVG 1.1//EN"
 "http://www.w3.org/Graphics/SVG/1.1/DTD/svg11.dtd">
<!-- Generated by graphviz version 2.43.0 (0)
 -->
<!-- Title: wmtk::Mesh::map_to_root_tuple Pages: 1 -->
<svg width="1729pt" height="516pt"
 viewBox="0.00 0.00 1729.00 516.00" xmlns="http://www.w3.org/2000/svg" xmlns:xlink="http://www.w3.org/1999/xlink">
<g id="graph0" class="graph" transform="scale(1 1) rotate(0) translate(4 512)">
<title>wmtk::Mesh::map_to_root_tuple</title>
<!-- Node1 -->
<g id="Node000001" class="node">
<title>Node1</title>
<g id="a_Node000001"><a xlink:title="maps a simplex from this mesh to the root mesh">
<polygon fill="#999999" stroke="#666666" points="119,-178.5 0,-178.5 0,-148.5 119,-148.5 119,-178.5"/>
<text text-anchor="start" x="8" y="-166.5" font-family="Helvetica,sans-Serif" font-size="10.00">wmtk::Mesh::map_to</text>
<text text-anchor="middle" x="59.5" y="-155.5" font-family="Helvetica,sans-Serif" font-size="10.00">_root_tuple</text>
</a>
</g>
</g>
<!-- Node2 -->
<g id="Node000002" class="node">
<title>Node2</title>
<g id="a_Node000002"><a xlink:href="classwmtk_1_1multimesh_1_1_multi_mesh_manager.html#a04ea5ec1326046461d38b0dd74ded250" target="_top" xlink:title="maps a simplex from this mesh to the root mesh">
<polygon fill="white" stroke="#666666" points="315,-178.5 155,-178.5 155,-148.5 315,-148.5 315,-178.5"/>
<text text-anchor="start" x="163" y="-166.5" font-family="Helvetica,sans-Serif" font-size="10.00">wmtk::multimesh::MultiMesh</text>
<text text-anchor="middle" x="235" y="-155.5" font-family="Helvetica,sans-Serif" font-size="10.00">Manager::map_to_root_tuple</text>
</a>
</g>
</g>
<!-- Node1&#45;&gt;Node2 -->
<g id="edge1_Node000001_Node000002" class="edge">
<title>Node1&#45;&gt;Node2</title>
<g id="a_edge1_Node000001_Node000002"><a xlink:title=" ">
<path fill="none" stroke="#63b8ff" d="M119.24,-163.5C127.44,-163.5 136.01,-163.5 144.61,-163.5"/>
<polygon fill="#63b8ff" stroke="#63b8ff" points="144.71,-167 154.71,-163.5 144.71,-160 144.71,-167"/>
</a>
</g>
</g>
<!-- Node3 -->
<g id="Node000003" class="node">
<title>Node3</title>
<g id="a_Node000003"><a xlink:href="classwmtk_1_1multimesh_1_1_multi_mesh_manager.html#a434e74f6b295055a45914d41a784124a" target="_top" xlink:title=" ">
<polygon fill="white" stroke="#666666" points="753.5,-258.5 593.5,-258.5 593.5,-228.5 753.5,-228.5 753.5,-258.5"/>
<text text-anchor="start" x="601.5" y="-246.5" font-family="Helvetica,sans-Serif" font-size="10.00">wmtk::multimesh::MultiMesh</text>
<text text-anchor="middle" x="673.5" y="-235.5" font-family="Helvetica,sans-Serif" font-size="10.00">Manager::get_root_mesh</text>
</a>
</g>
</g>
<!-- Node2&#45;&gt;Node3 -->
<g id="edge2_Node000002_Node000003" class="edge">
<title>Node2&#45;&gt;Node3</title>
<g id="a_edge2_Node000002_Node000003"><a xlink:title=" ">
<path fill="none" stroke="#63b8ff" d="M270.58,-178.53C293.08,-187.7 323.29,-198.9 351,-205.5 428.2,-223.89 518.04,-233.56 583.1,-238.53"/>
<polygon fill="#63b8ff" stroke="#63b8ff" points="583.09,-242.03 593.32,-239.28 583.6,-235.05 583.09,-242.03"/>
</a>
</g>
</g>
<!-- Node5 -->
<g id="Node000005" class="node">
<title>Node5</title>
<g id="a_Node000005"><a xlink:href="classwmtk_1_1multimesh_1_1_multi_mesh_manager.html#abbd5b4aab00a9ebb113bc6fe5bb635bd" target="_top" xlink:title=" ">
<polygon fill="white" stroke="#666666" points="538,-178.5 351,-178.5 351,-148.5 538,-148.5 538,-178.5"/>
<text text-anchor="start" x="359" y="-166.5" font-family="Helvetica,sans-Serif" font-size="10.00">wmtk::multimesh::MultiMesh</text>
<text text-anchor="middle" x="444.5" y="-155.5" font-family="Helvetica,sans-Serif" font-size="10.00">Manager::map_tuple_to_root_tuple</text>
</a>
</g>
</g>
<!-- Node2&#45;&gt;Node5 -->
<g id="edge5_Node000002_Node000005" class="edge">
<title>Node2&#45;&gt;Node5</title>
<g id="a_edge5_Node000002_Node000005"><a xlink:title=" ">
<path fill="none" stroke="#63b8ff" d="M315.04,-163.5C323.44,-163.5 332.06,-163.5 340.68,-163.5"/>
<polygon fill="#63b8ff" stroke="#63b8ff" points="340.78,-167 350.78,-163.5 340.78,-160 340.78,-167"/>
</a>
</g>
</g>
<!-- Node28 -->
<g id="Node000028" class="node">
<title>Node28</title>
<g id="a_Node000028"><a xlink:href="classwmtk_1_1simplex_1_1_simplex.html#aca78b1fb0a3c28c0036cf7919bfb0789" target="_top" xlink:title=" ">
<polygon fill="white" stroke="#666666" points="512,-130.5 377,-130.5 377,-100.5 512,-100.5 512,-130.5"/>
<text text-anchor="start" x="385" y="-118.5" font-family="Helvetica,sans-Serif" font-size="10.00">wmtk::simplex::Simplex</text>
<text text-anchor="middle" x="444.5" y="-107.5" font-family="Helvetica,sans-Serif" font-size="10.00">::tuple</text>
</a>
</g>
</g>
<!-- Node2&#45;&gt;Node28 -->
<g id="edge34_Node000002_Node000028" class="edge">
<title>Node2&#45;&gt;Node28</title>
<g id="a_edge34_Node000002_Node000028"><a xlink:title=" ">
<path fill="none" stroke="#63b8ff" d="M301.08,-148.44C322.52,-143.49 346.53,-137.93 368.64,-132.82"/>
<polygon fill="#63b8ff" stroke="#63b8ff" points="369.69,-136.17 378.65,-130.5 368.11,-129.35 369.69,-136.17"/>
</a>
</g>
</g>
<!-- Node3&#45;&gt;Node3 -->
<g id="edge3_Node000003_Node000003" class="edge">
<title>Node3&#45;&gt;Node3</title>
<g id="a_edge3_Node000003_Node000003"><a xlink:title=" ">
<path fill="none" stroke="#63b8ff" d="M633.42,-258.78C624.52,-267.91 637.88,-276.5 673.5,-276.5 694.65,-276.5 707.96,-273.47 713.41,-269.1"/>
<polygon fill="#63b8ff" stroke="#63b8ff" points="716.91,-268.83 713.58,-258.78 709.91,-268.72 716.91,-268.83"/>
</a>
</g>
</g>
<!-- Node4 -->
<g id="Node000004" class="node">
<title>Node4</title>
<g id="a_Node000004"><a xlink:href="classwmtk_1_1multimesh_1_1_multi_mesh_manager.html#a7d39339adb56b1798fe817d81bfcc67c" target="_top" xlink:title="Specifies whether this structure is the root of a multi&#45;mesh tree.">
<polygon fill="white" stroke="#666666" points="993,-239.5 833,-239.5 833,-209.5 993,-209.5 993,-239.5"/>
<text text-anchor="start" x="841" y="-227.5" font-family="Helvetica,sans-Serif" font-size="10.00">wmtk::multimesh::MultiMesh</text>
<text text-anchor="middle" x="913" y="-216.5" font-family="Helvetica,sans-Serif" font-size="10.00">Manager::is_root</text>
</a>
</g>
</g>
<!-- Node3&#45;&gt;Node4 -->
<g id="edge4_Node000003_Node000004" class="edge">
<title>Node3&#45;&gt;Node4</title>
<g id="a_edge4_Node000003_Node000004"><a xlink:title=" ">
<path fill="none" stroke="#63b8ff" d="M753.58,-237.17C775.8,-235.4 800.11,-233.45 822.87,-231.63"/>
<polygon fill="#63b8ff" stroke="#63b8ff" points="823.17,-235.12 832.86,-230.83 822.61,-228.14 823.17,-235.12"/>
</a>
</g>
</g>
<!-- Node5&#45;&gt;Node4 -->
<g id="edge6_Node000005_Node000004" class="edge">
<title>Node5&#45;&gt;Node4</title>
<g id="a_edge6_Node000005_Node000004"><a xlink:title=" ">
<path fill="none" stroke="#63b8ff" d="M538.13,-176.62C550.19,-178.28 562.39,-179.95 574,-181.5 658.21,-192.75 754.32,-204.92 822.47,-213.42"/>
<polygon fill="#63b8ff" stroke="#63b8ff" points="822.39,-216.94 832.74,-214.7 823.25,-209.99 822.39,-216.94"/>
</a>
</g>
</g>
<!-- Node5&#45;&gt;Node5 -->
<g id="edge33_Node000005_Node000005" class="edge">
<title>Node5&#45;&gt;Node5</title>
<g id="a_edge33_Node000005_Node000005"><a xlink:title=" ">
<path fill="none" stroke="#63b8ff" d="M407.94,-178.78C399.81,-187.91 412,-196.5 444.5,-196.5 463.8,-196.5 475.93,-193.47 480.91,-189.1"/>
<polygon fill="#63b8ff" stroke="#63b8ff" points="484.41,-188.83 481.06,-178.78 477.41,-188.72 484.41,-188.83"/>
</a>
</g>
</g>
<!-- Node6 -->
<g id="Node000006" class="node">
<title>Node6</title>
<g id="a_Node000006"><a xlink:href="classwmtk_1_1_mesh.html#a8cc8686f0688613806f43720b6db49e7" target="_top" xlink:title="check validity of tuple including its hash">
<polygon fill="white" stroke="#666666" points="1198,-74 1078,-74 1078,-55 1198,-55 1198,-74"/>
<text text-anchor="middle" x="1138" y="-62" font-family="Helvetica,sans-Serif" font-size="10.00">wmtk::Mesh::is_valid</text>
</a>
</g>
</g>
<!-- Node5&#45;&gt;Node6 -->
<g id="edge7_Node000005_Node000006" class="edge">
<title>Node5&#45;&gt;Node6</title>
<g id="a_edge7_Node000005_Node000006"><a xlink:title=" ">
<path fill="none" stroke="#63b8ff" d="M504.08,-148.44C525.92,-143.19 550.99,-137.59 574,-133.5 750.81,-102.04 961.42,-80.39 1067.94,-70.53"/>
<polygon fill="#63b8ff" stroke="#63b8ff" points="1068.29,-74.02 1077.92,-69.62 1067.65,-67.05 1068.29,-74.02"/>
</a>
</g>
</g>
<!-- Node9 -->
<g id="Node000009" class="node">
<title>Node9</title>
<g id="a_Node000009"><a xlink:href="classwmtk_1_1multimesh_1_1_multi_mesh_manager.html#af6fd8d8b5cc1e8b2c877718b99374f03" target="_top" xlink:title=" ">
<polygon fill="white" stroke="#666666" points="773,-172.5 574,-172.5 574,-142.5 773,-142.5 773,-172.5"/>
<text text-anchor="start" x="582" y="-160.5" font-family="Helvetica,sans-Serif" font-size="10.00">wmtk::multimesh::MultiMesh</text>
<text text-anchor="middle" x="673.5" y="-149.5" font-family="Helvetica,sans-Serif" font-size="10.00">Manager::map_tuple_to_parent_tuple</text>
</a>
</g>
</g>
<!-- Node5&#45;&gt;Node9 -->
<g id="edge11_Node000005_Node000009" class="edge">
<title>Node5&#45;&gt;Node9</title>
<g id="a_edge11_Node000005_Node000009"><a xlink:title=" ">
<path fill="none" stroke="#63b8ff" d="M538.16,-161.05C546.62,-160.83 555.23,-160.6 563.82,-160.37"/>
<polygon fill="#63b8ff" stroke="#63b8ff" points="563.96,-163.87 573.86,-160.11 563.77,-156.87 563.96,-163.87"/>
</a>
</g>
</g>
<!-- Node7 -->
<g id="Node000007" class="node">
<title>Node7</title>
<g id="a_Node000007"><a xlink:href="classwmtk_1_1_tuple.html#a0023f575be92cd5ceeeaaaa3762ea06d" target="_top" xlink:title="Checks if a tuple is &quot;null&quot;. This merely implies the global index is &#45;1.">
<polygon fill="white" stroke="#666666" points="1419.5,-74 1306.5,-74 1306.5,-55 1419.5,-55 1419.5,-74"/>
<text text-anchor="middle" x="1363" y="-62" font-family="Helvetica,sans-Serif" font-size="10.00">wmtk::Tuple::is_null</text>
</a>
</g>
</g>
<!-- Node6&#45;&gt;Node7 -->
<g id="edge8_Node000006_Node000007" class="edge">
<title>Node6&#45;&gt;Node7</title>
<g id="a_edge8_Node000006_Node000007"><a xlink:title=" ">
<path fill="none" stroke="#63b8ff" d="M1198.17,-64.5C1228.32,-64.5 1265.05,-64.5 1296.1,-64.5"/>
<polygon fill="#63b8ff" stroke="#63b8ff" points="1296.39,-68 1306.39,-64.5 1296.39,-61 1296.39,-68"/>
</a>
</g>
</g>
<!-- Node8 -->
<g id="Node000008" class="node">
<title>Node8</title>
<g id="a_Node000008"><a xlink:href="classwmtk_1_1_mesh.html#ade176d345902d97af8c5da04aa3a095b" target="_top" xlink:title=" ">
<polygon fill="white" stroke="#666666" points="1433,-19 1293,-19 1293,0 1433,0 1433,-19"/>
<text text-anchor="middle" x="1363" y="-7" font-family="Helvetica,sans-Serif" font-size="10.00">wmtk::Mesh::is_removed</text>
</a>
</g>
</g>
<!-- Node6&#45;&gt;Node8 -->
<g id="edge9_Node000006_Node000008" class="edge">
<title>Node6&#45;&gt;Node8</title>
<g id="a_edge9_Node000006_Node000008"><a xlink:title=" ">
<path fill="none" stroke="#63b8ff" d="M1177.59,-54.98C1215.25,-45.69 1272.67,-31.53 1313.42,-21.48"/>
<polygon fill="#63b8ff" stroke="#63b8ff" points="1314.27,-24.88 1323.14,-19.09 1312.59,-18.08 1314.27,-24.88"/>
</a>
</g>
</g>
<!-- Node8&#45;&gt;Node8 -->
<g id="edge10_Node000008_Node000008" class="edge">
<title>Node8&#45;&gt;Node8</title>
<g id="a_edge10_Node000008_Node000008"><a xlink:title=" ">
<path fill="none" stroke="#63b8ff" d="M1335.26,-19.08C1321.76,-27.73 1331.01,-37 1363,-37 1384.49,-37 1395.72,-32.82 1396.68,-27.45"/>
<polygon fill="#63b8ff" stroke="#63b8ff" points="1399.39,-25.21 1390.74,-19.08 1393.68,-29.26 1399.39,-25.21"/>
</a>
</g>
</g>
<!-- Node9&#45;&gt;Node4 -->
<g id="edge13_Node000009_Node000004" class="edge">
<title>Node9&#45;&gt;Node4</title>
<g id="a_edge13_Node000009_Node000004"><a xlink:title=" ">
<path fill="none" stroke="#63b8ff" d="M728.69,-172.56C743.17,-176.83 758.74,-181.64 773,-186.5 789.25,-192.04 792.6,-195.43 809,-200.5 816.34,-202.77 824.03,-204.94 831.76,-206.98"/>
<polygon fill="#63b8ff" stroke="#63b8ff" points="831,-210.4 841.55,-209.49 832.74,-203.62 831,-210.4"/>
</a>
</g>
</g>
<!-- Node10 -->
<g id="Node000010" class="node">
<title>Node10</title>
<g id="a_Node000010"><a xlink:href="classwmtk_1_1_mesh.html#a357182137d99f1e4a7ff536eadfc0e56" target="_top" xlink:title=" ">
<polygon fill="white" stroke="#666666" points="969.5,-143.5 856.5,-143.5 856.5,-113.5 969.5,-113.5 969.5,-143.5"/>
<text text-anchor="start" x="864.5" y="-131.5" font-family="Helvetica,sans-Serif" font-size="10.00">wmtk::Mesh::create</text>
<text text-anchor="middle" x="913" y="-120.5" font-family="Helvetica,sans-Serif" font-size="10.00">_const_accessor</text>
</a>
</g>
</g>
<!-- Node9&#45;&gt;Node10 -->
<g id="edge12_Node000009_Node000010" class="edge">
<title>Node9&#45;&gt;Node10</title>
<g id="a_edge12_Node000009_Node000010"><a xlink:title=" ">
<path fill="none" stroke="#63b8ff" d="M773.16,-145.45C797.8,-142.44 823.64,-139.29 846.25,-136.53"/>
<polygon fill="#63b8ff" stroke="#63b8ff" points="846.89,-139.98 856.4,-135.29 846.04,-133.03 846.89,-139.98"/>
</a>
</g>
</g>
<!-- Node11 -->
<g id="Node000011" class="node">
<title>Node11</title>
<g id="a_Node000011"><a xlink:href="classwmtk_1_1multimesh_1_1_multi_mesh_manager.html#a6f9186ced3e97aef2a0af71a3aa5c6a0" target="_top" xlink:title=" ">
<polygon fill="white" stroke="#666666" points="1017,-191.5 809,-191.5 809,-161.5 1017,-161.5 1017,-191.5"/>
<text text-anchor="start" x="817" y="-179.5" font-family="Helvetica,sans-Serif" font-size="10.00">wmtk::multimesh::MultiMesh</text>
<text text-anchor="middle" x="913" y="-168.5" font-family="Helvetica,sans-Serif" font-size="10.00">Manager::map_tuple_between_meshes</text>
</a>
</g>
</g>
<!-- Node9&#45;&gt;Node11 -->
<g id="edge14_Node000009_Node000011" class="edge">
<title>Node9&#45;&gt;Node11</title>
<g id="a_edge14_Node000009_Node000011"><a xlink:title=" ">
<path fill="none" stroke="#63b8ff" d="M773.16,-165.39C781.59,-166.07 790.15,-166.75 798.68,-167.43"/>
<polygon fill="#63b8ff" stroke="#63b8ff" points="798.42,-170.92 808.67,-168.23 798.98,-163.95 798.42,-170.92"/>
</a>
</g>
</g>
<!-- Node11&#45;&gt;Node6 -->
<g id="edge15_Node000011_Node000006" class="edge">
<title>Node11&#45;&gt;Node6</title>
<g id="a_edge15_Node000011_Node000006"><a xlink:title=" ">
<path fill="none" stroke="#63b8ff" d="M1001.98,-161.44C1007.28,-158.9 1012.35,-155.94 1017,-152.5 1042.62,-133.55 1028.07,-110.35 1053,-90.5 1059.61,-85.24 1067.29,-81.03 1075.26,-77.68"/>
<polygon fill="#63b8ff" stroke="#63b8ff" points="1076.59,-80.92 1084.71,-74.12 1074.12,-74.37 1076.59,-80.92"/>
</a>
</g>
</g>
<!-- Node12 -->
<g id="Node000012" class="node">
<title>Node12</title>
<g id="a_Node000012"><a xlink:href="namespacewmtk_1_1multimesh_1_1utils.html#a7d748ef4839b09a5460e8af97b9fa678" target="_top" xlink:title=" ">
<polygon fill="white" stroke="#666666" points="1212.5,-352.5 1063.5,-352.5 1063.5,-322.5 1212.5,-322.5 1212.5,-352.5"/>
<text text-anchor="start" x="1071.5" y="-340.5" font-family="Helvetica,sans-Serif" font-size="10.00">wmtk::multimesh::utils</text>
<text text-anchor="middle" x="1138" y="-329.5" font-family="Helvetica,sans-Serif" font-size="10.00">::read_tuple_map_attribute</text>
</a>
</g>
</g>
<!-- Node11&#45;&gt;Node12 -->
<g id="edge16_Node000011_Node000012" class="edge">
<title>Node11&#45;&gt;Node12</title>
<g id="a_edge16_Node000011_Node000012"><a xlink:title=" ">
<path fill="none" stroke="#63b8ff" d="M999.98,-191.54C1005.95,-194.07 1011.69,-197.04 1017,-200.5 1039.33,-215.07 1035.82,-228.1 1053,-248.5 1072.7,-271.89 1096.81,-297.12 1114.13,-314.72"/>
<polygon fill="#63b8ff" stroke="#63b8ff" points="1112.05,-317.59 1121.58,-322.24 1117.03,-312.67 1112.05,-317.59"/>
</a>
</g>
</g>
<!-- Node17 -->
<g id="Node000017" class="node">
<title>Node17</title>
<g id="a_Node000017"><a xlink:href="classwmtk_1_1_mesh.html#a965a8a24158c4aa8580c57ba09f885f7" target="_top" xlink:title="switch the orientation of the Tuple of the given dimension">
<polygon fill="white" stroke="#666666" points="1195,-239.5 1081,-239.5 1081,-209.5 1195,-209.5 1195,-239.5"/>
<text text-anchor="start" x="1089" y="-227.5" font-family="Helvetica,sans-Serif" font-size="10.00">wmtk::Mesh::switch</text>
<text text-anchor="middle" x="1138" y="-216.5" font-family="Helvetica,sans-Serif" font-size="10.00">_tuple</text>
</a>
</g>
</g>
<!-- Node11&#45;&gt;Node17 -->
<g id="edge21_Node000011_Node000017" class="edge">
<title>Node11&#45;&gt;Node17</title>
<g id="a_edge21_Node000011_Node000017"><a xlink:title=" ">
<path fill="none" stroke="#63b8ff" d="M983.95,-191.56C1011.7,-197.53 1043.47,-204.37 1070.84,-210.26"/>
<polygon fill="#63b8ff" stroke="#63b8ff" points="1070.2,-213.7 1080.71,-212.38 1071.67,-206.86 1070.2,-213.7"/>
</a>
</g>
</g>
<!-- Node18 -->
<g id="Node000018" class="node">
<title>Node18</title>
<g id="a_Node000018"><a xlink:href="namespacewmtk_1_1simplex.html#a0101f27eb2ad82814390b92ab1a4d1a0" target="_top" xlink:title=" ">
<polygon fill="white" stroke="#666666" points="1213.5,-191.5 1062.5,-191.5 1062.5,-161.5 1213.5,-161.5 1213.5,-191.5"/>
<text text-anchor="start" x="1070.5" y="-179.5" font-family="Helvetica,sans-Serif" font-size="10.00">wmtk::simplex::top</text>
<text text-anchor="middle" x="1138" y="-168.5" font-family="Helvetica,sans-Serif" font-size="10.00">_dimension_cofaces_tuples</text>
</a>
</g>
</g>
<!-- Node11&#45;&gt;Node18 -->
<g id="edge22_Node000011_Node000018" class="edge">
<title>Node11&#45;&gt;Node18</title>
<g id="a_edge22_Node000011_Node000018"><a xlink:title=" ">
<path fill="none" stroke="#63b8ff" d="M1017.01,-176.5C1028.84,-176.5 1040.8,-176.5 1052.34,-176.5"/>
<polygon fill="#63b8ff" stroke="#63b8ff" points="1052.37,-180 1062.37,-176.5 1052.37,-173 1052.37,-180"/>
</a>
</g>
</g>
<!-- Node24 -->
<g id="Node000024" class="node">
<title>Node24</title>
<g id="a_Node000024"><a xlink:href="classwmtk_1_1_mesh.html#abaf00438d0700358b160e310d69725c9" target="_top" xlink:title=" ">
<polygon fill="white" stroke="#666666" points="1223,-119 1053,-119 1053,-100 1223,-100 1223,-119"/>
<text text-anchor="middle" x="1138" y="-107" font-family="Helvetica,sans-Serif" font-size="10.00">wmtk::Mesh::top_simplex_type</text>
</a>
</g>
</g>
<!-- Node11&#45;&gt;Node24 -->
<g id="edge28_Node000011_Node000024" class="edge">
<title>Node11&#45;&gt;Node24</title>
<g id="a_edge28_Node000011_Node000024"><a xlink:title=" ">
<path fill="none" stroke="#63b8ff" d="M983.54,-161.45C994.78,-158.68 1006.26,-155.67 1017,-152.5 1046.53,-143.8 1079.41,-131.86 1103.27,-122.76"/>
<polygon fill="#63b8ff" stroke="#63b8ff" points="1104.83,-125.91 1112.91,-119.06 1102.32,-119.38 1104.83,-125.91"/>
</a>
</g>
</g>
<!-- Node26 -->
<g id="Node000026" class="node">
<title>Node26</title>
<g id="a_Node000026"><a xlink:href="namespacewmtk_1_1multimesh_1_1utils.html#aa0392bf28bb6c304127cf0eea634fee8" target="_top" xlink:title=" ">
<polygon fill="white" stroke="#666666" points="1203,-502.5 1073,-502.5 1073,-472.5 1203,-472.5 1203,-502.5"/>
<text text-anchor="start" x="1081" y="-490.5" font-family="Helvetica,sans-Serif" font-size="10.00">wmtk::multimesh::utils</text>
<text text-anchor="middle" x="1138" y="-479.5" font-family="Helvetica,sans-Serif" font-size="10.00">::transport_tuple</text>
</a>
</g>
</g>
<!-- Node11&#45;&gt;Node26 -->
<g id="edge30_Node000011_Node000026" class="edge">
<title>Node11&#45;&gt;Node26</title>
<g id="a_edge30_Node000011_Node000026"><a xlink:title=" ">
<path fill="none" stroke="#63b8ff" d="M1005.89,-191.6C1009.9,-194.16 1013.64,-197.11 1017,-200.5 1068.61,-252.58 1024.18,-294.08 1053,-361.5 1069.64,-400.42 1098.58,-440.23 1117.76,-464.41"/>
<polygon fill="#63b8ff" stroke="#63b8ff" points="1115.11,-466.69 1124.1,-472.28 1120.56,-462.3 1115.11,-466.69"/>
</a>
</g>
</g>
<!-- Node13 -->
<g id="Node000013" class="node">
<title>Node13</title>
<g id="a_Node000013"><a xlink:href="classwmtk_1_1attribute_1_1_accessor.html#ad6fb9ed9ff56571fe257bf0f4b542368" target="_top" xlink:title=" ">
<polygon fill="white" stroke="#666666" points="1434,-352.5 1292,-352.5 1292,-322.5 1434,-322.5 1434,-352.5"/>
<text text-anchor="start" x="1300" y="-340.5" font-family="Helvetica,sans-Serif" font-size="10.00">wmtk::attribute::Accessor</text>
<text text-anchor="middle" x="1363" y="-329.5" font-family="Helvetica,sans-Serif" font-size="10.00">::const_vector_attribute</text>
</a>
</g>
</g>
<!-- Node12&#45;&gt;Node13 -->
<g id="edge17_Node000012_Node000013" class="edge">
<title>Node12&#45;&gt;Node13</title>
<g id="a_edge17_Node000012_Node000013"><a xlink:title=" ">
<path fill="none" stroke="#63b8ff" d="M1212.64,-337.5C1234.75,-337.5 1259.12,-337.5 1281.64,-337.5"/>
<polygon fill="#63b8ff" stroke="#63b8ff" points="1281.85,-341 1291.85,-337.5 1281.85,-334 1281.85,-341"/>
</a>
</g>
</g>
<!-- Node14 -->
<g id="Node000014" class="node">
<title>Node14</title>
<g id="a_Node000014"><a xlink:href="classwmtk_1_1attribute_1_1_tuple_accessor.html#adf0b07ce3ed74d51723e2beed2d3f25e" target="_top" xlink:title=" ">
<polygon fill="white" stroke="#666666" points="1446.5,-304.5 1279.5,-304.5 1279.5,-274.5 1446.5,-274.5 1446.5,-304.5"/>
<text text-anchor="start" x="1287.5" y="-292.5" font-family="Helvetica,sans-Serif" font-size="10.00">wmtk::attribute::TupleAccessor</text>
<text text-anchor="middle" x="1363" y="-281.5" font-family="Helvetica,sans-Serif" font-size="10.00">::const_vector_attribute</text>
</a>
</g>
</g>
<!-- Node12&#45;&gt;Node14 -->
<g id="edge18_Node000012_Node000014" class="edge">
<title>Node12&#45;&gt;Node14</title>
<g id="a_edge18_Node000012_Node000014"><a xlink:title=" ">
<path fill="none" stroke="#63b8ff" d="M1208.95,-322.44C1232.3,-317.42 1258.49,-311.78 1282.51,-306.61"/>
<polygon fill="#63b8ff" stroke="#63b8ff" points="1283.26,-310.03 1292.3,-304.5 1281.79,-303.19 1283.26,-310.03"/>
</a>
</g>
</g>
<!-- Node15 -->
<g id="Node000015" class="node">
<title>Node15</title>
<g id="a_Node000015"><a xlink:href="classwmtk_1_1attribute_1_1_accessor_base.html#abd60539d5779de287d2a0ec31b16c77a" target="_top" xlink:title=" ">
<polygon fill="white" stroke="#666666" points="1434,-448.5 1292,-448.5 1292,-418.5 1434,-418.5 1434,-448.5"/>
<text text-anchor="start" x="1300" y="-436.5" font-family="Helvetica,sans-Serif" font-size="10.00">wmtk::attribute::Accessor</text>
<text text-anchor="middle" x="1363" y="-425.5" font-family="Helvetica,sans-Serif" font-size="10.00">Base::dimension</text>
</a>
</g>
</g>
<!-- Node12&#45;&gt;Node15 -->
<g id="edge19_Node000012_Node000015" class="edge">
<title>Node12&#45;&gt;Node15</title>
<g id="a_edge19_Node000012_Node000015"><a xlink:title=" ">
<path fill="none" stroke="#63b8ff" d="M1159.62,-352.62C1182.73,-368.89 1221.84,-394.46 1259,-409.5 1266.38,-412.49 1274.22,-415.15 1282.14,-417.52"/>
<polygon fill="#63b8ff" stroke="#63b8ff" points="1281.25,-420.9 1291.83,-420.25 1283.16,-414.17 1281.25,-420.9"/>
</a>
</g>
</g>
<!-- Node16 -->
<g id="Node000016" class="node">
<title>Node16</title>
<g id="a_Node000016"><a xlink:href="classwmtk_1_1attribute_1_1_tuple_accessor.html#a8d04c3529eb7adeead49e8faa7a119db" target="_top" xlink:title=" ">
<polygon fill="white" stroke="#666666" points="1446.5,-400.5 1279.5,-400.5 1279.5,-370.5 1446.5,-370.5 1446.5,-400.5"/>
<text text-anchor="start" x="1287.5" y="-388.5" font-family="Helvetica,sans-Serif" font-size="10.00">wmtk::attribute::TupleAccessor</text>
<text text-anchor="middle" x="1363" y="-377.5" font-family="Helvetica,sans-Serif" font-size="10.00">::dimension</text>
</a>
</g>
</g>
<!-- Node12&#45;&gt;Node16 -->
<g id="edge20_Node000012_Node000016" class="edge">
<title>Node12&#45;&gt;Node16</title>
<g id="a_edge20_Node000012_Node000016"><a xlink:title=" ">
<path fill="none" stroke="#63b8ff" d="M1208.95,-352.56C1232.3,-357.58 1258.49,-363.22 1282.51,-368.39"/>
<polygon fill="#63b8ff" stroke="#63b8ff" points="1281.79,-371.81 1292.3,-370.5 1283.26,-364.97 1281.79,-371.81"/>
</a>
</g>
</g>
<!-- Node19 -->
<g id="Node000019" class="node">
<title>Node19</title>
<g id="a_Node000019"><a xlink:href="classwmtk_1_1simplex_1_1_simplex_collection.html#a1e7079b3b75f70dd28c524556cab76cf" target="_top" xlink:title="Add simplex to the collection.">
<polygon fill="white" stroke="#666666" points="1467,-208 1259,-208 1259,-189 1467,-189 1467,-208"/>
<text text-anchor="middle" x="1363" y="-196" font-family="Helvetica,sans-Serif" font-size="10.00">wmtk::simplex::SimplexCollection::add</text>
</a>
</g>
</g>
<!-- Node18&#45;&gt;Node19 -->
<g id="edge23_Node000018_Node000019" class="edge">
<title>Node18&#45;&gt;Node19</title>
<g id="a_edge23_Node000018_Node000019"><a xlink:title=" ">
<path fill="none" stroke="#63b8ff" d="M1213.57,-183.86C1227.01,-185.18 1241.27,-186.59 1255.42,-187.99"/>
<polygon fill="#63b8ff" stroke="#63b8ff" points="1255.4,-191.5 1265.7,-189 1256.09,-184.53 1255.4,-191.5"/>
</a>
</g>
</g>
<!-- Node20 -->
<g id="Node000020" class="node">
<title>Node20</title>
<g id="a_Node000020"><a xlink:href="namespacewmtk.html#a441d6ad4f19569c7d4946e743da1a925" target="_top" xlink:title=" ">
<polygon fill="white" stroke="#666666" points="1424,-170.5 1302,-170.5 1302,-140.5 1424,-140.5 1424,-170.5"/>
<text text-anchor="start" x="1310" y="-158.5" font-family="Helvetica,sans-Serif" font-size="10.00">wmtk::log_and_throw</text>
<text text-anchor="middle" x="1363" y="-147.5" font-family="Helvetica,sans-Serif" font-size="10.00">_error</text>
</a>
</g>
</g>
<!-- Node18&#45;&gt;Node20 -->
<g id="edge24_Node000018_Node000020" class="edge">
<title>Node18&#45;&gt;Node20</title>
<g id="a_edge24_Node000018_Node000020"><a xlink:title=" ">
<path fill="none" stroke="#63b8ff" d="M1213.57,-169.48C1238.83,-167.1 1266.94,-164.45 1291.85,-162.11"/>
<polygon fill="#63b8ff" stroke="#63b8ff" points="1292.31,-165.58 1301.94,-161.16 1291.66,-158.61 1292.31,-165.58"/>
</a>
</g>
</g>
<!-- Node23 -->
<g id="Node000023" class="node">
<title>Node23</title>
<g id="a_Node000023"><a xlink:href="classwmtk_1_1simplex_1_1_simplex.html#ad2cc0340a0772b7d6f03ba7a781d1163" target="_top" xlink:title=" ">
<polygon fill="white" stroke="#666666" points="1430.5,-256.5 1295.5,-256.5 1295.5,-226.5 1430.5,-226.5 1430.5,-256.5"/>
<text text-anchor="start" x="1303.5" y="-244.5" font-family="Helvetica,sans-Serif" font-size="10.00">wmtk::simplex::Simplex</text>
<text text-anchor="middle" x="1363" y="-233.5" font-family="Helvetica,sans-Serif" font-size="10.00">::primitive_type</text>
</a>
</g>
</g>
<!-- Node18&#45;&gt;Node23 -->
<g id="edge27_Node000018_Node000023" class="edge">
<title>Node18&#45;&gt;Node23</title>
<g id="a_edge27_Node000018_Node000023"><a xlink:title=" ">
<path fill="none" stroke="#63b8ff" d="M1196.34,-191.53C1205.34,-194.28 1214.48,-197.3 1223,-200.5 1239.56,-206.73 1242.29,-211.68 1259,-217.5 1267.53,-220.47 1276.59,-223.19 1285.65,-225.63"/>
<polygon fill="#63b8ff" stroke="#63b8ff" points="1284.91,-229.06 1295.47,-228.19 1286.67,-222.28 1284.91,-229.06"/>
</a>
</g>
</g>
<!-- Node21 -->
<g id="Node000021" class="node">
<title>Node21</title>
<g id="a_Node000021"><a xlink:href="namespacewmtk.html#a6a35f11c12436093d26fdd8be6fecc06" target="_top" xlink:title="Retrieves the current logger.">
<polygon fill="white" stroke="#666666" points="1584,-165 1503,-165 1503,-146 1584,-146 1584,-165"/>
<text text-anchor="middle" x="1543.5" y="-153" font-family="Helvetica,sans-Serif" font-size="10.00">wmtk::logger</text>
</a>
</g>
</g>
<!-- Node20&#45;&gt;Node21 -->
<g id="edge25_Node000020_Node000021" class="edge">
<title>Node20&#45;&gt;Node21</title>
<g id="a_edge25_Node000020_Node000021"><a xlink:title=" ">
<path fill="none" stroke="#63b8ff" d="M1424.43,-155.5C1446.68,-155.5 1471.61,-155.5 1492.81,-155.5"/>
<polygon fill="#63b8ff" stroke="#63b8ff" points="1492.89,-159 1502.89,-155.5 1492.89,-152 1492.89,-159"/>
</a>
</g>
</g>
<!-- Node22 -->
<g id="Node000022" class="node">
<title>Node22</title>
<g id="a_Node000022"><a xlink:href="namespacewmtk.html#a3daa7951a5f8b78cf4600dc047fcc180" target="_top" xlink:title="Setup a logger object to be used by WildmeshToolkit.">
<polygon fill="white" stroke="#666666" points="1721,-165 1620,-165 1620,-146 1721,-146 1721,-165"/>
<text text-anchor="middle" x="1670.5" y="-153" font-family="Helvetica,sans-Serif" font-size="10.00">wmtk::set_logger</text>
</a>
</g>
</g>
<!-- Node21&#45;&gt;Node22 -->
<g id="edge26_Node000021_Node000022" class="edge">
<title>Node21&#45;&gt;Node22</title>
<g id="a_edge26_Node000021_Node000022"><a xlink:title=" ">
<path fill="none" stroke="#63b8ff" d="M1584.05,-155.5C1592.17,-155.5 1600.9,-155.5 1609.55,-155.5"/>
<polygon fill="#63b8ff" stroke="#63b8ff" points="1609.65,-159 1619.65,-155.5 1609.65,-152 1609.65,-159"/>
</a>
</g>
</g>
<!-- Node25 -->
<g id="Node000025" class="node">
<title>Node25</title>
<g id="a_Node000025"><a xlink:href="classwmtk_1_1_mesh.html#a933f681cf24a63b155c9462280385200" target="_top" xlink:title=" ">
<polygon fill="white" stroke="#666666" points="1423.5,-122.5 1302.5,-122.5 1302.5,-92.5 1423.5,-92.5 1423.5,-122.5"/>
<text text-anchor="start" x="1310.5" y="-110.5" font-family="Helvetica,sans-Serif" font-size="10.00">wmtk::Mesh::top_cell</text>
<text text-anchor="middle" x="1363" y="-99.5" font-family="Helvetica,sans-Serif" font-size="10.00">_dimension</text>
</a>
</g>
</g>
<!-- Node24&#45;&gt;Node25 -->
<g id="edge29_Node000024_Node000025" class="edge">
<title>Node24&#45;&gt;Node25</title>
<g id="a_edge29_Node000024_Node000025"><a xlink:title=" ">
<path fill="none" stroke="#63b8ff" d="M1223.31,-108.74C1245.99,-108.54 1270.26,-108.32 1292.07,-108.13"/>
<polygon fill="#63b8ff" stroke="#63b8ff" points="1292.26,-111.63 1302.22,-108.04 1292.19,-104.63 1292.26,-111.63"/>
</a>
</g>
</g>
<!-- Node27 -->
<g id="Node000027" class="node">
<title>Node27</title>
<g id="a_Node000027"><a xlink:href="namespacewmtk_1_1multimesh_1_1utils_1_1internal.html#a11885fe5aebd05551827804b0142945d" target="_top" xlink:title=" ">
<polygon fill="white" stroke="#666666" points="1428,-508 1298,-508 1298,-467 1428,-467 1428,-508"/>
<text text-anchor="start" x="1306" y="-496" font-family="Helvetica,sans-Serif" font-size="10.00">wmtk::multimesh::utils</text>
<text text-anchor="start" x="1306" y="-485" font-family="Helvetica,sans-Serif" font-size="10.00">::internal::transport</text>
<text text-anchor="middle" x="1363" y="-474" font-family="Helvetica,sans-Serif" font-size="10.00">_tuple_dart</text>
</a>
</g>
</g>
<!-- Node26&#45;&gt;Node27 -->
<g id="edge31_Node000026_Node000027" class="edge">
<title>Node26&#45;&gt;Node27</title>
<g id="a_edge31_Node000026_Node000027"><a xlink:title=" ">
<path fill="none" stroke="#63b8ff" d="M1203.2,-481.32C1229.56,-480.65 1260.24,-480.57 1287.57,-481.09"/>
<polygon fill="#63b8ff" stroke="#63b8ff" points="1287.79,-484.6 1297.87,-481.32 1287.95,-477.6 1287.79,-484.6"/>
</a>
</g>
</g>
<!-- Node27&#45;&gt;Node26 -->
<g id="edge32_Node000027_Node000026" class="edge">
<title>Node27&#45;&gt;Node26</title>
<g id="a_edge32_Node000027_Node000026"><a xlink:title=" ">
<path fill="none" stroke="#63b8ff" d="M1297.87,-493.68C1271.52,-494.35 1240.83,-494.43 1213.5,-493.91"/>
<polygon fill="#63b8ff" stroke="#63b8ff" points="1213.28,-490.4 1203.2,-493.68 1213.12,-497.4 1213.28,-490.4"/>
</a>
</g>
</g>
</g>
</svg>
