<?xml version="1.0" encoding="UTF-8" standalone="no"?>
<!DOCTYPE svg PUBLIC "-//W3C//DTD SVG 1.1//EN"
 "http://www.w3.org/Graphics/SVG/1.1/DTD/svg11.dtd">
<!-- Generated by graphviz version 2.43.0 (0)
 -->
<!-- Title: wmtk::invariants::MinIncidentValenceInvariant::after Pages: 1 -->
<!--zoomable 324 -->

<svg id="main" version="1.1" xmlns="http://www.w3.org/2000/svg" xmlns:xlink="http://www.w3.org/1999/xlink" xml:space="preserve" onload="init(evt)">
<style type="text/css"><![CDATA[
.node, .edge {opacity: 0.7;}
.node.selected, .edge.selected {opacity: 1;}
.edge:hover path { stroke: red; }
.edge:hover polygon { stroke: red; fill: red; }
]]></style>

<defs>
  <circle id="rim" cx="0" cy="0" r="7"/>
  <circle id="rim2" cx="0" cy="0" r="3.5"/>
  <g id="zoomPlus">
    <use xlink:href="#rim" fill="#404040"><set attributeName="fill" to="#808080" begin="zoomplus.mouseover" end="zoomplus.mouseout"/></use>
    <path d="M-4,0h8M0,-4v8" fill="none" stroke="white" stroke-width="1.5" pointer-events="none"/>
  </g>
  <g id="zoomMin">
    <use xlink:href="#rim" fill="#404040"><set attributeName="fill" to="#808080" begin="zoomminus.mouseover" end="zoomminus.mouseout"/></use>
    <path d="M-4,0h8" fill="none" stroke="white" stroke-width="1.5" pointer-events="none"/>
  </g>
  <g id="arrowUp" transform="translate(30 24)">
    <use xlink:href="#rim"/>
    <path pointer-events="none" fill="none" stroke="white" stroke-width="1.5" d="M0,-3.0v7 M-2.5,-0.5L0,-3.0L2.5,-0.5"/>
  </g>
  <g id="arrowRight" transform="rotate(90) translate(36 -43)">
    <use xlink:href="#rim"/>
    <path pointer-events="none" fill="none" stroke="white" stroke-width="1.5" d="M0,-3.0v7 M-2.5,-0.5L0,-3.0L2.5,-0.5"/>
  </g>
  <g id="arrowDown" transform="rotate(180) translate(-30 -48)">
    <use xlink:href="#rim"/>
    <path pointer-events="none" fill="none" stroke="white" stroke-width="1.5" d="M0,-3.0v7 M-2.5,-0.5L0,-3.0L2.5,-0.5"/>
  </g>
  <g id="arrowLeft" transform="rotate(270) translate(-36 17)">
    <use xlink:href="#rim"/>
    <path pointer-events="none" fill="none" stroke="white" stroke-width="1.5" d="M0,-3.0v7 M-2.5,-0.5L0,-3.0L2.5,-0.5"/>
  </g>
  <g id="resetDef">
    <use xlink:href="#rim2" fill="#404040"><set attributeName="fill" to="#808080" begin="reset.mouseover" end="reset.mouseout"/></use>
  </g>
</defs>
<script type="application/ecmascript">
var viewWidth = 759;
var viewHeight = 324;
var sectionId = 'dynsection-2';
</script>
<script type="application/ecmascript" xlink:href="svg.min.js"/>
<svg id="graph" class="graph">
<g id="viewport">
<title>wmtk::invariants::MinIncidentValenceInvariant::after</title>
<!-- Node1 -->
<g id="Node000001" class="node">
<title>Node1</title>
<g id="a_Node000001"><a xlink:title=" ">
<polygon fill="#999999" stroke="#666666" points="162,-174 0,-174 0,-144 162,-144 162,-174"/>
<text text-anchor="start" x="8" y="-162" font-family="Helvetica,sans-Serif" font-size="10.00">wmtk::invariants::MinIncident</text>
<text text-anchor="middle" x="81" y="-151" font-family="Helvetica,sans-Serif" font-size="10.00">ValenceInvariant::after</text>
</a>
</g>
</g>
<!-- Node2 -->
<g id="Node000002" class="node">
<title>Node2</title>
<g id="a_Node000002"><a xlink:href="namespacewmtk_1_1simplex.html#aedab544fbb3e4c417608c0b5371e94d9" target="_top" xlink:title=" ">
<polygon fill="white" stroke="#666666" points="350.5,-238 207.5,-238 207.5,-208 350.5,-208 350.5,-238"/>
<text text-anchor="start" x="215.5" y="-226" font-family="Helvetica,sans-Serif" font-size="10.00">wmtk::simplex::faces</text>
<text text-anchor="middle" x="279" y="-215" font-family="Helvetica,sans-Serif" font-size="10.00">_single_dimension_tuples</text>
</a>
</g>
</g>
<!-- Node1&#45;&gt;Node2 -->
<g id="edge1_Node000001_Node000002" class="edge">
<title>Node1&#45;&gt;Node2</title>
<g id="a_edge1_Node000001_Node000002"><a xlink:title=" ">
<path fill="none" stroke="#63b8ff" d="M127.95,-174.01C156.11,-183.2 192.35,-195.03 222.15,-204.76"/>
<polygon fill="#63b8ff" stroke="#63b8ff" points="221.4,-208.2 232,-207.98 223.58,-201.55 221.4,-208.2"/>
</a>
</g>
</g>
<!-- Node7 -->
<g id="Node000007" class="node">
<title>Node7</title>
<g id="a_Node000007"><a xlink:href="classwmtk_1_1invariants_1_1_min_incident_valence_invariant.html#a03c779db7485cb3e628da2c6162af6b1" target="_top" xlink:title=" ">
<polygon fill="white" stroke="#666666" points="360,-130.5 198,-130.5 198,-89.5 360,-89.5 360,-130.5"/>
<text text-anchor="start" x="206" y="-118.5" font-family="Helvetica,sans-Serif" font-size="10.00">wmtk::invariants::MinIncident</text>
<text text-anchor="start" x="206" y="-107.5" font-family="Helvetica,sans-Serif" font-size="10.00">ValenceInvariant::is_greater</text>
<text text-anchor="middle" x="279" y="-96.5" font-family="Helvetica,sans-Serif" font-size="10.00">_min_valence</text>
</a>
</g>
</g>
<!-- Node1&#45;&gt;Node7 -->
<g id="edge7_Node000001_Node000007" class="edge">
<title>Node1&#45;&gt;Node7</title>
<g id="a_edge7_Node000001_Node000007"><a xlink:title=" ">
<path fill="none" stroke="#63b8ff" d="M142.14,-143.97C156.54,-140.37 172.23,-136.44 187.66,-132.58"/>
<polygon fill="#63b8ff" stroke="#63b8ff" points="188.9,-135.88 197.75,-130.06 187.2,-129.09 188.9,-135.88"/>
</a>
</g>
</g>
<!-- Node10 -->
<g id="Node000010" class="node">
<title>Node10</title>
<g id="a_Node000010"><a xlink:href="classwmtk_1_1invariants_1_1_invariant.html#ac97548bf5f1167cd85081d1bde011139" target="_top" xlink:title=" ">
<polygon fill="white" stroke="#666666" points="562.5,-174 413.5,-174 413.5,-144 562.5,-144 562.5,-174"/>
<text text-anchor="start" x="421.5" y="-162" font-family="Helvetica,sans-Serif" font-size="10.00">wmtk::invariants::Invariant</text>
<text text-anchor="middle" x="488" y="-151" font-family="Helvetica,sans-Serif" font-size="10.00">::mesh</text>
</a>
</g>
</g>
<!-- Node1&#45;&gt;Node10 -->
<g id="edge14_Node000001_Node000010" class="edge">
<title>Node1&#45;&gt;Node10</title>
<g id="a_edge14_Node000001_Node000010"><a xlink:title=" ">
<path fill="none" stroke="#63b8ff" d="M162.01,-159C231.67,-159 332.29,-159 403.07,-159"/>
<polygon fill="#63b8ff" stroke="#63b8ff" points="403.29,-162.5 413.29,-159 403.29,-155.5 403.29,-162.5"/>
</a>
</g>
</g>
<!-- Node3 -->
<g id="Node000003" class="node">
<title>Node3</title>
<g id="a_Node000003"><a xlink:href="namespacewmtk_1_1simplex.html#aee89641a0de7b5ddf8d15bf376f9d33b" target="_top" xlink:title="Returns all faces of a simplex.">
<polygon fill="white" stroke="#666666" points="549,-297.5 427,-297.5 427,-278.5 549,-278.5 549,-297.5"/>
<text text-anchor="middle" x="488" y="-285.5" font-family="Helvetica,sans-Serif" font-size="10.00">wmtk::simplex::faces</text>
</a>
</g>
</g>
<!-- Node2&#45;&gt;Node3 -->
<g id="edge2_Node000002_Node000003" class="edge">
<title>Node2&#45;&gt;Node3</title>
<g id="a_edge2_Node000002_Node000003"><a xlink:title=" ">
<path fill="none" stroke="#63b8ff" d="M313.47,-238.05C336.35,-247.89 367.57,-260.46 396,-269 404.85,-271.66 414.3,-274.08 423.63,-276.23"/>
<polygon fill="#63b8ff" stroke="#63b8ff" points="423.16,-279.71 433.68,-278.47 424.68,-272.88 423.16,-279.71"/>
</a>
</g>
</g>
<!-- Node4 -->
<g id="Node000004" class="node">
<title>Node4</title>
<g id="a_Node000004"><a xlink:href="classwmtk_1_1simplex_1_1_simplex.html#ad2cc0340a0772b7d6f03ba7a781d1163" target="_top" xlink:title=" ">
<polygon fill="white" stroke="#666666" points="555.5,-260 420.5,-260 420.5,-230 555.5,-230 555.5,-260"/>
<text text-anchor="start" x="428.5" y="-248" font-family="Helvetica,sans-Serif" font-size="10.00">wmtk::simplex::Simplex</text>
<text text-anchor="middle" x="488" y="-237" font-family="Helvetica,sans-Serif" font-size="10.00">::primitive_type</text>
</a>
</g>
</g>
<!-- Node2&#45;&gt;Node4 -->
<g id="edge4_Node000002_Node000004" class="edge">
<title>Node2&#45;&gt;Node4</title>
<g id="a_edge4_Node000002_Node000004"><a xlink:title=" ">
<path fill="none" stroke="#63b8ff" d="M350.66,-230.51C369.91,-232.56 390.85,-234.78 410.41,-236.86"/>
<polygon fill="#63b8ff" stroke="#63b8ff" points="410.18,-240.36 420.5,-237.93 410.92,-233.39 410.18,-240.36"/>
</a>
</g>
</g>
<!-- Node5 -->
<g id="Node000005" class="node">
<title>Node5</title>
<g id="a_Node000005"><a xlink:href="classwmtk_1_1_mesh.html#abaf00438d0700358b160e310d69725c9" target="_top" xlink:title=" ">
<polygon fill="white" stroke="#666666" points="573,-211.5 403,-211.5 403,-192.5 573,-192.5 573,-211.5"/>
<text text-anchor="middle" x="488" y="-199.5" font-family="Helvetica,sans-Serif" font-size="10.00">wmtk::Mesh::top_simplex_type</text>
</a>
</g>
</g>
<!-- Node2&#45;&gt;Node5 -->
<g id="edge5_Node000002_Node000005" class="edge">
<title>Node2&#45;&gt;Node5</title>
<g id="a_edge5_Node000002_Node000005"><a xlink:title=" ">
<path fill="none" stroke="#63b8ff" d="M350.66,-215.83C364.14,-214.46 378.44,-213.01 392.52,-211.58"/>
<polygon fill="#63b8ff" stroke="#63b8ff" points="393.13,-215.04 402.72,-210.55 392.42,-208.08 393.13,-215.04"/>
</a>
</g>
</g>
<!-- Node3&#45;&gt;Node3 -->
<g id="edge3_Node000003_Node000003" class="edge">
<title>Node3&#45;&gt;Node3</title>
<g id="a_edge3_Node000003_Node000003"><a xlink:title=" ">
<path fill="none" stroke="#63b8ff" d="M458.1,-297.58C443.55,-306.23 453.52,-315.5 488,-315.5 511.71,-315.5 523.82,-311.12 524.36,-305.57"/>
<polygon fill="#63b8ff" stroke="#63b8ff" points="526.91,-303.16 517.9,-297.58 521.46,-307.56 526.91,-303.16"/>
</a>
</g>
</g>
<!-- Node6 -->
<g id="Node000006" class="node">
<title>Node6</title>
<g id="a_Node000006"><a xlink:href="classwmtk_1_1_mesh.html#a933f681cf24a63b155c9462280385200" target="_top" xlink:title=" ">
<polygon fill="white" stroke="#666666" points="744,-217 623,-217 623,-187 744,-187 744,-217"/>
<text text-anchor="start" x="631" y="-205" font-family="Helvetica,sans-Serif" font-size="10.00">wmtk::Mesh::top_cell</text>
<text text-anchor="middle" x="683.5" y="-194" font-family="Helvetica,sans-Serif" font-size="10.00">_dimension</text>
</a>
</g>
</g>
<!-- Node5&#45;&gt;Node6 -->
<g id="edge6_Node000005_Node000006" class="edge">
<title>Node5&#45;&gt;Node6</title>
<g id="a_edge6_Node000005_Node000006"><a xlink:title=" ">
<path fill="none" stroke="#63b8ff" d="M573.03,-202C586.31,-202 599.91,-202 612.82,-202"/>
<polygon fill="#63b8ff" stroke="#63b8ff" points="613,-205.5 623,-202 613,-198.5 613,-205.5"/>
</a>
</g>
</g>
<!-- Node8 -->
<g id="Node000008" class="node">
<title>Node8</title>
<g id="a_Node000008"><a xlink:href="classwmtk_1_1simplex_1_1_simplex.html#a2b9d969f3c7b1d746abc29d228f91328" target="_top" xlink:title=" ">
<polygon fill="white" stroke="#666666" points="555.5,-126 420.5,-126 420.5,-96 555.5,-96 555.5,-126"/>
<text text-anchor="start" x="428.5" y="-114" font-family="Helvetica,sans-Serif" font-size="10.00">wmtk::simplex::Simplex</text>
<text text-anchor="middle" x="488" y="-103" font-family="Helvetica,sans-Serif" font-size="10.00">::face</text>
</a>
</g>
</g>
<!-- Node7&#45;&gt;Node8 -->
<g id="edge8_Node000007_Node000008" class="edge">
<title>Node7&#45;&gt;Node8</title>
<g id="a_edge8_Node000007_Node000008"><a xlink:title=" ">
<path fill="none" stroke="#63b8ff" d="M360.03,-110.39C376.52,-110.47 393.85,-110.55 410.21,-110.63"/>
<polygon fill="#63b8ff" stroke="#63b8ff" points="410.25,-114.13 420.27,-110.68 410.28,-107.13 410.25,-114.13"/>
</a>
</g>
</g>
<!-- Node7&#45;&gt;Node10 -->
<g id="edge10_Node000007_Node000010" class="edge">
<title>Node7&#45;&gt;Node10</title>
<g id="a_edge10_Node000007_Node000010"><a xlink:title=" ">
<path fill="none" stroke="#63b8ff" d="M360.03,-128.94C377.63,-133.11 396.18,-137.5 413.5,-141.6"/>
<polygon fill="#63b8ff" stroke="#63b8ff" points="413,-145.08 423.54,-143.98 414.61,-138.27 413,-145.08"/>
</a>
</g>
</g>
<!-- Node11 -->
<g id="Node000011" class="node">
<title>Node11</title>
<g id="a_Node000011"><a xlink:href="classwmtk_1_1simplex_1_1_simplex_collection.html#a3c5684abe23553010bb7f87840e9518d" target="_top" xlink:title="Return const reference to the simplex vector.">
<polygon fill="white" stroke="#666666" points="580,-78 396,-78 396,-48 580,-48 580,-78"/>
<text text-anchor="start" x="404" y="-66" font-family="Helvetica,sans-Serif" font-size="10.00">wmtk::simplex::SimplexCollection</text>
<text text-anchor="middle" x="488" y="-55" font-family="Helvetica,sans-Serif" font-size="10.00">::simplex_vector</text>
</a>
</g>
</g>
<!-- Node7&#45;&gt;Node11 -->
<g id="edge11_Node000007_Node000011" class="edge">
<title>Node7&#45;&gt;Node11</title>
<g id="a_edge11_Node000007_Node000011"><a xlink:title=" ">
<path fill="none" stroke="#63b8ff" d="M360.03,-91.83C376.71,-88.04 394.24,-84.06 410.78,-80.31"/>
<polygon fill="#63b8ff" stroke="#63b8ff" points="411.95,-83.63 420.92,-78 410.4,-76.8 411.95,-83.63"/>
</a>
</g>
</g>
<!-- Node12 -->
<g id="Node000012" class="node">
<title>Node12</title>
<g id="a_Node000012"><a xlink:href="classwmtk_1_1simplex_1_1_simplex.html#a7de67a391b9f48b57f4ecb4c412ccaee" target="_top" xlink:title=" ">
<polygon fill="white" stroke="#666666" points="555.5,-30 420.5,-30 420.5,0 555.5,0 555.5,-30"/>
<text text-anchor="start" x="428.5" y="-18" font-family="Helvetica,sans-Serif" font-size="10.00">wmtk::simplex::Simplex</text>
<text text-anchor="middle" x="488" y="-7" font-family="Helvetica,sans-Serif" font-size="10.00">::vertex</text>
</a>
</g>
</g>
<!-- Node7&#45;&gt;Node12 -->
<g id="edge12_Node000007_Node000012" class="edge">
<title>Node7&#45;&gt;Node12</title>
<g id="a_edge12_Node000007_Node000012"><a xlink:title=" ">
<path fill="none" stroke="#63b8ff" d="M308.29,-89.44C331.02,-73.73 364.3,-52.54 396,-39 400.76,-36.97 405.74,-35.07 410.8,-33.31"/>
<polygon fill="#63b8ff" stroke="#63b8ff" points="412.22,-36.52 420.62,-30.08 410.03,-29.88 412.22,-36.52"/>
</a>
</g>
</g>
<!-- Node9 -->
<g id="Node000009" class="node">
<title>Node9</title>
<g id="a_Node000009"><a xlink:href="classwmtk_1_1simplex_1_1_simplex.html#ab6d51ca0c220792c1c09824d152bb53a" target="_top" xlink:title=" ">
<polygon fill="white" stroke="#666666" points="751,-78 616,-78 616,-48 751,-48 751,-78"/>
<text text-anchor="start" x="624" y="-66" font-family="Helvetica,sans-Serif" font-size="10.00">wmtk::simplex::Simplex</text>
<text text-anchor="middle" x="683.5" y="-55" font-family="Helvetica,sans-Serif" font-size="10.00">::Simplex</text>
</a>
</g>
</g>
<!-- Node8&#45;&gt;Node9 -->
<g id="edge9_Node000008_Node000009" class="edge">
<title>Node8&#45;&gt;Node9</title>
<g id="a_edge9_Node000008_Node000009"><a xlink:title=" ">
<path fill="none" stroke="#63b8ff" d="M549.69,-95.94C569.51,-91.03 591.67,-85.53 612.13,-80.46"/>
<polygon fill="#63b8ff" stroke="#63b8ff" points="613.16,-83.81 622.02,-78 611.47,-77.01 613.16,-83.81"/>
</a>
</g>
</g>
<!-- Node12&#45;&gt;Node9 -->
<g id="edge13_Node000012_Node000009" class="edge">
<title>Node12&#45;&gt;Node9</title>
<g id="a_edge13_Node000012_Node000009"><a xlink:title=" ">
<path fill="none" stroke="#63b8ff" d="M549.69,-30.06C569.51,-34.97 591.67,-40.47 612.13,-45.54"/>
<polygon fill="#63b8ff" stroke="#63b8ff" points="611.47,-48.99 622.02,-48 613.16,-42.19 611.47,-48.99"/>
</a>
</g>
</g>
</g>
</svg>

<g id="navigator" transform="translate(0 0)" fill="#404254">
  <rect fill="#f2f5e9" fill-opacity="0.5" stroke="#606060" stroke-width=".5" x="0" y="0" width="60" height="60"/>
  <use id="zoomplus" xlink:href="#zoomPlus" x="17" y="9" onmousedown="handleZoom(evt,'in')"/>
  <use id="zoomminus" xlink:href="#zoomMin" x="42" y="9" onmousedown="handleZoom(evt,'out')"/>
  <use id="reset" xlink:href="#resetDef" x="30" y="36" onmousedown="handleReset()"/>
   <use id="arrowup" xlink:href="#arrowUp" x="0" y="0" onmousedown="handlePan(0,-1)"/>
  <use id="arrowright" xlink:href="#arrowRight" x="0" y="0" onmousedown="handlePan(1,0)"/>
  <use id="arrowdown" xlink:href="#arrowDown" x="0" y="0" onmousedown="handlePan(0,1)"/>
  <use id="arrowleft" xlink:href="#arrowLeft" x="0" y="0" onmousedown="handlePan(-1,0)"/>
</g>
<svg viewBox="0 0 15 15" width="100%" height="30px" preserveAspectRatio="xMaxYMin meet">
 <g id="arrow_out" transform="scale(0.3 0.3)">
  <a xlink:href="classwmtk_1_1invariants_1_1_min_incident_valence_invariant_a86763a63b94889f8e22cd9c705c84110_cgraph_org.svg" target="_base">
   <rect id="button" ry="5" rx="5" y="6" x="6" height="38" width="38"
        fill="#f2f5e9" fill-opacity="0.5" stroke="#606060" stroke-width="1.0"/>
   <path id="arrow"
     d="M 11.500037,31.436501 C 11.940474,20.09759 22.043105,11.32322 32.158766,21.979434 L 37.068811,17.246167 C 37.068811,17.246167 37.088388,32 37.088388,32 L 22.160133,31.978069 C 22.160133,31.978069 26.997745,27.140456 26.997745,27.140456 C 18.528582,18.264221 13.291696,25.230495 11.500037,31.436501 z"
     style="fill:#404040;"/>
  </a>
 </g>
</svg>

<style type='text/css'>
<![CDATA[
[data-mouse-over-selected='false'] { opacity: 0.7; }
[data-mouse-over-selected='true']  { opacity: 1.0; }
]]>
</style>
<script type="application/ecmascript"><![CDATA[
document.addEventListener('DOMContentLoaded', (event) => {
  highlightEdges();
  highlightAdjacentNodes();
});
]]></script>
</svg>
