<?xml version="1.0" encoding="UTF-8" standalone="no"?>
<!DOCTYPE svg PUBLIC "-//W3C//DTD SVG 1.1//EN"
 "http://www.w3.org/Graphics/SVG/1.1/DTD/svg11.dtd">
<!-- Generated by graphviz version 2.43.0 (0)
 -->
<!-- Title: wmtk::Mesh::get_index_access Pages: 1 -->
<!--zoomable 403 -->

<svg id="main" version="1.1" xmlns="http://www.w3.org/2000/svg" xmlns:xlink="http://www.w3.org/1999/xlink" xml:space="preserve" onload="init(evt)">
<style type="text/css"><![CDATA[
.node, .edge {opacity: 0.7;}
.node.selected, .edge.selected {opacity: 1;}
.edge:hover path { stroke: red; }
.edge:hover polygon { stroke: red; fill: red; }
]]></style>

<defs>
  <circle id="rim" cx="0" cy="0" r="7"/>
  <circle id="rim2" cx="0" cy="0" r="3.5"/>
  <g id="zoomPlus">
    <use xlink:href="#rim" fill="#404040"><set attributeName="fill" to="#808080" begin="zoomplus.mouseover" end="zoomplus.mouseout"/></use>
    <path d="M-4,0h8M0,-4v8" fill="none" stroke="white" stroke-width="1.5" pointer-events="none"/>
  </g>
  <g id="zoomMin">
    <use xlink:href="#rim" fill="#404040"><set attributeName="fill" to="#808080" begin="zoomminus.mouseover" end="zoomminus.mouseout"/></use>
    <path d="M-4,0h8" fill="none" stroke="white" stroke-width="1.5" pointer-events="none"/>
  </g>
  <g id="arrowUp" transform="translate(30 24)">
    <use xlink:href="#rim"/>
    <path pointer-events="none" fill="none" stroke="white" stroke-width="1.5" d="M0,-3.0v7 M-2.5,-0.5L0,-3.0L2.5,-0.5"/>
  </g>
  <g id="arrowRight" transform="rotate(90) translate(36 -43)">
    <use xlink:href="#rim"/>
    <path pointer-events="none" fill="none" stroke="white" stroke-width="1.5" d="M0,-3.0v7 M-2.5,-0.5L0,-3.0L2.5,-0.5"/>
  </g>
  <g id="arrowDown" transform="rotate(180) translate(-30 -48)">
    <use xlink:href="#rim"/>
    <path pointer-events="none" fill="none" stroke="white" stroke-width="1.5" d="M0,-3.0v7 M-2.5,-0.5L0,-3.0L2.5,-0.5"/>
  </g>
  <g id="arrowLeft" transform="rotate(270) translate(-36 17)">
    <use xlink:href="#rim"/>
    <path pointer-events="none" fill="none" stroke="white" stroke-width="1.5" d="M0,-3.0v7 M-2.5,-0.5L0,-3.0L2.5,-0.5"/>
  </g>
  <g id="resetDef">
    <use xlink:href="#rim2" fill="#404040"><set attributeName="fill" to="#808080" begin="reset.mouseover" end="reset.mouseout"/></use>
  </g>
</defs>
<script type="application/ecmascript">
var viewWidth = 1001;
var viewHeight = 403;
var sectionId = 'dynsection-64';
</script>
<script type="application/ecmascript" xlink:href="svg.min.js"/>
<svg id="graph" class="graph">
<g id="viewport">
<title>wmtk::Mesh::get_index_access</title>
<!-- Node1 -->
<g id="Node000001" class="node">
<title>Node1</title>
<g id="a_Node000001"><a xlink:title=" ">
<polygon fill="#999999" stroke="#666666" points="993,-246.5 862,-246.5 862,-216.5 993,-216.5 993,-246.5"/>
<text text-anchor="start" x="870" y="-234.5" font-family="Helvetica,sans-Serif" font-size="10.00">wmtk::Mesh::get_index</text>
<text text-anchor="middle" x="927.5" y="-223.5" font-family="Helvetica,sans-Serif" font-size="10.00">_access</text>
</a>
</g>
</g>
<!-- Node2 -->
<g id="Node000002" class="node">
<title>Node2</title>
<g id="a_Node000002"><a xlink:href="classwmtk_1_1multimesh_1_1_multi_mesh_manager.html#ad758cb4357b3433d856a9772cd654166" target="_top" xlink:title=" ">
<polygon fill="white" stroke="#666666" points="826,-351.5 666,-351.5 666,-321.5 826,-321.5 826,-351.5"/>
<text text-anchor="start" x="674" y="-339.5" font-family="Helvetica,sans-Serif" font-size="10.00">wmtk::multimesh::MultiMesh</text>
<text text-anchor="middle" x="746" y="-328.5" font-family="Helvetica,sans-Serif" font-size="10.00">Manager::child_global_cid</text>
</a>
</g>
</g>
<!-- Node1&#45;&gt;Node2 -->
<g id="edge1_Node000001_Node000002" class="edge">
<title>Node1&#45;&gt;Node2</title>
<g id="a_edge1_Node000001_Node000002"><a xlink:title=" ">
<path fill="none" stroke="#63b8ff" d="M891.89,-251.74C857.01,-272.15 803.97,-303.17 772.67,-321.48"/>
<polygon fill="#63b8ff" stroke="#63b8ff" points="893.92,-254.61 900.78,-246.54 890.38,-248.57 893.92,-254.61"/>
</a>
</g>
</g>
<!-- Node4 -->
<g id="Node000004" class="node">
<title>Node4</title>
<g id="a_Node000004"><a xlink:href="classwmtk_1_1multimesh_1_1_multi_mesh_manager.html#a96f18860efc9874463d5c73d6485ef89" target="_top" xlink:title=" ">
<polygon fill="white" stroke="#666666" points="826,-271.5 666,-271.5 666,-241.5 826,-241.5 826,-271.5"/>
<text text-anchor="start" x="674" y="-259.5" font-family="Helvetica,sans-Serif" font-size="10.00">wmtk::multimesh::MultiMesh</text>
<text text-anchor="middle" x="746" y="-248.5" font-family="Helvetica,sans-Serif" font-size="10.00">Manager::mapped_tuples</text>
</a>
</g>
</g>
<!-- Node1&#45;&gt;Node4 -->
<g id="edge3_Node000001_Node000004" class="edge">
<title>Node1&#45;&gt;Node4</title>
<g id="a_edge3_Node000001_Node000004"><a xlink:title=" ">
<path fill="none" stroke="#63b8ff" d="M851.8,-241.9C843.38,-243.08 834.78,-244.27 826.31,-245.45"/>
<polygon fill="#63b8ff" stroke="#63b8ff" points="852.53,-245.34 861.95,-240.49 851.56,-238.4 852.53,-245.34"/>
</a>
</g>
</g>
<!-- Node13 -->
<g id="Node000013" class="node">
<title>Node13</title>
<g id="a_Node000013"><a xlink:href="classwmtk_1_1multimesh_1_1_multi_mesh_manager.html#a6be287b36d92488c3fa3ff39f866056f" target="_top" xlink:title=" ">
<polygon fill="white" stroke="#666666" points="826,-164.5 666,-164.5 666,-134.5 826,-134.5 826,-164.5"/>
<text text-anchor="start" x="674" y="-152.5" font-family="Helvetica,sans-Serif" font-size="10.00">wmtk::multimesh::MultiMesh</text>
<text text-anchor="middle" x="746" y="-141.5" font-family="Helvetica,sans-Serif" font-size="10.00">Manager::parent_global_cid</text>
</a>
</g>
</g>
<!-- Node1&#45;&gt;Node13 -->
<g id="edge12_Node000001_Node000013" class="edge">
<title>Node1&#45;&gt;Node13</title>
<g id="a_edge12_Node000001_Node000013"><a xlink:title=" ">
<path fill="none" stroke="#63b8ff" d="M891.21,-211.41C872.19,-200.96 848.15,-188.35 826,-178.5 814.92,-173.57 802.72,-168.79 791.29,-164.58"/>
<polygon fill="#63b8ff" stroke="#63b8ff" points="889.66,-214.55 900.11,-216.34 893.06,-208.43 889.66,-214.55"/>
</a>
</g>
</g>
<!-- Node19 -->
<g id="Node000019" class="node">
<title>Node19</title>
<g id="a_Node000019"><a xlink:href="classwmtk_1_1multimesh_1_1_multi_mesh_manager.html#a74760c3295ccb0900669c2005d680a10" target="_top" xlink:title=" ">
<polygon fill="white" stroke="#666666" points="826,-217.5 666,-217.5 666,-187.5 826,-187.5 826,-217.5"/>
<text text-anchor="start" x="674" y="-205.5" font-family="Helvetica,sans-Serif" font-size="10.00">wmtk::multimesh::MultiMesh</text>
<text text-anchor="middle" x="746" y="-194.5" font-family="Helvetica,sans-Serif" font-size="10.00">Manager::parent_local_fid</text>
</a>
</g>
</g>
<!-- Node1&#45;&gt;Node19 -->
<g id="edge18_Node000001_Node000019" class="edge">
<title>Node1&#45;&gt;Node19</title>
<g id="a_edge18_Node000001_Node000019"><a xlink:title=" ">
<path fill="none" stroke="#63b8ff" d="M852.07,-219.48C843.57,-218.1 834.87,-216.7 826.31,-215.31"/>
<polygon fill="#63b8ff" stroke="#63b8ff" points="851.52,-222.93 861.95,-221.07 852.64,-216.02 851.52,-222.93"/>
</a>
</g>
</g>
<!-- Node3 -->
<g id="Node000003" class="node">
<title>Node3</title>
<g id="a_Node000003"><a xlink:href="classwmtk_1_1operations_1_1utils_1_1_update_edge_operation_multi_mesh_map_functor.html#ab413d7900df2ba3309ed000de38248e5" target="_top" xlink:title=" ">
<polygon fill="white" stroke="#666666" points="622.5,-392 441.5,-392 441.5,-351 622.5,-351 622.5,-392"/>
<text text-anchor="start" x="449.5" y="-380" font-family="Helvetica,sans-Serif" font-size="10.00">wmtk::operations::utils</text>
<text text-anchor="start" x="449.5" y="-369" font-family="Helvetica,sans-Serif" font-size="10.00">::UpdateEdgeOperationMultiMesh</text>
<text text-anchor="middle" x="532" y="-358" font-family="Helvetica,sans-Serif" font-size="10.00">MapFunctor::child_global_cid</text>
</a>
</g>
</g>
<!-- Node2&#45;&gt;Node3 -->
<g id="edge2_Node000002_Node000003" class="edge">
<title>Node2&#45;&gt;Node3</title>
<g id="a_edge2_Node000002_Node000003"><a xlink:title=" ">
<path fill="none" stroke="#63b8ff" d="M655.82,-351.22C644.91,-353.02 633.76,-354.87 622.84,-356.67"/>
<polygon fill="#63b8ff" stroke="#63b8ff" points="656.46,-354.66 665.76,-349.58 655.32,-347.76 656.46,-354.66"/>
</a>
</g>
</g>
<!-- Node5 -->
<g id="Node000005" class="node">
<title>Node5</title>
<g id="a_Node000005"><a xlink:href="classwmtk_1_1multimesh_1_1_multi_mesh_manager.html#a976fa18136619f216426b4fdbeabac38" target="_top" xlink:title=" ">
<polygon fill="white" stroke="#666666" points="630,-271.5 434,-271.5 434,-241.5 630,-241.5 630,-271.5"/>
<text text-anchor="start" x="442" y="-259.5" font-family="Helvetica,sans-Serif" font-size="10.00">wmtk::multimesh::MultiMesh</text>
<text text-anchor="middle" x="532" y="-248.5" font-family="Helvetica,sans-Serif" font-size="10.00">Manager::update_map_tuple_hashes</text>
</a>
</g>
</g>
<!-- Node4&#45;&gt;Node5 -->
<g id="edge4_Node000004_Node000005" class="edge">
<title>Node4&#45;&gt;Node5</title>
<g id="a_edge4_Node000004_Node000005"><a xlink:title=" ">
<path fill="none" stroke="#63b8ff" d="M655.56,-256.5C647.13,-256.5 638.56,-256.5 630.06,-256.5"/>
<polygon fill="#63b8ff" stroke="#63b8ff" points="655.76,-260 665.76,-256.5 655.76,-253 655.76,-260"/>
</a>
</g>
</g>
<!-- Node10 -->
<g id="Node000010" class="node">
<title>Node10</title>
<g id="a_Node000010"><a xlink:href="classwmtk_1_1multimesh_1_1_multi_mesh_manager.html#af9c47d7844feea21e37c259942446d08" target="_top" xlink:title=" ">
<polygon fill="white" stroke="#666666" points="612,-333 452,-333 452,-292 612,-292 612,-333"/>
<text text-anchor="start" x="460" y="-321" font-family="Helvetica,sans-Serif" font-size="10.00">wmtk::multimesh::MultiMesh</text>
<text text-anchor="start" x="460" y="-310" font-family="Helvetica,sans-Serif" font-size="10.00">Manager::update_maps_from</text>
<text text-anchor="middle" x="532" y="-299" font-family="Helvetica,sans-Serif" font-size="10.00">_edge_operation</text>
</a>
</g>
</g>
<!-- Node4&#45;&gt;Node10 -->
<g id="edge9_Node000004_Node000010" class="edge">
<title>Node4&#45;&gt;Node10</title>
<g id="a_edge9_Node000004_Node000010"><a xlink:title=" ">
<path fill="none" stroke="#63b8ff" d="M678.5,-274.07C656.99,-279.75 632.94,-286.1 610.69,-291.98"/>
<polygon fill="#63b8ff" stroke="#63b8ff" points="679.41,-277.44 688.19,-271.51 677.63,-270.68 679.41,-277.44"/>
</a>
</g>
</g>
<!-- Node6 -->
<g id="Node000006" class="node">
<title>Node6</title>
<g id="a_Node000006"><a xlink:href="classwmtk_1_1operations_1_1utils_1_1_update_edge_operation_multi_mesh_map_functor.html#a0e68925616ea65b5fedbf614333658e5" target="_top" xlink:title=" ">
<polygon fill="white" stroke="#666666" points="398,-277 217,-277 217,-236 398,-236 398,-277"/>
<text text-anchor="start" x="225" y="-265" font-family="Helvetica,sans-Serif" font-size="10.00">wmtk::operations::utils</text>
<text text-anchor="start" x="225" y="-254" font-family="Helvetica,sans-Serif" font-size="10.00">::UpdateEdgeOperationMultiMesh</text>
<text text-anchor="middle" x="307.5" y="-243" font-family="Helvetica,sans-Serif" font-size="10.00">MapFunctor::update_all_hashes</text>
</a>
</g>
</g>
<!-- Node5&#45;&gt;Node6 -->
<g id="edge5_Node000005_Node000006" class="edge">
<title>Node5&#45;&gt;Node6</title>
<g id="a_edge5_Node000005_Node000006"><a xlink:title=" ">
<path fill="none" stroke="#63b8ff" d="M423.73,-256.5C415.18,-256.5 406.61,-256.5 398.2,-256.5"/>
<polygon fill="#63b8ff" stroke="#63b8ff" points="423.73,-260 433.73,-256.5 423.73,-253 423.73,-260"/>
</a>
</g>
</g>
<!-- Node7 -->
<g id="Node000007" class="node">
<title>Node7</title>
<g id="a_Node000007"><a xlink:href="classwmtk_1_1operations_1_1utils_1_1_update_edge_operation_multi_mesh_map_functor.html#a34a9d1b901b746f227331b404606ac14" target="_top" xlink:title=" ">
<polygon fill="white" stroke="#666666" points="181,-336 0,-336 0,-295 181,-295 181,-336"/>
<text text-anchor="start" x="8" y="-324" font-family="Helvetica,sans-Serif" font-size="10.00">wmtk::operations::utils</text>
<text text-anchor="start" x="8" y="-313" font-family="Helvetica,sans-Serif" font-size="10.00">::UpdateEdgeOperationMultiMesh</text>
<text text-anchor="middle" x="90.5" y="-302" font-family="Helvetica,sans-Serif" font-size="10.00">MapFunctor::operator()</text>
</a>
</g>
</g>
<!-- Node6&#45;&gt;Node7 -->
<g id="edge6_Node000006_Node000007" class="edge">
<title>Node6&#45;&gt;Node7</title>
<g id="a_edge6_Node000006_Node000007"><a xlink:title=" ">
<path fill="none" stroke="#63b8ff" d="M221.85,-279.73C203.57,-284.75 184.37,-290.01 166.49,-294.92"/>
<polygon fill="#63b8ff" stroke="#63b8ff" points="222.89,-283.07 231.61,-277.05 221.04,-276.32 222.89,-283.07"/>
</a>
</g>
</g>
<!-- Node8 -->
<g id="Node000008" class="node">
<title>Node8</title>
<g id="a_Node000008"><a xlink:href="classwmtk_1_1operations_1_1utils_1_1_update_edge_operation_multi_mesh_map_functor.html#a6f3a220b85044a73d43a4c124d099bbc" target="_top" xlink:title=" ">
<polygon fill="white" stroke="#666666" points="181,-277 0,-277 0,-236 181,-236 181,-277"/>
<text text-anchor="start" x="8" y="-265" font-family="Helvetica,sans-Serif" font-size="10.00">wmtk::operations::utils</text>
<text text-anchor="start" x="8" y="-254" font-family="Helvetica,sans-Serif" font-size="10.00">::UpdateEdgeOperationMultiMesh</text>
<text text-anchor="middle" x="90.5" y="-243" font-family="Helvetica,sans-Serif" font-size="10.00">MapFunctor::operator()</text>
</a>
</g>
</g>
<!-- Node6&#45;&gt;Node8 -->
<g id="edge7_Node000006_Node000008" class="edge">
<title>Node6&#45;&gt;Node8</title>
<g id="a_edge7_Node000006_Node000008"><a xlink:title=" ">
<path fill="none" stroke="#63b8ff" d="M206.63,-256.5C198.19,-256.5 189.68,-256.5 181.32,-256.5"/>
<polygon fill="#63b8ff" stroke="#63b8ff" points="206.88,-260 216.88,-256.5 206.88,-253 206.88,-260"/>
</a>
</g>
</g>
<!-- Node9 -->
<g id="Node000009" class="node">
<title>Node9</title>
<g id="a_Node000009"><a xlink:href="classwmtk_1_1operations_1_1utils_1_1_update_edge_operation_multi_mesh_map_functor.html#a57611fefa85bea3d1858ca385b0f350a" target="_top" xlink:title=" ">
<polygon fill="white" stroke="#666666" points="181,-218 0,-218 0,-177 181,-177 181,-218"/>
<text text-anchor="start" x="8" y="-206" font-family="Helvetica,sans-Serif" font-size="10.00">wmtk::operations::utils</text>
<text text-anchor="start" x="8" y="-195" font-family="Helvetica,sans-Serif" font-size="10.00">::UpdateEdgeOperationMultiMesh</text>
<text text-anchor="middle" x="90.5" y="-184" font-family="Helvetica,sans-Serif" font-size="10.00">MapFunctor::operator()</text>
</a>
</g>
</g>
<!-- Node6&#45;&gt;Node9 -->
<g id="edge8_Node000006_Node000009" class="edge">
<title>Node6&#45;&gt;Node9</title>
<g id="a_edge8_Node000006_Node000009"><a xlink:title=" ">
<path fill="none" stroke="#63b8ff" d="M221.85,-233.27C203.57,-228.25 184.37,-222.99 166.49,-218.08"/>
<polygon fill="#63b8ff" stroke="#63b8ff" points="221.04,-236.68 231.61,-235.95 222.89,-229.93 221.04,-236.68"/>
</a>
</g>
</g>
<!-- Node11 -->
<g id="Node000011" class="node">
<title>Node11</title>
<g id="a_Node000011"><a xlink:href="classwmtk_1_1operations_1_1utils_1_1_update_edge_operation_multi_mesh_map_functor.html#ad42e3f4eb0ddcf269c022a2a93b2b28f" target="_top" xlink:title=" ">
<polygon fill="white" stroke="#666666" points="398,-395 217,-395 217,-354 398,-354 398,-395"/>
<text text-anchor="start" x="225" y="-383" font-family="Helvetica,sans-Serif" font-size="10.00">wmtk::operations::utils</text>
<text text-anchor="start" x="225" y="-372" font-family="Helvetica,sans-Serif" font-size="10.00">::UpdateEdgeOperationMultiMesh</text>
<text text-anchor="middle" x="307.5" y="-361" font-family="Helvetica,sans-Serif" font-size="10.00">MapFunctor::update_all_maps</text>
</a>
</g>
</g>
<!-- Node10&#45;&gt;Node11 -->
<g id="edge10_Node000010_Node000011" class="edge">
<title>Node10&#45;&gt;Node11</title>
<g id="a_edge10_Node000010_Node000011"><a xlink:title=" ">
<path fill="none" stroke="#63b8ff" d="M447.46,-335.78C425.98,-341.76 403.02,-348.16 382.08,-354"/>
<polygon fill="#63b8ff" stroke="#63b8ff" points="448.53,-339.11 457.22,-333.06 446.65,-332.37 448.53,-339.11"/>
</a>
</g>
</g>
<!-- Node12 -->
<g id="Node000012" class="node">
<title>Node12</title>
<g id="a_Node000012"><a xlink:href="classwmtk_1_1multimesh_1_1_multi_mesh_manager.html#a6f0d633e82ccf4f1aad6f7193fd67fd2" target="_top" xlink:title=" ">
<polygon fill="white" stroke="#666666" points="387.5,-336 227.5,-336 227.5,-295 387.5,-295 387.5,-336"/>
<text text-anchor="start" x="235.5" y="-324" font-family="Helvetica,sans-Serif" font-size="10.00">wmtk::multimesh::MultiMesh</text>
<text text-anchor="start" x="235.5" y="-313" font-family="Helvetica,sans-Serif" font-size="10.00">Manager::update_maps_from</text>
<text text-anchor="middle" x="307.5" y="-302" font-family="Helvetica,sans-Serif" font-size="10.00">_edge_operation</text>
</a>
</g>
</g>
<!-- Node10&#45;&gt;Node12 -->
<g id="edge11_Node000010_Node000012" class="edge">
<title>Node10&#45;&gt;Node12</title>
<g id="a_edge11_Node000010_Node000012"><a xlink:title=" ">
<path fill="none" stroke="#63b8ff" d="M441.54,-313.71C423.73,-313.95 405.13,-314.2 387.69,-314.43"/>
<polygon fill="#63b8ff" stroke="#63b8ff" points="441.98,-317.2 451.93,-313.57 441.88,-310.2 441.98,-317.2"/>
</a>
</g>
</g>
<!-- Node14 -->
<g id="Node000014" class="node">
<title>Node14</title>
<g id="a_Node000014"><a xlink:href="classwmtk_1_1operations_1_1utils_1_1_update_edge_operation_multi_mesh_map_functor.html#a98bb9167e59b593de458bd7c6040868e" target="_top" xlink:title=" ">
<polygon fill="white" stroke="#666666" points="622.5,-159 441.5,-159 441.5,-118 622.5,-118 622.5,-159"/>
<text text-anchor="start" x="449.5" y="-147" font-family="Helvetica,sans-Serif" font-size="10.00">wmtk::operations::utils</text>
<text text-anchor="start" x="449.5" y="-136" font-family="Helvetica,sans-Serif" font-size="10.00">::UpdateEdgeOperationMultiMesh</text>
<text text-anchor="middle" x="532" y="-125" font-family="Helvetica,sans-Serif" font-size="10.00">MapFunctor::parent_global_cid</text>
</a>
</g>
</g>
<!-- Node13&#45;&gt;Node14 -->
<g id="edge13_Node000013_Node000014" class="edge">
<title>Node13&#45;&gt;Node14</title>
<g id="a_edge13_Node000013_Node000014"><a xlink:title=" ">
<path fill="none" stroke="#63b8ff" d="M655.49,-144.86C644.68,-144.29 633.65,-143.72 622.84,-143.16"/>
<polygon fill="#63b8ff" stroke="#63b8ff" points="655.59,-148.37 665.76,-145.39 655.95,-141.37 655.59,-148.37"/>
</a>
</g>
</g>
<!-- Node15 -->
<g id="Node000015" class="node">
<title>Node15</title>
<g id="a_Node000015"><a xlink:href="classwmtk_1_1operations_1_1utils_1_1_update_edge_operation_multi_mesh_map_functor.html#a9b36575024b847b2c0367ced7f1c5caa" target="_top" xlink:title=" ">
<polygon fill="white" stroke="#666666" points="398,-159 217,-159 217,-118 398,-118 398,-159"/>
<text text-anchor="start" x="225" y="-147" font-family="Helvetica,sans-Serif" font-size="10.00">wmtk::operations::utils</text>
<text text-anchor="start" x="225" y="-136" font-family="Helvetica,sans-Serif" font-size="10.00">::UpdateEdgeOperationMultiMesh</text>
<text text-anchor="middle" x="307.5" y="-125" font-family="Helvetica,sans-Serif" font-size="10.00">MapFunctor::operator()</text>
</a>
</g>
</g>
<!-- Node14&#45;&gt;Node15 -->
<g id="edge14_Node000014_Node000015" class="edge">
<title>Node14&#45;&gt;Node15</title>
<g id="a_edge14_Node000014_Node000015"><a xlink:title=" ">
<path fill="none" stroke="#63b8ff" d="M431.37,-138.5C420.33,-138.5 409.13,-138.5 398.22,-138.5"/>
<polygon fill="#63b8ff" stroke="#63b8ff" points="431.46,-142 441.46,-138.5 431.46,-135 431.46,-142"/>
</a>
</g>
</g>
<!-- Node16 -->
<g id="Node000016" class="node">
<title>Node16</title>
<g id="a_Node000016"><a xlink:href="classwmtk_1_1operations_1_1utils_1_1_update_edge_operation_multi_mesh_map_functor.html#a8784cdae3cf7a6f1ad6b5c361dd8fc03" target="_top" xlink:title=" ">
<polygon fill="white" stroke="#666666" points="398,-41 217,-41 217,0 398,0 398,-41"/>
<text text-anchor="start" x="225" y="-29" font-family="Helvetica,sans-Serif" font-size="10.00">wmtk::operations::utils</text>
<text text-anchor="start" x="225" y="-18" font-family="Helvetica,sans-Serif" font-size="10.00">::UpdateEdgeOperationMultiMesh</text>
<text text-anchor="middle" x="307.5" y="-7" font-family="Helvetica,sans-Serif" font-size="10.00">MapFunctor::operator()</text>
</a>
</g>
</g>
<!-- Node14&#45;&gt;Node16 -->
<g id="edge15_Node000014_Node000016" class="edge">
<title>Node14&#45;&gt;Node16</title>
<g id="a_edge15_Node000014_Node000016"><a xlink:title=" ">
<path fill="none" stroke="#63b8ff" d="M496.8,-111.75C470.83,-92.42 433.64,-66.78 398,-49.5 391.83,-46.51 385.27,-43.71 378.62,-41.14"/>
<polygon fill="#63b8ff" stroke="#63b8ff" points="494.72,-114.56 504.82,-117.78 498.93,-108.97 494.72,-114.56"/>
</a>
</g>
</g>
<!-- Node17 -->
<g id="Node000017" class="node">
<title>Node17</title>
<g id="a_Node000017"><a xlink:href="classwmtk_1_1operations_1_1utils_1_1_update_edge_operation_multi_mesh_map_functor.html#a756bab482d580d864f71439794990aac" target="_top" xlink:title=" ">
<polygon fill="white" stroke="#666666" points="398,-218 217,-218 217,-177 398,-177 398,-218"/>
<text text-anchor="start" x="225" y="-206" font-family="Helvetica,sans-Serif" font-size="10.00">wmtk::operations::utils</text>
<text text-anchor="start" x="225" y="-195" font-family="Helvetica,sans-Serif" font-size="10.00">::UpdateEdgeOperationMultiMesh</text>
<text text-anchor="middle" x="307.5" y="-184" font-family="Helvetica,sans-Serif" font-size="10.00">MapFunctor::operator()</text>
</a>
</g>
</g>
<!-- Node14&#45;&gt;Node17 -->
<g id="edge16_Node000014_Node000017" class="edge">
<title>Node14&#45;&gt;Node17</title>
<g id="a_edge16_Node000014_Node000017"><a xlink:title=" ">
<path fill="none" stroke="#63b8ff" d="M443.66,-161.66C424.67,-166.7 404.69,-171.99 386.11,-176.92"/>
<polygon fill="#63b8ff" stroke="#63b8ff" points="444.72,-165 453.49,-159.05 442.93,-158.23 444.72,-165"/>
</a>
</g>
</g>
<!-- Node18 -->
<g id="Node000018" class="node">
<title>Node18</title>
<g id="a_Node000018"><a xlink:href="classwmtk_1_1operations_1_1utils_1_1_update_edge_operation_multi_mesh_map_functor.html#a6f288597493f5914cf6d75e7a8674e70" target="_top" xlink:title=" ">
<polygon fill="white" stroke="#666666" points="398,-100 217,-100 217,-59 398,-59 398,-100"/>
<text text-anchor="start" x="225" y="-88" font-family="Helvetica,sans-Serif" font-size="10.00">wmtk::operations::utils</text>
<text text-anchor="start" x="225" y="-77" font-family="Helvetica,sans-Serif" font-size="10.00">::UpdateEdgeOperationMultiMesh</text>
<text text-anchor="middle" x="307.5" y="-66" font-family="Helvetica,sans-Serif" font-size="10.00">MapFunctor::operator()</text>
</a>
</g>
</g>
<!-- Node14&#45;&gt;Node18 -->
<g id="edge17_Node000014_Node000018" class="edge">
<title>Node14&#45;&gt;Node18</title>
<g id="a_edge17_Node000014_Node000018"><a xlink:title=" ">
<path fill="none" stroke="#63b8ff" d="M443.66,-115.34C424.67,-110.3 404.69,-105.01 386.11,-100.08"/>
<polygon fill="#63b8ff" stroke="#63b8ff" points="442.93,-118.77 453.49,-117.95 444.72,-112 442.93,-118.77"/>
</a>
</g>
</g>
<!-- Node20 -->
<g id="Node000020" class="node">
<title>Node20</title>
<g id="a_Node000020"><a xlink:href="classwmtk_1_1operations_1_1utils_1_1_update_edge_operation_multi_mesh_map_functor.html#aa27624c5173e22260721f2cf0adec1f8" target="_top" xlink:title=" ">
<polygon fill="white" stroke="#666666" points="622.5,-218 441.5,-218 441.5,-177 622.5,-177 622.5,-218"/>
<text text-anchor="start" x="449.5" y="-206" font-family="Helvetica,sans-Serif" font-size="10.00">wmtk::operations::utils</text>
<text text-anchor="start" x="449.5" y="-195" font-family="Helvetica,sans-Serif" font-size="10.00">::UpdateEdgeOperationMultiMesh</text>
<text text-anchor="middle" x="532" y="-184" font-family="Helvetica,sans-Serif" font-size="10.00">MapFunctor::parent_local_fid</text>
</a>
</g>
</g>
<!-- Node19&#45;&gt;Node20 -->
<g id="edge19_Node000019_Node000020" class="edge">
<title>Node19&#45;&gt;Node20</title>
<g id="a_edge19_Node000019_Node000020"><a xlink:title=" ">
<path fill="none" stroke="#63b8ff" d="M655.49,-200.39C644.68,-200.13 633.65,-199.87 622.84,-199.62"/>
<polygon fill="#63b8ff" stroke="#63b8ff" points="655.68,-203.89 665.76,-200.63 655.84,-196.9 655.68,-203.89"/>
</a>
</g>
</g>
<!-- Node20&#45;&gt;Node15 -->
<g id="edge20_Node000020_Node000015" class="edge">
<title>Node20&#45;&gt;Node15</title>
<g id="a_edge20_Node000020_Node000015"><a xlink:title=" ">
<path fill="none" stroke="#63b8ff" d="M443.66,-174.34C424.67,-169.3 404.69,-164.01 386.11,-159.08"/>
<polygon fill="#63b8ff" stroke="#63b8ff" points="442.93,-177.77 453.49,-176.95 444.72,-171 442.93,-177.77"/>
</a>
</g>
</g>
<!-- Node20&#45;&gt;Node17 -->
<g id="edge21_Node000020_Node000017" class="edge">
<title>Node20&#45;&gt;Node17</title>
<g id="a_edge21_Node000020_Node000017"><a xlink:title=" ">
<path fill="none" stroke="#63b8ff" d="M431.37,-197.5C420.33,-197.5 409.13,-197.5 398.22,-197.5"/>
<polygon fill="#63b8ff" stroke="#63b8ff" points="431.46,-201 441.46,-197.5 431.46,-194 431.46,-201"/>
</a>
</g>
</g>
</g>
</svg>

<g id="navigator" transform="translate(0 0)" fill="#404254">
  <rect fill="#f2f5e9" fill-opacity="0.5" stroke="#606060" stroke-width=".5" x="0" y="0" width="60" height="60"/>
  <use id="zoomplus" xlink:href="#zoomPlus" x="17" y="9" onmousedown="handleZoom(evt,'in')"/>
  <use id="zoomminus" xlink:href="#zoomMin" x="42" y="9" onmousedown="handleZoom(evt,'out')"/>
  <use id="reset" xlink:href="#resetDef" x="30" y="36" onmousedown="handleReset()"/>
   <use id="arrowup" xlink:href="#arrowUp" x="0" y="0" onmousedown="handlePan(0,-1)"/>
  <use id="arrowright" xlink:href="#arrowRight" x="0" y="0" onmousedown="handlePan(1,0)"/>
  <use id="arrowdown" xlink:href="#arrowDown" x="0" y="0" onmousedown="handlePan(0,1)"/>
  <use id="arrowleft" xlink:href="#arrowLeft" x="0" y="0" onmousedown="handlePan(-1,0)"/>
</g>
<svg viewBox="0 0 15 15" width="100%" height="30px" preserveAspectRatio="xMaxYMin meet">
 <g id="arrow_out" transform="scale(0.3 0.3)">
  <a xlink:href="classwmtk_1_1_mesh_a20cac3ebd122054689c9aeb5a32cfaf0_icgraph_org.svg" target="_base">
   <rect id="button" ry="5" rx="5" y="6" x="6" height="38" width="38"
        fill="#f2f5e9" fill-opacity="0.5" stroke="#606060" stroke-width="1.0"/>
   <path id="arrow"
     d="M 11.500037,31.436501 C 11.940474,20.09759 22.043105,11.32322 32.158766,21.979434 L 37.068811,17.246167 C 37.068811,17.246167 37.088388,32 37.088388,32 L 22.160133,31.978069 C 22.160133,31.978069 26.997745,27.140456 26.997745,27.140456 C 18.528582,18.264221 13.291696,25.230495 11.500037,31.436501 z"
     style="fill:#404040;"/>
  </a>
 </g>
</svg>

<style type='text/css'>
<![CDATA[
[data-mouse-over-selected='false'] { opacity: 0.7; }
[data-mouse-over-selected='true']  { opacity: 1.0; }
]]>
</style>
<script type="application/ecmascript"><![CDATA[
document.addEventListener('DOMContentLoaded', (event) => {
  highlightEdges();
  highlightAdjacentNodes();
});
]]></script>
</svg>
