<?xml version="1.0" encoding="UTF-8" standalone="no"?>
<!DOCTYPE svg PUBLIC "-//W3C//DTD SVG 1.1//EN"
 "http://www.w3.org/Graphics/SVG/1.1/DTD/svg11.dtd">
<!-- Generated by graphviz version 2.43.0 (0)
 -->
<!-- Title: wmtk::dart::SimplexDart::product Pages: 1 -->
<!--zoomable 557 -->

<svg id="main" version="1.1" xmlns="http://www.w3.org/2000/svg" xmlns:xlink="http://www.w3.org/1999/xlink" xml:space="preserve" onload="init(evt)">
<style type="text/css"><![CDATA[
.node, .edge {opacity: 0.7;}
.node.selected, .edge.selected {opacity: 1;}
.edge:hover path { stroke: red; }
.edge:hover polygon { stroke: red; fill: red; }
]]></style>

<defs>
  <circle id="rim" cx="0" cy="0" r="7"/>
  <circle id="rim2" cx="0" cy="0" r="3.5"/>
  <g id="zoomPlus">
    <use xlink:href="#rim" fill="#404040"><set attributeName="fill" to="#808080" begin="zoomplus.mouseover" end="zoomplus.mouseout"/></use>
    <path d="M-4,0h8M0,-4v8" fill="none" stroke="white" stroke-width="1.5" pointer-events="none"/>
  </g>
  <g id="zoomMin">
    <use xlink:href="#rim" fill="#404040"><set attributeName="fill" to="#808080" begin="zoomminus.mouseover" end="zoomminus.mouseout"/></use>
    <path d="M-4,0h8" fill="none" stroke="white" stroke-width="1.5" pointer-events="none"/>
  </g>
  <g id="arrowUp" transform="translate(30 24)">
    <use xlink:href="#rim"/>
    <path pointer-events="none" fill="none" stroke="white" stroke-width="1.5" d="M0,-3.0v7 M-2.5,-0.5L0,-3.0L2.5,-0.5"/>
  </g>
  <g id="arrowRight" transform="rotate(90) translate(36 -43)">
    <use xlink:href="#rim"/>
    <path pointer-events="none" fill="none" stroke="white" stroke-width="1.5" d="M0,-3.0v7 M-2.5,-0.5L0,-3.0L2.5,-0.5"/>
  </g>
  <g id="arrowDown" transform="rotate(180) translate(-30 -48)">
    <use xlink:href="#rim"/>
    <path pointer-events="none" fill="none" stroke="white" stroke-width="1.5" d="M0,-3.0v7 M-2.5,-0.5L0,-3.0L2.5,-0.5"/>
  </g>
  <g id="arrowLeft" transform="rotate(270) translate(-36 17)">
    <use xlink:href="#rim"/>
    <path pointer-events="none" fill="none" stroke="white" stroke-width="1.5" d="M0,-3.0v7 M-2.5,-0.5L0,-3.0L2.5,-0.5"/>
  </g>
  <g id="resetDef">
    <use xlink:href="#rim2" fill="#404040"><set attributeName="fill" to="#808080" begin="reset.mouseover" end="reset.mouseout"/></use>
  </g>
</defs>
<script type="application/ecmascript">
var viewWidth = 1514;
var viewHeight = 557;
var sectionId = 'dynsection-22';
</script>
<script type="application/ecmascript" xlink:href="svg.min.js"/>
<svg id="graph" class="graph">
<g id="viewport">
<title>wmtk::dart::SimplexDart::product</title>
<!-- Node1 -->
<g id="Node000001" class="node">
<title>Node1</title>
<g id="a_Node000001"><a xlink:title=" ">
<polygon fill="#999999" stroke="#666666" points="1506,-267 1369,-267 1369,-237 1506,-237 1506,-267"/>
<text text-anchor="start" x="1377" y="-255" font-family="Helvetica,sans-Serif" font-size="10.00">wmtk::dart::SimplexDart</text>
<text text-anchor="middle" x="1437.5" y="-244" font-family="Helvetica,sans-Serif" font-size="10.00">::product</text>
</a>
</g>
</g>
<!-- Node2 -->
<g id="Node000002" class="node">
<title>Node2</title>
<g id="a_Node000002"><a xlink:href="classwmtk_1_1dart_1_1_simplex_dart.html#ac199e5eaaaf546c2f6a9d7970df3a6ae" target="_top" xlink:title=" ">
<polygon fill="white" stroke="#666666" points="1333,-483.5 1175,-483.5 1175,-464.5 1333,-464.5 1333,-483.5"/>
<text text-anchor="middle" x="1254" y="-471.5" font-family="Helvetica,sans-Serif" font-size="10.00">wmtk::dart::SimplexDart::act</text>
</a>
</g>
</g>
<!-- Node1&#45;&gt;Node2 -->
<g id="edge1_Node000001_Node000002" class="edge">
<title>Node1&#45;&gt;Node2</title>
<g id="a_edge1_Node000001_Node000002"><a xlink:title=" ">
<path fill="none" stroke="#63b8ff" d="M1430.26,-276.88C1418.48,-318.8 1388.94,-403.47 1333,-450 1325.38,-456.34 1316.09,-461.01 1306.62,-464.45"/>
<polygon fill="#63b8ff" stroke="#63b8ff" points="1433.65,-277.76 1432.88,-267.2 1426.89,-275.94 1433.65,-277.76"/>
</a>
</g>
</g>
<!-- Node3 -->
<g id="Node000003" class="node">
<title>Node3</title>
<g id="a_Node000003"><a xlink:href="namespacewmtk_1_1dart_1_1utils.html#a38d4e769a52b66206b96a5bd6c76616c" target="_top" xlink:title=" ">
<polygon fill="white" stroke="#666666" points="1139,-426 997,-426 997,-396 1139,-396 1139,-426"/>
<text text-anchor="start" x="1005" y="-414" font-family="Helvetica,sans-Serif" font-size="10.00">wmtk::dart::utils::</text>
<text text-anchor="middle" x="1068" y="-403" font-family="Helvetica,sans-Serif" font-size="10.00">apply_simplex_involution</text>
</a>
</g>
</g>
<!-- Node1&#45;&gt;Node3 -->
<g id="edge2_Node000001_Node000003" class="edge">
<title>Node1&#45;&gt;Node3</title>
<g id="a_edge2_Node000001_Node000003"><a xlink:title=" ">
<path fill="none" stroke="#63b8ff" d="M1429.41,-276.84C1417.01,-315.03 1387.36,-386.93 1333,-417 1265.91,-454.12 1173.8,-440.17 1118,-426.05"/>
<polygon fill="#63b8ff" stroke="#63b8ff" points="1432.83,-277.61 1432.46,-267.02 1426.15,-275.53 1432.83,-277.61"/>
</a>
</g>
</g>
<!-- Node11 -->
<g id="Node000011" class="node">
<title>Node11</title>
<g id="a_Node000011"><a xlink:href="namespacewmtk_1_1dart_1_1utils.html#adf4bec80fa2f0838078a389a615803f3" target="_top" xlink:title=" ">
<polygon fill="white" stroke="#666666" points="1325,-407.5 1183,-407.5 1183,-366.5 1325,-366.5 1325,-407.5"/>
<text text-anchor="start" x="1191" y="-395.5" font-family="Helvetica,sans-Serif" font-size="10.00">wmtk::dart::utils::</text>
<text text-anchor="start" x="1191" y="-384.5" font-family="Helvetica,sans-Serif" font-size="10.00">apply_simplex_involution</text>
<text text-anchor="middle" x="1254" y="-373.5" font-family="Helvetica,sans-Serif" font-size="10.00">_directed</text>
</a>
</g>
</g>
<!-- Node1&#45;&gt;Node11 -->
<g id="edge10_Node000001_Node000011" class="edge">
<title>Node1&#45;&gt;Node11</title>
<g id="a_edge10_Node000001_Node000011"><a xlink:title=" ">
<path fill="none" stroke="#63b8ff" d="M1417.18,-274.79C1397.67,-296.75 1365.8,-329.8 1333,-352 1325.13,-357.32 1316.32,-362.17 1307.54,-366.45"/>
<polygon fill="#63b8ff" stroke="#63b8ff" points="1419.83,-277.08 1423.79,-267.25 1414.57,-272.47 1419.83,-277.08"/>
</a>
</g>
</g>
<!-- Node12 -->
<g id="Node000012" class="node">
<title>Node12</title>
<g id="a_Node000012"><a xlink:href="namespacewmtk_1_1dart_1_1utils.html#a62cdf3ebb0a6bb03853783a3c54493cd" target="_top" xlink:title=" ">
<polygon fill="white" stroke="#666666" points="1119.5,-334 1016.5,-334 1016.5,-304 1119.5,-304 1119.5,-334"/>
<text text-anchor="start" x="1024.5" y="-322" font-family="Helvetica,sans-Serif" font-size="10.00">wmtk::dart::utils::</text>
<text text-anchor="middle" x="1068" y="-311" font-family="Helvetica,sans-Serif" font-size="10.00">edge_mirror</text>
</a>
</g>
</g>
<!-- Node1&#45;&gt;Node12 -->
<g id="edge12_Node000001_Node000012" class="edge">
<title>Node1&#45;&gt;Node12</title>
<g id="a_edge12_Node000001_Node000012"><a xlink:title=" ">
<path fill="none" stroke="#63b8ff" d="M1411.89,-273.82C1392.12,-289.81 1362.82,-310.19 1333,-319 1261.35,-340.17 1173.92,-334.38 1119.84,-327.38"/>
<polygon fill="#63b8ff" stroke="#63b8ff" points="1414.3,-276.37 1419.75,-267.29 1409.83,-270.99 1414.3,-276.37"/>
</a>
</g>
</g>
<!-- Node13 -->
<g id="Node000013" class="node">
<title>Node13</title>
<g id="a_Node000013"><a xlink:href="namespacewmtk_1_1dart_1_1utils.html#a0721b4e767d3215bb7ac1d0de3122c14" target="_top" xlink:title=" ">
<polygon fill="white" stroke="#666666" points="1119.5,-276 1016.5,-276 1016.5,-246 1119.5,-246 1119.5,-276"/>
<text text-anchor="start" x="1024.5" y="-264" font-family="Helvetica,sans-Serif" font-size="10.00">wmtk::dart::utils::</text>
<text text-anchor="middle" x="1068" y="-253" font-family="Helvetica,sans-Serif" font-size="10.00">edge_mirror</text>
</a>
</g>
</g>
<!-- Node1&#45;&gt;Node13 -->
<g id="edge13_Node000001_Node000013" class="edge">
<title>Node1&#45;&gt;Node13</title>
<g id="a_edge13_Node000001_Node000013"><a xlink:title=" ">
<path fill="none" stroke="#63b8ff" d="M1358.28,-253.92C1286.17,-255.68 1181.28,-258.25 1119.6,-259.76"/>
<polygon fill="#63b8ff" stroke="#63b8ff" points="1358.76,-257.41 1368.67,-253.66 1358.58,-250.41 1358.76,-257.41"/>
</a>
</g>
</g>
<!-- Node14 -->
<g id="Node000014" class="node">
<title>Node14</title>
<g id="a_Node000014"><a xlink:href="namespacewmtk_1_1dart_1_1utils.html#a29feb97a24cc121b53b85ff19b10e2c8" target="_top" xlink:title=" ">
<polygon fill="white" stroke="#666666" points="1320,-310 1188,-310 1188,-280 1320,-280 1320,-310"/>
<text text-anchor="start" x="1196" y="-298" font-family="Helvetica,sans-Serif" font-size="10.00">wmtk::dart::utils::</text>
<text text-anchor="middle" x="1254" y="-287" font-family="Helvetica,sans-Serif" font-size="10.00">edge_mirror_left_action</text>
</a>
</g>
</g>
<!-- Node1&#45;&gt;Node14 -->
<g id="edge14_Node000001_Node000014" class="edge">
<title>Node1&#45;&gt;Node14</title>
<g id="a_edge14_Node000001_Node000014"><a xlink:title=" ">
<path fill="none" stroke="#63b8ff" d="M1362.93,-269.43C1348.19,-272.92 1332.81,-276.57 1318.44,-279.97"/>
<polygon fill="#63b8ff" stroke="#63b8ff" points="1364.1,-272.75 1373.02,-267.04 1362.48,-265.94 1364.1,-272.75"/>
</a>
</g>
</g>
<!-- Node15 -->
<g id="Node000015" class="node">
<title>Node15</title>
<g id="a_Node000015"><a xlink:href="namespacewmtk_1_1dart.html#a231e35fd144459d332b37666651e7dfb" target="_top" xlink:title=" ">
<polygon fill="white" stroke="#666666" points="1315,-224 1193,-224 1193,-194 1315,-194 1315,-224"/>
<text text-anchor="start" x="1201" y="-212" font-family="Helvetica,sans-Serif" font-size="10.00">wmtk::dart::find_local</text>
<text text-anchor="middle" x="1254" y="-201" font-family="Helvetica,sans-Serif" font-size="10.00">_dart_left_action</text>
</a>
</g>
</g>
<!-- Node1&#45;&gt;Node15 -->
<g id="edge17_Node000001_Node000015" class="edge">
<title>Node1&#45;&gt;Node15</title>
<g id="a_edge17_Node000001_Node000015"><a xlink:title=" ">
<path fill="none" stroke="#63b8ff" d="M1363.19,-234.63C1347.21,-230.85 1330.48,-226.88 1315.09,-223.24"/>
<polygon fill="#63b8ff" stroke="#63b8ff" points="1362.48,-238.06 1373.02,-236.96 1364.1,-231.25 1362.48,-238.06"/>
</a>
</g>
</g>
<!-- Node16 -->
<g id="Node000016" class="node">
<title>Node16</title>
<g id="a_Node000016"><a xlink:href="namespacewmtk_1_1dart_1_1utils.html#a5a1d80c919ea8054fa6ddb989fb7cc30" target="_top" xlink:title=" ">
<polygon fill="white" stroke="#666666" points="1133.5,-206.5 1002.5,-206.5 1002.5,-165.5 1133.5,-165.5 1133.5,-206.5"/>
<text text-anchor="start" x="1010.5" y="-194.5" font-family="Helvetica,sans-Serif" font-size="10.00">wmtk::dart::utils::</text>
<text text-anchor="start" x="1010.5" y="-183.5" font-family="Helvetica,sans-Serif" font-size="10.00">get_simplex_involution</text>
<text text-anchor="middle" x="1068" y="-172.5" font-family="Helvetica,sans-Serif" font-size="10.00">_upward</text>
</a>
</g>
</g>
<!-- Node1&#45;&gt;Node16 -->
<g id="edge29_Node000001_Node000016" class="edge">
<title>Node1&#45;&gt;Node16</title>
<g id="a_edge29_Node000001_Node000016"><a xlink:title=" ">
<path fill="none" stroke="#63b8ff" d="M1411.89,-230.18C1392.12,-214.19 1362.82,-193.81 1333,-185 1267.18,-165.55 1188.03,-169.2 1133.66,-175.58"/>
<polygon fill="#63b8ff" stroke="#63b8ff" points="1409.83,-233.01 1419.75,-236.71 1414.3,-227.63 1409.83,-233.01"/>
</a>
</g>
</g>
<!-- Node25 -->
<g id="Node000025" class="node">
<title>Node25</title>
<g id="a_Node000025"><a xlink:href="namespacewmtk_1_1dart_1_1utils.html#adc678ea868e984077e26f8b9a79e7ad9" target="_top" xlink:title=" ">
<polygon fill="white" stroke="#666666" points="1318,-137.5 1190,-137.5 1190,-96.5 1318,-96.5 1318,-137.5"/>
<text text-anchor="start" x="1198" y="-125.5" font-family="Helvetica,sans-Serif" font-size="10.00">wmtk::dart::utils::</text>
<text text-anchor="start" x="1198" y="-114.5" font-family="Helvetica,sans-Serif" font-size="10.00">get_canonical_simplex</text>
<text text-anchor="middle" x="1254" y="-103.5" font-family="Helvetica,sans-Serif" font-size="10.00">_orientation</text>
</a>
</g>
</g>
<!-- Node1&#45;&gt;Node25 -->
<g id="edge28_Node000001_Node000025" class="edge">
<title>Node1&#45;&gt;Node25</title>
<g id="a_edge28_Node000001_Node000025"><a xlink:title=" ">
<path fill="none" stroke="#63b8ff" d="M1417.18,-229.21C1397.67,-207.25 1365.8,-174.2 1333,-152 1325.13,-146.68 1316.32,-141.83 1307.54,-137.55"/>
<polygon fill="#63b8ff" stroke="#63b8ff" points="1414.57,-231.53 1423.79,-236.75 1419.83,-226.92 1414.57,-231.53"/>
</a>
</g>
</g>
<!-- Node26 -->
<g id="Node000026" class="node">
<title>Node26</title>
<g id="a_Node000026"><a xlink:href="namespacewmtk_1_1dart.html#ae55ba4aa51d4821dd7c3795ae57f2aef" target="_top" xlink:title=" ">
<polygon fill="white" stroke="#666666" points="1316,-78 1192,-78 1192,-48 1316,-48 1316,-78"/>
<text text-anchor="start" x="1200" y="-66" font-family="Helvetica,sans-Serif" font-size="10.00">wmtk::dart::local_dart</text>
<text text-anchor="middle" x="1254" y="-55" font-family="Helvetica,sans-Serif" font-size="10.00">_action</text>
</a>
</g>
</g>
<!-- Node1&#45;&gt;Node26 -->
<g id="edge30_Node000001_Node000026" class="edge">
<title>Node1&#45;&gt;Node26</title>
<g id="a_edge30_Node000001_Node000026"><a xlink:title=" ">
<path fill="none" stroke="#63b8ff" d="M1427.37,-226.93C1412.91,-190.73 1381.34,-124.1 1333,-87 1327.94,-83.12 1322.25,-79.86 1316.31,-77.13"/>
<polygon fill="#63b8ff" stroke="#63b8ff" points="1424.28,-228.64 1431.15,-236.71 1430.81,-226.12 1424.28,-228.64"/>
</a>
</g>
</g>
<!-- Node28 -->
<g id="Node000028" class="node">
<title>Node28</title>
<g id="a_Node000028"><a xlink:href="classwmtk_1_1dart_1_1_simplex_dart.html#ab865cc7196dbe4e8574e14341e2eda6b" target="_top" xlink:title=" ">
<polygon fill="white" stroke="#666666" points="1322.5,-30 1185.5,-30 1185.5,0 1322.5,0 1322.5,-30"/>
<text text-anchor="start" x="1193.5" y="-18" font-family="Helvetica,sans-Serif" font-size="10.00">wmtk::dart::SimplexDart</text>
<text text-anchor="middle" x="1254" y="-7" font-family="Helvetica,sans-Serif" font-size="10.00">::product</text>
</a>
</g>
</g>
<!-- Node1&#45;&gt;Node28 -->
<g id="edge32_Node000001_Node000028" class="edge">
<title>Node1&#45;&gt;Node28</title>
<g id="a_edge32_Node000001_Node000028"><a xlink:title=" ">
<path fill="none" stroke="#63b8ff" d="M1431.21,-226.86C1420.55,-182.39 1392.27,-89.79 1333,-39 1329.02,-35.59 1324.56,-32.66 1319.84,-30.15"/>
<polygon fill="#63b8ff" stroke="#63b8ff" points="1427.85,-227.86 1433.5,-236.82 1434.67,-226.29 1427.85,-227.86"/>
</a>
</g>
</g>
<!-- Node4 -->
<g id="Node000004" class="node">
<title>Node4</title>
<g id="a_Node000004"><a xlink:href="classwmtk_1_1dart_1_1_involution.html#ae1896cccd69bf293bb27ae0e99210bff" target="_top" xlink:title=" ">
<polygon fill="white" stroke="#666666" points="928,-549 803,-549 803,-519 928,-519 928,-549"/>
<text text-anchor="start" x="811" y="-537" font-family="Helvetica,sans-Serif" font-size="10.00">wmtk::dart::Involution</text>
<text text-anchor="middle" x="865.5" y="-526" font-family="Helvetica,sans-Serif" font-size="10.00">::apply</text>
</a>
</g>
</g>
<!-- Node3&#45;&gt;Node4 -->
<g id="edge3_Node000003_Node000004" class="edge">
<title>Node3&#45;&gt;Node4</title>
<g id="a_edge3_Node000003_Node000004"><a xlink:title=" ">
<path fill="none" stroke="#63b8ff" d="M1048.49,-434.04C1029.05,-456.71 996.43,-490.65 961,-510 950.9,-515.52 939.5,-519.8 928.2,-523.11"/>
<polygon fill="#63b8ff" stroke="#63b8ff" points="1051.29,-436.16 1055.04,-426.25 1045.93,-431.66 1051.29,-436.16"/>
</a>
</g>
</g>
<!-- Node5 -->
<g id="Node000005" class="node">
<title>Node5</title>
<g id="a_Node000005"><a xlink:href="namespacewmtk_1_1dart_1_1utils.html#a29d84b45f3468553f5e41f1d88e8917d" target="_top" xlink:title=" ">
<polygon fill="white" stroke="#666666" points="936.5,-501 794.5,-501 794.5,-471 936.5,-471 936.5,-501"/>
<text text-anchor="start" x="802.5" y="-489" font-family="Helvetica,sans-Serif" font-size="10.00">wmtk::dart::utils::</text>
<text text-anchor="middle" x="865.5" y="-478" font-family="Helvetica,sans-Serif" font-size="10.00">apply_simplex_involution</text>
</a>
</g>
</g>
<!-- Node3&#45;&gt;Node5 -->
<g id="edge4_Node000003_Node000005" class="edge">
<title>Node3&#45;&gt;Node5</title>
<g id="a_edge4_Node000003_Node000005"><a xlink:title=" ">
<path fill="none" stroke="#63b8ff" d="M1030.23,-430.93C1010.19,-441.22 984.69,-453.39 961,-462 952.01,-465.27 942.39,-468.26 932.85,-470.94"/>
<polygon fill="#63b8ff" stroke="#63b8ff" points="1032.06,-433.93 1039.32,-426.21 1028.83,-427.72 1032.06,-433.93"/>
</a>
</g>
</g>
<!-- Node6 -->
<g id="Node000006" class="node">
<title>Node6</title>
<g id="a_Node000006"><a xlink:href="classwmtk_1_1dart_1_1_involution.html#a0a49d42a8b2e4d4fada0feb649d6eb13" target="_top" xlink:title=" ">
<polygon fill="white" stroke="#666666" points="928,-453 803,-453 803,-423 928,-423 928,-453"/>
<text text-anchor="start" x="811" y="-441" font-family="Helvetica,sans-Serif" font-size="10.00">wmtk::dart::Involution</text>
<text text-anchor="middle" x="865.5" y="-430" font-family="Helvetica,sans-Serif" font-size="10.00">::invert</text>
</a>
</g>
</g>
<!-- Node3&#45;&gt;Node6 -->
<g id="edge5_Node000003_Node000006" class="edge">
<title>Node3&#45;&gt;Node6</title>
<g id="a_edge5_Node000003_Node000006"><a xlink:title=" ">
<path fill="none" stroke="#63b8ff" d="M986.79,-421.8C967.29,-424.43 946.73,-427.2 928.23,-429.69"/>
<polygon fill="#63b8ff" stroke="#63b8ff" points="987.43,-425.25 996.87,-420.44 986.5,-418.31 987.43,-425.25"/>
</a>
</g>
</g>
<!-- Node7 -->
<g id="Node000007" class="node">
<title>Node7</title>
<g id="a_Node000007"><a xlink:href="classwmtk_1_1operations_1_1internal_1_1_collapse_alternate_facet_option_data.html#a9d03ff332c31e2355a006325dd81c7dc" target="_top" xlink:title=" ">
<polygon fill="white" stroke="#666666" points="961,-404.5 770,-404.5 770,-363.5 961,-363.5 961,-404.5"/>
<text text-anchor="start" x="778" y="-392.5" font-family="Helvetica,sans-Serif" font-size="10.00">wmtk::operations::internal</text>
<text text-anchor="start" x="778" y="-381.5" font-family="Helvetica,sans-Serif" font-size="10.00">::CollapseAlternateFacetOptionData</text>
<text text-anchor="middle" x="865.5" y="-370.5" font-family="Helvetica,sans-Serif" font-size="10.00">::map_permutation_to_alt</text>
</a>
</g>
</g>
<!-- Node3&#45;&gt;Node7 -->
<g id="edge6_Node000003_Node000007" class="edge">
<title>Node3&#45;&gt;Node7</title>
<g id="a_edge6_Node000003_Node000007"><a xlink:title=" ">
<path fill="none" stroke="#63b8ff" d="M986.76,-400.19C978.37,-399.06 969.78,-397.91 961.25,-396.76"/>
<polygon fill="#63b8ff" stroke="#63b8ff" points="986.5,-403.69 996.87,-401.56 987.43,-396.75 986.5,-403.69"/>
</a>
</g>
</g>
<!-- Node9 -->
<g id="Node000009" class="node">
<title>Node9</title>
<g id="a_Node000009"><a xlink:href="classwmtk_1_1dart_1_1_dart_topology_accessor.html#a5f83d6d9845e2797b5e1069fc97c0e71" target="_top" xlink:title=" ">
<polygon fill="white" stroke="#666666" points="935.5,-345 795.5,-345 795.5,-315 935.5,-315 935.5,-345"/>
<text text-anchor="start" x="803.5" y="-333" font-family="Helvetica,sans-Serif" font-size="10.00">wmtk::dart::DartTopology</text>
<text text-anchor="middle" x="865.5" y="-322" font-family="Helvetica,sans-Serif" font-size="10.00">Accessor::switch_facet</text>
</a>
</g>
</g>
<!-- Node3&#45;&gt;Node9 -->
<g id="edge8_Node000003_Node000009" class="edge">
<title>Node3&#45;&gt;Node9</title>
<g id="a_edge8_Node000003_Node000009"><a xlink:title=" ">
<path fill="none" stroke="#63b8ff" d="M1033.6,-390.83C1013.18,-379.15 986.22,-364.85 961,-355 951.52,-351.3 941.29,-347.95 931.18,-345.01"/>
<polygon fill="#63b8ff" stroke="#63b8ff" points="1032.08,-394 1042.49,-395.99 1035.59,-387.94 1032.08,-394"/>
</a>
</g>
</g>
<!-- Node10 -->
<g id="Node000010" class="node">
<title>Node10</title>
<g id="a_Node000010"><a xlink:href="classwmtk_1_1dart_1_1_dart_topology_accessor.html#a51daafd112d7ef209418627ea3fb6310" target="_top" xlink:title=" ">
<polygon fill="white" stroke="#666666" points="935.5,-297 795.5,-297 795.5,-267 935.5,-267 935.5,-297"/>
<text text-anchor="start" x="803.5" y="-285" font-family="Helvetica,sans-Serif" font-size="10.00">wmtk::dart::DartTopology</text>
<text text-anchor="middle" x="865.5" y="-274" font-family="Helvetica,sans-Serif" font-size="10.00">Accessor::switch_facet</text>
</a>
</g>
</g>
<!-- Node3&#45;&gt;Node10 -->
<g id="edge9_Node000003_Node000010" class="edge">
<title>Node3&#45;&gt;Node10</title>
<g id="a_edge9_Node000003_Node000010"><a xlink:title=" ">
<path fill="none" stroke="#63b8ff" d="M1043.47,-388.47C1029.81,-375.3 1012.33,-358.32 997,-343 980.77,-326.78 980.87,-317.48 961,-306 953.23,-301.51 944.63,-297.85 935.87,-294.87"/>
<polygon fill="#63b8ff" stroke="#63b8ff" points="1041.4,-391.32 1051.03,-395.73 1046.25,-386.28 1041.4,-391.32"/>
</a>
</g>
</g>
<!-- Node8 -->
<g id="Node000008" class="node">
<title>Node8</title>
<g id="a_Node000008"><a xlink:href="classwmtk_1_1operations_1_1internal_1_1_collapse_alternate_facet_option_data.html#a2564580a95b48a8a56b05e9c59e5c495" target="_top" xlink:title=" ">
<polygon fill="white" stroke="#666666" points="734,-404.5 543,-404.5 543,-363.5 734,-363.5 734,-404.5"/>
<text text-anchor="start" x="551" y="-392.5" font-family="Helvetica,sans-Serif" font-size="10.00">wmtk::operations::internal</text>
<text text-anchor="start" x="551" y="-381.5" font-family="Helvetica,sans-Serif" font-size="10.00">::CollapseAlternateFacetOptionData</text>
<text text-anchor="middle" x="638.5" y="-370.5" font-family="Helvetica,sans-Serif" font-size="10.00">::map_dart_to_alt</text>
</a>
</g>
</g>
<!-- Node7&#45;&gt;Node8 -->
<g id="edge7_Node000007_Node000008" class="edge">
<title>Node7&#45;&gt;Node8</title>
<g id="a_edge7_Node000007_Node000008"><a xlink:title=" ">
<path fill="none" stroke="#63b8ff" d="M759.47,-384C751.03,-384 742.53,-384 734.16,-384"/>
<polygon fill="#63b8ff" stroke="#63b8ff" points="759.73,-387.5 769.73,-384 759.73,-380.5 759.73,-387.5"/>
</a>
</g>
</g>
<!-- Node11&#45;&gt;Node3 -->
<g id="edge11_Node000011_Node000003" class="edge">
<title>Node11&#45;&gt;Node3</title>
<g id="a_edge11_Node000011_Node000003"><a xlink:title=" ">
<path fill="none" stroke="#63b8ff" d="M1172.74,-397.47C1161.57,-398.93 1150.16,-400.41 1139.2,-401.84"/>
<polygon fill="#63b8ff" stroke="#63b8ff" points="1173.45,-400.91 1182.91,-396.14 1172.54,-393.96 1173.45,-400.91"/>
</a>
</g>
</g>
<!-- Node14&#45;&gt;Node12 -->
<g id="edge15_Node000014_Node000012" class="edge">
<title>Node14&#45;&gt;Node12</title>
<g id="a_edge15_Node000014_Node000012"><a xlink:title=" ">
<path fill="none" stroke="#63b8ff" d="M1177.74,-304.82C1158.16,-307.37 1137.53,-310.06 1119.57,-312.4"/>
<polygon fill="#63b8ff" stroke="#63b8ff" points="1178.41,-308.26 1187.87,-303.5 1177.5,-301.32 1178.41,-308.26"/>
</a>
</g>
</g>
<!-- Node14&#45;&gt;Node13 -->
<g id="edge16_Node000014_Node000013" class="edge">
<title>Node14&#45;&gt;Node13</title>
<g id="a_edge16_Node000014_Node000013"><a xlink:title=" ">
<path fill="none" stroke="#63b8ff" d="M1178.01,-281.14C1158.35,-277.51 1137.62,-273.68 1119.57,-270.34"/>
<polygon fill="#63b8ff" stroke="#63b8ff" points="1177.4,-284.59 1187.87,-282.97 1178.67,-277.71 1177.4,-284.59"/>
</a>
</g>
</g>
<!-- Node15&#45;&gt;Node16 -->
<g id="edge18_Node000015_Node000016" class="edge">
<title>Node15&#45;&gt;Node16</title>
<g id="a_edge18_Node000015_Node000016"><a xlink:title=" ">
<path fill="none" stroke="#63b8ff" d="M1182.81,-200.23C1166.61,-198.2 1149.45,-196.06 1133.5,-194.06"/>
<polygon fill="#63b8ff" stroke="#63b8ff" points="1182.39,-203.7 1192.75,-201.47 1183.26,-196.76 1182.39,-203.7"/>
</a>
</g>
</g>
<!-- Node17 -->
<g id="Node000017" class="node">
<title>Node17</title>
<g id="a_Node000017"><a xlink:href="namespacewmtk_1_1dart_1_1utils.html#aa7884681cab6b16b5eceb3289b679253" target="_top" xlink:title=" ">
<polygon fill="white" stroke="#666666" points="931,-201 800,-201 800,-171 931,-171 931,-201"/>
<text text-anchor="start" x="808" y="-189" font-family="Helvetica,sans-Serif" font-size="10.00">wmtk::dart::utils::</text>
<text text-anchor="middle" x="865.5" y="-178" font-family="Helvetica,sans-Serif" font-size="10.00">get_simplex_involution</text>
</a>
</g>
</g>
<!-- Node16&#45;&gt;Node17 -->
<g id="edge19_Node000016_Node000017" class="edge">
<title>Node16&#45;&gt;Node17</title>
<g id="a_edge19_Node000016_Node000017"><a xlink:title=" ">
<path fill="none" stroke="#63b8ff" d="M992.42,-186C972.33,-186 950.77,-186 931.27,-186"/>
<polygon fill="#63b8ff" stroke="#63b8ff" points="992.46,-189.5 1002.46,-186 992.46,-182.5 992.46,-189.5"/>
</a>
</g>
</g>
<!-- Node18 -->
<g id="Node000018" class="node">
<title>Node18</title>
<g id="a_Node000018"><a xlink:href="classwmtk_1_1dart_1_1_dart_topology_accessor.html#ac79e08ea187ee2465c1755cc4e7526cf" target="_top" xlink:title=" ">
<polygon fill="white" stroke="#666666" points="507,-204 367,-204 367,-174 507,-174 507,-204"/>
<text text-anchor="start" x="375" y="-192" font-family="Helvetica,sans-Serif" font-size="10.00">wmtk::dart::DartTopology</text>
<text text-anchor="middle" x="437" y="-181" font-family="Helvetica,sans-Serif" font-size="10.00">Accessor::fuse</text>
</a>
</g>
</g>
<!-- Node17&#45;&gt;Node18 -->
<g id="edge20_Node000017_Node000018" class="edge">
<title>Node17&#45;&gt;Node18</title>
<g id="a_edge20_Node000017_Node000018"><a xlink:title=" ">
<path fill="none" stroke="#63b8ff" d="M840.2,-207.83C815.5,-228.43 775.11,-257.91 734,-270 652.56,-293.95 623.35,-297.39 543,-270 504.86,-257 469.8,-223.92 451.43,-204.29"/>
<polygon fill="#63b8ff" stroke="#63b8ff" points="842.62,-210.37 847.96,-201.22 838.08,-205.04 842.62,-210.37"/>
</a>
</g>
</g>
<!-- Node21 -->
<g id="Node000021" class="node">
<title>Node21</title>
<g id="a_Node000021"><a xlink:href="classwmtk_1_1operations_1_1internal_1_1_collapse_alternate_facet_option_data.html#a363fb2114790d2591c476c3910c298c3" target="_top" xlink:title=" ">
<polygon fill="white" stroke="#666666" points="734,-260.5 543,-260.5 543,-219.5 734,-219.5 734,-260.5"/>
<text text-anchor="start" x="551" y="-248.5" font-family="Helvetica,sans-Serif" font-size="10.00">wmtk::operations::internal</text>
<text text-anchor="start" x="551" y="-237.5" font-family="Helvetica,sans-Serif" font-size="10.00">::CollapseAlternateFacetOptionData</text>
<text text-anchor="middle" x="638.5" y="-226.5" font-family="Helvetica,sans-Serif" font-size="10.00">::get_neighbor_action</text>
</a>
</g>
</g>
<!-- Node17&#45;&gt;Node21 -->
<g id="edge23_Node000017_Node000021" class="edge">
<title>Node17&#45;&gt;Node21</title>
<g id="a_edge23_Node000017_Node000021"><a xlink:title=" ">
<path fill="none" stroke="#63b8ff" d="M791.87,-203.43C770.54,-208.55 747.01,-214.2 724.96,-219.49"/>
<polygon fill="#63b8ff" stroke="#63b8ff" points="792.92,-206.78 801.82,-201.04 791.28,-199.97 792.92,-206.78"/>
</a>
</g>
</g>
<!-- Node22 -->
<g id="Node000022" class="node">
<title>Node22</title>
<g id="a_Node000022"><a xlink:href="namespacewmtk_1_1dart_1_1utils.html#a2249e556e353c807df88c2daa17aa6c1" target="_top" xlink:title=" ">
<polygon fill="white" stroke="#666666" points="704,-201 573,-201 573,-171 704,-171 704,-201"/>
<text text-anchor="start" x="581" y="-189" font-family="Helvetica,sans-Serif" font-size="10.00">wmtk::dart::utils::</text>
<text text-anchor="middle" x="638.5" y="-178" font-family="Helvetica,sans-Serif" font-size="10.00">get_simplex_involution</text>
</a>
</g>
</g>
<!-- Node17&#45;&gt;Node22 -->
<g id="edge24_Node000017_Node000022" class="edge">
<title>Node17&#45;&gt;Node22</title>
<g id="a_edge24_Node000017_Node000022"><a xlink:title=" ">
<path fill="none" stroke="#63b8ff" d="M789.7,-186C762.02,-186 730.91,-186 704.21,-186"/>
<polygon fill="#63b8ff" stroke="#63b8ff" points="789.72,-189.5 799.72,-186 789.72,-182.5 789.72,-189.5"/>
</a>
</g>
</g>
<!-- Node23 -->
<g id="Node000023" class="node">
<title>Node23</title>
<g id="a_Node000023"><a xlink:href="namespacewmtk_1_1dart_1_1utils.html#aabd873fac842193741d6ae0cf2e62cbc" target="_top" xlink:title=" ">
<polygon fill="white" stroke="#666666" points="716,-153 561,-153 561,-123 716,-123 716,-153"/>
<text text-anchor="start" x="569" y="-141" font-family="Helvetica,sans-Serif" font-size="10.00">wmtk::dart::utils::</text>
<text text-anchor="middle" x="638.5" y="-130" font-family="Helvetica,sans-Serif" font-size="10.00">get_simplex_involution_pair</text>
</a>
</g>
</g>
<!-- Node17&#45;&gt;Node23 -->
<g id="edge25_Node000017_Node000023" class="edge">
<title>Node17&#45;&gt;Node23</title>
<g id="a_edge25_Node000017_Node000023"><a xlink:title=" ">
<path fill="none" stroke="#63b8ff" d="M789.68,-170.04C764.03,-164.57 735.42,-158.46 710.12,-153.07"/>
<polygon fill="#63b8ff" stroke="#63b8ff" points="789.21,-173.52 799.72,-172.18 790.67,-166.67 789.21,-173.52"/>
</a>
</g>
</g>
<!-- Node24 -->
<g id="Node000024" class="node">
<title>Node24</title>
<g id="a_Node000024"><a xlink:href="namespacewmtk_1_1dart_1_1utils.html#a065ebaae25bcab945f1dd46a8a744db7" target="_top" xlink:title=" ">
<polygon fill="white" stroke="#666666" points="716,-105 561,-105 561,-75 716,-75 716,-105"/>
<text text-anchor="start" x="569" y="-93" font-family="Helvetica,sans-Serif" font-size="10.00">wmtk::dart::utils::</text>
<text text-anchor="middle" x="638.5" y="-82" font-family="Helvetica,sans-Serif" font-size="10.00">get_simplex_involution_pair</text>
</a>
</g>
</g>
<!-- Node17&#45;&gt;Node24 -->
<g id="edge26_Node000017_Node000024" class="edge">
<title>Node17&#45;&gt;Node24</title>
<g id="a_edge26_Node000017_Node000024"><a xlink:title=" ">
<path fill="none" stroke="#63b8ff" d="M832.75,-165.47C807,-149.56 769.3,-127.95 734,-114 725.58,-110.67 716.55,-107.69 707.53,-105.04"/>
<polygon fill="#63b8ff" stroke="#63b8ff" points="831.01,-168.5 841.34,-170.83 834.72,-162.56 831.01,-168.5"/>
</a>
</g>
</g>
<!-- Node19 -->
<g id="Node000019" class="node">
<title>Node19</title>
<g id="a_Node000019"><a xlink:href="classwmtk_1_1dart_1_1_dart_topology_accessor.html#a3e3e91d4b9c8a52353cbf60b10b2830b" target="_top" xlink:title=" ">
<polygon fill="white" stroke="#666666" points="331,-204 191,-204 191,-174 331,-174 331,-204"/>
<text text-anchor="start" x="199" y="-192" font-family="Helvetica,sans-Serif" font-size="10.00">wmtk::dart::DartTopology</text>
<text text-anchor="middle" x="261" y="-181" font-family="Helvetica,sans-Serif" font-size="10.00">Accessor::populate</text>
</a>
</g>
</g>
<!-- Node18&#45;&gt;Node19 -->
<g id="edge21_Node000018_Node000019" class="edge">
<title>Node18&#45;&gt;Node19</title>
<g id="a_edge21_Node000018_Node000019"><a xlink:title=" ">
<path fill="none" stroke="#63b8ff" d="M356.97,-189C348.38,-189 339.68,-189 331.22,-189"/>
<polygon fill="#63b8ff" stroke="#63b8ff" points="356.98,-192.5 366.98,-189 356.98,-185.5 356.98,-192.5"/>
</a>
</g>
</g>
<!-- Node20 -->
<g id="Node000020" class="node">
<title>Node20</title>
<g id="a_Node000020"><a xlink:href="classwmtk_1_1dart_1_1_dart_topology_accessor.html#ad3e9dba0cf529c970de42361019bec19" target="_top" xlink:title=" ">
<polygon fill="white" stroke="#666666" points="155,-209.5 0,-209.5 0,-168.5 155,-168.5 155,-209.5"/>
<text text-anchor="start" x="8" y="-197.5" font-family="Helvetica,sans-Serif" font-size="10.00">wmtk::dart::DartTopology</text>
<text text-anchor="start" x="8" y="-186.5" font-family="Helvetica,sans-Serif" font-size="10.00">Accessor::register_boundary</text>
<text text-anchor="middle" x="77.5" y="-175.5" font-family="Helvetica,sans-Serif" font-size="10.00">_topology_attribute</text>
</a>
</g>
</g>
<!-- Node19&#45;&gt;Node20 -->
<g id="edge22_Node000019_Node000020" class="edge">
<title>Node19&#45;&gt;Node20</title>
<g id="a_edge22_Node000019_Node000020"><a xlink:title=" ">
<path fill="none" stroke="#63b8ff" d="M180.59,-189C172.1,-189 163.47,-189 155.02,-189"/>
<polygon fill="#63b8ff" stroke="#63b8ff" points="180.86,-192.5 190.86,-189 180.86,-185.5 180.86,-192.5"/>
</a>
</g>
</g>
<!-- Node24&#45;&gt;Node18 -->
<g id="edge27_Node000024_Node000018" class="edge">
<title>Node24&#45;&gt;Node18</title>
<g id="a_edge27_Node000024_Node000018"><a xlink:title=" ">
<path fill="none" stroke="#63b8ff" d="M556.62,-108.36C551.95,-110.09 547.38,-111.97 543,-114 509.06,-129.75 474.72,-156.87 454.94,-173.82"/>
<polygon fill="#63b8ff" stroke="#63b8ff" points="558.01,-111.59 566.32,-105.01 555.72,-104.97 558.01,-111.59"/>
</a>
</g>
</g>
<!-- Node27 -->
<g id="Node000027" class="node">
<title>Node27</title>
<g id="a_Node000027"><a xlink:href="namespacewmtk_1_1dart.html#a640ca4f6e0d456292fd8aa8096c680cf" target="_top" xlink:title=" ">
<polygon fill="white" stroke="#666666" points="1130,-78 1006,-78 1006,-48 1130,-48 1130,-78"/>
<text text-anchor="start" x="1014" y="-66" font-family="Helvetica,sans-Serif" font-size="10.00">wmtk::dart::local_dart</text>
<text text-anchor="middle" x="1068" y="-55" font-family="Helvetica,sans-Serif" font-size="10.00">_action</text>
</a>
</g>
</g>
<!-- Node26&#45;&gt;Node27 -->
<g id="edge31_Node000026_Node000027" class="edge">
<title>Node26&#45;&gt;Node27</title>
<g id="a_edge31_Node000026_Node000027"><a xlink:title=" ">
<path fill="none" stroke="#63b8ff" d="M1181.57,-63C1164.59,-63 1146.63,-63 1130.16,-63"/>
<polygon fill="#63b8ff" stroke="#63b8ff" points="1181.99,-66.5 1191.99,-63 1181.99,-59.5 1181.99,-66.5"/>
</a>
</g>
</g>
</g>
</svg>

<g id="navigator" transform="translate(0 0)" fill="#404254">
  <rect fill="#f2f5e9" fill-opacity="0.5" stroke="#606060" stroke-width=".5" x="0" y="0" width="60" height="60"/>
  <use id="zoomplus" xlink:href="#zoomPlus" x="17" y="9" onmousedown="handleZoom(evt,'in')"/>
  <use id="zoomminus" xlink:href="#zoomMin" x="42" y="9" onmousedown="handleZoom(evt,'out')"/>
  <use id="reset" xlink:href="#resetDef" x="30" y="36" onmousedown="handleReset()"/>
   <use id="arrowup" xlink:href="#arrowUp" x="0" y="0" onmousedown="handlePan(0,-1)"/>
  <use id="arrowright" xlink:href="#arrowRight" x="0" y="0" onmousedown="handlePan(1,0)"/>
  <use id="arrowdown" xlink:href="#arrowDown" x="0" y="0" onmousedown="handlePan(0,1)"/>
  <use id="arrowleft" xlink:href="#arrowLeft" x="0" y="0" onmousedown="handlePan(-1,0)"/>
</g>
<svg viewBox="0 0 15 15" width="100%" height="30px" preserveAspectRatio="xMaxYMin meet">
 <g id="arrow_out" transform="scale(0.3 0.3)">
  <a xlink:href="classwmtk_1_1dart_1_1_simplex_dart_a61de0a16f65d51c565bab5abf01d25aa_icgraph_org.svg" target="_base">
   <rect id="button" ry="5" rx="5" y="6" x="6" height="38" width="38"
        fill="#f2f5e9" fill-opacity="0.5" stroke="#606060" stroke-width="1.0"/>
   <path id="arrow"
     d="M 11.500037,31.436501 C 11.940474,20.09759 22.043105,11.32322 32.158766,21.979434 L 37.068811,17.246167 C 37.068811,17.246167 37.088388,32 37.088388,32 L 22.160133,31.978069 C 22.160133,31.978069 26.997745,27.140456 26.997745,27.140456 C 18.528582,18.264221 13.291696,25.230495 11.500037,31.436501 z"
     style="fill:#404040;"/>
  </a>
 </g>
</svg>

<style type='text/css'>
<![CDATA[
[data-mouse-over-selected='false'] { opacity: 0.7; }
[data-mouse-over-selected='true']  { opacity: 1.0; }
]]>
</style>
<script type="application/ecmascript"><![CDATA[
document.addEventListener('DOMContentLoaded', (event) => {
  highlightEdges();
  highlightAdjacentNodes();
});
]]></script>
</svg>
