<?xml version="1.0" encoding="UTF-8" standalone="no"?>
<!DOCTYPE svg PUBLIC "-//W3C//DTD SVG 1.1//EN"
 "http://www.w3.org/Graphics/SVG/1.1/DTD/svg11.dtd">
<!-- Generated by graphviz version 2.43.0 (0)
 -->
<!-- Title: wmtk::Rational::get_sign Pages: 1 -->
<!--zoomable 1247 -->

<svg id="main" version="1.1" xmlns="http://www.w3.org/2000/svg" xmlns:xlink="http://www.w3.org/1999/xlink" xml:space="preserve" onload="init(evt)">
<style type="text/css"><![CDATA[
.node, .edge {opacity: 0.7;}
.node.selected, .edge.selected {opacity: 1;}
.edge:hover path { stroke: red; }
.edge:hover polygon { stroke: red; fill: red; }
]]></style>

<defs>
  <circle id="rim" cx="0" cy="0" r="7"/>
  <circle id="rim2" cx="0" cy="0" r="3.5"/>
  <g id="zoomPlus">
    <use xlink:href="#rim" fill="#404040"><set attributeName="fill" to="#808080" begin="zoomplus.mouseover" end="zoomplus.mouseout"/></use>
    <path d="M-4,0h8M0,-4v8" fill="none" stroke="white" stroke-width="1.5" pointer-events="none"/>
  </g>
  <g id="zoomMin">
    <use xlink:href="#rim" fill="#404040"><set attributeName="fill" to="#808080" begin="zoomminus.mouseover" end="zoomminus.mouseout"/></use>
    <path d="M-4,0h8" fill="none" stroke="white" stroke-width="1.5" pointer-events="none"/>
  </g>
  <g id="arrowUp" transform="translate(30 24)">
    <use xlink:href="#rim"/>
    <path pointer-events="none" fill="none" stroke="white" stroke-width="1.5" d="M0,-3.0v7 M-2.5,-0.5L0,-3.0L2.5,-0.5"/>
  </g>
  <g id="arrowRight" transform="rotate(90) translate(36 -43)">
    <use xlink:href="#rim"/>
    <path pointer-events="none" fill="none" stroke="white" stroke-width="1.5" d="M0,-3.0v7 M-2.5,-0.5L0,-3.0L2.5,-0.5"/>
  </g>
  <g id="arrowDown" transform="rotate(180) translate(-30 -48)">
    <use xlink:href="#rim"/>
    <path pointer-events="none" fill="none" stroke="white" stroke-width="1.5" d="M0,-3.0v7 M-2.5,-0.5L0,-3.0L2.5,-0.5"/>
  </g>
  <g id="arrowLeft" transform="rotate(270) translate(-36 17)">
    <use xlink:href="#rim"/>
    <path pointer-events="none" fill="none" stroke="white" stroke-width="1.5" d="M0,-3.0v7 M-2.5,-0.5L0,-3.0L2.5,-0.5"/>
  </g>
  <g id="resetDef">
    <use xlink:href="#rim2" fill="#404040"><set attributeName="fill" to="#808080" begin="reset.mouseover" end="reset.mouseout"/></use>
  </g>
</defs>
<script type="application/ecmascript">
var viewWidth = 1138;
var viewHeight = 1247;
var sectionId = 'dynsection-3';
</script>
<script type="application/ecmascript" xlink:href="svg.min.js"/>
<svg id="graph" class="graph">
<g id="viewport">
<title>wmtk::Rational::get_sign</title>
<!-- Node1 -->
<g id="Node000001" class="node">
<title>Node1</title>
<g id="a_Node000001"><a xlink:title=" ">
<polygon fill="#999999" stroke="#666666" points="1130,-1127 992,-1127 992,-1108 1130,-1108 1130,-1127"/>
<text text-anchor="middle" x="1061" y="-1115" font-family="Helvetica,sans-Serif" font-size="10.00">wmtk::Rational::get_sign</text>
</a>
</g>
</g>
<!-- Node2 -->
<g id="Node000002" class="node">
<title>Node2</title>
<g id="a_Node000002"><a xlink:href="namespacewmtk_1_1utils.html#ae13725c4c4ed9995dbf10ac0c1639628" target="_top" xlink:title=" ">
<polygon fill="white" stroke="#666666" points="940,-1220.5 818,-1220.5 818,-1190.5 940,-1190.5 940,-1220.5"/>
<text text-anchor="start" x="826" y="-1208.5" font-family="Helvetica,sans-Serif" font-size="10.00">wmtk::utils::segment</text>
<text text-anchor="middle" x="879" y="-1197.5" font-family="Helvetica,sans-Serif" font-size="10.00">_intersection_rational</text>
</a>
</g>
</g>
<!-- Node1&#45;&gt;Node2 -->
<g id="edge1_Node000001_Node000002" class="edge">
<title>Node1&#45;&gt;Node2</title>
<g id="a_edge1_Node000001_Node000002"><a xlink:title=" ">
<path fill="none" stroke="#63b8ff" d="M1038.53,-1132.89C1018.09,-1147.01 986.06,-1167.76 956,-1181.5 948.83,-1184.78 941.08,-1187.79 933.37,-1190.48"/>
<polygon fill="#63b8ff" stroke="#63b8ff" points="1040.61,-1135.71 1046.8,-1127.1 1036.6,-1129.97 1040.61,-1135.71"/>
</a>
</g>
</g>
<!-- Node3 -->
<g id="Node000003" class="node">
<title>Node3</title>
<g id="a_Node000003"><a xlink:href="namespacewmtk_1_1components_1_1internal.html#ad6dd95bb64070b2dd64d2041cf5cb0cb" target="_top" xlink:title=" ">
<polygon fill="white" stroke="#666666" points="956,-1154.5 802,-1154.5 802,-1124.5 956,-1124.5 956,-1154.5"/>
<text text-anchor="start" x="810" y="-1142.5" font-family="Helvetica,sans-Serif" font-size="10.00">wmtk::components::internal</text>
<text text-anchor="middle" x="879" y="-1131.5" font-family="Helvetica,sans-Serif" font-size="10.00">::segment_segment_inter</text>
</a>
</g>
</g>
<!-- Node1&#45;&gt;Node3 -->
<g id="edge3_Node000001_Node000003" class="edge">
<title>Node1&#45;&gt;Node3</title>
<g id="a_edge3_Node000001_Node000003"><a xlink:title=" ">
<path fill="none" stroke="#63b8ff" d="M982.02,-1127.03C973.48,-1128.07 964.8,-1129.14 956.29,-1130.18"/>
<polygon fill="#63b8ff" stroke="#63b8ff" points="982.45,-1130.5 991.95,-1125.82 981.6,-1123.56 982.45,-1130.5"/>
</a>
</g>
</g>
<!-- Node6 -->
<g id="Node000006" class="node">
<title>Node6</title>
<g id="a_Node000006"><a xlink:href="namespacewmtk_1_1utils.html#aa46097711cda4017c6932d86f611cd88" target="_top" xlink:title=" ">
<polygon fill="white" stroke="#666666" points="954.5,-1106 803.5,-1106 803.5,-1087 954.5,-1087 954.5,-1106"/>
<text text-anchor="middle" x="879" y="-1094" font-family="Helvetica,sans-Serif" font-size="10.00">wmtk::utils::wmtk_orient2d</text>
</a>
</g>
</g>
<!-- Node1&#45;&gt;Node6 -->
<g id="edge7_Node000001_Node000006" class="edge">
<title>Node1&#45;&gt;Node6</title>
<g id="a_edge7_Node000001_Node000006"><a xlink:title=" ">
<path fill="none" stroke="#63b8ff" d="M981.88,-1108.39C972.88,-1107.34 963.72,-1106.27 954.77,-1105.22"/>
<polygon fill="#63b8ff" stroke="#63b8ff" points="981.61,-1111.88 991.95,-1109.56 982.42,-1104.93 981.61,-1111.88"/>
</a>
</g>
</g>
<!-- Node7 -->
<g id="Node000007" class="node">
<title>Node7</title>
<g id="a_Node000007"><a xlink:href="namespacewmtk_1_1utils.html#a76b4d882261cf6aef7affd8b13c71efd" target="_top" xlink:title=" ">
<polygon fill="white" stroke="#666666" points="954.5,-598 803.5,-598 803.5,-579 954.5,-579 954.5,-598"/>
<text text-anchor="middle" x="879" y="-586" font-family="Helvetica,sans-Serif" font-size="10.00">wmtk::utils::wmtk_orient3d</text>
</a>
</g>
</g>
<!-- Node1&#45;&gt;Node7 -->
<g id="edge8_Node000001_Node000007" class="edge">
<title>Node1&#45;&gt;Node7</title>
<g id="a_edge8_Node000001_Node000007"><a xlink:title=" ">
<path fill="none" stroke="#63b8ff" d="M1053.46,-1098.28C1024.09,-1011.97 904.87,-661.58 883.34,-598.32"/>
<polygon fill="#63b8ff" stroke="#63b8ff" points="1050.19,-1099.53 1056.72,-1107.87 1056.81,-1097.27 1050.19,-1099.53"/>
</a>
</g>
</g>
<!-- Node2&#45;&gt;Node2 -->
<g id="edge2_Node000002_Node000002" class="edge">
<title>Node2&#45;&gt;Node2</title>
<g id="a_edge2_Node000002_Node000002"><a xlink:title=" ">
<path fill="none" stroke="#63b8ff" d="M910.86,-1231.1C906.5,-1235.47 895.88,-1238.5 879,-1238.5 850.56,-1238.5 839.9,-1229.91 847.01,-1220.78"/>
<polygon fill="#63b8ff" stroke="#63b8ff" points="914.36,-1230.82 910.99,-1220.78 907.36,-1230.73 914.36,-1230.82"/>
</a>
</g>
</g>
<!-- Node3&#45;&gt;Node3 -->
<g id="edge6_Node000003_Node000003" class="edge">
<title>Node3&#45;&gt;Node3</title>
<g id="a_edge6_Node000003_Node000003"><a xlink:title=" ">
<path fill="none" stroke="#63b8ff" d="M910.86,-1165.1C906.5,-1169.47 895.88,-1172.5 879,-1172.5 850.56,-1172.5 839.9,-1163.91 847.01,-1154.78"/>
<polygon fill="#63b8ff" stroke="#63b8ff" points="914.36,-1164.82 910.99,-1154.78 907.36,-1164.73 914.36,-1164.82"/>
</a>
</g>
</g>
<!-- Node4 -->
<g id="Node000004" class="node">
<title>Node4</title>
<g id="a_Node000004"><a xlink:href="namespacewmtk_1_1components_1_1internal.html#aff1250493ee8c47518118b92223c8576" target="_top" xlink:title=" ">
<polygon fill="white" stroke="#666666" points="734.5,-1202.5 580.5,-1202.5 580.5,-1172.5 734.5,-1172.5 734.5,-1202.5"/>
<text text-anchor="start" x="588.5" y="-1190.5" font-family="Helvetica,sans-Serif" font-size="10.00">wmtk::components::internal</text>
<text text-anchor="middle" x="657.5" y="-1179.5" font-family="Helvetica,sans-Serif" font-size="10.00">::edge_insertion</text>
</a>
</g>
</g>
<!-- Node3&#45;&gt;Node4 -->
<g id="edge4_Node000003_Node000004" class="edge">
<title>Node3&#45;&gt;Node4</title>
<g id="a_edge4_Node000003_Node000004"><a xlink:title=" ">
<path fill="none" stroke="#63b8ff" d="M799.19,-1156.73C775.62,-1161.89 749.97,-1167.5 727.1,-1172.5"/>
<polygon fill="#63b8ff" stroke="#63b8ff" points="800.13,-1160.11 809.15,-1154.56 798.63,-1153.27 800.13,-1160.11"/>
</a>
</g>
</g>
<!-- Node5 -->
<g id="Node000005" class="node">
<title>Node5</title>
<g id="a_Node000005"><a xlink:href="namespacewmtk_1_1components_1_1internal.html#ad827cdbb96806fb2e4c19c644277f3c3" target="_top" xlink:title="include the intersection on edgepoints">
<polygon fill="white" stroke="#666666" points="734.5,-1154.5 580.5,-1154.5 580.5,-1124.5 734.5,-1124.5 734.5,-1154.5"/>
<text text-anchor="start" x="588.5" y="-1142.5" font-family="Helvetica,sans-Serif" font-size="10.00">wmtk::components::internal</text>
<text text-anchor="middle" x="657.5" y="-1131.5" font-family="Helvetica,sans-Serif" font-size="10.00">::segment_segment_inter</text>
</a>
</g>
</g>
<!-- Node3&#45;&gt;Node5 -->
<g id="edge5_Node000003_Node000005" class="edge">
<title>Node3&#45;&gt;Node5</title>
<g id="a_edge5_Node000003_Node000005"><a xlink:title=" ">
<path fill="none" stroke="#63b8ff" d="M791.76,-1139.5C772.86,-1139.5 752.99,-1139.5 734.52,-1139.5"/>
<polygon fill="#63b8ff" stroke="#63b8ff" points="791.85,-1143 801.85,-1139.5 791.85,-1136 791.85,-1143"/>
</a>
</g>
</g>
<!-- Node7&#45;&gt;Node7 -->
<g id="edge44_Node000007_Node000007" class="edge">
<title>Node7&#45;&gt;Node7</title>
<g id="a_edge44_Node000007_Node000007"><a xlink:title=" ">
<path fill="none" stroke="#63b8ff" d="M913.11,-606.07C912.61,-611.62 901.24,-616 879,-616 846.65,-616 837.3,-606.73 850.95,-598.08"/>
<polygon fill="#63b8ff" stroke="#63b8ff" points="915.88,-603.94 907.05,-598.08 910.3,-608.17 915.88,-603.94"/>
</a>
</g>
</g>
<!-- Node8 -->
<g id="Node000008" class="node">
<title>Node8</title>
<g id="a_Node000008"><a xlink:href="classwmtk_1_1_simplex_inversion_invariant.html#a1163728175bfbd4dc26f4861019ee591" target="_top" xlink:title="we assume with local vid order (v0,v1,v2,v3) has positive volume (orient3d(v0,v1,v2,...">
<polygon fill="white" stroke="#666666" points="747,-1106.5 568,-1106.5 568,-1076.5 747,-1076.5 747,-1106.5"/>
<text text-anchor="start" x="576" y="-1094.5" font-family="Helvetica,sans-Serif" font-size="10.00">wmtk::SimplexInversionInvariant</text>
<text text-anchor="middle" x="657.5" y="-1083.5" font-family="Helvetica,sans-Serif" font-size="10.00">::after</text>
</a>
</g>
</g>
<!-- Node7&#45;&gt;Node8 -->
<g id="edge9_Node000007_Node000008" class="edge">
<title>Node7&#45;&gt;Node8</title>
<g id="a_edge9_Node000007_Node000008"><a xlink:title=" ">
<path fill="none" stroke="#63b8ff" d="M876.12,-608.51C868,-690.69 833.25,-1000.93 766,-1067.5 760.5,-1072.95 754.04,-1077.27 747.08,-1080.7"/>
<polygon fill="#63b8ff" stroke="#63b8ff" points="879.65,-608.39 877.13,-598.1 872.68,-607.72 879.65,-608.39"/>
</a>
</g>
</g>
<!-- Node13 -->
<g id="Node000013" class="node">
<title>Node13</title>
<g id="a_Node000013"><a xlink:href="classwmtk_1_1invariants_1_1_collapse_energy_before_invariant.html#aaf60c03541b2a73aebe4ebad561f2535" target="_top" xlink:title=" ">
<polygon fill="white" stroke="#666666" points="739.5,-1058.5 575.5,-1058.5 575.5,-1028.5 739.5,-1028.5 739.5,-1058.5"/>
<text text-anchor="start" x="583.5" y="-1046.5" font-family="Helvetica,sans-Serif" font-size="10.00">wmtk::invariants::Collapse</text>
<text text-anchor="middle" x="657.5" y="-1035.5" font-family="Helvetica,sans-Serif" font-size="10.00">EnergyBeforeInvariant::before</text>
</a>
</g>
</g>
<!-- Node7&#45;&gt;Node13 -->
<g id="edge14_Node000007_Node000013" class="edge">
<title>Node7&#45;&gt;Node13</title>
<g id="a_edge14_Node000007_Node000013"><a xlink:title=" ">
<path fill="none" stroke="#63b8ff" d="M875.57,-608.46C865.82,-685.28 827.09,-960.49 766,-1019.5 758.5,-1026.74 749.33,-1031.99 739.53,-1035.76"/>
<polygon fill="#63b8ff" stroke="#63b8ff" points="879.08,-608.61 876.84,-598.25 872.13,-607.74 879.08,-608.61"/>
</a>
</g>
</g>
<!-- Node14 -->
<g id="Node000014" class="node">
<title>Node14</title>
<g id="a_Node000014"><a xlink:href="classwmtk_1_1invariants_1_1_collapse_energy_before_invariant_double.html#aedec3d60165b7fe7541a9caa18f6c131" target="_top" xlink:title=" ">
<polygon fill="white" stroke="#666666" points="738,-1010 577,-1010 577,-969 738,-969 738,-1010"/>
<text text-anchor="start" x="585" y="-998" font-family="Helvetica,sans-Serif" font-size="10.00">wmtk::invariants::Collapse</text>
<text text-anchor="start" x="585" y="-987" font-family="Helvetica,sans-Serif" font-size="10.00">EnergyBeforeInvariantDouble</text>
<text text-anchor="middle" x="657.5" y="-976" font-family="Helvetica,sans-Serif" font-size="10.00">::before</text>
</a>
</g>
</g>
<!-- Node7&#45;&gt;Node14 -->
<g id="edge15_Node000007_Node000014" class="edge">
<title>Node7&#45;&gt;Node14</title>
<g id="a_edge15_Node000007_Node000014"><a xlink:title=" ">
<path fill="none" stroke="#63b8ff" d="M878.3,-608.58C878.09,-670.57 868.71,-860.72 766,-960.5 758.1,-968.18 748.38,-973.87 738.06,-978.09"/>
<polygon fill="#63b8ff" stroke="#63b8ff" points="881.8,-608.24 878.25,-598.25 874.8,-608.27 881.8,-608.24"/>
</a>
</g>
</g>
<!-- Node15 -->
<g id="Node000015" class="node">
<title>Node15</title>
<g id="a_Node000015"><a xlink:href="classwmtk_1_1invariants_1_1_collapse_soft_energy_before_invariant.html#aab8e4687323543f65ee7a38e93b9e32d" target="_top" xlink:title=" ">
<polygon fill="white" stroke="#666666" points="731,-951 584,-951 584,-910 731,-910 731,-951"/>
<text text-anchor="start" x="592" y="-939" font-family="Helvetica,sans-Serif" font-size="10.00">wmtk::invariants::Collapse</text>
<text text-anchor="start" x="592" y="-928" font-family="Helvetica,sans-Serif" font-size="10.00">SoftEnergyBeforeInvariant</text>
<text text-anchor="middle" x="657.5" y="-917" font-family="Helvetica,sans-Serif" font-size="10.00">::before</text>
</a>
</g>
</g>
<!-- Node7&#45;&gt;Node15 -->
<g id="edge16_Node000007_Node000015" class="edge">
<title>Node7&#45;&gt;Node15</title>
<g id="a_edge16_Node000007_Node000015"><a xlink:title=" ">
<path fill="none" stroke="#63b8ff" d="M876.95,-608.17C872.93,-662.98 853.93,-818.72 766,-900.5 756.21,-909.6 743.89,-915.98 731.11,-920.44"/>
<polygon fill="#63b8ff" stroke="#63b8ff" points="880.45,-608.28 877.6,-598.07 873.46,-607.83 880.45,-608.28"/>
</a>
</g>
</g>
<!-- Node16 -->
<g id="Node000016" class="node">
<title>Node16</title>
<g id="a_Node000016"><a xlink:href="classwmtk_1_1_swap23_energy_before_invariant.html#ab44b90bbea65c45e354fc3e72ecf0b29" target="_top" xlink:title=" ">
<polygon fill="white" stroke="#666666" points="735,-891.5 580,-891.5 580,-861.5 735,-861.5 735,-891.5"/>
<text text-anchor="start" x="588" y="-879.5" font-family="Helvetica,sans-Serif" font-size="10.00">wmtk::Swap23EnergyBefore</text>
<text text-anchor="middle" x="657.5" y="-868.5" font-family="Helvetica,sans-Serif" font-size="10.00">Invariant::before</text>
</a>
</g>
</g>
<!-- Node7&#45;&gt;Node16 -->
<g id="edge17_Node000007_Node000016" class="edge">
<title>Node7&#45;&gt;Node16</title>
<g id="a_edge17_Node000007_Node000016"><a xlink:title=" ">
<path fill="none" stroke="#63b8ff" d="M875.78,-607.96C869.07,-657.14 844.43,-787.16 766,-852.5 757.11,-859.91 746.42,-865.15 735.27,-868.84"/>
<polygon fill="#63b8ff" stroke="#63b8ff" points="879.25,-608.37 877.03,-598.01 872.31,-607.49 879.25,-608.37"/>
</a>
</g>
</g>
<!-- Node17 -->
<g id="Node000017" class="node">
<title>Node17</title>
<g id="a_Node000017"><a xlink:href="classwmtk_1_1_swap32_energy_before_invariant.html#ab57dde58cf0edb77bb38a8ba31a68108" target="_top" xlink:title=" ">
<polygon fill="white" stroke="#666666" points="735,-843.5 580,-843.5 580,-813.5 735,-813.5 735,-843.5"/>
<text text-anchor="start" x="588" y="-831.5" font-family="Helvetica,sans-Serif" font-size="10.00">wmtk::Swap32EnergyBefore</text>
<text text-anchor="middle" x="657.5" y="-820.5" font-family="Helvetica,sans-Serif" font-size="10.00">Invariant::before</text>
</a>
</g>
</g>
<!-- Node7&#45;&gt;Node17 -->
<g id="edge18_Node000007_Node000017" class="edge">
<title>Node7&#45;&gt;Node17</title>
<g id="a_edge18_Node000007_Node000017"><a xlink:title=" ">
<path fill="none" stroke="#63b8ff" d="M873.75,-608.1C863.4,-650.94 832.68,-753.17 766,-804.5 756.91,-811.5 746.17,-816.54 735.06,-820.14"/>
<polygon fill="#63b8ff" stroke="#63b8ff" points="877.22,-608.65 876.05,-598.12 870.4,-607.08 877.22,-608.65"/>
</a>
</g>
</g>
<!-- Node18 -->
<g id="Node000018" class="node">
<title>Node18</title>
<g id="a_Node000018"><a xlink:href="classwmtk_1_1_swap32_energy_before_invariant_double.html#a55e8fe16823411da398db8d0e7902fd4" target="_top" xlink:title=" ">
<polygon fill="white" stroke="#666666" points="735,-795.5 580,-795.5 580,-765.5 735,-765.5 735,-795.5"/>
<text text-anchor="start" x="588" y="-783.5" font-family="Helvetica,sans-Serif" font-size="10.00">wmtk::Swap32EnergyBefore</text>
<text text-anchor="middle" x="657.5" y="-772.5" font-family="Helvetica,sans-Serif" font-size="10.00">InvariantDouble::before</text>
</a>
</g>
</g>
<!-- Node7&#45;&gt;Node18 -->
<g id="edge19_Node000007_Node000018" class="edge">
<title>Node7&#45;&gt;Node18</title>
<g id="a_edge19_Node000007_Node000018"><a xlink:title=" ">
<path fill="none" stroke="#63b8ff" d="M870.73,-608.05C856.46,-643.58 821.28,-718.58 766,-756.5 756.77,-762.83 746.15,-767.52 735.25,-770.99"/>
<polygon fill="#63b8ff" stroke="#63b8ff" points="874.13,-608.96 874.49,-598.37 867.61,-606.43 874.13,-608.96"/>
</a>
</g>
</g>
<!-- Node19 -->
<g id="Node000019" class="node">
<title>Node19</title>
<g id="a_Node000019"><a xlink:href="classwmtk_1_1_swap44_energy_before_invariant.html#ad084e9675c0844f9229f4a9f452a9f4a" target="_top" xlink:title=" ">
<polygon fill="white" stroke="#666666" points="735,-747.5 580,-747.5 580,-717.5 735,-717.5 735,-747.5"/>
<text text-anchor="start" x="588" y="-735.5" font-family="Helvetica,sans-Serif" font-size="10.00">wmtk::Swap44EnergyBefore</text>
<text text-anchor="middle" x="657.5" y="-724.5" font-family="Helvetica,sans-Serif" font-size="10.00">Invariant::before</text>
</a>
</g>
</g>
<!-- Node7&#45;&gt;Node19 -->
<g id="edge20_Node000007_Node000019" class="edge">
<title>Node7&#45;&gt;Node19</title>
<g id="a_edge20_Node000007_Node000019"><a xlink:title=" ">
<path fill="none" stroke="#63b8ff" d="M866.5,-606.51C848.46,-633.18 810.91,-682.8 766,-708.5 756.54,-713.91 745.96,-718.11 735.24,-721.35"/>
<polygon fill="#63b8ff" stroke="#63b8ff" points="869.45,-608.38 872.04,-598.11 863.61,-604.52 869.45,-608.38"/>
</a>
</g>
</g>
<!-- Node20 -->
<g id="Node000020" class="node">
<title>Node20</title>
<g id="a_Node000020"><a xlink:href="classwmtk_1_1_swap44_energy_before_invariant_double.html#a14e29c5ddd8dca1f088cb7765a068096" target="_top" xlink:title=" ">
<polygon fill="white" stroke="#666666" points="735,-699.5 580,-699.5 580,-669.5 735,-669.5 735,-699.5"/>
<text text-anchor="start" x="588" y="-687.5" font-family="Helvetica,sans-Serif" font-size="10.00">wmtk::Swap44EnergyBefore</text>
<text text-anchor="middle" x="657.5" y="-676.5" font-family="Helvetica,sans-Serif" font-size="10.00">InvariantDouble::before</text>
</a>
</g>
</g>
<!-- Node7&#45;&gt;Node20 -->
<g id="edge21_Node000007_Node000020" class="edge">
<title>Node7&#45;&gt;Node20</title>
<g id="a_edge21_Node000007_Node000020"><a xlink:title=" ">
<path fill="none" stroke="#63b8ff" d="M858,-604.48C836.49,-620.89 800.68,-646.02 766,-660.5 756.21,-664.59 745.61,-668.03 735.01,-670.92"/>
<polygon fill="#63b8ff" stroke="#63b8ff" points="860.28,-607.14 866.04,-598.24 855.99,-601.61 860.28,-607.14"/>
</a>
</g>
</g>
<!-- Node21 -->
<g id="Node000021" class="node">
<title>Node21</title>
<g id="a_Node000021"><a xlink:href="classwmtk_1_1_swap56_energy_before_invariant.html#a904628eeefa17ffc85adcf81413f823a" target="_top" xlink:title=" ">
<polygon fill="white" stroke="#666666" points="735,-651.5 580,-651.5 580,-621.5 735,-621.5 735,-651.5"/>
<text text-anchor="start" x="588" y="-639.5" font-family="Helvetica,sans-Serif" font-size="10.00">wmtk::Swap56EnergyBefore</text>
<text text-anchor="middle" x="657.5" y="-628.5" font-family="Helvetica,sans-Serif" font-size="10.00">Invariant::before</text>
</a>
</g>
</g>
<!-- Node7&#45;&gt;Node21 -->
<g id="edge22_Node000007_Node000021" class="edge">
<title>Node7&#45;&gt;Node21</title>
<g id="a_edge22_Node000007_Node000021"><a xlink:title=" ">
<path fill="none" stroke="#63b8ff" d="M824.33,-600.24C795.04,-606.64 758.46,-614.64 727.11,-621.5"/>
<polygon fill="#63b8ff" stroke="#63b8ff" points="825.35,-603.6 834.37,-598.04 823.85,-596.76 825.35,-603.6"/>
</a>
</g>
</g>
<!-- Node22 -->
<g id="Node000022" class="node">
<title>Node22</title>
<g id="a_Node000022"><a xlink:href="classwmtk_1_1_swap56_energy_before_invariant_double.html#a853497f492784f29f3e0e9566d8d4137" target="_top" xlink:title=" ">
<polygon fill="white" stroke="#666666" points="735,-603.5 580,-603.5 580,-573.5 735,-573.5 735,-603.5"/>
<text text-anchor="start" x="588" y="-591.5" font-family="Helvetica,sans-Serif" font-size="10.00">wmtk::Swap56EnergyBefore</text>
<text text-anchor="middle" x="657.5" y="-580.5" font-family="Helvetica,sans-Serif" font-size="10.00">InvariantDouble::before</text>
</a>
</g>
</g>
<!-- Node7&#45;&gt;Node22 -->
<g id="edge23_Node000007_Node000022" class="edge">
<title>Node7&#45;&gt;Node22</title>
<g id="a_edge23_Node000007_Node000022"><a xlink:title=" ">
<path fill="none" stroke="#63b8ff" d="M793.2,-588.5C774.08,-588.5 753.91,-588.5 735.16,-588.5"/>
<polygon fill="#63b8ff" stroke="#63b8ff" points="793.38,-592 803.38,-588.5 793.38,-585 793.38,-592"/>
</a>
</g>
</g>
<!-- Node23 -->
<g id="Node000023" class="node">
<title>Node23</title>
<g id="a_Node000023"><a xlink:href="namespacewmtk_1_1components_1_1internal.html#a06f1c0433aa3057a90d1e7829c851e72" target="_top" xlink:title=" ">
<polygon fill="white" stroke="#666666" points="734.5,-537.5 580.5,-537.5 580.5,-507.5 734.5,-507.5 734.5,-537.5"/>
<text text-anchor="start" x="588.5" y="-525.5" font-family="Helvetica,sans-Serif" font-size="10.00">wmtk::components::internal</text>
<text text-anchor="middle" x="657.5" y="-514.5" font-family="Helvetica,sans-Serif" font-size="10.00">::CDT_internal</text>
</a>
</g>
</g>
<!-- Node7&#45;&gt;Node23 -->
<g id="edge24_Node000007_Node000023" class="edge">
<title>Node7&#45;&gt;Node23</title>
<g id="a_edge24_Node000007_Node000023"><a xlink:title=" ">
<path fill="none" stroke="#63b8ff" d="M836.31,-575.96C800.03,-565.05 747.34,-549.21 708.74,-537.61"/>
<polygon fill="#63b8ff" stroke="#63b8ff" points="835.5,-579.38 846.08,-578.9 837.51,-572.67 835.5,-579.38"/>
</a>
</g>
</g>
<!-- Node25 -->
<g id="Node000025" class="node">
<title>Node25</title>
<g id="a_Node000025"><a xlink:href="classwmtk_1_1_simplex_inversion_invariant.html#a7b8aec3f4552cfdff2c72b0c525f27dd" target="_top" xlink:title=" ">
<polygon fill="white" stroke="#666666" points="747,-489.5 568,-489.5 568,-459.5 747,-459.5 747,-489.5"/>
<text text-anchor="start" x="576" y="-477.5" font-family="Helvetica,sans-Serif" font-size="10.00">wmtk::SimplexInversionInvariant</text>
<text text-anchor="middle" x="657.5" y="-466.5" font-family="Helvetica,sans-Serif" font-size="10.00">::is_oriented</text>
</a>
</g>
</g>
<!-- Node7&#45;&gt;Node25 -->
<g id="edge27_Node000007_Node000025" class="edge">
<title>Node7&#45;&gt;Node25</title>
<g id="a_edge27_Node000007_Node000025"><a xlink:title=" ">
<path fill="none" stroke="#63b8ff" d="M861.97,-571.53C841.61,-551.04 804.5,-517.02 766,-498.5 758.85,-495.06 751.19,-492.11 743.38,-489.57"/>
<polygon fill="#63b8ff" stroke="#63b8ff" points="859.66,-574.19 869.15,-578.91 864.68,-569.3 859.66,-574.19"/>
</a>
</g>
</g>
<!-- Node26 -->
<g id="Node000026" class="node">
<title>Node26</title>
<g id="a_Node000026"><a xlink:href="classwmtk_1_1operations_1_1_a_m_i_p_s_optimization_smoothing_1_1_w_m_t_k_a_m_i_p_s_problem.html#a79268f8e41e4113db4f763d8206c5fda" target="_top" xlink:title=" ">
<polygon fill="white" stroke="#666666" points="758.5,-441 556.5,-441 556.5,-400 758.5,-400 758.5,-441"/>
<text text-anchor="start" x="564.5" y="-429" font-family="Helvetica,sans-Serif" font-size="10.00">wmtk::operations::AMIPSOptimization</text>
<text text-anchor="start" x="564.5" y="-418" font-family="Helvetica,sans-Serif" font-size="10.00">Smoothing::WMTKAMIPSProblem</text>
<text text-anchor="middle" x="657.5" y="-407" font-family="Helvetica,sans-Serif" font-size="10.00">::is_step_valid</text>
</a>
</g>
</g>
<!-- Node7&#45;&gt;Node26 -->
<g id="edge28_Node000007_Node000026" class="edge">
<title>Node7&#45;&gt;Node26</title>
<g id="a_edge28_Node000007_Node000026"><a xlink:title=" ">
<path fill="none" stroke="#63b8ff" d="M867.97,-569.81C851,-539.98 813.75,-481.82 766,-450.5 760.57,-446.94 754.72,-443.8 748.66,-441.02"/>
<polygon fill="#63b8ff" stroke="#63b8ff" points="865.02,-571.71 872.93,-578.75 871.14,-568.31 865.02,-571.71"/>
</a>
</g>
</g>
<!-- Node28 -->
<g id="Node000028" class="node">
<title>Node28</title>
<g id="a_Node000028"><a xlink:href="classwmtk_1_1operations_1_1_a_m_i_p_s_optimization_smoothing_periodic_1_1_w_m_t_k_a_m_i_p_s_problem.html#a4a454562d96a7c0c995d4f2ae607f9b0" target="_top" xlink:title=" ">
<polygon fill="white" stroke="#666666" points="766,-382 549,-382 549,-341 766,-341 766,-382"/>
<text text-anchor="start" x="557" y="-370" font-family="Helvetica,sans-Serif" font-size="10.00">wmtk::operations::AMIPSOptimization</text>
<text text-anchor="start" x="557" y="-359" font-family="Helvetica,sans-Serif" font-size="10.00">SmoothingPeriodic::WMTKAMIPSProblem</text>
<text text-anchor="middle" x="657.5" y="-348" font-family="Helvetica,sans-Serif" font-size="10.00">::is_step_valid</text>
</a>
</g>
</g>
<!-- Node7&#45;&gt;Node28 -->
<g id="edge30_Node000007_Node000028" class="edge">
<title>Node7&#45;&gt;Node28</title>
<g id="a_edge30_Node000007_Node000028"><a xlink:title=" ">
<path fill="none" stroke="#63b8ff" d="M872.54,-569.25C860.32,-529.71 826.94,-439.09 766,-391.5 761.49,-387.98 756.6,-384.88 751.47,-382.13"/>
<polygon fill="#63b8ff" stroke="#63b8ff" points="869.23,-570.38 875.43,-578.97 875.94,-568.38 869.23,-570.38"/>
</a>
</g>
</g>
<!-- Node30 -->
<g id="Node000030" class="node">
<title>Node30</title>
<g id="a_Node000030"><a xlink:href="namespacewmtk_1_1components_1_1internal.html#a8890d5e5bb5f11779d4e40e07882253a" target="_top" xlink:title=" ">
<polygon fill="white" stroke="#666666" points="734.5,-304.5 580.5,-304.5 580.5,-274.5 734.5,-274.5 734.5,-304.5"/>
<text text-anchor="start" x="588.5" y="-292.5" font-family="Helvetica,sans-Serif" font-size="10.00">wmtk::components::internal</text>
<text text-anchor="middle" x="657.5" y="-281.5" font-family="Helvetica,sans-Serif" font-size="10.00">::periodic_optimization</text>
</a>
</g>
</g>
<!-- Node7&#45;&gt;Node30 -->
<g id="edge32_Node000007_Node000030" class="edge">
<title>Node7&#45;&gt;Node30</title>
<g id="a_edge32_Node000007_Node000030"><a xlink:title=" ">
<path fill="none" stroke="#63b8ff" d="M874.65,-568.78C865.65,-521.58 836.66,-400.94 766,-332.5 753.08,-319.98 736.05,-310.96 719.37,-304.52"/>
<polygon fill="#63b8ff" stroke="#63b8ff" points="871.26,-569.67 876.48,-578.89 878.15,-568.43 871.26,-569.67"/>
</a>
</g>
</g>
<!-- Node32 -->
<g id="Node000032" class="node">
<title>Node32</title>
<g id="a_Node000032"><a xlink:href="namespacewmtk_1_1components_1_1isotropic__remeshing_1_1internal.html#a80b4c7fe0a3e44fb552ab1bee190a283" target="_top" xlink:title=" ">
<polygon fill="white" stroke="#666666" points="747,-256.5 568,-256.5 568,-226.5 747,-226.5 747,-256.5"/>
<text text-anchor="start" x="576" y="-244.5" font-family="Helvetica,sans-Serif" font-size="10.00">wmtk::components::isotropic</text>
<text text-anchor="middle" x="657.5" y="-233.5" font-family="Helvetica,sans-Serif" font-size="10.00">_remeshing::internal::tet_swap44</text>
</a>
</g>
</g>
<!-- Node7&#45;&gt;Node32 -->
<g id="edge35_Node000007_Node000032" class="edge">
<title>Node7&#45;&gt;Node32</title>
<g id="a_edge35_Node000007_Node000032"><a xlink:title=" ">
<path fill="none" stroke="#63b8ff" d="M877.44,-568.64C874.73,-511.98 858.82,-348.29 766,-265.5 760.36,-260.47 753.91,-256.42 747.02,-253.17"/>
<polygon fill="#63b8ff" stroke="#63b8ff" points="873.95,-568.91 877.84,-578.77 880.95,-568.64 873.95,-568.91"/>
</a>
</g>
</g>
<!-- Node34 -->
<g id="Node000034" class="node">
<title>Node34</title>
<g id="a_Node000034"><a xlink:href="classwmtk_1_1io_1_1_msh_reader.html#ab48bcfed792dcb59c7f417fd2cf44486" target="_top" xlink:title=" ">
<polygon fill="white" stroke="#666666" points="717.5,-208.5 597.5,-208.5 597.5,-178.5 717.5,-178.5 717.5,-208.5"/>
<text text-anchor="start" x="605.5" y="-196.5" font-family="Helvetica,sans-Serif" font-size="10.00">wmtk::io::MshReader</text>
<text text-anchor="middle" x="657.5" y="-185.5" font-family="Helvetica,sans-Serif" font-size="10.00">::validate</text>
</a>
</g>
</g>
<!-- Node7&#45;&gt;Node34 -->
<g id="edge37_Node000007_Node000034" class="edge">
<title>Node7&#45;&gt;Node34</title>
<g id="a_edge37_Node000007_Node000034"><a xlink:title=" ">
<path fill="none" stroke="#63b8ff" d="M878.47,-568.68C878.79,-506.72 870.89,-314.94 766,-217.5 752.9,-205.33 735.03,-198.85 717.62,-195.52"/>
<polygon fill="#63b8ff" stroke="#63b8ff" points="874.97,-568.94 878.33,-578.99 881.96,-569.04 874.97,-568.94"/>
</a>
</g>
</g>
<!-- Node35 -->
<g id="Node000035" class="node">
<title>Node35</title>
<g id="a_Node000035"><a xlink:href="namespacewmtk_1_1components.html#ac6ca52668bd22e164d4baf59ec533864" target="_top" xlink:title=" ">
<polygon fill="white" stroke="#666666" points="747,-160 568,-160 568,-141 747,-141 747,-160"/>
<text text-anchor="middle" x="657.5" y="-148" font-family="Helvetica,sans-Serif" font-size="10.00">wmtk::components::wildmeshing</text>
</a>
</g>
</g>
<!-- Node7&#45;&gt;Node35 -->
<g id="edge38_Node000007_Node000035" class="edge">
<title>Node7&#45;&gt;Node35</title>
<g id="a_edge38_Node000007_Node000035"><a xlink:title=" ">
<path fill="none" stroke="#63b8ff" d="M875.56,-569.01C865.78,-494.01 826.96,-225.42 766,-169.5 760.41,-164.38 753.95,-160.39 747.01,-157.31"/>
<polygon fill="#63b8ff" stroke="#63b8ff" points="872.1,-569.5 876.84,-578.97 879.04,-568.61 872.1,-569.5"/>
</a>
</g>
</g>
<!-- Node36 -->
<g id="Node000036" class="node">
<title>Node36</title>
<g id="a_Node000036"><a xlink:href="namespacewmtk_1_1components_1_1internal.html#a798951bc2a6b1069a5ae8c946ddfdecd" target="_top" xlink:title=" ">
<polygon fill="white" stroke="#666666" points="734.5,-104.5 580.5,-104.5 580.5,-74.5 734.5,-74.5 734.5,-104.5"/>
<text text-anchor="start" x="588.5" y="-92.5" font-family="Helvetica,sans-Serif" font-size="10.00">wmtk::components::internal</text>
<text text-anchor="middle" x="657.5" y="-81.5" font-family="Helvetica,sans-Serif" font-size="10.00">::wildmeshing3d</text>
</a>
</g>
</g>
<!-- Node7&#45;&gt;Node36 -->
<g id="edge39_Node000007_Node000036" class="edge">
<title>Node7&#45;&gt;Node36</title>
<g id="a_edge39_Node000007_Node000036"><a xlink:title=" ">
<path fill="none" stroke="#63b8ff" d="M875.56,-568.7C865.5,-490 825,-200.38 766,-132.5 754.99,-119.83 739.72,-110.85 724.15,-104.51"/>
<polygon fill="#63b8ff" stroke="#63b8ff" points="872.1,-569.24 876.82,-578.73 879.04,-568.37 872.1,-569.24"/>
</a>
</g>
</g>
<!-- Node38 -->
<g id="Node000038" class="node">
<title>Node38</title>
<g id="a_Node000038"><a xlink:href="namespacewmtk_1_1utils.html#ae9909d772a51855effa0ab75c701df5c" target="_top" xlink:title=" ">
<polygon fill="white" stroke="#666666" points="733,-56 582,-56 582,-37 733,-37 733,-56"/>
<text text-anchor="middle" x="657.5" y="-44" font-family="Helvetica,sans-Serif" font-size="10.00">wmtk::utils::wmtk_orient3d</text>
</a>
</g>
</g>
<!-- Node7&#45;&gt;Node38 -->
<g id="edge42_Node000007_Node000038" class="edge">
<title>Node7&#45;&gt;Node38</title>
<g id="a_edge42_Node000007_Node000038"><a xlink:title=" ">
<path fill="none" stroke="#63b8ff" d="M876.65,-568.8C870.32,-482.33 840.67,-137.53 766,-65.5 756.93,-56.75 745.32,-51.26 733.1,-47.94"/>
<polygon fill="#63b8ff" stroke="#63b8ff" points="873.16,-569.11 877.36,-578.83 880.15,-568.61 873.16,-569.11"/>
</a>
</g>
</g>
<!-- Node39 -->
<g id="Node000039" class="node">
<title>Node39</title>
<g id="a_Node000039"><a xlink:href="namespacewmtk_1_1utils.html#aa4bf59c2abd6992adacdfb4ba292821b" target="_top" xlink:title=" ">
<polygon fill="white" stroke="#666666" points="733,-19 582,-19 582,0 733,0 733,-19"/>
<text text-anchor="middle" x="657.5" y="-7" font-family="Helvetica,sans-Serif" font-size="10.00">wmtk::utils::wmtk_orient3d</text>
</a>
</g>
</g>
<!-- Node7&#45;&gt;Node39 -->
<g id="edge43_Node000007_Node000039" class="edge">
<title>Node7&#45;&gt;Node39</title>
<g id="a_edge43_Node000007_Node000039"><a xlink:title=" ">
<path fill="none" stroke="#63b8ff" d="M876.96,-568.51C871.81,-477.71 846.01,-105.06 766,-27.5 756.96,-18.74 745.37,-13.32 733.15,-10.09"/>
<polygon fill="#63b8ff" stroke="#63b8ff" points="873.47,-568.78 877.51,-578.57 880.46,-568.4 873.47,-568.78"/>
</a>
</g>
</g>
<!-- Node9 -->
<g id="Node000009" class="node">
<title>Node9</title>
<g id="a_Node000009"><a xlink:href="classwmtk_1_1components_1_1internal_1_1_simplicial_embedding.html#a56a218aa40f62ce6ecdb5ac253553e6c" target="_top" xlink:title="Regularize tags in mesh.">
<polygon fill="white" stroke="#666666" points="513,-1106.5 307,-1106.5 307,-1076.5 513,-1076.5 513,-1106.5"/>
<text text-anchor="start" x="315" y="-1094.5" font-family="Helvetica,sans-Serif" font-size="10.00">wmtk::components::internal</text>
<text text-anchor="middle" x="410" y="-1083.5" font-family="Helvetica,sans-Serif" font-size="10.00">::SimplicialEmbedding::regularize_tags</text>
</a>
</g>
</g>
<!-- Node8&#45;&gt;Node9 -->
<g id="edge10_Node000008_Node000009" class="edge">
<title>Node8&#45;&gt;Node9</title>
<g id="a_edge10_Node000008_Node000009"><a xlink:title=" ">
<path fill="none" stroke="#63b8ff" d="M557.8,-1091.5C543.14,-1091.5 528,-1091.5 513.27,-1091.5"/>
<polygon fill="#63b8ff" stroke="#63b8ff" points="557.87,-1095 567.87,-1091.5 557.87,-1088 557.87,-1095"/>
</a>
</g>
</g>
<!-- Node10 -->
<g id="Node000010" class="node">
<title>Node10</title>
<g id="a_Node000010"><a xlink:href="namespacewmtk_1_1components.html#abab23cfb68442b5652e27826a47ba553" target="_top" xlink:title=" ">
<polygon fill="white" stroke="#666666" points="271,-1106.5 107,-1106.5 107,-1076.5 271,-1076.5 271,-1106.5"/>
<text text-anchor="start" x="115" y="-1094.5" font-family="Helvetica,sans-Serif" font-size="10.00">wmtk::components::simplicial</text>
<text text-anchor="middle" x="189" y="-1083.5" font-family="Helvetica,sans-Serif" font-size="10.00">_embedding</text>
</a>
</g>
</g>
<!-- Node9&#45;&gt;Node10 -->
<g id="edge11_Node000009_Node000010" class="edge">
<title>Node9&#45;&gt;Node10</title>
<g id="a_edge11_Node000009_Node000010"><a xlink:title=" ">
<path fill="none" stroke="#63b8ff" d="M296.79,-1091.5C288.2,-1091.5 279.63,-1091.5 271.3,-1091.5"/>
<polygon fill="#63b8ff" stroke="#63b8ff" points="296.87,-1095 306.87,-1091.5 296.87,-1088 296.87,-1095"/>
</a>
</g>
</g>
<!-- Node11 -->
<g id="Node000011" class="node">
<title>Node11</title>
<g id="a_Node000011"><a xlink:href="test__simplicial__embedding_8cpp.html#a0e974097f50df389ea6daa673b677ca6" target="_top" xlink:title=" ">
<polygon fill="white" stroke="#666666" points="71,-1120 0,-1120 0,-1101 71,-1101 71,-1120"/>
<text text-anchor="middle" x="35.5" y="-1108" font-family="Helvetica,sans-Serif" font-size="10.00">TEST_CASE</text>
</a>
</g>
</g>
<!-- Node10&#45;&gt;Node11 -->
<g id="edge12_Node000010_Node000011" class="edge">
<title>Node10&#45;&gt;Node11</title>
<g id="a_edge12_Node000010_Node000011"><a xlink:title=" ">
<path fill="none" stroke="#63b8ff" d="M96.73,-1102.95C87.78,-1104.07 79.14,-1105.15 71.32,-1106.13"/>
<polygon fill="#63b8ff" stroke="#63b8ff" points="97.44,-1106.38 106.93,-1101.67 96.57,-1099.44 97.44,-1106.38"/>
</a>
</g>
</g>
<!-- Node12 -->
<g id="Node000012" class="node">
<title>Node12</title>
<g id="a_Node000012"><a xlink:href="test__simplicial__embedding_8cpp.html#a49717460104eb5696a0b66b964ff84a0" target="_top" xlink:title=" ">
<polygon fill="white" stroke="#666666" points="71,-1083 0,-1083 0,-1064 71,-1064 71,-1083"/>
<text text-anchor="middle" x="35.5" y="-1071" font-family="Helvetica,sans-Serif" font-size="10.00">TEST_CASE</text>
</a>
</g>
</g>
<!-- Node10&#45;&gt;Node12 -->
<g id="edge13_Node000010_Node000012" class="edge">
<title>Node10&#45;&gt;Node12</title>
<g id="a_edge13_Node000010_Node000012"><a xlink:title=" ">
<path fill="none" stroke="#63b8ff" d="M96.73,-1080.66C87.78,-1079.59 79.14,-1078.57 71.32,-1077.64"/>
<polygon fill="#63b8ff" stroke="#63b8ff" points="96.58,-1084.16 106.93,-1081.87 97.41,-1077.21 96.58,-1084.16"/>
</a>
</g>
</g>
<!-- Node23&#45;&gt;Node23 -->
<g id="edge26_Node000023_Node000023" class="edge">
<title>Node23&#45;&gt;Node23</title>
<g id="a_edge26_Node000023_Node000023"><a xlink:title=" ">
<path fill="none" stroke="#63b8ff" d="M696.01,-548.1C690.75,-552.47 677.91,-555.5 657.5,-555.5 623.12,-555.5 610.23,-546.91 618.83,-537.78"/>
<polygon fill="#63b8ff" stroke="#63b8ff" points="699.51,-547.83 696.17,-537.78 692.51,-547.72 699.51,-547.83"/>
</a>
</g>
</g>
<!-- Node24 -->
<g id="Node000024" class="node">
<title>Node24</title>
<g id="a_Node000024"><a xlink:href="namespacewmtk_1_1components.html#a7bf4c4516032a63182e16035aeacceb4" target="_top" xlink:title=" ">
<polygon fill="white" stroke="#666666" points="478.5,-532 341.5,-532 341.5,-513 478.5,-513 478.5,-532"/>
<text text-anchor="middle" x="410" y="-520" font-family="Helvetica,sans-Serif" font-size="10.00">wmtk::components::CDT</text>
</a>
</g>
</g>
<!-- Node23&#45;&gt;Node24 -->
<g id="edge25_Node000023_Node000024" class="edge">
<title>Node23&#45;&gt;Node24</title>
<g id="a_edge25_Node000023_Node000024"><a xlink:title=" ">
<path fill="none" stroke="#63b8ff" d="M570.12,-522.5C540.08,-522.5 506.84,-522.5 478.55,-522.5"/>
<polygon fill="#63b8ff" stroke="#63b8ff" points="570.17,-526 580.17,-522.5 570.17,-519 570.17,-526"/>
</a>
</g>
</g>
<!-- Node27 -->
<g id="Node000027" class="node">
<title>Node27</title>
<g id="a_Node000027"><a xlink:href="classwmtk_1_1operations_1_1_a_m_i_p_s_optimization_smoothing.html#a2c409cd3da46f4360119e142ef3c3682" target="_top" xlink:title="returns an empty vector in case of failure">
<polygon fill="white" stroke="#666666" points="511,-435.5 309,-435.5 309,-405.5 511,-405.5 511,-435.5"/>
<text text-anchor="start" x="317" y="-423.5" font-family="Helvetica,sans-Serif" font-size="10.00">wmtk::operations::AMIPSOptimization</text>
<text text-anchor="middle" x="410" y="-412.5" font-family="Helvetica,sans-Serif" font-size="10.00">Smoothing::execute</text>
</a>
</g>
</g>
<!-- Node26&#45;&gt;Node27 -->
<g id="edge29_Node000026_Node000027" class="edge">
<title>Node26&#45;&gt;Node27</title>
<g id="a_edge29_Node000026_Node000027"><a xlink:title=" ">
<path fill="none" stroke="#63b8ff" d="M546.14,-420.5C534.53,-420.5 522.77,-420.5 511.29,-420.5"/>
<polygon fill="#63b8ff" stroke="#63b8ff" points="546.29,-424 556.29,-420.5 546.29,-417 546.29,-424"/>
</a>
</g>
</g>
<!-- Node29 -->
<g id="Node000029" class="node">
<title>Node29</title>
<g id="a_Node000029"><a xlink:href="classwmtk_1_1operations_1_1_a_m_i_p_s_optimization_smoothing_periodic.html#a86df18fe3713cb41dca1687487dea61b" target="_top" xlink:title="returns an empty vector in case of failure">
<polygon fill="white" stroke="#666666" points="511,-376.5 309,-376.5 309,-346.5 511,-346.5 511,-376.5"/>
<text text-anchor="start" x="317" y="-364.5" font-family="Helvetica,sans-Serif" font-size="10.00">wmtk::operations::AMIPSOptimization</text>
<text text-anchor="middle" x="410" y="-353.5" font-family="Helvetica,sans-Serif" font-size="10.00">SmoothingPeriodic::execute</text>
</a>
</g>
</g>
<!-- Node28&#45;&gt;Node29 -->
<g id="edge31_Node000028_Node000029" class="edge">
<title>Node28&#45;&gt;Node29</title>
<g id="a_edge31_Node000028_Node000029"><a xlink:title=" ">
<path fill="none" stroke="#63b8ff" d="M538.53,-361.5C529.4,-361.5 520.23,-361.5 511.22,-361.5"/>
<polygon fill="#63b8ff" stroke="#63b8ff" points="538.82,-365 548.82,-361.5 538.82,-358 538.82,-365"/>
</a>
</g>
</g>
<!-- Node30&#45;&gt;Node30 -->
<g id="edge34_Node000030_Node000030" class="edge">
<title>Node30&#45;&gt;Node30</title>
<g id="a_edge34_Node000030_Node000030"><a xlink:title=" ">
<path fill="none" stroke="#63b8ff" d="M696.01,-315.1C690.75,-319.47 677.91,-322.5 657.5,-322.5 623.12,-322.5 610.23,-313.91 618.83,-304.78"/>
<polygon fill="#63b8ff" stroke="#63b8ff" points="699.51,-314.83 696.17,-304.78 692.51,-314.72 699.51,-314.83"/>
</a>
</g>
</g>
<!-- Node31 -->
<g id="Node000031" class="node">
<title>Node31</title>
<g id="a_Node000031"><a xlink:href="namespacewmtk_1_1components.html#a4166e4880553cfacbf79ac3515a637cd" target="_top" xlink:title=" ">
<polygon fill="white" stroke="#666666" points="487.5,-304.5 332.5,-304.5 332.5,-274.5 487.5,-274.5 487.5,-304.5"/>
<text text-anchor="start" x="340.5" y="-292.5" font-family="Helvetica,sans-Serif" font-size="10.00">wmtk::components::periodic</text>
<text text-anchor="middle" x="410" y="-281.5" font-family="Helvetica,sans-Serif" font-size="10.00">_optimization</text>
</a>
</g>
</g>
<!-- Node30&#45;&gt;Node31 -->
<g id="edge33_Node000030_Node000031" class="edge">
<title>Node30&#45;&gt;Node31</title>
<g id="a_edge33_Node000030_Node000031"><a xlink:title=" ">
<path fill="none" stroke="#63b8ff" d="M570.02,-289.5C543.19,-289.5 513.82,-289.5 487.71,-289.5"/>
<polygon fill="#63b8ff" stroke="#63b8ff" points="570.17,-293 580.17,-289.5 570.17,-286 570.17,-293"/>
</a>
</g>
</g>
<!-- Node33 -->
<g id="Node000033" class="node">
<title>Node33</title>
<g id="a_Node000033"><a xlink:href="namespacewmtk_1_1components_1_1isotropic__remeshing_1_1internal.html#afc7f55138f61dd02af11403444093220" target="_top" xlink:title=" ">
<polygon fill="white" stroke="#666666" points="493.5,-256.5 326.5,-256.5 326.5,-226.5 493.5,-226.5 493.5,-256.5"/>
<text text-anchor="start" x="334.5" y="-244.5" font-family="Helvetica,sans-Serif" font-size="10.00">wmtk::components::isotropic</text>
<text text-anchor="middle" x="410" y="-233.5" font-family="Helvetica,sans-Serif" font-size="10.00">_remeshing::internal::tet_swap</text>
</a>
</g>
</g>
<!-- Node32&#45;&gt;Node33 -->
<g id="edge36_Node000032_Node000033" class="edge">
<title>Node32&#45;&gt;Node33</title>
<g id="a_edge36_Node000032_Node000033"><a xlink:title=" ">
<path fill="none" stroke="#63b8ff" d="M557.86,-241.5C536.6,-241.5 514.35,-241.5 493.77,-241.5"/>
<polygon fill="#63b8ff" stroke="#63b8ff" points="557.87,-245 567.87,-241.5 557.87,-238 557.87,-245"/>
</a>
</g>
</g>
<!-- Node36&#45;&gt;Node36 -->
<g id="edge41_Node000036_Node000036" class="edge">
<title>Node36&#45;&gt;Node36</title>
<g id="a_edge41_Node000036_Node000036"><a xlink:title=" ">
<path fill="none" stroke="#63b8ff" d="M696.01,-115.1C690.75,-119.47 677.91,-122.5 657.5,-122.5 623.12,-122.5 610.23,-113.91 618.83,-104.78"/>
<polygon fill="#63b8ff" stroke="#63b8ff" points="699.51,-114.83 696.17,-104.78 692.51,-114.72 699.51,-114.83"/>
</a>
</g>
</g>
<!-- Node37 -->
<g id="Node000037" class="node">
<title>Node37</title>
<g id="a_Node000037"><a xlink:href="namespacewmtk_1_1components.html#a7c75b44e67ee059f20849f2ea5e04e49" target="_top" xlink:title=" ">
<polygon fill="white" stroke="#666666" points="499.5,-99 320.5,-99 320.5,-80 499.5,-80 499.5,-99"/>
<text text-anchor="middle" x="410" y="-87" font-family="Helvetica,sans-Serif" font-size="10.00">wmtk::components::wildmeshing</text>
</a>
</g>
</g>
<!-- Node36&#45;&gt;Node37 -->
<g id="edge40_Node000036_Node000037" class="edge">
<title>Node36&#45;&gt;Node37</title>
<g id="a_edge40_Node000036_Node000037"><a xlink:title=" ">
<path fill="none" stroke="#63b8ff" d="M569.86,-89.5C547.13,-89.5 522.59,-89.5 499.75,-89.5"/>
<polygon fill="#63b8ff" stroke="#63b8ff" points="570.17,-93 580.17,-89.5 570.17,-86 570.17,-93"/>
</a>
</g>
</g>
</g>
</svg>

<g id="navigator" transform="translate(0 0)" fill="#404254">
  <rect fill="#f2f5e9" fill-opacity="0.5" stroke="#606060" stroke-width=".5" x="0" y="0" width="60" height="60"/>
  <use id="zoomplus" xlink:href="#zoomPlus" x="17" y="9" onmousedown="handleZoom(evt,'in')"/>
  <use id="zoomminus" xlink:href="#zoomMin" x="42" y="9" onmousedown="handleZoom(evt,'out')"/>
  <use id="reset" xlink:href="#resetDef" x="30" y="36" onmousedown="handleReset()"/>
   <use id="arrowup" xlink:href="#arrowUp" x="0" y="0" onmousedown="handlePan(0,-1)"/>
  <use id="arrowright" xlink:href="#arrowRight" x="0" y="0" onmousedown="handlePan(1,0)"/>
  <use id="arrowdown" xlink:href="#arrowDown" x="0" y="0" onmousedown="handlePan(0,1)"/>
  <use id="arrowleft" xlink:href="#arrowLeft" x="0" y="0" onmousedown="handlePan(-1,0)"/>
</g>
<svg viewBox="0 0 15 15" width="100%" height="30px" preserveAspectRatio="xMaxYMin meet">
 <g id="arrow_out" transform="scale(0.3 0.3)">
  <a xlink:href="classwmtk_1_1_rational_af23196c85e42485e90d9c0ea9b47586c_icgraph_org.svg" target="_base">
   <rect id="button" ry="5" rx="5" y="6" x="6" height="38" width="38"
        fill="#f2f5e9" fill-opacity="0.5" stroke="#606060" stroke-width="1.0"/>
   <path id="arrow"
     d="M 11.500037,31.436501 C 11.940474,20.09759 22.043105,11.32322 32.158766,21.979434 L 37.068811,17.246167 C 37.068811,17.246167 37.088388,32 37.088388,32 L 22.160133,31.978069 C 22.160133,31.978069 26.997745,27.140456 26.997745,27.140456 C 18.528582,18.264221 13.291696,25.230495 11.500037,31.436501 z"
     style="fill:#404040;"/>
  </a>
 </g>
</svg>

<style type='text/css'>
<![CDATA[
[data-mouse-over-selected='false'] { opacity: 0.7; }
[data-mouse-over-selected='true']  { opacity: 1.0; }
]]>
</style>
<script type="application/ecmascript"><![CDATA[
document.addEventListener('DOMContentLoaded', (event) => {
  highlightEdges();
  highlightAdjacentNodes();
});
]]></script>
</svg>
