<?xml version="1.0" encoding="UTF-8" standalone="no"?>
<!DOCTYPE svg PUBLIC "-//W3C//DTD SVG 1.1//EN"
 "http://www.w3.org/Graphics/SVG/1.1/DTD/svg11.dtd">
<!-- Generated by graphviz version 2.43.0 (0)
 -->
<!-- Title: wmtk::dart::DartTopologyAccessor::get_boundary_local_index Pages: 1 -->
<!--zoomable 199 -->

<svg id="main" version="1.1" xmlns="http://www.w3.org/2000/svg" xmlns:xlink="http://www.w3.org/1999/xlink" xml:space="preserve" onload="init(evt)">
<style type="text/css"><![CDATA[
.node, .edge {opacity: 0.7;}
.node.selected, .edge.selected {opacity: 1;}
.edge:hover path { stroke: red; }
.edge:hover polygon { stroke: red; fill: red; }
]]></style>

<defs>
  <circle id="rim" cx="0" cy="0" r="7"/>
  <circle id="rim2" cx="0" cy="0" r="3.5"/>
  <g id="zoomPlus">
    <use xlink:href="#rim" fill="#404040"><set attributeName="fill" to="#808080" begin="zoomplus.mouseover" end="zoomplus.mouseout"/></use>
    <path d="M-4,0h8M0,-4v8" fill="none" stroke="white" stroke-width="1.5" pointer-events="none"/>
  </g>
  <g id="zoomMin">
    <use xlink:href="#rim" fill="#404040"><set attributeName="fill" to="#808080" begin="zoomminus.mouseover" end="zoomminus.mouseout"/></use>
    <path d="M-4,0h8" fill="none" stroke="white" stroke-width="1.5" pointer-events="none"/>
  </g>
  <g id="arrowUp" transform="translate(30 24)">
    <use xlink:href="#rim"/>
    <path pointer-events="none" fill="none" stroke="white" stroke-width="1.5" d="M0,-3.0v7 M-2.5,-0.5L0,-3.0L2.5,-0.5"/>
  </g>
  <g id="arrowRight" transform="rotate(90) translate(36 -43)">
    <use xlink:href="#rim"/>
    <path pointer-events="none" fill="none" stroke="white" stroke-width="1.5" d="M0,-3.0v7 M-2.5,-0.5L0,-3.0L2.5,-0.5"/>
  </g>
  <g id="arrowDown" transform="rotate(180) translate(-30 -48)">
    <use xlink:href="#rim"/>
    <path pointer-events="none" fill="none" stroke="white" stroke-width="1.5" d="M0,-3.0v7 M-2.5,-0.5L0,-3.0L2.5,-0.5"/>
  </g>
  <g id="arrowLeft" transform="rotate(270) translate(-36 17)">
    <use xlink:href="#rim"/>
    <path pointer-events="none" fill="none" stroke="white" stroke-width="1.5" d="M0,-3.0v7 M-2.5,-0.5L0,-3.0L2.5,-0.5"/>
  </g>
  <g id="resetDef">
    <use xlink:href="#rim2" fill="#404040"><set attributeName="fill" to="#808080" begin="reset.mouseover" end="reset.mouseout"/></use>
  </g>
</defs>
<script type="application/ecmascript">
var viewWidth = 926;
var viewHeight = 199;
var sectionId = 'dynsection-4';
</script>
<script type="application/ecmascript" xlink:href="svg.min.js"/>
<svg id="graph" class="graph">
<g id="viewport">
<title>wmtk::dart::DartTopologyAccessor::get_boundary_local_index</title>
<!-- Node1 -->
<g id="Node000001" class="node">
<title>Node1</title>
<g id="a_Node000001"><a xlink:title=" ">
<polygon fill="#999999" stroke="#666666" points="140,-148 0,-148 0,-107 140,-107 140,-148"/>
<text text-anchor="start" x="8" y="-136" font-family="Helvetica,sans-Serif" font-size="10.00">wmtk::dart::DartTopology</text>
<text text-anchor="start" x="8" y="-125" font-family="Helvetica,sans-Serif" font-size="10.00">Accessor::get_boundary</text>
<text text-anchor="middle" x="70" y="-114" font-family="Helvetica,sans-Serif" font-size="10.00">_local_index</text>
</a>
</g>
</g>
<!-- Node2 -->
<g id="Node000002" class="node">
<title>Node2</title>
<g id="a_Node000002"><a xlink:href="classwmtk_1_1dart_1_1_simplex_dart.html#a3949350f736cbf567bf566fd7565e6e8" target="_top" xlink:title=" ">
<polygon fill="white" stroke="#666666" points="325,-190.5 188,-190.5 188,-160.5 325,-160.5 325,-190.5"/>
<text text-anchor="start" x="196" y="-178.5" font-family="Helvetica,sans-Serif" font-size="10.00">wmtk::dart::SimplexDart</text>
<text text-anchor="middle" x="256.5" y="-167.5" font-family="Helvetica,sans-Serif" font-size="10.00">::get_singleton</text>
</a>
</g>
</g>
<!-- Node1&#45;&gt;Node2 -->
<g id="edge1_Node000001_Node000002" class="edge">
<title>Node1&#45;&gt;Node2</title>
<g id="a_edge1_Node000001_Node000002"><a xlink:title=" ">
<path fill="none" stroke="#63b8ff" d="M140.23,-145.51C155.74,-149.55 172.19,-153.83 187.65,-157.85"/>
<polygon fill="#63b8ff" stroke="#63b8ff" points="187.09,-161.32 197.65,-160.45 188.85,-154.54 187.09,-161.32"/>
</a>
</g>
</g>
<!-- Node4 -->
<g id="Node000004" class="node">
<title>Node4</title>
<g id="a_Node000004"><a xlink:href="classwmtk_1_1dart_1_1_dart_accessor.html#abe133ce32adc52abfc8632338d3e1be9" target="_top" xlink:title=" ">
<polygon fill="white" stroke="#666666" points="337,-142.5 176,-142.5 176,-112.5 337,-112.5 337,-142.5"/>
<text text-anchor="start" x="184" y="-130.5" font-family="Helvetica,sans-Serif" font-size="10.00">wmtk::dart::DartAccessor</text>
<text text-anchor="middle" x="256.5" y="-119.5" font-family="Helvetica,sans-Serif" font-size="10.00">&lt; Dim+1, MeshType &gt;::mesh</text>
</a>
</g>
</g>
<!-- Node1&#45;&gt;Node4 -->
<g id="edge3_Node000001_Node000004" class="edge">
<title>Node1&#45;&gt;Node4</title>
<g id="a_edge3_Node000001_Node000004"><a xlink:title=" ">
<path fill="none" stroke="#63b8ff" d="M140.23,-127.5C148.6,-127.5 157.25,-127.5 165.87,-127.5"/>
<polygon fill="#63b8ff" stroke="#63b8ff" points="165.96,-131 175.96,-127.5 165.96,-124 165.96,-131"/>
</a>
</g>
</g>
<!-- Node5 -->
<g id="Node000005" class="node">
<title>Node5</title>
<g id="a_Node000005"><a xlink:href="classwmtk_1_1dart_1_1_simplex_dart.html#ad657cee68299758eeb9f380ee376c359" target="_top" xlink:title=" ">
<polygon fill="white" stroke="#666666" points="325,-94.5 188,-94.5 188,-64.5 325,-64.5 325,-94.5"/>
<text text-anchor="start" x="196" y="-82.5" font-family="Helvetica,sans-Serif" font-size="10.00">wmtk::dart::SimplexDart</text>
<text text-anchor="middle" x="256.5" y="-71.5" font-family="Helvetica,sans-Serif" font-size="10.00">::simplex_index</text>
</a>
</g>
</g>
<!-- Node1&#45;&gt;Node5 -->
<g id="edge4_Node000001_Node000005" class="edge">
<title>Node1&#45;&gt;Node5</title>
<g id="a_edge4_Node000001_Node000005"><a xlink:title=" ">
<path fill="none" stroke="#63b8ff" d="M140.23,-109.49C155.74,-105.45 172.19,-101.17 187.65,-97.15"/>
<polygon fill="#63b8ff" stroke="#63b8ff" points="188.85,-100.46 197.65,-94.55 187.09,-93.68 188.85,-100.46"/>
</a>
</g>
</g>
<!-- Node3 -->
<g id="Node000003" class="node">
<title>Node3</title>
<g id="a_Node000003"><a xlink:href="classwmtk_1_1dart_1_1_simplex_dart.html#a75defb2c9d167b36c7fc73cd7d5bba60" target="_top" xlink:title=" ">
<polygon fill="white" stroke="#666666" points="548.5,-166.5 411.5,-166.5 411.5,-136.5 548.5,-136.5 548.5,-166.5"/>
<text text-anchor="start" x="419.5" y="-154.5" font-family="Helvetica,sans-Serif" font-size="10.00">wmtk::dart::SimplexDart</text>
<text text-anchor="middle" x="480" y="-143.5" font-family="Helvetica,sans-Serif" font-size="10.00">::simplex_type</text>
</a>
</g>
</g>
<!-- Node2&#45;&gt;Node3 -->
<g id="edge2_Node000002_Node000003" class="edge">
<title>Node2&#45;&gt;Node3</title>
<g id="a_edge2_Node000002_Node000003"><a xlink:title=" ">
<path fill="none" stroke="#63b8ff" d="M325.16,-168.17C349.2,-165.56 376.45,-162.61 401.27,-159.92"/>
<polygon fill="#63b8ff" stroke="#63b8ff" points="401.81,-163.38 411.37,-158.83 401.05,-156.43 401.81,-163.38"/>
</a>
</g>
</g>
<!-- Node5&#45;&gt;Node3 -->
<g id="edge12_Node000005_Node000003" class="edge">
<title>Node5&#45;&gt;Node3</title>
<g id="a_edge12_Node000005_Node000003"><a xlink:title=" ">
<path fill="none" stroke="#63b8ff" d="M308.47,-94.62C317.97,-97.51 327.8,-100.56 337,-103.5 366.58,-112.96 399.44,-124.03 426.1,-133.16"/>
<polygon fill="#63b8ff" stroke="#63b8ff" points="425.02,-136.49 435.62,-136.42 427.3,-129.87 425.02,-136.49"/>
</a>
</g>
</g>
<!-- Node6 -->
<g id="Node000006" class="node">
<title>Node6</title>
<g id="a_Node000006"><a xlink:href="namespacewmtk_1_1dart_1_1utils.html#a372b3dc51045664821dc4d31392c4e29" target="_top" xlink:title=" ">
<polygon fill="white" stroke="#666666" points="587,-94.5 373,-94.5 373,-64.5 587,-64.5 587,-94.5"/>
<text text-anchor="start" x="381" y="-82.5" font-family="Helvetica,sans-Serif" font-size="10.00">wmtk::dart::utils::</text>
<text text-anchor="middle" x="480" y="-71.5" font-family="Helvetica,sans-Serif" font-size="10.00">simplex_index_from_permutation_index</text>
</a>
</g>
</g>
<!-- Node5&#45;&gt;Node6 -->
<g id="edge5_Node000005_Node000006" class="edge">
<title>Node5&#45;&gt;Node6</title>
<g id="a_edge5_Node000005_Node000006"><a xlink:title=" ">
<path fill="none" stroke="#63b8ff" d="M325.16,-79.5C337.11,-79.5 349.85,-79.5 362.68,-79.5"/>
<polygon fill="#63b8ff" stroke="#63b8ff" points="362.99,-83 372.99,-79.5 362.99,-76 362.99,-83"/>
</a>
</g>
</g>
<!-- Node7 -->
<g id="Node000007" class="node">
<title>Node7</title>
<g id="a_Node000007"><a xlink:href="namespacewmtk_1_1autogen_1_1edge__mesh.html#a2da4fb815ae0466a1d5556d42f2666fd" target="_top" xlink:title=" ">
<polygon fill="white" stroke="#666666" points="766,-159 623,-159 623,-118 766,-118 766,-159"/>
<text text-anchor="start" x="631" y="-147" font-family="Helvetica,sans-Serif" font-size="10.00">wmtk::autogen::edge</text>
<text text-anchor="start" x="631" y="-136" font-family="Helvetica,sans-Serif" font-size="10.00">_mesh::simplex_index</text>
<text text-anchor="middle" x="694.5" y="-125" font-family="Helvetica,sans-Serif" font-size="10.00">_from_permutation_index</text>
</a>
</g>
</g>
<!-- Node6&#45;&gt;Node7 -->
<g id="edge6_Node000006_Node000007" class="edge">
<title>Node6&#45;&gt;Node7</title>
<g id="a_edge6_Node000006_Node000007"><a xlink:title=" ">
<path fill="none" stroke="#63b8ff" d="M535.17,-94.54C558.83,-101.11 587.07,-108.95 613.11,-116.18"/>
<polygon fill="#63b8ff" stroke="#63b8ff" points="612.39,-119.61 622.96,-118.92 614.26,-112.87 612.39,-119.61"/>
</a>
</g>
</g>
<!-- Node9 -->
<g id="Node000009" class="node">
<title>Node9</title>
<g id="a_Node000009"><a xlink:href="namespacewmtk_1_1autogen_1_1tet__mesh.html#a944e21208e52e1e4ae1b53c7382a288c" target="_top" xlink:title=" ">
<polygon fill="white" stroke="#666666" points="766,-100 623,-100 623,-59 766,-59 766,-100"/>
<text text-anchor="start" x="631" y="-88" font-family="Helvetica,sans-Serif" font-size="10.00">wmtk::autogen::tet</text>
<text text-anchor="start" x="631" y="-77" font-family="Helvetica,sans-Serif" font-size="10.00">_mesh::simplex_index</text>
<text text-anchor="middle" x="694.5" y="-66" font-family="Helvetica,sans-Serif" font-size="10.00">_from_permutation_index</text>
</a>
</g>
</g>
<!-- Node6&#45;&gt;Node9 -->
<g id="edge8_Node000006_Node000009" class="edge">
<title>Node6&#45;&gt;Node9</title>
<g id="a_edge8_Node000006_Node000009"><a xlink:title=" ">
<path fill="none" stroke="#63b8ff" d="M587.25,-79.5C595.81,-79.5 604.36,-79.5 612.7,-79.5"/>
<polygon fill="#63b8ff" stroke="#63b8ff" points="612.74,-83 622.74,-79.5 612.74,-76 612.74,-83"/>
</a>
</g>
</g>
<!-- Node10 -->
<g id="Node000010" class="node">
<title>Node10</title>
<g id="a_Node000010"><a xlink:href="namespacewmtk_1_1autogen_1_1tri__mesh.html#a2925b59cc22704e2365313840b016cb7" target="_top" xlink:title=" ">
<polygon fill="white" stroke="#666666" points="766,-41 623,-41 623,0 766,0 766,-41"/>
<text text-anchor="start" x="631" y="-29" font-family="Helvetica,sans-Serif" font-size="10.00">wmtk::autogen::tri</text>
<text text-anchor="start" x="631" y="-18" font-family="Helvetica,sans-Serif" font-size="10.00">_mesh::simplex_index</text>
<text text-anchor="middle" x="694.5" y="-7" font-family="Helvetica,sans-Serif" font-size="10.00">_from_permutation_index</text>
</a>
</g>
</g>
<!-- Node6&#45;&gt;Node10 -->
<g id="edge10_Node000006_Node000010" class="edge">
<title>Node6&#45;&gt;Node10</title>
<g id="a_edge10_Node000006_Node000010"><a xlink:title=" ">
<path fill="none" stroke="#63b8ff" d="M535.17,-64.46C558.83,-57.89 587.07,-50.05 613.11,-42.82"/>
<polygon fill="#63b8ff" stroke="#63b8ff" points="614.26,-46.13 622.96,-40.08 612.39,-39.39 614.26,-46.13"/>
</a>
</g>
</g>
<!-- Node8 -->
<g id="Node000008" class="node">
<title>Node8</title>
<g id="a_Node000008"><a xlink:href="namespacewmtk.html#a5cf45c152e856196bb734c6f48919a24" target="_top" xlink:title="Get a unique integer id corresponding to each primitive type.">
<polygon fill="white" stroke="#666666" points="918,-94.5 802,-94.5 802,-64.5 918,-64.5 918,-94.5"/>
<text text-anchor="start" x="810" y="-82.5" font-family="Helvetica,sans-Serif" font-size="10.00">wmtk::get_primitive</text>
<text text-anchor="middle" x="860" y="-71.5" font-family="Helvetica,sans-Serif" font-size="10.00">_type_id</text>
</a>
</g>
</g>
<!-- Node7&#45;&gt;Node8 -->
<g id="edge7_Node000007_Node000008" class="edge">
<title>Node7&#45;&gt;Node8</title>
<g id="a_edge7_Node000007_Node000008"><a xlink:title=" ">
<path fill="none" stroke="#63b8ff" d="M752.68,-117.86C770.63,-111.39 790.32,-104.28 807.83,-97.97"/>
<polygon fill="#63b8ff" stroke="#63b8ff" points="809.08,-101.23 817.3,-94.55 806.71,-94.65 809.08,-101.23"/>
</a>
</g>
</g>
<!-- Node9&#45;&gt;Node8 -->
<g id="edge9_Node000009_Node000008" class="edge">
<title>Node9&#45;&gt;Node8</title>
<g id="a_edge9_Node000009_Node000008"><a xlink:title=" ">
<path fill="none" stroke="#63b8ff" d="M766.26,-79.5C774.73,-79.5 783.36,-79.5 791.77,-79.5"/>
<polygon fill="#63b8ff" stroke="#63b8ff" points="791.91,-83 801.91,-79.5 791.91,-76 791.91,-83"/>
</a>
</g>
</g>
<!-- Node10&#45;&gt;Node8 -->
<g id="edge11_Node000010_Node000008" class="edge">
<title>Node10&#45;&gt;Node8</title>
<g id="a_edge11_Node000010_Node000008"><a xlink:title=" ">
<path fill="none" stroke="#63b8ff" d="M752.68,-41.14C770.63,-47.61 790.32,-54.72 807.83,-61.03"/>
<polygon fill="#63b8ff" stroke="#63b8ff" points="806.71,-64.35 817.3,-64.45 809.08,-57.77 806.71,-64.35"/>
</a>
</g>
</g>
</g>
</svg>

<g id="navigator" transform="translate(0 0)" fill="#404254">
  <rect fill="#f2f5e9" fill-opacity="0.5" stroke="#606060" stroke-width=".5" x="0" y="0" width="60" height="60"/>
  <use id="zoomplus" xlink:href="#zoomPlus" x="17" y="9" onmousedown="handleZoom(evt,'in')"/>
  <use id="zoomminus" xlink:href="#zoomMin" x="42" y="9" onmousedown="handleZoom(evt,'out')"/>
  <use id="reset" xlink:href="#resetDef" x="30" y="36" onmousedown="handleReset()"/>
   <use id="arrowup" xlink:href="#arrowUp" x="0" y="0" onmousedown="handlePan(0,-1)"/>
  <use id="arrowright" xlink:href="#arrowRight" x="0" y="0" onmousedown="handlePan(1,0)"/>
  <use id="arrowdown" xlink:href="#arrowDown" x="0" y="0" onmousedown="handlePan(0,1)"/>
  <use id="arrowleft" xlink:href="#arrowLeft" x="0" y="0" onmousedown="handlePan(-1,0)"/>
</g>
<svg viewBox="0 0 15 15" width="100%" height="30px" preserveAspectRatio="xMaxYMin meet">
 <g id="arrow_out" transform="scale(0.3 0.3)">
  <a xlink:href="classwmtk_1_1dart_1_1_dart_topology_accessor_a9b2ae233ce769195d539dea00eee6d17_cgraph_org.svg" target="_base">
   <rect id="button" ry="5" rx="5" y="6" x="6" height="38" width="38"
        fill="#f2f5e9" fill-opacity="0.5" stroke="#606060" stroke-width="1.0"/>
   <path id="arrow"
     d="M 11.500037,31.436501 C 11.940474,20.09759 22.043105,11.32322 32.158766,21.979434 L 37.068811,17.246167 C 37.068811,17.246167 37.088388,32 37.088388,32 L 22.160133,31.978069 C 22.160133,31.978069 26.997745,27.140456 26.997745,27.140456 C 18.528582,18.264221 13.291696,25.230495 11.500037,31.436501 z"
     style="fill:#404040;"/>
  </a>
 </g>
</svg>

<style type='text/css'>
<![CDATA[
[data-mouse-over-selected='false'] { opacity: 0.7; }
[data-mouse-over-selected='true']  { opacity: 1.0; }
]]>
</style>
<script type="application/ecmascript"><![CDATA[
document.addEventListener('DOMContentLoaded', (event) => {
  highlightEdges();
  highlightAdjacentNodes();
});
]]></script>
</svg>
