<?xml version="1.0" encoding="UTF-8" standalone="no"?>
<!DOCTYPE svg PUBLIC "-//W3C//DTD SVG 1.1//EN"
 "http://www.w3.org/Graphics/SVG/1.1/DTD/svg11.dtd">
<!-- Generated by graphviz version 2.43.0 (0)
 -->
<!-- Title: wmtk::TriMesh::switch_tuple Pages: 1 -->
<!--zoomable 707 -->

<svg id="main" version="1.1" xmlns="http://www.w3.org/2000/svg" xmlns:xlink="http://www.w3.org/1999/xlink" xml:space="preserve" onload="init(evt)">
<style type="text/css"><![CDATA[
.node, .edge {opacity: 0.7;}
.node.selected, .edge.selected {opacity: 1;}
.edge:hover path { stroke: red; }
.edge:hover polygon { stroke: red; fill: red; }
]]></style>

<defs>
  <circle id="rim" cx="0" cy="0" r="7"/>
  <circle id="rim2" cx="0" cy="0" r="3.5"/>
  <g id="zoomPlus">
    <use xlink:href="#rim" fill="#404040"><set attributeName="fill" to="#808080" begin="zoomplus.mouseover" end="zoomplus.mouseout"/></use>
    <path d="M-4,0h8M0,-4v8" fill="none" stroke="white" stroke-width="1.5" pointer-events="none"/>
  </g>
  <g id="zoomMin">
    <use xlink:href="#rim" fill="#404040"><set attributeName="fill" to="#808080" begin="zoomminus.mouseover" end="zoomminus.mouseout"/></use>
    <path d="M-4,0h8" fill="none" stroke="white" stroke-width="1.5" pointer-events="none"/>
  </g>
  <g id="arrowUp" transform="translate(30 24)">
    <use xlink:href="#rim"/>
    <path pointer-events="none" fill="none" stroke="white" stroke-width="1.5" d="M0,-3.0v7 M-2.5,-0.5L0,-3.0L2.5,-0.5"/>
  </g>
  <g id="arrowRight" transform="rotate(90) translate(36 -43)">
    <use xlink:href="#rim"/>
    <path pointer-events="none" fill="none" stroke="white" stroke-width="1.5" d="M0,-3.0v7 M-2.5,-0.5L0,-3.0L2.5,-0.5"/>
  </g>
  <g id="arrowDown" transform="rotate(180) translate(-30 -48)">
    <use xlink:href="#rim"/>
    <path pointer-events="none" fill="none" stroke="white" stroke-width="1.5" d="M0,-3.0v7 M-2.5,-0.5L0,-3.0L2.5,-0.5"/>
  </g>
  <g id="arrowLeft" transform="rotate(270) translate(-36 17)">
    <use xlink:href="#rim"/>
    <path pointer-events="none" fill="none" stroke="white" stroke-width="1.5" d="M0,-3.0v7 M-2.5,-0.5L0,-3.0L2.5,-0.5"/>
  </g>
  <g id="resetDef">
    <use xlink:href="#rim2" fill="#404040"><set attributeName="fill" to="#808080" begin="reset.mouseover" end="reset.mouseout"/></use>
  </g>
</defs>
<script type="application/ecmascript">
var viewWidth = 1290;
var viewHeight = 707;
var sectionId = 'dynsection-37';
</script>
<script type="application/ecmascript" xlink:href="svg.min.js"/>
<svg id="graph" class="graph">
<g id="viewport">
<title>wmtk::TriMesh::switch_tuple</title>
<!-- Node1 -->
<g id="Node000001" class="node">
<title>Node1</title>
<g id="a_Node000001"><a xlink:title="switch the orientation of the Tuple of the given dimension">
<polygon fill="#999999" stroke="#666666" points="125,-372.26 0,-372.26 0,-342.26 125,-342.26 125,-372.26"/>
<text text-anchor="start" x="8" y="-360.26" font-family="Helvetica,sans-Serif" font-size="10.00">wmtk::TriMesh::switch</text>
<text text-anchor="middle" x="62.5" y="-349.26" font-family="Helvetica,sans-Serif" font-size="10.00">_tuple</text>
</a>
</g>
</g>
<!-- Node2 -->
<g id="Node000002" class="node">
<title>Node2</title>
<g id="a_Node000002"><a xlink:href="classwmtk_1_1_tri_mesh.html#a9975c25ed665c9c9a7f1ae92818a1b7c" target="_top" xlink:title=" ">
<polygon fill="white" stroke="#666666" points="459,-494.76 356,-494.76 356,-475.76 459,-475.76 459,-494.76"/>
<text text-anchor="middle" x="407.5" y="-482.76" font-family="Helvetica,sans-Serif" font-size="10.00">wmtk::TriMesh::id</text>
</a>
</g>
</g>
<!-- Node1&#45;&gt;Node2 -->
<g id="edge1_Node000001_Node000002" class="edge">
<title>Node1&#45;&gt;Node2</title>
<g id="a_edge1_Node000001_Node000002"><a xlink:title=" ">
<path fill="none" stroke="#63b8ff" d="M102.85,-372.27C120.6,-379.03 141.84,-387.08 161,-394.26 235.5,-422.21 322.9,-454.48 370.73,-472.1"/>
<polygon fill="#63b8ff" stroke="#63b8ff" points="369.72,-475.46 380.32,-475.63 372.14,-468.89 369.72,-475.46"/>
</a>
</g>
</g>
<!-- Node6 -->
<g id="Node000006" class="node">
<title>Node6</title>
<g id="a_Node000006"><a xlink:href="classwmtk_1_1_tri_mesh.html#accbde91fccacdfdfd997e20d9ee9eb22" target="_top" xlink:title="returns if a tuple is counterclockwise or not">
<polygon fill="white" stroke="#666666" points="296.5,-385.76 170.5,-385.76 170.5,-366.76 296.5,-366.76 296.5,-385.76"/>
<text text-anchor="middle" x="233.5" y="-373.76" font-family="Helvetica,sans-Serif" font-size="10.00">wmtk::TriMesh::is_ccw</text>
</a>
</g>
</g>
<!-- Node1&#45;&gt;Node6 -->
<g id="edge6_Node000001_Node000006" class="edge">
<title>Node1&#45;&gt;Node6</title>
<g id="a_edge6_Node000001_Node000006"><a xlink:title=" ">
<path fill="none" stroke="#63b8ff" d="M125.47,-364.23C136.76,-365.5 148.64,-366.83 160.2,-368.13"/>
<polygon fill="#63b8ff" stroke="#63b8ff" points="159.93,-371.62 170.26,-369.26 160.71,-364.67 159.93,-371.62"/>
</a>
</g>
</g>
<!-- Node12 -->
<g id="Node000012" class="node">
<title>Node12</title>
<g id="a_Node000012"><a xlink:href="classwmtk_1_1_tri_mesh.html#a611704f60f24669e957325c7cb79f200" target="_top" xlink:title="check validity of tuple including its hash">
<polygon fill="white" stroke="#666666" points="473,-347.76 342,-347.76 342,-328.76 473,-328.76 473,-347.76"/>
<text text-anchor="middle" x="407.5" y="-335.76" font-family="Helvetica,sans-Serif" font-size="10.00">wmtk::TriMesh::is_valid</text>
</a>
</g>
</g>
<!-- Node1&#45;&gt;Node12 -->
<g id="edge45_Node000001_Node000012" class="edge">
<title>Node1&#45;&gt;Node12</title>
<g id="a_edge45_Node000001_Node000012"><a xlink:title=" ">
<path fill="none" stroke="#63b8ff" d="M125.22,-353.84C183.13,-350.63 269.87,-345.83 331.7,-342.41"/>
<polygon fill="#63b8ff" stroke="#63b8ff" points="331.99,-345.89 341.78,-341.85 331.6,-338.91 331.99,-345.89"/>
</a>
</g>
</g>
<!-- Node33 -->
<g id="Node000033" class="node">
<title>Node33</title>
<g id="a_Node000033"><a xlink:href="namespacewmtk_1_1autogen_1_1tri__mesh.html#a91e6b348f528d93ad6d9031bae1480da" target="_top" xlink:title=" ">
<polygon fill="white" stroke="#666666" points="306,-634.26 161,-634.26 161,-604.26 306,-604.26 306,-634.26"/>
<text text-anchor="start" x="169" y="-622.26" font-family="Helvetica,sans-Serif" font-size="10.00">wmtk::autogen::tri</text>
<text text-anchor="middle" x="233.5" y="-611.26" font-family="Helvetica,sans-Serif" font-size="10.00">_mesh::local_switch_tuple</text>
</a>
</g>
</g>
<!-- Node1&#45;&gt;Node33 -->
<g id="edge46_Node000001_Node000033" class="edge">
<title>Node1&#45;&gt;Node33</title>
<g id="a_edge46_Node000001_Node000033"><a xlink:title=" ">
<path fill="none" stroke="#63b8ff" d="M73.32,-372.48C101.55,-416.25 183.13,-542.73 217.23,-595.6"/>
<polygon fill="#63b8ff" stroke="#63b8ff" points="214.29,-597.49 222.66,-604 220.18,-593.7 214.29,-597.49"/>
</a>
</g>
</g>
<!-- Node3 -->
<g id="Node000003" class="node">
<title>Node3</title>
<g id="a_Node000003"><a xlink:href="classwmtk_1_1_mesh.html#a8cc8686f0688613806f43720b6db49e7" target="_top" xlink:title="check validity of tuple including its hash">
<polygon fill="white" stroke="#666666" points="652.5,-499.76 532.5,-499.76 532.5,-480.76 652.5,-480.76 652.5,-499.76"/>
<text text-anchor="middle" x="592.5" y="-487.76" font-family="Helvetica,sans-Serif" font-size="10.00">wmtk::Mesh::is_valid</text>
</a>
</g>
</g>
<!-- Node2&#45;&gt;Node3 -->
<g id="edge2_Node000002_Node000003" class="edge">
<title>Node2&#45;&gt;Node3</title>
<g id="a_edge2_Node000002_Node000003"><a xlink:title=" ">
<path fill="none" stroke="#63b8ff" d="M459.48,-486.65C478.93,-487.19 501.44,-487.8 522.3,-488.37"/>
<polygon fill="#63b8ff" stroke="#63b8ff" points="522.3,-491.87 532.39,-488.65 522.49,-484.87 522.3,-491.87"/>
</a>
</g>
</g>
<!-- Node4 -->
<g id="Node000004" class="node">
<title>Node4</title>
<g id="a_Node000004"><a xlink:href="classwmtk_1_1_tuple.html#a0023f575be92cd5ceeeaaaa3762ea06d" target="_top" xlink:title="Checks if a tuple is &quot;null&quot;. This merely implies the global index is &#45;1.">
<polygon fill="white" stroke="#666666" points="850,-621.76 737,-621.76 737,-602.76 850,-602.76 850,-621.76"/>
<text text-anchor="middle" x="793.5" y="-609.76" font-family="Helvetica,sans-Serif" font-size="10.00">wmtk::Tuple::is_null</text>
</a>
</g>
</g>
<!-- Node3&#45;&gt;Node4 -->
<g id="edge3_Node000003_Node000004" class="edge">
<title>Node3&#45;&gt;Node4</title>
<g id="a_edge3_Node000003_Node000004"><a xlink:title=" ">
<path fill="none" stroke="#63b8ff" d="M612.61,-499.84C630.31,-509.3 656.73,-524.99 676,-543.26 695.87,-562.1 689.24,-578.04 712,-593.26 716.63,-596.35 721.7,-598.95 726.97,-601.12"/>
<polygon fill="#63b8ff" stroke="#63b8ff" points="726.04,-604.5 736.63,-604.59 728.4,-597.91 726.04,-604.5"/>
</a>
</g>
</g>
<!-- Node5 -->
<g id="Node000005" class="node">
<title>Node5</title>
<g id="a_Node000005"><a xlink:href="classwmtk_1_1_mesh.html#ade176d345902d97af8c5da04aa3a095b" target="_top" xlink:title=" ">
<polygon fill="white" stroke="#666666" points="863.5,-566.76 723.5,-566.76 723.5,-547.76 863.5,-547.76 863.5,-566.76"/>
<text text-anchor="middle" x="793.5" y="-554.76" font-family="Helvetica,sans-Serif" font-size="10.00">wmtk::Mesh::is_removed</text>
</a>
</g>
</g>
<!-- Node3&#45;&gt;Node5 -->
<g id="edge4_Node000003_Node000005" class="edge">
<title>Node3&#45;&gt;Node5</title>
<g id="a_edge4_Node000003_Node000005"><a xlink:title=" ">
<path fill="none" stroke="#63b8ff" d="M618.78,-499.92C642.67,-508.93 679.58,-522.56 712,-533.26 723.9,-537.19 736.88,-541.19 748.88,-544.76"/>
<polygon fill="#63b8ff" stroke="#63b8ff" points="748.1,-548.18 758.68,-547.66 750.08,-541.47 748.1,-548.18"/>
</a>
</g>
</g>
<!-- Node5&#45;&gt;Node5 -->
<g id="edge5_Node000005_Node000005" class="edge">
<title>Node5&#45;&gt;Node5</title>
<g id="a_edge5_Node000005_Node000005"><a xlink:title=" ">
<path fill="none" stroke="#63b8ff" d="M763.6,-566.84C749.05,-575.5 759.02,-584.76 793.5,-584.76 817.21,-584.76 829.32,-580.38 829.86,-574.83"/>
<polygon fill="#63b8ff" stroke="#63b8ff" points="832.41,-572.42 823.4,-566.84 826.96,-576.82 832.41,-572.42"/>
</a>
</g>
</g>
<!-- Node7 -->
<g id="Node000007" class="node">
<title>Node7</title>
<g id="a_Node000007"><a xlink:href="namespacewmtk_1_1autogen_1_1tri__mesh.html#aaab85f5120a223c29bae0881cd7f2c87" target="_top" xlink:title=" ">
<polygon fill="white" stroke="#666666" points="461,-588.26 354,-588.26 354,-558.26 461,-558.26 461,-588.26"/>
<text text-anchor="start" x="362" y="-576.26" font-family="Helvetica,sans-Serif" font-size="10.00">wmtk::autogen::tri</text>
<text text-anchor="middle" x="407.5" y="-565.26" font-family="Helvetica,sans-Serif" font-size="10.00">_mesh::is_ccw</text>
</a>
</g>
</g>
<!-- Node6&#45;&gt;Node7 -->
<g id="edge7_Node000006_Node000007" class="edge">
<title>Node6&#45;&gt;Node7</title>
<g id="a_edge7_Node000006_Node000007"><a xlink:title=" ">
<path fill="none" stroke="#63b8ff" d="M242.46,-385.94C260.1,-407.33 303.95,-460.18 342,-503.26 356.17,-519.31 372.52,-537.05 385.22,-550.65"/>
<polygon fill="#63b8ff" stroke="#63b8ff" points="382.83,-553.23 392.22,-558.14 387.94,-548.44 382.83,-553.23"/>
</a>
</g>
</g>
<!-- Node6&#45;&gt;Node12 -->
<g id="edge14_Node000006_Node000012" class="edge">
<title>Node6&#45;&gt;Node12</title>
<g id="a_edge14_Node000006_Node000012"><a xlink:title=" ">
<path fill="none" stroke="#63b8ff" d="M277.9,-366.67C300.91,-361.59 329.35,-355.31 353.63,-349.94"/>
<polygon fill="#63b8ff" stroke="#63b8ff" points="354.4,-353.36 363.41,-347.78 352.89,-346.52 354.4,-353.36"/>
</a>
</g>
</g>
<!-- Node8 -->
<g id="Node000008" class="node">
<title>Node8</title>
<g id="a_Node000008"><a xlink:href="namespacewmtk_1_1autogen_1_1tri__mesh.html#a1c9b651c47ee993e160a8dca570cf35c" target="_top" xlink:title=" ">
<polygon fill="white" stroke="#666666" points="854.5,-680.76 732.5,-680.76 732.5,-639.76 854.5,-639.76 854.5,-680.76"/>
<text text-anchor="start" x="740.5" y="-668.76" font-family="Helvetica,sans-Serif" font-size="10.00">wmtk::autogen::tri</text>
<text text-anchor="start" x="740.5" y="-657.76" font-family="Helvetica,sans-Serif" font-size="10.00">_mesh::local_id_table</text>
<text text-anchor="middle" x="793.5" y="-646.76" font-family="Helvetica,sans-Serif" font-size="10.00">_offset</text>
</a>
</g>
</g>
<!-- Node7&#45;&gt;Node8 -->
<g id="edge8_Node000007_Node000008" class="edge">
<title>Node7&#45;&gt;Node8</title>
<g id="a_edge8_Node000007_Node000008"><a xlink:title=" ">
<path fill="none" stroke="#63b8ff" d="M457.62,-588.28C473.9,-593.03 492.16,-598.12 509,-602.26 581.25,-620.05 664.79,-636.67 722.38,-647.52"/>
<polygon fill="#63b8ff" stroke="#63b8ff" points="721.99,-651 732.46,-649.41 723.28,-644.12 721.99,-651"/>
</a>
</g>
</g>
<!-- Node11 -->
<g id="Node000011" class="node">
<title>Node11</title>
<g id="a_Node000011"><a xlink:href="namespacewmtk_1_1autogen_1_1tri__mesh.html#a786155d6d2270c482ffd6a96d3211867" target="_top" xlink:title=" ">
<polygon fill="white" stroke="#666666" points="653.5,-593.76 531.5,-593.76 531.5,-552.76 653.5,-552.76 653.5,-593.76"/>
<text text-anchor="start" x="539.5" y="-581.76" font-family="Helvetica,sans-Serif" font-size="10.00">wmtk::autogen::tri</text>
<text text-anchor="start" x="539.5" y="-570.76" font-family="Helvetica,sans-Serif" font-size="10.00">_mesh::tuple_is_valid</text>
<text text-anchor="middle" x="592.5" y="-559.76" font-family="Helvetica,sans-Serif" font-size="10.00">_for_ccw</text>
</a>
</g>
</g>
<!-- Node7&#45;&gt;Node11 -->
<g id="edge11_Node000007_Node000011" class="edge">
<title>Node7&#45;&gt;Node11</title>
<g id="a_edge11_Node000007_Node000011"><a xlink:title=" ">
<path fill="none" stroke="#63b8ff" d="M461.43,-573.26C480.04,-573.26 501.25,-573.26 521.07,-573.26"/>
<polygon fill="#63b8ff" stroke="#63b8ff" points="521.28,-576.76 531.28,-573.26 521.28,-569.76 521.28,-576.76"/>
</a>
</g>
</g>
<!-- Node9 -->
<g id="Node000009" class="node">
<title>Node9</title>
<g id="a_Node000009"><a xlink:href="classwmtk_1_1utils_1_1_tuple_inspector.html#a3a04acf16e0eff80ade8e0fb8753ac1b" target="_top" xlink:title=" ">
<polygon fill="white" stroke="#666666" points="1061.5,-699.26 913.5,-699.26 913.5,-669.26 1061.5,-669.26 1061.5,-699.26"/>
<text text-anchor="start" x="921.5" y="-687.26" font-family="Helvetica,sans-Serif" font-size="10.00">wmtk::utils::TupleInspector</text>
<text text-anchor="middle" x="987.5" y="-676.26" font-family="Helvetica,sans-Serif" font-size="10.00">::local_eid</text>
</a>
</g>
</g>
<!-- Node8&#45;&gt;Node9 -->
<g id="edge9_Node000008_Node000009" class="edge">
<title>Node8&#45;&gt;Node9</title>
<g id="a_edge9_Node000008_Node000009"><a xlink:title=" ">
<path fill="none" stroke="#63b8ff" d="M854.72,-667.79C870.11,-669.71 886.94,-671.82 903.26,-673.86"/>
<polygon fill="#63b8ff" stroke="#63b8ff" points="902.98,-677.35 913.34,-675.12 903.85,-670.4 902.98,-677.35"/>
</a>
</g>
</g>
<!-- Node10 -->
<g id="Node000010" class="node">
<title>Node10</title>
<g id="a_Node000010"><a xlink:href="classwmtk_1_1utils_1_1_tuple_inspector.html#a92f5faa08a7f78424f5cd1ec79dcedbb" target="_top" xlink:title=" ">
<polygon fill="white" stroke="#666666" points="1061.5,-651.26 913.5,-651.26 913.5,-621.26 1061.5,-621.26 1061.5,-651.26"/>
<text text-anchor="start" x="921.5" y="-639.26" font-family="Helvetica,sans-Serif" font-size="10.00">wmtk::utils::TupleInspector</text>
<text text-anchor="middle" x="987.5" y="-628.26" font-family="Helvetica,sans-Serif" font-size="10.00">::local_vid</text>
</a>
</g>
</g>
<!-- Node8&#45;&gt;Node10 -->
<g id="edge10_Node000008_Node000010" class="edge">
<title>Node8&#45;&gt;Node10</title>
<g id="a_edge10_Node000008_Node000010"><a xlink:title=" ">
<path fill="none" stroke="#63b8ff" d="M854.72,-652.73C870.11,-650.81 886.94,-648.71 903.26,-646.67"/>
<polygon fill="#63b8ff" stroke="#63b8ff" points="903.85,-650.12 913.34,-645.41 902.98,-643.17 903.85,-650.12"/>
</a>
</g>
</g>
<!-- Node11&#45;&gt;Node4 -->
<g id="edge12_Node000011_Node000004" class="edge">
<title>Node11&#45;&gt;Node4</title>
<g id="a_edge12_Node000011_Node000004"><a xlink:title=" ">
<path fill="none" stroke="#63b8ff" d="M653.75,-585.07C679.2,-590.06 708.73,-595.84 733.99,-600.79"/>
<polygon fill="#63b8ff" stroke="#63b8ff" points="733.31,-604.23 743.8,-602.72 734.66,-597.36 733.31,-604.23"/>
</a>
</g>
</g>
<!-- Node11&#45;&gt;Node8 -->
<g id="edge13_Node000011_Node000008" class="edge">
<title>Node11&#45;&gt;Node8</title>
<g id="a_edge13_Node000011_Node000008"><a xlink:title=" ">
<path fill="none" stroke="#63b8ff" d="M645.61,-593.8C655.83,-598.27 666.36,-603.19 676,-608.26 692.8,-617.11 694.96,-622.88 712,-631.26 715.5,-632.98 719.13,-634.66 722.82,-636.27"/>
<polygon fill="#63b8ff" stroke="#63b8ff" points="721.53,-639.53 732.1,-640.17 724.24,-633.07 721.53,-639.53"/>
</a>
</g>
</g>
<!-- Node12&#45;&gt;Node3 -->
<g id="edge42_Node000012_Node000003" class="edge">
<title>Node12&#45;&gt;Node3</title>
<g id="a_edge42_Node000012_Node000003"><a xlink:title=" ">
<path fill="none" stroke="#63b8ff" d="M419.95,-347.77C450.5,-373.15 534.23,-442.69 572.26,-474.28"/>
<polygon fill="#63b8ff" stroke="#63b8ff" points="570.13,-477.06 580.06,-480.76 574.6,-471.68 570.13,-477.06"/>
</a>
</g>
</g>
<!-- Node12&#45;&gt;Node11 -->
<g id="edge44_Node000012_Node000011" class="edge">
<title>Node12&#45;&gt;Node11</title>
<g id="a_edge44_Node000012_Node000011"><a xlink:title=" ">
<path fill="none" stroke="#63b8ff" d="M412.65,-347.89C424.69,-375.15 461.82,-454.33 509,-508.26 521.34,-522.37 537.08,-535.63 551.49,-546.45"/>
<polygon fill="#63b8ff" stroke="#63b8ff" points="549.66,-549.44 559.79,-552.53 553.79,-543.8 549.66,-549.44"/>
</a>
</g>
</g>
<!-- Node13 -->
<g id="Node000013" class="node">
<title>Node13</title>
<g id="a_Node000013"><a xlink:href="classwmtk_1_1_tri_mesh.html#a6375662ccb85d7c8868b3c76d708bae5" target="_top" xlink:title=" ">
<polygon fill="white" stroke="#666666" points="676,-344.26 509,-344.26 509,-314.26 676,-314.26 676,-344.26"/>
<text text-anchor="start" x="517" y="-332.26" font-family="Helvetica,sans-Serif" font-size="10.00">wmtk::TriMesh::is_connectivity</text>
<text text-anchor="middle" x="592.5" y="-321.26" font-family="Helvetica,sans-Serif" font-size="10.00">_valid</text>
</a>
</g>
</g>
<!-- Node12&#45;&gt;Node13 -->
<g id="edge15_Node000012_Node000013" class="edge">
<title>Node12&#45;&gt;Node13</title>
<g id="a_edge15_Node000012_Node000013"><a xlink:title=" ">
<path fill="none" stroke="#63b8ff" d="M473.02,-335.09C481.38,-334.68 490.06,-334.25 498.77,-333.82"/>
<polygon fill="#63b8ff" stroke="#63b8ff" points="499.15,-337.31 508.97,-333.32 498.81,-330.32 499.15,-337.31"/>
</a>
</g>
</g>
<!-- Node31 -->
<g id="Node000031" class="node">
<title>Node31</title>
<g id="a_Node000031"><a xlink:href="namespacewmtk.html#a6a35f11c12436093d26fdd8be6fecc06" target="_top" xlink:title="Retrieves the current logger.">
<polygon fill="white" stroke="#666666" points="834,-134.76 753,-134.76 753,-115.76 834,-115.76 834,-134.76"/>
<text text-anchor="middle" x="793.5" y="-122.76" font-family="Helvetica,sans-Serif" font-size="10.00">wmtk::logger</text>
</a>
</g>
</g>
<!-- Node12&#45;&gt;Node31 -->
<g id="edge43_Node000012_Node000031" class="edge">
<title>Node12&#45;&gt;Node31</title>
<g id="a_edge43_Node000012_Node000031"><a xlink:title=" ">
<path fill="none" stroke="#63b8ff" d="M410.28,-328.66C416.75,-296.67 442.31,-193.27 509,-149.26 579.54,-102.71 682.43,-107.67 742.92,-116.07"/>
<polygon fill="#63b8ff" stroke="#63b8ff" points="742.57,-119.56 752.97,-117.56 743.59,-112.63 742.57,-119.56"/>
</a>
</g>
</g>
<!-- Node14 -->
<g id="Node000014" class="node">
<title>Node14</title>
<g id="a_Node000014"><a xlink:href="classwmtk_1_1_mesh.html#a3e8ff83c4a5526a40d18bb9883c6c6c9" target="_top" xlink:title="read in the m_capacities return the upper bound for the number of entities of the given dimension">
<polygon fill="white" stroke="#666666" points="1049.5,-248.76 925.5,-248.76 925.5,-229.76 1049.5,-229.76 1049.5,-248.76"/>
<text text-anchor="middle" x="987.5" y="-236.76" font-family="Helvetica,sans-Serif" font-size="10.00">wmtk::Mesh::capacity</text>
</a>
</g>
</g>
<!-- Node13&#45;&gt;Node14 -->
<g id="edge16_Node000013_Node000014" class="edge">
<title>Node13&#45;&gt;Node14</title>
<g id="a_edge16_Node000013_Node000014"><a xlink:title=" ">
<path fill="none" stroke="#63b8ff" d="M612.25,-314.14C634.54,-297.14 673.56,-270.34 712,-258.26 778.61,-237.33 858.63,-234.11 915.04,-235.19"/>
<polygon fill="#63b8ff" stroke="#63b8ff" points="915.21,-238.7 925.29,-235.44 915.38,-231.7 915.21,-238.7"/>
</a>
</g>
</g>
<!-- Node16 -->
<g id="Node000016" class="node">
<title>Node16</title>
<g id="a_Node000016"><a xlink:href="classwmtk_1_1attribute_1_1_caching_accessor.html#a196b6b32e2495b971113d552be7f45d9" target="_top" xlink:title=" ">
<polygon fill="white" stroke="#666666" points="1056,-498.76 919,-498.76 919,-457.76 1056,-457.76 1056,-498.76"/>
<text text-anchor="start" x="927" y="-486.76" font-family="Helvetica,sans-Serif" font-size="10.00">wmtk::attribute::Caching</text>
<text text-anchor="start" x="927" y="-475.76" font-family="Helvetica,sans-Serif" font-size="10.00">Accessor::const_scalar</text>
<text text-anchor="middle" x="987.5" y="-464.76" font-family="Helvetica,sans-Serif" font-size="10.00">_attribute</text>
</a>
</g>
</g>
<!-- Node13&#45;&gt;Node16 -->
<g id="edge18_Node000013_Node000016" class="edge">
<title>Node13&#45;&gt;Node16</title>
<g id="a_edge18_Node000013_Node000016"><a xlink:title=" ">
<path fill="none" stroke="#63b8ff" d="M601.69,-344.5C622.71,-382.97 679.23,-482.16 712,-499.26 777.29,-533.34 863.43,-518.78 921.67,-501.8"/>
<polygon fill="#63b8ff" stroke="#63b8ff" points="922.92,-505.07 931.49,-498.83 920.9,-498.37 922.92,-505.07"/>
</a>
</g>
</g>
<!-- Node17 -->
<g id="Node000017" class="node">
<title>Node17</title>
<g id="a_Node000017"><a xlink:href="classwmtk_1_1attribute_1_1_caching_accessor.html#ab850fe07669c7bc92ca6cf6e86c60ee0" target="_top" xlink:title=" ">
<polygon fill="white" stroke="#666666" points="862,-490.76 725,-490.76 725,-449.76 862,-449.76 862,-490.76"/>
<text text-anchor="start" x="733" y="-478.76" font-family="Helvetica,sans-Serif" font-size="10.00">wmtk::attribute::Caching</text>
<text text-anchor="start" x="733" y="-467.76" font-family="Helvetica,sans-Serif" font-size="10.00">Accessor::const_vector</text>
<text text-anchor="middle" x="793.5" y="-456.76" font-family="Helvetica,sans-Serif" font-size="10.00">_attribute</text>
</a>
</g>
</g>
<!-- Node13&#45;&gt;Node17 -->
<g id="edge19_Node000013_Node000017" class="edge">
<title>Node13&#45;&gt;Node17</title>
<g id="a_edge19_Node000013_Node000017"><a xlink:title=" ">
<path fill="none" stroke="#63b8ff" d="M606.21,-344.56C626.44,-368.04 668.15,-413.09 712,-440.26 714.79,-441.99 717.69,-443.64 720.67,-445.22"/>
<polygon fill="#63b8ff" stroke="#63b8ff" points="719.28,-448.43 729.79,-449.73 722.38,-442.16 719.28,-448.43"/>
</a>
</g>
</g>
<!-- Node18 -->
<g id="Node000018" class="node">
<title>Node18</title>
<g id="a_Node000018"><a xlink:href="classwmtk_1_1_mesh.html#ae3493915b766f0f34f0a9e89603d5773" target="_top" xlink:title=" ">
<polygon fill="white" stroke="#666666" points="854.5,-297.26 732.5,-297.26 732.5,-267.26 854.5,-267.26 854.5,-297.26"/>
<text text-anchor="start" x="740.5" y="-285.26" font-family="Helvetica,sans-Serif" font-size="10.00">wmtk::Mesh::get_flag</text>
<text text-anchor="middle" x="793.5" y="-274.26" font-family="Helvetica,sans-Serif" font-size="10.00">_accessor</text>
</a>
</g>
</g>
<!-- Node13&#45;&gt;Node18 -->
<g id="edge20_Node000013_Node000018" class="edge">
<title>Node13&#45;&gt;Node18</title>
<g id="a_edge20_Node000013_Node000018"><a xlink:title=" ">
<path fill="none" stroke="#63b8ff" d="M657.01,-314.26C677.83,-309.34 701.08,-303.85 722.36,-298.83"/>
<polygon fill="#63b8ff" stroke="#63b8ff" points="723.37,-302.18 732.3,-296.48 721.76,-295.37 723.37,-302.18"/>
</a>
</g>
</g>
<!-- Node21 -->
<g id="Node000021" class="node">
<title>Node21</title>
<g id="a_Node000021"><a xlink:href="classwmtk_1_1attribute_1_1_accessor.html#a2d587e12c47a6d839ab80e9198cf75b5" target="_top" xlink:title=" ">
<polygon fill="white" stroke="#666666" points="1058.5,-347.26 916.5,-347.26 916.5,-317.26 1058.5,-317.26 1058.5,-347.26"/>
<text text-anchor="start" x="924.5" y="-335.26" font-family="Helvetica,sans-Serif" font-size="10.00">wmtk::attribute::Accessor</text>
<text text-anchor="middle" x="987.5" y="-324.26" font-family="Helvetica,sans-Serif" font-size="10.00">::index_access</text>
</a>
</g>
</g>
<!-- Node13&#45;&gt;Node21 -->
<g id="edge24_Node000013_Node000021" class="edge">
<title>Node13&#45;&gt;Node21</title>
<g id="a_edge24_Node000013_Node000021"><a xlink:title=" ">
<path fill="none" stroke="#63b8ff" d="M676.36,-329.89C744.05,-330.41 839.15,-331.14 906.15,-331.65"/>
<polygon fill="#63b8ff" stroke="#63b8ff" points="906.21,-335.15 916.24,-331.73 906.26,-328.15 906.21,-335.15"/>
</a>
</g>
</g>
<!-- Node23 -->
<g id="Node000023" class="node">
<title>Node23</title>
<g id="a_Node000023"><a xlink:href="classwmtk_1_1attribute_1_1_flag_accessor.html#a4f49a666c3811fee9b841c1cd1f66250" target="_top" xlink:title=" ">
<polygon fill="white" stroke="#666666" points="875,-431.26 712,-431.26 712,-401.26 875,-401.26 875,-431.26"/>
<text text-anchor="start" x="720" y="-419.26" font-family="Helvetica,sans-Serif" font-size="10.00">wmtk::attribute::FlagAccessor</text>
<text text-anchor="middle" x="793.5" y="-408.26" font-family="Helvetica,sans-Serif" font-size="10.00">::index_access</text>
</a>
</g>
</g>
<!-- Node13&#45;&gt;Node23 -->
<g id="edge26_Node000013_Node000023" class="edge">
<title>Node13&#45;&gt;Node23</title>
<g id="a_edge26_Node000013_Node000023"><a xlink:title=" ">
<path fill="none" stroke="#63b8ff" d="M618.22,-344.28C641.72,-358.09 678.37,-378.47 712,-392.26 716.77,-394.22 721.76,-396.09 726.81,-397.87"/>
<polygon fill="#63b8ff" stroke="#63b8ff" points="725.97,-401.28 736.57,-401.16 728.21,-394.65 725.97,-401.28"/>
</a>
</g>
</g>
<!-- Node24 -->
<g id="Node000024" class="node">
<title>Node24</title>
<g id="a_Node000024"><a xlink:href="classwmtk_1_1attribute_1_1_index_flag_accessor.html#a195252af3f6230f09f0c1379cbec7240" target="_top" xlink:title=" ">
<polygon fill="white" stroke="#666666" points="866.5,-383.26 720.5,-383.26 720.5,-353.26 866.5,-353.26 866.5,-383.26"/>
<text text-anchor="start" x="728.5" y="-371.26" font-family="Helvetica,sans-Serif" font-size="10.00">wmtk::attribute::IndexFlag</text>
<text text-anchor="middle" x="793.5" y="-360.26" font-family="Helvetica,sans-Serif" font-size="10.00">Accessor::is_active</text>
</a>
</g>
</g>
<!-- Node13&#45;&gt;Node24 -->
<g id="edge27_Node000013_Node000024" class="edge">
<title>Node13&#45;&gt;Node24</title>
<g id="a_edge27_Node000013_Node000024"><a xlink:title=" ">
<path fill="none" stroke="#63b8ff" d="M670.15,-344.28C683.33,-346.87 697.07,-349.56 710.38,-352.17"/>
<polygon fill="#63b8ff" stroke="#63b8ff" points="709.97,-355.65 720.46,-354.14 711.32,-348.79 709.97,-355.65"/>
</a>
</g>
</g>
<!-- Node26 -->
<g id="Node000026" class="node">
<title>Node26</title>
<g id="a_Node000026"><a xlink:href="classwmtk_1_1_tri_mesh.html#a2e568aaaffd6e68904c5cecd8256ed93" target="_top" xlink:title="returns if a simplex is on the boundary of hte mesh. For anything but dimension &#45; 1 this checks if th...">
<polygon fill="white" stroke="#666666" points="870,-210.76 717,-210.76 717,-191.76 870,-191.76 870,-210.76"/>
<text text-anchor="middle" x="793.5" y="-198.76" font-family="Helvetica,sans-Serif" font-size="10.00">wmtk::TriMesh::is_boundary</text>
</a>
</g>
</g>
<!-- Node13&#45;&gt;Node26 -->
<g id="edge31_Node000013_Node000026" class="edge">
<title>Node13&#45;&gt;Node26</title>
<g id="a_edge31_Node000013_Node000026"><a xlink:title=" ">
<path fill="none" stroke="#63b8ff" d="M606.55,-314.26C626.9,-291.76 668.4,-249.37 712,-225.26 720.15,-220.75 729.25,-217 738.32,-213.91"/>
<polygon fill="#63b8ff" stroke="#63b8ff" points="739.62,-217.17 748.09,-210.8 737.5,-210.49 739.62,-217.17"/>
</a>
</g>
</g>
<!-- Node13&#45;&gt;Node31 -->
<g id="edge40_Node000013_Node000031" class="edge">
<title>Node13&#45;&gt;Node31</title>
<g id="a_edge40_Node000013_Node000031"><a xlink:title=" ">
<path fill="none" stroke="#63b8ff" d="M603.71,-313.94C622.86,-285.86 666.37,-225.13 712,-182.26 729.16,-166.14 751.12,-150.88 767.76,-140.22"/>
<polygon fill="#63b8ff" stroke="#63b8ff" points="769.8,-143.08 776.4,-134.8 766.07,-137.15 769.8,-143.08"/>
</a>
</g>
</g>
<!-- Node15 -->
<g id="Node000015" class="node">
<title>Node15</title>
<g id="a_Node000015"><a xlink:href="namespacewmtk.html#a5cf45c152e856196bb734c6f48919a24" target="_top" xlink:title="Get a unique integer id corresponding to each primitive type.">
<polygon fill="white" stroke="#666666" points="1249,-252.26 1133,-252.26 1133,-222.26 1249,-222.26 1249,-252.26"/>
<text text-anchor="start" x="1141" y="-240.26" font-family="Helvetica,sans-Serif" font-size="10.00">wmtk::get_primitive</text>
<text text-anchor="middle" x="1191" y="-229.26" font-family="Helvetica,sans-Serif" font-size="10.00">_type_id</text>
</a>
</g>
</g>
<!-- Node14&#45;&gt;Node15 -->
<g id="edge17_Node000014_Node000015" class="edge">
<title>Node14&#45;&gt;Node15</title>
<g id="a_edge17_Node000014_Node000015"><a xlink:title=" ">
<path fill="none" stroke="#63b8ff" d="M1049.5,-238.66C1072.61,-238.43 1099.04,-238.16 1122.69,-237.93"/>
<polygon fill="#63b8ff" stroke="#63b8ff" points="1123.03,-241.43 1132.99,-237.83 1122.96,-234.43 1123.03,-241.43"/>
</a>
</g>
</g>
<!-- Node19 -->
<g id="Node000019" class="node">
<title>Node19</title>
<g id="a_Node000019"><a xlink:href="classwmtk_1_1_mesh.html#acfa981b31f00aef4438ff5e73bbce2f4" target="_top" xlink:title=" ">
<polygon fill="white" stroke="#666666" points="1052.5,-297.26 922.5,-297.26 922.5,-267.26 1052.5,-267.26 1052.5,-297.26"/>
<text text-anchor="start" x="930.5" y="-285.26" font-family="Helvetica,sans-Serif" font-size="10.00">wmtk::Mesh::get_const</text>
<text text-anchor="middle" x="987.5" y="-274.26" font-family="Helvetica,sans-Serif" font-size="10.00">_flag_accessor</text>
</a>
</g>
</g>
<!-- Node18&#45;&gt;Node19 -->
<g id="edge21_Node000018_Node000019" class="edge">
<title>Node18&#45;&gt;Node19</title>
<g id="a_edge21_Node000018_Node000019"><a xlink:title=" ">
<path fill="none" stroke="#63b8ff" d="M854.72,-282.26C872.9,-282.26 893.08,-282.26 912.06,-282.26"/>
<polygon fill="#63b8ff" stroke="#63b8ff" points="912.17,-285.76 922.17,-282.26 912.17,-278.76 912.17,-285.76"/>
</a>
</g>
</g>
<!-- Node19&#45;&gt;Node15 -->
<g id="edge23_Node000019_Node000015" class="edge">
<title>Node19&#45;&gt;Node15</title>
<g id="a_edge23_Node000019_Node000015"><a xlink:title=" ">
<path fill="none" stroke="#63b8ff" d="M1052.53,-267.96C1075.02,-262.94 1100.33,-257.29 1123.05,-252.21"/>
<polygon fill="#63b8ff" stroke="#63b8ff" points="1123.95,-255.6 1132.95,-250 1122.43,-248.77 1123.95,-255.6"/>
</a>
</g>
</g>
<!-- Node20 -->
<g id="Node000020" class="node">
<title>Node20</title>
<g id="a_Node000020"><a xlink:href="classwmtk_1_1_mesh.html#a357182137d99f1e4a7ff536eadfc0e56" target="_top" xlink:title=" ">
<polygon fill="white" stroke="#666666" points="1247.5,-300.26 1134.5,-300.26 1134.5,-270.26 1247.5,-270.26 1247.5,-300.26"/>
<text text-anchor="start" x="1142.5" y="-288.26" font-family="Helvetica,sans-Serif" font-size="10.00">wmtk::Mesh::create</text>
<text text-anchor="middle" x="1191" y="-277.26" font-family="Helvetica,sans-Serif" font-size="10.00">_const_accessor</text>
</a>
</g>
</g>
<!-- Node19&#45;&gt;Node20 -->
<g id="edge22_Node000019_Node000020" class="edge">
<title>Node19&#45;&gt;Node20</title>
<g id="a_edge22_Node000019_Node000020"><a xlink:title=" ">
<path fill="none" stroke="#63b8ff" d="M1052.53,-283.22C1075.42,-283.56 1101.24,-283.94 1124.27,-284.28"/>
<polygon fill="#63b8ff" stroke="#63b8ff" points="1124.24,-287.78 1134.29,-284.43 1124.34,-280.78 1124.24,-287.78"/>
</a>
</g>
</g>
<!-- Node22 -->
<g id="Node000022" class="node">
<title>Node22</title>
<g id="a_Node000022"><a xlink:href="classwmtk_1_1attribute_1_1_accessor.html#afd97a48ec5d1db975a030428df81f617" target="_top" xlink:title=" ">
<polygon fill="white" stroke="#666666" points="1262,-348.26 1120,-348.26 1120,-318.26 1262,-318.26 1262,-348.26"/>
<text text-anchor="start" x="1128" y="-336.26" font-family="Helvetica,sans-Serif" font-size="10.00">wmtk::attribute::Accessor</text>
<text text-anchor="middle" x="1191" y="-325.26" font-family="Helvetica,sans-Serif" font-size="10.00">::caching_base_type</text>
</a>
</g>
</g>
<!-- Node21&#45;&gt;Node22 -->
<g id="edge25_Node000021_Node000022" class="edge">
<title>Node21&#45;&gt;Node22</title>
<g id="a_edge25_Node000021_Node000022"><a xlink:title=" ">
<path fill="none" stroke="#63b8ff" d="M1058.69,-332.61C1075.06,-332.69 1092.61,-332.78 1109.39,-332.86"/>
<polygon fill="#63b8ff" stroke="#63b8ff" points="1109.7,-336.36 1119.72,-332.91 1109.74,-329.36 1109.7,-336.36"/>
</a>
</g>
</g>
<!-- Node24&#45;&gt;Node16 -->
<g id="edge29_Node000024_Node000016" class="edge">
<title>Node24&#45;&gt;Node16</title>
<g id="a_edge29_Node000024_Node000016"><a xlink:title=" ">
<path fill="none" stroke="#63b8ff" d="M854.38,-383.42C861.48,-386 868.51,-388.94 875,-392.26 905.29,-407.78 935.61,-431.85 956.97,-450.59"/>
<polygon fill="#63b8ff" stroke="#63b8ff" points="954.9,-453.43 964.7,-457.48 959.56,-448.21 954.9,-453.43"/>
</a>
</g>
</g>
<!-- Node24&#45;&gt;Node21 -->
<g id="edge30_Node000024_Node000021" class="edge">
<title>Node24&#45;&gt;Node21</title>
<g id="a_edge30_Node000024_Node000021"><a xlink:title=" ">
<path fill="none" stroke="#63b8ff" d="M866.54,-354.75C879.51,-352.32 893.11,-349.77 906.3,-347.3"/>
<polygon fill="#63b8ff" stroke="#63b8ff" points="907.1,-350.71 916.29,-345.43 905.81,-343.83 907.1,-350.71"/>
</a>
</g>
</g>
<!-- Node25 -->
<g id="Node000025" class="node">
<title>Node25</title>
<g id="a_Node000025"><a xlink:href="classwmtk_1_1attribute_1_1_index_flag_accessor.html#a08ce19b077654f9e384d8c3fffcbbd0b" target="_top" xlink:title=" ">
<polygon fill="white" stroke="#666666" points="1060.5,-395.26 914.5,-395.26 914.5,-365.26 1060.5,-365.26 1060.5,-395.26"/>
<text text-anchor="start" x="922.5" y="-383.26" font-family="Helvetica,sans-Serif" font-size="10.00">wmtk::attribute::IndexFlag</text>
<text text-anchor="middle" x="987.5" y="-372.26" font-family="Helvetica,sans-Serif" font-size="10.00">Accessor::_is_active</text>
</a>
</g>
</g>
<!-- Node24&#45;&gt;Node25 -->
<g id="edge28_Node000024_Node000025" class="edge">
<title>Node24&#45;&gt;Node25</title>
<g id="a_edge28_Node000024_Node000025"><a xlink:title=" ">
<path fill="none" stroke="#63b8ff" d="M866.54,-372.76C878.88,-373.54 891.79,-374.34 904.37,-375.13"/>
<polygon fill="#63b8ff" stroke="#63b8ff" points="904.18,-378.62 914.38,-375.75 904.61,-371.64 904.18,-378.62"/>
</a>
</g>
</g>
<!-- Node27 -->
<g id="Node000027" class="node">
<title>Node27</title>
<g id="a_Node000027"><a xlink:href="classwmtk_1_1_tri_mesh.html#ac603f7969b10c674eb00e007a507a530" target="_top" xlink:title=" ">
<polygon fill="white" stroke="#666666" points="1282,-172.76 1100,-172.76 1100,-153.76 1282,-153.76 1282,-172.76"/>
<text text-anchor="middle" x="1191" y="-160.76" font-family="Helvetica,sans-Serif" font-size="10.00">wmtk::TriMesh::is_boundary_edge</text>
</a>
</g>
</g>
<!-- Node26&#45;&gt;Node27 -->
<g id="edge32_Node000026_Node000027" class="edge">
<title>Node26&#45;&gt;Node27</title>
<g id="a_edge32_Node000026_Node000027"><a xlink:title=" ">
<path fill="none" stroke="#63b8ff" d="M870.05,-194.98C924.1,-190.37 998.56,-183.81 1064,-177.26 1074.56,-176.2 1085.62,-175.05 1096.61,-173.87"/>
<polygon fill="#63b8ff" stroke="#63b8ff" points="1097.1,-177.34 1106.66,-172.78 1096.34,-170.38 1097.1,-177.34"/>
</a>
</g>
</g>
<!-- Node28 -->
<g id="Node000028" class="node">
<title>Node28</title>
<g id="a_Node000028"><a xlink:href="classwmtk_1_1_tri_mesh.html#a1d5d124897281d6a649098213173fdb5" target="_top" xlink:title=" ">
<polygon fill="white" stroke="#666666" points="1064,-135.26 911,-135.26 911,-105.26 1064,-105.26 1064,-135.26"/>
<text text-anchor="start" x="919" y="-123.26" font-family="Helvetica,sans-Serif" font-size="10.00">wmtk::TriMesh::is_boundary</text>
<text text-anchor="middle" x="987.5" y="-112.26" font-family="Helvetica,sans-Serif" font-size="10.00">_vertex</text>
</a>
</g>
</g>
<!-- Node26&#45;&gt;Node28 -->
<g id="edge34_Node000026_Node000028" class="edge">
<title>Node26&#45;&gt;Node28</title>
<g id="a_edge34_Node000026_Node000028"><a xlink:title=" ">
<path fill="none" stroke="#63b8ff" d="M817.28,-191.65C847.68,-178.83 902.21,-155.82 941.15,-139.39"/>
<polygon fill="#63b8ff" stroke="#63b8ff" points="942.84,-142.48 950.69,-135.37 940.11,-136.03 942.84,-142.48"/>
</a>
</g>
</g>
<!-- Node27&#45;&gt;Node12 -->
<g id="edge33_Node000027_Node000012" class="edge">
<title>Node27&#45;&gt;Node12</title>
<g id="a_edge33_Node000027_Node000012"><a xlink:title=" ">
<path fill="none" stroke="#63b8ff" d="M1099.76,-155.41C1002.36,-149.55 843.52,-147.66 712,-182.26 598.16,-212.21 478.2,-289.65 430.2,-322.81"/>
<polygon fill="#63b8ff" stroke="#63b8ff" points="428.04,-320.06 421.84,-328.65 432.04,-325.8 428.04,-320.06"/>
</a>
</g>
</g>
<!-- Node28&#45;&gt;Node27 -->
<g id="edge35_Node000028_Node000027" class="edge">
<title>Node28&#45;&gt;Node27</title>
<g id="a_edge35_Node000028_Node000027"><a xlink:title=" ">
<path fill="none" stroke="#63b8ff" d="M1058.97,-135.3C1084.1,-140.66 1111.99,-146.61 1135.56,-151.64"/>
<polygon fill="#63b8ff" stroke="#63b8ff" points="1134.87,-155.08 1145.38,-153.74 1136.33,-148.23 1134.87,-155.08"/>
</a>
</g>
</g>
<!-- Node29 -->
<g id="Node000029" class="node">
<title>Node29</title>
<g id="a_Node000029"><a xlink:href="classwmtk_1_1_tri_mesh.html#a79010f8baac63245558c846aafea10d0" target="_top" xlink:title=" ">
<polygon fill="white" stroke="#666666" points="1268.5,-88.76 1113.5,-88.76 1113.5,-69.76 1268.5,-69.76 1268.5,-88.76"/>
<text text-anchor="middle" x="1191" y="-76.76" font-family="Helvetica,sans-Serif" font-size="10.00">wmtk::TriMesh::switch_edge</text>
</a>
</g>
</g>
<!-- Node28&#45;&gt;Node29 -->
<g id="edge36_Node000028_Node000029" class="edge">
<title>Node28&#45;&gt;Node29</title>
<g id="a_edge36_Node000028_Node000029"><a xlink:title=" ">
<path fill="none" stroke="#63b8ff" d="M1062.39,-105.23C1085.76,-100.47 1111.22,-95.29 1133.21,-90.82"/>
<polygon fill="#63b8ff" stroke="#63b8ff" points="1133.94,-94.24 1143.04,-88.82 1132.55,-87.38 1133.94,-94.24"/>
</a>
</g>
</g>
<!-- Node30 -->
<g id="Node000030" class="node">
<title>Node30</title>
<g id="a_Node000030"><a xlink:href="classwmtk_1_1_tri_mesh.html#a0ecb0fd199e840ff9f3d206abc10a64b" target="_top" xlink:title=" ">
<polygon fill="white" stroke="#666666" points="1267,-51.76 1115,-51.76 1115,-32.76 1267,-32.76 1267,-51.76"/>
<text text-anchor="middle" x="1191" y="-39.76" font-family="Helvetica,sans-Serif" font-size="10.00">wmtk::TriMesh::switch_face</text>
</a>
</g>
</g>
<!-- Node28&#45;&gt;Node30 -->
<g id="edge38_Node000028_Node000030" class="edge">
<title>Node28&#45;&gt;Node30</title>
<g id="a_edge38_Node000028_Node000030"><a xlink:title=" ">
<path fill="none" stroke="#63b8ff" d="M1043.83,-105.2C1050.84,-102.36 1057.74,-99.06 1064,-95.26 1083.08,-83.68 1080.25,-70.65 1100,-60.26 1103.55,-58.4 1107.27,-56.72 1111.09,-55.22"/>
<polygon fill="#63b8ff" stroke="#63b8ff" points="1112.48,-58.44 1120.77,-51.84 1110.17,-51.83 1112.48,-58.44"/>
</a>
</g>
</g>
<!-- Node29&#45;&gt;Node1 -->
<g id="edge37_Node000029_Node000001" class="edge">
<title>Node29&#45;&gt;Node1</title>
<g id="a_edge37_Node000029_Node000001"><a xlink:title=" ">
<path fill="none" stroke="#63b8ff" d="M1139.58,-69.73C1116.6,-65.68 1089,-61.22 1064,-58.26 944.76,-44.15 914.58,-39.26 794.5,-39.26 406.5,-39.26 406.5,-39.26 406.5,-39.26 233.97,-39.26 111.57,-258.29 74.92,-332.8"/>
<polygon fill="#63b8ff" stroke="#63b8ff" points="71.71,-331.4 70.5,-341.92 78.01,-334.45 71.71,-331.4"/>
</a>
</g>
</g>
<!-- Node30&#45;&gt;Node1 -->
<g id="edge39_Node000030_Node000001" class="edge">
<title>Node30&#45;&gt;Node1</title>
<g id="a_edge39_Node000030_Node000001"><a xlink:title=" ">
<path fill="none" stroke="#63b8ff" d="M1133.86,-32.75C1057.37,-20.64 915.99,-1.26 794.5,-1.26 406.5,-1.26 406.5,-1.26 406.5,-1.26 293.96,-1.26 243.42,13.36 161,-63.26 82.17,-136.55 67.01,-274.96 64.14,-331.86"/>
<polygon fill="#63b8ff" stroke="#63b8ff" points="60.63,-331.97 63.72,-342.11 67.63,-332.26 60.63,-331.97"/>
</a>
</g>
</g>
<!-- Node32 -->
<g id="Node000032" class="node">
<title>Node32</title>
<g id="a_Node000032"><a xlink:href="namespacewmtk.html#a3daa7951a5f8b78cf4600dc047fcc180" target="_top" xlink:title="Setup a logger object to be used by WildmeshToolkit.">
<polygon fill="white" stroke="#666666" points="1038,-86.76 937,-86.76 937,-67.76 1038,-67.76 1038,-86.76"/>
<text text-anchor="middle" x="987.5" y="-74.76" font-family="Helvetica,sans-Serif" font-size="10.00">wmtk::set_logger</text>
</a>
</g>
</g>
<!-- Node31&#45;&gt;Node32 -->
<g id="edge41_Node000031_Node000032" class="edge">
<title>Node31&#45;&gt;Node32</title>
<g id="a_edge41_Node000031_Node000032"><a xlink:title=" ">
<path fill="none" stroke="#63b8ff" d="M832.89,-115.66C863.24,-108.08 905.78,-97.44 938.39,-89.29"/>
<polygon fill="#63b8ff" stroke="#63b8ff" points="939.32,-92.66 948.17,-86.84 937.62,-85.87 939.32,-92.66"/>
</a>
</g>
</g>
<!-- Node33&#45;&gt;Node8 -->
<g id="edge47_Node000033_Node000008" class="edge">
<title>Node33&#45;&gt;Node8</title>
<g id="a_edge47_Node000033_Node000008"><a xlink:title=" ">
<path fill="none" stroke="#63b8ff" d="M306.02,-624.52C413.57,-632.42 615.67,-647.27 722.38,-655.11"/>
<polygon fill="#63b8ff" stroke="#63b8ff" points="722.18,-658.6 732.41,-655.85 722.69,-651.62 722.18,-658.6"/>
</a>
</g>
</g>
</g>
</svg>

<g id="navigator" transform="translate(0 0)" fill="#404254">
  <rect fill="#f2f5e9" fill-opacity="0.5" stroke="#606060" stroke-width=".5" x="0" y="0" width="60" height="60"/>
  <use id="zoomplus" xlink:href="#zoomPlus" x="17" y="9" onmousedown="handleZoom(evt,'in')"/>
  <use id="zoomminus" xlink:href="#zoomMin" x="42" y="9" onmousedown="handleZoom(evt,'out')"/>
  <use id="reset" xlink:href="#resetDef" x="30" y="36" onmousedown="handleReset()"/>
   <use id="arrowup" xlink:href="#arrowUp" x="0" y="0" onmousedown="handlePan(0,-1)"/>
  <use id="arrowright" xlink:href="#arrowRight" x="0" y="0" onmousedown="handlePan(1,0)"/>
  <use id="arrowdown" xlink:href="#arrowDown" x="0" y="0" onmousedown="handlePan(0,1)"/>
  <use id="arrowleft" xlink:href="#arrowLeft" x="0" y="0" onmousedown="handlePan(-1,0)"/>
</g>
<svg viewBox="0 0 15 15" width="100%" height="30px" preserveAspectRatio="xMaxYMin meet">
 <g id="arrow_out" transform="scale(0.3 0.3)">
  <a xlink:href="classwmtk_1_1_tri_mesh_a17b808a46d1a31efc12d555e6721bd02_cgraph_org.svg" target="_base">
   <rect id="button" ry="5" rx="5" y="6" x="6" height="38" width="38"
        fill="#f2f5e9" fill-opacity="0.5" stroke="#606060" stroke-width="1.0"/>
   <path id="arrow"
     d="M 11.500037,31.436501 C 11.940474,20.09759 22.043105,11.32322 32.158766,21.979434 L 37.068811,17.246167 C 37.068811,17.246167 37.088388,32 37.088388,32 L 22.160133,31.978069 C 22.160133,31.978069 26.997745,27.140456 26.997745,27.140456 C 18.528582,18.264221 13.291696,25.230495 11.500037,31.436501 z"
     style="fill:#404040;"/>
  </a>
 </g>
</svg>

<style type='text/css'>
<![CDATA[
[data-mouse-over-selected='false'] { opacity: 0.7; }
[data-mouse-over-selected='true']  { opacity: 1.0; }
]]>
</style>
<script type="application/ecmascript"><![CDATA[
document.addEventListener('DOMContentLoaded', (event) => {
  highlightEdges();
  highlightAdjacentNodes();
});
]]></script>
</svg>
