<?xml version="1.0" encoding="UTF-8" standalone="no"?>
<!DOCTYPE svg PUBLIC "-//W3C//DTD SVG 1.1//EN"
 "http://www.w3.org/Graphics/SVG/1.1/DTD/svg11.dtd">
<!-- Generated by graphviz version 2.43.0 (0)
 -->
<!-- Title: wmtk::multimesh::utils::internal::TupleTag::vid Pages: 1 -->
<!--zoomable 248 -->

<svg id="main" version="1.1" xmlns="http://www.w3.org/2000/svg" xmlns:xlink="http://www.w3.org/1999/xlink" xml:space="preserve" onload="init(evt)">
<style type="text/css"><![CDATA[
.node, .edge {opacity: 0.7;}
.node.selected, .edge.selected {opacity: 1;}
.edge:hover path { stroke: red; }
.edge:hover polygon { stroke: red; fill: red; }
]]></style>

<defs>
  <circle id="rim" cx="0" cy="0" r="7"/>
  <circle id="rim2" cx="0" cy="0" r="3.5"/>
  <g id="zoomPlus">
    <use xlink:href="#rim" fill="#404040"><set attributeName="fill" to="#808080" begin="zoomplus.mouseover" end="zoomplus.mouseout"/></use>
    <path d="M-4,0h8M0,-4v8" fill="none" stroke="white" stroke-width="1.5" pointer-events="none"/>
  </g>
  <g id="zoomMin">
    <use xlink:href="#rim" fill="#404040"><set attributeName="fill" to="#808080" begin="zoomminus.mouseover" end="zoomminus.mouseout"/></use>
    <path d="M-4,0h8" fill="none" stroke="white" stroke-width="1.5" pointer-events="none"/>
  </g>
  <g id="arrowUp" transform="translate(30 24)">
    <use xlink:href="#rim"/>
    <path pointer-events="none" fill="none" stroke="white" stroke-width="1.5" d="M0,-3.0v7 M-2.5,-0.5L0,-3.0L2.5,-0.5"/>
  </g>
  <g id="arrowRight" transform="rotate(90) translate(36 -43)">
    <use xlink:href="#rim"/>
    <path pointer-events="none" fill="none" stroke="white" stroke-width="1.5" d="M0,-3.0v7 M-2.5,-0.5L0,-3.0L2.5,-0.5"/>
  </g>
  <g id="arrowDown" transform="rotate(180) translate(-30 -48)">
    <use xlink:href="#rim"/>
    <path pointer-events="none" fill="none" stroke="white" stroke-width="1.5" d="M0,-3.0v7 M-2.5,-0.5L0,-3.0L2.5,-0.5"/>
  </g>
  <g id="arrowLeft" transform="rotate(270) translate(-36 17)">
    <use xlink:href="#rim"/>
    <path pointer-events="none" fill="none" stroke="white" stroke-width="1.5" d="M0,-3.0v7 M-2.5,-0.5L0,-3.0L2.5,-0.5"/>
  </g>
  <g id="resetDef">
    <use xlink:href="#rim2" fill="#404040"><set attributeName="fill" to="#808080" begin="reset.mouseover" end="reset.mouseout"/></use>
  </g>
</defs>
<script type="application/ecmascript">
var viewWidth = 802;
var viewHeight = 248;
var sectionId = 'dynsection-28';
</script>
<script type="application/ecmascript" xlink:href="svg.min.js"/>
<svg id="graph" class="graph">
<g id="viewport">
<title>wmtk::multimesh::utils::internal::TupleTag::vid</title>
<!-- Node1 -->
<g id="Node000001" class="node">
<title>Node1</title>
<g id="a_Node000001"><a xlink:title=" ">
<polygon fill="#999999" stroke="#666666" points="794,-171.5 664,-171.5 664,-141.5 794,-141.5 794,-171.5"/>
<text text-anchor="start" x="672" y="-159.5" font-family="Helvetica,sans-Serif" font-size="10.00">wmtk::multimesh::utils</text>
<text text-anchor="middle" x="729" y="-148.5" font-family="Helvetica,sans-Serif" font-size="10.00">::internal::TupleTag::vid</text>
</a>
</g>
</g>
<!-- Node2 -->
<g id="Node000002" class="node">
<title>Node2</title>
<g id="a_Node000002"><a xlink:href="classwmtk_1_1multimesh_1_1utils_1_1internal_1_1_tuple_tag.html#a5968cfbb6c2f0c13aec74839b3e213f9" target="_top" xlink:title=" ">
<polygon fill="white" stroke="#666666" points="628,-177 498,-177 498,-136 628,-136 628,-177"/>
<text text-anchor="start" x="506" y="-165" font-family="Helvetica,sans-Serif" font-size="10.00">wmtk::multimesh::utils</text>
<text text-anchor="start" x="506" y="-154" font-family="Helvetica,sans-Serif" font-size="10.00">::internal::TupleTag::</text>
<text text-anchor="middle" x="563" y="-143" font-family="Helvetica,sans-Serif" font-size="10.00">boundary_is_root</text>
</a>
</g>
</g>
<!-- Node1&#45;&gt;Node2 -->
<g id="edge1_Node000001_Node000002" class="edge">
<title>Node1&#45;&gt;Node2</title>
<g id="a_edge1_Node000001_Node000002"><a xlink:title=" ">
<path fill="none" stroke="#63b8ff" d="M653.44,-156.5C645,-156.5 636.45,-156.5 628.16,-156.5"/>
<polygon fill="#63b8ff" stroke="#63b8ff" points="653.65,-160 663.65,-156.5 653.65,-153 653.65,-160"/>
</a>
</g>
</g>
<!-- Node5 -->
<g id="Node000005" class="node">
<title>Node5</title>
<g id="a_Node000005"><a xlink:href="classwmtk_1_1multimesh_1_1utils_1_1internal_1_1_tuple_tag.html#a2537cb4e71612d88c4541856b7352ee6" target="_top" xlink:title="Given an facet, join the sets that contains the two end vertices.">
<polygon fill="white" stroke="#666666" points="130,-219.5 0,-219.5 0,-189.5 130,-189.5 130,-219.5"/>
<text text-anchor="start" x="8" y="-207.5" font-family="Helvetica,sans-Serif" font-size="10.00">wmtk::multimesh::utils</text>
<text text-anchor="middle" x="65" y="-196.5" font-family="Helvetica,sans-Serif" font-size="10.00">::internal::TupleTag::run</text>
</a>
</g>
</g>
<!-- Node1&#45;&gt;Node5 -->
<g id="edge16_Node000001_Node000005" class="edge">
<title>Node1&#45;&gt;Node5</title>
<g id="a_edge16_Node000001_Node000005"><a xlink:title=" ">
<path fill="none" stroke="#63b8ff" d="M694.63,-176.51C675.7,-186.99 651.22,-199.15 628,-206.5 454.98,-261.27 236.7,-235.4 130.27,-217.15"/>
<polygon fill="#63b8ff" stroke="#63b8ff" points="696.46,-179.49 703.44,-171.52 693.01,-173.4 696.46,-179.49"/>
</a>
</g>
</g>
<!-- Node9 -->
<g id="Node000009" class="node">
<title>Node9</title>
<g id="a_Node000009"><a xlink:href="classwmtk_1_1multimesh_1_1utils_1_1internal_1_1_tuple_tag.html#ad517c516675acd9b4964890cf78ce9c9" target="_top" xlink:title="Go through facets of the parent mesh (triangle mesh) and initialize all the boundary tags to be &#45;1.">
<polygon fill="white" stroke="#666666" points="628,-41 498,-41 498,0 628,0 628,-41"/>
<text text-anchor="start" x="506" y="-29" font-family="Helvetica,sans-Serif" font-size="10.00">wmtk::multimesh::utils</text>
<text text-anchor="start" x="506" y="-18" font-family="Helvetica,sans-Serif" font-size="10.00">::internal::TupleTag::</text>
<text text-anchor="middle" x="563" y="-7" font-family="Helvetica,sans-Serif" font-size="10.00">initialize</text>
</a>
</g>
</g>
<!-- Node1&#45;&gt;Node9 -->
<g id="edge10_Node000001_Node000009" class="edge">
<title>Node1&#45;&gt;Node9</title>
<g id="a_edge10_Node000001_Node000009"><a xlink:title=" ">
<path fill="none" stroke="#63b8ff" d="M710.72,-133.18C692.32,-109.62 661.3,-73.39 628,-49.5 623.84,-46.51 619.32,-43.73 614.67,-41.15"/>
<polygon fill="#63b8ff" stroke="#63b8ff" points="708.04,-135.44 716.91,-141.24 713.59,-131.17 708.04,-135.44"/>
</a>
</g>
</g>
<!-- Node11 -->
<g id="Node000011" class="node">
<title>Node11</title>
<g id="a_Node000011"><a xlink:href="classwmtk_1_1multimesh_1_1utils_1_1internal_1_1_tuple_tag.html#aa7202e012d3524bdc7db3a1878ce9df1" target="_top" xlink:title="Check if a boundary is a critical point.">
<polygon fill="white" stroke="#666666" points="462,-222 332,-222 332,-181 462,-181 462,-222"/>
<text text-anchor="start" x="340" y="-210" font-family="Helvetica,sans-Serif" font-size="10.00">wmtk::multimesh::utils</text>
<text text-anchor="start" x="340" y="-199" font-family="Helvetica,sans-Serif" font-size="10.00">::internal::TupleTag::</text>
<text text-anchor="middle" x="397" y="-188" font-family="Helvetica,sans-Serif" font-size="10.00">is_critical_boundary</text>
</a>
</g>
</g>
<!-- Node1&#45;&gt;Node11 -->
<g id="edge12_Node000001_Node000011" class="edge">
<title>Node1&#45;&gt;Node11</title>
<g id="a_edge12_Node000001_Node000011"><a xlink:title=" ">
<path fill="none" stroke="#63b8ff" d="M675.91,-174.55C660.65,-179.18 643.8,-183.65 628,-186.5 572.67,-196.47 508.79,-200.02 462.42,-201.18"/>
<polygon fill="#63b8ff" stroke="#63b8ff" points="677.19,-177.82 685.69,-171.51 675.11,-171.14 677.19,-177.82"/>
</a>
</g>
</g>
<!-- Node12 -->
<g id="Node000012" class="node">
<title>Node12</title>
<g id="a_Node000012"><a xlink:href="classwmtk_1_1multimesh_1_1utils_1_1internal_1_1_tuple_tag.html#acf1cbc3cfaaebc987060989c98bdf6de" target="_top" xlink:title=" ">
<polygon fill="white" stroke="#666666" points="628,-100 498,-100 498,-59 628,-59 628,-100"/>
<text text-anchor="start" x="506" y="-88" font-family="Helvetica,sans-Serif" font-size="10.00">wmtk::multimesh::utils</text>
<text text-anchor="start" x="506" y="-77" font-family="Helvetica,sans-Serif" font-size="10.00">::internal::TupleTag::</text>
<text text-anchor="middle" x="563" y="-66" font-family="Helvetica,sans-Serif" font-size="10.00">v_tuple</text>
</a>
</g>
</g>
<!-- Node1&#45;&gt;Node12 -->
<g id="edge17_Node000001_Node000012" class="edge">
<title>Node1&#45;&gt;Node12</title>
<g id="a_edge17_Node000001_Node000012"><a xlink:title=" ">
<path fill="none" stroke="#63b8ff" d="M686.75,-137.13C662.64,-125.81 632.24,-111.54 607.72,-100.03"/>
<polygon fill="#63b8ff" stroke="#63b8ff" points="685.45,-140.39 695.99,-141.47 688.43,-134.05 685.45,-140.39"/>
</a>
</g>
</g>
<!-- Node3 -->
<g id="Node000003" class="node">
<title>Node3</title>
<g id="a_Node000003"><a xlink:href="classwmtk_1_1multimesh_1_1utils_1_1internal_1_1_tuple_tag.html#a1cb3c8b25d1d233418f716215f6506cd" target="_top" xlink:title=" ">
<polygon fill="white" stroke="#666666" points="462,-104 332,-104 332,-63 462,-63 462,-104"/>
<text text-anchor="start" x="340" y="-92" font-family="Helvetica,sans-Serif" font-size="10.00">wmtk::multimesh::utils</text>
<text text-anchor="start" x="340" y="-81" font-family="Helvetica,sans-Serif" font-size="10.00">::internal::TupleTag::</text>
<text text-anchor="middle" x="397" y="-70" font-family="Helvetica,sans-Serif" font-size="10.00">boundary_get_root</text>
</a>
</g>
</g>
<!-- Node2&#45;&gt;Node3 -->
<g id="edge2_Node000002_Node000003" class="edge">
<title>Node2&#45;&gt;Node3</title>
<g id="a_edge2_Node000002_Node000003"><a xlink:title=" ">
<path fill="none" stroke="#63b8ff" d="M506.72,-131.89C486.35,-122.83 463.52,-112.67 444.06,-104"/>
<polygon fill="#63b8ff" stroke="#63b8ff" points="505.32,-135.1 515.88,-135.97 508.17,-128.71 505.32,-135.1"/>
</a>
</g>
</g>
<!-- Node8 -->
<g id="Node000008" class="node">
<title>Node8</title>
<g id="a_Node000008"><a xlink:href="classwmtk_1_1multimesh_1_1utils_1_1internal_1_1_tuple_tag.html#ad6515d85df2da45212f70af76a04999d" target="_top" xlink:title=" ">
<polygon fill="white" stroke="#666666" points="462,-163 332,-163 332,-122 462,-122 462,-163"/>
<text text-anchor="start" x="340" y="-151" font-family="Helvetica,sans-Serif" font-size="10.00">wmtk::multimesh::utils</text>
<text text-anchor="start" x="340" y="-140" font-family="Helvetica,sans-Serif" font-size="10.00">::internal::TupleTag::</text>
<text text-anchor="middle" x="397" y="-129" font-family="Helvetica,sans-Serif" font-size="10.00">boundary_set_root</text>
</a>
</g>
</g>
<!-- Node2&#45;&gt;Node8 -->
<g id="edge8_Node000002_Node000008" class="edge">
<title>Node2&#45;&gt;Node8</title>
<g id="a_edge8_Node000002_Node000008"><a xlink:title=" ">
<path fill="none" stroke="#63b8ff" d="M487.44,-150.13C479,-149.41 470.45,-148.68 462.16,-147.98"/>
<polygon fill="#63b8ff" stroke="#63b8ff" points="487.39,-153.64 497.65,-151.01 487.99,-146.67 487.39,-153.64"/>
</a>
</g>
</g>
<!-- Node4 -->
<g id="Node000004" class="node">
<title>Node4</title>
<g id="a_Node000004"><a xlink:href="classwmtk_1_1multimesh_1_1utils_1_1internal_1_1_tuple_tag.html#a3476e67157fa56d68e80ba4d794c16b5" target="_top" xlink:title="Given two boundary tuple, join the sets that contain them.">
<polygon fill="white" stroke="#666666" points="296,-176 166,-176 166,-135 296,-135 296,-176"/>
<text text-anchor="start" x="174" y="-164" font-family="Helvetica,sans-Serif" font-size="10.00">wmtk::multimesh::utils</text>
<text text-anchor="start" x="174" y="-153" font-family="Helvetica,sans-Serif" font-size="10.00">::internal::TupleTag::</text>
<text text-anchor="middle" x="231" y="-142" font-family="Helvetica,sans-Serif" font-size="10.00">boundary_sets_unify</text>
</a>
</g>
</g>
<!-- Node3&#45;&gt;Node4 -->
<g id="edge3_Node000003_Node000004" class="edge">
<title>Node3&#45;&gt;Node4</title>
<g id="a_edge3_Node000003_Node000004"><a xlink:title=" ">
<path fill="none" stroke="#63b8ff" d="M339.75,-108.2C319.86,-116.93 297.73,-126.64 278.72,-134.99"/>
<polygon fill="#63b8ff" stroke="#63b8ff" points="341.25,-111.36 349,-104.13 338.44,-104.95 341.25,-111.36"/>
</a>
</g>
</g>
<!-- Node6 -->
<g id="Node000006" class="node">
<title>Node6</title>
<g id="a_Node000006"><a xlink:href="classwmtk_1_1multimesh_1_1utils_1_1internal_1_1_tuple_tag.html#a76f9d0aa5d7d0de388e17b239faab649" target="_top" xlink:title=" ">
<polygon fill="white" stroke="#666666" points="296,-98.5 166,-98.5 166,-68.5 296,-68.5 296,-98.5"/>
<text text-anchor="start" x="174" y="-86.5" font-family="Helvetica,sans-Serif" font-size="10.00">wmtk::multimesh::utils</text>
<text text-anchor="middle" x="231" y="-75.5" font-family="Helvetica,sans-Serif" font-size="10.00">::internal::TupleTag::run</text>
</a>
</g>
</g>
<!-- Node3&#45;&gt;Node6 -->
<g id="edge5_Node000003_Node000006" class="edge">
<title>Node3&#45;&gt;Node6</title>
<g id="a_edge5_Node000003_Node000006"><a xlink:title=" ">
<path fill="none" stroke="#63b8ff" d="M321.44,-83.5C313,-83.5 304.45,-83.5 296.16,-83.5"/>
<polygon fill="#63b8ff" stroke="#63b8ff" points="321.65,-87 331.65,-83.5 321.65,-80 321.65,-87"/>
</a>
</g>
</g>
<!-- Node4&#45;&gt;Node5 -->
<g id="edge4_Node000004_Node000005" class="edge">
<title>Node4&#45;&gt;Node5</title>
<g id="a_edge4_Node000004_Node000005"><a xlink:title=" ">
<path fill="none" stroke="#63b8ff" d="M155.94,-177.63C142.5,-181.64 128.77,-185.75 116.22,-189.5"/>
<polygon fill="#63b8ff" stroke="#63b8ff" points="157.07,-180.94 165.65,-174.73 155.07,-174.23 157.07,-180.94"/>
</a>
</g>
</g>
<!-- Node6&#45;&gt;Node6 -->
<g id="edge7_Node000006_Node000006" class="edge">
<title>Node6&#45;&gt;Node6</title>
<g id="a_edge7_Node000006_Node000006"><a xlink:title=" ">
<path fill="none" stroke="#63b8ff" d="M260.06,-109.1C256.09,-113.47 246.4,-116.5 231,-116.5 205.06,-116.5 195.34,-107.91 201.82,-98.78"/>
<polygon fill="#63b8ff" stroke="#63b8ff" points="263.56,-108.82 260.18,-98.78 256.56,-108.73 263.56,-108.82"/>
</a>
</g>
</g>
<!-- Node7 -->
<g id="Node000007" class="node">
<title>Node7</title>
<g id="a_Node000007"><a xlink:href="namespacewmtk_1_1multimesh_1_1utils.html#a3eeab2c4a43e5e6d5fb50d399a88d0a3" target="_top" xlink:title="Do two passes on the edges of a triangle mesh to create vertex tags and edge tags.">
<polygon fill="white" stroke="#666666" points="130,-98.5 0,-98.5 0,-68.5 130,-68.5 130,-98.5"/>
<text text-anchor="start" x="8" y="-86.5" font-family="Helvetica,sans-Serif" font-size="10.00">wmtk::multimesh::utils</text>
<text text-anchor="middle" x="65" y="-75.5" font-family="Helvetica,sans-Serif" font-size="10.00">::create_tags</text>
</a>
</g>
</g>
<!-- Node6&#45;&gt;Node7 -->
<g id="edge6_Node000006_Node000007" class="edge">
<title>Node6&#45;&gt;Node7</title>
<g id="a_edge6_Node000006_Node000007"><a xlink:title=" ">
<path fill="none" stroke="#63b8ff" d="M155.44,-83.5C147,-83.5 138.45,-83.5 130.16,-83.5"/>
<polygon fill="#63b8ff" stroke="#63b8ff" points="155.65,-87 165.65,-83.5 155.65,-80 155.65,-87"/>
</a>
</g>
</g>
<!-- Node8&#45;&gt;Node4 -->
<g id="edge9_Node000008_Node000004" class="edge">
<title>Node8&#45;&gt;Node4</title>
<g id="a_edge9_Node000008_Node000004"><a xlink:title=" ">
<path fill="none" stroke="#63b8ff" d="M321.44,-148.41C313,-149.08 304.45,-149.76 296.16,-150.41"/>
<polygon fill="#63b8ff" stroke="#63b8ff" points="321.96,-151.88 331.65,-147.6 321.41,-144.9 321.96,-151.88"/>
</a>
</g>
</g>
<!-- Node10 -->
<g id="Node000010" class="node">
<title>Node10</title>
<g id="a_Node000010"><a xlink:href="classwmtk_1_1multimesh_1_1utils_1_1internal_1_1_tuple_tag.html#ab8e5e0a7a1def29c4474f3410565c214" target="_top" xlink:title=" ">
<polygon fill="white" stroke="#666666" points="462,-41 332,-41 332,0 462,0 462,-41"/>
<text text-anchor="start" x="340" y="-29" font-family="Helvetica,sans-Serif" font-size="10.00">wmtk::multimesh::utils</text>
<text text-anchor="start" x="340" y="-18" font-family="Helvetica,sans-Serif" font-size="10.00">::internal::TupleTag::</text>
<text text-anchor="middle" x="397" y="-7" font-family="Helvetica,sans-Serif" font-size="10.00">TupleTag</text>
</a>
</g>
</g>
<!-- Node9&#45;&gt;Node10 -->
<g id="edge11_Node000009_Node000010" class="edge">
<title>Node9&#45;&gt;Node10</title>
<g id="a_edge11_Node000009_Node000010"><a xlink:title=" ">
<path fill="none" stroke="#63b8ff" d="M487.44,-20.5C479,-20.5 470.45,-20.5 462.16,-20.5"/>
<polygon fill="#63b8ff" stroke="#63b8ff" points="487.65,-24 497.65,-20.5 487.65,-17 487.65,-24"/>
</a>
</g>
</g>
<!-- Node11&#45;&gt;Node4 -->
<g id="edge13_Node000011_Node000004" class="edge">
<title>Node11&#45;&gt;Node4</title>
<g id="a_edge13_Node000011_Node000004"><a xlink:title=" ">
<path fill="none" stroke="#63b8ff" d="M321.99,-180.74C313.37,-178.32 304.63,-175.87 296.16,-173.5"/>
<polygon fill="#63b8ff" stroke="#63b8ff" points="321.08,-184.12 331.65,-183.45 322.97,-177.38 321.08,-184.12"/>
</a>
</g>
</g>
<!-- Node11&#45;&gt;Node5 -->
<g id="edge15_Node000011_Node000005" class="edge">
<title>Node11&#45;&gt;Node5</title>
<g id="a_edge15_Node000011_Node000005"><a xlink:title=" ">
<path fill="none" stroke="#63b8ff" d="M321.84,-202.17C264.19,-202.7 185.05,-203.42 130.12,-203.92"/>
<polygon fill="#63b8ff" stroke="#63b8ff" points="322.01,-205.67 331.98,-202.08 321.95,-198.67 322.01,-205.67"/>
</a>
</g>
</g>
<!-- Node11&#45;&gt;Node6 -->
<g id="edge14_Node000011_Node000006" class="edge">
<title>Node11&#45;&gt;Node6</title>
<g id="a_edge14_Node000011_Node000006"><a xlink:title=" ">
<path fill="none" stroke="#63b8ff" d="M335.7,-175.26C334.43,-174.36 333.2,-173.44 332,-172.5 311.59,-156.46 315.01,-144.18 296,-126.5 284.63,-115.92 270.42,-106.1 258.29,-98.53"/>
<polygon fill="#63b8ff" stroke="#63b8ff" points="334.09,-178.38 344.39,-180.84 337.87,-172.49 334.09,-178.38"/>
</a>
</g>
</g>
<!-- Node12&#45;&gt;Node3 -->
<g id="edge18_Node000012_Node000003" class="edge">
<title>Node12&#45;&gt;Node3</title>
<g id="a_edge18_Node000012_Node000003"><a xlink:title=" ">
<path fill="none" stroke="#63b8ff" d="M487.44,-81.32C479,-81.52 470.45,-81.73 462.16,-81.94"/>
<polygon fill="#63b8ff" stroke="#63b8ff" points="487.74,-84.81 497.65,-81.07 487.57,-77.81 487.74,-84.81"/>
</a>
</g>
</g>
<!-- Node12&#45;&gt;Node8 -->
<g id="edge19_Node000012_Node000008" class="edge">
<title>Node12&#45;&gt;Node8</title>
<g id="a_edge19_Node000012_Node000008"><a xlink:title=" ">
<path fill="none" stroke="#63b8ff" d="M498.74,-103.8C483.16,-109.79 466.62,-116.14 451.54,-121.93"/>
<polygon fill="#63b8ff" stroke="#63b8ff" points="500.22,-106.98 508.3,-100.13 497.71,-100.45 500.22,-106.98"/>
</a>
</g>
</g>
<!-- Node12&#45;&gt;Node12 -->
<g id="edge20_Node000012_Node000012" class="edge">
<title>Node12&#45;&gt;Node12</title>
<g id="a_edge20_Node000012_Node000012"><a xlink:title=" ">
<path fill="none" stroke="#63b8ff" d="M591.56,-109.96C587.31,-114.74 577.79,-118 563,-118 539.33,-118 529.16,-109.65 532.49,-100.1"/>
<polygon fill="#63b8ff" stroke="#63b8ff" points="595,-110.59 593.51,-100.1 588.14,-109.23 595,-110.59"/>
</a>
</g>
</g>
</g>
</svg>

<g id="navigator" transform="translate(0 0)" fill="#404254">
  <rect fill="#f2f5e9" fill-opacity="0.5" stroke="#606060" stroke-width=".5" x="0" y="0" width="60" height="60"/>
  <use id="zoomplus" xlink:href="#zoomPlus" x="17" y="9" onmousedown="handleZoom(evt,'in')"/>
  <use id="zoomminus" xlink:href="#zoomMin" x="42" y="9" onmousedown="handleZoom(evt,'out')"/>
  <use id="reset" xlink:href="#resetDef" x="30" y="36" onmousedown="handleReset()"/>
   <use id="arrowup" xlink:href="#arrowUp" x="0" y="0" onmousedown="handlePan(0,-1)"/>
  <use id="arrowright" xlink:href="#arrowRight" x="0" y="0" onmousedown="handlePan(1,0)"/>
  <use id="arrowdown" xlink:href="#arrowDown" x="0" y="0" onmousedown="handlePan(0,1)"/>
  <use id="arrowleft" xlink:href="#arrowLeft" x="0" y="0" onmousedown="handlePan(-1,0)"/>
</g>
<svg viewBox="0 0 15 15" width="100%" height="30px" preserveAspectRatio="xMaxYMin meet">
 <g id="arrow_out" transform="scale(0.3 0.3)">
  <a xlink:href="classwmtk_1_1multimesh_1_1utils_1_1internal_1_1_tuple_tag_ad921071b9217221d30d56b51419c78e7_icgraph_org.svg" target="_base">
   <rect id="button" ry="5" rx="5" y="6" x="6" height="38" width="38"
        fill="#f2f5e9" fill-opacity="0.5" stroke="#606060" stroke-width="1.0"/>
   <path id="arrow"
     d="M 11.500037,31.436501 C 11.940474,20.09759 22.043105,11.32322 32.158766,21.979434 L 37.068811,17.246167 C 37.068811,17.246167 37.088388,32 37.088388,32 L 22.160133,31.978069 C 22.160133,31.978069 26.997745,27.140456 26.997745,27.140456 C 18.528582,18.264221 13.291696,25.230495 11.500037,31.436501 z"
     style="fill:#404040;"/>
  </a>
 </g>
</svg>

<style type='text/css'>
<![CDATA[
[data-mouse-over-selected='false'] { opacity: 0.7; }
[data-mouse-over-selected='true']  { opacity: 1.0; }
]]>
</style>
<script type="application/ecmascript"><![CDATA[
document.addEventListener('DOMContentLoaded', (event) => {
  highlightEdges();
  highlightAdjacentNodes();
});
]]></script>
</svg>
