<?xml version="1.0" encoding="UTF-8" standalone="no"?>
<!DOCTYPE svg PUBLIC "-//W3C//DTD SVG 1.1//EN"
 "http://www.w3.org/Graphics/SVG/1.1/DTD/svg11.dtd">
<!-- Generated by graphviz version 2.43.0 (0)
 -->
<!-- Title: wmtk::attribute::Accessor::reserved_size Pages: 1 -->
<!--zoomable 290 -->

<svg id="main" version="1.1" xmlns="http://www.w3.org/2000/svg" xmlns:xlink="http://www.w3.org/1999/xlink" xml:space="preserve" onload="init(evt)">
<style type="text/css"><![CDATA[
.node, .edge {opacity: 0.7;}
.node.selected, .edge.selected {opacity: 1;}
.edge:hover path { stroke: red; }
.edge:hover polygon { stroke: red; fill: red; }
]]></style>

<defs>
  <circle id="rim" cx="0" cy="0" r="7"/>
  <circle id="rim2" cx="0" cy="0" r="3.5"/>
  <g id="zoomPlus">
    <use xlink:href="#rim" fill="#404040"><set attributeName="fill" to="#808080" begin="zoomplus.mouseover" end="zoomplus.mouseout"/></use>
    <path d="M-4,0h8M0,-4v8" fill="none" stroke="white" stroke-width="1.5" pointer-events="none"/>
  </g>
  <g id="zoomMin">
    <use xlink:href="#rim" fill="#404040"><set attributeName="fill" to="#808080" begin="zoomminus.mouseover" end="zoomminus.mouseout"/></use>
    <path d="M-4,0h8" fill="none" stroke="white" stroke-width="1.5" pointer-events="none"/>
  </g>
  <g id="arrowUp" transform="translate(30 24)">
    <use xlink:href="#rim"/>
    <path pointer-events="none" fill="none" stroke="white" stroke-width="1.5" d="M0,-3.0v7 M-2.5,-0.5L0,-3.0L2.5,-0.5"/>
  </g>
  <g id="arrowRight" transform="rotate(90) translate(36 -43)">
    <use xlink:href="#rim"/>
    <path pointer-events="none" fill="none" stroke="white" stroke-width="1.5" d="M0,-3.0v7 M-2.5,-0.5L0,-3.0L2.5,-0.5"/>
  </g>
  <g id="arrowDown" transform="rotate(180) translate(-30 -48)">
    <use xlink:href="#rim"/>
    <path pointer-events="none" fill="none" stroke="white" stroke-width="1.5" d="M0,-3.0v7 M-2.5,-0.5L0,-3.0L2.5,-0.5"/>
  </g>
  <g id="arrowLeft" transform="rotate(270) translate(-36 17)">
    <use xlink:href="#rim"/>
    <path pointer-events="none" fill="none" stroke="white" stroke-width="1.5" d="M0,-3.0v7 M-2.5,-0.5L0,-3.0L2.5,-0.5"/>
  </g>
  <g id="resetDef">
    <use xlink:href="#rim2" fill="#404040"><set attributeName="fill" to="#808080" begin="reset.mouseover" end="reset.mouseout"/></use>
  </g>
</defs>
<script type="application/ecmascript">
var viewWidth = 756;
var viewHeight = 290;
var sectionId = 'dynsection-12';
</script>
<script type="application/ecmascript" xlink:href="svg.min.js"/>
<svg id="graph" class="graph">
<g id="viewport">
<title>wmtk::attribute::Accessor::reserved_size</title>
<!-- Node1 -->
<g id="Node000001" class="node">
<title>Node1</title>
<g id="a_Node000001"><a xlink:title=" ">
<polygon fill="#999999" stroke="#666666" points="748,-113.5 606,-113.5 606,-83.5 748,-83.5 748,-113.5"/>
<text text-anchor="start" x="614" y="-101.5" font-family="Helvetica,sans-Serif" font-size="10.00">wmtk::attribute::Accessor</text>
<text text-anchor="middle" x="677" y="-90.5" font-family="Helvetica,sans-Serif" font-size="10.00">::reserved_size</text>
</a>
</g>
</g>
<!-- Node2 -->
<g id="Node000002" class="node">
<title>Node2</title>
<g id="a_Node000002"><a xlink:href="classwmtk_1_1_mesh.html#ac205d6addf4e76f000c70547253735f0" target="_top" xlink:title=" ">
<polygon fill="white" stroke="#666666" points="546,-161.5 427,-161.5 427,-131.5 546,-131.5 546,-161.5"/>
<text text-anchor="start" x="435" y="-149.5" font-family="Helvetica,sans-Serif" font-size="10.00">wmtk::Mesh::request</text>
<text text-anchor="middle" x="486.5" y="-138.5" font-family="Helvetica,sans-Serif" font-size="10.00">_simplex_indices</text>
</a>
</g>
</g>
<!-- Node1&#45;&gt;Node2 -->
<g id="edge1_Node000001_Node000002" class="edge">
<title>Node1&#45;&gt;Node2</title>
<g id="a_edge1_Node000001_Node000002"><a xlink:title=" ">
<path fill="none" stroke="#63b8ff" d="M606.91,-116.09C586.95,-121.18 565.35,-126.68 546.09,-131.58"/>
<polygon fill="#63b8ff" stroke="#63b8ff" points="608.05,-119.42 616.87,-113.56 606.32,-112.63 608.05,-119.42"/>
</a>
</g>
</g>
<!-- Node11 -->
<g id="Node000011" class="node">
<title>Node11</title>
<g id="a_Node000011"><a xlink:href="classwmtk_1_1_mesh.html#a90f0fba7d6c94d2e545eb671df6af558" target="_top" xlink:title=" ">
<polygon fill="white" stroke="#666666" points="562.5,-113.5 410.5,-113.5 410.5,-83.5 562.5,-83.5 562.5,-113.5"/>
<text text-anchor="start" x="418.5" y="-101.5" font-family="Helvetica,sans-Serif" font-size="10.00">wmtk::Mesh::set_capacities</text>
<text text-anchor="middle" x="486.5" y="-90.5" font-family="Helvetica,sans-Serif" font-size="10.00">_from_flags</text>
</a>
</g>
</g>
<!-- Node1&#45;&gt;Node11 -->
<g id="edge10_Node000001_Node000011" class="edge">
<title>Node1&#45;&gt;Node11</title>
<g id="a_edge10_Node000001_Node000011"><a xlink:title=" ">
<path fill="none" stroke="#63b8ff" d="M595.5,-98.5C584.66,-98.5 573.56,-98.5 562.8,-98.5"/>
<polygon fill="#63b8ff" stroke="#63b8ff" points="595.81,-102 605.81,-98.5 595.81,-95 595.81,-102"/>
</a>
</g>
</g>
<!-- Node12 -->
<g id="Node000012" class="node">
<title>Node12</title>
<g id="a_Node000012"><a xlink:href="classwmtk_1_1dart_1_1_dart_index_accessor.html#a5ba02f9317c9f6c42e8d9569f8bcbfe7" target="_top" xlink:title=" ">
<polygon fill="white" stroke="#666666" points="570,-65.5 403,-65.5 403,-35.5 570,-35.5 570,-65.5"/>
<text text-anchor="start" x="411" y="-53.5" font-family="Helvetica,sans-Serif" font-size="10.00">wmtk::dart::DartIndexAccessor</text>
<text text-anchor="middle" x="486.5" y="-42.5" font-family="Helvetica,sans-Serif" font-size="10.00">::size</text>
</a>
</g>
</g>
<!-- Node1&#45;&gt;Node12 -->
<g id="edge11_Node000001_Node000012" class="edge">
<title>Node1&#45;&gt;Node12</title>
<g id="a_edge11_Node000001_Node000012"><a xlink:title=" ">
<path fill="none" stroke="#63b8ff" d="M606.96,-80.92C587.09,-75.86 565.61,-70.39 546.42,-65.5"/>
<polygon fill="#63b8ff" stroke="#63b8ff" points="606.32,-84.37 616.87,-83.44 608.05,-77.58 606.32,-84.37"/>
</a>
</g>
</g>
<!-- Node3 -->
<g id="Node000003" class="node">
<title>Node3</title>
<g id="a_Node000003"><a xlink:href="classwmtk_1_1_tri_mesh_1_1_tri_mesh_operation_executor.html#a54ec111e8890281195a6d2449f822f02" target="_top" xlink:title=" ">
<polygon fill="white" stroke="#666666" points="364,-281.5 185,-281.5 185,-251.5 364,-251.5 364,-281.5"/>
<text text-anchor="start" x="193" y="-269.5" font-family="Helvetica,sans-Serif" font-size="10.00">wmtk::TriMesh::TriMeshOperation</text>
<text text-anchor="middle" x="274.5" y="-258.5" font-family="Helvetica,sans-Serif" font-size="10.00">Executor::create_spine_simplices</text>
</a>
</g>
</g>
<!-- Node2&#45;&gt;Node3 -->
<g id="edge2_Node000002_Node000003" class="edge">
<title>Node2&#45;&gt;Node3</title>
<g id="a_edge2_Node000002_Node000003"><a xlink:title=" ">
<path fill="none" stroke="#63b8ff" d="M464,-168.75C441.69,-190.6 404.82,-223.35 367,-242.5 360.26,-245.91 352.99,-248.87 345.59,-251.44"/>
<polygon fill="#63b8ff" stroke="#63b8ff" points="466.65,-171.06 471.26,-161.52 461.71,-166.1 466.65,-171.06"/>
</a>
</g>
</g>
<!-- Node4 -->
<g id="Node000004" class="node">
<title>Node4</title>
<g id="a_Node000004"><a xlink:href="classwmtk_1_1_tri_mesh_1_1_tri_mesh_operation_executor.html#a3df1e4a6e6de766e419522774d6463d6" target="_top" xlink:title=" ">
<polygon fill="white" stroke="#666666" points="364,-233.5 185,-233.5 185,-203.5 364,-203.5 364,-233.5"/>
<text text-anchor="start" x="193" y="-221.5" font-family="Helvetica,sans-Serif" font-size="10.00">wmtk::TriMesh::TriMeshOperation</text>
<text text-anchor="middle" x="274.5" y="-210.5" font-family="Helvetica,sans-Serif" font-size="10.00">Executor::fill_split_facet_data</text>
</a>
</g>
</g>
<!-- Node2&#45;&gt;Node4 -->
<g id="edge3_Node000002_Node000004" class="edge">
<title>Node2&#45;&gt;Node4</title>
<g id="a_edge3_Node000002_Node000004"><a xlink:title=" ">
<path fill="none" stroke="#63b8ff" d="M442.22,-165.59C419.99,-174.99 392.32,-186.09 367,-194.5 357.49,-197.66 347.32,-200.67 337.34,-203.44"/>
<polygon fill="#63b8ff" stroke="#63b8ff" points="443.89,-168.68 451.71,-161.54 441.14,-162.25 443.89,-168.68"/>
</a>
</g>
</g>
<!-- Node5 -->
<g id="Node000005" class="node">
<title>Node5</title>
<g id="a_Node000005"><a xlink:href="classwmtk_1_1_tri_mesh_1_1_tri_mesh_operation_executor.html#a998d9ebaf1507d842fb01db91e044644" target="_top" xlink:title=" ">
<polygon fill="white" stroke="#666666" points="364,-185.5 185,-185.5 185,-155.5 364,-155.5 364,-185.5"/>
<text text-anchor="start" x="193" y="-173.5" font-family="Helvetica,sans-Serif" font-size="10.00">wmtk::TriMesh::TriMeshOperation</text>
<text text-anchor="middle" x="274.5" y="-162.5" font-family="Helvetica,sans-Serif" font-size="10.00">Executor::replace_incident_face</text>
</a>
</g>
</g>
<!-- Node2&#45;&gt;Node5 -->
<g id="edge4_Node000002_Node000005" class="edge">
<title>Node2&#45;&gt;Node5</title>
<g id="a_edge4_Node000002_Node000005"><a xlink:title=" ">
<path fill="none" stroke="#63b8ff" d="M416.5,-154.39C399.76,-156.3 381.63,-158.37 364.12,-160.37"/>
<polygon fill="#63b8ff" stroke="#63b8ff" points="417.19,-157.83 426.72,-153.22 416.39,-150.88 417.19,-157.83"/>
</a>
</g>
</g>
<!-- Node6 -->
<g id="Node000006" class="node">
<title>Node6</title>
<g id="a_Node000006"><a xlink:href="classwmtk_1_1operations_1_1_edge_operation_data.html#a80ea6d5059989a2d093179a0dbd2556d" target="_top" xlink:title=" ">
<polygon fill="white" stroke="#666666" points="364.5,-137.5 184.5,-137.5 184.5,-107.5 364.5,-107.5 364.5,-137.5"/>
<text text-anchor="start" x="192.5" y="-125.5" font-family="Helvetica,sans-Serif" font-size="10.00">wmtk::operations::EdgeOperation</text>
<text text-anchor="middle" x="274.5" y="-114.5" font-family="Helvetica,sans-Serif" font-size="10.00">Data::request_simplex_indices</text>
</a>
</g>
</g>
<!-- Node2&#45;&gt;Node6 -->
<g id="edge5_Node000002_Node000006" class="edge">
<title>Node2&#45;&gt;Node6</title>
<g id="a_edge5_Node000002_Node000006"><a xlink:title=" ">
<path fill="none" stroke="#63b8ff" d="M416.56,-138.62C399.93,-136.72 381.92,-134.66 364.52,-132.67"/>
<polygon fill="#63b8ff" stroke="#63b8ff" points="416.39,-142.12 426.72,-139.78 417.19,-135.17 416.39,-142.12"/>
</a>
</g>
</g>
<!-- Node9 -->
<g id="Node000009" class="node">
<title>Node9</title>
<g id="a_Node000009"><a xlink:href="classwmtk_1_1_tet_mesh_1_1_tet_mesh_operation_executor.html#a01f3a3bac005c290049e69e2c5330dfb" target="_top" xlink:title=" ">
<polygon fill="white" stroke="#666666" points="367,-89.5 182,-89.5 182,-59.5 367,-59.5 367,-89.5"/>
<text text-anchor="start" x="190" y="-77.5" font-family="Helvetica,sans-Serif" font-size="10.00">wmtk::TetMesh::TetMeshOperation</text>
<text text-anchor="middle" x="274.5" y="-66.5" font-family="Helvetica,sans-Serif" font-size="10.00">Executor::split_edge_precompute</text>
</a>
</g>
</g>
<!-- Node2&#45;&gt;Node9 -->
<g id="edge8_Node000002_Node000009" class="edge">
<title>Node2&#45;&gt;Node9</title>
<g id="a_edge8_Node000002_Node000009"><a xlink:title=" ">
<path fill="none" stroke="#63b8ff" d="M417.41,-128.51C412.47,-126.65 407.62,-124.65 403,-122.5 385.57,-114.39 384.54,-106.38 367,-98.5 359.51,-95.13 351.46,-92.17 343.34,-89.57"/>
<polygon fill="#63b8ff" stroke="#63b8ff" points="416.39,-131.86 426.98,-131.9 418.73,-125.26 416.39,-131.86"/>
</a>
</g>
</g>
<!-- Node10 -->
<g id="Node000010" class="node">
<title>Node10</title>
<g id="a_Node000010"><a xlink:href="classwmtk_1_1_edge_mesh_1_1_edge_mesh_operation_executor.html#acb42aca716850f7017290140eef6d94e" target="_top" xlink:title=" ">
<polygon fill="white" stroke="#666666" points="353,-41 196,-41 196,0 353,0 353,-41"/>
<text text-anchor="start" x="204" y="-29" font-family="Helvetica,sans-Serif" font-size="10.00">wmtk::EdgeMesh::EdgeMesh</text>
<text text-anchor="start" x="204" y="-18" font-family="Helvetica,sans-Serif" font-size="10.00">OperationExecutor::split</text>
<text text-anchor="middle" x="274.5" y="-7" font-family="Helvetica,sans-Serif" font-size="10.00">_edge_single_mesh</text>
</a>
</g>
</g>
<!-- Node2&#45;&gt;Node10 -->
<g id="edge9_Node000002_Node000010" class="edge">
<title>Node2&#45;&gt;Node10</title>
<g id="a_edge9_Node000002_Node000010"><a xlink:title=" ">
<path fill="none" stroke="#63b8ff" d="M417.82,-132.05C412.51,-129.39 407.48,-126.23 403,-122.5 375.52,-99.59 394.09,-73.87 367,-50.5 362.82,-46.9 358.2,-43.72 353.32,-40.93"/>
<polygon fill="#63b8ff" stroke="#63b8ff" points="416.42,-135.26 426.98,-136.08 419.24,-128.85 416.42,-135.26"/>
</a>
</g>
</g>
<!-- Node7 -->
<g id="Node000007" class="node">
<title>Node7</title>
<g id="a_Node000007"><a xlink:href="classwmtk_1_1operations_1_1internal_1_1_split_alternate_facet_data.html#a6d058aa5a832bcf22fd76c0762fe058a" target="_top" xlink:title=" ">
<polygon fill="white" stroke="#666666" points="146,-172 0,-172 0,-131 146,-131 146,-172"/>
<text text-anchor="start" x="8" y="-160" font-family="Helvetica,sans-Serif" font-size="10.00">wmtk::operations::internal</text>
<text text-anchor="start" x="8" y="-149" font-family="Helvetica,sans-Serif" font-size="10.00">::SplitAlternateFacetData</text>
<text text-anchor="middle" x="73" y="-138" font-family="Helvetica,sans-Serif" font-size="10.00">::add_facet</text>
</a>
</g>
</g>
<!-- Node6&#45;&gt;Node7 -->
<g id="edge6_Node000006_Node000007" class="edge">
<title>Node6&#45;&gt;Node7</title>
<g id="a_edge6_Node000006_Node000007"><a xlink:title=" ">
<path fill="none" stroke="#63b8ff" d="M174.35,-136.91C164.83,-138.3 155.31,-139.68 146.12,-141.02"/>
<polygon fill="#63b8ff" stroke="#63b8ff" points="174.86,-140.38 184.25,-135.47 173.85,-133.45 174.86,-140.38"/>
</a>
</g>
</g>
<!-- Node8 -->
<g id="Node000008" class="node">
<title>Node8</title>
<g id="a_Node000008"><a xlink:href="classwmtk_1_1operations_1_1internal_1_1_split_alternate_facet_data.html#aef8425cc038af71597ac0ff209f9afbc" target="_top" xlink:title=" ">
<polygon fill="white" stroke="#666666" points="146,-113 0,-113 0,-72 146,-72 146,-113"/>
<text text-anchor="start" x="8" y="-101" font-family="Helvetica,sans-Serif" font-size="10.00">wmtk::operations::internal</text>
<text text-anchor="start" x="8" y="-90" font-family="Helvetica,sans-Serif" font-size="10.00">::SplitAlternateFacetData</text>
<text text-anchor="middle" x="73" y="-79" font-family="Helvetica,sans-Serif" font-size="10.00">::SplitAlternateFacetData</text>
</a>
</g>
</g>
<!-- Node6&#45;&gt;Node8 -->
<g id="edge7_Node000006_Node000008" class="edge">
<title>Node6&#45;&gt;Node8</title>
<g id="a_edge7_Node000006_Node000008"><a xlink:title=" ">
<path fill="none" stroke="#63b8ff" d="M174.35,-107.59C164.83,-106.16 155.31,-104.73 146.12,-103.35"/>
<polygon fill="#63b8ff" stroke="#63b8ff" points="173.84,-111.05 184.25,-109.08 174.88,-104.13 173.84,-111.05"/>
</a>
</g>
</g>
</g>
</svg>

<g id="navigator" transform="translate(0 0)" fill="#404254">
  <rect fill="#f2f5e9" fill-opacity="0.5" stroke="#606060" stroke-width=".5" x="0" y="0" width="60" height="60"/>
  <use id="zoomplus" xlink:href="#zoomPlus" x="17" y="9" onmousedown="handleZoom(evt,'in')"/>
  <use id="zoomminus" xlink:href="#zoomMin" x="42" y="9" onmousedown="handleZoom(evt,'out')"/>
  <use id="reset" xlink:href="#resetDef" x="30" y="36" onmousedown="handleReset()"/>
   <use id="arrowup" xlink:href="#arrowUp" x="0" y="0" onmousedown="handlePan(0,-1)"/>
  <use id="arrowright" xlink:href="#arrowRight" x="0" y="0" onmousedown="handlePan(1,0)"/>
  <use id="arrowdown" xlink:href="#arrowDown" x="0" y="0" onmousedown="handlePan(0,1)"/>
  <use id="arrowleft" xlink:href="#arrowLeft" x="0" y="0" onmousedown="handlePan(-1,0)"/>
</g>
<svg viewBox="0 0 15 15" width="100%" height="30px" preserveAspectRatio="xMaxYMin meet">
 <g id="arrow_out" transform="scale(0.3 0.3)">
  <a xlink:href="classwmtk_1_1attribute_1_1_accessor_aab6226c738fe344ae993a7558c6de3dd_icgraph_org.svg" target="_base">
   <rect id="button" ry="5" rx="5" y="6" x="6" height="38" width="38"
        fill="#f2f5e9" fill-opacity="0.5" stroke="#606060" stroke-width="1.0"/>
   <path id="arrow"
     d="M 11.500037,31.436501 C 11.940474,20.09759 22.043105,11.32322 32.158766,21.979434 L 37.068811,17.246167 C 37.068811,17.246167 37.088388,32 37.088388,32 L 22.160133,31.978069 C 22.160133,31.978069 26.997745,27.140456 26.997745,27.140456 C 18.528582,18.264221 13.291696,25.230495 11.500037,31.436501 z"
     style="fill:#404040;"/>
  </a>
 </g>
</svg>

<style type='text/css'>
<![CDATA[
[data-mouse-over-selected='false'] { opacity: 0.7; }
[data-mouse-over-selected='true']  { opacity: 1.0; }
]]>
</style>
<script type="application/ecmascript"><![CDATA[
document.addEventListener('DOMContentLoaded', (event) => {
  highlightEdges();
  highlightAdjacentNodes();
});
]]></script>
</svg>
