<?xml version="1.0" encoding="UTF-8" standalone="no"?>
<!DOCTYPE svg PUBLIC "-//W3C//DTD SVG 1.1//EN"
 "http://www.w3.org/Graphics/SVG/1.1/DTD/svg11.dtd">
<!-- Generated by graphviz version 2.43.0 (0)
 -->
<!-- Title: wmtk::operations::AttributeTransferStrategyBase::run_on_all Pages: 1 -->
<svg width="558pt" height="112pt"
 viewBox="0.00 0.00 558.00 111.50" xmlns="http://www.w3.org/2000/svg" xmlns:xlink="http://www.w3.org/1999/xlink">
<g id="graph0" class="graph" transform="scale(1 1) rotate(0) translate(4 107.5)">
<title>wmtk::operations::AttributeTransferStrategyBase::run_on_all</title>
<!-- Node1 -->
<g id="Node000001" class="node">
<title>Node1</title>
<g id="a_Node000001"><a xlink:title=" ">
<polygon fill="#999999" stroke="#666666" points="550,-60 373,-60 373,-30 550,-30 550,-60"/>
<text text-anchor="start" x="381" y="-48" font-family="Helvetica,sans-Serif" font-size="10.00">wmtk::operations::Attribute</text>
<text text-anchor="middle" x="461.5" y="-37" font-family="Helvetica,sans-Serif" font-size="10.00">TransferStrategyBase::run_on_all</text>
</a>
</g>
</g>
<!-- Node2 -->
<g id="Node000002" class="node">
<title>Node2</title>
<g id="a_Node000002"><a xlink:href="namespacewmtk_1_1utils.html#a63f193e192f0629608e3d43f8143b6a9" target="_top" xlink:title=" ">
<polygon fill="white" stroke="#666666" points="331.5,-85.5 186.5,-85.5 186.5,-66.5 331.5,-66.5 331.5,-85.5"/>
<text text-anchor="middle" x="259" y="-73.5" font-family="Helvetica,sans-Serif" font-size="10.00">wmtk::utils::cast_attribute</text>
</a>
</g>
</g>
<!-- Node1&#45;&gt;Node2 -->
<g id="edge1_Node000001_Node000002" class="edge">
<title>Node1&#45;&gt;Node2</title>
<g id="a_edge1_Node000001_Node000002"><a xlink:title=" ">
<path fill="none" stroke="#63b8ff" d="M362.68,-60.12C348.68,-62.29 334.62,-64.46 321.58,-66.48"/>
<polygon fill="#63b8ff" stroke="#63b8ff" points="363.5,-63.54 372.85,-58.55 362.43,-56.62 363.5,-63.54"/>
</a>
</g>
</g>
<!-- Node4 -->
<g id="Node000004" class="node">
<title>Node4</title>
<g id="a_Node000004"><a xlink:href="namespacewmtk_1_1components_1_1triangle__insertion.html#a23509bfe845d018ac65e2759fb77c608" target="_top" xlink:title=" ">
<polygon fill="white" stroke="#666666" points="337,-30 181,-30 181,0 337,0 337,-30"/>
<text text-anchor="start" x="189" y="-18" font-family="Helvetica,sans-Serif" font-size="10.00">wmtk::components::triangle</text>
<text text-anchor="middle" x="259" y="-7" font-family="Helvetica,sans-Serif" font-size="10.00">_insertion::triangle_insertion</text>
</a>
</g>
</g>
<!-- Node1&#45;&gt;Node4 -->
<g id="edge4_Node000001_Node000004" class="edge">
<title>Node1&#45;&gt;Node4</title>
<g id="a_edge4_Node000001_Node000004"><a xlink:title=" ">
<path fill="none" stroke="#63b8ff" d="M362.76,-30.38C354.14,-29.09 345.5,-27.79 337.09,-26.53"/>
<polygon fill="#63b8ff" stroke="#63b8ff" points="362.44,-33.87 372.85,-31.89 363.48,-26.94 362.44,-33.87"/>
</a>
</g>
</g>
<!-- Node2&#45;&gt;Node2 -->
<g id="edge2_Node000002_Node000002" class="edge">
<title>Node2&#45;&gt;Node2</title>
<g id="a_edge2_Node000002_Node000002"><a xlink:title=" ">
<path fill="none" stroke="#63b8ff" d="M293.86,-93.57C293.35,-99.12 281.73,-103.5 259,-103.5 225.94,-103.5 216.39,-94.23 230.33,-85.58"/>
<polygon fill="#63b8ff" stroke="#63b8ff" points="296.56,-91.34 287.67,-85.58 291.03,-95.63 296.56,-91.34"/>
</a>
</g>
</g>
<!-- Node3 -->
<g id="Node000003" class="node">
<title>Node3</title>
<g id="a_Node000003"><a xlink:href="namespacewmtk_1_1utils.html#a216f2306e90d409a64e86d49e5ef31e2" target="_top" xlink:title=" ">
<polygon fill="white" stroke="#666666" points="145,-85.5 0,-85.5 0,-66.5 145,-66.5 145,-85.5"/>
<text text-anchor="middle" x="72.5" y="-73.5" font-family="Helvetica,sans-Serif" font-size="10.00">wmtk::utils::cast_attribute</text>
</a>
</g>
</g>
<!-- Node2&#45;&gt;Node3 -->
<g id="edge3_Node000002_Node000003" class="edge">
<title>Node2&#45;&gt;Node3</title>
<g id="a_edge3_Node000002_Node000003"><a xlink:title=" ">
<path fill="none" stroke="#63b8ff" d="M176.13,-76C165.77,-76 155.24,-76 145.06,-76"/>
<polygon fill="#63b8ff" stroke="#63b8ff" points="176.4,-79.5 186.4,-76 176.4,-72.5 176.4,-79.5"/>
</a>
</g>
</g>
<!-- Node4&#45;&gt;Node4 -->
<g id="edge5_Node000004_Node000004" class="edge">
<title>Node4&#45;&gt;Node4</title>
<g id="a_edge5_Node000004_Node000004"><a xlink:title=" ">
<path fill="none" stroke="#63b8ff" d="M291.56,-40.6C287.11,-44.97 276.26,-48 259,-48 229.94,-48 219.04,-39.41 226.3,-30.28"/>
<polygon fill="#63b8ff" stroke="#63b8ff" points="295.06,-40.32 291.7,-30.28 288.06,-40.23 295.06,-40.32"/>
</a>
</g>
</g>
</g>
</svg>
