<?xml version="1.0" encoding="UTF-8" standalone="no"?>
<!DOCTYPE svg PUBLIC "-//W3C//DTD SVG 1.1//EN"
 "http://www.w3.org/Graphics/SVG/1.1/DTD/svg11.dtd">
<!-- Generated by graphviz version 2.43.0 (0)
 -->
<!-- Title: wmtk::operations::edge_mesh::SplitNewAttributeTopoInfo::input_ear_simplices Pages: 1 -->
<svg width="1600pt" height="573pt"
 viewBox="0.00 0.00 1600.00 572.50" xmlns="http://www.w3.org/2000/svg" xmlns:xlink="http://www.w3.org/1999/xlink">
<g id="graph0" class="graph" transform="scale(1 1) rotate(0) translate(4 568.5)">
<title>wmtk::operations::edge_mesh::SplitNewAttributeTopoInfo::input_ear_simplices</title>
<!-- Node1 -->
<g id="Node000001" class="node">
<title>Node1</title>
<g id="a_Node000001"><a xlink:title=" ">
<polygon fill="#999999" stroke="#666666" points="164,-503 0,-503 0,-462 164,-462 164,-503"/>
<text text-anchor="start" x="8" y="-491" font-family="Helvetica,sans-Serif" font-size="10.00">wmtk::operations::edge</text>
<text text-anchor="start" x="8" y="-480" font-family="Helvetica,sans-Serif" font-size="10.00">_mesh::SplitNewAttributeTopo</text>
<text text-anchor="middle" x="82" y="-469" font-family="Helvetica,sans-Serif" font-size="10.00">Info::input_ear_simplices</text>
</a>
</g>
</g>
<!-- Node2 -->
<g id="Node000002" class="node">
<title>Node2</title>
<g id="a_Node000002"><a xlink:href="namespacewmtk.html#a5cf45c152e856196bb734c6f48919a24" target="_top" xlink:title="Get a unique integer id corresponding to each primitive type.">
<polygon fill="white" stroke="#666666" points="1579,-379.5 1463,-379.5 1463,-349.5 1579,-349.5 1579,-379.5"/>
<text text-anchor="start" x="1471" y="-367.5" font-family="Helvetica,sans-Serif" font-size="10.00">wmtk::get_primitive</text>
<text text-anchor="middle" x="1521" y="-356.5" font-family="Helvetica,sans-Serif" font-size="10.00">_type_id</text>
</a>
</g>
</g>
<!-- Node1&#45;&gt;Node2 -->
<g id="edge1_Node000001_Node000002" class="edge">
<title>Node1&#45;&gt;Node2</title>
<g id="a_edge1_Node000001_Node000002"><a xlink:title=" ">
<path fill="none" stroke="#63b8ff" d="M139.66,-503.09C211.69,-527.38 340.38,-564.5 454,-564.5 454,-564.5 454,-564.5 1151.5,-564.5 1299.28,-564.5 1444.42,-438.72 1498.17,-386.66"/>
<polygon fill="#63b8ff" stroke="#63b8ff" points="1500.74,-389.04 1505.43,-379.53 1495.84,-384.04 1500.74,-389.04"/>
</a>
</g>
</g>
<!-- Node3 -->
<g id="Node000003" class="node">
<title>Node3</title>
<g id="a_Node000003"><a xlink:href="classwmtk_1_1operations_1_1edge__mesh_1_1_edge_operation_data.html#a1953b7fc9b69dc5fb1adaac297a8b7d7" target="_top" xlink:title=" ">
<polygon fill="white" stroke="#666666" points="350,-503 200,-503 200,-462 350,-462 350,-503"/>
<text text-anchor="start" x="208" y="-491" font-family="Helvetica,sans-Serif" font-size="10.00">wmtk::operations::edge</text>
<text text-anchor="start" x="208" y="-480" font-family="Helvetica,sans-Serif" font-size="10.00">_mesh::EdgeOperationData</text>
<text text-anchor="middle" x="275" y="-469" font-family="Helvetica,sans-Serif" font-size="10.00">::input_endpoints</text>
</a>
</g>
</g>
<!-- Node1&#45;&gt;Node3 -->
<g id="edge2_Node000001_Node000003" class="edge">
<title>Node1&#45;&gt;Node3</title>
<g id="a_edge2_Node000001_Node000003"><a xlink:title=" ">
<path fill="none" stroke="#63b8ff" d="M164,-482.5C172.55,-482.5 181.26,-482.5 189.85,-482.5"/>
<polygon fill="#63b8ff" stroke="#63b8ff" points="189.85,-486 199.85,-482.5 189.85,-479 189.85,-486"/>
</a>
</g>
</g>
<!-- Node26 -->
<g id="Node000026" class="node">
<title>Node26</title>
<g id="a_Node000026"><a xlink:href="classwmtk_1_1_mesh.html#ac5778c1f8afef3a2b1b1c33a140b3166" target="_top" xlink:title="Evaluate the passed in function inside the parent scope.">
<polygon fill="white" stroke="#666666" points="332,-443.5 218,-443.5 218,-413.5 332,-413.5 332,-443.5"/>
<text text-anchor="start" x="226" y="-431.5" font-family="Helvetica,sans-Serif" font-size="10.00">wmtk::Mesh::parent</text>
<text text-anchor="middle" x="275" y="-420.5" font-family="Helvetica,sans-Serif" font-size="10.00">_scope</text>
</a>
</g>
</g>
<!-- Node1&#45;&gt;Node26 -->
<g id="edge35_Node000001_Node000026" class="edge">
<title>Node1&#45;&gt;Node26</title>
<g id="a_edge35_Node000001_Node000026"><a xlink:title=" ">
<path fill="none" stroke="#63b8ff" d="M155.75,-461.93C173.99,-456.78 193.4,-451.29 211.11,-446.28"/>
<polygon fill="#63b8ff" stroke="#63b8ff" points="212.08,-449.64 220.75,-443.55 210.18,-442.91 212.08,-449.64"/>
</a>
</g>
</g>
<!-- Node4 -->
<g id="Node000004" class="node">
<title>Node4</title>
<g id="a_Node000004"><a xlink:href="classwmtk_1_1_edge_mesh.html#a46725851b572b51a356450adc30c14ed" target="_top" xlink:title="switch the orientation of the Tuple of the given dimension">
<polygon fill="white" stroke="#666666" points="524,-465.5 386,-465.5 386,-435.5 524,-435.5 524,-465.5"/>
<text text-anchor="start" x="394" y="-453.5" font-family="Helvetica,sans-Serif" font-size="10.00">wmtk::EdgeMesh::switch</text>
<text text-anchor="middle" x="455" y="-442.5" font-family="Helvetica,sans-Serif" font-size="10.00">_tuple</text>
</a>
</g>
</g>
<!-- Node3&#45;&gt;Node4 -->
<g id="edge3_Node000003_Node000004" class="edge">
<title>Node3&#45;&gt;Node4</title>
<g id="a_edge3_Node000003_Node000004"><a xlink:title=" ">
<path fill="none" stroke="#63b8ff" d="M350.2,-469.16C358.7,-467.63 367.39,-466.07 375.94,-464.53"/>
<polygon fill="#63b8ff" stroke="#63b8ff" points="376.67,-467.96 385.89,-462.74 375.43,-461.07 376.67,-467.96"/>
</a>
</g>
</g>
<!-- Node5 -->
<g id="Node000005" class="node">
<title>Node5</title>
<g id="a_Node000005"><a xlink:href="classwmtk_1_1attribute_1_1_accessor.html#ad6fb9ed9ff56571fe257bf0f4b542368" target="_top" xlink:title=" ">
<polygon fill="white" stroke="#666666" points="877,-522.5 735,-522.5 735,-492.5 877,-492.5 877,-522.5"/>
<text text-anchor="start" x="743" y="-510.5" font-family="Helvetica,sans-Serif" font-size="10.00">wmtk::attribute::Accessor</text>
<text text-anchor="middle" x="806" y="-499.5" font-family="Helvetica,sans-Serif" font-size="10.00">::const_vector_attribute</text>
</a>
</g>
</g>
<!-- Node4&#45;&gt;Node5 -->
<g id="edge4_Node000004_Node000005" class="edge">
<title>Node4&#45;&gt;Node5</title>
<g id="a_edge4_Node000004_Node000005"><a xlink:title=" ">
<path fill="none" stroke="#63b8ff" d="M524.12,-461.63C581.71,-471.03 664.31,-484.52 725.03,-494.44"/>
<polygon fill="#63b8ff" stroke="#63b8ff" points="724.53,-497.9 734.96,-496.06 725.66,-490.99 724.53,-497.9"/>
</a>
</g>
</g>
<!-- Node6 -->
<g id="Node000006" class="node">
<title>Node6</title>
<g id="a_Node000006"><a xlink:href="classwmtk_1_1attribute_1_1_caching_accessor.html#ab850fe07669c7bc92ca6cf6e86c60ee0" target="_top" xlink:title=" ">
<polygon fill="white" stroke="#666666" points="1219,-429 1082,-429 1082,-388 1219,-388 1219,-429"/>
<text text-anchor="start" x="1090" y="-417" font-family="Helvetica,sans-Serif" font-size="10.00">wmtk::attribute::Caching</text>
<text text-anchor="start" x="1090" y="-406" font-family="Helvetica,sans-Serif" font-size="10.00">Accessor::const_vector</text>
<text text-anchor="middle" x="1150.5" y="-395" font-family="Helvetica,sans-Serif" font-size="10.00">_attribute</text>
</a>
</g>
</g>
<!-- Node4&#45;&gt;Node6 -->
<g id="edge5_Node000004_Node000006" class="edge">
<title>Node4&#45;&gt;Node6</title>
<g id="a_edge5_Node000004_Node000006"><a xlink:title=" ">
<path fill="none" stroke="#63b8ff" d="M524.15,-440.47C536.08,-438.96 548.39,-437.56 560,-436.5 742.81,-419.89 958.46,-412.81 1071.46,-410.06"/>
<polygon fill="#63b8ff" stroke="#63b8ff" points="1071.82,-413.56 1081.74,-409.82 1071.65,-406.56 1071.82,-413.56"/>
</a>
</g>
</g>
<!-- Node7 -->
<g id="Node000007" class="node">
<title>Node7</title>
<g id="a_Node000007"><a xlink:href="classwmtk_1_1_edge_mesh.html#a34530ca80c07ae67ffe601c2b8f22e3e" target="_top" xlink:title=" ">
<polygon fill="white" stroke="#666666" points="687.5,-536 571.5,-536 571.5,-517 687.5,-517 687.5,-536"/>
<text text-anchor="middle" x="629.5" y="-524" font-family="Helvetica,sans-Serif" font-size="10.00">wmtk::EdgeMesh::id</text>
</a>
</g>
</g>
<!-- Node4&#45;&gt;Node7 -->
<g id="edge6_Node000004_Node000007" class="edge">
<title>Node4&#45;&gt;Node7</title>
<g id="a_edge6_Node000004_Node000007"><a xlink:title=" ">
<path fill="none" stroke="#63b8ff" d="M483.8,-465.61C504.49,-476.55 533.6,-491.33 560,-502.5 569.22,-506.4 579.31,-510.19 588.84,-513.56"/>
<polygon fill="#63b8ff" stroke="#63b8ff" points="587.92,-516.95 598.52,-516.91 590.21,-510.33 587.92,-516.95"/>
</a>
</g>
</g>
<!-- Node8 -->
<g id="Node000008" class="node">
<title>Node8</title>
<g id="a_Node000008"><a xlink:href="classwmtk_1_1attribute_1_1_accessor.html#a2d587e12c47a6d839ab80e9198cf75b5" target="_top" xlink:title=" ">
<polygon fill="white" stroke="#666666" points="1412,-283.5 1270,-283.5 1270,-253.5 1412,-253.5 1412,-283.5"/>
<text text-anchor="start" x="1278" y="-271.5" font-family="Helvetica,sans-Serif" font-size="10.00">wmtk::attribute::Accessor</text>
<text text-anchor="middle" x="1341" y="-260.5" font-family="Helvetica,sans-Serif" font-size="10.00">::index_access</text>
</a>
</g>
</g>
<!-- Node4&#45;&gt;Node8 -->
<g id="edge8_Node000004_Node000008" class="edge">
<title>Node4&#45;&gt;Node8</title>
<g id="a_edge8_Node000004_Node000008"><a xlink:title=" ">
<path fill="none" stroke="#63b8ff" d="M524.09,-454.11C703.18,-462.95 1177.41,-481.95 1232,-438.5 1284.29,-396.88 1222.67,-341.61 1268,-292.5 1268.78,-291.65 1269.59,-290.84 1270.43,-290.05"/>
<polygon fill="#63b8ff" stroke="#63b8ff" points="1272.88,-292.58 1278.66,-283.7 1268.61,-287.04 1272.88,-292.58"/>
</a>
</g>
</g>
<!-- Node10 -->
<g id="Node000010" class="node">
<title>Node10</title>
<g id="a_Node000010"><a xlink:href="classwmtk_1_1_edge_mesh.html#a83db0c93833dacdfb169807d8ba4b6ca" target="_top" xlink:title="TODO this needs dimension?">
<polygon fill="white" stroke="#666666" points="699,-357 560,-357 560,-338 699,-338 699,-357"/>
<text text-anchor="middle" x="629.5" y="-345" font-family="Helvetica,sans-Serif" font-size="10.00">wmtk::EdgeMesh::is_ccw</text>
</a>
</g>
</g>
<!-- Node4&#45;&gt;Node10 -->
<g id="edge10_Node000004_Node000010" class="edge">
<title>Node4&#45;&gt;Node10</title>
<g id="a_edge10_Node000004_Node000010"><a xlink:title=" ">
<path fill="none" stroke="#63b8ff" d="M481.45,-435.3C514.21,-415.74 570.76,-381.97 603.36,-362.51"/>
<polygon fill="#63b8ff" stroke="#63b8ff" points="605.48,-365.32 612.27,-357.19 601.89,-359.31 605.48,-365.32"/>
</a>
</g>
</g>
<!-- Node11 -->
<g id="Node000011" class="node">
<title>Node11</title>
<g id="a_Node000011"><a xlink:href="classwmtk_1_1_edge_mesh.html#acd802c89cf0cba9c312a8e7ecfa11c80" target="_top" xlink:title="check validity of tuple including its hash">
<polygon fill="white" stroke="#666666" points="863.5,-262.5 748.5,-262.5 748.5,-232.5 863.5,-232.5 863.5,-262.5"/>
<text text-anchor="start" x="756.5" y="-250.5" font-family="Helvetica,sans-Serif" font-size="10.00">wmtk::EdgeMesh::is</text>
<text text-anchor="middle" x="806" y="-239.5" font-family="Helvetica,sans-Serif" font-size="10.00">_valid</text>
</a>
</g>
</g>
<!-- Node4&#45;&gt;Node11 -->
<g id="edge34_Node000004_Node000011" class="edge">
<title>Node4&#45;&gt;Node11</title>
<g id="a_edge34_Node000004_Node000011"><a xlink:title=" ">
<path fill="none" stroke="#63b8ff" d="M464.93,-435.43C480.85,-409.81 516.58,-357.7 560,-328.5 614.28,-291.99 686.34,-270.78 738.25,-259.29"/>
<polygon fill="#63b8ff" stroke="#63b8ff" points="739.31,-262.64 748.35,-257.12 737.84,-255.8 739.31,-262.64"/>
</a>
</g>
</g>
<!-- Node7&#45;&gt;Node5 -->
<g id="edge7_Node000007_Node000005" class="edge">
<title>Node7&#45;&gt;Node5</title>
<g id="a_edge7_Node000007_Node000005"><a xlink:title=" ">
<path fill="none" stroke="#63b8ff" d="M687.64,-520.28C699.56,-518.98 712.34,-517.59 724.91,-516.22"/>
<polygon fill="#63b8ff" stroke="#63b8ff" points="725.37,-519.69 734.94,-515.13 724.62,-512.73 725.37,-519.69"/>
</a>
</g>
</g>
<!-- Node9 -->
<g id="Node000009" class="node">
<title>Node9</title>
<g id="a_Node000009"><a xlink:href="classwmtk_1_1attribute_1_1_accessor.html#afd97a48ec5d1db975a030428df81f617" target="_top" xlink:title=" ">
<polygon fill="white" stroke="#666666" points="1592,-283.5 1450,-283.5 1450,-253.5 1592,-253.5 1592,-283.5"/>
<text text-anchor="start" x="1458" y="-271.5" font-family="Helvetica,sans-Serif" font-size="10.00">wmtk::attribute::Accessor</text>
<text text-anchor="middle" x="1521" y="-260.5" font-family="Helvetica,sans-Serif" font-size="10.00">::caching_base_type</text>
</a>
</g>
</g>
<!-- Node8&#45;&gt;Node9 -->
<g id="edge9_Node000008_Node000009" class="edge">
<title>Node8&#45;&gt;Node9</title>
<g id="a_edge9_Node000008_Node000009"><a xlink:title=" ">
<path fill="none" stroke="#63b8ff" d="M1412.09,-268.5C1421.24,-268.5 1430.66,-268.5 1439.96,-268.5"/>
<polygon fill="#63b8ff" stroke="#63b8ff" points="1439.97,-272 1449.97,-268.5 1439.97,-265 1439.97,-272"/>
</a>
</g>
</g>
<!-- Node10&#45;&gt;Node11 -->
<g id="edge11_Node000010_Node000011" class="edge">
<title>Node10&#45;&gt;Node11</title>
<g id="a_edge11_Node000010_Node000011"><a xlink:title=" ">
<path fill="none" stroke="#63b8ff" d="M647.23,-337.91C675.31,-321.82 732.48,-289.06 769.74,-267.71"/>
<polygon fill="#63b8ff" stroke="#63b8ff" points="771.81,-270.55 778.75,-262.54 768.33,-264.48 771.81,-270.55"/>
</a>
</g>
</g>
<!-- Node12 -->
<g id="Node000012" class="node">
<title>Node12</title>
<g id="a_Node000012"><a xlink:href="classwmtk_1_1_edge_mesh.html#a3bf6f960d630d1e3a79a09c71a43100f" target="_top" xlink:title=" ">
<polygon fill="white" stroke="#666666" points="1030.5,-262.5 915.5,-262.5 915.5,-232.5 1030.5,-232.5 1030.5,-262.5"/>
<text text-anchor="start" x="923.5" y="-250.5" font-family="Helvetica,sans-Serif" font-size="10.00">wmtk::EdgeMesh::is</text>
<text text-anchor="middle" x="973" y="-239.5" font-family="Helvetica,sans-Serif" font-size="10.00">_connectivity_valid</text>
</a>
</g>
</g>
<!-- Node11&#45;&gt;Node12 -->
<g id="edge12_Node000011_Node000012" class="edge">
<title>Node11&#45;&gt;Node12</title>
<g id="a_edge12_Node000011_Node000012"><a xlink:title=" ">
<path fill="none" stroke="#63b8ff" d="M863.78,-247.5C877.08,-247.5 891.37,-247.5 905.06,-247.5"/>
<polygon fill="#63b8ff" stroke="#63b8ff" points="905.39,-251 915.39,-247.5 905.39,-244 905.39,-251"/>
</a>
</g>
</g>
<!-- Node21 -->
<g id="Node000021" class="node">
<title>Node21</title>
<g id="a_Node000021"><a xlink:href="namespacewmtk.html#a6a35f11c12436093d26fdd8be6fecc06" target="_top" xlink:title="Retrieves the current logger.">
<polygon fill="white" stroke="#666666" points="1191,-111 1110,-111 1110,-92 1191,-92 1191,-111"/>
<text text-anchor="middle" x="1150.5" y="-99" font-family="Helvetica,sans-Serif" font-size="10.00">wmtk::logger</text>
</a>
</g>
</g>
<!-- Node11&#45;&gt;Node21 -->
<g id="edge33_Node000011_Node000021" class="edge">
<title>Node11&#45;&gt;Node21</title>
<g id="a_edge33_Node000011_Node000021"><a xlink:title=" ">
<path fill="none" stroke="#63b8ff" d="M833.31,-232.32C879.6,-206.19 979.22,-152.42 1069,-120.5 1078.84,-117 1089.59,-113.96 1099.94,-111.39"/>
<polygon fill="#63b8ff" stroke="#63b8ff" points="1100.77,-114.79 1109.69,-109.08 1099.15,-107.98 1100.77,-114.79"/>
</a>
</g>
</g>
<!-- Node23 -->
<g id="Node000023" class="node">
<title>Node23</title>
<g id="a_Node000023"><a xlink:href="classwmtk_1_1_mesh.html#a8cc8686f0688613806f43720b6db49e7" target="_top" xlink:title="check validity of tuple including its hash">
<polygon fill="white" stroke="#666666" points="1033,-74 913,-74 913,-55 1033,-55 1033,-74"/>
<text text-anchor="middle" x="973" y="-62" font-family="Helvetica,sans-Serif" font-size="10.00">wmtk::Mesh::is_valid</text>
</a>
</g>
</g>
<!-- Node11&#45;&gt;Node23 -->
<g id="edge29_Node000011_Node000023" class="edge">
<title>Node11&#45;&gt;Node23</title>
<g id="a_edge29_Node000011_Node000023"><a xlink:title=" ">
<path fill="none" stroke="#63b8ff" d="M820.78,-232.21C851.33,-198.33 924.54,-117.14 956.56,-81.62"/>
<polygon fill="#63b8ff" stroke="#63b8ff" points="959.33,-83.78 963.43,-74.01 954.13,-79.09 959.33,-83.78"/>
</a>
</g>
</g>
<!-- Node12&#45;&gt;Node6 -->
<g id="edge16_Node000012_Node000006" class="edge">
<title>Node12&#45;&gt;Node6</title>
<g id="a_edge16_Node000012_Node000006"><a xlink:title=" ">
<path fill="none" stroke="#63b8ff" d="M981.99,-262.7C996.28,-288.61 1028.55,-341.62 1069,-373.5 1073.34,-376.92 1078.06,-380.07 1082.98,-382.97"/>
<polygon fill="#63b8ff" stroke="#63b8ff" points="1081.53,-386.16 1091.98,-387.89 1084.89,-380.02 1081.53,-386.16"/>
</a>
</g>
</g>
<!-- Node12&#45;&gt;Node8 -->
<g id="edge21_Node000012_Node000008" class="edge">
<title>Node12&#45;&gt;Node8</title>
<g id="a_edge21_Node000012_Node000008"><a xlink:title=" ">
<path fill="none" stroke="#63b8ff" d="M1030.79,-250.76C1092.22,-254.28 1190.65,-259.93 1259.92,-263.91"/>
<polygon fill="#63b8ff" stroke="#63b8ff" points="1259.74,-267.4 1269.92,-264.48 1260.14,-260.41 1259.74,-267.4"/>
</a>
</g>
</g>
<!-- Node13 -->
<g id="Node000013" class="node">
<title>Node13</title>
<g id="a_Node000013"><a xlink:href="classwmtk_1_1_mesh.html#a3e8ff83c4a5526a40d18bb9883c6c6c9" target="_top" xlink:title="read in the m_capacities return the upper bound for the number of entities of the given dimension">
<polygon fill="white" stroke="#666666" points="1403,-371 1279,-371 1279,-352 1403,-352 1403,-371"/>
<text text-anchor="middle" x="1341" y="-359" font-family="Helvetica,sans-Serif" font-size="10.00">wmtk::Mesh::capacity</text>
</a>
</g>
</g>
<!-- Node12&#45;&gt;Node13 -->
<g id="edge13_Node000012_Node000013" class="edge">
<title>Node12&#45;&gt;Node13</title>
<g id="a_edge13_Node000012_Node000013"><a xlink:title=" ">
<path fill="none" stroke="#63b8ff" d="M984.14,-262.68C999.57,-284.33 1031.17,-323.33 1069,-340.5 1132.11,-369.14 1211.99,-371.83 1268.64,-368.92"/>
<polygon fill="#63b8ff" stroke="#63b8ff" points="1269.16,-372.4 1278.94,-368.32 1268.75,-365.41 1269.16,-372.4"/>
</a>
</g>
</g>
<!-- Node14 -->
<g id="Node000014" class="node">
<title>Node14</title>
<g id="a_Node000014"><a xlink:href="classwmtk_1_1attribute_1_1_caching_accessor.html#a196b6b32e2495b971113d552be7f45d9" target="_top" xlink:title=" ">
<polygon fill="white" stroke="#666666" points="1409.5,-227 1272.5,-227 1272.5,-186 1409.5,-186 1409.5,-227"/>
<text text-anchor="start" x="1280.5" y="-215" font-family="Helvetica,sans-Serif" font-size="10.00">wmtk::attribute::Caching</text>
<text text-anchor="start" x="1280.5" y="-204" font-family="Helvetica,sans-Serif" font-size="10.00">Accessor::const_scalar</text>
<text text-anchor="middle" x="1341" y="-193" font-family="Helvetica,sans-Serif" font-size="10.00">_attribute</text>
</a>
</g>
</g>
<!-- Node12&#45;&gt;Node14 -->
<g id="edge15_Node000012_Node000014" class="edge">
<title>Node12&#45;&gt;Node14</title>
<g id="a_edge15_Node000012_Node000014"><a xlink:title=" ">
<path fill="none" stroke="#63b8ff" d="M1030.79,-241.14C1092.89,-234.18 1192.8,-222.99 1262.17,-215.22"/>
<polygon fill="#63b8ff" stroke="#63b8ff" points="1262.63,-218.69 1272.18,-214.1 1261.85,-211.73 1262.63,-218.69"/>
</a>
</g>
</g>
<!-- Node15 -->
<g id="Node000015" class="node">
<title>Node15</title>
<g id="a_Node000015"><a xlink:href="classwmtk_1_1_mesh.html#ae3493915b766f0f34f0a9e89603d5773" target="_top" xlink:title=" ">
<polygon fill="white" stroke="#666666" points="1211.5,-331.5 1089.5,-331.5 1089.5,-301.5 1211.5,-301.5 1211.5,-331.5"/>
<text text-anchor="start" x="1097.5" y="-319.5" font-family="Helvetica,sans-Serif" font-size="10.00">wmtk::Mesh::get_flag</text>
<text text-anchor="middle" x="1150.5" y="-308.5" font-family="Helvetica,sans-Serif" font-size="10.00">_accessor</text>
</a>
</g>
</g>
<!-- Node12&#45;&gt;Node15 -->
<g id="edge17_Node000012_Node000015" class="edge">
<title>Node12&#45;&gt;Node15</title>
<g id="a_edge17_Node000012_Node000015"><a xlink:title=" ">
<path fill="none" stroke="#63b8ff" d="M1008.56,-262.57C1026.5,-270.26 1048.83,-279.63 1069,-287.5 1077.94,-290.99 1087.48,-294.56 1096.77,-297.95"/>
<polygon fill="#63b8ff" stroke="#63b8ff" points="1095.72,-301.3 1106.31,-301.42 1098.1,-294.72 1095.72,-301.3"/>
</a>
</g>
</g>
<!-- Node18 -->
<g id="Node000018" class="node">
<title>Node18</title>
<g id="a_Node000018"><a xlink:href="classwmtk_1_1attribute_1_1_flag_accessor.html#a4f49a666c3811fee9b841c1cd1f66250" target="_top" xlink:title=" ">
<polygon fill="white" stroke="#666666" points="1232,-207.5 1069,-207.5 1069,-177.5 1232,-177.5 1232,-207.5"/>
<text text-anchor="start" x="1077" y="-195.5" font-family="Helvetica,sans-Serif" font-size="10.00">wmtk::attribute::FlagAccessor</text>
<text text-anchor="middle" x="1150.5" y="-184.5" font-family="Helvetica,sans-Serif" font-size="10.00">::index_access</text>
</a>
</g>
</g>
<!-- Node12&#45;&gt;Node18 -->
<g id="edge22_Node000012_Node000018" class="edge">
<title>Node12&#45;&gt;Node18</title>
<g id="a_edge22_Node000012_Node000018"><a xlink:title=" ">
<path fill="none" stroke="#63b8ff" d="M1021.96,-232.47C1043.53,-225.71 1069.17,-217.68 1091.78,-210.59"/>
<polygon fill="#63b8ff" stroke="#63b8ff" points="1093.11,-213.84 1101.6,-207.51 1091.01,-207.16 1093.11,-213.84"/>
</a>
</g>
</g>
<!-- Node19 -->
<g id="Node000019" class="node">
<title>Node19</title>
<g id="a_Node000019"><a xlink:href="classwmtk_1_1attribute_1_1_index_flag_accessor.html#a195252af3f6230f09f0c1379cbec7240" target="_top" xlink:title=" ">
<polygon fill="white" stroke="#666666" points="1223.5,-159.5 1077.5,-159.5 1077.5,-129.5 1223.5,-129.5 1223.5,-159.5"/>
<text text-anchor="start" x="1085.5" y="-147.5" font-family="Helvetica,sans-Serif" font-size="10.00">wmtk::attribute::IndexFlag</text>
<text text-anchor="middle" x="1150.5" y="-136.5" font-family="Helvetica,sans-Serif" font-size="10.00">Accessor::is_active</text>
</a>
</g>
</g>
<!-- Node12&#45;&gt;Node19 -->
<g id="edge23_Node000012_Node000019" class="edge">
<title>Node12&#45;&gt;Node19</title>
<g id="a_edge23_Node000012_Node000019"><a xlink:title=" ">
<path fill="none" stroke="#63b8ff" d="M988.39,-232.26C1005.88,-214.56 1037.04,-185.62 1069,-168.5 1072.44,-166.65 1076.05,-164.93 1079.75,-163.33"/>
<polygon fill="#63b8ff" stroke="#63b8ff" points="1081.1,-166.56 1089.07,-159.58 1078.49,-160.06 1081.1,-166.56"/>
</a>
</g>
</g>
<!-- Node12&#45;&gt;Node21 -->
<g id="edge27_Node000012_Node000021" class="edge">
<title>Node12&#45;&gt;Node21</title>
<g id="a_edge27_Node000012_Node000021"><a xlink:title=" ">
<path fill="none" stroke="#63b8ff" d="M985.24,-232.2C1009.76,-198.84 1066.12,-122.39 1069,-120.5 1078.2,-114.47 1089.09,-110.35 1099.85,-107.54"/>
<polygon fill="#63b8ff" stroke="#63b8ff" points="1100.66,-110.94 1109.63,-105.3 1099.1,-104.12 1100.66,-110.94"/>
</a>
</g>
</g>
<!-- Node13&#45;&gt;Node2 -->
<g id="edge14_Node000013_Node000002" class="edge">
<title>Node13&#45;&gt;Node2</title>
<g id="a_edge14_Node000013_Node000002"><a xlink:title=" ">
<path fill="none" stroke="#63b8ff" d="M1403.26,-362.53C1419.1,-362.8 1436.24,-363.09 1452.38,-363.36"/>
<polygon fill="#63b8ff" stroke="#63b8ff" points="1452.76,-366.87 1462.82,-363.54 1452.88,-359.87 1452.76,-366.87"/>
</a>
</g>
</g>
<!-- Node16 -->
<g id="Node000016" class="node">
<title>Node16</title>
<g id="a_Node000016"><a xlink:href="classwmtk_1_1_mesh.html#acfa981b31f00aef4438ff5e73bbce2f4" target="_top" xlink:title=" ">
<polygon fill="white" stroke="#666666" points="1406,-331.5 1276,-331.5 1276,-301.5 1406,-301.5 1406,-331.5"/>
<text text-anchor="start" x="1284" y="-319.5" font-family="Helvetica,sans-Serif" font-size="10.00">wmtk::Mesh::get_const</text>
<text text-anchor="middle" x="1341" y="-308.5" font-family="Helvetica,sans-Serif" font-size="10.00">_flag_accessor</text>
</a>
</g>
</g>
<!-- Node15&#45;&gt;Node16 -->
<g id="edge18_Node000015_Node000016" class="edge">
<title>Node15&#45;&gt;Node16</title>
<g id="a_edge18_Node000015_Node000016"><a xlink:title=" ">
<path fill="none" stroke="#63b8ff" d="M1211.66,-316.5C1228.85,-316.5 1247.8,-316.5 1265.73,-316.5"/>
<polygon fill="#63b8ff" stroke="#63b8ff" points="1265.86,-320 1275.86,-316.5 1265.86,-313 1265.86,-320"/>
</a>
</g>
</g>
<!-- Node16&#45;&gt;Node2 -->
<g id="edge20_Node000016_Node000002" class="edge">
<title>Node16&#45;&gt;Node2</title>
<g id="a_edge20_Node000016_Node000002"><a xlink:title=" ">
<path fill="none" stroke="#63b8ff" d="M1397.83,-331.56C1415.81,-336.4 1435.89,-341.82 1454.5,-346.84"/>
<polygon fill="#63b8ff" stroke="#63b8ff" points="1453.8,-350.27 1464.37,-349.5 1455.62,-343.51 1453.8,-350.27"/>
</a>
</g>
</g>
<!-- Node17 -->
<g id="Node000017" class="node">
<title>Node17</title>
<g id="a_Node000017"><a xlink:href="classwmtk_1_1_mesh.html#a357182137d99f1e4a7ff536eadfc0e56" target="_top" xlink:title=" ">
<polygon fill="white" stroke="#666666" points="1577.5,-331.5 1464.5,-331.5 1464.5,-301.5 1577.5,-301.5 1577.5,-331.5"/>
<text text-anchor="start" x="1472.5" y="-319.5" font-family="Helvetica,sans-Serif" font-size="10.00">wmtk::Mesh::create</text>
<text text-anchor="middle" x="1521" y="-308.5" font-family="Helvetica,sans-Serif" font-size="10.00">_const_accessor</text>
</a>
</g>
</g>
<!-- Node16&#45;&gt;Node17 -->
<g id="edge19_Node000016_Node000017" class="edge">
<title>Node16&#45;&gt;Node17</title>
<g id="a_edge19_Node000016_Node000017"><a xlink:title=" ">
<path fill="none" stroke="#63b8ff" d="M1406.01,-316.5C1421.63,-316.5 1438.36,-316.5 1454.06,-316.5"/>
<polygon fill="#63b8ff" stroke="#63b8ff" points="1454.21,-320 1464.21,-316.5 1454.21,-313 1454.21,-320"/>
</a>
</g>
</g>
<!-- Node19&#45;&gt;Node8 -->
<g id="edge26_Node000019_Node000008" class="edge">
<title>Node19&#45;&gt;Node8</title>
<g id="a_edge26_Node000019_Node000008"><a xlink:title=" ">
<path fill="none" stroke="#63b8ff" d="M1218.26,-159.66C1223.16,-162.17 1227.82,-165.09 1232,-168.5 1258.21,-189.85 1243.35,-212.37 1268,-235.5 1273.38,-240.55 1279.66,-244.93 1286.23,-248.7"/>
<polygon fill="#63b8ff" stroke="#63b8ff" points="1284.84,-251.92 1295.32,-253.47 1288.09,-245.72 1284.84,-251.92"/>
</a>
</g>
</g>
<!-- Node19&#45;&gt;Node14 -->
<g id="edge25_Node000019_Node000014" class="edge">
<title>Node19&#45;&gt;Node14</title>
<g id="a_edge25_Node000019_Node000014"><a xlink:title=" ">
<path fill="none" stroke="#63b8ff" d="M1203.58,-159.62C1213.06,-162.49 1222.85,-165.53 1232,-168.5 1245.46,-172.87 1259.79,-177.75 1273.47,-182.52"/>
<polygon fill="#63b8ff" stroke="#63b8ff" points="1272.69,-185.96 1283.28,-185.96 1275.01,-179.35 1272.69,-185.96"/>
</a>
</g>
</g>
<!-- Node20 -->
<g id="Node000020" class="node">
<title>Node20</title>
<g id="a_Node000020"><a xlink:href="classwmtk_1_1attribute_1_1_index_flag_accessor.html#a08ce19b077654f9e384d8c3fffcbbd0b" target="_top" xlink:title=" ">
<polygon fill="white" stroke="#666666" points="1414,-159.5 1268,-159.5 1268,-129.5 1414,-129.5 1414,-159.5"/>
<text text-anchor="start" x="1276" y="-147.5" font-family="Helvetica,sans-Serif" font-size="10.00">wmtk::attribute::IndexFlag</text>
<text text-anchor="middle" x="1341" y="-136.5" font-family="Helvetica,sans-Serif" font-size="10.00">Accessor::_is_active</text>
</a>
</g>
</g>
<!-- Node19&#45;&gt;Node20 -->
<g id="edge24_Node000019_Node000020" class="edge">
<title>Node19&#45;&gt;Node20</title>
<g id="a_edge24_Node000019_Node000020"><a xlink:title=" ">
<path fill="none" stroke="#63b8ff" d="M1223.57,-144.5C1234.71,-144.5 1246.29,-144.5 1257.64,-144.5"/>
<polygon fill="#63b8ff" stroke="#63b8ff" points="1257.97,-148 1267.97,-144.5 1257.97,-141 1257.97,-148"/>
</a>
</g>
</g>
<!-- Node22 -->
<g id="Node000022" class="node">
<title>Node22</title>
<g id="a_Node000022"><a xlink:href="namespacewmtk.html#a3daa7951a5f8b78cf4600dc047fcc180" target="_top" xlink:title="Setup a logger object to be used by WildmeshToolkit.">
<polygon fill="white" stroke="#666666" points="1391.5,-111 1290.5,-111 1290.5,-92 1391.5,-92 1391.5,-111"/>
<text text-anchor="middle" x="1341" y="-99" font-family="Helvetica,sans-Serif" font-size="10.00">wmtk::set_logger</text>
</a>
</g>
</g>
<!-- Node21&#45;&gt;Node22 -->
<g id="edge28_Node000021_Node000022" class="edge">
<title>Node21&#45;&gt;Node22</title>
<g id="a_edge28_Node000021_Node000022"><a xlink:title=" ">
<path fill="none" stroke="#63b8ff" d="M1191.02,-101.5C1216.9,-101.5 1251.2,-101.5 1280.37,-101.5"/>
<polygon fill="#63b8ff" stroke="#63b8ff" points="1280.45,-105 1290.45,-101.5 1280.45,-98 1280.45,-105"/>
</a>
</g>
</g>
<!-- Node24 -->
<g id="Node000024" class="node">
<title>Node24</title>
<g id="a_Node000024"><a xlink:href="classwmtk_1_1_tuple.html#a0023f575be92cd5ceeeaaaa3762ea06d" target="_top" xlink:title="Checks if a tuple is &quot;null&quot;. This merely implies the global index is &#45;1.">
<polygon fill="white" stroke="#666666" points="1207,-74 1094,-74 1094,-55 1207,-55 1207,-74"/>
<text text-anchor="middle" x="1150.5" y="-62" font-family="Helvetica,sans-Serif" font-size="10.00">wmtk::Tuple::is_null</text>
</a>
</g>
</g>
<!-- Node23&#45;&gt;Node24 -->
<g id="edge30_Node000023_Node000024" class="edge">
<title>Node23&#45;&gt;Node24</title>
<g id="a_edge30_Node000023_Node000024"><a xlink:title=" ">
<path fill="none" stroke="#63b8ff" d="M1033.42,-64.5C1049.64,-64.5 1067.31,-64.5 1083.86,-64.5"/>
<polygon fill="#63b8ff" stroke="#63b8ff" points="1083.99,-68 1093.99,-64.5 1083.99,-61 1083.99,-68"/>
</a>
</g>
</g>
<!-- Node25 -->
<g id="Node000025" class="node">
<title>Node25</title>
<g id="a_Node000025"><a xlink:href="classwmtk_1_1_mesh.html#ade176d345902d97af8c5da04aa3a095b" target="_top" xlink:title=" ">
<polygon fill="white" stroke="#666666" points="1220.5,-19 1080.5,-19 1080.5,0 1220.5,0 1220.5,-19"/>
<text text-anchor="middle" x="1150.5" y="-7" font-family="Helvetica,sans-Serif" font-size="10.00">wmtk::Mesh::is_removed</text>
</a>
</g>
</g>
<!-- Node23&#45;&gt;Node25 -->
<g id="edge31_Node000023_Node000025" class="edge">
<title>Node23&#45;&gt;Node25</title>
<g id="a_edge31_Node000023_Node000025"><a xlink:title=" ">
<path fill="none" stroke="#63b8ff" d="M1004.57,-54.92C1033.55,-45.84 1077.26,-32.14 1109.1,-22.16"/>
<polygon fill="#63b8ff" stroke="#63b8ff" points="1110.49,-25.39 1118.99,-19.06 1108.4,-18.71 1110.49,-25.39"/>
</a>
</g>
</g>
<!-- Node25&#45;&gt;Node25 -->
<g id="edge32_Node000025_Node000025" class="edge">
<title>Node25&#45;&gt;Node25</title>
<g id="a_edge32_Node000025_Node000025"><a xlink:title=" ">
<path fill="none" stroke="#63b8ff" d="M1123.37,-19.08C1110.18,-27.73 1119.22,-37 1150.5,-37 1171.52,-37 1182.5,-32.82 1183.43,-27.45"/>
<polygon fill="#63b8ff" stroke="#63b8ff" points="1186.2,-25.3 1177.63,-19.08 1180.45,-29.29 1186.2,-25.3"/>
</a>
</g>
</g>
</g>
</svg>
