<?xml version="1.0" encoding="UTF-8" standalone="no"?>
<!DOCTYPE svg PUBLIC "-//W3C//DTD SVG 1.1//EN"
 "http://www.w3.org/Graphics/SVG/1.1/DTD/svg11.dtd">
<!-- Generated by graphviz version 2.43.0 (0)
 -->
<!-- Title: wmtk::invariants::InvariantCollection::directly_modified_after Pages: 1 -->
<svg width="1371pt" height="403pt"
 viewBox="0.00 0.00 1371.00 402.50" xmlns="http://www.w3.org/2000/svg" xmlns:xlink="http://www.w3.org/1999/xlink">
<g id="graph0" class="graph" transform="scale(1 1) rotate(0) translate(4 398.5)">
<title>wmtk::invariants::InvariantCollection::directly_modified_after</title>
<!-- Node1 -->
<g id="Node000001" class="node">
<title>Node1</title>
<g id="a_Node000001"><a xlink:title=" ">
<polygon fill="#999999" stroke="#666666" points="184,-253.5 0,-253.5 0,-223.5 184,-223.5 184,-253.5"/>
<text text-anchor="start" x="8" y="-241.5" font-family="Helvetica,sans-Serif" font-size="10.00">wmtk::invariants::Invariant</text>
<text text-anchor="middle" x="92" y="-230.5" font-family="Helvetica,sans-Serif" font-size="10.00">Collection::directly_modified_after</text>
</a>
</g>
</g>
<!-- Node2 -->
<g id="Node000002" class="node">
<title>Node2</title>
<g id="a_Node000002"><a xlink:href="classwmtk_1_1_mesh.html#abe23d31a7ad54af38da1bf7b6e232cab" target="_top" xlink:title="maps a simplex from this mesh to any other mesh">
<polygon fill="white" stroke="#666666" points="346.5,-291 242.5,-291 242.5,-272 346.5,-272 346.5,-291"/>
<text text-anchor="middle" x="294.5" y="-279" font-family="Helvetica,sans-Serif" font-size="10.00">wmtk::Mesh::map</text>
</a>
</g>
</g>
<!-- Node1&#45;&gt;Node2 -->
<g id="edge1_Node000001_Node000002" class="edge">
<title>Node1&#45;&gt;Node2</title>
<g id="a_edge1_Node000001_Node000002"><a xlink:title=" ">
<path fill="none" stroke="#63b8ff" d="M163.13,-253.54C188.01,-258.88 215.63,-264.8 239.02,-269.82"/>
<polygon fill="#63b8ff" stroke="#63b8ff" points="238.59,-273.3 249.1,-271.98 240.06,-266.46 238.59,-273.3"/>
</a>
</g>
</g>
<!-- Node21 -->
<g id="Node000021" class="node">
<title>Node21</title>
<g id="a_Node000021"><a xlink:href="classwmtk_1_1invariants_1_1_invariant.html#ac97548bf5f1167cd85081d1bde011139" target="_top" xlink:title=" ">
<polygon fill="white" stroke="#666666" points="369,-253.5 220,-253.5 220,-223.5 369,-223.5 369,-253.5"/>
<text text-anchor="start" x="228" y="-241.5" font-family="Helvetica,sans-Serif" font-size="10.00">wmtk::invariants::Invariant</text>
<text text-anchor="middle" x="294.5" y="-230.5" font-family="Helvetica,sans-Serif" font-size="10.00">::mesh</text>
</a>
</g>
</g>
<!-- Node1&#45;&gt;Node21 -->
<g id="edge28_Node000001_Node000021" class="edge">
<title>Node1&#45;&gt;Node21</title>
<g id="a_edge28_Node000001_Node000021"><a xlink:title=" ">
<path fill="none" stroke="#63b8ff" d="M184.16,-238.5C192.69,-238.5 201.31,-238.5 209.77,-238.5"/>
<polygon fill="#63b8ff" stroke="#63b8ff" points="209.99,-242 219.99,-238.5 209.99,-235 209.99,-242"/>
</a>
</g>
</g>
<!-- Node22 -->
<g id="Node000022" class="node">
<title>Node22</title>
<g id="a_Node000022"><a xlink:href="classwmtk_1_1_mesh.html#ac5778c1f8afef3a2b1b1c33a140b3166" target="_top" xlink:title="Evaluate the passed in function inside the parent scope.">
<polygon fill="white" stroke="#666666" points="351.5,-205.5 237.5,-205.5 237.5,-175.5 351.5,-175.5 351.5,-205.5"/>
<text text-anchor="start" x="245.5" y="-193.5" font-family="Helvetica,sans-Serif" font-size="10.00">wmtk::Mesh::parent</text>
<text text-anchor="middle" x="294.5" y="-182.5" font-family="Helvetica,sans-Serif" font-size="10.00">_scope</text>
</a>
</g>
</g>
<!-- Node1&#45;&gt;Node22 -->
<g id="edge29_Node000001_Node000022" class="edge">
<title>Node1&#45;&gt;Node22</title>
<g id="a_edge29_Node000001_Node000022"><a xlink:title=" ">
<path fill="none" stroke="#63b8ff" d="M155.89,-223.44C178.6,-218.01 204.29,-211.86 227.28,-206.35"/>
<polygon fill="#63b8ff" stroke="#63b8ff" points="228.38,-209.69 237.29,-203.96 226.75,-202.88 228.38,-209.69"/>
</a>
</g>
</g>
<!-- Node3 -->
<g id="Node000003" class="node">
<title>Node3</title>
<g id="a_Node000003"><a xlink:href="classwmtk_1_1_mesh.html#ad054c074d4776010002321117ec459e8" target="_top" xlink:title=" ">
<polygon fill="white" stroke="#666666" points="566,-366.5 405,-366.5 405,-336.5 566,-336.5 566,-366.5"/>
<text text-anchor="start" x="413" y="-354.5" font-family="Helvetica,sans-Serif" font-size="10.00">wmtk::Mesh::is_from</text>
<text text-anchor="middle" x="485.5" y="-343.5" font-family="Helvetica,sans-Serif" font-size="10.00">_same_multi_mesh_structure</text>
</a>
</g>
</g>
<!-- Node2&#45;&gt;Node3 -->
<g id="edge2_Node000002_Node000003" class="edge">
<title>Node2&#45;&gt;Node3</title>
<g id="a_edge2_Node000002_Node000003"><a xlink:title=" ">
<path fill="none" stroke="#63b8ff" d="M321.38,-291.09C350.34,-301.81 397.94,-319.44 434.27,-332.9"/>
<polygon fill="#63b8ff" stroke="#63b8ff" points="433.12,-336.2 443.72,-336.39 435.55,-329.64 433.12,-336.2"/>
</a>
</g>
</g>
<!-- Node7 -->
<g id="Node000007" class="node">
<title>Node7</title>
<g id="a_Node000007"><a xlink:href="classwmtk_1_1_mesh.html#a8cc8686f0688613806f43720b6db49e7" target="_top" xlink:title="check validity of tuple including its hash">
<polygon fill="white" stroke="#666666" points="545.5,-291 425.5,-291 425.5,-272 545.5,-272 545.5,-291"/>
<text text-anchor="middle" x="485.5" y="-279" font-family="Helvetica,sans-Serif" font-size="10.00">wmtk::Mesh::is_valid</text>
</a>
</g>
</g>
<!-- Node2&#45;&gt;Node7 -->
<g id="edge7_Node000002_Node000007" class="edge">
<title>Node2&#45;&gt;Node7</title>
<g id="a_edge7_Node000002_Node000007"><a xlink:title=" ">
<path fill="none" stroke="#63b8ff" d="M346.65,-281.5C367.69,-281.5 392.4,-281.5 415.04,-281.5"/>
<polygon fill="#63b8ff" stroke="#63b8ff" points="415.28,-285 425.28,-281.5 415.28,-278 415.28,-285"/>
</a>
</g>
</g>
<!-- Node13 -->
<g id="Node000013" class="node">
<title>Node13</title>
<g id="a_Node000013"><a xlink:href="classwmtk_1_1multimesh_1_1_multi_mesh_manager.html#a99b3819552ae63c825dd77bebbd65040" target="_top" xlink:title="maps a simplex from this mesh to any other mesh">
<polygon fill="white" stroke="#666666" points="565.5,-106.5 405.5,-106.5 405.5,-76.5 565.5,-76.5 565.5,-106.5"/>
<text text-anchor="start" x="413.5" y="-94.5" font-family="Helvetica,sans-Serif" font-size="10.00">wmtk::multimesh::MultiMesh</text>
<text text-anchor="middle" x="485.5" y="-83.5" font-family="Helvetica,sans-Serif" font-size="10.00">Manager::map</text>
</a>
</g>
</g>
<!-- Node2&#45;&gt;Node13 -->
<g id="edge14_Node000002_Node000013" class="edge">
<title>Node2&#45;&gt;Node13</title>
<g id="a_edge14_Node000002_Node000013"><a xlink:title=" ">
<path fill="none" stroke="#63b8ff" d="M346.65,-273.42C354.57,-270.76 362.33,-267.21 369,-262.5 422.5,-224.72 458.49,-153.7 474.69,-116.17"/>
<polygon fill="#63b8ff" stroke="#63b8ff" points="478.1,-117.11 478.74,-106.53 471.64,-114.4 478.1,-117.11"/>
</a>
</g>
</g>
<!-- Node4 -->
<g id="Node000004" class="node">
<title>Node4</title>
<g id="a_Node000004"><a xlink:href="classwmtk_1_1_mesh.html#aac3ec1ebbe00982ddfe70cc710d8f54e" target="_top" xlink:title="returns a reference to the root of a multimesh tree">
<polygon fill="white" stroke="#666666" points="753,-394.5 624,-394.5 624,-364.5 753,-364.5 753,-394.5"/>
<text text-anchor="start" x="632" y="-382.5" font-family="Helvetica,sans-Serif" font-size="10.00">wmtk::Mesh::get_multi</text>
<text text-anchor="middle" x="688.5" y="-371.5" font-family="Helvetica,sans-Serif" font-size="10.00">_mesh_root</text>
</a>
</g>
</g>
<!-- Node3&#45;&gt;Node4 -->
<g id="edge3_Node000003_Node000004" class="edge">
<title>Node3&#45;&gt;Node4</title>
<g id="a_edge3_Node000003_Node000004"><a xlink:title=" ">
<path fill="none" stroke="#63b8ff" d="M566.23,-362.61C581.96,-364.8 598.41,-367.09 613.93,-369.25"/>
<polygon fill="#63b8ff" stroke="#63b8ff" points="613.59,-372.74 623.98,-370.65 614.55,-365.8 613.59,-372.74"/>
</a>
</g>
</g>
<!-- Node5 -->
<g id="Node000005" class="node">
<title>Node5</title>
<g id="a_Node000005"><a xlink:href="classwmtk_1_1multimesh_1_1_multi_mesh_manager.html#a434e74f6b295055a45914d41a784124a" target="_top" xlink:title=" ">
<polygon fill="white" stroke="#666666" points="1167,-340.5 1007,-340.5 1007,-310.5 1167,-310.5 1167,-340.5"/>
<text text-anchor="start" x="1015" y="-328.5" font-family="Helvetica,sans-Serif" font-size="10.00">wmtk::multimesh::MultiMesh</text>
<text text-anchor="middle" x="1087" y="-317.5" font-family="Helvetica,sans-Serif" font-size="10.00">Manager::get_root_mesh</text>
</a>
</g>
</g>
<!-- Node4&#45;&gt;Node5 -->
<g id="edge4_Node000004_Node000005" class="edge">
<title>Node4&#45;&gt;Node5</title>
<g id="a_edge4_Node000004_Node000005"><a xlink:title=" ">
<path fill="none" stroke="#63b8ff" d="M753.2,-370.82C819.06,-361.85 922.43,-347.78 996.49,-337.69"/>
<polygon fill="#63b8ff" stroke="#63b8ff" points="997.3,-341.11 1006.73,-336.3 996.35,-334.18 997.3,-341.11"/>
</a>
</g>
</g>
<!-- Node5&#45;&gt;Node5 -->
<g id="edge5_Node000005_Node000005" class="edge">
<title>Node5&#45;&gt;Node5</title>
<g id="a_edge5_Node000005_Node000005"><a xlink:title=" ">
<path fill="none" stroke="#63b8ff" d="M1052.55,-340.78C1044.89,-349.91 1056.38,-358.5 1087,-358.5 1105.18,-358.5 1116.62,-355.47 1121.31,-351.1"/>
<polygon fill="#63b8ff" stroke="#63b8ff" points="1124.81,-350.82 1121.45,-340.78 1117.81,-350.72 1124.81,-350.82"/>
</a>
</g>
</g>
<!-- Node6 -->
<g id="Node000006" class="node">
<title>Node6</title>
<g id="a_Node000006"><a xlink:href="classwmtk_1_1multimesh_1_1_multi_mesh_manager.html#a7d39339adb56b1798fe817d81bfcc67c" target="_top" xlink:title="Specifies whether this structure is the root of a multi&#45;mesh tree.">
<polygon fill="white" stroke="#666666" points="1363,-288.5 1203,-288.5 1203,-258.5 1363,-258.5 1363,-288.5"/>
<text text-anchor="start" x="1211" y="-276.5" font-family="Helvetica,sans-Serif" font-size="10.00">wmtk::multimesh::MultiMesh</text>
<text text-anchor="middle" x="1283" y="-265.5" font-family="Helvetica,sans-Serif" font-size="10.00">Manager::is_root</text>
</a>
</g>
</g>
<!-- Node5&#45;&gt;Node6 -->
<g id="edge6_Node000005_Node000006" class="edge">
<title>Node5&#45;&gt;Node6</title>
<g id="a_edge6_Node000005_Node000006"><a xlink:title=" ">
<path fill="none" stroke="#63b8ff" d="M1144.11,-310.46C1166.63,-304.42 1192.75,-297.42 1216.16,-291.15"/>
<polygon fill="#63b8ff" stroke="#63b8ff" points="1217.26,-294.48 1226.01,-288.51 1215.45,-287.72 1217.26,-294.48"/>
</a>
</g>
</g>
<!-- Node8 -->
<g id="Node000008" class="node">
<title>Node8</title>
<g id="a_Node000008"><a xlink:href="classwmtk_1_1_tuple.html#a0023f575be92cd5ceeeaaaa3762ea06d" target="_top" xlink:title="Checks if a tuple is &quot;null&quot;. This merely implies the global index is &#45;1.">
<polygon fill="white" stroke="#666666" points="745,-346 632,-346 632,-327 745,-327 745,-346"/>
<text text-anchor="middle" x="688.5" y="-334" font-family="Helvetica,sans-Serif" font-size="10.00">wmtk::Tuple::is_null</text>
</a>
</g>
</g>
<!-- Node7&#45;&gt;Node8 -->
<g id="edge8_Node000007_Node000008" class="edge">
<title>Node7&#45;&gt;Node8</title>
<g id="a_edge8_Node000007_Node000008"><a xlink:title=" ">
<path fill="none" stroke="#63b8ff" d="M513.8,-291.12C537.06,-299.1 571.47,-310.42 602,-318.5 610.42,-320.73 619.36,-322.86 628.16,-324.83"/>
<polygon fill="#63b8ff" stroke="#63b8ff" points="627.5,-328.27 638.02,-326.98 628.99,-321.43 627.5,-328.27"/>
</a>
</g>
</g>
<!-- Node9 -->
<g id="Node000009" class="node">
<title>Node9</title>
<g id="a_Node000009"><a xlink:href="classwmtk_1_1_mesh.html#ade176d345902d97af8c5da04aa3a095b" target="_top" xlink:title=" ">
<polygon fill="white" stroke="#666666" points="758.5,-291 618.5,-291 618.5,-272 758.5,-272 758.5,-291"/>
<text text-anchor="middle" x="688.5" y="-279" font-family="Helvetica,sans-Serif" font-size="10.00">wmtk::Mesh::is_removed</text>
</a>
</g>
</g>
<!-- Node7&#45;&gt;Node9 -->
<g id="edge9_Node000007_Node000009" class="edge">
<title>Node7&#45;&gt;Node9</title>
<g id="a_edge9_Node000007_Node000009"><a xlink:title=" ">
<path fill="none" stroke="#63b8ff" d="M545.72,-281.5C565.32,-281.5 587.47,-281.5 608.32,-281.5"/>
<polygon fill="#63b8ff" stroke="#63b8ff" points="608.44,-285 618.44,-281.5 608.44,-278 608.44,-285"/>
</a>
</g>
</g>
<!-- Node11 -->
<g id="Node000011" class="node">
<title>Node11</title>
<g id="a_Node000011"><a xlink:href="namespacewmtk.html#a6a35f11c12436093d26fdd8be6fecc06" target="_top" xlink:title="Retrieves the current logger.">
<polygon fill="white" stroke="#666666" points="729,-254 648,-254 648,-235 729,-235 729,-254"/>
<text text-anchor="middle" x="688.5" y="-242" font-family="Helvetica,sans-Serif" font-size="10.00">wmtk::logger</text>
</a>
</g>
</g>
<!-- Node7&#45;&gt;Node11 -->
<g id="edge12_Node000007_Node000011" class="edge">
<title>Node7&#45;&gt;Node11</title>
<g id="a_edge12_Node000007_Node000011"><a xlink:title=" ">
<path fill="none" stroke="#63b8ff" d="M538.26,-271.97C568.99,-266.32 607.73,-259.18 638.04,-253.6"/>
<polygon fill="#63b8ff" stroke="#63b8ff" points="638.77,-257.03 647.97,-251.78 637.5,-250.14 638.77,-257.03"/>
</a>
</g>
</g>
<!-- Node9&#45;&gt;Node9 -->
<g id="edge11_Node000009_Node000009" class="edge">
<title>Node9&#45;&gt;Node9</title>
<g id="a_edge11_Node000009_Node000009"><a xlink:title=" ">
<path fill="none" stroke="#63b8ff" d="M657.37,-291.08C642.22,-299.73 652.6,-309 688.5,-309 713.74,-309 726.37,-304.42 726.37,-298.69"/>
<polygon fill="#63b8ff" stroke="#63b8ff" points="728.89,-296.25 719.63,-291.08 723.65,-300.89 728.89,-296.25"/>
</a>
</g>
</g>
<!-- Node10 -->
<g id="Node000010" class="node">
<title>Node10</title>
<g id="a_Node000010"><a xlink:href="classwmtk_1_1_tuple.html#aef64a43ff5f5617dbc99d865356bbc25" target="_top" xlink:title=" ">
<polygon fill="white" stroke="#666666" points="956.5,-306 825.5,-306 825.5,-287 956.5,-287 956.5,-306"/>
<text text-anchor="middle" x="891" y="-294" font-family="Helvetica,sans-Serif" font-size="10.00">wmtk::Tuple::global_cid</text>
</a>
</g>
</g>
<!-- Node9&#45;&gt;Node10 -->
<g id="edge10_Node000009_Node000010" class="edge">
<title>Node9&#45;&gt;Node10</title>
<g id="a_edge10_Node000009_Node000010"><a xlink:title=" ">
<path fill="none" stroke="#63b8ff" d="M758.5,-286.66C776.76,-288.03 796.55,-289.51 815.1,-290.9"/>
<polygon fill="#63b8ff" stroke="#63b8ff" points="815.03,-294.4 825.26,-291.66 815.55,-287.42 815.03,-294.4"/>
</a>
</g>
</g>
<!-- Node12 -->
<g id="Node000012" class="node">
<title>Node12</title>
<g id="a_Node000012"><a xlink:href="namespacewmtk.html#a3daa7951a5f8b78cf4600dc047fcc180" target="_top" xlink:title="Setup a logger object to be used by WildmeshToolkit.">
<polygon fill="white" stroke="#666666" points="941.5,-269 840.5,-269 840.5,-250 941.5,-250 941.5,-269"/>
<text text-anchor="middle" x="891" y="-257" font-family="Helvetica,sans-Serif" font-size="10.00">wmtk::set_logger</text>
</a>
</g>
</g>
<!-- Node11&#45;&gt;Node12 -->
<g id="edge13_Node000011_Node000012" class="edge">
<title>Node11&#45;&gt;Node12</title>
<g id="a_edge13_Node000011_Node000012"><a xlink:title=" ">
<path fill="none" stroke="#63b8ff" d="M729.11,-247.46C757.84,-249.61 797.22,-252.56 829.82,-255"/>
<polygon fill="#63b8ff" stroke="#63b8ff" points="829.92,-258.51 840.15,-255.77 830.44,-251.53 829.92,-258.51"/>
</a>
</g>
</g>
<!-- Node14 -->
<g id="Node000014" class="node">
<title>Node14</title>
<g id="a_Node000014"><a xlink:href="classwmtk_1_1multimesh_1_1_multi_mesh_manager.html#acaaab688faff0e1b2d9142d6cc128e46" target="_top" xlink:title="maps a simplex from this mesh to any other mesh">
<polygon fill="white" stroke="#666666" points="768.5,-127.5 608.5,-127.5 608.5,-97.5 768.5,-97.5 768.5,-127.5"/>
<text text-anchor="start" x="616.5" y="-115.5" font-family="Helvetica,sans-Serif" font-size="10.00">wmtk::multimesh::MultiMesh</text>
<text text-anchor="middle" x="688.5" y="-104.5" font-family="Helvetica,sans-Serif" font-size="10.00">Manager::map_tuples</text>
</a>
</g>
</g>
<!-- Node13&#45;&gt;Node14 -->
<g id="edge15_Node000013_Node000014" class="edge">
<title>Node13&#45;&gt;Node14</title>
<g id="a_edge15_Node000013_Node000014"><a xlink:title=" ">
<path fill="none" stroke="#63b8ff" d="M565.65,-99.77C576.42,-100.89 587.53,-102.06 598.45,-103.2"/>
<polygon fill="#63b8ff" stroke="#63b8ff" points="598.11,-106.68 608.42,-104.24 598.84,-99.72 598.11,-106.68"/>
</a>
</g>
</g>
<!-- Node19 -->
<g id="Node000019" class="node">
<title>Node19</title>
<g id="a_Node000019"><a xlink:href="classwmtk_1_1simplex_1_1_simplex.html#ad2cc0340a0772b7d6f03ba7a781d1163" target="_top" xlink:title=" ">
<polygon fill="white" stroke="#666666" points="958.5,-41.5 823.5,-41.5 823.5,-11.5 958.5,-11.5 958.5,-41.5"/>
<text text-anchor="start" x="831.5" y="-29.5" font-family="Helvetica,sans-Serif" font-size="10.00">wmtk::simplex::Simplex</text>
<text text-anchor="middle" x="891" y="-18.5" font-family="Helvetica,sans-Serif" font-size="10.00">::primitive_type</text>
</a>
</g>
</g>
<!-- Node13&#45;&gt;Node19 -->
<g id="edge26_Node000013_Node000019" class="edge">
<title>Node13&#45;&gt;Node19</title>
<g id="a_edge26_Node000013_Node000019"><a xlink:title=" ">
<path fill="none" stroke="#63b8ff" d="M565.66,-81.12C623.73,-73.23 704.42,-61.69 775,-49.5 787.35,-47.37 800.41,-44.93 813.12,-42.46"/>
<polygon fill="#63b8ff" stroke="#63b8ff" points="814.08,-45.84 823.22,-40.48 812.73,-38.97 814.08,-45.84"/>
</a>
</g>
</g>
<!-- Node20 -->
<g id="Node000020" class="node">
<title>Node20</title>
<g id="a_Node000020"><a xlink:href="namespacewmtk_1_1simplex_1_1utils.html#abc97acf22bd5eb87df2b16ad3b372cfb" target="_top" xlink:title=" ">
<polygon fill="white" stroke="#666666" points="775,-41 602,-41 602,0 775,0 775,-41"/>
<text text-anchor="start" x="610" y="-29" font-family="Helvetica,sans-Serif" font-size="10.00">wmtk::simplex::utils</text>
<text text-anchor="start" x="610" y="-18" font-family="Helvetica,sans-Serif" font-size="10.00">::tuple_vector_to_homogeneous</text>
<text text-anchor="middle" x="688.5" y="-7" font-family="Helvetica,sans-Serif" font-size="10.00">_simplex_vector</text>
</a>
</g>
</g>
<!-- Node13&#45;&gt;Node20 -->
<g id="edge27_Node000013_Node000020" class="edge">
<title>Node13&#45;&gt;Node20</title>
<g id="a_edge27_Node000013_Node000020"><a xlink:title=" ">
<path fill="none" stroke="#63b8ff" d="M529.13,-76.44C555.43,-67.15 589.77,-55.02 619.74,-44.43"/>
<polygon fill="#63b8ff" stroke="#63b8ff" points="621.04,-47.69 629.3,-41.06 618.71,-41.09 621.04,-47.69"/>
</a>
</g>
</g>
<!-- Node15 -->
<g id="Node000015" class="node">
<title>Node15</title>
<g id="a_Node000015"><a xlink:href="classwmtk_1_1multimesh_1_1_multi_mesh_manager.html#a812e0992812b2c48a889e10ae9e50758" target="_top" xlink:title=" ">
<polygon fill="white" stroke="#666666" points="1167,-236.5 1007,-236.5 1007,-206.5 1167,-206.5 1167,-236.5"/>
<text text-anchor="start" x="1015" y="-224.5" font-family="Helvetica,sans-Serif" font-size="10.00">wmtk::multimesh::MultiMesh</text>
<text text-anchor="middle" x="1087" y="-213.5" font-family="Helvetica,sans-Serif" font-size="10.00">Manager::absolute_id</text>
</a>
</g>
</g>
<!-- Node14&#45;&gt;Node15 -->
<g id="edge16_Node000014_Node000015" class="edge">
<title>Node14&#45;&gt;Node15</title>
<g id="a_edge16_Node000014_Node000015"><a xlink:title=" ">
<path fill="none" stroke="#63b8ff" d="M703.9,-127.62C725.08,-148.72 766.91,-186.24 811,-202.5 870.28,-224.36 941.57,-228.73 996.7,-227.83"/>
<polygon fill="#63b8ff" stroke="#63b8ff" points="996.88,-231.32 1006.8,-227.6 996.73,-224.33 996.88,-231.32"/>
</a>
</g>
</g>
<!-- Node16 -->
<g id="Node000016" class="node">
<title>Node16</title>
<g id="a_Node000016"><a xlink:href="classwmtk_1_1_mesh.html#a2102fdea06a0c543437e67d77aeb2013" target="_top" xlink:title="returns a unique identifier for this mesh within a single multimesh structure">
<polygon fill="white" stroke="#666666" points="953.5,-193.5 828.5,-193.5 828.5,-163.5 953.5,-163.5 953.5,-193.5"/>
<text text-anchor="start" x="836.5" y="-181.5" font-family="Helvetica,sans-Serif" font-size="10.00">wmtk::Mesh::absolute</text>
<text text-anchor="middle" x="891" y="-170.5" font-family="Helvetica,sans-Serif" font-size="10.00">_multi_mesh_id</text>
</a>
</g>
</g>
<!-- Node14&#45;&gt;Node16 -->
<g id="edge19_Node000014_Node000016" class="edge">
<title>Node14&#45;&gt;Node16</title>
<g id="a_edge19_Node000014_Node000016"><a xlink:title=" ">
<path fill="none" stroke="#63b8ff" d="M731.82,-127.57C755.11,-135.75 784.57,-145.92 811,-154.5 816.99,-156.45 823.26,-158.43 829.53,-160.39"/>
<polygon fill="#63b8ff" stroke="#63b8ff" points="828.75,-163.81 839.34,-163.42 830.82,-157.12 828.75,-163.81"/>
</a>
</g>
</g>
<!-- Node17 -->
<g id="Node000017" class="node">
<title>Node17</title>
<g id="a_Node000017"><a xlink:href="classwmtk_1_1multimesh_1_1_multi_mesh_manager.html#aefe5179057c978e227c3349d13578c4a" target="_top" xlink:title=" ">
<polygon fill="white" stroke="#666666" points="971,-127.5 811,-127.5 811,-97.5 971,-97.5 971,-127.5"/>
<text text-anchor="start" x="819" y="-115.5" font-family="Helvetica,sans-Serif" font-size="10.00">wmtk::multimesh::MultiMesh</text>
<text text-anchor="middle" x="891" y="-104.5" font-family="Helvetica,sans-Serif" font-size="10.00">Manager::map_up_to_tuples</text>
</a>
</g>
</g>
<!-- Node14&#45;&gt;Node17 -->
<g id="edge21_Node000014_Node000017" class="edge">
<title>Node14&#45;&gt;Node17</title>
<g id="a_edge21_Node000014_Node000017"><a xlink:title=" ">
<path fill="none" stroke="#63b8ff" d="M768.74,-112.5C779.19,-112.5 789.97,-112.5 800.57,-112.5"/>
<polygon fill="#63b8ff" stroke="#63b8ff" points="800.68,-116 810.68,-112.5 800.68,-109 800.68,-116"/>
</a>
</g>
</g>
<!-- Node18 -->
<g id="Node000018" class="node">
<title>Node18</title>
<g id="a_Node000018"><a xlink:href="classwmtk_1_1simplex_1_1_simplex.html#aca78b1fb0a3c28c0036cf7919bfb0789" target="_top" xlink:title=" ">
<polygon fill="white" stroke="#666666" points="1154.5,-106.5 1019.5,-106.5 1019.5,-76.5 1154.5,-76.5 1154.5,-106.5"/>
<text text-anchor="start" x="1027.5" y="-94.5" font-family="Helvetica,sans-Serif" font-size="10.00">wmtk::simplex::Simplex</text>
<text text-anchor="middle" x="1087" y="-83.5" font-family="Helvetica,sans-Serif" font-size="10.00">::tuple</text>
</a>
</g>
</g>
<!-- Node14&#45;&gt;Node18 -->
<g id="edge25_Node000014_Node000018" class="edge">
<title>Node14&#45;&gt;Node18</title>
<g id="a_edge25_Node000014_Node000018"><a xlink:title=" ">
<path fill="none" stroke="#63b8ff" d="M753.47,-97.44C771.93,-93.75 792.17,-90.34 811,-88.5 877.77,-81.97 954.08,-83.51 1009.35,-86.23"/>
<polygon fill="#63b8ff" stroke="#63b8ff" points="1009.26,-89.73 1019.42,-86.75 1009.62,-82.74 1009.26,-89.73"/>
</a>
</g>
</g>
<!-- Node14&#45;&gt;Node19 -->
<g id="edge24_Node000014_Node000019" class="edge">
<title>Node14&#45;&gt;Node19</title>
<g id="a_edge24_Node000014_Node000019"><a xlink:title=" ">
<path fill="none" stroke="#63b8ff" d="M743.12,-97.38C753.95,-93.49 765.06,-88.85 775,-83.5 792.85,-73.89 793.27,-65.33 811,-55.5 817.74,-51.76 825.05,-48.33 832.42,-45.25"/>
<polygon fill="#63b8ff" stroke="#63b8ff" points="833.75,-48.48 841.74,-41.52 831.15,-41.98 833.75,-48.48"/>
</a>
</g>
</g>
<!-- Node15&#45;&gt;Node6 -->
<g id="edge18_Node000015_Node000006" class="edge">
<title>Node15&#45;&gt;Node6</title>
<g id="a_edge18_Node000015_Node000006"><a xlink:title=" ">
<path fill="none" stroke="#63b8ff" d="M1144.11,-236.54C1166.63,-242.58 1192.75,-249.58 1216.16,-255.85"/>
<polygon fill="#63b8ff" stroke="#63b8ff" points="1215.45,-259.28 1226.01,-258.49 1217.26,-252.52 1215.45,-259.28"/>
</a>
</g>
</g>
<!-- Node15&#45;&gt;Node15 -->
<g id="edge17_Node000015_Node000015" class="edge">
<title>Node15&#45;&gt;Node15</title>
<g id="a_edge17_Node000015_Node000015"><a xlink:title=" ">
<path fill="none" stroke="#63b8ff" d="M1052.55,-236.78C1044.89,-245.91 1056.38,-254.5 1087,-254.5 1105.18,-254.5 1116.62,-251.47 1121.31,-247.1"/>
<polygon fill="#63b8ff" stroke="#63b8ff" points="1124.81,-246.82 1121.45,-236.78 1117.81,-246.72 1124.81,-246.82"/>
</a>
</g>
</g>
<!-- Node16&#45;&gt;Node15 -->
<g id="edge20_Node000016_Node000015" class="edge">
<title>Node16&#45;&gt;Node15</title>
<g id="a_edge20_Node000016_Node000015"><a xlink:title=" ">
<path fill="none" stroke="#63b8ff" d="M953.65,-192.16C970.97,-196 990.03,-200.23 1008.16,-204.25"/>
<polygon fill="#63b8ff" stroke="#63b8ff" points="1007.6,-207.71 1018.12,-206.45 1009.11,-200.87 1007.6,-207.71"/>
</a>
</g>
</g>
<!-- Node17&#45;&gt;Node17 -->
<g id="edge22_Node000017_Node000017" class="edge">
<title>Node17&#45;&gt;Node17</title>
<g id="a_edge22_Node000017_Node000017"><a xlink:title=" ">
<path fill="none" stroke="#63b8ff" d="M856.55,-127.78C848.89,-136.91 860.38,-145.5 891,-145.5 909.18,-145.5 920.62,-142.47 925.31,-138.1"/>
<polygon fill="#63b8ff" stroke="#63b8ff" points="928.81,-137.82 925.45,-127.78 921.81,-137.72 928.81,-137.82"/>
</a>
</g>
</g>
<!-- Node17&#45;&gt;Node18 -->
<g id="edge23_Node000017_Node000018" class="edge">
<title>Node17&#45;&gt;Node18</title>
<g id="a_edge23_Node000017_Node000018"><a xlink:title=" ">
<path fill="none" stroke="#63b8ff" d="M971.19,-103.93C983.84,-102.56 996.9,-101.14 1009.49,-99.78"/>
<polygon fill="#63b8ff" stroke="#63b8ff" points="1009.9,-103.26 1019.46,-98.7 1009.14,-96.3 1009.9,-103.26"/>
</a>
</g>
</g>
</g>
</svg>
