<?xml version="1.0" encoding="UTF-8" standalone="no"?>
<!DOCTYPE svg PUBLIC "-//W3C//DTD SVG 1.1//EN"
 "http://www.w3.org/Graphics/SVG/1.1/DTD/svg11.dtd">
<!-- Generated by graphviz version 2.43.0 (0)
 -->
<!-- Title: wmtk::TetMesh::switch_tetrahedron Pages: 1 -->
<svg width="1251pt" height="788pt"
 viewBox="0.00 0.00 1251.00 787.70" xmlns="http://www.w3.org/2000/svg" xmlns:xlink="http://www.w3.org/1999/xlink">
<g id="graph0" class="graph" transform="scale(1 1) rotate(0) translate(4 783.7)">
<title>wmtk::TetMesh::switch_tetrahedron</title>
<!-- Node1 -->
<g id="Node000001" class="node">
<title>Node1</title>
<g id="a_Node000001"><a xlink:title=" ">
<polygon fill="#999999" stroke="#666666" points="128,-255.51 0,-255.51 0,-225.51 128,-225.51 128,-255.51"/>
<text text-anchor="start" x="8" y="-243.51" font-family="Helvetica,sans-Serif" font-size="10.00">wmtk::TetMesh::switch</text>
<text text-anchor="middle" x="64" y="-232.51" font-family="Helvetica,sans-Serif" font-size="10.00">_tetrahedron</text>
</a>
</g>
</g>
<!-- Node2 -->
<g id="Node000002" class="node">
<title>Node2</title>
<g id="a_Node000002"><a xlink:href="classwmtk_1_1_tet_mesh.html#a53d9ec91a1c80da4ae10dea485564f27" target="_top" xlink:title="switch the orientation of the Tuple of the given dimension">
<polygon fill="white" stroke="#666666" points="292,-255.51 164,-255.51 164,-225.51 292,-225.51 292,-255.51"/>
<text text-anchor="start" x="172" y="-243.51" font-family="Helvetica,sans-Serif" font-size="10.00">wmtk::TetMesh::switch</text>
<text text-anchor="middle" x="228" y="-232.51" font-family="Helvetica,sans-Serif" font-size="10.00">_tuple</text>
</a>
</g>
</g>
<!-- Node1&#45;&gt;Node2 -->
<g id="edge1_Node000001_Node000002" class="edge">
<title>Node1&#45;&gt;Node2</title>
<g id="a_edge1_Node000001_Node000002"><a xlink:title=" ">
<path fill="none" stroke="#63b8ff" d="M128.1,-240.51C136.43,-240.51 145.04,-240.51 153.53,-240.51"/>
<polygon fill="#63b8ff" stroke="#63b8ff" points="153.81,-244.01 163.81,-240.51 153.81,-237.01 153.81,-244.01"/>
</a>
</g>
</g>
<!-- Node3 -->
<g id="Node000003" class="node">
<title>Node3</title>
<g id="a_Node000003"><a xlink:href="classwmtk_1_1_tet_mesh.html#aa8424e5e4d709981e9e10d659f87f97d" target="_top" xlink:title=" ">
<polygon fill="white" stroke="#666666" points="850.5,-58.01 744.5,-58.01 744.5,-39.01 850.5,-39.01 850.5,-58.01"/>
<text text-anchor="middle" x="797.5" y="-46.01" font-family="Helvetica,sans-Serif" font-size="10.00">wmtk::TetMesh::id</text>
</a>
</g>
</g>
<!-- Node2&#45;&gt;Node3 -->
<g id="edge2_Node000002_Node000003" class="edge">
<title>Node2&#45;&gt;Node3</title>
<g id="a_edge2_Node000002_Node000003"><a xlink:title=" ">
<path fill="none" stroke="#63b8ff" d="M237.31,-225.26C252.19,-199.32 285.79,-146.52 328,-116.51 450.63,-29.3 637.47,-32.05 733.97,-40.69"/>
<polygon fill="#63b8ff" stroke="#63b8ff" points="733.86,-44.19 744.15,-41.65 734.52,-37.22 733.86,-44.19"/>
</a>
</g>
</g>
<!-- Node6 -->
<g id="Node000006" class="node">
<title>Node6</title>
<g id="a_Node000006"><a xlink:href="classwmtk_1_1_tuple.html#ab5fa210c660a9d678768c15d7c4f78f0" target="_top" xlink:title=" ">
<polygon fill="white" stroke="#666666" points="1049,-667.01 927,-667.01 927,-648.01 1049,-648.01 1049,-667.01"/>
<text text-anchor="middle" x="988" y="-655.01" font-family="Helvetica,sans-Serif" font-size="10.00">wmtk::Tuple::local_fid</text>
</a>
</g>
</g>
<!-- Node2&#45;&gt;Node6 -->
<g id="edge45_Node000002_Node000006" class="edge">
<title>Node2&#45;&gt;Node6</title>
<g id="a_edge45_Node000002_Node000006"><a xlink:title=" ">
<path fill="none" stroke="#63b8ff" d="M230.68,-255.67C236.64,-304.38 260.24,-459.94 328,-566.51 382.55,-652.28 405.24,-677.94 498,-719.51 652.84,-788.88 718.83,-799.49 879,-743.51 917.95,-729.89 953.35,-695.7 972.37,-674.76"/>
<polygon fill="#63b8ff" stroke="#63b8ff" points="975.05,-677.01 979.04,-667.2 969.8,-672.38 975.05,-677.01"/>
</a>
</g>
</g>
<!-- Node8 -->
<g id="Node000008" class="node">
<title>Node8</title>
<g id="a_Node000008"><a xlink:href="classwmtk_1_1_tet_mesh.html#af4002e7a36e20373deb54576caffa682" target="_top" xlink:title=" ">
<polygon fill="white" stroke="#666666" points="680,-710.01 498,-710.01 498,-691.01 680,-691.01 680,-710.01"/>
<text text-anchor="middle" x="589" y="-698.01" font-family="Helvetica,sans-Serif" font-size="10.00">wmtk::TetMesh::is_boundary_face</text>
</a>
</g>
</g>
<!-- Node2&#45;&gt;Node8 -->
<g id="edge7_Node000002_Node000008" class="edge">
<title>Node2&#45;&gt;Node8</title>
<g id="a_edge7_Node000002_Node000008"><a xlink:title=" ">
<path fill="none" stroke="#63b8ff" d="M234.09,-255.75C255.49,-317.52 344.28,-551.64 498,-671.51 506.72,-678.31 517.09,-683.54 527.63,-687.55"/>
<polygon fill="#63b8ff" stroke="#63b8ff" points="526.72,-690.94 537.31,-690.91 529.01,-684.33 526.72,-690.94"/>
</a>
</g>
</g>
<!-- Node10 -->
<g id="Node000010" class="node">
<title>Node10</title>
<g id="a_Node000010"><a xlink:href="classwmtk_1_1_tet_mesh.html#af07828ce32b19a3d5fc8e1cb6f365029" target="_top" xlink:title="check validity of tuple including its hash">
<polygon fill="white" stroke="#666666" points="462,-250.01 328,-250.01 328,-231.01 462,-231.01 462,-250.01"/>
<text text-anchor="middle" x="395" y="-238.01" font-family="Helvetica,sans-Serif" font-size="10.00">wmtk::TetMesh::is_valid</text>
</a>
</g>
</g>
<!-- Node2&#45;&gt;Node10 -->
<g id="edge10_Node000002_Node000010" class="edge">
<title>Node2&#45;&gt;Node10</title>
<g id="a_edge10_Node000002_Node000010"><a xlink:title=" ">
<path fill="none" stroke="#63b8ff" d="M292.32,-240.51C300.59,-240.51 309.13,-240.51 317.59,-240.51"/>
<polygon fill="#63b8ff" stroke="#63b8ff" points="317.84,-244.01 327.84,-240.51 317.84,-237.01 317.84,-244.01"/>
</a>
</g>
</g>
<!-- Node32 -->
<g id="Node000032" class="node">
<title>Node32</title>
<g id="a_Node000032"><a xlink:href="namespacewmtk_1_1autogen_1_1tet__mesh.html#a4060d948aa959f21810c425f3f197dd5" target="_top" xlink:title=" ">
<polygon fill="white" stroke="#666666" points="661.5,-95.51 516.5,-95.51 516.5,-65.51 661.5,-65.51 661.5,-95.51"/>
<text text-anchor="start" x="524.5" y="-83.51" font-family="Helvetica,sans-Serif" font-size="10.00">wmtk::autogen::tet</text>
<text text-anchor="middle" x="589" y="-72.51" font-family="Helvetica,sans-Serif" font-size="10.00">_mesh::local_switch_tuple</text>
</a>
</g>
</g>
<!-- Node2&#45;&gt;Node32 -->
<g id="edge46_Node000002_Node000032" class="edge">
<title>Node2&#45;&gt;Node32</title>
<g id="a_edge46_Node000002_Node000032"><a xlink:title=" ">
<path fill="none" stroke="#63b8ff" d="M254.53,-225.33C301.38,-197.99 404.85,-140.03 498,-104.51 503.52,-102.4 509.29,-100.41 515.14,-98.54"/>
<polygon fill="#63b8ff" stroke="#63b8ff" points="516.48,-101.79 525.01,-95.51 514.42,-95.1 516.48,-101.79"/>
</a>
</g>
</g>
<!-- Node4 -->
<g id="Node000004" class="node">
<title>Node4</title>
<g id="a_Node000004"><a xlink:href="classwmtk_1_1_tuple.html#aef64a43ff5f5617dbc99d865356bbc25" target="_top" xlink:title=" ">
<polygon fill="white" stroke="#666666" points="1053.5,-193.01 922.5,-193.01 922.5,-174.01 1053.5,-174.01 1053.5,-193.01"/>
<text text-anchor="middle" x="988" y="-181.01" font-family="Helvetica,sans-Serif" font-size="10.00">wmtk::Tuple::global_cid</text>
</a>
</g>
</g>
<!-- Node3&#45;&gt;Node4 -->
<g id="edge3_Node000003_Node000004" class="edge">
<title>Node3&#45;&gt;Node4</title>
<g id="a_edge3_Node000003_Node000004"><a xlink:title=" ">
<path fill="none" stroke="#63b8ff" d="M850.9,-54.59C860.75,-57.25 870.58,-61.06 879,-66.51 901.4,-80.98 897.31,-94.55 915,-114.51 931.95,-133.64 953.3,-153.66 968.34,-167.17"/>
<polygon fill="#63b8ff" stroke="#63b8ff" points="966.17,-169.93 975.97,-173.96 970.83,-164.7 966.17,-169.93"/>
</a>
</g>
</g>
<!-- Node5 -->
<g id="Node000005" class="node">
<title>Node5</title>
<g id="a_Node000005"><a xlink:href="classwmtk_1_1_tuple.html#ac3cd5381c7147e3ff35347c574635311" target="_top" xlink:title=" ">
<polygon fill="white" stroke="#666666" points="1050.5,-106.01 925.5,-106.01 925.5,-87.01 1050.5,-87.01 1050.5,-106.01"/>
<text text-anchor="middle" x="988" y="-94.01" font-family="Helvetica,sans-Serif" font-size="10.00">wmtk::Tuple::local_eid</text>
</a>
</g>
</g>
<!-- Node3&#45;&gt;Node5 -->
<g id="edge4_Node000003_Node000005" class="edge">
<title>Node3&#45;&gt;Node5</title>
<g id="a_edge4_Node000003_Node000005"><a xlink:title=" ">
<path fill="none" stroke="#63b8ff" d="M843.3,-58.1C854.95,-60.71 867.47,-63.62 879,-66.51 900.64,-71.93 924.55,-78.51 944.37,-84.12"/>
<polygon fill="#63b8ff" stroke="#63b8ff" points="943.45,-87.5 954.03,-86.88 945.37,-80.77 943.45,-87.5"/>
</a>
</g>
</g>
<!-- Node3&#45;&gt;Node6 -->
<g id="edge5_Node000003_Node000006" class="edge">
<title>Node3&#45;&gt;Node6</title>
<g id="a_edge5_Node000003_Node000006"><a xlink:title=" ">
<path fill="none" stroke="#63b8ff" d="M850.58,-50.22C861.41,-53.05 871.72,-58.03 879,-66.51 955.89,-156.08 861.76,-491.14 915,-596.51 924.91,-616.12 944.21,-631.93 960.33,-642.54"/>
<polygon fill="#63b8ff" stroke="#63b8ff" points="958.55,-645.55 968.88,-647.88 962.26,-639.61 958.55,-645.55"/>
</a>
</g>
</g>
<!-- Node7 -->
<g id="Node000007" class="node">
<title>Node7</title>
<g id="a_Node000007"><a xlink:href="classwmtk_1_1_tuple.html#a27f6ee155923e848b461bebea1890abc" target="_top" xlink:title=" ">
<polygon fill="white" stroke="#666666" points="1050.5,-58.01 925.5,-58.01 925.5,-39.01 1050.5,-39.01 1050.5,-58.01"/>
<text text-anchor="middle" x="988" y="-46.01" font-family="Helvetica,sans-Serif" font-size="10.00">wmtk::Tuple::local_vid</text>
</a>
</g>
</g>
<!-- Node3&#45;&gt;Node7 -->
<g id="edge6_Node000003_Node000007" class="edge">
<title>Node3&#45;&gt;Node7</title>
<g id="a_edge6_Node000003_Node000007"><a xlink:title=" ">
<path fill="none" stroke="#63b8ff" d="M850.51,-48.51C870.55,-48.51 893.8,-48.51 915.37,-48.51"/>
<polygon fill="#63b8ff" stroke="#63b8ff" points="915.47,-52.01 925.47,-48.51 915.47,-45.01 915.47,-52.01"/>
</a>
</g>
</g>
<!-- Node8&#45;&gt;Node6 -->
<g id="edge9_Node000008_Node000006" class="edge">
<title>Node8&#45;&gt;Node6</title>
<g id="a_edge9_Node000008_Node000006"><a xlink:title=" ">
<path fill="none" stroke="#63b8ff" d="M620.65,-710.06C674.18,-725.21 787.73,-750.52 879,-724.51 913.72,-714.61 948.18,-689.99 968.52,-673.52"/>
<polygon fill="#63b8ff" stroke="#63b8ff" points="970.89,-676.1 976.34,-667.02 966.41,-670.72 970.89,-676.1"/>
</a>
</g>
</g>
<!-- Node9 -->
<g id="Node000009" class="node">
<title>Node9</title>
<g id="a_Node000009"><a xlink:href="classwmtk_1_1attribute_1_1_accessor.html#abecebb154568864219abda80a1beb803" target="_top" xlink:title="Constant access function for a vector attribute.">
<polygon fill="white" stroke="#666666" points="868.5,-715.51 726.5,-715.51 726.5,-685.51 868.5,-685.51 868.5,-715.51"/>
<text text-anchor="start" x="734.5" y="-703.51" font-family="Helvetica,sans-Serif" font-size="10.00">wmtk::attribute::Accessor</text>
<text text-anchor="middle" x="797.5" y="-692.51" font-family="Helvetica,sans-Serif" font-size="10.00">::const_vector_attribute</text>
</a>
</g>
</g>
<!-- Node8&#45;&gt;Node9 -->
<g id="edge8_Node000008_Node000009" class="edge">
<title>Node8&#45;&gt;Node9</title>
<g id="a_edge8_Node000008_Node000009"><a xlink:title=" ">
<path fill="none" stroke="#63b8ff" d="M680.27,-700.51C692.19,-700.51 704.35,-700.51 716.09,-700.51"/>
<polygon fill="#63b8ff" stroke="#63b8ff" points="716.28,-704.01 726.28,-700.51 716.28,-697.01 716.28,-704.01"/>
</a>
</g>
</g>
<!-- Node10&#45;&gt;Node4 -->
<g id="edge11_Node000010_Node000004" class="edge">
<title>Node10&#45;&gt;Node4</title>
<g id="a_edge11_Node000010_Node000004"><a xlink:title=" ">
<path fill="none" stroke="#63b8ff" d="M462.1,-235.47C555.21,-228.17 730.25,-213.76 879,-197.51 889.72,-196.33 901.03,-194.99 912.12,-193.61"/>
<polygon fill="#63b8ff" stroke="#63b8ff" points="912.75,-197.06 922.23,-192.33 911.87,-190.11 912.75,-197.06"/>
</a>
</g>
</g>
<!-- Node10&#45;&gt;Node5 -->
<g id="edge36_Node000010_Node000005" class="edge">
<title>Node10&#45;&gt;Node5</title>
<g id="a_edge36_Node000010_Node000005"><a xlink:title=" ">
<path fill="none" stroke="#63b8ff" d="M430.86,-230.98C450.54,-225.68 475.6,-219.06 498,-213.51 666.69,-171.71 710.38,-167.6 879,-125.51 900.01,-120.26 923.22,-114.08 942.72,-108.77"/>
<polygon fill="#63b8ff" stroke="#63b8ff" points="943.82,-112.1 952.55,-106.09 941.98,-105.35 943.82,-112.1"/>
</a>
</g>
</g>
<!-- Node10&#45;&gt;Node6 -->
<g id="edge37_Node000010_Node000006" class="edge">
<title>Node10&#45;&gt;Node6</title>
<g id="a_edge37_Node000010_Node000006"><a xlink:title=" ">
<path fill="none" stroke="#63b8ff" d="M397.32,-250.23C402.89,-287.82 427.42,-425.62 498,-509.51 570.48,-595.65 608.52,-605 716,-638.51 781.91,-659.05 861.06,-662.31 916.75,-661.34"/>
<polygon fill="#63b8ff" stroke="#63b8ff" points="916.95,-664.83 926.87,-661.11 916.79,-657.84 916.95,-664.83"/>
</a>
</g>
</g>
<!-- Node10&#45;&gt;Node7 -->
<g id="edge38_Node000010_Node000007" class="edge">
<title>Node10&#45;&gt;Node7</title>
<g id="a_edge38_Node000010_Node000007"><a xlink:title=" ">
<path fill="none" stroke="#63b8ff" d="M398.1,-230.8C405.47,-199.44 433.22,-100.25 498,-56.51 639.27,38.89 859.71,-10.42 948.26,-36.14"/>
<polygon fill="#63b8ff" stroke="#63b8ff" points="947.31,-39.51 957.9,-39 949.3,-32.8 947.31,-39.51"/>
</a>
</g>
</g>
<!-- Node11 -->
<g id="Node000011" class="node">
<title>Node11</title>
<g id="a_Node000011"><a xlink:href="classwmtk_1_1_tet_mesh.html#ad4ba72346d616d38086be74705865e55" target="_top" xlink:title=" ">
<polygon fill="white" stroke="#666666" points="674,-500.51 504,-500.51 504,-470.51 674,-470.51 674,-500.51"/>
<text text-anchor="start" x="512" y="-488.51" font-family="Helvetica,sans-Serif" font-size="10.00">wmtk::TetMesh::is_connectivity</text>
<text text-anchor="middle" x="589" y="-477.51" font-family="Helvetica,sans-Serif" font-size="10.00">_valid</text>
</a>
</g>
</g>
<!-- Node10&#45;&gt;Node11 -->
<g id="edge12_Node000010_Node000011" class="edge">
<title>Node10&#45;&gt;Node11</title>
<g id="a_edge12_Node000010_Node000011"><a xlink:title=" ">
<path fill="none" stroke="#63b8ff" d="M403.53,-250.11C431.37,-285.64 529.05,-410.28 569.86,-462.36"/>
<polygon fill="#63b8ff" stroke="#63b8ff" points="567.21,-464.65 576.13,-470.36 572.72,-460.33 567.21,-464.65"/>
</a>
</g>
</g>
<!-- Node24 -->
<g id="Node000024" class="node">
<title>Node24</title>
<g id="a_Node000024"><a xlink:href="namespacewmtk.html#a6a35f11c12436093d26fdd8be6fecc06" target="_top" xlink:title="Retrieves the current logger.">
<polygon fill="white" stroke="#666666" points="838,-361.01 757,-361.01 757,-342.01 838,-342.01 838,-361.01"/>
<text text-anchor="middle" x="797.5" y="-349.01" font-family="Helvetica,sans-Serif" font-size="10.00">wmtk::logger</text>
</a>
</g>
</g>
<!-- Node10&#45;&gt;Node24 -->
<g id="edge39_Node000010_Node000024" class="edge">
<title>Node10&#45;&gt;Node24</title>
<g id="a_edge39_Node000010_Node000024"><a xlink:title=" ">
<path fill="none" stroke="#63b8ff" d="M412.02,-250.2C431.63,-261.67 466.17,-280.57 498,-291.51 583.06,-320.74 686.92,-337.62 747.01,-345.65"/>
<polygon fill="#63b8ff" stroke="#63b8ff" points="746.62,-349.13 756.99,-346.96 747.53,-342.19 746.62,-349.13"/>
</a>
</g>
</g>
<!-- Node27 -->
<g id="Node000027" class="node">
<title>Node27</title>
<g id="a_Node000027"><a xlink:href="classwmtk_1_1_mesh.html#a8cc8686f0688613806f43720b6db49e7" target="_top" xlink:title="check validity of tuple including its hash">
<polygon fill="white" stroke="#666666" points="649,-282.01 529,-282.01 529,-263.01 649,-263.01 649,-282.01"/>
<text text-anchor="middle" x="589" y="-270.01" font-family="Helvetica,sans-Serif" font-size="10.00">wmtk::Mesh::is_valid</text>
</a>
</g>
</g>
<!-- Node10&#45;&gt;Node27 -->
<g id="edge30_Node000010_Node000027" class="edge">
<title>Node10&#45;&gt;Node27</title>
<g id="a_edge30_Node000010_Node000027"><a xlink:title=" ">
<path fill="none" stroke="#63b8ff" d="M453.09,-250.02C474.37,-253.57 498.72,-257.62 520.82,-261.31"/>
<polygon fill="#63b8ff" stroke="#63b8ff" points="520.36,-264.78 530.8,-262.97 521.51,-257.88 520.36,-264.78"/>
</a>
</g>
</g>
<!-- Node30 -->
<g id="Node000030" class="node">
<title>Node30</title>
<g id="a_Node000030"><a xlink:href="namespacewmtk_1_1autogen_1_1tet__mesh.html#a217b7c5c5312a716ad27c99abcfc0eb1" target="_top" xlink:title=" ">
<polygon fill="white" stroke="#666666" points="650,-155.01 528,-155.01 528,-114.01 650,-114.01 650,-155.01"/>
<text text-anchor="start" x="536" y="-143.01" font-family="Helvetica,sans-Serif" font-size="10.00">wmtk::autogen::tet</text>
<text text-anchor="start" x="536" y="-132.01" font-family="Helvetica,sans-Serif" font-size="10.00">_mesh::tuple_is_valid</text>
<text text-anchor="middle" x="589" y="-121.01" font-family="Helvetica,sans-Serif" font-size="10.00">_for_ccw</text>
</a>
</g>
</g>
<!-- Node10&#45;&gt;Node30 -->
<g id="edge40_Node000010_Node000030" class="edge">
<title>Node10&#45;&gt;Node30</title>
<g id="a_edge40_Node000010_Node000030"><a xlink:title=" ">
<path fill="none" stroke="#63b8ff" d="M407.95,-230.77C426.41,-216.06 463.34,-187.97 498,-169.51 504.87,-165.85 512.2,-162.37 519.61,-159.12"/>
<polygon fill="#63b8ff" stroke="#63b8ff" points="521.16,-162.26 529,-155.13 518.43,-155.81 521.16,-162.26"/>
</a>
</g>
</g>
<!-- Node11&#45;&gt;Node9 -->
<g id="edge16_Node000011_Node000009" class="edge">
<title>Node11&#45;&gt;Node9</title>
<g id="a_edge16_Node000011_Node000009"><a xlink:title=" ">
<path fill="none" stroke="#63b8ff" d="M600.79,-500.8C621.39,-529.47 668.53,-592.56 716,-638.51 731.4,-653.41 750.32,-668.13 765.94,-679.49"/>
<polygon fill="#63b8ff" stroke="#63b8ff" points="764.07,-682.46 774.24,-685.43 768.15,-676.76 764.07,-682.46"/>
</a>
</g>
</g>
<!-- Node12 -->
<g id="Node000012" class="node">
<title>Node12</title>
<g id="a_Node000012"><a xlink:href="classwmtk_1_1_mesh.html#a3e8ff83c4a5526a40d18bb9883c6c6c9" target="_top" xlink:title="read in the m_capacities return the upper bound for the number of entities of the given dimension">
<polygon fill="white" stroke="#666666" points="1050,-489.01 926,-489.01 926,-470.01 1050,-470.01 1050,-489.01"/>
<text text-anchor="middle" x="988" y="-477.01" font-family="Helvetica,sans-Serif" font-size="10.00">wmtk::Mesh::capacity</text>
</a>
</g>
</g>
<!-- Node11&#45;&gt;Node12 -->
<g id="edge13_Node000011_Node000012" class="edge">
<title>Node11&#45;&gt;Node12</title>
<g id="a_edge13_Node000011_Node000012"><a xlink:title=" ">
<path fill="none" stroke="#63b8ff" d="M674.19,-484.23C745.96,-483.15 847.97,-481.61 915.75,-480.58"/>
<polygon fill="#63b8ff" stroke="#63b8ff" points="915.97,-484.08 925.91,-480.43 915.86,-477.08 915.97,-484.08"/>
</a>
</g>
</g>
<!-- Node14 -->
<g id="Node000014" class="node">
<title>Node14</title>
<g id="a_Node000014"><a xlink:href="classwmtk_1_1attribute_1_1_accessor.html#a6d3222130c85d3dcd2d7ae51257dc988" target="_top" xlink:title="Constant access function for a scalar attribute.">
<polygon fill="white" stroke="#666666" points="868.5,-457.51 726.5,-457.51 726.5,-427.51 868.5,-427.51 868.5,-457.51"/>
<text text-anchor="start" x="734.5" y="-445.51" font-family="Helvetica,sans-Serif" font-size="10.00">wmtk::attribute::Accessor</text>
<text text-anchor="middle" x="797.5" y="-434.51" font-family="Helvetica,sans-Serif" font-size="10.00">::const_scalar_attribute</text>
</a>
</g>
</g>
<!-- Node11&#45;&gt;Node14 -->
<g id="edge15_Node000011_Node000014" class="edge">
<title>Node11&#45;&gt;Node14</title>
<g id="a_edge15_Node000011_Node000014"><a xlink:title=" ">
<path fill="none" stroke="#63b8ff" d="M662.22,-470.47C679.79,-466.81 698.68,-462.88 716.58,-459.15"/>
<polygon fill="#63b8ff" stroke="#63b8ff" points="717.33,-462.57 726.4,-457.1 715.9,-455.71 717.33,-462.57"/>
</a>
</g>
</g>
<!-- Node15 -->
<g id="Node000015" class="node">
<title>Node15</title>
<g id="a_Node000015"><a xlink:href="classwmtk_1_1_mesh.html#ae3493915b766f0f34f0a9e89603d5773" target="_top" xlink:title=" ">
<polygon fill="white" stroke="#666666" points="858.5,-409.51 736.5,-409.51 736.5,-379.51 858.5,-379.51 858.5,-409.51"/>
<text text-anchor="start" x="744.5" y="-397.51" font-family="Helvetica,sans-Serif" font-size="10.00">wmtk::Mesh::get_flag</text>
<text text-anchor="middle" x="797.5" y="-386.51" font-family="Helvetica,sans-Serif" font-size="10.00">_accessor</text>
</a>
</g>
</g>
<!-- Node11&#45;&gt;Node15 -->
<g id="edge17_Node000011_Node000015" class="edge">
<title>Node11&#45;&gt;Node15</title>
<g id="a_edge17_Node000011_Node000015"><a xlink:title=" ">
<path fill="none" stroke="#63b8ff" d="M614.86,-470.38C639.78,-455.68 679.55,-433.45 716,-418.51 720.77,-416.55 725.76,-414.68 730.81,-412.9"/>
<polygon fill="#63b8ff" stroke="#63b8ff" points="732.21,-416.12 740.57,-409.61 729.97,-409.49 732.21,-416.12"/>
</a>
</g>
</g>
<!-- Node18 -->
<g id="Node000018" class="node">
<title>Node18</title>
<g id="a_Node000018"><a xlink:href="classwmtk_1_1attribute_1_1_flag_accessor.html#a4f49a666c3811fee9b841c1cd1f66250" target="_top" xlink:title=" ">
<polygon fill="white" stroke="#666666" points="879,-629.51 716,-629.51 716,-599.51 879,-599.51 879,-629.51"/>
<text text-anchor="start" x="724" y="-617.51" font-family="Helvetica,sans-Serif" font-size="10.00">wmtk::attribute::FlagAccessor</text>
<text text-anchor="middle" x="797.5" y="-606.51" font-family="Helvetica,sans-Serif" font-size="10.00">::index_access</text>
</a>
</g>
</g>
<!-- Node11&#45;&gt;Node18 -->
<g id="edge21_Node000011_Node000018" class="edge">
<title>Node11&#45;&gt;Node18</title>
<g id="a_edge21_Node000011_Node000018"><a xlink:title=" ">
<path fill="none" stroke="#63b8ff" d="M604.05,-500.61C625.91,-523.28 670.33,-566.01 716,-590.51 719.44,-592.35 723.05,-594.08 726.74,-595.68"/>
<polygon fill="#63b8ff" stroke="#63b8ff" points="725.49,-598.95 736.07,-599.43 728.1,-592.45 725.49,-598.95"/>
</a>
</g>
</g>
<!-- Node19 -->
<g id="Node000019" class="node">
<title>Node19</title>
<g id="a_Node000019"><a xlink:href="classwmtk_1_1attribute_1_1_index_flag_accessor.html#a195252af3f6230f09f0c1379cbec7240" target="_top" xlink:title=" ">
<polygon fill="white" stroke="#666666" points="870.5,-581.51 724.5,-581.51 724.5,-551.51 870.5,-551.51 870.5,-581.51"/>
<text text-anchor="start" x="732.5" y="-569.51" font-family="Helvetica,sans-Serif" font-size="10.00">wmtk::attribute::IndexFlag</text>
<text text-anchor="middle" x="797.5" y="-558.51" font-family="Helvetica,sans-Serif" font-size="10.00">Accessor::is_active</text>
</a>
</g>
</g>
<!-- Node11&#45;&gt;Node19 -->
<g id="edge22_Node000011_Node000019" class="edge">
<title>Node11&#45;&gt;Node19</title>
<g id="a_edge22_Node000011_Node000019"><a xlink:title=" ">
<path fill="none" stroke="#63b8ff" d="M620.32,-500.62C645.55,-512.85 682.6,-530.04 716,-542.51 721.43,-544.53 727.11,-546.51 732.83,-548.4"/>
<polygon fill="#63b8ff" stroke="#63b8ff" points="731.88,-551.77 742.47,-551.49 734.02,-545.1 731.88,-551.77"/>
</a>
</g>
</g>
<!-- Node11&#45;&gt;Node24 -->
<g id="edge27_Node000011_Node000024" class="edge">
<title>Node11&#45;&gt;Node24</title>
<g id="a_edge27_Node000011_Node000024"><a xlink:title=" ">
<path fill="none" stroke="#63b8ff" d="M602.18,-470.18C622.85,-445.28 667.29,-396.23 716,-370.51 725.53,-365.48 736.38,-361.76 746.97,-359.02"/>
<polygon fill="#63b8ff" stroke="#63b8ff" points="748.05,-362.37 756.99,-356.69 746.46,-355.55 748.05,-362.37"/>
</a>
</g>
</g>
<!-- Node26 -->
<g id="Node000026" class="node">
<title>Node26</title>
<g id="a_Node000026"><a xlink:href="classwmtk_1_1_tet_mesh.html#afd39672a8a046e96b7cd0d14516ebe79" target="_top" xlink:title=" ">
<polygon fill="white" stroke="#666666" points="875,-533.01 720,-533.01 720,-514.01 875,-514.01 875,-533.01"/>
<text text-anchor="middle" x="797.5" y="-521.01" font-family="Helvetica,sans-Serif" font-size="10.00">wmtk::TetMesh::tv_accessor</text>
</a>
</g>
</g>
<!-- Node11&#45;&gt;Node26 -->
<g id="edge29_Node000011_Node000026" class="edge">
<title>Node11&#45;&gt;Node26</title>
<g id="a_edge29_Node000011_Node000026"><a xlink:title=" ">
<path fill="none" stroke="#63b8ff" d="M671.61,-500.52C692.73,-504.41 715.12,-508.53 735.02,-512.19"/>
<polygon fill="#63b8ff" stroke="#63b8ff" points="734.4,-515.64 744.87,-514 735.67,-508.75 734.4,-515.64"/>
</a>
</g>
</g>
<!-- Node13 -->
<g id="Node000013" class="node">
<title>Node13</title>
<g id="a_Node000013"><a xlink:href="namespacewmtk.html#a5cf45c152e856196bb734c6f48919a24" target="_top" xlink:title="Get a unique integer id corresponding to each primitive type.">
<polygon fill="white" stroke="#666666" points="1228,-489.51 1112,-489.51 1112,-459.51 1228,-459.51 1228,-489.51"/>
<text text-anchor="start" x="1120" y="-477.51" font-family="Helvetica,sans-Serif" font-size="10.00">wmtk::get_primitive</text>
<text text-anchor="middle" x="1170" y="-466.51" font-family="Helvetica,sans-Serif" font-size="10.00">_type_id</text>
</a>
</g>
</g>
<!-- Node12&#45;&gt;Node13 -->
<g id="edge14_Node000012_Node000013" class="edge">
<title>Node12&#45;&gt;Node13</title>
<g id="a_edge14_Node000012_Node000013"><a xlink:title=" ">
<path fill="none" stroke="#63b8ff" d="M1050.19,-477.81C1066.73,-477.35 1084.73,-476.85 1101.59,-476.38"/>
<polygon fill="#63b8ff" stroke="#63b8ff" points="1102.02,-479.87 1111.92,-476.09 1101.83,-472.87 1102.02,-479.87"/>
</a>
</g>
</g>
<!-- Node16 -->
<g id="Node000016" class="node">
<title>Node16</title>
<g id="a_Node000016"><a xlink:href="classwmtk_1_1_mesh.html#acfa981b31f00aef4438ff5e73bbce2f4" target="_top" xlink:title=" ">
<polygon fill="white" stroke="#666666" points="1053,-427.51 923,-427.51 923,-397.51 1053,-397.51 1053,-427.51"/>
<text text-anchor="start" x="931" y="-415.51" font-family="Helvetica,sans-Serif" font-size="10.00">wmtk::Mesh::get_const</text>
<text text-anchor="middle" x="988" y="-404.51" font-family="Helvetica,sans-Serif" font-size="10.00">_flag_accessor</text>
</a>
</g>
</g>
<!-- Node15&#45;&gt;Node16 -->
<g id="edge18_Node000015_Node000016" class="edge">
<title>Node15&#45;&gt;Node16</title>
<g id="a_edge18_Node000015_Node000016"><a xlink:title=" ">
<path fill="none" stroke="#63b8ff" d="M858.66,-400.25C875.85,-401.89 894.8,-403.7 912.73,-405.41"/>
<polygon fill="#63b8ff" stroke="#63b8ff" points="912.57,-408.91 922.86,-406.38 913.23,-401.95 912.57,-408.91"/>
</a>
</g>
</g>
<!-- Node16&#45;&gt;Node13 -->
<g id="edge20_Node000016_Node000013" class="edge">
<title>Node16&#45;&gt;Node13</title>
<g id="a_edge20_Node000016_Node000013"><a xlink:title=" ">
<path fill="none" stroke="#63b8ff" d="M1032.57,-427.51C1057.59,-436.13 1089.2,-447.02 1115.7,-456.15"/>
<polygon fill="#63b8ff" stroke="#63b8ff" points="1114.61,-459.47 1125.2,-459.42 1116.89,-452.85 1114.61,-459.47"/>
</a>
</g>
</g>
<!-- Node17 -->
<g id="Node000017" class="node">
<title>Node17</title>
<g id="a_Node000017"><a xlink:href="classwmtk_1_1_mesh.html#a4cd7e6ca59d8d58cc7057c13bd190d57" target="_top" xlink:title=" ">
<polygon fill="white" stroke="#666666" points="1226.5,-427.51 1113.5,-427.51 1113.5,-397.51 1226.5,-397.51 1226.5,-427.51"/>
<text text-anchor="start" x="1121.5" y="-415.51" font-family="Helvetica,sans-Serif" font-size="10.00">wmtk::Mesh::create</text>
<text text-anchor="middle" x="1170" y="-404.51" font-family="Helvetica,sans-Serif" font-size="10.00">_const_accessor</text>
</a>
</g>
</g>
<!-- Node16&#45;&gt;Node17 -->
<g id="edge19_Node000016_Node000017" class="edge">
<title>Node16&#45;&gt;Node17</title>
<g id="a_edge19_Node000016_Node000017"><a xlink:title=" ">
<path fill="none" stroke="#63b8ff" d="M1053.22,-412.51C1069.53,-412.51 1087.06,-412.51 1103.43,-412.51"/>
<polygon fill="#63b8ff" stroke="#63b8ff" points="1103.45,-416.01 1113.45,-412.51 1103.45,-409.01 1103.45,-416.01"/>
</a>
</g>
</g>
<!-- Node20 -->
<g id="Node000020" class="node">
<title>Node20</title>
<g id="a_Node000020"><a xlink:href="classwmtk_1_1attribute_1_1_index_flag_accessor.html#a08ce19b077654f9e384d8c3fffcbbd0b" target="_top" xlink:title=" ">
<polygon fill="white" stroke="#666666" points="1061,-539.51 915,-539.51 915,-509.51 1061,-509.51 1061,-539.51"/>
<text text-anchor="start" x="923" y="-527.51" font-family="Helvetica,sans-Serif" font-size="10.00">wmtk::attribute::IndexFlag</text>
<text text-anchor="middle" x="988" y="-516.51" font-family="Helvetica,sans-Serif" font-size="10.00">Accessor::_is_active</text>
</a>
</g>
</g>
<!-- Node19&#45;&gt;Node20 -->
<g id="edge23_Node000019_Node000020" class="edge">
<title>Node19&#45;&gt;Node20</title>
<g id="a_edge23_Node000019_Node000020"><a xlink:title=" ">
<path fill="none" stroke="#63b8ff" d="M866.02,-551.46C880.18,-548.31 895.22,-544.95 909.71,-541.73"/>
<polygon fill="#63b8ff" stroke="#63b8ff" points="910.63,-545.11 919.63,-539.51 909.11,-538.27 910.63,-545.11"/>
</a>
</g>
</g>
<!-- Node21 -->
<g id="Node000021" class="node">
<title>Node21</title>
<g id="a_Node000021"><a xlink:href="classwmtk_1_1attribute_1_1_index_flag_accessor.html#a209b3c34d677a60d321806e30da8d287" target="_top" xlink:title=" ">
<polygon fill="white" stroke="#666666" points="1061,-587.51 915,-587.51 915,-557.51 1061,-557.51 1061,-587.51"/>
<text text-anchor="start" x="923" y="-575.51" font-family="Helvetica,sans-Serif" font-size="10.00">wmtk::attribute::IndexFlag</text>
<text text-anchor="middle" x="988" y="-564.51" font-family="Helvetica,sans-Serif" font-size="10.00">Accessor::attribute</text>
</a>
</g>
</g>
<!-- Node19&#45;&gt;Node21 -->
<g id="edge24_Node000019_Node000021" class="edge">
<title>Node19&#45;&gt;Node21</title>
<g id="a_edge24_Node000019_Node000021"><a xlink:title=" ">
<path fill="none" stroke="#63b8ff" d="M870.57,-568.8C881.71,-569.15 893.29,-569.52 904.64,-569.88"/>
<polygon fill="#63b8ff" stroke="#63b8ff" points="904.86,-573.39 914.97,-570.21 905.09,-566.4 904.86,-573.39"/>
</a>
</g>
</g>
<!-- Node22 -->
<g id="Node000022" class="node">
<title>Node22</title>
<g id="a_Node000022"><a xlink:href="classwmtk_1_1attribute_1_1_accessor.html#aaeafc36889f90d4e4e9478f998d240d7" target="_top" xlink:title=" ">
<polygon fill="white" stroke="#666666" points="1241,-592.51 1099,-592.51 1099,-562.51 1241,-562.51 1241,-592.51"/>
<text text-anchor="start" x="1107" y="-580.51" font-family="Helvetica,sans-Serif" font-size="10.00">wmtk::attribute::Accessor</text>
<text text-anchor="middle" x="1170" y="-569.51" font-family="Helvetica,sans-Serif" font-size="10.00">::attribute</text>
</a>
</g>
</g>
<!-- Node21&#45;&gt;Node22 -->
<g id="edge25_Node000021_Node000022" class="edge">
<title>Node21&#45;&gt;Node22</title>
<g id="a_edge25_Node000021_Node000022"><a xlink:title=" ">
<path fill="none" stroke="#63b8ff" d="M1061.18,-574.51C1070.2,-574.76 1079.47,-575.02 1088.62,-575.27"/>
<polygon fill="#63b8ff" stroke="#63b8ff" points="1088.76,-578.78 1098.86,-575.56 1088.96,-571.78 1088.76,-578.78"/>
</a>
</g>
</g>
<!-- Node23 -->
<g id="Node000023" class="node">
<title>Node23</title>
<g id="a_Node000023"><a xlink:href="classwmtk_1_1attribute_1_1_index_flag_accessor.html#a37e882007dc57e3571c18163a709a246" target="_top" xlink:title=" ">
<polygon fill="white" stroke="#666666" points="1243,-544.51 1097,-544.51 1097,-514.51 1243,-514.51 1243,-544.51"/>
<text text-anchor="start" x="1105" y="-532.51" font-family="Helvetica,sans-Serif" font-size="10.00">wmtk::attribute::IndexFlag</text>
<text text-anchor="middle" x="1170" y="-521.51" font-family="Helvetica,sans-Serif" font-size="10.00">Accessor::base_accessor</text>
</a>
</g>
</g>
<!-- Node21&#45;&gt;Node23 -->
<g id="edge26_Node000021_Node000023" class="edge">
<title>Node21&#45;&gt;Node23</title>
<g id="a_edge26_Node000021_Node000023"><a xlink:title=" ">
<path fill="none" stroke="#63b8ff" d="M1051.96,-557.47C1066.21,-554.06 1081.45,-550.42 1096.08,-546.93"/>
<polygon fill="#63b8ff" stroke="#63b8ff" points="1097.17,-550.26 1106.08,-544.54 1095.54,-543.46 1097.17,-550.26"/>
</a>
</g>
</g>
<!-- Node25 -->
<g id="Node000025" class="node">
<title>Node25</title>
<g id="a_Node000025"><a xlink:href="namespacewmtk.html#a3daa7951a5f8b78cf4600dc047fcc180" target="_top" xlink:title="Setup a logger object to be used by WildmeshToolkit.">
<polygon fill="white" stroke="#666666" points="1038.5,-361.01 937.5,-361.01 937.5,-342.01 1038.5,-342.01 1038.5,-361.01"/>
<text text-anchor="middle" x="988" y="-349.01" font-family="Helvetica,sans-Serif" font-size="10.00">wmtk::set_logger</text>
</a>
</g>
</g>
<!-- Node24&#45;&gt;Node25 -->
<g id="edge28_Node000024_Node000025" class="edge">
<title>Node24&#45;&gt;Node25</title>
<g id="a_edge28_Node000024_Node000025"><a xlink:title=" ">
<path fill="none" stroke="#63b8ff" d="M838.02,-351.51C863.9,-351.51 898.2,-351.51 927.37,-351.51"/>
<polygon fill="#63b8ff" stroke="#63b8ff" points="927.45,-355.01 937.45,-351.51 927.45,-348.01 927.45,-355.01"/>
</a>
</g>
</g>
<!-- Node27&#45;&gt;Node24 -->
<g id="edge35_Node000027_Node000024" class="edge">
<title>Node27&#45;&gt;Node24</title>
<g id="a_edge35_Node000027_Node000024"><a xlink:title=" ">
<path fill="none" stroke="#63b8ff" d="M615.74,-282.03C634.04,-289.13 658.98,-299.46 680,-310.51 696.81,-319.34 698.47,-326.21 716,-333.51 725.72,-337.55 736.49,-340.75 746.92,-343.27"/>
<polygon fill="#63b8ff" stroke="#63b8ff" points="746.23,-346.7 756.76,-345.47 747.76,-339.87 746.23,-346.7"/>
</a>
</g>
</g>
<!-- Node28 -->
<g id="Node000028" class="node">
<title>Node28</title>
<g id="a_Node000028"><a xlink:href="classwmtk_1_1_tuple.html#a0023f575be92cd5ceeeaaaa3762ea06d" target="_top" xlink:title="Checks if a tuple is &quot;null&quot;. This merely implies the global index is &#45;1.">
<polygon fill="white" stroke="#666666" points="854,-269.01 741,-269.01 741,-250.01 854,-250.01 854,-269.01"/>
<text text-anchor="middle" x="797.5" y="-257.01" font-family="Helvetica,sans-Serif" font-size="10.00">wmtk::Tuple::is_null</text>
</a>
</g>
</g>
<!-- Node27&#45;&gt;Node28 -->
<g id="edge31_Node000027_Node000028" class="edge">
<title>Node27&#45;&gt;Node28</title>
<g id="a_edge31_Node000027_Node000028"><a xlink:title=" ">
<path fill="none" stroke="#63b8ff" d="M649.17,-268.78C674.64,-267.18 704.5,-265.3 730.66,-263.65"/>
<polygon fill="#63b8ff" stroke="#63b8ff" points="731.1,-267.13 740.86,-263.01 730.66,-260.14 731.1,-267.13"/>
</a>
</g>
</g>
<!-- Node29 -->
<g id="Node000029" class="node">
<title>Node29</title>
<g id="a_Node000029"><a xlink:href="classwmtk_1_1_mesh.html#ade176d345902d97af8c5da04aa3a095b" target="_top" xlink:title=" ">
<polygon fill="white" stroke="#666666" points="867.5,-306.01 727.5,-306.01 727.5,-287.01 867.5,-287.01 867.5,-306.01"/>
<text text-anchor="middle" x="797.5" y="-294.01" font-family="Helvetica,sans-Serif" font-size="10.00">wmtk::Mesh::is_removed</text>
</a>
</g>
</g>
<!-- Node27&#45;&gt;Node29 -->
<g id="edge32_Node000027_Node000029" class="edge">
<title>Node27&#45;&gt;Node29</title>
<g id="a_edge32_Node000027_Node000029"><a xlink:title=" ">
<path fill="none" stroke="#63b8ff" d="M649.17,-279.38C670.46,-281.86 694.82,-284.69 717.52,-287.33"/>
<polygon fill="#63b8ff" stroke="#63b8ff" points="717.13,-290.8 727.47,-288.48 717.94,-283.85 717.13,-290.8"/>
</a>
</g>
</g>
<!-- Node29&#45;&gt;Node4 -->
<g id="edge33_Node000029_Node000004" class="edge">
<title>Node29&#45;&gt;Node4</title>
<g id="a_edge33_Node000029_Node000004"><a xlink:title=" ">
<path fill="none" stroke="#63b8ff" d="M857.32,-286.99C864.82,-284.74 872.24,-281.95 879,-278.51 917.51,-258.91 953.3,-222.4 972.46,-200.8"/>
<polygon fill="#63b8ff" stroke="#63b8ff" points="975.26,-202.9 979.17,-193.06 969.97,-198.32 975.26,-202.9"/>
</a>
</g>
</g>
<!-- Node29&#45;&gt;Node29 -->
<g id="edge34_Node000029_Node000029" class="edge">
<title>Node29&#45;&gt;Node29</title>
<g id="a_edge34_Node000029_Node000029"><a xlink:title=" ">
<path fill="none" stroke="#63b8ff" d="M768.22,-306.09C753.97,-314.74 763.73,-324.01 797.5,-324.01 820.72,-324.01 832.59,-319.63 833.11,-314.08"/>
<polygon fill="#63b8ff" stroke="#63b8ff" points="835.73,-311.76 826.78,-306.09 830.25,-316.1 835.73,-311.76"/>
</a>
</g>
</g>
<!-- Node31 -->
<g id="Node000031" class="node">
<title>Node31</title>
<g id="a_Node000031"><a xlink:href="namespacewmtk_1_1autogen_1_1tet__mesh.html#ace6b80b1be9aec0d6a5ac5d144b40965" target="_top" xlink:title=" ">
<polygon fill="white" stroke="#666666" points="858.5,-117.01 736.5,-117.01 736.5,-76.01 858.5,-76.01 858.5,-117.01"/>
<text text-anchor="start" x="744.5" y="-105.01" font-family="Helvetica,sans-Serif" font-size="10.00">wmtk::autogen::tet</text>
<text text-anchor="start" x="744.5" y="-94.01" font-family="Helvetica,sans-Serif" font-size="10.00">_mesh::local_id_table</text>
<text text-anchor="middle" x="797.5" y="-83.01" font-family="Helvetica,sans-Serif" font-size="10.00">_offset</text>
</a>
</g>
</g>
<!-- Node30&#45;&gt;Node31 -->
<g id="edge41_Node000030_Node000031" class="edge">
<title>Node30&#45;&gt;Node31</title>
<g id="a_edge41_Node000030_Node000031"><a xlink:title=" ">
<path fill="none" stroke="#63b8ff" d="M650.01,-123.46C673.87,-119.07 701.49,-113.99 726.28,-109.43"/>
<polygon fill="#63b8ff" stroke="#63b8ff" points="727.14,-112.83 736.34,-107.57 725.88,-105.94 727.14,-112.83"/>
</a>
</g>
</g>
<!-- Node31&#45;&gt;Node5 -->
<g id="edge42_Node000031_Node000005" class="edge">
<title>Node31&#45;&gt;Node5</title>
<g id="a_edge42_Node000031_Node000005"><a xlink:title=" ">
<path fill="none" stroke="#63b8ff" d="M858.66,-96.51C876.66,-96.51 896.58,-96.51 915.25,-96.51"/>
<polygon fill="#63b8ff" stroke="#63b8ff" points="915.47,-100.01 925.47,-96.51 915.47,-93.01 915.47,-100.01"/>
</a>
</g>
</g>
<!-- Node31&#45;&gt;Node6 -->
<g id="edge43_Node000031_Node000006" class="edge">
<title>Node31&#45;&gt;Node6</title>
<g id="a_edge43_Node000031_Node000006"><a xlink:title=" ">
<path fill="none" stroke="#63b8ff" d="M813.7,-117.36C832.57,-144.47 864.09,-193.98 879,-241.51 926.46,-392.82 841.14,-456.17 915,-596.51 925.3,-616.08 944.76,-631.97 960.85,-642.62"/>
<polygon fill="#63b8ff" stroke="#63b8ff" points="959.04,-645.62 969.37,-647.99 962.78,-639.7 959.04,-645.62"/>
</a>
</g>
</g>
<!-- Node31&#45;&gt;Node7 -->
<g id="edge44_Node000031_Node000007" class="edge">
<title>Node31&#45;&gt;Node7</title>
<g id="a_edge44_Node000031_Node000007"><a xlink:title=" ">
<path fill="none" stroke="#63b8ff" d="M858.66,-81.19C884.89,-74.51 915.2,-66.79 939.77,-60.53"/>
<polygon fill="#63b8ff" stroke="#63b8ff" points="940.74,-63.9 949.57,-58.04 939.02,-57.11 940.74,-63.9"/>
</a>
</g>
</g>
<!-- Node32&#45;&gt;Node4 -->
<g id="edge47_Node000032_Node000004" class="edge">
<title>Node32&#45;&gt;Node4</title>
<g id="a_edge47_Node000032_Node000004"><a xlink:title=" ">
<path fill="none" stroke="#63b8ff" d="M655.1,-95.63C663.59,-98.25 672.09,-101.21 680,-104.51 697.1,-111.62 698.73,-118.82 716,-125.51 779.99,-150.29 856.79,-165.46 912.27,-174.03"/>
<polygon fill="#63b8ff" stroke="#63b8ff" points="911.97,-177.53 922.38,-175.56 913.01,-170.61 911.97,-177.53"/>
</a>
</g>
</g>
<!-- Node32&#45;&gt;Node31 -->
<g id="edge48_Node000032_Node000031" class="edge">
<title>Node32&#45;&gt;Node31</title>
<g id="a_edge48_Node000032_Node000031"><a xlink:title=" ">
<path fill="none" stroke="#63b8ff" d="M661.64,-86.06C682.57,-87.68 705.41,-89.45 726.24,-91.06"/>
<polygon fill="#63b8ff" stroke="#63b8ff" points="726.05,-94.56 736.29,-91.84 726.59,-87.58 726.05,-94.56"/>
</a>
</g>
</g>
</g>
</svg>
