<?xml version="1.0" encoding="UTF-8" standalone="no"?>
<!DOCTYPE svg PUBLIC "-//W3C//DTD SVG 1.1//EN"
 "http://www.w3.org/Graphics/SVG/1.1/DTD/svg11.dtd">
<!-- Generated by graphviz version 2.43.0 (0)
 -->
<!-- Title: wmtk::components::isotropic_remeshing::IsotropicRemeshing::get_attribute Pages: 1 -->
<!--zoomable 486 -->

<svg id="main" version="1.1" xmlns="http://www.w3.org/2000/svg" xmlns:xlink="http://www.w3.org/1999/xlink" xml:space="preserve" onload="init(evt)">
<style type="text/css"><![CDATA[
.node, .edge {opacity: 0.7;}
.node.selected, .edge.selected {opacity: 1;}
.edge:hover path { stroke: red; }
.edge:hover polygon { stroke: red; fill: red; }
]]></style>

<defs>
  <circle id="rim" cx="0" cy="0" r="7"/>
  <circle id="rim2" cx="0" cy="0" r="3.5"/>
  <g id="zoomPlus">
    <use xlink:href="#rim" fill="#404040"><set attributeName="fill" to="#808080" begin="zoomplus.mouseover" end="zoomplus.mouseout"/></use>
    <path d="M-4,0h8M0,-4v8" fill="none" stroke="white" stroke-width="1.5" pointer-events="none"/>
  </g>
  <g id="zoomMin">
    <use xlink:href="#rim" fill="#404040"><set attributeName="fill" to="#808080" begin="zoomminus.mouseover" end="zoomminus.mouseout"/></use>
    <path d="M-4,0h8" fill="none" stroke="white" stroke-width="1.5" pointer-events="none"/>
  </g>
  <g id="arrowUp" transform="translate(30 24)">
    <use xlink:href="#rim"/>
    <path pointer-events="none" fill="none" stroke="white" stroke-width="1.5" d="M0,-3.0v7 M-2.5,-0.5L0,-3.0L2.5,-0.5"/>
  </g>
  <g id="arrowRight" transform="rotate(90) translate(36 -43)">
    <use xlink:href="#rim"/>
    <path pointer-events="none" fill="none" stroke="white" stroke-width="1.5" d="M0,-3.0v7 M-2.5,-0.5L0,-3.0L2.5,-0.5"/>
  </g>
  <g id="arrowDown" transform="rotate(180) translate(-30 -48)">
    <use xlink:href="#rim"/>
    <path pointer-events="none" fill="none" stroke="white" stroke-width="1.5" d="M0,-3.0v7 M-2.5,-0.5L0,-3.0L2.5,-0.5"/>
  </g>
  <g id="arrowLeft" transform="rotate(270) translate(-36 17)">
    <use xlink:href="#rim"/>
    <path pointer-events="none" fill="none" stroke="white" stroke-width="1.5" d="M0,-3.0v7 M-2.5,-0.5L0,-3.0L2.5,-0.5"/>
  </g>
  <g id="resetDef">
    <use xlink:href="#rim2" fill="#404040"><set attributeName="fill" to="#808080" begin="reset.mouseover" end="reset.mouseout"/></use>
  </g>
</defs>
<script type="application/ecmascript">
var viewWidth = 1032;
var viewHeight = 486;
var sectionId = 'dynsection-15';
</script>
<script type="application/ecmascript" xlink:href="svg.min.js"/>
<svg id="graph" class="graph">
<g id="viewport">
<title>wmtk::components::isotropic_remeshing::IsotropicRemeshing::get_attribute</title>
<!-- Node1 -->
<g id="Node000001" class="node">
<title>Node1</title>
<g id="a_Node000001"><a xlink:title=" ">
<polygon fill="#999999" stroke="#666666" points="1024,-257 848,-257 848,-216 1024,-216 1024,-257"/>
<text text-anchor="start" x="856" y="-245" font-family="Helvetica,sans-Serif" font-size="10.00">wmtk::components::isotropic</text>
<text text-anchor="start" x="856" y="-234" font-family="Helvetica,sans-Serif" font-size="10.00">_remeshing::IsotropicRemeshing</text>
<text text-anchor="middle" x="936" y="-223" font-family="Helvetica,sans-Serif" font-size="10.00">::get_attribute</text>
</a>
</g>
</g>
<!-- Node2 -->
<g id="Node000002" class="node">
<title>Node2</title>
<g id="a_Node000002"><a xlink:href="classwmtk_1_1components_1_1isotropic__remeshing_1_1_isotropic_remeshing.html#a908c885c90ec1d2117fe28438639744f" target="_top" xlink:title=" ">
<polygon fill="white" stroke="#666666" points="812,-380 636,-380 636,-339 812,-339 812,-380"/>
<text text-anchor="start" x="644" y="-368" font-family="Helvetica,sans-Serif" font-size="10.00">wmtk::components::isotropic</text>
<text text-anchor="start" x="644" y="-357" font-family="Helvetica,sans-Serif" font-size="10.00">_remeshing::IsotropicRemeshing</text>
<text text-anchor="middle" x="724" y="-346" font-family="Helvetica,sans-Serif" font-size="10.00">::all_envelope_positions</text>
</a>
</g>
</g>
<!-- Node1&#45;&gt;Node2 -->
<g id="edge1_Node000001_Node000002" class="edge">
<title>Node1&#45;&gt;Node2</title>
<g id="a_edge1_Node000001_Node000002"><a xlink:title=" ">
<path fill="none" stroke="#63b8ff" d="M901.74,-263.62C877.77,-282.32 844.12,-306.88 812,-324.5 802.58,-329.67 792.23,-334.5 782.07,-338.82"/>
<polygon fill="#63b8ff" stroke="#63b8ff" points="904.11,-266.21 909.8,-257.27 899.78,-260.72 904.11,-266.21"/>
</a>
</g>
</g>
<!-- Node3 -->
<g id="Node000003" class="node">
<title>Node3</title>
<g id="a_Node000003"><a xlink:href="classwmtk_1_1components_1_1isotropic__remeshing_1_1_isotropic_remeshing.html#acfec4d484d48b22125364adef857f804" target="_top" xlink:title=" ">
<polygon fill="white" stroke="#666666" points="600,-380 424,-380 424,-339 600,-339 600,-380"/>
<text text-anchor="start" x="432" y="-368" font-family="Helvetica,sans-Serif" font-size="10.00">wmtk::components::isotropic</text>
<text text-anchor="start" x="432" y="-357" font-family="Helvetica,sans-Serif" font-size="10.00">_remeshing::IsotropicRemeshing</text>
<text text-anchor="middle" x="512" y="-346" font-family="Helvetica,sans-Serif" font-size="10.00">::make_envelopes</text>
</a>
</g>
</g>
<!-- Node1&#45;&gt;Node3 -->
<g id="edge18_Node000001_Node000003" class="edge">
<title>Node1&#45;&gt;Node3</title>
<g id="a_edge18_Node000001_Node000003"><a xlink:title=" ">
<path fill="none" stroke="#63b8ff" d="M921.38,-266.26C902.67,-303.08 865.18,-364.02 812,-389.5 731.67,-427.99 625.48,-401.79 563.66,-380.07"/>
<polygon fill="#63b8ff" stroke="#63b8ff" points="924.65,-267.53 925.94,-257.01 918.38,-264.43 924.65,-267.53"/>
</a>
</g>
</g>
<!-- Node4 -->
<g id="Node000004" class="node">
<title>Node4</title>
<g id="a_Node000004"><a xlink:href="classwmtk_1_1components_1_1isotropic__remeshing_1_1_isotropic_remeshing.html#a4201a22bb922c311924990b8d4738837" target="_top" xlink:title=" ">
<polygon fill="white" stroke="#666666" points="388,-309 212,-309 212,-268 388,-268 388,-309"/>
<text text-anchor="start" x="220" y="-297" font-family="Helvetica,sans-Serif" font-size="10.00">wmtk::components::isotropic</text>
<text text-anchor="start" x="220" y="-286" font-family="Helvetica,sans-Serif" font-size="10.00">_remeshing::IsotropicRemeshing</text>
<text text-anchor="middle" x="300" y="-275" font-family="Helvetica,sans-Serif" font-size="10.00">::load_shared_invariants</text>
</a>
</g>
</g>
<!-- Node1&#45;&gt;Node4 -->
<g id="edge15_Node000001_Node000004" class="edge">
<title>Node1&#45;&gt;Node4</title>
<g id="a_edge15_Node000001_Node000004"><a xlink:title=" ">
<path fill="none" stroke="#63b8ff" d="M890.72,-261.75C867.97,-273.29 839.34,-285.66 812,-291.5 665.8,-322.7 490.68,-311.53 388.05,-300.25"/>
<polygon fill="#63b8ff" stroke="#63b8ff" points="892.51,-264.77 899.77,-257.05 889.28,-258.55 892.51,-264.77"/>
</a>
</g>
</g>
<!-- Node5 -->
<g id="Node000005" class="node">
<title>Node5</title>
<g id="a_Node000005"><a xlink:href="classwmtk_1_1components_1_1isotropic__remeshing_1_1_isotropic_remeshing.html#a31844ec38531cdf196cd22bc57ca2dba" target="_top" xlink:title=" ">
<polygon fill="white" stroke="#666666" points="176,-198 0,-198 0,-157 176,-157 176,-198"/>
<text text-anchor="start" x="8" y="-186" font-family="Helvetica,sans-Serif" font-size="10.00">wmtk::components::isotropic</text>
<text text-anchor="start" x="8" y="-175" font-family="Helvetica,sans-Serif" font-size="10.00">_remeshing::IsotropicRemeshing</text>
<text text-anchor="middle" x="88" y="-164" font-family="Helvetica,sans-Serif" font-size="10.00">::IsotropicRemeshing</text>
</a>
</g>
</g>
<!-- Node1&#45;&gt;Node5 -->
<g id="edge14_Node000001_Node000005" class="edge">
<title>Node1&#45;&gt;Node5</title>
<g id="a_edge14_Node000001_Node000005"><a xlink:title=" ">
<path fill="none" stroke="#63b8ff" d="M837.59,-232.28C698.59,-225.85 435.43,-212.11 212,-191.5 200.44,-190.43 188.29,-189.19 176.3,-187.9"/>
<polygon fill="#63b8ff" stroke="#63b8ff" points="837.63,-235.79 847.79,-232.75 837.96,-228.8 837.63,-235.79"/>
</a>
</g>
</g>
<!-- Node7 -->
<g id="Node000007" class="node">
<title>Node7</title>
<g id="a_Node000007"><a xlink:href="classwmtk_1_1components_1_1isotropic__remeshing_1_1_isotropic_remeshing.html#a1b56eedafe8865b7ececb2d19f5eb670" target="_top" xlink:title=" ">
<polygon fill="white" stroke="#666666" points="600,-198 424,-198 424,-157 600,-157 600,-198"/>
<text text-anchor="start" x="432" y="-186" font-family="Helvetica,sans-Serif" font-size="10.00">wmtk::components::isotropic</text>
<text text-anchor="start" x="432" y="-175" font-family="Helvetica,sans-Serif" font-size="10.00">_remeshing::IsotropicRemeshing</text>
<text text-anchor="middle" x="512" y="-164" font-family="Helvetica,sans-Serif" font-size="10.00">::configure_collapse</text>
</a>
</g>
</g>
<!-- Node1&#45;&gt;Node7 -->
<g id="edge6_Node000001_Node000007" class="edge">
<title>Node1&#45;&gt;Node7</title>
<g id="a_edge6_Node000001_Node000007"><a xlink:title=" ">
<path fill="none" stroke="#63b8ff" d="M868.52,-212.91C850.4,-207.33 830.62,-201.98 812,-198.5 741.41,-185.3 660.04,-180.23 600.02,-178.36"/>
<polygon fill="#63b8ff" stroke="#63b8ff" points="867.53,-216.27 878.12,-215.94 869.63,-209.59 867.53,-216.27"/>
</a>
</g>
</g>
<!-- Node8 -->
<g id="Node000008" class="node">
<title>Node8</title>
<g id="a_Node000008"><a xlink:href="classwmtk_1_1components_1_1isotropic__remeshing_1_1_isotropic_remeshing.html#a92685d707ff38f233bbc28660d33e00a" target="_top" xlink:title=" ">
<polygon fill="white" stroke="#666666" points="600,-139 424,-139 424,-98 600,-98 600,-139"/>
<text text-anchor="start" x="432" y="-127" font-family="Helvetica,sans-Serif" font-size="10.00">wmtk::components::isotropic</text>
<text text-anchor="start" x="432" y="-116" font-family="Helvetica,sans-Serif" font-size="10.00">_remeshing::IsotropicRemeshing</text>
<text text-anchor="middle" x="512" y="-105" font-family="Helvetica,sans-Serif" font-size="10.00">::configure_smooth</text>
</a>
</g>
</g>
<!-- Node1&#45;&gt;Node8 -->
<g id="edge8_Node000001_Node000008" class="edge">
<title>Node1&#45;&gt;Node8</title>
<g id="a_edge8_Node000001_Node000008"><a xlink:title=" ">
<path fill="none" stroke="#63b8ff" d="M890.12,-211.07C867.32,-199.08 838.83,-185.47 812,-176.5 742.55,-153.27 660.73,-138.2 600.25,-129.26"/>
<polygon fill="#63b8ff" stroke="#63b8ff" points="888.72,-214.3 899.19,-215.92 892.02,-208.12 888.72,-214.3"/>
</a>
</g>
</g>
<!-- Node9 -->
<g id="Node000009" class="node">
<title>Node9</title>
<g id="a_Node000009"><a xlink:href="classwmtk_1_1components_1_1isotropic__remeshing_1_1_isotropic_remeshing.html#a5b19a293d235baa075ac83cbd921bc04" target="_top" xlink:title=" ">
<polygon fill="white" stroke="#666666" points="388,-103 212,-103 212,-62 388,-62 388,-103"/>
<text text-anchor="start" x="220" y="-91" font-family="Helvetica,sans-Serif" font-size="10.00">wmtk::components::isotropic</text>
<text text-anchor="start" x="220" y="-80" font-family="Helvetica,sans-Serif" font-size="10.00">_remeshing::IsotropicRemeshing</text>
<text text-anchor="middle" x="300" y="-69" font-family="Helvetica,sans-Serif" font-size="10.00">::configure_split</text>
</a>
</g>
</g>
<!-- Node1&#45;&gt;Node9 -->
<g id="edge10_Node000001_Node000009" class="edge">
<title>Node1&#45;&gt;Node9</title>
<g id="a_edge10_Node000001_Node000009"><a xlink:title=" ">
<path fill="none" stroke="#63b8ff" d="M910.22,-208.51C887.2,-184.32 850.72,-150.36 812,-131.5 675.4,-64.95 494.09,-65.31 388.21,-72.97"/>
<polygon fill="#63b8ff" stroke="#63b8ff" points="907.83,-211.07 917.21,-215.99 912.94,-206.29 907.83,-211.07"/>
</a>
</g>
</g>
<!-- Node10 -->
<g id="Node000010" class="node">
<title>Node10</title>
<g id="a_Node000010"><a xlink:href="classwmtk_1_1components_1_1isotropic__remeshing_1_1_isotropic_remeshing.html#ad22ce058f76ec1434f41ce7fb2bd6ffa" target="_top" xlink:title=" ">
<polygon fill="white" stroke="#666666" points="600,-41 424,-41 424,0 600,0 600,-41"/>
<text text-anchor="start" x="432" y="-29" font-family="Helvetica,sans-Serif" font-size="10.00">wmtk::components::isotropic</text>
<text text-anchor="start" x="432" y="-18" font-family="Helvetica,sans-Serif" font-size="10.00">_remeshing::IsotropicRemeshing</text>
<text text-anchor="middle" x="512" y="-7" font-family="Helvetica,sans-Serif" font-size="10.00">::configure_swap</text>
</a>
</g>
</g>
<!-- Node1&#45;&gt;Node10 -->
<g id="edge12_Node000001_Node000010" class="edge">
<title>Node1&#45;&gt;Node10</title>
<g id="a_edge12_Node000001_Node000010"><a xlink:title=" ">
<path fill="none" stroke="#63b8ff" d="M924,-206.57C906.98,-164.94 870.04,-90.71 812,-55.5 748.55,-17.01 663.49,-10.45 600.32,-12.24"/>
<polygon fill="#63b8ff" stroke="#63b8ff" points="920.77,-207.92 927.71,-215.92 927.27,-205.33 920.77,-207.92"/>
</a>
</g>
</g>
<!-- Node11 -->
<g id="Node000011" class="node">
<title>Node11</title>
<g id="a_Node000011"><a xlink:href="classwmtk_1_1components_1_1isotropic__remeshing_1_1_isotropic_remeshing.html#ab9a3a611c8520fba55213c87fc15dbe6" target="_top" xlink:title=" ">
<polygon fill="white" stroke="#666666" points="812,-478 636,-478 636,-437 812,-437 812,-478"/>
<text text-anchor="start" x="644" y="-466" font-family="Helvetica,sans-Serif" font-size="10.00">wmtk::components::isotropic</text>
<text text-anchor="start" x="644" y="-455" font-family="Helvetica,sans-Serif" font-size="10.00">_remeshing::IsotropicRemeshing</text>
<text text-anchor="middle" x="724" y="-444" font-family="Helvetica,sans-Serif" font-size="10.00">::load_transfers</text>
</a>
</g>
</g>
<!-- Node1&#45;&gt;Node11 -->
<g id="edge16_Node000001_Node000011" class="edge">
<title>Node1&#45;&gt;Node11</title>
<g id="a_edge16_Node000001_Node000011"><a xlink:title=" ">
<path fill="none" stroke="#63b8ff" d="M922.23,-266.39C903.53,-306.91 865.06,-379.19 812,-422.5 805.19,-428.06 797.38,-432.83 789.3,-436.9"/>
<polygon fill="#63b8ff" stroke="#63b8ff" points="925.52,-267.6 926.45,-257.05 919.14,-264.72 925.52,-267.6"/>
</a>
</g>
</g>
<!-- Node12 -->
<g id="Node000012" class="node">
<title>Node12</title>
<g id="a_Node000012"><a xlink:href="classwmtk_1_1components_1_1isotropic__remeshing_1_1_isotropic_remeshing.html#a148f1c1f12632033879aab416bf93592" target="_top" xlink:title=" ">
<polygon fill="white" stroke="#666666" points="812,-282 636,-282 636,-241 812,-241 812,-282"/>
<text text-anchor="start" x="644" y="-270" font-family="Helvetica,sans-Serif" font-size="10.00">wmtk::components::isotropic</text>
<text text-anchor="start" x="644" y="-259" font-family="Helvetica,sans-Serif" font-size="10.00">_remeshing::IsotropicRemeshing</text>
<text text-anchor="middle" x="724" y="-248" font-family="Helvetica,sans-Serif" font-size="10.00">::make_interior_invariants</text>
</a>
</g>
</g>
<!-- Node1&#45;&gt;Node12 -->
<g id="edge19_Node000001_Node000012" class="edge">
<title>Node1&#45;&gt;Node12</title>
<g id="a_edge19_Node000001_Node000012"><a xlink:title=" ">
<path fill="none" stroke="#63b8ff" d="M837.82,-248.07C829.31,-249.08 820.73,-250.1 812.3,-251.11"/>
<polygon fill="#63b8ff" stroke="#63b8ff" points="838.25,-251.54 847.77,-246.89 837.42,-244.59 838.25,-251.54"/>
</a>
</g>
</g>
<!-- Node2&#45;&gt;Node3 -->
<g id="edge2_Node000002_Node000003" class="edge">
<title>Node2&#45;&gt;Node3</title>
<g id="a_edge2_Node000002_Node000003"><a xlink:title=" ">
<path fill="none" stroke="#63b8ff" d="M625.54,-359.5C617.12,-359.5 608.63,-359.5 600.3,-359.5"/>
<polygon fill="#63b8ff" stroke="#63b8ff" points="625.77,-363 635.77,-359.5 625.77,-356 625.77,-363"/>
</a>
</g>
</g>
<!-- Node3&#45;&gt;Node4 -->
<g id="edge3_Node000003_Node000004" class="edge">
<title>Node3&#45;&gt;Node4</title>
<g id="a_edge3_Node000003_Node000004"><a xlink:title=" ">
<path fill="none" stroke="#63b8ff" d="M440.65,-335.72C415.16,-327.1 386.59,-317.44 361.97,-309.11"/>
<polygon fill="#63b8ff" stroke="#63b8ff" points="439.67,-339.08 450.26,-338.96 441.91,-332.45 439.67,-339.08"/>
</a>
</g>
</g>
<!-- Node6 -->
<g id="Node000006" class="node">
<title>Node6</title>
<g id="a_Node000006"><a xlink:href="classwmtk_1_1components_1_1isotropic__remeshing_1_1_isotropic_remeshing.html#aefd40b6c02e33452551477eb1c6371ce" target="_top" xlink:title=" ">
<polygon fill="white" stroke="#666666" points="388,-380 212,-380 212,-339 388,-339 388,-380"/>
<text text-anchor="start" x="220" y="-368" font-family="Helvetica,sans-Serif" font-size="10.00">wmtk::components::isotropic</text>
<text text-anchor="start" x="220" y="-357" font-family="Helvetica,sans-Serif" font-size="10.00">_remeshing::IsotropicRemeshing</text>
<text text-anchor="middle" x="300" y="-346" font-family="Helvetica,sans-Serif" font-size="10.00">::make_envelope_invariants</text>
</a>
</g>
</g>
<!-- Node3&#45;&gt;Node6 -->
<g id="edge5_Node000003_Node000006" class="edge">
<title>Node3&#45;&gt;Node6</title>
<g id="a_edge5_Node000003_Node000006"><a xlink:title=" ">
<path fill="none" stroke="#63b8ff" d="M413.54,-359.5C405.12,-359.5 396.63,-359.5 388.3,-359.5"/>
<polygon fill="#63b8ff" stroke="#63b8ff" points="413.77,-363 423.77,-359.5 413.77,-356 413.77,-363"/>
</a>
</g>
</g>
<!-- Node4&#45;&gt;Node5 -->
<g id="edge4_Node000004_Node000005" class="edge">
<title>Node4&#45;&gt;Node5</title>
<g id="a_edge4_Node000004_Node000005"><a xlink:title=" ">
<path fill="none" stroke="#63b8ff" d="M250.82,-263.03C213.51,-243.31 162.51,-216.35 127.8,-198.01"/>
<polygon fill="#63b8ff" stroke="#63b8ff" points="249.52,-266.3 259.99,-267.88 252.79,-260.11 249.52,-266.3"/>
</a>
</g>
</g>
<!-- Node7&#45;&gt;Node5 -->
<g id="edge7_Node000007_Node000005" class="edge">
<title>Node7&#45;&gt;Node5</title>
<g id="a_edge7_Node000007_Node000005"><a xlink:title=" ">
<path fill="none" stroke="#63b8ff" d="M413.43,-177.5C341.73,-177.5 245.17,-177.5 176.07,-177.5"/>
<polygon fill="#63b8ff" stroke="#63b8ff" points="413.82,-181 423.82,-177.5 413.82,-174 413.82,-181"/>
</a>
</g>
</g>
<!-- Node8&#45;&gt;Node5 -->
<g id="edge9_Node000008_Node000005" class="edge">
<title>Node8&#45;&gt;Node5</title>
<g id="a_edge9_Node000008_Node000005"><a xlink:title=" ">
<path fill="none" stroke="#63b8ff" d="M413.87,-132.08C342.12,-142.11 245.31,-155.65 176.07,-165.33"/>
<polygon fill="#63b8ff" stroke="#63b8ff" points="414.4,-135.54 423.82,-130.69 413.43,-128.61 414.4,-135.54"/>
</a>
</g>
</g>
<!-- Node9&#45;&gt;Node5 -->
<g id="edge11_Node000009_Node000005" class="edge">
<title>Node9&#45;&gt;Node5</title>
<g id="a_edge11_Node000009_Node000005"><a xlink:title=" ">
<path fill="none" stroke="#63b8ff" d="M244.07,-107.35C209.97,-122.78 166.65,-142.37 134.48,-156.93"/>
<polygon fill="#63b8ff" stroke="#63b8ff" points="245.76,-110.42 253.43,-103.11 242.88,-104.05 245.76,-110.42"/>
</a>
</g>
</g>
<!-- Node10&#45;&gt;Node5 -->
<g id="edge13_Node000010_Node000005" class="edge">
<title>Node10&#45;&gt;Node5</title>
<g id="a_edge13_Node000010_Node000005"><a xlink:title=" ">
<path fill="none" stroke="#63b8ff" d="M413.63,-14.64C352.84,-14.83 274.55,-22.28 212,-52.5 162.93,-76.21 122.34,-127.87 102.37,-156.81"/>
<polygon fill="#63b8ff" stroke="#63b8ff" points="413.98,-18.15 423.99,-14.68 414.01,-11.15 413.98,-18.15"/>
</a>
</g>
</g>
<!-- Node11&#45;&gt;Node5 -->
<g id="edge17_Node000011_Node000005" class="edge">
<title>Node11&#45;&gt;Node5</title>
<g id="a_edge17_Node000011_Node000005"><a xlink:title=" ">
<path fill="none" stroke="#63b8ff" d="M625.8,-468.65C515.96,-476.14 336.33,-472.51 212,-389.5 141.93,-342.72 106.67,-241.48 94.29,-198.01"/>
<polygon fill="#63b8ff" stroke="#63b8ff" points="626.16,-472.13 635.88,-467.91 625.65,-465.15 626.16,-472.13"/>
</a>
</g>
</g>
<!-- Node12&#45;&gt;Node4 -->
<g id="edge20_Node000012_Node000004" class="edge">
<title>Node12&#45;&gt;Node4</title>
<g id="a_edge20_Node000012_Node000004"><a xlink:title=" ">
<path fill="none" stroke="#63b8ff" d="M625.43,-267.74C553.73,-272.33 457.17,-278.51 388.07,-282.93"/>
<polygon fill="#63b8ff" stroke="#63b8ff" points="626.06,-271.21 635.82,-267.08 625.61,-264.22 626.06,-271.21"/>
</a>
</g>
</g>
</g>
</svg>

<g id="navigator" transform="translate(0 0)" fill="#404254">
  <rect fill="#f2f5e9" fill-opacity="0.5" stroke="#606060" stroke-width=".5" x="0" y="0" width="60" height="60"/>
  <use id="zoomplus" xlink:href="#zoomPlus" x="17" y="9" onmousedown="handleZoom(evt,'in')"/>
  <use id="zoomminus" xlink:href="#zoomMin" x="42" y="9" onmousedown="handleZoom(evt,'out')"/>
  <use id="reset" xlink:href="#resetDef" x="30" y="36" onmousedown="handleReset()"/>
   <use id="arrowup" xlink:href="#arrowUp" x="0" y="0" onmousedown="handlePan(0,-1)"/>
  <use id="arrowright" xlink:href="#arrowRight" x="0" y="0" onmousedown="handlePan(1,0)"/>
  <use id="arrowdown" xlink:href="#arrowDown" x="0" y="0" onmousedown="handlePan(0,1)"/>
  <use id="arrowleft" xlink:href="#arrowLeft" x="0" y="0" onmousedown="handlePan(-1,0)"/>
</g>
<svg viewBox="0 0 15 15" width="100%" height="30px" preserveAspectRatio="xMaxYMin meet">
 <g id="arrow_out" transform="scale(0.3 0.3)">
  <a xlink:href="classwmtk_1_1components_1_1isotropic__remeshing_1_1_isotropic_remeshing_ac9f0caa461b9b1a19b2ce916c6ec1570_icgraph_org.svg" target="_base">
   <rect id="button" ry="5" rx="5" y="6" x="6" height="38" width="38"
        fill="#f2f5e9" fill-opacity="0.5" stroke="#606060" stroke-width="1.0"/>
   <path id="arrow"
     d="M 11.500037,31.436501 C 11.940474,20.09759 22.043105,11.32322 32.158766,21.979434 L 37.068811,17.246167 C 37.068811,17.246167 37.088388,32 37.088388,32 L 22.160133,31.978069 C 22.160133,31.978069 26.997745,27.140456 26.997745,27.140456 C 18.528582,18.264221 13.291696,25.230495 11.500037,31.436501 z"
     style="fill:#404040;"/>
  </a>
 </g>
</svg>

<style type='text/css'>
<![CDATA[
[data-mouse-over-selected='false'] { opacity: 0.7; }
[data-mouse-over-selected='true']  { opacity: 1.0; }
]]>
</style>
<script type="application/ecmascript"><![CDATA[
document.addEventListener('DOMContentLoaded', (event) => {
  highlightEdges();
  highlightAdjacentNodes();
});
]]></script>
</svg>
