<?xml version="1.0" encoding="UTF-8" standalone="no"?>
<!DOCTYPE svg PUBLIC "-//W3C//DTD SVG 1.1//EN"
 "http://www.w3.org/Graphics/SVG/1.1/DTD/svg11.dtd">
<!-- Generated by graphviz version 2.43.0 (0)
 -->
<!-- Title: src/wmtk/utils/internal/compactify_eigen_indices.hpp Pages: 1 -->
<!--zoomable 192 -->

<svg id="main" version="1.1" xmlns="http://www.w3.org/2000/svg" xmlns:xlink="http://www.w3.org/1999/xlink" xml:space="preserve" onload="init(evt)">
<style type="text/css"><![CDATA[
.node, .edge {opacity: 0.7;}
.node.selected, .edge.selected {opacity: 1;}
.edge:hover path { stroke: red; }
.edge:hover polygon { stroke: red; fill: red; }
]]></style>

<defs>
  <circle id="rim" cx="0" cy="0" r="7"/>
  <circle id="rim2" cx="0" cy="0" r="3.5"/>
  <g id="zoomPlus">
    <use xlink:href="#rim" fill="#404040"><set attributeName="fill" to="#808080" begin="zoomplus.mouseover" end="zoomplus.mouseout"/></use>
    <path d="M-4,0h8M0,-4v8" fill="none" stroke="white" stroke-width="1.5" pointer-events="none"/>
  </g>
  <g id="zoomMin">
    <use xlink:href="#rim" fill="#404040"><set attributeName="fill" to="#808080" begin="zoomminus.mouseover" end="zoomminus.mouseout"/></use>
    <path d="M-4,0h8" fill="none" stroke="white" stroke-width="1.5" pointer-events="none"/>
  </g>
  <g id="arrowUp" transform="translate(30 24)">
    <use xlink:href="#rim"/>
    <path pointer-events="none" fill="none" stroke="white" stroke-width="1.5" d="M0,-3.0v7 M-2.5,-0.5L0,-3.0L2.5,-0.5"/>
  </g>
  <g id="arrowRight" transform="rotate(90) translate(36 -43)">
    <use xlink:href="#rim"/>
    <path pointer-events="none" fill="none" stroke="white" stroke-width="1.5" d="M0,-3.0v7 M-2.5,-0.5L0,-3.0L2.5,-0.5"/>
  </g>
  <g id="arrowDown" transform="rotate(180) translate(-30 -48)">
    <use xlink:href="#rim"/>
    <path pointer-events="none" fill="none" stroke="white" stroke-width="1.5" d="M0,-3.0v7 M-2.5,-0.5L0,-3.0L2.5,-0.5"/>
  </g>
  <g id="arrowLeft" transform="rotate(270) translate(-36 17)">
    <use xlink:href="#rim"/>
    <path pointer-events="none" fill="none" stroke="white" stroke-width="1.5" d="M0,-3.0v7 M-2.5,-0.5L0,-3.0L2.5,-0.5"/>
  </g>
  <g id="resetDef">
    <use xlink:href="#rim2" fill="#404040"><set attributeName="fill" to="#808080" begin="reset.mouseover" end="reset.mouseout"/></use>
  </g>
</defs>
<script type="application/ecmascript">
var viewWidth = 503;
var viewHeight = 192;
var sectionId = 'dynsection-1';
</script>
<script type="application/ecmascript" xlink:href="svg.min.js"/>
<svg id="graph" class="graph">
<g id="viewport">
<title>src/wmtk/utils/internal/compactify_eigen_indices.hpp</title>
<!-- Node1 -->
<g id="Node000001" class="node">
<title>Node1</title>
<g id="a_Node000001"><a xlink:title=" ">
<polygon fill="#999999" stroke="#666666" points="369,-184 202,-184 202,-154 369,-154 369,-184"/>
<text text-anchor="start" x="210" y="-172" font-family="Helvetica,sans-Serif" font-size="10.00">src/wmtk/utils/internal</text>
<text text-anchor="middle" x="285.5" y="-161" font-family="Helvetica,sans-Serif" font-size="10.00">/compactify_eigen_indices.hpp</text>
</a>
</g>
</g>
<!-- Node2 -->
<g id="Node000002" class="node">
<title>Node2</title>
<g id="a_Node000002"><a xlink:href="src_2wmtk_2components_2multimesh_2from__manifold__decomposition_8cpp.html" target="_top" xlink:title=" ">
<polygon fill="white" stroke="#666666" points="147,-52 0,-52 0,0 147,0 147,-52"/>
<text text-anchor="start" x="8" y="-40" font-family="Helvetica,sans-Serif" font-size="10.00">components/multimesh</text>
<text text-anchor="start" x="8" y="-29" font-family="Helvetica,sans-Serif" font-size="10.00">/src/wmtk/components</text>
<text text-anchor="start" x="8" y="-18" font-family="Helvetica,sans-Serif" font-size="10.00">/multimesh/from_manifold</text>
<text text-anchor="middle" x="73.5" y="-7" font-family="Helvetica,sans-Serif" font-size="10.00">_decomposition.cpp</text>
</a>
</g>
</g>
<!-- Node1&#45;&gt;Node2 -->
<g id="edge1_Node000001_Node000002" class="edge">
<title>Node1&#45;&gt;Node2</title>
<g id="a_edge1_Node000001_Node000002"><a xlink:title=" ">
<path fill="none" stroke="#63b8ff" d="M209.33,-150.83C186.13,-143.25 161.5,-132.63 141.5,-118 117.78,-100.65 98.64,-72.67 86.78,-52.31"/>
<polygon fill="#63b8ff" stroke="#63b8ff" points="208.58,-154.26 219.17,-153.89 210.66,-147.58 208.58,-154.26"/>
</a>
</g>
</g>
<!-- Node3 -->
<g id="Node000003" class="node">
<title>Node3</title>
<g id="a_Node000003"><a xlink:href="extract__child__simplices__and__map__from__tag_8cpp.html" target="_top" xlink:title=" ">
<polygon fill="white" stroke="#666666" points="463,-52 316,-52 316,0 463,0 463,-52"/>
<text text-anchor="start" x="324" y="-40" font-family="Helvetica,sans-Serif" font-size="10.00">src/wmtk/multimesh</text>
<text text-anchor="start" x="324" y="-29" font-family="Helvetica,sans-Serif" font-size="10.00">/utils/extract_child</text>
<text text-anchor="start" x="324" y="-18" font-family="Helvetica,sans-Serif" font-size="10.00">_simplices_and_map_from</text>
<text text-anchor="middle" x="389.5" y="-7" font-family="Helvetica,sans-Serif" font-size="10.00">_tag.cpp</text>
</a>
</g>
</g>
<!-- Node1&#45;&gt;Node3 -->
<g id="edge2_Node000001_Node000003" class="edge">
<title>Node1&#45;&gt;Node3</title>
<g id="a_edge2_Node000001_Node000003"><a xlink:title=" ">
<path fill="none" stroke="#63b8ff" d="M301.97,-145.68C320.75,-120.2 351.41,-78.65 371,-52.08"/>
<polygon fill="#63b8ff" stroke="#63b8ff" points="298.97,-143.84 295.85,-153.96 304.6,-147.99 298.97,-143.84"/>
</a>
</g>
</g>
<!-- Node4 -->
<g id="Node000004" class="node">
<title>Node4</title>
<g id="a_Node000004"><a xlink:href="cofacets_8cpp.html" target="_top" xlink:title=" ">
<polygon fill="white" stroke="#666666" points="494.5,-118 368.5,-118 368.5,-88 494.5,-88 494.5,-118"/>
<text text-anchor="start" x="376.5" y="-106" font-family="Helvetica,sans-Serif" font-size="10.00">src/wmtk/utils/internal</text>
<text text-anchor="middle" x="431.5" y="-95" font-family="Helvetica,sans-Serif" font-size="10.00">/cofacets.cpp</text>
</a>
</g>
</g>
<!-- Node1&#45;&gt;Node4 -->
<g id="edge3_Node000001_Node000004" class="edge">
<title>Node1&#45;&gt;Node4</title>
<g id="a_edge3_Node000001_Node000004"><a xlink:title=" ">
<path fill="none" stroke="#63b8ff" d="M326.75,-149.92C349.82,-139.8 378.16,-127.38 399.53,-118.01"/>
<polygon fill="#63b8ff" stroke="#63b8ff" points="325.29,-146.73 317.54,-153.95 328.1,-153.15 325.29,-146.73"/>
</a>
</g>
</g>
<!-- Node5 -->
<g id="Node000005" class="node">
<title>Node5</title>
<g id="a_Node000005"><a xlink:href="manifold__decomposition_8hpp.html" target="_top" xlink:title=" ">
<polygon fill="white" stroke="#666666" points="312,-118 151,-118 151,-88 312,-88 312,-118"/>
<text text-anchor="start" x="159" y="-106" font-family="Helvetica,sans-Serif" font-size="10.00">src/wmtk/utils/internal</text>
<text text-anchor="middle" x="231.5" y="-95" font-family="Helvetica,sans-Serif" font-size="10.00">/manifold_decomposition.hpp</text>
</a>
</g>
</g>
<!-- Node1&#45;&gt;Node5 -->
<g id="edge4_Node000001_Node000005" class="edge">
<title>Node1&#45;&gt;Node5</title>
<g id="a_edge4_Node000001_Node000005"><a xlink:title=" ">
<path fill="none" stroke="#63b8ff" d="M267.01,-146.09C259.22,-136.85 250.37,-126.36 243.45,-118.16"/>
<polygon fill="#63b8ff" stroke="#63b8ff" points="264.39,-148.41 273.52,-153.8 269.74,-143.9 264.39,-148.41"/>
</a>
</g>
</g>
<!-- Node5&#45;&gt;Node2 -->
<g id="edge5_Node000005_Node000002" class="edge">
<title>Node5&#45;&gt;Node2</title>
<g id="a_edge5_Node000005_Node000002"><a xlink:title=" ">
<path fill="none" stroke="#63b8ff" d="M192.68,-83.57C172.72,-74.1 148.1,-62.41 126.43,-52.13"/>
<polygon fill="#63b8ff" stroke="#63b8ff" points="191.25,-86.77 201.78,-87.89 194.25,-80.44 191.25,-86.77"/>
</a>
</g>
</g>
<!-- Node5&#45;&gt;Node3 -->
<g id="edge7_Node000005_Node000003" class="edge">
<title>Node5&#45;&gt;Node3</title>
<g id="a_edge7_Node000005_Node000003"><a xlink:title=" ">
<path fill="none" stroke="#63b8ff" d="M270.32,-83.57C290.28,-74.1 314.9,-62.41 336.57,-52.13"/>
<polygon fill="#63b8ff" stroke="#63b8ff" points="268.75,-80.44 261.22,-87.89 271.75,-86.77 268.75,-80.44"/>
</a>
</g>
</g>
<!-- Node6 -->
<g id="Node000006" class="node">
<title>Node6</title>
<g id="a_Node000006"><a xlink:href="tests_2from__manifold__decomposition_8cpp.html" target="_top" xlink:title=" ">
<polygon fill="white" stroke="#666666" points="297.5,-46.5 165.5,-46.5 165.5,-5.5 297.5,-5.5 297.5,-46.5"/>
<text text-anchor="start" x="173.5" y="-34.5" font-family="Helvetica,sans-Serif" font-size="10.00">components/multimesh</text>
<text text-anchor="start" x="173.5" y="-23.5" font-family="Helvetica,sans-Serif" font-size="10.00">/tests/from_manifold</text>
<text text-anchor="middle" x="231.5" y="-12.5" font-family="Helvetica,sans-Serif" font-size="10.00">_decomposition.cpp</text>
</a>
</g>
</g>
<!-- Node5&#45;&gt;Node6 -->
<g id="edge6_Node000005_Node000006" class="edge">
<title>Node5&#45;&gt;Node6</title>
<g id="a_edge6_Node000005_Node000006"><a xlink:title=" ">
<path fill="none" stroke="#63b8ff" d="M231.5,-77.73C231.5,-67.7 231.5,-56.21 231.5,-46.7"/>
<polygon fill="#63b8ff" stroke="#63b8ff" points="228,-77.89 231.5,-87.89 235,-77.89 228,-77.89"/>
</a>
</g>
</g>
</g>
</svg>

<g id="navigator" transform="translate(0 0)" fill="#404254">
  <rect fill="#f2f5e9" fill-opacity="0.5" stroke="#606060" stroke-width=".5" x="0" y="0" width="60" height="60"/>
  <use id="zoomplus" xlink:href="#zoomPlus" x="17" y="9" onmousedown="handleZoom(evt,'in')"/>
  <use id="zoomminus" xlink:href="#zoomMin" x="42" y="9" onmousedown="handleZoom(evt,'out')"/>
  <use id="reset" xlink:href="#resetDef" x="30" y="36" onmousedown="handleReset()"/>
   <use id="arrowup" xlink:href="#arrowUp" x="0" y="0" onmousedown="handlePan(0,-1)"/>
  <use id="arrowright" xlink:href="#arrowRight" x="0" y="0" onmousedown="handlePan(1,0)"/>
  <use id="arrowdown" xlink:href="#arrowDown" x="0" y="0" onmousedown="handlePan(0,1)"/>
  <use id="arrowleft" xlink:href="#arrowLeft" x="0" y="0" onmousedown="handlePan(-1,0)"/>
</g>
<svg viewBox="0 0 15 15" width="100%" height="30px" preserveAspectRatio="xMaxYMin meet">
 <g id="arrow_out" transform="scale(0.3 0.3)">
  <a xlink:href="compactify__eigen__indices_8hpp__dep__incl_org.svg" target="_base">
   <rect id="button" ry="5" rx="5" y="6" x="6" height="38" width="38"
        fill="#f2f5e9" fill-opacity="0.5" stroke="#606060" stroke-width="1.0"/>
   <path id="arrow"
     d="M 11.500037,31.436501 C 11.940474,20.09759 22.043105,11.32322 32.158766,21.979434 L 37.068811,17.246167 C 37.068811,17.246167 37.088388,32 37.088388,32 L 22.160133,31.978069 C 22.160133,31.978069 26.997745,27.140456 26.997745,27.140456 C 18.528582,18.264221 13.291696,25.230495 11.500037,31.436501 z"
     style="fill:#404040;"/>
  </a>
 </g>
</svg>

<style type='text/css'>
<![CDATA[
[data-mouse-over-selected='false'] { opacity: 0.7; }
[data-mouse-over-selected='true']  { opacity: 1.0; }
]]>
</style>
<script type="application/ecmascript"><![CDATA[
document.addEventListener('DOMContentLoaded', (event) => {
  highlightEdges();
  highlightAdjacentNodes();
});
]]></script>
</svg>
