<?xml version="1.0" encoding="UTF-8" standalone="no"?>
<!DOCTYPE svg PUBLIC "-//W3C//DTD SVG 1.1//EN"
 "http://www.w3.org/Graphics/SVG/1.1/DTD/svg11.dtd">
<!-- Generated by graphviz version 2.43.0 (0)
 -->
<!-- Title: components/mesh_info/src/wmtk/components/mesh_info/simplex/dihedral_angles.hpp Pages: 1 -->
<svg width="1376pt" height="555pt"
 viewBox="0.00 0.00 1376.41 555.00" xmlns="http://www.w3.org/2000/svg" xmlns:xlink="http://www.w3.org/1999/xlink">
<g id="graph0" class="graph" transform="scale(1 1) rotate(0) translate(4 551)">
<title>components/mesh_info/src/wmtk/components/mesh_info/simplex/dihedral_angles.hpp</title>
<!-- Node1 -->
<g id="Node000001" class="node">
<title>Node1</title>
<g id="a_Node000001"><a xlink:title=" ">
<polygon fill="#999999" stroke="#666666" points="618.91,-547 463.91,-547 463.91,-495 618.91,-495 618.91,-547"/>
<text text-anchor="start" x="471.91" y="-535" font-family="Helvetica,sans-Serif" font-size="10.00">components/mesh_info</text>
<text text-anchor="start" x="471.91" y="-524" font-family="Helvetica,sans-Serif" font-size="10.00">/src/wmtk/components</text>
<text text-anchor="start" x="471.91" y="-513" font-family="Helvetica,sans-Serif" font-size="10.00">/mesh_info/simplex/dihedral</text>
<text text-anchor="middle" x="541.41" y="-502" font-family="Helvetica,sans-Serif" font-size="10.00">_angles.hpp</text>
</a>
</g>
</g>
<!-- Node2 -->
<g id="Node000002" class="node">
<title>Node2</title>
<g id="a_Node000002"><a xlink:href="_mesh_attribute_handle_8hpp.html" target="_top" xlink:title=" ">
<polygon fill="white" stroke="#666666" points="665.91,-316 504.91,-316 504.91,-286 665.91,-286 665.91,-316"/>
<text text-anchor="start" x="512.91" y="-304" font-family="Helvetica,sans-Serif" font-size="10.00">wmtk/attribute/MeshAttribute</text>
<text text-anchor="middle" x="585.41" y="-293" font-family="Helvetica,sans-Serif" font-size="10.00">Handle.hpp</text>
</a>
</g>
</g>
<!-- Node1&#45;&gt;Node2 -->
<g id="edge1_Node000001_Node000002" class="edge">
<title>Node1&#45;&gt;Node2</title>
<g id="a_edge1_Node000001_Node000002"><a xlink:title=" ">
<path fill="none" stroke="#63b8ff" d="M563.17,-494.7C570.76,-484.34 578.38,-471.78 582.41,-459 596.64,-413.88 592.95,-357.79 589.1,-326.33"/>
<polygon fill="#63b8ff" stroke="#63b8ff" points="592.56,-325.74 587.76,-316.29 585.62,-326.67 592.56,-325.74"/>
</a>
</g>
</g>
<!-- Node30 -->
<g id="Node000030" class="node">
<title>Node30</title>
<g id="a_Node000030"><a xlink:href="_attribute_transfer_strategy_base_8hpp.html" target="_top" xlink:title=" ">
<polygon fill="white" stroke="#666666" points="573.41,-459 391.41,-459 391.41,-418 573.41,-418 573.41,-459"/>
<text text-anchor="start" x="399.41" y="-447" font-family="Helvetica,sans-Serif" font-size="10.00">wmtk/operations/attribute</text>
<text text-anchor="start" x="399.41" y="-436" font-family="Helvetica,sans-Serif" font-size="10.00">_update/AttributeTransferStrategy</text>
<text text-anchor="middle" x="482.41" y="-425" font-family="Helvetica,sans-Serif" font-size="10.00">Base.hpp</text>
</a>
</g>
</g>
<!-- Node1&#45;&gt;Node30 -->
<g id="edge41_Node000001_Node000030" class="edge">
<title>Node1&#45;&gt;Node30</title>
<g id="a_edge41_Node000001_Node000030"><a xlink:title=" ">
<path fill="none" stroke="#63b8ff" d="M523.06,-494.97C516.66,-486.23 509.42,-476.36 502.85,-467.4"/>
<polygon fill="#63b8ff" stroke="#63b8ff" points="505.54,-465.14 496.81,-459.15 499.9,-469.28 505.54,-465.14"/>
</a>
</g>
</g>
<!-- Node3 -->
<g id="Node000003" class="node">
<title>Node3</title>
<g id="a_Node000003"><a xlink:href="_rational_8hpp.html" target="_top" xlink:title=" ">
<polygon fill="white" stroke="#666666" points="724.91,-74 591.91,-74 591.91,-55 724.91,-55 724.91,-74"/>
<text text-anchor="middle" x="658.41" y="-62" font-family="Helvetica,sans-Serif" font-size="10.00">wmtk/utils/Rational.hpp</text>
</a>
</g>
</g>
<!-- Node2&#45;&gt;Node3 -->
<g id="edge2_Node000002_Node000003" class="edge">
<title>Node2&#45;&gt;Node3</title>
<g id="a_edge2_Node000002_Node000003"><a xlink:title=" ">
<path fill="none" stroke="#63b8ff" d="M589.07,-285.94C592.77,-271.95 598.72,-249.92 604.41,-231 620.61,-177.12 641.8,-114.1 652.16,-83.71"/>
<polygon fill="#63b8ff" stroke="#63b8ff" points="655.53,-84.66 655.46,-74.07 648.91,-82.4 655.53,-84.66"/>
</a>
</g>
</g>
<!-- Node8 -->
<g id="Node000008" class="node">
<title>Node8</title>
<g id="a_Node000008"><a xlink:href="_attribute_type_8hpp.html" target="_top" xlink:title=" ">
<polygon fill="white" stroke="#666666" points="716.91,-250 613.91,-250 613.91,-231 716.91,-231 716.91,-250"/>
<text text-anchor="middle" x="665.41" y="-238" font-family="Helvetica,sans-Serif" font-size="10.00">AttributeType.hpp</text>
</a>
</g>
</g>
<!-- Node2&#45;&gt;Node8 -->
<g id="edge7_Node000002_Node000008" class="edge">
<title>Node2&#45;&gt;Node8</title>
<g id="a_edge7_Node000002_Node000008"><a xlink:title=" ">
<path fill="none" stroke="#63b8ff" d="M604.77,-285.84C616.98,-276.91 632.71,-265.41 645.1,-256.35"/>
<polygon fill="#63b8ff" stroke="#63b8ff" points="647.41,-258.99 653.42,-250.27 643.28,-253.34 647.41,-258.99"/>
</a>
</g>
</g>
<!-- Node9 -->
<g id="Node000009" class="node">
<title>Node9</title>
<g id="a_Node000009"><a xlink:href="_caching_attribute_8hpp.html" target="_top" xlink:title=" ">
<polygon fill="white" stroke="#666666" points="954.91,-250 835.91,-250 835.91,-231 954.91,-231 954.91,-250"/>
<text text-anchor="middle" x="895.41" y="-238" font-family="Helvetica,sans-Serif" font-size="10.00">CachingAttribute.hpp</text>
</a>
</g>
</g>
<!-- Node2&#45;&gt;Node9 -->
<g id="edge9_Node000002_Node000009" class="edge">
<title>Node2&#45;&gt;Node9</title>
<g id="a_edge9_Node000002_Node000009"><a xlink:title=" ">
<path fill="none" stroke="#63b8ff" d="M659.66,-285.99C715.13,-275.52 789.74,-261.44 840.04,-251.95"/>
<polygon fill="#63b8ff" stroke="#63b8ff" points="840.9,-255.35 850.08,-250.05 839.61,-248.47 840.9,-255.35"/>
</a>
</g>
</g>
<!-- Node21 -->
<g id="Node000021" class="node">
<title>Node21</title>
<g id="a_Node000021"><a xlink:href="_typed_attribute_handle_8hpp.html" target="_top" xlink:title=" ">
<polygon fill="white" stroke="#666666" points="518.91,-250 375.91,-250 375.91,-231 518.91,-231 518.91,-250"/>
<text text-anchor="middle" x="447.41" y="-238" font-family="Helvetica,sans-Serif" font-size="10.00">TypedAttributeHandle.hpp</text>
</a>
</g>
</g>
<!-- Node2&#45;&gt;Node21 -->
<g id="edge31_Node000002_Node000021" class="edge">
<title>Node2&#45;&gt;Node21</title>
<g id="a_edge31_Node000002_Node000021"><a xlink:title=" ">
<path fill="none" stroke="#63b8ff" d="M552.35,-285.99C529.43,-276.27 499.17,-263.44 477.03,-254.06"/>
<polygon fill="#63b8ff" stroke="#63b8ff" points="478.36,-250.82 467.79,-250.14 475.63,-257.26 478.36,-250.82"/>
</a>
</g>
</g>
<!-- Node28 -->
<g id="Node000028" class="node">
<title>Node28</title>
<g id="a_Node000028"><a xlink:title=" ">
<polygon fill="#e0e0e0" stroke="#999999" points="567.91,-195 526.91,-195 526.91,-176 567.91,-176 567.91,-195"/>
<text text-anchor="middle" x="547.41" y="-183" font-family="Helvetica,sans-Serif" font-size="10.00">tuple</text>
</a>
</g>
</g>
<!-- Node2&#45;&gt;Node28 -->
<g id="edge39_Node000002_Node000028" class="edge">
<title>Node2&#45;&gt;Node28</title>
<g id="a_edge39_Node000002_Node000028"><a xlink:title=" ">
<path fill="none" stroke="#63b8ff" d="M580.6,-285.63C573.73,-265.12 561.12,-227.47 553.58,-204.93"/>
<polygon fill="#63b8ff" stroke="#63b8ff" points="556.82,-203.6 550.33,-195.23 550.19,-205.82 556.82,-203.6"/>
</a>
</g>
</g>
<!-- Node29 -->
<g id="Node000029" class="node">
<title>Node29</title>
<g id="a_Node000029"><a xlink:title=" ">
<polygon fill="#e0e0e0" stroke="#999999" points="357.91,-250 306.91,-250 306.91,-231 357.91,-231 357.91,-250"/>
<text text-anchor="middle" x="332.41" y="-238" font-family="Helvetica,sans-Serif" font-size="10.00">variant</text>
</a>
</g>
</g>
<!-- Node2&#45;&gt;Node29 -->
<g id="edge40_Node000002_Node000029" class="edge">
<title>Node2&#45;&gt;Node29</title>
<g id="a_edge40_Node000002_Node000029"><a xlink:title=" ">
<path fill="none" stroke="#63b8ff" d="M522.08,-285.9C480.7,-276.61 425.22,-263.99 367.97,-250.34"/>
<polygon fill="#63b8ff" stroke="#63b8ff" points="368.55,-246.88 358.01,-247.96 366.93,-253.69 368.55,-246.88"/>
</a>
</g>
</g>
<!-- Node4 -->
<g id="Node000004" class="node">
<title>Node4</title>
<g id="a_Node000004"><a xlink:title=" ">
<polygon fill="#e0e0e0" stroke="#999999" points="924.91,-19 855.91,-19 855.91,0 924.91,0 924.91,-19"/>
<text text-anchor="middle" x="890.41" y="-7" font-family="Helvetica,sans-Serif" font-size="10.00">Eigen/Core</text>
</a>
</g>
</g>
<!-- Node3&#45;&gt;Node4 -->
<g id="edge3_Node000003_Node000004" class="edge">
<title>Node3&#45;&gt;Node4</title>
<g id="a_edge3_Node000003_Node000004"><a xlink:title=" ">
<path fill="none" stroke="#63b8ff" d="M695.68,-54.98C736.68,-45.62 802.52,-30.58 846.12,-20.62"/>
<polygon fill="#63b8ff" stroke="#63b8ff" points="846.91,-24.03 855.88,-18.39 845.35,-17.2 846.91,-24.03"/>
</a>
</g>
</g>
<!-- Node5 -->
<g id="Node000005" class="node">
<title>Node5</title>
<g id="a_Node000005"><a xlink:title=" ">
<polygon fill="#e0e0e0" stroke="#999999" points="649.91,-19 602.91,-19 602.91,0 649.91,0 649.91,-19"/>
<text text-anchor="middle" x="626.41" y="-7" font-family="Helvetica,sans-Serif" font-size="10.00">gmp.h</text>
</a>
</g>
</g>
<!-- Node3&#45;&gt;Node5 -->
<g id="edge4_Node000003_Node000005" class="edge">
<title>Node3&#45;&gt;Node5</title>
<g id="a_edge4_Node000003_Node000005"><a xlink:title=" ">
<path fill="none" stroke="#63b8ff" d="M653.12,-54.75C648.7,-47.42 642.25,-36.73 636.79,-27.7"/>
<polygon fill="#63b8ff" stroke="#63b8ff" points="639.76,-25.84 631.59,-19.09 633.77,-29.46 639.76,-25.84"/>
</a>
</g>
</g>
<!-- Node6 -->
<g id="Node000006" class="node">
<title>Node6</title>
<g id="a_Node000006"><a xlink:title=" ">
<polygon fill="#e0e0e0" stroke="#999999" points="287.41,-19 227.41,-19 227.41,0 287.41,0 287.41,-19"/>
<text text-anchor="middle" x="257.41" y="-7" font-family="Helvetica,sans-Serif" font-size="10.00">iostream</text>
</a>
</g>
</g>
<!-- Node3&#45;&gt;Node6 -->
<g id="edge5_Node000003_Node000006" class="edge">
<title>Node3&#45;&gt;Node6</title>
<g id="a_edge5_Node000003_Node000006"><a xlink:title=" ">
<path fill="none" stroke="#63b8ff" d="M593.98,-54.98C510.38,-43.94 367.02,-24.99 297.52,-15.8"/>
<polygon fill="#63b8ff" stroke="#63b8ff" points="297.79,-12.31 287.42,-14.47 296.87,-19.25 297.79,-12.31"/>
</a>
</g>
</g>
<!-- Node7 -->
<g id="Node000007" class="node">
<title>Node7</title>
<g id="a_Node000007"><a xlink:title=" ">
<polygon fill="#e0e0e0" stroke="#999999" points="712.41,-19 668.41,-19 668.41,0 712.41,0 712.41,-19"/>
<text text-anchor="middle" x="690.41" y="-7" font-family="Helvetica,sans-Serif" font-size="10.00">string</text>
</a>
</g>
</g>
<!-- Node3&#45;&gt;Node7 -->
<g id="edge6_Node000003_Node000007" class="edge">
<title>Node3&#45;&gt;Node7</title>
<g id="a_edge6_Node000003_Node000007"><a xlink:title=" ">
<path fill="none" stroke="#63b8ff" d="M663.69,-54.75C668.12,-47.42 674.57,-36.73 680.03,-27.7"/>
<polygon fill="#63b8ff" stroke="#63b8ff" points="683.05,-29.46 685.22,-19.09 677.06,-25.84 683.05,-29.46"/>
</a>
</g>
</g>
<!-- Node8&#45;&gt;Node3 -->
<g id="edge8_Node000008_Node000003" class="edge">
<title>Node8&#45;&gt;Node3</title>
<g id="a_edge8_Node000008_Node000003"><a xlink:title=" ">
<path fill="none" stroke="#63b8ff" d="M663.69,-230.72C659.8,-209.84 650.86,-155.54 653.41,-110 653.89,-101.45 654.88,-92.03 655.85,-84.06"/>
<polygon fill="#63b8ff" stroke="#63b8ff" points="659.34,-84.38 657.17,-74.01 652.4,-83.47 659.34,-84.38"/>
</a>
</g>
</g>
<!-- Node9&#45;&gt;Node4 -->
<g id="edge10_Node000009_Node000004" class="edge">
<title>Node9&#45;&gt;Node4</title>
<g id="a_edge10_Node000009_Node000004"><a xlink:title=" ">
<path fill="none" stroke="#63b8ff" d="M954.99,-238.83C1054.22,-234.84 1239.12,-213.65 1203.41,-110 1193.3,-80.66 1187.1,-70.83 1160.41,-55 1123.17,-32.92 1002.11,-19.72 935.45,-13.95"/>
<polygon fill="#63b8ff" stroke="#63b8ff" points="935.5,-10.45 925.24,-13.09 934.91,-17.42 935.5,-10.45"/>
</a>
</g>
</g>
<!-- Node10 -->
<g id="Node000010" class="node">
<title>Node10</title>
<g id="a_Node000010"><a xlink:title=" ">
<polygon fill="#e0e0e0" stroke="#999999" points="1158.41,-19 1120.41,-19 1120.41,0 1158.41,0 1158.41,-19"/>
<text text-anchor="middle" x="1139.41" y="-7" font-family="Helvetica,sans-Serif" font-size="10.00">map</text>
</a>
</g>
</g>
<!-- Node9&#45;&gt;Node10 -->
<g id="edge11_Node000009_Node000010" class="edge">
<title>Node9&#45;&gt;Node10</title>
<g id="a_edge11_Node000009_Node000010"><a xlink:title=" ">
<path fill="none" stroke="#63b8ff" d="M954.99,-237.15C1030.9,-233.06 1156.66,-222.29 1193.41,-195 1225.13,-171.45 1229.95,-148.07 1219.41,-110 1209.58,-74.52 1178.82,-43.19 1158.44,-25.56"/>
<polygon fill="#63b8ff" stroke="#63b8ff" points="1160.6,-22.81 1150.68,-19.08 1156.11,-28.18 1160.6,-22.81"/>
</a>
</g>
</g>
<!-- Node11 -->
<g id="Node000011" class="node">
<title>Node11</title>
<g id="a_Node000011"><a xlink:title=" ">
<polygon fill="#e0e0e0" stroke="#999999" points="1368.41,-195 1310.41,-195 1310.41,-176 1368.41,-176 1368.41,-195"/>
<text text-anchor="middle" x="1339.41" y="-183" font-family="Helvetica,sans-Serif" font-size="10.00">memory</text>
</a>
</g>
</g>
<!-- Node9&#45;&gt;Node11 -->
<g id="edge12_Node000009_Node000011" class="edge">
<title>Node9&#45;&gt;Node11</title>
<g id="a_edge12_Node000009_Node000011"><a xlink:title=" ">
<path fill="none" stroke="#63b8ff" d="M955.18,-232.61C959.99,-232.06 964.78,-231.52 969.41,-231 1114.7,-214.66 1151.89,-217.2 1296.41,-195 1297.68,-194.81 1298.97,-194.6 1300.27,-194.38"/>
<polygon fill="#63b8ff" stroke="#63b8ff" points="1301.09,-197.79 1310.32,-192.6 1299.87,-190.9 1301.09,-197.79"/>
</a>
</g>
</g>
<!-- Node12 -->
<g id="Node000012" class="node">
<title>Node12</title>
<g id="a_Node000012"><a xlink:href="_attribute_8hpp.html" target="_top" xlink:title=" ">
<polygon fill="white" stroke="#666666" points="1053.41,-195 973.41,-195 973.41,-176 1053.41,-176 1053.41,-195"/>
<text text-anchor="middle" x="1013.41" y="-183" font-family="Helvetica,sans-Serif" font-size="10.00">Attribute.hpp</text>
</a>
</g>
</g>
<!-- Node9&#45;&gt;Node12 -->
<g id="edge13_Node000009_Node000012" class="edge">
<title>Node9&#45;&gt;Node12</title>
<g id="a_edge13_Node000009_Node000012"><a xlink:title=" ">
<path fill="none" stroke="#63b8ff" d="M914.37,-230.98C933.44,-222.42 963.07,-209.11 984.96,-199.28"/>
<polygon fill="#63b8ff" stroke="#63b8ff" points="986.42,-202.46 994.1,-195.17 983.55,-196.07 986.42,-202.46"/>
</a>
</g>
</g>
<!-- Node19 -->
<g id="Node000019" class="node">
<title>Node19</title>
<g id="a_Node000019"><a xlink:href="_caching_attribute_8hxx.html" target="_top" xlink:title=" ">
<polygon fill="white" stroke="#666666" points="954.91,-195 835.91,-195 835.91,-176 954.91,-176 954.91,-195"/>
<text text-anchor="middle" x="895.41" y="-183" font-family="Helvetica,sans-Serif" font-size="10.00">CachingAttribute.hxx</text>
</a>
</g>
</g>
<!-- Node9&#45;&gt;Node19 -->
<g id="edge25_Node000009_Node000019" class="edge">
<title>Node9&#45;&gt;Node19</title>
<g id="a_edge25_Node000009_Node000019"><a xlink:title=" ">
<path fill="none" stroke="#63b8ff" d="M890.24,-230.75C888.75,-223.8 888.31,-213.85 888.93,-205.13"/>
<polygon fill="#63b8ff" stroke="#63b8ff" points="892.42,-205.47 890.28,-195.09 885.48,-204.53 892.42,-205.47"/>
</a>
</g>
</g>
<!-- Node12&#45;&gt;Node4 -->
<g id="edge14_Node000012_Node000004" class="edge">
<title>Node12&#45;&gt;Node4</title>
<g id="a_edge14_Node000012_Node000004"><a xlink:title=" ">
<path fill="none" stroke="#63b8ff" d="M1053.62,-179.9C1099.76,-173.69 1171.15,-160.93 1187.41,-140 1195.59,-129.47 1192.62,-122.27 1187.41,-110 1173.65,-77.6 1161.71,-71.11 1130.41,-55 1067.8,-22.77 985.34,-13.63 935.19,-11.19"/>
<polygon fill="#63b8ff" stroke="#63b8ff" points="935.13,-7.68 924.99,-10.76 934.84,-14.67 935.13,-7.68"/>
</a>
</g>
</g>
<!-- Node13 -->
<g id="Node000013" class="node">
<title>Node13</title>
<g id="a_Node000013"><a xlink:title=" ">
<polygon fill="#e0e0e0" stroke="#999999" points="709.91,-134.5 662.91,-134.5 662.91,-115.5 709.91,-115.5 709.91,-134.5"/>
<text text-anchor="middle" x="686.41" y="-122.5" font-family="Helvetica,sans-Serif" font-size="10.00">vector</text>
</a>
</g>
</g>
<!-- Node12&#45;&gt;Node13 -->
<g id="edge15_Node000012_Node000013" class="edge">
<title>Node12&#45;&gt;Node13</title>
<g id="a_edge15_Node000012_Node000013"><a xlink:title=" ">
<path fill="none" stroke="#63b8ff" d="M973.31,-177.46C970.3,-176.96 967.31,-176.46 964.41,-176 855.74,-158.59 825.37,-169.73 719.41,-140 717.52,-139.47 715.6,-138.86 713.68,-138.19"/>
<polygon fill="#63b8ff" stroke="#63b8ff" points="714.85,-134.9 704.26,-134.55 712.33,-141.43 714.85,-134.9"/>
</a>
</g>
</g>
<!-- Node14 -->
<g id="Node000014" class="node">
<title>Node14</title>
<g id="a_Node000014"><a xlink:href="_merkle_tree_interior_node_8hpp.html" target="_top" xlink:title=" ">
<polygon fill="white" stroke="#666666" points="1079.91,-140 918.91,-140 918.91,-110 1079.91,-110 1079.91,-140"/>
<text text-anchor="start" x="926.91" y="-128" font-family="Helvetica,sans-Serif" font-size="10.00">wmtk/utils/MerkleTreeInterior</text>
<text text-anchor="middle" x="999.41" y="-117" font-family="Helvetica,sans-Serif" font-size="10.00">Node.hpp</text>
</a>
</g>
</g>
<!-- Node12&#45;&gt;Node14 -->
<g id="edge16_Node000012_Node000014" class="edge">
<title>Node12&#45;&gt;Node14</title>
<g id="a_edge16_Node000012_Node000014"><a xlink:title=" ">
<path fill="none" stroke="#63b8ff" d="M1011.34,-175.87C1009.71,-169.03 1007.34,-159.14 1005.14,-149.97"/>
<polygon fill="#63b8ff" stroke="#63b8ff" points="1008.52,-149.03 1002.79,-140.11 1001.71,-150.65 1008.52,-149.03"/>
</a>
</g>
</g>
<!-- Node17 -->
<g id="Node000017" class="node">
<title>Node17</title>
<g id="a_Node000017"><a xlink:href="_map_types_8hpp.html" target="_top" xlink:title=" ">
<polygon fill="white" stroke="#666666" points="933.41,-74 847.41,-74 847.41,-55 933.41,-55 933.41,-74"/>
<text text-anchor="middle" x="890.41" y="-62" font-family="Helvetica,sans-Serif" font-size="10.00">MapTypes.hpp</text>
</a>
</g>
</g>
<!-- Node12&#45;&gt;Node17 -->
<g id="edge21_Node000012_Node000017" class="edge">
<title>Node12&#45;&gt;Node17</title>
<g id="a_edge21_Node000012_Node000017"><a xlink:title=" ">
<path fill="none" stroke="#63b8ff" d="M973.37,-176.17C951.86,-169.73 926.52,-158.64 910.41,-140 897.03,-124.52 892.5,-100.99 891.02,-84.53"/>
<polygon fill="#63b8ff" stroke="#63b8ff" points="894.5,-84.22 890.41,-74.44 887.52,-84.64 894.5,-84.22"/>
</a>
</g>
</g>
<!-- Node18 -->
<g id="Node000018" class="node">
<title>Node18</title>
<g id="a_Node000018"><a xlink:href="_attribute_8hxx.html" target="_top" xlink:title=" ">
<polygon fill="white" stroke="#666666" points="1178.41,-134.5 1098.41,-134.5 1098.41,-115.5 1178.41,-115.5 1178.41,-134.5"/>
<text text-anchor="middle" x="1138.41" y="-122.5" font-family="Helvetica,sans-Serif" font-size="10.00">Attribute.hxx</text>
</a>
</g>
</g>
<!-- Node12&#45;&gt;Node18 -->
<g id="edge23_Node000012_Node000018" class="edge">
<title>Node12&#45;&gt;Node18</title>
<g id="a_edge23_Node000012_Node000018"><a xlink:title=" ">
<path fill="none" stroke="#63b8ff" d="M1026.9,-175.87C1045.73,-166.06 1079.89,-149.96 1105.56,-138.72"/>
<polygon fill="#63b8ff" stroke="#63b8ff" points="1107.13,-141.85 1114.93,-134.67 1104.36,-135.42 1107.13,-141.85"/>
</a>
</g>
</g>
<!-- Node15 -->
<g id="Node000015" class="node">
<title>Node15</title>
<g id="a_Node000015"><a xlink:title=" ">
<polygon fill="#e0e0e0" stroke="#999999" points="1120.91,-74 1055.91,-74 1055.91,-55 1120.91,-55 1120.91,-74"/>
<text text-anchor="middle" x="1088.41" y="-62" font-family="Helvetica,sans-Serif" font-size="10.00">functional</text>
</a>
</g>
</g>
<!-- Node14&#45;&gt;Node15 -->
<g id="edge17_Node000014_Node000015" class="edge">
<title>Node14&#45;&gt;Node15</title>
<g id="a_edge17_Node000014_Node000015"><a xlink:title=" ">
<path fill="none" stroke="#63b8ff" d="M1020.95,-109.84C1034.88,-100.68 1052.94,-88.82 1066.86,-79.66"/>
<polygon fill="#63b8ff" stroke="#63b8ff" points="1068.9,-82.51 1075.33,-74.09 1065.05,-76.66 1068.9,-82.51"/>
</a>
</g>
</g>
<!-- Node16 -->
<g id="Node000016" class="node">
<title>Node16</title>
<g id="a_Node000016"><a xlink:href="_hashable_8hpp.html" target="_top" xlink:title=" ">
<polygon fill="white" stroke="#666666" points="1037.91,-74 954.91,-74 954.91,-55 1037.91,-55 1037.91,-74"/>
<text text-anchor="middle" x="996.41" y="-62" font-family="Helvetica,sans-Serif" font-size="10.00">Hashable.hpp</text>
</a>
</g>
</g>
<!-- Node14&#45;&gt;Node16 -->
<g id="edge18_Node000014_Node000016" class="edge">
<title>Node14&#45;&gt;Node16</title>
<g id="a_edge18_Node000014_Node000016"><a xlink:title=" ">
<path fill="none" stroke="#63b8ff" d="M998.68,-109.84C998.29,-102.21 997.8,-92.7 997.38,-84.45"/>
<polygon fill="#63b8ff" stroke="#63b8ff" points="1000.87,-84.07 996.86,-74.27 993.87,-84.43 1000.87,-84.07"/>
</a>
</g>
</g>
<!-- Node16&#45;&gt;Node7 -->
<g id="edge20_Node000016_Node000007" class="edge">
<title>Node16&#45;&gt;Node7</title>
<g id="a_edge20_Node000016_Node000007"><a xlink:title=" ">
<path fill="none" stroke="#63b8ff" d="M954.82,-56.3C893.11,-45.61 778.57,-25.77 722.72,-16.1"/>
<polygon fill="#63b8ff" stroke="#63b8ff" points="723.13,-12.62 712.68,-14.36 721.94,-19.51 723.13,-12.62"/>
</a>
</g>
</g>
<!-- Node16&#45;&gt;Node10 -->
<g id="edge19_Node000016_Node000010" class="edge">
<title>Node16&#45;&gt;Node10</title>
<g id="a_edge19_Node000016_Node000010"><a xlink:title=" ">
<path fill="none" stroke="#63b8ff" d="M1019.38,-54.98C1044.17,-45.8 1083.68,-31.16 1110.54,-21.2"/>
<polygon fill="#63b8ff" stroke="#63b8ff" points="1112,-24.39 1120.16,-17.63 1109.56,-17.83 1112,-24.39"/>
</a>
</g>
</g>
<!-- Node17&#45;&gt;Node4 -->
<g id="edge22_Node000017_Node000004" class="edge">
<title>Node17&#45;&gt;Node4</title>
<g id="a_edge22_Node000017_Node000004"><a xlink:title=" ">
<path fill="none" stroke="#63b8ff" d="M890.41,-54.75C890.41,-47.8 890.41,-37.85 890.41,-29.13"/>
<polygon fill="#63b8ff" stroke="#63b8ff" points="893.91,-29.09 890.41,-19.09 886.91,-29.09 893.91,-29.09"/>
</a>
</g>
</g>
<!-- Node18&#45;&gt;Node12 -->
<g id="edge24_Node000018_Node000012" class="edge">
<title>Node18&#45;&gt;Node12</title>
<g id="a_edge24_Node000018_Node000012"><a xlink:title=" ">
<path fill="none" stroke="#63b8ff" d="M1125.14,-134.52C1106.27,-144.36 1071.72,-160.64 1045.92,-171.93"/>
<polygon fill="#63b8ff" stroke="#63b8ff" points="1044.31,-168.82 1036.51,-175.99 1047.08,-175.24 1044.31,-168.82"/>
</a>
</g>
</g>
<!-- Node19&#45;&gt;Node3 -->
<g id="edge29_Node000019_Node000003" class="edge">
<title>Node19&#45;&gt;Node3</title>
<g id="a_edge29_Node000019_Node000003"><a xlink:title=" ">
<path fill="none" stroke="#63b8ff" d="M890.7,-175.85C881.72,-160.18 860.59,-127.15 833.41,-110 803.98,-91.43 767.16,-80.6 734.9,-74.28"/>
<polygon fill="#63b8ff" stroke="#63b8ff" points="735.52,-70.84 725.05,-72.47 734.25,-77.72 735.52,-70.84"/>
</a>
</g>
</g>
<!-- Node19&#45;&gt;Node9 -->
<g id="edge30_Node000019_Node000009" class="edge">
<title>Node19&#45;&gt;Node9</title>
<g id="a_edge30_Node000019_Node000009"><a xlink:title=" ">
<path fill="none" stroke="#63b8ff" d="M900.54,-195.09C902.05,-201.99 902.5,-211.93 901.9,-220.66"/>
<polygon fill="#63b8ff" stroke="#63b8ff" points="898.41,-220.38 900.57,-230.75 905.35,-221.29 898.41,-220.38"/>
</a>
</g>
</g>
<!-- Node20 -->
<g id="Node000020" class="node">
<title>Node20</title>
<g id="a_Node000020"><a xlink:href="_types_8hpp.html" target="_top" xlink:title=" ">
<polygon fill="white" stroke="#666666" points="824.41,-134.5 728.41,-134.5 728.41,-115.5 824.41,-115.5 824.41,-134.5"/>
<text text-anchor="middle" x="776.41" y="-122.5" font-family="Helvetica,sans-Serif" font-size="10.00">wmtk/Types.hpp</text>
</a>
</g>
</g>
<!-- Node19&#45;&gt;Node20 -->
<g id="edge26_Node000019_Node000020" class="edge">
<title>Node19&#45;&gt;Node20</title>
<g id="a_edge26_Node000019_Node000020"><a xlink:title=" ">
<path fill="none" stroke="#63b8ff" d="M878.1,-175.99C858.36,-166.29 825.85,-150.31 802.91,-139.03"/>
<polygon fill="#63b8ff" stroke="#63b8ff" points="804.25,-135.79 793.73,-134.52 801.16,-142.07 804.25,-135.79"/>
</a>
</g>
</g>
<!-- Node20&#45;&gt;Node3 -->
<g id="edge28_Node000020_Node000003" class="edge">
<title>Node20&#45;&gt;Node3</title>
<g id="a_edge28_Node000020_Node000003"><a xlink:title=" ">
<path fill="none" stroke="#63b8ff" d="M759.25,-115.49C739.67,-105.79 707.44,-89.81 684.69,-78.53"/>
<polygon fill="#63b8ff" stroke="#63b8ff" points="686.1,-75.32 675.59,-74.02 682.99,-81.59 686.1,-75.32"/>
</a>
</g>
</g>
<!-- Node20&#45;&gt;Node4 -->
<g id="edge27_Node000020_Node000004" class="edge">
<title>Node20&#45;&gt;Node4</title>
<g id="a_edge27_Node000020_Node000004"><a xlink:title=" ">
<path fill="none" stroke="#63b8ff" d="M783.7,-115.17C794.95,-101.71 817.43,-75.47 838.41,-55 848.9,-44.75 861.37,-34.04 871.46,-25.7"/>
<polygon fill="#63b8ff" stroke="#63b8ff" points="873.76,-28.34 879.29,-19.31 869.33,-22.92 873.76,-28.34"/>
</a>
</g>
</g>
<!-- Node22 -->
<g id="Node000022" class="node">
<title>Node22</title>
<g id="a_Node000022"><a xlink:href="_primitive_type_8hpp.html" target="_top" xlink:title=" ">
<polygon fill="white" stroke="#666666" points="508.91,-195 373.91,-195 373.91,-176 508.91,-176 508.91,-195"/>
<text text-anchor="middle" x="441.41" y="-183" font-family="Helvetica,sans-Serif" font-size="10.00">wmtk/PrimitiveType.hpp</text>
</a>
</g>
</g>
<!-- Node21&#45;&gt;Node22 -->
<g id="edge32_Node000021_Node000022" class="edge">
<title>Node21&#45;&gt;Node22</title>
<g id="a_edge32_Node000021_Node000022"><a xlink:title=" ">
<path fill="none" stroke="#63b8ff" d="M446.42,-230.75C445.63,-223.8 444.5,-213.85 443.52,-205.13"/>
<polygon fill="#63b8ff" stroke="#63b8ff" points="446.98,-204.63 442.38,-195.09 440.03,-205.42 446.98,-204.63"/>
</a>
</g>
</g>
<!-- Node25 -->
<g id="Node000025" class="node">
<title>Node25</title>
<g id="a_Node000025"><a xlink:href="_attribute_handle_8hpp.html" target="_top" xlink:title=" ">
<polygon fill="white" stroke="#666666" points="355.91,-195 240.91,-195 240.91,-176 355.91,-176 355.91,-195"/>
<text text-anchor="middle" x="298.41" y="-183" font-family="Helvetica,sans-Serif" font-size="10.00">AttributeHandle.hpp</text>
</a>
</g>
</g>
<!-- Node21&#45;&gt;Node25 -->
<g id="edge36_Node000021_Node000025" class="edge">
<title>Node21&#45;&gt;Node25</title>
<g id="a_edge36_Node000021_Node000025"><a xlink:title=" ">
<path fill="none" stroke="#63b8ff" d="M423.47,-230.98C398.85,-222.23 360.29,-208.51 332.49,-198.62"/>
<polygon fill="#63b8ff" stroke="#63b8ff" points="333.38,-195.22 322.78,-195.17 331.03,-201.82 333.38,-195.22"/>
</a>
</g>
</g>
<!-- Node22&#45;&gt;Node13 -->
<g id="edge35_Node000022_Node000013" class="edge">
<title>Node22&#45;&gt;Node13</title>
<g id="a_edge35_Node000022_Node000013"><a xlink:title=" ">
<path fill="none" stroke="#63b8ff" d="M477.03,-175.99C524.17,-164.74 606.65,-145.04 652.77,-134.03"/>
<polygon fill="#63b8ff" stroke="#63b8ff" points="653.66,-137.42 662.57,-131.69 652.03,-130.61 653.66,-137.42"/>
</a>
</g>
</g>
<!-- Node23 -->
<g id="Node000023" class="node">
<title>Node23</title>
<g id="a_Node000023"><a xlink:title=" ">
<polygon fill="#e0e0e0" stroke="#999999" points="448.91,-134.5 383.91,-134.5 383.91,-115.5 448.91,-115.5 448.91,-134.5"/>
<text text-anchor="middle" x="416.41" y="-122.5" font-family="Helvetica,sans-Serif" font-size="10.00">stdexcept</text>
</a>
</g>
</g>
<!-- Node22&#45;&gt;Node23 -->
<g id="edge33_Node000022_Node000023" class="edge">
<title>Node22&#45;&gt;Node23</title>
<g id="a_edge33_Node000022_Node000023"><a xlink:title=" ">
<path fill="none" stroke="#63b8ff" d="M437.72,-175.87C434.14,-167.49 428.59,-154.51 424.06,-143.89"/>
<polygon fill="#63b8ff" stroke="#63b8ff" points="427.26,-142.49 420.11,-134.67 420.82,-145.24 427.26,-142.49"/>
</a>
</g>
</g>
<!-- Node24 -->
<g id="Node000024" class="node">
<title>Node24</title>
<g id="a_Node000024"><a xlink:title=" ">
<polygon fill="#e0e0e0" stroke="#999999" points="539.91,-134.5 466.91,-134.5 466.91,-115.5 539.91,-115.5 539.91,-134.5"/>
<text text-anchor="middle" x="503.41" y="-122.5" font-family="Helvetica,sans-Serif" font-size="10.00">string_view</text>
</a>
</g>
</g>
<!-- Node22&#45;&gt;Node24 -->
<g id="edge34_Node000022_Node000024" class="edge">
<title>Node22&#45;&gt;Node24</title>
<g id="a_edge34_Node000022_Node000024"><a xlink:title=" ">
<path fill="none" stroke="#63b8ff" d="M450.56,-175.87C460.08,-166.88 475.2,-152.61 486.84,-141.64"/>
<polygon fill="#63b8ff" stroke="#63b8ff" points="489.35,-144.08 494.22,-134.67 484.55,-138.98 489.35,-144.08"/>
</a>
</g>
</g>
<!-- Node26 -->
<g id="Node000026" class="node">
<title>Node26</title>
<g id="a_Node000026"><a xlink:title=" ">
<polygon fill="#e0e0e0" stroke="#999999" points="252.41,-134.5 202.41,-134.5 202.41,-115.5 252.41,-115.5 252.41,-134.5"/>
<text text-anchor="middle" x="227.41" y="-122.5" font-family="Helvetica,sans-Serif" font-size="10.00">cstdint</text>
</a>
</g>
</g>
<!-- Node25&#45;&gt;Node26 -->
<g id="edge37_Node000025_Node000026" class="edge">
<title>Node25&#45;&gt;Node26</title>
<g id="a_edge37_Node000025_Node000026"><a xlink:title=" ">
<path fill="none" stroke="#63b8ff" d="M287.93,-175.87C276.92,-166.8 259.37,-152.34 246,-141.32"/>
<polygon fill="#63b8ff" stroke="#63b8ff" points="247.87,-138.33 237.93,-134.67 243.42,-143.73 247.87,-138.33"/>
</a>
</g>
</g>
<!-- Node27 -->
<g id="Node000027" class="node">
<title>Node27</title>
<g id="a_Node000027"><a xlink:title=" ">
<polygon fill="#e0e0e0" stroke="#999999" points="339.91,-134.5 270.91,-134.5 270.91,-115.5 339.91,-115.5 339.91,-134.5"/>
<text text-anchor="middle" x="305.41" y="-122.5" font-family="Helvetica,sans-Serif" font-size="10.00">type_traits</text>
</a>
</g>
</g>
<!-- Node25&#45;&gt;Node27 -->
<g id="edge38_Node000025_Node000027" class="edge">
<title>Node25&#45;&gt;Node27</title>
<g id="a_edge38_Node000025_Node000027"><a xlink:title=" ">
<path fill="none" stroke="#63b8ff" d="M299.44,-175.87C300.41,-167.75 301.9,-155.31 303.15,-144.89"/>
<polygon fill="#63b8ff" stroke="#63b8ff" points="306.66,-145.01 304.37,-134.67 299.71,-144.18 306.66,-145.01"/>
</a>
</g>
</g>
<!-- Node30&#45;&gt;Node2 -->
<g id="edge54_Node000030_Node000002" class="edge">
<title>Node30&#45;&gt;Node2</title>
<g id="a_edge54_Node000030_Node000002"><a xlink:title=" ">
<path fill="none" stroke="#63b8ff" d="M497.39,-417.8C516.23,-393 548.53,-350.52 568.32,-324.48"/>
<polygon fill="#63b8ff" stroke="#63b8ff" points="571.25,-326.41 574.52,-316.33 565.68,-322.17 571.25,-326.41"/>
</a>
</g>
</g>
<!-- Node30&#45;&gt;Node20 -->
<g id="edge53_Node000030_Node000020" class="edge">
<title>Node30&#45;&gt;Node20</title>
<g id="a_edge53_Node000030_Node000020"><a xlink:title=" ">
<path fill="none" stroke="#63b8ff" d="M573.65,-434.01C656,-428.71 768.39,-415.4 796.41,-382 855.15,-311.97 806.97,-189.91 785.46,-144.08"/>
<polygon fill="#63b8ff" stroke="#63b8ff" points="788.48,-142.29 780.98,-134.81 782.18,-145.34 788.48,-142.29"/>
</a>
</g>
</g>
<!-- Node30&#45;&gt;Node29 -->
<g id="edge42_Node000030_Node000029" class="edge">
<title>Node30&#45;&gt;Node29</title>
<g id="a_edge42_Node000030_Node000029"><a xlink:title=" ">
<path fill="none" stroke="#63b8ff" d="M467.48,-417.99C437.97,-379.43 372.64,-294.08 345.08,-258.05"/>
<polygon fill="#63b8ff" stroke="#63b8ff" points="347.78,-255.83 338.93,-250.02 342.22,-260.08 347.78,-255.83"/>
</a>
</g>
</g>
<!-- Node31 -->
<g id="Node000031" class="node">
<title>Node31</title>
<g id="a_Node000031"><a xlink:href="_tuple_8hpp.html" target="_top" xlink:title=" ">
<polygon fill="white" stroke="#666666" points="221.41,-250 127.41,-250 127.41,-231 221.41,-231 221.41,-250"/>
<text text-anchor="middle" x="174.41" y="-238" font-family="Helvetica,sans-Serif" font-size="10.00">wmtk/Tuple.hpp</text>
</a>
</g>
</g>
<!-- Node30&#45;&gt;Node31 -->
<g id="edge43_Node000030_Node000031" class="edge">
<title>Node30&#45;&gt;Node31</title>
<g id="a_edge43_Node000030_Node000031"><a xlink:title=" ">
<path fill="none" stroke="#63b8ff" d="M451.75,-417.99C389.61,-378.45 250.16,-289.71 196.26,-255.4"/>
<polygon fill="#63b8ff" stroke="#63b8ff" points="198.11,-252.43 187.79,-250.02 194.35,-258.34 198.11,-252.43"/>
</a>
</g>
</g>
<!-- Node35 -->
<g id="Node000035" class="node">
<title>Node35</title>
<g id="a_Node000035"><a xlink:href="_attribute_transfer_edge_8hpp.html" target="_top" xlink:title=" ">
<polygon fill="white" stroke="#666666" points="786.91,-382 641.91,-382 641.91,-352 786.91,-352 786.91,-382"/>
<text text-anchor="start" x="649.91" y="-370" font-family="Helvetica,sans-Serif" font-size="10.00">wmtk/operations/Attribute</text>
<text text-anchor="middle" x="714.41" y="-359" font-family="Helvetica,sans-Serif" font-size="10.00">TransferEdge.hpp</text>
</a>
</g>
</g>
<!-- Node30&#45;&gt;Node35 -->
<g id="edge55_Node000030_Node000035" class="edge">
<title>Node30&#45;&gt;Node35</title>
<g id="a_edge55_Node000030_Node000035"><a xlink:title=" ">
<path fill="none" stroke="#63b8ff" d="M547.65,-417.96C582.42,-407.54 624.76,-394.86 658.07,-384.88"/>
<polygon fill="#63b8ff" stroke="#63b8ff" points="659.09,-388.23 667.66,-382 657.08,-381.52 659.09,-388.23"/>
</a>
</g>
</g>
<!-- Node31&#45;&gt;Node6 -->
<g id="edge46_Node000031_Node000006" class="edge">
<title>Node31&#45;&gt;Node6</title>
<g id="a_edge46_Node000031_Node000006"><a xlink:title=" ">
<path fill="none" stroke="#63b8ff" d="M127.39,-232.88C84.99,-225.83 27.24,-213.17 13.41,-195 1.99,-180 -11.65,-152.36 19.41,-110 66.43,-45.88 162.72,-22.84 217.31,-14.74"/>
<polygon fill="#63b8ff" stroke="#63b8ff" points="217.9,-18.19 227.32,-13.35 216.94,-11.26 217.9,-18.19"/>
</a>
</g>
</g>
<!-- Node31&#45;&gt;Node7 -->
<g id="edge47_Node000031_Node000007" class="edge">
<title>Node31&#45;&gt;Node7</title>
<g id="a_edge47_Node000031_Node000007"><a xlink:title=" ">
<path fill="none" stroke="#63b8ff" d="M172.66,-230.82C168.56,-207.7 160.95,-144.04 193.41,-110 336.46,40.03 449.61,-62.95 658.08,-18.85"/>
<polygon fill="#63b8ff" stroke="#63b8ff" points="659.07,-22.21 668.08,-16.63 657.56,-15.38 659.07,-22.21"/>
</a>
</g>
</g>
<!-- Node31&#45;&gt;Node22 -->
<g id="edge49_Node000031_Node000022" class="edge">
<title>Node31&#45;&gt;Node22</title>
<g id="a_edge49_Node000031_Node000022"><a xlink:title=" ">
<path fill="none" stroke="#63b8ff" d="M217.31,-230.98C263.78,-221.76 338,-207.03 388.16,-197.07"/>
<polygon fill="#63b8ff" stroke="#63b8ff" points="389.05,-200.46 398.17,-195.08 387.68,-193.6 389.05,-200.46"/>
</a>
</g>
</g>
<!-- Node31&#45;&gt;Node26 -->
<g id="edge45_Node000031_Node000026" class="edge">
<title>Node31&#45;&gt;Node26</title>
<g id="a_edge45_Node000031_Node000026"><a xlink:title=" ">
<path fill="none" stroke="#63b8ff" d="M178.39,-230.97C186.99,-212.56 207.43,-168.79 219.01,-143.98"/>
<polygon fill="#63b8ff" stroke="#63b8ff" points="222.32,-145.17 223.38,-134.63 215.98,-142.21 222.32,-145.17"/>
</a>
</g>
</g>
<!-- Node31&#45;&gt;Node28 -->
<g id="edge48_Node000031_Node000028" class="edge">
<title>Node31&#45;&gt;Node28</title>
<g id="a_edge48_Node000031_Node000028"><a xlink:title=" ">
<path fill="none" stroke="#63b8ff" d="M221.65,-235.59C286.18,-229.76 405.6,-217.23 516.81,-194.81"/>
<polygon fill="#63b8ff" stroke="#63b8ff" points="517.76,-198.19 526.85,-192.76 516.35,-191.33 517.76,-198.19"/>
</a>
</g>
</g>
<!-- Node32 -->
<g id="Node000032" class="node">
<title>Node32</title>
<g id="a_Node000032"><a xlink:title=" ">
<polygon fill="#e0e0e0" stroke="#999999" points="146.41,-195 104.41,-195 104.41,-176 146.41,-176 146.41,-195"/>
<text text-anchor="middle" x="125.41" y="-183" font-family="Helvetica,sans-Serif" font-size="10.00">array</text>
</a>
</g>
</g>
<!-- Node31&#45;&gt;Node32 -->
<g id="edge44_Node000031_Node000032" class="edge">
<title>Node31&#45;&gt;Node32</title>
<g id="a_edge44_Node000031_Node000032"><a xlink:title=" ">
<path fill="none" stroke="#63b8ff" d="M166.32,-230.75C159.25,-223.11 148.82,-211.82 140.26,-202.56"/>
<polygon fill="#63b8ff" stroke="#63b8ff" points="142.71,-200.06 133.35,-195.09 137.57,-204.81 142.71,-200.06"/>
</a>
</g>
</g>
<!-- Node33 -->
<g id="Node000033" class="node">
<title>Node33</title>
<g id="a_Node000033"><a xlink:href="_tuple_8hxx.html" target="_top" xlink:title=" ">
<polygon fill="white" stroke="#666666" points="85.91,-195 22.91,-195 22.91,-176 85.91,-176 85.91,-195"/>
<text text-anchor="middle" x="54.41" y="-183" font-family="Helvetica,sans-Serif" font-size="10.00">Tuple.hxx</text>
</a>
</g>
</g>
<!-- Node31&#45;&gt;Node33 -->
<g id="edge50_Node000031_Node000033" class="edge">
<title>Node31&#45;&gt;Node33</title>
<g id="a_edge50_Node000031_Node000033"><a xlink:title=" ">
<path fill="none" stroke="#63b8ff" d="M150.01,-230.98C128.92,-222.5 98.89,-209.35 78.04,-199.54"/>
<polygon fill="#63b8ff" stroke="#63b8ff" points="79.42,-196.33 68.89,-195.17 76.4,-202.64 79.42,-196.33"/>
</a>
</g>
</g>
<!-- Node33&#45;&gt;Node31 -->
<g id="edge51_Node000033_Node000031" class="edge">
<title>Node33&#45;&gt;Node31</title>
<g id="a_edge51_Node000033_Node000031"><a xlink:title=" ">
<path fill="none" stroke="#63b8ff" d="M79.19,-195.17C100.39,-203.71 130.42,-216.87 151.16,-226.63"/>
<polygon fill="#63b8ff" stroke="#63b8ff" points="149.71,-229.82 160.24,-230.98 152.74,-223.51 149.71,-229.82"/>
</a>
</g>
</g>
<!-- Node34 -->
<g id="Node000034" class="node">
<title>Node34</title>
<g id="a_Node000034"><a xlink:title=" ">
<polygon fill="#e0e0e0" stroke="#999999" points="80.41,-134.5 28.41,-134.5 28.41,-115.5 80.41,-115.5 80.41,-134.5"/>
<text text-anchor="middle" x="54.41" y="-122.5" font-family="Helvetica,sans-Serif" font-size="10.00">cassert</text>
</a>
</g>
</g>
<!-- Node33&#45;&gt;Node34 -->
<g id="edge52_Node000033_Node000034" class="edge">
<title>Node33&#45;&gt;Node34</title>
<g id="a_edge52_Node000033_Node000034"><a xlink:title=" ">
<path fill="none" stroke="#63b8ff" d="M54.41,-175.87C54.41,-167.75 54.41,-155.31 54.41,-144.89"/>
<polygon fill="#63b8ff" stroke="#63b8ff" points="57.91,-144.67 54.41,-134.67 50.91,-144.67 57.91,-144.67"/>
</a>
</g>
</g>
<!-- Node35&#45;&gt;Node2 -->
<g id="edge58_Node000035_Node000002" class="edge">
<title>Node35&#45;&gt;Node2</title>
<g id="a_edge58_Node000035_Node000002"><a xlink:title=" ">
<path fill="none" stroke="#63b8ff" d="M686.1,-351.95C667.53,-342.74 643.05,-330.6 622.87,-320.59"/>
<polygon fill="#63b8ff" stroke="#63b8ff" points="624.17,-317.32 613.65,-316.01 621.05,-323.59 624.17,-317.32"/>
</a>
</g>
</g>
<!-- Node35&#45;&gt;Node11 -->
<g id="edge56_Node000035_Node000011" class="edge">
<title>Node35&#45;&gt;Node11</title>
<g id="a_edge56_Node000035_Node000011"><a xlink:title=" ">
<path fill="none" stroke="#63b8ff" d="M763.19,-351.99C883.28,-317.5 1191.37,-229.02 1300.43,-197.7"/>
<polygon fill="#63b8ff" stroke="#63b8ff" points="1301.7,-200.97 1310.35,-194.85 1299.77,-194.24 1301.7,-200.97"/>
</a>
</g>
</g>
<!-- Node35&#45;&gt;Node13 -->
<g id="edge57_Node000035_Node000013" class="edge">
<title>Node35&#45;&gt;Node13</title>
<g id="a_edge57_Node000035_Node000013"><a xlink:title=" ">
<path fill="none" stroke="#63b8ff" d="M718.19,-351.69C724.19,-326.92 734.41,-274.51 726.41,-231 720.52,-199 705.32,-164.12 695.45,-143.7"/>
<polygon fill="#63b8ff" stroke="#63b8ff" points="698.55,-142.07 690.97,-134.67 692.28,-145.19 698.55,-142.07"/>
</a>
</g>
</g>
</g>
</svg>
