<?xml version="1.0" encoding="UTF-8" standalone="no"?>
<!DOCTYPE svg PUBLIC "-//W3C//DTD SVG 1.1//EN"
 "http://www.w3.org/Graphics/SVG/1.1/DTD/svg11.dtd">
<!-- Generated by graphviz version 2.43.0 (0)
 -->
<!-- Title: components/isotropic_remeshing Pages: 1 -->
<svg width="489pt" height="141pt"
 viewBox="0.00 0.00 488.50 141.00" xmlns="http://www.w3.org/2000/svg" xmlns:xlink="http://www.w3.org/1999/xlink">
<g id="graph0" class="graph" transform="scale(1 1) rotate(0) translate(4 137)">
<title>components/isotropic_remeshing</title>
<g id="clust1" class="cluster">
<title>clusterdir_409f97388efe006bc3438b95e9edef48</title>
<g id="a_clust1"><a xlink:href="dir_409f97388efe006bc3438b95e9edef48.html" target="_top" xlink:title="components">
<polygon fill="#edf0f7" stroke="#404040" stroke-dasharray="5,2" points="8,-8 8,-125 440,-125 440,-8 8,-8"/>
<text text-anchor="middle" x="224" y="-113" font-family="Helvetica,sans-Serif" font-size="10.00">components</text>
</a>
</g>
</g>
<g id="clust2" class="cluster">
<title>clusterdir_81e5a7a1ba2a30fb997609ae36325f79</title>
<g id="a_clust2"><a xlink:href="dir_81e5a7a1ba2a30fb997609ae36325f79.html" target="_top">
<polygon fill="#edf0f7" stroke="#404040" stroke-width="2" points="192,-63 192,-98 386,-98 386,-63 192,-63"/>
</a>
</g>
</g>
<!-- dir_141255b66ec4604466b3430e281cf831 -->
<g id="node1" class="node">
<title>dir_141255b66ec4604466b3430e281cf831</title>
<g id="a_node1"><a xlink:href="dir_141255b66ec4604466b3430e281cf831.html" target="_top" xlink:title="utils">
<polygon fill="#a2b4d6" stroke="red" points="54,-35 16,-35 16,-16 54,-16 54,-35"/>
<text text-anchor="middle" x="35" y="-23" font-family="Helvetica,sans-Serif" font-size="10.00">utils</text>
</a>
</g>
</g>
<!-- dir_70e3a2ee9e25893df7f24c6156c1d472 -->
<g id="node2" class="node">
<title>dir_70e3a2ee9e25893df7f24c6156c1d472</title>
<g id="a_node2"><a xlink:href="dir_70e3a2ee9e25893df7f24c6156c1d472.html" target="_top" xlink:title="multimesh">
<polygon fill="#a2b4d6" stroke="red" points="141.5,-35 72.5,-35 72.5,-16 141.5,-16 141.5,-35"/>
<text text-anchor="middle" x="107" y="-23" font-family="Helvetica,sans-Serif" font-size="10.00">multimesh</text>
</a>
</g>
</g>
<!-- dir_c2a2448aa4410a2735c93a90deffb512 -->
<g id="node3" class="node">
<title>dir_c2a2448aa4410a2735c93a90deffb512</title>
<g id="a_node3"><a xlink:href="dir_c2a2448aa4410a2735c93a90deffb512.html" target="_top" xlink:title="output">
<polygon fill="#a2b4d6" stroke="red" points="208,-35 160,-35 160,-16 208,-16 208,-35"/>
<text text-anchor="middle" x="184" y="-23" font-family="Helvetica,sans-Serif" font-size="10.00">output</text>
</a>
</g>
</g>
<!-- dir_16fe362307cb3199b99b583dba3301ec -->
<g id="node4" class="node">
<title>dir_16fe362307cb3199b99b583dba3301ec</title>
<g id="a_node4"><a xlink:href="dir_16fe362307cb3199b99b583dba3301ec.html" target="_top" xlink:title="mesh_info">
<polygon fill="#a2b4d6" stroke="red" points="294,-35 226,-35 226,-16 294,-16 294,-35"/>
<text text-anchor="middle" x="260" y="-23" font-family="Helvetica,sans-Serif" font-size="10.00">mesh_info</text>
</a>
</g>
</g>
<!-- dir_0bb33c45305857962c91977612951af5 -->
<g id="node5" class="node">
<title>dir_0bb33c45305857962c91977612951af5</title>
<g id="a_node5"><a xlink:href="dir_0bb33c45305857962c91977612951af5.html" target="_top" xlink:title="multimesh_from_tag">
<polygon fill="#a2b4d6" stroke="red" points="431.5,-35 312.5,-35 312.5,-16 431.5,-16 431.5,-35"/>
<text text-anchor="middle" x="372" y="-23" font-family="Helvetica,sans-Serif" font-size="10.00">multimesh_from_tag</text>
</a>
</g>
</g>
<!-- dir_81e5a7a1ba2a30fb997609ae36325f79 -->
<g id="node6" class="node">
<title>dir_81e5a7a1ba2a30fb997609ae36325f79</title>
<text text-anchor="middle" x="320" y="-78" font-family="Helvetica,sans-Serif" font-size="10.00">isotropic_remeshing</text>
</g>
<!-- dir_678829a65ba8f0405277c8fa0c1711be -->
<g id="node7" class="node">
<title>dir_678829a65ba8f0405277c8fa0c1711be</title>
<g id="a_node7"><a xlink:href="dir_678829a65ba8f0405277c8fa0c1711be.html" target="_top" xlink:title="wmtk">
<polygon fill="#a2b4d6" stroke="#404040" points="244,-90 200,-90 200,-71 244,-71 244,-90"/>
<text text-anchor="middle" x="222" y="-78" font-family="Helvetica,sans-Serif" font-size="10.00">wmtk</text>
</a>
</g>
</g>
<!-- dir_678829a65ba8f0405277c8fa0c1711be&#45;&gt;dir_141255b66ec4604466b3430e281cf831 -->
<g id="edge2" class="edge">
<title>dir_678829a65ba8f0405277c8fa0c1711be&#45;&gt;dir_141255b66ec4604466b3430e281cf831</title>
<g id="a_edge2"><a xlink:href="dir_000177_000154.html" target="_top">
<path fill="none" stroke="#63b8ff" d="M200,-73.38C169.45,-64.87 112.48,-48.93 64,-35 63.9,-34.97 63.8,-34.94 63.7,-34.91"/>
<polygon fill="#63b8ff" stroke="#63b8ff" points="64.6,-31.53 54.02,-32.11 62.65,-38.25 64.6,-31.53"/>
</a>
</g>
<g id="a_edge2&#45;headlabel"><a xlink:href="dir_000177_000154.html" target="_top" xlink:title="2">
<text text-anchor="middle" x="68.85" y="-27.31" font-family="Helvetica,sans-Serif" font-size="10.00" fill="#63b8ff">2</text>
</a>
</g>
</g>
<!-- dir_678829a65ba8f0405277c8fa0c1711be&#45;&gt;dir_70e3a2ee9e25893df7f24c6156c1d472 -->
<g id="edge5" class="edge">
<title>dir_678829a65ba8f0405277c8fa0c1711be&#45;&gt;dir_70e3a2ee9e25893df7f24c6156c1d472</title>
<g id="a_edge5"><a xlink:href="dir_000177_000098.html" target="_top">
<path fill="none" stroke="#63b8ff" d="M203.52,-70.98C185.02,-62.46 156.32,-49.23 135.02,-39.41"/>
<polygon fill="#63b8ff" stroke="#63b8ff" points="136.36,-36.18 125.81,-35.17 133.43,-42.53 136.36,-36.18"/>
</a>
</g>
<g id="a_edge5&#45;headlabel"><a xlink:href="dir_000177_000098.html" target="_top" xlink:title="19">
<text text-anchor="middle" x="140.81" y="-32.6" font-family="Helvetica,sans-Serif" font-size="10.00" fill="#63b8ff">19</text>
</a>
</g>
</g>
<!-- dir_678829a65ba8f0405277c8fa0c1711be&#45;&gt;dir_c2a2448aa4410a2735c93a90deffb512 -->
<g id="edge6" class="edge">
<title>dir_678829a65ba8f0405277c8fa0c1711be&#45;&gt;dir_c2a2448aa4410a2735c93a90deffb512</title>
<g id="a_edge6"><a xlink:href="dir_000177_000106.html" target="_top">
<path fill="none" stroke="#63b8ff" d="M215.73,-70.75C210.41,-63.34 202.64,-52.5 196.12,-43.41"/>
<polygon fill="#63b8ff" stroke="#63b8ff" points="198.83,-41.18 190.16,-35.09 193.14,-45.26 198.83,-41.18"/>
</a>
</g>
<g id="a_edge6&#45;headlabel"><a xlink:href="dir_000177_000106.html" target="_top" xlink:title="5">
<text text-anchor="middle" x="203.23" y="-39.94" font-family="Helvetica,sans-Serif" font-size="10.00" fill="#63b8ff">5</text>
</a>
</g>
</g>
<!-- dir_678829a65ba8f0405277c8fa0c1711be&#45;&gt;dir_16fe362307cb3199b99b583dba3301ec -->
<g id="edge3" class="edge">
<title>dir_678829a65ba8f0405277c8fa0c1711be&#45;&gt;dir_16fe362307cb3199b99b583dba3301ec</title>
<g id="a_edge3"><a xlink:href="dir_000177_000095.html" target="_top">
<path fill="none" stroke="#63b8ff" d="M228.27,-70.75C233.59,-63.34 241.36,-52.5 247.88,-43.41"/>
<polygon fill="#63b8ff" stroke="#63b8ff" points="250.86,-45.26 253.84,-35.09 245.17,-41.18 250.86,-45.26"/>
</a>
</g>
<g id="a_edge3&#45;headlabel"><a xlink:href="dir_000177_000095.html" target="_top" xlink:title="4">
<text text-anchor="middle" x="251.07" y="-47.33" font-family="Helvetica,sans-Serif" font-size="10.00" fill="#63b8ff">4</text>
</a>
</g>
</g>
<!-- dir_678829a65ba8f0405277c8fa0c1711be&#45;&gt;dir_0bb33c45305857962c91977612951af5 -->
<g id="edge1" class="edge">
<title>dir_678829a65ba8f0405277c8fa0c1711be&#45;&gt;dir_0bb33c45305857962c91977612951af5</title>
<g id="a_edge1"><a xlink:href="dir_000177_000101.html" target="_top">
<path fill="none" stroke="#63b8ff" d="M236.86,-70.85C241.88,-68.12 247.59,-65.24 253,-63 277.34,-52.9 305.5,-44.14 328.31,-37.73"/>
<polygon fill="#63b8ff" stroke="#63b8ff" points="329.34,-41.08 338.05,-35.05 327.48,-34.33 329.34,-41.08"/>
</a>
</g>
<g id="a_edge1&#45;headlabel"><a xlink:href="dir_000177_000101.html" target="_top" xlink:title="1">
<text text-anchor="middle" x="326.63" y="-42.27" font-family="Helvetica,sans-Serif" font-size="10.00" fill="#63b8ff">1</text>
</a>
</g>
</g>
<!-- dir_68267d1309a1af8e8297ef4c3efbcdba -->
<g id="node8" class="node">
<title>dir_68267d1309a1af8e8297ef4c3efbcdba</title>
<g id="a_node8"><a xlink:href="dir_68267d1309a1af8e8297ef4c3efbcdba.html" target="_top" xlink:title="src">
<polygon fill="#edf0f7" stroke="red" points="480.5,-35 449.5,-35 449.5,-16 480.5,-16 480.5,-35"/>
<text text-anchor="middle" x="465" y="-23" font-family="Helvetica,sans-Serif" font-size="10.00">src</text>
</a>
</g>
</g>
<!-- dir_678829a65ba8f0405277c8fa0c1711be&#45;&gt;dir_68267d1309a1af8e8297ef4c3efbcdba -->
<g id="edge4" class="edge">
<title>dir_678829a65ba8f0405277c8fa0c1711be&#45;&gt;dir_68267d1309a1af8e8297ef4c3efbcdba</title>
<g id="a_edge4"><a xlink:href="dir_000177_000128.html" target="_top">
<path fill="none" stroke="#63b8ff" d="M235.74,-70.88C240.97,-67.95 247.09,-64.94 253,-63 331.33,-37.27 359.03,-55.89 439.06,-36.02"/>
<polygon fill="#63b8ff" stroke="#63b8ff" points="440.29,-39.31 449.08,-33.4 438.52,-32.54 440.29,-39.31"/>
</a>
</g>
<g id="a_edge4&#45;headlabel"><a xlink:href="dir_000177_000128.html" target="_top" xlink:title="181">
<text text-anchor="middle" x="437.53" y="-40.47" font-family="Helvetica,sans-Serif" font-size="10.00" fill="#63b8ff">181</text>
</a>
</g>
</g>
</g>
</svg>
