<?xml version="1.0" encoding="UTF-8" standalone="no"?>
<!DOCTYPE svg PUBLIC "-//W3C//DTD SVG 1.1//EN"
 "http://www.w3.org/Graphics/SVG/1.1/DTD/svg11.dtd">
<!-- Generated by graphviz version 2.43.0 (0)
 -->
<!-- Title: src/wmtk/simplex Pages: 1 -->
<svg width="308pt" height="259pt"
 viewBox="0.00 0.00 308.00 259.00" xmlns="http://www.w3.org/2000/svg" xmlns:xlink="http://www.w3.org/1999/xlink">
<g id="graph0" class="graph" transform="scale(1 1) rotate(0) translate(4 255)">
<title>src/wmtk/simplex</title>
<g id="clust1" class="cluster">
<title>clusterdir_f7a95b7257057fa18adfa4b3aabbe846</title>
<g id="a_clust1"><a xlink:href="dir_f7a95b7257057fa18adfa4b3aabbe846.html" target="_top" xlink:title="wmtk">
<polygon fill="#edf0f7" stroke="#7f7f7f" stroke-dasharray="5,2" points="8,-8 8,-243 292,-243 292,-8 8,-8"/>
<text text-anchor="middle" x="150" y="-231" font-family="Helvetica,sans-Serif" font-size="10.00">wmtk</text>
</a>
</g>
</g>
<g id="clust2" class="cluster">
<title>clusterdir_cbc9327ef122fb9d2e3099bcf15f379f</title>
<g id="a_clust2"><a xlink:href="dir_cbc9327ef122fb9d2e3099bcf15f379f.html" target="_top">
<polygon fill="#edf0f7" stroke="#404040" stroke-width="2" points="16,-16 16,-216 126,-216 126,-16 16,-16"/>
</a>
</g>
</g>
<!-- dir_228c2c271cc4cd9f4cc4d2c9e4cc379f -->
<g id="node1" class="node">
<title>dir_228c2c271cc4cd9f4cc4d2c9e4cc379f</title>
<g id="a_node1"><a xlink:href="dir_228c2c271cc4cd9f4cc4d2c9e4cc379f.html" target="_top" xlink:title="autogen">
<polygon fill="#a2b4d6" stroke="red" points="190,-98 134,-98 134,-79 190,-79 190,-98"/>
<text text-anchor="middle" x="162" y="-86" font-family="Helvetica,sans-Serif" font-size="10.00">autogen</text>
</a>
</g>
</g>
<!-- dir_22f5d99172a5abbb27ead3628330a87f -->
<g id="node2" class="node">
<title>dir_22f5d99172a5abbb27ead3628330a87f</title>
<g id="a_node2"><a xlink:href="dir_22f5d99172a5abbb27ead3628330a87f.html" target="_top" xlink:title="dart">
<polygon fill="#a2b4d6" stroke="red" points="244,-98 208,-98 208,-79 244,-79 244,-98"/>
<text text-anchor="middle" x="226" y="-86" font-family="Helvetica,sans-Serif" font-size="10.00">dart</text>
</a>
</g>
</g>
<!-- dir_9f42d488f21f30bdc75c62948fa574ea -->
<g id="node3" class="node">
<title>dir_9f42d488f21f30bdc75c62948fa574ea</title>
<g id="a_node3"><a xlink:href="dir_9f42d488f21f30bdc75c62948fa574ea.html" target="_top" xlink:title="utils">
<polygon fill="#a2b4d6" stroke="red" points="282,-43 244,-43 244,-24 282,-24 282,-43"/>
<text text-anchor="middle" x="263" y="-31" font-family="Helvetica,sans-Serif" font-size="10.00">utils</text>
</a>
</g>
</g>
<!-- dir_cbc9327ef122fb9d2e3099bcf15f379f -->
<g id="node4" class="node">
<title>dir_cbc9327ef122fb9d2e3099bcf15f379f</title>
<text text-anchor="middle" x="71" y="-196" font-family="Helvetica,sans-Serif" font-size="10.00">simplex</text>
</g>
<!-- dir_cbc9327ef122fb9d2e3099bcf15f379f&#45;&gt;dir_9f42d488f21f30bdc75c62948fa574ea -->
<g id="edge4" class="edge">
<title>dir_cbc9327ef122fb9d2e3099bcf15f379f&#45;&gt;dir_9f42d488f21f30bdc75c62948fa574ea</title>
<g id="a_edge4"><a xlink:href="dir_000114_000158.html" target="_top">
<path fill="none" stroke="#63b8ff" d="M99.25,-192.21C143,-182.33 225.86,-156.54 262,-98 270.24,-84.66 269.63,-66.55 267.47,-53.08"/>
<polygon fill="#63b8ff" stroke="#63b8ff" points="270.85,-52.18 265.44,-43.07 263.99,-53.57 270.85,-52.18"/>
</a>
</g>
<g id="a_edge4&#45;headlabel"><a xlink:href="dir_000114_000158.html" target="_top" xlink:title="20">
<text text-anchor="middle" x="274.35" y="-52.64" font-family="Helvetica,sans-Serif" font-size="10.00" fill="#63b8ff">20</text>
</a>
</g>
</g>
<!-- dir_9c4b67ff81d399cfe3e15a799e94af72 -->
<g id="node5" class="node">
<title>dir_9c4b67ff81d399cfe3e15a799e94af72</title>
<g id="a_node5"><a xlink:href="dir_9c4b67ff81d399cfe3e15a799e94af72.html" target="_top" xlink:title="internal">
<polygon fill="#a2b4d6" stroke="#404040" points="107,-98 53,-98 53,-79 107,-79 107,-98"/>
<text text-anchor="middle" x="80" y="-86" font-family="Helvetica,sans-Serif" font-size="10.00">internal</text>
</a>
</g>
</g>
<!-- dir_cbc9327ef122fb9d2e3099bcf15f379f&#45;&gt;dir_9c4b67ff81d399cfe3e15a799e94af72 -->
<g id="edge3" class="edge">
<title>dir_cbc9327ef122fb9d2e3099bcf15f379f&#45;&gt;dir_9c4b67ff81d399cfe3e15a799e94af72</title>
<g id="a_edge3"><a xlink:href="dir_000114_000078.html" target="_top">
<path fill="none" stroke="#63b8ff" d="M66.02,-188.86C59.61,-176.63 49.88,-153.58 55,-134 57.55,-124.26 62.75,-114.41 67.76,-106.46"/>
<polygon fill="#63b8ff" stroke="#63b8ff" points="70.69,-108.37 73.37,-98.12 64.89,-104.46 70.69,-108.37"/>
</a>
</g>
<g id="a_edge3&#45;headlabel"><a xlink:href="dir_000114_000078.html" target="_top" xlink:title="15">
<text text-anchor="middle" x="71.04" y="-110.43" font-family="Helvetica,sans-Serif" font-size="10.00" fill="#63b8ff">15</text>
</a>
</g>
</g>
<!-- dir_754c4a06de4bd97a734bd936f0d63b63 -->
<g id="node6" class="node">
<title>dir_754c4a06de4bd97a734bd936f0d63b63</title>
<g id="a_node6"><a xlink:href="dir_754c4a06de4bd97a734bd936f0d63b63.html" target="_top" xlink:title="iterable">
<polygon fill="#a2b4d6" stroke="#404040" points="118,-153 64,-153 64,-134 118,-134 118,-153"/>
<text text-anchor="middle" x="91" y="-141" font-family="Helvetica,sans-Serif" font-size="10.00">iterable</text>
</a>
</g>
</g>
<!-- dir_cbc9327ef122fb9d2e3099bcf15f379f&#45;&gt;dir_754c4a06de4bd97a734bd936f0d63b63 -->
<g id="edge1" class="edge">
<title>dir_cbc9327ef122fb9d2e3099bcf15f379f&#45;&gt;dir_754c4a06de4bd97a734bd936f0d63b63</title>
<g id="a_edge1"><a xlink:href="dir_000114_000085.html" target="_top">
<path fill="none" stroke="#63b8ff" d="M74.3,-188.75C76.98,-181.65 80.85,-171.4 84.19,-162.56"/>
<polygon fill="#63b8ff" stroke="#63b8ff" points="87.5,-163.68 87.76,-153.09 80.95,-161.21 87.5,-163.68"/>
</a>
</g>
<g id="a_edge1&#45;headlabel"><a xlink:href="dir_000114_000085.html" target="_top" xlink:title="9">
<text text-anchor="middle" x="88.89" y="-165.55" font-family="Helvetica,sans-Serif" font-size="10.00" fill="#63b8ff">9</text>
</a>
</g>
</g>
<!-- dir_89d8c7f732166b4832f840eda5830ff9 -->
<g id="node7" class="node">
<title>dir_89d8c7f732166b4832f840eda5830ff9</title>
<g id="a_node7"><a xlink:href="dir_89d8c7f732166b4832f840eda5830ff9.html" target="_top" xlink:title="utils">
<polygon fill="#a2b4d6" stroke="#404040" points="99,-43 61,-43 61,-24 99,-24 99,-43"/>
<text text-anchor="middle" x="80" y="-31" font-family="Helvetica,sans-Serif" font-size="10.00">utils</text>
</a>
</g>
</g>
<!-- dir_cbc9327ef122fb9d2e3099bcf15f379f&#45;&gt;dir_89d8c7f732166b4832f840eda5830ff9 -->
<g id="edge2" class="edge">
<title>dir_cbc9327ef122fb9d2e3099bcf15f379f&#45;&gt;dir_89d8c7f732166b4832f840eda5830ff9</title>
<g id="a_edge2"><a xlink:href="dir_000114_000157.html" target="_top">
<path fill="none" stroke="#63b8ff" d="M65.84,-188.98C54.57,-169.23 29.85,-118.98 44,-79 47.75,-68.41 55.21,-58.49 62.37,-50.71"/>
<polygon fill="#63b8ff" stroke="#63b8ff" points="65.28,-52.76 69.84,-43.19 60.31,-47.82 65.28,-52.76"/>
</a>
</g>
<g id="a_edge2&#45;headlabel"><a xlink:href="dir_000114_000157.html" target="_top" xlink:title="12">
<text text-anchor="middle" x="64.76" y="-54.81" font-family="Helvetica,sans-Serif" font-size="10.00" fill="#63b8ff">12</text>
</a>
</g>
</g>
<!-- dir_9c4b67ff81d399cfe3e15a799e94af72&#45;&gt;dir_9f42d488f21f30bdc75c62948fa574ea -->
<g id="edge6" class="edge">
<title>dir_9c4b67ff81d399cfe3e15a799e94af72&#45;&gt;dir_9f42d488f21f30bdc75c62948fa574ea</title>
<g id="a_edge6"><a xlink:href="dir_000078_000158.html" target="_top">
<path fill="none" stroke="#63b8ff" d="M107,-79.68C140.88,-69.87 198.76,-53.1 233.69,-42.99"/>
<polygon fill="#63b8ff" stroke="#63b8ff" points="235.11,-46.22 243.74,-40.08 233.16,-39.5 235.11,-46.22"/>
</a>
</g>
<g id="a_edge6&#45;headlabel"><a xlink:href="dir_000078_000158.html" target="_top" xlink:title="1">
<text text-anchor="middle" x="232.45" y="-47.45" font-family="Helvetica,sans-Serif" font-size="10.00" fill="#63b8ff">1</text>
</a>
</g>
</g>
<!-- dir_9c4b67ff81d399cfe3e15a799e94af72&#45;&gt;dir_89d8c7f732166b4832f840eda5830ff9 -->
<g id="edge5" class="edge">
<title>dir_9c4b67ff81d399cfe3e15a799e94af72&#45;&gt;dir_89d8c7f732166b4832f840eda5830ff9</title>
<g id="a_edge5"><a xlink:href="dir_000078_000157.html" target="_top">
<path fill="none" stroke="#63b8ff" d="M74.83,-78.75C73.34,-71.8 72.9,-61.85 73.52,-53.13"/>
<polygon fill="#63b8ff" stroke="#63b8ff" points="77.01,-53.47 74.87,-43.09 70.07,-52.53 77.01,-53.47"/>
</a>
</g>
<g id="a_edge5&#45;headlabel"><a xlink:href="dir_000078_000157.html" target="_top" xlink:title="5">
<text text-anchor="middle" x="79.34" y="-54.91" font-family="Helvetica,sans-Serif" font-size="10.00" fill="#63b8ff">5</text>
</a>
</g>
</g>
<!-- dir_754c4a06de4bd97a734bd936f0d63b63&#45;&gt;dir_228c2c271cc4cd9f4cc4d2c9e4cc379f -->
<g id="edge7" class="edge">
<title>dir_754c4a06de4bd97a734bd936f0d63b63&#45;&gt;dir_228c2c271cc4cd9f4cc4d2c9e4cc379f</title>
<g id="a_edge7"><a xlink:href="dir_000085_000006.html" target="_top">
<path fill="none" stroke="#63b8ff" d="M102.41,-133.98C113.11,-126 129.34,-113.88 142.16,-104.31"/>
<polygon fill="#63b8ff" stroke="#63b8ff" points="144.47,-106.96 150.39,-98.17 140.28,-101.35 144.47,-106.96"/>
</a>
</g>
<g id="a_edge7&#45;headlabel"><a xlink:href="dir_000085_000006.html" target="_top" xlink:title="5">
<text text-anchor="middle" x="143.28" y="-108.88" font-family="Helvetica,sans-Serif" font-size="10.00" fill="#63b8ff">5</text>
</a>
</g>
</g>
<!-- dir_754c4a06de4bd97a734bd936f0d63b63&#45;&gt;dir_22f5d99172a5abbb27ead3628330a87f -->
<g id="edge8" class="edge">
<title>dir_754c4a06de4bd97a734bd936f0d63b63&#45;&gt;dir_22f5d99172a5abbb27ead3628330a87f</title>
<g id="a_edge8"><a xlink:href="dir_000085_000038.html" target="_top">
<path fill="none" stroke="#63b8ff" d="M112.69,-133.98C135.98,-124.84 173.06,-110.29 198.41,-100.33"/>
<polygon fill="#63b8ff" stroke="#63b8ff" points="199.8,-103.55 207.83,-96.63 197.24,-97.03 199.8,-103.55"/>
</a>
</g>
<g id="a_edge8&#45;headlabel"><a xlink:href="dir_000085_000038.html" target="_top" xlink:title="5">
<text text-anchor="middle" x="197.49" y="-105" font-family="Helvetica,sans-Serif" font-size="10.00" fill="#63b8ff">5</text>
</a>
</g>
</g>
<!-- dir_754c4a06de4bd97a734bd936f0d63b63&#45;&gt;dir_9f42d488f21f30bdc75c62948fa574ea -->
<g id="edge10" class="edge">
<title>dir_754c4a06de4bd97a734bd936f0d63b63&#45;&gt;dir_9f42d488f21f30bdc75c62948fa574ea</title>
<g id="a_edge10"><a xlink:href="dir_000085_000158.html" target="_top">
<path fill="none" stroke="#63b8ff" d="M118.1,-135.07C164.2,-122.43 252.93,-98.08 253,-98 263.8,-85.92 265.57,-67.12 265.07,-53.1"/>
<polygon fill="#63b8ff" stroke="#63b8ff" points="268.56,-52.82 264.32,-43.11 261.58,-53.34 268.56,-52.82"/>
</a>
</g>
<g id="a_edge10&#45;headlabel"><a xlink:href="dir_000085_000158.html" target="_top" xlink:title="7">
<text text-anchor="middle" x="271.66" y="-53.69" font-family="Helvetica,sans-Serif" font-size="10.00" fill="#63b8ff">7</text>
</a>
</g>
</g>
<!-- dir_754c4a06de4bd97a734bd936f0d63b63&#45;&gt;dir_9c4b67ff81d399cfe3e15a799e94af72 -->
<g id="edge9" class="edge">
<title>dir_754c4a06de4bd97a734bd936f0d63b63&#45;&gt;dir_9c4b67ff81d399cfe3e15a799e94af72</title>
<g id="a_edge9"><a xlink:href="dir_000085_000078.html" target="_top">
<path fill="none" stroke="#63b8ff" d="M89.18,-133.75C87.74,-126.8 85.68,-116.85 83.87,-108.13"/>
<polygon fill="#63b8ff" stroke="#63b8ff" points="87.24,-107.17 81.78,-98.09 80.39,-108.59 87.24,-107.17"/>
</a>
</g>
<g id="a_edge9&#45;headlabel"><a xlink:href="dir_000085_000078.html" target="_top" xlink:title="8">
<text text-anchor="middle" x="90.75" y="-107.61" font-family="Helvetica,sans-Serif" font-size="10.00" fill="#63b8ff">8</text>
</a>
</g>
</g>
<!-- dir_89d8c7f732166b4832f840eda5830ff9&#45;&gt;dir_9c4b67ff81d399cfe3e15a799e94af72 -->
<g id="edge11" class="edge">
<title>dir_89d8c7f732166b4832f840eda5830ff9&#45;&gt;dir_9c4b67ff81d399cfe3e15a799e94af72</title>
<g id="a_edge11"><a xlink:href="dir_000157_000078.html" target="_top">
<path fill="none" stroke="#63b8ff" d="M85.13,-43.09C86.64,-49.99 87.09,-59.93 86.49,-68.66"/>
<polygon fill="#63b8ff" stroke="#63b8ff" points="83,-68.38 85.17,-78.75 89.94,-69.29 83,-68.38"/>
</a>
</g>
<g id="a_edge11&#45;headlabel"><a xlink:href="dir_000157_000078.html" target="_top" xlink:title="4">
<text text-anchor="middle" x="80.65" y="-61.94" font-family="Helvetica,sans-Serif" font-size="10.00" fill="#63b8ff">4</text>
</a>
</g>
</g>
</g>
</svg>
