<?xml version="1.0" encoding="UTF-8" standalone="no"?>
<!DOCTYPE svg PUBLIC "-//W3C//DTD SVG 1.1//EN"
 "http://www.w3.org/Graphics/SVG/1.1/DTD/svg11.dtd">
<!-- Generated by graphviz version 2.43.0 (0)
 -->
<!-- Title: src/wmtk/operations/internal/ear_actions.hpp Pages: 1 -->
<svg width="816pt" height="115pt"
 viewBox="0.00 0.00 816.00 115.00" xmlns="http://www.w3.org/2000/svg" xmlns:xlink="http://www.w3.org/1999/xlink">
<g id="graph0" class="graph" transform="scale(1 1) rotate(0) translate(4 111)">
<title>src/wmtk/operations/internal/ear_actions.hpp</title>
<!-- Node1 -->
<g id="Node000001" class="node">
<title>Node1</title>
<g id="a_Node000001"><a xlink:title=" ">
<polygon fill="#999999" stroke="#666666" points="475,-107 338,-107 338,-77 475,-77 475,-107"/>
<text text-anchor="start" x="346" y="-95" font-family="Helvetica,sans-Serif" font-size="10.00">src/wmtk/operations</text>
<text text-anchor="middle" x="406.5" y="-84" font-family="Helvetica,sans-Serif" font-size="10.00">/internal/ear_actions.hpp</text>
</a>
</g>
</g>
<!-- Node2 -->
<g id="Node000002" class="node">
<title>Node2</title>
<g id="a_Node000002"><a xlink:href="_collapse_alternate_facet_data_8cpp.html" target="_top" xlink:title=" ">
<polygon fill="white" stroke="#666666" points="147,-41 0,-41 0,0 147,0 147,-41"/>
<text text-anchor="start" x="8" y="-29" font-family="Helvetica,sans-Serif" font-size="10.00">src/wmtk/operations</text>
<text text-anchor="start" x="8" y="-18" font-family="Helvetica,sans-Serif" font-size="10.00">/internal/CollapseAlternate</text>
<text text-anchor="middle" x="73.5" y="-7" font-family="Helvetica,sans-Serif" font-size="10.00">FacetData.cpp</text>
</a>
</g>
</g>
<!-- Node1&#45;&gt;Node2 -->
<g id="edge1_Node000001_Node000002" class="edge">
<title>Node1&#45;&gt;Node2</title>
<g id="a_edge1_Node000001_Node000002"><a xlink:title=" ">
<path fill="none" stroke="#63b8ff" d="M327.9,-76.11C278.35,-66.54 213.07,-53.57 155.5,-41 152.78,-40.41 150.02,-39.79 147.23,-39.17"/>
<polygon fill="#63b8ff" stroke="#63b8ff" points="327.43,-79.59 337.91,-78.04 328.75,-72.71 327.43,-79.59"/>
</a>
</g>
</g>
<!-- Node3 -->
<g id="Node000003" class="node">
<title>Node3</title>
<g id="a_Node000003"><a xlink:href="_collapse_alternate_facet_option_data_8cpp.html" target="_top" xlink:title=" ">
<polygon fill="white" stroke="#666666" points="312,-41 165,-41 165,0 312,0 312,-41"/>
<text text-anchor="start" x="173" y="-29" font-family="Helvetica,sans-Serif" font-size="10.00">src/wmtk/operations</text>
<text text-anchor="start" x="173" y="-18" font-family="Helvetica,sans-Serif" font-size="10.00">/internal/CollapseAlternate</text>
<text text-anchor="middle" x="238.5" y="-7" font-family="Helvetica,sans-Serif" font-size="10.00">FacetOptionData.cpp</text>
</a>
</g>
</g>
<!-- Node1&#45;&gt;Node3 -->
<g id="edge2_Node000001_Node000003" class="edge">
<title>Node1&#45;&gt;Node3</title>
<g id="a_edge2_Node000001_Node000003"><a xlink:title=" ">
<path fill="none" stroke="#63b8ff" d="M363.07,-73.03C339.4,-63.24 310.07,-51.11 285.81,-41.07"/>
<polygon fill="#63b8ff" stroke="#63b8ff" points="361.92,-76.35 372.5,-76.94 364.6,-69.88 361.92,-76.35"/>
</a>
</g>
</g>
<!-- Node4 -->
<g id="Node000004" class="node">
<title>Node4</title>
<g id="a_Node000004"><a xlink:href="_split_alternate_facet_data_8cpp.html" target="_top" xlink:title=" ">
<polygon fill="white" stroke="#666666" points="482.5,-41 330.5,-41 330.5,0 482.5,0 482.5,-41"/>
<text text-anchor="start" x="338.5" y="-29" font-family="Helvetica,sans-Serif" font-size="10.00">src/wmtk/operations</text>
<text text-anchor="start" x="338.5" y="-18" font-family="Helvetica,sans-Serif" font-size="10.00">/internal/SplitAlternateFacet</text>
<text text-anchor="middle" x="406.5" y="-7" font-family="Helvetica,sans-Serif" font-size="10.00">Data.cpp</text>
</a>
</g>
</g>
<!-- Node1&#45;&gt;Node4 -->
<g id="edge3_Node000001_Node000004" class="edge">
<title>Node1&#45;&gt;Node4</title>
<g id="a_edge3_Node000001_Node000004"><a xlink:title=" ">
<path fill="none" stroke="#63b8ff" d="M406.5,-66.91C406.5,-58.47 406.5,-49.1 406.5,-41.07"/>
<polygon fill="#63b8ff" stroke="#63b8ff" points="403,-66.94 406.5,-76.94 410,-66.94 403,-66.94"/>
</a>
</g>
</g>
<!-- Node5 -->
<g id="Node000005" class="node">
<title>Node5</title>
<g id="a_Node000005"><a xlink:href="_split_alternate_facet_option_data_8cpp.html" target="_top" xlink:title=" ">
<polygon fill="white" stroke="#666666" points="652.5,-41 500.5,-41 500.5,0 652.5,0 652.5,-41"/>
<text text-anchor="start" x="508.5" y="-29" font-family="Helvetica,sans-Serif" font-size="10.00">src/wmtk/operations</text>
<text text-anchor="start" x="508.5" y="-18" font-family="Helvetica,sans-Serif" font-size="10.00">/internal/SplitAlternateFacet</text>
<text text-anchor="middle" x="576.5" y="-7" font-family="Helvetica,sans-Serif" font-size="10.00">OptionData.cpp</text>
</a>
</g>
</g>
<!-- Node1&#45;&gt;Node5 -->
<g id="edge4_Node000001_Node000005" class="edge">
<title>Node1&#45;&gt;Node5</title>
<g id="a_edge4_Node000001_Node000005"><a xlink:title=" ">
<path fill="none" stroke="#63b8ff" d="M450.45,-73.03C474.4,-63.24 504.08,-51.11 528.62,-41.07"/>
<polygon fill="#63b8ff" stroke="#63b8ff" points="448.83,-69.91 440.9,-76.94 451.48,-76.39 448.83,-69.91"/>
</a>
</g>
</g>
<!-- Node6 -->
<g id="Node000006" class="node">
<title>Node6</title>
<g id="a_Node000006"><a xlink:href="ear__actions_8cpp.html" target="_top" xlink:title=" ">
<polygon fill="white" stroke="#666666" points="808,-35.5 671,-35.5 671,-5.5 808,-5.5 808,-35.5"/>
<text text-anchor="start" x="679" y="-23.5" font-family="Helvetica,sans-Serif" font-size="10.00">src/wmtk/operations</text>
<text text-anchor="middle" x="739.5" y="-12.5" font-family="Helvetica,sans-Serif" font-size="10.00">/internal/ear_actions.cpp</text>
</a>
</g>
</g>
<!-- Node1&#45;&gt;Node6 -->
<g id="edge5_Node000001_Node000006" class="edge">
<title>Node1&#45;&gt;Node6</title>
<g id="a_edge5_Node000001_Node000006"><a xlink:title=" ">
<path fill="none" stroke="#63b8ff" d="M485.03,-76.68C535.57,-67.2 602.57,-54.13 661.5,-41 668.99,-39.33 676.87,-37.48 684.61,-35.6"/>
<polygon fill="#63b8ff" stroke="#63b8ff" points="484.34,-73.25 475.15,-78.53 485.63,-80.13 484.34,-73.25"/>
</a>
</g>
</g>
</g>
</svg>
