<?xml version="1.0" encoding="UTF-8" standalone="no"?>
<!DOCTYPE svg PUBLIC "-//W3C//DTD SVG 1.1//EN"
 "http://www.w3.org/Graphics/SVG/1.1/DTD/svg11.dtd">
<!-- Generated by graphviz version 2.43.0 (0)
 -->
<!-- Title: src/wmtk/autogen/edge_mesh/local_switch_tuple.hxx Pages: 1 -->
<svg width="582pt" height="478pt"
 viewBox="0.00 0.00 582.00 478.00" xmlns="http://www.w3.org/2000/svg" xmlns:xlink="http://www.w3.org/1999/xlink">
<g id="graph0" class="graph" transform="scale(1 1) rotate(0) translate(4 474)">
<title>src/wmtk/autogen/edge_mesh/local_switch_tuple.hxx</title>
<!-- Node1 -->
<g id="Node000001" class="node">
<title>Node1</title>
<g id="a_Node000001"><a xlink:title=" ">
<polygon fill="#999999" stroke="#666666" points="227,-470 64,-470 64,-440 227,-440 227,-470"/>
<text text-anchor="start" x="72" y="-458" font-family="Helvetica,sans-Serif" font-size="10.00">src/wmtk/autogen/edge</text>
<text text-anchor="middle" x="145.5" y="-447" font-family="Helvetica,sans-Serif" font-size="10.00">_mesh/local_switch_tuple.hxx</text>
</a>
</g>
</g>
<!-- Node2 -->
<g id="Node000002" class="node">
<title>Node2</title>
<g id="a_Node000002"><a xlink:title=" ">
<polygon fill="#e0e0e0" stroke="#999999" points="127.5,-129 75.5,-129 75.5,-110 127.5,-110 127.5,-129"/>
<text text-anchor="middle" x="101.5" y="-117" font-family="Helvetica,sans-Serif" font-size="10.00">cassert</text>
</a>
</g>
</g>
<!-- Node1&#45;&gt;Node2 -->
<g id="edge1_Node000001_Node000002" class="edge">
<title>Node1&#45;&gt;Node2</title>
<g id="a_edge1_Node000001_Node000002"><a xlink:title=" ">
<path fill="none" stroke="#63b8ff" d="M127.02,-439.67C103.95,-420.02 67.5,-382.34 67.5,-340.5 67.5,-340.5 67.5,-340.5 67.5,-228.5 67.5,-195.39 82.22,-159.1 92.29,-138.14"/>
<polygon fill="#63b8ff" stroke="#63b8ff" points="95.43,-139.68 96.77,-129.17 89.17,-136.55 95.43,-139.68"/>
</a>
</g>
</g>
<!-- Node3 -->
<g id="Node000003" class="node">
<title>Node3</title>
<g id="a_Node000003"><a xlink:title=" ">
<polygon fill="#e0e0e0" stroke="#999999" points="65,-19 0,-19 0,0 65,0 65,-19"/>
<text text-anchor="middle" x="32.5" y="-7" font-family="Helvetica,sans-Serif" font-size="10.00">stdexcept</text>
</a>
</g>
</g>
<!-- Node1&#45;&gt;Node3 -->
<g id="edge2_Node000001_Node000003" class="edge">
<title>Node1&#45;&gt;Node3</title>
<g id="a_edge2_Node000001_Node000003"><a xlink:title=" ">
<path fill="none" stroke="#63b8ff" d="M114.11,-439.92C79.75,-422.13 29.5,-387.98 29.5,-340.5 29.5,-340.5 29.5,-340.5 29.5,-118.5 29.5,-87.18 30.78,-50.77 31.66,-29.23"/>
<polygon fill="#63b8ff" stroke="#63b8ff" points="35.16,-29.32 32.1,-19.18 28.17,-29.02 35.16,-29.32"/>
</a>
</g>
</g>
<!-- Node4 -->
<g id="Node000004" class="node">
<title>Node4</title>
<g id="a_Node000004"><a xlink:href="_tuple_inspector_8hpp.html" target="_top" xlink:title=" ">
<polygon fill="white" stroke="#666666" points="257.5,-184 95.5,-184 95.5,-165 257.5,-165 257.5,-184"/>
<text text-anchor="middle" x="176.5" y="-172" font-family="Helvetica,sans-Serif" font-size="10.00">wmtk/utils/TupleInspector.hpp</text>
</a>
</g>
</g>
<!-- Node1&#45;&gt;Node4 -->
<g id="edge3_Node000001_Node000004" class="edge">
<title>Node1&#45;&gt;Node4</title>
<g id="a_edge3_Node000001_Node000004"><a xlink:title=" ">
<path fill="none" stroke="#63b8ff" d="M137.44,-439.82C126.29,-418.82 107.5,-377.9 107.5,-340.5 107.5,-340.5 107.5,-340.5 107.5,-283.5 107.5,-253.33 115.06,-245.3 131.5,-220 138.56,-209.14 148.66,-198.84 157.51,-190.89"/>
<polygon fill="#63b8ff" stroke="#63b8ff" points="159.86,-193.48 165.15,-184.31 155.29,-188.18 159.86,-193.48"/>
</a>
</g>
</g>
<!-- Node16 -->
<g id="Node000016" class="node">
<title>Node16</title>
<g id="a_Node000016"><a xlink:href="edge__mesh_2autogenerated__tables_8hpp.html" target="_top" xlink:title=" ">
<polygon fill="white" stroke="#666666" points="419.5,-184 275.5,-184 275.5,-165 419.5,-165 419.5,-184"/>
<text text-anchor="middle" x="347.5" y="-172" font-family="Helvetica,sans-Serif" font-size="10.00">autogenerated_tables.hpp</text>
</a>
</g>
</g>
<!-- Node1&#45;&gt;Node16 -->
<g id="edge20_Node000001_Node000016" class="edge">
<title>Node1&#45;&gt;Node16</title>
<g id="a_edge20_Node000001_Node000016"><a xlink:title=" ">
<path fill="none" stroke="#63b8ff" d="M145.5,-439.67C145.5,-418.14 145.5,-376.17 145.5,-340.5 145.5,-340.5 145.5,-340.5 145.5,-283.5 145.5,-225.63 210.76,-198.66 267.1,-186.15"/>
<polygon fill="#63b8ff" stroke="#63b8ff" points="268.06,-189.52 277.13,-184.05 266.63,-182.67 268.06,-189.52"/>
</a>
</g>
</g>
<!-- Node18 -->
<g id="Node000018" class="node">
<title>Node18</title>
<g id="a_Node000018"><a xlink:href="edge__mesh_2local__id__table__offset_8hpp.html" target="_top" xlink:title=" ">
<polygon fill="white" stroke="#666666" points="495.5,-294 357.5,-294 357.5,-275 495.5,-275 495.5,-294"/>
<text text-anchor="middle" x="426.5" y="-282" font-family="Helvetica,sans-Serif" font-size="10.00">local_id_table_offset.hpp</text>
</a>
</g>
</g>
<!-- Node1&#45;&gt;Node18 -->
<g id="edge22_Node000001_Node000018" class="edge">
<title>Node1&#45;&gt;Node18</title>
<g id="a_edge22_Node000001_Node000018"><a xlink:title=" ">
<path fill="none" stroke="#63b8ff" d="M227.1,-454.53C321.73,-453.21 469.28,-444.47 504.5,-404 526.09,-379.19 521.02,-358.44 504.5,-330 495.96,-315.29 480.53,-305.04 465.64,-298.11"/>
<polygon fill="#63b8ff" stroke="#63b8ff" points="466.58,-294.71 456,-294.03 463.84,-301.15 466.58,-294.71"/>
</a>
</g>
</g>
<!-- Node20 -->
<g id="Node000020" class="node">
<title>Node20</title>
<g id="a_Node000020"><a xlink:href="edge__mesh_2tuple__from__valid__index_8hpp.html" target="_top" xlink:title=" ">
<polygon fill="white" stroke="#666666" points="325.5,-404 173.5,-404 173.5,-385 325.5,-385 325.5,-404"/>
<text text-anchor="middle" x="249.5" y="-392" font-family="Helvetica,sans-Serif" font-size="10.00">tuple_from_valid_index.hpp</text>
</a>
</g>
</g>
<!-- Node1&#45;&gt;Node20 -->
<g id="edge28_Node000001_Node000020" class="edge">
<title>Node1&#45;&gt;Node20</title>
<g id="a_edge28_Node000001_Node000020"><a xlink:title=" ">
<path fill="none" stroke="#63b8ff" d="M170.41,-439.99C186.99,-430.66 208.66,-418.47 225.13,-409.21"/>
<polygon fill="#63b8ff" stroke="#63b8ff" points="227.14,-412.09 234.14,-404.14 223.71,-405.99 227.14,-412.09"/>
</a>
</g>
</g>
<!-- Node22 -->
<g id="Node000022" class="node">
<title>Node22</title>
<g id="a_Node000022"><a xlink:href="edge__mesh_2valid__index__from__tuple_8hpp.html" target="_top" xlink:title=" ">
<polygon fill="white" stroke="#666666" points="495.5,-404 343.5,-404 343.5,-385 495.5,-385 495.5,-404"/>
<text text-anchor="middle" x="419.5" y="-392" font-family="Helvetica,sans-Serif" font-size="10.00">valid_index_from_tuple.hpp</text>
</a>
</g>
</g>
<!-- Node1&#45;&gt;Node22 -->
<g id="edge32_Node000001_Node000022" class="edge">
<title>Node1&#45;&gt;Node22</title>
<g id="a_edge32_Node000001_Node000022"><a xlink:title=" ">
<path fill="none" stroke="#63b8ff" d="M211.13,-439.99C259.75,-429.61 325,-415.68 369.45,-406.19"/>
<polygon fill="#63b8ff" stroke="#63b8ff" points="370.39,-409.56 379.44,-404.05 368.93,-402.72 370.39,-409.56"/>
</a>
</g>
</g>
<!-- Node4&#45;&gt;Node2 -->
<g id="edge4_Node000004_Node000002" class="edge">
<title>Node4&#45;&gt;Node2</title>
<g id="a_edge4_Node000004_Node000002"><a xlink:title=" ">
<path fill="none" stroke="#63b8ff" d="M164.45,-164.98C153.04,-156.92 135.67,-144.65 122.07,-135.03"/>
<polygon fill="#63b8ff" stroke="#63b8ff" points="123.96,-132.08 113.77,-129.17 119.92,-137.8 123.96,-132.08"/>
</a>
</g>
</g>
<!-- Node5 -->
<g id="Node000005" class="node">
<title>Node5</title>
<g id="a_Node000005"><a xlink:title=" ">
<polygon fill="#e0e0e0" stroke="#999999" points="290.5,-19 246.5,-19 246.5,0 290.5,0 290.5,-19"/>
<text text-anchor="middle" x="268.5" y="-7" font-family="Helvetica,sans-Serif" font-size="10.00">string</text>
</a>
</g>
</g>
<!-- Node4&#45;&gt;Node5 -->
<g id="edge5_Node000004_Node000005" class="edge">
<title>Node4&#45;&gt;Node5</title>
<g id="a_edge5_Node000004_Node000005"><a xlink:title=" ">
<path fill="none" stroke="#63b8ff" d="M184.3,-164.81C198.81,-148.26 230.11,-110.58 248.5,-74 255.73,-59.62 261.01,-42.1 264.32,-29.11"/>
<polygon fill="#63b8ff" stroke="#63b8ff" points="267.81,-29.59 266.73,-19.05 261,-27.96 267.81,-29.59"/>
</a>
</g>
</g>
<!-- Node6 -->
<g id="Node000006" class="node">
<title>Node6</title>
<g id="a_Node000006"><a xlink:href="_primitive_type_8hpp.html" target="_top" xlink:title=" ">
<polygon fill="white" stroke="#666666" points="239,-74 104,-74 104,-55 239,-55 239,-74"/>
<text text-anchor="middle" x="171.5" y="-62" font-family="Helvetica,sans-Serif" font-size="10.00">wmtk/PrimitiveType.hpp</text>
</a>
</g>
</g>
<!-- Node4&#45;&gt;Node6 -->
<g id="edge6_Node000004_Node000006" class="edge">
<title>Node4&#45;&gt;Node6</title>
<g id="a_edge6_Node000004_Node000006"><a xlink:title=" ">
<path fill="none" stroke="#63b8ff" d="M176.09,-164.66C175.28,-147.17 173.46,-107.8 172.37,-84.27"/>
<polygon fill="#63b8ff" stroke="#63b8ff" points="175.86,-83.99 171.9,-74.16 168.87,-84.31 175.86,-83.99"/>
</a>
</g>
</g>
<!-- Node9 -->
<g id="Node000009" class="node">
<title>Node9</title>
<g id="a_Node000009"><a xlink:href="_tuple_8hpp.html" target="_top" xlink:title=" ">
<polygon fill="white" stroke="#666666" points="457.5,-129 363.5,-129 363.5,-110 457.5,-110 457.5,-129"/>
<text text-anchor="middle" x="410.5" y="-117" font-family="Helvetica,sans-Serif" font-size="10.00">wmtk/Tuple.hpp</text>
</a>
</g>
</g>
<!-- Node4&#45;&gt;Node9 -->
<g id="edge10_Node000004_Node000009" class="edge">
<title>Node4&#45;&gt;Node9</title>
<g id="a_edge10_Node000004_Node000009"><a xlink:title=" ">
<path fill="none" stroke="#63b8ff" d="M214.1,-164.98C254.49,-155.84 318.78,-141.27 362.73,-131.32"/>
<polygon fill="#63b8ff" stroke="#63b8ff" points="363.63,-134.7 372.61,-129.08 362.08,-127.88 363.63,-134.7"/>
</a>
</g>
</g>
<!-- Node6&#45;&gt;Node3 -->
<g id="edge7_Node000006_Node000003" class="edge">
<title>Node6&#45;&gt;Node3</title>
<g id="a_edge7_Node000006_Node000003"><a xlink:title=" ">
<path fill="none" stroke="#63b8ff" d="M149.17,-54.98C126.3,-46.27 90.54,-32.63 64.64,-22.75"/>
<polygon fill="#63b8ff" stroke="#63b8ff" points="65.83,-19.46 55.24,-19.17 63.34,-26 65.83,-19.46"/>
</a>
</g>
</g>
<!-- Node7 -->
<g id="Node000007" class="node">
<title>Node7</title>
<g id="a_Node000007"><a xlink:title=" ">
<polygon fill="#e0e0e0" stroke="#999999" points="226,-19 153,-19 153,0 226,0 226,-19"/>
<text text-anchor="middle" x="189.5" y="-7" font-family="Helvetica,sans-Serif" font-size="10.00">string_view</text>
</a>
</g>
</g>
<!-- Node6&#45;&gt;Node7 -->
<g id="edge8_Node000006_Node000007" class="edge">
<title>Node6&#45;&gt;Node7</title>
<g id="a_edge8_Node000006_Node000007"><a xlink:title=" ">
<path fill="none" stroke="#63b8ff" d="M174.47,-54.75C176.86,-47.72 180.29,-37.62 183.27,-28.84"/>
<polygon fill="#63b8ff" stroke="#63b8ff" points="186.68,-29.68 186.58,-19.09 180.05,-27.43 186.68,-29.68"/>
</a>
</g>
</g>
<!-- Node8 -->
<g id="Node000008" class="node">
<title>Node8</title>
<g id="a_Node000008"><a xlink:title=" ">
<polygon fill="#e0e0e0" stroke="#999999" points="135,-19 88,-19 88,0 135,0 135,-19"/>
<text text-anchor="middle" x="111.5" y="-7" font-family="Helvetica,sans-Serif" font-size="10.00">vector</text>
</a>
</g>
</g>
<!-- Node6&#45;&gt;Node8 -->
<g id="edge9_Node000006_Node000008" class="edge">
<title>Node6&#45;&gt;Node8</title>
<g id="a_edge9_Node000006_Node000008"><a xlink:title=" ">
<path fill="none" stroke="#63b8ff" d="M161.86,-54.98C152.99,-47.15 139.63,-35.34 128.89,-25.86"/>
<polygon fill="#63b8ff" stroke="#63b8ff" points="131.13,-23.17 121.32,-19.17 126.49,-28.41 131.13,-23.17"/>
</a>
</g>
</g>
<!-- Node9&#45;&gt;Node6 -->
<g id="edge12_Node000009_Node000006" class="edge">
<title>Node9&#45;&gt;Node6</title>
<g id="a_edge12_Node000009_Node000006"><a xlink:title=" ">
<path fill="none" stroke="#63b8ff" d="M372.1,-109.98C330.76,-100.82 264.9,-86.21 220.01,-76.26"/>
<polygon fill="#63b8ff" stroke="#63b8ff" points="220.72,-72.83 210.2,-74.08 219.21,-79.66 220.72,-72.83"/>
</a>
</g>
</g>
<!-- Node10 -->
<g id="Node000010" class="node">
<title>Node10</title>
<g id="a_Node000010"><a xlink:title=" ">
<polygon fill="#e0e0e0" stroke="#999999" points="504.5,-74 462.5,-74 462.5,-55 504.5,-55 504.5,-74"/>
<text text-anchor="middle" x="483.5" y="-62" font-family="Helvetica,sans-Serif" font-size="10.00">array</text>
</a>
</g>
</g>
<!-- Node9&#45;&gt;Node10 -->
<g id="edge11_Node000009_Node000010" class="edge">
<title>Node9&#45;&gt;Node10</title>
<g id="a_edge11_Node000009_Node000010"><a xlink:title=" ">
<path fill="none" stroke="#63b8ff" d="M422.23,-109.98C433.23,-102 449.92,-89.88 463.1,-80.31"/>
<polygon fill="#63b8ff" stroke="#63b8ff" points="465.52,-82.88 471.56,-74.17 461.41,-77.21 465.52,-82.88"/>
</a>
</g>
</g>
<!-- Node11 -->
<g id="Node000011" class="node">
<title>Node11</title>
<g id="a_Node000011"><a xlink:href="_tuple_8hxx.html" target="_top" xlink:title=" ">
<polygon fill="white" stroke="#666666" points="442,-74 379,-74 379,-55 442,-55 442,-74"/>
<text text-anchor="middle" x="410.5" y="-62" font-family="Helvetica,sans-Serif" font-size="10.00">Tuple.hxx</text>
</a>
</g>
</g>
<!-- Node9&#45;&gt;Node11 -->
<g id="edge13_Node000009_Node000011" class="edge">
<title>Node9&#45;&gt;Node11</title>
<g id="a_edge13_Node000009_Node000011"><a xlink:title=" ">
<path fill="none" stroke="#63b8ff" d="M405.33,-109.75C403.84,-102.8 403.4,-92.85 404.02,-84.13"/>
<polygon fill="#63b8ff" stroke="#63b8ff" points="407.51,-84.47 405.37,-74.09 400.57,-83.53 407.51,-84.47"/>
</a>
</g>
</g>
<!-- Node11&#45;&gt;Node5 -->
<g id="edge17_Node000011_Node000005" class="edge">
<title>Node11&#45;&gt;Node5</title>
<g id="a_edge17_Node000011_Node000005"><a xlink:title=" ">
<path fill="none" stroke="#63b8ff" d="M387.69,-54.98C364.05,-46.16 326.92,-32.31 300.39,-22.4"/>
<polygon fill="#63b8ff" stroke="#63b8ff" points="301.38,-19.04 290.79,-18.82 298.93,-25.6 301.38,-19.04"/>
</a>
</g>
</g>
<!-- Node11&#45;&gt;Node9 -->
<g id="edge19_Node000011_Node000009" class="edge">
<title>Node11&#45;&gt;Node9</title>
<g id="a_edge19_Node000011_Node000009"><a xlink:title=" ">
<path fill="none" stroke="#63b8ff" d="M415.63,-74.09C417.14,-80.99 417.59,-90.93 416.99,-99.66"/>
<polygon fill="#63b8ff" stroke="#63b8ff" points="413.5,-99.38 415.67,-109.75 420.44,-100.29 413.5,-99.38"/>
</a>
</g>
</g>
<!-- Node12 -->
<g id="Node000012" class="node">
<title>Node12</title>
<g id="a_Node000012"><a xlink:title=" ">
<polygon fill="#e0e0e0" stroke="#999999" points="362,-19 309,-19 309,0 362,0 362,-19"/>
<text text-anchor="middle" x="335.5" y="-7" font-family="Helvetica,sans-Serif" font-size="10.00">cstddef</text>
</a>
</g>
</g>
<!-- Node11&#45;&gt;Node12 -->
<g id="edge14_Node000011_Node000012" class="edge">
<title>Node11&#45;&gt;Node12</title>
<g id="a_edge14_Node000011_Node000012"><a xlink:title=" ">
<path fill="none" stroke="#63b8ff" d="M398.45,-54.98C387.04,-46.92 369.67,-34.65 356.07,-25.03"/>
<polygon fill="#63b8ff" stroke="#63b8ff" points="357.96,-22.08 347.77,-19.17 353.92,-27.8 357.96,-22.08"/>
</a>
</g>
</g>
<!-- Node13 -->
<g id="Node000013" class="node">
<title>Node13</title>
<g id="a_Node000013"><a xlink:title=" ">
<polygon fill="#e0e0e0" stroke="#999999" points="440.5,-19 380.5,-19 380.5,0 440.5,0 440.5,-19"/>
<text text-anchor="middle" x="410.5" y="-7" font-family="Helvetica,sans-Serif" font-size="10.00">iostream</text>
</a>
</g>
</g>
<!-- Node11&#45;&gt;Node13 -->
<g id="edge15_Node000011_Node000013" class="edge">
<title>Node11&#45;&gt;Node13</title>
<g id="a_edge15_Node000011_Node000013"><a xlink:title=" ">
<path fill="none" stroke="#63b8ff" d="M410.5,-54.75C410.5,-47.8 410.5,-37.85 410.5,-29.13"/>
<polygon fill="#63b8ff" stroke="#63b8ff" points="414,-29.09 410.5,-19.09 407,-29.09 414,-29.09"/>
</a>
</g>
</g>
<!-- Node14 -->
<g id="Node000014" class="node">
<title>Node14</title>
<g id="a_Node000014"><a xlink:title=" ">
<polygon fill="#e0e0e0" stroke="#999999" points="514.5,-19 458.5,-19 458.5,0 514.5,0 514.5,-19"/>
<text text-anchor="middle" x="486.5" y="-7" font-family="Helvetica,sans-Serif" font-size="10.00">optional</text>
</a>
</g>
</g>
<!-- Node11&#45;&gt;Node14 -->
<g id="edge16_Node000011_Node000014" class="edge">
<title>Node11&#45;&gt;Node14</title>
<g id="a_edge16_Node000011_Node000014"><a xlink:title=" ">
<path fill="none" stroke="#63b8ff" d="M422.71,-54.98C434.28,-46.92 451.88,-34.65 465.66,-25.03"/>
<polygon fill="#63b8ff" stroke="#63b8ff" points="467.87,-27.76 474.07,-19.17 463.86,-22.02 467.87,-27.76"/>
</a>
</g>
</g>
<!-- Node15 -->
<g id="Node000015" class="node">
<title>Node15</title>
<g id="a_Node000015"><a xlink:title=" ">
<polygon fill="#e0e0e0" stroke="#999999" points="574,-19 533,-19 533,0 574,0 574,-19"/>
<text text-anchor="middle" x="553.5" y="-7" font-family="Helvetica,sans-Serif" font-size="10.00">tuple</text>
</a>
</g>
</g>
<!-- Node11&#45;&gt;Node15 -->
<g id="edge18_Node000011_Node000015" class="edge">
<title>Node11&#45;&gt;Node15</title>
<g id="a_edge18_Node000011_Node000015"><a xlink:title=" ">
<path fill="none" stroke="#63b8ff" d="M433.48,-54.98C457.84,-45.96 496.43,-31.65 523.25,-21.71"/>
<polygon fill="#63b8ff" stroke="#63b8ff" points="524.74,-24.89 532.9,-18.13 522.31,-18.33 524.74,-24.89"/>
</a>
</g>
</g>
<!-- Node17 -->
<g id="Node000017" class="node">
<title>Node17</title>
<g id="a_Node000017"><a xlink:title=" ">
<polygon fill="#e0e0e0" stroke="#999999" points="345.5,-129 295.5,-129 295.5,-110 345.5,-110 345.5,-129"/>
<text text-anchor="middle" x="320.5" y="-117" font-family="Helvetica,sans-Serif" font-size="10.00">cstdint</text>
</a>
</g>
</g>
<!-- Node16&#45;&gt;Node17 -->
<g id="edge21_Node000016_Node000017" class="edge">
<title>Node16&#45;&gt;Node17</title>
<g id="a_edge21_Node000016_Node000017"><a xlink:title=" ">
<path fill="none" stroke="#63b8ff" d="M343.04,-164.75C339.38,-157.57 334.09,-147.18 329.55,-138.27"/>
<polygon fill="#63b8ff" stroke="#63b8ff" points="332.53,-136.41 324.88,-129.09 326.3,-139.59 332.53,-136.41"/>
</a>
</g>
</g>
<!-- Node18&#45;&gt;Node9 -->
<g id="edge24_Node000018_Node000009" class="edge">
<title>Node18&#45;&gt;Node9</title>
<g id="a_edge24_Node000018_Node000009"><a xlink:title=" ">
<path fill="none" stroke="#63b8ff" d="M427.87,-274.77C430.72,-255 436.36,-205.39 428.5,-165 426.71,-155.8 423.02,-146.09 419.44,-138.1"/>
<polygon fill="#63b8ff" stroke="#63b8ff" points="422.59,-136.57 415.12,-129.06 416.27,-139.59 422.59,-136.57"/>
</a>
</g>
</g>
<!-- Node18&#45;&gt;Node10 -->
<g id="edge23_Node000018_Node000010" class="edge">
<title>Node18&#45;&gt;Node10</title>
<g id="a_edge23_Node000018_Node000010"><a xlink:title=" ">
<path fill="none" stroke="#63b8ff" d="M430.78,-274.82C435.01,-265.98 441.41,-251.8 445.5,-239 463.07,-184.07 475.25,-116.79 480.54,-84.53"/>
<polygon fill="#63b8ff" stroke="#63b8ff" points="484.05,-84.75 482.17,-74.32 477.14,-83.64 484.05,-84.75"/>
</a>
</g>
</g>
<!-- Node19 -->
<g id="Node000019" class="node">
<title>Node19</title>
<g id="a_Node000019"><a xlink:href="edge__mesh_2local__id__table__offset_8hxx.html" target="_top" xlink:title=" ">
<polygon fill="white" stroke="#666666" points="419.5,-239 281.5,-239 281.5,-220 419.5,-220 419.5,-239"/>
<text text-anchor="middle" x="350.5" y="-227" font-family="Helvetica,sans-Serif" font-size="10.00">local_id_table_offset.hxx</text>
</a>
</g>
</g>
<!-- Node18&#45;&gt;Node19 -->
<g id="edge25_Node000018_Node000019" class="edge">
<title>Node18&#45;&gt;Node19</title>
<g id="a_edge25_Node000018_Node000019"><a xlink:title=" ">
<path fill="none" stroke="#63b8ff" d="M414.29,-274.98C402.72,-266.92 385.12,-254.65 371.34,-245.03"/>
<polygon fill="#63b8ff" stroke="#63b8ff" points="373.14,-242.02 362.93,-239.17 369.13,-247.76 373.14,-242.02"/>
</a>
</g>
</g>
<!-- Node19&#45;&gt;Node4 -->
<g id="edge26_Node000019_Node000004" class="edge">
<title>Node19&#45;&gt;Node4</title>
<g id="a_edge26_Node000019_Node000004"><a xlink:title=" ">
<path fill="none" stroke="#63b8ff" d="M322.54,-219.98C293.2,-211.05 246.9,-196.94 214.31,-187.02"/>
<polygon fill="#63b8ff" stroke="#63b8ff" points="215.26,-183.65 204.68,-184.08 213.22,-190.34 215.26,-183.65"/>
</a>
</g>
</g>
<!-- Node19&#45;&gt;Node16 -->
<g id="edge27_Node000019_Node000016" class="edge">
<title>Node19&#45;&gt;Node16</title>
<g id="a_edge27_Node000019_Node000016"><a xlink:title=" ">
<path fill="none" stroke="#63b8ff" d="M350,-219.75C349.61,-212.8 349.05,-202.85 348.55,-194.13"/>
<polygon fill="#63b8ff" stroke="#63b8ff" points="352.05,-193.88 347.99,-184.09 345.06,-194.27 352.05,-193.88"/>
</a>
</g>
</g>
<!-- Node21 -->
<g id="Node000021" class="node">
<title>Node21</title>
<g id="a_Node000021"><a xlink:href="edge__mesh_2tuple__from__valid__index_8hxx.html" target="_top" xlink:title=" ">
<polygon fill="white" stroke="#666666" points="325.5,-349 173.5,-349 173.5,-330 325.5,-330 325.5,-349"/>
<text text-anchor="middle" x="249.5" y="-337" font-family="Helvetica,sans-Serif" font-size="10.00">tuple_from_valid_index.hxx</text>
</a>
</g>
</g>
<!-- Node20&#45;&gt;Node21 -->
<g id="edge29_Node000020_Node000021" class="edge">
<title>Node20&#45;&gt;Node21</title>
<g id="a_edge29_Node000020_Node000021"><a xlink:title=" ">
<path fill="none" stroke="#63b8ff" d="M244.33,-384.75C242.84,-377.8 242.4,-367.85 243.02,-359.13"/>
<polygon fill="#63b8ff" stroke="#63b8ff" points="246.51,-359.47 244.37,-349.09 239.57,-358.53 246.51,-359.47"/>
</a>
</g>
</g>
<!-- Node21&#45;&gt;Node16 -->
<g id="edge30_Node000021_Node000016" class="edge">
<title>Node21&#45;&gt;Node16</title>
<g id="a_edge30_Node000021_Node000016"><a xlink:title=" ">
<path fill="none" stroke="#63b8ff" d="M248.2,-329.83C245.53,-308.88 241.57,-254.69 265.5,-220 275.71,-205.21 292.47,-194.88 308.19,-187.92"/>
<polygon fill="#63b8ff" stroke="#63b8ff" points="309.84,-191.03 317.78,-184.01 307.2,-184.55 309.84,-191.03"/>
</a>
</g>
</g>
<!-- Node21&#45;&gt;Node20 -->
<g id="edge31_Node000021_Node000020" class="edge">
<title>Node21&#45;&gt;Node20</title>
<g id="a_edge31_Node000021_Node000020"><a xlink:title=" ">
<path fill="none" stroke="#63b8ff" d="M254.63,-349.09C256.14,-355.99 256.59,-365.93 255.99,-374.66"/>
<polygon fill="#63b8ff" stroke="#63b8ff" points="252.5,-374.38 254.67,-384.75 259.44,-375.29 252.5,-374.38"/>
</a>
</g>
</g>
<!-- Node22&#45;&gt;Node9 -->
<g id="edge33_Node000022_Node000009" class="edge">
<title>Node22&#45;&gt;Node9</title>
<g id="a_edge33_Node000022_Node000009"><a xlink:title=" ">
<path fill="none" stroke="#63b8ff" d="M448.52,-384.85C467,-377.94 490.09,-366.48 504.5,-349 523.24,-326.27 523.5,-314.96 523.5,-285.5 523.5,-285.5 523.5,-285.5 523.5,-228.5 523.5,-182.68 474.35,-150.32 440.88,-133.6"/>
<polygon fill="#63b8ff" stroke="#63b8ff" points="442.02,-130.27 431.49,-129.11 439,-136.58 442.02,-130.27"/>
</a>
</g>
</g>
<!-- Node23 -->
<g id="Node000023" class="node">
<title>Node23</title>
<g id="a_Node000023"><a xlink:href="edge__mesh_2valid__index__from__tuple_8hxx.html" target="_top" xlink:title=" ">
<polygon fill="white" stroke="#666666" points="495.5,-349 343.5,-349 343.5,-330 495.5,-330 495.5,-349"/>
<text text-anchor="middle" x="419.5" y="-337" font-family="Helvetica,sans-Serif" font-size="10.00">valid_index_from_tuple.hxx</text>
</a>
</g>
</g>
<!-- Node22&#45;&gt;Node23 -->
<g id="edge34_Node000022_Node000023" class="edge">
<title>Node22&#45;&gt;Node23</title>
<g id="a_edge34_Node000022_Node000023"><a xlink:title=" ">
<path fill="none" stroke="#63b8ff" d="M414.33,-384.75C412.84,-377.8 412.4,-367.85 413.02,-359.13"/>
<polygon fill="#63b8ff" stroke="#63b8ff" points="416.51,-359.47 414.37,-349.09 409.57,-358.53 416.51,-359.47"/>
</a>
</g>
</g>
<!-- Node23&#45;&gt;Node16 -->
<g id="edge35_Node000023_Node000016" class="edge">
<title>Node23&#45;&gt;Node16</title>
<g id="a_edge35_Node000023_Node000016"><a xlink:title=" ">
<path fill="none" stroke="#63b8ff" d="M393.53,-329.91C358.43,-316.71 297.38,-287.72 272.5,-239 261.08,-216.63 287.59,-199 312.18,-188.04"/>
<polygon fill="#63b8ff" stroke="#63b8ff" points="313.56,-191.26 321.43,-184.17 310.86,-184.8 313.56,-191.26"/>
</a>
</g>
</g>
<!-- Node23&#45;&gt;Node18 -->
<g id="edge36_Node000023_Node000018" class="edge">
<title>Node23&#45;&gt;Node18</title>
<g id="a_edge36_Node000023_Node000018"><a xlink:title=" ">
<path fill="none" stroke="#63b8ff" d="M420.66,-329.75C421.57,-322.8 422.89,-312.85 424.04,-304.13"/>
<polygon fill="#63b8ff" stroke="#63b8ff" points="427.53,-304.46 425.37,-294.09 420.59,-303.54 427.53,-304.46"/>
</a>
</g>
</g>
<!-- Node23&#45;&gt;Node22 -->
<g id="edge37_Node000023_Node000022" class="edge">
<title>Node23&#45;&gt;Node22</title>
<g id="a_edge37_Node000023_Node000022"><a xlink:title=" ">
<path fill="none" stroke="#63b8ff" d="M424.63,-349.09C426.14,-355.99 426.59,-365.93 425.99,-374.66"/>
<polygon fill="#63b8ff" stroke="#63b8ff" points="422.5,-374.38 424.67,-384.75 429.44,-375.29 422.5,-374.38"/>
</a>
</g>
</g>
</g>
</svg>
