<?xml version="1.0" encoding="UTF-8" standalone="no"?>
<!DOCTYPE svg PUBLIC "-//W3C//DTD SVG 1.1//EN"
 "http://www.w3.org/Graphics/SVG/1.1/DTD/svg11.dtd">
<!-- Generated by graphviz version 2.43.0 (0)
 -->
<!-- Title: src/wmtk/multimesh/utils/extract_child_mesh_from_tag.hpp Pages: 1 -->
<svg width="1905pt" height="148pt"
 viewBox="0.00 0.00 1905.00 148.00" xmlns="http://www.w3.org/2000/svg" xmlns:xlink="http://www.w3.org/1999/xlink">
<g id="graph0" class="graph" transform="scale(1 1) rotate(0) translate(4 144)">
<title>src/wmtk/multimesh/utils/extract_child_mesh_from_tag.hpp</title>
<!-- Node1 -->
<g id="Node000001" class="node">
<title>Node1</title>
<g id="a_Node000001"><a xlink:title=" ">
<polygon fill="#999999" stroke="#666666" points="965,-140 846,-140 846,-99 965,-99 965,-140"/>
<text text-anchor="start" x="854" y="-128" font-family="Helvetica,sans-Serif" font-size="10.00">src/wmtk/multimesh</text>
<text text-anchor="start" x="854" y="-117" font-family="Helvetica,sans-Serif" font-size="10.00">/utils/extract_child</text>
<text text-anchor="middle" x="905.5" y="-106" font-family="Helvetica,sans-Serif" font-size="10.00">_mesh_from_tag.hpp</text>
</a>
</g>
</g>
<!-- Node2 -->
<g id="Node000002" class="node">
<title>Node2</title>
<g id="a_Node000002"><a xlink:href="internal_2periodic__optimization_8cpp.html" target="_top" xlink:title=" ">
<polygon fill="white" stroke="#666666" points="167,-63 0,-63 0,0 167,0 167,-63"/>
<text text-anchor="start" x="8" y="-51" font-family="Helvetica,sans-Serif" font-size="10.00">components/isotropic</text>
<text text-anchor="start" x="8" y="-40" font-family="Helvetica,sans-Serif" font-size="10.00">_remeshing/wmtk/components</text>
<text text-anchor="start" x="8" y="-29" font-family="Helvetica,sans-Serif" font-size="10.00">/isotropic_remeshing/periodic</text>
<text text-anchor="start" x="8" y="-18" font-family="Helvetica,sans-Serif" font-size="10.00">_optimization/internal/periodic</text>
<text text-anchor="middle" x="83.5" y="-7" font-family="Helvetica,sans-Serif" font-size="10.00">_optimization.cpp</text>
</a>
</g>
</g>
<!-- Node1&#45;&gt;Node2 -->
<g id="edge1_Node000001_Node000002" class="edge">
<title>Node1&#45;&gt;Node2</title>
<g id="a_edge1_Node000001_Node000002"><a xlink:title=" ">
<path fill="none" stroke="#63b8ff" d="M835.4,-118.82C704.43,-118.19 414.22,-110.89 175.5,-63 172.7,-62.44 169.86,-61.81 167,-61.14"/>
<polygon fill="#63b8ff" stroke="#63b8ff" points="835.68,-122.33 845.69,-118.86 835.7,-115.33 835.68,-122.33"/>
</a>
</g>
</g>
<!-- Node3 -->
<g id="Node000003" class="node">
<title>Node3</title>
<g id="a_Node000003"><a xlink:href="multimesh__from__attribute_8cpp.html" target="_top" xlink:title=" ">
<polygon fill="white" stroke="#666666" points="340,-57.5 185,-57.5 185,-5.5 340,-5.5 340,-57.5"/>
<text text-anchor="start" x="193" y="-45.5" font-family="Helvetica,sans-Serif" font-size="10.00">components/mesh_info</text>
<text text-anchor="start" x="193" y="-34.5" font-family="Helvetica,sans-Serif" font-size="10.00">/src/wmtk/components</text>
<text text-anchor="start" x="193" y="-23.5" font-family="Helvetica,sans-Serif" font-size="10.00">/mesh_info/multimesh_from</text>
<text text-anchor="middle" x="262.5" y="-12.5" font-family="Helvetica,sans-Serif" font-size="10.00">_attribute.cpp</text>
</a>
</g>
</g>
<!-- Node1&#45;&gt;Node3 -->
<g id="edge2_Node000001_Node000003" class="edge">
<title>Node1&#45;&gt;Node3</title>
<g id="a_edge2_Node000001_Node000003"><a xlink:title=" ">
<path fill="none" stroke="#63b8ff" d="M835.67,-116.84C729.48,-113.12 521.58,-101.18 349.5,-63 342.78,-61.51 335.86,-59.66 329.01,-57.61"/>
<polygon fill="#63b8ff" stroke="#63b8ff" points="835.82,-120.34 845.93,-117.18 836.05,-113.35 835.82,-120.34"/>
</a>
</g>
</g>
<!-- Node4 -->
<g id="Node000004" class="node">
<title>Node4</title>
<g id="a_Node000004"><a xlink:href="from__tag_8cpp.html" target="_top" xlink:title=" ">
<polygon fill="white" stroke="#666666" points="498.5,-52 358.5,-52 358.5,-11 498.5,-11 498.5,-52"/>
<text text-anchor="start" x="366.5" y="-40" font-family="Helvetica,sans-Serif" font-size="10.00">components/multimesh</text>
<text text-anchor="start" x="366.5" y="-29" font-family="Helvetica,sans-Serif" font-size="10.00">/src/wmtk/components</text>
<text text-anchor="middle" x="428.5" y="-18" font-family="Helvetica,sans-Serif" font-size="10.00">/multimesh/from_tag.cpp</text>
</a>
</g>
</g>
<!-- Node1&#45;&gt;Node4 -->
<g id="edge3_Node000001_Node000004" class="edge">
<title>Node1&#45;&gt;Node4</title>
<g id="a_edge3_Node000001_Node000004"><a xlink:title=" ">
<path fill="none" stroke="#63b8ff" d="M835.68,-113.65C755.46,-106.95 620.35,-92.24 507.5,-63 496.4,-60.12 484.73,-56.17 473.87,-52.06"/>
<polygon fill="#63b8ff" stroke="#63b8ff" points="835.41,-117.14 845.66,-114.46 835.98,-110.16 835.41,-117.14"/>
</a>
</g>
</g>
<!-- Node5 -->
<g id="Node000005" class="node">
<title>Node5</title>
<g id="a_Node000005"><a xlink:href="multimesh_8cpp.html" target="_top" xlink:title=" ">
<polygon fill="white" stroke="#666666" points="664.5,-52 516.5,-52 516.5,-11 664.5,-11 664.5,-52"/>
<text text-anchor="start" x="524.5" y="-40" font-family="Helvetica,sans-Serif" font-size="10.00">components/multimesh</text>
<text text-anchor="start" x="524.5" y="-29" font-family="Helvetica,sans-Serif" font-size="10.00">/src/wmtk/components</text>
<text text-anchor="middle" x="590.5" y="-18" font-family="Helvetica,sans-Serif" font-size="10.00">/multimesh/multimesh.cpp</text>
</a>
</g>
</g>
<!-- Node1&#45;&gt;Node5 -->
<g id="edge4_Node000001_Node000005" class="edge">
<title>Node1&#45;&gt;Node5</title>
<g id="a_edge4_Node000001_Node000005"><a xlink:title=" ">
<path fill="none" stroke="#63b8ff" d="M835.92,-104.09C789.54,-93.94 727.42,-79.3 673.5,-63 662.77,-59.76 651.41,-55.88 640.66,-52"/>
<polygon fill="#63b8ff" stroke="#63b8ff" points="835.35,-107.55 845.87,-106.25 836.84,-100.71 835.35,-107.55"/>
</a>
</g>
</g>
<!-- Node6 -->
<g id="Node000006" class="node">
<title>Node6</title>
<g id="a_Node000006"><a xlink:href="test__component__isotropic__remeshing_8cpp.html" target="_top" xlink:title=" ">
<polygon fill="white" stroke="#666666" points="808,-52 683,-52 683,-11 808,-11 808,-52"/>
<text text-anchor="start" x="691" y="-40" font-family="Helvetica,sans-Serif" font-size="10.00">components/tests/test</text>
<text text-anchor="start" x="691" y="-29" font-family="Helvetica,sans-Serif" font-size="10.00">_component_isotropic</text>
<text text-anchor="middle" x="745.5" y="-18" font-family="Helvetica,sans-Serif" font-size="10.00">_remeshing.cpp</text>
</a>
</g>
</g>
<!-- Node1&#45;&gt;Node6 -->
<g id="edge5_Node000001_Node000006" class="edge">
<title>Node1&#45;&gt;Node6</title>
<g id="a_edge5_Node000001_Node000006"><a xlink:title=" ">
<path fill="none" stroke="#63b8ff" d="M860.33,-94.22C835.54,-80.9 805.21,-64.59 781.94,-52.09"/>
<polygon fill="#63b8ff" stroke="#63b8ff" points="858.73,-97.33 869.19,-98.99 862.04,-91.17 858.73,-97.33"/>
</a>
</g>
</g>
<!-- Node7 -->
<g id="Node000007" class="node">
<title>Node7</title>
<g id="a_Node000007"><a xlink:href="triangle__insertion_8cpp.html" target="_top" xlink:title=" ">
<polygon fill="white" stroke="#666666" points="984.5,-57.5 826.5,-57.5 826.5,-5.5 984.5,-5.5 984.5,-57.5"/>
<text text-anchor="start" x="834.5" y="-45.5" font-family="Helvetica,sans-Serif" font-size="10.00">components/triangle</text>
<text text-anchor="start" x="834.5" y="-34.5" font-family="Helvetica,sans-Serif" font-size="10.00">_insertion/wmtk/components</text>
<text text-anchor="start" x="834.5" y="-23.5" font-family="Helvetica,sans-Serif" font-size="10.00">/triangle_insertion/triangle</text>
<text text-anchor="middle" x="905.5" y="-12.5" font-family="Helvetica,sans-Serif" font-size="10.00">_insertion.cpp</text>
</a>
</g>
</g>
<!-- Node1&#45;&gt;Node7 -->
<g id="edge6_Node000001_Node000007" class="edge">
<title>Node1&#45;&gt;Node7</title>
<g id="a_edge6_Node000001_Node000007"><a xlink:title=" ">
<path fill="none" stroke="#63b8ff" d="M905.5,-88.94C905.5,-78.81 905.5,-67.58 905.5,-57.82"/>
<polygon fill="#63b8ff" stroke="#63b8ff" points="902,-88.99 905.5,-98.99 909,-88.99 902,-88.99"/>
</a>
</g>
</g>
<!-- Node8 -->
<g id="Node000008" class="node">
<title>Node8</title>
<g id="a_Node000008"><a xlink:href="wildmeshing2d_8cpp.html" target="_top" xlink:title=" ">
<polygon fill="white" stroke="#666666" points="1178.5,-52 1002.5,-52 1002.5,-11 1178.5,-11 1178.5,-52"/>
<text text-anchor="start" x="1010.5" y="-40" font-family="Helvetica,sans-Serif" font-size="10.00">components/wildmeshing</text>
<text text-anchor="start" x="1010.5" y="-29" font-family="Helvetica,sans-Serif" font-size="10.00">/wmtk/components/wildmeshing</text>
<text text-anchor="middle" x="1090.5" y="-18" font-family="Helvetica,sans-Serif" font-size="10.00">/internal/wildmeshing2d.cpp</text>
</a>
</g>
</g>
<!-- Node1&#45;&gt;Node8 -->
<g id="edge7_Node000001_Node000008" class="edge">
<title>Node1&#45;&gt;Node8</title>
<g id="a_edge7_Node000001_Node000008"><a xlink:title=" ">
<path fill="none" stroke="#63b8ff" d="M956.59,-94.75C985.46,-81.33 1021.11,-64.76 1048.37,-52.09"/>
<polygon fill="#63b8ff" stroke="#63b8ff" points="955.07,-91.6 947.48,-98.99 958.02,-97.94 955.07,-91.6"/>
</a>
</g>
</g>
<!-- Node9 -->
<g id="Node000009" class="node">
<title>Node9</title>
<g id="a_Node000009"><a xlink:href="wildmeshing3d_8cpp.html" target="_top" xlink:title=" ">
<polygon fill="white" stroke="#666666" points="1372.5,-52 1196.5,-52 1196.5,-11 1372.5,-11 1372.5,-52"/>
<text text-anchor="start" x="1204.5" y="-40" font-family="Helvetica,sans-Serif" font-size="10.00">components/wildmeshing</text>
<text text-anchor="start" x="1204.5" y="-29" font-family="Helvetica,sans-Serif" font-size="10.00">/wmtk/components/wildmeshing</text>
<text text-anchor="middle" x="1284.5" y="-18" font-family="Helvetica,sans-Serif" font-size="10.00">/internal/wildmeshing3d.cpp</text>
</a>
</g>
</g>
<!-- Node1&#45;&gt;Node9 -->
<g id="edge8_Node000001_Node000009" class="edge">
<title>Node1&#45;&gt;Node9</title>
<g id="a_edge8_Node000001_Node000009"><a xlink:title=" ">
<path fill="none" stroke="#63b8ff" d="M975.11,-107.01C1032.48,-97.01 1115.77,-81.28 1187.5,-63 1200.07,-59.8 1213.42,-55.92 1226.07,-52.02"/>
<polygon fill="#63b8ff" stroke="#63b8ff" points="974.33,-103.59 965.07,-108.74 975.52,-110.49 974.33,-103.59"/>
</a>
</g>
</g>
<!-- Node10 -->
<g id="Node000010" class="node">
<title>Node10</title>
<g id="a_Node000010"><a xlink:href="wildmeshing__old_8cpp.html" target="_top" xlink:title=" ">
<polygon fill="white" stroke="#666666" points="1566.5,-52 1390.5,-52 1390.5,-11 1566.5,-11 1566.5,-52"/>
<text text-anchor="start" x="1398.5" y="-40" font-family="Helvetica,sans-Serif" font-size="10.00">components/wildmeshing</text>
<text text-anchor="start" x="1398.5" y="-29" font-family="Helvetica,sans-Serif" font-size="10.00">/wmtk/components/wildmeshing</text>
<text text-anchor="middle" x="1478.5" y="-18" font-family="Helvetica,sans-Serif" font-size="10.00">/wildmeshing_old.cpp</text>
</a>
</g>
</g>
<!-- Node1&#45;&gt;Node10 -->
<g id="edge9_Node000001_Node000010" class="edge">
<title>Node1&#45;&gt;Node10</title>
<g id="a_edge9_Node000001_Node000010"><a xlink:title=" ">
<path fill="none" stroke="#63b8ff" d="M975.25,-114.5C1068.6,-108.21 1238.96,-93.43 1381.5,-63 1394.97,-60.12 1409.23,-56.17 1422.56,-52.06"/>
<polygon fill="#63b8ff" stroke="#63b8ff" points="974.83,-111.02 965.08,-115.17 975.29,-118 974.83,-111.02"/>
</a>
</g>
</g>
<!-- Node11 -->
<g id="Node000011" class="node">
<title>Node11</title>
<g id="a_Node000011"><a xlink:href="extract__child__mesh__from__tag_8cpp.html" target="_top" xlink:title=" ">
<polygon fill="white" stroke="#666666" points="1704,-52 1585,-52 1585,-11 1704,-11 1704,-52"/>
<text text-anchor="start" x="1593" y="-40" font-family="Helvetica,sans-Serif" font-size="10.00">src/wmtk/multimesh</text>
<text text-anchor="start" x="1593" y="-29" font-family="Helvetica,sans-Serif" font-size="10.00">/utils/extract_child</text>
<text text-anchor="middle" x="1644.5" y="-18" font-family="Helvetica,sans-Serif" font-size="10.00">_mesh_from_tag.cpp</text>
</a>
</g>
</g>
<!-- Node1&#45;&gt;Node11 -->
<g id="edge10_Node000001_Node000011" class="edge">
<title>Node1&#45;&gt;Node11</title>
<g id="a_edge10_Node000001_Node000011"><a xlink:title=" ">
<path fill="none" stroke="#63b8ff" d="M975.58,-115.65C1123.55,-109.15 1463.46,-91.54 1575.5,-63 1585.78,-60.38 1596.46,-56.37 1606.26,-52.1"/>
<polygon fill="#63b8ff" stroke="#63b8ff" points="975.1,-112.17 965.26,-116.1 975.4,-119.16 975.1,-112.17"/>
</a>
</g>
</g>
<!-- Node12 -->
<g id="Node000012" class="node">
<title>Node12</title>
<g id="a_Node000012"><a xlink:href="_volume_remesher_triangle_insertion_8cpp.html" target="_top" xlink:title=" ">
<polygon fill="white" stroke="#666666" points="1897,-46.5 1722,-46.5 1722,-16.5 1897,-16.5 1897,-46.5"/>
<text text-anchor="start" x="1730" y="-34.5" font-family="Helvetica,sans-Serif" font-size="10.00">src/wmtk/utils/VolumeRemesher</text>
<text text-anchor="middle" x="1809.5" y="-23.5" font-family="Helvetica,sans-Serif" font-size="10.00">TriangleInsertion.cpp</text>
</a>
</g>
</g>
<!-- Node1&#45;&gt;Node12 -->
<g id="edge11_Node000001_Node000012" class="edge">
<title>Node1&#45;&gt;Node12</title>
<g id="a_edge11_Node000001_Node000012"><a xlink:title=" ">
<path fill="none" stroke="#63b8ff" d="M975.4,-119.28C1116.34,-119.64 1444.16,-114.27 1713.5,-63 1733.26,-59.24 1754.64,-52.7 1772.19,-46.64"/>
<polygon fill="#63b8ff" stroke="#63b8ff" points="975.18,-115.78 965.17,-119.24 975.16,-122.78 975.18,-115.78"/>
</a>
</g>
</g>
</g>
</svg>
