<?xml version="1.0" encoding="UTF-8" standalone="no"?>
<!DOCTYPE svg PUBLIC "-//W3C//DTD SVG 1.1//EN"
 "http://www.w3.org/Graphics/SVG/1.1/DTD/svg11.dtd">
<!-- Generated by graphviz version 2.43.0 (0)
 -->
<!-- Title: src/wmtk/multimesh/utils/find_local_dart_action.cpp Pages: 1 -->
<!--zoomable 335 -->

<svg id="main" version="1.1" xmlns="http://www.w3.org/2000/svg" xmlns:xlink="http://www.w3.org/1999/xlink" xml:space="preserve" onload="init(evt)">
<style type="text/css"><![CDATA[
.node, .edge {opacity: 0.7;}
.node.selected, .edge.selected {opacity: 1;}
.edge:hover path { stroke: red; }
.edge:hover polygon { stroke: red; fill: red; }
]]></style>

<defs>
  <circle id="rim" cx="0" cy="0" r="7"/>
  <circle id="rim2" cx="0" cy="0" r="3.5"/>
  <g id="zoomPlus">
    <use xlink:href="#rim" fill="#404040"><set attributeName="fill" to="#808080" begin="zoomplus.mouseover" end="zoomplus.mouseout"/></use>
    <path d="M-4,0h8M0,-4v8" fill="none" stroke="white" stroke-width="1.5" pointer-events="none"/>
  </g>
  <g id="zoomMin">
    <use xlink:href="#rim" fill="#404040"><set attributeName="fill" to="#808080" begin="zoomminus.mouseover" end="zoomminus.mouseout"/></use>
    <path d="M-4,0h8" fill="none" stroke="white" stroke-width="1.5" pointer-events="none"/>
  </g>
  <g id="arrowUp" transform="translate(30 24)">
    <use xlink:href="#rim"/>
    <path pointer-events="none" fill="none" stroke="white" stroke-width="1.5" d="M0,-3.0v7 M-2.5,-0.5L0,-3.0L2.5,-0.5"/>
  </g>
  <g id="arrowRight" transform="rotate(90) translate(36 -43)">
    <use xlink:href="#rim"/>
    <path pointer-events="none" fill="none" stroke="white" stroke-width="1.5" d="M0,-3.0v7 M-2.5,-0.5L0,-3.0L2.5,-0.5"/>
  </g>
  <g id="arrowDown" transform="rotate(180) translate(-30 -48)">
    <use xlink:href="#rim"/>
    <path pointer-events="none" fill="none" stroke="white" stroke-width="1.5" d="M0,-3.0v7 M-2.5,-0.5L0,-3.0L2.5,-0.5"/>
  </g>
  <g id="arrowLeft" transform="rotate(270) translate(-36 17)">
    <use xlink:href="#rim"/>
    <path pointer-events="none" fill="none" stroke="white" stroke-width="1.5" d="M0,-3.0v7 M-2.5,-0.5L0,-3.0L2.5,-0.5"/>
  </g>
  <g id="resetDef">
    <use xlink:href="#rim2" fill="#404040"><set attributeName="fill" to="#808080" begin="reset.mouseover" end="reset.mouseout"/></use>
  </g>
</defs>
<script type="application/ecmascript">
var viewWidth = 831;
var viewHeight = 335;
var sectionId = 'dynsection-0';
</script>
<script type="application/ecmascript" xlink:href="svg.min.js"/>
<svg id="graph" class="graph">
<g id="viewport">
<title>src/wmtk/multimesh/utils/find_local_dart_action.cpp</title>
<!-- Node1 -->
<g id="Node000001" class="node">
<title>Node1</title>
<g id="a_Node000001"><a xlink:title=" ">
<polygon fill="#999999" stroke="#666666" points="434,-327 317,-327 317,-286 434,-286 434,-327"/>
<text text-anchor="start" x="325" y="-315" font-family="Helvetica,sans-Serif" font-size="10.00">src/wmtk/multimesh</text>
<text text-anchor="start" x="325" y="-304" font-family="Helvetica,sans-Serif" font-size="10.00">/utils/find_local_dart</text>
<text text-anchor="middle" x="375.5" y="-293" font-family="Helvetica,sans-Serif" font-size="10.00">_action.cpp</text>
</a>
</g>
</g>
<!-- Node2 -->
<g id="Node000002" class="node">
<title>Node2</title>
<g id="a_Node000002"><a xlink:href="multimesh_2utils_2find__local__dart__action_8hpp.html" target="_top" xlink:title=" ">
<polygon fill="white" stroke="#666666" points="370.5,-244.5 226.5,-244.5 226.5,-225.5 370.5,-225.5 370.5,-244.5"/>
<text text-anchor="middle" x="298.5" y="-232.5" font-family="Helvetica,sans-Serif" font-size="10.00">find_local_dart_action.hpp</text>
</a>
</g>
</g>
<!-- Node1&#45;&gt;Node2 -->
<g id="edge1_Node000001_Node000002" class="edge">
<title>Node1&#45;&gt;Node2</title>
<g id="a_edge1_Node000001_Node000002"><a xlink:title=" ">
<path fill="none" stroke="#63b8ff" d="M353.64,-285.77C341.62,-274.92 326.92,-261.65 315.72,-251.54"/>
<polygon fill="#63b8ff" stroke="#63b8ff" points="318.04,-248.92 308.27,-244.82 313.35,-254.12 318.04,-248.92"/>
</a>
</g>
</g>
<!-- Node6 -->
<g id="Node000006" class="node">
<title>Node6</title>
<g id="a_Node000006"><a xlink:title=" ">
<polygon fill="#e0e0e0" stroke="#999999" points="65,-19 0,-19 0,0 65,0 65,-19"/>
<text text-anchor="middle" x="32.5" y="-7" font-family="Helvetica,sans-Serif" font-size="10.00">stdexcept</text>
</a>
</g>
</g>
<!-- Node1&#45;&gt;Node6 -->
<g id="edge21_Node000001_Node000006" class="edge">
<title>Node1&#45;&gt;Node6</title>
<g id="a_edge21_Node000001_Node000006"><a xlink:title=" ">
<path fill="none" stroke="#63b8ff" d="M316.69,-296.07C217.23,-278.45 26.5,-236.68 26.5,-175.5 26.5,-175.5 26.5,-175.5 26.5,-118.5 26.5,-87.14 29.05,-50.74 30.83,-29.22"/>
<polygon fill="#63b8ff" stroke="#63b8ff" points="34.32,-29.43 31.69,-19.17 27.35,-28.83 34.32,-29.43"/>
</a>
</g>
</g>
<!-- Node13 -->
<g id="Node000013" class="node">
<title>Node13</title>
<g id="a_Node000013"><a xlink:title=" ">
<polygon fill="#e0e0e0" stroke="#999999" points="735.5,-19 679.5,-19 679.5,0 735.5,0 735.5,-19"/>
<text text-anchor="middle" x="707.5" y="-7" font-family="Helvetica,sans-Serif" font-size="10.00">optional</text>
</a>
</g>
</g>
<!-- Node1&#45;&gt;Node13 -->
<g id="edge20_Node000001_Node000013" class="edge">
<title>Node1&#45;&gt;Node13</title>
<g id="a_edge20_Node000001_Node000013"><a xlink:title=" ">
<path fill="none" stroke="#63b8ff" d="M434.15,-301.45C515.2,-294.86 656.15,-279.47 697.5,-250 728.28,-228.07 738.5,-213.29 738.5,-175.5 738.5,-175.5 738.5,-175.5 738.5,-118.5 738.5,-85.79 725.2,-49.6 716.02,-28.52"/>
<polygon fill="#63b8ff" stroke="#63b8ff" points="719.13,-26.88 711.81,-19.22 712.75,-29.77 719.13,-26.88"/>
</a>
</g>
</g>
<!-- Node16 -->
<g id="Node000016" class="node">
<title>Node16</title>
<g id="a_Node000016"><a xlink:title=" ">
<polygon fill="#e0e0e0" stroke="#999999" points="164.5,-129 112.5,-129 112.5,-110 164.5,-110 164.5,-129"/>
<text text-anchor="middle" x="138.5" y="-117" font-family="Helvetica,sans-Serif" font-size="10.00">cassert</text>
</a>
</g>
</g>
<!-- Node1&#45;&gt;Node16 -->
<g id="edge19_Node000001_Node000016" class="edge">
<title>Node1&#45;&gt;Node16</title>
<g id="a_edge19_Node000001_Node000016"><a xlink:title=" ">
<path fill="none" stroke="#63b8ff" d="M316.81,-292.27C282.52,-283.17 239.12,-269.22 203.5,-250 162.33,-227.78 141.7,-226.2 121.5,-184 114.43,-169.24 120.62,-151.08 127.43,-137.97"/>
<polygon fill="#63b8ff" stroke="#63b8ff" points="130.6,-139.48 132.55,-129.07 124.53,-135.99 130.6,-139.48"/>
</a>
</g>
</g>
<!-- Node17 -->
<g id="Node000017" class="node">
<title>Node17</title>
<g id="a_Node000017"><a xlink:href="_simplex_dart_8hpp.html" target="_top" xlink:title=" ">
<polygon fill="white" stroke="#666666" points="690.5,-184 518.5,-184 518.5,-165 690.5,-165 690.5,-184"/>
<text text-anchor="middle" x="604.5" y="-172" font-family="Helvetica,sans-Serif" font-size="10.00">wmtk/autogen/SimplexDart.hpp</text>
</a>
</g>
</g>
<!-- Node1&#45;&gt;Node17 -->
<g id="edge22_Node000001_Node000017" class="edge">
<title>Node1&#45;&gt;Node17</title>
<g id="a_edge22_Node000001_Node000017"><a xlink:title=" ">
<path fill="none" stroke="#63b8ff" d="M434.16,-303.49C514.03,-299.38 650.62,-286.99 681.5,-250 690.05,-239.77 688.16,-231.55 681.5,-220 673.08,-205.41 657.85,-195.17 643.15,-188.23"/>
<polygon fill="#63b8ff" stroke="#63b8ff" points="644.21,-184.87 633.64,-184.13 641.43,-191.3 644.21,-184.87"/>
</a>
</g>
</g>
<!-- Node24 -->
<g id="Node000024" class="node">
<title>Node24</title>
<g id="a_Node000024"><a xlink:href="autogen_2find__local__dart__action_8hpp.html" target="_top" xlink:title=" ">
<polygon fill="white" stroke="#666666" points="672,-250 535,-250 535,-220 672,-220 672,-250"/>
<text text-anchor="start" x="543" y="-238" font-family="Helvetica,sans-Serif" font-size="10.00">wmtk/autogen/find_local</text>
<text text-anchor="middle" x="603.5" y="-227" font-family="Helvetica,sans-Serif" font-size="10.00">_dart_action.hpp</text>
</a>
</g>
</g>
<!-- Node1&#45;&gt;Node24 -->
<g id="edge36_Node000001_Node000024" class="edge">
<title>Node1&#45;&gt;Node24</title>
<g id="a_edge36_Node000001_Node000024"><a xlink:title=" ">
<path fill="none" stroke="#63b8ff" d="M434.22,-287.6C469.16,-276.95 513.25,-263.51 547.68,-253.02"/>
<polygon fill="#63b8ff" stroke="#63b8ff" points="549.02,-256.26 557.57,-250 546.98,-249.57 549.02,-256.26"/>
</a>
</g>
</g>
<!-- Node25 -->
<g id="Node000025" class="node">
<title>Node25</title>
<g id="a_Node000025"><a xlink:href="_tuple_inspector_8hpp.html" target="_top" xlink:title=" ">
<polygon fill="white" stroke="#666666" points="292.5,-184 130.5,-184 130.5,-165 292.5,-165 292.5,-184"/>
<text text-anchor="middle" x="211.5" y="-172" font-family="Helvetica,sans-Serif" font-size="10.00">wmtk/utils/TupleInspector.hpp</text>
</a>
</g>
</g>
<!-- Node1&#45;&gt;Node25 -->
<g id="edge38_Node000001_Node000025" class="edge">
<title>Node1&#45;&gt;Node25</title>
<g id="a_edge38_Node000001_Node000025"><a xlink:title=" ">
<path fill="none" stroke="#63b8ff" d="M316.69,-300.44C282.2,-294.2 240.93,-280.4 217.5,-250 205.4,-234.3 205.6,-210.81 207.74,-194.42"/>
<polygon fill="#63b8ff" stroke="#63b8ff" points="211.22,-194.82 209.39,-184.39 204.31,-193.68 211.22,-194.82"/>
</a>
</g>
</g>
<!-- Node26 -->
<g id="Node000026" class="node">
<title>Node26</title>
<g id="a_Node000026"><a xlink:href="multimesh_2utils_2local__switch__tuple_8hpp.html" target="_top" xlink:title=" ">
<polygon fill="white" stroke="#666666" points="516.5,-244.5 388.5,-244.5 388.5,-225.5 516.5,-225.5 516.5,-244.5"/>
<text text-anchor="middle" x="452.5" y="-232.5" font-family="Helvetica,sans-Serif" font-size="10.00">local_switch_tuple.hpp</text>
</a>
</g>
</g>
<!-- Node1&#45;&gt;Node26 -->
<g id="edge43_Node000001_Node000026" class="edge">
<title>Node1&#45;&gt;Node26</title>
<g id="a_edge43_Node000001_Node000026"><a xlink:title=" ">
<path fill="none" stroke="#63b8ff" d="M397.36,-285.77C409.38,-274.92 424.08,-261.65 435.28,-251.54"/>
<polygon fill="#63b8ff" stroke="#63b8ff" points="437.65,-254.12 442.73,-244.82 432.96,-248.92 437.65,-254.12"/>
</a>
</g>
</g>
<!-- Node3 -->
<g id="Node000003" class="node">
<title>Node3</title>
<g id="a_Node000003"><a xlink:title=" ">
<polygon fill="#e0e0e0" stroke="#999999" points="146,-19 99,-19 99,0 146,0 146,-19"/>
<text text-anchor="middle" x="122.5" y="-7" font-family="Helvetica,sans-Serif" font-size="10.00">vector</text>
</a>
</g>
</g>
<!-- Node2&#45;&gt;Node3 -->
<g id="edge2_Node000002_Node000003" class="edge">
<title>Node2&#45;&gt;Node3</title>
<g id="a_edge2_Node000002_Node000003"><a xlink:title=" ">
<path fill="none" stroke="#63b8ff" d="M226.44,-229.35C190.78,-223.49 149.49,-210.87 121.5,-184 79.35,-143.55 101.64,-64.81 114.92,-29.01"/>
<polygon fill="#63b8ff" stroke="#63b8ff" points="118.31,-29.96 118.67,-19.37 111.78,-27.42 118.31,-29.96"/>
</a>
</g>
</g>
<!-- Node4 -->
<g id="Node000004" class="node">
<title>Node4</title>
<g id="a_Node000004"><a xlink:href="_primitive_8hpp.html" target="_top" xlink:title=" ">
<polygon fill="white" stroke="#666666" points="424,-184 311,-184 311,-165 424,-165 424,-184"/>
<text text-anchor="middle" x="367.5" y="-172" font-family="Helvetica,sans-Serif" font-size="10.00">wmtk/Primitive.hpp</text>
</a>
</g>
</g>
<!-- Node2&#45;&gt;Node4 -->
<g id="edge3_Node000002_Node000004" class="edge">
<title>Node2&#45;&gt;Node4</title>
<g id="a_edge3_Node000002_Node000004"><a xlink:title=" ">
<path fill="none" stroke="#63b8ff" d="M308.68,-225.37C319.38,-216.3 336.44,-201.84 349.43,-190.82"/>
<polygon fill="#63b8ff" stroke="#63b8ff" points="351.91,-193.3 357.28,-184.17 347.39,-187.96 351.91,-193.3"/>
</a>
</g>
</g>
<!-- Node8 -->
<g id="Node000008" class="node">
<title>Node8</title>
<g id="a_Node000008"><a xlink:href="_tuple_8hpp.html" target="_top" xlink:title=" ">
<polygon fill="white" stroke="#666666" points="444,-129 381,-129 381,-110 444,-110 444,-129"/>
<text text-anchor="middle" x="412.5" y="-117" font-family="Helvetica,sans-Serif" font-size="10.00">Tuple.hpp</text>
</a>
</g>
</g>
<!-- Node2&#45;&gt;Node8 -->
<g id="edge18_Node000002_Node000008" class="edge">
<title>Node2&#45;&gt;Node8</title>
<g id="a_edge18_Node000002_Node000008"><a xlink:title=" ">
<path fill="none" stroke="#63b8ff" d="M334.46,-225.49C370.1,-216.25 420.99,-200.57 432.5,-184 442.25,-169.96 434.06,-150.95 425.41,-137.4"/>
<polygon fill="#63b8ff" stroke="#63b8ff" points="428.15,-135.21 419.55,-129.02 422.41,-139.22 428.15,-135.21"/>
</a>
</g>
</g>
<!-- Node5 -->
<g id="Node000005" class="node">
<title>Node5</title>
<g id="a_Node000005"><a xlink:href="_primitive_type_8hpp.html" target="_top" xlink:title=" ">
<polygon fill="white" stroke="#666666" points="263.5,-74 159.5,-74 159.5,-55 263.5,-55 263.5,-74"/>
<text text-anchor="middle" x="211.5" y="-62" font-family="Helvetica,sans-Serif" font-size="10.00">PrimitiveType.hpp</text>
</a>
</g>
</g>
<!-- Node4&#45;&gt;Node5 -->
<g id="edge4_Node000004_Node000005" class="edge">
<title>Node4&#45;&gt;Node5</title>
<g id="a_edge4_Node000004_Node000005"><a xlink:title=" ">
<path fill="none" stroke="#63b8ff" d="M355,-164.84C328.3,-146.36 265.46,-102.86 232.51,-80.05"/>
<polygon fill="#63b8ff" stroke="#63b8ff" points="234.28,-77.01 224.06,-74.2 230.29,-82.77 234.28,-77.01"/>
</a>
</g>
</g>
<!-- Node4&#45;&gt;Node8 -->
<g id="edge8_Node000004_Node000008" class="edge">
<title>Node4&#45;&gt;Node8</title>
<g id="a_edge8_Node000004_Node000008"><a xlink:title=" ">
<path fill="none" stroke="#63b8ff" d="M374.93,-164.75C381.35,-157.18 390.81,-146.05 398.62,-136.84"/>
<polygon fill="#63b8ff" stroke="#63b8ff" points="401.4,-138.98 405.21,-129.09 396.07,-134.45 401.4,-138.98"/>
</a>
</g>
</g>
<!-- Node5&#45;&gt;Node3 -->
<g id="edge7_Node000005_Node000003" class="edge">
<title>Node5&#45;&gt;Node3</title>
<g id="a_edge7_Node000005_Node000003"><a xlink:title=" ">
<path fill="none" stroke="#63b8ff" d="M197.2,-54.98C183.4,-46.77 162.26,-34.18 145.99,-24.49"/>
<polygon fill="#63b8ff" stroke="#63b8ff" points="147.44,-21.28 137.06,-19.17 143.86,-27.29 147.44,-21.28"/>
</a>
</g>
</g>
<!-- Node5&#45;&gt;Node6 -->
<g id="edge5_Node000005_Node000006" class="edge">
<title>Node5&#45;&gt;Node6</title>
<g id="a_edge5_Node000005_Node000006"><a xlink:title=" ">
<path fill="none" stroke="#63b8ff" d="M182.74,-54.98C152.56,-46.05 104.93,-31.94 71.4,-22.02"/>
<polygon fill="#63b8ff" stroke="#63b8ff" points="72.07,-18.57 61.48,-19.08 70.08,-25.28 72.07,-18.57"/>
</a>
</g>
</g>
<!-- Node7 -->
<g id="Node000007" class="node">
<title>Node7</title>
<g id="a_Node000007"><a xlink:title=" ">
<polygon fill="#e0e0e0" stroke="#999999" points="245,-19 172,-19 172,0 245,0 245,-19"/>
<text text-anchor="middle" x="208.5" y="-7" font-family="Helvetica,sans-Serif" font-size="10.00">string_view</text>
</a>
</g>
</g>
<!-- Node5&#45;&gt;Node7 -->
<g id="edge6_Node000005_Node000007" class="edge">
<title>Node5&#45;&gt;Node7</title>
<g id="a_edge6_Node000005_Node000007"><a xlink:title=" ">
<path fill="none" stroke="#63b8ff" d="M211,-54.75C210.61,-47.8 210.05,-37.85 209.55,-29.13"/>
<polygon fill="#63b8ff" stroke="#63b8ff" points="213.05,-28.88 208.99,-19.09 206.06,-29.27 213.05,-28.88"/>
</a>
</g>
</g>
<!-- Node8&#45;&gt;Node5 -->
<g id="edge10_Node000008_Node000005" class="edge">
<title>Node8&#45;&gt;Node5</title>
<g id="a_edge10_Node000008_Node000005"><a xlink:title=" ">
<path fill="none" stroke="#63b8ff" d="M380.65,-110.1C346.3,-101.05 291.47,-86.59 253.59,-76.6"/>
<polygon fill="#63b8ff" stroke="#63b8ff" points="254.43,-73.2 243.87,-74.03 252.64,-79.97 254.43,-73.2"/>
</a>
</g>
</g>
<!-- Node9 -->
<g id="Node000009" class="node">
<title>Node9</title>
<g id="a_Node000009"><a xlink:title=" ">
<polygon fill="#e0e0e0" stroke="#999999" points="362.5,-74 320.5,-74 320.5,-55 362.5,-55 362.5,-74"/>
<text text-anchor="middle" x="341.5" y="-62" font-family="Helvetica,sans-Serif" font-size="10.00">array</text>
</a>
</g>
</g>
<!-- Node8&#45;&gt;Node9 -->
<g id="edge9_Node000008_Node000009" class="edge">
<title>Node8&#45;&gt;Node9</title>
<g id="a_edge9_Node000008_Node000009"><a xlink:title=" ">
<path fill="none" stroke="#63b8ff" d="M401.09,-109.98C390.39,-102 374.16,-89.88 361.34,-80.31"/>
<polygon fill="#63b8ff" stroke="#63b8ff" points="363.22,-77.35 353.11,-74.17 359.03,-82.96 363.22,-77.35"/>
</a>
</g>
</g>
<!-- Node10 -->
<g id="Node000010" class="node">
<title>Node10</title>
<g id="a_Node000010"><a xlink:href="_tuple_8hxx.html" target="_top" xlink:title=" ">
<polygon fill="white" stroke="#666666" points="444,-74 381,-74 381,-55 444,-55 444,-74"/>
<text text-anchor="middle" x="412.5" y="-62" font-family="Helvetica,sans-Serif" font-size="10.00">Tuple.hxx</text>
</a>
</g>
</g>
<!-- Node8&#45;&gt;Node10 -->
<g id="edge11_Node000008_Node000010" class="edge">
<title>Node8&#45;&gt;Node10</title>
<g id="a_edge11_Node000008_Node000010"><a xlink:title=" ">
<path fill="none" stroke="#63b8ff" d="M407.33,-109.75C405.84,-102.8 405.4,-92.85 406.02,-84.13"/>
<polygon fill="#63b8ff" stroke="#63b8ff" points="409.51,-84.47 407.37,-74.09 402.57,-83.53 409.51,-84.47"/>
</a>
</g>
</g>
<!-- Node10&#45;&gt;Node8 -->
<g id="edge17_Node000010_Node000008" class="edge">
<title>Node10&#45;&gt;Node8</title>
<g id="a_edge17_Node000010_Node000008"><a xlink:title=" ">
<path fill="none" stroke="#63b8ff" d="M417.63,-74.09C419.14,-80.99 419.59,-90.93 418.99,-99.66"/>
<polygon fill="#63b8ff" stroke="#63b8ff" points="415.5,-99.38 417.67,-109.75 422.44,-100.29 415.5,-99.38"/>
</a>
</g>
</g>
<!-- Node11 -->
<g id="Node000011" class="node">
<title>Node11</title>
<g id="a_Node000011"><a xlink:title=" ">
<polygon fill="#e0e0e0" stroke="#999999" points="316,-19 263,-19 263,0 316,0 316,-19"/>
<text text-anchor="middle" x="289.5" y="-7" font-family="Helvetica,sans-Serif" font-size="10.00">cstddef</text>
</a>
</g>
</g>
<!-- Node10&#45;&gt;Node11 -->
<g id="edge12_Node000010_Node000011" class="edge">
<title>Node10&#45;&gt;Node11</title>
<g id="a_edge12_Node000010_Node000011"><a xlink:title=" ">
<path fill="none" stroke="#63b8ff" d="M392.74,-54.98C372.77,-46.38 341.7,-32.99 318.85,-23.15"/>
<polygon fill="#63b8ff" stroke="#63b8ff" points="320.19,-19.91 309.62,-19.17 317.42,-26.34 320.19,-19.91"/>
</a>
</g>
</g>
<!-- Node12 -->
<g id="Node000012" class="node">
<title>Node12</title>
<g id="a_Node000012"><a xlink:title=" ">
<polygon fill="#e0e0e0" stroke="#999999" points="515.5,-19 455.5,-19 455.5,0 515.5,0 515.5,-19"/>
<text text-anchor="middle" x="485.5" y="-7" font-family="Helvetica,sans-Serif" font-size="10.00">iostream</text>
</a>
</g>
</g>
<!-- Node10&#45;&gt;Node12 -->
<g id="edge13_Node000010_Node000012" class="edge">
<title>Node10&#45;&gt;Node12</title>
<g id="a_edge13_Node000010_Node000012"><a xlink:title=" ">
<path fill="none" stroke="#63b8ff" d="M424.23,-54.98C435.23,-47 451.92,-34.88 465.1,-25.31"/>
<polygon fill="#63b8ff" stroke="#63b8ff" points="467.52,-27.88 473.56,-19.17 463.41,-22.21 467.52,-27.88"/>
</a>
</g>
</g>
<!-- Node10&#45;&gt;Node13 -->
<g id="edge14_Node000010_Node000013" class="edge">
<title>Node10&#45;&gt;Node13</title>
<g id="a_edge14_Node000010_Node000013"><a xlink:title=" ">
<path fill="none" stroke="#63b8ff" d="M444.26,-56.78C447.38,-56.16 450.5,-55.56 453.5,-55 546.51,-37.65 572.91,-37.92 669.38,-19.12"/>
<polygon fill="#63b8ff" stroke="#63b8ff" points="670.12,-22.54 679.26,-17.18 668.77,-15.67 670.12,-22.54"/>
</a>
</g>
</g>
<!-- Node14 -->
<g id="Node000014" class="node">
<title>Node14</title>
<g id="a_Node000014"><a xlink:title=" ">
<polygon fill="#e0e0e0" stroke="#999999" points="437.5,-19 393.5,-19 393.5,0 437.5,0 437.5,-19"/>
<text text-anchor="middle" x="415.5" y="-7" font-family="Helvetica,sans-Serif" font-size="10.00">string</text>
</a>
</g>
</g>
<!-- Node10&#45;&gt;Node14 -->
<g id="edge15_Node000010_Node000014" class="edge">
<title>Node10&#45;&gt;Node14</title>
<g id="a_edge15_Node000010_Node000014"><a xlink:title=" ">
<path fill="none" stroke="#63b8ff" d="M413,-54.75C413.39,-47.8 413.95,-37.85 414.45,-29.13"/>
<polygon fill="#63b8ff" stroke="#63b8ff" points="417.94,-29.27 415.01,-19.09 410.95,-28.88 417.94,-29.27"/>
</a>
</g>
</g>
<!-- Node15 -->
<g id="Node000015" class="node">
<title>Node15</title>
<g id="a_Node000015"><a xlink:title=" ">
<polygon fill="#e0e0e0" stroke="#999999" points="375,-19 334,-19 334,0 375,0 375,-19"/>
<text text-anchor="middle" x="354.5" y="-7" font-family="Helvetica,sans-Serif" font-size="10.00">tuple</text>
</a>
</g>
</g>
<!-- Node10&#45;&gt;Node15 -->
<g id="edge16_Node000010_Node000015" class="edge">
<title>Node10&#45;&gt;Node15</title>
<g id="a_edge16_Node000010_Node000015"><a xlink:title=" ">
<path fill="none" stroke="#63b8ff" d="M403.18,-54.98C394.69,-47.23 381.94,-35.58 371.62,-26.14"/>
<polygon fill="#63b8ff" stroke="#63b8ff" points="373.73,-23.33 363.99,-19.17 369.01,-28.5 373.73,-23.33"/>
</a>
</g>
</g>
<!-- Node17&#45;&gt;Node5 -->
<g id="edge23_Node000017_Node000005" class="edge">
<title>Node17&#45;&gt;Node5</title>
<g id="a_edge23_Node000017_Node000005"><a xlink:title=" ">
<path fill="none" stroke="#63b8ff" d="M587.28,-164.81C559.71,-151.22 503.64,-124.96 453.5,-110 393.69,-92.15 323.32,-80.18 273.93,-73.19"/>
<polygon fill="#63b8ff" stroke="#63b8ff" points="274.11,-69.69 263.72,-71.78 273.15,-76.62 274.11,-69.69"/>
</a>
</g>
</g>
<!-- Node17&#45;&gt;Node8 -->
<g id="edge24_Node000017_Node000008" class="edge">
<title>Node17&#45;&gt;Node8</title>
<g id="a_edge24_Node000017_Node000008"><a xlink:title=" ">
<path fill="none" stroke="#63b8ff" d="M573.65,-164.98C541,-155.97 489.3,-141.7 453.3,-131.76"/>
<polygon fill="#63b8ff" stroke="#63b8ff" points="454.16,-128.37 443.59,-129.08 452.3,-135.12 454.16,-128.37"/>
</a>
</g>
</g>
<!-- Node18 -->
<g id="Node000018" class="node">
<title>Node18</title>
<g id="a_Node000018"><a xlink:href="_types_8hpp.html" target="_top" xlink:title=" ">
<polygon fill="white" stroke="#666666" points="653.5,-129 557.5,-129 557.5,-110 653.5,-110 653.5,-129"/>
<text text-anchor="middle" x="605.5" y="-117" font-family="Helvetica,sans-Serif" font-size="10.00">wmtk/Types.hpp</text>
</a>
</g>
</g>
<!-- Node17&#45;&gt;Node18 -->
<g id="edge25_Node000017_Node000018" class="edge">
<title>Node17&#45;&gt;Node18</title>
<g id="a_edge25_Node000017_Node000018"><a xlink:title=" ">
<path fill="none" stroke="#63b8ff" d="M604.67,-164.75C604.8,-157.8 604.98,-147.85 605.15,-139.13"/>
<polygon fill="#63b8ff" stroke="#63b8ff" points="608.65,-139.15 605.34,-129.09 601.65,-139.02 608.65,-139.15"/>
</a>
</g>
</g>
<!-- Node22 -->
<g id="Node000022" class="node">
<title>Node22</title>
<g id="a_Node000022"><a xlink:href="_dart_8hpp.html" target="_top" xlink:title=" ">
<polygon fill="white" stroke="#666666" points="521,-74 462,-74 462,-55 521,-55 521,-74"/>
<text text-anchor="middle" x="491.5" y="-62" font-family="Helvetica,sans-Serif" font-size="10.00">Dart.hpp</text>
</a>
</g>
</g>
<!-- Node17&#45;&gt;Node22 -->
<g id="edge32_Node000017_Node000022" class="edge">
<title>Node17&#45;&gt;Node22</title>
<g id="a_edge32_Node000017_Node000022"><a xlink:title=" ">
<path fill="none" stroke="#63b8ff" d="M592.44,-164.84C580.77,-156.25 562.78,-142.45 548.5,-129 532.58,-114 516.06,-95.18 504.93,-81.94"/>
<polygon fill="#63b8ff" stroke="#63b8ff" points="507.53,-79.59 498.46,-74.13 502.15,-84.06 507.53,-79.59"/>
</a>
</g>
</g>
<!-- Node19 -->
<g id="Node000019" class="node">
<title>Node19</title>
<g id="a_Node000019"><a xlink:title=" ">
<polygon fill="#e0e0e0" stroke="#999999" points="823,-19 754,-19 754,0 823,0 823,-19"/>
<text text-anchor="middle" x="788.5" y="-7" font-family="Helvetica,sans-Serif" font-size="10.00">Eigen/Core</text>
</a>
</g>
</g>
<!-- Node18&#45;&gt;Node19 -->
<g id="edge26_Node000018_Node000019" class="edge">
<title>Node18&#45;&gt;Node19</title>
<g id="a_edge26_Node000018_Node000019"><a xlink:title=" ">
<path fill="none" stroke="#63b8ff" d="M620.08,-109.99C635.4,-101.06 660.16,-86.58 681.5,-74 710.35,-56.99 743.51,-37.29 765.17,-24.4"/>
<polygon fill="#63b8ff" stroke="#63b8ff" points="767.18,-27.28 773.98,-19.15 763.6,-21.26 767.18,-27.28"/>
</a>
</g>
</g>
<!-- Node20 -->
<g id="Node000020" class="node">
<title>Node20</title>
<g id="a_Node000020"><a xlink:href="_rational_8hpp.html" target="_top" xlink:title=" ">
<polygon fill="white" stroke="#666666" points="672,-74 539,-74 539,-55 672,-55 672,-74"/>
<text text-anchor="middle" x="605.5" y="-62" font-family="Helvetica,sans-Serif" font-size="10.00">wmtk/utils/Rational.hpp</text>
</a>
</g>
</g>
<!-- Node18&#45;&gt;Node20 -->
<g id="edge27_Node000018_Node000020" class="edge">
<title>Node18&#45;&gt;Node20</title>
<g id="a_edge27_Node000018_Node000020"><a xlink:title=" ">
<path fill="none" stroke="#63b8ff" d="M605.5,-109.75C605.5,-102.8 605.5,-92.85 605.5,-84.13"/>
<polygon fill="#63b8ff" stroke="#63b8ff" points="609,-84.09 605.5,-74.09 602,-84.09 609,-84.09"/>
</a>
</g>
</g>
<!-- Node20&#45;&gt;Node12 -->
<g id="edge30_Node000020_Node000012" class="edge">
<title>Node20&#45;&gt;Node12</title>
<g id="a_edge30_Node000020_Node000012"><a xlink:title=" ">
<path fill="none" stroke="#63b8ff" d="M586.22,-54.98C566.83,-46.42 536.69,-33.11 514.43,-23.28"/>
<polygon fill="#63b8ff" stroke="#63b8ff" points="515.69,-20.01 505.13,-19.17 512.86,-26.41 515.69,-20.01"/>
</a>
</g>
</g>
<!-- Node20&#45;&gt;Node14 -->
<g id="edge31_Node000020_Node000014" class="edge">
<title>Node20&#45;&gt;Node14</title>
<g id="a_edge31_Node000020_Node000014"><a xlink:title=" ">
<path fill="none" stroke="#63b8ff" d="M574.97,-54.98C540.03,-45.24 483.05,-29.34 447.5,-19.43"/>
<polygon fill="#63b8ff" stroke="#63b8ff" points="448.21,-15.99 437.64,-16.68 446.33,-22.73 448.21,-15.99"/>
</a>
</g>
</g>
<!-- Node20&#45;&gt;Node19 -->
<g id="edge28_Node000020_Node000019" class="edge">
<title>Node20&#45;&gt;Node19</title>
<g id="a_edge28_Node000020_Node000019"><a xlink:title=" ">
<path fill="none" stroke="#63b8ff" d="M634.9,-54.98C665.89,-46.01 714.88,-31.82 749.17,-21.89"/>
<polygon fill="#63b8ff" stroke="#63b8ff" points="750.24,-25.23 758.87,-19.08 748.29,-18.5 750.24,-25.23"/>
</a>
</g>
</g>
<!-- Node21 -->
<g id="Node000021" class="node">
<title>Node21</title>
<g id="a_Node000021"><a xlink:title=" ">
<polygon fill="#e0e0e0" stroke="#999999" points="661,-19 614,-19 614,0 661,0 661,-19"/>
<text text-anchor="middle" x="637.5" y="-7" font-family="Helvetica,sans-Serif" font-size="10.00">gmp.h</text>
</a>
</g>
</g>
<!-- Node20&#45;&gt;Node21 -->
<g id="edge29_Node000020_Node000021" class="edge">
<title>Node20&#45;&gt;Node21</title>
<g id="a_edge29_Node000020_Node000021"><a xlink:title=" ">
<path fill="none" stroke="#63b8ff" d="M610.78,-54.75C615.21,-47.42 621.66,-36.73 627.12,-27.7"/>
<polygon fill="#63b8ff" stroke="#63b8ff" points="630.14,-29.46 632.31,-19.09 624.15,-25.84 630.14,-29.46"/>
</a>
</g>
</g>
<!-- Node22&#45;&gt;Node14 -->
<g id="edge34_Node000022_Node000014" class="edge">
<title>Node22&#45;&gt;Node14</title>
<g id="a_edge34_Node000022_Node000014"><a xlink:title=" ">
<path fill="none" stroke="#63b8ff" d="M479.29,-54.98C467.72,-46.92 450.12,-34.65 436.34,-25.03"/>
<polygon fill="#63b8ff" stroke="#63b8ff" points="438.14,-22.02 427.93,-19.17 434.13,-27.76 438.14,-22.02"/>
</a>
</g>
</g>
<!-- Node22&#45;&gt;Node15 -->
<g id="edge35_Node000022_Node000015" class="edge">
<title>Node22&#45;&gt;Node15</title>
<g id="a_edge35_Node000022_Node000015"><a xlink:title=" ">
<path fill="none" stroke="#63b8ff" d="M469.49,-54.98C446.52,-46.1 410.34,-32.1 384.71,-22.19"/>
<polygon fill="#63b8ff" stroke="#63b8ff" points="385.7,-18.82 375.11,-18.47 383.18,-25.35 385.7,-18.82"/>
</a>
</g>
</g>
<!-- Node23 -->
<g id="Node000023" class="node">
<title>Node23</title>
<g id="a_Node000023"><a xlink:title=" ">
<polygon fill="#e0e0e0" stroke="#999999" points="595.5,-19 533.5,-19 533.5,0 595.5,0 595.5,-19"/>
<text text-anchor="middle" x="564.5" y="-7" font-family="Helvetica,sans-Serif" font-size="10.00">cinttypes</text>
</a>
</g>
</g>
<!-- Node22&#45;&gt;Node23 -->
<g id="edge33_Node000022_Node000023" class="edge">
<title>Node22&#45;&gt;Node23</title>
<g id="a_edge33_Node000022_Node000023"><a xlink:title=" ">
<path fill="none" stroke="#63b8ff" d="M503.23,-54.98C514.23,-47 530.92,-34.88 544.1,-25.31"/>
<polygon fill="#63b8ff" stroke="#63b8ff" points="546.52,-27.88 552.56,-19.17 542.41,-22.21 546.52,-27.88"/>
</a>
</g>
</g>
<!-- Node24&#45;&gt;Node17 -->
<g id="edge37_Node000024_Node000017" class="edge">
<title>Node24&#45;&gt;Node17</title>
<g id="a_edge37_Node000024_Node000017"><a xlink:title=" ">
<path fill="none" stroke="#63b8ff" d="M603.74,-219.84C603.87,-212.21 604.03,-202.7 604.18,-194.45"/>
<polygon fill="#63b8ff" stroke="#63b8ff" points="607.68,-194.32 604.35,-184.27 600.68,-194.2 607.68,-194.32"/>
</a>
</g>
</g>
<!-- Node25&#45;&gt;Node5 -->
<g id="edge41_Node000025_Node000005" class="edge">
<title>Node25&#45;&gt;Node5</title>
<g id="a_edge41_Node000025_Node000005"><a xlink:title=" ">
<path fill="none" stroke="#63b8ff" d="M211.5,-164.66C211.5,-147.17 211.5,-107.8 211.5,-84.27"/>
<polygon fill="#63b8ff" stroke="#63b8ff" points="215,-84.16 211.5,-74.16 208,-84.16 215,-84.16"/>
</a>
</g>
</g>
<!-- Node25&#45;&gt;Node8 -->
<g id="edge42_Node000025_Node000008" class="edge">
<title>Node25&#45;&gt;Node8</title>
<g id="a_edge42_Node000025_Node000008"><a xlink:title=" ">
<path fill="none" stroke="#63b8ff" d="M243.79,-164.98C278.43,-155.85 333.53,-141.32 371.27,-131.37"/>
<polygon fill="#63b8ff" stroke="#63b8ff" points="372.17,-134.75 380.95,-128.82 370.39,-127.98 372.17,-134.75"/>
</a>
</g>
</g>
<!-- Node25&#45;&gt;Node14 -->
<g id="edge40_Node000025_Node000014" class="edge">
<title>Node25&#45;&gt;Node14</title>
<g id="a_edge40_Node000025_Node000014"><a xlink:title=" ">
<path fill="none" stroke="#63b8ff" d="M216.74,-164.86C230.07,-143.52 267.36,-87.67 311.5,-55 333.3,-38.86 361.86,-27.19 383.53,-19.85"/>
<polygon fill="#63b8ff" stroke="#63b8ff" points="384.82,-23.11 393.25,-16.69 382.66,-16.45 384.82,-23.11"/>
</a>
</g>
</g>
<!-- Node25&#45;&gt;Node16 -->
<g id="edge39_Node000025_Node000016" class="edge">
<title>Node25&#45;&gt;Node16</title>
<g id="a_edge39_Node000025_Node000016"><a xlink:title=" ">
<path fill="none" stroke="#63b8ff" d="M199.77,-164.98C188.77,-157 172.08,-144.88 158.9,-135.31"/>
<polygon fill="#63b8ff" stroke="#63b8ff" points="160.59,-132.21 150.44,-129.17 156.48,-137.88 160.59,-132.21"/>
</a>
</g>
</g>
<!-- Node26&#45;&gt;Node4 -->
<g id="edge44_Node000026_Node000004" class="edge">
<title>Node26&#45;&gt;Node4</title>
<g id="a_edge44_Node000026_Node000004"><a xlink:title=" ">
<path fill="none" stroke="#63b8ff" d="M439.96,-225.37C426.4,-216.04 404.56,-201.01 388.4,-189.88"/>
<polygon fill="#63b8ff" stroke="#63b8ff" points="390.32,-186.95 380.09,-184.17 386.35,-192.72 390.32,-186.95"/>
</a>
</g>
</g>
<!-- Node26&#45;&gt;Node8 -->
<g id="edge45_Node000026_Node000008" class="edge">
<title>Node26&#45;&gt;Node8</title>
<g id="a_edge45_Node000026_Node000008"><a xlink:title=" ">
<path fill="none" stroke="#63b8ff" d="M457.71,-225.08C464.91,-211.51 475.99,-185.12 466.5,-165 460.49,-152.26 448.84,-141.92 437.89,-134.44"/>
<polygon fill="#63b8ff" stroke="#63b8ff" points="439.71,-131.44 429.39,-129.05 435.96,-137.36 439.71,-131.44"/>
</a>
</g>
</g>
</g>
</svg>

<g id="navigator" transform="translate(0 0)" fill="#404254">
  <rect fill="#f2f5e9" fill-opacity="0.5" stroke="#606060" stroke-width=".5" x="0" y="0" width="60" height="60"/>
  <use id="zoomplus" xlink:href="#zoomPlus" x="17" y="9" onmousedown="handleZoom(evt,'in')"/>
  <use id="zoomminus" xlink:href="#zoomMin" x="42" y="9" onmousedown="handleZoom(evt,'out')"/>
  <use id="reset" xlink:href="#resetDef" x="30" y="36" onmousedown="handleReset()"/>
   <use id="arrowup" xlink:href="#arrowUp" x="0" y="0" onmousedown="handlePan(0,-1)"/>
  <use id="arrowright" xlink:href="#arrowRight" x="0" y="0" onmousedown="handlePan(1,0)"/>
  <use id="arrowdown" xlink:href="#arrowDown" x="0" y="0" onmousedown="handlePan(0,1)"/>
  <use id="arrowleft" xlink:href="#arrowLeft" x="0" y="0" onmousedown="handlePan(-1,0)"/>
</g>
<svg viewBox="0 0 15 15" width="100%" height="30px" preserveAspectRatio="xMaxYMin meet">
 <g id="arrow_out" transform="scale(0.3 0.3)">
  <a xlink:href="find__local__dart__action_8cpp__incl_org.svg" target="_base">
   <rect id="button" ry="5" rx="5" y="6" x="6" height="38" width="38"
        fill="#f2f5e9" fill-opacity="0.5" stroke="#606060" stroke-width="1.0"/>
   <path id="arrow"
     d="M 11.500037,31.436501 C 11.940474,20.09759 22.043105,11.32322 32.158766,21.979434 L 37.068811,17.246167 C 37.068811,17.246167 37.088388,32 37.088388,32 L 22.160133,31.978069 C 22.160133,31.978069 26.997745,27.140456 26.997745,27.140456 C 18.528582,18.264221 13.291696,25.230495 11.500037,31.436501 z"
     style="fill:#404040;"/>
  </a>
 </g>
</svg>

<style type='text/css'>
<![CDATA[
[data-mouse-over-selected='false'] { opacity: 0.7; }
[data-mouse-over-selected='true']  { opacity: 1.0; }
]]>
</style>
<script type="application/ecmascript"><![CDATA[
document.addEventListener('DOMContentLoaded', (event) => {
  highlightEdges();
  highlightAdjacentNodes();
});
]]></script>
</svg>
