<?xml version="1.0" encoding="UTF-8" standalone="no"?>
<!DOCTYPE svg PUBLIC "-//W3C//DTD SVG 1.1//EN"
 "http://www.w3.org/Graphics/SVG/1.1/DTD/svg11.dtd">
<!-- Generated by graphviz version 2.43.0 (0)
 -->
<!-- Title: components/multimesh/src/wmtk/components/multimesh/from_manifold_decomposition.hpp Pages: 1 -->
<svg width="1076pt" height="225pt"
 viewBox="0.00 0.00 1075.50 225.00" xmlns="http://www.w3.org/2000/svg" xmlns:xlink="http://www.w3.org/1999/xlink">
<g id="graph0" class="graph" transform="scale(1 1) rotate(0) translate(4 221)">
<title>components/multimesh/src/wmtk/components/multimesh/from_manifold_decomposition.hpp</title>
<!-- Node1 -->
<g id="Node000001" class="node">
<title>Node1</title>
<g id="a_Node000001"><a xlink:title=" ">
<polygon fill="#999999" stroke="#666666" points="258,-217 111,-217 111,-165 258,-165 258,-217"/>
<text text-anchor="start" x="119" y="-205" font-family="Helvetica,sans-Serif" font-size="10.00">components/multimesh</text>
<text text-anchor="start" x="119" y="-194" font-family="Helvetica,sans-Serif" font-size="10.00">/src/wmtk/components</text>
<text text-anchor="start" x="119" y="-183" font-family="Helvetica,sans-Serif" font-size="10.00">/multimesh/from_manifold</text>
<text text-anchor="middle" x="184.5" y="-172" font-family="Helvetica,sans-Serif" font-size="10.00">_decomposition.hpp</text>
</a>
</g>
</g>
<!-- Node2 -->
<g id="Node000002" class="node">
<title>Node2</title>
<g id="a_Node000002"><a xlink:title=" ">
<polygon fill="#e0e0e0" stroke="#999999" points="224.5,-74 182.5,-74 182.5,-55 224.5,-55 224.5,-74"/>
<text text-anchor="middle" x="203.5" y="-62" font-family="Helvetica,sans-Serif" font-size="10.00">array</text>
</a>
</g>
</g>
<!-- Node1&#45;&gt;Node2 -->
<g id="edge1_Node000001_Node000002" class="edge">
<title>Node1&#45;&gt;Node2</title>
<g id="a_edge1_Node000001_Node000002"><a xlink:title=" ">
<path fill="none" stroke="#63b8ff" d="M188.34,-164.81C191.98,-140.95 197.37,-105.69 200.64,-84.24"/>
<polygon fill="#63b8ff" stroke="#63b8ff" points="204.13,-84.56 202.18,-74.15 197.21,-83.51 204.13,-84.56"/>
</a>
</g>
</g>
<!-- Node3 -->
<g id="Node000003" class="node">
<title>Node3</title>
<g id="a_Node000003"><a xlink:title=" ">
<polygon fill="#e0e0e0" stroke="#999999" points="61.5,-129 23.5,-129 23.5,-110 61.5,-110 61.5,-129"/>
<text text-anchor="middle" x="42.5" y="-117" font-family="Helvetica,sans-Serif" font-size="10.00">map</text>
</a>
</g>
</g>
<!-- Node1&#45;&gt;Node3 -->
<g id="edge2_Node000001_Node000003" class="edge">
<title>Node1&#45;&gt;Node3</title>
<g id="a_edge2_Node000001_Node000003"><a xlink:title=" ">
<path fill="none" stroke="#63b8ff" d="M133.23,-164.91C111.65,-154.35 87.43,-142.49 69.44,-133.68"/>
<polygon fill="#63b8ff" stroke="#63b8ff" points="70.66,-130.39 60.14,-129.14 67.59,-136.68 70.66,-130.39"/>
</a>
</g>
</g>
<!-- Node4 -->
<g id="Node000004" class="node">
<title>Node4</title>
<g id="a_Node000004"><a xlink:title=" ">
<polygon fill="#e0e0e0" stroke="#999999" points="137.5,-129 79.5,-129 79.5,-110 137.5,-110 137.5,-129"/>
<text text-anchor="middle" x="108.5" y="-117" font-family="Helvetica,sans-Serif" font-size="10.00">memory</text>
</a>
</g>
</g>
<!-- Node1&#45;&gt;Node4 -->
<g id="edge3_Node000001_Node000004" class="edge">
<title>Node1&#45;&gt;Node4</title>
<g id="a_edge3_Node000001_Node000004"><a xlink:title=" ">
<path fill="none" stroke="#63b8ff" d="M157.06,-164.91C146.54,-155.29 134.84,-144.59 125.56,-136.11"/>
<polygon fill="#63b8ff" stroke="#63b8ff" points="127.87,-133.47 118.13,-129.3 123.14,-138.63 127.87,-133.47"/>
</a>
</g>
</g>
<!-- Node5 -->
<g id="Node000005" class="node">
<title>Node5</title>
<g id="a_Node000005"><a xlink:title=" ">
<polygon fill="#e0e0e0" stroke="#999999" points="73,-19 0,-19 0,0 73,0 73,-19"/>
<text text-anchor="middle" x="36.5" y="-7" font-family="Helvetica,sans-Serif" font-size="10.00">string_view</text>
</a>
</g>
</g>
<!-- Node1&#45;&gt;Node5 -->
<g id="edge4_Node000001_Node000005" class="edge">
<title>Node1&#45;&gt;Node5</title>
<g id="a_edge4_Node000001_Node000005"><a xlink:title=" ">
<path fill="none" stroke="#63b8ff" d="M110.75,-182.89C75.51,-175.35 36.33,-160.03 14.5,-129 -6.98,-98.47 12.17,-52.93 25.74,-28.14"/>
<polygon fill="#63b8ff" stroke="#63b8ff" points="28.96,-29.58 30.92,-19.17 22.89,-26.08 28.96,-29.58"/>
</a>
</g>
</g>
<!-- Node6 -->
<g id="Node000006" class="node">
<title>Node6</title>
<g id="a_Node000006"><a xlink:title=" ">
<polygon fill="#e0e0e0" stroke="#999999" points="219,-19 172,-19 172,0 219,0 219,-19"/>
<text text-anchor="middle" x="195.5" y="-7" font-family="Helvetica,sans-Serif" font-size="10.00">vector</text>
</a>
</g>
</g>
<!-- Node1&#45;&gt;Node6 -->
<g id="edge5_Node000001_Node000006" class="edge">
<title>Node1&#45;&gt;Node6</title>
<g id="a_edge5_Node000001_Node000006"><a xlink:title=" ">
<path fill="none" stroke="#63b8ff" d="M177.86,-164.78C171.71,-137.4 164.72,-92.55 173.5,-55 175.7,-45.57 180.21,-35.85 184.57,-27.91"/>
<polygon fill="#63b8ff" stroke="#63b8ff" points="187.62,-29.64 189.66,-19.24 181.58,-26.09 187.62,-29.64"/>
</a>
</g>
</g>
<!-- Node7 -->
<g id="Node000007" class="node">
<title>Node7</title>
<g id="a_Node000007"><a xlink:href="_tuple_8hpp.html" target="_top" xlink:title=" ">
<polygon fill="white" stroke="#666666" points="474.5,-129 380.5,-129 380.5,-110 474.5,-110 474.5,-129"/>
<text text-anchor="middle" x="427.5" y="-117" font-family="Helvetica,sans-Serif" font-size="10.00">wmtk/Tuple.hpp</text>
</a>
</g>
</g>
<!-- Node1&#45;&gt;Node7 -->
<g id="edge6_Node000001_Node000007" class="edge">
<title>Node1&#45;&gt;Node7</title>
<g id="a_edge6_Node000001_Node000007"><a xlink:title=" ">
<path fill="none" stroke="#63b8ff" d="M258.07,-168.96C300.66,-156.78 352.61,-141.92 387.67,-131.89"/>
<polygon fill="#63b8ff" stroke="#63b8ff" points="388.88,-135.19 397.53,-129.07 386.95,-128.46 388.88,-135.19"/>
</a>
</g>
</g>
<!-- Node16 -->
<g id="Node000016" class="node">
<title>Node16</title>
<g id="a_Node000016"><a xlink:href="_types_8hpp.html" target="_top" xlink:title=" ">
<polygon fill="white" stroke="#666666" points="781.5,-129 685.5,-129 685.5,-110 781.5,-110 781.5,-129"/>
<text text-anchor="middle" x="733.5" y="-117" font-family="Helvetica,sans-Serif" font-size="10.00">wmtk/Types.hpp</text>
</a>
</g>
</g>
<!-- Node1&#45;&gt;Node16 -->
<g id="edge19_Node000001_Node000016" class="edge">
<title>Node1&#45;&gt;Node16</title>
<g id="a_edge19_Node000001_Node000016"><a xlink:title=" ">
<path fill="none" stroke="#63b8ff" d="M258.26,-180.66C368.66,-166.69 574.64,-140.61 675.22,-127.88"/>
<polygon fill="#63b8ff" stroke="#63b8ff" points="675.72,-131.34 685.21,-126.61 674.85,-124.4 675.72,-131.34"/>
</a>
</g>
</g>
<!-- Node20 -->
<g id="Node000020" class="node">
<title>Node20</title>
<g id="a_Node000020"><a xlink:href="_dart_8hpp.html" target="_top" xlink:title=" ">
<polygon fill="white" stroke="#666666" points="911.5,-129 799.5,-129 799.5,-110 911.5,-110 911.5,-129"/>
<text text-anchor="middle" x="855.5" y="-117" font-family="Helvetica,sans-Serif" font-size="10.00">wmtk/dart/Dart.hpp</text>
</a>
</g>
</g>
<!-- Node1&#45;&gt;Node20 -->
<g id="edge26_Node000001_Node000020" class="edge">
<title>Node1&#45;&gt;Node20</title>
<g id="a_edge26_Node000001_Node000020"><a xlink:title=" ">
<path fill="none" stroke="#63b8ff" d="M258.27,-183.29C370.55,-172.91 591.32,-151.89 789.48,-129.09"/>
<polygon fill="#63b8ff" stroke="#63b8ff" points="789.96,-132.56 799.49,-127.93 789.16,-125.6 789.96,-132.56"/>
</a>
</g>
</g>
<!-- Node7&#45;&gt;Node2 -->
<g id="edge7_Node000007_Node000002" class="edge">
<title>Node7&#45;&gt;Node2</title>
<g id="a_edge7_Node000007_Node000002"><a xlink:title=" ">
<path fill="none" stroke="#63b8ff" d="M387.6,-109.97C350.35,-101.86 293,-89.04 234.54,-74.17"/>
<polygon fill="#63b8ff" stroke="#63b8ff" points="235.32,-70.76 224.77,-71.67 233.59,-77.54 235.32,-70.76"/>
</a>
</g>
</g>
<!-- Node8 -->
<g id="Node000008" class="node">
<title>Node8</title>
<g id="a_Node000008"><a xlink:title=" ">
<polygon fill="#e0e0e0" stroke="#999999" points="527.5,-74 477.5,-74 477.5,-55 527.5,-55 527.5,-74"/>
<text text-anchor="middle" x="502.5" y="-62" font-family="Helvetica,sans-Serif" font-size="10.00">cstdint</text>
</a>
</g>
</g>
<!-- Node7&#45;&gt;Node8 -->
<g id="edge8_Node000007_Node000008" class="edge">
<title>Node7&#45;&gt;Node8</title>
<g id="a_edge8_Node000007_Node000008"><a xlink:title=" ">
<path fill="none" stroke="#63b8ff" d="M439.55,-109.98C450.96,-101.92 468.33,-89.65 481.93,-80.03"/>
<polygon fill="#63b8ff" stroke="#63b8ff" points="484.08,-82.8 490.23,-74.17 480.04,-77.08 484.08,-82.8"/>
</a>
</g>
</g>
<!-- Node9 -->
<g id="Node000009" class="node">
<title>Node9</title>
<g id="a_Node000009"><a xlink:title=" ">
<polygon fill="#e0e0e0" stroke="#999999" points="613.5,-19 553.5,-19 553.5,0 613.5,0 613.5,-19"/>
<text text-anchor="middle" x="583.5" y="-7" font-family="Helvetica,sans-Serif" font-size="10.00">iostream</text>
</a>
</g>
</g>
<!-- Node7&#45;&gt;Node9 -->
<g id="edge9_Node000007_Node000009" class="edge">
<title>Node7&#45;&gt;Node9</title>
<g id="a_edge9_Node000007_Node000009"><a xlink:title=" ">
<path fill="none" stroke="#63b8ff" d="M461.43,-109.88C484.29,-102.89 514.23,-91.31 536.5,-74 552.69,-61.42 566,-41.88 574.27,-27.79"/>
<polygon fill="#63b8ff" stroke="#63b8ff" points="577.33,-29.5 579.17,-19.07 571.22,-26.08 577.33,-29.5"/>
</a>
</g>
</g>
<!-- Node10 -->
<g id="Node000010" class="node">
<title>Node10</title>
<g id="a_Node000010"><a xlink:title=" ">
<polygon fill="#e0e0e0" stroke="#999999" points="783.5,-19 739.5,-19 739.5,0 783.5,0 783.5,-19"/>
<text text-anchor="middle" x="761.5" y="-7" font-family="Helvetica,sans-Serif" font-size="10.00">string</text>
</a>
</g>
</g>
<!-- Node7&#45;&gt;Node10 -->
<g id="edge10_Node000007_Node000010" class="edge">
<title>Node7&#45;&gt;Node10</title>
<g id="a_edge10_Node000007_Node000010"><a xlink:title=" ">
<path fill="none" stroke="#63b8ff" d="M453.33,-109.9C479.97,-101.01 522.69,-86.68 559.5,-74 583.56,-65.71 589.31,-62.89 613.5,-55 653.2,-42.05 699.34,-28.4 729.41,-19.68"/>
<polygon fill="#63b8ff" stroke="#63b8ff" points="730.7,-22.95 739.34,-16.82 728.76,-16.23 730.7,-22.95"/>
</a>
</g>
</g>
<!-- Node11 -->
<g id="Node000011" class="node">
<title>Node11</title>
<g id="a_Node000011"><a xlink:title=" ">
<polygon fill="#e0e0e0" stroke="#999999" points="663,-74 622,-74 622,-55 663,-55 663,-74"/>
<text text-anchor="middle" x="642.5" y="-62" font-family="Helvetica,sans-Serif" font-size="10.00">tuple</text>
</a>
</g>
</g>
<!-- Node7&#45;&gt;Node11 -->
<g id="edge11_Node000007_Node000011" class="edge">
<title>Node7&#45;&gt;Node11</title>
<g id="a_edge11_Node000007_Node000011"><a xlink:title=" ">
<path fill="none" stroke="#63b8ff" d="M462.04,-109.98C503.56,-99.75 572.56,-82.74 612.13,-72.99"/>
<polygon fill="#63b8ff" stroke="#63b8ff" points="613.12,-76.35 621.99,-70.56 611.44,-69.55 613.12,-76.35"/>
</a>
</g>
</g>
<!-- Node12 -->
<g id="Node000012" class="node">
<title>Node12</title>
<g id="a_Node000012"><a xlink:href="_primitive_type_8hpp.html" target="_top" xlink:title=" ">
<polygon fill="white" stroke="#666666" points="378,-74 243,-74 243,-55 378,-55 378,-74"/>
<text text-anchor="middle" x="310.5" y="-62" font-family="Helvetica,sans-Serif" font-size="10.00">wmtk/PrimitiveType.hpp</text>
</a>
</g>
</g>
<!-- Node7&#45;&gt;Node12 -->
<g id="edge12_Node000007_Node000012" class="edge">
<title>Node7&#45;&gt;Node12</title>
<g id="a_edge12_Node000007_Node000012"><a xlink:title=" ">
<path fill="none" stroke="#63b8ff" d="M408.7,-109.98C389.88,-101.46 360.68,-88.23 339,-78.41"/>
<polygon fill="#63b8ff" stroke="#63b8ff" points="340.19,-75.11 329.64,-74.17 337.3,-81.48 340.19,-75.11"/>
</a>
</g>
</g>
<!-- Node14 -->
<g id="Node000014" class="node">
<title>Node14</title>
<g id="a_Node000014"><a xlink:href="_tuple_8hxx.html" target="_top" xlink:title=" ">
<polygon fill="white" stroke="#666666" points="459,-74 396,-74 396,-55 459,-55 459,-74"/>
<text text-anchor="middle" x="427.5" y="-62" font-family="Helvetica,sans-Serif" font-size="10.00">Tuple.hxx</text>
</a>
</g>
</g>
<!-- Node7&#45;&gt;Node14 -->
<g id="edge16_Node000007_Node000014" class="edge">
<title>Node7&#45;&gt;Node14</title>
<g id="a_edge16_Node000007_Node000014"><a xlink:title=" ">
<path fill="none" stroke="#63b8ff" d="M422.33,-109.75C420.84,-102.8 420.4,-92.85 421.02,-84.13"/>
<polygon fill="#63b8ff" stroke="#63b8ff" points="424.51,-84.47 422.37,-74.09 417.57,-83.53 424.51,-84.47"/>
</a>
</g>
</g>
<!-- Node12&#45;&gt;Node5 -->
<g id="edge14_Node000012_Node000005" class="edge">
<title>Node12&#45;&gt;Node5</title>
<g id="a_edge14_Node000012_Node000005"><a xlink:title=" ">
<path fill="none" stroke="#63b8ff" d="M266.48,-54.98C216.27,-45.27 134.53,-29.46 83.22,-19.54"/>
<polygon fill="#63b8ff" stroke="#63b8ff" points="83.87,-16.1 73.39,-17.63 82.54,-22.97 83.87,-16.1"/>
</a>
</g>
</g>
<!-- Node12&#45;&gt;Node6 -->
<g id="edge15_Node000012_Node000006" class="edge">
<title>Node12&#45;&gt;Node6</title>
<g id="a_edge15_Node000012_Node000006"><a xlink:title=" ">
<path fill="none" stroke="#63b8ff" d="M292.02,-54.98C273.52,-46.46 244.82,-33.23 223.52,-23.41"/>
<polygon fill="#63b8ff" stroke="#63b8ff" points="224.86,-20.18 214.31,-19.17 221.93,-26.53 224.86,-20.18"/>
</a>
</g>
</g>
<!-- Node13 -->
<g id="Node000013" class="node">
<title>Node13</title>
<g id="a_Node000013"><a xlink:title=" ">
<polygon fill="#e0e0e0" stroke="#999999" points="343,-19 278,-19 278,0 343,0 343,-19"/>
<text text-anchor="middle" x="310.5" y="-7" font-family="Helvetica,sans-Serif" font-size="10.00">stdexcept</text>
</a>
</g>
</g>
<!-- Node12&#45;&gt;Node13 -->
<g id="edge13_Node000012_Node000013" class="edge">
<title>Node12&#45;&gt;Node13</title>
<g id="a_edge13_Node000012_Node000013"><a xlink:title=" ">
<path fill="none" stroke="#63b8ff" d="M310.5,-54.75C310.5,-47.8 310.5,-37.85 310.5,-29.13"/>
<polygon fill="#63b8ff" stroke="#63b8ff" points="314,-29.09 310.5,-19.09 307,-29.09 314,-29.09"/>
</a>
</g>
</g>
<!-- Node14&#45;&gt;Node7 -->
<g id="edge17_Node000014_Node000007" class="edge">
<title>Node14&#45;&gt;Node7</title>
<g id="a_edge17_Node000014_Node000007"><a xlink:title=" ">
<path fill="none" stroke="#63b8ff" d="M432.63,-74.09C434.14,-80.99 434.59,-90.93 433.99,-99.66"/>
<polygon fill="#63b8ff" stroke="#63b8ff" points="430.5,-99.38 432.67,-109.75 437.44,-100.29 430.5,-99.38"/>
</a>
</g>
</g>
<!-- Node15 -->
<g id="Node000015" class="node">
<title>Node15</title>
<g id="a_Node000015"><a xlink:title=" ">
<polygon fill="#e0e0e0" stroke="#999999" points="453.5,-19 401.5,-19 401.5,0 453.5,0 453.5,-19"/>
<text text-anchor="middle" x="427.5" y="-7" font-family="Helvetica,sans-Serif" font-size="10.00">cassert</text>
</a>
</g>
</g>
<!-- Node14&#45;&gt;Node15 -->
<g id="edge18_Node000014_Node000015" class="edge">
<title>Node14&#45;&gt;Node15</title>
<g id="a_edge18_Node000014_Node000015"><a xlink:title=" ">
<path fill="none" stroke="#63b8ff" d="M427.5,-54.75C427.5,-47.8 427.5,-37.85 427.5,-29.13"/>
<polygon fill="#63b8ff" stroke="#63b8ff" points="431,-29.09 427.5,-19.09 424,-29.09 431,-29.09"/>
</a>
</g>
</g>
<!-- Node17 -->
<g id="Node000017" class="node">
<title>Node17</title>
<g id="a_Node000017"><a xlink:title=" ">
<polygon fill="#e0e0e0" stroke="#999999" points="900,-19 831,-19 831,0 900,0 900,-19"/>
<text text-anchor="middle" x="865.5" y="-7" font-family="Helvetica,sans-Serif" font-size="10.00">Eigen/Core</text>
</a>
</g>
</g>
<!-- Node16&#45;&gt;Node17 -->
<g id="edge20_Node000016_Node000017" class="edge">
<title>Node16&#45;&gt;Node17</title>
<g id="a_edge20_Node000016_Node000017"><a xlink:title=" ">
<path fill="none" stroke="#63b8ff" d="M759.3,-109.93C778.55,-102.61 804.68,-90.6 823.5,-74 838.02,-61.2 849.67,-42.26 856.98,-28.4"/>
<polygon fill="#63b8ff" stroke="#63b8ff" points="860.16,-29.87 861.52,-19.36 853.91,-26.73 860.16,-29.87"/>
</a>
</g>
</g>
<!-- Node18 -->
<g id="Node000018" class="node">
<title>Node18</title>
<g id="a_Node000018"><a xlink:href="_rational_8hpp.html" target="_top" xlink:title=" ">
<polygon fill="white" stroke="#666666" points="814,-74 681,-74 681,-55 814,-55 814,-74"/>
<text text-anchor="middle" x="747.5" y="-62" font-family="Helvetica,sans-Serif" font-size="10.00">wmtk/utils/Rational.hpp</text>
</a>
</g>
</g>
<!-- Node16&#45;&gt;Node18 -->
<g id="edge21_Node000016_Node000018" class="edge">
<title>Node16&#45;&gt;Node18</title>
<g id="a_edge21_Node000016_Node000018"><a xlink:title=" ">
<path fill="none" stroke="#63b8ff" d="M735.81,-109.75C737.67,-102.72 740.34,-92.62 742.65,-83.84"/>
<polygon fill="#63b8ff" stroke="#63b8ff" points="746.06,-84.65 745.23,-74.09 739.29,-82.86 746.06,-84.65"/>
</a>
</g>
</g>
<!-- Node18&#45;&gt;Node9 -->
<g id="edge24_Node000018_Node000009" class="edge">
<title>Node18&#45;&gt;Node9</title>
<g id="a_edge24_Node000018_Node000009"><a xlink:title=" ">
<path fill="none" stroke="#63b8ff" d="M721.15,-54.98C693.74,-46.13 650.61,-32.19 619.94,-22.28"/>
<polygon fill="#63b8ff" stroke="#63b8ff" points="620.65,-18.83 610.06,-19.08 618.5,-25.49 620.65,-18.83"/>
</a>
</g>
</g>
<!-- Node18&#45;&gt;Node10 -->
<g id="edge25_Node000018_Node000010" class="edge">
<title>Node18&#45;&gt;Node10</title>
<g id="a_edge25_Node000018_Node000010"><a xlink:title=" ">
<path fill="none" stroke="#63b8ff" d="M749.81,-54.75C751.67,-47.72 754.34,-37.62 756.65,-28.84"/>
<polygon fill="#63b8ff" stroke="#63b8ff" points="760.06,-29.65 759.23,-19.09 753.29,-27.86 760.06,-29.65"/>
</a>
</g>
</g>
<!-- Node18&#45;&gt;Node17 -->
<g id="edge22_Node000018_Node000017" class="edge">
<title>Node18&#45;&gt;Node17</title>
<g id="a_edge22_Node000018_Node000017"><a xlink:title=" ">
<path fill="none" stroke="#63b8ff" d="M766.46,-54.98C785.53,-46.42 815.16,-33.11 837.05,-23.28"/>
<polygon fill="#63b8ff" stroke="#63b8ff" points="838.51,-26.46 846.2,-19.17 835.64,-20.07 838.51,-26.46"/>
</a>
</g>
</g>
<!-- Node19 -->
<g id="Node000019" class="node">
<title>Node19</title>
<g id="a_Node000019"><a xlink:title=" ">
<polygon fill="#e0e0e0" stroke="#999999" points="721,-19 674,-19 674,0 721,0 721,-19"/>
<text text-anchor="middle" x="697.5" y="-7" font-family="Helvetica,sans-Serif" font-size="10.00">gmp.h</text>
</a>
</g>
</g>
<!-- Node18&#45;&gt;Node19 -->
<g id="edge23_Node000018_Node000019" class="edge">
<title>Node18&#45;&gt;Node19</title>
<g id="a_edge23_Node000018_Node000019"><a xlink:title=" ">
<path fill="none" stroke="#63b8ff" d="M739.24,-54.75C732.04,-47.11 721.39,-35.82 712.65,-26.56"/>
<polygon fill="#63b8ff" stroke="#63b8ff" points="715.01,-23.96 705.6,-19.09 709.92,-28.76 715.01,-23.96"/>
</a>
</g>
</g>
<!-- Node20&#45;&gt;Node10 -->
<g id="edge29_Node000020_Node000010" class="edge">
<title>Node20&#45;&gt;Node10</title>
<g id="a_edge29_Node000020_Node000010"><a xlink:title=" ">
<path fill="none" stroke="#63b8ff" d="M852.68,-109.93C848.12,-96.97 838.1,-72.07 823.5,-55 813.14,-42.88 798.82,-32.33 786.55,-24.54"/>
<polygon fill="#63b8ff" stroke="#63b8ff" points="788.04,-21.34 777.67,-19.14 784.4,-27.33 788.04,-21.34"/>
</a>
</g>
</g>
<!-- Node20&#45;&gt;Node11 -->
<g id="edge30_Node000020_Node000011" class="edge">
<title>Node20&#45;&gt;Node11</title>
<g id="a_edge30_Node000020_Node000011"><a xlink:title=" ">
<path fill="none" stroke="#63b8ff" d="M818.59,-109.96C783.59,-101.75 729.28,-88.79 672.93,-74.03"/>
<polygon fill="#63b8ff" stroke="#63b8ff" points="673.69,-70.61 663.13,-71.45 671.91,-77.38 673.69,-70.61"/>
</a>
</g>
</g>
<!-- Node21 -->
<g id="Node000021" class="node">
<title>Node21</title>
<g id="a_Node000021"><a xlink:title=" ">
<polygon fill="#e0e0e0" stroke="#999999" points="988,-74 909,-74 909,-55 988,-55 988,-74"/>
<text text-anchor="middle" x="948.5" y="-62" font-family="Helvetica,sans-Serif" font-size="10.00">fmt/format.h</text>
</a>
</g>
</g>
<!-- Node20&#45;&gt;Node21 -->
<g id="edge27_Node000020_Node000021" class="edge">
<title>Node20&#45;&gt;Node21</title>
<g id="a_edge27_Node000020_Node000021"><a xlink:title=" ">
<path fill="none" stroke="#63b8ff" d="M870.44,-109.98C885,-101.69 907.37,-88.94 924.43,-79.22"/>
<polygon fill="#63b8ff" stroke="#63b8ff" points="926.33,-82.16 933.29,-74.17 922.86,-76.08 926.33,-82.16"/>
</a>
</g>
</g>
<!-- Node22 -->
<g id="Node000022" class="node">
<title>Node22</title>
<g id="a_Node000022"><a xlink:title=" ">
<polygon fill="#e0e0e0" stroke="#999999" points="1067.5,-74 1005.5,-74 1005.5,-55 1067.5,-55 1067.5,-74"/>
<text text-anchor="middle" x="1036.5" y="-62" font-family="Helvetica,sans-Serif" font-size="10.00">cinttypes</text>
</a>
</g>
</g>
<!-- Node20&#45;&gt;Node22 -->
<g id="edge28_Node000020_Node000022" class="edge">
<title>Node20&#45;&gt;Node22</title>
<g id="a_edge28_Node000020_Node000022"><a xlink:title=" ">
<path fill="none" stroke="#63b8ff" d="M884.58,-109.98C915.1,-101.05 963.26,-86.94 997.16,-77.02"/>
<polygon fill="#63b8ff" stroke="#63b8ff" points="998.58,-80.25 1007.19,-74.08 996.61,-73.53 998.58,-80.25"/>
</a>
</g>
</g>
</g>
</svg>
