<?xml version="1.0" encoding="UTF-8" standalone="no"?>
<!DOCTYPE svg PUBLIC "-//W3C//DTD SVG 1.1//EN"
 "http://www.w3.org/Graphics/SVG/1.1/DTD/svg11.dtd">
<!-- Generated by graphviz version 2.43.0 (0)
 -->
<!-- Title: src/wmtk/dart/utils/get_simplex_involution.hpp Pages: 1 -->
<svg width="843pt" height="181pt"
 viewBox="0.00 0.00 843.00 181.00" xmlns="http://www.w3.org/2000/svg" xmlns:xlink="http://www.w3.org/1999/xlink">
<g id="graph0" class="graph" transform="scale(1 1) rotate(0) translate(4 177)">
<title>src/wmtk/dart/utils/get_simplex_involution.hpp</title>
<!-- Node1 -->
<g id="Node000001" class="node">
<title>Node1</title>
<g id="a_Node000001"><a xlink:title=" ">
<polygon fill="#999999" stroke="#666666" points="519,-173 364,-173 364,-143 519,-143 519,-173"/>
<text text-anchor="start" x="372" y="-161" font-family="Helvetica,sans-Serif" font-size="10.00">src/wmtk/dart/utils</text>
<text text-anchor="middle" x="441.5" y="-150" font-family="Helvetica,sans-Serif" font-size="10.00">/get_simplex_involution.hpp</text>
</a>
</g>
</g>
<!-- Node2 -->
<g id="Node000002" class="node">
<title>Node2</title>
<g id="a_Node000002"><a xlink:href="_dart_topology_accessor_8hpp.html" target="_top" xlink:title=" ">
<polygon fill="white" stroke="#666666" points="172.5,-101.5 20.5,-101.5 20.5,-71.5 172.5,-71.5 172.5,-101.5"/>
<text text-anchor="start" x="28.5" y="-89.5" font-family="Helvetica,sans-Serif" font-size="10.00">src/wmtk/dart/DartTopology</text>
<text text-anchor="middle" x="96.5" y="-78.5" font-family="Helvetica,sans-Serif" font-size="10.00">Accessor.hpp</text>
</a>
</g>
</g>
<!-- Node1&#45;&gt;Node2 -->
<g id="edge1_Node000001_Node000002" class="edge">
<title>Node1&#45;&gt;Node2</title>
<g id="a_edge1_Node000001_Node000002"><a xlink:title=" ">
<path fill="none" stroke="#63b8ff" d="M354.92,-141.15C304.28,-131.68 239.16,-119.15 181.5,-107 173.35,-105.28 164.78,-103.4 156.35,-101.51"/>
<polygon fill="#63b8ff" stroke="#63b8ff" points="354.38,-144.61 364.85,-143 355.66,-137.72 354.38,-144.61"/>
</a>
</g>
</g>
<!-- Node4 -->
<g id="Node000004" class="node">
<title>Node4</title>
<g id="a_Node000004"><a xlink:href="_involution_8cpp.html" target="_top" xlink:title=" ">
<polygon fill="white" stroke="#666666" points="346.5,-96 190.5,-96 190.5,-77 346.5,-77 346.5,-96"/>
<text text-anchor="middle" x="268.5" y="-84" font-family="Helvetica,sans-Serif" font-size="10.00">src/wmtk/dart/Involution.cpp</text>
</a>
</g>
</g>
<!-- Node1&#45;&gt;Node4 -->
<g id="edge3_Node000001_Node000004" class="edge">
<title>Node1&#45;&gt;Node4</title>
<g id="a_edge3_Node000001_Node000004"><a xlink:title=" ">
<path fill="none" stroke="#63b8ff" d="M397.12,-139.17C362.67,-125.33 316.45,-106.76 289.83,-96.07"/>
<polygon fill="#63b8ff" stroke="#63b8ff" points="395.91,-142.46 406.49,-142.94 398.52,-135.96 395.91,-142.46"/>
</a>
</g>
</g>
<!-- Node5 -->
<g id="Node000005" class="node">
<title>Node5</title>
<g id="a_Node000005"><a xlink:href="get__simplex__involution_8cpp.html" target="_top" xlink:title=" ">
<polygon fill="white" stroke="#666666" points="518.5,-101.5 364.5,-101.5 364.5,-71.5 518.5,-71.5 518.5,-101.5"/>
<text text-anchor="start" x="372.5" y="-89.5" font-family="Helvetica,sans-Serif" font-size="10.00">src/wmtk/dart/utils</text>
<text text-anchor="middle" x="441.5" y="-78.5" font-family="Helvetica,sans-Serif" font-size="10.00">/get_simplex_involution.cpp</text>
</a>
</g>
</g>
<!-- Node1&#45;&gt;Node5 -->
<g id="edge4_Node000001_Node000005" class="edge">
<title>Node1&#45;&gt;Node5</title>
<g id="a_edge4_Node000001_Node000005"><a xlink:title=" ">
<path fill="none" stroke="#63b8ff" d="M441.5,-132.75C441.5,-122.31 441.5,-110.49 441.5,-101.54"/>
<polygon fill="#63b8ff" stroke="#63b8ff" points="438,-132.94 441.5,-142.94 445,-132.94 438,-132.94"/>
</a>
</g>
</g>
<!-- Node6 -->
<g id="Node000006" class="node">
<title>Node6</title>
<g id="a_Node000006"><a xlink:href="_multi_mesh_manager_8cpp.html" target="_top" xlink:title=" ">
<polygon fill="white" stroke="#666666" points="670,-101.5 537,-101.5 537,-71.5 670,-71.5 670,-101.5"/>
<text text-anchor="start" x="545" y="-89.5" font-family="Helvetica,sans-Serif" font-size="10.00">src/wmtk/multimesh</text>
<text text-anchor="middle" x="603.5" y="-78.5" font-family="Helvetica,sans-Serif" font-size="10.00">/MultiMeshManager.cpp</text>
</a>
</g>
</g>
<!-- Node1&#45;&gt;Node6 -->
<g id="edge5_Node000001_Node000006" class="edge">
<title>Node1&#45;&gt;Node6</title>
<g id="a_edge5_Node000001_Node000006"><a xlink:title=" ">
<path fill="none" stroke="#63b8ff" d="M483.55,-138.96C510.75,-127.29 545.64,-112.32 570.77,-101.54"/>
<polygon fill="#63b8ff" stroke="#63b8ff" points="482.09,-135.78 474.28,-142.94 484.85,-142.21 482.09,-135.78"/>
</a>
</g>
</g>
<!-- Node7 -->
<g id="Node000007" class="node">
<title>Node7</title>
<g id="a_Node000007"><a xlink:href="_collapse_alternate_facet_option_data_8cpp.html" target="_top" xlink:title=" ">
<polygon fill="white" stroke="#666666" points="835,-107 688,-107 688,-66 835,-66 835,-107"/>
<text text-anchor="start" x="696" y="-95" font-family="Helvetica,sans-Serif" font-size="10.00">src/wmtk/operations</text>
<text text-anchor="start" x="696" y="-84" font-family="Helvetica,sans-Serif" font-size="10.00">/internal/CollapseAlternate</text>
<text text-anchor="middle" x="761.5" y="-73" font-family="Helvetica,sans-Serif" font-size="10.00">FacetOptionData.cpp</text>
</a>
</g>
</g>
<!-- Node1&#45;&gt;Node7 -->
<g id="edge6_Node000001_Node000007" class="edge">
<title>Node1&#45;&gt;Node7</title>
<g id="a_edge6_Node000001_Node000007"><a xlink:title=" ">
<path fill="none" stroke="#63b8ff" d="M520.59,-140.93C566.95,-131.37 626.62,-118.84 679.5,-107 682.21,-106.39 684.98,-105.77 687.76,-105.13"/>
<polygon fill="#63b8ff" stroke="#63b8ff" points="519.69,-137.54 510.6,-142.98 521.1,-144.4 519.69,-137.54"/>
</a>
</g>
</g>
<!-- Node3 -->
<g id="Node000003" class="node">
<title>Node3</title>
<g id="a_Node000003"><a xlink:href="indexed__topology__initialization_8hpp.html" target="_top" xlink:title=" ">
<polygon fill="white" stroke="#666666" points="193,-30 0,-30 0,0 193,0 193,-30"/>
<text text-anchor="start" x="8" y="-18" font-family="Helvetica,sans-Serif" font-size="10.00">src/wmtk/dart/utils</text>
<text text-anchor="middle" x="96.5" y="-7" font-family="Helvetica,sans-Serif" font-size="10.00">/indexed_topology_initialization.hpp</text>
</a>
</g>
</g>
<!-- Node2&#45;&gt;Node3 -->
<g id="edge2_Node000002_Node000003" class="edge">
<title>Node2&#45;&gt;Node3</title>
<g id="a_edge2_Node000002_Node000003"><a xlink:title=" ">
<path fill="none" stroke="#63b8ff" d="M96.5,-61.25C96.5,-50.81 96.5,-38.99 96.5,-30.04"/>
<polygon fill="#63b8ff" stroke="#63b8ff" points="93,-61.44 96.5,-71.44 100,-61.44 93,-61.44"/>
</a>
</g>
</g>
</g>
</svg>
