<?xml version="1.0" encoding="UTF-8" standalone="no"?>
<!DOCTYPE svg PUBLIC "-//W3C//DTD SVG 1.1//EN"
 "http://www.w3.org/Graphics/SVG/1.1/DTD/svg11.dtd">
<!-- Generated by graphviz version 2.43.0 (0)
 -->
<!-- Title: src/wmtk/dart/get_simplex_dart.hpp Pages: 1 -->
<!--zoomable 335 -->

<svg id="main" version="1.1" xmlns="http://www.w3.org/2000/svg" xmlns:xlink="http://www.w3.org/1999/xlink" xml:space="preserve" onload="init(evt)">
<style type="text/css"><![CDATA[
.node, .edge {opacity: 0.7;}
.node.selected, .edge.selected {opacity: 1;}
.edge:hover path { stroke: red; }
.edge:hover polygon { stroke: red; fill: red; }
]]></style>

<defs>
  <circle id="rim" cx="0" cy="0" r="7"/>
  <circle id="rim2" cx="0" cy="0" r="3.5"/>
  <g id="zoomPlus">
    <use xlink:href="#rim" fill="#404040"><set attributeName="fill" to="#808080" begin="zoomplus.mouseover" end="zoomplus.mouseout"/></use>
    <path d="M-4,0h8M0,-4v8" fill="none" stroke="white" stroke-width="1.5" pointer-events="none"/>
  </g>
  <g id="zoomMin">
    <use xlink:href="#rim" fill="#404040"><set attributeName="fill" to="#808080" begin="zoomminus.mouseover" end="zoomminus.mouseout"/></use>
    <path d="M-4,0h8" fill="none" stroke="white" stroke-width="1.5" pointer-events="none"/>
  </g>
  <g id="arrowUp" transform="translate(30 24)">
    <use xlink:href="#rim"/>
    <path pointer-events="none" fill="none" stroke="white" stroke-width="1.5" d="M0,-3.0v7 M-2.5,-0.5L0,-3.0L2.5,-0.5"/>
  </g>
  <g id="arrowRight" transform="rotate(90) translate(36 -43)">
    <use xlink:href="#rim"/>
    <path pointer-events="none" fill="none" stroke="white" stroke-width="1.5" d="M0,-3.0v7 M-2.5,-0.5L0,-3.0L2.5,-0.5"/>
  </g>
  <g id="arrowDown" transform="rotate(180) translate(-30 -48)">
    <use xlink:href="#rim"/>
    <path pointer-events="none" fill="none" stroke="white" stroke-width="1.5" d="M0,-3.0v7 M-2.5,-0.5L0,-3.0L2.5,-0.5"/>
  </g>
  <g id="arrowLeft" transform="rotate(270) translate(-36 17)">
    <use xlink:href="#rim"/>
    <path pointer-events="none" fill="none" stroke="white" stroke-width="1.5" d="M0,-3.0v7 M-2.5,-0.5L0,-3.0L2.5,-0.5"/>
  </g>
  <g id="resetDef">
    <use xlink:href="#rim2" fill="#404040"><set attributeName="fill" to="#808080" begin="reset.mouseover" end="reset.mouseout"/></use>
  </g>
</defs>
<script type="application/ecmascript">
var viewWidth = 1179;
var viewHeight = 335;
var sectionId = 'dynsection-0';
</script>
<script type="application/ecmascript" xlink:href="svg.min.js"/>
<svg id="graph" class="graph">
<g id="viewport">
<title>src/wmtk/dart/get_simplex_dart.hpp</title>
<!-- Node1 -->
<g id="Node000001" class="node">
<title>Node1</title>
<g id="a_Node000001"><a xlink:title=" ">
<polygon fill="#999999" stroke="#666666" points="565.36,-327 418.36,-327 418.36,-297 565.36,-297 565.36,-327"/>
<text text-anchor="start" x="426.36" y="-315" font-family="Helvetica,sans-Serif" font-size="10.00">src/wmtk/dart/get_simplex</text>
<text text-anchor="middle" x="491.86" y="-304" font-family="Helvetica,sans-Serif" font-size="10.00">_dart.hpp</text>
</a>
</g>
</g>
<!-- Node2 -->
<g id="Node000002" class="node">
<title>Node2</title>
<g id="a_Node000002"><a xlink:href="autogen_2point__mesh_2_simplex_dart_8hpp.html" target="_top" xlink:title=" ">
<polygon fill="white" stroke="#666666" points="274.86,-261 140.86,-261 140.86,-231 274.86,-231 274.86,-261"/>
<text text-anchor="start" x="148.86" y="-249" font-family="Helvetica,sans-Serif" font-size="10.00">wmtk/autogen/point</text>
<text text-anchor="middle" x="207.86" y="-238" font-family="Helvetica,sans-Serif" font-size="10.00">_mesh/SimplexDart.hpp</text>
</a>
</g>
</g>
<!-- Node1&#45;&gt;Node2 -->
<g id="edge1_Node000001_Node000002" class="edge">
<title>Node1&#45;&gt;Node2</title>
<g id="a_edge1_Node000001_Node000002"><a xlink:title=" ">
<path fill="none" stroke="#63b8ff" d="M429.54,-296.95C385.42,-287.01 326.14,-273.65 279.98,-263.25"/>
<polygon fill="#63b8ff" stroke="#63b8ff" points="280.57,-259.8 270.04,-261.01 279.03,-266.63 280.57,-259.8"/>
</a>
</g>
</g>
<!-- Node15 -->
<g id="Node000015" class="node">
<title>Node15</title>
<g id="a_Node000015"><a xlink:href="dart_2_simplex_dart_8hpp.html" target="_top" xlink:title=" ">
<polygon fill="white" stroke="#666666" points="463.86,-189.5 311.86,-189.5 311.86,-170.5 463.86,-170.5 463.86,-189.5"/>
<text text-anchor="middle" x="387.86" y="-177.5" font-family="Helvetica,sans-Serif" font-size="10.00">wmtk/dart/SimplexDart.hpp</text>
</a>
</g>
</g>
<!-- Node1&#45;&gt;Node15 -->
<g id="edge58_Node000001_Node000015" class="edge">
<title>Node1&#45;&gt;Node15</title>
<g id="a_edge58_Node000001_Node000015"><a xlink:title=" ">
<path fill="none" stroke="#63b8ff" d="M456.8,-296.98C440.36,-288.76 421.8,-276.85 409.86,-261 396.28,-242.98 391.08,-217.05 389.09,-199.64"/>
<polygon fill="#63b8ff" stroke="#63b8ff" points="392.57,-199.25 388.19,-189.6 385.6,-199.88 392.57,-199.25"/>
</a>
</g>
</g>
<!-- Node23 -->
<g id="Node000023" class="node">
<title>Node23</title>
<g id="a_Node000023"><a xlink:href="autogen_2edge__mesh_2_simplex_dart_8hpp.html" target="_top" xlink:title=" ">
<polygon fill="white" stroke="#666666" points="564.86,-261 418.86,-261 418.86,-231 564.86,-231 564.86,-261"/>
<text text-anchor="start" x="426.86" y="-249" font-family="Helvetica,sans-Serif" font-size="10.00">wmtk/autogen/edge_mesh</text>
<text text-anchor="middle" x="491.86" y="-238" font-family="Helvetica,sans-Serif" font-size="10.00">/SimplexDart.hpp</text>
</a>
</g>
</g>
<!-- Node1&#45;&gt;Node23 -->
<g id="edge34_Node000001_Node000023" class="edge">
<title>Node1&#45;&gt;Node23</title>
<g id="a_edge34_Node000001_Node000023"><a xlink:title=" ">
<path fill="none" stroke="#63b8ff" d="M491.86,-296.8C491.86,-289.34 491.86,-279.99 491.86,-271.41"/>
<polygon fill="#63b8ff" stroke="#63b8ff" points="495.36,-271.16 491.86,-261.16 488.36,-271.16 495.36,-271.16"/>
</a>
</g>
</g>
<!-- Node26 -->
<g id="Node000026" class="node">
<title>Node26</title>
<g id="a_Node000026"><a xlink:href="autogen_2tri__mesh_2_simplex_dart_8hpp.html" target="_top" xlink:title=" ">
<polygon fill="white" stroke="#666666" points="1126.36,-261 993.36,-261 993.36,-231 1126.36,-231 1126.36,-261"/>
<text text-anchor="start" x="1001.36" y="-249" font-family="Helvetica,sans-Serif" font-size="10.00">wmtk/autogen/tri_mesh</text>
<text text-anchor="middle" x="1059.86" y="-238" font-family="Helvetica,sans-Serif" font-size="10.00">/SimplexDart.hpp</text>
</a>
</g>
</g>
<!-- Node1&#45;&gt;Node26 -->
<g id="edge42_Node000001_Node000026" class="edge">
<title>Node1&#45;&gt;Node26</title>
<g id="a_edge42_Node000001_Node000026"><a xlink:title=" ">
<path fill="none" stroke="#63b8ff" d="M565.54,-302.7C673.38,-290.55 873.29,-268.02 982.94,-255.67"/>
<polygon fill="#63b8ff" stroke="#63b8ff" points="983.4,-259.14 992.95,-254.54 982.62,-252.18 983.4,-259.14"/>
</a>
</g>
</g>
<!-- Node28 -->
<g id="Node000028" class="node">
<title>Node28</title>
<g id="a_Node000028"><a xlink:href="autogen_2tet__mesh_2_simplex_dart_8hpp.html" target="_top" xlink:title=" ">
<polygon fill="white" stroke="#666666" points="718.86,-261 582.86,-261 582.86,-231 718.86,-231 718.86,-261"/>
<text text-anchor="start" x="590.86" y="-249" font-family="Helvetica,sans-Serif" font-size="10.00">wmtk/autogen/tet_mesh</text>
<text text-anchor="middle" x="650.86" y="-238" font-family="Helvetica,sans-Serif" font-size="10.00">/SimplexDart.hpp</text>
</a>
</g>
</g>
<!-- Node1&#45;&gt;Node28 -->
<g id="edge50_Node000001_Node000028" class="edge">
<title>Node1&#45;&gt;Node28</title>
<g id="a_edge50_Node000001_Node000028"><a xlink:title=" ">
<path fill="none" stroke="#63b8ff" d="M526.75,-296.95C550.26,-287.49 581.46,-274.93 606.7,-264.78"/>
<polygon fill="#63b8ff" stroke="#63b8ff" points="608.08,-267.99 616.05,-261.01 605.47,-261.5 608.08,-267.99"/>
</a>
</g>
</g>
<!-- Node3 -->
<g id="Node000003" class="node">
<title>Node3</title>
<g id="a_Node000003"><a xlink:title=" ">
<polygon fill="#e0e0e0" stroke="#999999" points="922.36,-19 853.36,-19 853.36,0 922.36,0 922.36,-19"/>
<text text-anchor="middle" x="887.86" y="-7" font-family="Helvetica,sans-Serif" font-size="10.00">Eigen/Core</text>
</a>
</g>
</g>
<!-- Node2&#45;&gt;Node3 -->
<g id="edge2_Node000002_Node000003" class="edge">
<title>Node2&#45;&gt;Node3</title>
<g id="a_edge2_Node000002_Node000003"><a xlink:title=" ">
<path fill="none" stroke="#63b8ff" d="M211.59,-230.74C217.23,-212.29 229.78,-180.65 252.86,-165 352.7,-97.32 406.57,-164.46 521.86,-129 539.91,-123.45 541.84,-115.63 559.86,-110 667.85,-76.27 708.51,-120.03 811.86,-74 836.51,-63.02 859.5,-41.64 873.6,-26.74"/>
<polygon fill="#63b8ff" stroke="#63b8ff" points="876.3,-28.97 880.47,-19.23 871.14,-24.24 876.3,-28.97"/>
</a>
</g>
</g>
<!-- Node4 -->
<g id="Node000004" class="node">
<title>Node4</title>
<g id="a_Node000004"><a xlink:title=" ">
<polygon fill="#e0e0e0" stroke="#999999" points="64.86,-74 22.86,-74 22.86,-55 64.86,-55 64.86,-74"/>
<text text-anchor="middle" x="43.86" y="-62" font-family="Helvetica,sans-Serif" font-size="10.00">array</text>
</a>
</g>
</g>
<!-- Node2&#45;&gt;Node4 -->
<g id="edge3_Node000002_Node000004" class="edge">
<title>Node2&#45;&gt;Node4</title>
<g id="a_edge3_Node000002_Node000004"><a xlink:title=" ">
<path fill="none" stroke="#63b8ff" d="M186.82,-230.96C173.51,-221.58 156.33,-208.51 142.86,-195 106.56,-158.59 71.92,-108.63 54.87,-82.7"/>
<polygon fill="#63b8ff" stroke="#63b8ff" points="57.79,-80.78 49.41,-74.3 51.92,-84.59 57.79,-80.78"/>
</a>
</g>
</g>
<!-- Node5 -->
<g id="Node000005" class="node">
<title>Node5</title>
<g id="a_Node000005"><a xlink:title=" ">
<polygon fill="#e0e0e0" stroke="#999999" points="257.86,-19 205.86,-19 205.86,0 257.86,0 257.86,-19"/>
<text text-anchor="middle" x="231.86" y="-7" font-family="Helvetica,sans-Serif" font-size="10.00">cassert</text>
</a>
</g>
</g>
<!-- Node2&#45;&gt;Node5 -->
<g id="edge4_Node000002_Node000005" class="edge">
<title>Node2&#45;&gt;Node5</title>
<g id="a_edge4_Node000002_Node000005"><a xlink:title=" ">
<path fill="none" stroke="#63b8ff" d="M172.57,-230.92C101.92,-200.76 -45.21,-126.82 13.86,-55 64.56,6.65 112.23,-33.54 195.7,-18.97"/>
<polygon fill="#63b8ff" stroke="#63b8ff" points="196.38,-22.4 205.52,-17.03 195.03,-15.53 196.38,-22.4"/>
</a>
</g>
</g>
<!-- Node6 -->
<g id="Node000006" class="node">
<title>Node6</title>
<g id="a_Node000006"><a xlink:href="_primitive_type_8hpp.html" target="_top" xlink:title=" ">
<polygon fill="white" stroke="#666666" points="218.36,-74 83.36,-74 83.36,-55 218.36,-55 218.36,-74"/>
<text text-anchor="middle" x="150.86" y="-62" font-family="Helvetica,sans-Serif" font-size="10.00">wmtk/PrimitiveType.hpp</text>
</a>
</g>
</g>
<!-- Node2&#45;&gt;Node6 -->
<g id="edge5_Node000002_Node000006" class="edge">
<title>Node2&#45;&gt;Node6</title>
<g id="a_edge5_Node000002_Node000006"><a xlink:title=" ">
<path fill="none" stroke="#63b8ff" d="M186.78,-230.97C175.42,-222.13 162.42,-209.63 155.86,-195 139.49,-158.52 143.44,-110.29 147.38,-84.19"/>
<polygon fill="#63b8ff" stroke="#63b8ff" points="150.86,-84.62 149.07,-74.18 143.96,-83.46 150.86,-84.62"/>
</a>
</g>
</g>
<!-- Node10 -->
<g id="Node000010" class="node">
<title>Node10</title>
<g id="a_Node000010"><a xlink:href="_types_8hpp.html" target="_top" xlink:title=" ">
<polygon fill="white" stroke="#666666" points="664.86,-129 568.86,-129 568.86,-110 664.86,-110 664.86,-129"/>
<text text-anchor="middle" x="616.86" y="-117" font-family="Helvetica,sans-Serif" font-size="10.00">wmtk/Types.hpp</text>
</a>
</g>
</g>
<!-- Node2&#45;&gt;Node10 -->
<g id="edge9_Node000002_Node000010" class="edge">
<title>Node2&#45;&gt;Node10</title>
<g id="a_edge9_Node000002_Node000010"><a xlink:title=" ">
<path fill="none" stroke="#63b8ff" d="M219.74,-230.98C236.31,-212.49 268.22,-180.49 302.86,-165 305.77,-163.7 468.66,-141.01 558.64,-128.55"/>
<polygon fill="#63b8ff" stroke="#63b8ff" points="559.28,-131.99 568.71,-127.15 558.32,-125.06 559.28,-131.99"/>
</a>
</g>
</g>
<!-- Node2&#45;&gt;Node15 -->
<g id="edge16_Node000002_Node000015" class="edge">
<title>Node2&#45;&gt;Node15</title>
<g id="a_edge16_Node000002_Node000015"><a xlink:title=" ">
<path fill="none" stroke="#63b8ff" d="M247.36,-230.95C279.35,-219.58 323.91,-203.74 354.22,-192.96"/>
<polygon fill="#63b8ff" stroke="#63b8ff" points="355.66,-196.17 363.91,-189.52 353.31,-189.57 355.66,-196.17"/>
</a>
</g>
</g>
<!-- Node7 -->
<g id="Node000007" class="node">
<title>Node7</title>
<g id="a_Node000007"><a xlink:title=" ">
<polygon fill="#e0e0e0" stroke="#999999" points="96.36,-19 31.36,-19 31.36,0 96.36,0 96.36,-19"/>
<text text-anchor="middle" x="63.86" y="-7" font-family="Helvetica,sans-Serif" font-size="10.00">stdexcept</text>
</a>
</g>
</g>
<!-- Node6&#45;&gt;Node7 -->
<g id="edge6_Node000006_Node000007" class="edge">
<title>Node6&#45;&gt;Node7</title>
<g id="a_edge6_Node000006_Node000007"><a xlink:title=" ">
<path fill="none" stroke="#63b8ff" d="M136.88,-54.98C123.39,-46.77 102.73,-34.18 86.82,-24.49"/>
<polygon fill="#63b8ff" stroke="#63b8ff" points="88.45,-21.38 78.09,-19.17 84.81,-27.36 88.45,-21.38"/>
</a>
</g>
</g>
<!-- Node8 -->
<g id="Node000008" class="node">
<title>Node8</title>
<g id="a_Node000008"><a xlink:title=" ">
<polygon fill="#e0e0e0" stroke="#999999" points="187.36,-19 114.36,-19 114.36,0 187.36,0 187.36,-19"/>
<text text-anchor="middle" x="150.86" y="-7" font-family="Helvetica,sans-Serif" font-size="10.00">string_view</text>
</a>
</g>
</g>
<!-- Node6&#45;&gt;Node8 -->
<g id="edge7_Node000006_Node000008" class="edge">
<title>Node6&#45;&gt;Node8</title>
<g id="a_edge7_Node000006_Node000008"><a xlink:title=" ">
<path fill="none" stroke="#63b8ff" d="M150.86,-54.75C150.86,-47.8 150.86,-37.85 150.86,-29.13"/>
<polygon fill="#63b8ff" stroke="#63b8ff" points="154.36,-29.09 150.86,-19.09 147.36,-29.09 154.36,-29.09"/>
</a>
</g>
</g>
<!-- Node9 -->
<g id="Node000009" class="node">
<title>Node9</title>
<g id="a_Node000009"><a xlink:title=" ">
<polygon fill="#e0e0e0" stroke="#999999" points="323.36,-19 276.36,-19 276.36,0 323.36,0 323.36,-19"/>
<text text-anchor="middle" x="299.86" y="-7" font-family="Helvetica,sans-Serif" font-size="10.00">vector</text>
</a>
</g>
</g>
<!-- Node6&#45;&gt;Node9 -->
<g id="edge8_Node000006_Node000009" class="edge">
<title>Node6&#45;&gt;Node9</title>
<g id="a_edge8_Node000006_Node000009"><a xlink:title=" ">
<path fill="none" stroke="#63b8ff" d="M174.8,-54.98C199.56,-46.18 238.44,-32.35 266.27,-22.45"/>
<polygon fill="#63b8ff" stroke="#63b8ff" points="267.73,-25.64 275.98,-18.99 265.39,-19.05 267.73,-25.64"/>
</a>
</g>
</g>
<!-- Node10&#45;&gt;Node3 -->
<g id="edge10_Node000010_Node000003" class="edge">
<title>Node10&#45;&gt;Node3</title>
<g id="a_edge10_Node000010_Node000003"><a xlink:title=" ">
<path fill="none" stroke="#63b8ff" d="M665.05,-113.45C722.95,-106.64 815.93,-93.13 844.86,-74 861.48,-63.01 873.37,-43.17 880.37,-28.58"/>
<polygon fill="#63b8ff" stroke="#63b8ff" points="883.73,-29.64 884.61,-19.08 877.34,-26.79 883.73,-29.64"/>
</a>
</g>
</g>
<!-- Node11 -->
<g id="Node000011" class="node">
<title>Node11</title>
<g id="a_Node000011"><a xlink:href="_rational_8hpp.html" target="_top" xlink:title=" ">
<polygon fill="white" stroke="#666666" points="802.36,-74 669.36,-74 669.36,-55 802.36,-55 802.36,-74"/>
<text text-anchor="middle" x="735.86" y="-62" font-family="Helvetica,sans-Serif" font-size="10.00">wmtk/utils/Rational.hpp</text>
</a>
</g>
</g>
<!-- Node10&#45;&gt;Node11 -->
<g id="edge11_Node000010_Node000011" class="edge">
<title>Node10&#45;&gt;Node11</title>
<g id="a_edge11_Node000010_Node000011"><a xlink:title=" ">
<path fill="none" stroke="#63b8ff" d="M635.98,-109.98C655.21,-101.42 685.09,-88.11 707.17,-78.28"/>
<polygon fill="#63b8ff" stroke="#63b8ff" points="708.68,-81.44 716.39,-74.17 705.84,-75.04 708.68,-81.44"/>
</a>
</g>
</g>
<!-- Node11&#45;&gt;Node3 -->
<g id="edge12_Node000011_Node000003" class="edge">
<title>Node11&#45;&gt;Node3</title>
<g id="a_edge12_Node000011_Node000003"><a xlink:title=" ">
<path fill="none" stroke="#63b8ff" d="M760.28,-54.98C785.58,-46.16 825.32,-32.31 853.72,-22.41"/>
<polygon fill="#63b8ff" stroke="#63b8ff" points="854.96,-25.68 863.25,-19.08 852.65,-19.07 854.96,-25.68"/>
</a>
</g>
</g>
<!-- Node12 -->
<g id="Node000012" class="node">
<title>Node12</title>
<g id="a_Node000012"><a xlink:title=" ">
<polygon fill="#e0e0e0" stroke="#999999" points="759.36,-19 712.36,-19 712.36,0 759.36,0 759.36,-19"/>
<text text-anchor="middle" x="735.86" y="-7" font-family="Helvetica,sans-Serif" font-size="10.00">gmp.h</text>
</a>
</g>
</g>
<!-- Node11&#45;&gt;Node12 -->
<g id="edge13_Node000011_Node000012" class="edge">
<title>Node11&#45;&gt;Node12</title>
<g id="a_edge13_Node000011_Node000012"><a xlink:title=" ">
<path fill="none" stroke="#63b8ff" d="M735.86,-54.75C735.86,-47.8 735.86,-37.85 735.86,-29.13"/>
<polygon fill="#63b8ff" stroke="#63b8ff" points="739.36,-29.09 735.86,-19.09 732.36,-29.09 739.36,-29.09"/>
</a>
</g>
</g>
<!-- Node13 -->
<g id="Node000013" class="node">
<title>Node13</title>
<g id="a_Node000013"><a xlink:title=" ">
<polygon fill="#e0e0e0" stroke="#999999" points="412.86,-19 352.86,-19 352.86,0 412.86,0 412.86,-19"/>
<text text-anchor="middle" x="382.86" y="-7" font-family="Helvetica,sans-Serif" font-size="10.00">iostream</text>
</a>
</g>
</g>
<!-- Node11&#45;&gt;Node13 -->
<g id="edge14_Node000011_Node000013" class="edge">
<title>Node11&#45;&gt;Node13</title>
<g id="a_edge14_Node000011_Node000013"><a xlink:title=" ">
<path fill="none" stroke="#63b8ff" d="M675.15,-54.99C613.93,-46.32 516.75,-32.29 432.86,-19 429.64,-18.49 426.31,-17.95 422.97,-17.4"/>
<polygon fill="#63b8ff" stroke="#63b8ff" points="423.42,-13.93 412.98,-15.73 422.27,-20.83 423.42,-13.93"/>
</a>
</g>
</g>
<!-- Node14 -->
<g id="Node000014" class="node">
<title>Node14</title>
<g id="a_Node000014"><a xlink:title=" ">
<polygon fill="#e0e0e0" stroke="#999999" points="485.86,-19 441.86,-19 441.86,0 485.86,0 485.86,-19"/>
<text text-anchor="middle" x="463.86" y="-7" font-family="Helvetica,sans-Serif" font-size="10.00">string</text>
</a>
</g>
</g>
<!-- Node11&#45;&gt;Node14 -->
<g id="edge15_Node000011_Node000014" class="edge">
<title>Node11&#45;&gt;Node14</title>
<g id="a_edge15_Node000011_Node000014"><a xlink:title=" ">
<path fill="none" stroke="#63b8ff" d="M692.16,-54.98C637.32,-44.3 544.56,-26.22 495.88,-16.74"/>
<polygon fill="#63b8ff" stroke="#63b8ff" points="496.39,-13.27 485.9,-14.8 495.05,-20.14 496.39,-13.27"/>
</a>
</g>
</g>
<!-- Node15&#45;&gt;Node6 -->
<g id="edge17_Node000015_Node000006" class="edge">
<title>Node15&#45;&gt;Node6</title>
<g id="a_edge17_Node000015_Node000006"><a xlink:title=" ">
<path fill="none" stroke="#63b8ff" d="M371.54,-170.46C345.98,-157.16 294.9,-130.87 250.86,-110 227.25,-98.81 200.15,-86.8 180.13,-78.08"/>
<polygon fill="#63b8ff" stroke="#63b8ff" points="181.48,-74.85 170.91,-74.09 178.69,-81.28 181.48,-74.85"/>
</a>
</g>
</g>
<!-- Node15&#45;&gt;Node10 -->
<g id="edge28_Node000015_Node000010" class="edge">
<title>Node15&#45;&gt;Node10</title>
<g id="a_edge28_Node000015_Node000010"><a xlink:title=" ">
<path fill="none" stroke="#63b8ff" d="M421.16,-170.49C461.44,-160.2 529.34,-142.86 573.63,-131.54"/>
<polygon fill="#63b8ff" stroke="#63b8ff" points="574.7,-134.88 583.52,-129.02 572.97,-128.1 574.7,-134.88"/>
</a>
</g>
</g>
<!-- Node16 -->
<g id="Node000016" class="node">
<title>Node16</title>
<g id="a_Node000016"><a xlink:href="_tuple_8hpp.html" target="_top" xlink:title=" ">
<polygon fill="white" stroke="#666666" points="434.86,-129 340.86,-129 340.86,-110 434.86,-110 434.86,-129"/>
<text text-anchor="middle" x="387.86" y="-117" font-family="Helvetica,sans-Serif" font-size="10.00">wmtk/Tuple.hpp</text>
</a>
</g>
</g>
<!-- Node15&#45;&gt;Node16 -->
<g id="edge18_Node000015_Node000016" class="edge">
<title>Node15&#45;&gt;Node16</title>
<g id="a_edge18_Node000015_Node000016"><a xlink:title=" ">
<path fill="none" stroke="#63b8ff" d="M387.86,-170.37C387.86,-162.25 387.86,-149.81 387.86,-139.39"/>
<polygon fill="#63b8ff" stroke="#63b8ff" points="391.36,-139.17 387.86,-129.17 384.36,-139.17 391.36,-139.17"/>
</a>
</g>
</g>
<!-- Node20 -->
<g id="Node000020" class="node">
<title>Node20</title>
<g id="a_Node000020"><a xlink:href="_dart_8hpp.html" target="_top" xlink:title=" ">
<polygon fill="white" stroke="#666666" points="512.36,-129 453.36,-129 453.36,-110 512.36,-110 512.36,-129"/>
<text text-anchor="middle" x="482.86" y="-117" font-family="Helvetica,sans-Serif" font-size="10.00">Dart.hpp</text>
</a>
</g>
</g>
<!-- Node15&#45;&gt;Node20 -->
<g id="edge29_Node000015_Node000020" class="edge">
<title>Node15&#45;&gt;Node20</title>
<g id="a_edge29_Node000015_Node000020"><a xlink:title=" ">
<path fill="none" stroke="#63b8ff" d="M401.88,-170.37C417.17,-160.95 441.89,-145.73 460,-134.58"/>
<polygon fill="#63b8ff" stroke="#63b8ff" points="462.11,-137.39 468.79,-129.17 458.44,-131.43 462.11,-137.39"/>
</a>
</g>
</g>
<!-- Node16&#45;&gt;Node4 -->
<g id="edge19_Node000016_Node000004" class="edge">
<title>Node16&#45;&gt;Node4</title>
<g id="a_edge19_Node000016_Node000004"><a xlink:title=" ">
<path fill="none" stroke="#63b8ff" d="M340.61,-113.67C279.05,-106.94 168.24,-93.36 74.86,-74 74.76,-73.98 74.66,-73.96 74.56,-73.94"/>
<polygon fill="#63b8ff" stroke="#63b8ff" points="75.66,-70.6 65.12,-71.71 74.05,-77.41 75.66,-70.6"/>
</a>
</g>
</g>
<!-- Node16&#45;&gt;Node6 -->
<g id="edge24_Node000016_Node000006" class="edge">
<title>Node16&#45;&gt;Node6</title>
<g id="a_edge24_Node000016_Node000006"><a xlink:title=" ">
<path fill="none" stroke="#63b8ff" d="M349.78,-109.98C308.87,-100.84 243.75,-86.27 199.24,-76.32"/>
<polygon fill="#63b8ff" stroke="#63b8ff" points="199.76,-72.85 189.24,-74.08 198.23,-79.68 199.76,-72.85"/>
</a>
</g>
</g>
<!-- Node16&#45;&gt;Node13 -->
<g id="edge21_Node000016_Node000013" class="edge">
<title>Node16&#45;&gt;Node13</title>
<g id="a_edge21_Node000016_Node000013"><a xlink:title=" ">
<path fill="none" stroke="#63b8ff" d="M377.7,-109.81C368.96,-101.6 356.97,-88.43 351.86,-74 346.01,-57.46 356.37,-39.59 366.65,-27.03"/>
<polygon fill="#63b8ff" stroke="#63b8ff" points="369.53,-29.06 373.56,-19.26 364.3,-24.41 369.53,-29.06"/>
</a>
</g>
</g>
<!-- Node16&#45;&gt;Node14 -->
<g id="edge22_Node000016_Node000014" class="edge">
<title>Node16&#45;&gt;Node14</title>
<g id="a_edge22_Node000016_Node000014"><a xlink:title=" ">
<path fill="none" stroke="#63b8ff" d="M384.8,-109.57C380.93,-96.59 375.89,-72.17 385.86,-55 395.81,-37.87 415.1,-26.78 432,-19.96"/>
<polygon fill="#63b8ff" stroke="#63b8ff" points="433.42,-23.16 441.59,-16.42 431,-16.6 433.42,-23.16"/>
</a>
</g>
</g>
<!-- Node17 -->
<g id="Node000017" class="node">
<title>Node17</title>
<g id="a_Node000017"><a xlink:title=" ">
<polygon fill="#e0e0e0" stroke="#999999" points="984.86,-74 934.86,-74 934.86,-55 984.86,-55 984.86,-74"/>
<text text-anchor="middle" x="959.86" y="-62" font-family="Helvetica,sans-Serif" font-size="10.00">cstdint</text>
</a>
</g>
</g>
<!-- Node16&#45;&gt;Node17 -->
<g id="edge20_Node000016_Node000017" class="edge">
<title>Node16&#45;&gt;Node17</title>
<g id="a_edge20_Node000016_Node000017"><a xlink:title=" ">
<path fill="none" stroke="#63b8ff" d="M435.11,-111.22C438.41,-110.79 441.68,-110.37 444.86,-110 624.6,-88.85 840.74,-73.41 924.4,-67.81"/>
<polygon fill="#63b8ff" stroke="#63b8ff" points="924.87,-71.28 934.62,-67.13 924.41,-64.3 924.87,-71.28"/>
</a>
</g>
</g>
<!-- Node18 -->
<g id="Node000018" class="node">
<title>Node18</title>
<g id="a_Node000018"><a xlink:title=" ">
<polygon fill="#e0e0e0" stroke="#999999" points="435.36,-74 394.36,-74 394.36,-55 435.36,-55 435.36,-74"/>
<text text-anchor="middle" x="414.86" y="-62" font-family="Helvetica,sans-Serif" font-size="10.00">tuple</text>
</a>
</g>
</g>
<!-- Node16&#45;&gt;Node18 -->
<g id="edge23_Node000016_Node000018" class="edge">
<title>Node16&#45;&gt;Node18</title>
<g id="a_edge23_Node000016_Node000018"><a xlink:title=" ">
<path fill="none" stroke="#63b8ff" d="M392.32,-109.75C395.98,-102.57 401.27,-92.18 405.81,-83.27"/>
<polygon fill="#63b8ff" stroke="#63b8ff" points="409.07,-84.59 410.49,-74.09 402.83,-81.41 409.07,-84.59"/>
</a>
</g>
</g>
<!-- Node19 -->
<g id="Node000019" class="node">
<title>Node19</title>
<g id="a_Node000019"><a xlink:href="_tuple_8hxx.html" target="_top" xlink:title=" ">
<polygon fill="white" stroke="#666666" points="299.36,-74 236.36,-74 236.36,-55 299.36,-55 299.36,-74"/>
<text text-anchor="middle" x="267.86" y="-62" font-family="Helvetica,sans-Serif" font-size="10.00">Tuple.hxx</text>
</a>
</g>
</g>
<!-- Node16&#45;&gt;Node19 -->
<g id="edge25_Node000016_Node000019" class="edge">
<title>Node16&#45;&gt;Node19</title>
<g id="a_edge25_Node000016_Node000019"><a xlink:title=" ">
<path fill="none" stroke="#63b8ff" d="M363.47,-109.98C342.38,-101.5 312.34,-88.35 291.49,-78.54"/>
<polygon fill="#63b8ff" stroke="#63b8ff" points="292.87,-75.33 282.34,-74.17 289.85,-81.64 292.87,-75.33"/>
</a>
</g>
</g>
<!-- Node19&#45;&gt;Node5 -->
<g id="edge27_Node000019_Node000005" class="edge">
<title>Node19&#45;&gt;Node5</title>
<g id="a_edge27_Node000019_Node000005"><a xlink:title=" ">
<path fill="none" stroke="#63b8ff" d="M261.92,-54.75C256.88,-47.34 249.52,-36.5 243.35,-27.41"/>
<polygon fill="#63b8ff" stroke="#63b8ff" points="246.21,-25.39 237.7,-19.09 240.42,-29.33 246.21,-25.39"/>
</a>
</g>
</g>
<!-- Node19&#45;&gt;Node16 -->
<g id="edge26_Node000019_Node000016" class="edge">
<title>Node19&#45;&gt;Node16</title>
<g id="a_edge26_Node000019_Node000016"><a xlink:title=" ">
<path fill="none" stroke="#63b8ff" d="M292.64,-74.17C313.84,-82.71 343.87,-95.87 364.61,-105.63"/>
<polygon fill="#63b8ff" stroke="#63b8ff" points="363.17,-108.82 373.7,-109.98 366.19,-102.51 363.17,-108.82"/>
</a>
</g>
</g>
<!-- Node20&#45;&gt;Node14 -->
<g id="edge32_Node000020_Node000014" class="edge">
<title>Node20&#45;&gt;Node14</title>
<g id="a_edge32_Node000020_Node000014"><a xlink:title=" ">
<path fill="none" stroke="#63b8ff" d="M481.31,-109.66C478.23,-92.17 471.3,-52.8 467.16,-29.27"/>
<polygon fill="#63b8ff" stroke="#63b8ff" points="470.56,-28.4 465.38,-19.16 463.67,-29.61 470.56,-28.4"/>
</a>
</g>
</g>
<!-- Node20&#45;&gt;Node18 -->
<g id="edge33_Node000020_Node000018" class="edge">
<title>Node20&#45;&gt;Node18</title>
<g id="a_edge33_Node000020_Node000018"><a xlink:title=" ">
<path fill="none" stroke="#63b8ff" d="M471.94,-109.98C461.79,-102.07 446.44,-90.11 434.22,-80.58"/>
<polygon fill="#63b8ff" stroke="#63b8ff" points="436.02,-77.56 425.99,-74.17 431.72,-83.08 436.02,-77.56"/>
</a>
</g>
</g>
<!-- Node21 -->
<g id="Node000021" class="node">
<title>Node21</title>
<g id="a_Node000021"><a xlink:title=" ">
<polygon fill="#e0e0e0" stroke="#999999" points="651.36,-74 572.36,-74 572.36,-55 651.36,-55 651.36,-74"/>
<text text-anchor="middle" x="611.86" y="-62" font-family="Helvetica,sans-Serif" font-size="10.00">fmt/format.h</text>
</a>
</g>
</g>
<!-- Node20&#45;&gt;Node21 -->
<g id="edge30_Node000020_Node000021" class="edge">
<title>Node20&#45;&gt;Node21</title>
<g id="a_edge30_Node000020_Node000021"><a xlink:title=" ">
<path fill="none" stroke="#63b8ff" d="M503.59,-109.98C524.62,-101.34 557.41,-87.87 581.4,-78.02"/>
<polygon fill="#63b8ff" stroke="#63b8ff" points="582.84,-81.21 590.76,-74.17 580.18,-74.73 582.84,-81.21"/>
</a>
</g>
</g>
<!-- Node22 -->
<g id="Node000022" class="node">
<title>Node22</title>
<g id="a_Node000022"><a xlink:title=" ">
<polygon fill="#e0e0e0" stroke="#999999" points="553.86,-74 491.86,-74 491.86,-55 553.86,-55 553.86,-74"/>
<text text-anchor="middle" x="522.86" y="-62" font-family="Helvetica,sans-Serif" font-size="10.00">cinttypes</text>
</a>
</g>
</g>
<!-- Node20&#45;&gt;Node22 -->
<g id="edge31_Node000020_Node000022" class="edge">
<title>Node20&#45;&gt;Node22</title>
<g id="a_edge31_Node000020_Node000022"><a xlink:title=" ">
<path fill="none" stroke="#63b8ff" d="M489.47,-109.75C495.12,-102.26 503.41,-91.28 510.31,-82.13"/>
<polygon fill="#63b8ff" stroke="#63b8ff" points="513.15,-84.18 516.38,-74.09 507.56,-79.96 513.15,-84.18"/>
</a>
</g>
</g>
<!-- Node23&#45;&gt;Node3 -->
<g id="edge35_Node000023_Node000003" class="edge">
<title>Node23&#45;&gt;Node3</title>
<g id="a_edge35_Node000023_Node000003"><a xlink:title=" ">
<path fill="none" stroke="#63b8ff" d="M510,-230.84C522.48,-220.97 539.37,-207.41 553.86,-195 568.92,-182.11 569.71,-174.94 586.86,-165 643.64,-132.07 821.64,-120.6 867.86,-74 879.68,-62.09 884.53,-43.26 886.51,-29.2"/>
<polygon fill="#63b8ff" stroke="#63b8ff" points="890,-29.47 887.56,-19.16 883.04,-28.74 890,-29.47"/>
</a>
</g>
</g>
<!-- Node23&#45;&gt;Node6 -->
<g id="edge36_Node000023_Node000006" class="edge">
<title>Node23&#45;&gt;Node6</title>
<g id="a_edge36_Node000023_Node000006"><a xlink:title=" ">
<path fill="none" stroke="#63b8ff" d="M418.86,-239.69C373.48,-233.78 315.34,-221.32 269.86,-195 220.69,-166.55 180.13,-111.05 161.64,-82.84"/>
<polygon fill="#63b8ff" stroke="#63b8ff" points="164.38,-80.63 156.05,-74.1 158.49,-84.41 164.38,-80.63"/>
</a>
</g>
</g>
<!-- Node23&#45;&gt;Node10 -->
<g id="edge37_Node000023_Node000010" class="edge">
<title>Node23&#45;&gt;Node10</title>
<g id="a_edge37_Node000023_Node000010"><a xlink:title=" ">
<path fill="none" stroke="#63b8ff" d="M506.2,-230.72C529.81,-207.2 576.68,-160.52 601.16,-136.14"/>
<polygon fill="#63b8ff" stroke="#63b8ff" points="603.64,-138.61 608.26,-129.07 598.7,-133.65 603.64,-138.61"/>
</a>
</g>
</g>
<!-- Node23&#45;&gt;Node15 -->
<g id="edge38_Node000023_Node000015" class="edge">
<title>Node23&#45;&gt;Node15</title>
<g id="a_edge38_Node000023_Node000015"><a xlink:title=" ">
<path fill="none" stroke="#63b8ff" d="M469.04,-230.95C451.68,-220.27 427.92,-205.65 410.59,-194.98"/>
<polygon fill="#63b8ff" stroke="#63b8ff" points="412.05,-191.78 401.7,-189.52 408.38,-197.74 412.05,-191.78"/>
</a>
</g>
</g>
<!-- Node24 -->
<g id="Node000024" class="node">
<title>Node24</title>
<g id="a_Node000024"><a xlink:href="array__to__map_8hpp.html" target="_top" xlink:title=" ">
<polygon fill="white" stroke="#666666" points="1031.86,-195 919.86,-195 919.86,-165 1031.86,-165 1031.86,-195"/>
<text text-anchor="start" x="927.86" y="-183" font-family="Helvetica,sans-Serif" font-size="10.00">wmtk/utils/array_to</text>
<text text-anchor="middle" x="975.86" y="-172" font-family="Helvetica,sans-Serif" font-size="10.00">_map.hpp</text>
</a>
</g>
</g>
<!-- Node23&#45;&gt;Node24 -->
<g id="edge39_Node000023_Node000024" class="edge">
<title>Node23&#45;&gt;Node24</title>
<g id="a_edge39_Node000023_Node000024"><a xlink:title=" ">
<path fill="none" stroke="#63b8ff" d="M565.14,-232.25C568.09,-231.82 571,-231.4 573.86,-231 719.86,-210.76 760.41,-218.54 909.58,-195.1"/>
<polygon fill="#63b8ff" stroke="#63b8ff" points="910.23,-198.54 919.56,-193.51 909.13,-191.62 910.23,-198.54"/>
</a>
</g>
</g>
<!-- Node25 -->
<g id="Node000025" class="node">
<title>Node25</title>
<g id="a_Node000025"><a xlink:href="edge__mesh_2autogenerated__tables_8hpp.html" target="_top" xlink:title=" ">
<polygon fill="white" stroke="#666666" points="739.86,-189.5 595.86,-189.5 595.86,-170.5 739.86,-170.5 739.86,-189.5"/>
<text text-anchor="middle" x="667.86" y="-177.5" font-family="Helvetica,sans-Serif" font-size="10.00">autogenerated_tables.hpp</text>
</a>
</g>
</g>
<!-- Node23&#45;&gt;Node25 -->
<g id="edge40_Node000023_Node000025" class="edge">
<title>Node23&#45;&gt;Node25</title>
<g id="a_edge40_Node000023_Node000025"><a xlink:title=" ">
<path fill="none" stroke="#63b8ff" d="M530.49,-230.95C561.76,-219.58 605.33,-203.74 634.96,-192.96"/>
<polygon fill="#63b8ff" stroke="#63b8ff" points="636.24,-196.22 644.44,-189.52 633.84,-189.65 636.24,-196.22"/>
</a>
</g>
</g>
<!-- Node25&#45;&gt;Node17 -->
<g id="edge41_Node000025_Node000017" class="edge">
<title>Node25&#45;&gt;Node17</title>
<g id="a_edge41_Node000025_Node000017"><a xlink:title=" ">
<path fill="none" stroke="#63b8ff" d="M689.81,-170.47C740.96,-150.59 868.29,-101.09 928,-77.88"/>
<polygon fill="#63b8ff" stroke="#63b8ff" points="929.61,-81.02 937.66,-74.13 927.07,-74.49 929.61,-81.02"/>
</a>
</g>
</g>
<!-- Node26&#45;&gt;Node3 -->
<g id="edge43_Node000026_Node000003" class="edge">
<title>Node26&#45;&gt;Node3</title>
<g id="a_edge43_Node000026_Node000003"><a xlink:title=" ">
<path fill="none" stroke="#63b8ff" d="M1086.25,-230.96C1100.35,-222.27 1116.99,-209.93 1127.86,-195 1164.93,-144.08 1190.5,-103.12 1149.86,-55 1122.59,-22.71 1000.18,-13.85 932.76,-11.42"/>
<polygon fill="#63b8ff" stroke="#63b8ff" points="932.54,-7.91 922.43,-11.08 932.31,-14.9 932.54,-7.91"/>
</a>
</g>
</g>
<!-- Node26&#45;&gt;Node6 -->
<g id="edge44_Node000026_Node000006" class="edge">
<title>Node26&#45;&gt;Node6</title>
<g id="a_edge44_Node000026_Node000006"><a xlink:title=" ">
<path fill="none" stroke="#63b8ff" d="M1061.13,-230.84C1061.89,-212.5 1060.06,-180.98 1040.86,-165 980.24,-114.54 409,-145.47 331.86,-129 309.02,-124.12 304.82,-117.96 282.86,-110 250.6,-98.31 213.56,-85.91 186.94,-77.18"/>
<polygon fill="#63b8ff" stroke="#63b8ff" points="187.87,-73.8 177.28,-74.02 185.7,-80.46 187.87,-73.8"/>
</a>
</g>
</g>
<!-- Node26&#45;&gt;Node10 -->
<g id="edge45_Node000026_Node000010" class="edge">
<title>Node26&#45;&gt;Node10</title>
<g id="a_edge45_Node000026_Node000010"><a xlink:title=" ">
<path fill="none" stroke="#63b8ff" d="M1068.49,-230.92C1078.1,-213.25 1090.25,-183.06 1073.86,-165 1047.57,-136.02 792.83,-125.32 675.5,-121.9"/>
<polygon fill="#63b8ff" stroke="#63b8ff" points="675.35,-118.4 665.26,-121.61 675.16,-125.4 675.35,-118.4"/>
</a>
</g>
</g>
<!-- Node26&#45;&gt;Node15 -->
<g id="edge46_Node000026_Node000015" class="edge">
<title>Node26&#45;&gt;Node15</title>
<g id="a_edge46_Node000026_Node000015"><a xlink:title=" ">
<path fill="none" stroke="#63b8ff" d="M993.28,-238.66C870.77,-226.99 609.77,-202.13 473.97,-189.2"/>
<polygon fill="#63b8ff" stroke="#63b8ff" points="474.31,-185.72 464.02,-188.25 473.64,-192.69 474.31,-185.72"/>
</a>
</g>
</g>
<!-- Node26&#45;&gt;Node24 -->
<g id="edge47_Node000026_Node000024" class="edge">
<title>Node26&#45;&gt;Node24</title>
<g id="a_edge47_Node000026_Node000024"><a xlink:title=" ">
<path fill="none" stroke="#63b8ff" d="M1041.22,-230.8C1029.91,-222.18 1015.29,-211.04 1002.74,-201.48"/>
<polygon fill="#63b8ff" stroke="#63b8ff" points="1004.53,-198.44 994.45,-195.16 1000.28,-204.01 1004.53,-198.44"/>
</a>
</g>
</g>
<!-- Node27 -->
<g id="Node000027" class="node">
<title>Node27</title>
<g id="a_Node000027"><a xlink:href="tri__mesh_2autogenerated__tables_8hpp.html" target="_top" xlink:title=" ">
<polygon fill="white" stroke="#666666" points="1069.86,-129 925.86,-129 925.86,-110 1069.86,-110 1069.86,-129"/>
<text text-anchor="middle" x="997.86" y="-117" font-family="Helvetica,sans-Serif" font-size="10.00">autogenerated_tables.hpp</text>
</a>
</g>
</g>
<!-- Node26&#45;&gt;Node27 -->
<g id="edge48_Node000026_Node000027" class="edge">
<title>Node26&#45;&gt;Node27</title>
<g id="a_edge48_Node000026_Node000027"><a xlink:title=" ">
<path fill="none" stroke="#63b8ff" d="M1080,-231C1100.58,-214.93 1127.47,-187.84 1111.86,-165 1100.89,-148.94 1083.19,-138.68 1064.97,-132.12"/>
<polygon fill="#63b8ff" stroke="#63b8ff" points="1066.02,-128.78 1055.43,-129.01 1063.86,-135.43 1066.02,-128.78"/>
</a>
</g>
</g>
<!-- Node27&#45;&gt;Node17 -->
<g id="edge49_Node000027_Node000017" class="edge">
<title>Node27&#45;&gt;Node17</title>
<g id="a_edge49_Node000027_Node000017"><a xlink:title=" ">
<path fill="none" stroke="#63b8ff" d="M991.59,-109.75C986.27,-102.34 978.51,-91.5 971.99,-82.41"/>
<polygon fill="#63b8ff" stroke="#63b8ff" points="974.69,-80.18 966.02,-74.09 969,-84.26 974.69,-80.18"/>
</a>
</g>
</g>
<!-- Node28&#45;&gt;Node3 -->
<g id="edge51_Node000028_Node000003" class="edge">
<title>Node28&#45;&gt;Node3</title>
<g id="a_edge51_Node000028_Node000003"><a xlink:title=" ">
<path fill="none" stroke="#63b8ff" d="M719.24,-243.43C816.74,-240.01 989.6,-229.17 1040.86,-195 1075.29,-172.05 1098.64,-146.35 1078.86,-110 1049.48,-55.99 979.04,-30.31 932.41,-18.85"/>
<polygon fill="#63b8ff" stroke="#63b8ff" points="933.09,-15.42 922.56,-16.56 931.5,-22.24 933.09,-15.42"/>
</a>
</g>
</g>
<!-- Node28&#45;&gt;Node6 -->
<g id="edge52_Node000028_Node000006" class="edge">
<title>Node28&#45;&gt;Node6</title>
<g id="a_edge52_Node000028_Node000006"><a xlink:title=" ">
<path fill="none" stroke="#63b8ff" d="M582.46,-232.39C579.55,-231.91 576.68,-231.44 573.86,-231 453.83,-212.13 413.86,-244.42 302.86,-195 298.9,-193.24 208.46,-115.28 169,-81.19"/>
<polygon fill="#63b8ff" stroke="#63b8ff" points="170.84,-78.15 160.98,-74.26 166.26,-83.44 170.84,-78.15"/>
</a>
</g>
</g>
<!-- Node28&#45;&gt;Node10 -->
<g id="edge53_Node000028_Node000010" class="edge">
<title>Node28&#45;&gt;Node10</title>
<g id="a_edge53_Node000028_Node000010"><a xlink:title=" ">
<path fill="none" stroke="#63b8ff" d="M622.81,-230.95C609.29,-222.54 594.4,-210.46 586.86,-195 577.46,-175.72 590.19,-152.72 601.84,-137.42"/>
<polygon fill="#63b8ff" stroke="#63b8ff" points="604.79,-139.35 608.41,-129.39 599.37,-134.92 604.79,-139.35"/>
</a>
</g>
</g>
<!-- Node28&#45;&gt;Node15 -->
<g id="edge54_Node000028_Node000015" class="edge">
<title>Node28&#45;&gt;Node15</title>
<g id="a_edge54_Node000028_Node000015"><a xlink:title=" ">
<path fill="none" stroke="#63b8ff" d="M593.14,-230.95C544.89,-219.21 477.03,-202.7 432.76,-191.93"/>
<polygon fill="#63b8ff" stroke="#63b8ff" points="433.41,-188.48 422.86,-189.52 431.75,-195.28 433.41,-188.48"/>
</a>
</g>
</g>
<!-- Node28&#45;&gt;Node24 -->
<g id="edge55_Node000028_Node000024" class="edge">
<title>Node28&#45;&gt;Node24</title>
<g id="a_edge55_Node000028_Node000024"><a xlink:title=" ">
<path fill="none" stroke="#63b8ff" d="M719.1,-232.31C769.23,-222.88 839.26,-209.51 909.89,-195.17"/>
<polygon fill="#63b8ff" stroke="#63b8ff" points="910.76,-198.57 919.86,-193.14 909.36,-191.71 910.76,-198.57"/>
</a>
</g>
</g>
<!-- Node29 -->
<g id="Node000029" class="node">
<title>Node29</title>
<g id="a_Node000029"><a xlink:href="tet__mesh_2autogenerated__tables_8hpp.html" target="_top" xlink:title=" ">
<polygon fill="white" stroke="#666666" points="901.86,-189.5 757.86,-189.5 757.86,-170.5 901.86,-170.5 901.86,-189.5"/>
<text text-anchor="middle" x="829.86" y="-177.5" font-family="Helvetica,sans-Serif" font-size="10.00">autogenerated_tables.hpp</text>
</a>
</g>
</g>
<!-- Node28&#45;&gt;Node29 -->
<g id="edge56_Node000028_Node000029" class="edge">
<title>Node28&#45;&gt;Node29</title>
<g id="a_edge56_Node000028_Node000029"><a xlink:title=" ">
<path fill="none" stroke="#63b8ff" d="M690.14,-230.95C721.95,-219.58 766.27,-203.74 796.4,-192.96"/>
<polygon fill="#63b8ff" stroke="#63b8ff" points="797.8,-196.18 806.04,-189.52 795.44,-189.59 797.8,-196.18"/>
</a>
</g>
</g>
<!-- Node29&#45;&gt;Node17 -->
<g id="edge57_Node000029_Node000017" class="edge">
<title>Node29&#45;&gt;Node17</title>
<g id="a_edge57_Node000029_Node000017"><a xlink:title=" ">
<path fill="none" stroke="#63b8ff" d="M839.63,-170.47C861.47,-151.41 914.47,-105.13 942.23,-80.89"/>
<polygon fill="#63b8ff" stroke="#63b8ff" points="944.75,-83.34 949.98,-74.13 940.14,-78.07 944.75,-83.34"/>
</a>
</g>
</g>
</g>
</svg>

<g id="navigator" transform="translate(0 0)" fill="#404254">
  <rect fill="#f2f5e9" fill-opacity="0.5" stroke="#606060" stroke-width=".5" x="0" y="0" width="60" height="60"/>
  <use id="zoomplus" xlink:href="#zoomPlus" x="17" y="9" onmousedown="handleZoom(evt,'in')"/>
  <use id="zoomminus" xlink:href="#zoomMin" x="42" y="9" onmousedown="handleZoom(evt,'out')"/>
  <use id="reset" xlink:href="#resetDef" x="30" y="36" onmousedown="handleReset()"/>
   <use id="arrowup" xlink:href="#arrowUp" x="0" y="0" onmousedown="handlePan(0,-1)"/>
  <use id="arrowright" xlink:href="#arrowRight" x="0" y="0" onmousedown="handlePan(1,0)"/>
  <use id="arrowdown" xlink:href="#arrowDown" x="0" y="0" onmousedown="handlePan(0,1)"/>
  <use id="arrowleft" xlink:href="#arrowLeft" x="0" y="0" onmousedown="handlePan(-1,0)"/>
</g>
<svg viewBox="0 0 15 15" width="100%" height="30px" preserveAspectRatio="xMaxYMin meet">
 <g id="arrow_out" transform="scale(0.3 0.3)">
  <a xlink:href="get__simplex__dart_8hpp__incl_org.svg" target="_base">
   <rect id="button" ry="5" rx="5" y="6" x="6" height="38" width="38"
        fill="#f2f5e9" fill-opacity="0.5" stroke="#606060" stroke-width="1.0"/>
   <path id="arrow"
     d="M 11.500037,31.436501 C 11.940474,20.09759 22.043105,11.32322 32.158766,21.979434 L 37.068811,17.246167 C 37.068811,17.246167 37.088388,32 37.088388,32 L 22.160133,31.978069 C 22.160133,31.978069 26.997745,27.140456 26.997745,27.140456 C 18.528582,18.264221 13.291696,25.230495 11.500037,31.436501 z"
     style="fill:#404040;"/>
  </a>
 </g>
</svg>

<style type='text/css'>
<![CDATA[
[data-mouse-over-selected='false'] { opacity: 0.7; }
[data-mouse-over-selected='true']  { opacity: 1.0; }
]]>
</style>
<script type="application/ecmascript"><![CDATA[
document.addEventListener('DOMContentLoaded', (event) => {
  highlightEdges();
  highlightAdjacentNodes();
});
]]></script>
</svg>
