<?xml version="1.0" encoding="UTF-8" standalone="no"?>
<!DOCTYPE svg PUBLIC "-//W3C//DTD SVG 1.1//EN"
 "http://www.w3.org/Graphics/SVG/1.1/DTD/svg11.dtd">
<!-- Generated by graphviz version 2.43.0 (0)
 -->
<!-- Title: src/wmtk/dart/utils/get_faces.cpp Pages: 1 -->
<!--zoomable 324 -->

<svg id="main" version="1.1" xmlns="http://www.w3.org/2000/svg" xmlns:xlink="http://www.w3.org/1999/xlink" xml:space="preserve" onload="init(evt)">
<style type="text/css"><![CDATA[
.node, .edge {opacity: 0.7;}
.node.selected, .edge.selected {opacity: 1;}
.edge:hover path { stroke: red; }
.edge:hover polygon { stroke: red; fill: red; }
]]></style>

<defs>
  <circle id="rim" cx="0" cy="0" r="7"/>
  <circle id="rim2" cx="0" cy="0" r="3.5"/>
  <g id="zoomPlus">
    <use xlink:href="#rim" fill="#404040"><set attributeName="fill" to="#808080" begin="zoomplus.mouseover" end="zoomplus.mouseout"/></use>
    <path d="M-4,0h8M0,-4v8" fill="none" stroke="white" stroke-width="1.5" pointer-events="none"/>
  </g>
  <g id="zoomMin">
    <use xlink:href="#rim" fill="#404040"><set attributeName="fill" to="#808080" begin="zoomminus.mouseover" end="zoomminus.mouseout"/></use>
    <path d="M-4,0h8" fill="none" stroke="white" stroke-width="1.5" pointer-events="none"/>
  </g>
  <g id="arrowUp" transform="translate(30 24)">
    <use xlink:href="#rim"/>
    <path pointer-events="none" fill="none" stroke="white" stroke-width="1.5" d="M0,-3.0v7 M-2.5,-0.5L0,-3.0L2.5,-0.5"/>
  </g>
  <g id="arrowRight" transform="rotate(90) translate(36 -43)">
    <use xlink:href="#rim"/>
    <path pointer-events="none" fill="none" stroke="white" stroke-width="1.5" d="M0,-3.0v7 M-2.5,-0.5L0,-3.0L2.5,-0.5"/>
  </g>
  <g id="arrowDown" transform="rotate(180) translate(-30 -48)">
    <use xlink:href="#rim"/>
    <path pointer-events="none" fill="none" stroke="white" stroke-width="1.5" d="M0,-3.0v7 M-2.5,-0.5L0,-3.0L2.5,-0.5"/>
  </g>
  <g id="arrowLeft" transform="rotate(270) translate(-36 17)">
    <use xlink:href="#rim"/>
    <path pointer-events="none" fill="none" stroke="white" stroke-width="1.5" d="M0,-3.0v7 M-2.5,-0.5L0,-3.0L2.5,-0.5"/>
  </g>
  <g id="resetDef">
    <use xlink:href="#rim2" fill="#404040"><set attributeName="fill" to="#808080" begin="reset.mouseover" end="reset.mouseout"/></use>
  </g>
</defs>
<script type="application/ecmascript">
var viewWidth = 994;
var viewHeight = 324;
var sectionId = 'dynsection-0';
</script>
<script type="application/ecmascript" xlink:href="svg.min.js"/>
<svg id="graph" class="graph">
<g id="viewport">
<title>src/wmtk/dart/utils/get_faces.cpp</title>
<!-- Node1 -->
<g id="Node000001" class="node">
<title>Node1</title>
<g id="a_Node000001"><a xlink:title=" ">
<polygon fill="#999999" stroke="#666666" points="393.5,-316 285.5,-316 285.5,-286 393.5,-286 393.5,-316"/>
<text text-anchor="start" x="293.5" y="-304" font-family="Helvetica,sans-Serif" font-size="10.00">src/wmtk/dart/utils</text>
<text text-anchor="middle" x="339.5" y="-293" font-family="Helvetica,sans-Serif" font-size="10.00">/get_faces.cpp</text>
</a>
</g>
</g>
<!-- Node2 -->
<g id="Node000002" class="node">
<title>Node2</title>
<g id="a_Node000002"><a xlink:href="get__faces_8hpp.html" target="_top" xlink:title=" ">
<polygon fill="white" stroke="#666666" points="322,-244.5 237,-244.5 237,-225.5 322,-225.5 322,-244.5"/>
<text text-anchor="middle" x="279.5" y="-232.5" font-family="Helvetica,sans-Serif" font-size="10.00">get_faces.hpp</text>
</a>
</g>
</g>
<!-- Node1&#45;&gt;Node2 -->
<g id="edge1_Node000001_Node000002" class="edge">
<title>Node1&#45;&gt;Node2</title>
<g id="a_edge1_Node000001_Node000002"><a xlink:title=" ">
<path fill="none" stroke="#63b8ff" d="M326.18,-285.8C316.92,-275.92 304.55,-262.72 294.87,-252.39"/>
<polygon fill="#63b8ff" stroke="#63b8ff" points="297.18,-249.75 287.79,-244.84 292.08,-254.53 297.18,-249.75"/>
</a>
</g>
</g>
<!-- Node8 -->
<g id="Node000008" class="node">
<title>Node8</title>
<g id="a_Node000008"><a xlink:href="get__local__vertex__permutation_8hpp.html" target="_top" xlink:title=" ">
<polygon fill="white" stroke="#666666" points="318.5,-184 134.5,-184 134.5,-165 318.5,-165 318.5,-184"/>
<text text-anchor="middle" x="226.5" y="-172" font-family="Helvetica,sans-Serif" font-size="10.00">get_local_vertex_permutation.hpp</text>
</a>
</g>
</g>
<!-- Node1&#45;&gt;Node8 -->
<g id="edge7_Node000001_Node000008" class="edge">
<title>Node1&#45;&gt;Node8</title>
<g id="a_edge7_Node000001_Node000008"><a xlink:title=" ">
<path fill="none" stroke="#63b8ff" d="M285.23,-288.75C263.89,-281.42 241.44,-269.44 228.5,-250 217.55,-233.55 218.96,-210.2 221.87,-194.05"/>
<polygon fill="#63b8ff" stroke="#63b8ff" points="225.31,-194.7 224,-184.19 218.47,-193.23 225.31,-194.7"/>
</a>
</g>
</g>
<!-- Node15 -->
<g id="Node000015" class="node">
<title>Node15</title>
<g id="a_Node000015"><a xlink:href="dart_2_simplex_dart_8hpp.html" target="_top" xlink:title=" ">
<polygon fill="white" stroke="#666666" points="560.5,-184 408.5,-184 408.5,-165 560.5,-165 560.5,-184"/>
<text text-anchor="middle" x="484.5" y="-172" font-family="Helvetica,sans-Serif" font-size="10.00">wmtk/dart/SimplexDart.hpp</text>
</a>
</g>
</g>
<!-- Node1&#45;&gt;Node15 -->
<g id="edge17_Node000001_Node000015" class="edge">
<title>Node1&#45;&gt;Node15</title>
<g id="a_edge17_Node000001_Node000015"><a xlink:title=" ">
<path fill="none" stroke="#63b8ff" d="M393.62,-292.06C420.56,-285.32 451.38,-272.89 470.5,-250 483.39,-234.57 485.88,-211.03 485.79,-194.55"/>
<polygon fill="#63b8ff" stroke="#63b8ff" points="489.29,-194.32 485.42,-184.46 482.29,-194.58 489.29,-194.32"/>
</a>
</g>
</g>
<!-- Node25 -->
<g id="Node000025" class="node">
<title>Node25</title>
<g id="a_Node000025"><a xlink:href="get__canonical__faces_8hpp.html" target="_top" xlink:title=" ">
<polygon fill="white" stroke="#666666" points="461,-250 340,-250 340,-220 461,-220 461,-250"/>
<text text-anchor="start" x="348" y="-238" font-family="Helvetica,sans-Serif" font-size="10.00">wmtk/dart/utils/get</text>
<text text-anchor="middle" x="400.5" y="-227" font-family="Helvetica,sans-Serif" font-size="10.00">_canonical_faces.hpp</text>
</a>
</g>
</g>
<!-- Node1&#45;&gt;Node25 -->
<g id="edge35_Node000001_Node000025" class="edge">
<title>Node1&#45;&gt;Node25</title>
<g id="a_edge35_Node000001_Node000025"><a xlink:title=" ">
<path fill="none" stroke="#63b8ff" d="M353.04,-285.8C360.94,-277.51 371.06,-266.89 379.92,-257.59"/>
<polygon fill="#63b8ff" stroke="#63b8ff" points="382.63,-259.82 387,-250.16 377.57,-254.99 382.63,-259.82"/>
</a>
</g>
</g>
<!-- Node3 -->
<g id="Node000003" class="node">
<title>Node3</title>
<g id="a_Node000003"><a xlink:title=" ">
<polygon fill="#e0e0e0" stroke="#999999" points="381.5,-184 341.5,-184 341.5,-165 381.5,-165 381.5,-184"/>
<text text-anchor="middle" x="361.5" y="-172" font-family="Helvetica,sans-Serif" font-size="10.00">span</text>
</a>
</g>
</g>
<!-- Node2&#45;&gt;Node3 -->
<g id="edge2_Node000002_Node000003" class="edge">
<title>Node2&#45;&gt;Node3</title>
<g id="a_edge2_Node000002_Node000003"><a xlink:title=" ">
<path fill="none" stroke="#63b8ff" d="M291.6,-225.37C304.56,-216.12 325.36,-201.28 340.9,-190.19"/>
<polygon fill="#63b8ff" stroke="#63b8ff" points="343.24,-192.82 349.35,-184.17 339.18,-187.13 343.24,-192.82"/>
</a>
</g>
</g>
<!-- Node4 -->
<g id="Node000004" class="node">
<title>Node4</title>
<g id="a_Node000004"><a xlink:href="_primitive_type_8hpp.html" target="_top" xlink:title=" ">
<polygon fill="white" stroke="#666666" points="197,-74 62,-74 62,-55 197,-55 197,-74"/>
<text text-anchor="middle" x="129.5" y="-62" font-family="Helvetica,sans-Serif" font-size="10.00">wmtk/PrimitiveType.hpp</text>
</a>
</g>
</g>
<!-- Node2&#45;&gt;Node4 -->
<g id="edge3_Node000002_Node000004" class="edge">
<title>Node2&#45;&gt;Node4</title>
<g id="a_edge3_Node000002_Node000004"><a xlink:title=" ">
<path fill="none" stroke="#63b8ff" d="M236.7,-233.1C200.53,-229.78 150.7,-218.68 125.5,-184 104.1,-154.55 114.17,-109.25 122.45,-84.04"/>
<polygon fill="#63b8ff" stroke="#63b8ff" points="125.86,-84.88 125.9,-74.29 119.26,-82.55 125.86,-84.88"/>
</a>
</g>
</g>
<!-- Node5 -->
<g id="Node000005" class="node">
<title>Node5</title>
<g id="a_Node000005"><a xlink:title=" ">
<polygon fill="#e0e0e0" stroke="#999999" points="130,-19 65,-19 65,0 130,0 130,-19"/>
<text text-anchor="middle" x="97.5" y="-7" font-family="Helvetica,sans-Serif" font-size="10.00">stdexcept</text>
</a>
</g>
</g>
<!-- Node4&#45;&gt;Node5 -->
<g id="edge4_Node000004_Node000005" class="edge">
<title>Node4&#45;&gt;Node5</title>
<g id="a_edge4_Node000004_Node000005"><a xlink:title=" ">
<path fill="none" stroke="#63b8ff" d="M124.22,-54.75C119.79,-47.42 113.34,-36.73 107.88,-27.7"/>
<polygon fill="#63b8ff" stroke="#63b8ff" points="110.85,-25.84 102.69,-19.09 104.86,-29.46 110.85,-25.84"/>
</a>
</g>
</g>
<!-- Node6 -->
<g id="Node000006" class="node">
<title>Node6</title>
<g id="a_Node000006"><a xlink:title=" ">
<polygon fill="#e0e0e0" stroke="#999999" points="221,-19 148,-19 148,0 221,0 221,-19"/>
<text text-anchor="middle" x="184.5" y="-7" font-family="Helvetica,sans-Serif" font-size="10.00">string_view</text>
</a>
</g>
</g>
<!-- Node4&#45;&gt;Node6 -->
<g id="edge5_Node000004_Node000006" class="edge">
<title>Node4&#45;&gt;Node6</title>
<g id="a_edge5_Node000004_Node000006"><a xlink:title=" ">
<path fill="none" stroke="#63b8ff" d="M138.58,-54.75C146.59,-47.03 158.46,-35.6 168.12,-26.28"/>
<polygon fill="#63b8ff" stroke="#63b8ff" points="170.81,-28.55 175.59,-19.09 165.96,-23.51 170.81,-28.55"/>
</a>
</g>
</g>
<!-- Node7 -->
<g id="Node000007" class="node">
<title>Node7</title>
<g id="a_Node000007"><a xlink:title=" ">
<polygon fill="#e0e0e0" stroke="#999999" points="47,-19 0,-19 0,0 47,0 47,-19"/>
<text text-anchor="middle" x="23.5" y="-7" font-family="Helvetica,sans-Serif" font-size="10.00">vector</text>
</a>
</g>
</g>
<!-- Node4&#45;&gt;Node7 -->
<g id="edge6_Node000004_Node000007" class="edge">
<title>Node4&#45;&gt;Node7</title>
<g id="a_edge6_Node000004_Node000007"><a xlink:title=" ">
<path fill="none" stroke="#63b8ff" d="M112.47,-54.98C95.57,-46.54 69.44,-33.47 49.86,-23.68"/>
<polygon fill="#63b8ff" stroke="#63b8ff" points="51.35,-20.51 40.84,-19.17 48.22,-26.77 51.35,-20.51"/>
</a>
</g>
</g>
<!-- Node8&#45;&gt;Node4 -->
<g id="edge9_Node000008_Node000004" class="edge">
<title>Node8&#45;&gt;Node4</title>
<g id="a_edge9_Node000008_Node000004"><a xlink:title=" ">
<path fill="none" stroke="#63b8ff" d="M214.06,-164.85C202.52,-156.47 185.26,-143.02 172.5,-129 159.52,-114.74 147.46,-96.29 139.44,-82.95"/>
<polygon fill="#63b8ff" stroke="#63b8ff" points="142.43,-81.14 134.35,-74.28 136.39,-84.68 142.43,-81.14"/>
</a>
</g>
</g>
<!-- Node9 -->
<g id="Node000009" class="node">
<title>Node9</title>
<g id="a_Node000009"><a xlink:title=" ">
<polygon fill="#e0e0e0" stroke="#999999" points="308,-19 239,-19 239,0 308,0 308,-19"/>
<text text-anchor="middle" x="273.5" y="-7" font-family="Helvetica,sans-Serif" font-size="10.00">Eigen/Core</text>
</a>
</g>
</g>
<!-- Node8&#45;&gt;Node9 -->
<g id="edge8_Node000008_Node000009" class="edge">
<title>Node8&#45;&gt;Node9</title>
<g id="a_edge8_Node000008_Node000009"><a xlink:title=" ">
<path fill="none" stroke="#63b8ff" d="M229.03,-164.74C236.39,-139.2 257.95,-64.43 268.1,-29.23"/>
<polygon fill="#63b8ff" stroke="#63b8ff" points="271.55,-29.89 270.96,-19.31 264.83,-27.95 271.55,-29.89"/>
</a>
</g>
</g>
<!-- Node10 -->
<g id="Node000010" class="node">
<title>Node10</title>
<g id="a_Node000010"><a xlink:href="_types_8hpp.html" target="_top" xlink:title=" ">
<polygon fill="white" stroke="#666666" points="378.5,-129 282.5,-129 282.5,-110 378.5,-110 378.5,-129"/>
<text text-anchor="middle" x="330.5" y="-117" font-family="Helvetica,sans-Serif" font-size="10.00">wmtk/Types.hpp</text>
</a>
</g>
</g>
<!-- Node8&#45;&gt;Node10 -->
<g id="edge10_Node000008_Node000010" class="edge">
<title>Node8&#45;&gt;Node10</title>
<g id="a_edge10_Node000008_Node000010"><a xlink:title=" ">
<path fill="none" stroke="#63b8ff" d="M243.21,-164.98C259.71,-156.57 285.2,-143.59 304.38,-133.81"/>
<polygon fill="#63b8ff" stroke="#63b8ff" points="306.17,-136.83 313.49,-129.17 302.99,-130.59 306.17,-136.83"/>
</a>
</g>
</g>
<!-- Node10&#45;&gt;Node9 -->
<g id="edge11_Node000010_Node000009" class="edge">
<title>Node10&#45;&gt;Node9</title>
<g id="a_edge11_Node000010_Node000009"><a xlink:title=" ">
<path fill="none" stroke="#63b8ff" d="M317.47,-109.92C306.53,-101.97 291.45,-89.11 283.5,-74 276.26,-60.25 273.94,-42.68 273.33,-29.5"/>
<polygon fill="#63b8ff" stroke="#63b8ff" points="276.82,-29.2 273.15,-19.27 269.82,-29.33 276.82,-29.2"/>
</a>
</g>
</g>
<!-- Node11 -->
<g id="Node000011" class="node">
<title>Node11</title>
<g id="a_Node000011"><a xlink:href="_rational_8hpp.html" target="_top" xlink:title=" ">
<polygon fill="white" stroke="#666666" points="425,-74 292,-74 292,-55 425,-55 425,-74"/>
<text text-anchor="middle" x="358.5" y="-62" font-family="Helvetica,sans-Serif" font-size="10.00">wmtk/utils/Rational.hpp</text>
</a>
</g>
</g>
<!-- Node10&#45;&gt;Node11 -->
<g id="edge12_Node000010_Node000011" class="edge">
<title>Node10&#45;&gt;Node11</title>
<g id="a_edge12_Node000010_Node000011"><a xlink:title=" ">
<path fill="none" stroke="#63b8ff" d="M335.12,-109.75C338.96,-102.49 344.52,-91.95 349.26,-82.98"/>
<polygon fill="#63b8ff" stroke="#63b8ff" points="352.39,-84.57 353.96,-74.09 346.2,-81.3 352.39,-84.57"/>
</a>
</g>
</g>
<!-- Node11&#45;&gt;Node9 -->
<g id="edge13_Node000011_Node000009" class="edge">
<title>Node11&#45;&gt;Node9</title>
<g id="a_edge13_Node000011_Node000009"><a xlink:title=" ">
<path fill="none" stroke="#63b8ff" d="M344.84,-54.98C331.66,-46.77 311.47,-34.18 295.93,-24.49"/>
<polygon fill="#63b8ff" stroke="#63b8ff" points="297.74,-21.49 287.41,-19.17 294.04,-27.43 297.74,-21.49"/>
</a>
</g>
</g>
<!-- Node12 -->
<g id="Node000012" class="node">
<title>Node12</title>
<g id="a_Node000012"><a xlink:title=" ">
<polygon fill="#e0e0e0" stroke="#999999" points="382,-19 335,-19 335,0 382,0 382,-19"/>
<text text-anchor="middle" x="358.5" y="-7" font-family="Helvetica,sans-Serif" font-size="10.00">gmp.h</text>
</a>
</g>
</g>
<!-- Node11&#45;&gt;Node12 -->
<g id="edge14_Node000011_Node000012" class="edge">
<title>Node11&#45;&gt;Node12</title>
<g id="a_edge14_Node000011_Node000012"><a xlink:title=" ">
<path fill="none" stroke="#63b8ff" d="M358.5,-54.75C358.5,-47.8 358.5,-37.85 358.5,-29.13"/>
<polygon fill="#63b8ff" stroke="#63b8ff" points="362,-29.09 358.5,-19.09 355,-29.09 362,-29.09"/>
</a>
</g>
</g>
<!-- Node13 -->
<g id="Node000013" class="node">
<title>Node13</title>
<g id="a_Node000013"><a xlink:title=" ">
<polygon fill="#e0e0e0" stroke="#999999" points="486.5,-19 426.5,-19 426.5,0 486.5,0 486.5,-19"/>
<text text-anchor="middle" x="456.5" y="-7" font-family="Helvetica,sans-Serif" font-size="10.00">iostream</text>
</a>
</g>
</g>
<!-- Node11&#45;&gt;Node13 -->
<g id="edge15_Node000011_Node000013" class="edge">
<title>Node11&#45;&gt;Node13</title>
<g id="a_edge15_Node000011_Node000013"><a xlink:title=" ">
<path fill="none" stroke="#63b8ff" d="M374.25,-54.98C389.73,-46.61 413.59,-33.7 431.64,-23.95"/>
<polygon fill="#63b8ff" stroke="#63b8ff" points="433.34,-27.01 440.47,-19.17 430.01,-20.85 433.34,-27.01"/>
</a>
</g>
</g>
<!-- Node14 -->
<g id="Node000014" class="node">
<title>Node14</title>
<g id="a_Node000014"><a xlink:title=" ">
<polygon fill="#e0e0e0" stroke="#999999" points="573.5,-19 529.5,-19 529.5,0 573.5,0 573.5,-19"/>
<text text-anchor="middle" x="551.5" y="-7" font-family="Helvetica,sans-Serif" font-size="10.00">string</text>
</a>
</g>
</g>
<!-- Node11&#45;&gt;Node14 -->
<g id="edge16_Node000011_Node000014" class="edge">
<title>Node11&#45;&gt;Node14</title>
<g id="a_edge16_Node000011_Node000014"><a xlink:title=" ">
<path fill="none" stroke="#63b8ff" d="M389.51,-54.98C425.1,-45.21 483.2,-29.26 519.29,-19.35"/>
<polygon fill="#63b8ff" stroke="#63b8ff" points="520.58,-22.62 529.29,-16.6 518.72,-15.87 520.58,-22.62"/>
</a>
</g>
</g>
<!-- Node15&#45;&gt;Node4 -->
<g id="edge18_Node000015_Node000004" class="edge">
<title>Node15&#45;&gt;Node4</title>
<g id="a_edge18_Node000015_Node000004"><a xlink:title=" ">
<path fill="none" stroke="#63b8ff" d="M428.59,-164.97C385.58,-157.62 324.99,-145.58 273.5,-129 230.69,-115.21 183.41,-92.91 155.09,-78.73"/>
<polygon fill="#63b8ff" stroke="#63b8ff" points="156.41,-75.48 145.91,-74.09 153.25,-81.72 156.41,-75.48"/>
</a>
</g>
</g>
<!-- Node15&#45;&gt;Node10 -->
<g id="edge29_Node000015_Node000010" class="edge">
<title>Node15&#45;&gt;Node10</title>
<g id="a_edge29_Node000015_Node000010"><a xlink:title=" ">
<path fill="none" stroke="#63b8ff" d="M459.76,-164.98C434.13,-156.16 393.87,-142.31 365.09,-132.41"/>
<polygon fill="#63b8ff" stroke="#63b8ff" points="366.03,-129.03 355.44,-129.08 363.75,-135.65 366.03,-129.03"/>
</a>
</g>
</g>
<!-- Node16 -->
<g id="Node000016" class="node">
<title>Node16</title>
<g id="a_Node000016"><a xlink:href="_tuple_8hpp.html" target="_top" xlink:title=" ">
<polygon fill="white" stroke="#666666" points="598.5,-129 504.5,-129 504.5,-110 598.5,-110 598.5,-129"/>
<text text-anchor="middle" x="551.5" y="-117" font-family="Helvetica,sans-Serif" font-size="10.00">wmtk/Tuple.hpp</text>
</a>
</g>
</g>
<!-- Node15&#45;&gt;Node16 -->
<g id="edge19_Node000015_Node000016" class="edge">
<title>Node15&#45;&gt;Node16</title>
<g id="a_edge19_Node000015_Node000016"><a xlink:title=" ">
<path fill="none" stroke="#63b8ff" d="M495.26,-164.98C505.27,-157.07 520.39,-145.11 532.43,-135.58"/>
<polygon fill="#63b8ff" stroke="#63b8ff" points="534.87,-138.12 540.54,-129.17 530.53,-132.63 534.87,-138.12"/>
</a>
</g>
</g>
<!-- Node22 -->
<g id="Node000022" class="node">
<title>Node22</title>
<g id="a_Node000022"><a xlink:href="_dart_8hpp.html" target="_top" xlink:title=" ">
<polygon fill="white" stroke="#666666" points="828,-129 769,-129 769,-110 828,-110 828,-129"/>
<text text-anchor="middle" x="798.5" y="-117" font-family="Helvetica,sans-Serif" font-size="10.00">Dart.hpp</text>
</a>
</g>
</g>
<!-- Node15&#45;&gt;Node22 -->
<g id="edge30_Node000015_Node000022" class="edge">
<title>Node15&#45;&gt;Node22</title>
<g id="a_edge30_Node000015_Node000022"><a xlink:title=" ">
<path fill="none" stroke="#63b8ff" d="M534.95,-164.98C597.29,-154.46 702.08,-136.78 758.93,-127.18"/>
<polygon fill="#63b8ff" stroke="#63b8ff" points="759.69,-130.6 768.96,-125.49 758.52,-123.7 759.69,-130.6"/>
</a>
</g>
</g>
<!-- Node16&#45;&gt;Node4 -->
<g id="edge25_Node000016_Node000004" class="edge">
<title>Node16&#45;&gt;Node4</title>
<g id="a_edge25_Node000016_Node000004"><a xlink:title=" ">
<path fill="none" stroke="#63b8ff" d="M504.32,-112.57C432.32,-103.53 294.25,-86.19 207.28,-75.27"/>
<polygon fill="#63b8ff" stroke="#63b8ff" points="207.55,-71.78 197.2,-74 206.68,-78.72 207.55,-71.78"/>
</a>
</g>
</g>
<!-- Node16&#45;&gt;Node13 -->
<g id="edge22_Node000016_Node000013" class="edge">
<title>Node16&#45;&gt;Node13</title>
<g id="a_edge22_Node000016_Node000013"><a xlink:title=" ">
<path fill="none" stroke="#63b8ff" d="M543.73,-109.66C527.78,-91.54 491.17,-49.91 470.81,-26.77"/>
<polygon fill="#63b8ff" stroke="#63b8ff" points="473.35,-24.36 464.12,-19.16 468.09,-28.98 473.35,-24.36"/>
</a>
</g>
</g>
<!-- Node16&#45;&gt;Node14 -->
<g id="edge23_Node000016_Node000014" class="edge">
<title>Node16&#45;&gt;Node14</title>
<g id="a_edge23_Node000016_Node000014"><a xlink:title=" ">
<path fill="none" stroke="#63b8ff" d="M551.5,-109.66C551.5,-92.17 551.5,-52.8 551.5,-29.27"/>
<polygon fill="#63b8ff" stroke="#63b8ff" points="555,-29.16 551.5,-19.16 548,-29.16 555,-29.16"/>
</a>
</g>
</g>
<!-- Node17 -->
<g id="Node000017" class="node">
<title>Node17</title>
<g id="a_Node000017"><a xlink:title=" ">
<polygon fill="#e0e0e0" stroke="#999999" points="485.5,-74 443.5,-74 443.5,-55 485.5,-55 485.5,-74"/>
<text text-anchor="middle" x="464.5" y="-62" font-family="Helvetica,sans-Serif" font-size="10.00">array</text>
</a>
</g>
</g>
<!-- Node16&#45;&gt;Node17 -->
<g id="edge20_Node000016_Node000017" class="edge">
<title>Node16&#45;&gt;Node17</title>
<g id="a_edge20_Node000016_Node000017"><a xlink:title=" ">
<path fill="none" stroke="#63b8ff" d="M537.52,-109.98C524.03,-101.77 503.37,-89.18 487.46,-79.49"/>
<polygon fill="#63b8ff" stroke="#63b8ff" points="489.09,-76.38 478.73,-74.17 485.45,-82.36 489.09,-76.38"/>
</a>
</g>
</g>
<!-- Node18 -->
<g id="Node000018" class="node">
<title>Node18</title>
<g id="a_Node000018"><a xlink:title=" ">
<polygon fill="#e0e0e0" stroke="#999999" points="629.5,-74 579.5,-74 579.5,-55 629.5,-55 629.5,-74"/>
<text text-anchor="middle" x="604.5" y="-62" font-family="Helvetica,sans-Serif" font-size="10.00">cstdint</text>
</a>
</g>
</g>
<!-- Node16&#45;&gt;Node18 -->
<g id="edge21_Node000016_Node000018" class="edge">
<title>Node16&#45;&gt;Node18</title>
<g id="a_edge21_Node000016_Node000018"><a xlink:title=" ">
<path fill="none" stroke="#63b8ff" d="M560.25,-109.75C567.97,-102.03 579.4,-90.6 588.72,-81.28"/>
<polygon fill="#63b8ff" stroke="#63b8ff" points="591.31,-83.64 595.91,-74.09 586.36,-78.69 591.31,-83.64"/>
</a>
</g>
</g>
<!-- Node19 -->
<g id="Node000019" class="node">
<title>Node19</title>
<g id="a_Node000019"><a xlink:title=" ">
<polygon fill="#e0e0e0" stroke="#999999" points="770,-74 729,-74 729,-55 770,-55 770,-74"/>
<text text-anchor="middle" x="749.5" y="-62" font-family="Helvetica,sans-Serif" font-size="10.00">tuple</text>
</a>
</g>
</g>
<!-- Node16&#45;&gt;Node19 -->
<g id="edge24_Node000016_Node000019" class="edge">
<title>Node16&#45;&gt;Node19</title>
<g id="a_edge24_Node000016_Node000019"><a xlink:title=" ">
<path fill="none" stroke="#63b8ff" d="M584.92,-109.99C617.07,-101.74 667.27,-88.69 719.21,-74.31"/>
<polygon fill="#63b8ff" stroke="#63b8ff" points="720.23,-77.66 728.93,-71.61 718.35,-70.91 720.23,-77.66"/>
</a>
</g>
</g>
<!-- Node20 -->
<g id="Node000020" class="node">
<title>Node20</title>
<g id="a_Node000020"><a xlink:href="_tuple_8hxx.html" target="_top" xlink:title=" ">
<polygon fill="white" stroke="#666666" points="711,-74 648,-74 648,-55 711,-55 711,-74"/>
<text text-anchor="middle" x="679.5" y="-62" font-family="Helvetica,sans-Serif" font-size="10.00">Tuple.hxx</text>
</a>
</g>
</g>
<!-- Node16&#45;&gt;Node20 -->
<g id="edge26_Node000016_Node000020" class="edge">
<title>Node16&#45;&gt;Node20</title>
<g id="a_edge26_Node000016_Node000020"><a xlink:title=" ">
<path fill="none" stroke="#63b8ff" d="M566.95,-109.98C586,-101.3 618.5,-87.75 643.78,-77.88"/>
<polygon fill="#63b8ff" stroke="#63b8ff" points="645.34,-81.03 653.41,-74.17 642.82,-74.5 645.34,-81.03"/>
</a>
</g>
</g>
<!-- Node20&#45;&gt;Node16 -->
<g id="edge27_Node000020_Node000016" class="edge">
<title>Node20&#45;&gt;Node16</title>
<g id="a_edge27_Node000020_Node000016"><a xlink:title=" ">
<path fill="none" stroke="#63b8ff" d="M663.71,-74.17C644.5,-82.91 611.97,-96.47 586.78,-106.29"/>
<polygon fill="#63b8ff" stroke="#63b8ff" points="585.25,-103.13 577.18,-109.98 587.77,-109.66 585.25,-103.13"/>
</a>
</g>
</g>
<!-- Node21 -->
<g id="Node000021" class="node">
<title>Node21</title>
<g id="a_Node000021"><a xlink:title=" ">
<polygon fill="#e0e0e0" stroke="#999999" points="705.5,-19 653.5,-19 653.5,0 705.5,0 705.5,-19"/>
<text text-anchor="middle" x="679.5" y="-7" font-family="Helvetica,sans-Serif" font-size="10.00">cassert</text>
</a>
</g>
</g>
<!-- Node20&#45;&gt;Node21 -->
<g id="edge28_Node000020_Node000021" class="edge">
<title>Node20&#45;&gt;Node21</title>
<g id="a_edge28_Node000020_Node000021"><a xlink:title=" ">
<path fill="none" stroke="#63b8ff" d="M679.5,-54.75C679.5,-47.8 679.5,-37.85 679.5,-29.13"/>
<polygon fill="#63b8ff" stroke="#63b8ff" points="683,-29.09 679.5,-19.09 676,-29.09 683,-29.09"/>
</a>
</g>
</g>
<!-- Node22&#45;&gt;Node14 -->
<g id="edge33_Node000022_Node000014" class="edge">
<title>Node22&#45;&gt;Node14</title>
<g id="a_edge33_Node000022_Node000014"><a xlink:title=" ">
<path fill="none" stroke="#63b8ff" d="M798.56,-109.63C798.14,-95.8 795.19,-69.22 779.5,-55 765.09,-41.94 642.92,-23.29 583.59,-14.89"/>
<polygon fill="#63b8ff" stroke="#63b8ff" points="584,-11.42 573.61,-13.5 583.03,-18.35 584,-11.42"/>
</a>
</g>
</g>
<!-- Node22&#45;&gt;Node19 -->
<g id="edge34_Node000022_Node000019" class="edge">
<title>Node22&#45;&gt;Node19</title>
<g id="a_edge34_Node000022_Node000019"><a xlink:title=" ">
<path fill="none" stroke="#63b8ff" d="M790.41,-109.75C783.34,-102.11 772.91,-90.82 764.35,-81.56"/>
<polygon fill="#63b8ff" stroke="#63b8ff" points="766.8,-79.06 757.44,-74.09 761.66,-83.81 766.8,-79.06"/>
</a>
</g>
</g>
<!-- Node23 -->
<g id="Node000023" class="node">
<title>Node23</title>
<g id="a_Node000023"><a xlink:title=" ">
<polygon fill="#e0e0e0" stroke="#999999" points="906,-74 827,-74 827,-55 906,-55 906,-74"/>
<text text-anchor="middle" x="866.5" y="-62" font-family="Helvetica,sans-Serif" font-size="10.00">fmt/format.h</text>
</a>
</g>
</g>
<!-- Node22&#45;&gt;Node23 -->
<g id="edge31_Node000022_Node000023" class="edge">
<title>Node22&#45;&gt;Node23</title>
<g id="a_edge31_Node000022_Node000023"><a xlink:title=" ">
<path fill="none" stroke="#63b8ff" d="M809.43,-109.98C819.58,-102.07 834.92,-90.11 847.15,-80.58"/>
<polygon fill="#63b8ff" stroke="#63b8ff" points="849.64,-83.08 855.38,-74.17 845.34,-77.56 849.64,-83.08"/>
</a>
</g>
</g>
<!-- Node24 -->
<g id="Node000024" class="node">
<title>Node24</title>
<g id="a_Node000024"><a xlink:title=" ">
<polygon fill="#e0e0e0" stroke="#999999" points="985.5,-74 923.5,-74 923.5,-55 985.5,-55 985.5,-74"/>
<text text-anchor="middle" x="954.5" y="-62" font-family="Helvetica,sans-Serif" font-size="10.00">cinttypes</text>
</a>
</g>
</g>
<!-- Node22&#45;&gt;Node24 -->
<g id="edge32_Node000022_Node000024" class="edge">
<title>Node22&#45;&gt;Node24</title>
<g id="a_edge32_Node000022_Node000024"><a xlink:title=" ">
<path fill="none" stroke="#63b8ff" d="M823.56,-109.98C849.53,-101.16 890.31,-87.31 919.46,-77.41"/>
<polygon fill="#63b8ff" stroke="#63b8ff" points="920.9,-80.61 929.24,-74.08 918.65,-73.99 920.9,-80.61"/>
</a>
</g>
</g>
<!-- Node25&#45;&gt;Node3 -->
<g id="edge36_Node000025_Node000003" class="edge">
<title>Node25&#45;&gt;Node3</title>
<g id="a_edge36_Node000025_Node000003"><a xlink:title=" ">
<path fill="none" stroke="#63b8ff" d="M391.06,-219.84C385.63,-211.69 378.77,-201.4 373.02,-192.78"/>
<polygon fill="#63b8ff" stroke="#63b8ff" points="375.8,-190.65 367.34,-184.27 369.98,-194.53 375.8,-190.65"/>
</a>
</g>
</g>
<!-- Node25&#45;&gt;Node15 -->
<g id="edge37_Node000025_Node000015" class="edge">
<title>Node25&#45;&gt;Node15</title>
<g id="a_edge37_Node000025_Node000015"><a xlink:title=" ">
<path fill="none" stroke="#63b8ff" d="M420.83,-219.84C433.77,-210.83 450.49,-199.18 463.55,-190.09"/>
<polygon fill="#63b8ff" stroke="#63b8ff" points="465.71,-192.85 471.91,-184.27 461.71,-187.11 465.71,-192.85"/>
</a>
</g>
</g>
</g>
</svg>

<g id="navigator" transform="translate(0 0)" fill="#404254">
  <rect fill="#f2f5e9" fill-opacity="0.5" stroke="#606060" stroke-width=".5" x="0" y="0" width="60" height="60"/>
  <use id="zoomplus" xlink:href="#zoomPlus" x="17" y="9" onmousedown="handleZoom(evt,'in')"/>
  <use id="zoomminus" xlink:href="#zoomMin" x="42" y="9" onmousedown="handleZoom(evt,'out')"/>
  <use id="reset" xlink:href="#resetDef" x="30" y="36" onmousedown="handleReset()"/>
   <use id="arrowup" xlink:href="#arrowUp" x="0" y="0" onmousedown="handlePan(0,-1)"/>
  <use id="arrowright" xlink:href="#arrowRight" x="0" y="0" onmousedown="handlePan(1,0)"/>
  <use id="arrowdown" xlink:href="#arrowDown" x="0" y="0" onmousedown="handlePan(0,1)"/>
  <use id="arrowleft" xlink:href="#arrowLeft" x="0" y="0" onmousedown="handlePan(-1,0)"/>
</g>
<svg viewBox="0 0 15 15" width="100%" height="30px" preserveAspectRatio="xMaxYMin meet">
 <g id="arrow_out" transform="scale(0.3 0.3)">
  <a xlink:href="get__faces_8cpp__incl_org.svg" target="_base">
   <rect id="button" ry="5" rx="5" y="6" x="6" height="38" width="38"
        fill="#f2f5e9" fill-opacity="0.5" stroke="#606060" stroke-width="1.0"/>
   <path id="arrow"
     d="M 11.500037,31.436501 C 11.940474,20.09759 22.043105,11.32322 32.158766,21.979434 L 37.068811,17.246167 C 37.068811,17.246167 37.088388,32 37.088388,32 L 22.160133,31.978069 C 22.160133,31.978069 26.997745,27.140456 26.997745,27.140456 C 18.528582,18.264221 13.291696,25.230495 11.500037,31.436501 z"
     style="fill:#404040;"/>
  </a>
 </g>
</svg>

<style type='text/css'>
<![CDATA[
[data-mouse-over-selected='false'] { opacity: 0.7; }
[data-mouse-over-selected='true']  { opacity: 1.0; }
]]>
</style>
<script type="application/ecmascript"><![CDATA[
document.addEventListener('DOMContentLoaded', (event) => {
  highlightEdges();
  highlightAdjacentNodes();
});
]]></script>
</svg>
