<?xml version="1.0" encoding="UTF-8" standalone="no"?>
<!DOCTYPE svg PUBLIC "-//W3C//DTD SVG 1.1//EN"
 "http://www.w3.org/Graphics/SVG/1.1/DTD/svg11.dtd">
<!-- Generated by graphviz version 2.43.0 (0)
 -->
<!-- Title: Graphical Class Hierarchy Pages: 1 -->
<svg width="414pt" height="230pt"
 viewBox="0.00 0.00 414.00 230.00" xmlns="http://www.w3.org/2000/svg" xmlns:xlink="http://www.w3.org/1999/xlink">
<g id="graph0" class="graph" transform="scale(1 1) rotate(0) translate(4 226)">
<title>Graphical Class Hierarchy</title>
<!-- Node0 -->
<g id="Node000000" class="node">
<title>Node0</title>
<g id="a_Node000000"><a xlink:href="classwmtk_1_1components_1_1multimesh_1_1_multimesh_runnable_options.html" target="_top" xlink:title=" ">
<polygon fill="white" stroke="#666666" points="169,-126 0,-126 0,-96 169,-96 169,-126"/>
<text text-anchor="start" x="8" y="-114" font-family="Helvetica,sans-Serif" font-size="10.00">wmtk::components::multimesh</text>
<text text-anchor="middle" x="84.5" y="-103" font-family="Helvetica,sans-Serif" font-size="10.00">::MultimeshRunnableOptions</text>
</a>
</g>
</g>
<!-- Node1 -->
<g id="Node000001" class="node">
<title>Node1</title>
<g id="a_Node000001"><a xlink:href="structwmtk_1_1components_1_1multimesh_1_1_multimesh_axis_aligned_fusion_options.html" target="_top" xlink:title=" ">
<polygon fill="white" stroke="#666666" points="406,-222 205,-222 205,-192 406,-192 406,-222"/>
<text text-anchor="start" x="213" y="-210" font-family="Helvetica,sans-Serif" font-size="10.00">wmtk::components::multimesh</text>
<text text-anchor="middle" x="305.5" y="-199" font-family="Helvetica,sans-Serif" font-size="10.00">::MultimeshAxisAlignedFusionOptions</text>
</a>
</g>
</g>
<!-- Node0&#45;&gt;Node1 -->
<g id="edge62_Node000000_Node000001" class="edge">
<title>Node0&#45;&gt;Node1</title>
<g id="a_edge62_Node000000_Node000001"><a xlink:title=" ">
<path fill="none" stroke="#63b8ff" d="M114.46,-131.92C137.87,-147.95 172.22,-169.54 205,-183 213.22,-186.37 222.02,-189.34 230.87,-191.94"/>
<polygon fill="#63b8ff" stroke="#63b8ff" points="116.26,-128.9 106.05,-126.07 112.26,-134.65 116.26,-128.9"/>
</a>
</g>
</g>
<!-- Node2 -->
<g id="Node000002" class="node">
<title>Node2</title>
<g id="a_Node000002"><a xlink:href="structwmtk_1_1components_1_1multimesh_1_1_multimesh_bijection_options.html" target="_top" xlink:title=" ">
<polygon fill="white" stroke="#666666" points="390,-174 221,-174 221,-144 390,-144 390,-174"/>
<text text-anchor="start" x="229" y="-162" font-family="Helvetica,sans-Serif" font-size="10.00">wmtk::components::multimesh</text>
<text text-anchor="middle" x="305.5" y="-151" font-family="Helvetica,sans-Serif" font-size="10.00">::MultimeshBijectionOptions</text>
</a>
</g>
</g>
<!-- Node0&#45;&gt;Node2 -->
<g id="edge63_Node000000_Node000002" class="edge">
<title>Node0&#45;&gt;Node2</title>
<g id="a_edge63_Node000000_Node000002"><a xlink:title=" ">
<path fill="none" stroke="#63b8ff" d="M164.13,-128.23C187.65,-133.39 213.24,-139 236.05,-144"/>
<polygon fill="#63b8ff" stroke="#63b8ff" points="164.71,-124.78 154.19,-126.06 163.21,-131.62 164.71,-124.78"/>
</a>
</g>
</g>
<!-- Node3 -->
<g id="Node000003" class="node">
<title>Node3</title>
<g id="a_Node000003"><a xlink:href="structwmtk_1_1components_1_1multimesh_1_1_multimesh_boundary_options.html" target="_top" xlink:title=" ">
<polygon fill="white" stroke="#666666" points="390,-126 221,-126 221,-96 390,-96 390,-126"/>
<text text-anchor="start" x="229" y="-114" font-family="Helvetica,sans-Serif" font-size="10.00">wmtk::components::multimesh</text>
<text text-anchor="middle" x="305.5" y="-103" font-family="Helvetica,sans-Serif" font-size="10.00">::MultimeshBoundaryOptions</text>
</a>
</g>
</g>
<!-- Node0&#45;&gt;Node3 -->
<g id="edge64_Node000000_Node000003" class="edge">
<title>Node0&#45;&gt;Node3</title>
<g id="a_edge64_Node000000_Node000003"><a xlink:title=" ">
<path fill="none" stroke="#63b8ff" d="M179.63,-111C193.32,-111 207.34,-111 220.81,-111"/>
<polygon fill="#63b8ff" stroke="#63b8ff" points="179.23,-107.5 169.23,-111 179.23,-114.5 179.23,-107.5"/>
</a>
</g>
</g>
<!-- Node4 -->
<g id="Node000004" class="node">
<title>Node4</title>
<g id="a_Node000004"><a xlink:href="structwmtk_1_1components_1_1multimesh_1_1_multimesh_options.html" target="_top" xlink:title=" ">
<polygon fill="white" stroke="#666666" points="390,-78 221,-78 221,-48 390,-48 390,-78"/>
<text text-anchor="start" x="229" y="-66" font-family="Helvetica,sans-Serif" font-size="10.00">wmtk::components::multimesh</text>
<text text-anchor="middle" x="305.5" y="-55" font-family="Helvetica,sans-Serif" font-size="10.00">::MultimeshOptions</text>
</a>
</g>
</g>
<!-- Node0&#45;&gt;Node4 -->
<g id="edge65_Node000000_Node000004" class="edge">
<title>Node0&#45;&gt;Node4</title>
<g id="a_edge65_Node000000_Node000004"><a xlink:title=" ">
<path fill="none" stroke="#63b8ff" d="M164.13,-93.77C187.65,-88.61 213.24,-83 236.05,-78"/>
<polygon fill="#63b8ff" stroke="#63b8ff" points="163.21,-90.38 154.19,-95.94 164.71,-97.22 163.21,-90.38"/>
</a>
</g>
</g>
<!-- Node5 -->
<g id="Node000005" class="node">
<title>Node5</title>
<g id="a_Node000005"><a xlink:href="structwmtk_1_1components_1_1multimesh_1_1_multimesh_tag_options.html" target="_top" xlink:title=" ">
<polygon fill="white" stroke="#666666" points="390,-30 221,-30 221,0 390,0 390,-30"/>
<text text-anchor="start" x="229" y="-18" font-family="Helvetica,sans-Serif" font-size="10.00">wmtk::components::multimesh</text>
<text text-anchor="middle" x="305.5" y="-7" font-family="Helvetica,sans-Serif" font-size="10.00">::MultimeshTagOptions</text>
</a>
</g>
</g>
<!-- Node0&#45;&gt;Node5 -->
<g id="edge66_Node000000_Node000005" class="edge">
<title>Node0&#45;&gt;Node5</title>
<g id="a_edge66_Node000000_Node000005"><a xlink:title=" ">
<path fill="none" stroke="#63b8ff" d="M114.46,-90.08C137.87,-74.05 172.22,-52.46 205,-39 213.22,-35.63 222.02,-32.66 230.87,-30.06"/>
<polygon fill="#63b8ff" stroke="#63b8ff" points="112.26,-87.35 106.05,-95.93 116.26,-93.1 112.26,-87.35"/>
</a>
</g>
</g>
</g>
</svg>
