<?xml version="1.0" encoding="UTF-8" standalone="no"?>
<!DOCTYPE svg PUBLIC "-//W3C//DTD SVG 1.1//EN"
 "http://www.w3.org/Graphics/SVG/1.1/DTD/svg11.dtd">
<!-- Generated by graphviz version 2.43.0 (0)
 -->
<!-- Title: Graphical Class Hierarchy Pages: 1 -->
<svg width="612pt" height="652pt"
 viewBox="0.00 0.00 612.00 652.00" xmlns="http://www.w3.org/2000/svg" xmlns:xlink="http://www.w3.org/1999/xlink">
<g id="graph0" class="graph" transform="scale(1 1) rotate(0) translate(4 648)">
<title>Graphical Class Hierarchy</title>
<!-- Node0 -->
<g id="Node000000" class="node">
<title>Node0</title>
<g id="a_Node000000"><a xlink:href="classwmtk_1_1operations_1_1_operation.html" target="_top" xlink:title=" ">
<polygon fill="white" stroke="#666666" points="156,-216.5 0,-216.5 0,-197.5 156,-197.5 156,-216.5"/>
<text text-anchor="middle" x="78" y="-204.5" font-family="Helvetica,sans-Serif" font-size="10.00">wmtk::operations::Operation</text>
</a>
</g>
</g>
<!-- Node1 -->
<g id="Node000001" class="node">
<title>Node1</title>
<g id="a_Node000001"><a xlink:href="classwmtk_1_1operations_1_1_attributes_update.html" target="_top" xlink:title=" ">
<polygon fill="white" stroke="#666666" points="357,-478 201,-478 201,-448 357,-448 357,-478"/>
<text text-anchor="start" x="209" y="-466" font-family="Helvetica,sans-Serif" font-size="10.00">wmtk::operations::Attributes</text>
<text text-anchor="middle" x="279" y="-455" font-family="Helvetica,sans-Serif" font-size="10.00">Update</text>
</a>
</g>
</g>
<!-- Node0&#45;&gt;Node1 -->
<g id="edge150_Node000000_Node000001" class="edge">
<title>Node0&#45;&gt;Node1</title>
<g id="a_edge150_Node000000_Node000001"><a xlink:title=" ">
<path fill="none" stroke="#63b8ff" d="M92.43,-224.63C113.53,-252.27 155.77,-307.48 192,-354 218.22,-387.66 249.29,-426.88 265.97,-447.88"/>
<polygon fill="#63b8ff" stroke="#63b8ff" points="95.21,-222.49 86.36,-216.66 89.64,-226.74 95.21,-222.49"/>
</a>
</g>
</g>
<!-- Node9 -->
<g id="Node000009" class="node">
<title>Node9</title>
<g id="a_Node000009"><a xlink:href="classwmtk_1_1operations_1_1_edge_collapse.html" target="_top" xlink:title=" ">
<polygon fill="white" stroke="#666666" points="366,-344.5 192,-344.5 192,-325.5 366,-325.5 366,-344.5"/>
<text text-anchor="middle" x="279" y="-332.5" font-family="Helvetica,sans-Serif" font-size="10.00">wmtk::operations::EdgeCollapse</text>
</a>
</g>
</g>
<!-- Node0&#45;&gt;Node9 -->
<g id="edge158_Node000000_Node000009" class="edge">
<title>Node0&#45;&gt;Node9</title>
<g id="a_edge158_Node000000_Node000009"><a xlink:title=" ">
<path fill="none" stroke="#63b8ff" d="M92.06,-224.98C111.1,-249.8 148.95,-294.09 192,-317 198.46,-320.44 205.53,-323.22 212.74,-325.47"/>
<polygon fill="#63b8ff" stroke="#63b8ff" points="94.72,-222.7 85.92,-216.79 89.12,-226.9 94.72,-222.7"/>
</a>
</g>
</g>
<!-- Node10 -->
<g id="Node000010" class="node">
<title>Node10</title>
<g id="a_Node000010"><a xlink:href="classwmtk_1_1operations_1_1_edge_split.html" target="_top" xlink:title=" ">
<polygon fill="white" stroke="#666666" points="356,-307.5 202,-307.5 202,-288.5 356,-288.5 356,-307.5"/>
<text text-anchor="middle" x="279" y="-295.5" font-family="Helvetica,sans-Serif" font-size="10.00">wmtk::operations::EdgeSplit</text>
</a>
</g>
</g>
<!-- Node0&#45;&gt;Node10 -->
<g id="edge159_Node000000_Node000010" class="edge">
<title>Node0&#45;&gt;Node10</title>
<g id="a_edge159_Node000000_Node000010"><a xlink:title=" ">
<path fill="none" stroke="#63b8ff" d="M99.19,-222.98C120.91,-239.4 157.05,-264.54 192,-279 201.18,-282.8 211.25,-285.9 221.15,-288.4"/>
<polygon fill="#63b8ff" stroke="#63b8ff" points="101.14,-220.07 91.08,-216.75 96.87,-225.61 101.14,-220.07"/>
</a>
</g>
</g>
<!-- Node11 -->
<g id="Node000011" class="node">
<title>Node11</title>
<g id="a_Node000011"><a xlink:href="classwmtk_1_1operations_1_1_operation_sequence.html" target="_top" xlink:title=" ">
<polygon fill="white" stroke="#666666" points="357,-270 201,-270 201,-240 357,-240 357,-270"/>
<text text-anchor="start" x="209" y="-258" font-family="Helvetica,sans-Serif" font-size="10.00">wmtk::operations::Operation</text>
<text text-anchor="middle" x="279" y="-247" font-family="Helvetica,sans-Serif" font-size="10.00">Sequence</text>
</a>
</g>
</g>
<!-- Node0&#45;&gt;Node11 -->
<g id="edge160_Node000000_Node000011" class="edge">
<title>Node0&#45;&gt;Node11</title>
<g id="a_edge160_Node000000_Node000011"><a xlink:title=" ">
<path fill="none" stroke="#63b8ff" d="M128.55,-218.95C154.88,-225.3 187.51,-233.17 215.55,-239.94"/>
<polygon fill="#63b8ff" stroke="#63b8ff" points="129.33,-215.54 118.79,-216.6 127.69,-222.35 129.33,-215.54"/>
</a>
</g>
</g>
<!-- Node15 -->
<g id="Node000015" class="node">
<title>Node15</title>
<g id="a_Node000015"><a xlink:href="classwmtk_1_1operations_1_1composite_1_1_collapse_and_update_vertex.html" target="_top" xlink:title=" ">
<polygon fill="white" stroke="#666666" points="358.5,-222 199.5,-222 199.5,-192 358.5,-192 358.5,-222"/>
<text text-anchor="start" x="207.5" y="-210" font-family="Helvetica,sans-Serif" font-size="10.00">wmtk::operations::composite</text>
<text text-anchor="middle" x="279" y="-199" font-family="Helvetica,sans-Serif" font-size="10.00">::CollapseAndUpdateVertex</text>
</a>
</g>
</g>
<!-- Node0&#45;&gt;Node15 -->
<g id="edge164_Node000000_Node000015" class="edge">
<title>Node0&#45;&gt;Node15</title>
<g id="a_edge164_Node000000_Node000015"><a xlink:title=" ">
<path fill="none" stroke="#63b8ff" d="M166.56,-207C177.41,-207 188.46,-207 199.18,-207"/>
<polygon fill="#63b8ff" stroke="#63b8ff" points="166.22,-203.5 156.22,-207 166.22,-210.5 166.22,-203.5"/>
</a>
</g>
</g>
<!-- Node16 -->
<g id="Node000016" class="node">
<title>Node16</title>
<g id="a_Node000016"><a xlink:href="classwmtk_1_1operations_1_1composite_1_1_edge_swap.html" target="_top" xlink:title=" ">
<polygon fill="white" stroke="#666666" points="358.5,-174 199.5,-174 199.5,-144 358.5,-144 358.5,-174"/>
<text text-anchor="start" x="207.5" y="-162" font-family="Helvetica,sans-Serif" font-size="10.00">wmtk::operations::composite</text>
<text text-anchor="middle" x="279" y="-151" font-family="Helvetica,sans-Serif" font-size="10.00">::EdgeSwap</text>
</a>
</g>
</g>
<!-- Node0&#45;&gt;Node16 -->
<g id="edge165_Node000000_Node000016" class="edge">
<title>Node0&#45;&gt;Node16</title>
<g id="a_edge165_Node000000_Node000016"><a xlink:title=" ">
<path fill="none" stroke="#63b8ff" d="M128.55,-195.05C154.88,-188.7 187.51,-180.83 215.55,-174.06"/>
<polygon fill="#63b8ff" stroke="#63b8ff" points="127.69,-191.65 118.79,-197.4 129.33,-198.46 127.69,-191.65"/>
</a>
</g>
</g>
<!-- Node19 -->
<g id="Node000019" class="node">
<title>Node19</title>
<g id="a_Node000019"><a xlink:href="classwmtk_1_1operations_1_1composite_1_1_tet_cell_split.html" target="_top" xlink:title="TetCellSplit.">
<polygon fill="white" stroke="#666666" points="358.5,-126 199.5,-126 199.5,-96 358.5,-96 358.5,-126"/>
<text text-anchor="start" x="207.5" y="-114" font-family="Helvetica,sans-Serif" font-size="10.00">wmtk::operations::composite</text>
<text text-anchor="middle" x="279" y="-103" font-family="Helvetica,sans-Serif" font-size="10.00">::TetCellSplit</text>
</a>
</g>
</g>
<!-- Node0&#45;&gt;Node19 -->
<g id="edge168_Node000000_Node000019" class="edge">
<title>Node0&#45;&gt;Node19</title>
<g id="a_edge168_Node000000_Node000019"><a xlink:title=" ">
<path fill="none" stroke="#63b8ff" d="M99.71,-191.13C121.6,-175.02 157.65,-150.33 192,-135 199.5,-131.65 207.58,-128.66 215.68,-126.02"/>
<polygon fill="#63b8ff" stroke="#63b8ff" points="97.43,-188.47 91.51,-197.26 101.62,-194.08 97.43,-188.47"/>
</a>
</g>
</g>
<!-- Node20 -->
<g id="Node000020" class="node">
<title>Node20</title>
<g id="a_Node000020"><a xlink:href="classwmtk_1_1operations_1_1composite_1_1_tet_face_swap.html" target="_top" xlink:title="A FaceSwap (or a Swap 2&#45;3) performs a swap a face sharing by two tets to an edge split the volume of ...">
<polygon fill="white" stroke="#666666" points="358.5,-78 199.5,-78 199.5,-48 358.5,-48 358.5,-78"/>
<text text-anchor="start" x="207.5" y="-66" font-family="Helvetica,sans-Serif" font-size="10.00">wmtk::operations::composite</text>
<text text-anchor="middle" x="279" y="-55" font-family="Helvetica,sans-Serif" font-size="10.00">::TetFaceSwap</text>
</a>
</g>
</g>
<!-- Node0&#45;&gt;Node20 -->
<g id="edge169_Node000000_Node000020" class="edge">
<title>Node0&#45;&gt;Node20</title>
<g id="a_edge169_Node000000_Node000020"><a xlink:title=" ">
<path fill="none" stroke="#63b8ff" d="M91.09,-188.9C109.67,-162.52 147.75,-113.75 192,-87 197.7,-83.55 203.92,-80.58 210.31,-78.03"/>
<polygon fill="#63b8ff" stroke="#63b8ff" points="88.15,-187.01 85.36,-197.23 93.92,-190.98 88.15,-187.01"/>
</a>
</g>
</g>
<!-- Node21 -->
<g id="Node000021" class="node">
<title>Node21</title>
<g id="a_Node000021"><a xlink:href="classwmtk_1_1operations_1_1composite_1_1_tri_face_split.html" target="_top" xlink:title="The return tuple is the new vertex, pointing to the original vertex.">
<polygon fill="white" stroke="#666666" points="358.5,-30 199.5,-30 199.5,0 358.5,0 358.5,-30"/>
<text text-anchor="start" x="207.5" y="-18" font-family="Helvetica,sans-Serif" font-size="10.00">wmtk::operations::composite</text>
<text text-anchor="middle" x="279" y="-7" font-family="Helvetica,sans-Serif" font-size="10.00">::TriFaceSplit</text>
</a>
</g>
</g>
<!-- Node0&#45;&gt;Node21 -->
<g id="edge170_Node000000_Node000021" class="edge">
<title>Node0&#45;&gt;Node21</title>
<g id="a_edge170_Node000000_Node000021"><a xlink:title=" ">
<path fill="none" stroke="#63b8ff" d="M86.58,-187.73C101.38,-152.65 137.51,-78.35 192,-39 196.78,-35.55 202.03,-32.6 207.51,-30.07"/>
<polygon fill="#63b8ff" stroke="#63b8ff" points="83.22,-186.7 82.67,-197.28 89.7,-189.35 83.22,-186.7"/>
</a>
</g>
</g>
<!-- Node2 -->
<g id="Node000002" class="node">
<title>Node2</title>
<g id="a_Node000002"><a xlink:href="classwmtk_1_1operations_1_1_a_m_i_p_s_optimization_smoothing.html" target="_top" xlink:title=" ">
<polygon fill="white" stroke="#666666" points="604,-644 402,-644 402,-614 604,-614 604,-644"/>
<text text-anchor="start" x="410" y="-632" font-family="Helvetica,sans-Serif" font-size="10.00">wmtk::operations::AMIPSOptimization</text>
<text text-anchor="middle" x="503" y="-621" font-family="Helvetica,sans-Serif" font-size="10.00">Smoothing</text>
</a>
</g>
</g>
<!-- Node1&#45;&gt;Node2 -->
<g id="edge151_Node000001_Node000002" class="edge">
<title>Node1&#45;&gt;Node2</title>
<g id="a_edge151_Node000001_Node000002"><a xlink:title=" ">
<path fill="none" stroke="#63b8ff" d="M293.8,-486.89C313.57,-518.89 353.02,-575.09 402,-605 407.64,-608.44 413.73,-611.39 420.04,-613.92"/>
<polygon fill="#63b8ff" stroke="#63b8ff" points="296.7,-484.92 288.53,-478.17 290.71,-488.54 296.7,-484.92"/>
</a>
</g>
</g>
<!-- Node3 -->
<g id="Node000003" class="node">
<title>Node3</title>
<g id="a_Node000003"><a xlink:href="classwmtk_1_1operations_1_1_a_m_i_p_s_optimization_smoothing_periodic.html" target="_top" xlink:title=" ">
<polygon fill="white" stroke="#666666" points="604,-596 402,-596 402,-566 604,-566 604,-596"/>
<text text-anchor="start" x="410" y="-584" font-family="Helvetica,sans-Serif" font-size="10.00">wmtk::operations::AMIPSOptimization</text>
<text text-anchor="middle" x="503" y="-573" font-family="Helvetica,sans-Serif" font-size="10.00">SmoothingPeriodic</text>
</a>
</g>
</g>
<!-- Node1&#45;&gt;Node3 -->
<g id="edge152_Node000001_Node000003" class="edge">
<title>Node1&#45;&gt;Node3</title>
<g id="a_edge152_Node000001_Node000003"><a xlink:title=" ">
<path fill="none" stroke="#63b8ff" d="M302.65,-485.27C325.76,-506.75 363.59,-538.63 402,-557 409.17,-560.43 416.87,-563.39 424.69,-565.94"/>
<polygon fill="#63b8ff" stroke="#63b8ff" points="304.79,-482.47 295.12,-478.14 299.98,-487.56 304.79,-482.47"/>
</a>
</g>
</g>
<!-- Node4 -->
<g id="Node000004" class="node">
<title>Node4</title>
<g id="a_Node000004"><a xlink:href="classwmtk_1_1operations_1_1_attributes_update_with_function.html" target="_top" xlink:title=" ">
<polygon fill="white" stroke="#666666" points="581,-548 425,-548 425,-518 581,-518 581,-548"/>
<text text-anchor="start" x="433" y="-536" font-family="Helvetica,sans-Serif" font-size="10.00">wmtk::operations::Attributes</text>
<text text-anchor="middle" x="503" y="-525" font-family="Helvetica,sans-Serif" font-size="10.00">UpdateWithFunction</text>
</a>
</g>
</g>
<!-- Node1&#45;&gt;Node4 -->
<g id="edge153_Node000001_Node000004" class="edge">
<title>Node1&#45;&gt;Node4</title>
<g id="a_edge153_Node000001_Node000004"><a xlink:title=" ">
<path fill="none" stroke="#63b8ff" d="M325.8,-481.82C348.49,-490.75 376.44,-501.15 402,-509 412.33,-512.17 423.36,-515.19 434.18,-517.94"/>
<polygon fill="#63b8ff" stroke="#63b8ff" points="327.01,-478.54 316.42,-478.1 324.43,-485.04 327.01,-478.54"/>
</a>
</g>
</g>
<!-- Node5 -->
<g id="Node000005" class="node">
<title>Node5</title>
<g id="a_Node000005"><a xlink:href="classwmtk_1_1operations_1_1_optimization_smoothing.html" target="_top" xlink:title=" ">
<polygon fill="white" stroke="#666666" points="588.5,-500 417.5,-500 417.5,-470 588.5,-470 588.5,-500"/>
<text text-anchor="start" x="425.5" y="-488" font-family="Helvetica,sans-Serif" font-size="10.00">wmtk::operations::Optimization</text>
<text text-anchor="middle" x="503" y="-477" font-family="Helvetica,sans-Serif" font-size="10.00">Smoothing</text>
</a>
</g>
</g>
<!-- Node1&#45;&gt;Node5 -->
<g id="edge154_Node000001_Node000005" class="edge">
<title>Node1&#45;&gt;Node5</title>
<g id="a_edge154_Node000001_Node000005"><a xlink:title=" ">
<path fill="none" stroke="#63b8ff" d="M367.15,-471.64C383.6,-473.27 400.78,-474.97 417.15,-476.59"/>
<polygon fill="#63b8ff" stroke="#63b8ff" points="367.32,-468.14 357.02,-470.63 366.63,-475.1 367.32,-468.14"/>
</a>
</g>
</g>
<!-- Node6 -->
<g id="Node000006" class="node">
<title>Node6</title>
<g id="a_Node000006"><a xlink:href="classwmtk_1_1operations_1_1_rounding.html" target="_top" xlink:title=" ">
<polygon fill="white" stroke="#666666" points="580,-451.5 426,-451.5 426,-432.5 580,-432.5 580,-451.5"/>
<text text-anchor="middle" x="503" y="-439.5" font-family="Helvetica,sans-Serif" font-size="10.00">wmtk::operations::Rounding</text>
</a>
</g>
</g>
<!-- Node1&#45;&gt;Node6 -->
<g id="edge155_Node000001_Node000006" class="edge">
<title>Node1&#45;&gt;Node6</title>
<g id="a_edge155_Node000001_Node000006"><a xlink:title=" ">
<path fill="none" stroke="#63b8ff" d="M367.07,-454.76C386.49,-452.93 406.93,-450.99 425.86,-449.2"/>
<polygon fill="#63b8ff" stroke="#63b8ff" points="366.65,-451.29 357.02,-455.71 367.31,-458.26 366.65,-451.29"/>
</a>
</g>
</g>
<!-- Node7 -->
<g id="Node000007" class="node">
<title>Node7</title>
<g id="a_Node000007"><a xlink:href="classwmtk_1_1operations_1_1_tet_wild_tangential_laplacian_smoothing.html" target="_top" xlink:title=" ">
<polygon fill="white" stroke="#666666" points="586,-414 420,-414 420,-384 586,-384 586,-414"/>
<text text-anchor="start" x="428" y="-402" font-family="Helvetica,sans-Serif" font-size="10.00">wmtk::operations::TetWild</text>
<text text-anchor="middle" x="503" y="-391" font-family="Helvetica,sans-Serif" font-size="10.00">TangentialLaplacianSmoothing</text>
</a>
</g>
</g>
<!-- Node1&#45;&gt;Node7 -->
<g id="edge156_Node000001_Node000007" class="edge">
<title>Node1&#45;&gt;Node7</title>
<g id="a_edge156_Node000001_Node000007"><a xlink:title=" ">
<path fill="none" stroke="#63b8ff" d="M334.42,-444.78C355.44,-437.96 379.75,-430.33 402,-424 413.96,-420.6 426.8,-417.2 439.16,-414.05"/>
<polygon fill="#63b8ff" stroke="#63b8ff" points="333.11,-441.52 324.69,-447.95 335.29,-448.18 333.11,-441.52"/>
</a>
</g>
</g>
<!-- Node8 -->
<g id="Node000008" class="node">
<title>Node8</title>
<g id="a_Node000008"><a xlink:href="classwmtk_1_1operations_1_1composite_1_1_project_operation.html" target="_top" xlink:title=" ">
<polygon fill="white" stroke="#666666" points="582.5,-366 423.5,-366 423.5,-336 582.5,-336 582.5,-366"/>
<text text-anchor="start" x="431.5" y="-354" font-family="Helvetica,sans-Serif" font-size="10.00">wmtk::operations::composite</text>
<text text-anchor="middle" x="503" y="-343" font-family="Helvetica,sans-Serif" font-size="10.00">::ProjectOperation</text>
</a>
</g>
</g>
<!-- Node1&#45;&gt;Node8 -->
<g id="edge157_Node000001_Node000008" class="edge">
<title>Node1&#45;&gt;Node8</title>
<g id="a_edge157_Node000001_Node000008"><a xlink:title=" ">
<path fill="none" stroke="#63b8ff" d="M304.11,-441.19C327.51,-421.15 364.84,-392.05 402,-375 409.46,-371.57 417.48,-368.61 425.59,-366.04"/>
<polygon fill="#63b8ff" stroke="#63b8ff" points="301.68,-438.67 296.44,-447.87 306.28,-443.95 301.68,-438.67"/>
</a>
</g>
</g>
<!-- Node12 -->
<g id="Node000012" class="node">
<title>Node12</title>
<g id="a_Node000012"><a xlink:href="classwmtk_1_1operations_1_1_and_operation_sequence.html" target="_top" xlink:title=" ">
<polygon fill="white" stroke="#666666" points="590.5,-318 415.5,-318 415.5,-288 590.5,-288 590.5,-318"/>
<text text-anchor="start" x="423.5" y="-306" font-family="Helvetica,sans-Serif" font-size="10.00">wmtk::operations::AndOperation</text>
<text text-anchor="middle" x="503" y="-295" font-family="Helvetica,sans-Serif" font-size="10.00">Sequence</text>
</a>
</g>
</g>
<!-- Node11&#45;&gt;Node12 -->
<g id="edge161_Node000011_Node000012" class="edge">
<title>Node11&#45;&gt;Node12</title>
<g id="a_edge161_Node000011_Node000012"><a xlink:title=" ">
<path fill="none" stroke="#63b8ff" d="M359.71,-272.23C383.55,-277.39 409.49,-283 432.61,-288"/>
<polygon fill="#63b8ff" stroke="#63b8ff" points="360.15,-268.75 349.63,-270.06 358.67,-275.59 360.15,-268.75"/>
</a>
</g>
</g>
<!-- Node13 -->
<g id="Node000013" class="node">
<title>Node13</title>
<g id="a_Node000013"><a xlink:href="classwmtk_1_1operations_1_1_min_operation_sequence.html" target="_top" xlink:title=" ">
<polygon fill="white" stroke="#666666" points="590,-270 416,-270 416,-240 590,-240 590,-270"/>
<text text-anchor="start" x="424" y="-258" font-family="Helvetica,sans-Serif" font-size="10.00">wmtk::operations::MinOperation</text>
<text text-anchor="middle" x="503" y="-247" font-family="Helvetica,sans-Serif" font-size="10.00">Sequence</text>
</a>
</g>
</g>
<!-- Node11&#45;&gt;Node13 -->
<g id="edge162_Node000011_Node000013" class="edge">
<title>Node11&#45;&gt;Node13</title>
<g id="a_edge162_Node000011_Node000013"><a xlink:title=" ">
<path fill="none" stroke="#63b8ff" d="M367.34,-255C383.22,-255 399.77,-255 415.62,-255"/>
<polygon fill="#63b8ff" stroke="#63b8ff" points="367.02,-251.5 357.02,-255 367.02,-258.5 367.02,-251.5"/>
</a>
</g>
</g>
<!-- Node14 -->
<g id="Node000014" class="node">
<title>Node14</title>
<g id="a_Node000014"><a xlink:href="classwmtk_1_1operations_1_1_or_operation_sequence.html" target="_top" xlink:title=" ">
<polygon fill="white" stroke="#666666" points="586.5,-222 419.5,-222 419.5,-192 586.5,-192 586.5,-222"/>
<text text-anchor="start" x="427.5" y="-210" font-family="Helvetica,sans-Serif" font-size="10.00">wmtk::operations::OrOperation</text>
<text text-anchor="middle" x="503" y="-199" font-family="Helvetica,sans-Serif" font-size="10.00">Sequence</text>
</a>
</g>
</g>
<!-- Node11&#45;&gt;Node14 -->
<g id="edge163_Node000011_Node000014" class="edge">
<title>Node11&#45;&gt;Node14</title>
<g id="a_edge163_Node000011_Node000014"><a xlink:title=" ">
<path fill="none" stroke="#63b8ff" d="M359.71,-237.77C383.55,-232.61 409.49,-227 432.61,-222"/>
<polygon fill="#63b8ff" stroke="#63b8ff" points="358.67,-234.41 349.63,-239.94 360.15,-241.25 358.67,-234.41"/>
</a>
</g>
</g>
<!-- Node17 -->
<g id="Node000017" class="node">
<title>Node17</title>
<g id="a_Node000017"><a xlink:href="classwmtk_1_1operations_1_1composite_1_1_tet_edge_swap.html" target="_top" xlink:title="Performs an edge swap, implemented as a combination of swap and collapse.">
<polygon fill="white" stroke="#666666" points="582.5,-174 423.5,-174 423.5,-144 582.5,-144 582.5,-174"/>
<text text-anchor="start" x="431.5" y="-162" font-family="Helvetica,sans-Serif" font-size="10.00">wmtk::operations::composite</text>
<text text-anchor="middle" x="503" y="-151" font-family="Helvetica,sans-Serif" font-size="10.00">::TetEdgeSwap</text>
</a>
</g>
</g>
<!-- Node16&#45;&gt;Node17 -->
<g id="edge166_Node000016_Node000017" class="edge">
<title>Node16&#45;&gt;Node17</title>
<g id="a_edge166_Node000016_Node000017"><a xlink:title=" ">
<path fill="none" stroke="#63b8ff" d="M368.77,-159C386.75,-159 405.54,-159 423.15,-159"/>
<polygon fill="#63b8ff" stroke="#63b8ff" points="368.58,-155.5 358.58,-159 368.58,-162.5 368.58,-155.5"/>
</a>
</g>
</g>
<!-- Node18 -->
<g id="Node000018" class="node">
<title>Node18</title>
<g id="a_Node000018"><a xlink:href="classwmtk_1_1operations_1_1composite_1_1_tri_edge_swap.html" target="_top" xlink:title="Performs an edge swap, implemented as a combination of swap and collapse.">
<polygon fill="white" stroke="#666666" points="582.5,-126 423.5,-126 423.5,-96 582.5,-96 582.5,-126"/>
<text text-anchor="start" x="431.5" y="-114" font-family="Helvetica,sans-Serif" font-size="10.00">wmtk::operations::composite</text>
<text text-anchor="middle" x="503" y="-103" font-family="Helvetica,sans-Serif" font-size="10.00">::TriEdgeSwap</text>
</a>
</g>
</g>
<!-- Node16&#45;&gt;Node18 -->
<g id="edge167_Node000016_Node000018" class="edge">
<title>Node16&#45;&gt;Node18</title>
<g id="a_edge167_Node000016_Node000018"><a xlink:title=" ">
<path fill="none" stroke="#63b8ff" d="M359.71,-141.77C383.55,-136.61 409.49,-131 432.61,-126"/>
<polygon fill="#63b8ff" stroke="#63b8ff" points="358.67,-138.41 349.63,-143.94 360.15,-145.25 358.67,-138.41"/>
</a>
</g>
</g>
</g>
</svg>
