<?xml version="1.0" encoding="UTF-8" standalone="no"?>
<!DOCTYPE svg PUBLIC "-//W3C//DTD SVG 1.1//EN"
 "http://www.w3.org/Graphics/SVG/1.1/DTD/svg11.dtd">
<!-- Generated by graphviz version 2.43.0 (0)
 -->
<!-- Title: components/mesh_info/src/wmtk/components/mesh_info/transfer/min_neighbor.hpp Pages: 1 -->
<svg width="312pt" height="148pt"
 viewBox="0.00 0.00 311.50 148.00" xmlns="http://www.w3.org/2000/svg" xmlns:xlink="http://www.w3.org/1999/xlink">
<g id="graph0" class="graph" transform="scale(1 1) rotate(0) translate(4 144)">
<title>components/mesh_info/src/wmtk/components/mesh_info/transfer/min_neighbor.hpp</title>
<!-- Node1 -->
<g id="Node000001" class="node">
<title>Node1</title>
<g id="a_Node000001"><a xlink:title=" ">
<polygon fill="#999999" stroke="#666666" points="222.5,-140 88.5,-140 88.5,-88 222.5,-88 222.5,-140"/>
<text text-anchor="start" x="96.5" y="-128" font-family="Helvetica,sans-Serif" font-size="10.00">components/mesh_info</text>
<text text-anchor="start" x="96.5" y="-117" font-family="Helvetica,sans-Serif" font-size="10.00">/src/wmtk/components</text>
<text text-anchor="start" x="96.5" y="-106" font-family="Helvetica,sans-Serif" font-size="10.00">/mesh_info/transfer/min</text>
<text text-anchor="middle" x="155.5" y="-95" font-family="Helvetica,sans-Serif" font-size="10.00">_neighbor.hpp</text>
</a>
</g>
</g>
<!-- Node2 -->
<g id="Node000002" class="node">
<title>Node2</title>
<g id="a_Node000002"><a xlink:href="init_8cpp.html" target="_top" xlink:title=" ">
<polygon fill="white" stroke="#666666" points="151,-46.5 0,-46.5 0,-5.5 151,-5.5 151,-46.5"/>
<text text-anchor="start" x="8" y="-34.5" font-family="Helvetica,sans-Serif" font-size="10.00">components/mesh_info</text>
<text text-anchor="start" x="8" y="-23.5" font-family="Helvetica,sans-Serif" font-size="10.00">/src/wmtk/components</text>
<text text-anchor="middle" x="75.5" y="-12.5" font-family="Helvetica,sans-Serif" font-size="10.00">/mesh_info/transfer/init.cpp</text>
</a>
</g>
</g>
<!-- Node1&#45;&gt;Node2 -->
<g id="edge1_Node000001_Node000002" class="edge">
<title>Node1&#45;&gt;Node2</title>
<g id="a_edge1_Node000001_Node000002"><a xlink:title=" ">
<path fill="none" stroke="#63b8ff" d="M124.86,-80.07C114.4,-68.81 103.02,-56.58 93.83,-46.7"/>
<polygon fill="#63b8ff" stroke="#63b8ff" points="122.56,-82.72 131.93,-87.66 127.68,-77.96 122.56,-82.72"/>
</a>
</g>
</g>
<!-- Node3 -->
<g id="Node000003" class="node">
<title>Node3</title>
<g id="a_Node000003"><a xlink:href="min__neighbor_8cpp.html" target="_top" xlink:title=" ">
<polygon fill="white" stroke="#666666" points="303.5,-52 169.5,-52 169.5,0 303.5,0 303.5,-52"/>
<text text-anchor="start" x="177.5" y="-40" font-family="Helvetica,sans-Serif" font-size="10.00">components/mesh_info</text>
<text text-anchor="start" x="177.5" y="-29" font-family="Helvetica,sans-Serif" font-size="10.00">/src/wmtk/components</text>
<text text-anchor="start" x="177.5" y="-18" font-family="Helvetica,sans-Serif" font-size="10.00">/mesh_info/transfer/min</text>
<text text-anchor="middle" x="236.5" y="-7" font-family="Helvetica,sans-Serif" font-size="10.00">_neighbor.cpp</text>
</a>
</g>
</g>
<!-- Node1&#45;&gt;Node3 -->
<g id="edge2_Node000001_Node000003" class="edge">
<title>Node1&#45;&gt;Node3</title>
<g id="a_edge2_Node000001_Node000003"><a xlink:title=" ">
<path fill="none" stroke="#63b8ff" d="M186.25,-80.35C195.05,-71.01 204.5,-60.98 212.81,-52.16"/>
<polygon fill="#63b8ff" stroke="#63b8ff" points="183.67,-77.98 179.36,-87.66 188.77,-82.78 183.67,-77.98"/>
</a>
</g>
</g>
</g>
</svg>
