<?xml version="1.0" encoding="UTF-8" standalone="no"?>
<!DOCTYPE svg PUBLIC "-//W3C//DTD SVG 1.1//EN"
 "http://www.w3.org/Graphics/SVG/1.1/DTD/svg11.dtd">
<!-- Generated by graphviz version 2.43.0 (0)
 -->
<!-- Title: wmtk::components::multimesh::utils::create_attribute Pages: 1 -->
<svg width="604pt" height="108pt"
 viewBox="0.00 0.00 604.00 108.00" xmlns="http://www.w3.org/2000/svg" xmlns:xlink="http://www.w3.org/1999/xlink">
<g id="graph0" class="graph" transform="scale(1 1) rotate(0) translate(4 104)">
<title>wmtk::components::multimesh::utils::create_attribute</title>
<!-- Node1 -->
<g id="Node000001" class="node">
<title>Node1</title>
<g id="a_Node000001"><a xlink:title=" ">
<polygon fill="#999999" stroke="#666666" points="596,-64.5 427,-64.5 427,-34.5 596,-34.5 596,-64.5"/>
<text text-anchor="start" x="435" y="-52.5" font-family="Helvetica,sans-Serif" font-size="10.00">wmtk::components::multimesh</text>
<text text-anchor="middle" x="511.5" y="-41.5" font-family="Helvetica,sans-Serif" font-size="10.00">::utils::create_attribute</text>
</a>
</g>
</g>
<!-- Node2 -->
<g id="Node000002" class="node">
<title>Node2</title>
<g id="a_Node000002"><a xlink:href="structwmtk_1_1components_1_1configurator_1_1transfer_1_1_single_attribute_transfer_strategy_factory.html#ae4ae9f15a98b5128dcf4e258393587b7" target="_top" xlink:title=" ">
<polygon fill="white" stroke="#666666" points="391,-100 212,-100 212,-59 391,-59 391,-100"/>
<text text-anchor="start" x="220" y="-88" font-family="Helvetica,sans-Serif" font-size="10.00">wmtk::components::configurator</text>
<text text-anchor="start" x="220" y="-77" font-family="Helvetica,sans-Serif" font-size="10.00">::transfer::SingleAttributeTransfer</text>
<text text-anchor="middle" x="301.5" y="-66" font-family="Helvetica,sans-Serif" font-size="10.00">StrategyFactory::create_transfer</text>
</a>
</g>
</g>
<!-- Node1&#45;&gt;Node2 -->
<g id="edge1_Node000001_Node000002" class="edge">
<title>Node1&#45;&gt;Node2</title>
<g id="a_edge1_Node000001_Node000002"><a xlink:title=" ">
<path fill="none" stroke="#63b8ff" d="M416.82,-63.01C408.27,-64.24 399.63,-65.49 391.13,-66.72"/>
<polygon fill="#63b8ff" stroke="#63b8ff" points="417.4,-66.46 426.8,-61.57 416.4,-59.54 417.4,-66.46"/>
</a>
</g>
</g>
<!-- Node3 -->
<g id="Node000003" class="node">
<title>Node3</title>
<g id="a_Node000003"><a xlink:href="classwmtk_1_1components_1_1isotropic__remeshing_1_1_isotropic_remeshing.html#ab9a3a611c8520fba55213c87fc15dbe6" target="_top" xlink:title=" ">
<polygon fill="white" stroke="#666666" points="389.5,-41 213.5,-41 213.5,0 389.5,0 389.5,-41"/>
<text text-anchor="start" x="221.5" y="-29" font-family="Helvetica,sans-Serif" font-size="10.00">wmtk::components::isotropic</text>
<text text-anchor="start" x="221.5" y="-18" font-family="Helvetica,sans-Serif" font-size="10.00">_remeshing::IsotropicRemeshing</text>
<text text-anchor="middle" x="301.5" y="-7" font-family="Helvetica,sans-Serif" font-size="10.00">::load_transfers</text>
</a>
</g>
</g>
<!-- Node1&#45;&gt;Node3 -->
<g id="edge2_Node000001_Node000003" class="edge">
<title>Node1&#45;&gt;Node3</title>
<g id="a_edge2_Node000001_Node000003"><a xlink:title=" ">
<path fill="none" stroke="#63b8ff" d="M416.72,-36.43C407.75,-35.17 398.67,-33.91 389.77,-32.67"/>
<polygon fill="#63b8ff" stroke="#63b8ff" points="416.41,-39.92 426.8,-37.83 417.38,-32.98 416.41,-39.92"/>
</a>
</g>
</g>
<!-- Node4 -->
<g id="Node000004" class="node">
<title>Node4</title>
<g id="a_Node000004"><a xlink:href="classwmtk_1_1components_1_1isotropic__remeshing_1_1_isotropic_remeshing.html#a31844ec38531cdf196cd22bc57ca2dba" target="_top" xlink:title=" ">
<polygon fill="white" stroke="#666666" points="176,-41 0,-41 0,0 176,0 176,-41"/>
<text text-anchor="start" x="8" y="-29" font-family="Helvetica,sans-Serif" font-size="10.00">wmtk::components::isotropic</text>
<text text-anchor="start" x="8" y="-18" font-family="Helvetica,sans-Serif" font-size="10.00">_remeshing::IsotropicRemeshing</text>
<text text-anchor="middle" x="88" y="-7" font-family="Helvetica,sans-Serif" font-size="10.00">::IsotropicRemeshing</text>
</a>
</g>
</g>
<!-- Node3&#45;&gt;Node4 -->
<g id="edge3_Node000003_Node000004" class="edge">
<title>Node3&#45;&gt;Node4</title>
<g id="a_edge3_Node000003_Node000004"><a xlink:title=" ">
<path fill="none" stroke="#63b8ff" d="M203.11,-20.5C194.08,-20.5 184.97,-20.5 176.05,-20.5"/>
<polygon fill="#63b8ff" stroke="#63b8ff" points="203.25,-24 213.25,-20.5 203.25,-17 203.25,-24"/>
</a>
</g>
</g>
</g>
</svg>
