<?xml version="1.0" encoding="UTF-8" standalone="no"?>
<!DOCTYPE svg PUBLIC "-//W3C//DTD SVG 1.1//EN"
 "http://www.w3.org/Graphics/SVG/1.1/DTD/svg11.dtd">
<!-- Generated by graphviz version 2.43.0 (0)
 -->
<!-- Title: wmtk::function::utils::amips Pages: 1 -->
<svg width="550pt" height="194pt"
 viewBox="0.00 0.00 550.00 193.50" xmlns="http://www.w3.org/2000/svg" xmlns:xlink="http://www.w3.org/1999/xlink">
<g id="graph0" class="graph" transform="scale(1 1) rotate(0) translate(4 189.5)">
<title>wmtk::function::utils::amips</title>
<!-- Node1 -->
<g id="Node000001" class="node">
<title>Node1</title>
<g id="a_Node000001"><a xlink:title=" ">
<polygon fill="#999999" stroke="#666666" points="542,-113.5 425,-113.5 425,-83.5 542,-83.5 542,-113.5"/>
<text text-anchor="start" x="433" y="-101.5" font-family="Helvetica,sans-Serif" font-size="10.00">wmtk::function::utils</text>
<text text-anchor="middle" x="483.5" y="-90.5" font-family="Helvetica,sans-Serif" font-size="10.00">::amips</text>
</a>
</g>
</g>
<!-- Node2 -->
<g id="Node000002" class="node">
<title>Node2</title>
<g id="a_Node000002"><a xlink:href="namespacewmtk_1_1function_1_1utils.html#a0944a6121ead97b0619f660e5ebda47f" target="_top" xlink:title=" ">
<polygon fill="white" stroke="#666666" points="358.5,-185.5 241.5,-185.5 241.5,-155.5 358.5,-155.5 358.5,-185.5"/>
<text text-anchor="start" x="249.5" y="-173.5" font-family="Helvetica,sans-Serif" font-size="10.00">wmtk::function::utils</text>
<text text-anchor="middle" x="300" y="-162.5" font-family="Helvetica,sans-Serif" font-size="10.00">::amips</text>
</a>
</g>
</g>
<!-- Node1&#45;&gt;Node2 -->
<g id="edge1_Node000001_Node000002" class="edge">
<title>Node1&#45;&gt;Node2</title>
<g id="a_edge1_Node000001_Node000002"><a xlink:title=" ">
<path fill="none" stroke="#63b8ff" d="M447.46,-118.69C430.24,-128.03 408.95,-138.76 389,-146.5 379.4,-150.22 369.01,-153.61 358.84,-156.58"/>
<polygon fill="#63b8ff" stroke="#63b8ff" points="449.51,-121.56 456.58,-113.66 446.13,-115.43 449.51,-121.56"/>
</a>
</g>
</g>
<!-- Node3 -->
<g id="Node000003" class="node">
<title>Node3</title>
<g id="a_Node000003"><a xlink:href="classwmtk_1_1function_1_1_triangle_a_m_i_p_s.html#a9efeeacdc9da3b8000a13d44be7e62b7" target="_top" xlink:title="This function defines a function f(x) where f is defined over a simplex domain and the variables for ...">
<polygon fill="white" stroke="#666666" points="367,-137.5 233,-137.5 233,-107.5 367,-107.5 367,-137.5"/>
<text text-anchor="start" x="241" y="-125.5" font-family="Helvetica,sans-Serif" font-size="10.00">wmtk::function::Triangle</text>
<text text-anchor="middle" x="300" y="-114.5" font-family="Helvetica,sans-Serif" font-size="10.00">AMIPS::eval</text>
</a>
</g>
</g>
<!-- Node1&#45;&gt;Node3 -->
<g id="edge2_Node000001_Node000003" class="edge">
<title>Node1&#45;&gt;Node3</title>
<g id="a_edge2_Node000001_Node000003"><a xlink:title=" ">
<path fill="none" stroke="#63b8ff" d="M414.74,-107.46C399.14,-109.52 382.58,-111.71 367.06,-113.76"/>
<polygon fill="#63b8ff" stroke="#63b8ff" points="415.37,-110.91 424.82,-106.13 414.45,-103.97 415.37,-110.91"/>
</a>
</g>
</g>
<!-- Node4 -->
<g id="Node000004" class="node">
<title>Node4</title>
<g id="a_Node000004"><a xlink:href="structwmtk_1_1components_1_1configurator_1_1transfer_1_1_a_m_i_p_s_functor.html#ad778ffdc115cacbda22c773f1c3226a3" target="_top" xlink:title=" ">
<polygon fill="white" stroke="#666666" points="389,-89.5 211,-89.5 211,-59.5 389,-59.5 389,-89.5"/>
<text text-anchor="start" x="219" y="-77.5" font-family="Helvetica,sans-Serif" font-size="10.00">wmtk::components::configurator</text>
<text text-anchor="middle" x="300" y="-66.5" font-family="Helvetica,sans-Serif" font-size="10.00">::transfer::AMIPSFunctor::execute</text>
</a>
</g>
</g>
<!-- Node1&#45;&gt;Node4 -->
<g id="edge3_Node000001_Node000004" class="edge">
<title>Node1&#45;&gt;Node4</title>
<g id="a_edge3_Node000001_Node000004"><a xlink:title=" ">
<path fill="none" stroke="#63b8ff" d="M414.74,-89.54C406.34,-88.43 397.66,-87.28 389.02,-86.14"/>
<polygon fill="#63b8ff" stroke="#63b8ff" points="414.45,-93.03 424.82,-90.87 415.37,-86.09 414.45,-93.03"/>
</a>
</g>
</g>
<!-- Node6 -->
<g id="Node000006" class="node">
<title>Node6</title>
<g id="a_Node000006"><a xlink:href="classwmtk_1_1function_1_1_position_map_a_m_i_p_s2_d.html#a3aded6e841b5c5730bcdaf8cedc5da94" target="_top" xlink:title=" ">
<polygon fill="white" stroke="#666666" points="368,-41 232,-41 232,0 368,0 368,-41"/>
<text text-anchor="start" x="240" y="-29" font-family="Helvetica,sans-Serif" font-size="10.00">wmtk::function::Position</text>
<text text-anchor="start" x="240" y="-18" font-family="Helvetica,sans-Serif" font-size="10.00">MapAMIPS2D::get_value</text>
<text text-anchor="middle" x="300" y="-7" font-family="Helvetica,sans-Serif" font-size="10.00">_autodiff</text>
</a>
</g>
</g>
<!-- Node1&#45;&gt;Node6 -->
<g id="edge5_Node000001_Node000006" class="edge">
<title>Node1&#45;&gt;Node6</title>
<g id="a_edge5_Node000001_Node000006"><a xlink:title=" ">
<path fill="none" stroke="#63b8ff" d="M446.5,-78.46C429.36,-69.33 408.42,-58.74 389,-50.5 381.27,-47.22 373.06,-44.04 364.86,-41.04"/>
<polygon fill="#63b8ff" stroke="#63b8ff" points="445.13,-81.7 455.59,-83.36 448.45,-75.53 445.13,-81.7"/>
</a>
</g>
</g>
<!-- Node5 -->
<g id="Node000005" class="node">
<title>Node5</title>
<g id="a_Node000005"><a xlink:href="structwmtk_1_1components_1_1configurator_1_1transfer_1_1_a_m_i_p_s_functor.html#ac69a7979b4bfc564fb4f22334c9ef041" target="_top" xlink:title=" ">
<polygon fill="white" stroke="#666666" points="175,-95 0,-95 0,-54 175,-54 175,-95"/>
<text text-anchor="start" x="8" y="-83" font-family="Helvetica,sans-Serif" font-size="10.00">wmtk::components::configurator</text>
<text text-anchor="start" x="8" y="-72" font-family="Helvetica,sans-Serif" font-size="10.00">::transfer::AMIPSFunctor::</text>
<text text-anchor="middle" x="87.5" y="-61" font-family="Helvetica,sans-Serif" font-size="10.00">operator()</text>
</a>
</g>
</g>
<!-- Node4&#45;&gt;Node5 -->
<g id="edge4_Node000004_Node000005" class="edge">
<title>Node4&#45;&gt;Node5</title>
<g id="a_edge4_Node000004_Node000005"><a xlink:title=" ">
<path fill="none" stroke="#63b8ff" d="M200.91,-74.5C192.32,-74.5 183.67,-74.5 175.19,-74.5"/>
<polygon fill="#63b8ff" stroke="#63b8ff" points="200.95,-78 210.95,-74.5 200.95,-71 200.95,-78"/>
</a>
</g>
</g>
</g>
</svg>
