<?xml version="1.0" encoding="UTF-8" standalone="no"?>
<!DOCTYPE svg PUBLIC "-//W3C//DTD SVG 1.1//EN"
 "http://www.w3.org/Graphics/SVG/1.1/DTD/svg11.dtd">
<!-- Generated by graphviz version 2.43.0 (0)
 -->
<!-- Title: wmtk::simplex::link Pages: 1 -->
<svg width="1670pt" height="605pt"
 viewBox="0.00 0.00 1670.00 605.28" xmlns="http://www.w3.org/2000/svg" xmlns:xlink="http://www.w3.org/1999/xlink">
<g id="graph0" class="graph" transform="scale(1 1) rotate(0) translate(4 601.28)">
<title>wmtk::simplex::link</title>
<!-- Node1 -->
<g id="Node000001" class="node">
<title>Node1</title>
<g id="a_Node000001"><a xlink:title=" ">
<polygon fill="#999999" stroke="#666666" points="113,-86.5 0,-86.5 0,-67.5 113,-67.5 113,-86.5"/>
<text text-anchor="middle" x="56.5" y="-74.5" font-family="Helvetica,sans-Serif" font-size="10.00">wmtk::simplex::link</text>
</a>
</g>
</g>
<!-- Node2 -->
<g id="Node000002" class="node">
<title>Node2</title>
<g id="a_Node000002"><a xlink:href="namespacewmtk_1_1simplex.html#a867591ecfe758ade38e03561223ac20f" target="_top" xlink:title=" ">
<polygon fill="white" stroke="#666666" points="297.5,-154 184.5,-154 184.5,-124 297.5,-124 297.5,-154"/>
<text text-anchor="start" x="192.5" y="-142" font-family="Helvetica,sans-Serif" font-size="10.00">wmtk::simplex::link</text>
<text text-anchor="middle" x="241" y="-131" font-family="Helvetica,sans-Serif" font-size="10.00">_single_dimension</text>
</a>
</g>
</g>
<!-- Node1&#45;&gt;Node2 -->
<g id="edge1_Node000001_Node000002" class="edge">
<title>Node1&#45;&gt;Node2</title>
<g id="a_edge1_Node000001_Node000002"><a xlink:title=" ">
<path fill="none" stroke="#63b8ff" d="M83.05,-86.5C101.35,-93.24 126.61,-102.4 149,-110 159.69,-113.63 171.12,-117.38 182.16,-120.93"/>
<polygon fill="#63b8ff" stroke="#63b8ff" points="181.13,-124.27 191.72,-123.99 183.26,-117.6 181.13,-124.27"/>
</a>
</g>
</g>
<!-- Node10 -->
<g id="Node000010" class="node">
<title>Node10</title>
<g id="a_Node000010"><a xlink:href="namespacewmtk.html#a441d6ad4f19569c7d4946e743da1a925" target="_top" xlink:title=" ">
<polygon fill="white" stroke="#666666" points="1365,-197 1243,-197 1243,-167 1365,-167 1365,-197"/>
<text text-anchor="start" x="1251" y="-185" font-family="Helvetica,sans-Serif" font-size="10.00">wmtk::log_and_throw</text>
<text text-anchor="middle" x="1304" y="-174" font-family="Helvetica,sans-Serif" font-size="10.00">_error</text>
</a>
</g>
</g>
<!-- Node1&#45;&gt;Node10 -->
<g id="edge34_Node000001_Node000010" class="edge">
<title>Node1&#45;&gt;Node10</title>
<g id="a_edge34_Node000001_Node000010"><a xlink:title=" ">
<path fill="none" stroke="#63b8ff" d="M113.18,-81.55C186.86,-87.17 320.84,-96 435.5,-96 435.5,-96 435.5,-96 853,-96 991.48,-96 1030,-80.06 1164,-115 1202.43,-125.02 1242.96,-145.9 1270.27,-161.71"/>
<polygon fill="#63b8ff" stroke="#63b8ff" points="1268.62,-164.79 1279.01,-166.85 1272.17,-158.76 1268.62,-164.79"/>
</a>
</g>
</g>
<!-- Node19 -->
<g id="Node000019" class="node">
<title>Node19</title>
<g id="a_Node000019"><a xlink:href="classwmtk_1_1simplex_1_1_simplex.html#ad2cc0340a0772b7d6f03ba7a781d1163" target="_top" xlink:title=" ">
<polygon fill="white" stroke="#666666" points="1371.5,-111 1236.5,-111 1236.5,-81 1371.5,-81 1371.5,-111"/>
<text text-anchor="start" x="1244.5" y="-99" font-family="Helvetica,sans-Serif" font-size="10.00">wmtk::simplex::Simplex</text>
<text text-anchor="middle" x="1304" y="-88" font-family="Helvetica,sans-Serif" font-size="10.00">::primitive_type</text>
</a>
</g>
</g>
<!-- Node1&#45;&gt;Node19 -->
<g id="edge35_Node000001_Node000019" class="edge">
<title>Node1&#45;&gt;Node19</title>
<g id="a_edge35_Node000001_Node000019"><a xlink:title=" ">
<path fill="none" stroke="#63b8ff" d="M113.18,-72.45C186.86,-66.83 320.84,-58 435.5,-58 435.5,-58 435.5,-58 853,-58 984.55,-58 1136.96,-74.32 1226.38,-85.57"/>
<polygon fill="#63b8ff" stroke="#63b8ff" points="1226.07,-89.06 1236.44,-86.85 1226.96,-82.12 1226.07,-89.06"/>
</a>
</g>
</g>
<!-- Node24 -->
<g id="Node000024" class="node">
<title>Node24</title>
<g id="a_Node000024"><a xlink:href="classwmtk_1_1simplex_1_1_simplex_collection.html#a09a154d336ba0374f829cf0be7f1da3d" target="_top" xlink:title=" ">
<polygon fill="white" stroke="#666666" points="333,-30 149,-30 149,0 333,0 333,-30"/>
<text text-anchor="start" x="157" y="-18" font-family="Helvetica,sans-Serif" font-size="10.00">wmtk::simplex::SimplexCollection</text>
<text text-anchor="middle" x="241" y="-7" font-family="Helvetica,sans-Serif" font-size="10.00">::sort</text>
</a>
</g>
</g>
<!-- Node1&#45;&gt;Node24 -->
<g id="edge36_Node000001_Node000024" class="edge">
<title>Node1&#45;&gt;Node24</title>
<g id="a_edge36_Node000001_Node000024"><a xlink:title=" ">
<path fill="none" stroke="#63b8ff" d="M83.05,-67.5C101.35,-60.76 126.61,-51.6 149,-44 159.69,-40.37 171.12,-36.62 182.16,-33.07"/>
<polygon fill="#63b8ff" stroke="#63b8ff" points="183.26,-36.4 191.72,-30.01 181.13,-29.73 183.26,-36.4"/>
</a>
</g>
</g>
<!-- Node2&#45;&gt;Node2 -->
<g id="edge2_Node000002_Node000002" class="edge">
<title>Node2&#45;&gt;Node2</title>
<g id="a_edge2_Node000002_Node000002"><a xlink:title=" ">
<path fill="none" stroke="#63b8ff" d="M208.66,-154.28C201.47,-163.41 212.25,-172 241,-172 258.07,-172 268.81,-168.97 273.21,-164.6"/>
<polygon fill="#63b8ff" stroke="#63b8ff" points="276.71,-164.32 273.34,-154.28 269.71,-164.23 276.71,-164.32"/>
</a>
</g>
</g>
<!-- Node3 -->
<g id="Node000003" class="node">
<title>Node3</title>
<g id="a_Node000003"><a xlink:href="namespacewmtk_1_1simplex.html#ab9fe71cf495e974936cc882fe96a596e" target="_top" xlink:title=" ">
<polygon fill="white" stroke="#666666" points="504,-370 369,-370 369,-340 504,-340 504,-370"/>
<text text-anchor="start" x="377" y="-358" font-family="Helvetica,sans-Serif" font-size="10.00">wmtk::simplex::link</text>
<text text-anchor="middle" x="436.5" y="-347" font-family="Helvetica,sans-Serif" font-size="10.00">_single_dimension_slow</text>
</a>
</g>
</g>
<!-- Node2&#45;&gt;Node3 -->
<g id="edge3_Node000002_Node000003" class="edge">
<title>Node2&#45;&gt;Node3</title>
<g id="a_edge3_Node000002_Node000003"><a xlink:title=" ">
<path fill="none" stroke="#63b8ff" d="M255.61,-154.19C289.05,-191.52 375.44,-287.95 415.07,-332.2"/>
<polygon fill="#63b8ff" stroke="#63b8ff" points="412.63,-334.72 421.91,-339.83 417.84,-330.04 412.63,-334.72"/>
</a>
</g>
</g>
<!-- Node20 -->
<g id="Node000020" class="node">
<title>Node20</title>
<g id="a_Node000020"><a xlink:href="classwmtk_1_1_mesh.html#abaf00438d0700358b160e310d69725c9" target="_top" xlink:title=" ">
<polygon fill="white" stroke="#666666" points="937,-148.5 767,-148.5 767,-129.5 937,-129.5 937,-148.5"/>
<text text-anchor="middle" x="852" y="-136.5" font-family="Helvetica,sans-Serif" font-size="10.00">wmtk::Mesh::top_simplex_type</text>
</a>
</g>
</g>
<!-- Node2&#45;&gt;Node20 -->
<g id="edge33_Node000002_Node000020" class="edge">
<title>Node2&#45;&gt;Node20</title>
<g id="a_edge33_Node000002_Node000020"><a xlink:title=" ">
<path fill="none" stroke="#63b8ff" d="M297.66,-139C402.01,-139 628.08,-139 756.63,-139"/>
<polygon fill="#63b8ff" stroke="#63b8ff" points="756.86,-142.5 766.86,-139 756.86,-135.5 756.86,-142.5"/>
</a>
</g>
</g>
<!-- Node4 -->
<g id="Node000004" class="node">
<title>Node4</title>
<g id="a_Node000004"><a xlink:href="classwmtk_1_1simplex_1_1_simplex_collection.html#a1e7079b3b75f70dd28c524556cab76cf" target="_top" xlink:title="Add simplex to the collection.">
<polygon fill="white" stroke="#666666" points="1408,-418.5 1200,-418.5 1200,-399.5 1408,-399.5 1408,-418.5"/>
<text text-anchor="middle" x="1304" y="-406.5" font-family="Helvetica,sans-Serif" font-size="10.00">wmtk::simplex::SimplexCollection::add</text>
</a>
</g>
</g>
<!-- Node3&#45;&gt;Node4 -->
<g id="edge4_Node000003_Node000004" class="edge">
<title>Node3&#45;&gt;Node4</title>
<g id="a_edge4_Node000003_Node000004"><a xlink:title=" ">
<path fill="none" stroke="#63b8ff" d="M442.76,-370.23C454.74,-402.62 487.15,-478.67 540,-519 621.15,-580.93 659,-570.18 760,-585 940.45,-611.48 1002.17,-597.11 1164,-513 1211.33,-488.4 1259.66,-448.1 1284.98,-425.57"/>
<polygon fill="#63b8ff" stroke="#63b8ff" points="1287.56,-427.96 1292.65,-418.66 1282.88,-422.76 1287.56,-427.96"/>
</a>
</g>
</g>
<!-- Node5 -->
<g id="Node000005" class="node">
<title>Node5</title>
<g id="a_Node000005"><a xlink:href="namespacewmtk_1_1simplex.html#a2ed8f83fbda4dc05306bfe8d2ce7ab94" target="_top" xlink:title="The closed star contains the input simplex, all its top dimension cofaces, and their faces.">
<polygon fill="white" stroke="#666666" points="707.5,-364.5 556.5,-364.5 556.5,-345.5 707.5,-345.5 707.5,-364.5"/>
<text text-anchor="middle" x="632" y="-352.5" font-family="Helvetica,sans-Serif" font-size="10.00">wmtk::simplex::closed_star</text>
</a>
</g>
</g>
<!-- Node3&#45;&gt;Node5 -->
<g id="edge5_Node000003_Node000005" class="edge">
<title>Node3&#45;&gt;Node5</title>
<g id="a_edge5_Node000003_Node000005"><a xlink:title=" ">
<path fill="none" stroke="#63b8ff" d="M504.09,-355C517.64,-355 532.06,-355 546.15,-355"/>
<polygon fill="#63b8ff" stroke="#63b8ff" points="546.32,-358.5 556.32,-355 546.32,-351.5 546.32,-358.5"/>
</a>
</g>
</g>
<!-- Node6 -->
<g id="Node000006" class="node">
<title>Node6</title>
<g id="a_Node000006"><a xlink:href="namespacewmtk_1_1simplex.html#aee89641a0de7b5ddf8d15bf376f9d33b" target="_top" xlink:title="Returns all faces of a simplex.">
<polygon fill="white" stroke="#666666" points="913,-536.5 791,-536.5 791,-517.5 913,-517.5 913,-536.5"/>
<text text-anchor="middle" x="852" y="-524.5" font-family="Helvetica,sans-Serif" font-size="10.00">wmtk::simplex::faces</text>
</a>
</g>
</g>
<!-- Node3&#45;&gt;Node6 -->
<g id="edge29_Node000003_Node000006" class="edge">
<title>Node3&#45;&gt;Node6</title>
<g id="a_edge29_Node000003_Node000006"><a xlink:title=" ">
<path fill="none" stroke="#63b8ff" d="M468.11,-370.17C524.8,-397.93 650.36,-457.83 760,-499 774.96,-504.62 791.6,-509.99 806.52,-514.49"/>
<polygon fill="#63b8ff" stroke="#63b8ff" points="805.95,-517.97 816.53,-517.47 807.94,-511.26 805.95,-517.97"/>
</a>
</g>
</g>
<!-- Node14 -->
<g id="Node000014" class="node">
<title>Node14</title>
<g id="a_Node000014"><a xlink:href="classwmtk_1_1simplex_1_1_simplex_collection.html#a3c5684abe23553010bb7f87840e9518d" target="_top" xlink:title="Return const reference to the simplex vector.">
<polygon fill="white" stroke="#666666" points="944,-197 760,-197 760,-167 944,-167 944,-197"/>
<text text-anchor="start" x="768" y="-185" font-family="Helvetica,sans-Serif" font-size="10.00">wmtk::simplex::SimplexCollection</text>
<text text-anchor="middle" x="852" y="-174" font-family="Helvetica,sans-Serif" font-size="10.00">::simplex_vector</text>
</a>
</g>
</g>
<!-- Node3&#45;&gt;Node14 -->
<g id="edge31_Node000003_Node000014" class="edge">
<title>Node3&#45;&gt;Node14</title>
<g id="a_edge31_Node000003_Node000014"><a xlink:title=" ">
<path fill="none" stroke="#63b8ff" d="M457.44,-339.87C477.48,-325.17 509.68,-302.94 540,-288 620.06,-248.55 718.44,-217.73 782.83,-199.72"/>
<polygon fill="#63b8ff" stroke="#63b8ff" points="783.77,-203.09 792.47,-197.05 781.9,-196.35 783.77,-203.09"/>
</a>
</g>
</g>
<!-- Node15 -->
<g id="Node000015" class="node">
<title>Node15</title>
<g id="a_Node000015"><a xlink:href="classwmtk_1_1simplex_1_1_simplex_collection.html#ab318c99d54327383ff1b985bed043f3a" target="_top" xlink:title="Sort simplex vector and remove duplicates.">
<polygon fill="white" stroke="#666666" points="1164,-504 980,-504 980,-474 1164,-474 1164,-504"/>
<text text-anchor="start" x="988" y="-492" font-family="Helvetica,sans-Serif" font-size="10.00">wmtk::simplex::SimplexCollection</text>
<text text-anchor="middle" x="1072" y="-481" font-family="Helvetica,sans-Serif" font-size="10.00">::sort_and_clean</text>
</a>
</g>
</g>
<!-- Node3&#45;&gt;Node15 -->
<g id="edge32_Node000003_Node000015" class="edge">
<title>Node3&#45;&gt;Node15</title>
<g id="a_edge32_Node000003_Node000015"><a xlink:title=" ">
<path fill="none" stroke="#63b8ff" d="M449.8,-370.07C467.85,-391.47 503.37,-430.97 540,-457 628.63,-519.98 654.04,-539.6 760,-564 839.69,-582.35 865.11,-585.55 944,-564 982,-553.62 1020.2,-528.62 1044.63,-510.33"/>
<polygon fill="#63b8ff" stroke="#63b8ff" points="1046.86,-513.03 1052.68,-504.18 1042.61,-507.47 1046.86,-513.03"/>
</a>
</g>
</g>
<!-- Node23 -->
<g id="Node000023" class="node">
<title>Node23</title>
<g id="a_Node000023"><a xlink:href="classwmtk_1_1simplex_1_1_simplex_collection.html#a592a38f5119ed654001d88d032bcea9c" target="_top" xlink:title="Get intersection of two simplex collections.">
<polygon fill="white" stroke="#666666" points="724,-327 540,-327 540,-297 724,-297 724,-327"/>
<text text-anchor="start" x="548" y="-315" font-family="Helvetica,sans-Serif" font-size="10.00">wmtk::simplex::SimplexCollection</text>
<text text-anchor="middle" x="632" y="-304" font-family="Helvetica,sans-Serif" font-size="10.00">::get_intersection</text>
</a>
</g>
</g>
<!-- Node3&#45;&gt;Node23 -->
<g id="edge30_Node000003_Node000023" class="edge">
<title>Node3&#45;&gt;Node23</title>
<g id="a_edge30_Node000003_Node000023"><a xlink:title=" ">
<path fill="none" stroke="#63b8ff" d="M504.09,-340.2C519.93,-336.68 536.98,-332.89 553.27,-329.27"/>
<polygon fill="#63b8ff" stroke="#63b8ff" points="554.3,-332.63 563.3,-327.04 552.78,-325.8 554.3,-332.63"/>
</a>
</g>
</g>
<!-- Node5&#45;&gt;Node4 -->
<g id="edge6_Node000005_Node000004" class="edge">
<title>Node5&#45;&gt;Node4</title>
<g id="a_edge6_Node000005_Node000004"><a xlink:title=" ">
<path fill="none" stroke="#63b8ff" d="M707.63,-352.18C771.33,-351.51 864.92,-354.68 944,-374 961.01,-378.16 962.99,-385.86 980,-390 1048.25,-406.59 1126.89,-411.51 1189.48,-412.2"/>
<polygon fill="#63b8ff" stroke="#63b8ff" points="1189.75,-415.7 1199.78,-412.27 1189.81,-408.7 1189.75,-415.7"/>
</a>
</g>
</g>
<!-- Node5&#45;&gt;Node6 -->
<g id="edge7_Node000005_Node000006" class="edge">
<title>Node5&#45;&gt;Node6</title>
<g id="a_edge7_Node000005_Node000006"><a xlink:title=" ">
<path fill="none" stroke="#63b8ff" d="M644.16,-364.67C662.16,-380.57 698.19,-413.71 724,-446 742.71,-469.4 735.84,-485.28 760,-503 766.39,-507.69 773.63,-511.46 781.16,-514.5"/>
<polygon fill="#63b8ff" stroke="#63b8ff" points="780.23,-517.88 790.82,-517.96 782.59,-511.29 780.23,-517.88"/>
</a>
</g>
</g>
<!-- Node7 -->
<g id="Node000007" class="node">
<title>Node7</title>
<g id="a_Node000007"><a xlink:href="classwmtk_1_1_mesh.html#a8cc8686f0688613806f43720b6db49e7" target="_top" xlink:title="check validity of tuple including its hash">
<polygon fill="white" stroke="#666666" points="912,-278.5 792,-278.5 792,-259.5 912,-259.5 912,-278.5"/>
<text text-anchor="middle" x="852" y="-266.5" font-family="Helvetica,sans-Serif" font-size="10.00">wmtk::Mesh::is_valid</text>
</a>
</g>
</g>
<!-- Node5&#45;&gt;Node7 -->
<g id="edge9_Node000005_Node000007" class="edge">
<title>Node5&#45;&gt;Node7</title>
<g id="a_edge9_Node000005_Node000007"><a xlink:title=" ">
<path fill="none" stroke="#63b8ff" d="M704.06,-345.5C711.09,-343.01 717.87,-339.9 724,-336 746.5,-321.69 737.5,-302.31 760,-288 766.78,-283.69 774.36,-280.34 782.17,-277.73"/>
<polygon fill="#63b8ff" stroke="#63b8ff" points="783.18,-281.09 791.79,-274.91 781.21,-274.37 783.18,-281.09"/>
</a>
</g>
</g>
<!-- Node5&#45;&gt;Node10 -->
<g id="edge13_Node000005_Node000010" class="edge">
<title>Node5&#45;&gt;Node10</title>
<g id="a_edge13_Node000005_Node000010"><a xlink:title=" ">
<path fill="none" stroke="#63b8ff" d="M707.83,-345.8C713.64,-343.22 719.14,-340 724,-336 755.69,-309.95 728.48,-277.26 760,-251 798.48,-218.94 930.41,-209.01 980,-202 1066.47,-189.77 1167.01,-185.02 1232.66,-183.17"/>
<polygon fill="#63b8ff" stroke="#63b8ff" points="1232.98,-186.67 1242.89,-182.9 1232.8,-179.67 1232.98,-186.67"/>
</a>
</g>
</g>
<!-- Node13 -->
<g id="Node000013" class="node">
<title>Node13</title>
<g id="a_Node000013"><a xlink:href="classwmtk_1_1simplex_1_1_simplex_collection.html#a1973c83eede96b64f422049c6fc52976" target="_top" xlink:title=" ">
<polygon fill="white" stroke="#666666" points="944,-461 760,-461 760,-431 944,-431 944,-461"/>
<text text-anchor="start" x="768" y="-449" font-family="Helvetica,sans-Serif" font-size="10.00">wmtk::simplex::SimplexCollection</text>
<text text-anchor="middle" x="852" y="-438" font-family="Helvetica,sans-Serif" font-size="10.00">::reserve</text>
</a>
</g>
</g>
<!-- Node5&#45;&gt;Node13 -->
<g id="edge16_Node000005_Node000013" class="edge">
<title>Node5&#45;&gt;Node13</title>
<g id="a_edge16_Node000005_Node000013"><a xlink:title=" ">
<path fill="none" stroke="#63b8ff" d="M648.49,-364.66C671.88,-378.91 717.96,-405.61 760,-422 765.36,-424.09 770.98,-426.06 776.66,-427.9"/>
<polygon fill="#63b8ff" stroke="#63b8ff" points="775.69,-431.27 786.28,-430.88 777.76,-424.58 775.69,-431.27"/>
</a>
</g>
</g>
<!-- Node5&#45;&gt;Node14 -->
<g id="edge17_Node000005_Node000014" class="edge">
<title>Node5&#45;&gt;Node14</title>
<g id="a_edge17_Node000005_Node000014"><a xlink:title=" ">
<path fill="none" stroke="#63b8ff" d="M707.92,-346.63C713.79,-343.87 719.27,-340.39 724,-336 766.38,-296.67 719.7,-252.45 760,-211 763.21,-207.7 766.79,-204.78 770.63,-202.18"/>
<polygon fill="#63b8ff" stroke="#63b8ff" points="772.55,-205.11 779.39,-197.02 768.99,-199.08 772.55,-205.11"/>
</a>
</g>
</g>
<!-- Node5&#45;&gt;Node15 -->
<g id="edge18_Node000005_Node000015" class="edge">
<title>Node5&#45;&gt;Node15</title>
<g id="a_edge18_Node000005_Node000015"><a xlink:title=" ">
<path fill="none" stroke="#63b8ff" d="M642.06,-364.71C666.1,-390.24 731.63,-458.06 760,-470 826,-497.78 906.9,-501.91 969.65,-499.42"/>
<polygon fill="#63b8ff" stroke="#63b8ff" points="970.13,-502.9 979.95,-498.95 969.8,-495.91 970.13,-502.9"/>
</a>
</g>
</g>
<!-- Node16 -->
<g id="Node000016" class="node">
<title>Node16</title>
<g id="a_Node000016"><a xlink:href="namespacewmtk_1_1simplex.html#a87de7137d8d21f1643dd604d73e8f765" target="_top" xlink:title="Get all top dimension cofaces of the given simplex.">
<polygon fill="white" stroke="#666666" points="910,-327 794,-327 794,-297 910,-297 910,-327"/>
<text text-anchor="start" x="802" y="-315" font-family="Helvetica,sans-Serif" font-size="10.00">wmtk::simplex::top</text>
<text text-anchor="middle" x="852" y="-304" font-family="Helvetica,sans-Serif" font-size="10.00">_dimension_cofaces</text>
</a>
</g>
</g>
<!-- Node5&#45;&gt;Node16 -->
<g id="edge19_Node000005_Node000016" class="edge">
<title>Node5&#45;&gt;Node16</title>
<g id="a_edge19_Node000005_Node000016"><a xlink:title=" ">
<path fill="none" stroke="#63b8ff" d="M681.38,-345.46C711.51,-339.51 750.69,-331.79 783.8,-325.25"/>
<polygon fill="#63b8ff" stroke="#63b8ff" points="784.74,-328.64 793.87,-323.27 783.38,-321.77 784.74,-328.64"/>
</a>
</g>
</g>
<!-- Node5&#45;&gt;Node20 -->
<g id="edge26_Node000005_Node000020" class="edge">
<title>Node5&#45;&gt;Node20</title>
<g id="a_edge26_Node000005_Node000020"><a xlink:title=" ">
<path fill="none" stroke="#63b8ff" d="M707.88,-347.24C713.83,-344.37 719.34,-340.69 724,-336 780.89,-278.75 703.11,-215.25 760,-158 761.29,-156.7 762.65,-155.48 764.06,-154.33"/>
<polygon fill="#63b8ff" stroke="#63b8ff" points="766.34,-157.01 772.69,-148.53 762.44,-151.2 766.34,-157.01"/>
</a>
</g>
</g>
<!-- Node22 -->
<g id="Node000022" class="node">
<title>Node22</title>
<g id="a_Node000022"><a xlink:href="classwmtk_1_1simplex_1_1_simplex.html#aca78b1fb0a3c28c0036cf7919bfb0789" target="_top" xlink:title=" ">
<polygon fill="white" stroke="#666666" points="919.5,-413 784.5,-413 784.5,-383 919.5,-383 919.5,-413"/>
<text text-anchor="start" x="792.5" y="-401" font-family="Helvetica,sans-Serif" font-size="10.00">wmtk::simplex::Simplex</text>
<text text-anchor="middle" x="852" y="-390" font-family="Helvetica,sans-Serif" font-size="10.00">::tuple</text>
</a>
</g>
</g>
<!-- Node5&#45;&gt;Node22 -->
<g id="edge28_Node000005_Node000022" class="edge">
<title>Node5&#45;&gt;Node22</title>
<g id="a_edge28_Node000005_Node000022"><a xlink:title=" ">
<path fill="none" stroke="#63b8ff" d="M681.38,-364.54C708.66,-369.92 743.37,-376.77 774.27,-382.86"/>
<polygon fill="#63b8ff" stroke="#63b8ff" points="773.66,-386.31 784.15,-384.81 775.02,-379.45 773.66,-386.31"/>
</a>
</g>
</g>
<!-- Node6&#45;&gt;Node6 -->
<g id="edge8_Node000006_Node000006" class="edge">
<title>Node6&#45;&gt;Node6</title>
<g id="a_edge8_Node000006_Node000006"><a xlink:title=" ">
<path fill="none" stroke="#63b8ff" d="M818.09,-536.58C801.6,-545.23 812.9,-554.5 852,-554.5 880.1,-554.5 893.85,-549.71 893.23,-543.81"/>
<polygon fill="#63b8ff" stroke="#63b8ff" points="895.48,-541.12 885.91,-536.58 890.57,-546.1 895.48,-541.12"/>
</a>
</g>
</g>
<!-- Node8 -->
<g id="Node000008" class="node">
<title>Node8</title>
<g id="a_Node000008"><a xlink:href="classwmtk_1_1_tuple.html#a0023f575be92cd5ceeeaaaa3762ea06d" target="_top" xlink:title="Checks if a tuple is &quot;null&quot;. This merely implies the global index is &#45;1.">
<polygon fill="white" stroke="#666666" points="1128.5,-284.5 1015.5,-284.5 1015.5,-265.5 1128.5,-265.5 1128.5,-284.5"/>
<text text-anchor="middle" x="1072" y="-272.5" font-family="Helvetica,sans-Serif" font-size="10.00">wmtk::Tuple::is_null</text>
</a>
</g>
</g>
<!-- Node7&#45;&gt;Node8 -->
<g id="edge10_Node000007_Node000008" class="edge">
<title>Node7&#45;&gt;Node8</title>
<g id="a_edge10_Node000007_Node000008"><a xlink:title=" ">
<path fill="none" stroke="#63b8ff" d="M912.28,-270.63C941.04,-271.42 975.68,-272.38 1005.25,-273.19"/>
<polygon fill="#63b8ff" stroke="#63b8ff" points="1005.39,-276.7 1015.48,-273.47 1005.58,-269.7 1005.39,-276.7"/>
</a>
</g>
</g>
<!-- Node9 -->
<g id="Node000009" class="node">
<title>Node9</title>
<g id="a_Node000009"><a xlink:href="classwmtk_1_1_mesh.html#ade176d345902d97af8c5da04aa3a095b" target="_top" xlink:title=" ">
<polygon fill="white" stroke="#666666" points="1142,-229.5 1002,-229.5 1002,-210.5 1142,-210.5 1142,-229.5"/>
<text text-anchor="middle" x="1072" y="-217.5" font-family="Helvetica,sans-Serif" font-size="10.00">wmtk::Mesh::is_removed</text>
</a>
</g>
</g>
<!-- Node7&#45;&gt;Node9 -->
<g id="edge11_Node000007_Node000009" class="edge">
<title>Node7&#45;&gt;Node9</title>
<g id="a_edge11_Node000007_Node000009"><a xlink:title=" ">
<path fill="none" stroke="#63b8ff" d="M895.29,-259.49C930.53,-251.57 980.87,-240.26 1018.65,-231.77"/>
<polygon fill="#63b8ff" stroke="#63b8ff" points="1019.47,-235.17 1028.45,-229.56 1017.93,-228.34 1019.47,-235.17"/>
</a>
</g>
</g>
<!-- Node9&#45;&gt;Node9 -->
<g id="edge12_Node000009_Node000009" class="edge">
<title>Node9&#45;&gt;Node9</title>
<g id="a_edge12_Node000009_Node000009"><a xlink:title=" ">
<path fill="none" stroke="#63b8ff" d="M1038.09,-229.58C1021.6,-238.23 1032.9,-247.5 1072,-247.5 1100.1,-247.5 1113.85,-242.71 1113.23,-236.81"/>
<polygon fill="#63b8ff" stroke="#63b8ff" points="1115.48,-234.12 1105.91,-229.58 1110.57,-239.1 1115.48,-234.12"/>
</a>
</g>
</g>
<!-- Node11 -->
<g id="Node000011" class="node">
<title>Node11</title>
<g id="a_Node000011"><a xlink:href="namespacewmtk.html#a6a35f11c12436093d26fdd8be6fecc06" target="_top" xlink:title="Retrieves the current logger.">
<polygon fill="white" stroke="#666666" points="1525,-191.5 1444,-191.5 1444,-172.5 1525,-172.5 1525,-191.5"/>
<text text-anchor="middle" x="1484.5" y="-179.5" font-family="Helvetica,sans-Serif" font-size="10.00">wmtk::logger</text>
</a>
</g>
</g>
<!-- Node10&#45;&gt;Node11 -->
<g id="edge14_Node000010_Node000011" class="edge">
<title>Node10&#45;&gt;Node11</title>
<g id="a_edge14_Node000010_Node000011"><a xlink:title=" ">
<path fill="none" stroke="#63b8ff" d="M1365.43,-182C1387.68,-182 1412.61,-182 1433.81,-182"/>
<polygon fill="#63b8ff" stroke="#63b8ff" points="1433.89,-185.5 1443.89,-182 1433.89,-178.5 1433.89,-185.5"/>
</a>
</g>
</g>
<!-- Node12 -->
<g id="Node000012" class="node">
<title>Node12</title>
<g id="a_Node000012"><a xlink:href="namespacewmtk.html#a3daa7951a5f8b78cf4600dc047fcc180" target="_top" xlink:title="Setup a logger object to be used by WildmeshToolkit.">
<polygon fill="white" stroke="#666666" points="1662,-191.5 1561,-191.5 1561,-172.5 1662,-172.5 1662,-191.5"/>
<text text-anchor="middle" x="1611.5" y="-179.5" font-family="Helvetica,sans-Serif" font-size="10.00">wmtk::set_logger</text>
</a>
</g>
</g>
<!-- Node11&#45;&gt;Node12 -->
<g id="edge15_Node000011_Node000012" class="edge">
<title>Node11&#45;&gt;Node12</title>
<g id="a_edge15_Node000011_Node000012"><a xlink:title=" ">
<path fill="none" stroke="#63b8ff" d="M1525.05,-182C1533.17,-182 1541.9,-182 1550.55,-182"/>
<polygon fill="#63b8ff" stroke="#63b8ff" points="1550.65,-185.5 1560.65,-182 1550.65,-178.5 1550.65,-185.5"/>
</a>
</g>
</g>
<!-- Node16&#45;&gt;Node15 -->
<g id="edge21_Node000016_Node000015" class="edge">
<title>Node16&#45;&gt;Node15</title>
<g id="a_edge21_Node000016_Node000015"><a xlink:title=" ">
<path fill="none" stroke="#63b8ff" d="M877.21,-327.19C895.92,-339.24 922.22,-356.85 944,-374 982.17,-404.05 1023.33,-442.57 1048.13,-466.51"/>
<polygon fill="#63b8ff" stroke="#63b8ff" points="1045.96,-469.29 1055.58,-473.75 1050.84,-464.27 1045.96,-469.29"/>
</a>
</g>
</g>
<!-- Node17 -->
<g id="Node000017" class="node">
<title>Node17</title>
<g id="a_Node000017"><a xlink:href="classwmtk_1_1simplex_1_1_simplex_collection.html#a0d0c1765c4ed8ffd0f163661111bfb08" target="_top" xlink:title=" ">
<polygon fill="white" stroke="#666666" points="1164,-381 980,-381 980,-351 1164,-351 1164,-381"/>
<text text-anchor="start" x="988" y="-369" font-family="Helvetica,sans-Serif" font-size="10.00">wmtk::simplex::SimplexCollection</text>
<text text-anchor="middle" x="1072" y="-358" font-family="Helvetica,sans-Serif" font-size="10.00">::mesh</text>
</a>
</g>
</g>
<!-- Node16&#45;&gt;Node17 -->
<g id="edge20_Node000016_Node000017" class="edge">
<title>Node16&#45;&gt;Node17</title>
<g id="a_edge20_Node000016_Node000017"><a xlink:title=" ">
<path fill="none" stroke="#63b8ff" d="M910.28,-326.19C937.93,-333.04 971.37,-341.32 1000.57,-348.55"/>
<polygon fill="#63b8ff" stroke="#63b8ff" points="999.74,-351.96 1010.29,-350.96 1001.43,-345.16 999.74,-351.96"/>
</a>
</g>
</g>
<!-- Node18 -->
<g id="Node000018" class="node">
<title>Node18</title>
<g id="a_Node000018"><a xlink:href="namespacewmtk_1_1simplex.html#a0101f27eb2ad82814390b92ab1a4d1a0" target="_top" xlink:title=" ">
<polygon fill="white" stroke="#666666" points="1147.5,-333 996.5,-333 996.5,-303 1147.5,-303 1147.5,-333"/>
<text text-anchor="start" x="1004.5" y="-321" font-family="Helvetica,sans-Serif" font-size="10.00">wmtk::simplex::top</text>
<text text-anchor="middle" x="1072" y="-310" font-family="Helvetica,sans-Serif" font-size="10.00">_dimension_cofaces_tuples</text>
</a>
</g>
</g>
<!-- Node16&#45;&gt;Node18 -->
<g id="edge22_Node000016_Node000018" class="edge">
<title>Node16&#45;&gt;Node18</title>
<g id="a_edge22_Node000016_Node000018"><a xlink:title=" ">
<path fill="none" stroke="#63b8ff" d="M910.28,-313.58C933.55,-314.22 960.93,-314.97 986.42,-315.67"/>
<polygon fill="#63b8ff" stroke="#63b8ff" points="986.37,-319.17 996.46,-315.95 986.56,-312.17 986.37,-319.17"/>
</a>
</g>
</g>
<!-- Node18&#45;&gt;Node4 -->
<g id="edge23_Node000018_Node000004" class="edge">
<title>Node18&#45;&gt;Node4</title>
<g id="a_edge23_Node000018_Node000004"><a xlink:title=" ">
<path fill="none" stroke="#63b8ff" d="M1136.64,-333.12C1145.9,-335.8 1155.26,-338.78 1164,-342 1204.69,-357.02 1249.51,-379.84 1276.96,-394.59"/>
<polygon fill="#63b8ff" stroke="#63b8ff" points="1275.45,-397.75 1285.91,-399.44 1278.79,-391.6 1275.45,-397.75"/>
</a>
</g>
</g>
<!-- Node18&#45;&gt;Node10 -->
<g id="edge24_Node000018_Node000010" class="edge">
<title>Node18&#45;&gt;Node10</title>
<g id="a_edge24_Node000018_Node000010"><a xlink:title=" ">
<path fill="none" stroke="#63b8ff" d="M1142.7,-302.89C1150.06,-300.34 1157.29,-297.39 1164,-294 1210.37,-270.56 1255.62,-229.78 1281.33,-204.43"/>
<polygon fill="#63b8ff" stroke="#63b8ff" points="1284.07,-206.65 1288.66,-197.1 1279.12,-201.7 1284.07,-206.65"/>
</a>
</g>
</g>
<!-- Node18&#45;&gt;Node19 -->
<g id="edge25_Node000018_Node000019" class="edge">
<title>Node18&#45;&gt;Node19</title>
<g id="a_edge25_Node000018_Node000019"><a xlink:title=" ">
<path fill="none" stroke="#63b8ff" d="M1147.72,-305.67C1153.71,-302.57 1159.26,-298.73 1164,-294 1208.23,-249.81 1162.47,-208.01 1200,-158 1213.79,-139.63 1234.76,-125.59 1254.19,-115.56"/>
<polygon fill="#63b8ff" stroke="#63b8ff" points="1255.84,-118.65 1263.27,-111.09 1252.75,-112.37 1255.84,-118.65"/>
</a>
</g>
</g>
<!-- Node21 -->
<g id="Node000021" class="node">
<title>Node21</title>
<g id="a_Node000021"><a xlink:href="classwmtk_1_1_mesh.html#a933f681cf24a63b155c9462280385200" target="_top" xlink:title=" ">
<polygon fill="white" stroke="#666666" points="1132.5,-154 1011.5,-154 1011.5,-124 1132.5,-124 1132.5,-154"/>
<text text-anchor="start" x="1019.5" y="-142" font-family="Helvetica,sans-Serif" font-size="10.00">wmtk::Mesh::top_cell</text>
<text text-anchor="middle" x="1072" y="-131" font-family="Helvetica,sans-Serif" font-size="10.00">_dimension</text>
</a>
</g>
</g>
<!-- Node20&#45;&gt;Node21 -->
<g id="edge27_Node000020_Node000021" class="edge">
<title>Node20&#45;&gt;Node21</title>
<g id="a_edge27_Node000020_Node000021"><a xlink:title=" ">
<path fill="none" stroke="#63b8ff" d="M937.28,-139C958.4,-139 980.82,-139 1001.15,-139"/>
<polygon fill="#63b8ff" stroke="#63b8ff" points="1001.25,-142.5 1011.25,-139 1001.25,-135.5 1001.25,-142.5"/>
</a>
</g>
</g>
</g>
</svg>
