<?xml version="1.0" encoding="UTF-8" standalone="no"?>
<!DOCTYPE svg PUBLIC "-//W3C//DTD SVG 1.1//EN"
 "http://www.w3.org/Graphics/SVG/1.1/DTD/svg11.dtd">
<!-- Generated by graphviz version 2.43.0 (0)
 -->
<!-- Title: wmtk::operations::internal::largest_subdarts Pages: 1 -->
<!--zoomable 390 -->

<svg id="main" version="1.1" xmlns="http://www.w3.org/2000/svg" xmlns:xlink="http://www.w3.org/1999/xlink" xml:space="preserve" onload="init(evt)">
<style type="text/css"><![CDATA[
.node, .edge {opacity: 0.7;}
.node.selected, .edge.selected {opacity: 1;}
.edge:hover path { stroke: red; }
.edge:hover polygon { stroke: red; fill: red; }
]]></style>

<defs>
  <circle id="rim" cx="0" cy="0" r="7"/>
  <circle id="rim2" cx="0" cy="0" r="3.5"/>
  <g id="zoomPlus">
    <use xlink:href="#rim" fill="#404040"><set attributeName="fill" to="#808080" begin="zoomplus.mouseover" end="zoomplus.mouseout"/></use>
    <path d="M-4,0h8M0,-4v8" fill="none" stroke="white" stroke-width="1.5" pointer-events="none"/>
  </g>
  <g id="zoomMin">
    <use xlink:href="#rim" fill="#404040"><set attributeName="fill" to="#808080" begin="zoomminus.mouseover" end="zoomminus.mouseout"/></use>
    <path d="M-4,0h8" fill="none" stroke="white" stroke-width="1.5" pointer-events="none"/>
  </g>
  <g id="arrowUp" transform="translate(30 24)">
    <use xlink:href="#rim"/>
    <path pointer-events="none" fill="none" stroke="white" stroke-width="1.5" d="M0,-3.0v7 M-2.5,-0.5L0,-3.0L2.5,-0.5"/>
  </g>
  <g id="arrowRight" transform="rotate(90) translate(36 -43)">
    <use xlink:href="#rim"/>
    <path pointer-events="none" fill="none" stroke="white" stroke-width="1.5" d="M0,-3.0v7 M-2.5,-0.5L0,-3.0L2.5,-0.5"/>
  </g>
  <g id="arrowDown" transform="rotate(180) translate(-30 -48)">
    <use xlink:href="#rim"/>
    <path pointer-events="none" fill="none" stroke="white" stroke-width="1.5" d="M0,-3.0v7 M-2.5,-0.5L0,-3.0L2.5,-0.5"/>
  </g>
  <g id="arrowLeft" transform="rotate(270) translate(-36 17)">
    <use xlink:href="#rim"/>
    <path pointer-events="none" fill="none" stroke="white" stroke-width="1.5" d="M0,-3.0v7 M-2.5,-0.5L0,-3.0L2.5,-0.5"/>
  </g>
  <g id="resetDef">
    <use xlink:href="#rim2" fill="#404040"><set attributeName="fill" to="#808080" begin="reset.mouseover" end="reset.mouseout"/></use>
  </g>
</defs>
<script type="application/ecmascript">
var viewWidth = 1111;
var viewHeight = 390;
var sectionId = 'dynsection-4';
</script>
<script type="application/ecmascript" xlink:href="svg.min.js"/>
<svg id="graph" class="graph">
<g id="viewport">
<title>wmtk::operations::internal::largest_subdarts</title>
<!-- Node1 -->
<g id="Node000001" class="node">
<title>Node1</title>
<g id="a_Node000001"><a xlink:title=" ">
<polygon fill="#999999" stroke="#666666" points="146,-163.15 0,-163.15 0,-133.15 146,-133.15 146,-163.15"/>
<text text-anchor="start" x="8" y="-151.15" font-family="Helvetica,sans-Serif" font-size="10.00">wmtk::operations::internal</text>
<text text-anchor="middle" x="73" y="-140.15" font-family="Helvetica,sans-Serif" font-size="10.00">::largest_subdarts</text>
</a>
</g>
</g>
<!-- Node2 -->
<g id="Node000002" class="node">
<title>Node2</title>
<g id="a_Node000002"><a xlink:href="namespacewmtk_1_1dart_1_1utils.html#a0852f8bf4073cbed6d81504c509bddd8" target="_top" xlink:title=" ">
<polygon fill="white" stroke="#666666" points="520.5,-295.15 365.5,-295.15 365.5,-265.15 520.5,-265.15 520.5,-295.15"/>
<text text-anchor="start" x="373.5" y="-283.15" font-family="Helvetica,sans-Serif" font-size="10.00">wmtk::dart::utils::</text>
<text text-anchor="middle" x="443" y="-272.15" font-family="Helvetica,sans-Serif" font-size="10.00">largest_shared_subdart_size</text>
</a>
</g>
</g>
<!-- Node1&#45;&gt;Node2 -->
<g id="edge1_Node000001_Node000002" class="edge">
<title>Node1&#45;&gt;Node2</title>
<g id="a_edge1_Node000001_Node000002"><a xlink:title=" ">
<path fill="none" stroke="#63b8ff" d="M115.86,-163.16C183.55,-187.45 316.89,-235.27 390.38,-261.63"/>
<polygon fill="#63b8ff" stroke="#63b8ff" points="389.31,-264.97 399.9,-265.05 391.67,-258.38 389.31,-264.97"/>
</a>
</g>
</g>
<!-- Node10 -->
<g id="Node000010" class="node">
<title>Node10</title>
<g id="a_Node000010"><a xlink:href="namespacewmtk_1_1operations_1_1internal.html#ad01cc16532cad89b24b8a339be36ae9e" target="_top" xlink:title=" ">
<polygon fill="white" stroke="#666666" points="328,-142.15 182,-142.15 182,-112.15 328,-112.15 328,-142.15"/>
<text text-anchor="start" x="190" y="-130.15" font-family="Helvetica,sans-Serif" font-size="10.00">wmtk::operations::internal</text>
<text text-anchor="middle" x="255" y="-119.15" font-family="Helvetica,sans-Serif" font-size="10.00">::local_boundary_indices</text>
</a>
</g>
</g>
<!-- Node1&#45;&gt;Node10 -->
<g id="edge11_Node000001_Node000010" class="edge">
<title>Node1&#45;&gt;Node10</title>
<g id="a_edge11_Node000001_Node000010"><a xlink:title=" ">
<path fill="none" stroke="#63b8ff" d="M146.18,-139.73C154.61,-138.74 163.27,-137.73 171.82,-136.74"/>
<polygon fill="#63b8ff" stroke="#63b8ff" points="172.28,-140.21 181.81,-135.57 171.47,-133.25 172.28,-140.21"/>
</a>
</g>
</g>
<!-- Node3 -->
<g id="Node000003" class="node">
<title>Node3</title>
<g id="a_Node000003"><a xlink:href="namespacewmtk_1_1autogen_1_1edge__mesh.html#a4d16e098b2116bfbfc4ecf56d2e99657" target="_top" xlink:title=" ">
<polygon fill="white" stroke="#666666" points="735,-381.65 595,-381.65 595,-340.65 735,-340.65 735,-381.65"/>
<text text-anchor="start" x="603" y="-369.65" font-family="Helvetica,sans-Serif" font-size="10.00">wmtk::autogen::edge</text>
<text text-anchor="start" x="603" y="-358.65" font-family="Helvetica,sans-Serif" font-size="10.00">_mesh::subdart_maximal</text>
<text text-anchor="middle" x="665" y="-347.65" font-family="Helvetica,sans-Serif" font-size="10.00">_action_to_face_size</text>
</a>
</g>
</g>
<!-- Node2&#45;&gt;Node3 -->
<g id="edge2_Node000002_Node000003" class="edge">
<title>Node2&#45;&gt;Node3</title>
<g id="a_edge2_Node000002_Node000003"><a xlink:title=" ">
<path fill="none" stroke="#63b8ff" d="M473.46,-295.17C496.16,-306.36 528.55,-321.48 558,-332.15 566.72,-335.31 575.95,-338.31 585.18,-341.11"/>
<polygon fill="#63b8ff" stroke="#63b8ff" points="584.2,-344.47 594.79,-343.94 586.19,-337.75 584.2,-344.47"/>
</a>
</g>
</g>
<!-- Node6 -->
<g id="Node000006" class="node">
<title>Node6</title>
<g id="a_Node000006"><a xlink:href="namespacewmtk_1_1autogen_1_1tet__mesh.html#a6c2a7209bd594316d454766d6be8c9df" target="_top" xlink:title=" ">
<polygon fill="white" stroke="#666666" points="735,-322.65 595,-322.65 595,-281.65 735,-281.65 735,-322.65"/>
<text text-anchor="start" x="603" y="-310.65" font-family="Helvetica,sans-Serif" font-size="10.00">wmtk::autogen::tet</text>
<text text-anchor="start" x="603" y="-299.65" font-family="Helvetica,sans-Serif" font-size="10.00">_mesh::subdart_maximal</text>
<text text-anchor="middle" x="665" y="-288.65" font-family="Helvetica,sans-Serif" font-size="10.00">_action_to_face_size</text>
</a>
</g>
</g>
<!-- Node2&#45;&gt;Node6 -->
<g id="edge5_Node000002_Node000006" class="edge">
<title>Node2&#45;&gt;Node6</title>
<g id="a_edge5_Node000002_Node000006"><a xlink:title=" ">
<path fill="none" stroke="#63b8ff" d="M520.64,-287.81C541.42,-289.89 563.95,-292.14 584.87,-294.24"/>
<polygon fill="#63b8ff" stroke="#63b8ff" points="584.69,-297.74 594.99,-295.25 585.39,-290.77 584.69,-297.74"/>
</a>
</g>
</g>
<!-- Node8 -->
<g id="Node000008" class="node">
<title>Node8</title>
<g id="a_Node000008"><a xlink:href="namespacewmtk_1_1autogen_1_1tri__mesh.html#a6dd4d5f30900add59669380efcb4bdf5" target="_top" xlink:title=" ">
<polygon fill="white" stroke="#666666" points="735,-263.65 595,-263.65 595,-222.65 735,-222.65 735,-263.65"/>
<text text-anchor="start" x="603" y="-251.65" font-family="Helvetica,sans-Serif" font-size="10.00">wmtk::autogen::tri</text>
<text text-anchor="start" x="603" y="-240.65" font-family="Helvetica,sans-Serif" font-size="10.00">_mesh::subdart_maximal</text>
<text text-anchor="middle" x="665" y="-229.65" font-family="Helvetica,sans-Serif" font-size="10.00">_action_to_face_size</text>
</a>
</g>
</g>
<!-- Node2&#45;&gt;Node8 -->
<g id="edge8_Node000002_Node000008" class="edge">
<title>Node2&#45;&gt;Node8</title>
<g id="a_edge8_Node000002_Node000008"><a xlink:title=" ">
<path fill="none" stroke="#63b8ff" d="M520.64,-267.26C541.42,-263.76 563.95,-259.97 584.87,-256.46"/>
<polygon fill="#63b8ff" stroke="#63b8ff" points="585.71,-259.86 594.99,-254.75 584.55,-252.96 585.71,-259.86"/>
</a>
</g>
</g>
<!-- Node4 -->
<g id="Node000004" class="node">
<title>Node4</title>
<g id="a_Node000004"><a xlink:href="namespacewmtk_1_1autogen_1_1edge__mesh.html#acbecc02b5c0dc4e41832dd3710629fd6" target="_top" xlink:title=" ">
<polygon fill="white" stroke="#666666" points="942.5,-370.15 816.5,-370.15 816.5,-340.15 942.5,-340.15 942.5,-370.15"/>
<text text-anchor="start" x="824.5" y="-358.15" font-family="Helvetica,sans-Serif" font-size="10.00">wmtk::autogen::edge</text>
<text text-anchor="middle" x="879.5" y="-347.15" font-family="Helvetica,sans-Serif" font-size="10.00">_mesh::simplex_index</text>
</a>
</g>
</g>
<!-- Node3&#45;&gt;Node4 -->
<g id="edge3_Node000003_Node000004" class="edge">
<title>Node3&#45;&gt;Node4</title>
<g id="a_edge3_Node000003_Node000004"><a xlink:title=" ">
<path fill="none" stroke="#63b8ff" d="M735.29,-359.19C758.08,-358.55 783.46,-357.83 806.45,-357.18"/>
<polygon fill="#63b8ff" stroke="#63b8ff" points="806.58,-360.68 816.48,-356.9 806.38,-353.68 806.58,-360.68"/>
</a>
</g>
</g>
<!-- Node5 -->
<g id="Node000005" class="node">
<title>Node5</title>
<g id="a_Node000005"><a xlink:href="namespacewmtk.html#a5cf45c152e856196bb734c6f48919a24" target="_top" xlink:title="Get a unique integer id corresponding to each primitive type.">
<polygon fill="white" stroke="#666666" points="1103,-234.15 987,-234.15 987,-204.15 1103,-204.15 1103,-234.15"/>
<text text-anchor="start" x="995" y="-222.15" font-family="Helvetica,sans-Serif" font-size="10.00">wmtk::get_primitive</text>
<text text-anchor="middle" x="1045" y="-211.15" font-family="Helvetica,sans-Serif" font-size="10.00">_type_id</text>
</a>
</g>
</g>
<!-- Node4&#45;&gt;Node5 -->
<g id="edge4_Node000004_Node000005" class="edge">
<title>Node4&#45;&gt;Node5</title>
<g id="a_edge4_Node000004_Node000005"><a xlink:title=" ">
<path fill="none" stroke="#63b8ff" d="M921.26,-340.11C931.44,-335.44 942.01,-329.75 951,-323.15 982.16,-300.26 1010.61,-265.48 1027.63,-242.54"/>
<polygon fill="#63b8ff" stroke="#63b8ff" points="1030.51,-244.52 1033.57,-234.38 1024.85,-240.4 1030.51,-244.52"/>
</a>
</g>
</g>
<!-- Node7 -->
<g id="Node000007" class="node">
<title>Node7</title>
<g id="a_Node000007"><a xlink:href="namespacewmtk_1_1autogen_1_1tet__mesh.html#a2fbff4d384c75ccff14367e97bfe36cf" target="_top" xlink:title=" ">
<polygon fill="white" stroke="#666666" points="942.5,-314.15 816.5,-314.15 816.5,-284.15 942.5,-284.15 942.5,-314.15"/>
<text text-anchor="start" x="824.5" y="-302.15" font-family="Helvetica,sans-Serif" font-size="10.00">wmtk::autogen::tet</text>
<text text-anchor="middle" x="879.5" y="-291.15" font-family="Helvetica,sans-Serif" font-size="10.00">_mesh::simplex_index</text>
</a>
</g>
</g>
<!-- Node6&#45;&gt;Node7 -->
<g id="edge6_Node000006_Node000007" class="edge">
<title>Node6&#45;&gt;Node7</title>
<g id="a_edge6_Node000006_Node000007"><a xlink:title=" ">
<path fill="none" stroke="#63b8ff" d="M735.29,-301.17C758.08,-300.85 783.46,-300.49 806.45,-300.17"/>
<polygon fill="#63b8ff" stroke="#63b8ff" points="806.53,-303.67 816.48,-300.02 806.43,-296.67 806.53,-303.67"/>
</a>
</g>
</g>
<!-- Node7&#45;&gt;Node5 -->
<g id="edge7_Node000007_Node000005" class="edge">
<title>Node7&#45;&gt;Node5</title>
<g id="a_edge7_Node000007_Node000005"><a xlink:title=" ">
<path fill="none" stroke="#63b8ff" d="M919.26,-284.11C929.67,-279.83 940.85,-275 951,-270.15 970.62,-260.77 991.94,-249.18 1009.21,-239.43"/>
<polygon fill="#63b8ff" stroke="#63b8ff" points="1011.39,-242.21 1018.35,-234.22 1007.92,-236.13 1011.39,-242.21"/>
</a>
</g>
</g>
<!-- Node9 -->
<g id="Node000009" class="node">
<title>Node9</title>
<g id="a_Node000009"><a xlink:href="namespacewmtk_1_1autogen_1_1tri__mesh.html#a937ffd0c50dcdfe8458799ae7741f619" target="_top" xlink:title=" ">
<polygon fill="white" stroke="#666666" points="942.5,-261.15 816.5,-261.15 816.5,-231.15 942.5,-231.15 942.5,-261.15"/>
<text text-anchor="start" x="824.5" y="-249.15" font-family="Helvetica,sans-Serif" font-size="10.00">wmtk::autogen::tri</text>
<text text-anchor="middle" x="879.5" y="-238.15" font-family="Helvetica,sans-Serif" font-size="10.00">_mesh::simplex_index</text>
</a>
</g>
</g>
<!-- Node8&#45;&gt;Node9 -->
<g id="edge9_Node000008_Node000009" class="edge">
<title>Node8&#45;&gt;Node9</title>
<g id="a_edge9_Node000008_Node000009"><a xlink:title=" ">
<path fill="none" stroke="#63b8ff" d="M735.29,-244.13C758.08,-244.45 783.46,-244.81 806.45,-245.13"/>
<polygon fill="#63b8ff" stroke="#63b8ff" points="806.43,-248.63 816.48,-245.27 806.53,-241.63 806.43,-248.63"/>
</a>
</g>
</g>
<!-- Node9&#45;&gt;Node5 -->
<g id="edge10_Node000009_Node000005" class="edge">
<title>Node9&#45;&gt;Node5</title>
<g id="a_edge10_Node000009_Node000005"><a xlink:title=" ">
<path fill="none" stroke="#63b8ff" d="M942.78,-235.86C953.9,-234.03 965.54,-232.11 976.79,-230.25"/>
<polygon fill="#63b8ff" stroke="#63b8ff" points="977.7,-233.64 987,-228.56 976.56,-226.74 977.7,-233.64"/>
</a>
</g>
</g>
<!-- Node11 -->
<g id="Node000011" class="node">
<title>Node11</title>
<g id="a_Node000011"><a xlink:href="classwmtk_1_1dart_1_1_simplex_dart.html#a7b929a30594f63ccf71d51b167d4de23" target="_top" xlink:title=" ">
<polygon fill="white" stroke="#666666" points="522,-206.65 364,-206.65 364,-187.65 522,-187.65 522,-206.65"/>
<text text-anchor="middle" x="443" y="-194.65" font-family="Helvetica,sans-Serif" font-size="10.00">wmtk::dart::SimplexDart::act</text>
</a>
</g>
</g>
<!-- Node10&#45;&gt;Node11 -->
<g id="edge12_Node000010_Node000011" class="edge">
<title>Node10&#45;&gt;Node11</title>
<g id="a_edge12_Node000010_Node000011"><a xlink:title=" ">
<path fill="none" stroke="#63b8ff" d="M283.76,-142.17C305.2,-153.3 335.85,-168.19 364,-178.15 371.13,-180.67 378.73,-182.98 386.3,-185.04"/>
<polygon fill="#63b8ff" stroke="#63b8ff" points="385.62,-188.48 396.18,-187.62 387.38,-181.71 385.62,-188.48"/>
</a>
</g>
</g>
<!-- Node14 -->
<g id="Node000014" class="node">
<title>Node14</title>
<g id="a_Node000014"><a xlink:href="classwmtk_1_1dart_1_1_simplex_dart.html#ac60be5d6bfe2bf70c0f4e5b176cad236" target="_top" xlink:title=" ">
<polygon fill="white" stroke="#666666" points="511.5,-169.15 374.5,-169.15 374.5,-139.15 511.5,-139.15 511.5,-169.15"/>
<text text-anchor="start" x="382.5" y="-157.15" font-family="Helvetica,sans-Serif" font-size="10.00">wmtk::dart::SimplexDart</text>
<text text-anchor="middle" x="443" y="-146.15" font-family="Helvetica,sans-Serif" font-size="10.00">::opposite</text>
</a>
</g>
</g>
<!-- Node10&#45;&gt;Node14 -->
<g id="edge16_Node000010_Node000014" class="edge">
<title>Node10&#45;&gt;Node14</title>
<g id="a_edge16_Node000010_Node000014"><a xlink:title=" ">
<path fill="none" stroke="#63b8ff" d="M328.18,-137.63C340.07,-139.35 352.43,-141.15 364.44,-142.89"/>
<polygon fill="#63b8ff" stroke="#63b8ff" points="364.03,-146.37 374.43,-144.34 365.04,-139.44 364.03,-146.37"/>
</a>
</g>
</g>
<!-- Node15 -->
<g id="Node000015" class="node">
<title>Node15</title>
<g id="a_Node000015"><a xlink:href="classwmtk_1_1dart_1_1_simplex_dart.html#a7ab81b2a481b5c4e9d3c5e16f7493751" target="_top" xlink:title=" ">
<polygon fill="white" stroke="#666666" points="514.5,-120.65 371.5,-120.65 371.5,-79.65 514.5,-79.65 514.5,-120.65"/>
<text text-anchor="start" x="379.5" y="-108.65" font-family="Helvetica,sans-Serif" font-size="10.00">wmtk::dart::SimplexDart</text>
<text text-anchor="start" x="379.5" y="-97.65" font-family="Helvetica,sans-Serif" font-size="10.00">::permutation_index_from</text>
<text text-anchor="middle" x="443" y="-86.65" font-family="Helvetica,sans-Serif" font-size="10.00">_primitive_switch</text>
</a>
</g>
</g>
<!-- Node10&#45;&gt;Node15 -->
<g id="edge17_Node000010_Node000015" class="edge">
<title>Node10&#45;&gt;Node15</title>
<g id="a_edge17_Node000010_Node000015"><a xlink:title=" ">
<path fill="none" stroke="#63b8ff" d="M328.18,-116.67C339.05,-115.09 350.31,-113.46 361.34,-111.86"/>
<polygon fill="#63b8ff" stroke="#63b8ff" points="362,-115.3 371.39,-110.4 360.99,-108.37 362,-115.3"/>
</a>
</g>
</g>
<!-- Node16 -->
<g id="Node000016" class="node">
<title>Node16</title>
<g id="a_Node000016"><a xlink:href="classwmtk_1_1dart_1_1_simplex_dart.html#ad657cee68299758eeb9f380ee376c359" target="_top" xlink:title=" ">
<polygon fill="white" stroke="#666666" points="511.5,-61.15 374.5,-61.15 374.5,-31.15 511.5,-31.15 511.5,-61.15"/>
<text text-anchor="start" x="382.5" y="-49.15" font-family="Helvetica,sans-Serif" font-size="10.00">wmtk::dart::SimplexDart</text>
<text text-anchor="middle" x="443" y="-38.15" font-family="Helvetica,sans-Serif" font-size="10.00">::simplex_index</text>
</a>
</g>
</g>
<!-- Node10&#45;&gt;Node16 -->
<g id="edge18_Node000010_Node000016" class="edge">
<title>Node10&#45;&gt;Node16</title>
<g id="a_edge18_Node000010_Node000016"><a xlink:title=" ">
<path fill="none" stroke="#63b8ff" d="M281.53,-111.93C303.01,-99.55 334.81,-82.22 364,-70.15 368.71,-68.2 373.63,-66.33 378.62,-64.55"/>
<polygon fill="#63b8ff" stroke="#63b8ff" points="379.92,-67.8 388.24,-61.24 377.65,-61.18 379.92,-67.8"/>
</a>
</g>
</g>
<!-- Node21 -->
<g id="Node000021" class="node">
<title>Node21</title>
<g id="a_Node000021"><a xlink:href="classwmtk_1_1dart_1_1_simplex_dart.html#a75defb2c9d167b36c7fc73cd7d5bba60" target="_top" xlink:title=" ">
<polygon fill="white" stroke="#666666" points="733.5,-39.15 596.5,-39.15 596.5,-9.15 733.5,-9.15 733.5,-39.15"/>
<text text-anchor="start" x="604.5" y="-27.15" font-family="Helvetica,sans-Serif" font-size="10.00">wmtk::dart::SimplexDart</text>
<text text-anchor="middle" x="665" y="-16.15" font-family="Helvetica,sans-Serif" font-size="10.00">::simplex_type</text>
</a>
</g>
</g>
<!-- Node10&#45;&gt;Node21 -->
<g id="edge27_Node000010_Node000021" class="edge">
<title>Node10&#45;&gt;Node21</title>
<g id="a_edge27_Node000010_Node000021"><a xlink:title=" ">
<path fill="none" stroke="#63b8ff" d="M265.7,-111.99C282.34,-87.58 318.93,-40.45 364,-22.15 435.09,6.71 523.69,1.7 586.12,-7.76"/>
<polygon fill="#63b8ff" stroke="#63b8ff" points="585.87,-11.27 596.29,-9.38 586.97,-4.35 585.87,-11.27"/>
</a>
</g>
</g>
<!-- Node11&#45;&gt;Node11 -->
<g id="edge13_Node000011_Node000011" class="edge">
<title>Node11&#45;&gt;Node11</title>
<g id="a_edge13_Node000011_Node000011"><a xlink:title=" ">
<path fill="none" stroke="#63b8ff" d="M414.02,-206.73C399.93,-215.38 409.59,-224.65 443,-224.65 465.97,-224.65 477.72,-220.27 478.23,-214.72"/>
<polygon fill="#63b8ff" stroke="#63b8ff" points="480.9,-212.45 471.98,-206.73 475.39,-216.76 480.9,-212.45"/>
</a>
</g>
</g>
<!-- Node12 -->
<g id="Node000012" class="node">
<title>Node12</title>
<g id="a_Node000012"><a xlink:href="classwmtk_1_1dart_1_1___dart.html#ac92923bc94a0aace84b2cf69f277f63a" target="_top" xlink:title=" ">
<polygon fill="white" stroke="#666666" points="719,-204.15 611,-204.15 611,-174.15 719,-174.15 719,-204.15"/>
<text text-anchor="start" x="619" y="-192.15" font-family="Helvetica,sans-Serif" font-size="10.00">wmtk::dart::_Dart::</text>
<text text-anchor="middle" x="665" y="-181.15" font-family="Helvetica,sans-Serif" font-size="10.00">global_id</text>
</a>
</g>
</g>
<!-- Node11&#45;&gt;Node12 -->
<g id="edge14_Node000011_Node000012" class="edge">
<title>Node11&#45;&gt;Node12</title>
<g id="a_edge14_Node000011_Node000012"><a xlink:title=" ">
<path fill="none" stroke="#63b8ff" d="M522.18,-194.31C547.9,-193.37 576.16,-192.34 600.64,-191.45"/>
<polygon fill="#63b8ff" stroke="#63b8ff" points="601.01,-194.94 610.88,-191.08 600.76,-187.95 601.01,-194.94"/>
</a>
</g>
</g>
<!-- Node13 -->
<g id="Node000013" class="node">
<title>Node13</title>
<g id="a_Node000013"><a xlink:href="classwmtk_1_1dart_1_1___dart.html#aa34a01df7b33bec483a0da0158a1aca4" target="_top" xlink:title=" ">
<polygon fill="white" stroke="#666666" points="719,-156.15 611,-156.15 611,-126.15 719,-126.15 719,-156.15"/>
<text text-anchor="start" x="619" y="-144.15" font-family="Helvetica,sans-Serif" font-size="10.00">wmtk::dart::_Dart::</text>
<text text-anchor="middle" x="665" y="-133.15" font-family="Helvetica,sans-Serif" font-size="10.00">permutation</text>
</a>
</g>
</g>
<!-- Node11&#45;&gt;Node13 -->
<g id="edge15_Node000011_Node000013" class="edge">
<title>Node11&#45;&gt;Node13</title>
<g id="a_edge15_Node000011_Node000013"><a xlink:title=" ">
<path fill="none" stroke="#63b8ff" d="M486.73,-187.62C498.25,-184.81 510.66,-181.57 522,-178.15 538.29,-173.24 541.67,-169.92 558,-165.15 571.7,-161.14 586.56,-157.41 600.69,-154.13"/>
<polygon fill="#63b8ff" stroke="#63b8ff" points="601.85,-157.46 610.83,-151.83 600.3,-150.63 601.85,-157.46"/>
</a>
</g>
</g>
<!-- Node17 -->
<g id="Node000017" class="node">
<title>Node17</title>
<g id="a_Node000017"><a xlink:href="namespacewmtk_1_1dart_1_1utils.html#a372b3dc51045664821dc4d31392c4e29" target="_top" xlink:title=" ">
<polygon fill="white" stroke="#666666" points="772,-101.15 558,-101.15 558,-71.15 772,-71.15 772,-101.15"/>
<text text-anchor="start" x="566" y="-89.15" font-family="Helvetica,sans-Serif" font-size="10.00">wmtk::dart::utils::</text>
<text text-anchor="middle" x="665" y="-78.15" font-family="Helvetica,sans-Serif" font-size="10.00">simplex_index_from_permutation_index</text>
</a>
</g>
</g>
<!-- Node16&#45;&gt;Node17 -->
<g id="edge19_Node000016_Node000017" class="edge">
<title>Node16&#45;&gt;Node17</title>
<g id="a_edge19_Node000016_Node000017"><a xlink:title=" ">
<path fill="none" stroke="#63b8ff" d="M511.5,-58.42C530.41,-61.86 551.3,-65.66 571.4,-69.31"/>
<polygon fill="#63b8ff" stroke="#63b8ff" points="571.03,-72.8 581.5,-71.15 572.29,-65.92 571.03,-72.8"/>
</a>
</g>
</g>
<!-- Node16&#45;&gt;Node21 -->
<g id="edge26_Node000016_Node000021" class="edge">
<title>Node16&#45;&gt;Node21</title>
<g id="a_edge26_Node000016_Node000021"><a xlink:title=" ">
<path fill="none" stroke="#63b8ff" d="M511.5,-39.4C535.04,-37.04 561.65,-34.38 585.98,-31.95"/>
<polygon fill="#63b8ff" stroke="#63b8ff" points="586.64,-35.4 596.25,-30.92 585.95,-28.44 586.64,-35.4"/>
</a>
</g>
</g>
<!-- Node18 -->
<g id="Node000018" class="node">
<title>Node18</title>
<g id="a_Node000018"><a xlink:href="namespacewmtk_1_1autogen_1_1edge__mesh.html#a2da4fb815ae0466a1d5556d42f2666fd" target="_top" xlink:title=" ">
<polygon fill="white" stroke="#666666" points="951,-212.65 808,-212.65 808,-171.65 951,-171.65 951,-212.65"/>
<text text-anchor="start" x="816" y="-200.65" font-family="Helvetica,sans-Serif" font-size="10.00">wmtk::autogen::edge</text>
<text text-anchor="start" x="816" y="-189.65" font-family="Helvetica,sans-Serif" font-size="10.00">_mesh::simplex_index</text>
<text text-anchor="middle" x="879.5" y="-178.65" font-family="Helvetica,sans-Serif" font-size="10.00">_from_permutation_index</text>
</a>
</g>
</g>
<!-- Node17&#45;&gt;Node18 -->
<g id="edge20_Node000017_Node000018" class="edge">
<title>Node17&#45;&gt;Node18</title>
<g id="a_edge20_Node000017_Node000018"><a xlink:title=" ">
<path fill="none" stroke="#63b8ff" d="M739.34,-101.18C750.81,-105.3 762.12,-110.53 772,-117.15 793.28,-131.4 787.6,-146.66 808,-162.15 809.85,-163.55 811.78,-164.91 813.76,-166.21"/>
<polygon fill="#63b8ff" stroke="#63b8ff" points="812.38,-169.46 822.76,-171.58 815.97,-163.45 812.38,-169.46"/>
</a>
</g>
</g>
<!-- Node19 -->
<g id="Node000019" class="node">
<title>Node19</title>
<g id="a_Node000019"><a xlink:href="namespacewmtk_1_1autogen_1_1tet__mesh.html#a944e21208e52e1e4ae1b53c7382a288c" target="_top" xlink:title=" ">
<polygon fill="white" stroke="#666666" points="951,-153.65 808,-153.65 808,-112.65 951,-112.65 951,-153.65"/>
<text text-anchor="start" x="816" y="-141.65" font-family="Helvetica,sans-Serif" font-size="10.00">wmtk::autogen::tet</text>
<text text-anchor="start" x="816" y="-130.65" font-family="Helvetica,sans-Serif" font-size="10.00">_mesh::simplex_index</text>
<text text-anchor="middle" x="879.5" y="-119.65" font-family="Helvetica,sans-Serif" font-size="10.00">_from_permutation_index</text>
</a>
</g>
</g>
<!-- Node17&#45;&gt;Node19 -->
<g id="edge22_Node000017_Node000019" class="edge">
<title>Node17&#45;&gt;Node19</title>
<g id="a_edge22_Node000017_Node000019"><a xlink:title=" ">
<path fill="none" stroke="#63b8ff" d="M733.82,-101.15C754.16,-105.65 776.68,-110.63 797.77,-115.29"/>
<polygon fill="#63b8ff" stroke="#63b8ff" points="797.14,-118.74 807.66,-117.48 798.66,-111.9 797.14,-118.74"/>
</a>
</g>
</g>
<!-- Node20 -->
<g id="Node000020" class="node">
<title>Node20</title>
<g id="a_Node000020"><a xlink:href="namespacewmtk_1_1autogen_1_1tri__mesh.html#a2925b59cc22704e2365313840b016cb7" target="_top" xlink:title=" ">
<polygon fill="white" stroke="#666666" points="951,-94.65 808,-94.65 808,-53.65 951,-53.65 951,-94.65"/>
<text text-anchor="start" x="816" y="-82.65" font-family="Helvetica,sans-Serif" font-size="10.00">wmtk::autogen::tri</text>
<text text-anchor="start" x="816" y="-71.65" font-family="Helvetica,sans-Serif" font-size="10.00">_mesh::simplex_index</text>
<text text-anchor="middle" x="879.5" y="-60.65" font-family="Helvetica,sans-Serif" font-size="10.00">_from_permutation_index</text>
</a>
</g>
</g>
<!-- Node17&#45;&gt;Node20 -->
<g id="edge24_Node000017_Node000020" class="edge">
<title>Node17&#45;&gt;Node20</title>
<g id="a_edge24_Node000017_Node000020"><a xlink:title=" ">
<path fill="none" stroke="#63b8ff" d="M772.25,-80.15C780.81,-79.67 789.36,-79.18 797.7,-78.71"/>
<polygon fill="#63b8ff" stroke="#63b8ff" points="797.95,-82.2 807.74,-78.14 797.56,-75.21 797.95,-82.2"/>
</a>
</g>
</g>
<!-- Node18&#45;&gt;Node5 -->
<g id="edge21_Node000018_Node000005" class="edge">
<title>Node18&#45;&gt;Node5</title>
<g id="a_edge21_Node000018_Node000005"><a xlink:title=" ">
<path fill="none" stroke="#63b8ff" d="M951.26,-203.83C959.73,-205.23 968.36,-206.66 976.77,-208.05"/>
<polygon fill="#63b8ff" stroke="#63b8ff" points="976.47,-211.54 986.91,-209.72 977.61,-204.64 976.47,-211.54"/>
</a>
</g>
</g>
<!-- Node19&#45;&gt;Node5 -->
<g id="edge23_Node000019_Node000005" class="edge">
<title>Node19&#45;&gt;Node5</title>
<g id="a_edge23_Node000019_Node000005"><a xlink:title=" ">
<path fill="none" stroke="#63b8ff" d="M933.28,-153.77C939.32,-156.45 945.34,-159.27 951,-162.15 972.28,-172.96 995.15,-186.94 1012.88,-198.35"/>
<polygon fill="#63b8ff" stroke="#63b8ff" points="1011.36,-201.54 1021.65,-204.05 1015.18,-195.67 1011.36,-201.54"/>
</a>
</g>
</g>
<!-- Node20&#45;&gt;Node5 -->
<g id="edge25_Node000020_Node000005" class="edge">
<title>Node20&#45;&gt;Node5</title>
<g id="a_edge25_Node000020_Node000005"><a xlink:title=" ">
<path fill="none" stroke="#63b8ff" d="M937.68,-94.67C942.36,-97.23 946.87,-100.06 951,-103.15 985.05,-128.64 1013.79,-169.37 1029.96,-195.16"/>
<polygon fill="#63b8ff" stroke="#63b8ff" points="1027.12,-197.23 1035.33,-203.93 1033.09,-193.58 1027.12,-197.23"/>
</a>
</g>
</g>
</g>
</svg>

<g id="navigator" transform="translate(0 0)" fill="#404254">
  <rect fill="#f2f5e9" fill-opacity="0.5" stroke="#606060" stroke-width=".5" x="0" y="0" width="60" height="60"/>
  <use id="zoomplus" xlink:href="#zoomPlus" x="17" y="9" onmousedown="handleZoom(evt,'in')"/>
  <use id="zoomminus" xlink:href="#zoomMin" x="42" y="9" onmousedown="handleZoom(evt,'out')"/>
  <use id="reset" xlink:href="#resetDef" x="30" y="36" onmousedown="handleReset()"/>
   <use id="arrowup" xlink:href="#arrowUp" x="0" y="0" onmousedown="handlePan(0,-1)"/>
  <use id="arrowright" xlink:href="#arrowRight" x="0" y="0" onmousedown="handlePan(1,0)"/>
  <use id="arrowdown" xlink:href="#arrowDown" x="0" y="0" onmousedown="handlePan(0,1)"/>
  <use id="arrowleft" xlink:href="#arrowLeft" x="0" y="0" onmousedown="handlePan(-1,0)"/>
</g>
<svg viewBox="0 0 15 15" width="100%" height="30px" preserveAspectRatio="xMaxYMin meet">
 <g id="arrow_out" transform="scale(0.3 0.3)">
  <a xlink:href="namespacewmtk_1_1operations_1_1internal_ae4e4f6841986a64255466c9baedab476_cgraph_org.svg" target="_base">
   <rect id="button" ry="5" rx="5" y="6" x="6" height="38" width="38"
        fill="#f2f5e9" fill-opacity="0.5" stroke="#606060" stroke-width="1.0"/>
   <path id="arrow"
     d="M 11.500037,31.436501 C 11.940474,20.09759 22.043105,11.32322 32.158766,21.979434 L 37.068811,17.246167 C 37.068811,17.246167 37.088388,32 37.088388,32 L 22.160133,31.978069 C 22.160133,31.978069 26.997745,27.140456 26.997745,27.140456 C 18.528582,18.264221 13.291696,25.230495 11.500037,31.436501 z"
     style="fill:#404040;"/>
  </a>
 </g>
</svg>

<style type='text/css'>
<![CDATA[
[data-mouse-over-selected='false'] { opacity: 0.7; }
[data-mouse-over-selected='true']  { opacity: 1.0; }
]]>
</style>
<script type="application/ecmascript"><![CDATA[
document.addEventListener('DOMContentLoaded', (event) => {
  highlightEdges();
  highlightAdjacentNodes();
});
]]></script>
</svg>
