<?xml version="1.0" encoding="UTF-8" standalone="no"?>
<!DOCTYPE svg PUBLIC "-//W3C//DTD SVG 1.1//EN"
 "http://www.w3.org/Graphics/SVG/1.1/DTD/svg11.dtd">
<!-- Generated by graphviz version 2.43.0 (0)
 -->
<!-- Title: wmtk::dart::utils::from_vertex_permutation Pages: 1 -->
<svg width="591pt" height="230pt"
 viewBox="0.00 0.00 591.00 230.00" xmlns="http://www.w3.org/2000/svg" xmlns:xlink="http://www.w3.org/1999/xlink">
<g id="graph0" class="graph" transform="scale(1 1) rotate(0) translate(4 226)">
<title>wmtk::dart::utils::from_vertex_permutation</title>
<!-- Node1 -->
<g id="Node000001" class="node">
<title>Node1</title>
<g id="a_Node000001"><a xlink:title=" ">
<polygon fill="#999999" stroke="#666666" points="142,-78 0,-78 0,-48 142,-48 142,-78"/>
<text text-anchor="start" x="8" y="-66" font-family="Helvetica,sans-Serif" font-size="10.00">wmtk::dart::utils::</text>
<text text-anchor="middle" x="71" y="-55" font-family="Helvetica,sans-Serif" font-size="10.00">from_vertex_permutation</text>
</a>
</g>
</g>
<!-- Node2 -->
<g id="Node000002" class="node">
<title>Node2</title>
<g id="a_Node000002"><a xlink:href="namespacewmtk_1_1dart_1_1utils.html#abde62c0a71389836c3c3284be845b64a" target="_top" xlink:title=" ">
<polygon fill="white" stroke="#666666" points="348,-126 178,-126 178,-96 348,-96 348,-126"/>
<text text-anchor="start" x="186" y="-114" font-family="Helvetica,sans-Serif" font-size="10.00">wmtk::dart::utils::</text>
<text text-anchor="middle" x="263" y="-103" font-family="Helvetica,sans-Serif" font-size="10.00">from_local_vertex_permutation</text>
</a>
</g>
</g>
<!-- Node1&#45;&gt;Node2 -->
<g id="edge1_Node000001_Node000002" class="edge">
<title>Node1&#45;&gt;Node2</title>
<g id="a_edge1_Node000001_Node000002"><a xlink:title=" ">
<path fill="none" stroke="#63b8ff" d="M131.6,-78.06C151.05,-82.97 172.81,-88.47 192.9,-93.54"/>
<polygon fill="#63b8ff" stroke="#63b8ff" points="192.06,-96.94 202.62,-96 193.78,-90.15 192.06,-96.94"/>
</a>
</g>
</g>
<!-- Node6 -->
<g id="Node000006" class="node">
<title>Node6</title>
<g id="a_Node000006"><a xlink:href="namespacewmtk.html#a3b08a5d7fb42f02c54bae85758b39f59" target="_top" xlink:title="Get the primitive type corresponding to its unique integer id.">
<polygon fill="white" stroke="#666666" points="541.5,-78 425.5,-78 425.5,-48 541.5,-48 541.5,-78"/>
<text text-anchor="start" x="433.5" y="-66" font-family="Helvetica,sans-Serif" font-size="10.00">wmtk::get_primitive</text>
<text text-anchor="middle" x="483.5" y="-55" font-family="Helvetica,sans-Serif" font-size="10.00">_type_from_id</text>
</a>
</g>
</g>
<!-- Node1&#45;&gt;Node6 -->
<g id="edge6_Node000001_Node000006" class="edge">
<title>Node1&#45;&gt;Node6</title>
<g id="a_edge6_Node000001_Node000006"><a xlink:title=" ">
<path fill="none" stroke="#63b8ff" d="M142.1,-63C218.43,-63 339.65,-63 414.95,-63"/>
<polygon fill="#63b8ff" stroke="#63b8ff" points="415.27,-66.5 425.27,-63 415.27,-59.5 415.27,-66.5"/>
</a>
</g>
</g>
<!-- Node7 -->
<g id="Node000007" class="node">
<title>Node7</title>
<g id="a_Node000007"><a xlink:href="classwmtk_1_1dart_1_1_simplex_dart.html#a3949350f736cbf567bf566fd7565e6e8" target="_top" xlink:title=" ">
<polygon fill="white" stroke="#666666" points="331.5,-33 194.5,-33 194.5,-3 331.5,-3 331.5,-33"/>
<text text-anchor="start" x="202.5" y="-21" font-family="Helvetica,sans-Serif" font-size="10.00">wmtk::dart::SimplexDart</text>
<text text-anchor="middle" x="263" y="-10" font-family="Helvetica,sans-Serif" font-size="10.00">::get_singleton</text>
</a>
</g>
</g>
<!-- Node1&#45;&gt;Node7 -->
<g id="edge7_Node000001_Node000007" class="edge">
<title>Node1&#45;&gt;Node7</title>
<g id="a_edge7_Node000001_Node000007"><a xlink:title=" ">
<path fill="none" stroke="#63b8ff" d="M135.53,-47.95C152.49,-43.94 170.95,-39.57 188.39,-35.43"/>
<polygon fill="#63b8ff" stroke="#63b8ff" points="189.6,-38.74 198.53,-33.03 187.99,-31.93 189.6,-38.74"/>
</a>
</g>
</g>
<!-- Node3 -->
<g id="Node000003" class="node">
<title>Node3</title>
<g id="a_Node000003"><a xlink:href="namespacewmtk_1_1dart_1_1utils.html#a13cd76ed1efba55aad86ae9f8faee2dd" target="_top" xlink:title=" ">
<polygon fill="white" stroke="#666666" points="583,-222 384,-222 384,-192 583,-192 583,-222"/>
<text text-anchor="start" x="392" y="-210" font-family="Helvetica,sans-Serif" font-size="10.00">wmtk::dart::utils::</text>
<text text-anchor="middle" x="483.5" y="-199" font-family="Helvetica,sans-Serif" font-size="10.00">from_local_vertex_permutation&lt; 2 &gt;</text>
</a>
</g>
</g>
<!-- Node2&#45;&gt;Node3 -->
<g id="edge2_Node000002_Node000003" class="edge">
<title>Node2&#45;&gt;Node3</title>
<g id="a_edge2_Node000002_Node000003"><a xlink:title=" ">
<path fill="none" stroke="#63b8ff" d="M284.65,-126.05C307.79,-142.26 346.92,-167.77 384,-183 389.14,-185.11 394.51,-187.07 399.97,-188.87"/>
<polygon fill="#63b8ff" stroke="#63b8ff" points="399.29,-192.33 409.88,-191.96 401.38,-185.64 399.29,-192.33"/>
</a>
</g>
</g>
<!-- Node4 -->
<g id="Node000004" class="node">
<title>Node4</title>
<g id="a_Node000004"><a xlink:href="namespacewmtk_1_1dart_1_1utils.html#aa40f35943640500fab606c0b20fd1049" target="_top" xlink:title=" ">
<polygon fill="white" stroke="#666666" points="583,-174 384,-174 384,-144 583,-144 583,-174"/>
<text text-anchor="start" x="392" y="-162" font-family="Helvetica,sans-Serif" font-size="10.00">wmtk::dart::utils::</text>
<text text-anchor="middle" x="483.5" y="-151" font-family="Helvetica,sans-Serif" font-size="10.00">from_local_vertex_permutation&lt; 3 &gt;</text>
</a>
</g>
</g>
<!-- Node2&#45;&gt;Node4 -->
<g id="edge3_Node000002_Node000004" class="edge">
<title>Node2&#45;&gt;Node4</title>
<g id="a_edge3_Node000002_Node000004"><a xlink:title=" ">
<path fill="none" stroke="#63b8ff" d="M332.54,-126.06C355.31,-131.06 380.85,-136.67 404.3,-141.82"/>
<polygon fill="#63b8ff" stroke="#63b8ff" points="403.69,-145.27 414.21,-144 405.19,-138.43 403.69,-145.27"/>
</a>
</g>
</g>
<!-- Node5 -->
<g id="Node000005" class="node">
<title>Node5</title>
<g id="a_Node000005"><a xlink:href="namespacewmtk_1_1dart_1_1utils.html#ad9d59c8cb5df3d18678f5cda2cf9f733" target="_top" xlink:title=" ">
<polygon fill="white" stroke="#666666" points="583,-126 384,-126 384,-96 583,-96 583,-126"/>
<text text-anchor="start" x="392" y="-114" font-family="Helvetica,sans-Serif" font-size="10.00">wmtk::dart::utils::</text>
<text text-anchor="middle" x="483.5" y="-103" font-family="Helvetica,sans-Serif" font-size="10.00">from_local_vertex_permutation&lt; 4 &gt;</text>
</a>
</g>
</g>
<!-- Node2&#45;&gt;Node5 -->
<g id="edge4_Node000002_Node000005" class="edge">
<title>Node2&#45;&gt;Node5</title>
<g id="a_edge4_Node000002_Node000005"><a xlink:title=" ">
<path fill="none" stroke="#63b8ff" d="M348.17,-111C356.55,-111 365.14,-111 373.72,-111"/>
<polygon fill="#63b8ff" stroke="#63b8ff" points="373.79,-114.5 383.79,-111 373.79,-107.5 373.79,-114.5"/>
</a>
</g>
</g>
<!-- Node2&#45;&gt;Node6 -->
<g id="edge5_Node000002_Node000006" class="edge">
<title>Node2&#45;&gt;Node6</title>
<g id="a_edge5_Node000002_Node000006"><a xlink:title=" ">
<path fill="none" stroke="#63b8ff" d="M332.54,-95.94C358.95,-90.14 389.07,-83.53 415.35,-77.75"/>
<polygon fill="#63b8ff" stroke="#63b8ff" points="416.2,-81.15 425.21,-75.58 414.7,-74.31 416.2,-81.15"/>
</a>
</g>
</g>
<!-- Node8 -->
<g id="Node000008" class="node">
<title>Node8</title>
<g id="a_Node000008"><a xlink:href="classwmtk_1_1dart_1_1_simplex_dart.html#a75defb2c9d167b36c7fc73cd7d5bba60" target="_top" xlink:title=" ">
<polygon fill="white" stroke="#666666" points="552,-30 415,-30 415,0 552,0 552,-30"/>
<text text-anchor="start" x="423" y="-18" font-family="Helvetica,sans-Serif" font-size="10.00">wmtk::dart::SimplexDart</text>
<text text-anchor="middle" x="483.5" y="-7" font-family="Helvetica,sans-Serif" font-size="10.00">::simplex_type</text>
</a>
</g>
</g>
<!-- Node7&#45;&gt;Node8 -->
<g id="edge8_Node000007_Node000008" class="edge">
<title>Node7&#45;&gt;Node8</title>
<g id="a_edge8_Node000007_Node000008"><a xlink:title=" ">
<path fill="none" stroke="#63b8ff" d="M331.64,-17.07C354.78,-16.75 380.85,-16.4 404.72,-16.07"/>
<polygon fill="#63b8ff" stroke="#63b8ff" points="404.85,-19.57 414.81,-15.93 404.76,-12.57 404.85,-19.57"/>
</a>
</g>
</g>
</g>
</svg>
