<?xml version="1.0" encoding="UTF-8" standalone="no"?>
<!DOCTYPE svg PUBLIC "-//W3C//DTD SVG 1.1//EN"
 "http://www.w3.org/Graphics/SVG/1.1/DTD/svg11.dtd">
<!-- Generated by graphviz version 2.43.0 (0)
 -->
<!-- Title: wmtk::utils::internal::manifold_decomposition Pages: 1 -->
<svg width="531pt" height="49pt"
 viewBox="0.00 0.00 531.00 49.00" xmlns="http://www.w3.org/2000/svg" xmlns:xlink="http://www.w3.org/1999/xlink">
<g id="graph0" class="graph" transform="scale(1 1) rotate(0) translate(4 45)">
<title>wmtk::utils::internal::manifold_decomposition</title>
<!-- Node1 -->
<g id="Node000001" class="node">
<title>Node1</title>
<g id="a_Node000001"><a xlink:title=" ">
<polygon fill="#999999" stroke="#666666" points="523,-35.5 380,-35.5 380,-5.5 523,-5.5 523,-35.5"/>
<text text-anchor="start" x="388" y="-23.5" font-family="Helvetica,sans-Serif" font-size="10.00">wmtk::utils::internal</text>
<text text-anchor="middle" x="451.5" y="-12.5" font-family="Helvetica,sans-Serif" font-size="10.00">::manifold_decomposition</text>
</a>
</g>
</g>
<!-- Node2 -->
<g id="Node000002" class="node">
<title>Node2</title>
<g id="a_Node000002"><a xlink:href="structwmtk_1_1utils_1_1internal_1_1_manifold_decomposition.html#ae9eb38ee0bdefaa7361de23116d7f8db" target="_top" xlink:title=" ">
<polygon fill="white" stroke="#666666" points="344,-41 205,-41 205,0 344,0 344,-41"/>
<text text-anchor="start" x="213" y="-29" font-family="Helvetica,sans-Serif" font-size="10.00">wmtk::utils::internal</text>
<text text-anchor="start" x="213" y="-18" font-family="Helvetica,sans-Serif" font-size="10.00">::ManifoldDecomposition</text>
<text text-anchor="middle" x="274.5" y="-7" font-family="Helvetica,sans-Serif" font-size="10.00">::face_matrix</text>
</a>
</g>
</g>
<!-- Node1&#45;&gt;Node2 -->
<g id="edge1_Node000001_Node000002" class="edge">
<title>Node1&#45;&gt;Node2</title>
<g id="a_edge1_Node000001_Node000002"><a xlink:title=" ">
<path fill="none" stroke="#63b8ff" d="M369.82,-20.5C361.25,-20.5 352.58,-20.5 344.17,-20.5"/>
<polygon fill="#63b8ff" stroke="#63b8ff" points="369.83,-24 379.83,-20.5 369.83,-17 369.83,-24"/>
</a>
</g>
</g>
<!-- Node3 -->
<g id="Node000003" class="node">
<title>Node3</title>
<g id="a_Node000003"><a xlink:href="structwmtk_1_1components_1_1multimesh_1_1_non_manifold_cascade.html#a05c4b8acec17651d9f6f44b5f8eddc7f" target="_top" xlink:title=" ">
<polygon fill="white" stroke="#666666" points="169,-35.5 0,-35.5 0,-5.5 169,-5.5 169,-35.5"/>
<text text-anchor="start" x="8" y="-23.5" font-family="Helvetica,sans-Serif" font-size="10.00">wmtk::components::multimesh</text>
<text text-anchor="middle" x="84.5" y="-12.5" font-family="Helvetica,sans-Serif" font-size="10.00">::NonManifoldCascade::init</text>
</a>
</g>
</g>
<!-- Node2&#45;&gt;Node3 -->
<g id="edge2_Node000002_Node000003" class="edge">
<title>Node2&#45;&gt;Node3</title>
<g id="a_edge2_Node000002_Node000003"><a xlink:title=" ">
<path fill="none" stroke="#63b8ff" d="M194.61,-20.5C186.15,-20.5 177.52,-20.5 169.01,-20.5"/>
<polygon fill="#63b8ff" stroke="#63b8ff" points="194.83,-24 204.83,-20.5 194.83,-17 194.83,-24"/>
</a>
</g>
</g>
</g>
</svg>
