<?xml version="1.0" encoding="UTF-8" standalone="no"?>
<!DOCTYPE svg PUBLIC "-//W3C//DTD SVG 1.1//EN"
 "http://www.w3.org/Graphics/SVG/1.1/DTD/svg11.dtd">
<!-- Generated by graphviz version 2.43.0 (0)
 -->
<!-- Title: wmtk::components::adjust_sizing_field Pages: 1 -->
<!--zoomable 730 -->

<svg id="main" version="1.1" xmlns="http://www.w3.org/2000/svg" xmlns:xlink="http://www.w3.org/1999/xlink" xml:space="preserve" onload="init(evt)">
<style type="text/css"><![CDATA[
.node, .edge {opacity: 0.7;}
.node.selected, .edge.selected {opacity: 1;}
.edge:hover path { stroke: red; }
.edge:hover polygon { stroke: red; fill: red; }
]]></style>

<defs>
  <circle id="rim" cx="0" cy="0" r="7"/>
  <circle id="rim2" cx="0" cy="0" r="3.5"/>
  <g id="zoomPlus">
    <use xlink:href="#rim" fill="#404040"><set attributeName="fill" to="#808080" begin="zoomplus.mouseover" end="zoomplus.mouseout"/></use>
    <path d="M-4,0h8M0,-4v8" fill="none" stroke="white" stroke-width="1.5" pointer-events="none"/>
  </g>
  <g id="zoomMin">
    <use xlink:href="#rim" fill="#404040"><set attributeName="fill" to="#808080" begin="zoomminus.mouseover" end="zoomminus.mouseout"/></use>
    <path d="M-4,0h8" fill="none" stroke="white" stroke-width="1.5" pointer-events="none"/>
  </g>
  <g id="arrowUp" transform="translate(30 24)">
    <use xlink:href="#rim"/>
    <path pointer-events="none" fill="none" stroke="white" stroke-width="1.5" d="M0,-3.0v7 M-2.5,-0.5L0,-3.0L2.5,-0.5"/>
  </g>
  <g id="arrowRight" transform="rotate(90) translate(36 -43)">
    <use xlink:href="#rim"/>
    <path pointer-events="none" fill="none" stroke="white" stroke-width="1.5" d="M0,-3.0v7 M-2.5,-0.5L0,-3.0L2.5,-0.5"/>
  </g>
  <g id="arrowDown" transform="rotate(180) translate(-30 -48)">
    <use xlink:href="#rim"/>
    <path pointer-events="none" fill="none" stroke="white" stroke-width="1.5" d="M0,-3.0v7 M-2.5,-0.5L0,-3.0L2.5,-0.5"/>
  </g>
  <g id="arrowLeft" transform="rotate(270) translate(-36 17)">
    <use xlink:href="#rim"/>
    <path pointer-events="none" fill="none" stroke="white" stroke-width="1.5" d="M0,-3.0v7 M-2.5,-0.5L0,-3.0L2.5,-0.5"/>
  </g>
  <g id="resetDef">
    <use xlink:href="#rim2" fill="#404040"><set attributeName="fill" to="#808080" begin="reset.mouseover" end="reset.mouseout"/></use>
  </g>
</defs>
<script type="application/ecmascript">
var viewWidth = 1660;
var viewHeight = 730;
var sectionId = 'dynsection-0';
</script>
<script type="application/ecmascript" xlink:href="svg.min.js"/>
<svg id="graph" class="graph">
<g id="viewport">
<title>wmtk::components::adjust_sizing_field</title>
<!-- Node1 -->
<g id="Node000001" class="node">
<title>Node1</title>
<g id="a_Node000001"><a xlink:title=" ">
<polygon fill="#999999" stroke="#666666" points="146,-426 0,-426 0,-396 146,-396 146,-426"/>
<text text-anchor="start" x="8" y="-414" font-family="Helvetica,sans-Serif" font-size="10.00">wmtk::components::adjust</text>
<text text-anchor="middle" x="73" y="-403" font-family="Helvetica,sans-Serif" font-size="10.00">_sizing_field</text>
</a>
</g>
</g>
<!-- Node2 -->
<g id="Node000002" class="node">
<title>Node2</title>
<g id="a_Node000002"><a xlink:href="classwmtk_1_1_mesh.html#ad85569ecd50cc7c0b5161b1d1cd13ebb" target="_top" xlink:title=" ">
<polygon fill="white" stroke="#666666" points="306,-722 193,-722 193,-692 306,-692 306,-722"/>
<text text-anchor="start" x="201" y="-710" font-family="Helvetica,sans-Serif" font-size="10.00">wmtk::Mesh::create</text>
<text text-anchor="middle" x="249.5" y="-699" font-family="Helvetica,sans-Serif" font-size="10.00">_accessor</text>
</a>
</g>
</g>
<!-- Node1&#45;&gt;Node2 -->
<g id="edge1_Node000001_Node000002" class="edge">
<title>Node1&#45;&gt;Node2</title>
<g id="a_edge1_Node000001_Node000002"><a xlink:title=" ">
<path fill="none" stroke="#63b8ff" d="M75.66,-426.02C81.45,-471.35 104.82,-608.22 182,-683 183.1,-684.07 184.25,-685.09 185.45,-686.06"/>
<polygon fill="#63b8ff" stroke="#63b8ff" points="183.67,-689.09 193.89,-691.87 187.64,-683.32 183.67,-689.09"/>
</a>
</g>
</g>
<!-- Node3 -->
<g id="Node000003" class="node">
<title>Node3</title>
<g id="a_Node000003"><a xlink:href="classwmtk_1_1_mesh.html#a4cd7e6ca59d8d58cc7057c13bd190d57" target="_top" xlink:title=" ">
<polygon fill="white" stroke="#666666" points="306,-674 193,-674 193,-644 306,-644 306,-674"/>
<text text-anchor="start" x="201" y="-662" font-family="Helvetica,sans-Serif" font-size="10.00">wmtk::Mesh::create</text>
<text text-anchor="middle" x="249.5" y="-651" font-family="Helvetica,sans-Serif" font-size="10.00">_const_accessor</text>
</a>
</g>
</g>
<!-- Node1&#45;&gt;Node3 -->
<g id="edge2_Node000001_Node000003" class="edge">
<title>Node1&#45;&gt;Node3</title>
<g id="a_edge2_Node000001_Node000003"><a xlink:title=" ">
<path fill="none" stroke="#63b8ff" d="M77.13,-426.19C86.13,-466.16 115.8,-575.29 182,-635 183.32,-636.19 184.69,-637.32 186.13,-638.39"/>
<polygon fill="#63b8ff" stroke="#63b8ff" points="184.5,-641.51 194.81,-643.96 188.28,-635.62 184.5,-641.51"/>
</a>
</g>
</g>
<!-- Node4 -->
<g id="Node000004" class="node">
<title>Node4</title>
<g id="a_Node000004"><a xlink:href="classwmtk_1_1_mesh.html#a6d2a546c8f661bf6386cf845a1693d2f" target="_top" xlink:title="Generate a vector of Tuples from global vertex/edge/triangle/tetrahedron index.">
<polygon fill="white" stroke="#666666" points="307.5,-607.5 191.5,-607.5 191.5,-588.5 307.5,-588.5 307.5,-607.5"/>
<text text-anchor="middle" x="249.5" y="-595.5" font-family="Helvetica,sans-Serif" font-size="10.00">wmtk::Mesh::get_all</text>
</a>
</g>
</g>
<!-- Node1&#45;&gt;Node4 -->
<g id="edge3_Node000001_Node000004" class="edge">
<title>Node1&#45;&gt;Node4</title>
<g id="a_edge3_Node000001_Node000004"><a xlink:title=" ">
<path fill="none" stroke="#63b8ff" d="M80.19,-426.4C93.81,-458.43 129.42,-532.68 182,-574 187.32,-578.18 193.43,-581.67 199.74,-584.58"/>
<polygon fill="#63b8ff" stroke="#63b8ff" points="198.49,-587.85 209.07,-588.43 201.16,-581.38 198.49,-587.85"/>
</a>
</g>
</g>
<!-- Node5 -->
<g id="Node000005" class="node">
<title>Node5</title>
<g id="a_Node000005"><a xlink:href="namespacewmtk_1_1simplex.html#a3260444c136dbe145679b762c52f6a16" target="_top" xlink:title=" ">
<polygon fill="white" stroke="#666666" points="306,-325.5 193,-325.5 193,-306.5 306,-306.5 306,-325.5"/>
<text text-anchor="middle" x="249.5" y="-313.5" font-family="Helvetica,sans-Serif" font-size="10.00">wmtk::simplex::link</text>
</a>
</g>
</g>
<!-- Node1&#45;&gt;Node5 -->
<g id="edge5_Node000001_Node000005" class="edge">
<title>Node1&#45;&gt;Node5</title>
<g id="a_edge5_Node000001_Node000005"><a xlink:title=" ">
<path fill="none" stroke="#63b8ff" d="M101.65,-395.95C134.54,-378.04 189.07,-348.36 221.62,-330.64"/>
<polygon fill="#63b8ff" stroke="#63b8ff" points="223.46,-333.62 230.57,-325.76 220.11,-327.47 223.46,-333.62"/>
</a>
</g>
</g>
<!-- Node14 -->
<g id="Node000014" class="node">
<title>Node14</title>
<g id="a_Node000014"><a xlink:href="namespacewmtk.html#a6a35f11c12436093d26fdd8be6fecc06" target="_top" xlink:title="Retrieves the current logger.">
<polygon fill="white" stroke="#666666" points="1515,-564.5 1434,-564.5 1434,-545.5 1515,-545.5 1515,-564.5"/>
<text text-anchor="middle" x="1474.5" y="-552.5" font-family="Helvetica,sans-Serif" font-size="10.00">wmtk::logger</text>
</a>
</g>
</g>
<!-- Node1&#45;&gt;Node14 -->
<g id="edge40_Node000001_Node000014" class="edge">
<title>Node1&#45;&gt;Node14</title>
<g id="a_edge40_Node000001_Node000014"><a xlink:title=" ">
<path fill="none" stroke="#63b8ff" d="M99.46,-426.18C120.9,-438.48 152.68,-455.57 182,-467 499.88,-590.86 593.21,-636.76 934,-621 1140.88,-611.43 1194.78,-617.94 1398,-578 1410.92,-575.46 1424.78,-571.59 1437.05,-567.74"/>
<polygon fill="#63b8ff" stroke="#63b8ff" points="1438.49,-570.95 1446.93,-564.54 1436.34,-564.29 1438.49,-570.95"/>
</a>
</g>
</g>
<!-- Node18 -->
<g id="Node000018" class="node">
<title>Node18</title>
<g id="a_Node000018"><a xlink:href="classwmtk_1_1simplex_1_1_simplex_collection.html#a3c5684abe23553010bb7f87840e9518d" target="_top" xlink:title="Return const reference to the simplex vector.">
<polygon fill="white" stroke="#666666" points="934,-612 750,-612 750,-582 934,-582 934,-612"/>
<text text-anchor="start" x="758" y="-600" font-family="Helvetica,sans-Serif" font-size="10.00">wmtk::simplex::SimplexCollection</text>
<text text-anchor="middle" x="842" y="-589" font-family="Helvetica,sans-Serif" font-size="10.00">::simplex_vector</text>
</a>
</g>
</g>
<!-- Node1&#45;&gt;Node18 -->
<g id="edge42_Node000001_Node000018" class="edge">
<title>Node1&#45;&gt;Node18</title>
<g id="a_edge42_Node000001_Node000018"><a xlink:title=" ">
<path fill="none" stroke="#63b8ff" d="M136.12,-426.06C276.87,-460.2 619.48,-543.28 769.1,-579.56"/>
<polygon fill="#63b8ff" stroke="#63b8ff" points="768.56,-583.04 779.11,-581.99 770.21,-576.23 768.56,-583.04"/>
</a>
</g>
</g>
<!-- Node24 -->
<g id="Node000024" class="node">
<title>Node24</title>
<g id="a_Node000024"><a xlink:href="classwmtk_1_1_mesh.html#abaf00438d0700358b160e310d69725c9" target="_top" xlink:title=" ">
<polygon fill="white" stroke="#666666" points="927,-134.5 757,-134.5 757,-115.5 927,-115.5 927,-134.5"/>
<text text-anchor="middle" x="842" y="-122.5" font-family="Helvetica,sans-Serif" font-size="10.00">wmtk::Mesh::top_simplex_type</text>
</a>
</g>
</g>
<!-- Node1&#45;&gt;Node24 -->
<g id="edge44_Node000001_Node000024" class="edge">
<title>Node1&#45;&gt;Node24</title>
<g id="a_edge44_Node000001_Node000024"><a xlink:title=" ">
<path fill="none" stroke="#63b8ff" d="M86.79,-395.83C106.18,-373.25 144.75,-330.02 182,-298 252.41,-237.48 269.14,-217.85 353,-178 479.32,-117.97 644.23,-113.13 746.35,-117.38"/>
<polygon fill="#63b8ff" stroke="#63b8ff" points="746.49,-120.89 756.64,-117.85 746.81,-113.9 746.49,-120.89"/>
</a>
</g>
</g>
<!-- Node28 -->
<g id="Node000028" class="node">
<title>Node28</title>
<g id="a_Node000028"><a xlink:href="classwmtk_1_1_mesh.html#ab832ace56e7e07d16291ad568f3d73d9" target="_top" xlink:title=" ">
<polygon fill="white" stroke="#666666" points="305,-126 194,-126 194,-96 305,-96 305,-126"/>
<text text-anchor="start" x="202" y="-114" font-family="Helvetica,sans-Serif" font-size="10.00">wmtk::Mesh::orient</text>
<text text-anchor="middle" x="249.5" y="-103" font-family="Helvetica,sans-Serif" font-size="10.00">_vertices</text>
</a>
</g>
</g>
<!-- Node1&#45;&gt;Node28 -->
<g id="edge41_Node000001_Node000028" class="edge">
<title>Node1&#45;&gt;Node28</title>
<g id="a_edge41_Node000001_Node000028"><a xlink:title=" ">
<path fill="none" stroke="#63b8ff" d="M75.95,-395.94C82.49,-351.09 107.65,-216.76 182,-140 185.14,-136.76 188.71,-133.85 192.51,-131.26"/>
<polygon fill="#63b8ff" stroke="#63b8ff" points="194.4,-134.21 201.17,-126.06 190.8,-128.21 194.4,-134.21"/>
</a>
</g>
</g>
<!-- Node29 -->
<g id="Node000029" class="node">
<title>Node29</title>
<g id="a_Node000029"><a xlink:href="classwmtk_1_1_mesh.html#a965a8a24158c4aa8580c57ba09f885f7" target="_top" xlink:title="switch the orientation of the Tuple of the given dimension">
<polygon fill="white" stroke="#666666" points="306.5,-78 192.5,-78 192.5,-48 306.5,-48 306.5,-78"/>
<text text-anchor="start" x="200.5" y="-66" font-family="Helvetica,sans-Serif" font-size="10.00">wmtk::Mesh::switch</text>
<text text-anchor="middle" x="249.5" y="-55" font-family="Helvetica,sans-Serif" font-size="10.00">_tuple</text>
</a>
</g>
</g>
<!-- Node1&#45;&gt;Node29 -->
<g id="edge43_Node000001_Node000029" class="edge">
<title>Node1&#45;&gt;Node29</title>
<g id="a_edge43_Node000001_Node000029"><a xlink:title=" ">
<path fill="none" stroke="#63b8ff" d="M74.57,-395.75C77.31,-344.76 92.97,-178.24 182,-87 182.94,-86.04 183.92,-85.11 184.94,-84.22"/>
<polygon fill="#63b8ff" stroke="#63b8ff" points="187.32,-86.82 193.37,-78.11 183.22,-81.15 187.32,-86.82"/>
</a>
</g>
</g>
<!-- Node30 -->
<g id="Node000030" class="node">
<title>Node30</title>
<g id="a_Node000030"><a xlink:href="classwmtk_1_1simplex_1_1_simplex.html#a7de67a391b9f48b57f4ecb4c412ccaee" target="_top" xlink:title=" ">
<polygon fill="white" stroke="#666666" points="317,-30 182,-30 182,0 317,0 317,-30"/>
<text text-anchor="start" x="190" y="-18" font-family="Helvetica,sans-Serif" font-size="10.00">wmtk::simplex::Simplex</text>
<text text-anchor="middle" x="249.5" y="-7" font-family="Helvetica,sans-Serif" font-size="10.00">::vertex</text>
</a>
</g>
</g>
<!-- Node1&#45;&gt;Node30 -->
<g id="edge45_Node000001_Node000030" class="edge">
<title>Node1&#45;&gt;Node30</title>
<g id="a_edge45_Node000001_Node000030"><a xlink:title=" ">
<path fill="none" stroke="#63b8ff" d="M73.8,-395.91C73.9,-340.5 81.69,-145.92 182,-39 182.9,-38.04 183.84,-37.12 184.81,-36.24"/>
<polygon fill="#63b8ff" stroke="#63b8ff" points="187,-38.97 192.9,-30.17 182.8,-33.37 187,-38.97"/>
</a>
</g>
</g>
<!-- Node4&#45;&gt;Node4 -->
<g id="edge4_Node000004_Node000004" class="edge">
<title>Node4&#45;&gt;Node4</title>
<g id="a_edge4_Node000004_Node000004"><a xlink:title=" ">
<path fill="none" stroke="#63b8ff" d="M222.68,-607.58C209.63,-616.23 218.57,-625.5 249.5,-625.5 270.28,-625.5 281.13,-621.32 282.06,-615.95"/>
<polygon fill="#63b8ff" stroke="#63b8ff" points="284.86,-613.85 276.32,-607.58 279.09,-617.81 284.86,-613.85"/>
</a>
</g>
</g>
<!-- Node5&#45;&gt;Node5 -->
<g id="edge6_Node000005_Node000005" class="edge">
<title>Node5&#45;&gt;Node5</title>
<g id="a_edge6_Node000005_Node000005"><a xlink:title=" ">
<path fill="none" stroke="#63b8ff" d="M222.68,-325.58C209.63,-334.23 218.57,-343.5 249.5,-343.5 270.28,-343.5 281.13,-339.32 282.06,-333.95"/>
<polygon fill="#63b8ff" stroke="#63b8ff" points="284.86,-331.85 276.32,-325.58 279.09,-335.81 284.86,-331.85"/>
</a>
</g>
</g>
<!-- Node6 -->
<g id="Node000006" class="node">
<title>Node6</title>
<g id="a_Node000006"><a xlink:href="namespacewmtk_1_1simplex.html#a50d0026adbac4883ab00460ada1c1cfe" target="_top" xlink:title=" ">
<polygon fill="white" stroke="#666666" points="494,-325.5 353,-325.5 353,-306.5 494,-306.5 494,-325.5"/>
<text text-anchor="middle" x="423.5" y="-313.5" font-family="Helvetica,sans-Serif" font-size="10.00">wmtk::simplex::link_slow</text>
</a>
</g>
</g>
<!-- Node5&#45;&gt;Node6 -->
<g id="edge7_Node000005_Node000006" class="edge">
<title>Node5&#45;&gt;Node6</title>
<g id="a_edge7_Node000005_Node000006"><a xlink:title=" ">
<path fill="none" stroke="#63b8ff" d="M306.34,-316C317.92,-316 330.32,-316 342.56,-316"/>
<polygon fill="#63b8ff" stroke="#63b8ff" points="342.78,-319.5 352.78,-316 342.78,-312.5 342.78,-319.5"/>
</a>
</g>
</g>
<!-- Node5&#45;&gt;Node24 -->
<g id="edge39_Node000005_Node000024" class="edge">
<title>Node5&#45;&gt;Node24</title>
<g id="a_edge39_Node000005_Node000024"><a xlink:title=" ">
<path fill="none" stroke="#63b8ff" d="M264.26,-306.43C303.61,-279.59 420.79,-203.25 530,-168 600.51,-145.24 683.83,-134.53 746.47,-129.49"/>
<polygon fill="#63b8ff" stroke="#63b8ff" points="747.03,-132.95 756.73,-128.7 746.49,-125.97 747.03,-132.95"/>
</a>
</g>
</g>
<!-- Node7 -->
<g id="Node000007" class="node">
<title>Node7</title>
<g id="a_Node000007"><a xlink:href="classwmtk_1_1simplex_1_1_simplex_collection.html#a1e7079b3b75f70dd28c524556cab76cf" target="_top" xlink:title="Add simplex to the collection.">
<polygon fill="white" stroke="#666666" points="1398,-240.5 1190,-240.5 1190,-221.5 1398,-221.5 1398,-240.5"/>
<text text-anchor="middle" x="1294" y="-228.5" font-family="Helvetica,sans-Serif" font-size="10.00">wmtk::simplex::SimplexCollection::add</text>
</a>
</g>
</g>
<!-- Node6&#45;&gt;Node7 -->
<g id="edge8_Node000006_Node000007" class="edge">
<title>Node6&#45;&gt;Node7</title>
<g id="a_edge8_Node000006_Node000007"><a xlink:title=" ">
<path fill="none" stroke="#63b8ff" d="M431.79,-306.21C451.19,-280.51 504.33,-212.29 530,-201 651.99,-147.37 1052.94,-196.47 1219.47,-220.03"/>
<polygon fill="#63b8ff" stroke="#63b8ff" points="1219.22,-223.53 1229.61,-221.47 1220.21,-216.6 1219.22,-223.53"/>
</a>
</g>
</g>
<!-- Node8 -->
<g id="Node000008" class="node">
<title>Node8</title>
<g id="a_Node000008"><a xlink:href="namespacewmtk_1_1simplex.html#a2ed8f83fbda4dc05306bfe8d2ce7ab94" target="_top" xlink:title="The closed star contains the input simplex, all its top dimension cofaces, and their faces.">
<polygon fill="white" stroke="#666666" points="697.5,-374.5 546.5,-374.5 546.5,-355.5 697.5,-355.5 697.5,-374.5"/>
<text text-anchor="middle" x="622" y="-362.5" font-family="Helvetica,sans-Serif" font-size="10.00">wmtk::simplex::closed_star</text>
</a>
</g>
</g>
<!-- Node6&#45;&gt;Node8 -->
<g id="edge9_Node000006_Node000008" class="edge">
<title>Node6&#45;&gt;Node8</title>
<g id="a_edge9_Node000006_Node000008"><a xlink:title=" ">
<path fill="none" stroke="#63b8ff" d="M462.85,-325.56C494.23,-333.39 538.79,-344.5 572.62,-352.93"/>
<polygon fill="#63b8ff" stroke="#63b8ff" points="572.19,-356.44 582.74,-355.46 573.89,-349.64 572.19,-356.44"/>
</a>
</g>
</g>
<!-- Node9 -->
<g id="Node000009" class="node">
<title>Node9</title>
<g id="a_Node000009"><a xlink:href="namespacewmtk_1_1simplex.html#aee89641a0de7b5ddf8d15bf376f9d33b" target="_top" xlink:title="Returns all faces of a simplex.">
<polygon fill="white" stroke="#666666" points="903,-545.5 781,-545.5 781,-526.5 903,-526.5 903,-545.5"/>
<text text-anchor="middle" x="842" y="-533.5" font-family="Helvetica,sans-Serif" font-size="10.00">wmtk::simplex::faces</text>
</a>
</g>
</g>
<!-- Node6&#45;&gt;Node9 -->
<g id="edge35_Node000006_Node000009" class="edge">
<title>Node6&#45;&gt;Node9</title>
<g id="a_edge35_Node000006_Node000009"><a xlink:title=" ">
<path fill="none" stroke="#63b8ff" d="M437.25,-325.59C456.54,-339.78 494.63,-366.54 530,-384 607.91,-422.45 648.35,-393.1 714,-450 739.84,-472.4 722.56,-497.59 750,-518 756.27,-522.66 763.43,-526.21 770.92,-528.88"/>
<polygon fill="#63b8ff" stroke="#63b8ff" points="769.95,-532.25 780.54,-531.84 772.01,-525.56 769.95,-532.25"/>
</a>
</g>
</g>
<!-- Node6&#45;&gt;Node18 -->
<g id="edge37_Node000006_Node000018" class="edge">
<title>Node6&#45;&gt;Node18</title>
<g id="a_edge37_Node000006_Node000018"><a xlink:title=" ">
<path fill="none" stroke="#63b8ff" d="M430.69,-325.55C445.32,-347.39 484.28,-401.42 530,-431 602.33,-477.8 650.17,-434.14 714,-492 743.19,-518.46 720,-547.46 750,-573 751.37,-574.16 752.79,-575.27 754.25,-576.33"/>
<polygon fill="#63b8ff" stroke="#63b8ff" points="752.72,-579.5 763.05,-581.82 756.42,-573.56 752.72,-579.5"/>
</a>
</g>
</g>
<!-- Node19 -->
<g id="Node000019" class="node">
<title>Node19</title>
<g id="a_Node000019"><a xlink:href="classwmtk_1_1simplex_1_1_simplex_collection.html#ab318c99d54327383ff1b985bed043f3a" target="_top" xlink:title="Sort simplex vector and remove duplicates.">
<polygon fill="white" stroke="#666666" points="1154,-289 970,-289 970,-259 1154,-259 1154,-289"/>
<text text-anchor="start" x="978" y="-277" font-family="Helvetica,sans-Serif" font-size="10.00">wmtk::simplex::SimplexCollection</text>
<text text-anchor="middle" x="1062" y="-266" font-family="Helvetica,sans-Serif" font-size="10.00">::sort_and_clean</text>
</a>
</g>
</g>
<!-- Node6&#45;&gt;Node19 -->
<g id="edge38_Node000006_Node000019" class="edge">
<title>Node6&#45;&gt;Node19</title>
<g id="a_edge38_Node000006_Node000019"><a xlink:title=" ">
<path fill="none" stroke="#63b8ff" d="M473.61,-306.47C537.11,-294.66 651.3,-275.24 750,-268 831.56,-262.02 852.25,-266.07 934,-268 942.33,-268.2 950.96,-268.47 959.62,-268.78"/>
<polygon fill="#63b8ff" stroke="#63b8ff" points="959.67,-272.29 969.8,-269.17 959.94,-265.29 959.67,-272.29"/>
</a>
</g>
</g>
<!-- Node27 -->
<g id="Node000027" class="node">
<title>Node27</title>
<g id="a_Node000027"><a xlink:href="classwmtk_1_1simplex_1_1_simplex_collection.html#a592a38f5119ed654001d88d032bcea9c" target="_top" xlink:title="Get intersection of two simplex collections.">
<polygon fill="white" stroke="#666666" points="714,-240 530,-240 530,-210 714,-210 714,-240"/>
<text text-anchor="start" x="538" y="-228" font-family="Helvetica,sans-Serif" font-size="10.00">wmtk::simplex::SimplexCollection</text>
<text text-anchor="middle" x="622" y="-217" font-family="Helvetica,sans-Serif" font-size="10.00">::get_intersection</text>
</a>
</g>
</g>
<!-- Node6&#45;&gt;Node27 -->
<g id="edge36_Node000006_Node000027" class="edge">
<title>Node6&#45;&gt;Node27</title>
<g id="a_edge36_Node000006_Node000027"><a xlink:title=" ">
<path fill="none" stroke="#63b8ff" d="M438.63,-306.31C458.37,-293.1 495.66,-269.33 530,-254 538.65,-250.14 547.98,-246.55 557.24,-243.32"/>
<polygon fill="#63b8ff" stroke="#63b8ff" points="558.49,-246.59 566.85,-240.07 556.25,-239.96 558.49,-246.59"/>
</a>
</g>
</g>
<!-- Node8&#45;&gt;Node7 -->
<g id="edge10_Node000008_Node000007" class="edge">
<title>Node8&#45;&gt;Node7</title>
<g id="a_edge10_Node000008_Node000007"><a xlink:title=" ">
<path fill="none" stroke="#63b8ff" d="M631.71,-355.35C650.79,-334.96 698.72,-287.71 750,-268 896.9,-211.54 1082.49,-212.88 1194.25,-220.72"/>
<polygon fill="#63b8ff" stroke="#63b8ff" points="1194.27,-224.23 1204.5,-221.47 1194.78,-217.24 1194.27,-224.23"/>
</a>
</g>
</g>
<!-- Node8&#45;&gt;Node9 -->
<g id="edge11_Node000008_Node000009" class="edge">
<title>Node8&#45;&gt;Node9</title>
<g id="a_edge11_Node000008_Node000009"><a xlink:title=" ">
<path fill="none" stroke="#63b8ff" d="M664.72,-374.59C682.04,-380.48 701.08,-389.73 714,-404 749.67,-443.38 710.41,-482.56 750,-518 756.14,-523.5 763.47,-527.52 771.25,-530.43"/>
<polygon fill="#63b8ff" stroke="#63b8ff" points="770.35,-533.81 780.94,-533.46 772.44,-527.13 770.35,-533.81"/>
</a>
</g>
</g>
<!-- Node10 -->
<g id="Node000010" class="node">
<title>Node10</title>
<g id="a_Node000010"><a xlink:href="classwmtk_1_1_mesh.html#a8cc8686f0688613806f43720b6db49e7" target="_top" xlink:title="check validity of tuple including its hash">
<polygon fill="white" stroke="#666666" points="902,-508.5 782,-508.5 782,-489.5 902,-489.5 902,-508.5"/>
<text text-anchor="middle" x="842" y="-496.5" font-family="Helvetica,sans-Serif" font-size="10.00">wmtk::Mesh::is_valid</text>
</a>
</g>
</g>
<!-- Node8&#45;&gt;Node10 -->
<g id="edge13_Node000008_Node000010" class="edge">
<title>Node8&#45;&gt;Node10</title>
<g id="a_edge13_Node000008_Node000010"><a xlink:title=" ">
<path fill="none" stroke="#63b8ff" d="M661.09,-374.51C678.92,-380.54 699.39,-389.93 714,-404 740.92,-429.93 720.64,-456.87 750,-480 756.49,-485.11 764.02,-488.94 771.92,-491.79"/>
<polygon fill="#63b8ff" stroke="#63b8ff" points="771.11,-495.2 781.69,-494.81 773.17,-488.51 771.11,-495.2"/>
</a>
</g>
</g>
<!-- Node16 -->
<g id="Node000016" class="node">
<title>Node16</title>
<g id="a_Node000016"><a xlink:href="namespacewmtk.html#a441d6ad4f19569c7d4946e743da1a925" target="_top" xlink:title=" ">
<polygon fill="white" stroke="#666666" points="1355,-431 1233,-431 1233,-401 1355,-401 1355,-431"/>
<text text-anchor="start" x="1241" y="-419" font-family="Helvetica,sans-Serif" font-size="10.00">wmtk::log_and_throw</text>
<text text-anchor="middle" x="1294" y="-408" font-family="Helvetica,sans-Serif" font-size="10.00">_error</text>
</a>
</g>
</g>
<!-- Node8&#45;&gt;Node16 -->
<g id="edge20_Node000008_Node000016" class="edge">
<title>Node8&#45;&gt;Node16</title>
<g id="a_edge20_Node000008_Node000016"><a xlink:title=" ">
<path fill="none" stroke="#63b8ff" d="M697.64,-365.18C760.96,-366.37 853.97,-370.59 934,-384 950.38,-386.74 953.63,-391.2 970,-394 1056.11,-408.74 1156.73,-413.69 1222.49,-415.3"/>
<polygon fill="#63b8ff" stroke="#63b8ff" points="1222.66,-418.81 1232.74,-415.54 1222.82,-411.81 1222.66,-418.81"/>
</a>
</g>
</g>
<!-- Node17 -->
<g id="Node000017" class="node">
<title>Node17</title>
<g id="a_Node000017"><a xlink:href="classwmtk_1_1simplex_1_1_simplex_collection.html#a1973c83eede96b64f422049c6fc52976" target="_top" xlink:title=" ">
<polygon fill="white" stroke="#666666" points="934,-423 750,-423 750,-393 934,-393 934,-423"/>
<text text-anchor="start" x="758" y="-411" font-family="Helvetica,sans-Serif" font-size="10.00">wmtk::simplex::SimplexCollection</text>
<text text-anchor="middle" x="842" y="-400" font-family="Helvetica,sans-Serif" font-size="10.00">::reserve</text>
</a>
</g>
</g>
<!-- Node8&#45;&gt;Node17 -->
<g id="edge22_Node000008_Node000017" class="edge">
<title>Node8&#45;&gt;Node17</title>
<g id="a_edge22_Node000008_Node000017"><a xlink:title=" ">
<path fill="none" stroke="#63b8ff" d="M671.38,-374.54C695.95,-379.39 726.56,-385.43 754.97,-391.03"/>
<polygon fill="#63b8ff" stroke="#63b8ff" points="754.43,-394.49 764.92,-392.99 755.79,-387.62 754.43,-394.49"/>
</a>
</g>
</g>
<!-- Node8&#45;&gt;Node18 -->
<g id="edge23_Node000008_Node000018" class="edge">
<title>Node8&#45;&gt;Node18</title>
<g id="a_edge23_Node000008_Node000018"><a xlink:title=" ">
<path fill="none" stroke="#63b8ff" d="M637.24,-374.5C657.3,-388.62 693.7,-417.05 714,-450 743.87,-498.5 709.19,-533.27 750,-573 751.1,-574.07 752.24,-575.09 753.41,-576.07"/>
<polygon fill="#63b8ff" stroke="#63b8ff" points="751.48,-578.99 761.67,-581.91 755.52,-573.27 751.48,-578.99"/>
</a>
</g>
</g>
<!-- Node8&#45;&gt;Node19 -->
<g id="edge24_Node000008_Node000019" class="edge">
<title>Node8&#45;&gt;Node19</title>
<g id="a_edge24_Node000008_Node000019"><a xlink:title=" ">
<path fill="none" stroke="#63b8ff" d="M636.66,-355.35C659.1,-340.09 705.69,-310.8 750,-298 818.13,-278.32 897.94,-272.49 959.66,-271.5"/>
<polygon fill="#63b8ff" stroke="#63b8ff" points="959.83,-274.99 969.79,-271.37 959.75,-268 959.83,-274.99"/>
</a>
</g>
</g>
<!-- Node20 -->
<g id="Node000020" class="node">
<title>Node20</title>
<g id="a_Node000020"><a xlink:href="namespacewmtk_1_1simplex.html#a87de7137d8d21f1643dd604d73e8f765" target="_top" xlink:title="Get all top dimension cofaces of the given simplex.">
<polygon fill="white" stroke="#666666" points="900,-337 784,-337 784,-307 900,-307 900,-337"/>
<text text-anchor="start" x="792" y="-325" font-family="Helvetica,sans-Serif" font-size="10.00">wmtk::simplex::top</text>
<text text-anchor="middle" x="842" y="-314" font-family="Helvetica,sans-Serif" font-size="10.00">_dimension_cofaces</text>
</a>
</g>
</g>
<!-- Node8&#45;&gt;Node20 -->
<g id="edge25_Node000008_Node000020" class="edge">
<title>Node8&#45;&gt;Node20</title>
<g id="a_edge25_Node000008_Node000020"><a xlink:title=" ">
<path fill="none" stroke="#63b8ff" d="M671.38,-355.46C701.51,-349.51 740.69,-341.79 773.8,-335.25"/>
<polygon fill="#63b8ff" stroke="#63b8ff" points="774.74,-338.64 783.87,-333.27 773.38,-331.77 774.74,-338.64"/>
</a>
</g>
</g>
<!-- Node8&#45;&gt;Node24 -->
<g id="edge32_Node000008_Node000024" class="edge">
<title>Node8&#45;&gt;Node24</title>
<g id="a_edge32_Node000008_Node000024"><a xlink:title=" ">
<path fill="none" stroke="#63b8ff" d="M631.82,-355.29C665.03,-318.73 782.88,-188.98 825.49,-142.08"/>
<polygon fill="#63b8ff" stroke="#63b8ff" points="828.18,-144.32 832.31,-134.56 823,-139.61 828.18,-144.32"/>
</a>
</g>
</g>
<!-- Node26 -->
<g id="Node000026" class="node">
<title>Node26</title>
<g id="a_Node000026"><a xlink:href="classwmtk_1_1simplex_1_1_simplex.html#aca78b1fb0a3c28c0036cf7919bfb0789" target="_top" xlink:title=" ">
<polygon fill="white" stroke="#666666" points="909.5,-471 774.5,-471 774.5,-441 909.5,-441 909.5,-471"/>
<text text-anchor="start" x="782.5" y="-459" font-family="Helvetica,sans-Serif" font-size="10.00">wmtk::simplex::Simplex</text>
<text text-anchor="middle" x="842" y="-448" font-family="Helvetica,sans-Serif" font-size="10.00">::tuple</text>
</a>
</g>
</g>
<!-- Node8&#45;&gt;Node26 -->
<g id="edge34_Node000008_Node000026" class="edge">
<title>Node8&#45;&gt;Node26</title>
<g id="a_edge34_Node000008_Node000026"><a xlink:title=" ">
<path fill="none" stroke="#63b8ff" d="M650.16,-374.54C668.72,-381.56 693.57,-391.95 714,-404 731.46,-414.3 731.83,-423.01 750,-432 754.64,-434.3 759.53,-436.39 764.53,-438.3"/>
<polygon fill="#63b8ff" stroke="#63b8ff" points="763.65,-441.7 774.25,-441.75 765.99,-435.11 763.65,-441.7"/>
</a>
</g>
</g>
<!-- Node9&#45;&gt;Node9 -->
<g id="edge12_Node000009_Node000009" class="edge">
<title>Node9&#45;&gt;Node9</title>
<g id="a_edge12_Node000009_Node000009"><a xlink:title=" ">
<path fill="none" stroke="#63b8ff" d="M808.09,-545.58C791.6,-554.23 802.9,-563.5 842,-563.5 870.1,-563.5 883.85,-558.71 883.23,-552.81"/>
<polygon fill="#63b8ff" stroke="#63b8ff" points="885.48,-550.12 875.91,-545.58 880.57,-555.1 885.48,-550.12"/>
</a>
</g>
</g>
<!-- Node11 -->
<g id="Node000011" class="node">
<title>Node11</title>
<g id="a_Node000011"><a xlink:href="classwmtk_1_1_tuple.html#a0023f575be92cd5ceeeaaaa3762ea06d" target="_top" xlink:title="Checks if a tuple is &quot;null&quot;. This merely implies the global index is &#45;1.">
<polygon fill="white" stroke="#666666" points="1118.5,-471.5 1005.5,-471.5 1005.5,-452.5 1118.5,-452.5 1118.5,-471.5"/>
<text text-anchor="middle" x="1062" y="-459.5" font-family="Helvetica,sans-Serif" font-size="10.00">wmtk::Tuple::is_null</text>
</a>
</g>
</g>
<!-- Node10&#45;&gt;Node11 -->
<g id="edge14_Node000010_Node000011" class="edge">
<title>Node10&#45;&gt;Node11</title>
<g id="a_edge14_Node000010_Node000011"><a xlink:title=" ">
<path fill="none" stroke="#63b8ff" d="M899.14,-489.47C928.5,-484.49 964.6,-478.36 995.26,-473.16"/>
<polygon fill="#63b8ff" stroke="#63b8ff" points="996.15,-476.56 1005.43,-471.43 994.98,-469.65 996.15,-476.56"/>
</a>
</g>
</g>
<!-- Node12 -->
<g id="Node000012" class="node">
<title>Node12</title>
<g id="a_Node000012"><a xlink:href="classwmtk_1_1_mesh.html#ade176d345902d97af8c5da04aa3a095b" target="_top" xlink:title=" ">
<polygon fill="white" stroke="#666666" points="1132,-508.5 992,-508.5 992,-489.5 1132,-489.5 1132,-508.5"/>
<text text-anchor="middle" x="1062" y="-496.5" font-family="Helvetica,sans-Serif" font-size="10.00">wmtk::Mesh::is_removed</text>
</a>
</g>
</g>
<!-- Node10&#45;&gt;Node12 -->
<g id="edge15_Node000010_Node000012" class="edge">
<title>Node10&#45;&gt;Node12</title>
<g id="a_edge15_Node000010_Node000012"><a xlink:title=" ">
<path fill="none" stroke="#63b8ff" d="M902.28,-499C926.66,-499 955.26,-499 981.41,-499"/>
<polygon fill="#63b8ff" stroke="#63b8ff" points="981.68,-502.5 991.68,-499 981.68,-495.5 981.68,-502.5"/>
</a>
</g>
</g>
<!-- Node10&#45;&gt;Node14 -->
<g id="edge18_Node000010_Node000014" class="edge">
<title>Node10&#45;&gt;Node14</title>
<g id="a_edge18_Node000010_Node000014"><a xlink:title=" ">
<path fill="none" stroke="#63b8ff" d="M899.93,-508.53C911.36,-511.1 923.18,-514.24 934,-518 950.9,-523.88 952.67,-531.56 970,-536 1131.77,-577.42 1332.24,-567.63 1423.75,-559.98"/>
<polygon fill="#63b8ff" stroke="#63b8ff" points="1424.18,-563.45 1433.84,-559.1 1423.58,-556.48 1424.18,-563.45"/>
</a>
</g>
</g>
<!-- Node12&#45;&gt;Node12 -->
<g id="edge17_Node000012_Node000012" class="edge">
<title>Node12&#45;&gt;Node12</title>
<g id="a_edge17_Node000012_Node000012"><a xlink:title=" ">
<path fill="none" stroke="#63b8ff" d="M1028.09,-508.58C1011.6,-517.23 1022.9,-526.5 1062,-526.5 1090.1,-526.5 1103.85,-521.71 1103.23,-515.81"/>
<polygon fill="#63b8ff" stroke="#63b8ff" points="1105.48,-513.12 1095.91,-508.58 1100.57,-518.1 1105.48,-513.12"/>
</a>
</g>
</g>
<!-- Node13 -->
<g id="Node000013" class="node">
<title>Node13</title>
<g id="a_Node000013"><a xlink:href="classwmtk_1_1_tuple.html#aef64a43ff5f5617dbc99d865356bbc25" target="_top" xlink:title=" ">
<polygon fill="white" stroke="#666666" points="1359.5,-508.5 1228.5,-508.5 1228.5,-489.5 1359.5,-489.5 1359.5,-508.5"/>
<text text-anchor="middle" x="1294" y="-496.5" font-family="Helvetica,sans-Serif" font-size="10.00">wmtk::Tuple::global_cid</text>
</a>
</g>
</g>
<!-- Node12&#45;&gt;Node13 -->
<g id="edge16_Node000012_Node000013" class="edge">
<title>Node12&#45;&gt;Node13</title>
<g id="a_edge16_Node000012_Node000013"><a xlink:title=" ">
<path fill="none" stroke="#63b8ff" d="M1132.01,-499C1159.23,-499 1190.57,-499 1218.32,-499"/>
<polygon fill="#63b8ff" stroke="#63b8ff" points="1218.37,-502.5 1228.37,-499 1218.37,-495.5 1218.37,-502.5"/>
</a>
</g>
</g>
<!-- Node15 -->
<g id="Node000015" class="node">
<title>Node15</title>
<g id="a_Node000015"><a xlink:href="namespacewmtk.html#a3daa7951a5f8b78cf4600dc047fcc180" target="_top" xlink:title="Setup a logger object to be used by WildmeshToolkit.">
<polygon fill="white" stroke="#666666" points="1652,-564.5 1551,-564.5 1551,-545.5 1652,-545.5 1652,-564.5"/>
<text text-anchor="middle" x="1601.5" y="-552.5" font-family="Helvetica,sans-Serif" font-size="10.00">wmtk::set_logger</text>
</a>
</g>
</g>
<!-- Node14&#45;&gt;Node15 -->
<g id="edge19_Node000014_Node000015" class="edge">
<title>Node14&#45;&gt;Node15</title>
<g id="a_edge19_Node000014_Node000015"><a xlink:title=" ">
<path fill="none" stroke="#63b8ff" d="M1515.05,-555C1523.17,-555 1531.9,-555 1540.55,-555"/>
<polygon fill="#63b8ff" stroke="#63b8ff" points="1540.65,-558.5 1550.65,-555 1540.65,-551.5 1540.65,-558.5"/>
</a>
</g>
</g>
<!-- Node16&#45;&gt;Node14 -->
<g id="edge21_Node000016_Node000014" class="edge">
<title>Node16&#45;&gt;Node14</title>
<g id="a_edge21_Node000016_Node000014"><a xlink:title=" ">
<path fill="none" stroke="#63b8ff" d="M1322.3,-431.08C1343.69,-443.4 1373.79,-461.85 1398,-481 1420.31,-498.65 1443.28,-522.05 1457.93,-537.77"/>
<polygon fill="#63b8ff" stroke="#63b8ff" points="1455.44,-540.23 1464.79,-545.22 1460.59,-535.49 1455.44,-540.23"/>
</a>
</g>
</g>
<!-- Node20&#45;&gt;Node19 -->
<g id="edge27_Node000020_Node000019" class="edge">
<title>Node20&#45;&gt;Node19</title>
<g id="a_edge27_Node000020_Node000019"><a xlink:title=" ">
<path fill="none" stroke="#63b8ff" d="M900.28,-309.39C925.56,-303.82 955.67,-297.19 982.96,-291.18"/>
<polygon fill="#63b8ff" stroke="#63b8ff" points="983.86,-294.57 992.87,-289 982.35,-287.73 983.86,-294.57"/>
</a>
</g>
</g>
<!-- Node21 -->
<g id="Node000021" class="node">
<title>Node21</title>
<g id="a_Node000021"><a xlink:href="classwmtk_1_1simplex_1_1_simplex_collection.html#a0d0c1765c4ed8ffd0f163661111bfb08" target="_top" xlink:title=" ">
<polygon fill="white" stroke="#666666" points="1154,-337 970,-337 970,-307 1154,-307 1154,-337"/>
<text text-anchor="start" x="978" y="-325" font-family="Helvetica,sans-Serif" font-size="10.00">wmtk::simplex::SimplexCollection</text>
<text text-anchor="middle" x="1062" y="-314" font-family="Helvetica,sans-Serif" font-size="10.00">::mesh</text>
</a>
</g>
</g>
<!-- Node20&#45;&gt;Node21 -->
<g id="edge26_Node000020_Node000021" class="edge">
<title>Node20&#45;&gt;Node21</title>
<g id="a_edge26_Node000020_Node000021"><a xlink:title=" ">
<path fill="none" stroke="#63b8ff" d="M900.28,-322C918.6,-322 939.46,-322 959.94,-322"/>
<polygon fill="#63b8ff" stroke="#63b8ff" points="959.95,-325.5 969.95,-322 959.95,-318.5 959.95,-325.5"/>
</a>
</g>
</g>
<!-- Node22 -->
<g id="Node000022" class="node">
<title>Node22</title>
<g id="a_Node000022"><a xlink:href="namespacewmtk_1_1simplex.html#a0101f27eb2ad82814390b92ab1a4d1a0" target="_top" xlink:title=" ">
<polygon fill="white" stroke="#666666" points="1137.5,-385 986.5,-385 986.5,-355 1137.5,-355 1137.5,-385"/>
<text text-anchor="start" x="994.5" y="-373" font-family="Helvetica,sans-Serif" font-size="10.00">wmtk::simplex::top</text>
<text text-anchor="middle" x="1062" y="-362" font-family="Helvetica,sans-Serif" font-size="10.00">_dimension_cofaces_tuples</text>
</a>
</g>
</g>
<!-- Node20&#45;&gt;Node22 -->
<g id="edge28_Node000020_Node000022" class="edge">
<title>Node20&#45;&gt;Node22</title>
<g id="a_edge28_Node000020_Node000022"><a xlink:title=" ">
<path fill="none" stroke="#63b8ff" d="M900.28,-334.61C925.56,-340.18 955.67,-346.81 982.96,-352.82"/>
<polygon fill="#63b8ff" stroke="#63b8ff" points="982.35,-356.27 992.87,-355 983.86,-349.43 982.35,-356.27"/>
</a>
</g>
</g>
<!-- Node22&#45;&gt;Node7 -->
<g id="edge29_Node000022_Node000007" class="edge">
<title>Node22&#45;&gt;Node7</title>
<g id="a_edge29_Node000022_Node000007"><a xlink:title=" ">
<path fill="none" stroke="#63b8ff" d="M1132.75,-354.98C1140.09,-352.41 1147.31,-349.43 1154,-346 1204.53,-320.04 1253.23,-273.14 1277.33,-248"/>
<polygon fill="#63b8ff" stroke="#63b8ff" points="1279.94,-250.33 1284.26,-240.66 1274.85,-245.53 1279.94,-250.33"/>
</a>
</g>
</g>
<!-- Node22&#45;&gt;Node16 -->
<g id="edge30_Node000022_Node000016" class="edge">
<title>Node22&#45;&gt;Node16</title>
<g id="a_edge30_Node000022_Node000016"><a xlink:title=" ">
<path fill="none" stroke="#63b8ff" d="M1137.67,-384.93C1165.01,-390.4 1195.82,-396.56 1222.75,-401.95"/>
<polygon fill="#63b8ff" stroke="#63b8ff" points="1222.38,-405.44 1232.87,-403.97 1223.75,-398.58 1222.38,-405.44"/>
</a>
</g>
</g>
<!-- Node23 -->
<g id="Node000023" class="node">
<title>Node23</title>
<g id="a_Node000023"><a xlink:href="classwmtk_1_1simplex_1_1_simplex.html#ad2cc0340a0772b7d6f03ba7a781d1163" target="_top" xlink:title=" ">
<polygon fill="white" stroke="#666666" points="1361.5,-383 1226.5,-383 1226.5,-353 1361.5,-353 1361.5,-383"/>
<text text-anchor="start" x="1234.5" y="-371" font-family="Helvetica,sans-Serif" font-size="10.00">wmtk::simplex::Simplex</text>
<text text-anchor="middle" x="1294" y="-360" font-family="Helvetica,sans-Serif" font-size="10.00">::primitive_type</text>
</a>
</g>
</g>
<!-- Node22&#45;&gt;Node23 -->
<g id="edge31_Node000022_Node000023" class="edge">
<title>Node22&#45;&gt;Node23</title>
<g id="a_edge31_Node000022_Node000023"><a xlink:title=" ">
<path fill="none" stroke="#63b8ff" d="M1137.67,-369.35C1162.81,-369.13 1190.88,-368.89 1216.18,-368.67"/>
<polygon fill="#63b8ff" stroke="#63b8ff" points="1216.49,-372.17 1226.46,-368.58 1216.43,-365.17 1216.49,-372.17"/>
</a>
</g>
</g>
<!-- Node25 -->
<g id="Node000025" class="node">
<title>Node25</title>
<g id="a_Node000025"><a xlink:href="classwmtk_1_1_mesh.html#a933f681cf24a63b155c9462280385200" target="_top" xlink:title=" ">
<polygon fill="white" stroke="#666666" points="1122.5,-137 1001.5,-137 1001.5,-107 1122.5,-107 1122.5,-137"/>
<text text-anchor="start" x="1009.5" y="-125" font-family="Helvetica,sans-Serif" font-size="10.00">wmtk::Mesh::top_cell</text>
<text text-anchor="middle" x="1062" y="-114" font-family="Helvetica,sans-Serif" font-size="10.00">_dimension</text>
</a>
</g>
</g>
<!-- Node24&#45;&gt;Node25 -->
<g id="edge33_Node000024_Node000025" class="edge">
<title>Node24&#45;&gt;Node25</title>
<g id="a_edge33_Node000024_Node000025"><a xlink:title=" ">
<path fill="none" stroke="#63b8ff" d="M927.28,-123.84C948.4,-123.55 970.82,-123.24 991.15,-122.96"/>
<polygon fill="#63b8ff" stroke="#63b8ff" points="991.3,-126.46 1001.25,-122.82 991.21,-119.46 991.3,-126.46"/>
</a>
</g>
</g>
<!-- Node31 -->
<g id="Node000031" class="node">
<title>Node31</title>
<g id="a_Node000031"><a xlink:href="classwmtk_1_1simplex_1_1_simplex.html#ab6d51ca0c220792c1c09824d152bb53a" target="_top" xlink:title=" ">
<polygon fill="white" stroke="#666666" points="491,-30 356,-30 356,0 491,0 491,-30"/>
<text text-anchor="start" x="364" y="-18" font-family="Helvetica,sans-Serif" font-size="10.00">wmtk::simplex::Simplex</text>
<text text-anchor="middle" x="423.5" y="-7" font-family="Helvetica,sans-Serif" font-size="10.00">::Simplex</text>
</a>
</g>
</g>
<!-- Node30&#45;&gt;Node31 -->
<g id="edge46_Node000030_Node000031" class="edge">
<title>Node30&#45;&gt;Node31</title>
<g id="a_edge46_Node000030_Node000031"><a xlink:title=" ">
<path fill="none" stroke="#63b8ff" d="M317.49,-15C326.77,-15 336.37,-15 345.81,-15"/>
<polygon fill="#63b8ff" stroke="#63b8ff" points="345.97,-18.5 355.97,-15 345.97,-11.5 345.97,-18.5"/>
</a>
</g>
</g>
</g>
</svg>

<g id="navigator" transform="translate(0 0)" fill="#404254">
  <rect fill="#f2f5e9" fill-opacity="0.5" stroke="#606060" stroke-width=".5" x="0" y="0" width="60" height="60"/>
  <use id="zoomplus" xlink:href="#zoomPlus" x="17" y="9" onmousedown="handleZoom(evt,'in')"/>
  <use id="zoomminus" xlink:href="#zoomMin" x="42" y="9" onmousedown="handleZoom(evt,'out')"/>
  <use id="reset" xlink:href="#resetDef" x="30" y="36" onmousedown="handleReset()"/>
   <use id="arrowup" xlink:href="#arrowUp" x="0" y="0" onmousedown="handlePan(0,-1)"/>
  <use id="arrowright" xlink:href="#arrowRight" x="0" y="0" onmousedown="handlePan(1,0)"/>
  <use id="arrowdown" xlink:href="#arrowDown" x="0" y="0" onmousedown="handlePan(0,1)"/>
  <use id="arrowleft" xlink:href="#arrowLeft" x="0" y="0" onmousedown="handlePan(-1,0)"/>
</g>
<svg viewBox="0 0 15 15" width="100%" height="30px" preserveAspectRatio="xMaxYMin meet">
 <g id="arrow_out" transform="scale(0.3 0.3)">
  <a xlink:href="namespacewmtk_1_1components_a16475fcf3c7cd34eedc9f49d036dde97_cgraph_org.svg" target="_base">
   <rect id="button" ry="5" rx="5" y="6" x="6" height="38" width="38"
        fill="#f2f5e9" fill-opacity="0.5" stroke="#606060" stroke-width="1.0"/>
   <path id="arrow"
     d="M 11.500037,31.436501 C 11.940474,20.09759 22.043105,11.32322 32.158766,21.979434 L 37.068811,17.246167 C 37.068811,17.246167 37.088388,32 37.088388,32 L 22.160133,31.978069 C 22.160133,31.978069 26.997745,27.140456 26.997745,27.140456 C 18.528582,18.264221 13.291696,25.230495 11.500037,31.436501 z"
     style="fill:#404040;"/>
  </a>
 </g>
</svg>

<style type='text/css'>
<![CDATA[
[data-mouse-over-selected='false'] { opacity: 0.7; }
[data-mouse-over-selected='true']  { opacity: 1.0; }
]]>
</style>
<script type="application/ecmascript"><![CDATA[
document.addEventListener('DOMContentLoaded', (event) => {
  highlightEdges();
  highlightAdjacentNodes();
});
]]></script>
</svg>
