<?xml version="1.0" encoding="UTF-8" standalone="no"?>
<!DOCTYPE svg PUBLIC "-//W3C//DTD SVG 1.1//EN"
 "http://www.w3.org/Graphics/SVG/1.1/DTD/svg11.dtd">
<!-- Generated by graphviz version 2.43.0 (0)
 -->
<!-- Title: wmtk::components::internal::adjust_sizing_field Pages: 1 -->
<svg width="1858pt" height="566pt"
 viewBox="0.00 0.00 1858.00 565.92" xmlns="http://www.w3.org/2000/svg" xmlns:xlink="http://www.w3.org/1999/xlink">
<g id="graph0" class="graph" transform="scale(1 1) rotate(0) translate(4 561.92)">
<title>wmtk::components::internal::adjust_sizing_field</title>
<!-- Node1 -->
<g id="Node000001" class="node">
<title>Node1</title>
<g id="a_Node000001"><a xlink:title=" ">
<polygon fill="#999999" stroke="#666666" points="154,-240.92 0,-240.92 0,-210.92 154,-210.92 154,-240.92"/>
<text text-anchor="start" x="8" y="-228.92" font-family="Helvetica,sans-Serif" font-size="10.00">wmtk::components::internal</text>
<text text-anchor="middle" x="77" y="-217.92" font-family="Helvetica,sans-Serif" font-size="10.00">::adjust_sizing_field</text>
</a>
</g>
</g>
<!-- Node2 -->
<g id="Node000002" class="node">
<title>Node2</title>
<g id="a_Node000002"><a xlink:href="namespacewmtk_1_1components_1_1internal.html#a919ba35151931f21305c895ea3d52a2b" target="_top" xlink:title=" ">
<polygon fill="white" stroke="#666666" points="344,-296.92 190,-296.92 190,-266.92 344,-266.92 344,-296.92"/>
<text text-anchor="start" x="198" y="-284.92" font-family="Helvetica,sans-Serif" font-size="10.00">wmtk::components::internal</text>
<text text-anchor="middle" x="267" y="-273.92" font-family="Helvetica,sans-Serif" font-size="10.00">::adjust_sizing_field</text>
</a>
</g>
</g>
<!-- Node1&#45;&gt;Node2 -->
<g id="edge1_Node000001_Node000002" class="edge">
<title>Node1&#45;&gt;Node2</title>
<g id="a_edge1_Node000001_Node000002"><a xlink:title=" ">
<path fill="none" stroke="#63b8ff" d="M128.38,-240.93C152.19,-248.02 180.8,-256.55 205.76,-263.98"/>
<polygon fill="#63b8ff" stroke="#63b8ff" points="204.9,-267.37 215.48,-266.87 206.9,-260.67 204.9,-267.37"/>
</a>
</g>
</g>
<!-- Node3 -->
<g id="Node000003" class="node">
<title>Node3</title>
<g id="a_Node000003"><a xlink:href="classwmtk_1_1_mesh.html#ad85569ecd50cc7c0b5161b1d1cd13ebb" target="_top" xlink:title=" ">
<polygon fill="white" stroke="#666666" points="504,-519.92 391,-519.92 391,-489.92 504,-489.92 504,-519.92"/>
<text text-anchor="start" x="399" y="-507.92" font-family="Helvetica,sans-Serif" font-size="10.00">wmtk::Mesh::create</text>
<text text-anchor="middle" x="447.5" y="-496.92" font-family="Helvetica,sans-Serif" font-size="10.00">_accessor</text>
</a>
</g>
</g>
<!-- Node1&#45;&gt;Node3 -->
<g id="edge49_Node000001_Node000003" class="edge">
<title>Node1&#45;&gt;Node3</title>
<g id="a_edge49_Node000001_Node000003"><a xlink:title=" ">
<path fill="none" stroke="#63b8ff" d="M83.09,-241.06C95.64,-276.14 131.35,-363.66 190,-411.92 245.35,-457.47 324.89,-481.67 380.68,-493.84"/>
<polygon fill="#63b8ff" stroke="#63b8ff" points="380.31,-497.34 390.81,-495.97 381.75,-490.49 380.31,-497.34"/>
</a>
</g>
</g>
<!-- Node4 -->
<g id="Node000004" class="node">
<title>Node4</title>
<g id="a_Node000004"><a xlink:href="classwmtk_1_1_mesh.html#a4cd7e6ca59d8d58cc7057c13bd190d57" target="_top" xlink:title=" ">
<polygon fill="white" stroke="#666666" points="504,-471.92 391,-471.92 391,-441.92 504,-441.92 504,-471.92"/>
<text text-anchor="start" x="399" y="-459.92" font-family="Helvetica,sans-Serif" font-size="10.00">wmtk::Mesh::create</text>
<text text-anchor="middle" x="447.5" y="-448.92" font-family="Helvetica,sans-Serif" font-size="10.00">_const_accessor</text>
</a>
</g>
</g>
<!-- Node1&#45;&gt;Node4 -->
<g id="edge50_Node000001_Node000004" class="edge">
<title>Node1&#45;&gt;Node4</title>
<g id="a_edge50_Node000001_Node000004"><a xlink:title=" ">
<path fill="none" stroke="#63b8ff" d="M86.45,-241.04C102.87,-269.12 141.74,-329.56 190,-363.92 247.94,-405.17 326.16,-430.03 380.93,-443.53"/>
<polygon fill="#63b8ff" stroke="#63b8ff" points="380.33,-446.99 390.87,-445.92 381.97,-440.18 380.33,-446.99"/>
</a>
</g>
</g>
<!-- Node5 -->
<g id="Node000005" class="node">
<title>Node5</title>
<g id="a_Node000005"><a xlink:href="classwmtk_1_1_mesh.html#a6d2a546c8f661bf6386cf845a1693d2f" target="_top" xlink:title="Generate a vector of Tuples from global vertex/edge/triangle/tetrahedron index.">
<polygon fill="white" stroke="#666666" points="505.5,-405.42 389.5,-405.42 389.5,-386.42 505.5,-386.42 505.5,-405.42"/>
<text text-anchor="middle" x="447.5" y="-393.42" font-family="Helvetica,sans-Serif" font-size="10.00">wmtk::Mesh::get_all</text>
</a>
</g>
</g>
<!-- Node1&#45;&gt;Node5 -->
<g id="edge51_Node000001_Node000005" class="edge">
<title>Node1&#45;&gt;Node5</title>
<g id="a_edge51_Node000001_Node000005"><a xlink:title=" ">
<path fill="none" stroke="#63b8ff" d="M91.26,-241.21C110.78,-262.76 149.33,-301.9 190,-323.92 249.9,-356.35 325.76,-375.3 379.4,-385.54"/>
<polygon fill="#63b8ff" stroke="#63b8ff" points="379.01,-389.03 389.48,-387.41 380.29,-382.15 379.01,-389.03"/>
</a>
</g>
</g>
<!-- Node6 -->
<g id="Node000006" class="node">
<title>Node6</title>
<g id="a_Node000006"><a xlink:href="namespacewmtk_1_1simplex.html#a3260444c136dbe145679b762c52f6a16" target="_top" xlink:title=" ">
<polygon fill="white" stroke="#666666" points="504,-235.42 391,-235.42 391,-216.42 504,-216.42 504,-235.42"/>
<text text-anchor="middle" x="447.5" y="-223.42" font-family="Helvetica,sans-Serif" font-size="10.00">wmtk::simplex::link</text>
</a>
</g>
</g>
<!-- Node1&#45;&gt;Node6 -->
<g id="edge52_Node000001_Node000006" class="edge">
<title>Node1&#45;&gt;Node6</title>
<g id="a_edge52_Node000001_Node000006"><a xlink:title=" ">
<path fill="none" stroke="#63b8ff" d="M154.35,-225.92C221.15,-225.92 317.16,-225.92 380.65,-225.92"/>
<polygon fill="#63b8ff" stroke="#63b8ff" points="380.93,-229.42 390.93,-225.92 380.93,-222.42 380.93,-229.42"/>
</a>
</g>
</g>
<!-- Node15 -->
<g id="Node000015" class="node">
<title>Node15</title>
<g id="a_Node000015"><a xlink:href="namespacewmtk.html#a6a35f11c12436093d26fdd8be6fecc06" target="_top" xlink:title="Retrieves the current logger.">
<polygon fill="white" stroke="#666666" points="1713,-289.42 1632,-289.42 1632,-270.42 1713,-270.42 1713,-289.42"/>
<text text-anchor="middle" x="1672.5" y="-277.42" font-family="Helvetica,sans-Serif" font-size="10.00">wmtk::logger</text>
</a>
</g>
</g>
<!-- Node1&#45;&gt;Node15 -->
<g id="edge53_Node000001_Node000015" class="edge">
<title>Node1&#45;&gt;Node15</title>
<g id="a_edge53_Node000001_Node000015"><a xlink:title=" ">
<path fill="none" stroke="#63b8ff" d="M82.38,-210.72C93.59,-174.77 127.01,-84.41 190,-42.92 286.19,20.43 331.32,-5.92 446.5,-5.92 446.5,-5.92 446.5,-5.92 1261,-5.92 1430.23,-5.92 1470.74,-73.13 1596,-186.92 1621.38,-209.98 1645.39,-241.92 1659.26,-261.73"/>
<polygon fill="#63b8ff" stroke="#63b8ff" points="1656.5,-263.89 1665.06,-270.15 1662.27,-259.93 1656.5,-263.89"/>
</a>
</g>
</g>
<!-- Node19 -->
<g id="Node000019" class="node">
<title>Node19</title>
<g id="a_Node000019"><a xlink:href="classwmtk_1_1simplex_1_1_simplex_collection.html#a3c5684abe23553010bb7f87840e9518d" target="_top" xlink:title="Return const reference to the simplex vector.">
<polygon fill="white" stroke="#666666" points="1132,-529.92 948,-529.92 948,-499.92 1132,-499.92 1132,-529.92"/>
<text text-anchor="start" x="956" y="-517.92" font-family="Helvetica,sans-Serif" font-size="10.00">wmtk::simplex::SimplexCollection</text>
<text text-anchor="middle" x="1040" y="-506.92" font-family="Helvetica,sans-Serif" font-size="10.00">::simplex_vector</text>
</a>
</g>
</g>
<!-- Node1&#45;&gt;Node19 -->
<g id="edge55_Node000001_Node000019" class="edge">
<title>Node1&#45;&gt;Node19</title>
<g id="a_edge55_Node000001_Node000019"><a xlink:title=" ">
<path fill="none" stroke="#63b8ff" d="M80.98,-240.96C89.91,-282.15 120.26,-397.89 190,-460.92 256.54,-521.06 291.63,-513.59 380,-528.92 575.19,-562.8 807.74,-544.46 937.87,-529.03"/>
<polygon fill="#63b8ff" stroke="#63b8ff" points="938.32,-532.5 947.83,-527.83 937.49,-525.55 938.32,-532.5"/>
</a>
</g>
</g>
<!-- Node25 -->
<g id="Node000025" class="node">
<title>Node25</title>
<g id="a_Node000025"><a xlink:href="classwmtk_1_1_mesh.html#abaf00438d0700358b160e310d69725c9" target="_top" xlink:title=" ">
<polygon fill="white" stroke="#666666" points="1125,-53.42 955,-53.42 955,-34.42 1125,-34.42 1125,-53.42"/>
<text text-anchor="middle" x="1040" y="-41.42" font-family="Helvetica,sans-Serif" font-size="10.00">wmtk::Mesh::top_simplex_type</text>
</a>
</g>
</g>
<!-- Node1&#45;&gt;Node25 -->
<g id="edge57_Node000001_Node000025" class="edge">
<title>Node1&#45;&gt;Node25</title>
<g id="a_edge57_Node000001_Node000025"><a xlink:title=" ">
<path fill="none" stroke="#63b8ff" d="M86.97,-210.86C103.67,-184.2 142.22,-128.88 190,-100.92 290.79,-41.94 329.72,-43.92 446.5,-43.92 446.5,-43.92 446.5,-43.92 622.5,-43.92 733.15,-43.92 860.34,-43.92 944.76,-43.92"/>
<polygon fill="#63b8ff" stroke="#63b8ff" points="944.84,-47.42 954.84,-43.92 944.84,-40.42 944.84,-47.42"/>
</a>
</g>
</g>
<!-- Node29 -->
<g id="Node000029" class="node">
<title>Node29</title>
<g id="a_Node000029"><a xlink:href="classwmtk_1_1_mesh.html#ab832ace56e7e07d16291ad568f3d73d9" target="_top" xlink:title=" ">
<polygon fill="white" stroke="#666666" points="503,-197.92 392,-197.92 392,-167.92 503,-167.92 503,-197.92"/>
<text text-anchor="start" x="400" y="-185.92" font-family="Helvetica,sans-Serif" font-size="10.00">wmtk::Mesh::orient</text>
<text text-anchor="middle" x="447.5" y="-174.92" font-family="Helvetica,sans-Serif" font-size="10.00">_vertices</text>
</a>
</g>
</g>
<!-- Node1&#45;&gt;Node29 -->
<g id="edge54_Node000001_Node000029" class="edge">
<title>Node1&#45;&gt;Node29</title>
<g id="a_edge54_Node000001_Node000029"><a xlink:title=" ">
<path fill="none" stroke="#63b8ff" d="M154.35,-217.01C221.45,-209.18 318.02,-197.92 381.5,-190.51"/>
<polygon fill="#63b8ff" stroke="#63b8ff" points="382.25,-193.94 391.78,-189.31 381.44,-186.99 382.25,-193.94"/>
</a>
</g>
</g>
<!-- Node30 -->
<g id="Node000030" class="node">
<title>Node30</title>
<g id="a_Node000030"><a xlink:href="classwmtk_1_1_mesh.html#a965a8a24158c4aa8580c57ba09f885f7" target="_top" xlink:title="switch the orientation of the Tuple of the given dimension">
<polygon fill="white" stroke="#666666" points="504.5,-149.92 390.5,-149.92 390.5,-119.92 504.5,-119.92 504.5,-149.92"/>
<text text-anchor="start" x="398.5" y="-137.92" font-family="Helvetica,sans-Serif" font-size="10.00">wmtk::Mesh::switch</text>
<text text-anchor="middle" x="447.5" y="-126.92" font-family="Helvetica,sans-Serif" font-size="10.00">_tuple</text>
</a>
</g>
</g>
<!-- Node1&#45;&gt;Node30 -->
<g id="edge56_Node000001_Node000030" class="edge">
<title>Node1&#45;&gt;Node30</title>
<g id="a_edge56_Node000001_Node000030"><a xlink:title=" ">
<path fill="none" stroke="#63b8ff" d="M122.97,-210.88C143.32,-204.33 167.75,-196.82 190,-190.92 254.13,-173.94 328.25,-158.16 380.27,-147.72"/>
<polygon fill="#63b8ff" stroke="#63b8ff" points="381.25,-151.09 390.37,-145.7 379.88,-144.23 381.25,-151.09"/>
</a>
</g>
</g>
<!-- Node31 -->
<g id="Node000031" class="node">
<title>Node31</title>
<g id="a_Node000031"><a xlink:href="classwmtk_1_1simplex_1_1_simplex.html#a7de67a391b9f48b57f4ecb4c412ccaee" target="_top" xlink:title=" ">
<polygon fill="white" stroke="#666666" points="515,-101.92 380,-101.92 380,-71.92 515,-71.92 515,-101.92"/>
<text text-anchor="start" x="388" y="-89.92" font-family="Helvetica,sans-Serif" font-size="10.00">wmtk::simplex::Simplex</text>
<text text-anchor="middle" x="447.5" y="-78.92" font-family="Helvetica,sans-Serif" font-size="10.00">::vertex</text>
</a>
</g>
</g>
<!-- Node1&#45;&gt;Node31 -->
<g id="edge58_Node000001_Node000031" class="edge">
<title>Node1&#45;&gt;Node31</title>
<g id="a_edge58_Node000001_Node000031"><a xlink:title=" ">
<path fill="none" stroke="#63b8ff" d="M96.24,-210.77C117.5,-193.85 154.27,-166.76 190,-150.92 247.85,-125.28 317.78,-108.69 370,-98.85"/>
<polygon fill="#63b8ff" stroke="#63b8ff" points="370.67,-102.28 379.87,-97.03 369.4,-95.4 370.67,-102.28"/>
</a>
</g>
</g>
<!-- Node2&#45;&gt;Node2 -->
<g id="edge2_Node000002_Node000002" class="edge">
<title>Node2&#45;&gt;Node2</title>
<g id="a_edge2_Node000002_Node000002"><a xlink:title=" ">
<path fill="none" stroke="#63b8ff" d="M235.36,-297.2C228.33,-306.33 238.88,-314.92 267,-314.92 283.7,-314.92 294.2,-311.89 298.51,-307.52"/>
<polygon fill="#63b8ff" stroke="#63b8ff" points="302.01,-307.24 298.64,-297.2 295.01,-307.15 302.01,-307.24"/>
</a>
</g>
</g>
<!-- Node2&#45;&gt;Node3 -->
<g id="edge3_Node000002_Node000003" class="edge">
<title>Node2&#45;&gt;Node3</title>
<g id="a_edge3_Node000002_Node000003"><a xlink:title=" ">
<path fill="none" stroke="#63b8ff" d="M272.43,-297.02C283.97,-333.8 318.41,-428.81 380,-480.92 381.51,-482.2 383.1,-483.41 384.74,-484.56"/>
<polygon fill="#63b8ff" stroke="#63b8ff" points="383,-487.61 393.37,-489.81 386.64,-481.62 383,-487.61"/>
</a>
</g>
</g>
<!-- Node2&#45;&gt;Node4 -->
<g id="edge4_Node000002_Node000004" class="edge">
<title>Node2&#45;&gt;Node4</title>
<g id="a_edge4_Node000002_Node000004"><a xlink:title=" ">
<path fill="none" stroke="#63b8ff" d="M275.35,-297.09C290.68,-327.21 328.93,-394.94 380,-432.92 381.84,-434.29 383.77,-435.59 385.76,-436.82"/>
<polygon fill="#63b8ff" stroke="#63b8ff" points="384.36,-440.04 394.82,-441.77 387.72,-433.9 384.36,-440.04"/>
</a>
</g>
</g>
<!-- Node2&#45;&gt;Node5 -->
<g id="edge5_Node000002_Node000005" class="edge">
<title>Node2&#45;&gt;Node5</title>
<g id="a_edge5_Node000002_Node000005"><a xlink:title=" ">
<path fill="none" stroke="#63b8ff" d="M283.46,-297.17C304.01,-316.73 342.15,-350.67 380,-371.92 387.46,-376.11 395.79,-379.8 403.96,-382.95"/>
<polygon fill="#63b8ff" stroke="#63b8ff" points="402.83,-386.26 413.42,-386.4 405.22,-379.68 402.83,-386.26"/>
</a>
</g>
</g>
<!-- Node2&#45;&gt;Node6 -->
<g id="edge7_Node000002_Node000006" class="edge">
<title>Node2&#45;&gt;Node6</title>
<g id="a_edge7_Node000002_Node000006"><a xlink:title=" ">
<path fill="none" stroke="#63b8ff" d="M315.83,-266.92C344.13,-258.04 379.56,-246.92 406.39,-238.51"/>
<polygon fill="#63b8ff" stroke="#63b8ff" points="407.72,-241.76 416.22,-235.42 405.63,-235.08 407.72,-241.76"/>
</a>
</g>
</g>
<!-- Node2&#45;&gt;Node15 -->
<g id="edge42_Node000002_Node000015" class="edge">
<title>Node2&#45;&gt;Node15</title>
<g id="a_edge42_Node000002_Node000015"><a xlink:title=" ">
<path fill="none" stroke="#63b8ff" d="M298.26,-297.06C331.39,-313.63 379.87,-337.87 380,-337.92 438.21,-360.89 460.54,-347.1 515,-377.92 533.89,-388.61 532.77,-399.14 551,-410.92 706.7,-511.55 767.04,-498.65 948,-538.92 988.33,-547.9 997.68,-557.92 1039,-557.92 1039,-557.92 1039,-557.92 1261,-557.92 1417.16,-557.92 1479.82,-556.27 1596,-451.92 1642.19,-410.43 1661.44,-335.52 1668.27,-299.85"/>
<polygon fill="#63b8ff" stroke="#63b8ff" points="1671.76,-300.2 1670.07,-289.74 1664.87,-298.97 1671.76,-300.2"/>
</a>
</g>
</g>
<!-- Node2&#45;&gt;Node19 -->
<g id="edge44_Node000002_Node000019" class="edge">
<title>Node2&#45;&gt;Node19</title>
<g id="a_edge44_Node000002_Node000019"><a xlink:title=" ">
<path fill="none" stroke="#63b8ff" d="M344.16,-296.51C393.66,-307.09 459.15,-323.17 515,-343.92 614.31,-380.82 627.92,-416.17 728,-450.92 796.2,-474.61 876.01,-490.81 937.7,-500.98"/>
<polygon fill="#63b8ff" stroke="#63b8ff" points="937.4,-504.48 947.83,-502.63 938.52,-497.57 937.4,-504.48"/>
</a>
</g>
</g>
<!-- Node2&#45;&gt;Node25 -->
<g id="edge46_Node000002_Node000025" class="edge">
<title>Node2&#45;&gt;Node25</title>
<g id="a_edge46_Node000002_Node000025"><a xlink:title=" ">
<path fill="none" stroke="#63b8ff" d="M344.12,-281.16C393.32,-279.42 458.49,-274.78 515,-262.92 560.74,-253.33 875.07,-152.57 912,-123.92 934.79,-106.24 924.7,-86.93 948,-69.92 955.41,-64.52 963.91,-60.23 972.68,-56.84"/>
<polygon fill="#63b8ff" stroke="#63b8ff" points="973.97,-60.09 982.26,-53.49 971.66,-53.48 973.97,-60.09"/>
</a>
</g>
</g>
<!-- Node2&#45;&gt;Node29 -->
<g id="edge43_Node000002_Node000029" class="edge">
<title>Node2&#45;&gt;Node29</title>
<g id="a_edge43_Node000002_Node000029"><a xlink:title=" ">
<path fill="none" stroke="#63b8ff" d="M287.81,-266.85C309.56,-250.78 345.95,-225.29 380,-207.92 384.07,-205.85 388.34,-203.85 392.69,-201.95"/>
<polygon fill="#63b8ff" stroke="#63b8ff" points="394.38,-205.04 402.26,-197.96 391.68,-198.58 394.38,-205.04"/>
</a>
</g>
</g>
<!-- Node2&#45;&gt;Node30 -->
<g id="edge45_Node000002_Node000030" class="edge">
<title>Node2&#45;&gt;Node30</title>
<g id="a_edge45_Node000002_Node000030"><a xlink:title=" ">
<path fill="none" stroke="#63b8ff" d="M277.95,-266.89C295.62,-241.29 334.86,-189.1 380,-158.92 382.27,-157.41 384.64,-155.98 387.08,-154.62"/>
<polygon fill="#63b8ff" stroke="#63b8ff" points="388.81,-157.67 396.18,-150.07 385.67,-151.41 388.81,-157.67"/>
</a>
</g>
</g>
<!-- Node2&#45;&gt;Node31 -->
<g id="edge47_Node000002_Node000031" class="edge">
<title>Node2&#45;&gt;Node31</title>
<g id="a_edge47_Node000002_Node000031"><a xlink:title=" ">
<path fill="none" stroke="#63b8ff" d="M273.94,-266.78C287.65,-233.75 324.59,-154.7 380,-110.92 381.76,-109.53 383.61,-108.22 385.52,-106.98"/>
<polygon fill="#63b8ff" stroke="#63b8ff" points="387.32,-109.98 394.27,-101.98 383.85,-103.9 387.32,-109.98"/>
</a>
</g>
</g>
<!-- Node5&#45;&gt;Node5 -->
<g id="edge6_Node000005_Node000005" class="edge">
<title>Node5&#45;&gt;Node5</title>
<g id="a_edge6_Node000005_Node000005"><a xlink:title=" ">
<path fill="none" stroke="#63b8ff" d="M420.68,-405.51C407.63,-414.16 416.57,-423.42 447.5,-423.42 468.28,-423.42 479.13,-419.24 480.06,-413.87"/>
<polygon fill="#63b8ff" stroke="#63b8ff" points="482.86,-411.77 474.32,-405.51 477.09,-415.73 482.86,-411.77"/>
</a>
</g>
</g>
<!-- Node6&#45;&gt;Node6 -->
<g id="edge8_Node000006_Node000006" class="edge">
<title>Node6&#45;&gt;Node6</title>
<g id="a_edge8_Node000006_Node000006"><a xlink:title=" ">
<path fill="none" stroke="#63b8ff" d="M420.68,-235.51C407.63,-244.16 416.57,-253.42 447.5,-253.42 468.28,-253.42 479.13,-249.24 480.06,-243.87"/>
<polygon fill="#63b8ff" stroke="#63b8ff" points="482.86,-241.77 474.32,-235.51 477.09,-245.73 482.86,-241.77"/>
</a>
</g>
</g>
<!-- Node7 -->
<g id="Node000007" class="node">
<title>Node7</title>
<g id="a_Node000007"><a xlink:href="namespacewmtk_1_1simplex.html#a50d0026adbac4883ab00460ada1c1cfe" target="_top" xlink:title=" ">
<polygon fill="white" stroke="#666666" points="692,-311.42 551,-311.42 551,-292.42 692,-292.42 692,-311.42"/>
<text text-anchor="middle" x="621.5" y="-299.42" font-family="Helvetica,sans-Serif" font-size="10.00">wmtk::simplex::link_slow</text>
</a>
</g>
</g>
<!-- Node6&#45;&gt;Node7 -->
<g id="edge9_Node000006_Node000007" class="edge">
<title>Node6&#45;&gt;Node7</title>
<g id="a_edge9_Node000006_Node000007"><a xlink:title=" ">
<path fill="none" stroke="#63b8ff" d="M470.28,-235.55C500.4,-248.85 554.91,-272.94 589.33,-288.15"/>
<polygon fill="#63b8ff" stroke="#63b8ff" points="588.33,-291.54 598.89,-292.38 591.16,-285.13 588.33,-291.54"/>
</a>
</g>
</g>
<!-- Node6&#45;&gt;Node25 -->
<g id="edge41_Node000006_Node000025" class="edge">
<title>Node6&#45;&gt;Node25</title>
<g id="a_edge41_Node000006_Node000025"><a xlink:title=" ">
<path fill="none" stroke="#63b8ff" d="M482.73,-216.34C493.11,-213.38 504.54,-210.07 515,-206.92 708.28,-148.75 754.72,-128.1 948,-69.92 963.21,-65.34 979.91,-60.52 994.81,-56.28"/>
<polygon fill="#63b8ff" stroke="#63b8ff" points="996.13,-59.54 1004.8,-53.45 994.22,-52.81 996.13,-59.54"/>
</a>
</g>
</g>
<!-- Node8 -->
<g id="Node000008" class="node">
<title>Node8</title>
<g id="a_Node000008"><a xlink:href="classwmtk_1_1simplex_1_1_simplex_collection.html#a1e7079b3b75f70dd28c524556cab76cf" target="_top" xlink:title="Add simplex to the collection.">
<polygon fill="white" stroke="#666666" points="1596,-442.42 1388,-442.42 1388,-423.42 1596,-423.42 1596,-442.42"/>
<text text-anchor="middle" x="1492" y="-430.42" font-family="Helvetica,sans-Serif" font-size="10.00">wmtk::simplex::SimplexCollection::add</text>
</a>
</g>
</g>
<!-- Node7&#45;&gt;Node8 -->
<g id="edge10_Node000007_Node000008" class="edge">
<title>Node7&#45;&gt;Node8</title>
<g id="a_edge10_Node000007_Node000008"><a xlink:title=" ">
<path fill="none" stroke="#63b8ff" d="M634.39,-311.56C653.15,-326.3 691.29,-354.36 728,-369.92 805.32,-402.71 839.7,-370.19 912,-412.92 932.59,-425.09 926.15,-443.19 948,-452.92 1029.39,-489.17 1286.28,-461.04 1415.39,-443.8"/>
<polygon fill="#63b8ff" stroke="#63b8ff" points="1416.14,-447.23 1425.59,-442.43 1415.21,-440.29 1416.14,-447.23"/>
</a>
</g>
</g>
<!-- Node9 -->
<g id="Node000009" class="node">
<title>Node9</title>
<g id="a_Node000009"><a xlink:href="namespacewmtk_1_1simplex.html#a2ed8f83fbda4dc05306bfe8d2ce7ab94" target="_top" xlink:title="The closed star contains the input simplex, all its top dimension cofaces, and their faces.">
<polygon fill="white" stroke="#666666" points="895.5,-311.42 744.5,-311.42 744.5,-292.42 895.5,-292.42 895.5,-311.42"/>
<text text-anchor="middle" x="820" y="-299.42" font-family="Helvetica,sans-Serif" font-size="10.00">wmtk::simplex::closed_star</text>
</a>
</g>
</g>
<!-- Node7&#45;&gt;Node9 -->
<g id="edge11_Node000007_Node000009" class="edge">
<title>Node7&#45;&gt;Node9</title>
<g id="a_edge11_Node000007_Node000009"><a xlink:title=" ">
<path fill="none" stroke="#63b8ff" d="M692.06,-301.92C705.65,-301.92 720.04,-301.92 734.07,-301.92"/>
<polygon fill="#63b8ff" stroke="#63b8ff" points="734.2,-305.42 744.2,-301.92 734.2,-298.42 734.2,-305.42"/>
</a>
</g>
</g>
<!-- Node10 -->
<g id="Node000010" class="node">
<title>Node10</title>
<g id="a_Node000010"><a xlink:href="namespacewmtk_1_1simplex.html#aee89641a0de7b5ddf8d15bf376f9d33b" target="_top" xlink:title="Returns all faces of a simplex.">
<polygon fill="white" stroke="#666666" points="1101,-425.42 979,-425.42 979,-406.42 1101,-406.42 1101,-425.42"/>
<text text-anchor="middle" x="1040" y="-413.42" font-family="Helvetica,sans-Serif" font-size="10.00">wmtk::simplex::faces</text>
</a>
</g>
</g>
<!-- Node7&#45;&gt;Node10 -->
<g id="edge37_Node000007_Node000010" class="edge">
<title>Node7&#45;&gt;Node10</title>
<g id="a_edge37_Node000007_Node000010"><a xlink:title=" ">
<path fill="none" stroke="#63b8ff" d="M656.67,-311.52C715.92,-328.12 841.59,-363.18 948,-391.92 962.34,-395.8 977.98,-399.95 992.18,-403.69"/>
<polygon fill="#63b8ff" stroke="#63b8ff" points="991.66,-407.17 1002.22,-406.33 993.44,-400.4 991.66,-407.17"/>
</a>
</g>
</g>
<!-- Node7&#45;&gt;Node19 -->
<g id="edge39_Node000007_Node000019" class="edge">
<title>Node7&#45;&gt;Node19</title>
<g id="a_edge39_Node000007_Node000019"><a xlink:title=" ">
<path fill="none" stroke="#63b8ff" d="M634.14,-311.56C648.43,-323.61 673.09,-345.21 692,-365.92 709.74,-385.35 706.08,-398.37 728,-412.92 798.41,-459.67 835.22,-425.61 912,-460.92 929.7,-469.06 930.53,-477.31 948,-485.92 955.89,-489.81 964.42,-493.33 972.98,-496.47"/>
<polygon fill="#63b8ff" stroke="#63b8ff" points="972.03,-499.85 982.62,-499.85 974.35,-493.24 972.03,-499.85"/>
</a>
</g>
</g>
<!-- Node20 -->
<g id="Node000020" class="node">
<title>Node20</title>
<g id="a_Node000020"><a xlink:href="classwmtk_1_1simplex_1_1_simplex_collection.html#ab318c99d54327383ff1b985bed043f3a" target="_top" xlink:title="Sort simplex vector and remove duplicates.">
<polygon fill="white" stroke="#666666" points="1352,-134.92 1168,-134.92 1168,-104.92 1352,-104.92 1352,-134.92"/>
<text text-anchor="start" x="1176" y="-122.92" font-family="Helvetica,sans-Serif" font-size="10.00">wmtk::simplex::SimplexCollection</text>
<text text-anchor="middle" x="1260" y="-111.92" font-family="Helvetica,sans-Serif" font-size="10.00">::sort_and_clean</text>
</a>
</g>
</g>
<!-- Node7&#45;&gt;Node20 -->
<g id="edge40_Node000007_Node000020" class="edge">
<title>Node7&#45;&gt;Node20</title>
<g id="a_edge40_Node000007_Node000020"><a xlink:title=" ">
<path fill="none" stroke="#63b8ff" d="M678.96,-292.39C760.77,-278.35 903.51,-252.9 912,-244.92 957.89,-201.82 898.15,-146.37 948,-107.92 1024.72,-48.76 1146.53,-78.36 1212.63,-101.4"/>
<polygon fill="#63b8ff" stroke="#63b8ff" points="1211.76,-104.81 1222.36,-104.89 1214.13,-98.22 1211.76,-104.81"/>
</a>
</g>
</g>
<!-- Node28 -->
<g id="Node000028" class="node">
<title>Node28</title>
<g id="a_Node000028"><a xlink:href="classwmtk_1_1simplex_1_1_simplex_collection.html#a592a38f5119ed654001d88d032bcea9c" target="_top" xlink:title="Get intersection of two simplex collections.">
<polygon fill="white" stroke="#666666" points="912,-235.92 728,-235.92 728,-205.92 912,-205.92 912,-235.92"/>
<text text-anchor="start" x="736" y="-223.92" font-family="Helvetica,sans-Serif" font-size="10.00">wmtk::simplex::SimplexCollection</text>
<text text-anchor="middle" x="820" y="-212.92" font-family="Helvetica,sans-Serif" font-size="10.00">::get_intersection</text>
</a>
</g>
</g>
<!-- Node7&#45;&gt;Node28 -->
<g id="edge38_Node000007_Node000028" class="edge">
<title>Node7&#45;&gt;Node28</title>
<g id="a_edge38_Node000007_Node000028"><a xlink:title=" ">
<path fill="none" stroke="#63b8ff" d="M640.05,-292.26C660.69,-281.14 696.18,-262.75 728,-249.92 737.34,-246.16 747.38,-242.54 757.25,-239.23"/>
<polygon fill="#63b8ff" stroke="#63b8ff" points="758.62,-242.46 767.03,-236.01 756.44,-235.81 758.62,-242.46"/>
</a>
</g>
</g>
<!-- Node9&#45;&gt;Node8 -->
<g id="edge12_Node000009_Node000008" class="edge">
<title>Node9&#45;&gt;Node8</title>
<g id="a_edge12_Node000009_Node000008"><a xlink:title=" ">
<path fill="none" stroke="#63b8ff" d="M868.81,-311.43C883.2,-315.37 898.7,-320.75 912,-327.92 930.58,-337.95 929.08,-349.55 948,-358.92 1022.91,-396.03 1052.48,-372.14 1132,-397.92 1148.66,-403.32 1150.99,-409.79 1168,-413.92 1236.25,-430.52 1314.89,-435.43 1377.48,-436.12"/>
<polygon fill="#63b8ff" stroke="#63b8ff" points="1377.75,-439.62 1387.78,-436.2 1377.81,-432.62 1377.75,-439.62"/>
</a>
</g>
</g>
<!-- Node9&#45;&gt;Node10 -->
<g id="edge13_Node000009_Node000010" class="edge">
<title>Node9&#45;&gt;Node10</title>
<g id="a_edge13_Node000009_Node000010"><a xlink:title=" ">
<path fill="none" stroke="#63b8ff" d="M856.35,-311.46C874.34,-317.54 895.76,-326.78 912,-339.92 933.85,-357.61 924.99,-375.78 948,-391.92 954.4,-396.41 961.58,-400.06 969.03,-403.02"/>
<polygon fill="#63b8ff" stroke="#63b8ff" points="967.97,-406.36 978.57,-406.42 970.33,-399.77 967.97,-406.36"/>
</a>
</g>
</g>
<!-- Node11 -->
<g id="Node000011" class="node">
<title>Node11</title>
<g id="a_Node000011"><a xlink:href="classwmtk_1_1_mesh.html#a8cc8686f0688613806f43720b6db49e7" target="_top" xlink:title="check validity of tuple including its hash">
<polygon fill="white" stroke="#666666" points="1100,-349.42 980,-349.42 980,-330.42 1100,-330.42 1100,-349.42"/>
<text text-anchor="middle" x="1040" y="-337.42" font-family="Helvetica,sans-Serif" font-size="10.00">wmtk::Mesh::is_valid</text>
</a>
</g>
</g>
<!-- Node9&#45;&gt;Node11 -->
<g id="edge15_Node000009_Node000011" class="edge">
<title>Node9&#45;&gt;Node11</title>
<g id="a_edge15_Node000009_Node000011"><a xlink:title=" ">
<path fill="none" stroke="#63b8ff" d="M875.73,-311.46C905.66,-316.68 942.92,-323.18 974.29,-328.64"/>
<polygon fill="#63b8ff" stroke="#63b8ff" points="973.8,-332.11 984.25,-330.38 975,-325.21 973.8,-332.11"/>
</a>
</g>
</g>
<!-- Node17 -->
<g id="Node000017" class="node">
<title>Node17</title>
<g id="a_Node000017"><a xlink:href="namespacewmtk.html#a441d6ad4f19569c7d4946e743da1a925" target="_top" xlink:title=" ">
<polygon fill="white" stroke="#666666" points="1553,-273.92 1431,-273.92 1431,-243.92 1553,-243.92 1553,-273.92"/>
<text text-anchor="start" x="1439" y="-261.92" font-family="Helvetica,sans-Serif" font-size="10.00">wmtk::log_and_throw</text>
<text text-anchor="middle" x="1492" y="-250.92" font-family="Helvetica,sans-Serif" font-size="10.00">_error</text>
</a>
</g>
</g>
<!-- Node9&#45;&gt;Node17 -->
<g id="edge22_Node000009_Node000017" class="edge">
<title>Node9&#45;&gt;Node17</title>
<g id="a_edge22_Node000009_Node000017"><a xlink:title=" ">
<path fill="none" stroke="#63b8ff" d="M895.79,-297.47C958.79,-293.7 1051.29,-288.09 1132,-282.92 1232.26,-276.51 1348.25,-268.68 1420.63,-263.75"/>
<polygon fill="#63b8ff" stroke="#63b8ff" points="1421.24,-267.21 1430.98,-263.04 1420.77,-260.23 1421.24,-267.21"/>
</a>
</g>
</g>
<!-- Node18 -->
<g id="Node000018" class="node">
<title>Node18</title>
<g id="a_Node000018"><a xlink:href="classwmtk_1_1simplex_1_1_simplex_collection.html#a1973c83eede96b64f422049c6fc52976" target="_top" xlink:title=" ">
<polygon fill="white" stroke="#666666" points="1132,-273.92 948,-273.92 948,-243.92 1132,-243.92 1132,-273.92"/>
<text text-anchor="start" x="956" y="-261.92" font-family="Helvetica,sans-Serif" font-size="10.00">wmtk::simplex::SimplexCollection</text>
<text text-anchor="middle" x="1040" y="-250.92" font-family="Helvetica,sans-Serif" font-size="10.00">::reserve</text>
</a>
</g>
</g>
<!-- Node9&#45;&gt;Node18 -->
<g id="edge24_Node000009_Node000018" class="edge">
<title>Node9&#45;&gt;Node18</title>
<g id="a_edge24_Node000009_Node000018"><a xlink:title=" ">
<path fill="none" stroke="#63b8ff" d="M869.38,-292.38C893.95,-287.53 924.56,-281.5 952.97,-275.89"/>
<polygon fill="#63b8ff" stroke="#63b8ff" points="953.79,-279.3 962.92,-273.93 952.43,-272.43 953.79,-279.3"/>
</a>
</g>
</g>
<!-- Node9&#45;&gt;Node19 -->
<g id="edge25_Node000009_Node000019" class="edge">
<title>Node9&#45;&gt;Node19</title>
<g id="a_edge25_Node000009_Node000019"><a xlink:title=" ">
<path fill="none" stroke="#63b8ff" d="M827.65,-311.54C845.31,-336.67 895.64,-405.61 948,-452.92 965.15,-468.42 986.4,-483.11 1004.06,-494.3"/>
<polygon fill="#63b8ff" stroke="#63b8ff" points="1002.58,-497.5 1012.92,-499.82 1006.28,-491.56 1002.58,-497.5"/>
</a>
</g>
</g>
<!-- Node9&#45;&gt;Node20 -->
<g id="edge26_Node000009_Node000020" class="edge">
<title>Node9&#45;&gt;Node20</title>
<g id="a_edge26_Node000009_Node000020"><a xlink:title=" ">
<path fill="none" stroke="#63b8ff" d="M889.93,-292.36C898.13,-288.86 905.78,-284.18 912,-277.92 957.02,-232.7 898.75,-179.5 948,-138.92 979.06,-113.33 1079.11,-111.07 1157.44,-113.67"/>
<polygon fill="#63b8ff" stroke="#63b8ff" points="1157.73,-117.18 1167.85,-114.04 1157.98,-110.18 1157.73,-117.18"/>
</a>
</g>
</g>
<!-- Node21 -->
<g id="Node000021" class="node">
<title>Node21</title>
<g id="a_Node000021"><a xlink:href="namespacewmtk_1_1simplex.html#a87de7137d8d21f1643dd604d73e8f765" target="_top" xlink:title="Get all top dimension cofaces of the given simplex.">
<polygon fill="white" stroke="#666666" points="1098,-225.92 982,-225.92 982,-195.92 1098,-195.92 1098,-225.92"/>
<text text-anchor="start" x="990" y="-213.92" font-family="Helvetica,sans-Serif" font-size="10.00">wmtk::simplex::top</text>
<text text-anchor="middle" x="1040" y="-202.92" font-family="Helvetica,sans-Serif" font-size="10.00">_dimension_cofaces</text>
</a>
</g>
</g>
<!-- Node9&#45;&gt;Node21 -->
<g id="edge27_Node000009_Node000021" class="edge">
<title>Node9&#45;&gt;Node21</title>
<g id="a_edge27_Node000009_Node000021"><a xlink:title=" ">
<path fill="none" stroke="#63b8ff" d="M879.06,-292.32C890.53,-288.89 902.07,-284.23 912,-277.92 933.04,-264.56 926.96,-248.29 948,-234.92 955.42,-230.21 963.73,-226.42 972.24,-223.37"/>
<polygon fill="#63b8ff" stroke="#63b8ff" points="973.46,-226.66 981.89,-220.24 971.3,-220 973.46,-226.66"/>
</a>
</g>
</g>
<!-- Node9&#45;&gt;Node25 -->
<g id="edge34_Node000009_Node000025" class="edge">
<title>Node9&#45;&gt;Node25</title>
<g id="a_edge34_Node000009_Node000025"><a xlink:title=" ">
<path fill="none" stroke="#63b8ff" d="M846.38,-292.3C867.07,-283.17 895.47,-267.48 912,-244.92 949.72,-193.45 911.28,-158.12 948,-105.92 962.91,-84.73 987.54,-68.6 1007.42,-58.11"/>
<polygon fill="#63b8ff" stroke="#63b8ff" points="1009.1,-61.18 1016.45,-53.56 1005.94,-54.94 1009.1,-61.18"/>
</a>
</g>
</g>
<!-- Node27 -->
<g id="Node000027" class="node">
<title>Node27</title>
<g id="a_Node000027"><a xlink:href="classwmtk_1_1simplex_1_1_simplex.html#aca78b1fb0a3c28c0036cf7919bfb0789" target="_top" xlink:title=" ">
<polygon fill="white" stroke="#666666" points="1107.5,-177.92 972.5,-177.92 972.5,-147.92 1107.5,-147.92 1107.5,-177.92"/>
<text text-anchor="start" x="980.5" y="-165.92" font-family="Helvetica,sans-Serif" font-size="10.00">wmtk::simplex::Simplex</text>
<text text-anchor="middle" x="1040" y="-154.92" font-family="Helvetica,sans-Serif" font-size="10.00">::tuple</text>
</a>
</g>
</g>
<!-- Node9&#45;&gt;Node27 -->
<g id="edge36_Node000009_Node000027" class="edge">
<title>Node9&#45;&gt;Node27</title>
<g id="a_edge36_Node000009_Node000027"><a xlink:title=" ">
<path fill="none" stroke="#63b8ff" d="M887.38,-292.35C896.37,-288.89 904.91,-284.21 912,-277.92 944.53,-249.05 915.47,-215.8 948,-186.92 952.46,-182.96 957.5,-179.64 962.87,-176.86"/>
<polygon fill="#63b8ff" stroke="#63b8ff" points="964.47,-179.98 972.15,-172.68 961.6,-173.6 964.47,-179.98"/>
</a>
</g>
</g>
<!-- Node10&#45;&gt;Node10 -->
<g id="edge14_Node000010_Node000010" class="edge">
<title>Node10&#45;&gt;Node10</title>
<g id="a_edge14_Node000010_Node000010"><a xlink:title=" ">
<path fill="none" stroke="#63b8ff" d="M1006.09,-425.51C989.6,-434.16 1000.9,-443.42 1040,-443.42 1068.1,-443.42 1081.85,-438.64 1081.23,-432.73"/>
<polygon fill="#63b8ff" stroke="#63b8ff" points="1083.48,-430.04 1073.91,-425.51 1078.57,-435.02 1083.48,-430.04"/>
</a>
</g>
</g>
<!-- Node12 -->
<g id="Node000012" class="node">
<title>Node12</title>
<g id="a_Node000012"><a xlink:href="classwmtk_1_1_tuple.html#a0023f575be92cd5ceeeaaaa3762ea06d" target="_top" xlink:title="Checks if a tuple is &quot;null&quot;. This merely implies the global index is &#45;1.">
<polygon fill="white" stroke="#666666" points="1316.5,-404.42 1203.5,-404.42 1203.5,-385.42 1316.5,-385.42 1316.5,-404.42"/>
<text text-anchor="middle" x="1260" y="-392.42" font-family="Helvetica,sans-Serif" font-size="10.00">wmtk::Tuple::is_null</text>
</a>
</g>
</g>
<!-- Node11&#45;&gt;Node12 -->
<g id="edge16_Node000011_Node000012" class="edge">
<title>Node11&#45;&gt;Node12</title>
<g id="a_edge16_Node000011_Node000012"><a xlink:title=" ">
<path fill="none" stroke="#63b8ff" d="M1080.19,-349.45C1096.33,-353.58 1115.15,-358.67 1132,-363.92 1148.24,-368.99 1151.61,-372.37 1168,-376.92 1176.34,-379.24 1185.2,-381.38 1193.98,-383.31"/>
<polygon fill="#63b8ff" stroke="#63b8ff" points="1193.32,-386.75 1203.83,-385.4 1194.77,-379.9 1193.32,-386.75"/>
</a>
</g>
</g>
<!-- Node13 -->
<g id="Node000013" class="node">
<title>Node13</title>
<g id="a_Node000013"><a xlink:href="classwmtk_1_1_mesh.html#ade176d345902d97af8c5da04aa3a095b" target="_top" xlink:title=" ">
<polygon fill="white" stroke="#666666" points="1330,-349.42 1190,-349.42 1190,-330.42 1330,-330.42 1330,-349.42"/>
<text text-anchor="middle" x="1260" y="-337.42" font-family="Helvetica,sans-Serif" font-size="10.00">wmtk::Mesh::is_removed</text>
</a>
</g>
</g>
<!-- Node11&#45;&gt;Node13 -->
<g id="edge17_Node000011_Node000013" class="edge">
<title>Node11&#45;&gt;Node13</title>
<g id="a_edge17_Node000011_Node000013"><a xlink:title=" ">
<path fill="none" stroke="#63b8ff" d="M1100.28,-339.92C1124.66,-339.92 1153.26,-339.92 1179.41,-339.92"/>
<polygon fill="#63b8ff" stroke="#63b8ff" points="1179.68,-343.42 1189.68,-339.92 1179.68,-336.42 1179.68,-343.42"/>
</a>
</g>
</g>
<!-- Node11&#45;&gt;Node15 -->
<g id="edge20_Node000011_Node000015" class="edge">
<title>Node11&#45;&gt;Node15</title>
<g id="a_edge20_Node000011_Node000015"><a xlink:title=" ">
<path fill="none" stroke="#63b8ff" d="M1100.03,-330.84C1121.41,-327.74 1145.76,-324.42 1168,-321.92 1333.81,-303.27 1531.2,-289.15 1621.69,-283.12"/>
<polygon fill="#63b8ff" stroke="#63b8ff" points="1622.18,-286.6 1631.93,-282.45 1621.72,-279.61 1622.18,-286.6"/>
</a>
</g>
</g>
<!-- Node13&#45;&gt;Node13 -->
<g id="edge19_Node000013_Node000013" class="edge">
<title>Node13&#45;&gt;Node13</title>
<g id="a_edge19_Node000013_Node000013"><a xlink:title=" ">
<path fill="none" stroke="#63b8ff" d="M1226.09,-349.51C1209.6,-358.16 1220.9,-367.42 1260,-367.42 1288.1,-367.42 1301.85,-362.64 1301.23,-356.73"/>
<polygon fill="#63b8ff" stroke="#63b8ff" points="1303.48,-354.04 1293.91,-349.51 1298.57,-359.02 1303.48,-354.04"/>
</a>
</g>
</g>
<!-- Node14 -->
<g id="Node000014" class="node">
<title>Node14</title>
<g id="a_Node000014"><a xlink:href="classwmtk_1_1_tuple.html#aef64a43ff5f5617dbc99d865356bbc25" target="_top" xlink:title=" ">
<polygon fill="white" stroke="#666666" points="1557.5,-349.42 1426.5,-349.42 1426.5,-330.42 1557.5,-330.42 1557.5,-349.42"/>
<text text-anchor="middle" x="1492" y="-337.42" font-family="Helvetica,sans-Serif" font-size="10.00">wmtk::Tuple::global_cid</text>
</a>
</g>
</g>
<!-- Node13&#45;&gt;Node14 -->
<g id="edge18_Node000013_Node000014" class="edge">
<title>Node13&#45;&gt;Node14</title>
<g id="a_edge18_Node000013_Node000014"><a xlink:title=" ">
<path fill="none" stroke="#63b8ff" d="M1330.01,-339.92C1357.23,-339.92 1388.57,-339.92 1416.32,-339.92"/>
<polygon fill="#63b8ff" stroke="#63b8ff" points="1416.37,-343.42 1426.37,-339.92 1416.37,-336.42 1416.37,-343.42"/>
</a>
</g>
</g>
<!-- Node16 -->
<g id="Node000016" class="node">
<title>Node16</title>
<g id="a_Node000016"><a xlink:href="namespacewmtk.html#a3daa7951a5f8b78cf4600dc047fcc180" target="_top" xlink:title="Setup a logger object to be used by WildmeshToolkit.">
<polygon fill="white" stroke="#666666" points="1850,-289.42 1749,-289.42 1749,-270.42 1850,-270.42 1850,-289.42"/>
<text text-anchor="middle" x="1799.5" y="-277.42" font-family="Helvetica,sans-Serif" font-size="10.00">wmtk::set_logger</text>
</a>
</g>
</g>
<!-- Node15&#45;&gt;Node16 -->
<g id="edge21_Node000015_Node000016" class="edge">
<title>Node15&#45;&gt;Node16</title>
<g id="a_edge21_Node000015_Node000016"><a xlink:title=" ">
<path fill="none" stroke="#63b8ff" d="M1713.05,-279.92C1721.17,-279.92 1729.9,-279.92 1738.55,-279.92"/>
<polygon fill="#63b8ff" stroke="#63b8ff" points="1738.65,-283.42 1748.65,-279.92 1738.65,-276.42 1738.65,-283.42"/>
</a>
</g>
</g>
<!-- Node17&#45;&gt;Node15 -->
<g id="edge23_Node000017_Node000015" class="edge">
<title>Node17&#45;&gt;Node15</title>
<g id="a_edge23_Node000017_Node000015"><a xlink:title=" ">
<path fill="none" stroke="#63b8ff" d="M1553.43,-266.03C1575.68,-268.65 1600.61,-271.58 1621.81,-274.08"/>
<polygon fill="#63b8ff" stroke="#63b8ff" points="1621.54,-277.57 1631.89,-275.26 1622.36,-270.62 1621.54,-277.57"/>
</a>
</g>
</g>
<!-- Node21&#45;&gt;Node20 -->
<g id="edge29_Node000021_Node000020" class="edge">
<title>Node21&#45;&gt;Node20</title>
<g id="a_edge29_Node000021_Node000020"><a xlink:title=" ">
<path fill="none" stroke="#63b8ff" d="M1098.29,-200.99C1109.93,-197.57 1121.74,-193.01 1132,-186.92 1152.01,-175.06 1148.29,-161.29 1168,-148.92 1174.08,-145.11 1180.71,-141.75 1187.53,-138.81"/>
<polygon fill="#63b8ff" stroke="#63b8ff" points="1188.93,-142.02 1196.91,-135.05 1186.32,-135.52 1188.93,-142.02"/>
</a>
</g>
</g>
<!-- Node22 -->
<g id="Node000022" class="node">
<title>Node22</title>
<g id="a_Node000022"><a xlink:href="classwmtk_1_1simplex_1_1_simplex_collection.html#a0d0c1765c4ed8ffd0f163661111bfb08" target="_top" xlink:title=" ">
<polygon fill="white" stroke="#666666" points="1352,-187.92 1168,-187.92 1168,-157.92 1352,-157.92 1352,-187.92"/>
<text text-anchor="start" x="1176" y="-175.92" font-family="Helvetica,sans-Serif" font-size="10.00">wmtk::simplex::SimplexCollection</text>
<text text-anchor="middle" x="1260" y="-164.92" font-family="Helvetica,sans-Serif" font-size="10.00">::mesh</text>
</a>
</g>
</g>
<!-- Node21&#45;&gt;Node22 -->
<g id="edge28_Node000021_Node000022" class="edge">
<title>Node21&#45;&gt;Node22</title>
<g id="a_edge28_Node000021_Node000022"><a xlink:title=" ">
<path fill="none" stroke="#63b8ff" d="M1098.28,-200.94C1117.97,-197.51 1140.59,-193.56 1162.53,-189.74"/>
<polygon fill="#63b8ff" stroke="#63b8ff" points="1163.3,-193.16 1172.55,-187.99 1162.09,-186.26 1163.3,-193.16"/>
</a>
</g>
</g>
<!-- Node23 -->
<g id="Node000023" class="node">
<title>Node23</title>
<g id="a_Node000023"><a xlink:href="namespacewmtk_1_1simplex.html#a0101f27eb2ad82814390b92ab1a4d1a0" target="_top" xlink:title=" ">
<polygon fill="white" stroke="#666666" points="1335.5,-235.92 1184.5,-235.92 1184.5,-205.92 1335.5,-205.92 1335.5,-235.92"/>
<text text-anchor="start" x="1192.5" y="-223.92" font-family="Helvetica,sans-Serif" font-size="10.00">wmtk::simplex::top</text>
<text text-anchor="middle" x="1260" y="-212.92" font-family="Helvetica,sans-Serif" font-size="10.00">_dimension_cofaces_tuples</text>
</a>
</g>
</g>
<!-- Node21&#45;&gt;Node23 -->
<g id="edge30_Node000021_Node000023" class="edge">
<title>Node21&#45;&gt;Node23</title>
<g id="a_edge30_Node000021_Node000023"><a xlink:title=" ">
<path fill="none" stroke="#63b8ff" d="M1098.28,-213.55C1121.55,-214.62 1148.93,-215.87 1174.42,-217.04"/>
<polygon fill="#63b8ff" stroke="#63b8ff" points="1174.31,-220.54 1184.46,-217.5 1174.63,-213.55 1174.31,-220.54"/>
</a>
</g>
</g>
<!-- Node23&#45;&gt;Node8 -->
<g id="edge31_Node000023_Node000008" class="edge">
<title>Node23&#45;&gt;Node8</title>
<g id="a_edge31_Node000023_Node000008"><a xlink:title=" ">
<path fill="none" stroke="#63b8ff" d="M1274.82,-236.3C1305.15,-269.97 1375.81,-348.13 1388,-358.92 1413.38,-381.41 1445.5,-403.62 1467.06,-417.75"/>
<polygon fill="#63b8ff" stroke="#63b8ff" points="1465.31,-420.79 1475.61,-423.29 1469.12,-414.91 1465.31,-420.79"/>
</a>
</g>
</g>
<!-- Node23&#45;&gt;Node17 -->
<g id="edge32_Node000023_Node000017" class="edge">
<title>Node23&#45;&gt;Node17</title>
<g id="a_edge32_Node000023_Node000017"><a xlink:title=" ">
<path fill="none" stroke="#63b8ff" d="M1335.67,-233.26C1363.01,-237.78 1393.82,-242.87 1420.75,-247.32"/>
<polygon fill="#63b8ff" stroke="#63b8ff" points="1420.43,-250.81 1430.87,-248.99 1421.57,-243.91 1420.43,-250.81"/>
</a>
</g>
</g>
<!-- Node24 -->
<g id="Node000024" class="node">
<title>Node24</title>
<g id="a_Node000024"><a xlink:href="classwmtk_1_1simplex_1_1_simplex.html#ad2cc0340a0772b7d6f03ba7a781d1163" target="_top" xlink:title=" ">
<polygon fill="white" stroke="#666666" points="1559.5,-225.92 1424.5,-225.92 1424.5,-195.92 1559.5,-195.92 1559.5,-225.92"/>
<text text-anchor="start" x="1432.5" y="-213.92" font-family="Helvetica,sans-Serif" font-size="10.00">wmtk::simplex::Simplex</text>
<text text-anchor="middle" x="1492" y="-202.92" font-family="Helvetica,sans-Serif" font-size="10.00">::primitive_type</text>
</a>
</g>
</g>
<!-- Node23&#45;&gt;Node24 -->
<g id="edge33_Node000023_Node000024" class="edge">
<title>Node23&#45;&gt;Node24</title>
<g id="a_edge33_Node000023_Node000024"><a xlink:title=" ">
<path fill="none" stroke="#63b8ff" d="M1335.67,-217.68C1360.81,-216.58 1388.88,-215.36 1414.18,-214.26"/>
<polygon fill="#63b8ff" stroke="#63b8ff" points="1414.62,-217.75 1424.46,-213.82 1414.31,-210.75 1414.62,-217.75"/>
</a>
</g>
</g>
<!-- Node26 -->
<g id="Node000026" class="node">
<title>Node26</title>
<g id="a_Node000026"><a xlink:href="classwmtk_1_1_mesh.html#a933f681cf24a63b155c9462280385200" target="_top" xlink:title=" ">
<polygon fill="white" stroke="#666666" points="1320.5,-63.92 1199.5,-63.92 1199.5,-33.92 1320.5,-33.92 1320.5,-63.92"/>
<text text-anchor="start" x="1207.5" y="-51.92" font-family="Helvetica,sans-Serif" font-size="10.00">wmtk::Mesh::top_cell</text>
<text text-anchor="middle" x="1260" y="-40.92" font-family="Helvetica,sans-Serif" font-size="10.00">_dimension</text>
</a>
</g>
</g>
<!-- Node25&#45;&gt;Node26 -->
<g id="edge35_Node000025_Node000026" class="edge">
<title>Node25&#45;&gt;Node26</title>
<g id="a_edge35_Node000025_Node000026"><a xlink:title=" ">
<path fill="none" stroke="#63b8ff" d="M1125.28,-45.86C1146.4,-46.34 1168.82,-46.85 1189.15,-47.32"/>
<polygon fill="#63b8ff" stroke="#63b8ff" points="1189.17,-50.82 1199.25,-47.55 1189.34,-43.82 1189.17,-50.82"/>
</a>
</g>
</g>
<!-- Node32 -->
<g id="Node000032" class="node">
<title>Node32</title>
<g id="a_Node000032"><a xlink:href="classwmtk_1_1simplex_1_1_simplex.html#ab6d51ca0c220792c1c09824d152bb53a" target="_top" xlink:title=" ">
<polygon fill="white" stroke="#666666" points="689,-101.92 554,-101.92 554,-71.92 689,-71.92 689,-101.92"/>
<text text-anchor="start" x="562" y="-89.92" font-family="Helvetica,sans-Serif" font-size="10.00">wmtk::simplex::Simplex</text>
<text text-anchor="middle" x="621.5" y="-78.92" font-family="Helvetica,sans-Serif" font-size="10.00">::Simplex</text>
</a>
</g>
</g>
<!-- Node31&#45;&gt;Node32 -->
<g id="edge48_Node000031_Node000032" class="edge">
<title>Node31&#45;&gt;Node32</title>
<g id="a_edge48_Node000031_Node000032"><a xlink:title=" ">
<path fill="none" stroke="#63b8ff" d="M515.49,-86.92C524.77,-86.92 534.37,-86.92 543.81,-86.92"/>
<polygon fill="#63b8ff" stroke="#63b8ff" points="543.97,-90.42 553.97,-86.92 543.97,-83.42 543.97,-90.42"/>
</a>
</g>
</g>
</g>
</svg>
