<?xml version="1.0" encoding="UTF-8" standalone="no"?>
<!DOCTYPE svg PUBLIC "-//W3C//DTD SVG 1.1//EN"
 "http://www.w3.org/Graphics/SVG/1.1/DTD/svg11.dtd">
<!-- Generated by graphviz version 2.43.0 (0)
 -->
<!-- Title: wmtk::components::mesh_info::simplex::volumes Pages: 1 -->
<svg width="533pt" height="86pt"
 viewBox="0.00 0.00 533.00 86.00" xmlns="http://www.w3.org/2000/svg" xmlns:xlink="http://www.w3.org/1999/xlink">
<g id="graph0" class="graph" transform="scale(1 1) rotate(0) translate(4 82)">
<title>wmtk::components::mesh_info::simplex::volumes</title>
<!-- Node1 -->
<g id="Node000001" class="node">
<title>Node1</title>
<g id="a_Node000001"><a xlink:title=" ">
<polygon fill="#999999" stroke="#666666" points="143,-54 0,-54 0,-24 143,-24 143,-54"/>
<text text-anchor="start" x="8" y="-42" font-family="Helvetica,sans-Serif" font-size="10.00">wmtk::components::mesh</text>
<text text-anchor="middle" x="71.5" y="-31" font-family="Helvetica,sans-Serif" font-size="10.00">_info::simplex::volumes</text>
</a>
</g>
</g>
<!-- Node2 -->
<g id="Node000002" class="node">
<title>Node2</title>
<g id="a_Node000002"><a xlink:href="classwmtk_1_1_mesh.html#a26b0600a273bc261624633441e1497cb" target="_top" xlink:title=" ">
<polygon fill="white" stroke="#666666" points="310.5,-78 190.5,-78 190.5,-48 310.5,-48 310.5,-78"/>
<text text-anchor="start" x="198.5" y="-66" font-family="Helvetica,sans-Serif" font-size="10.00">wmtk::Mesh::register</text>
<text text-anchor="middle" x="250.5" y="-55" font-family="Helvetica,sans-Serif" font-size="10.00">_attribute</text>
</a>
</g>
</g>
<!-- Node1&#45;&gt;Node2 -->
<g id="edge1_Node000001_Node000002" class="edge">
<title>Node1&#45;&gt;Node2</title>
<g id="a_edge1_Node000001_Node000002"><a xlink:title=" ">
<path fill="none" stroke="#63b8ff" d="M143.22,-48.59C155.41,-50.24 168.06,-51.96 180.21,-53.6"/>
<polygon fill="#63b8ff" stroke="#63b8ff" points="179.89,-57.09 190.27,-54.97 180.84,-50.16 179.89,-57.09"/>
</a>
</g>
</g>
<!-- Node3 -->
<g id="Node000003" class="node">
<title>Node3</title>
<g id="a_Node000003"><a xlink:href="namespacewmtk_1_1components_1_1mesh__info_1_1simplex.html#ad8bcf42d618a6725f791b3b232db1489" target="_top" xlink:title=" ">
<polygon fill="white" stroke="#666666" points="322,-30 179,-30 179,0 322,0 322,-30"/>
<text text-anchor="start" x="187" y="-18" font-family="Helvetica,sans-Serif" font-size="10.00">wmtk::components::mesh</text>
<text text-anchor="middle" x="250.5" y="-7" font-family="Helvetica,sans-Serif" font-size="10.00">_info::simplex::volumes</text>
</a>
</g>
</g>
<!-- Node1&#45;&gt;Node3 -->
<g id="edge2_Node000001_Node000003" class="edge">
<title>Node1&#45;&gt;Node3</title>
<g id="a_edge2_Node000001_Node000003"><a xlink:title=" ">
<path fill="none" stroke="#63b8ff" d="M143.22,-29.41C151.66,-28.27 160.33,-27.09 168.9,-25.93"/>
<polygon fill="#63b8ff" stroke="#63b8ff" points="169.46,-29.39 178.89,-24.57 168.51,-22.45 169.46,-29.39"/>
</a>
</g>
</g>
<!-- Node4 -->
<g id="Node000004" class="node">
<title>Node4</title>
<g id="a_Node000004"><a xlink:href="classwmtk_1_1attribute_1_1_mesh_attribute_handle.html#aae37f071e9eab3a1db1aecd118d32b76" target="_top" xlink:title=" ">
<polygon fill="white" stroke="#666666" points="525,-30 358,-30 358,0 525,0 525,-30"/>
<text text-anchor="start" x="366" y="-18" font-family="Helvetica,sans-Serif" font-size="10.00">wmtk::attribute::MeshAttribute</text>
<text text-anchor="middle" x="441.5" y="-7" font-family="Helvetica,sans-Serif" font-size="10.00">Handle::handle</text>
</a>
</g>
</g>
<!-- Node3&#45;&gt;Node4 -->
<g id="edge3_Node000003_Node000004" class="edge">
<title>Node3&#45;&gt;Node4</title>
<g id="a_edge3_Node000003_Node000004"><a xlink:title=" ">
<path fill="none" stroke="#63b8ff" d="M322.15,-15C330.51,-15 339.14,-15 347.75,-15"/>
<polygon fill="#63b8ff" stroke="#63b8ff" points="347.84,-18.5 357.84,-15 347.84,-11.5 347.84,-18.5"/>
</a>
</g>
</g>
</g>
</svg>
