<?xml version="1.0" encoding="UTF-8" standalone="no"?>
<!DOCTYPE svg PUBLIC "-//W3C//DTD SVG 1.1//EN"
 "http://www.w3.org/Graphics/SVG/1.1/DTD/svg11.dtd">
<!-- Generated by graphviz version 2.43.0 (0)
 -->
<!-- Title: wmtk::dart::utils::get_canonical_simplices Pages: 1 -->
<!--zoomable 100 -->

<svg id="main" version="1.1" xmlns="http://www.w3.org/2000/svg" xmlns:xlink="http://www.w3.org/1999/xlink" xml:space="preserve" onload="init(evt)">
<style type="text/css"><![CDATA[
.node, .edge {opacity: 0.7;}
.node.selected, .edge.selected {opacity: 1;}
.edge:hover path { stroke: red; }
.edge:hover polygon { stroke: red; fill: red; }
]]></style>

<defs>
  <circle id="rim" cx="0" cy="0" r="7"/>
  <circle id="rim2" cx="0" cy="0" r="3.5"/>
  <g id="zoomPlus">
    <use xlink:href="#rim" fill="#404040"><set attributeName="fill" to="#808080" begin="zoomplus.mouseover" end="zoomplus.mouseout"/></use>
    <path d="M-4,0h8M0,-4v8" fill="none" stroke="white" stroke-width="1.5" pointer-events="none"/>
  </g>
  <g id="zoomMin">
    <use xlink:href="#rim" fill="#404040"><set attributeName="fill" to="#808080" begin="zoomminus.mouseover" end="zoomminus.mouseout"/></use>
    <path d="M-4,0h8" fill="none" stroke="white" stroke-width="1.5" pointer-events="none"/>
  </g>
  <g id="arrowUp" transform="translate(30 24)">
    <use xlink:href="#rim"/>
    <path pointer-events="none" fill="none" stroke="white" stroke-width="1.5" d="M0,-3.0v7 M-2.5,-0.5L0,-3.0L2.5,-0.5"/>
  </g>
  <g id="arrowRight" transform="rotate(90) translate(36 -43)">
    <use xlink:href="#rim"/>
    <path pointer-events="none" fill="none" stroke="white" stroke-width="1.5" d="M0,-3.0v7 M-2.5,-0.5L0,-3.0L2.5,-0.5"/>
  </g>
  <g id="arrowDown" transform="rotate(180) translate(-30 -48)">
    <use xlink:href="#rim"/>
    <path pointer-events="none" fill="none" stroke="white" stroke-width="1.5" d="M0,-3.0v7 M-2.5,-0.5L0,-3.0L2.5,-0.5"/>
  </g>
  <g id="arrowLeft" transform="rotate(270) translate(-36 17)">
    <use xlink:href="#rim"/>
    <path pointer-events="none" fill="none" stroke="white" stroke-width="1.5" d="M0,-3.0v7 M-2.5,-0.5L0,-3.0L2.5,-0.5"/>
  </g>
  <g id="resetDef">
    <use xlink:href="#rim2" fill="#404040"><set attributeName="fill" to="#808080" begin="reset.mouseover" end="reset.mouseout"/></use>
  </g>
</defs>
<script type="application/ecmascript">
var viewWidth = 908;
var viewHeight = 100;
var sectionId = 'dynsection-28';
</script>
<script type="application/ecmascript" xlink:href="svg.min.js"/>
<svg id="graph" class="graph">
<g id="viewport">
<title>wmtk::dart::utils::get_canonical_simplices</title>
<!-- Node1 -->
<g id="Node000001" class="node">
<title>Node1</title>
<g id="a_Node000001"><a xlink:title=" ">
<polygon fill="#999999" stroke="#666666" points="900,-54 764,-54 764,-24 900,-24 900,-54"/>
<text text-anchor="start" x="772" y="-42" font-family="Helvetica,sans-Serif" font-size="10.00">wmtk::dart::utils::</text>
<text text-anchor="middle" x="832" y="-31" font-family="Helvetica,sans-Serif" font-size="10.00">get_canonical_simplices</text>
</a>
</g>
</g>
<!-- Node2 -->
<g id="Node000002" class="node">
<title>Node2</title>
<g id="a_Node000002"><a xlink:href="classwmtk_1_1_simplex_inversion_invariant.html#a1163728175bfbd4dc26f4861019ee591" target="_top" xlink:title="we assume with local vid order (v0,v1,v2,v3) has positive volume (orient3d(v0,v1,v2,...">
<polygon fill="white" stroke="#666666" points="728,-78 549,-78 549,-48 728,-48 728,-78"/>
<text text-anchor="start" x="557" y="-66" font-family="Helvetica,sans-Serif" font-size="10.00">wmtk::SimplexInversionInvariant</text>
<text text-anchor="middle" x="638.5" y="-55" font-family="Helvetica,sans-Serif" font-size="10.00">::after</text>
</a>
</g>
</g>
<!-- Node1&#45;&gt;Node2 -->
<g id="edge1_Node000001_Node000002" class="edge">
<title>Node1&#45;&gt;Node2</title>
<g id="a_edge1_Node000001_Node000002"><a xlink:title=" ">
<path fill="none" stroke="#63b8ff" d="M753.62,-48.7C745.22,-49.75 736.62,-50.83 728.1,-51.9"/>
<polygon fill="#63b8ff" stroke="#63b8ff" points="754.27,-52.14 763.75,-47.43 753.4,-45.2 754.27,-52.14"/>
</a>
</g>
</g>
<!-- Node7 -->
<g id="Node000007" class="node">
<title>Node7</title>
<g id="a_Node000007"><a xlink:href="namespacewmtk_1_1dart_1_1utils.html#afd87564b86811327e9b131c55298a357" target="_top" xlink:title=" ">
<polygon fill="white" stroke="#666666" points="706.5,-30 570.5,-30 570.5,0 706.5,0 706.5,-30"/>
<text text-anchor="start" x="578.5" y="-18" font-family="Helvetica,sans-Serif" font-size="10.00">wmtk::dart::utils::</text>
<text text-anchor="middle" x="638.5" y="-7" font-family="Helvetica,sans-Serif" font-size="10.00">get_canonical_simplices</text>
</a>
</g>
</g>
<!-- Node1&#45;&gt;Node7 -->
<g id="edge6_Node000001_Node000007" class="edge">
<title>Node1&#45;&gt;Node7</title>
<g id="a_edge6_Node000001_Node000007"><a xlink:title=" ">
<path fill="none" stroke="#63b8ff" d="M753.63,-29.3C738.04,-27.35 721.78,-25.31 706.58,-23.41"/>
<polygon fill="#63b8ff" stroke="#63b8ff" points="753.4,-32.8 763.75,-30.57 754.27,-25.86 753.4,-32.8"/>
</a>
</g>
</g>
<!-- Node3 -->
<g id="Node000003" class="node">
<title>Node3</title>
<g id="a_Node000003"><a xlink:href="classwmtk_1_1components_1_1internal_1_1_simplicial_embedding.html#a56a218aa40f62ce6ecdb5ac253553e6c" target="_top" xlink:title="Regularize tags in mesh.">
<polygon fill="white" stroke="#666666" points="513,-78 307,-78 307,-48 513,-48 513,-78"/>
<text text-anchor="start" x="315" y="-66" font-family="Helvetica,sans-Serif" font-size="10.00">wmtk::components::internal</text>
<text text-anchor="middle" x="410" y="-55" font-family="Helvetica,sans-Serif" font-size="10.00">::SimplicialEmbedding::regularize_tags</text>
</a>
</g>
</g>
<!-- Node2&#45;&gt;Node3 -->
<g id="edge2_Node000002_Node000003" class="edge">
<title>Node2&#45;&gt;Node3</title>
<g id="a_edge2_Node000002_Node000003"><a xlink:title=" ">
<path fill="none" stroke="#63b8ff" d="M538.93,-63C530.34,-63 521.63,-63 513.01,-63"/>
<polygon fill="#63b8ff" stroke="#63b8ff" points="538.96,-66.5 548.96,-63 538.96,-59.5 538.96,-66.5"/>
</a>
</g>
</g>
<!-- Node4 -->
<g id="Node000004" class="node">
<title>Node4</title>
<g id="a_Node000004"><a xlink:href="namespacewmtk_1_1components.html#abab23cfb68442b5652e27826a47ba553" target="_top" xlink:title=" ">
<polygon fill="white" stroke="#666666" points="271,-78 107,-78 107,-48 271,-48 271,-78"/>
<text text-anchor="start" x="115" y="-66" font-family="Helvetica,sans-Serif" font-size="10.00">wmtk::components::simplicial</text>
<text text-anchor="middle" x="189" y="-55" font-family="Helvetica,sans-Serif" font-size="10.00">_embedding</text>
</a>
</g>
</g>
<!-- Node3&#45;&gt;Node4 -->
<g id="edge3_Node000003_Node000004" class="edge">
<title>Node3&#45;&gt;Node4</title>
<g id="a_edge3_Node000003_Node000004"><a xlink:title=" ">
<path fill="none" stroke="#63b8ff" d="M296.79,-63C288.2,-63 279.63,-63 271.3,-63"/>
<polygon fill="#63b8ff" stroke="#63b8ff" points="296.87,-66.5 306.87,-63 296.87,-59.5 296.87,-66.5"/>
</a>
</g>
</g>
<!-- Node5 -->
<g id="Node000005" class="node">
<title>Node5</title>
<g id="a_Node000005"><a xlink:href="test__simplicial__embedding_8cpp.html#a0e974097f50df389ea6daa673b677ca6" target="_top" xlink:title=" ">
<polygon fill="white" stroke="#666666" points="71,-91.5 0,-91.5 0,-72.5 71,-72.5 71,-91.5"/>
<text text-anchor="middle" x="35.5" y="-79.5" font-family="Helvetica,sans-Serif" font-size="10.00">TEST_CASE</text>
</a>
</g>
</g>
<!-- Node4&#45;&gt;Node5 -->
<g id="edge4_Node000004_Node000005" class="edge">
<title>Node4&#45;&gt;Node5</title>
<g id="a_edge4_Node000004_Node000005"><a xlink:title=" ">
<path fill="none" stroke="#63b8ff" d="M96.73,-74.45C87.78,-75.57 79.14,-76.65 71.32,-77.63"/>
<polygon fill="#63b8ff" stroke="#63b8ff" points="97.44,-77.88 106.93,-73.17 96.57,-70.94 97.44,-77.88"/>
</a>
</g>
</g>
<!-- Node6 -->
<g id="Node000006" class="node">
<title>Node6</title>
<g id="a_Node000006"><a xlink:href="test__simplicial__embedding_8cpp.html#a49717460104eb5696a0b66b964ff84a0" target="_top" xlink:title=" ">
<polygon fill="white" stroke="#666666" points="71,-54.5 0,-54.5 0,-35.5 71,-35.5 71,-54.5"/>
<text text-anchor="middle" x="35.5" y="-42.5" font-family="Helvetica,sans-Serif" font-size="10.00">TEST_CASE</text>
</a>
</g>
</g>
<!-- Node4&#45;&gt;Node6 -->
<g id="edge5_Node000004_Node000006" class="edge">
<title>Node4&#45;&gt;Node6</title>
<g id="a_edge5_Node000004_Node000006"><a xlink:title=" ">
<path fill="none" stroke="#63b8ff" d="M96.73,-52.16C87.78,-51.09 79.14,-50.07 71.32,-49.14"/>
<polygon fill="#63b8ff" stroke="#63b8ff" points="96.58,-55.66 106.93,-53.37 97.41,-48.71 96.58,-55.66"/>
</a>
</g>
</g>
</g>
</svg>

<g id="navigator" transform="translate(0 0)" fill="#404254">
  <rect fill="#f2f5e9" fill-opacity="0.5" stroke="#606060" stroke-width=".5" x="0" y="0" width="60" height="60"/>
  <use id="zoomplus" xlink:href="#zoomPlus" x="17" y="9" onmousedown="handleZoom(evt,'in')"/>
  <use id="zoomminus" xlink:href="#zoomMin" x="42" y="9" onmousedown="handleZoom(evt,'out')"/>
  <use id="reset" xlink:href="#resetDef" x="30" y="36" onmousedown="handleReset()"/>
   <use id="arrowup" xlink:href="#arrowUp" x="0" y="0" onmousedown="handlePan(0,-1)"/>
  <use id="arrowright" xlink:href="#arrowRight" x="0" y="0" onmousedown="handlePan(1,0)"/>
  <use id="arrowdown" xlink:href="#arrowDown" x="0" y="0" onmousedown="handlePan(0,1)"/>
  <use id="arrowleft" xlink:href="#arrowLeft" x="0" y="0" onmousedown="handlePan(-1,0)"/>
</g>
<svg viewBox="0 0 15 15" width="100%" height="30px" preserveAspectRatio="xMaxYMin meet">
 <g id="arrow_out" transform="scale(0.3 0.3)">
  <a xlink:href="namespacewmtk_1_1dart_1_1utils_aefcfe17a43bd159896769f76f1dcf624_icgraph_org.svg" target="_base">
   <rect id="button" ry="5" rx="5" y="6" x="6" height="38" width="38"
        fill="#f2f5e9" fill-opacity="0.5" stroke="#606060" stroke-width="1.0"/>
   <path id="arrow"
     d="M 11.500037,31.436501 C 11.940474,20.09759 22.043105,11.32322 32.158766,21.979434 L 37.068811,17.246167 C 37.068811,17.246167 37.088388,32 37.088388,32 L 22.160133,31.978069 C 22.160133,31.978069 26.997745,27.140456 26.997745,27.140456 C 18.528582,18.264221 13.291696,25.230495 11.500037,31.436501 z"
     style="fill:#404040;"/>
  </a>
 </g>
</svg>

<style type='text/css'>
<![CDATA[
[data-mouse-over-selected='false'] { opacity: 0.7; }
[data-mouse-over-selected='true']  { opacity: 1.0; }
]]>
</style>
<script type="application/ecmascript"><![CDATA[
document.addEventListener('DOMContentLoaded', (event) => {
  highlightEdges();
  highlightAdjacentNodes();
});
]]></script>
</svg>
