<?xml version="1.0" encoding="UTF-8" standalone="no"?>
<!DOCTYPE svg PUBLIC "-//W3C//DTD SVG 1.1//EN"
 "http://www.w3.org/Graphics/SVG/1.1/DTD/svg11.dtd">
<!-- Generated by graphviz version 2.43.0 (0)
 -->
<!-- Title: wmtk::components::multimesh::from_vertex_simplices_map Pages: 1 -->
<svg width="489pt" height="86pt"
 viewBox="0.00 0.00 489.00 86.00" xmlns="http://www.w3.org/2000/svg" xmlns:xlink="http://www.w3.org/1999/xlink">
<g id="graph0" class="graph" transform="scale(1 1) rotate(0) translate(4 82)">
<title>wmtk::components::multimesh::from_vertex_simplices_map</title>
<!-- Node1 -->
<g id="Node000001" class="node">
<title>Node1</title>
<g id="a_Node000001"><a xlink:title=" ">
<polygon fill="#999999" stroke="#666666" points="481,-54 312,-54 312,-24 481,-24 481,-54"/>
<text text-anchor="start" x="320" y="-42" font-family="Helvetica,sans-Serif" font-size="10.00">wmtk::components::multimesh</text>
<text text-anchor="middle" x="396.5" y="-31" font-family="Helvetica,sans-Serif" font-size="10.00">::from_vertex_simplices_map</text>
</a>
</g>
</g>
<!-- Node2 -->
<g id="Node000002" class="node">
<title>Node2</title>
<g id="a_Node000002"><a xlink:href="namespacewmtk_1_1components_1_1multimesh.html#af788a1e34ada6ee56f00f90c733b9dc3" target="_top" xlink:title=" ">
<polygon fill="white" stroke="#666666" points="276,-78 107,-78 107,-48 276,-48 276,-78"/>
<text text-anchor="start" x="115" y="-66" font-family="Helvetica,sans-Serif" font-size="10.00">wmtk::components::multimesh</text>
<text text-anchor="middle" x="191.5" y="-55" font-family="Helvetica,sans-Serif" font-size="10.00">::from_vertex_simplices</text>
</a>
</g>
</g>
<!-- Node1&#45;&gt;Node2 -->
<g id="edge1_Node000001_Node000002" class="edge">
<title>Node1&#45;&gt;Node2</title>
<g id="a_edge1_Node000001_Node000002"><a xlink:title=" ">
<path fill="none" stroke="#63b8ff" d="M301.74,-50.08C293.17,-51.1 284.52,-52.12 276.05,-53.12"/>
<polygon fill="#63b8ff" stroke="#63b8ff" points="302.24,-53.55 311.76,-48.9 301.42,-46.6 302.24,-53.55"/>
</a>
</g>
</g>
<!-- Node4 -->
<g id="Node000004" class="node">
<title>Node4</title>
<g id="a_Node000004"><a xlink:href="namespacewmtk_1_1components_1_1multimesh.html#ac07baa000804aae7fb0fe7321d452394" target="_top" xlink:title=" ">
<polygon fill="white" stroke="#666666" points="276,-30 107,-30 107,0 276,0 276,-30"/>
<text text-anchor="start" x="115" y="-18" font-family="Helvetica,sans-Serif" font-size="10.00">wmtk::components::multimesh</text>
<text text-anchor="middle" x="191.5" y="-7" font-family="Helvetica,sans-Serif" font-size="10.00">::from_vertex_simplices_map</text>
</a>
</g>
</g>
<!-- Node1&#45;&gt;Node4 -->
<g id="edge3_Node000001_Node000004" class="edge">
<title>Node1&#45;&gt;Node4</title>
<g id="a_edge3_Node000001_Node000004"><a xlink:title=" ">
<path fill="none" stroke="#63b8ff" d="M301.74,-27.92C293.17,-26.9 284.52,-25.88 276.05,-24.88"/>
<polygon fill="#63b8ff" stroke="#63b8ff" points="301.42,-31.4 311.76,-29.1 302.24,-24.45 301.42,-31.4"/>
</a>
</g>
</g>
<!-- Node3 -->
<g id="Node000003" class="node">
<title>Node3</title>
<g id="a_Node000003"><a xlink:href="tests_2vertex__fusion_8cpp.html#a2d116ba419d7a7a055b50607c9f7bea8" target="_top" xlink:title=" ">
<polygon fill="white" stroke="#666666" points="71,-72.5 0,-72.5 0,-53.5 71,-53.5 71,-72.5"/>
<text text-anchor="middle" x="35.5" y="-60.5" font-family="Helvetica,sans-Serif" font-size="10.00">TEST_CASE</text>
</a>
</g>
</g>
<!-- Node2&#45;&gt;Node3 -->
<g id="edge2_Node000002_Node000003" class="edge">
<title>Node2&#45;&gt;Node3</title>
<g id="a_edge2_Node000002_Node000003"><a xlink:title=" ">
<path fill="none" stroke="#63b8ff" d="M96.52,-63C87.57,-63 78.93,-63 71.14,-63"/>
<polygon fill="#63b8ff" stroke="#63b8ff" points="96.74,-66.5 106.74,-63 96.74,-59.5 96.74,-66.5"/>
</a>
</g>
</g>
</g>
</svg>
