<?xml version="1.0" encoding="UTF-8" standalone="no"?>
<!DOCTYPE svg PUBLIC "-//W3C//DTD SVG 1.1//EN"
 "http://www.w3.org/Graphics/SVG/1.1/DTD/svg11.dtd">
<!-- Generated by graphviz version 2.43.0 (0)
 -->
<!-- Title: wmtk::autogen::tet_mesh::simplex_index Pages: 1 -->
<svg width="955pt" height="479pt"
 viewBox="0.00 0.00 955.00 479.00" xmlns="http://www.w3.org/2000/svg" xmlns:xlink="http://www.w3.org/1999/xlink">
<g id="graph0" class="graph" transform="scale(1 1) rotate(0) translate(4 475)">
<title>wmtk::autogen::tet_mesh::simplex_index</title>
<!-- Node1 -->
<g id="Node000001" class="node">
<title>Node1</title>
<g id="a_Node000001"><a xlink:title=" ">
<polygon fill="#999999" stroke="#666666" points="947,-376.5 821,-376.5 821,-346.5 947,-346.5 947,-376.5"/>
<text text-anchor="start" x="829" y="-364.5" font-family="Helvetica,sans-Serif" font-size="10.00">wmtk::autogen::tet</text>
<text text-anchor="middle" x="884" y="-353.5" font-family="Helvetica,sans-Serif" font-size="10.00">_mesh::simplex_index</text>
</a>
</g>
</g>
<!-- Node2 -->
<g id="Node000002" class="node">
<title>Node2</title>
<g id="a_Node000002"><a xlink:href="classwmtk_1_1autogen_1_1tet__mesh_1_1_simplex_dart.html#ae7f7a12e1dd6360ebd79dcf36d1a6232" target="_top" xlink:title=" ">
<polygon fill="white" stroke="#666666" points="776,-471 654,-471 654,-430 776,-430 776,-471"/>
<text text-anchor="start" x="662" y="-459" font-family="Helvetica,sans-Serif" font-size="10.00">wmtk::autogen::tet</text>
<text text-anchor="start" x="662" y="-448" font-family="Helvetica,sans-Serif" font-size="10.00">_mesh::SimplexDart::</text>
<text text-anchor="middle" x="715" y="-437" font-family="Helvetica,sans-Serif" font-size="10.00">simplex_index</text>
</a>
</g>
</g>
<!-- Node1&#45;&gt;Node2 -->
<g id="edge1_Node000001_Node000002" class="edge">
<title>Node1&#45;&gt;Node2</title>
<g id="a_edge1_Node000001_Node000002"><a xlink:title=" ">
<path fill="none" stroke="#63b8ff" d="M852.08,-382.1C833.13,-394.3 808.14,-409.64 785,-421.5 779.33,-424.4 773.31,-427.26 767.27,-429.98"/>
<polygon fill="#63b8ff" stroke="#63b8ff" points="854.12,-384.95 860.59,-376.57 850.3,-379.08 854.12,-384.95"/>
</a>
</g>
</g>
<!-- Node3 -->
<g id="Node000003" class="node">
<title>Node3</title>
<g id="a_Node000003"><a xlink:href="namespacewmtk_1_1autogen_1_1tet__mesh.html#a41af2ca6349cbe7be76e4eab95c1e3e7" target="_top" xlink:title="Returns a dart action that maximizes the number of sub&#45;darts preserved.">
<polygon fill="white" stroke="#666666" points="785,-412 645,-412 645,-371 785,-371 785,-412"/>
<text text-anchor="start" x="653" y="-400" font-family="Helvetica,sans-Serif" font-size="10.00">wmtk::autogen::tet</text>
<text text-anchor="start" x="653" y="-389" font-family="Helvetica,sans-Serif" font-size="10.00">_mesh::subdart_maximal</text>
<text text-anchor="middle" x="715" y="-378" font-family="Helvetica,sans-Serif" font-size="10.00">_action_to_face</text>
</a>
</g>
</g>
<!-- Node1&#45;&gt;Node3 -->
<g id="edge2_Node000001_Node000003" class="edge">
<title>Node1&#45;&gt;Node3</title>
<g id="a_edge2_Node000001_Node000003"><a xlink:title=" ">
<path fill="none" stroke="#63b8ff" d="M810.92,-374.45C802.4,-375.98 793.73,-377.54 785.26,-379.06"/>
<polygon fill="#63b8ff" stroke="#63b8ff" points="811.59,-377.88 820.82,-372.67 810.35,-370.99 811.59,-377.88"/>
</a>
</g>
</g>
<!-- Node6 -->
<g id="Node000006" class="node">
<title>Node6</title>
<g id="a_Node000006"><a xlink:href="namespacewmtk_1_1autogen_1_1tet__mesh.html#aa8e3fbd7959c7d5b2b4d3850ae3a38da" target="_top" xlink:title=" ">
<polygon fill="white" stroke="#666666" points="785,-353 645,-353 645,-312 785,-312 785,-353"/>
<text text-anchor="start" x="653" y="-341" font-family="Helvetica,sans-Serif" font-size="10.00">wmtk::autogen::tet</text>
<text text-anchor="start" x="653" y="-330" font-family="Helvetica,sans-Serif" font-size="10.00">_mesh::subdart_maximal</text>
<text text-anchor="middle" x="715" y="-319" font-family="Helvetica,sans-Serif" font-size="10.00">_action_to_face_action</text>
</a>
</g>
</g>
<!-- Node1&#45;&gt;Node6 -->
<g id="edge5_Node000001_Node000006" class="edge">
<title>Node1&#45;&gt;Node6</title>
<g id="a_edge5_Node000001_Node000006"><a xlink:title=" ">
<path fill="none" stroke="#63b8ff" d="M810.92,-348.98C802.4,-347.5 793.73,-346 785.26,-344.53"/>
<polygon fill="#63b8ff" stroke="#63b8ff" points="810.36,-352.44 820.82,-350.7 811.56,-345.54 810.36,-352.44"/>
</a>
</g>
</g>
<!-- Node13 -->
<g id="Node000013" class="node">
<title>Node13</title>
<g id="a_Node000013"><a xlink:href="namespacewmtk_1_1autogen_1_1tet__mesh.html#a6c2a7209bd594316d454766d6be8c9df" target="_top" xlink:title=" ">
<polygon fill="white" stroke="#666666" points="785,-181 645,-181 645,-140 785,-140 785,-181"/>
<text text-anchor="start" x="653" y="-169" font-family="Helvetica,sans-Serif" font-size="10.00">wmtk::autogen::tet</text>
<text text-anchor="start" x="653" y="-158" font-family="Helvetica,sans-Serif" font-size="10.00">_mesh::subdart_maximal</text>
<text text-anchor="middle" x="715" y="-147" font-family="Helvetica,sans-Serif" font-size="10.00">_action_to_face_size</text>
</a>
</g>
</g>
<!-- Node1&#45;&gt;Node13 -->
<g id="edge12_Node000001_Node000013" class="edge">
<title>Node1&#45;&gt;Node13</title>
<g id="a_edge12_Node000001_Node000013"><a xlink:title=" ">
<path fill="none" stroke="#63b8ff" d="M863.99,-338.62C831.2,-299.15 764.5,-218.88 733.09,-181.07"/>
<polygon fill="#63b8ff" stroke="#63b8ff" points="861.37,-340.94 870.45,-346.39 866.75,-336.46 861.37,-340.94"/>
</a>
</g>
</g>
<!-- Node4 -->
<g id="Node000004" class="node">
<title>Node4</title>
<g id="a_Node000004"><a xlink:href="namespacewmtk_1_1dart_1_1utils.html#aa2d7fe3ddb37a5d335283255a6eaaad7" target="_top" xlink:title=" ">
<polygon fill="white" stroke="#666666" points="600,-441 463,-441 463,-400 600,-400 600,-441"/>
<text text-anchor="start" x="471" y="-429" font-family="Helvetica,sans-Serif" font-size="10.00">wmtk::dart::utils::</text>
<text text-anchor="start" x="471" y="-418" font-family="Helvetica,sans-Serif" font-size="10.00">subdart_maximal_action</text>
<text text-anchor="middle" x="531.5" y="-407" font-family="Helvetica,sans-Serif" font-size="10.00">_to_face</text>
</a>
</g>
</g>
<!-- Node3&#45;&gt;Node4 -->
<g id="edge3_Node000003_Node000004" class="edge">
<title>Node3&#45;&gt;Node4</title>
<g id="a_edge3_Node000003_Node000004"><a xlink:title=" ">
<path fill="none" stroke="#63b8ff" d="M634.82,-404.15C623.29,-405.99 611.52,-407.87 600.24,-409.68"/>
<polygon fill="#63b8ff" stroke="#63b8ff" points="635.54,-407.58 644.86,-402.55 634.44,-400.67 635.54,-407.58"/>
</a>
</g>
</g>
<!-- Node5 -->
<g id="Node000005" class="node">
<title>Node5</title>
<g id="a_Node000005"><a xlink:href="namespacewmtk_1_1dart_1_1utils.html#a0ba23d42a8a8025c7686ade8ecc8b738" target="_top" xlink:title=" ">
<polygon fill="white" stroke="#666666" points="391,-471 254,-471 254,-430 391,-430 391,-471"/>
<text text-anchor="start" x="262" y="-459" font-family="Helvetica,sans-Serif" font-size="10.00">wmtk::dart::utils::</text>
<text text-anchor="start" x="262" y="-448" font-family="Helvetica,sans-Serif" font-size="10.00">subdart_maximal_action</text>
<text text-anchor="middle" x="322.5" y="-437" font-family="Helvetica,sans-Serif" font-size="10.00">_to_face</text>
</a>
</g>
</g>
<!-- Node4&#45;&gt;Node5 -->
<g id="edge4_Node000004_Node000005" class="edge">
<title>Node4&#45;&gt;Node5</title>
<g id="a_edge4_Node000004_Node000005"><a xlink:title=" ">
<path fill="none" stroke="#63b8ff" d="M452.6,-431.79C432.36,-434.72 410.73,-437.86 391.08,-440.71"/>
<polygon fill="#63b8ff" stroke="#63b8ff" points="453.33,-435.22 462.72,-430.32 452.32,-428.29 453.33,-435.22"/>
</a>
</g>
</g>
<!-- Node7 -->
<g id="Node000007" class="node">
<title>Node7</title>
<g id="a_Node000007"><a xlink:href="namespacewmtk_1_1dart_1_1utils.html#aea7718d61fd980c8d233ab68cb1d072c" target="_top" xlink:title=" ">
<polygon fill="white" stroke="#666666" points="600,-353 463,-353 463,-312 600,-312 600,-353"/>
<text text-anchor="start" x="471" y="-341" font-family="Helvetica,sans-Serif" font-size="10.00">wmtk::dart::utils::</text>
<text text-anchor="start" x="471" y="-330" font-family="Helvetica,sans-Serif" font-size="10.00">subdart_maximal_action</text>
<text text-anchor="middle" x="531.5" y="-319" font-family="Helvetica,sans-Serif" font-size="10.00">_to_face_action</text>
</a>
</g>
</g>
<!-- Node6&#45;&gt;Node7 -->
<g id="edge6_Node000006_Node000007" class="edge">
<title>Node6&#45;&gt;Node7</title>
<g id="a_edge6_Node000006_Node000007"><a xlink:title=" ">
<path fill="none" stroke="#63b8ff" d="M634.82,-332.5C623.29,-332.5 611.52,-332.5 600.24,-332.5"/>
<polygon fill="#63b8ff" stroke="#63b8ff" points="634.86,-336 644.86,-332.5 634.86,-329 634.86,-336"/>
</a>
</g>
</g>
<!-- Node8 -->
<g id="Node000008" class="node">
<title>Node8</title>
<g id="a_Node000008"><a xlink:href="classwmtk_1_1operations_1_1internal_1_1_collapse_alternate_facet_data.html#ad5d625ffe8c3c7b0e62c77cd2332f053" target="_top" xlink:title=" ">
<polygon fill="white" stroke="#666666" points="401.5,-294 243.5,-294 243.5,-253 401.5,-253 401.5,-294"/>
<text text-anchor="start" x="251.5" y="-282" font-family="Helvetica,sans-Serif" font-size="10.00">wmtk::operations::internal</text>
<text text-anchor="start" x="251.5" y="-271" font-family="Helvetica,sans-Serif" font-size="10.00">::CollapseAlternateFacetData</text>
<text text-anchor="middle" x="322.5" y="-260" font-family="Helvetica,sans-Serif" font-size="10.00">::get_alternatives</text>
</a>
</g>
</g>
<!-- Node7&#45;&gt;Node8 -->
<g id="edge7_Node000007_Node000008" class="edge">
<title>Node7&#45;&gt;Node8</title>
<g id="a_edge7_Node000007_Node000008"><a xlink:title=" ">
<path fill="none" stroke="#63b8ff" d="M453.02,-310.42C434.24,-305.06 414.24,-299.36 395.71,-294.08"/>
<polygon fill="#63b8ff" stroke="#63b8ff" points="452.14,-313.81 462.72,-313.18 454.06,-307.07 452.14,-313.81"/>
</a>
</g>
</g>
<!-- Node10 -->
<g id="Node000010" class="node">
<title>Node10</title>
<g id="a_Node000010"><a xlink:href="classwmtk_1_1operations_1_1internal_1_1_collapse_alternate_facet_option_data.html#a9d03ff332c31e2355a006325dd81c7dc" target="_top" xlink:title=" ">
<polygon fill="white" stroke="#666666" points="418,-353 227,-353 227,-312 418,-312 418,-353"/>
<text text-anchor="start" x="235" y="-341" font-family="Helvetica,sans-Serif" font-size="10.00">wmtk::operations::internal</text>
<text text-anchor="start" x="235" y="-330" font-family="Helvetica,sans-Serif" font-size="10.00">::CollapseAlternateFacetOptionData</text>
<text text-anchor="middle" x="322.5" y="-319" font-family="Helvetica,sans-Serif" font-size="10.00">::map_permutation_to_alt</text>
</a>
</g>
</g>
<!-- Node7&#45;&gt;Node10 -->
<g id="edge9_Node000007_Node000010" class="edge">
<title>Node7&#45;&gt;Node10</title>
<g id="a_edge9_Node000007_Node000010"><a xlink:title=" ">
<path fill="none" stroke="#63b8ff" d="M452.54,-332.5C441.3,-332.5 429.63,-332.5 418.11,-332.5"/>
<polygon fill="#63b8ff" stroke="#63b8ff" points="452.72,-336 462.72,-332.5 452.72,-329 452.72,-336"/>
</a>
</g>
</g>
<!-- Node12 -->
<g id="Node000012" class="node">
<title>Node12</title>
<g id="a_Node000012"><a xlink:href="namespacewmtk_1_1dart_1_1utils.html#a64455ce8f02f751ca88e81bf5c326c9b" target="_top" xlink:title=" ">
<polygon fill="white" stroke="#666666" points="391,-412 254,-412 254,-371 391,-371 391,-412"/>
<text text-anchor="start" x="262" y="-400" font-family="Helvetica,sans-Serif" font-size="10.00">wmtk::dart::utils::</text>
<text text-anchor="start" x="262" y="-389" font-family="Helvetica,sans-Serif" font-size="10.00">subdart_maximal_action</text>
<text text-anchor="middle" x="322.5" y="-378" font-family="Helvetica,sans-Serif" font-size="10.00">_to_face_action</text>
</a>
</g>
</g>
<!-- Node7&#45;&gt;Node12 -->
<g id="edge11_Node000007_Node000012" class="edge">
<title>Node7&#45;&gt;Node12</title>
<g id="a_edge11_Node000007_Node000012"><a xlink:title=" ">
<path fill="none" stroke="#63b8ff" d="M452.88,-354.62C432.56,-360.42 410.82,-366.61 391.08,-372.24"/>
<polygon fill="#63b8ff" stroke="#63b8ff" points="454.06,-357.93 462.72,-351.82 452.14,-351.19 454.06,-357.93"/>
</a>
</g>
</g>
<!-- Node9 -->
<g id="Node000009" class="node">
<title>Node9</title>
<g id="a_Node000009"><a xlink:href="classwmtk_1_1operations_1_1internal_1_1_collapse_alternate_facet_data.html#aec408f6fcc5cb735d8761af17631bff9" target="_top" xlink:title=" ">
<polygon fill="white" stroke="#666666" points="174.5,-294 16.5,-294 16.5,-253 174.5,-253 174.5,-294"/>
<text text-anchor="start" x="24.5" y="-282" font-family="Helvetica,sans-Serif" font-size="10.00">wmtk::operations::internal</text>
<text text-anchor="start" x="24.5" y="-271" font-family="Helvetica,sans-Serif" font-size="10.00">::CollapseAlternateFacetData</text>
<text text-anchor="middle" x="95.5" y="-260" font-family="Helvetica,sans-Serif" font-size="10.00">::get_alternative</text>
</a>
</g>
</g>
<!-- Node8&#45;&gt;Node9 -->
<g id="edge8_Node000008_Node000009" class="edge">
<title>Node8&#45;&gt;Node9</title>
<g id="a_edge8_Node000008_Node000009"><a xlink:title=" ">
<path fill="none" stroke="#63b8ff" d="M233.43,-273.5C214.09,-273.5 193.73,-273.5 174.81,-273.5"/>
<polygon fill="#63b8ff" stroke="#63b8ff" points="233.44,-277 243.44,-273.5 233.44,-270 233.44,-277"/>
</a>
</g>
</g>
<!-- Node11 -->
<g id="Node000011" class="node">
<title>Node11</title>
<g id="a_Node000011"><a xlink:href="classwmtk_1_1operations_1_1internal_1_1_collapse_alternate_facet_option_data.html#a2564580a95b48a8a56b05e9c59e5c495" target="_top" xlink:title=" ">
<polygon fill="white" stroke="#666666" points="191,-353 0,-353 0,-312 191,-312 191,-353"/>
<text text-anchor="start" x="8" y="-341" font-family="Helvetica,sans-Serif" font-size="10.00">wmtk::operations::internal</text>
<text text-anchor="start" x="8" y="-330" font-family="Helvetica,sans-Serif" font-size="10.00">::CollapseAlternateFacetOptionData</text>
<text text-anchor="middle" x="95.5" y="-319" font-family="Helvetica,sans-Serif" font-size="10.00">::map_dart_to_alt</text>
</a>
</g>
</g>
<!-- Node10&#45;&gt;Node11 -->
<g id="edge10_Node000010_Node000011" class="edge">
<title>Node10&#45;&gt;Node11</title>
<g id="a_edge10_Node000010_Node000011"><a xlink:title=" ">
<path fill="none" stroke="#63b8ff" d="M216.47,-332.5C208.03,-332.5 199.53,-332.5 191.16,-332.5"/>
<polygon fill="#63b8ff" stroke="#63b8ff" points="216.73,-336 226.73,-332.5 216.73,-329 216.73,-336"/>
</a>
</g>
</g>
<!-- Node14 -->
<g id="Node000014" class="node">
<title>Node14</title>
<g id="a_Node000014"><a xlink:href="namespacewmtk_1_1dart_1_1utils.html#a0852f8bf4073cbed6d81504c509bddd8" target="_top" xlink:title=" ">
<polygon fill="white" stroke="#666666" points="609,-175.5 454,-175.5 454,-145.5 609,-145.5 609,-175.5"/>
<text text-anchor="start" x="462" y="-163.5" font-family="Helvetica,sans-Serif" font-size="10.00">wmtk::dart::utils::</text>
<text text-anchor="middle" x="531.5" y="-152.5" font-family="Helvetica,sans-Serif" font-size="10.00">largest_shared_subdart_size</text>
</a>
</g>
</g>
<!-- Node13&#45;&gt;Node14 -->
<g id="edge13_Node000013_Node000014" class="edge">
<title>Node13&#45;&gt;Node14</title>
<g id="a_edge13_Node000013_Node000014"><a xlink:title=" ">
<path fill="none" stroke="#63b8ff" d="M634.59,-160.5C626.1,-160.5 617.47,-160.5 609.02,-160.5"/>
<polygon fill="#63b8ff" stroke="#63b8ff" points="634.86,-164 644.86,-160.5 634.86,-157 634.86,-164"/>
</a>
</g>
</g>
<!-- Node20 -->
<g id="Node000020" class="node">
<title>Node20</title>
<g id="a_Node000020"><a xlink:href="namespacewmtk_1_1dart_1_1utils.html#aea607b900d784924cdb5c8255df6f9d4" target="_top" xlink:title=" ">
<polygon fill="white" stroke="#666666" points="600,-84 463,-84 463,-43 600,-43 600,-84"/>
<text text-anchor="start" x="471" y="-72" font-family="Helvetica,sans-Serif" font-size="10.00">wmtk::dart::utils::</text>
<text text-anchor="start" x="471" y="-61" font-family="Helvetica,sans-Serif" font-size="10.00">subdart_maximal_action</text>
<text text-anchor="middle" x="531.5" y="-50" font-family="Helvetica,sans-Serif" font-size="10.00">_to_face_size</text>
</a>
</g>
</g>
<!-- Node13&#45;&gt;Node20 -->
<g id="edge21_Node000013_Node000020" class="edge">
<title>Node13&#45;&gt;Node20</title>
<g id="a_edge21_Node000013_Node000020"><a xlink:title=" ">
<path fill="none" stroke="#63b8ff" d="M666.54,-135.14C636.75,-119.22 598.84,-98.95 570.94,-84.04"/>
<polygon fill="#63b8ff" stroke="#63b8ff" points="665.04,-138.3 675.51,-139.93 668.34,-132.13 665.04,-138.3"/>
</a>
</g>
</g>
<!-- Node14&#45;&gt;Node8 -->
<g id="edge14_Node000014_Node000008" class="edge">
<title>Node14&#45;&gt;Node8</title>
<g id="a_edge14_Node000014_Node000008"><a xlink:title=" ">
<path fill="none" stroke="#63b8ff" d="M506.46,-182.33C484.73,-201.09 451.15,-227.68 418,-244.5 412.03,-247.53 405.69,-250.31 399.22,-252.84"/>
<polygon fill="#63b8ff" stroke="#63b8ff" points="508.97,-184.79 514.19,-175.57 504.36,-179.53 508.97,-184.79"/>
</a>
</g>
</g>
<!-- Node15 -->
<g id="Node000015" class="node">
<title>Node15</title>
<g id="a_Node000015"><a xlink:href="namespacewmtk_1_1dart_1_1utils.html#a202dfb2ce4b37360a952be27e23e6ebc" target="_top" xlink:title=" ">
<polygon fill="white" stroke="#666666" points="400,-175.5 245,-175.5 245,-145.5 400,-145.5 400,-175.5"/>
<text text-anchor="start" x="253" y="-163.5" font-family="Helvetica,sans-Serif" font-size="10.00">wmtk::dart::utils::</text>
<text text-anchor="middle" x="322.5" y="-152.5" font-family="Helvetica,sans-Serif" font-size="10.00">largest_shared_subdart_size</text>
</a>
</g>
</g>
<!-- Node14&#45;&gt;Node15 -->
<g id="edge15_Node000014_Node000015" class="edge">
<title>Node14&#45;&gt;Node15</title>
<g id="a_edge15_Node000014_Node000015"><a xlink:title=" ">
<path fill="none" stroke="#63b8ff" d="M443.36,-160.5C429.01,-160.5 414.23,-160.5 400.16,-160.5"/>
<polygon fill="#63b8ff" stroke="#63b8ff" points="443.72,-164 453.72,-160.5 443.71,-157 443.72,-164"/>
</a>
</g>
</g>
<!-- Node16 -->
<g id="Node000016" class="node">
<title>Node16</title>
<g id="a_Node000016"><a xlink:href="namespacewmtk_1_1operations_1_1internal.html#ae4e4f6841986a64255466c9baedab476" target="_top" xlink:title=" ">
<polygon fill="white" stroke="#666666" points="395.5,-127.5 249.5,-127.5 249.5,-97.5 395.5,-97.5 395.5,-127.5"/>
<text text-anchor="start" x="257.5" y="-115.5" font-family="Helvetica,sans-Serif" font-size="10.00">wmtk::operations::internal</text>
<text text-anchor="middle" x="322.5" y="-104.5" font-family="Helvetica,sans-Serif" font-size="10.00">::largest_subdarts</text>
</a>
</g>
</g>
<!-- Node14&#45;&gt;Node16 -->
<g id="edge16_Node000014_Node000016" class="edge">
<title>Node14&#45;&gt;Node16</title>
<g id="a_edge16_Node000014_Node000016"><a xlink:title=" ">
<path fill="none" stroke="#63b8ff" d="M455.58,-143.13C433.51,-138.01 409.57,-132.46 388.2,-127.5"/>
<polygon fill="#63b8ff" stroke="#63b8ff" points="455.04,-146.59 465.57,-145.44 456.62,-139.78 455.04,-146.59"/>
</a>
</g>
</g>
<!-- Node18 -->
<g id="Node000018" class="node">
<title>Node18</title>
<g id="a_Node000018"><a xlink:href="classwmtk_1_1operations_1_1internal_1_1_collapse_alternate_facet_option_data.html#a19748ca21d00db56a4ac77999ddacff6" target="_top" xlink:title=" ">
<polygon fill="white" stroke="#666666" points="191,-90 0,-90 0,-49 191,-49 191,-90"/>
<text text-anchor="start" x="8" y="-78" font-family="Helvetica,sans-Serif" font-size="10.00">wmtk::operations::internal</text>
<text text-anchor="start" x="8" y="-67" font-family="Helvetica,sans-Serif" font-size="10.00">::CollapseAlternateFacetOptionData</text>
<text text-anchor="middle" x="95.5" y="-56" font-family="Helvetica,sans-Serif" font-size="10.00">::map_permutation_to_alt</text>
</a>
</g>
</g>
<!-- Node14&#45;&gt;Node18 -->
<g id="edge19_Node000014_Node000018" class="edge">
<title>Node14&#45;&gt;Node18</title>
<g id="a_edge19_Node000014_Node000018"><a xlink:title=" ">
<path fill="none" stroke="#63b8ff" d="M505.28,-138.94C483.67,-121.88 450.9,-99.19 418,-88.5 344.48,-64.61 256.61,-60.98 191.32,-62.7"/>
<polygon fill="#63b8ff" stroke="#63b8ff" points="503.29,-141.84 513.27,-145.4 507.69,-136.39 503.29,-141.84"/>
</a>
</g>
</g>
<!-- Node19 -->
<g id="Node000019" class="node">
<title>Node19</title>
<g id="a_Node000019"><a xlink:href="classwmtk_1_1operations_1_1internal_1_1_split_alternate_facet_option_data.html#a1bacc4257281291f6563a7f8ef6d3669" target="_top" xlink:title=" ">
<polygon fill="white" stroke="#666666" points="407.5,-235 237.5,-235 237.5,-194 407.5,-194 407.5,-235"/>
<text text-anchor="start" x="245.5" y="-223" font-family="Helvetica,sans-Serif" font-size="10.00">wmtk::operations::internal</text>
<text text-anchor="start" x="245.5" y="-212" font-family="Helvetica,sans-Serif" font-size="10.00">::SplitAlternateFacetOptionData</text>
<text text-anchor="middle" x="322.5" y="-201" font-family="Helvetica,sans-Serif" font-size="10.00">::new_gid</text>
</a>
</g>
</g>
<!-- Node14&#45;&gt;Node19 -->
<g id="edge20_Node000014_Node000019" class="edge">
<title>Node14&#45;&gt;Node19</title>
<g id="a_edge20_Node000014_Node000019"><a xlink:title=" ">
<path fill="none" stroke="#63b8ff" d="M463.15,-178.07C443.67,-183.15 422.23,-188.74 402.12,-193.99"/>
<polygon fill="#63b8ff" stroke="#63b8ff" points="464.05,-181.45 472.84,-175.54 462.28,-174.68 464.05,-181.45"/>
</a>
</g>
</g>
<!-- Node17 -->
<g id="Node000017" class="node">
<title>Node17</title>
<g id="a_Node000017"><a xlink:href="classwmtk_1_1operations_1_1internal_1_1_collapse_alternate_facet_option_data.html#a52fca1c1eb6d82c0475f324afac2601d" target="_top" xlink:title=" ">
<polygon fill="white" stroke="#666666" points="191,-149 0,-149 0,-108 191,-108 191,-149"/>
<text text-anchor="start" x="8" y="-137" font-family="Helvetica,sans-Serif" font-size="10.00">wmtk::operations::internal</text>
<text text-anchor="start" x="8" y="-126" font-family="Helvetica,sans-Serif" font-size="10.00">::CollapseAlternateFacetOptionData</text>
<text text-anchor="middle" x="95.5" y="-115" font-family="Helvetica,sans-Serif" font-size="10.00">::best_alt</text>
</a>
</g>
</g>
<!-- Node16&#45;&gt;Node17 -->
<g id="edge17_Node000016_Node000017" class="edge">
<title>Node16&#45;&gt;Node17</title>
<g id="a_edge17_Node000016_Node000017"><a xlink:title=" ">
<path fill="none" stroke="#63b8ff" d="M239.25,-118.35C223.64,-119.46 207.18,-120.63 191.22,-121.76"/>
<polygon fill="#63b8ff" stroke="#63b8ff" points="239.65,-121.83 249.38,-117.63 239.16,-114.85 239.65,-121.83"/>
</a>
</g>
</g>
<!-- Node16&#45;&gt;Node18 -->
<g id="edge18_Node000016_Node000018" class="edge">
<title>Node16&#45;&gt;Node18</title>
<g id="a_edge18_Node000016_Node000018"><a xlink:title=" ">
<path fill="none" stroke="#63b8ff" d="M239.25,-96.78C223.64,-93.8 207.18,-90.65 191.22,-87.6"/>
<polygon fill="#63b8ff" stroke="#63b8ff" points="238.9,-100.28 249.38,-98.72 240.21,-93.4 238.9,-100.28"/>
</a>
</g>
</g>
<!-- Node21 -->
<g id="Node000021" class="node">
<title>Node21</title>
<g id="a_Node000021"><a xlink:href="namespacewmtk_1_1dart_1_1utils.html#a440fcba9a4aa845f0032260625f6ae42" target="_top" xlink:title=" ">
<polygon fill="white" stroke="#666666" points="391,-41 254,-41 254,0 391,0 391,-41"/>
<text text-anchor="start" x="262" y="-29" font-family="Helvetica,sans-Serif" font-size="10.00">wmtk::dart::utils::</text>
<text text-anchor="start" x="262" y="-18" font-family="Helvetica,sans-Serif" font-size="10.00">subdart_maximal_action</text>
<text text-anchor="middle" x="322.5" y="-7" font-family="Helvetica,sans-Serif" font-size="10.00">_to_face_size</text>
</a>
</g>
</g>
<!-- Node20&#45;&gt;Node21 -->
<g id="edge22_Node000020_Node000021" class="edge">
<title>Node20&#45;&gt;Node21</title>
<g id="a_edge22_Node000020_Node000021"><a xlink:title=" ">
<path fill="none" stroke="#63b8ff" d="M452.88,-47.38C432.56,-43.16 410.82,-38.64 391.08,-34.54"/>
<polygon fill="#63b8ff" stroke="#63b8ff" points="452.22,-50.81 462.72,-49.42 453.64,-43.96 452.22,-50.81"/>
</a>
</g>
</g>
</g>
</svg>
