<?xml version="1.0" encoding="UTF-8" standalone="no"?>
<!DOCTYPE svg PUBLIC "-//W3C//DTD SVG 1.1//EN"
 "http://www.w3.org/Graphics/SVG/1.1/DTD/svg11.dtd">
<!-- Generated by graphviz version 2.43.0 (0)
 -->
<!-- Title: wmtk::autogen::edge_mesh::identity Pages: 1 -->
<!--zoomable 274 -->

<svg id="main" version="1.1" xmlns="http://www.w3.org/2000/svg" xmlns:xlink="http://www.w3.org/1999/xlink" xml:space="preserve" onload="init(evt)">
<style type="text/css"><![CDATA[
.node, .edge {opacity: 0.7;}
.node.selected, .edge.selected {opacity: 1;}
.edge:hover path { stroke: red; }
.edge:hover polygon { stroke: red; fill: red; }
]]></style>

<defs>
  <circle id="rim" cx="0" cy="0" r="7"/>
  <circle id="rim2" cx="0" cy="0" r="3.5"/>
  <g id="zoomPlus">
    <use xlink:href="#rim" fill="#404040"><set attributeName="fill" to="#808080" begin="zoomplus.mouseover" end="zoomplus.mouseout"/></use>
    <path d="M-4,0h8M0,-4v8" fill="none" stroke="white" stroke-width="1.5" pointer-events="none"/>
  </g>
  <g id="zoomMin">
    <use xlink:href="#rim" fill="#404040"><set attributeName="fill" to="#808080" begin="zoomminus.mouseover" end="zoomminus.mouseout"/></use>
    <path d="M-4,0h8" fill="none" stroke="white" stroke-width="1.5" pointer-events="none"/>
  </g>
  <g id="arrowUp" transform="translate(30 24)">
    <use xlink:href="#rim"/>
    <path pointer-events="none" fill="none" stroke="white" stroke-width="1.5" d="M0,-3.0v7 M-2.5,-0.5L0,-3.0L2.5,-0.5"/>
  </g>
  <g id="arrowRight" transform="rotate(90) translate(36 -43)">
    <use xlink:href="#rim"/>
    <path pointer-events="none" fill="none" stroke="white" stroke-width="1.5" d="M0,-3.0v7 M-2.5,-0.5L0,-3.0L2.5,-0.5"/>
  </g>
  <g id="arrowDown" transform="rotate(180) translate(-30 -48)">
    <use xlink:href="#rim"/>
    <path pointer-events="none" fill="none" stroke="white" stroke-width="1.5" d="M0,-3.0v7 M-2.5,-0.5L0,-3.0L2.5,-0.5"/>
  </g>
  <g id="arrowLeft" transform="rotate(270) translate(-36 17)">
    <use xlink:href="#rim"/>
    <path pointer-events="none" fill="none" stroke="white" stroke-width="1.5" d="M0,-3.0v7 M-2.5,-0.5L0,-3.0L2.5,-0.5"/>
  </g>
  <g id="resetDef">
    <use xlink:href="#rim2" fill="#404040"><set attributeName="fill" to="#808080" begin="reset.mouseover" end="reset.mouseout"/></use>
  </g>
</defs>
<script type="application/ecmascript">
var viewWidth = 931;
var viewHeight = 274;
var sectionId = 'dynsection-2';
</script>
<script type="application/ecmascript" xlink:href="svg.min.js"/>
<svg id="graph" class="graph">
<g id="viewport">
<title>wmtk::autogen::edge_mesh::identity</title>
<!-- Node1 -->
<g id="Node000001" class="node">
<title>Node1</title>
<g id="a_Node000001"><a xlink:title=" ">
<polygon fill="#999999" stroke="#666666" points="923,-201.5 803,-201.5 803,-171.5 923,-171.5 923,-201.5"/>
<text text-anchor="start" x="811" y="-189.5" font-family="Helvetica,sans-Serif" font-size="10.00">wmtk::autogen::edge</text>
<text text-anchor="middle" x="863" y="-178.5" font-family="Helvetica,sans-Serif" font-size="10.00">_mesh::identity</text>
</a>
</g>
</g>
<!-- Node2 -->
<g id="Node000002" class="node">
<title>Node2</title>
<g id="a_Node000002"><a xlink:href="classwmtk_1_1autogen_1_1edge__mesh_1_1_simplex_dart.html#a6696762d8bc7fe997fa26f2358d19e19" target="_top" xlink:title=" ">
<polygon fill="white" stroke="#666666" points="758,-266 636,-266 636,-225 758,-225 758,-266"/>
<text text-anchor="start" x="644" y="-254" font-family="Helvetica,sans-Serif" font-size="10.00">wmtk::autogen::edge</text>
<text text-anchor="start" x="644" y="-243" font-family="Helvetica,sans-Serif" font-size="10.00">_mesh::SimplexDart::</text>
<text text-anchor="middle" x="697" y="-232" font-family="Helvetica,sans-Serif" font-size="10.00">identity</text>
</a>
</g>
</g>
<!-- Node1&#45;&gt;Node2 -->
<g id="edge1_Node000001_Node000002" class="edge">
<title>Node1&#45;&gt;Node2</title>
<g id="a_edge1_Node000001_Node000002"><a xlink:title=" ">
<path fill="none" stroke="#63b8ff" d="M810.66,-204.97C793.05,-211.3 773.24,-218.43 755.2,-224.92"/>
<polygon fill="#63b8ff" stroke="#63b8ff" points="811.97,-208.22 820.19,-201.54 809.6,-201.63 811.97,-208.22"/>
</a>
</g>
</g>
<!-- Node3 -->
<g id="Node000003" class="node">
<title>Node3</title>
<g id="a_Node000003"><a xlink:href="namespacewmtk_1_1autogen_1_1edge__mesh.html#a58b7c9f5f1fc673713b8292fc0a5f1bb" target="_top" xlink:title="Returns a dart action that maximizes the number of sub&#45;darts preserved.">
<polygon fill="white" stroke="#666666" points="767,-207 627,-207 627,-166 767,-166 767,-207"/>
<text text-anchor="start" x="635" y="-195" font-family="Helvetica,sans-Serif" font-size="10.00">wmtk::autogen::edge</text>
<text text-anchor="start" x="635" y="-184" font-family="Helvetica,sans-Serif" font-size="10.00">_mesh::subdart_maximal</text>
<text text-anchor="middle" x="697" y="-173" font-family="Helvetica,sans-Serif" font-size="10.00">_action_to_face</text>
</a>
</g>
</g>
<!-- Node1&#45;&gt;Node3 -->
<g id="edge2_Node000001_Node000003" class="edge">
<title>Node1&#45;&gt;Node3</title>
<g id="a_edge2_Node000001_Node000003"><a xlink:title=" ">
<path fill="none" stroke="#63b8ff" d="M792.63,-186.5C784.2,-186.5 775.59,-186.5 767.16,-186.5"/>
<polygon fill="#63b8ff" stroke="#63b8ff" points="792.79,-190 802.79,-186.5 792.79,-183 792.79,-190"/>
</a>
</g>
</g>
<!-- Node6 -->
<g id="Node000006" class="node">
<title>Node6</title>
<g id="a_Node000006"><a xlink:href="namespacewmtk_1_1autogen_1_1edge__mesh.html#a81c9035b863ca51c932ccf9a4f604ae7" target="_top" xlink:title=" ">
<polygon fill="white" stroke="#666666" points="767,-133 627,-133 627,-92 767,-92 767,-133"/>
<text text-anchor="start" x="635" y="-121" font-family="Helvetica,sans-Serif" font-size="10.00">wmtk::autogen::edge</text>
<text text-anchor="start" x="635" y="-110" font-family="Helvetica,sans-Serif" font-size="10.00">_mesh::subdart_maximal</text>
<text text-anchor="middle" x="697" y="-99" font-family="Helvetica,sans-Serif" font-size="10.00">_action_to_face_action</text>
</a>
</g>
</g>
<!-- Node1&#45;&gt;Node6 -->
<g id="edge5_Node000001_Node000006" class="edge">
<title>Node1&#45;&gt;Node6</title>
<g id="a_edge5_Node000001_Node000006"><a xlink:title=" ">
<path fill="none" stroke="#63b8ff" d="M819.16,-167.17C795.96,-156.7 767.29,-143.77 743.66,-133.1"/>
<polygon fill="#63b8ff" stroke="#63b8ff" points="817.86,-170.42 828.42,-171.35 820.74,-164.04 817.86,-170.42"/>
</a>
</g>
</g>
<!-- Node4 -->
<g id="Node000004" class="node">
<title>Node4</title>
<g id="a_Node000004"><a xlink:href="namespacewmtk_1_1dart_1_1utils.html#aa2d7fe3ddb37a5d335283255a6eaaad7" target="_top" xlink:title=" ">
<polygon fill="white" stroke="#666666" points="591,-214 454,-214 454,-173 591,-173 591,-214"/>
<text text-anchor="start" x="462" y="-202" font-family="Helvetica,sans-Serif" font-size="10.00">wmtk::dart::utils::</text>
<text text-anchor="start" x="462" y="-191" font-family="Helvetica,sans-Serif" font-size="10.00">subdart_maximal_action</text>
<text text-anchor="middle" x="522.5" y="-180" font-family="Helvetica,sans-Serif" font-size="10.00">_to_face</text>
</a>
</g>
</g>
<!-- Node3&#45;&gt;Node4 -->
<g id="edge3_Node000003_Node000004" class="edge">
<title>Node3&#45;&gt;Node4</title>
<g id="a_edge3_Node000003_Node000004"><a xlink:title=" ">
<path fill="none" stroke="#63b8ff" d="M616.58,-189.72C608.13,-190.07 599.58,-190.41 591.28,-190.75"/>
<polygon fill="#63b8ff" stroke="#63b8ff" points="616.98,-193.21 626.83,-189.31 616.7,-186.22 616.98,-193.21"/>
</a>
</g>
</g>
<!-- Node5 -->
<g id="Node000005" class="node">
<title>Node5</title>
<g id="a_Node000005"><a xlink:href="namespacewmtk_1_1dart_1_1utils.html#a0ba23d42a8a8025c7686ade8ecc8b738" target="_top" xlink:title=" ">
<polygon fill="white" stroke="#666666" points="391,-218 254,-218 254,-177 391,-177 391,-218"/>
<text text-anchor="start" x="262" y="-206" font-family="Helvetica,sans-Serif" font-size="10.00">wmtk::dart::utils::</text>
<text text-anchor="start" x="262" y="-195" font-family="Helvetica,sans-Serif" font-size="10.00">subdart_maximal_action</text>
<text text-anchor="middle" x="322.5" y="-184" font-family="Helvetica,sans-Serif" font-size="10.00">_to_face</text>
</a>
</g>
</g>
<!-- Node4&#45;&gt;Node5 -->
<g id="edge4_Node000004_Node000005" class="edge">
<title>Node4&#45;&gt;Node5</title>
<g id="a_edge4_Node000004_Node000005"><a xlink:title=" ">
<path fill="none" stroke="#63b8ff" d="M443.79,-195.07C426.39,-195.42 408.07,-195.79 391.12,-196.13"/>
<polygon fill="#63b8ff" stroke="#63b8ff" points="443.99,-198.57 453.91,-194.87 443.84,-191.57 443.99,-198.57"/>
</a>
</g>
</g>
<!-- Node7 -->
<g id="Node000007" class="node">
<title>Node7</title>
<g id="a_Node000007"><a xlink:href="namespacewmtk_1_1dart_1_1utils.html#aea7718d61fd980c8d233ab68cb1d072c" target="_top" xlink:title=" ">
<polygon fill="white" stroke="#666666" points="591,-104 454,-104 454,-63 591,-63 591,-104"/>
<text text-anchor="start" x="462" y="-92" font-family="Helvetica,sans-Serif" font-size="10.00">wmtk::dart::utils::</text>
<text text-anchor="start" x="462" y="-81" font-family="Helvetica,sans-Serif" font-size="10.00">subdart_maximal_action</text>
<text text-anchor="middle" x="522.5" y="-70" font-family="Helvetica,sans-Serif" font-size="10.00">_to_face_action</text>
</a>
</g>
</g>
<!-- Node6&#45;&gt;Node7 -->
<g id="edge6_Node000006_Node000007" class="edge">
<title>Node6&#45;&gt;Node7</title>
<g id="a_edge6_Node000006_Node000007"><a xlink:title=" ">
<path fill="none" stroke="#63b8ff" d="M616.86,-99.2C608.32,-97.76 599.68,-96.31 591.28,-94.89"/>
<polygon fill="#63b8ff" stroke="#63b8ff" points="616.39,-102.67 626.83,-100.87 617.55,-95.76 616.39,-102.67"/>
</a>
</g>
</g>
<!-- Node8 -->
<g id="Node000008" class="node">
<title>Node8</title>
<g id="a_Node000008"><a xlink:href="classwmtk_1_1operations_1_1internal_1_1_collapse_alternate_facet_data.html#ad5d625ffe8c3c7b0e62c77cd2332f053" target="_top" xlink:title=" ">
<polygon fill="white" stroke="#666666" points="401.5,-159 243.5,-159 243.5,-118 401.5,-118 401.5,-159"/>
<text text-anchor="start" x="251.5" y="-147" font-family="Helvetica,sans-Serif" font-size="10.00">wmtk::operations::internal</text>
<text text-anchor="start" x="251.5" y="-136" font-family="Helvetica,sans-Serif" font-size="10.00">::CollapseAlternateFacetData</text>
<text text-anchor="middle" x="322.5" y="-125" font-family="Helvetica,sans-Serif" font-size="10.00">::get_alternatives</text>
</a>
</g>
</g>
<!-- Node7&#45;&gt;Node8 -->
<g id="edge7_Node000007_Node000008" class="edge">
<title>Node7&#45;&gt;Node8</title>
<g id="a_edge7_Node000007_Node000008"><a xlink:title=" ">
<path fill="none" stroke="#63b8ff" d="M443.99,-105.03C428.72,-109.27 412.72,-113.72 397.56,-117.93"/>
<polygon fill="#63b8ff" stroke="#63b8ff" points="445.22,-108.32 453.91,-102.27 443.34,-101.58 445.22,-108.32"/>
</a>
</g>
</g>
<!-- Node10 -->
<g id="Node000010" class="node">
<title>Node10</title>
<g id="a_Node000010"><a xlink:href="classwmtk_1_1operations_1_1internal_1_1_collapse_alternate_facet_option_data.html#ac262da3be4dbf20b98d5d22f5210bfb6" target="_top" xlink:title=" ">
<polygon fill="white" stroke="#666666" points="418,-100 227,-100 227,-59 418,-59 418,-100"/>
<text text-anchor="start" x="235" y="-88" font-family="Helvetica,sans-Serif" font-size="10.00">wmtk::operations::internal</text>
<text text-anchor="start" x="235" y="-77" font-family="Helvetica,sans-Serif" font-size="10.00">::CollapseAlternateFacetOptionData</text>
<text text-anchor="middle" x="322.5" y="-66" font-family="Helvetica,sans-Serif" font-size="10.00">::map_permutation_to_alt</text>
</a>
</g>
</g>
<!-- Node7&#45;&gt;Node10 -->
<g id="edge9_Node000007_Node000010" class="edge">
<title>Node7&#45;&gt;Node10</title>
<g id="a_edge9_Node000007_Node000010"><a xlink:title=" ">
<path fill="none" stroke="#63b8ff" d="M443.77,-81.93C435.34,-81.76 426.71,-81.58 418.11,-81.41"/>
<polygon fill="#63b8ff" stroke="#63b8ff" points="443.84,-85.43 453.91,-82.13 443.99,-78.43 443.84,-85.43"/>
</a>
</g>
</g>
<!-- Node12 -->
<g id="Node000012" class="node">
<title>Node12</title>
<g id="a_Node000012"><a xlink:href="namespacewmtk_1_1dart_1_1utils.html#a64455ce8f02f751ca88e81bf5c326c9b" target="_top" xlink:title=" ">
<polygon fill="white" stroke="#666666" points="391,-41 254,-41 254,0 391,0 391,-41"/>
<text text-anchor="start" x="262" y="-29" font-family="Helvetica,sans-Serif" font-size="10.00">wmtk::dart::utils::</text>
<text text-anchor="start" x="262" y="-18" font-family="Helvetica,sans-Serif" font-size="10.00">subdart_maximal_action</text>
<text text-anchor="middle" x="322.5" y="-7" font-family="Helvetica,sans-Serif" font-size="10.00">_to_face_action</text>
</a>
</g>
</g>
<!-- Node7&#45;&gt;Node12 -->
<g id="edge11_Node000007_Node000012" class="edge">
<title>Node7&#45;&gt;Node12</title>
<g id="a_edge11_Node000007_Node000012"><a xlink:title=" ">
<path fill="none" stroke="#63b8ff" d="M447.37,-59.85C437.5,-56.71 427.5,-53.52 418,-50.5 408.4,-47.45 398.26,-44.22 388.32,-41.07"/>
<polygon fill="#63b8ff" stroke="#63b8ff" points="446.59,-63.28 457.18,-62.98 448.72,-56.61 446.59,-63.28"/>
</a>
</g>
</g>
<!-- Node9 -->
<g id="Node000009" class="node">
<title>Node9</title>
<g id="a_Node000009"><a xlink:href="classwmtk_1_1operations_1_1internal_1_1_collapse_alternate_facet_data.html#aec408f6fcc5cb735d8761af17631bff9" target="_top" xlink:title=" ">
<polygon fill="white" stroke="#666666" points="174.5,-159 16.5,-159 16.5,-118 174.5,-118 174.5,-159"/>
<text text-anchor="start" x="24.5" y="-147" font-family="Helvetica,sans-Serif" font-size="10.00">wmtk::operations::internal</text>
<text text-anchor="start" x="24.5" y="-136" font-family="Helvetica,sans-Serif" font-size="10.00">::CollapseAlternateFacetData</text>
<text text-anchor="middle" x="95.5" y="-125" font-family="Helvetica,sans-Serif" font-size="10.00">::get_alternative</text>
</a>
</g>
</g>
<!-- Node8&#45;&gt;Node9 -->
<g id="edge8_Node000008_Node000009" class="edge">
<title>Node8&#45;&gt;Node9</title>
<g id="a_edge8_Node000008_Node000009"><a xlink:title=" ">
<path fill="none" stroke="#63b8ff" d="M233.43,-138.5C214.09,-138.5 193.73,-138.5 174.81,-138.5"/>
<polygon fill="#63b8ff" stroke="#63b8ff" points="233.44,-142 243.44,-138.5 233.44,-135 233.44,-142"/>
</a>
</g>
</g>
<!-- Node11 -->
<g id="Node000011" class="node">
<title>Node11</title>
<g id="a_Node000011"><a xlink:href="classwmtk_1_1operations_1_1internal_1_1_collapse_alternate_facet_option_data.html#a2564580a95b48a8a56b05e9c59e5c495" target="_top" xlink:title=" ">
<polygon fill="white" stroke="#666666" points="191,-100 0,-100 0,-59 191,-59 191,-100"/>
<text text-anchor="start" x="8" y="-88" font-family="Helvetica,sans-Serif" font-size="10.00">wmtk::operations::internal</text>
<text text-anchor="start" x="8" y="-77" font-family="Helvetica,sans-Serif" font-size="10.00">::CollapseAlternateFacetOptionData</text>
<text text-anchor="middle" x="95.5" y="-66" font-family="Helvetica,sans-Serif" font-size="10.00">::map_dart_to_alt</text>
</a>
</g>
</g>
<!-- Node10&#45;&gt;Node11 -->
<g id="edge10_Node000010_Node000011" class="edge">
<title>Node10&#45;&gt;Node11</title>
<g id="a_edge10_Node000010_Node000011"><a xlink:title=" ">
<path fill="none" stroke="#63b8ff" d="M216.47,-79.5C208.03,-79.5 199.53,-79.5 191.16,-79.5"/>
<polygon fill="#63b8ff" stroke="#63b8ff" points="216.73,-83 226.73,-79.5 216.73,-76 216.73,-83"/>
</a>
</g>
</g>
</g>
</svg>

<g id="navigator" transform="translate(0 0)" fill="#404254">
  <rect fill="#f2f5e9" fill-opacity="0.5" stroke="#606060" stroke-width=".5" x="0" y="0" width="60" height="60"/>
  <use id="zoomplus" xlink:href="#zoomPlus" x="17" y="9" onmousedown="handleZoom(evt,'in')"/>
  <use id="zoomminus" xlink:href="#zoomMin" x="42" y="9" onmousedown="handleZoom(evt,'out')"/>
  <use id="reset" xlink:href="#resetDef" x="30" y="36" onmousedown="handleReset()"/>
   <use id="arrowup" xlink:href="#arrowUp" x="0" y="0" onmousedown="handlePan(0,-1)"/>
  <use id="arrowright" xlink:href="#arrowRight" x="0" y="0" onmousedown="handlePan(1,0)"/>
  <use id="arrowdown" xlink:href="#arrowDown" x="0" y="0" onmousedown="handlePan(0,1)"/>
  <use id="arrowleft" xlink:href="#arrowLeft" x="0" y="0" onmousedown="handlePan(-1,0)"/>
</g>
<svg viewBox="0 0 15 15" width="100%" height="30px" preserveAspectRatio="xMaxYMin meet">
 <g id="arrow_out" transform="scale(0.3 0.3)">
  <a xlink:href="namespacewmtk_1_1autogen_1_1edge__mesh_a91a1a62b30152d9cb73aafac5c7fdb58_icgraph_org.svg" target="_base">
   <rect id="button" ry="5" rx="5" y="6" x="6" height="38" width="38"
        fill="#f2f5e9" fill-opacity="0.5" stroke="#606060" stroke-width="1.0"/>
   <path id="arrow"
     d="M 11.500037,31.436501 C 11.940474,20.09759 22.043105,11.32322 32.158766,21.979434 L 37.068811,17.246167 C 37.068811,17.246167 37.088388,32 37.088388,32 L 22.160133,31.978069 C 22.160133,31.978069 26.997745,27.140456 26.997745,27.140456 C 18.528582,18.264221 13.291696,25.230495 11.500037,31.436501 z"
     style="fill:#404040;"/>
  </a>
 </g>
</svg>

<style type='text/css'>
<![CDATA[
[data-mouse-over-selected='false'] { opacity: 0.7; }
[data-mouse-over-selected='true']  { opacity: 1.0; }
]]>
</style>
<script type="application/ecmascript"><![CDATA[
document.addEventListener('DOMContentLoaded', (event) => {
  highlightEdges();
  highlightAdjacentNodes();
});
]]></script>
</svg>
