<?xml version="1.0" encoding="UTF-8" standalone="no"?>
<!DOCTYPE svg PUBLIC "-//W3C//DTD SVG 1.1//EN"
 "http://www.w3.org/Graphics/SVG/1.1/DTD/svg11.dtd">
<!-- Generated by graphviz version 2.43.0 (0)
 -->
<!-- Title: wmtk::dart::find_local_dart_action Pages: 1 -->
<svg width="468pt" height="105pt"
 viewBox="0.00 0.00 468.00 105.00" xmlns="http://www.w3.org/2000/svg" xmlns:xlink="http://www.w3.org/1999/xlink">

<svg id="main" version="1.1" xmlns="http://www.w3.org/2000/svg" xmlns:xlink="http://www.w3.org/1999/xlink" xml:space="preserve" onload="init(evt)">
<style type="text/css"><![CDATA[
.node, .edge {opacity: 0.7;}
.node.selected, .edge.selected {opacity: 1;}
.edge:hover path { stroke: red; }
.edge:hover polygon { stroke: red; fill: red; }
]]></style>
<script type="application/ecmascript" xlink:href="svg.min.js"/>
<svg id="graph" class="graph">
<g id="graph0" class="graph" transform="scale(1 1) rotate(0) translate(4 101)">
<title>wmtk::dart::find_local_dart_action</title>
<!-- Node1 -->
<g id="Node000001" class="node">
<title>Node1</title>
<g id="a_Node000001"><a xlink:title=" ">
<polygon fill="#999999" stroke="#666666" points="122,-51 0,-51 0,-21 122,-21 122,-51"/>
<text text-anchor="start" x="8" y="-39" font-family="Helvetica,sans-Serif" font-size="10.00">wmtk::dart::find_local</text>
<text text-anchor="middle" x="61" y="-28" font-family="Helvetica,sans-Serif" font-size="10.00">_dart_action</text>
</a>
</g>
</g>
<!-- Node2 -->
<g id="Node000002" class="node">
<title>Node2</title>
<g id="a_Node000002"><a xlink:href="classwmtk_1_1dart_1_1_simplex_dart.html#a7b929a30594f63ccf71d51b167d4de23" target="_top" xlink:title=" ">
<polygon fill="white" stroke="#666666" points="316,-67.5 158,-67.5 158,-48.5 316,-48.5 316,-67.5"/>
<text text-anchor="middle" x="237" y="-55.5" font-family="Helvetica,sans-Serif" font-size="10.00">wmtk::dart::SimplexDart::act</text>
</a>
</g>
</g>
<!-- Node1&#45;&gt;Node2 -->
<g id="edge1_Node000001_Node000002" class="edge">
<title>Node1&#45;&gt;Node2</title>
<g id="a_edge1_Node000001_Node000002"><a xlink:title=" ">
<path fill="none" stroke="#63b8ff" d="M122.37,-43.63C131.55,-44.79 141.16,-46.01 150.75,-47.22"/>
<polygon fill="#63b8ff" stroke="#63b8ff" points="150.35,-50.7 160.71,-48.48 151.23,-43.75 150.35,-50.7"/>
</a>
</g>
</g>
<!-- Node5 -->
<g id="Node000005" class="node">
<title>Node5</title>
<g id="a_Node000005"><a xlink:href="classwmtk_1_1dart_1_1_simplex_dart.html#a6923dbaad52cba2f744265012f9648ed" target="_top" xlink:title=" ">
<polygon fill="white" stroke="#666666" points="305.5,-30 168.5,-30 168.5,0 305.5,0 305.5,-30"/>
<text text-anchor="start" x="176.5" y="-18" font-family="Helvetica,sans-Serif" font-size="10.00">wmtk::dart::SimplexDart</text>
<text text-anchor="middle" x="237" y="-7" font-family="Helvetica,sans-Serif" font-size="10.00">::inverse</text>
</a>
</g>
</g>
<!-- Node1&#45;&gt;Node5 -->
<g id="edge5_Node000001_Node000005" class="edge">
<title>Node1&#45;&gt;Node5</title>
<g id="a_edge5_Node000001_Node000005"><a xlink:title=" ">
<path fill="none" stroke="#63b8ff" d="M122.37,-28.71C133.95,-27.32 146.22,-25.84 158.26,-24.38"/>
<polygon fill="#63b8ff" stroke="#63b8ff" points="158.79,-27.84 168.29,-23.17 157.95,-20.89 158.79,-27.84"/>
</a>
</g>
</g>
<!-- Node2&#45;&gt;Node2 -->
<g id="edge2_Node000002_Node000002" class="edge">
<title>Node2&#45;&gt;Node2</title>
<g id="a_edge2_Node000002_Node000002"><a xlink:title=" ">
<path fill="none" stroke="#63b8ff" d="M211.11,-67.58C198.51,-76.23 207.14,-85.5 237,-85.5 257.06,-85.5 267.54,-81.32 268.44,-75.95"/>
<polygon fill="#63b8ff" stroke="#63b8ff" points="271.34,-73.99 262.89,-67.58 265.5,-77.85 271.34,-73.99"/>
</a>
</g>
</g>
<!-- Node3 -->
<g id="Node000003" class="node">
<title>Node3</title>
<g id="a_Node000003"><a xlink:href="classwmtk_1_1dart_1_1___dart.html#ac92923bc94a0aace84b2cf69f277f63a" target="_top" xlink:title=" ">
<polygon fill="white" stroke="#666666" points="460,-97 352,-97 352,-67 460,-67 460,-97"/>
<text text-anchor="start" x="360" y="-85" font-family="Helvetica,sans-Serif" font-size="10.00">wmtk::dart::_Dart::</text>
<text text-anchor="middle" x="406" y="-74" font-family="Helvetica,sans-Serif" font-size="10.00">global_id</text>
</a>
</g>
</g>
<!-- Node2&#45;&gt;Node3 -->
<g id="edge3_Node000002_Node000003" class="edge">
<title>Node2&#45;&gt;Node3</title>
<g id="a_edge3_Node000002_Node000003"><a xlink:title=" ">
<path fill="none" stroke="#63b8ff" d="M304.48,-67.55C316.78,-69.32 329.58,-71.16 341.78,-72.91"/>
<polygon fill="#63b8ff" stroke="#63b8ff" points="341.45,-76.4 351.85,-74.36 342.45,-69.47 341.45,-76.4"/>
</a>
</g>
</g>
<!-- Node4 -->
<g id="Node000004" class="node">
<title>Node4</title>
<g id="a_Node000004"><a xlink:href="classwmtk_1_1dart_1_1___dart.html#aa34a01df7b33bec483a0da0158a1aca4" target="_top" xlink:title=" ">
<polygon fill="white" stroke="#666666" points="460,-49 352,-49 352,-19 460,-19 460,-49"/>
<text text-anchor="start" x="360" y="-37" font-family="Helvetica,sans-Serif" font-size="10.00">wmtk::dart::_Dart::</text>
<text text-anchor="middle" x="406" y="-26" font-family="Helvetica,sans-Serif" font-size="10.00">permutation</text>
</a>
</g>
</g>
<!-- Node2&#45;&gt;Node4 -->
<g id="edge4_Node000002_Node000004" class="edge">
<title>Node2&#45;&gt;Node4</title>
<g id="a_edge4_Node000002_Node000004"><a xlink:title=" ">
<path fill="none" stroke="#63b8ff" d="M304.48,-48.45C316.78,-46.68 329.58,-44.84 341.78,-43.09"/>
<polygon fill="#63b8ff" stroke="#63b8ff" points="342.45,-46.53 351.85,-41.64 341.45,-39.6 342.45,-46.53"/>
</a>
</g>
</g>
</g>
</svg>
</svg>

<style type='text/css'>
<![CDATA[
[data-mouse-over-selected='false'] { opacity: 0.7; }
[data-mouse-over-selected='true']  { opacity: 1.0; }
]]>
</style>
<script type="application/ecmascript"><![CDATA[
document.addEventListener('DOMContentLoaded', (event) => {
  highlightEdges();
  highlightAdjacentNodes();
});
]]></script>
</svg>
