<?xml version="1.0" encoding="UTF-8" standalone="no"?>
<!DOCTYPE svg PUBLIC "-//W3C//DTD SVG 1.1//EN"
 "http://www.w3.org/Graphics/SVG/1.1/DTD/svg11.dtd">
<!-- Generated by graphviz version 2.43.0 (0)
 -->
<!-- Title: wmtk::multimesh::utils::internal::print_all_mapped_tuples Pages: 1 -->
<svg width="500pt" height="49pt"
 viewBox="0.00 0.00 500.00 49.00" xmlns="http://www.w3.org/2000/svg" xmlns:xlink="http://www.w3.org/1999/xlink">
<g id="graph0" class="graph" transform="scale(1 1) rotate(0) translate(4 45)">
<title>wmtk::multimesh::utils::internal::print_all_mapped_tuples</title>
<!-- Node1 -->
<g id="Node000001" class="node">
<title>Node1</title>
<g id="a_Node000001"><a xlink:title=" ">
<polygon fill="#999999" stroke="#666666" points="130,-41 0,-41 0,0 130,0 130,-41"/>
<text text-anchor="start" x="8" y="-29" font-family="Helvetica,sans-Serif" font-size="10.00">wmtk::multimesh::utils</text>
<text text-anchor="start" x="8" y="-18" font-family="Helvetica,sans-Serif" font-size="10.00">::internal::print_all</text>
<text text-anchor="middle" x="65" y="-7" font-family="Helvetica,sans-Serif" font-size="10.00">_mapped_tuples</text>
</a>
</g>
</g>
<!-- Node2 -->
<g id="Node000002" class="node">
<title>Node2</title>
<g id="a_Node000002"><a xlink:href="classwmtk_1_1multimesh_1_1utils_1_1_map_validator.html#aafcc6824c46d9c94f12894c6d5b73853" target="_top" xlink:title=" ">
<polygon fill="white" stroke="#666666" points="296,-35.5 166,-35.5 166,-5.5 296,-5.5 296,-35.5"/>
<text text-anchor="start" x="174" y="-23.5" font-family="Helvetica,sans-Serif" font-size="10.00">wmtk::multimesh::utils</text>
<text text-anchor="middle" x="231" y="-12.5" font-family="Helvetica,sans-Serif" font-size="10.00">::MapValidator::print</text>
</a>
</g>
</g>
<!-- Node1&#45;&gt;Node2 -->
<g id="edge1_Node000001_Node000002" class="edge">
<title>Node1&#45;&gt;Node2</title>
<g id="a_edge1_Node000001_Node000002"><a xlink:title=" ">
<path fill="none" stroke="#63b8ff" d="M130.35,-13.89C138.64,-13.76 147.19,-13.72 155.62,-13.78"/>
<polygon fill="#63b8ff" stroke="#63b8ff" points="155.8,-17.28 165.84,-13.89 155.88,-10.28 155.8,-17.28"/>
</a>
</g>
</g>
<!-- Node2&#45;&gt;Node1 -->
<g id="edge3_Node000002_Node000001" class="edge">
<title>Node2&#45;&gt;Node1</title>
<g id="a_edge3_Node000002_Node000001"><a xlink:title=" ">
<path fill="none" stroke="#63b8ff" d="M165.84,-27.11C157.55,-27.24 149,-27.28 140.56,-27.23"/>
<polygon fill="#63b8ff" stroke="#63b8ff" points="140.39,-23.72 130.35,-27.11 140.31,-30.72 140.39,-23.72"/>
</a>
</g>
</g>
<!-- Node3 -->
<g id="Node000003" class="node">
<title>Node3</title>
<g id="a_Node000003"><a xlink:href="classwmtk_1_1multimesh_1_1_multi_mesh_manager.html#a619b19c10f9690562e3dea05591c8836" target="_top" xlink:title=" ">
<polygon fill="white" stroke="#666666" points="492,-41 332,-41 332,0 492,0 492,-41"/>
<text text-anchor="start" x="340" y="-29" font-family="Helvetica,sans-Serif" font-size="10.00">wmtk::multimesh::MultiMesh</text>
<text text-anchor="start" x="340" y="-18" font-family="Helvetica,sans-Serif" font-size="10.00">Manager::get_map_const</text>
<text text-anchor="middle" x="412" y="-7" font-family="Helvetica,sans-Serif" font-size="10.00">_accessors</text>
</a>
</g>
</g>
<!-- Node2&#45;&gt;Node3 -->
<g id="edge2_Node000002_Node000003" class="edge">
<title>Node2&#45;&gt;Node3</title>
<g id="a_edge2_Node000002_Node000003"><a xlink:title=" ">
<path fill="none" stroke="#63b8ff" d="M296.12,-20.5C304.41,-20.5 313.02,-20.5 321.63,-20.5"/>
<polygon fill="#63b8ff" stroke="#63b8ff" points="321.71,-24 331.71,-20.5 321.71,-17 321.71,-24"/>
</a>
</g>
</g>
</g>
</svg>
