<?xml version="1.0" encoding="UTF-8" standalone="no"?>
<!DOCTYPE svg PUBLIC "-//W3C//DTD SVG 1.1//EN"
 "http://www.w3.org/Graphics/SVG/1.1/DTD/svg11.dtd">
<!-- Generated by graphviz version 2.43.0 (0)
 -->
<!-- Title: wmtk::components::multimesh::utils::get_attribute Pages: 1 -->
<svg width="1036pt" height="383pt"
 viewBox="0.00 0.00 1036.00 383.00" xmlns="http://www.w3.org/2000/svg" xmlns:xlink="http://www.w3.org/1999/xlink">
<g id="graph0" class="graph" transform="scale(1 1) rotate(0) translate(4 379)">
<title>wmtk::components::multimesh::utils::get_attribute</title>
<!-- Node1 -->
<g id="Node000001" class="node">
<title>Node1</title>
<g id="a_Node000001"><a xlink:title=" ">
<polygon fill="#999999" stroke="#666666" points="1028,-185.5 859,-185.5 859,-155.5 1028,-155.5 1028,-185.5"/>
<text text-anchor="start" x="867" y="-173.5" font-family="Helvetica,sans-Serif" font-size="10.00">wmtk::components::multimesh</text>
<text text-anchor="middle" x="943.5" y="-162.5" font-family="Helvetica,sans-Serif" font-size="10.00">::utils::get_attribute</text>
</a>
</g>
</g>
<!-- Node2 -->
<g id="Node000002" class="node">
<title>Node2</title>
<g id="a_Node000002"><a xlink:href="structwmtk_1_1components_1_1isotropic__remeshing_1_1_priority_options.html#a778423abaf9ef32231e51cfcf394d186" target="_top" xlink:title=" ">
<polygon fill="white" stroke="#666666" points="790.5,-375 632.5,-375 632.5,-334 790.5,-334 790.5,-375"/>
<text text-anchor="start" x="640.5" y="-363" font-family="Helvetica,sans-Serif" font-size="10.00">wmtk::components::isotropic</text>
<text text-anchor="start" x="640.5" y="-352" font-family="Helvetica,sans-Serif" font-size="10.00">_remeshing::PriorityOptions</text>
<text text-anchor="middle" x="711.5" y="-341" font-family="Helvetica,sans-Serif" font-size="10.00">::assign_to</text>
</a>
</g>
</g>
<!-- Node1&#45;&gt;Node2 -->
<g id="edge1_Node000001_Node000002" class="edge">
<title>Node1&#45;&gt;Node2</title>
<g id="a_edge1_Node000001_Node000002"><a xlink:title=" ">
<path fill="none" stroke="#63b8ff" d="M930.3,-194.71C911.81,-228.89 873.45,-290.87 823,-324.5 813.24,-331.01 802.11,-336.11 790.76,-340.1"/>
<polygon fill="#63b8ff" stroke="#63b8ff" points="933.4,-196.33 934.98,-185.85 927.21,-193.06 933.4,-196.33"/>
</a>
</g>
</g>
<!-- Node3 -->
<g id="Node000003" class="node">
<title>Node3</title>
<g id="a_Node000003"><a xlink:href="structwmtk_1_1components_1_1mesh__info_1_1transfer_1_1_single_attribute_transfer_strategy_factory.html#ad8f92a461ac6219350959e4ec470b7fc" target="_top" xlink:title=" ">
<polygon fill="white" stroke="#666666" points="795.5,-315.5 627.5,-315.5 627.5,-263.5 795.5,-263.5 795.5,-315.5"/>
<text text-anchor="start" x="635.5" y="-303.5" font-family="Helvetica,sans-Serif" font-size="10.00">wmtk::components::mesh</text>
<text text-anchor="start" x="635.5" y="-292.5" font-family="Helvetica,sans-Serif" font-size="10.00">_info::transfer::SingleAttribute</text>
<text text-anchor="start" x="635.5" y="-281.5" font-family="Helvetica,sans-Serif" font-size="10.00">TransferStrategyFactory::create</text>
<text text-anchor="middle" x="711.5" y="-270.5" font-family="Helvetica,sans-Serif" font-size="10.00">_transfer</text>
</a>
</g>
</g>
<!-- Node1&#45;&gt;Node3 -->
<g id="edge2_Node000001_Node000003" class="edge">
<title>Node1&#45;&gt;Node3</title>
<g id="a_edge2_Node000001_Node000003"><a xlink:title=" ">
<path fill="none" stroke="#63b8ff" d="M916.6,-192.25C893.33,-210.89 857.61,-237.36 823,-254.5 814.34,-258.79 805.05,-262.69 795.66,-266.22"/>
<polygon fill="#63b8ff" stroke="#63b8ff" points="919.02,-194.79 924.58,-185.77 914.61,-189.35 919.02,-194.79"/>
</a>
</g>
</g>
<!-- Node4 -->
<g id="Node000004" class="node">
<title>Node4</title>
<g id="a_Node000004"><a xlink:href="structwmtk_1_1components_1_1isotropic__remeshing_1_1_isotropic_remeshing_options.html#a5a3a57ee3b36540f4e019c87599efd29" target="_top" xlink:title=" ">
<polygon fill="white" stroke="#666666" points="818.5,-245 604.5,-245 604.5,-204 818.5,-204 818.5,-245"/>
<text text-anchor="start" x="612.5" y="-233" font-family="Helvetica,sans-Serif" font-size="10.00">wmtk::components::isotropic</text>
<text text-anchor="start" x="612.5" y="-222" font-family="Helvetica,sans-Serif" font-size="10.00">_remeshing::IsotropicRemeshingOptions</text>
<text text-anchor="middle" x="711.5" y="-211" font-family="Helvetica,sans-Serif" font-size="10.00">::load_json</text>
</a>
</g>
</g>
<!-- Node1&#45;&gt;Node4 -->
<g id="edge3_Node000001_Node000004" class="edge">
<title>Node1&#45;&gt;Node4</title>
<g id="a_edge3_Node000001_Node000004"><a xlink:title=" ">
<path fill="none" stroke="#63b8ff" d="M868.55,-187.86C846.67,-193 822.51,-198.67 799.86,-203.99"/>
<polygon fill="#63b8ff" stroke="#63b8ff" points="869.5,-191.24 878.43,-185.54 867.9,-184.42 869.5,-191.24"/>
</a>
</g>
</g>
<!-- Node5 -->
<g id="Node000005" class="node">
<title>Node5</title>
<g id="a_Node000005"><a xlink:href="structwmtk_1_1components_1_1multimesh_1_1_multimesh_axis_aligned_fusion_options.html#a2f812d98a26c384f53bcbbe92c863bce" target="_top" xlink:title=" ">
<polygon fill="white" stroke="#666666" points="823,-185.5 600,-185.5 600,-155.5 823,-155.5 823,-185.5"/>
<text text-anchor="start" x="608" y="-173.5" font-family="Helvetica,sans-Serif" font-size="10.00">wmtk::components::multimesh</text>
<text text-anchor="middle" x="711.5" y="-162.5" font-family="Helvetica,sans-Serif" font-size="10.00">::MultimeshAxisAlignedFusionOptions::run</text>
</a>
</g>
</g>
<!-- Node1&#45;&gt;Node5 -->
<g id="edge4_Node000001_Node000005" class="edge">
<title>Node1&#45;&gt;Node5</title>
<g id="a_edge4_Node000001_Node000005"><a xlink:title=" ">
<path fill="none" stroke="#63b8ff" d="M848.69,-170.5C840.31,-170.5 831.78,-170.5 823.28,-170.5"/>
<polygon fill="#63b8ff" stroke="#63b8ff" points="848.81,-174 858.81,-170.5 848.81,-167 848.81,-174"/>
</a>
</g>
</g>
<!-- Node6 -->
<g id="Node000006" class="node">
<title>Node6</title>
<g id="a_Node000006"><a xlink:href="json_8cpp.html#a034d46582f037a382b0999522b442ca8" target="_top" xlink:title=" ">
<polygon fill="white" stroke="#666666" points="747,-137 676,-137 676,-118 747,-118 747,-137"/>
<text text-anchor="middle" x="711.5" y="-125" font-family="Helvetica,sans-Serif" font-size="10.00">TEST_CASE</text>
</a>
</g>
</g>
<!-- Node1&#45;&gt;Node6 -->
<g id="edge5_Node000001_Node000006" class="edge">
<title>Node1&#45;&gt;Node6</title>
<g id="a_edge5_Node000001_Node000006"><a xlink:title=" ">
<path fill="none" stroke="#63b8ff" d="M859.15,-153.45C847.03,-151.06 834.7,-148.68 823,-146.5 797.74,-141.79 769.15,-136.89 747.38,-133.24"/>
<polygon fill="#63b8ff" stroke="#63b8ff" points="858.76,-156.94 869.25,-155.45 860.12,-150.08 858.76,-156.94"/>
</a>
</g>
</g>
<!-- Node7 -->
<g id="Node000007" class="node">
<title>Node7</title>
<g id="a_Node000007"><a xlink:href="multimesh_2tests_2get__attributes_8cpp.html#ab58664a9c6a5969c3d97bd05c9ad2ec1" target="_top" xlink:title=" ">
<polygon fill="white" stroke="#666666" points="747,-100 676,-100 676,-81 747,-81 747,-100"/>
<text text-anchor="middle" x="711.5" y="-88" font-family="Helvetica,sans-Serif" font-size="10.00">TEST_CASE</text>
</a>
</g>
</g>
<!-- Node1&#45;&gt;Node7 -->
<g id="edge6_Node000001_Node000007" class="edge">
<title>Node1&#45;&gt;Node7</title>
<g id="a_edge6_Node000001_Node000007"><a xlink:title=" ">
<path fill="none" stroke="#63b8ff" d="M909.48,-150.21C886.13,-136.73 853.63,-119.69 823,-109.5 798.25,-101.27 769.13,-96.45 747,-93.72"/>
<polygon fill="#63b8ff" stroke="#63b8ff" points="907.88,-153.33 918.28,-155.37 911.42,-147.29 907.88,-153.33"/>
</a>
</g>
</g>
<!-- Node8 -->
<g id="Node000008" class="node">
<title>Node8</title>
<g id="a_Node000008"><a xlink:href="structwmtk_1_1components_1_1multimesh_1_1_multimesh_tag_options.html#ad7b5283419a95b771641147819b1f078" target="_top" xlink:title=" ">
<polygon fill="white" stroke="#666666" points="810.5,-62.5 612.5,-62.5 612.5,-32.5 810.5,-32.5 810.5,-62.5"/>
<text text-anchor="start" x="620.5" y="-50.5" font-family="Helvetica,sans-Serif" font-size="10.00">wmtk::components::multimesh</text>
<text text-anchor="middle" x="711.5" y="-39.5" font-family="Helvetica,sans-Serif" font-size="10.00">::MultimeshTagOptions::toTagOptions</text>
</a>
</g>
</g>
<!-- Node1&#45;&gt;Node8 -->
<g id="edge7_Node000001_Node000008" class="edge">
<title>Node1&#45;&gt;Node8</title>
<g id="a_edge7_Node000001_Node000008"><a xlink:title=" ">
<path fill="none" stroke="#63b8ff" d="M921.38,-147.87C899.08,-125.35 861.81,-91.47 823,-72.5 815.05,-68.61 806.48,-65.32 797.75,-62.53"/>
<polygon fill="#63b8ff" stroke="#63b8ff" points="919.15,-150.6 928.63,-155.32 924.17,-145.72 919.15,-150.6"/>
</a>
</g>
</g>
<!-- Node9 -->
<g id="Node000009" class="node">
<title>Node9</title>
<g id="a_Node000009"><a xlink:href="structwmtk_1_1components_1_1multimesh_1_1_multimesh_tag_options.html#aeb7e15d246e7c81f4d68755424ac1af1" target="_top" xlink:title=" ">
<polygon fill="white" stroke="#666666" points="564,-62.5 395,-62.5 395,-32.5 564,-32.5 564,-62.5"/>
<text text-anchor="start" x="403" y="-50.5" font-family="Helvetica,sans-Serif" font-size="10.00">wmtk::components::multimesh</text>
<text text-anchor="middle" x="479.5" y="-39.5" font-family="Helvetica,sans-Serif" font-size="10.00">::MultimeshTagOptions::run</text>
</a>
</g>
</g>
<!-- Node8&#45;&gt;Node9 -->
<g id="edge8_Node000008_Node000009" class="edge">
<title>Node8&#45;&gt;Node9</title>
<g id="a_edge8_Node000008_Node000009"><a xlink:title=" ">
<path fill="none" stroke="#63b8ff" d="M602.12,-47.5C589.4,-47.5 576.57,-47.5 564.25,-47.5"/>
<polygon fill="#63b8ff" stroke="#63b8ff" points="602.29,-51 612.29,-47.5 602.29,-44 602.29,-51"/>
</a>
</g>
</g>
<!-- Node10 -->
<g id="Node000010" class="node">
<title>Node10</title>
<g id="a_Node000010"><a xlink:href="structwmtk_1_1components_1_1multimesh_1_1_multimesh_boundary_options.html#aab11a26d2983aa5469c4f9777188d151" target="_top" xlink:title=" ">
<polygon fill="white" stroke="#666666" points="359,-89.5 179,-89.5 179,-59.5 359,-59.5 359,-89.5"/>
<text text-anchor="start" x="187" y="-77.5" font-family="Helvetica,sans-Serif" font-size="10.00">wmtk::components::multimesh</text>
<text text-anchor="middle" x="269" y="-66.5" font-family="Helvetica,sans-Serif" font-size="10.00">::MultimeshBoundaryOptions::run</text>
</a>
</g>
</g>
<!-- Node9&#45;&gt;Node10 -->
<g id="edge9_Node000009_Node000010" class="edge">
<title>Node9&#45;&gt;Node10</title>
<g id="a_edge9_Node000009_Node000010"><a xlink:title=" ">
<path fill="none" stroke="#63b8ff" d="M384.88,-59.62C376.3,-60.73 367.62,-61.86 359.08,-62.96"/>
<polygon fill="#63b8ff" stroke="#63b8ff" points="385.43,-63.08 394.9,-58.33 384.53,-56.14 385.43,-63.08"/>
</a>
</g>
</g>
<!-- Node11 -->
<g id="Node000011" class="node">
<title>Node11</title>
<g id="a_Node000011"><a xlink:href="structwmtk_1_1components_1_1mesh__info_1_1_multimesh_from_attribute_options.html#aab730ff3b36acfa46bce9dbc866ece63" target="_top" xlink:title=" ">
<polygon fill="white" stroke="#666666" points="352,-41 186,-41 186,0 352,0 352,-41"/>
<text text-anchor="start" x="194" y="-29" font-family="Helvetica,sans-Serif" font-size="10.00">wmtk::components::mesh</text>
<text text-anchor="start" x="194" y="-18" font-family="Helvetica,sans-Serif" font-size="10.00">_info::MultimeshFromAttribute</text>
<text text-anchor="middle" x="269" y="-7" font-family="Helvetica,sans-Serif" font-size="10.00">Options::run</text>
</a>
</g>
</g>
<!-- Node9&#45;&gt;Node11 -->
<g id="edge10_Node000009_Node000011" class="edge">
<title>Node9&#45;&gt;Node11</title>
<g id="a_edge10_Node000009_Node000011"><a xlink:title=" ">
<path fill="none" stroke="#63b8ff" d="M384.95,-35.39C374.05,-33.97 362.99,-32.54 352.26,-31.15"/>
<polygon fill="#63b8ff" stroke="#63b8ff" points="384.53,-38.86 394.9,-36.67 385.43,-31.92 384.53,-38.86"/>
</a>
</g>
</g>
<!-- Node12 -->
<g id="Node000012" class="node">
<title>Node12</title>
<g id="a_Node000012"><a xlink:href="namespacewmtk_1_1components_1_1mesh__info.html#a3f7499d11b40a9e88159d311f591976d" target="_top" xlink:title=" ">
<polygon fill="white" stroke="#666666" points="143,-41 0,-41 0,0 143,0 143,-41"/>
<text text-anchor="start" x="8" y="-29" font-family="Helvetica,sans-Serif" font-size="10.00">wmtk::components::mesh</text>
<text text-anchor="start" x="8" y="-18" font-family="Helvetica,sans-Serif" font-size="10.00">_info::multimesh_from</text>
<text text-anchor="middle" x="71.5" y="-7" font-family="Helvetica,sans-Serif" font-size="10.00">_attribute</text>
</a>
</g>
</g>
<!-- Node11&#45;&gt;Node12 -->
<g id="edge11_Node000011_Node000012" class="edge">
<title>Node11&#45;&gt;Node12</title>
<g id="a_edge11_Node000011_Node000012"><a xlink:title=" ">
<path fill="none" stroke="#63b8ff" d="M175.89,-20.5C164.9,-20.5 153.81,-20.5 143.19,-20.5"/>
<polygon fill="#63b8ff" stroke="#63b8ff" points="175.94,-24 185.94,-20.5 175.94,-17 175.94,-24"/>
</a>
</g>
</g>
</g>
</svg>
