<?xml version="1.0" encoding="UTF-8" standalone="no"?>
<!DOCTYPE svg PUBLIC "-//W3C//DTD SVG 1.1//EN"
 "http://www.w3.org/Graphics/SVG/1.1/DTD/svg11.dtd">
<!-- Generated by graphviz version 2.43.0 (0)
 -->
<!-- Title: wmtk::components::internal::segment_segment_inter Pages: 1 -->
<svg width="760pt" height="222pt"
 viewBox="0.00 0.00 760.00 221.50" xmlns="http://www.w3.org/2000/svg" xmlns:xlink="http://www.w3.org/1999/xlink">
<g id="graph0" class="graph" transform="scale(1 1) rotate(0) translate(4 217.5)">
<title>wmtk::components::internal::segment_segment_inter</title>
<!-- Node1 -->
<g id="Node000001" class="node">
<title>Node1</title>
<g id="a_Node000001"><a xlink:title="include the intersection on edgepoints">
<polygon fill="#999999" stroke="#666666" points="154,-109.5 0,-109.5 0,-79.5 154,-79.5 154,-109.5"/>
<text text-anchor="start" x="8" y="-97.5" font-family="Helvetica,sans-Serif" font-size="10.00">wmtk::components::internal</text>
<text text-anchor="middle" x="77" y="-86.5" font-family="Helvetica,sans-Serif" font-size="10.00">::segment_segment_inter</text>
</a>
</g>
</g>
<!-- Node2 -->
<g id="Node000002" class="node">
<title>Node2</title>
<g id="a_Node000002"><a xlink:href="namespacewmtk_1_1components.html#a1d95b8c424d645d432babf8ba5765e36" target="_top" xlink:title=" ">
<polygon fill="white" stroke="#666666" points="337,-147.5 197,-147.5 197,-117.5 337,-117.5 337,-147.5"/>
<text text-anchor="start" x="205" y="-135.5" font-family="Helvetica,sans-Serif" font-size="10.00">wmtk::components::edge</text>
<text text-anchor="middle" x="267" y="-124.5" font-family="Helvetica,sans-Serif" font-size="10.00">_insertion</text>
</a>
</g>
</g>
<!-- Node1&#45;&gt;Node2 -->
<g id="edge1_Node000001_Node000002" class="edge">
<title>Node1&#45;&gt;Node2</title>
<g id="a_edge1_Node000001_Node000002"><a xlink:title=" ">
<path fill="none" stroke="#63b8ff" d="M152.3,-109.52C163.65,-111.81 175.41,-114.19 186.86,-116.5"/>
<polygon fill="#63b8ff" stroke="#63b8ff" points="186.33,-119.97 196.83,-118.52 187.72,-113.11 186.33,-119.97"/>
</a>
</g>
</g>
<!-- Node10 -->
<g id="Node000010" class="node">
<title>Node10</title>
<g id="a_Node000010"><a xlink:href="namespacewmtk_1_1components_1_1internal.html#ad6dd95bb64070b2dd64d2041cf5cb0cb" target="_top" xlink:title=" ">
<polygon fill="white" stroke="#666666" points="344,-76.5 190,-76.5 190,-46.5 344,-46.5 344,-76.5"/>
<text text-anchor="start" x="198" y="-64.5" font-family="Helvetica,sans-Serif" font-size="10.00">wmtk::components::internal</text>
<text text-anchor="middle" x="267" y="-53.5" font-family="Helvetica,sans-Serif" font-size="10.00">::segment_segment_inter</text>
</a>
</g>
</g>
<!-- Node1&#45;&gt;Node10 -->
<g id="edge12_Node000001_Node000010" class="edge">
<title>Node1&#45;&gt;Node10</title>
<g id="a_edge12_Node000001_Node000010"><a xlink:title=" ">
<path fill="none" stroke="#63b8ff" d="M154.2,-81.13C162.61,-79.65 171.22,-78.14 179.74,-76.64"/>
<polygon fill="#63b8ff" stroke="#63b8ff" points="180.45,-80.07 189.7,-74.89 179.24,-73.18 180.45,-80.07"/>
</a>
</g>
</g>
<!-- Node2&#45;&gt;Node2 -->
<g id="edge2_Node000002_Node000002" class="edge">
<title>Node2&#45;&gt;Node2</title>
<g id="a_edge2_Node000002_Node000002"><a xlink:title=" ">
<path fill="none" stroke="#63b8ff" d="M233.6,-147.78C226.18,-156.91 237.31,-165.5 267,-165.5 284.63,-165.5 295.71,-162.47 300.26,-158.1"/>
<polygon fill="#63b8ff" stroke="#63b8ff" points="303.76,-157.82 300.4,-147.78 296.76,-157.73 303.76,-157.82"/>
</a>
</g>
</g>
<!-- Node3 -->
<g id="Node000003" class="node">
<title>Node3</title>
<g id="a_Node000003"><a xlink:href="namespacewmtk_1_1components_1_1multimesh.html#a27a3d7292fc4a2a3ee4a94a74574d424" target="_top" xlink:title=" ">
<polygon fill="white" stroke="#666666" points="549,-195.5 380,-195.5 380,-165.5 549,-165.5 549,-195.5"/>
<text text-anchor="start" x="388" y="-183.5" font-family="Helvetica,sans-Serif" font-size="10.00">wmtk::components::multimesh</text>
<text text-anchor="middle" x="464.5" y="-172.5" font-family="Helvetica,sans-Serif" font-size="10.00">::from_tag</text>
</a>
</g>
</g>
<!-- Node2&#45;&gt;Node3 -->
<g id="edge3_Node000002_Node000003" class="edge">
<title>Node2&#45;&gt;Node3</title>
<g id="a_edge3_Node000002_Node000003"><a xlink:title=" ">
<path fill="none" stroke="#63b8ff" d="M329.32,-147.56C349.34,-152.47 371.73,-157.97 392.4,-163.04"/>
<polygon fill="#63b8ff" stroke="#63b8ff" points="391.85,-166.51 402.4,-165.5 393.52,-159.71 391.85,-166.51"/>
</a>
</g>
</g>
<!-- Node4 -->
<g id="Node000004" class="node">
<title>Node4</title>
<g id="a_Node000004"><a xlink:href="namespacewmtk.html#a6a35f11c12436093d26fdd8be6fecc06" target="_top" xlink:title="Retrieves the current logger.">
<polygon fill="white" stroke="#666666" points="505,-147 424,-147 424,-128 505,-128 505,-147"/>
<text text-anchor="middle" x="464.5" y="-135" font-family="Helvetica,sans-Serif" font-size="10.00">wmtk::logger</text>
</a>
</g>
</g>
<!-- Node2&#45;&gt;Node4 -->
<g id="edge5_Node000002_Node000004" class="edge">
<title>Node2&#45;&gt;Node4</title>
<g id="a_edge5_Node000002_Node000004"><a xlink:title=" ">
<path fill="none" stroke="#63b8ff" d="M337.2,-134.27C362.35,-134.91 390.26,-135.63 413.43,-136.22"/>
<polygon fill="#63b8ff" stroke="#63b8ff" points="413.63,-139.73 423.72,-136.48 413.81,-132.73 413.63,-139.73"/>
</a>
</g>
</g>
<!-- Node6 -->
<g id="Node000006" class="node">
<title>Node6</title>
<g id="a_Node000006"><a xlink:href="namespacewmtk_1_1mesh__utils.html#a6b2f73991123f534fcdb16fef9ff9890" target="_top" xlink:title=" ">
<polygon fill="white" stroke="#666666" points="527,-109.5 402,-109.5 402,-79.5 527,-79.5 527,-109.5"/>
<text text-anchor="start" x="410" y="-97.5" font-family="Helvetica,sans-Serif" font-size="10.00">wmtk::mesh_utils::set</text>
<text text-anchor="middle" x="464.5" y="-86.5" font-family="Helvetica,sans-Serif" font-size="10.00">_matrix_attribute</text>
</a>
</g>
</g>
<!-- Node2&#45;&gt;Node6 -->
<g id="edge7_Node000002_Node000006" class="edge">
<title>Node2&#45;&gt;Node6</title>
<g id="a_edge7_Node000002_Node000006"><a xlink:title=" ">
<path fill="none" stroke="#63b8ff" d="M337.2,-119.05C354.83,-115.62 373.82,-111.93 391.58,-108.48"/>
<polygon fill="#63b8ff" stroke="#63b8ff" points="392.73,-111.82 401.88,-106.48 391.39,-104.95 392.73,-111.82"/>
</a>
</g>
</g>
<!-- Node3&#45;&gt;Node3 -->
<g id="edge4_Node000003_Node000003" class="edge">
<title>Node3&#45;&gt;Node3</title>
<g id="a_edge4_Node000003_Node000003"><a xlink:title=" ">
<path fill="none" stroke="#63b8ff" d="M430.05,-195.78C422.39,-204.91 433.88,-213.5 464.5,-213.5 482.68,-213.5 494.12,-210.47 498.81,-206.1"/>
<polygon fill="#63b8ff" stroke="#63b8ff" points="502.31,-205.82 498.95,-195.78 495.31,-205.72 502.31,-205.82"/>
</a>
</g>
</g>
<!-- Node5 -->
<g id="Node000005" class="node">
<title>Node5</title>
<g id="a_Node000005"><a xlink:href="namespacewmtk.html#a3daa7951a5f8b78cf4600dc047fcc180" target="_top" xlink:title="Setup a logger object to be used by WildmeshToolkit.">
<polygon fill="white" stroke="#666666" points="719,-171 618,-171 618,-152 719,-152 719,-171"/>
<text text-anchor="middle" x="668.5" y="-159" font-family="Helvetica,sans-Serif" font-size="10.00">wmtk::set_logger</text>
</a>
</g>
</g>
<!-- Node4&#45;&gt;Node5 -->
<g id="edge6_Node000004_Node000005" class="edge">
<title>Node4&#45;&gt;Node5</title>
<g id="a_edge6_Node000004_Node000005"><a xlink:title=" ">
<path fill="none" stroke="#63b8ff" d="M505.41,-142.24C534.58,-145.71 574.65,-150.47 607.65,-154.39"/>
<polygon fill="#63b8ff" stroke="#63b8ff" points="607.31,-157.87 617.65,-155.58 608.13,-150.92 607.31,-157.87"/>
</a>
</g>
</g>
<!-- Node7 -->
<g id="Node000007" class="node">
<title>Node7</title>
<g id="a_Node000007"><a xlink:href="classwmtk_1_1attribute_1_1_mesh_attribute_handle.html#a9c02e0fc8ac13ad9f16ce928e7a2c84c" target="_top" xlink:title=" ">
<polygon fill="white" stroke="#666666" points="752,-133.5 585,-133.5 585,-103.5 752,-103.5 752,-133.5"/>
<text text-anchor="start" x="593" y="-121.5" font-family="Helvetica,sans-Serif" font-size="10.00">wmtk::attribute::MeshAttribute</text>
<text text-anchor="middle" x="668.5" y="-110.5" font-family="Helvetica,sans-Serif" font-size="10.00">Handle::as</text>
</a>
</g>
</g>
<!-- Node6&#45;&gt;Node7 -->
<g id="edge8_Node000006_Node000007" class="edge">
<title>Node6&#45;&gt;Node7</title>
<g id="a_edge8_Node000006_Node000007"><a xlink:title=" ">
<path fill="none" stroke="#63b8ff" d="M527.2,-101.83C542.29,-103.62 558.76,-105.58 574.94,-107.5"/>
<polygon fill="#63b8ff" stroke="#63b8ff" points="574.62,-110.99 584.96,-108.69 575.44,-104.04 574.62,-110.99"/>
</a>
</g>
</g>
<!-- Node8 -->
<g id="Node000008" class="node">
<title>Node8</title>
<g id="a_Node000008"><a xlink:href="classwmtk_1_1_mesh.html#ad85569ecd50cc7c0b5161b1d1cd13ebb" target="_top" xlink:title=" ">
<polygon fill="white" stroke="#666666" points="725,-85.5 612,-85.5 612,-55.5 725,-55.5 725,-85.5"/>
<text text-anchor="start" x="620" y="-73.5" font-family="Helvetica,sans-Serif" font-size="10.00">wmtk::Mesh::create</text>
<text text-anchor="middle" x="668.5" y="-62.5" font-family="Helvetica,sans-Serif" font-size="10.00">_accessor</text>
</a>
</g>
</g>
<!-- Node6&#45;&gt;Node8 -->
<g id="edge9_Node000006_Node000008" class="edge">
<title>Node6&#45;&gt;Node8</title>
<g id="a_edge9_Node000006_Node000008"><a xlink:title=" ">
<path fill="none" stroke="#63b8ff" d="M527.2,-87.17C550.76,-84.37 577.69,-81.17 601.62,-78.33"/>
<polygon fill="#63b8ff" stroke="#63b8ff" points="602.15,-81.79 611.67,-77.13 601.32,-74.84 602.15,-81.79"/>
</a>
</g>
</g>
<!-- Node9 -->
<g id="Node000009" class="node">
<title>Node9</title>
<g id="a_Node000009"><a xlink:href="classwmtk_1_1_mesh.html#a6d2a546c8f661bf6386cf845a1693d2f" target="_top" xlink:title="Generate a vector of Tuples from global vertex/edge/triangle/tetrahedron index.">
<polygon fill="white" stroke="#666666" points="726.5,-19 610.5,-19 610.5,0 726.5,0 726.5,-19"/>
<text text-anchor="middle" x="668.5" y="-7" font-family="Helvetica,sans-Serif" font-size="10.00">wmtk::Mesh::get_all</text>
</a>
</g>
</g>
<!-- Node6&#45;&gt;Node9 -->
<g id="edge10_Node000006_Node000009" class="edge">
<title>Node6&#45;&gt;Node9</title>
<g id="a_edge10_Node000006_Node000009"><a xlink:title=" ">
<path fill="none" stroke="#63b8ff" d="M526.51,-79.35C534.21,-76.75 541.88,-73.8 549,-70.5 566.45,-62.41 568.17,-55.8 585,-46.5 600.67,-37.84 618.74,-29.56 633.98,-23.03"/>
<polygon fill="#63b8ff" stroke="#63b8ff" points="635.67,-26.12 643.52,-19.01 632.95,-19.67 635.67,-26.12"/>
</a>
</g>
</g>
<!-- Node9&#45;&gt;Node9 -->
<g id="edge11_Node000009_Node000009" class="edge">
<title>Node9&#45;&gt;Node9</title>
<g id="a_edge11_Node000009_Node000009"><a xlink:title=" ">
<path fill="none" stroke="#63b8ff" d="M637.37,-19.08C622.22,-27.73 632.6,-37 668.5,-37 693.74,-37 706.37,-32.42 706.37,-26.69"/>
<polygon fill="#63b8ff" stroke="#63b8ff" points="708.89,-24.25 699.63,-19.08 703.65,-28.89 708.89,-24.25"/>
</a>
</g>
</g>
<!-- Node10&#45;&gt;Node10 -->
<g id="edge14_Node000010_Node000010" class="edge">
<title>Node10&#45;&gt;Node10</title>
<g id="a_edge14_Node000010_Node000010"><a xlink:title=" ">
<path fill="none" stroke="#63b8ff" d="M233.6,-76.78C226.18,-85.91 237.31,-94.5 267,-94.5 284.63,-94.5 295.71,-91.47 300.26,-87.1"/>
<polygon fill="#63b8ff" stroke="#63b8ff" points="303.76,-86.82 300.4,-76.78 296.76,-86.73 303.76,-86.82"/>
</a>
</g>
</g>
<!-- Node11 -->
<g id="Node000011" class="node">
<title>Node11</title>
<g id="a_Node000011"><a xlink:href="classwmtk_1_1_rational.html#af23196c85e42485e90d9c0ea9b47586c" target="_top" xlink:title=" ">
<polygon fill="white" stroke="#666666" points="533.5,-61 395.5,-61 395.5,-42 533.5,-42 533.5,-61"/>
<text text-anchor="middle" x="464.5" y="-49" font-family="Helvetica,sans-Serif" font-size="10.00">wmtk::Rational::get_sign</text>
</a>
</g>
</g>
<!-- Node10&#45;&gt;Node11 -->
<g id="edge13_Node000010_Node000011" class="edge">
<title>Node10&#45;&gt;Node11</title>
<g id="a_edge13_Node000010_Node000011"><a xlink:title=" ">
<path fill="none" stroke="#63b8ff" d="M344.15,-57.61C357.56,-56.92 371.54,-56.2 385.02,-55.51"/>
<polygon fill="#63b8ff" stroke="#63b8ff" points="385.4,-59 395.21,-54.99 385.04,-52.01 385.4,-59"/>
</a>
</g>
</g>
</g>
</svg>
