<?xml version="1.0" encoding="UTF-8" standalone="no"?>
<!DOCTYPE svg PUBLIC "-//W3C//DTD SVG 1.1//EN"
 "http://www.w3.org/Graphics/SVG/1.1/DTD/svg11.dtd">
<!-- Generated by graphviz version 2.43.0 (0)
 -->
<!-- Title: wmtk::dart::utils::apply_simplex_involution Pages: 1 -->
<!--zoomable 372 -->

<svg id="main" version="1.1" xmlns="http://www.w3.org/2000/svg" xmlns:xlink="http://www.w3.org/1999/xlink" xml:space="preserve" onload="init(evt)">
<style type="text/css"><![CDATA[
.node, .edge {opacity: 0.7;}
.node.selected, .edge.selected {opacity: 1;}
.edge:hover path { stroke: red; }
.edge:hover polygon { stroke: red; fill: red; }
]]></style>

<defs>
  <circle id="rim" cx="0" cy="0" r="7"/>
  <circle id="rim2" cx="0" cy="0" r="3.5"/>
  <g id="zoomPlus">
    <use xlink:href="#rim" fill="#404040"><set attributeName="fill" to="#808080" begin="zoomplus.mouseover" end="zoomplus.mouseout"/></use>
    <path d="M-4,0h8M0,-4v8" fill="none" stroke="white" stroke-width="1.5" pointer-events="none"/>
  </g>
  <g id="zoomMin">
    <use xlink:href="#rim" fill="#404040"><set attributeName="fill" to="#808080" begin="zoomminus.mouseover" end="zoomminus.mouseout"/></use>
    <path d="M-4,0h8" fill="none" stroke="white" stroke-width="1.5" pointer-events="none"/>
  </g>
  <g id="arrowUp" transform="translate(30 24)">
    <use xlink:href="#rim"/>
    <path pointer-events="none" fill="none" stroke="white" stroke-width="1.5" d="M0,-3.0v7 M-2.5,-0.5L0,-3.0L2.5,-0.5"/>
  </g>
  <g id="arrowRight" transform="rotate(90) translate(36 -43)">
    <use xlink:href="#rim"/>
    <path pointer-events="none" fill="none" stroke="white" stroke-width="1.5" d="M0,-3.0v7 M-2.5,-0.5L0,-3.0L2.5,-0.5"/>
  </g>
  <g id="arrowDown" transform="rotate(180) translate(-30 -48)">
    <use xlink:href="#rim"/>
    <path pointer-events="none" fill="none" stroke="white" stroke-width="1.5" d="M0,-3.0v7 M-2.5,-0.5L0,-3.0L2.5,-0.5"/>
  </g>
  <g id="arrowLeft" transform="rotate(270) translate(-36 17)">
    <use xlink:href="#rim"/>
    <path pointer-events="none" fill="none" stroke="white" stroke-width="1.5" d="M0,-3.0v7 M-2.5,-0.5L0,-3.0L2.5,-0.5"/>
  </g>
  <g id="resetDef">
    <use xlink:href="#rim2" fill="#404040"><set attributeName="fill" to="#808080" begin="reset.mouseover" end="reset.mouseout"/></use>
  </g>
</defs>
<script type="application/ecmascript">
var viewWidth = 1069;
var viewHeight = 372;
var sectionId = 'dynsection-1';
</script>
<script type="application/ecmascript" xlink:href="svg.min.js"/>
<svg id="graph" class="graph">
<g id="viewport">
<title>wmtk::dart::utils::apply_simplex_involution</title>
<!-- Node1 -->
<g id="Node000001" class="node">
<title>Node1</title>
<g id="a_Node000001"><a xlink:title=" ">
<polygon fill="#999999" stroke="#666666" points="142,-170 0,-170 0,-140 142,-140 142,-170"/>
<text text-anchor="start" x="8" y="-158" font-family="Helvetica,sans-Serif" font-size="10.00">wmtk::dart::utils::</text>
<text text-anchor="middle" x="71" y="-147" font-family="Helvetica,sans-Serif" font-size="10.00">apply_simplex_involution</text>
</a>
</g>
</g>
<!-- Node2 -->
<g id="Node000002" class="node">
<title>Node2</title>
<g id="a_Node000002"><a xlink:href="namespacewmtk_1_1dart_1_1utils.html#adf4bec80fa2f0838078a389a615803f3" target="_top" xlink:title=" ">
<polygon fill="white" stroke="#666666" points="320,-175.5 178,-175.5 178,-134.5 320,-134.5 320,-175.5"/>
<text text-anchor="start" x="186" y="-163.5" font-family="Helvetica,sans-Serif" font-size="10.00">wmtk::dart::utils::</text>
<text text-anchor="start" x="186" y="-152.5" font-family="Helvetica,sans-Serif" font-size="10.00">apply_simplex_involution</text>
<text text-anchor="middle" x="249" y="-141.5" font-family="Helvetica,sans-Serif" font-size="10.00">_directed</text>
</a>
</g>
</g>
<!-- Node1&#45;&gt;Node2 -->
<g id="edge1_Node000001_Node000002" class="edge">
<title>Node1&#45;&gt;Node2</title>
<g id="a_edge1_Node000001_Node000002"><a xlink:title=" ">
<path fill="none" stroke="#63b8ff" d="M142.07,-155C150.54,-155 159.25,-155 167.85,-155"/>
<polygon fill="#63b8ff" stroke="#63b8ff" points="167.89,-158.5 177.89,-155 167.89,-151.5 167.89,-158.5"/>
</a>
</g>
</g>
<!-- Node8 -->
<g id="Node000008" class="node">
<title>Node8</title>
<g id="a_Node000008"><a xlink:href="classwmtk_1_1dart_1_1_simplex_dart.html#a3949350f736cbf567bf566fd7565e6e8" target="_top" xlink:title=" ">
<polygon fill="white" stroke="#666666" points="690,-336 553,-336 553,-306 690,-306 690,-336"/>
<text text-anchor="start" x="561" y="-324" font-family="Helvetica,sans-Serif" font-size="10.00">wmtk::dart::SimplexDart</text>
<text text-anchor="middle" x="621.5" y="-313" font-family="Helvetica,sans-Serif" font-size="10.00">::get_singleton</text>
</a>
</g>
</g>
<!-- Node1&#45;&gt;Node8 -->
<g id="edge28_Node000001_Node000008" class="edge">
<title>Node1&#45;&gt;Node8</title>
<g id="a_edge28_Node000001_Node000008"><a xlink:title=" ">
<path fill="none" stroke="#63b8ff" d="M108.26,-170.1C161.77,-192 265.34,-232.91 356,-260 418.04,-278.54 489.67,-294.75 542.73,-305.79"/>
<polygon fill="#63b8ff" stroke="#63b8ff" points="542.25,-309.26 552.75,-307.86 543.67,-302.41 542.25,-309.26"/>
</a>
</g>
</g>
<!-- Node17 -->
<g id="Node000017" class="node">
<title>Node17</title>
<g id="a_Node000017"><a xlink:href="classwmtk_1_1dart_1_1_simplex_dart.html#a61de0a16f65d51c565bab5abf01d25aa" target="_top" xlink:title=" ">
<polygon fill="white" stroke="#666666" points="505,-30 368,-30 368,0 505,0 505,-30"/>
<text text-anchor="start" x="376" y="-18" font-family="Helvetica,sans-Serif" font-size="10.00">wmtk::dart::SimplexDart</text>
<text text-anchor="middle" x="436.5" y="-7" font-family="Helvetica,sans-Serif" font-size="10.00">::product</text>
</a>
</g>
</g>
<!-- Node1&#45;&gt;Node17 -->
<g id="edge29_Node000001_Node000017" class="edge">
<title>Node1&#45;&gt;Node17</title>
<g id="a_edge29_Node000001_Node000017"><a xlink:title=" ">
<path fill="none" stroke="#63b8ff" d="M110.02,-139.82C164.4,-118.18 267.6,-77.39 356,-44 365.08,-40.57 374.76,-36.98 384.14,-33.54"/>
<polygon fill="#63b8ff" stroke="#63b8ff" points="385.57,-36.74 393.76,-30.02 383.17,-30.17 385.57,-36.74"/>
</a>
</g>
</g>
<!-- Node3 -->
<g id="Node000003" class="node">
<title>Node3</title>
<g id="a_Node000003"><a xlink:href="classwmtk_1_1dart_1_1_simplex_dart.html#a97c4b273ac645149eb59fbe493edf5c6" target="_top" xlink:title=" ">
<polygon fill="white" stroke="#666666" points="690,-116 553,-116 553,-86 690,-86 690,-116"/>
<text text-anchor="start" x="561" y="-104" font-family="Helvetica,sans-Serif" font-size="10.00">wmtk::dart::SimplexDart</text>
<text text-anchor="middle" x="621.5" y="-93" font-family="Helvetica,sans-Serif" font-size="10.00">::convert</text>
</a>
</g>
</g>
<!-- Node2&#45;&gt;Node3 -->
<g id="edge2_Node000002_Node000003" class="edge">
<title>Node2&#45;&gt;Node3</title>
<g id="a_edge2_Node000002_Node000003"><a xlink:title=" ">
<path fill="none" stroke="#63b8ff" d="M320.12,-144.78C383.68,-135.52 477.19,-121.89 542.95,-112.3"/>
<polygon fill="#63b8ff" stroke="#63b8ff" points="543.46,-115.77 552.85,-110.86 542.45,-108.84 543.46,-115.77"/>
</a>
</g>
</g>
<!-- Node6 -->
<g id="Node000006" class="node">
<title>Node6</title>
<g id="a_Node000006"><a xlink:href="classwmtk_1_1dart_1_1_simplex_dart.html#a41f78914333ef35a88337d6ccf53b492" target="_top" xlink:title=" ">
<polygon fill="white" stroke="#666666" points="873.5,-149 736.5,-149 736.5,-119 873.5,-119 873.5,-149"/>
<text text-anchor="start" x="744.5" y="-137" font-family="Helvetica,sans-Serif" font-size="10.00">wmtk::dart::SimplexDart</text>
<text text-anchor="middle" x="805" y="-126" font-family="Helvetica,sans-Serif" font-size="10.00">::identity</text>
</a>
</g>
</g>
<!-- Node2&#45;&gt;Node6 -->
<g id="edge10_Node000002_Node000006" class="edge">
<title>Node2&#45;&gt;Node6</title>
<g id="a_edge10_Node000002_Node000006"><a xlink:title=" ">
<path fill="none" stroke="#63b8ff" d="M289.03,-134.48C367.51,-96.12 549.01,-22.16 690,-77 710.23,-84.87 707.17,-99.21 726,-110 729.04,-111.74 732.23,-113.37 735.49,-114.9"/>
<polygon fill="#63b8ff" stroke="#63b8ff" points="734.31,-118.2 744.89,-118.91 737.07,-111.76 734.31,-118.2"/>
</a>
</g>
</g>
<!-- Node2&#45;&gt;Node8 -->
<g id="edge8_Node000002_Node000008" class="edge">
<title>Node2&#45;&gt;Node8</title>
<g id="a_edge8_Node000002_Node000008"><a xlink:title=" ">
<path fill="none" stroke="#63b8ff" d="M287.43,-175.65C307.56,-186.53 332.94,-199.89 356,-211 442.07,-252.45 464.16,-261.86 553,-297 557.53,-298.79 562.26,-300.6 567.01,-302.37"/>
<polygon fill="#63b8ff" stroke="#63b8ff" points="566.17,-305.79 576.76,-305.95 568.58,-299.22 566.17,-305.79"/>
</a>
</g>
</g>
<!-- Node9 -->
<g id="Node000009" class="node">
<title>Node9</title>
<g id="a_Node000009"><a xlink:href="classwmtk_1_1dart_1_1_simplex_dart.html#a6923dbaad52cba2f744265012f9648ed" target="_top" xlink:title=" ">
<polygon fill="white" stroke="#666666" points="873.5,-364 736.5,-364 736.5,-334 873.5,-334 873.5,-364"/>
<text text-anchor="start" x="744.5" y="-352" font-family="Helvetica,sans-Serif" font-size="10.00">wmtk::dart::SimplexDart</text>
<text text-anchor="middle" x="805" y="-341" font-family="Helvetica,sans-Serif" font-size="10.00">::inverse</text>
</a>
</g>
</g>
<!-- Node2&#45;&gt;Node9 -->
<g id="edge11_Node000002_Node000009" class="edge">
<title>Node2&#45;&gt;Node9</title>
<g id="a_edge11_Node000002_Node000009"><a xlink:title=" ">
<path fill="none" stroke="#63b8ff" d="M266.88,-175.88C286.38,-198.93 320.37,-235.93 356,-260 435.02,-313.37 459.77,-324.97 553,-345 610.1,-357.27 676.21,-357.79 726.24,-355.5"/>
<polygon fill="#63b8ff" stroke="#63b8ff" points="726.53,-358.99 736.34,-354.99 726.18,-352 726.53,-358.99"/>
</a>
</g>
</g>
<!-- Node10 -->
<g id="Node000010" class="node">
<title>Node10</title>
<g id="a_Node000010"><a xlink:href="namespacewmtk_1_1dart_1_1utils.html#a10c8d07172593fb9b520e7a6511ad08f" target="_top" xlink:title=" ">
<polygon fill="white" stroke="#666666" points="517,-202 356,-202 356,-172 517,-172 517,-202"/>
<text text-anchor="start" x="364" y="-190" font-family="Helvetica,sans-Serif" font-size="10.00">wmtk::dart::utils::</text>
<text text-anchor="middle" x="436.5" y="-179" font-family="Helvetica,sans-Serif" font-size="10.00">local_simplex_decomposition</text>
</a>
</g>
</g>
<!-- Node2&#45;&gt;Node10 -->
<g id="edge12_Node000002_Node000010" class="edge">
<title>Node2&#45;&gt;Node10</title>
<g id="a_edge12_Node000002_Node000010"><a xlink:title=" ">
<path fill="none" stroke="#63b8ff" d="M320.13,-167.1C328.54,-168.55 337.21,-170.04 345.84,-171.53"/>
<polygon fill="#63b8ff" stroke="#63b8ff" points="345.49,-175.03 355.94,-173.28 346.68,-168.13 345.49,-175.03"/>
</a>
</g>
</g>
<!-- Node2&#45;&gt;Node17 -->
<g id="edge27_Node000002_Node000017" class="edge">
<title>Node2&#45;&gt;Node17</title>
<g id="a_edge27_Node000002_Node000017"><a xlink:title=" ">
<path fill="none" stroke="#63b8ff" d="M269.22,-134.39C298.35,-103.23 350.87,-47.35 356,-44 361.62,-40.33 367.76,-37.04 374.07,-34.12"/>
<polygon fill="#63b8ff" stroke="#63b8ff" points="375.58,-37.28 383.38,-30.1 372.81,-30.85 375.58,-37.28"/>
</a>
</g>
</g>
<!-- Node4 -->
<g id="Node000004" class="node">
<title>Node4</title>
<g id="a_Node000004"><a xlink:href="namespacewmtk_1_1dart_1_1subgroup.html#a2bf6fed0cc64c6ad326e56135c6e8497" target="_top" xlink:title=" ">
<polygon fill="white" stroke="#666666" points="865.5,-101 744.5,-101 744.5,-71 865.5,-71 865.5,-101"/>
<text text-anchor="start" x="752.5" y="-89" font-family="Helvetica,sans-Serif" font-size="10.00">wmtk::dart::subgroup</text>
<text text-anchor="middle" x="805" y="-78" font-family="Helvetica,sans-Serif" font-size="10.00">::convert</text>
</a>
</g>
</g>
<!-- Node3&#45;&gt;Node4 -->
<g id="edge3_Node000003_Node000004" class="edge">
<title>Node3&#45;&gt;Node4</title>
<g id="a_edge3_Node000003_Node000004"><a xlink:title=" ">
<path fill="none" stroke="#63b8ff" d="M690.08,-95.41C704.44,-94.23 719.62,-92.97 734.06,-91.78"/>
<polygon fill="#63b8ff" stroke="#63b8ff" points="734.75,-95.24 744.42,-90.92 734.17,-88.26 734.75,-95.24"/>
</a>
</g>
</g>
<!-- Node3&#45;&gt;Node6 -->
<g id="edge6_Node000003_Node000006" class="edge">
<title>Node3&#45;&gt;Node6</title>
<g id="a_edge6_Node000003_Node000006"><a xlink:title=" ">
<path fill="none" stroke="#63b8ff" d="M690.08,-113.29C701.89,-115.44 714.27,-117.68 726.32,-119.88"/>
<polygon fill="#63b8ff" stroke="#63b8ff" points="725.89,-123.36 736.36,-121.7 727.15,-116.47 725.89,-123.36"/>
</a>
</g>
</g>
<!-- Node7 -->
<g id="Node000007" class="node">
<title>Node7</title>
<g id="a_Node000007"><a xlink:href="classwmtk_1_1dart_1_1_simplex_dart.html#a75defb2c9d167b36c7fc73cd7d5bba60" target="_top" xlink:title=" ">
<polygon fill="white" stroke="#666666" points="873.5,-245 736.5,-245 736.5,-215 873.5,-215 873.5,-245"/>
<text text-anchor="start" x="744.5" y="-233" font-family="Helvetica,sans-Serif" font-size="10.00">wmtk::dart::SimplexDart</text>
<text text-anchor="middle" x="805" y="-222" font-family="Helvetica,sans-Serif" font-size="10.00">::simplex_type</text>
</a>
</g>
</g>
<!-- Node3&#45;&gt;Node7 -->
<g id="edge7_Node000003_Node000007" class="edge">
<title>Node3&#45;&gt;Node7</title>
<g id="a_edge7_Node000003_Node000007"><a xlink:title=" ">
<path fill="none" stroke="#63b8ff" d="M640.29,-116.2C654.26,-128.4 673.95,-146.2 690,-163 707.21,-181.02 705.24,-192.21 726,-206 728.43,-207.62 730.98,-209.13 733.61,-210.54"/>
<polygon fill="#63b8ff" stroke="#63b8ff" points="732.28,-213.78 742.81,-214.98 735.32,-207.48 732.28,-213.78"/>
</a>
</g>
</g>
<!-- Node5 -->
<g id="Node000005" class="node">
<title>Node5</title>
<g id="a_Node000005"><a xlink:href="namespacewmtk_1_1autogen_1_1subgroup.html#a9b4c9cc6aebaf0622a95cb3174d984e1" target="_top" xlink:title=" ">
<polygon fill="white" stroke="#666666" points="1061,-101 920,-101 920,-71 1061,-71 1061,-101"/>
<text text-anchor="start" x="928" y="-89" font-family="Helvetica,sans-Serif" font-size="10.00">wmtk::autogen::subgroup</text>
<text text-anchor="middle" x="990.5" y="-78" font-family="Helvetica,sans-Serif" font-size="10.00">::convert</text>
</a>
</g>
</g>
<!-- Node4&#45;&gt;Node5 -->
<g id="edge4_Node000004_Node000005" class="edge">
<title>Node4&#45;&gt;Node5</title>
<g id="a_edge4_Node000004_Node000005"><a xlink:title=" ">
<path fill="none" stroke="#63b8ff" d="M865.58,-86C879.61,-86 894.79,-86 909.55,-86"/>
<polygon fill="#63b8ff" stroke="#63b8ff" points="909.69,-89.5 919.69,-86 909.69,-82.5 909.69,-89.5"/>
</a>
</g>
</g>
<!-- Node5&#45;&gt;Node5 -->
<g id="edge5_Node000005_Node000005" class="edge">
<title>Node5&#45;&gt;Node5</title>
<g id="a_edge5_Node000005_Node000005"><a xlink:title=" ">
<path fill="none" stroke="#63b8ff" d="M958.16,-101.28C950.97,-110.41 961.75,-119 990.5,-119 1007.57,-119 1018.31,-115.97 1022.71,-111.6"/>
<polygon fill="#63b8ff" stroke="#63b8ff" points="1026.21,-111.32 1022.84,-101.28 1019.21,-111.23 1026.21,-111.32"/>
</a>
</g>
</g>
<!-- Node8&#45;&gt;Node7 -->
<g id="edge9_Node000008_Node000007" class="edge">
<title>Node8&#45;&gt;Node7</title>
<g id="a_edge9_Node000008_Node000007"><a xlink:title=" ">
<path fill="none" stroke="#63b8ff" d="M674.03,-305.91C679.63,-303.34 685.08,-300.38 690,-297 710.26,-283.08 705.52,-268.6 726,-255 729.08,-252.95 732.35,-251.06 735.72,-249.32"/>
<polygon fill="#63b8ff" stroke="#63b8ff" points="737.29,-252.45 744.86,-245.04 734.32,-246.11 737.29,-252.45"/>
</a>
</g>
</g>
<!-- Node10&#45;&gt;Node3 -->
<g id="edge13_Node000010_Node000003" class="edge">
<title>Node10&#45;&gt;Node3</title>
<g id="a_edge13_Node000010_Node000003"><a xlink:title=" ">
<path fill="none" stroke="#63b8ff" d="M467.21,-171.8C490.41,-160.06 523.56,-143.58 553,-130 560.17,-126.69 567.81,-123.29 575.29,-120.04"/>
<polygon fill="#63b8ff" stroke="#63b8ff" points="576.82,-123.18 584.61,-116 574.05,-116.76 576.82,-123.18"/>
</a>
</g>
</g>
<!-- Node10&#45;&gt;Node6 -->
<g id="edge25_Node000010_Node000006" class="edge">
<title>Node10&#45;&gt;Node6</title>
<g id="a_edge25_Node000010_Node000006"><a xlink:title=" ">
<path fill="none" stroke="#63b8ff" d="M504.8,-171.95C520.56,-168.72 537.33,-165.53 553,-163 610.84,-153.67 676.64,-146.18 726.35,-141.15"/>
<polygon fill="#63b8ff" stroke="#63b8ff" points="726.79,-144.63 736.39,-140.15 726.09,-137.66 726.79,-144.63"/>
</a>
</g>
</g>
<!-- Node10&#45;&gt;Node7 -->
<g id="edge26_Node000010_Node000007" class="edge">
<title>Node10&#45;&gt;Node7</title>
<g id="a_edge26_Node000010_Node000007"><a xlink:title=" ">
<path fill="none" stroke="#63b8ff" d="M502.6,-202.06C518.98,-205.43 536.57,-208.68 553,-211 610.79,-219.16 676.59,-223.97 726.32,-226.72"/>
<polygon fill="#63b8ff" stroke="#63b8ff" points="726.19,-230.21 736.36,-227.25 726.56,-223.22 726.19,-230.21"/>
</a>
</g>
</g>
<!-- Node10&#45;&gt;Node8 -->
<g id="edge24_Node000010_Node000008" class="edge">
<title>Node10&#45;&gt;Node8</title>
<g id="a_edge24_Node000010_Node000008"><a xlink:title=" ">
<path fill="none" stroke="#63b8ff" d="M453.71,-202.16C469.82,-217.25 495.21,-241.13 517,-262 533.12,-277.43 534.05,-285.21 553,-297 555.61,-298.62 558.34,-300.16 561.15,-301.6"/>
<polygon fill="#63b8ff" stroke="#63b8ff" points="559.79,-304.83 570.33,-305.92 562.77,-298.5 559.79,-304.83"/>
</a>
</g>
</g>
<!-- Node11 -->
<g id="Node000011" class="node">
<title>Node11</title>
<g id="a_Node000011"><a xlink:href="namespacewmtk_1_1dart.html#a626f426765e240dbc25a76d9d01ec3f3" target="_top" xlink:title=" ">
<polygon fill="white" stroke="#666666" points="682.5,-288 560.5,-288 560.5,-258 682.5,-258 682.5,-288"/>
<text text-anchor="start" x="568.5" y="-276" font-family="Helvetica,sans-Serif" font-size="10.00">wmtk::dart::find_local</text>
<text text-anchor="middle" x="621.5" y="-265" font-family="Helvetica,sans-Serif" font-size="10.00">_dart_action</text>
</a>
</g>
</g>
<!-- Node10&#45;&gt;Node11 -->
<g id="edge14_Node000010_Node000011" class="edge">
<title>Node10&#45;&gt;Node11</title>
<g id="a_edge14_Node000010_Node000011"><a xlink:title=" ">
<path fill="none" stroke="#63b8ff" d="M467.21,-202.2C490.41,-213.94 523.56,-230.42 553,-244 560.17,-247.31 567.81,-250.71 575.29,-253.96"/>
<polygon fill="#63b8ff" stroke="#63b8ff" points="574.05,-257.24 584.61,-258 576.82,-250.82 574.05,-257.24"/>
</a>
</g>
</g>
<!-- Node15 -->
<g id="Node000015" class="node">
<title>Node15</title>
<g id="a_Node000015"><a xlink:href="namespacewmtk_1_1dart_1_1utils.html#a0d0527148877095547bcad7f543c6840" target="_top" xlink:title=" ">
<polygon fill="white" stroke="#666666" points="684.5,-202 558.5,-202 558.5,-172 684.5,-172 684.5,-202"/>
<text text-anchor="start" x="566.5" y="-190" font-family="Helvetica,sans-Serif" font-size="10.00">wmtk::dart::utils::</text>
<text text-anchor="middle" x="621.5" y="-179" font-family="Helvetica,sans-Serif" font-size="10.00">get_canonical_supdart</text>
</a>
</g>
</g>
<!-- Node10&#45;&gt;Node15 -->
<g id="edge20_Node000010_Node000015" class="edge">
<title>Node10&#45;&gt;Node15</title>
<g id="a_edge20_Node000010_Node000015"><a xlink:title=" ">
<path fill="none" stroke="#63b8ff" d="M517.23,-187C527.56,-187 538.1,-187 548.3,-187"/>
<polygon fill="#63b8ff" stroke="#63b8ff" points="548.36,-190.5 558.36,-187 548.36,-183.5 548.36,-190.5"/>
</a>
</g>
</g>
<!-- Node11&#45;&gt;Node9 -->
<g id="edge19_Node000011_Node000009" class="edge">
<title>Node11&#45;&gt;Node9</title>
<g id="a_edge19_Node000011_Node000009"><a xlink:title=" ">
<path fill="none" stroke="#63b8ff" d="M666.64,-288.08C674.47,-290.92 682.51,-293.97 690,-297 714.76,-307.03 742.01,-319.4 763.65,-329.57"/>
<polygon fill="#63b8ff" stroke="#63b8ff" points="762.33,-332.81 772.86,-333.92 765.32,-326.48 762.33,-332.81"/>
</a>
</g>
</g>
<!-- Node12 -->
<g id="Node000012" class="node">
<title>Node12</title>
<g id="a_Node000012"><a xlink:href="classwmtk_1_1dart_1_1_simplex_dart.html#a7b929a30594f63ccf71d51b167d4de23" target="_top" xlink:title=" ">
<polygon fill="white" stroke="#666666" points="884,-282.5 726,-282.5 726,-263.5 884,-263.5 884,-282.5"/>
<text text-anchor="middle" x="805" y="-270.5" font-family="Helvetica,sans-Serif" font-size="10.00">wmtk::dart::SimplexDart::act</text>
</a>
</g>
</g>
<!-- Node11&#45;&gt;Node12 -->
<g id="edge15_Node000011_Node000012" class="edge">
<title>Node11&#45;&gt;Node12</title>
<g id="a_edge15_Node000011_Node000012"><a xlink:title=" ">
<path fill="none" stroke="#63b8ff" d="M682.68,-273C693.27,-273 704.49,-273 715.65,-273"/>
<polygon fill="#63b8ff" stroke="#63b8ff" points="715.87,-276.5 725.87,-273 715.87,-269.5 715.87,-276.5"/>
</a>
</g>
</g>
<!-- Node12&#45;&gt;Node12 -->
<g id="edge16_Node000012_Node000012" class="edge">
<title>Node12&#45;&gt;Node12</title>
<g id="a_edge16_Node000012_Node000012"><a xlink:title=" ">
<path fill="none" stroke="#63b8ff" d="M776.95,-282.58C763.3,-291.23 772.65,-300.5 805,-300.5 827.24,-300.5 838.61,-296.12 839.11,-290.57"/>
<polygon fill="#63b8ff" stroke="#63b8ff" points="841.88,-288.44 833.05,-282.58 836.3,-292.67 841.88,-288.44"/>
</a>
</g>
</g>
<!-- Node13 -->
<g id="Node000013" class="node">
<title>Node13</title>
<g id="a_Node000013"><a xlink:href="classwmtk_1_1dart_1_1___dart.html#ac92923bc94a0aace84b2cf69f277f63a" target="_top" xlink:title=" ">
<polygon fill="white" stroke="#666666" points="1044.5,-264 936.5,-264 936.5,-234 1044.5,-234 1044.5,-264"/>
<text text-anchor="start" x="944.5" y="-252" font-family="Helvetica,sans-Serif" font-size="10.00">wmtk::dart::_Dart::</text>
<text text-anchor="middle" x="990.5" y="-241" font-family="Helvetica,sans-Serif" font-size="10.00">global_id</text>
</a>
</g>
</g>
<!-- Node12&#45;&gt;Node13 -->
<g id="edge17_Node000012_Node000013" class="edge">
<title>Node12&#45;&gt;Node13</title>
<g id="a_edge17_Node000012_Node000013"><a xlink:title=" ">
<path fill="none" stroke="#63b8ff" d="M878.79,-263.48C894.4,-261.44 910.77,-259.3 926,-257.31"/>
<polygon fill="#63b8ff" stroke="#63b8ff" points="926.87,-260.72 936.33,-255.95 925.96,-253.78 926.87,-260.72"/>
</a>
</g>
</g>
<!-- Node14 -->
<g id="Node000014" class="node">
<title>Node14</title>
<g id="a_Node000014"><a xlink:href="classwmtk_1_1dart_1_1___dart.html#aa34a01df7b33bec483a0da0158a1aca4" target="_top" xlink:title=" ">
<polygon fill="white" stroke="#666666" points="1044.5,-312 936.5,-312 936.5,-282 1044.5,-282 1044.5,-312"/>
<text text-anchor="start" x="944.5" y="-300" font-family="Helvetica,sans-Serif" font-size="10.00">wmtk::dart::_Dart::</text>
<text text-anchor="middle" x="990.5" y="-289" font-family="Helvetica,sans-Serif" font-size="10.00">permutation</text>
</a>
</g>
</g>
<!-- Node12&#45;&gt;Node14 -->
<g id="edge18_Node000012_Node000014" class="edge">
<title>Node12&#45;&gt;Node14</title>
<g id="a_edge18_Node000012_Node000014"><a xlink:title=" ">
<path fill="none" stroke="#63b8ff" d="M878.79,-282.52C894.4,-284.56 910.77,-286.7 926,-288.69"/>
<polygon fill="#63b8ff" stroke="#63b8ff" points="925.96,-292.22 936.33,-290.05 926.87,-285.28 925.96,-292.22"/>
</a>
</g>
</g>
<!-- Node15&#45;&gt;Node6 -->
<g id="edge22_Node000015_Node000006" class="edge">
<title>Node15&#45;&gt;Node6</title>
<g id="a_edge22_Node000015_Node000006"><a xlink:title=" ">
<path fill="none" stroke="#63b8ff" d="M674.03,-171.95C695.39,-165.72 720.34,-158.43 742.64,-151.92"/>
<polygon fill="#63b8ff" stroke="#63b8ff" points="743.73,-155.25 752.35,-149.08 741.77,-148.53 743.73,-155.25"/>
</a>
</g>
</g>
<!-- Node15&#45;&gt;Node7 -->
<g id="edge23_Node000015_Node000007" class="edge">
<title>Node15&#45;&gt;Node7</title>
<g id="a_edge23_Node000015_Node000007"><a xlink:title=" ">
<path fill="none" stroke="#63b8ff" d="M684.71,-201.74C699.52,-205.25 715.47,-209.03 730.73,-212.64"/>
<polygon fill="#63b8ff" stroke="#63b8ff" points="730.1,-216.09 740.64,-214.99 731.72,-209.28 730.1,-216.09"/>
</a>
</g>
</g>
<!-- Node16 -->
<g id="Node000016" class="node">
<title>Node16</title>
<g id="a_Node000016"><a xlink:href="namespacewmtk.html#a5cf45c152e856196bb734c6f48919a24" target="_top" xlink:title="Get a unique integer id corresponding to each primitive type.">
<polygon fill="white" stroke="#666666" points="863,-197 747,-197 747,-167 863,-167 863,-197"/>
<text text-anchor="start" x="755" y="-185" font-family="Helvetica,sans-Serif" font-size="10.00">wmtk::get_primitive</text>
<text text-anchor="middle" x="805" y="-174" font-family="Helvetica,sans-Serif" font-size="10.00">_type_id</text>
</a>
</g>
</g>
<!-- Node15&#45;&gt;Node16 -->
<g id="edge21_Node000015_Node000016" class="edge">
<title>Node15&#45;&gt;Node16</title>
<g id="a_edge21_Node000015_Node000016"><a xlink:title=" ">
<path fill="none" stroke="#63b8ff" d="M684.71,-185.29C701.36,-184.83 719.45,-184.33 736.38,-183.86"/>
<polygon fill="#63b8ff" stroke="#63b8ff" points="736.85,-187.35 746.75,-183.58 736.66,-180.35 736.85,-187.35"/>
</a>
</g>
</g>
</g>
</svg>

<g id="navigator" transform="translate(0 0)" fill="#404254">
  <rect fill="#f2f5e9" fill-opacity="0.5" stroke="#606060" stroke-width=".5" x="0" y="0" width="60" height="60"/>
  <use id="zoomplus" xlink:href="#zoomPlus" x="17" y="9" onmousedown="handleZoom(evt,'in')"/>
  <use id="zoomminus" xlink:href="#zoomMin" x="42" y="9" onmousedown="handleZoom(evt,'out')"/>
  <use id="reset" xlink:href="#resetDef" x="30" y="36" onmousedown="handleReset()"/>
   <use id="arrowup" xlink:href="#arrowUp" x="0" y="0" onmousedown="handlePan(0,-1)"/>
  <use id="arrowright" xlink:href="#arrowRight" x="0" y="0" onmousedown="handlePan(1,0)"/>
  <use id="arrowdown" xlink:href="#arrowDown" x="0" y="0" onmousedown="handlePan(0,1)"/>
  <use id="arrowleft" xlink:href="#arrowLeft" x="0" y="0" onmousedown="handlePan(-1,0)"/>
</g>
<svg viewBox="0 0 15 15" width="100%" height="30px" preserveAspectRatio="xMaxYMin meet">
 <g id="arrow_out" transform="scale(0.3 0.3)">
  <a xlink:href="namespacewmtk_1_1dart_1_1utils_a38d4e769a52b66206b96a5bd6c76616c_cgraph_org.svg" target="_base">
   <rect id="button" ry="5" rx="5" y="6" x="6" height="38" width="38"
        fill="#f2f5e9" fill-opacity="0.5" stroke="#606060" stroke-width="1.0"/>
   <path id="arrow"
     d="M 11.500037,31.436501 C 11.940474,20.09759 22.043105,11.32322 32.158766,21.979434 L 37.068811,17.246167 C 37.068811,17.246167 37.088388,32 37.088388,32 L 22.160133,31.978069 C 22.160133,31.978069 26.997745,27.140456 26.997745,27.140456 C 18.528582,18.264221 13.291696,25.230495 11.500037,31.436501 z"
     style="fill:#404040;"/>
  </a>
 </g>
</svg>

<style type='text/css'>
<![CDATA[
[data-mouse-over-selected='false'] { opacity: 0.7; }
[data-mouse-over-selected='true']  { opacity: 1.0; }
]]>
</style>
<script type="application/ecmascript"><![CDATA[
document.addEventListener('DOMContentLoaded', (event) => {
  highlightEdges();
  highlightAdjacentNodes();
});
]]></script>
</svg>
