<?xml version="1.0" encoding="UTF-8" standalone="no"?>
<!DOCTYPE svg PUBLIC "-//W3C//DTD SVG 1.1//EN"
 "http://www.w3.org/Graphics/SVG/1.1/DTD/svg11.dtd">
<!-- Generated by graphviz version 2.43.0 (0)
 -->
<!-- Title: wmtk::dart::subgroup::can_convert Pages: 1 -->
<svg width="483pt" height="56pt"
 viewBox="0.00 0.00 483.00 56.00" xmlns="http://www.w3.org/2000/svg" xmlns:xlink="http://www.w3.org/1999/xlink">
<g id="graph0" class="graph" transform="scale(1 1) rotate(0) translate(4 52)">
<title>wmtk::dart::subgroup::can_convert</title>
<!-- Node1 -->
<g id="Node000001" class="node">
<title>Node1</title>
<g id="a_Node000001"><a xlink:title=" ">
<polygon fill="#999999" stroke="#666666" points="121,-30 0,-30 0,0 121,0 121,-30"/>
<text text-anchor="start" x="8" y="-18" font-family="Helvetica,sans-Serif" font-size="10.00">wmtk::dart::subgroup</text>
<text text-anchor="middle" x="60.5" y="-7" font-family="Helvetica,sans-Serif" font-size="10.00">::can_convert</text>
</a>
</g>
</g>
<!-- Node2 -->
<g id="Node000002" class="node">
<title>Node2</title>
<g id="a_Node000002"><a xlink:href="namespacewmtk_1_1autogen_1_1subgroup.html#aa24929f1f8821e8e3fbb2fc51169c80c" target="_top" xlink:title=" ">
<polygon fill="white" stroke="#666666" points="298,-30 157,-30 157,0 298,0 298,-30"/>
<text text-anchor="start" x="165" y="-18" font-family="Helvetica,sans-Serif" font-size="10.00">wmtk::autogen::subgroup</text>
<text text-anchor="middle" x="227.5" y="-7" font-family="Helvetica,sans-Serif" font-size="10.00">::can_convert</text>
</a>
</g>
</g>
<!-- Node1&#45;&gt;Node2 -->
<g id="edge1_Node000001_Node000002" class="edge">
<title>Node1&#45;&gt;Node2</title>
<g id="a_edge1_Node000001_Node000002"><a xlink:title=" ">
<path fill="none" stroke="#63b8ff" d="M121.07,-15C129.43,-15 138.13,-15 146.79,-15"/>
<polygon fill="#63b8ff" stroke="#63b8ff" points="146.91,-18.5 156.91,-15 146.91,-11.5 146.91,-18.5"/>
</a>
</g>
</g>
<!-- Node3 -->
<g id="Node000003" class="node">
<title>Node3</title>
<g id="a_Node000003"><a xlink:href="namespacewmtk_1_1autogen_1_1subgroup.html#a9b4c9cc6aebaf0622a95cb3174d984e1" target="_top" xlink:title=" ">
<polygon fill="white" stroke="#666666" points="475,-30 334,-30 334,0 475,0 475,-30"/>
<text text-anchor="start" x="342" y="-18" font-family="Helvetica,sans-Serif" font-size="10.00">wmtk::autogen::subgroup</text>
<text text-anchor="middle" x="404.5" y="-7" font-family="Helvetica,sans-Serif" font-size="10.00">::convert</text>
</a>
</g>
</g>
<!-- Node2&#45;&gt;Node3 -->
<g id="edge2_Node000002_Node000003" class="edge">
<title>Node2&#45;&gt;Node3</title>
<g id="a_edge2_Node000002_Node000003"><a xlink:title=" ">
<path fill="none" stroke="#63b8ff" d="M298.17,-15C306.5,-15 315.06,-15 323.53,-15"/>
<polygon fill="#63b8ff" stroke="#63b8ff" points="323.79,-18.5 333.79,-15 323.79,-11.5 323.79,-18.5"/>
</a>
</g>
</g>
<!-- Node3&#45;&gt;Node3 -->
<g id="edge3_Node000003_Node000003" class="edge">
<title>Node3&#45;&gt;Node3</title>
<g id="a_edge3_Node000003_Node000003"><a xlink:title=" ">
<path fill="none" stroke="#63b8ff" d="M373.56,-30.28C366.69,-39.41 377,-48 404.5,-48 420.83,-48 431.1,-44.97 435.31,-40.6"/>
<polygon fill="#63b8ff" stroke="#63b8ff" points="438.81,-40.32 435.44,-30.28 431.81,-40.23 438.81,-40.32"/>
</a>
</g>
</g>
</g>
</svg>
