<?xml version="1.0" encoding="UTF-8" standalone="no"?>
<!DOCTYPE svg PUBLIC "-//W3C//DTD SVG 1.1//EN"
 "http://www.w3.org/Graphics/SVG/1.1/DTD/svg11.dtd">
<!-- Generated by graphviz version 2.43.0 (0)
 -->
<!-- Title: wmtk::dart::utils::get_faces Pages: 1 -->
<svg width="457pt" height="107pt"
 viewBox="0.00 0.00 457.00 107.00" xmlns="http://www.w3.org/2000/svg" xmlns:xlink="http://www.w3.org/1999/xlink">
<g id="graph0" class="graph" transform="scale(1 1) rotate(0) translate(4 103)">
<title>wmtk::dart::utils::get_faces</title>
<!-- Node1 -->
<g id="Node000001" class="node">
<title>Node1</title>
<g id="a_Node000001"><a xlink:title=" ">
<polygon fill="#999999" stroke="#666666" points="103,-78 0,-78 0,-48 103,-48 103,-78"/>
<text text-anchor="start" x="8" y="-66" font-family="Helvetica,sans-Serif" font-size="10.00">wmtk::dart::utils::</text>
<text text-anchor="middle" x="51.5" y="-55" font-family="Helvetica,sans-Serif" font-size="10.00">get_faces</text>
</a>
</g>
</g>
<!-- Node2 -->
<g id="Node000002" class="node">
<title>Node2</title>
<g id="a_Node000002"><a xlink:href="namespacewmtk_1_1dart_1_1utils.html#a62be23fd3b19b60fa0ad46c373eb215c" target="_top" xlink:title=" ">
<polygon fill="white" stroke="#666666" points="265.5,-78 149.5,-78 149.5,-48 265.5,-48 265.5,-78"/>
<text text-anchor="start" x="157.5" y="-66" font-family="Helvetica,sans-Serif" font-size="10.00">wmtk::dart::utils::</text>
<text text-anchor="middle" x="207.5" y="-55" font-family="Helvetica,sans-Serif" font-size="10.00">get_canonical_faces</text>
</a>
</g>
</g>
<!-- Node1&#45;&gt;Node2 -->
<g id="edge1_Node000001_Node000002" class="edge">
<title>Node1&#45;&gt;Node2</title>
<g id="a_edge1_Node000001_Node000002"><a xlink:title=" ">
<path fill="none" stroke="#63b8ff" d="M103.35,-63C114.85,-63 127.23,-63 139.29,-63"/>
<polygon fill="#63b8ff" stroke="#63b8ff" points="139.31,-66.5 149.31,-63 139.31,-59.5 139.31,-66.5"/>
</a>
</g>
</g>
<!-- Node3 -->
<g id="Node000003" class="node">
<title>Node3</title>
<g id="a_Node000003"><a xlink:href="namespacewmtk.html#a5cf45c152e856196bb734c6f48919a24" target="_top" xlink:title="Get a unique integer id corresponding to each primitive type.">
<polygon fill="white" stroke="#666666" points="438.5,-99 322.5,-99 322.5,-69 438.5,-69 438.5,-99"/>
<text text-anchor="start" x="330.5" y="-87" font-family="Helvetica,sans-Serif" font-size="10.00">wmtk::get_primitive</text>
<text text-anchor="middle" x="380.5" y="-76" font-family="Helvetica,sans-Serif" font-size="10.00">_type_id</text>
</a>
</g>
</g>
<!-- Node1&#45;&gt;Node3 -->
<g id="edge4_Node000001_Node000003" class="edge">
<title>Node1&#45;&gt;Node3</title>
<g id="a_edge4_Node000001_Node000003"><a xlink:title=" ">
<path fill="none" stroke="#63b8ff" d="M97.81,-78.05C110.94,-81.74 125.41,-85.15 139,-87 197.13,-94.92 263.9,-93.24 312.31,-90.11"/>
<polygon fill="#63b8ff" stroke="#63b8ff" points="312.62,-93.6 322.36,-89.43 312.14,-86.62 312.62,-93.6"/>
</a>
</g>
</g>
<!-- Node5 -->
<g id="Node000005" class="node">
<title>Node5</title>
<g id="a_Node000005"><a xlink:href="classwmtk_1_1dart_1_1_simplex_dart.html#a3949350f736cbf567bf566fd7565e6e8" target="_top" xlink:title=" ">
<polygon fill="white" stroke="#666666" points="276,-30 139,-30 139,0 276,0 276,-30"/>
<text text-anchor="start" x="147" y="-18" font-family="Helvetica,sans-Serif" font-size="10.00">wmtk::dart::SimplexDart</text>
<text text-anchor="middle" x="207.5" y="-7" font-family="Helvetica,sans-Serif" font-size="10.00">::get_singleton</text>
</a>
</g>
</g>
<!-- Node1&#45;&gt;Node5 -->
<g id="edge5_Node000001_Node000005" class="edge">
<title>Node1&#45;&gt;Node5</title>
<g id="a_edge5_Node000001_Node000005"><a xlink:title=" ">
<path fill="none" stroke="#63b8ff" d="M100.8,-47.94C116,-43.21 132.93,-37.93 148.71,-33.01"/>
<polygon fill="#63b8ff" stroke="#63b8ff" points="149.86,-36.32 158.37,-30 147.78,-29.64 149.86,-36.32"/>
</a>
</g>
</g>
<!-- Node2&#45;&gt;Node3 -->
<g id="edge2_Node000002_Node000003" class="edge">
<title>Node2&#45;&gt;Node3</title>
<g id="a_edge2_Node000002_Node000003"><a xlink:title=" ">
<path fill="none" stroke="#63b8ff" d="M265.92,-70.05C280.8,-71.88 296.96,-73.86 312.3,-75.75"/>
<polygon fill="#63b8ff" stroke="#63b8ff" points="311.88,-79.22 322.24,-76.97 312.74,-72.27 311.88,-79.22"/>
</a>
</g>
</g>
<!-- Node4 -->
<g id="Node000004" class="node">
<title>Node4</title>
<g id="a_Node000004"><a xlink:href="classwmtk_1_1dart_1_1_simplex_dart.html#a75defb2c9d167b36c7fc73cd7d5bba60" target="_top" xlink:title=" ">
<polygon fill="white" stroke="#666666" points="449,-41 312,-41 312,-11 449,-11 449,-41"/>
<text text-anchor="start" x="320" y="-29" font-family="Helvetica,sans-Serif" font-size="10.00">wmtk::dart::SimplexDart</text>
<text text-anchor="middle" x="380.5" y="-18" font-family="Helvetica,sans-Serif" font-size="10.00">::simplex_type</text>
</a>
</g>
</g>
<!-- Node2&#45;&gt;Node4 -->
<g id="edge3_Node000002_Node000004" class="edge">
<title>Node2&#45;&gt;Node4</title>
<g id="a_edge3_Node000002_Node000004"><a xlink:title=" ">
<path fill="none" stroke="#63b8ff" d="M265.92,-50.58C277.44,-48.08 289.73,-45.42 301.8,-42.81"/>
<polygon fill="#63b8ff" stroke="#63b8ff" points="302.84,-46.17 311.88,-40.63 301.36,-39.33 302.84,-46.17"/>
</a>
</g>
</g>
<!-- Node5&#45;&gt;Node4 -->
<g id="edge6_Node000005_Node000004" class="edge">
<title>Node5&#45;&gt;Node4</title>
<g id="a_edge6_Node000005_Node000004"><a xlink:title=" ">
<path fill="none" stroke="#63b8ff" d="M276.08,-19.35C284.54,-19.89 293.24,-20.45 301.83,-21"/>
<polygon fill="#63b8ff" stroke="#63b8ff" points="301.64,-24.5 311.85,-21.65 302.09,-17.51 301.64,-24.5"/>
</a>
</g>
</g>
</g>
</svg>
