<?xml version="1.0" encoding="UTF-8" standalone="no"?>
<!DOCTYPE svg PUBLIC "-//W3C//DTD SVG 1.1//EN"
 "http://www.w3.org/Graphics/SVG/1.1/DTD/svg11.dtd">
<!-- Generated by graphviz version 2.43.0 (0)
 -->
<!-- Title: wmtk::multimesh::utils::internal::print_all_mapped_tuples Pages: 1 -->
<!--zoomable 560 -->

<svg id="main" version="1.1" xmlns="http://www.w3.org/2000/svg" xmlns:xlink="http://www.w3.org/1999/xlink" xml:space="preserve" onload="init(evt)">
<style type="text/css"><![CDATA[
.node, .edge {opacity: 0.7;}
.node.selected, .edge.selected {opacity: 1;}
.edge:hover path { stroke: red; }
.edge:hover polygon { stroke: red; fill: red; }
]]></style>

<defs>
  <circle id="rim" cx="0" cy="0" r="7"/>
  <circle id="rim2" cx="0" cy="0" r="3.5"/>
  <g id="zoomPlus">
    <use xlink:href="#rim" fill="#404040"><set attributeName="fill" to="#808080" begin="zoomplus.mouseover" end="zoomplus.mouseout"/></use>
    <path d="M-4,0h8M0,-4v8" fill="none" stroke="white" stroke-width="1.5" pointer-events="none"/>
  </g>
  <g id="zoomMin">
    <use xlink:href="#rim" fill="#404040"><set attributeName="fill" to="#808080" begin="zoomminus.mouseover" end="zoomminus.mouseout"/></use>
    <path d="M-4,0h8" fill="none" stroke="white" stroke-width="1.5" pointer-events="none"/>
  </g>
  <g id="arrowUp" transform="translate(30 24)">
    <use xlink:href="#rim"/>
    <path pointer-events="none" fill="none" stroke="white" stroke-width="1.5" d="M0,-3.0v7 M-2.5,-0.5L0,-3.0L2.5,-0.5"/>
  </g>
  <g id="arrowRight" transform="rotate(90) translate(36 -43)">
    <use xlink:href="#rim"/>
    <path pointer-events="none" fill="none" stroke="white" stroke-width="1.5" d="M0,-3.0v7 M-2.5,-0.5L0,-3.0L2.5,-0.5"/>
  </g>
  <g id="arrowDown" transform="rotate(180) translate(-30 -48)">
    <use xlink:href="#rim"/>
    <path pointer-events="none" fill="none" stroke="white" stroke-width="1.5" d="M0,-3.0v7 M-2.5,-0.5L0,-3.0L2.5,-0.5"/>
  </g>
  <g id="arrowLeft" transform="rotate(270) translate(-36 17)">
    <use xlink:href="#rim"/>
    <path pointer-events="none" fill="none" stroke="white" stroke-width="1.5" d="M0,-3.0v7 M-2.5,-0.5L0,-3.0L2.5,-0.5"/>
  </g>
  <g id="resetDef">
    <use xlink:href="#rim2" fill="#404040"><set attributeName="fill" to="#808080" begin="reset.mouseover" end="reset.mouseout"/></use>
  </g>
</defs>
<script type="application/ecmascript">
var viewWidth = 1129;
var viewHeight = 560;
var sectionId = 'dynsection-0';
</script>
<script type="application/ecmascript" xlink:href="svg.min.js"/>
<svg id="graph" class="graph">
<g id="viewport">
<title>wmtk::multimesh::utils::internal::print_all_mapped_tuples</title>
<!-- Node1 -->
<g id="Node000001" class="node">
<title>Node1</title>
<g id="a_Node000001"><a xlink:title=" ">
<polygon fill="#999999" stroke="#666666" points="130,-159.5 0,-159.5 0,-118.5 130,-118.5 130,-159.5"/>
<text text-anchor="start" x="8" y="-147.5" font-family="Helvetica,sans-Serif" font-size="10.00">wmtk::multimesh::utils</text>
<text text-anchor="start" x="8" y="-136.5" font-family="Helvetica,sans-Serif" font-size="10.00">::internal::print_all</text>
<text text-anchor="middle" x="65" y="-125.5" font-family="Helvetica,sans-Serif" font-size="10.00">_mapped_tuples</text>
</a>
</g>
</g>
<!-- Node2 -->
<g id="Node000002" class="node">
<title>Node2</title>
<g id="a_Node000002"><a xlink:href="classwmtk_1_1dart_1_1_simplex_dart.html#a123cd955047d071c16eb48528dc318d5" target="_top" xlink:title=" ">
<polygon fill="white" stroke="#666666" points="304.5,-407 167.5,-407 167.5,-377 304.5,-377 304.5,-407"/>
<text text-anchor="start" x="175.5" y="-395" font-family="Helvetica,sans-Serif" font-size="10.00">wmtk::dart::SimplexDart</text>
<text text-anchor="middle" x="236" y="-384" font-family="Helvetica,sans-Serif" font-size="10.00">::dart_from_tuple</text>
</a>
</g>
</g>
<!-- Node1&#45;&gt;Node2 -->
<g id="edge1_Node000001_Node000002" class="edge">
<title>Node1&#45;&gt;Node2</title>
<g id="a_edge1_Node000001_Node000002"><a xlink:title=" ">
<path fill="none" stroke="#63b8ff" d="M78.53,-159.72C97.08,-190.18 133.19,-248.65 166,-297 182.87,-321.87 203.2,-349.6 217.4,-368.65"/>
<polygon fill="#63b8ff" stroke="#63b8ff" points="214.67,-370.84 223.46,-376.75 220.27,-366.64 214.67,-370.84"/>
</a>
</g>
</g>
<!-- Node16 -->
<g id="Node000016" class="node">
<title>Node16</title>
<g id="a_Node000016"><a xlink:href="classwmtk_1_1dart_1_1_simplex_dart.html#a3949350f736cbf567bf566fd7565e6e8" target="_top" xlink:title=" ">
<polygon fill="white" stroke="#666666" points="304.5,-288 167.5,-288 167.5,-258 304.5,-258 304.5,-288"/>
<text text-anchor="start" x="175.5" y="-276" font-family="Helvetica,sans-Serif" font-size="10.00">wmtk::dart::SimplexDart</text>
<text text-anchor="middle" x="236" y="-265" font-family="Helvetica,sans-Serif" font-size="10.00">::get_singleton</text>
</a>
</g>
</g>
<!-- Node1&#45;&gt;Node16 -->
<g id="edge18_Node000001_Node000016" class="edge">
<title>Node1&#45;&gt;Node16</title>
<g id="a_edge18_Node000001_Node000016"><a xlink:title=" ">
<path fill="none" stroke="#63b8ff" d="M92.04,-159.64C123.48,-184.58 176.12,-226.32 208,-251.59"/>
<polygon fill="#63b8ff" stroke="#63b8ff" points="206,-254.48 216.01,-257.95 210.35,-248.99 206,-254.48"/>
</a>
</g>
</g>
<!-- Node17 -->
<g id="Node000017" class="node">
<title>Node17</title>
<g id="a_Node000017"><a xlink:href="classwmtk_1_1dart_1_1___dart.html#ac92923bc94a0aace84b2cf69f277f63a" target="_top" xlink:title=" ">
<polygon fill="white" stroke="#666666" points="688.5,-154 580.5,-154 580.5,-124 688.5,-124 688.5,-154"/>
<text text-anchor="start" x="588.5" y="-142" font-family="Helvetica,sans-Serif" font-size="10.00">wmtk::dart::_Dart::</text>
<text text-anchor="middle" x="634.5" y="-131" font-family="Helvetica,sans-Serif" font-size="10.00">global_id</text>
</a>
</g>
</g>
<!-- Node1&#45;&gt;Node17 -->
<g id="edge20_Node000001_Node000017" class="edge">
<title>Node1&#45;&gt;Node17</title>
<g id="a_edge20_Node000001_Node000017"><a xlink:title=" ">
<path fill="none" stroke="#63b8ff" d="M130.09,-129.42C217.34,-117.78 378.29,-101.3 515,-115 533.07,-116.81 552.46,-120.14 570.22,-123.75"/>
<polygon fill="#63b8ff" stroke="#63b8ff" points="569.95,-127.27 580.46,-125.9 571.39,-120.42 569.95,-127.27"/>
</a>
</g>
</g>
<!-- Node18 -->
<g id="Node000018" class="node">
<title>Node18</title>
<g id="a_Node000018"><a xlink:href="classwmtk_1_1dart_1_1___dart.html#ae8b8b6cb44a149bdd5b106e1302b062d" target="_top" xlink:title=" ">
<polygon fill="white" stroke="#666666" points="482.5,-154 374.5,-154 374.5,-124 482.5,-124 482.5,-154"/>
<text text-anchor="start" x="382.5" y="-142" font-family="Helvetica,sans-Serif" font-size="10.00">wmtk::dart::_Dart::</text>
<text text-anchor="middle" x="428.5" y="-131" font-family="Helvetica,sans-Serif" font-size="10.00">is_null</text>
</a>
</g>
</g>
<!-- Node1&#45;&gt;Node18 -->
<g id="edge21_Node000001_Node000018" class="edge">
<title>Node1&#45;&gt;Node18</title>
<g id="a_edge21_Node000001_Node000018"><a xlink:title=" ">
<path fill="none" stroke="#63b8ff" d="M130.21,-139C196.27,-139 298.53,-139 364.24,-139"/>
<polygon fill="#63b8ff" stroke="#63b8ff" points="364.46,-142.5 374.46,-139 364.46,-135.5 364.46,-142.5"/>
</a>
</g>
</g>
<!-- Node19 -->
<g id="Node000019" class="node">
<title>Node19</title>
<g id="a_Node000019"><a xlink:href="namespacewmtk.html#a6a35f11c12436093d26fdd8be6fecc06" target="_top" xlink:title="Retrieves the current logger.">
<polygon fill="white" stroke="#666666" points="276.5,-67.5 195.5,-67.5 195.5,-48.5 276.5,-48.5 276.5,-67.5"/>
<text text-anchor="middle" x="236" y="-55.5" font-family="Helvetica,sans-Serif" font-size="10.00">wmtk::logger</text>
</a>
</g>
</g>
<!-- Node1&#45;&gt;Node19 -->
<g id="edge23_Node000001_Node000019" class="edge">
<title>Node1&#45;&gt;Node19</title>
<g id="a_edge23_Node000001_Node000019"><a xlink:title=" ">
<path fill="none" stroke="#63b8ff" d="M98.53,-118.43C117.71,-106.83 142.71,-92.58 166,-82 174.91,-77.95 184.72,-74.16 194.08,-70.84"/>
<polygon fill="#63b8ff" stroke="#63b8ff" points="195.29,-74.13 203.61,-67.57 193.02,-67.51 195.29,-74.13"/>
</a>
</g>
</g>
<!-- Node21 -->
<g id="Node000021" class="node">
<title>Node21</title>
<g id="a_Node000021"><a xlink:href="classwmtk_1_1dart_1_1_dart_accessor.html#abe133ce32adc52abfc8632338d3e1be9" target="_top" xlink:title=" ">
<polygon fill="white" stroke="#666666" points="306,-30 166,-30 166,0 306,0 306,-30"/>
<text text-anchor="start" x="174" y="-18" font-family="Helvetica,sans-Serif" font-size="10.00">wmtk::dart::DartAccessor</text>
<text text-anchor="middle" x="236" y="-7" font-family="Helvetica,sans-Serif" font-size="10.00">::mesh</text>
</a>
</g>
</g>
<!-- Node1&#45;&gt;Node21 -->
<g id="edge25_Node000001_Node000021" class="edge">
<title>Node1&#45;&gt;Node21</title>
<g id="a_edge25_Node000001_Node000021"><a xlink:title=" ">
<path fill="none" stroke="#63b8ff" d="M81.91,-118.23C100.06,-95.84 131.68,-60.52 166,-39 168.6,-37.37 171.33,-35.83 174.14,-34.38"/>
<polygon fill="#63b8ff" stroke="#63b8ff" points="175.75,-37.49 183.31,-30.07 172.77,-31.16 175.75,-37.49"/>
</a>
</g>
</g>
<!-- Node22 -->
<g id="Node000022" class="node">
<title>Node22</title>
<g id="a_Node000022"><a xlink:href="classwmtk_1_1dart_1_1_simplex_dart.html#a00e0cc038708281bcb75a6a6d5e6aaff" target="_top" xlink:title=" ">
<polygon fill="white" stroke="#666666" points="304.5,-197 167.5,-197 167.5,-167 304.5,-167 304.5,-197"/>
<text text-anchor="start" x="175.5" y="-185" font-family="Helvetica,sans-Serif" font-size="10.00">wmtk::dart::SimplexDart</text>
<text text-anchor="middle" x="236" y="-174" font-family="Helvetica,sans-Serif" font-size="10.00">::tuple_from_dart</text>
</a>
</g>
</g>
<!-- Node1&#45;&gt;Node22 -->
<g id="edge26_Node000001_Node000022" class="edge">
<title>Node1&#45;&gt;Node22</title>
<g id="a_edge26_Node000001_Node000022"><a xlink:title=" ">
<path fill="none" stroke="#63b8ff" d="M130.37,-155.38C142.03,-158.35 154.24,-161.45 166.02,-164.45"/>
<polygon fill="#63b8ff" stroke="#63b8ff" points="165.25,-167.86 175.8,-166.94 166.97,-161.08 165.25,-167.86"/>
</a>
</g>
</g>
<!-- Node3 -->
<g id="Node000003" class="node">
<title>Node3</title>
<g id="a_Node000003"><a xlink:href="classwmtk_1_1_tuple.html#aef64a43ff5f5617dbc99d865356bbc25" target="_top" xlink:title=" ">
<polygon fill="white" stroke="#666666" points="494,-438.5 363,-438.5 363,-419.5 494,-419.5 494,-438.5"/>
<text text-anchor="middle" x="428.5" y="-426.5" font-family="Helvetica,sans-Serif" font-size="10.00">wmtk::Tuple::global_cid</text>
</a>
</g>
</g>
<!-- Node2&#45;&gt;Node3 -->
<g id="edge2_Node000002_Node000003" class="edge">
<title>Node2&#45;&gt;Node3</title>
<g id="a_edge2_Node000002_Node000003"><a xlink:title=" ">
<path fill="none" stroke="#63b8ff" d="M304.7,-405.15C325.56,-409.2 348.35,-413.63 368.57,-417.55"/>
<polygon fill="#63b8ff" stroke="#63b8ff" points="368.09,-421.03 378.57,-419.5 369.42,-414.15 368.09,-421.03"/>
</a>
</g>
</g>
<!-- Node4 -->
<g id="Node000004" class="node">
<title>Node4</title>
<g id="a_Node000004"><a xlink:href="classwmtk_1_1_tuple.html#a0023f575be92cd5ceeeaaaa3762ea06d" target="_top" xlink:title="Checks if a tuple is &quot;null&quot;. This merely implies the global index is &#45;1.">
<polygon fill="white" stroke="#666666" points="485,-401.5 372,-401.5 372,-382.5 485,-382.5 485,-401.5"/>
<text text-anchor="middle" x="428.5" y="-389.5" font-family="Helvetica,sans-Serif" font-size="10.00">wmtk::Tuple::is_null</text>
</a>
</g>
</g>
<!-- Node2&#45;&gt;Node4 -->
<g id="edge3_Node000002_Node000004" class="edge">
<title>Node2&#45;&gt;Node4</title>
<g id="a_edge3_Node000002_Node000004"><a xlink:title=" ">
<path fill="none" stroke="#63b8ff" d="M304.7,-392C323.29,-392 343.41,-392 361.88,-392"/>
<polygon fill="#63b8ff" stroke="#63b8ff" points="361.95,-395.5 371.95,-392 361.95,-388.5 361.95,-395.5"/>
</a>
</g>
</g>
<!-- Node5 -->
<g id="Node000005" class="node">
<title>Node5</title>
<g id="a_Node000005"><a xlink:href="namespacewmtk_1_1dart_1_1utils.html#a5938bfad02927360fa7dbdc22ba196af" target="_top" xlink:title=" ">
<polygon fill="white" stroke="#666666" points="512,-487 345,-487 345,-457 512,-457 512,-487"/>
<text text-anchor="start" x="353" y="-475" font-family="Helvetica,sans-Serif" font-size="10.00">wmtk::dart::utils::</text>
<text text-anchor="middle" x="428.5" y="-464" font-family="Helvetica,sans-Serif" font-size="10.00">permutation_index_from_tuple</text>
</a>
</g>
</g>
<!-- Node2&#45;&gt;Node5 -->
<g id="edge4_Node000002_Node000005" class="edge">
<title>Node2&#45;&gt;Node5</title>
<g id="a_edge4_Node000002_Node000005"><a xlink:title=" ">
<path fill="none" stroke="#63b8ff" d="M261.72,-407.16C282.55,-419.44 313.43,-436.53 342,-448 347.1,-450.05 352.43,-451.99 357.84,-453.81"/>
<polygon fill="#63b8ff" stroke="#63b8ff" points="357.02,-457.23 367.61,-456.98 359.17,-450.57 357.02,-457.23"/>
</a>
</g>
</g>
<!-- Node15 -->
<g id="Node000015" class="node">
<title>Node15</title>
<g id="a_Node000015"><a xlink:href="classwmtk_1_1dart_1_1_simplex_dart.html#a75defb2c9d167b36c7fc73cd7d5bba60" target="_top" xlink:title=" ">
<polygon fill="white" stroke="#666666" points="703,-331 566,-331 566,-301 703,-301 703,-331"/>
<text text-anchor="start" x="574" y="-319" font-family="Helvetica,sans-Serif" font-size="10.00">wmtk::dart::SimplexDart</text>
<text text-anchor="middle" x="634.5" y="-308" font-family="Helvetica,sans-Serif" font-size="10.00">::simplex_type</text>
</a>
</g>
</g>
<!-- Node2&#45;&gt;Node15 -->
<g id="edge17_Node000002_Node000015" class="edge">
<title>Node2&#45;&gt;Node15</title>
<g id="a_edge17_Node000002_Node000015"><a xlink:title=" ">
<path fill="none" stroke="#63b8ff" d="M304.71,-379.02C374.32,-365.68 482.57,-344.93 555.66,-330.92"/>
<polygon fill="#63b8ff" stroke="#63b8ff" points="556.58,-334.31 565.74,-328.99 555.26,-327.43 556.58,-334.31"/>
</a>
</g>
</g>
<!-- Node6 -->
<g id="Node000006" class="node">
<title>Node6</title>
<g id="a_Node000006"><a xlink:href="namespacewmtk_1_1autogen_1_1edge__mesh.html#ab110df2d03a15f064e8c11baff7a0af1" target="_top" xlink:title=" ">
<polygon fill="white" stroke="#666666" points="708,-551.5 561,-551.5 561,-510.5 708,-510.5 708,-551.5"/>
<text text-anchor="start" x="569" y="-539.5" font-family="Helvetica,sans-Serif" font-size="10.00">wmtk::autogen::edge</text>
<text text-anchor="start" x="569" y="-528.5" font-family="Helvetica,sans-Serif" font-size="10.00">_mesh::permutation_index</text>
<text text-anchor="middle" x="634.5" y="-517.5" font-family="Helvetica,sans-Serif" font-size="10.00">_from_tuple</text>
</a>
</g>
</g>
<!-- Node5&#45;&gt;Node6 -->
<g id="edge5_Node000005_Node000006" class="edge">
<title>Node5&#45;&gt;Node6</title>
<g id="a_edge5_Node000005_Node000006"><a xlink:title=" ">
<path fill="none" stroke="#63b8ff" d="M481.51,-487.04C503.09,-493.28 528.63,-500.67 552.56,-507.59"/>
<polygon fill="#63b8ff" stroke="#63b8ff" points="551.77,-511.01 562.35,-510.42 553.71,-504.28 551.77,-511.01"/>
</a>
</g>
</g>
<!-- Node9 -->
<g id="Node000009" class="node">
<title>Node9</title>
<g id="a_Node000009"><a xlink:href="namespacewmtk_1_1autogen_1_1tet__mesh.html#a8087691d4dd17f9001503a1f57362ecc" target="_top" xlink:title=" ">
<polygon fill="white" stroke="#666666" points="708,-433.5 561,-433.5 561,-392.5 708,-392.5 708,-433.5"/>
<text text-anchor="start" x="569" y="-421.5" font-family="Helvetica,sans-Serif" font-size="10.00">wmtk::autogen::tet</text>
<text text-anchor="start" x="569" y="-410.5" font-family="Helvetica,sans-Serif" font-size="10.00">_mesh::permutation_index</text>
<text text-anchor="middle" x="634.5" y="-399.5" font-family="Helvetica,sans-Serif" font-size="10.00">_from_tuple</text>
</a>
</g>
</g>
<!-- Node5&#45;&gt;Node9 -->
<g id="edge8_Node000005_Node000009" class="edge">
<title>Node5&#45;&gt;Node9</title>
<g id="a_edge8_Node000005_Node000009"><a xlink:title=" ">
<path fill="none" stroke="#63b8ff" d="M483.81,-456.87C494.17,-453.96 504.93,-450.9 515,-448 527.94,-444.27 541.66,-440.27 554.99,-436.35"/>
<polygon fill="#63b8ff" stroke="#63b8ff" points="556.01,-439.7 564.62,-433.52 554.04,-432.98 556.01,-439.7"/>
</a>
</g>
</g>
<!-- Node13 -->
<g id="Node000013" class="node">
<title>Node13</title>
<g id="a_Node000013"><a xlink:href="namespacewmtk_1_1autogen_1_1tri__mesh.html#acda8bc53cd7772a2c5f3209eb646b134" target="_top" xlink:title=" ">
<polygon fill="white" stroke="#666666" points="708,-492.5 561,-492.5 561,-451.5 708,-451.5 708,-492.5"/>
<text text-anchor="start" x="569" y="-480.5" font-family="Helvetica,sans-Serif" font-size="10.00">wmtk::autogen::tri</text>
<text text-anchor="start" x="569" y="-469.5" font-family="Helvetica,sans-Serif" font-size="10.00">_mesh::permutation_index</text>
<text text-anchor="middle" x="634.5" y="-458.5" font-family="Helvetica,sans-Serif" font-size="10.00">_from_tuple</text>
</a>
</g>
</g>
<!-- Node5&#45;&gt;Node13 -->
<g id="edge13_Node000005_Node000013" class="edge">
<title>Node5&#45;&gt;Node13</title>
<g id="a_edge13_Node000005_Node000013"><a xlink:title=" ">
<path fill="none" stroke="#63b8ff" d="M512.18,-472C524.9,-472 538.04,-472 550.77,-472"/>
<polygon fill="#63b8ff" stroke="#63b8ff" points="550.87,-475.5 560.87,-472 550.87,-468.5 550.87,-475.5"/>
</a>
</g>
</g>
<!-- Node7 -->
<g id="Node000007" class="node">
<title>Node7</title>
<g id="a_Node000007"><a xlink:href="namespacewmtk_1_1autogen_1_1edge__mesh.html#a98217b7273dcb36d27cdf2723bc25c48" target="_top" xlink:title=" ">
<polygon fill="white" stroke="#666666" points="918,-551.5 796,-551.5 796,-510.5 918,-510.5 918,-551.5"/>
<text text-anchor="start" x="804" y="-539.5" font-family="Helvetica,sans-Serif" font-size="10.00">wmtk::autogen::edge</text>
<text text-anchor="start" x="804" y="-528.5" font-family="Helvetica,sans-Serif" font-size="10.00">_mesh::local_id_table</text>
<text text-anchor="middle" x="857" y="-517.5" font-family="Helvetica,sans-Serif" font-size="10.00">_offset</text>
</a>
</g>
</g>
<!-- Node6&#45;&gt;Node7 -->
<g id="edge6_Node000006_Node000007" class="edge">
<title>Node6&#45;&gt;Node7</title>
<g id="a_edge6_Node000006_Node000007"><a xlink:title=" ">
<path fill="none" stroke="#63b8ff" d="M708.01,-531C733.05,-531 761.05,-531 785.89,-531"/>
<polygon fill="#63b8ff" stroke="#63b8ff" points="785.97,-534.5 795.97,-531 785.97,-527.5 785.97,-534.5"/>
</a>
</g>
</g>
<!-- Node8 -->
<g id="Node000008" class="node">
<title>Node8</title>
<g id="a_Node000008"><a xlink:href="classwmtk_1_1_tuple.html#a27f6ee155923e848b461bebea1890abc" target="_top" xlink:title=" ">
<polygon fill="white" stroke="#666666" points="1121,-488.5 996,-488.5 996,-469.5 1121,-469.5 1121,-488.5"/>
<text text-anchor="middle" x="1058.5" y="-476.5" font-family="Helvetica,sans-Serif" font-size="10.00">wmtk::Tuple::local_vid</text>
</a>
</g>
</g>
<!-- Node7&#45;&gt;Node8 -->
<g id="edge7_Node000007_Node000008" class="edge">
<title>Node7&#45;&gt;Node8</title>
<g id="a_edge7_Node000007_Node000008"><a xlink:title=" ">
<path fill="none" stroke="#63b8ff" d="M918.13,-515.33C947.96,-507.55 983.45,-498.3 1011.15,-491.08"/>
<polygon fill="#63b8ff" stroke="#63b8ff" points="1012.18,-494.43 1020.97,-488.52 1010.41,-487.66 1012.18,-494.43"/>
</a>
</g>
</g>
<!-- Node10 -->
<g id="Node000010" class="node">
<title>Node10</title>
<g id="a_Node000010"><a xlink:href="namespacewmtk_1_1autogen_1_1tet__mesh.html#ace6b80b1be9aec0d6a5ac5d144b40965" target="_top" xlink:title=" ">
<polygon fill="white" stroke="#666666" points="918,-433.5 796,-433.5 796,-392.5 918,-392.5 918,-433.5"/>
<text text-anchor="start" x="804" y="-421.5" font-family="Helvetica,sans-Serif" font-size="10.00">wmtk::autogen::tet</text>
<text text-anchor="start" x="804" y="-410.5" font-family="Helvetica,sans-Serif" font-size="10.00">_mesh::local_id_table</text>
<text text-anchor="middle" x="857" y="-399.5" font-family="Helvetica,sans-Serif" font-size="10.00">_offset</text>
</a>
</g>
</g>
<!-- Node9&#45;&gt;Node10 -->
<g id="edge9_Node000009_Node000010" class="edge">
<title>Node9&#45;&gt;Node10</title>
<g id="a_edge9_Node000009_Node000010"><a xlink:title=" ">
<path fill="none" stroke="#63b8ff" d="M708.01,-413C733.05,-413 761.05,-413 785.89,-413"/>
<polygon fill="#63b8ff" stroke="#63b8ff" points="785.97,-416.5 795.97,-413 785.97,-409.5 785.97,-416.5"/>
</a>
</g>
</g>
<!-- Node10&#45;&gt;Node8 -->
<g id="edge12_Node000010_Node000008" class="edge">
<title>Node10&#45;&gt;Node8</title>
<g id="a_edge12_Node000010_Node000008"><a xlink:title=" ">
<path fill="none" stroke="#63b8ff" d="M918.2,-428.78C932.09,-432.95 946.69,-437.76 960,-443 976.65,-449.55 979.35,-454.46 996,-461 1000.86,-462.91 1006,-464.72 1011.16,-466.41"/>
<polygon fill="#63b8ff" stroke="#63b8ff" points="1010.45,-469.85 1021.04,-469.5 1012.54,-463.17 1010.45,-469.85"/>
</a>
</g>
</g>
<!-- Node11 -->
<g id="Node000011" class="node">
<title>Node11</title>
<g id="a_Node000011"><a xlink:href="classwmtk_1_1_tuple.html#ac3cd5381c7147e3ff35347c574635311" target="_top" xlink:title=" ">
<polygon fill="white" stroke="#666666" points="1121,-451.5 996,-451.5 996,-432.5 1121,-432.5 1121,-451.5"/>
<text text-anchor="middle" x="1058.5" y="-439.5" font-family="Helvetica,sans-Serif" font-size="10.00">wmtk::Tuple::local_eid</text>
</a>
</g>
</g>
<!-- Node10&#45;&gt;Node11 -->
<g id="edge10_Node000010_Node000011" class="edge">
<title>Node10&#45;&gt;Node11</title>
<g id="a_edge10_Node000010_Node000011"><a xlink:title=" ">
<path fill="none" stroke="#63b8ff" d="M918.13,-421.74C939.42,-424.84 963.59,-428.35 985.75,-431.57"/>
<polygon fill="#63b8ff" stroke="#63b8ff" points="985.37,-435.05 995.77,-433.03 986.38,-428.12 985.37,-435.05"/>
</a>
</g>
</g>
<!-- Node12 -->
<g id="Node000012" class="node">
<title>Node12</title>
<g id="a_Node000012"><a xlink:href="classwmtk_1_1_tuple.html#ab5fa210c660a9d678768c15d7c4f78f0" target="_top" xlink:title=" ">
<polygon fill="white" stroke="#666666" points="1119.5,-414.5 997.5,-414.5 997.5,-395.5 1119.5,-395.5 1119.5,-414.5"/>
<text text-anchor="middle" x="1058.5" y="-402.5" font-family="Helvetica,sans-Serif" font-size="10.00">wmtk::Tuple::local_fid</text>
</a>
</g>
</g>
<!-- Node10&#45;&gt;Node12 -->
<g id="edge11_Node000010_Node000012" class="edge">
<title>Node10&#45;&gt;Node12</title>
<g id="a_edge11_Node000010_Node000012"><a xlink:title=" ">
<path fill="none" stroke="#63b8ff" d="M918.13,-410.59C939.92,-409.72 964.72,-408.72 987.3,-407.82"/>
<polygon fill="#63b8ff" stroke="#63b8ff" points="987.64,-411.3 997.5,-407.41 987.36,-404.31 987.64,-411.3"/>
</a>
</g>
</g>
<!-- Node14 -->
<g id="Node000014" class="node">
<title>Node14</title>
<g id="a_Node000014"><a xlink:href="namespacewmtk_1_1autogen_1_1tri__mesh.html#a1c9b651c47ee993e160a8dca570cf35c" target="_top" xlink:title=" ">
<polygon fill="white" stroke="#666666" points="918,-492.5 796,-492.5 796,-451.5 918,-451.5 918,-492.5"/>
<text text-anchor="start" x="804" y="-480.5" font-family="Helvetica,sans-Serif" font-size="10.00">wmtk::autogen::tri</text>
<text text-anchor="start" x="804" y="-469.5" font-family="Helvetica,sans-Serif" font-size="10.00">_mesh::local_id_table</text>
<text text-anchor="middle" x="857" y="-458.5" font-family="Helvetica,sans-Serif" font-size="10.00">_offset</text>
</a>
</g>
</g>
<!-- Node13&#45;&gt;Node14 -->
<g id="edge14_Node000013_Node000014" class="edge">
<title>Node13&#45;&gt;Node14</title>
<g id="a_edge14_Node000013_Node000014"><a xlink:title=" ">
<path fill="none" stroke="#63b8ff" d="M708.01,-472C733.05,-472 761.05,-472 785.89,-472"/>
<polygon fill="#63b8ff" stroke="#63b8ff" points="785.97,-475.5 795.97,-472 785.97,-468.5 785.97,-475.5"/>
</a>
</g>
</g>
<!-- Node14&#45;&gt;Node8 -->
<g id="edge16_Node000014_Node000008" class="edge">
<title>Node14&#45;&gt;Node8</title>
<g id="a_edge16_Node000014_Node000008"><a xlink:title=" ">
<path fill="none" stroke="#63b8ff" d="M918.13,-474.11C939.42,-474.86 963.59,-475.7 985.75,-476.48"/>
<polygon fill="#63b8ff" stroke="#63b8ff" points="985.65,-479.98 995.77,-476.83 985.9,-472.99 985.65,-479.98"/>
</a>
</g>
</g>
<!-- Node14&#45;&gt;Node11 -->
<g id="edge15_Node000014_Node000011" class="edge">
<title>Node14&#45;&gt;Node11</title>
<g id="a_edge15_Node000014_Node000011"><a xlink:title=" ">
<path fill="none" stroke="#63b8ff" d="M918.13,-462.96C939.42,-459.76 963.59,-456.12 985.75,-452.79"/>
<polygon fill="#63b8ff" stroke="#63b8ff" points="986.4,-456.23 995.77,-451.28 985.36,-449.31 986.4,-456.23"/>
</a>
</g>
</g>
<!-- Node16&#45;&gt;Node15 -->
<g id="edge19_Node000016_Node000015" class="edge">
<title>Node16&#45;&gt;Node15</title>
<g id="a_edge19_Node000016_Node000015"><a xlink:title=" ">
<path fill="none" stroke="#63b8ff" d="M295.28,-288.06C310.4,-291.49 326.73,-294.77 342,-297 413.84,-307.48 496.49,-312.18 555.39,-314.29"/>
<polygon fill="#63b8ff" stroke="#63b8ff" points="555.62,-317.8 565.74,-314.64 555.86,-310.8 555.62,-317.8"/>
</a>
</g>
</g>
<!-- Node18&#45;&gt;Node17 -->
<g id="edge22_Node000018_Node000017" class="edge">
<title>Node18&#45;&gt;Node17</title>
<g id="a_edge22_Node000018_Node000017"><a xlink:title=" ">
<path fill="none" stroke="#63b8ff" d="M482.57,-139C509.38,-139 542.1,-139 570.22,-139"/>
<polygon fill="#63b8ff" stroke="#63b8ff" points="570.35,-142.5 580.35,-139 570.35,-135.5 570.35,-142.5"/>
</a>
</g>
</g>
<!-- Node20 -->
<g id="Node000020" class="node">
<title>Node20</title>
<g id="a_Node000020"><a xlink:href="namespacewmtk.html#a3daa7951a5f8b78cf4600dc047fcc180" target="_top" xlink:title="Setup a logger object to be used by WildmeshToolkit.">
<polygon fill="white" stroke="#666666" points="479,-67.5 378,-67.5 378,-48.5 479,-48.5 479,-67.5"/>
<text text-anchor="middle" x="428.5" y="-55.5" font-family="Helvetica,sans-Serif" font-size="10.00">wmtk::set_logger</text>
</a>
</g>
</g>
<!-- Node19&#45;&gt;Node20 -->
<g id="edge24_Node000019_Node000020" class="edge">
<title>Node19&#45;&gt;Node20</title>
<g id="a_edge24_Node000019_Node000020"><a xlink:title=" ">
<path fill="none" stroke="#63b8ff" d="M276.94,-58C303.19,-58 338.02,-58 367.57,-58"/>
<polygon fill="#63b8ff" stroke="#63b8ff" points="367.78,-61.5 377.78,-58 367.78,-54.5 367.78,-61.5"/>
</a>
</g>
</g>
<!-- Node22&#45;&gt;Node17 -->
<g id="edge27_Node000022_Node000017" class="edge">
<title>Node22&#45;&gt;Node17</title>
<g id="a_edge27_Node000022_Node000017"><a xlink:title=" ">
<path fill="none" stroke="#63b8ff" d="M304.66,-179.87C361.11,-177.49 443.57,-172.63 515,-163 533,-160.57 552.37,-157.05 570.12,-153.44"/>
<polygon fill="#63b8ff" stroke="#63b8ff" points="571.29,-156.77 580.37,-151.31 569.87,-149.92 571.29,-156.77"/>
</a>
</g>
</g>
<!-- Node22&#45;&gt;Node18 -->
<g id="edge28_Node000022_Node000018" class="edge">
<title>Node22&#45;&gt;Node18</title>
<g id="a_edge28_Node000022_Node000018"><a xlink:title=" ">
<path fill="none" stroke="#63b8ff" d="M303.63,-166.96C323.36,-162.51 344.91,-157.64 364.41,-153.24"/>
<polygon fill="#63b8ff" stroke="#63b8ff" points="365.42,-156.6 374.4,-150.99 363.88,-149.77 365.42,-156.6"/>
</a>
</g>
</g>
<!-- Node23 -->
<g id="Node000023" class="node">
<title>Node23</title>
<g id="a_Node000023"><a xlink:href="classwmtk_1_1dart_1_1___dart.html#aa34a01df7b33bec483a0da0158a1aca4" target="_top" xlink:title=" ">
<polygon fill="white" stroke="#666666" points="482.5,-288 374.5,-288 374.5,-258 482.5,-258 482.5,-288"/>
<text text-anchor="start" x="382.5" y="-276" font-family="Helvetica,sans-Serif" font-size="10.00">wmtk::dart::_Dart::</text>
<text text-anchor="middle" x="428.5" y="-265" font-family="Helvetica,sans-Serif" font-size="10.00">permutation</text>
</a>
</g>
</g>
<!-- Node22&#45;&gt;Node23 -->
<g id="edge29_Node000022_Node000023" class="edge">
<title>Node22&#45;&gt;Node23</title>
<g id="a_edge29_Node000022_Node000023"><a xlink:title=" ">
<path fill="none" stroke="#63b8ff" d="M256.9,-197.24C277.3,-212.23 310.42,-234.87 342,-249 349.12,-252.19 356.77,-255.05 364.46,-257.6"/>
<polygon fill="#63b8ff" stroke="#63b8ff" points="363.6,-261 374.19,-260.66 365.7,-254.32 363.6,-261"/>
</a>
</g>
</g>
<!-- Node24 -->
<g id="Node000024" class="node">
<title>Node24</title>
<g id="a_Node000024"><a xlink:href="classwmtk_1_1dart_1_1_simplex_dart.html#a7a24ef56741738c40b27cc76fac80afa" target="_top" xlink:title=" ">
<polygon fill="white" stroke="#666666" points="515,-240 342,-240 342,-210 515,-210 515,-240"/>
<text text-anchor="start" x="350" y="-228" font-family="Helvetica,sans-Serif" font-size="10.00">wmtk::dart::SimplexDart</text>
<text text-anchor="middle" x="428.5" y="-217" font-family="Helvetica,sans-Serif" font-size="10.00">::tuple_from_permutation_index</text>
</a>
</g>
</g>
<!-- Node22&#45;&gt;Node24 -->
<g id="edge30_Node000022_Node000024" class="edge">
<title>Node22&#45;&gt;Node24</title>
<g id="a_edge30_Node000022_Node000024"><a xlink:title=" ">
<path fill="none" stroke="#63b8ff" d="M303.63,-197.04C318.85,-200.48 335.16,-204.16 350.77,-207.68"/>
<polygon fill="#63b8ff" stroke="#63b8ff" points="350.38,-211.18 360.91,-209.97 351.93,-204.35 350.38,-211.18"/>
</a>
</g>
</g>
<!-- Node24&#45;&gt;Node15 -->
<g id="edge31_Node000024_Node000015" class="edge">
<title>Node24&#45;&gt;Node15</title>
<g id="a_edge31_Node000024_Node000015"><a xlink:title=" ">
<path fill="none" stroke="#63b8ff" d="M490.38,-240.13C498.76,-242.78 507.17,-245.74 515,-249 545.82,-261.82 578.71,-280.89 602,-295.41"/>
<polygon fill="#63b8ff" stroke="#63b8ff" points="600.41,-298.55 610.74,-300.93 604.15,-292.63 600.41,-298.55"/>
</a>
</g>
</g>
<!-- Node25 -->
<g id="Node000025" class="node">
<title>Node25</title>
<g id="a_Node000025"><a xlink:href="namespacewmtk_1_1dart_1_1utils.html#a8220591e048a168274e6c5b45028cc35" target="_top" xlink:title=" ">
<polygon fill="white" stroke="#666666" points="718,-240 551,-240 551,-210 718,-210 718,-240"/>
<text text-anchor="start" x="559" y="-228" font-family="Helvetica,sans-Serif" font-size="10.00">wmtk::dart::utils::</text>
<text text-anchor="middle" x="634.5" y="-217" font-family="Helvetica,sans-Serif" font-size="10.00">tuple_from_permutation_index</text>
</a>
</g>
</g>
<!-- Node24&#45;&gt;Node25 -->
<g id="edge32_Node000024_Node000025" class="edge">
<title>Node24&#45;&gt;Node25</title>
<g id="a_edge32_Node000024_Node000025"><a xlink:title=" ">
<path fill="none" stroke="#63b8ff" d="M515.13,-225C523.5,-225 532.02,-225 540.46,-225"/>
<polygon fill="#63b8ff" stroke="#63b8ff" points="540.7,-228.5 550.7,-225 540.7,-221.5 540.7,-228.5"/>
</a>
</g>
</g>
<!-- Node26 -->
<g id="Node000026" class="node">
<title>Node26</title>
<g id="a_Node000026"><a xlink:href="namespacewmtk_1_1autogen_1_1edge__mesh.html#a733920e99772f077eaf992236a4d44d0" target="_top" xlink:title=" ">
<polygon fill="white" stroke="#666666" points="960,-288 754,-288 754,-258 960,-258 960,-288"/>
<text text-anchor="start" x="762" y="-276" font-family="Helvetica,sans-Serif" font-size="10.00">wmtk::autogen::edge</text>
<text text-anchor="middle" x="857" y="-265" font-family="Helvetica,sans-Serif" font-size="10.00">_mesh::tuple_from_permutation_index</text>
</a>
</g>
</g>
<!-- Node25&#45;&gt;Node26 -->
<g id="edge33_Node000025_Node000026" class="edge">
<title>Node25&#45;&gt;Node26</title>
<g id="a_edge33_Node000025_Node000026"><a xlink:title=" ">
<path fill="none" stroke="#63b8ff" d="M704.66,-240.06C727.65,-245.06 753.42,-250.67 777.08,-255.82"/>
<polygon fill="#63b8ff" stroke="#63b8ff" points="776.57,-259.29 787.08,-258 778.06,-252.45 776.57,-259.29"/>
</a>
</g>
</g>
<!-- Node27 -->
<g id="Node000027" class="node">
<title>Node27</title>
<g id="a_Node000027"><a xlink:href="namespacewmtk_1_1autogen_1_1tet__mesh.html#a76a9e44667b5409342b46f3a6457d2e1" target="_top" xlink:title=" ">
<polygon fill="white" stroke="#666666" points="960,-240 754,-240 754,-210 960,-210 960,-240"/>
<text text-anchor="start" x="762" y="-228" font-family="Helvetica,sans-Serif" font-size="10.00">wmtk::autogen::tet</text>
<text text-anchor="middle" x="857" y="-217" font-family="Helvetica,sans-Serif" font-size="10.00">_mesh::tuple_from_permutation_index</text>
</a>
</g>
</g>
<!-- Node25&#45;&gt;Node27 -->
<g id="edge34_Node000025_Node000027" class="edge">
<title>Node25&#45;&gt;Node27</title>
<g id="a_edge34_Node000025_Node000027"><a xlink:title=" ">
<path fill="none" stroke="#63b8ff" d="M718.23,-225C726.58,-225 735.15,-225 743.73,-225"/>
<polygon fill="#63b8ff" stroke="#63b8ff" points="743.8,-228.5 753.8,-225 743.8,-221.5 743.8,-228.5"/>
</a>
</g>
</g>
<!-- Node28 -->
<g id="Node000028" class="node">
<title>Node28</title>
<g id="a_Node000028"><a xlink:href="namespacewmtk_1_1autogen_1_1tri__mesh.html#a1642768c1a7bc091584eabf48c47ec2f" target="_top" xlink:title=" ">
<polygon fill="white" stroke="#666666" points="960,-192 754,-192 754,-162 960,-162 960,-192"/>
<text text-anchor="start" x="762" y="-180" font-family="Helvetica,sans-Serif" font-size="10.00">wmtk::autogen::tri</text>
<text text-anchor="middle" x="857" y="-169" font-family="Helvetica,sans-Serif" font-size="10.00">_mesh::tuple_from_permutation_index</text>
</a>
</g>
</g>
<!-- Node25&#45;&gt;Node28 -->
<g id="edge35_Node000025_Node000028" class="edge">
<title>Node25&#45;&gt;Node28</title>
<g id="a_edge35_Node000025_Node000028"><a xlink:title=" ">
<path fill="none" stroke="#63b8ff" d="M704.66,-209.94C727.65,-204.94 753.42,-199.33 777.08,-194.18"/>
<polygon fill="#63b8ff" stroke="#63b8ff" points="778.06,-197.55 787.08,-192 776.57,-190.71 778.06,-197.55"/>
</a>
</g>
</g>
</g>
</svg>

<g id="navigator" transform="translate(0 0)" fill="#404254">
  <rect fill="#f2f5e9" fill-opacity="0.5" stroke="#606060" stroke-width=".5" x="0" y="0" width="60" height="60"/>
  <use id="zoomplus" xlink:href="#zoomPlus" x="17" y="9" onmousedown="handleZoom(evt,'in')"/>
  <use id="zoomminus" xlink:href="#zoomMin" x="42" y="9" onmousedown="handleZoom(evt,'out')"/>
  <use id="reset" xlink:href="#resetDef" x="30" y="36" onmousedown="handleReset()"/>
   <use id="arrowup" xlink:href="#arrowUp" x="0" y="0" onmousedown="handlePan(0,-1)"/>
  <use id="arrowright" xlink:href="#arrowRight" x="0" y="0" onmousedown="handlePan(1,0)"/>
  <use id="arrowdown" xlink:href="#arrowDown" x="0" y="0" onmousedown="handlePan(0,1)"/>
  <use id="arrowleft" xlink:href="#arrowLeft" x="0" y="0" onmousedown="handlePan(-1,0)"/>
</g>
<svg viewBox="0 0 15 15" width="100%" height="30px" preserveAspectRatio="xMaxYMin meet">
 <g id="arrow_out" transform="scale(0.3 0.3)">
  <a xlink:href="namespacewmtk_1_1multimesh_1_1utils_1_1internal_ac309be236e1e95b682343e3896937f18_cgraph_org.svg" target="_base">
   <rect id="button" ry="5" rx="5" y="6" x="6" height="38" width="38"
        fill="#f2f5e9" fill-opacity="0.5" stroke="#606060" stroke-width="1.0"/>
   <path id="arrow"
     d="M 11.500037,31.436501 C 11.940474,20.09759 22.043105,11.32322 32.158766,21.979434 L 37.068811,17.246167 C 37.068811,17.246167 37.088388,32 37.088388,32 L 22.160133,31.978069 C 22.160133,31.978069 26.997745,27.140456 26.997745,27.140456 C 18.528582,18.264221 13.291696,25.230495 11.500037,31.436501 z"
     style="fill:#404040;"/>
  </a>
 </g>
</svg>

<style type='text/css'>
<![CDATA[
[data-mouse-over-selected='false'] { opacity: 0.7; }
[data-mouse-over-selected='true']  { opacity: 1.0; }
]]>
</style>
<script type="application/ecmascript"><![CDATA[
document.addEventListener('DOMContentLoaded', (event) => {
  highlightEdges();
  highlightAdjacentNodes();
});
]]></script>
</svg>
