<?xml version="1.0" encoding="UTF-8" standalone="no"?>
<!DOCTYPE svg PUBLIC "-//W3C//DTD SVG 1.1//EN"
 "http://www.w3.org/Graphics/SVG/1.1/DTD/svg11.dtd">
<!-- Generated by graphviz version 2.43.0 (0)
 -->
<!-- Title: wmtk::components::multimesh::from_vertex_simplices Pages: 1 -->
<svg width="1560pt" height="713pt"
 viewBox="0.00 0.00 1560.00 712.50" xmlns="http://www.w3.org/2000/svg" xmlns:xlink="http://www.w3.org/1999/xlink">
<g id="graph0" class="graph" transform="scale(1 1) rotate(0) translate(4 708.5)">
<title>wmtk::components::multimesh::from_vertex_simplices</title>
<!-- Node1 -->
<g id="Node000001" class="node">
<title>Node1</title>
<g id="a_Node000001"><a xlink:title=" ">
<polygon fill="#999999" stroke="#666666" points="169,-488.5 0,-488.5 0,-458.5 169,-458.5 169,-488.5"/>
<text text-anchor="start" x="8" y="-476.5" font-family="Helvetica,sans-Serif" font-size="10.00">wmtk::components::multimesh</text>
<text text-anchor="middle" x="84.5" y="-465.5" font-family="Helvetica,sans-Serif" font-size="10.00">::from_vertex_simplices</text>
</a>
</g>
</g>
<!-- Node2 -->
<g id="Node000002" class="node">
<title>Node2</title>
<g id="a_Node000002"><a xlink:href="namespacewmtk_1_1components_1_1multimesh.html#a00fe4abc81015a628e316cc0d4e479ee" target="_top" xlink:title=" ">
<polygon fill="white" stroke="#666666" points="374,-536.5 205,-536.5 205,-506.5 374,-506.5 374,-536.5"/>
<text text-anchor="start" x="213" y="-524.5" font-family="Helvetica,sans-Serif" font-size="10.00">wmtk::components::multimesh</text>
<text text-anchor="middle" x="289.5" y="-513.5" font-family="Helvetica,sans-Serif" font-size="10.00">::from_vertex_simplices_map</text>
</a>
</g>
</g>
<!-- Node1&#45;&gt;Node2 -->
<g id="edge1_Node000001_Node000002" class="edge">
<title>Node1&#45;&gt;Node2</title>
<g id="a_edge1_Node000001_Node000002"><a xlink:title=" ">
<path fill="none" stroke="#63b8ff" d="M149.17,-488.56C170.15,-493.51 193.63,-499.07 215.26,-504.18"/>
<polygon fill="#63b8ff" stroke="#63b8ff" points="214.52,-507.6 225.05,-506.5 216.13,-500.79 214.52,-507.6"/>
</a>
</g>
</g>
<!-- Node3 -->
<g id="Node000003" class="node">
<title>Node3</title>
<g id="a_Node000003"><a xlink:href="namespacewmtk.html#a3b08a5d7fb42f02c54bae85758b39f59" target="_top" xlink:title="Get the primitive type corresponding to its unique integer id.">
<polygon fill="white" stroke="#666666" points="347.5,-488.5 231.5,-488.5 231.5,-458.5 347.5,-458.5 347.5,-488.5"/>
<text text-anchor="start" x="239.5" y="-476.5" font-family="Helvetica,sans-Serif" font-size="10.00">wmtk::get_primitive</text>
<text text-anchor="middle" x="289.5" y="-465.5" font-family="Helvetica,sans-Serif" font-size="10.00">_type_from_id</text>
</a>
</g>
</g>
<!-- Node1&#45;&gt;Node3 -->
<g id="edge2_Node000001_Node000003" class="edge">
<title>Node1&#45;&gt;Node3</title>
<g id="a_edge2_Node000001_Node000003"><a xlink:title=" ">
<path fill="none" stroke="#63b8ff" d="M169.24,-473.5C186.51,-473.5 204.5,-473.5 221.1,-473.5"/>
<polygon fill="#63b8ff" stroke="#63b8ff" points="221.25,-477 231.25,-473.5 221.25,-470 221.25,-477"/>
</a>
</g>
</g>
<!-- Node4 -->
<g id="Node000004" class="node">
<title>Node4</title>
<g id="a_Node000004"><a xlink:href="classwmtk_1_1_mesh.html#a8b92d89ea4f3d41af5fea130727b137c" target="_top" xlink:title="register a mesh as the child of this mesh">
<polygon fill="white" stroke="#666666" points="349.5,-440.5 229.5,-440.5 229.5,-410.5 349.5,-410.5 349.5,-440.5"/>
<text text-anchor="start" x="237.5" y="-428.5" font-family="Helvetica,sans-Serif" font-size="10.00">wmtk::Mesh::register</text>
<text text-anchor="middle" x="289.5" y="-417.5" font-family="Helvetica,sans-Serif" font-size="10.00">_child_mesh</text>
</a>
</g>
</g>
<!-- Node1&#45;&gt;Node4 -->
<g id="edge3_Node000001_Node000004" class="edge">
<title>Node1&#45;&gt;Node4</title>
<g id="a_edge3_Node000001_Node000004"><a xlink:title=" ">
<path fill="none" stroke="#63b8ff" d="M149.17,-458.44C171.46,-453.18 196.58,-447.24 219.29,-441.86"/>
<polygon fill="#63b8ff" stroke="#63b8ff" points="220.27,-445.23 229.2,-439.52 218.66,-438.42 220.27,-445.23"/>
</a>
</g>
</g>
<!-- Node5 -->
<g id="Node000005" class="node">
<title>Node5</title>
<g id="a_Node000005"><a xlink:href="classwmtk_1_1_mesh.html#a82637d24776e0e06e2124ce914c4b40f" target="_top" xlink:title="maps a simplex from this mesh to any other mesh">
<polygon fill="white" stroke="#666666" points="550,-538 410,-538 410,-519 550,-519 550,-538"/>
<text text-anchor="middle" x="480" y="-526" font-family="Helvetica,sans-Serif" font-size="10.00">wmtk::Mesh::map_tuples</text>
</a>
</g>
</g>
<!-- Node4&#45;&gt;Node5 -->
<g id="edge4_Node000004_Node000005" class="edge">
<title>Node4&#45;&gt;Node5</title>
<g id="a_edge4_Node000004_Node000005"><a xlink:title=" ">
<path fill="none" stroke="#63b8ff" d="M349.92,-439.66C358.19,-442.46 366.44,-445.73 374,-449.5 407.58,-466.24 441.36,-494.09 461.22,-511.85"/>
<polygon fill="#63b8ff" stroke="#63b8ff" points="459.08,-514.64 468.83,-518.79 463.8,-509.47 459.08,-514.64"/>
</a>
</g>
</g>
<!-- Node16 -->
<g id="Node000016" class="node">
<title>Node16</title>
<g id="a_Node000016"><a xlink:href="classwmtk_1_1multimesh_1_1_multi_mesh_manager.html#af1df24920145a685e467ff2bc082e056" target="_top" xlink:title="register a another mesh as a child of this mesh.">
<polygon fill="white" stroke="#666666" points="947,-333.5 783,-333.5 783,-303.5 947,-303.5 947,-333.5"/>
<text text-anchor="start" x="791" y="-321.5" font-family="Helvetica,sans-Serif" font-size="10.00">wmtk::multimesh::MultiMesh</text>
<text text-anchor="middle" x="865" y="-310.5" font-family="Helvetica,sans-Serif" font-size="10.00">Manager::register_child_mesh</text>
</a>
</g>
</g>
<!-- Node4&#45;&gt;Node16 -->
<g id="edge21_Node000004_Node000016" class="edge">
<title>Node4&#45;&gt;Node16</title>
<g id="a_edge21_Node000004_Node000016"><a xlink:title=" ">
<path fill="none" stroke="#63b8ff" d="M349.71,-414.45C450.1,-395.72 654.33,-357.62 772.99,-335.48"/>
<polygon fill="#63b8ff" stroke="#63b8ff" points="773.96,-338.86 783.15,-333.58 772.67,-331.98 773.96,-338.86"/>
</a>
</g>
</g>
<!-- Node6 -->
<g id="Node000006" class="node">
<title>Node6</title>
<g id="a_Node000006"><a xlink:href="classwmtk_1_1_mesh.html#ad054c074d4776010002321117ec459e8" target="_top" xlink:title=" ">
<polygon fill="white" stroke="#666666" points="747,-640.5 586,-640.5 586,-610.5 747,-610.5 747,-640.5"/>
<text text-anchor="start" x="594" y="-628.5" font-family="Helvetica,sans-Serif" font-size="10.00">wmtk::Mesh::is_from</text>
<text text-anchor="middle" x="666.5" y="-617.5" font-family="Helvetica,sans-Serif" font-size="10.00">_same_multi_mesh_structure</text>
</a>
</g>
</g>
<!-- Node5&#45;&gt;Node6 -->
<g id="edge5_Node000005_Node000006" class="edge">
<title>Node5&#45;&gt;Node6</title>
<g id="a_edge5_Node000005_Node000006"><a xlink:title=" ">
<path fill="none" stroke="#63b8ff" d="M499.37,-538.16C529.15,-553.82 588.6,-585.07 627.71,-605.63"/>
<polygon fill="#63b8ff" stroke="#63b8ff" points="626.21,-608.8 636.69,-610.36 629.47,-602.6 626.21,-608.8"/>
</a>
</g>
</g>
<!-- Node10 -->
<g id="Node000010" class="node">
<title>Node10</title>
<g id="a_Node000010"><a xlink:href="classwmtk_1_1multimesh_1_1_multi_mesh_manager.html#acaaab688faff0e1b2d9142d6cc128e46" target="_top" xlink:title="maps a simplex from this mesh to any other mesh">
<polygon fill="white" stroke="#666666" points="746.5,-543.5 586.5,-543.5 586.5,-513.5 746.5,-513.5 746.5,-543.5"/>
<text text-anchor="start" x="594.5" y="-531.5" font-family="Helvetica,sans-Serif" font-size="10.00">wmtk::multimesh::MultiMesh</text>
<text text-anchor="middle" x="666.5" y="-520.5" font-family="Helvetica,sans-Serif" font-size="10.00">Manager::map_tuples</text>
</a>
</g>
</g>
<!-- Node5&#45;&gt;Node10 -->
<g id="edge10_Node000005_Node000010" class="edge">
<title>Node5&#45;&gt;Node10</title>
<g id="a_edge10_Node000005_Node000010"><a xlink:title=" ">
<path fill="none" stroke="#63b8ff" d="M550.23,-528.5C558.68,-528.5 567.4,-528.5 576.1,-528.5"/>
<polygon fill="#63b8ff" stroke="#63b8ff" points="576.27,-532 586.27,-528.5 576.27,-525 576.27,-532"/>
</a>
</g>
</g>
<!-- Node7 -->
<g id="Node000007" class="node">
<title>Node7</title>
<g id="a_Node000007"><a xlink:href="classwmtk_1_1_mesh.html#aac3ec1ebbe00982ddfe70cc710d8f54e" target="_top" xlink:title="returns a reference to the root of a multimesh tree">
<polygon fill="white" stroke="#666666" points="929.5,-690.5 800.5,-690.5 800.5,-660.5 929.5,-660.5 929.5,-690.5"/>
<text text-anchor="start" x="808.5" y="-678.5" font-family="Helvetica,sans-Serif" font-size="10.00">wmtk::Mesh::get_multi</text>
<text text-anchor="middle" x="865" y="-667.5" font-family="Helvetica,sans-Serif" font-size="10.00">_mesh_root</text>
</a>
</g>
</g>
<!-- Node6&#45;&gt;Node7 -->
<g id="edge6_Node000006_Node000007" class="edge">
<title>Node6&#45;&gt;Node7</title>
<g id="a_edge6_Node000006_Node000007"><a xlink:title=" ">
<path fill="none" stroke="#63b8ff" d="M726.46,-640.5C748.02,-645.99 772.61,-652.25 794.98,-657.94"/>
<polygon fill="#63b8ff" stroke="#63b8ff" points="794.19,-661.35 804.75,-660.42 795.92,-654.56 794.19,-661.35"/>
</a>
</g>
</g>
<!-- Node8 -->
<g id="Node000008" class="node">
<title>Node8</title>
<g id="a_Node000008"><a xlink:href="classwmtk_1_1multimesh_1_1_multi_mesh_manager.html#a434e74f6b295055a45914d41a784124a" target="_top" xlink:title=" ">
<polygon fill="white" stroke="#666666" points="1148,-686.5 988,-686.5 988,-656.5 1148,-656.5 1148,-686.5"/>
<text text-anchor="start" x="996" y="-674.5" font-family="Helvetica,sans-Serif" font-size="10.00">wmtk::multimesh::MultiMesh</text>
<text text-anchor="middle" x="1068" y="-663.5" font-family="Helvetica,sans-Serif" font-size="10.00">Manager::get_root_mesh</text>
</a>
</g>
</g>
<!-- Node7&#45;&gt;Node8 -->
<g id="edge7_Node000007_Node000008" class="edge">
<title>Node7&#45;&gt;Node8</title>
<g id="a_edge7_Node000007_Node000008"><a xlink:title=" ">
<path fill="none" stroke="#63b8ff" d="M929.6,-674.23C944.93,-673.93 961.6,-673.6 977.86,-673.27"/>
<polygon fill="#63b8ff" stroke="#63b8ff" points="977.99,-676.77 987.92,-673.07 977.85,-669.77 977.99,-676.77"/>
</a>
</g>
</g>
<!-- Node8&#45;&gt;Node8 -->
<g id="edge8_Node000008_Node000008" class="edge">
<title>Node8&#45;&gt;Node8</title>
<g id="a_edge8_Node000008_Node000008"><a xlink:title=" ">
<path fill="none" stroke="#63b8ff" d="M1032.84,-686.78C1025.03,-695.91 1036.75,-704.5 1068,-704.5 1086.55,-704.5 1098.22,-701.47 1103.01,-697.1"/>
<polygon fill="#63b8ff" stroke="#63b8ff" points="1106.51,-696.82 1103.16,-686.78 1099.51,-696.72 1106.51,-696.82"/>
</a>
</g>
</g>
<!-- Node9 -->
<g id="Node000009" class="node">
<title>Node9</title>
<g id="a_Node000009"><a xlink:href="classwmtk_1_1multimesh_1_1_multi_mesh_manager.html#a7d39339adb56b1798fe817d81bfcc67c" target="_top" xlink:title="Specifies whether this structure is the root of a multi&#45;mesh tree.">
<polygon fill="white" stroke="#666666" points="1349,-548.5 1189,-548.5 1189,-518.5 1349,-518.5 1349,-548.5"/>
<text text-anchor="start" x="1197" y="-536.5" font-family="Helvetica,sans-Serif" font-size="10.00">wmtk::multimesh::MultiMesh</text>
<text text-anchor="middle" x="1269" y="-525.5" font-family="Helvetica,sans-Serif" font-size="10.00">Manager::is_root</text>
</a>
</g>
</g>
<!-- Node8&#45;&gt;Node9 -->
<g id="edge9_Node000008_Node000009" class="edge">
<title>Node8&#45;&gt;Node9</title>
<g id="a_edge9_Node000008_Node000009"><a xlink:title=" ">
<path fill="none" stroke="#63b8ff" d="M1118.03,-656.41C1129.9,-651.8 1142.25,-646.15 1153,-639.5 1190.54,-616.26 1226.79,-579.77 1248.24,-556.25"/>
<polygon fill="#63b8ff" stroke="#63b8ff" points="1250.85,-558.58 1254.93,-548.8 1245.64,-553.9 1250.85,-558.58"/>
</a>
</g>
</g>
<!-- Node11 -->
<g id="Node000011" class="node">
<title>Node11</title>
<g id="a_Node000011"><a xlink:href="classwmtk_1_1multimesh_1_1_multi_mesh_manager.html#a812e0992812b2c48a889e10ae9e50758" target="_top" xlink:title=" ">
<polygon fill="white" stroke="#666666" points="1148,-548.5 988,-548.5 988,-518.5 1148,-518.5 1148,-548.5"/>
<text text-anchor="start" x="996" y="-536.5" font-family="Helvetica,sans-Serif" font-size="10.00">wmtk::multimesh::MultiMesh</text>
<text text-anchor="middle" x="1068" y="-525.5" font-family="Helvetica,sans-Serif" font-size="10.00">Manager::absolute_id</text>
</a>
</g>
</g>
<!-- Node10&#45;&gt;Node11 -->
<g id="edge11_Node000010_Node000011" class="edge">
<title>Node10&#45;&gt;Node11</title>
<g id="a_edge11_Node000010_Node000011"><a xlink:title=" ">
<path fill="none" stroke="#63b8ff" d="M746.91,-529.49C813.49,-530.33 908.52,-531.52 977.73,-532.38"/>
<polygon fill="#63b8ff" stroke="#63b8ff" points="977.7,-535.88 987.74,-532.51 977.79,-528.88 977.7,-535.88"/>
</a>
</g>
</g>
<!-- Node12 -->
<g id="Node000012" class="node">
<title>Node12</title>
<g id="a_Node000012"><a xlink:href="classwmtk_1_1_mesh.html#a2102fdea06a0c543437e67d77aeb2013" target="_top" xlink:title="returns a unique identifier for this mesh within a single multimesh structure">
<polygon fill="white" stroke="#666666" points="927.5,-500.5 802.5,-500.5 802.5,-470.5 927.5,-470.5 927.5,-500.5"/>
<text text-anchor="start" x="810.5" y="-488.5" font-family="Helvetica,sans-Serif" font-size="10.00">wmtk::Mesh::absolute</text>
<text text-anchor="middle" x="865" y="-477.5" font-family="Helvetica,sans-Serif" font-size="10.00">_multi_mesh_id</text>
</a>
</g>
</g>
<!-- Node10&#45;&gt;Node12 -->
<g id="edge14_Node000010_Node000012" class="edge">
<title>Node10&#45;&gt;Node12</title>
<g id="a_edge14_Node000010_Node000012"><a xlink:title=" ">
<path fill="none" stroke="#63b8ff" d="M736.23,-513.46C754.34,-509.5 773.93,-505.21 792.21,-501.21"/>
<polygon fill="#63b8ff" stroke="#63b8ff" points="793.18,-504.58 802.21,-499.02 791.69,-497.74 793.18,-504.58"/>
</a>
</g>
</g>
<!-- Node13 -->
<g id="Node000013" class="node">
<title>Node13</title>
<g id="a_Node000013"><a xlink:href="classwmtk_1_1multimesh_1_1_multi_mesh_manager.html#aefe5179057c978e227c3349d13578c4a" target="_top" xlink:title=" ">
<polygon fill="white" stroke="#666666" points="945,-586.5 785,-586.5 785,-556.5 945,-556.5 945,-586.5"/>
<text text-anchor="start" x="793" y="-574.5" font-family="Helvetica,sans-Serif" font-size="10.00">wmtk::multimesh::MultiMesh</text>
<text text-anchor="middle" x="865" y="-563.5" font-family="Helvetica,sans-Serif" font-size="10.00">Manager::map_up_to_tuples</text>
</a>
</g>
</g>
<!-- Node10&#45;&gt;Node13 -->
<g id="edge16_Node000010_Node000013" class="edge">
<title>Node10&#45;&gt;Node13</title>
<g id="a_edge16_Node000010_Node000013"><a xlink:title=" ">
<path fill="none" stroke="#63b8ff" d="M736.23,-543.54C752.08,-547.01 769.07,-550.73 785.31,-554.28"/>
<polygon fill="#63b8ff" stroke="#63b8ff" points="784.8,-557.75 795.31,-556.47 786.29,-550.91 784.8,-557.75"/>
</a>
</g>
</g>
<!-- Node14 -->
<g id="Node000014" class="node">
<title>Node14</title>
<g id="a_Node000014"><a xlink:href="classwmtk_1_1simplex_1_1_simplex.html#aca78b1fb0a3c28c0036cf7919bfb0789" target="_top" xlink:title=" ">
<polygon fill="white" stroke="#666666" points="1135.5,-630.5 1000.5,-630.5 1000.5,-600.5 1135.5,-600.5 1135.5,-630.5"/>
<text text-anchor="start" x="1008.5" y="-618.5" font-family="Helvetica,sans-Serif" font-size="10.00">wmtk::simplex::Simplex</text>
<text text-anchor="middle" x="1068" y="-607.5" font-family="Helvetica,sans-Serif" font-size="10.00">::tuple</text>
</a>
</g>
</g>
<!-- Node10&#45;&gt;Node14 -->
<g id="edge20_Node000010_Node000014" class="edge">
<title>Node10&#45;&gt;Node14</title>
<g id="a_edge20_Node000010_Node000014"><a xlink:title=" ">
<path fill="none" stroke="#63b8ff" d="M681.76,-543.82C701.98,-564.29 741.18,-599.61 783,-613.5 850.32,-635.86 931.66,-633.72 990.01,-627.56"/>
<polygon fill="#63b8ff" stroke="#63b8ff" points="990.72,-631 1000.26,-626.41 989.94,-624.04 990.72,-631"/>
</a>
</g>
</g>
<!-- Node15 -->
<g id="Node000015" class="node">
<title>Node15</title>
<g id="a_Node000015"><a xlink:href="classwmtk_1_1simplex_1_1_simplex.html#ad2cc0340a0772b7d6f03ba7a781d1163" target="_top" xlink:title=" ">
<polygon fill="white" stroke="#666666" points="932.5,-452.5 797.5,-452.5 797.5,-422.5 932.5,-422.5 932.5,-452.5"/>
<text text-anchor="start" x="805.5" y="-440.5" font-family="Helvetica,sans-Serif" font-size="10.00">wmtk::simplex::Simplex</text>
<text text-anchor="middle" x="865" y="-429.5" font-family="Helvetica,sans-Serif" font-size="10.00">::primitive_type</text>
</a>
</g>
</g>
<!-- Node10&#45;&gt;Node15 -->
<g id="edge19_Node000010_Node000015" class="edge">
<title>Node10&#45;&gt;Node15</title>
<g id="a_edge19_Node000010_Node000015"><a xlink:title=" ">
<path fill="none" stroke="#63b8ff" d="M689.67,-513.49C712.34,-498.68 748.94,-476.18 783,-461.5 787.48,-459.57 792.16,-457.74 796.92,-456.01"/>
<polygon fill="#63b8ff" stroke="#63b8ff" points="798.44,-459.18 806.74,-452.61 796.15,-452.57 798.44,-459.18"/>
</a>
</g>
</g>
<!-- Node11&#45;&gt;Node9 -->
<g id="edge13_Node000011_Node000009" class="edge">
<title>Node11&#45;&gt;Node9</title>
<g id="a_edge13_Node000011_Node000009"><a xlink:title=" ">
<path fill="none" stroke="#63b8ff" d="M1148.22,-533.5C1158.22,-533.5 1168.5,-533.5 1178.65,-533.5"/>
<polygon fill="#63b8ff" stroke="#63b8ff" points="1178.73,-537 1188.73,-533.5 1178.73,-530 1178.73,-537"/>
</a>
</g>
</g>
<!-- Node11&#45;&gt;Node11 -->
<g id="edge12_Node000011_Node000011" class="edge">
<title>Node11&#45;&gt;Node11</title>
<g id="a_edge12_Node000011_Node000011"><a xlink:title=" ">
<path fill="none" stroke="#63b8ff" d="M1032.84,-548.78C1025.03,-557.91 1036.75,-566.5 1068,-566.5 1086.55,-566.5 1098.22,-563.47 1103.01,-559.1"/>
<polygon fill="#63b8ff" stroke="#63b8ff" points="1106.51,-558.82 1103.16,-548.78 1099.51,-558.72 1106.51,-558.82"/>
</a>
</g>
</g>
<!-- Node12&#45;&gt;Node11 -->
<g id="edge15_Node000012_Node000011" class="edge">
<title>Node12&#45;&gt;Node11</title>
<g id="a_edge15_Node000012_Node000011"><a xlink:title=" ">
<path fill="none" stroke="#63b8ff" d="M927.67,-500.23C948.69,-505.25 972.38,-510.9 994.19,-516.11"/>
<polygon fill="#63b8ff" stroke="#63b8ff" points="993.52,-519.55 1004.06,-518.47 995.14,-512.74 993.52,-519.55"/>
</a>
</g>
</g>
<!-- Node13&#45;&gt;Node13 -->
<g id="edge17_Node000013_Node000013" class="edge">
<title>Node13&#45;&gt;Node13</title>
<g id="a_edge17_Node000013_Node000013"><a xlink:title=" ">
<path fill="none" stroke="#63b8ff" d="M830.2,-586.78C822.46,-595.91 834.06,-604.5 865,-604.5 883.37,-604.5 894.92,-601.47 899.66,-597.1"/>
<polygon fill="#63b8ff" stroke="#63b8ff" points="903.16,-596.82 899.8,-586.78 896.16,-596.72 903.16,-596.82"/>
</a>
</g>
</g>
<!-- Node13&#45;&gt;Node14 -->
<g id="edge18_Node000013_Node000014" class="edge">
<title>Node13&#45;&gt;Node14</title>
<g id="a_edge18_Node000013_Node000014"><a xlink:title=" ">
<path fill="none" stroke="#63b8ff" d="M934.61,-586.52C952.64,-590.47 972.19,-594.75 990.6,-598.78"/>
<polygon fill="#63b8ff" stroke="#63b8ff" points="989.88,-602.2 1000.4,-600.92 991.38,-595.36 989.88,-602.2"/>
</a>
</g>
</g>
<!-- Node16&#45;&gt;Node9 -->
<g id="edge28_Node000016_Node000009" class="edge">
<title>Node16&#45;&gt;Node9</title>
<g id="a_edge28_Node000016_Node000009"><a xlink:title=" ">
<path fill="none" stroke="#63b8ff" d="M881.31,-333.7C902.47,-353.92 942.64,-389.54 983,-410.5 1053.01,-446.85 1081.15,-428.95 1153,-461.5 1184.06,-475.57 1216.77,-496.76 1239.33,-512.51"/>
<polygon fill="#63b8ff" stroke="#63b8ff" points="1237.57,-515.55 1247.75,-518.46 1241.61,-509.83 1237.57,-515.55"/>
</a>
</g>
</g>
<!-- Node16&#45;&gt;Node11 -->
<g id="edge22_Node000016_Node000011" class="edge">
<title>Node16&#45;&gt;Node11</title>
<g id="a_edge22_Node000016_Node000011"><a xlink:title=" ">
<path fill="none" stroke="#63b8ff" d="M881.9,-333.65C899.76,-351.39 928.63,-382.31 947,-413.5 970.13,-452.76 949.51,-478.6 983,-509.5 984.15,-510.56 985.34,-511.57 986.57,-512.54"/>
<polygon fill="#63b8ff" stroke="#63b8ff" points="984.94,-515.67 995.2,-518.32 988.84,-509.85 984.94,-515.67"/>
</a>
</g>
</g>
<!-- Node17 -->
<g id="Node000017" class="node">
<title>Node17</title>
<g id="a_Node000017"><a xlink:href="classwmtk_1_1multimesh_1_1_multi_mesh_manager.html#a8bbf1e9eb12a95c6b66bf85d0b900bb6" target="_top" xlink:title=" ">
<polygon fill="white" stroke="#666666" points="1148,-41 988,-41 988,0 1148,0 1148,-41"/>
<text text-anchor="start" x="996" y="-29" font-family="Helvetica,sans-Serif" font-size="10.00">wmtk::multimesh::MultiMesh</text>
<text text-anchor="start" x="996" y="-18" font-family="Helvetica,sans-Serif" font-size="10.00">Manager::child_to_parent</text>
<text text-anchor="middle" x="1068" y="-7" font-family="Helvetica,sans-Serif" font-size="10.00">_map_attribute_name</text>
</a>
</g>
</g>
<!-- Node16&#45;&gt;Node17 -->
<g id="edge23_Node000016_Node000017" class="edge">
<title>Node16&#45;&gt;Node17</title>
<g id="a_edge23_Node000016_Node000017"><a xlink:title=" ">
<path fill="none" stroke="#63b8ff" d="M868.26,-303.25C875.79,-257.89 904.12,-122.47 983,-49.5 983.96,-48.62 984.94,-47.76 985.95,-46.93"/>
<polygon fill="#63b8ff" stroke="#63b8ff" points="988.05,-49.73 994.13,-41.05 983.97,-44.04 988.05,-49.73"/>
</a>
</g>
</g>
<!-- Node18 -->
<g id="Node000018" class="node">
<title>Node18</title>
<g id="a_Node000018"><a xlink:href="classwmtk_1_1_mesh.html#ad85569ecd50cc7c0b5161b1d1cd13ebb" target="_top" xlink:title=" ">
<polygon fill="white" stroke="#666666" points="1124.5,-500.5 1011.5,-500.5 1011.5,-470.5 1124.5,-470.5 1124.5,-500.5"/>
<text text-anchor="start" x="1019.5" y="-488.5" font-family="Helvetica,sans-Serif" font-size="10.00">wmtk::Mesh::create</text>
<text text-anchor="middle" x="1068" y="-477.5" font-family="Helvetica,sans-Serif" font-size="10.00">_accessor</text>
</a>
</g>
</g>
<!-- Node16&#45;&gt;Node18 -->
<g id="edge24_Node000016_Node000018" class="edge">
<title>Node16&#45;&gt;Node18</title>
<g id="a_edge24_Node000016_Node000018"><a xlink:title=" ">
<path fill="none" stroke="#63b8ff" d="M878.95,-333.6C894.98,-352.31 923.08,-385.19 947,-413.5 963.09,-432.54 962.47,-442.36 983,-456.5 988.72,-460.44 995.03,-463.89 1001.53,-466.9"/>
<polygon fill="#63b8ff" stroke="#63b8ff" points="1000.6,-470.31 1011.17,-471.01 1003.34,-463.87 1000.6,-470.31"/>
</a>
</g>
</g>
<!-- Node19 -->
<g id="Node000019" class="node">
<title>Node19</title>
<g id="a_Node000019"><a xlink:href="classwmtk_1_1_mesh.html#a89b735bef9cbf8d5ab955d23f787b70f" target="_top" xlink:title=" ">
<polygon fill="white" stroke="#666666" points="1141.5,-78 994.5,-78 994.5,-59 1141.5,-59 1141.5,-78"/>
<text text-anchor="middle" x="1068" y="-66" font-family="Helvetica,sans-Serif" font-size="10.00">wmtk::Mesh::has_attribute</text>
</a>
</g>
</g>
<!-- Node16&#45;&gt;Node19 -->
<g id="edge25_Node000016_Node000019" class="edge">
<title>Node16&#45;&gt;Node19</title>
<g id="a_edge25_Node000016_Node000019"><a xlink:title=" ">
<path fill="none" stroke="#63b8ff" d="M870.43,-303.36C882.38,-264.99 918.76,-162.88 983,-104.5 993.87,-94.62 1007.85,-87.19 1021.28,-81.71"/>
<polygon fill="#63b8ff" stroke="#63b8ff" points="1022.8,-84.88 1030.91,-78.06 1020.32,-78.33 1022.8,-84.88"/>
</a>
</g>
</g>
<!-- Node21 -->
<g id="Node000021" class="node">
<title>Node21</title>
<g id="a_Node000021"><a xlink:href="classwmtk_1_1_mesh.html#a8cc8686f0688613806f43720b6db49e7" target="_top" xlink:title="check validity of tuple including its hash">
<polygon fill="white" stroke="#666666" points="1128,-376 1008,-376 1008,-357 1128,-357 1128,-376"/>
<text text-anchor="middle" x="1068" y="-364" font-family="Helvetica,sans-Serif" font-size="10.00">wmtk::Mesh::is_valid</text>
</a>
</g>
</g>
<!-- Node16&#45;&gt;Node21 -->
<g id="edge29_Node000016_Node000021" class="edge">
<title>Node16&#45;&gt;Node21</title>
<g id="a_edge29_Node000016_Node000021"><a xlink:title=" ">
<path fill="none" stroke="#63b8ff" d="M925.76,-333.56C944.11,-338.12 964.37,-343.08 983,-347.5 992.93,-349.85 1003.53,-352.3 1013.75,-354.63"/>
<polygon fill="#63b8ff" stroke="#63b8ff" points="1013.27,-358.11 1023.8,-356.91 1014.82,-351.28 1013.27,-358.11"/>
</a>
</g>
</g>
<!-- Node25 -->
<g id="Node000025" class="node">
<title>Node25</title>
<g id="a_Node000025"><a xlink:href="namespacewmtk.html#a6a35f11c12436093d26fdd8be6fecc06" target="_top" xlink:title="Retrieves the current logger.">
<polygon fill="white" stroke="#666666" points="1309.5,-414 1228.5,-414 1228.5,-395 1309.5,-395 1309.5,-414"/>
<text text-anchor="middle" x="1269" y="-402" font-family="Helvetica,sans-Serif" font-size="10.00">wmtk::logger</text>
</a>
</g>
</g>
<!-- Node16&#45;&gt;Node25 -->
<g id="edge36_Node000016_Node000025" class="edge">
<title>Node16&#45;&gt;Node25</title>
<g id="a_edge36_Node000016_Node000025"><a xlink:title=" ">
<path fill="none" stroke="#63b8ff" d="M886.28,-333.68C908.66,-349.5 946.37,-373.5 983,-384.5 1062.6,-408.41 1160.11,-409.59 1217.97,-407.55"/>
<polygon fill="#63b8ff" stroke="#63b8ff" points="1218.45,-411.03 1228.3,-407.14 1218.17,-404.04 1218.45,-411.03"/>
</a>
</g>
</g>
<!-- Node27 -->
<g id="Node000027" class="node">
<title>Node27</title>
<g id="a_Node000027"><a xlink:href="classwmtk_1_1multimesh_1_1_multi_mesh_manager.html#a8789badb5de2a644770dcb8cdf6f3bd1" target="_top" xlink:title=" ">
<polygon fill="white" stroke="#666666" points="1148,-339 988,-339 988,-298 1148,-298 1148,-339"/>
<text text-anchor="start" x="996" y="-327" font-family="Helvetica,sans-Serif" font-size="10.00">wmtk::multimesh::MultiMesh</text>
<text text-anchor="start" x="996" y="-316" font-family="Helvetica,sans-Serif" font-size="10.00">Manager::parent_to_child</text>
<text text-anchor="middle" x="1068" y="-305" font-family="Helvetica,sans-Serif" font-size="10.00">_map_attribute_name</text>
</a>
</g>
</g>
<!-- Node16&#45;&gt;Node27 -->
<g id="edge37_Node000016_Node000027" class="edge">
<title>Node16&#45;&gt;Node27</title>
<g id="a_edge37_Node000016_Node000027"><a xlink:title=" ">
<path fill="none" stroke="#63b8ff" d="M947.18,-318.5C957.23,-318.5 967.55,-318.5 977.71,-318.5"/>
<polygon fill="#63b8ff" stroke="#63b8ff" points="977.81,-322 987.81,-318.5 977.81,-315 977.81,-322"/>
</a>
</g>
</g>
<!-- Node28 -->
<g id="Node000028" class="node">
<title>Node28</title>
<g id="a_Node000028"><a xlink:href="classwmtk_1_1_mesh.html#a3faf39088ce02c2a2f208c762d6f2b52" target="_top" xlink:title=" ">
<polygon fill="white" stroke="#666666" points="1128,-279.5 1008,-279.5 1008,-249.5 1128,-249.5 1128,-279.5"/>
<text text-anchor="start" x="1016" y="-267.5" font-family="Helvetica,sans-Serif" font-size="10.00">wmtk::Mesh::register</text>
<text text-anchor="middle" x="1068" y="-256.5" font-family="Helvetica,sans-Serif" font-size="10.00">_attribute_typed</text>
</a>
</g>
</g>
<!-- Node16&#45;&gt;Node28 -->
<g id="edge38_Node000016_Node000028" class="edge">
<title>Node16&#45;&gt;Node28</title>
<g id="a_edge38_Node000016_Node000028"><a xlink:title=" ">
<path fill="none" stroke="#63b8ff" d="M921.99,-303.46C946.5,-296.87 975.43,-289.1 1000.98,-282.24"/>
<polygon fill="#63b8ff" stroke="#63b8ff" points="1002.21,-285.53 1010.96,-279.55 1000.4,-278.77 1002.21,-285.53"/>
</a>
</g>
</g>
<!-- Node31 -->
<g id="Node000031" class="node">
<title>Node31</title>
<g id="a_Node000031"><a xlink:href="namespacewmtk_1_1multimesh_1_1utils.html#ab19d57f46b80f20b1b4685ed83e305d5" target="_top" xlink:title=" ">
<polygon fill="white" stroke="#666666" points="1135.5,-231 1000.5,-231 1000.5,-190 1135.5,-190 1135.5,-231"/>
<text text-anchor="start" x="1008.5" y="-219" font-family="Helvetica,sans-Serif" font-size="10.00">wmtk::multimesh::utils</text>
<text text-anchor="start" x="1008.5" y="-208" font-family="Helvetica,sans-Serif" font-size="10.00">::symmetric_write_tuple</text>
<text text-anchor="middle" x="1068" y="-197" font-family="Helvetica,sans-Serif" font-size="10.00">_map_attributes</text>
</a>
</g>
</g>
<!-- Node16&#45;&gt;Node31 -->
<g id="edge41_Node000016_Node000031" class="edge">
<title>Node16&#45;&gt;Node31</title>
<g id="a_edge41_Node000016_Node000031"><a xlink:title=" ">
<path fill="none" stroke="#63b8ff" d="M885.38,-303.41C907.88,-286.42 946.57,-258.8 983,-240.5 986.74,-238.62 990.62,-236.81 994.57,-235.06"/>
<polygon fill="#63b8ff" stroke="#63b8ff" points="996.06,-238.24 1003.91,-231.12 993.33,-231.79 996.06,-238.24"/>
</a>
</g>
</g>
<!-- Node37 -->
<g id="Node000037" class="node">
<title>Node37</title>
<g id="a_Node000037"><a xlink:href="classwmtk_1_1_mesh.html#a933f681cf24a63b155c9462280385200" target="_top" xlink:title=" ">
<polygon fill="white" stroke="#666666" points="1329.5,-138.5 1208.5,-138.5 1208.5,-108.5 1329.5,-108.5 1329.5,-138.5"/>
<text text-anchor="start" x="1216.5" y="-126.5" font-family="Helvetica,sans-Serif" font-size="10.00">wmtk::Mesh::top_cell</text>
<text text-anchor="middle" x="1269" y="-115.5" font-family="Helvetica,sans-Serif" font-size="10.00">_dimension</text>
</a>
</g>
</g>
<!-- Node16&#45;&gt;Node37 -->
<g id="edge47_Node000016_Node000037" class="edge">
<title>Node16&#45;&gt;Node37</title>
<g id="a_edge47_Node000016_Node000037"><a xlink:title=" ">
<path fill="none" stroke="#63b8ff" d="M874.28,-303.13C890.79,-274.08 930.77,-211.28 983,-180.5 1001.38,-169.67 1119.91,-148.26 1198.2,-134.99"/>
<polygon fill="#63b8ff" stroke="#63b8ff" points="1199.22,-138.37 1208.5,-133.25 1198.05,-131.46 1199.22,-138.37"/>
</a>
</g>
</g>
<!-- Node38 -->
<g id="Node000038" class="node">
<title>Node38</title>
<g id="a_Node000038"><a xlink:href="classwmtk_1_1_mesh.html#abaf00438d0700358b160e310d69725c9" target="_top" xlink:title=" ">
<polygon fill="white" stroke="#666666" points="1153,-133 983,-133 983,-114 1153,-114 1153,-133"/>
<text text-anchor="middle" x="1068" y="-121" font-family="Helvetica,sans-Serif" font-size="10.00">wmtk::Mesh::top_simplex_type</text>
</a>
</g>
</g>
<!-- Node16&#45;&gt;Node38 -->
<g id="edge48_Node000016_Node000038" class="edge">
<title>Node16&#45;&gt;Node38</title>
<g id="a_edge48_Node000016_Node000038"><a xlink:title=" ">
<path fill="none" stroke="#63b8ff" d="M872.07,-303.32C886.25,-269.87 924.78,-189.46 983,-147.5 989.01,-143.17 995.78,-139.62 1002.8,-136.71"/>
<polygon fill="#63b8ff" stroke="#63b8ff" points="1004.32,-139.88 1012.49,-133.12 1001.89,-133.31 1004.32,-139.88"/>
</a>
</g>
</g>
<!-- Node19&#45;&gt;Node19 -->
<g id="edge27_Node000019_Node000019" class="edge">
<title>Node19&#45;&gt;Node19</title>
<g id="a_edge27_Node000019_Node000019"><a xlink:title=" ">
<path fill="none" stroke="#63b8ff" d="M1037.17,-78.08C1022.18,-86.73 1032.45,-96 1068,-96 1092.99,-96 1105.49,-91.42 1105.5,-85.69"/>
<polygon fill="#63b8ff" stroke="#63b8ff" points="1108.05,-83.29 1098.83,-78.08 1102.79,-87.91 1108.05,-83.29"/>
</a>
</g>
</g>
<!-- Node20 -->
<g id="Node000020" class="node">
<title>Node20</title>
<g id="a_Node000020"><a xlink:href="classwmtk_1_1attribute_1_1_attribute_manager.html#a2169001c03d75b77488dba8494038fe5" target="_top" xlink:title=" ">
<polygon fill="white" stroke="#666666" points="1339.5,-83.5 1198.5,-83.5 1198.5,-53.5 1339.5,-53.5 1339.5,-83.5"/>
<text text-anchor="start" x="1206.5" y="-71.5" font-family="Helvetica,sans-Serif" font-size="10.00">wmtk::attribute::Attribute</text>
<text text-anchor="middle" x="1269" y="-60.5" font-family="Helvetica,sans-Serif" font-size="10.00">Manager::get</text>
</a>
</g>
</g>
<!-- Node19&#45;&gt;Node20 -->
<g id="edge26_Node000019_Node000020" class="edge">
<title>Node19&#45;&gt;Node20</title>
<g id="a_edge26_Node000019_Node000020"><a xlink:title=" ">
<path fill="none" stroke="#63b8ff" d="M1141.69,-68.5C1156.9,-68.5 1173.01,-68.5 1188.46,-68.5"/>
<polygon fill="#63b8ff" stroke="#63b8ff" points="1188.49,-72 1198.49,-68.5 1188.49,-65 1188.49,-72"/>
</a>
</g>
</g>
<!-- Node22 -->
<g id="Node000022" class="node">
<title>Node22</title>
<g id="a_Node000022"><a xlink:href="classwmtk_1_1_tuple.html#a0023f575be92cd5ceeeaaaa3762ea06d" target="_top" xlink:title="Checks if a tuple is &quot;null&quot;. This merely implies the global index is &#45;1.">
<polygon fill="white" stroke="#666666" points="1325.5,-377 1212.5,-377 1212.5,-358 1325.5,-358 1325.5,-377"/>
<text text-anchor="middle" x="1269" y="-365" font-family="Helvetica,sans-Serif" font-size="10.00">wmtk::Tuple::is_null</text>
</a>
</g>
</g>
<!-- Node21&#45;&gt;Node22 -->
<g id="edge30_Node000021_Node000022" class="edge">
<title>Node21&#45;&gt;Node22</title>
<g id="a_edge30_Node000021_Node000022"><a xlink:title=" ">
<path fill="none" stroke="#63b8ff" d="M1128.17,-366.8C1151.53,-366.91 1178.45,-367.05 1202.4,-367.17"/>
<polygon fill="#63b8ff" stroke="#63b8ff" points="1202.45,-370.67 1212.47,-367.22 1202.48,-363.67 1202.45,-370.67"/>
</a>
</g>
</g>
<!-- Node23 -->
<g id="Node000023" class="node">
<title>Node23</title>
<g id="a_Node000023"><a xlink:href="classwmtk_1_1_mesh.html#ade176d345902d97af8c5da04aa3a095b" target="_top" xlink:title=" ">
<polygon fill="white" stroke="#666666" points="1339,-322 1199,-322 1199,-303 1339,-303 1339,-322"/>
<text text-anchor="middle" x="1269" y="-310" font-family="Helvetica,sans-Serif" font-size="10.00">wmtk::Mesh::is_removed</text>
</a>
</g>
</g>
<!-- Node21&#45;&gt;Node23 -->
<g id="edge31_Node000021_Node000023" class="edge">
<title>Node21&#45;&gt;Node23</title>
<g id="a_edge31_Node000021_Node000023"><a xlink:title=" ">
<path fill="none" stroke="#63b8ff" d="M1114.05,-356.95C1126.7,-354.09 1140.43,-350.83 1153,-347.5 1178.54,-340.73 1206.95,-332.1 1229.14,-325.1"/>
<polygon fill="#63b8ff" stroke="#63b8ff" points="1230.39,-328.37 1238.86,-322.01 1228.27,-321.7 1230.39,-328.37"/>
</a>
</g>
</g>
<!-- Node21&#45;&gt;Node25 -->
<g id="edge34_Node000021_Node000025" class="edge">
<title>Node21&#45;&gt;Node25</title>
<g id="a_edge34_Node000021_Node000025"><a xlink:title=" ">
<path fill="none" stroke="#63b8ff" d="M1118.96,-376.04C1149.37,-381.85 1188.07,-389.24 1218.41,-395.03"/>
<polygon fill="#63b8ff" stroke="#63b8ff" points="1217.88,-398.49 1228.36,-396.93 1219.19,-391.62 1217.88,-398.49"/>
</a>
</g>
</g>
<!-- Node23&#45;&gt;Node23 -->
<g id="edge33_Node000023_Node000023" class="edge">
<title>Node23&#45;&gt;Node23</title>
<g id="a_edge33_Node000023_Node000023"><a xlink:title=" ">
<path fill="none" stroke="#63b8ff" d="M1238.48,-322.08C1223.64,-330.73 1233.81,-340 1269,-340 1293.74,-340 1306.12,-335.42 1306.12,-329.69"/>
<polygon fill="#63b8ff" stroke="#63b8ff" points="1308.72,-327.34 1299.52,-322.08 1303.43,-331.93 1308.72,-327.34"/>
</a>
</g>
</g>
<!-- Node24 -->
<g id="Node000024" class="node">
<title>Node24</title>
<g id="a_Node000024"><a xlink:href="classwmtk_1_1_tuple.html#aef64a43ff5f5617dbc99d865356bbc25" target="_top" xlink:title=" ">
<polygon fill="white" stroke="#666666" points="1534,-322 1403,-322 1403,-303 1534,-303 1534,-322"/>
<text text-anchor="middle" x="1468.5" y="-310" font-family="Helvetica,sans-Serif" font-size="10.00">wmtk::Tuple::global_cid</text>
</a>
</g>
</g>
<!-- Node23&#45;&gt;Node24 -->
<g id="edge32_Node000023_Node000024" class="edge">
<title>Node23&#45;&gt;Node24</title>
<g id="a_edge32_Node000023_Node000024"><a xlink:title=" ">
<path fill="none" stroke="#63b8ff" d="M1339.08,-312.5C1356.37,-312.5 1375.01,-312.5 1392.57,-312.5"/>
<polygon fill="#63b8ff" stroke="#63b8ff" points="1392.77,-316 1402.77,-312.5 1392.77,-309 1392.77,-316"/>
</a>
</g>
</g>
<!-- Node26 -->
<g id="Node000026" class="node">
<title>Node26</title>
<g id="a_Node000026"><a xlink:href="namespacewmtk.html#a3daa7951a5f8b78cf4600dc047fcc180" target="_top" xlink:title="Setup a logger object to be used by WildmeshToolkit.">
<polygon fill="white" stroke="#666666" points="1519,-414 1418,-414 1418,-395 1519,-395 1519,-414"/>
<text text-anchor="middle" x="1468.5" y="-402" font-family="Helvetica,sans-Serif" font-size="10.00">wmtk::set_logger</text>
</a>
</g>
</g>
<!-- Node25&#45;&gt;Node26 -->
<g id="edge35_Node000025_Node000026" class="edge">
<title>Node25&#45;&gt;Node26</title>
<g id="a_edge35_Node000025_Node000026"><a xlink:title=" ">
<path fill="none" stroke="#63b8ff" d="M1309.97,-404.5C1338.04,-404.5 1376.07,-404.5 1407.74,-404.5"/>
<polygon fill="#63b8ff" stroke="#63b8ff" points="1407.77,-408 1417.77,-404.5 1407.77,-401 1407.77,-408"/>
</a>
</g>
</g>
<!-- Node29 -->
<g id="Node000029" class="node">
<title>Node29</title>
<g id="a_Node000029"><a xlink:href="classwmtk_1_1attribute_1_1_attribute_manager.html#ad8c21b193224524ed0f792b0e2d70f83" target="_top" xlink:title=" ">
<polygon fill="white" stroke="#666666" points="1344,-281.5 1194,-281.5 1194,-251.5 1344,-251.5 1344,-281.5"/>
<text text-anchor="start" x="1202" y="-269.5" font-family="Helvetica,sans-Serif" font-size="10.00">wmtk::attribute::Attribute</text>
<text text-anchor="middle" x="1269" y="-258.5" font-family="Helvetica,sans-Serif" font-size="10.00">Manager::register_attribute</text>
</a>
</g>
</g>
<!-- Node28&#45;&gt;Node29 -->
<g id="edge39_Node000028_Node000029" class="edge">
<title>Node28&#45;&gt;Node29</title>
<g id="a_edge39_Node000028_Node000029"><a xlink:title=" ">
<path fill="none" stroke="#63b8ff" d="M1128.17,-265.09C1145.65,-265.27 1165.13,-265.47 1183.86,-265.65"/>
<polygon fill="#63b8ff" stroke="#63b8ff" points="1183.84,-269.15 1193.88,-265.76 1183.91,-262.15 1183.84,-269.15"/>
</a>
</g>
</g>
<!-- Node30 -->
<g id="Node000030" class="node">
<title>Node30</title>
<g id="a_Node000030"><a xlink:href="classwmtk_1_1attribute_1_1_attribute_manager.html#a87216c73c02b436c7f965faa52553f56" target="_top" xlink:title=" ">
<polygon fill="white" stroke="#666666" points="1539,-283.5 1398,-283.5 1398,-253.5 1539,-253.5 1539,-283.5"/>
<text text-anchor="start" x="1406" y="-271.5" font-family="Helvetica,sans-Serif" font-size="10.00">wmtk::attribute::Attribute</text>
<text text-anchor="middle" x="1468.5" y="-260.5" font-family="Helvetica,sans-Serif" font-size="10.00">Manager::size</text>
</a>
</g>
</g>
<!-- Node29&#45;&gt;Node30 -->
<g id="edge40_Node000029_Node000030" class="edge">
<title>Node29&#45;&gt;Node30</title>
<g id="a_edge40_Node000029_Node000030"><a xlink:title=" ">
<path fill="none" stroke="#63b8ff" d="M1344.1,-267.25C1358.28,-267.39 1373.19,-267.54 1387.54,-267.69"/>
<polygon fill="#63b8ff" stroke="#63b8ff" points="1387.85,-271.19 1397.88,-267.79 1387.92,-264.19 1387.85,-271.19"/>
</a>
</g>
</g>
<!-- Node32 -->
<g id="Node000032" class="node">
<title>Node32</title>
<g id="a_Node000032"><a xlink:href="namespacewmtk_1_1multimesh_1_1utils.html#aa965e96578f254d53e7ca53d617f5c6a" target="_top" xlink:title=" ">
<polygon fill="white" stroke="#666666" points="1345,-187.5 1193,-187.5 1193,-157.5 1345,-157.5 1345,-187.5"/>
<text text-anchor="start" x="1201" y="-175.5" font-family="Helvetica,sans-Serif" font-size="10.00">wmtk::multimesh::utils</text>
<text text-anchor="middle" x="1269" y="-164.5" font-family="Helvetica,sans-Serif" font-size="10.00">::write_tuple_map_attribute</text>
</a>
</g>
</g>
<!-- Node31&#45;&gt;Node32 -->
<g id="edge42_Node000031_Node000032" class="edge">
<title>Node31&#45;&gt;Node32</title>
<g id="a_edge42_Node000031_Node000032"><a xlink:title=" ">
<path fill="none" stroke="#63b8ff" d="M1135.54,-197.79C1150.79,-194.88 1167.21,-191.75 1183.12,-188.71"/>
<polygon fill="#63b8ff" stroke="#63b8ff" points="1183.77,-192.15 1192.94,-186.83 1182.46,-185.27 1183.77,-192.15"/>
</a>
</g>
</g>
<!-- Node33 -->
<g id="Node000033" class="node">
<title>Node33</title>
<g id="a_Node000033"><a xlink:href="classwmtk_1_1attribute_1_1_accessor.html#abecebb154568864219abda80a1beb803" target="_top" xlink:title="Constant access function for a vector attribute.">
<polygon fill="white" stroke="#666666" points="1539.5,-139.5 1397.5,-139.5 1397.5,-109.5 1539.5,-109.5 1539.5,-139.5"/>
<text text-anchor="start" x="1405.5" y="-127.5" font-family="Helvetica,sans-Serif" font-size="10.00">wmtk::attribute::Accessor</text>
<text text-anchor="middle" x="1468.5" y="-116.5" font-family="Helvetica,sans-Serif" font-size="10.00">::const_vector_attribute</text>
</a>
</g>
</g>
<!-- Node32&#45;&gt;Node33 -->
<g id="edge43_Node000032_Node000033" class="edge">
<title>Node32&#45;&gt;Node33</title>
<g id="a_edge43_Node000032_Node000033"><a xlink:title=" ">
<path fill="none" stroke="#63b8ff" d="M1331.95,-157.44C1352.26,-152.51 1375,-146.98 1395.96,-141.89"/>
<polygon fill="#63b8ff" stroke="#63b8ff" points="1396.88,-145.27 1405.77,-139.5 1395.23,-138.46 1396.88,-145.27"/>
</a>
</g>
</g>
<!-- Node34 -->
<g id="Node000034" class="node">
<title>Node34</title>
<g id="a_Node000034"><a xlink:href="classwmtk_1_1attribute_1_1_tuple_accessor.html#a8d04c3529eb7adeead49e8faa7a119db" target="_top" xlink:title=" ">
<polygon fill="white" stroke="#666666" points="1552,-91.5 1385,-91.5 1385,-61.5 1552,-61.5 1552,-91.5"/>
<text text-anchor="start" x="1393" y="-79.5" font-family="Helvetica,sans-Serif" font-size="10.00">wmtk::attribute::TupleAccessor</text>
<text text-anchor="middle" x="1468.5" y="-68.5" font-family="Helvetica,sans-Serif" font-size="10.00">::dimension</text>
</a>
</g>
</g>
<!-- Node32&#45;&gt;Node34 -->
<g id="edge44_Node000032_Node000034" class="edge">
<title>Node32&#45;&gt;Node34</title>
<g id="a_edge44_Node000032_Node000034"><a xlink:title=" ">
<path fill="none" stroke="#63b8ff" d="M1330.92,-157.48C1337.3,-154.68 1343.47,-151.38 1349,-147.5 1370.54,-132.39 1363.29,-115.36 1385,-100.5 1387.29,-98.93 1389.68,-97.47 1392.14,-96.1"/>
<polygon fill="#63b8ff" stroke="#63b8ff" points="1393.94,-99.12 1401.35,-91.54 1390.84,-92.84 1393.94,-99.12"/>
</a>
</g>
</g>
<!-- Node35 -->
<g id="Node000035" class="node">
<title>Node35</title>
<g id="a_Node000035"><a xlink:href="classwmtk_1_1attribute_1_1_accessor.html#ad1c53d7c161d4f046bedc27006a0256f" target="_top" xlink:title=" ">
<polygon fill="white" stroke="#666666" points="1539.5,-235.5 1397.5,-235.5 1397.5,-205.5 1539.5,-205.5 1539.5,-235.5"/>
<text text-anchor="start" x="1405.5" y="-223.5" font-family="Helvetica,sans-Serif" font-size="10.00">wmtk::attribute::Accessor</text>
<text text-anchor="middle" x="1468.5" y="-212.5" font-family="Helvetica,sans-Serif" font-size="10.00">::dimension</text>
</a>
</g>
</g>
<!-- Node32&#45;&gt;Node35 -->
<g id="edge45_Node000032_Node000035" class="edge">
<title>Node32&#45;&gt;Node35</title>
<g id="a_edge45_Node000032_Node000035"><a xlink:title=" ">
<path fill="none" stroke="#63b8ff" d="M1331.95,-187.56C1352.26,-192.49 1375,-198.02 1395.96,-203.11"/>
<polygon fill="#63b8ff" stroke="#63b8ff" points="1395.23,-206.54 1405.77,-205.5 1396.88,-199.73 1395.23,-206.54"/>
</a>
</g>
</g>
<!-- Node36 -->
<g id="Node000036" class="node">
<title>Node36</title>
<g id="a_Node000036"><a xlink:href="classwmtk_1_1attribute_1_1_tuple_accessor.html#ab380e89ad00405e1e82f83f4d33ec6b1" target="_top" xlink:title=" ">
<polygon fill="white" stroke="#666666" points="1552,-187.5 1385,-187.5 1385,-157.5 1552,-157.5 1552,-187.5"/>
<text text-anchor="start" x="1393" y="-175.5" font-family="Helvetica,sans-Serif" font-size="10.00">wmtk::attribute::TupleAccessor</text>
<text text-anchor="middle" x="1468.5" y="-164.5" font-family="Helvetica,sans-Serif" font-size="10.00">::vector_attribute</text>
</a>
</g>
</g>
<!-- Node32&#45;&gt;Node36 -->
<g id="edge46_Node000032_Node000036" class="edge">
<title>Node32&#45;&gt;Node36</title>
<g id="a_edge46_Node000032_Node000036"><a xlink:title=" ">
<path fill="none" stroke="#63b8ff" d="M1345.23,-172.5C1354.86,-172.5 1364.8,-172.5 1374.67,-172.5"/>
<polygon fill="#63b8ff" stroke="#63b8ff" points="1374.9,-176 1384.9,-172.5 1374.9,-169 1374.9,-176"/>
</a>
</g>
</g>
<!-- Node38&#45;&gt;Node37 -->
<g id="edge49_Node000038_Node000037" class="edge">
<title>Node38&#45;&gt;Node37</title>
<g id="a_edge49_Node000038_Node000037"><a xlink:title=" ">
<path fill="none" stroke="#63b8ff" d="M1153.11,-123.5C1168.04,-123.5 1183.46,-123.5 1197.95,-123.5"/>
<polygon fill="#63b8ff" stroke="#63b8ff" points="1198.32,-127 1208.32,-123.5 1198.32,-120 1198.32,-127"/>
</a>
</g>
</g>
</g>
</svg>
