<?xml version="1.0" encoding="UTF-8" standalone="no"?>
<!DOCTYPE svg PUBLIC "-//W3C//DTD SVG 1.1//EN"
 "http://www.w3.org/Graphics/SVG/1.1/DTD/svg11.dtd">
<!-- Generated by graphviz version 2.43.0 (0)
 -->
<!-- Title: wmtk::components::multimesh::from_facet_bijection Pages: 1 -->
<svg width="594pt" height="152pt"
 viewBox="0.00 0.00 594.00 152.00" xmlns="http://www.w3.org/2000/svg" xmlns:xlink="http://www.w3.org/1999/xlink">
<g id="graph0" class="graph" transform="scale(1 1) rotate(0) translate(4 148)">
<title>wmtk::components::multimesh::from_facet_bijection</title>
<!-- Node1 -->
<g id="Node000001" class="node">
<title>Node1</title>
<g id="a_Node000001"><a xlink:title=" ">
<polygon fill="#999999" stroke="#666666" points="586,-78 417,-78 417,-48 586,-48 586,-78"/>
<text text-anchor="start" x="425" y="-66" font-family="Helvetica,sans-Serif" font-size="10.00">wmtk::components::multimesh</text>
<text text-anchor="middle" x="501.5" y="-55" font-family="Helvetica,sans-Serif" font-size="10.00">::from_facet_bijection</text>
</a>
</g>
</g>
<!-- Node2 -->
<g id="Node000002" class="node">
<title>Node2</title>
<g id="a_Node000002"><a xlink:href="namespacewmtk_1_1components_1_1multimesh.html#a1319047d22f3994a0c3c846379ed2196" target="_top" xlink:title=" ">
<polygon fill="white" stroke="#666666" points="377.5,-126 208.5,-126 208.5,-96 377.5,-96 377.5,-126"/>
<text text-anchor="start" x="216.5" y="-114" font-family="Helvetica,sans-Serif" font-size="10.00">wmtk::components::multimesh</text>
<text text-anchor="middle" x="293" y="-103" font-family="Helvetica,sans-Serif" font-size="10.00">::multimesh</text>
</a>
</g>
</g>
<!-- Node1&#45;&gt;Node2 -->
<g id="edge1_Node000001_Node000002" class="edge">
<title>Node1&#45;&gt;Node2</title>
<g id="a_edge1_Node000001_Node000002"><a xlink:title=" ">
<path fill="none" stroke="#63b8ff" d="M425.76,-80.37C403.75,-85.49 379.86,-91.04 358.54,-96"/>
<polygon fill="#63b8ff" stroke="#63b8ff" points="426.78,-83.73 435.73,-78.06 425.2,-76.91 426.78,-83.73"/>
</a>
</g>
</g>
<!-- Node4 -->
<g id="Node000004" class="node">
<title>Node4</title>
<g id="a_Node000004"><a xlink:href="structwmtk_1_1components_1_1multimesh_1_1_multimesh_bijection_options.html#adb16fc1892875c0093efcffdeb66e6b8" target="_top" xlink:title=" ">
<polygon fill="white" stroke="#666666" points="381,-78 205,-78 205,-48 381,-48 381,-78"/>
<text text-anchor="start" x="213" y="-66" font-family="Helvetica,sans-Serif" font-size="10.00">wmtk::components::multimesh</text>
<text text-anchor="middle" x="293" y="-55" font-family="Helvetica,sans-Serif" font-size="10.00">::MultimeshBijectionOptions::run</text>
</a>
</g>
</g>
<!-- Node1&#45;&gt;Node4 -->
<g id="edge4_Node000001_Node000004" class="edge">
<title>Node1&#45;&gt;Node4</title>
<g id="a_edge4_Node000001_Node000004"><a xlink:title=" ">
<path fill="none" stroke="#63b8ff" d="M406.55,-63C398.1,-63 389.57,-63 381.18,-63"/>
<polygon fill="#63b8ff" stroke="#63b8ff" points="406.81,-66.5 416.81,-63 406.81,-59.5 406.81,-66.5"/>
</a>
</g>
</g>
<!-- Node5 -->
<g id="Node000005" class="node">
<title>Node5</title>
<g id="a_Node000005"><a xlink:href="namespacewmtk_1_1components_1_1multimesh.html#a908a13d0c538f9bd57220261b8f4cb67" target="_top" xlink:title=" ">
<polygon fill="white" stroke="#666666" points="377.5,-30 208.5,-30 208.5,0 377.5,0 377.5,-30"/>
<text text-anchor="start" x="216.5" y="-18" font-family="Helvetica,sans-Serif" font-size="10.00">wmtk::components::multimesh</text>
<text text-anchor="middle" x="293" y="-7" font-family="Helvetica,sans-Serif" font-size="10.00">::vertex_fusion</text>
</a>
</g>
</g>
<!-- Node1&#45;&gt;Node5 -->
<g id="edge5_Node000001_Node000005" class="edge">
<title>Node1&#45;&gt;Node5</title>
<g id="a_edge5_Node000001_Node000005"><a xlink:title=" ">
<path fill="none" stroke="#63b8ff" d="M425.76,-45.63C403.75,-40.51 379.86,-34.96 358.54,-30"/>
<polygon fill="#63b8ff" stroke="#63b8ff" points="425.2,-49.09 435.73,-47.94 426.78,-42.27 425.2,-49.09"/>
</a>
</g>
</g>
<!-- Node2&#45;&gt;Node2 -->
<g id="edge2_Node000002_Node000002" class="edge">
<title>Node2&#45;&gt;Node2</title>
<g id="a_edge2_Node000002_Node000002"><a xlink:title=" ">
<path fill="none" stroke="#63b8ff" d="M329.41,-136.6C324.43,-140.97 312.3,-144 293,-144 260.5,-144 248.31,-135.41 256.44,-126.28"/>
<polygon fill="#63b8ff" stroke="#63b8ff" points="332.91,-136.33 329.56,-126.28 325.91,-136.22 332.91,-136.33"/>
</a>
</g>
</g>
<!-- Node3 -->
<g id="Node000003" class="node">
<title>Node3</title>
<g id="a_Node000003"><a xlink:href="namespacewmtk_1_1components_1_1multimesh.html#ac618c9d842c85017ac5f1b846a6e9c0a" target="_top" xlink:title=" ">
<polygon fill="white" stroke="#666666" points="169,-126 0,-126 0,-96 169,-96 169,-126"/>
<text text-anchor="start" x="8" y="-114" font-family="Helvetica,sans-Serif" font-size="10.00">wmtk::components::multimesh</text>
<text text-anchor="middle" x="84.5" y="-103" font-family="Helvetica,sans-Serif" font-size="10.00">::multimesh</text>
</a>
</g>
</g>
<!-- Node2&#45;&gt;Node3 -->
<g id="edge3_Node000002_Node000003" class="edge">
<title>Node2&#45;&gt;Node3</title>
<g id="a_edge3_Node000002_Node000003"><a xlink:title=" ">
<path fill="none" stroke="#63b8ff" d="M198.29,-111C188.63,-111 178.86,-111 169.31,-111"/>
<polygon fill="#63b8ff" stroke="#63b8ff" points="198.31,-114.5 208.31,-111 198.31,-107.5 198.31,-114.5"/>
</a>
</g>
</g>
</g>
</svg>
