<?xml version="1.0" encoding="UTF-8" standalone="no"?>
<!DOCTYPE svg PUBLIC "-//W3C//DTD SVG 1.1//EN"
 "http://www.w3.org/Graphics/SVG/1.1/DTD/svg11.dtd">
<!-- Generated by graphviz version 2.43.0 (0)
 -->
<!-- Title: wmtk::simplex::open_star Pages: 1 -->
<svg width="1772pt" height="687pt"
 viewBox="0.00 0.00 1772.00 687.00" xmlns="http://www.w3.org/2000/svg" xmlns:xlink="http://www.w3.org/1999/xlink">
<g id="graph0" class="graph" transform="scale(1 1) rotate(0) translate(4 683)">
<title>wmtk::simplex::open_star</title>
<!-- Node1 -->
<g id="Node000001" class="node">
<title>Node1</title>
<g id="a_Node000001"><a xlink:title=" ">
<polygon fill="#999999" stroke="#666666" points="143,-385.5 0,-385.5 0,-366.5 143,-366.5 143,-385.5"/>
<text text-anchor="middle" x="71.5" y="-373.5" font-family="Helvetica,sans-Serif" font-size="10.00">wmtk::simplex::open_star</text>
</a>
</g>
</g>
<!-- Node2 -->
<g id="Node000002" class="node">
<title>Node2</title>
<g id="a_Node000002"><a xlink:href="classwmtk_1_1simplex_1_1_simplex.html#a753a9245716f207b57cd92fcab5936e7" target="_top" xlink:title=" ">
<polygon fill="white" stroke="#666666" points="338.5,-504 203.5,-504 203.5,-474 338.5,-474 338.5,-504"/>
<text text-anchor="start" x="211.5" y="-492" font-family="Helvetica,sans-Serif" font-size="10.00">wmtk::simplex::Simplex</text>
<text text-anchor="middle" x="271" y="-481" font-family="Helvetica,sans-Serif" font-size="10.00">::edge</text>
</a>
</g>
</g>
<!-- Node1&#45;&gt;Node2 -->
<g id="edge1_Node000001_Node000002" class="edge">
<title>Node1&#45;&gt;Node2</title>
<g id="a_edge1_Node000001_Node000002"><a xlink:title=" ">
<path fill="none" stroke="#63b8ff" d="M81.17,-385.64C98.13,-403.91 137.69,-443.65 179,-465 183.6,-467.38 188.45,-469.53 193.43,-471.49"/>
<polygon fill="#63b8ff" stroke="#63b8ff" points="192.52,-474.88 203.12,-475 194.91,-468.3 192.52,-474.88"/>
</a>
</g>
</g>
<!-- Node4 -->
<g id="Node000004" class="node">
<title>Node4</title>
<g id="a_Node000004"><a xlink:href="classwmtk_1_1simplex_1_1_simplex.html#a2b9d969f3c7b1d746abc29d228f91328" target="_top" xlink:title=" ">
<polygon fill="white" stroke="#666666" points="338.5,-456 203.5,-456 203.5,-426 338.5,-426 338.5,-456"/>
<text text-anchor="start" x="211.5" y="-444" font-family="Helvetica,sans-Serif" font-size="10.00">wmtk::simplex::Simplex</text>
<text text-anchor="middle" x="271" y="-433" font-family="Helvetica,sans-Serif" font-size="10.00">::face</text>
</a>
</g>
</g>
<!-- Node1&#45;&gt;Node4 -->
<g id="edge3_Node000001_Node000004" class="edge">
<title>Node1&#45;&gt;Node4</title>
<g id="a_edge3_Node000001_Node000004"><a xlink:title=" ">
<path fill="none" stroke="#63b8ff" d="M100.48,-385.61C121.94,-392.94 152.3,-403.23 179,-412 189.84,-415.56 201.44,-419.3 212.59,-422.87"/>
<polygon fill="#63b8ff" stroke="#63b8ff" points="211.66,-426.25 222.25,-425.96 213.79,-419.58 211.66,-426.25"/>
</a>
</g>
</g>
<!-- Node5 -->
<g id="Node000005" class="node">
<title>Node5</title>
<g id="a_Node000005"><a xlink:href="classwmtk_1_1simplex_1_1_simplex.html#ad2cc0340a0772b7d6f03ba7a781d1163" target="_top" xlink:title=" ">
<polygon fill="white" stroke="#666666" points="570.5,-432 435.5,-432 435.5,-402 570.5,-402 570.5,-432"/>
<text text-anchor="start" x="443.5" y="-420" font-family="Helvetica,sans-Serif" font-size="10.00">wmtk::simplex::Simplex</text>
<text text-anchor="middle" x="503" y="-409" font-family="Helvetica,sans-Serif" font-size="10.00">::primitive_type</text>
</a>
</g>
</g>
<!-- Node1&#45;&gt;Node5 -->
<g id="edge5_Node000001_Node000005" class="edge">
<title>Node1&#45;&gt;Node5</title>
<g id="a_edge5_Node000001_Node000005"><a xlink:title=" ">
<path fill="none" stroke="#63b8ff" d="M143.42,-382.77C221.11,-390.19 345.27,-402.04 425.21,-409.67"/>
<polygon fill="#63b8ff" stroke="#63b8ff" points="424.93,-413.16 435.21,-410.62 425.59,-406.19 424.93,-413.16"/>
</a>
</g>
</g>
<!-- Node6 -->
<g id="Node000006" class="node">
<title>Node6</title>
<g id="a_Node000006"><a xlink:href="classwmtk_1_1simplex_1_1_simplex_collection.html#ab318c99d54327383ff1b985bed043f3a" target="_top" xlink:title="Sort simplex vector and remove duplicates.">
<polygon fill="white" stroke="#666666" points="363,-258 179,-258 179,-228 363,-228 363,-258"/>
<text text-anchor="start" x="187" y="-246" font-family="Helvetica,sans-Serif" font-size="10.00">wmtk::simplex::SimplexCollection</text>
<text text-anchor="middle" x="271" y="-235" font-family="Helvetica,sans-Serif" font-size="10.00">::sort_and_clean</text>
</a>
</g>
</g>
<!-- Node1&#45;&gt;Node6 -->
<g id="edge6_Node000001_Node000006" class="edge">
<title>Node1&#45;&gt;Node6</title>
<g id="a_edge6_Node000001_Node000006"><a xlink:title=" ">
<path fill="none" stroke="#63b8ff" d="M79.26,-366.26C94.51,-345.06 133.79,-294.5 179,-268 182.66,-265.86 186.5,-263.89 190.47,-262.09"/>
<polygon fill="#63b8ff" stroke="#63b8ff" points="191.99,-265.24 199.88,-258.17 189.31,-258.78 191.99,-265.24"/>
</a>
</g>
</g>
<!-- Node7 -->
<g id="Node000007" class="node">
<title>Node7</title>
<g id="a_Node000007"><a xlink:href="classwmtk_1_1_tri_mesh.html#a79010f8baac63245558c846aafea10d0" target="_top" xlink:title=" ">
<polygon fill="white" stroke="#666666" points="348.5,-295.5 193.5,-295.5 193.5,-276.5 348.5,-276.5 348.5,-295.5"/>
<text text-anchor="middle" x="271" y="-283.5" font-family="Helvetica,sans-Serif" font-size="10.00">wmtk::TriMesh::switch_edge</text>
</a>
</g>
</g>
<!-- Node1&#45;&gt;Node7 -->
<g id="edge7_Node000001_Node000007" class="edge">
<title>Node1&#45;&gt;Node7</title>
<g id="a_edge7_Node000001_Node000007"><a xlink:title=" ">
<path fill="none" stroke="#63b8ff" d="M93.64,-366.37C128.75,-350.37 199.25,-318.24 239.67,-299.82"/>
<polygon fill="#63b8ff" stroke="#63b8ff" points="241.37,-302.89 249.02,-295.56 238.46,-296.52 241.37,-302.89"/>
</a>
</g>
</g>
<!-- Node40 -->
<g id="Node000040" class="node">
<title>Node40</title>
<g id="a_Node000040"><a xlink:href="namespacewmtk_1_1simplex.html#a0101f27eb2ad82814390b92ab1a4d1a0" target="_top" xlink:title=" ">
<polygon fill="white" stroke="#666666" points="346.5,-370 195.5,-370 195.5,-340 346.5,-340 346.5,-370"/>
<text text-anchor="start" x="203.5" y="-358" font-family="Helvetica,sans-Serif" font-size="10.00">wmtk::simplex::top</text>
<text text-anchor="middle" x="271" y="-347" font-family="Helvetica,sans-Serif" font-size="10.00">_dimension_cofaces_tuples</text>
</a>
</g>
</g>
<!-- Node1&#45;&gt;Node40 -->
<g id="edge55_Node000001_Node000040" class="edge">
<title>Node1&#45;&gt;Node40</title>
<g id="a_edge55_Node000001_Node000040"><a xlink:title=" ">
<path fill="none" stroke="#63b8ff" d="M143.24,-368.48C156.87,-367.03 171.27,-365.5 185.29,-364.01"/>
<polygon fill="#63b8ff" stroke="#63b8ff" points="185.84,-367.47 195.41,-362.93 185.1,-360.51 185.84,-367.47"/>
</a>
</g>
</g>
<!-- Node3 -->
<g id="Node000003" class="node">
<title>Node3</title>
<g id="a_Node000003"><a xlink:href="classwmtk_1_1simplex_1_1_simplex.html#ab6d51ca0c220792c1c09824d152bb53a" target="_top" xlink:title=" ">
<polygon fill="white" stroke="#666666" points="570.5,-492 435.5,-492 435.5,-462 570.5,-462 570.5,-492"/>
<text text-anchor="start" x="443.5" y="-480" font-family="Helvetica,sans-Serif" font-size="10.00">wmtk::simplex::Simplex</text>
<text text-anchor="middle" x="503" y="-469" font-family="Helvetica,sans-Serif" font-size="10.00">::Simplex</text>
</a>
</g>
</g>
<!-- Node2&#45;&gt;Node3 -->
<g id="edge2_Node000002_Node000003" class="edge">
<title>Node2&#45;&gt;Node3</title>
<g id="a_edge2_Node000002_Node000003"><a xlink:title=" ">
<path fill="none" stroke="#63b8ff" d="M338.53,-485.53C365.58,-484.12 397.03,-482.48 425.06,-481.01"/>
<polygon fill="#63b8ff" stroke="#63b8ff" points="425.42,-484.5 435.23,-480.48 425.06,-477.51 425.42,-484.5"/>
</a>
</g>
</g>
<!-- Node4&#45;&gt;Node3 -->
<g id="edge4_Node000004_Node000003" class="edge">
<title>Node4&#45;&gt;Node3</title>
<g id="a_edge4_Node000004_Node000003"><a xlink:title=" ">
<path fill="none" stroke="#63b8ff" d="M338.53,-451.41C365.58,-455.65 397.03,-460.57 425.06,-464.96"/>
<polygon fill="#63b8ff" stroke="#63b8ff" points="424.8,-468.46 435.23,-466.55 425.89,-461.54 424.8,-468.46"/>
</a>
</g>
</g>
<!-- Node8 -->
<g id="Node000008" class="node">
<title>Node8</title>
<g id="a_Node000008"><a xlink:href="classwmtk_1_1_tri_mesh.html#a17b808a46d1a31efc12d555e6721bd02" target="_top" xlink:title="switch the orientation of the Tuple of the given dimension">
<polygon fill="white" stroke="#666666" points="565.5,-210 440.5,-210 440.5,-180 565.5,-180 565.5,-210"/>
<text text-anchor="start" x="448.5" y="-198" font-family="Helvetica,sans-Serif" font-size="10.00">wmtk::TriMesh::switch</text>
<text text-anchor="middle" x="503" y="-187" font-family="Helvetica,sans-Serif" font-size="10.00">_tuple</text>
</a>
</g>
</g>
<!-- Node7&#45;&gt;Node8 -->
<g id="edge8_Node000007_Node000008" class="edge">
<title>Node7&#45;&gt;Node8</title>
<g id="a_edge8_Node000007_Node000008"><a xlink:title=" ">
<path fill="none" stroke="#63b8ff" d="M331.54,-276.45C342.19,-273.94 353.06,-270.82 363,-267 380.29,-260.35 382.69,-254.78 399,-246 419.23,-235.11 442.1,-223.69 461.15,-214.43"/>
<polygon fill="#63b8ff" stroke="#63b8ff" points="462.68,-217.58 470.16,-210.07 459.63,-211.28 462.68,-217.58"/>
</a>
</g>
</g>
<!-- Node9 -->
<g id="Node000009" class="node">
<title>Node9</title>
<g id="a_Node000009"><a xlink:href="classwmtk_1_1_tri_mesh.html#a9975c25ed665c9c9a7f1ae92818a1b7c" target="_top" xlink:title=" ">
<polygon fill="white" stroke="#666666" points="767,-148.5 664,-148.5 664,-129.5 767,-129.5 767,-148.5"/>
<text text-anchor="middle" x="715.5" y="-136.5" font-family="Helvetica,sans-Serif" font-size="10.00">wmtk::TriMesh::id</text>
</a>
</g>
</g>
<!-- Node8&#45;&gt;Node9 -->
<g id="edge9_Node000008_Node000009" class="edge">
<title>Node8&#45;&gt;Node9</title>
<g id="a_edge9_Node000008_Node000009"><a xlink:title=" ">
<path fill="none" stroke="#63b8ff" d="M558.06,-179.95C583.76,-172.86 614.93,-164.37 643,-157 650.4,-155.06 658.25,-153.04 665.93,-151.09"/>
<polygon fill="#63b8ff" stroke="#63b8ff" points="667.04,-154.42 675.87,-148.57 665.32,-147.63 667.04,-154.42"/>
</a>
</g>
</g>
<!-- Node13 -->
<g id="Node000013" class="node">
<title>Node13</title>
<g id="a_Node000013"><a xlink:href="classwmtk_1_1_tri_mesh.html#accbde91fccacdfdfd997e20d9ee9eb22" target="_top" xlink:title="returns if a tuple is counterclockwise or not">
<polygon fill="white" stroke="#666666" points="778.5,-185.5 652.5,-185.5 652.5,-166.5 778.5,-166.5 778.5,-185.5"/>
<text text-anchor="middle" x="715.5" y="-173.5" font-family="Helvetica,sans-Serif" font-size="10.00">wmtk::TriMesh::is_ccw</text>
</a>
</g>
</g>
<!-- Node8&#45;&gt;Node13 -->
<g id="edge14_Node000008_Node000013" class="edge">
<title>Node8&#45;&gt;Node13</title>
<g id="a_edge14_Node000008_Node000013"><a xlink:title=" ">
<path fill="none" stroke="#63b8ff" d="M565.73,-189.43C589.72,-187.26 617.38,-184.77 642.28,-182.52"/>
<polygon fill="#63b8ff" stroke="#63b8ff" points="642.76,-185.99 652.4,-181.61 642.13,-179.02 642.76,-185.99"/>
</a>
</g>
</g>
<!-- Node19 -->
<g id="Node000019" class="node">
<title>Node19</title>
<g id="a_Node000019"><a xlink:href="classwmtk_1_1_tri_mesh.html#a611704f60f24669e957325c7cb79f200" target="_top" xlink:title="check validity of tuple including its hash">
<polygon fill="white" stroke="#666666" points="955,-189.5 824,-189.5 824,-170.5 955,-170.5 955,-189.5"/>
<text text-anchor="middle" x="889.5" y="-177.5" font-family="Helvetica,sans-Serif" font-size="10.00">wmtk::TriMesh::is_valid</text>
</a>
</g>
</g>
<!-- Node8&#45;&gt;Node19 -->
<g id="edge52_Node000008_Node000019" class="edge">
<title>Node8&#45;&gt;Node19</title>
<g id="a_edge52_Node000008_Node000019"><a xlink:title=" ">
<path fill="none" stroke="#63b8ff" d="M565.58,-197.17C623.17,-198.64 711.52,-199.44 788,-194 798.32,-193.27 809.19,-192.13 819.83,-190.82"/>
<polygon fill="#63b8ff" stroke="#63b8ff" points="820.45,-194.27 829.92,-189.52 819.55,-187.33 820.45,-194.27"/>
</a>
</g>
</g>
<!-- Node39 -->
<g id="Node000039" class="node">
<title>Node39</title>
<g id="a_Node000039"><a xlink:href="namespacewmtk_1_1autogen_1_1tri__mesh.html#a91e6b348f528d93ad6d9031bae1480da" target="_top" xlink:title=" ">
<polygon fill="white" stroke="#666666" points="788,-65 643,-65 643,-35 788,-35 788,-65"/>
<text text-anchor="start" x="651" y="-53" font-family="Helvetica,sans-Serif" font-size="10.00">wmtk::autogen::tri</text>
<text text-anchor="middle" x="715.5" y="-42" font-family="Helvetica,sans-Serif" font-size="10.00">_mesh::local_switch_tuple</text>
</a>
</g>
</g>
<!-- Node8&#45;&gt;Node39 -->
<g id="edge53_Node000008_Node000039" class="edge">
<title>Node8&#45;&gt;Node39</title>
<g id="a_edge53_Node000008_Node000039"><a xlink:title=" ">
<path fill="none" stroke="#63b8ff" d="M526.13,-179.76C564.05,-153.63 641.5,-100.29 684.33,-70.78"/>
<polygon fill="#63b8ff" stroke="#63b8ff" points="686.42,-73.59 692.67,-65.04 682.45,-67.83 686.42,-73.59"/>
</a>
</g>
</g>
<!-- Node10 -->
<g id="Node000010" class="node">
<title>Node10</title>
<g id="a_Node000010"><a xlink:href="classwmtk_1_1_mesh.html#a8cc8686f0688613806f43720b6db49e7" target="_top" xlink:title="check validity of tuple including its hash">
<polygon fill="white" stroke="#666666" points="1134.5,-148.5 1014.5,-148.5 1014.5,-129.5 1134.5,-129.5 1134.5,-148.5"/>
<text text-anchor="middle" x="1074.5" y="-136.5" font-family="Helvetica,sans-Serif" font-size="10.00">wmtk::Mesh::is_valid</text>
</a>
</g>
</g>
<!-- Node9&#45;&gt;Node10 -->
<g id="edge10_Node000009_Node000010" class="edge">
<title>Node9&#45;&gt;Node10</title>
<g id="a_edge10_Node000009_Node000010"><a xlink:title=" ">
<path fill="none" stroke="#63b8ff" d="M767.27,-139C829.25,-139 934.38,-139 1003.88,-139"/>
<polygon fill="#63b8ff" stroke="#63b8ff" points="1004.29,-142.5 1014.29,-139 1004.29,-135.5 1004.29,-142.5"/>
</a>
</g>
</g>
<!-- Node11 -->
<g id="Node000011" class="node">
<title>Node11</title>
<g id="a_Node000011"><a xlink:href="classwmtk_1_1_tuple.html#a0023f575be92cd5ceeeaaaa3762ea06d" target="_top" xlink:title="Checks if a tuple is &quot;null&quot;. This merely implies the global index is &#45;1.">
<polygon fill="white" stroke="#666666" points="1332,-96.5 1219,-96.5 1219,-77.5 1332,-77.5 1332,-96.5"/>
<text text-anchor="middle" x="1275.5" y="-84.5" font-family="Helvetica,sans-Serif" font-size="10.00">wmtk::Tuple::is_null</text>
</a>
</g>
</g>
<!-- Node10&#45;&gt;Node11 -->
<g id="edge11_Node000010_Node000011" class="edge">
<title>Node10&#45;&gt;Node11</title>
<g id="a_edge11_Node000010_Node000011"><a xlink:title=" ">
<path fill="none" stroke="#63b8ff" d="M1123.42,-129.4C1134.86,-126.72 1146.94,-123.55 1158,-120 1174.5,-114.7 1177.48,-110.24 1194,-105 1200.85,-102.83 1208.11,-100.81 1215.35,-98.98"/>
<polygon fill="#63b8ff" stroke="#63b8ff" points="1216.29,-102.35 1225.18,-96.59 1214.64,-95.55 1216.29,-102.35"/>
</a>
</g>
</g>
<!-- Node12 -->
<g id="Node000012" class="node">
<title>Node12</title>
<g id="a_Node000012"><a xlink:href="classwmtk_1_1_mesh.html#ade176d345902d97af8c5da04aa3a095b" target="_top" xlink:title=" ">
<polygon fill="white" stroke="#666666" points="1345.5,-133.5 1205.5,-133.5 1205.5,-114.5 1345.5,-114.5 1345.5,-133.5"/>
<text text-anchor="middle" x="1275.5" y="-121.5" font-family="Helvetica,sans-Serif" font-size="10.00">wmtk::Mesh::is_removed</text>
</a>
</g>
</g>
<!-- Node10&#45;&gt;Node12 -->
<g id="edge12_Node000010_Node000012" class="edge">
<title>Node10&#45;&gt;Node12</title>
<g id="a_edge12_Node000010_Node000012"><a xlink:title=" ">
<path fill="none" stroke="#63b8ff" d="M1134.67,-134.54C1153.68,-133.11 1175.06,-131.5 1195.28,-129.97"/>
<polygon fill="#63b8ff" stroke="#63b8ff" points="1195.69,-133.45 1205.4,-129.21 1195.17,-126.47 1195.69,-133.45"/>
</a>
</g>
</g>
<!-- Node12&#45;&gt;Node12 -->
<g id="edge13_Node000012_Node000012" class="edge">
<title>Node12&#45;&gt;Node12</title>
<g id="a_edge13_Node000012_Node000012"><a xlink:title=" ">
<path fill="none" stroke="#63b8ff" d="M1245.6,-133.58C1231.05,-142.23 1241.02,-151.5 1275.5,-151.5 1299.21,-151.5 1311.32,-147.12 1311.86,-141.57"/>
<polygon fill="#63b8ff" stroke="#63b8ff" points="1314.41,-139.16 1305.4,-133.58 1308.96,-143.56 1314.41,-139.16"/>
</a>
</g>
</g>
<!-- Node14 -->
<g id="Node000014" class="node">
<title>Node14</title>
<g id="a_Node000014"><a xlink:href="namespacewmtk_1_1autogen_1_1tri__mesh.html#aaab85f5120a223c29bae0881cd7f2c87" target="_top" xlink:title=" ">
<polygon fill="white" stroke="#666666" points="943,-106 836,-106 836,-76 943,-76 943,-106"/>
<text text-anchor="start" x="844" y="-94" font-family="Helvetica,sans-Serif" font-size="10.00">wmtk::autogen::tri</text>
<text text-anchor="middle" x="889.5" y="-83" font-family="Helvetica,sans-Serif" font-size="10.00">_mesh::is_ccw</text>
</a>
</g>
</g>
<!-- Node13&#45;&gt;Node14 -->
<g id="edge15_Node000013_Node000014" class="edge">
<title>Node13&#45;&gt;Node14</title>
<g id="a_edge15_Node000013_Node000014"><a xlink:title=" ">
<path fill="none" stroke="#63b8ff" d="M761.51,-166.4C770.47,-163.84 779.67,-160.72 788,-157 814.56,-145.13 841.99,-126.62 861.47,-112.22"/>
<polygon fill="#63b8ff" stroke="#63b8ff" points="863.67,-114.94 869.56,-106.13 859.47,-109.34 863.67,-114.94"/>
</a>
</g>
</g>
<!-- Node13&#45;&gt;Node19 -->
<g id="edge22_Node000013_Node000019" class="edge">
<title>Node13&#45;&gt;Node19</title>
<g id="a_edge22_Node000013_Node000019"><a xlink:title=" ">
<path fill="none" stroke="#63b8ff" d="M778.6,-177.44C789.98,-177.71 801.98,-177.99 813.69,-178.26"/>
<polygon fill="#63b8ff" stroke="#63b8ff" points="813.81,-181.76 823.89,-178.5 813.97,-174.77 813.81,-181.76"/>
</a>
</g>
</g>
<!-- Node15 -->
<g id="Node000015" class="node">
<title>Node15</title>
<g id="a_Node000015"><a xlink:href="namespacewmtk_1_1autogen_1_1tri__mesh.html#a1c9b651c47ee993e160a8dca570cf35c" target="_top" xlink:title=" ">
<polygon fill="white" stroke="#666666" points="1336.5,-59.5 1214.5,-59.5 1214.5,-18.5 1336.5,-18.5 1336.5,-59.5"/>
<text text-anchor="start" x="1222.5" y="-47.5" font-family="Helvetica,sans-Serif" font-size="10.00">wmtk::autogen::tri</text>
<text text-anchor="start" x="1222.5" y="-36.5" font-family="Helvetica,sans-Serif" font-size="10.00">_mesh::local_id_table</text>
<text text-anchor="middle" x="1275.5" y="-25.5" font-family="Helvetica,sans-Serif" font-size="10.00">_offset</text>
</a>
</g>
</g>
<!-- Node14&#45;&gt;Node15 -->
<g id="edge16_Node000014_Node000015" class="edge">
<title>Node14&#45;&gt;Node15</title>
<g id="a_edge16_Node000014_Node000015"><a xlink:title=" ">
<path fill="none" stroke="#63b8ff" d="M933.54,-75.96C951.14,-70.39 971.84,-64.56 991,-61 1062.88,-47.64 1146.48,-42.37 1204.18,-40.31"/>
<polygon fill="#63b8ff" stroke="#63b8ff" points="1204.41,-43.8 1214.29,-39.97 1204.17,-36.81 1204.41,-43.8"/>
</a>
</g>
</g>
<!-- Node18 -->
<g id="Node000018" class="node">
<title>Node18</title>
<g id="a_Node000018"><a xlink:href="namespacewmtk_1_1autogen_1_1tri__mesh.html#a786155d6d2270c482ffd6a96d3211867" target="_top" xlink:title=" ">
<polygon fill="white" stroke="#666666" points="1135.5,-111.5 1013.5,-111.5 1013.5,-70.5 1135.5,-70.5 1135.5,-111.5"/>
<text text-anchor="start" x="1021.5" y="-99.5" font-family="Helvetica,sans-Serif" font-size="10.00">wmtk::autogen::tri</text>
<text text-anchor="start" x="1021.5" y="-88.5" font-family="Helvetica,sans-Serif" font-size="10.00">_mesh::tuple_is_valid</text>
<text text-anchor="middle" x="1074.5" y="-77.5" font-family="Helvetica,sans-Serif" font-size="10.00">_for_ccw</text>
</a>
</g>
</g>
<!-- Node14&#45;&gt;Node18 -->
<g id="edge19_Node000014_Node000018" class="edge">
<title>Node14&#45;&gt;Node18</title>
<g id="a_edge19_Node000014_Node000018"><a xlink:title=" ">
<path fill="none" stroke="#63b8ff" d="M943.43,-91C962.04,-91 983.25,-91 1003.07,-91"/>
<polygon fill="#63b8ff" stroke="#63b8ff" points="1003.28,-94.5 1013.28,-91 1003.28,-87.5 1003.28,-94.5"/>
</a>
</g>
</g>
<!-- Node16 -->
<g id="Node000016" class="node">
<title>Node16</title>
<g id="a_Node000016"><a xlink:href="classwmtk_1_1utils_1_1_tuple_inspector.html#a3a04acf16e0eff80ade8e0fb8753ac1b" target="_top" xlink:title=" ">
<polygon fill="white" stroke="#666666" points="1543.5,-30 1395.5,-30 1395.5,0 1543.5,0 1543.5,-30"/>
<text text-anchor="start" x="1403.5" y="-18" font-family="Helvetica,sans-Serif" font-size="10.00">wmtk::utils::TupleInspector</text>
<text text-anchor="middle" x="1469.5" y="-7" font-family="Helvetica,sans-Serif" font-size="10.00">::local_eid</text>
</a>
</g>
</g>
<!-- Node15&#45;&gt;Node16 -->
<g id="edge17_Node000015_Node000016" class="edge">
<title>Node15&#45;&gt;Node16</title>
<g id="a_edge17_Node000015_Node000016"><a xlink:title=" ">
<path fill="none" stroke="#63b8ff" d="M1336.72,-31.47C1352.11,-29.55 1368.94,-27.45 1385.26,-25.41"/>
<polygon fill="#63b8ff" stroke="#63b8ff" points="1385.85,-28.86 1395.34,-24.14 1384.98,-21.91 1385.85,-28.86"/>
</a>
</g>
</g>
<!-- Node17 -->
<g id="Node000017" class="node">
<title>Node17</title>
<g id="a_Node000017"><a xlink:href="classwmtk_1_1utils_1_1_tuple_inspector.html#a92f5faa08a7f78424f5cd1ec79dcedbb" target="_top" xlink:title=" ">
<polygon fill="white" stroke="#666666" points="1543.5,-78 1395.5,-78 1395.5,-48 1543.5,-48 1543.5,-78"/>
<text text-anchor="start" x="1403.5" y="-66" font-family="Helvetica,sans-Serif" font-size="10.00">wmtk::utils::TupleInspector</text>
<text text-anchor="middle" x="1469.5" y="-55" font-family="Helvetica,sans-Serif" font-size="10.00">::local_vid</text>
</a>
</g>
</g>
<!-- Node15&#45;&gt;Node17 -->
<g id="edge18_Node000015_Node000017" class="edge">
<title>Node15&#45;&gt;Node17</title>
<g id="a_edge18_Node000015_Node000017"><a xlink:title=" ">
<path fill="none" stroke="#63b8ff" d="M1336.72,-46.53C1352.11,-48.45 1368.94,-50.55 1385.26,-52.59"/>
<polygon fill="#63b8ff" stroke="#63b8ff" points="1384.98,-56.09 1395.34,-53.86 1385.85,-49.14 1384.98,-56.09"/>
</a>
</g>
</g>
<!-- Node18&#45;&gt;Node11 -->
<g id="edge20_Node000018_Node000011" class="edge">
<title>Node18&#45;&gt;Node11</title>
<g id="a_edge20_Node000018_Node000011"><a xlink:title=" ">
<path fill="none" stroke="#63b8ff" d="M1135.75,-89.79C1158.77,-89.33 1185.12,-88.8 1208.64,-88.32"/>
<polygon fill="#63b8ff" stroke="#63b8ff" points="1208.94,-91.82 1218.87,-88.12 1208.8,-84.82 1208.94,-91.82"/>
</a>
</g>
</g>
<!-- Node18&#45;&gt;Node15 -->
<g id="edge21_Node000018_Node000015" class="edge">
<title>Node18&#45;&gt;Node15</title>
<g id="a_edge21_Node000018_Node000015"><a xlink:title=" ">
<path fill="none" stroke="#63b8ff" d="M1135.75,-75.26C1157.47,-69.58 1182.17,-63.13 1204.64,-57.25"/>
<polygon fill="#63b8ff" stroke="#63b8ff" points="1205.67,-60.6 1214.46,-54.69 1203.9,-53.83 1205.67,-60.6"/>
</a>
</g>
</g>
<!-- Node19&#45;&gt;Node10 -->
<g id="edge49_Node000019_Node000010" class="edge">
<title>Node19&#45;&gt;Node10</title>
<g id="a_edge49_Node000019_Node000010"><a xlink:title=" ">
<path fill="none" stroke="#63b8ff" d="M932.94,-170.49C959.18,-164.61 993.06,-157.02 1020.98,-150.77"/>
<polygon fill="#63b8ff" stroke="#63b8ff" points="1021.98,-154.13 1030.97,-148.53 1020.45,-147.3 1021.98,-154.13"/>
</a>
</g>
</g>
<!-- Node19&#45;&gt;Node18 -->
<g id="edge51_Node000019_Node000018" class="edge">
<title>Node19&#45;&gt;Node18</title>
<g id="a_edge51_Node000019_Node000018"><a xlink:title=" ">
<path fill="none" stroke="#63b8ff" d="M904.65,-170.31C923.66,-157.59 958.8,-135.09 991,-120 995.24,-118.01 999.67,-116.08 1004.16,-114.22"/>
<polygon fill="#63b8ff" stroke="#63b8ff" points="1005.46,-117.47 1013.45,-110.52 1002.86,-110.97 1005.46,-117.47"/>
</a>
</g>
</g>
<!-- Node20 -->
<g id="Node000020" class="node">
<title>Node20</title>
<g id="a_Node000020"><a xlink:href="classwmtk_1_1_tri_mesh.html#a6375662ccb85d7c8868b3c76d708bae5" target="_top" xlink:title=" ">
<polygon fill="white" stroke="#666666" points="1158,-472 991,-472 991,-442 1158,-442 1158,-472"/>
<text text-anchor="start" x="999" y="-460" font-family="Helvetica,sans-Serif" font-size="10.00">wmtk::TriMesh::is_connectivity</text>
<text text-anchor="middle" x="1074.5" y="-449" font-family="Helvetica,sans-Serif" font-size="10.00">_valid</text>
</a>
</g>
</g>
<!-- Node19&#45;&gt;Node20 -->
<g id="edge23_Node000019_Node000020" class="edge">
<title>Node19&#45;&gt;Node20</title>
<g id="a_edge23_Node000019_Node000020"><a xlink:title=" ">
<path fill="none" stroke="#63b8ff" d="M895.76,-189.84C910.05,-216.36 951.2,-291.24 991,-350 1011.32,-380 1037.16,-412.76 1054.46,-434.02"/>
<polygon fill="#63b8ff" stroke="#63b8ff" points="1051.82,-436.33 1060.86,-441.85 1057.24,-431.89 1051.82,-436.33"/>
</a>
</g>
</g>
<!-- Node37 -->
<g id="Node000037" class="node">
<title>Node37</title>
<g id="a_Node000037"><a xlink:href="namespacewmtk.html#a6a35f11c12436093d26fdd8be6fecc06" target="_top" xlink:title="Retrieves the current logger.">
<polygon fill="white" stroke="#666666" points="1316,-345.5 1235,-345.5 1235,-326.5 1316,-326.5 1316,-345.5"/>
<text text-anchor="middle" x="1275.5" y="-333.5" font-family="Helvetica,sans-Serif" font-size="10.00">wmtk::logger</text>
</a>
</g>
</g>
<!-- Node19&#45;&gt;Node37 -->
<g id="edge50_Node000019_Node000037" class="edge">
<title>Node19&#45;&gt;Node37</title>
<g id="a_edge50_Node000019_Node000037"><a xlink:title=" ">
<path fill="none" stroke="#63b8ff" d="M913.94,-189.52C979.55,-216.18 1165.18,-291.59 1241.31,-322.51"/>
<polygon fill="#63b8ff" stroke="#63b8ff" points="1240.29,-325.88 1250.88,-326.4 1242.93,-319.4 1240.29,-325.88"/>
</a>
</g>
</g>
<!-- Node21 -->
<g id="Node000021" class="node">
<title>Node21</title>
<g id="a_Node000021"><a xlink:href="classwmtk_1_1_mesh.html#a3e8ff83c4a5526a40d18bb9883c6c6c9" target="_top" xlink:title="read in the m_capacities return the upper bound for the number of entities of the given dimension">
<polygon fill="white" stroke="#666666" points="1531.5,-625.5 1407.5,-625.5 1407.5,-606.5 1531.5,-606.5 1531.5,-625.5"/>
<text text-anchor="middle" x="1469.5" y="-613.5" font-family="Helvetica,sans-Serif" font-size="10.00">wmtk::Mesh::capacity</text>
</a>
</g>
</g>
<!-- Node20&#45;&gt;Node21 -->
<g id="edge24_Node000020_Node000021" class="edge">
<title>Node20&#45;&gt;Node21</title>
<g id="a_edge24_Node000020_Node000021"><a xlink:title=" ">
<path fill="none" stroke="#63b8ff" d="M1085.82,-472.37C1104.18,-498.34 1145.23,-550.49 1194,-575 1257.76,-607.05 1339.63,-615.74 1397.3,-617.37"/>
<polygon fill="#63b8ff" stroke="#63b8ff" points="1397.35,-620.87 1407.42,-617.59 1397.5,-613.87 1397.35,-620.87"/>
</a>
</g>
</g>
<!-- Node23 -->
<g id="Node000023" class="node">
<title>Node23</title>
<g id="a_Node000023"><a xlink:href="classwmtk_1_1attribute_1_1_caching_accessor.html#a196b6b32e2495b971113d552be7f45d9" target="_top" xlink:title=" ">
<polygon fill="white" stroke="#666666" points="1538,-588.5 1401,-588.5 1401,-547.5 1538,-547.5 1538,-588.5"/>
<text text-anchor="start" x="1409" y="-576.5" font-family="Helvetica,sans-Serif" font-size="10.00">wmtk::attribute::Caching</text>
<text text-anchor="start" x="1409" y="-565.5" font-family="Helvetica,sans-Serif" font-size="10.00">Accessor::const_scalar</text>
<text text-anchor="middle" x="1469.5" y="-554.5" font-family="Helvetica,sans-Serif" font-size="10.00">_attribute</text>
</a>
</g>
</g>
<!-- Node20&#45;&gt;Node23 -->
<g id="edge26_Node000020_Node000023" class="edge">
<title>Node20&#45;&gt;Node23</title>
<g id="a_edge26_Node000020_Node000023"><a xlink:title=" ">
<path fill="none" stroke="#63b8ff" d="M1089.05,-472.09C1109.41,-493.59 1150.2,-532.28 1194,-549 1257.02,-573.06 1334.04,-576.35 1390.44,-574.48"/>
<polygon fill="#63b8ff" stroke="#63b8ff" points="1390.87,-577.96 1400.72,-574.07 1390.59,-570.97 1390.87,-577.96"/>
</a>
</g>
</g>
<!-- Node24 -->
<g id="Node000024" class="node">
<title>Node24</title>
<g id="a_Node000024"><a xlink:href="classwmtk_1_1attribute_1_1_caching_accessor.html#ab850fe07669c7bc92ca6cf6e86c60ee0" target="_top" xlink:title=" ">
<polygon fill="white" stroke="#666666" points="1344,-453.5 1207,-453.5 1207,-412.5 1344,-412.5 1344,-453.5"/>
<text text-anchor="start" x="1215" y="-441.5" font-family="Helvetica,sans-Serif" font-size="10.00">wmtk::attribute::Caching</text>
<text text-anchor="start" x="1215" y="-430.5" font-family="Helvetica,sans-Serif" font-size="10.00">Accessor::const_vector</text>
<text text-anchor="middle" x="1275.5" y="-419.5" font-family="Helvetica,sans-Serif" font-size="10.00">_attribute</text>
</a>
</g>
</g>
<!-- Node20&#45;&gt;Node24 -->
<g id="edge27_Node000020_Node000024" class="edge">
<title>Node20&#45;&gt;Node24</title>
<g id="a_edge27_Node000020_Node000024"><a xlink:title=" ">
<path fill="none" stroke="#63b8ff" d="M1158.17,-447.03C1170.97,-445.49 1184.16,-443.89 1196.86,-442.36"/>
<polygon fill="#63b8ff" stroke="#63b8ff" points="1197.4,-445.82 1206.91,-441.15 1196.56,-438.87 1197.4,-445.82"/>
</a>
</g>
</g>
<!-- Node25 -->
<g id="Node000025" class="node">
<title>Node25</title>
<g id="a_Node000025"><a xlink:href="classwmtk_1_1_mesh.html#ae3493915b766f0f34f0a9e89603d5773" target="_top" xlink:title=" ">
<polygon fill="white" stroke="#666666" points="1336.5,-672 1214.5,-672 1214.5,-642 1336.5,-642 1336.5,-672"/>
<text text-anchor="start" x="1222.5" y="-660" font-family="Helvetica,sans-Serif" font-size="10.00">wmtk::Mesh::get_flag</text>
<text text-anchor="middle" x="1275.5" y="-649" font-family="Helvetica,sans-Serif" font-size="10.00">_accessor</text>
</a>
</g>
</g>
<!-- Node20&#45;&gt;Node25 -->
<g id="edge28_Node000020_Node000025" class="edge">
<title>Node20&#45;&gt;Node25</title>
<g id="a_edge28_Node000020_Node000025"><a xlink:title=" ">
<path fill="none" stroke="#63b8ff" d="M1082.44,-472.23C1097.96,-504.68 1138.49,-581.26 1194,-625 1200.15,-629.84 1207.12,-634.04 1214.33,-637.65"/>
<polygon fill="#63b8ff" stroke="#63b8ff" points="1213,-640.89 1223.54,-641.92 1215.94,-634.54 1213,-640.89"/>
</a>
</g>
</g>
<!-- Node28 -->
<g id="Node000028" class="node">
<title>Node28</title>
<g id="a_Node000028"><a xlink:href="classwmtk_1_1attribute_1_1_accessor.html#a2d587e12c47a6d839ab80e9198cf75b5" target="_top" xlink:title=" ">
<polygon fill="white" stroke="#666666" points="1540.5,-481 1398.5,-481 1398.5,-451 1540.5,-451 1540.5,-481"/>
<text text-anchor="start" x="1406.5" y="-469" font-family="Helvetica,sans-Serif" font-size="10.00">wmtk::attribute::Accessor</text>
<text text-anchor="middle" x="1469.5" y="-458" font-family="Helvetica,sans-Serif" font-size="10.00">::index_access</text>
</a>
</g>
</g>
<!-- Node20&#45;&gt;Node28 -->
<g id="edge32_Node000020_Node000028" class="edge">
<title>Node20&#45;&gt;Node28</title>
<g id="a_edge32_Node000020_Node000028"><a xlink:title=" ">
<path fill="none" stroke="#63b8ff" d="M1158.04,-461.6C1170.1,-462.15 1182.37,-462.64 1194,-463 1259.23,-465.01 1333.21,-465.73 1387.92,-465.96"/>
<polygon fill="#63b8ff" stroke="#63b8ff" points="1388.23,-469.46 1398.25,-466 1388.26,-462.46 1388.23,-469.46"/>
</a>
</g>
</g>
<!-- Node30 -->
<g id="Node000030" class="node">
<title>Node30</title>
<g id="a_Node000030"><a xlink:href="classwmtk_1_1attribute_1_1_flag_accessor.html#a4f49a666c3811fee9b841c1cd1f66250" target="_top" xlink:title=" ">
<polygon fill="white" stroke="#666666" points="1357,-394 1194,-394 1194,-364 1357,-364 1357,-394"/>
<text text-anchor="start" x="1202" y="-382" font-family="Helvetica,sans-Serif" font-size="10.00">wmtk::attribute::FlagAccessor</text>
<text text-anchor="middle" x="1275.5" y="-371" font-family="Helvetica,sans-Serif" font-size="10.00">::index_access</text>
</a>
</g>
</g>
<!-- Node20&#45;&gt;Node30 -->
<g id="edge34_Node000020_Node000030" class="edge">
<title>Node20&#45;&gt;Node30</title>
<g id="a_edge34_Node000020_Node000030"><a xlink:title=" ">
<path fill="none" stroke="#63b8ff" d="M1106.76,-441.79C1130.41,-430.58 1163.85,-415.38 1194,-404 1200.16,-401.67 1206.65,-399.39 1213.15,-397.21"/>
<polygon fill="#63b8ff" stroke="#63b8ff" points="1214.24,-400.54 1222.66,-394.1 1212.06,-393.89 1214.24,-400.54"/>
</a>
</g>
</g>
<!-- Node31 -->
<g id="Node000031" class="node">
<title>Node31</title>
<g id="a_Node000031"><a xlink:href="classwmtk_1_1attribute_1_1_index_flag_accessor.html#a195252af3f6230f09f0c1379cbec7240" target="_top" xlink:title=" ">
<polygon fill="white" stroke="#666666" points="1348.5,-540 1202.5,-540 1202.5,-510 1348.5,-510 1348.5,-540"/>
<text text-anchor="start" x="1210.5" y="-528" font-family="Helvetica,sans-Serif" font-size="10.00">wmtk::attribute::IndexFlag</text>
<text text-anchor="middle" x="1275.5" y="-517" font-family="Helvetica,sans-Serif" font-size="10.00">Accessor::is_active</text>
</a>
</g>
</g>
<!-- Node20&#45;&gt;Node31 -->
<g id="edge35_Node000020_Node000031" class="edge">
<title>Node20&#45;&gt;Node31</title>
<g id="a_edge35_Node000020_Node000031"><a xlink:title=" ">
<path fill="none" stroke="#63b8ff" d="M1119.66,-472.09C1149.55,-482.3 1189.2,-495.85 1220.9,-506.68"/>
<polygon fill="#63b8ff" stroke="#63b8ff" points="1219.86,-510.03 1230.46,-509.95 1222.13,-503.41 1219.86,-510.03"/>
</a>
</g>
</g>
<!-- Node33 -->
<g id="Node000033" class="node">
<title>Node33</title>
<g id="a_Node000033"><a xlink:href="classwmtk_1_1_tri_mesh.html#a2e568aaaffd6e68904c5cecd8256ed93" target="_top" xlink:title="returns if a simplex is on the boundary of hte mesh. For anything but dimension &#45; 1 this checks if th...">
<polygon fill="white" stroke="#666666" points="1352,-231.5 1199,-231.5 1199,-212.5 1352,-212.5 1352,-231.5"/>
<text text-anchor="middle" x="1275.5" y="-219.5" font-family="Helvetica,sans-Serif" font-size="10.00">wmtk::TriMesh::is_boundary</text>
</a>
</g>
</g>
<!-- Node20&#45;&gt;Node33 -->
<g id="edge39_Node000020_Node000033" class="edge">
<title>Node20&#45;&gt;Node33</title>
<g id="a_edge39_Node000020_Node000033"><a xlink:title=" ">
<path fill="none" stroke="#63b8ff" d="M1088.25,-441.94C1123.48,-400.34 1222,-284 1259.63,-239.56"/>
<polygon fill="#63b8ff" stroke="#63b8ff" points="1262.52,-241.57 1266.31,-231.67 1257.17,-237.04 1262.52,-241.57"/>
</a>
</g>
</g>
<!-- Node20&#45;&gt;Node37 -->
<g id="edge47_Node000020_Node000037" class="edge">
<title>Node20&#45;&gt;Node37</title>
<g id="a_edge47_Node000020_Node000037"><a xlink:title=" ">
<path fill="none" stroke="#63b8ff" d="M1094.05,-441.89C1110.91,-428.07 1136.37,-406.94 1158,-388 1174.33,-373.7 1174.82,-365.15 1194,-355 1203.52,-349.96 1214.38,-346.24 1224.96,-343.5"/>
<polygon fill="#63b8ff" stroke="#63b8ff" points="1226.04,-346.85 1234.98,-341.17 1224.45,-340.03 1226.04,-346.85"/>
</a>
</g>
</g>
<!-- Node22 -->
<g id="Node000022" class="node">
<title>Node22</title>
<g id="a_Node000022"><a xlink:href="namespacewmtk.html#a5cf45c152e856196bb734c6f48919a24" target="_top" xlink:title="Get a unique integer id corresponding to each primitive type.">
<polygon fill="white" stroke="#666666" points="1731,-631 1615,-631 1615,-601 1731,-601 1731,-631"/>
<text text-anchor="start" x="1623" y="-619" font-family="Helvetica,sans-Serif" font-size="10.00">wmtk::get_primitive</text>
<text text-anchor="middle" x="1673" y="-608" font-family="Helvetica,sans-Serif" font-size="10.00">_type_id</text>
</a>
</g>
</g>
<!-- Node21&#45;&gt;Node22 -->
<g id="edge25_Node000021_Node000022" class="edge">
<title>Node21&#45;&gt;Node22</title>
<g id="a_edge25_Node000021_Node000022"><a xlink:title=" ">
<path fill="none" stroke="#63b8ff" d="M1531.5,-616C1554.61,-616 1581.04,-616 1604.69,-616"/>
<polygon fill="#63b8ff" stroke="#63b8ff" points="1604.99,-619.5 1614.99,-616 1604.99,-612.5 1604.99,-619.5"/>
</a>
</g>
</g>
<!-- Node26 -->
<g id="Node000026" class="node">
<title>Node26</title>
<g id="a_Node000026"><a xlink:href="classwmtk_1_1_mesh.html#acfa981b31f00aef4438ff5e73bbce2f4" target="_top" xlink:title=" ">
<polygon fill="white" stroke="#666666" points="1534.5,-674 1404.5,-674 1404.5,-644 1534.5,-644 1534.5,-674"/>
<text text-anchor="start" x="1412.5" y="-662" font-family="Helvetica,sans-Serif" font-size="10.00">wmtk::Mesh::get_const</text>
<text text-anchor="middle" x="1469.5" y="-651" font-family="Helvetica,sans-Serif" font-size="10.00">_flag_accessor</text>
</a>
</g>
</g>
<!-- Node25&#45;&gt;Node26 -->
<g id="edge29_Node000025_Node000026" class="edge">
<title>Node25&#45;&gt;Node26</title>
<g id="a_edge29_Node000025_Node000026"><a xlink:title=" ">
<path fill="none" stroke="#63b8ff" d="M1336.72,-657.63C1354.9,-657.82 1375.08,-658.03 1394.06,-658.22"/>
<polygon fill="#63b8ff" stroke="#63b8ff" points="1394.13,-661.73 1404.17,-658.33 1394.21,-654.73 1394.13,-661.73"/>
</a>
</g>
</g>
<!-- Node26&#45;&gt;Node22 -->
<g id="edge31_Node000026_Node000022" class="edge">
<title>Node26&#45;&gt;Node22</title>
<g id="a_edge31_Node000026_Node000022"><a xlink:title=" ">
<path fill="none" stroke="#63b8ff" d="M1534.53,-645.34C1557.02,-640.54 1582.33,-635.14 1605.05,-630.29"/>
<polygon fill="#63b8ff" stroke="#63b8ff" points="1605.9,-633.68 1614.95,-628.17 1604.44,-626.84 1605.9,-633.68"/>
</a>
</g>
</g>
<!-- Node27 -->
<g id="Node000027" class="node">
<title>Node27</title>
<g id="a_Node000027"><a xlink:href="classwmtk_1_1_mesh.html#a357182137d99f1e4a7ff536eadfc0e56" target="_top" xlink:title=" ">
<polygon fill="white" stroke="#666666" points="1729.5,-679 1616.5,-679 1616.5,-649 1729.5,-649 1729.5,-679"/>
<text text-anchor="start" x="1624.5" y="-667" font-family="Helvetica,sans-Serif" font-size="10.00">wmtk::Mesh::create</text>
<text text-anchor="middle" x="1673" y="-656" font-family="Helvetica,sans-Serif" font-size="10.00">_const_accessor</text>
</a>
</g>
</g>
<!-- Node26&#45;&gt;Node27 -->
<g id="edge30_Node000026_Node000027" class="edge">
<title>Node26&#45;&gt;Node27</title>
<g id="a_edge30_Node000026_Node000027"><a xlink:title=" ">
<path fill="none" stroke="#63b8ff" d="M1534.53,-660.59C1557.42,-661.16 1583.24,-661.8 1606.27,-662.37"/>
<polygon fill="#63b8ff" stroke="#63b8ff" points="1606.2,-665.87 1616.29,-662.62 1606.38,-658.87 1606.2,-665.87"/>
</a>
</g>
</g>
<!-- Node29 -->
<g id="Node000029" class="node">
<title>Node29</title>
<g id="a_Node000029"><a xlink:href="classwmtk_1_1attribute_1_1_accessor.html#afd97a48ec5d1db975a030428df81f617" target="_top" xlink:title=" ">
<polygon fill="white" stroke="#666666" points="1744,-481 1602,-481 1602,-451 1744,-451 1744,-481"/>
<text text-anchor="start" x="1610" y="-469" font-family="Helvetica,sans-Serif" font-size="10.00">wmtk::attribute::Accessor</text>
<text text-anchor="middle" x="1673" y="-458" font-family="Helvetica,sans-Serif" font-size="10.00">::caching_base_type</text>
</a>
</g>
</g>
<!-- Node28&#45;&gt;Node29 -->
<g id="edge33_Node000028_Node000029" class="edge">
<title>Node28&#45;&gt;Node29</title>
<g id="a_edge33_Node000028_Node000029"><a xlink:title=" ">
<path fill="none" stroke="#63b8ff" d="M1540.69,-466C1557.06,-466 1574.61,-466 1591.39,-466"/>
<polygon fill="#63b8ff" stroke="#63b8ff" points="1591.72,-469.5 1601.72,-466 1591.72,-462.5 1591.72,-469.5"/>
</a>
</g>
</g>
<!-- Node31&#45;&gt;Node23 -->
<g id="edge37_Node000031_Node000023" class="edge">
<title>Node31&#45;&gt;Node23</title>
<g id="a_edge37_Node000031_Node000023"><a xlink:title=" ">
<path fill="none" stroke="#63b8ff" d="M1343.65,-540.04C1358.82,-543.44 1375.05,-547.07 1390.62,-550.56"/>
<polygon fill="#63b8ff" stroke="#63b8ff" points="1390.21,-554.05 1400.74,-552.82 1391.74,-547.22 1390.21,-554.05"/>
</a>
</g>
</g>
<!-- Node31&#45;&gt;Node28 -->
<g id="edge38_Node000031_Node000028" class="edge">
<title>Node31&#45;&gt;Node28</title>
<g id="a_edge38_Node000031_Node000028"><a xlink:title=" ">
<path fill="none" stroke="#63b8ff" d="M1325.45,-509.96C1351.17,-502.05 1382.89,-492.31 1409.92,-484"/>
<polygon fill="#63b8ff" stroke="#63b8ff" points="1411.11,-487.3 1419.64,-481.01 1409.06,-480.61 1411.11,-487.3"/>
</a>
</g>
</g>
<!-- Node32 -->
<g id="Node000032" class="node">
<title>Node32</title>
<g id="a_Node000032"><a xlink:href="classwmtk_1_1attribute_1_1_index_flag_accessor.html#a08ce19b077654f9e384d8c3fffcbbd0b" target="_top" xlink:title=" ">
<polygon fill="white" stroke="#666666" points="1542.5,-529 1396.5,-529 1396.5,-499 1542.5,-499 1542.5,-529"/>
<text text-anchor="start" x="1404.5" y="-517" font-family="Helvetica,sans-Serif" font-size="10.00">wmtk::attribute::IndexFlag</text>
<text text-anchor="middle" x="1469.5" y="-506" font-family="Helvetica,sans-Serif" font-size="10.00">Accessor::_is_active</text>
</a>
</g>
</g>
<!-- Node31&#45;&gt;Node32 -->
<g id="edge36_Node000031_Node000032" class="edge">
<title>Node31&#45;&gt;Node32</title>
<g id="a_edge36_Node000031_Node000032"><a xlink:title=" ">
<path fill="none" stroke="#63b8ff" d="M1348.54,-520.87C1360.88,-520.17 1373.79,-519.43 1386.37,-518.71"/>
<polygon fill="#63b8ff" stroke="#63b8ff" points="1386.59,-522.2 1396.38,-518.13 1386.19,-515.21 1386.59,-522.2"/>
</a>
</g>
</g>
<!-- Node34 -->
<g id="Node000034" class="node">
<title>Node34</title>
<g id="a_Node000034"><a xlink:href="classwmtk_1_1_tri_mesh.html#ac603f7969b10c674eb00e007a507a530" target="_top" xlink:title=" ">
<polygon fill="white" stroke="#666666" points="1764,-224.5 1582,-224.5 1582,-205.5 1764,-205.5 1764,-224.5"/>
<text text-anchor="middle" x="1673" y="-212.5" font-family="Helvetica,sans-Serif" font-size="10.00">wmtk::TriMesh::is_boundary_edge</text>
</a>
</g>
</g>
<!-- Node33&#45;&gt;Node34 -->
<g id="edge40_Node000033_Node000034" class="edge">
<title>Node33&#45;&gt;Node34</title>
<g id="a_edge40_Node000033_Node000034"><a xlink:title=" ">
<path fill="none" stroke="#63b8ff" d="M1352.29,-220.66C1414.59,-219.56 1503.38,-217.98 1571.58,-216.78"/>
<polygon fill="#63b8ff" stroke="#63b8ff" points="1571.98,-220.27 1581.92,-216.59 1571.86,-213.27 1571.98,-220.27"/>
</a>
</g>
</g>
<!-- Node35 -->
<g id="Node000035" class="node">
<title>Node35</title>
<g id="a_Node000035"><a xlink:href="classwmtk_1_1_tri_mesh.html#a1d5d124897281d6a649098213173fdb5" target="_top" xlink:title=" ">
<polygon fill="white" stroke="#666666" points="1546,-273 1393,-273 1393,-243 1546,-243 1546,-273"/>
<text text-anchor="start" x="1401" y="-261" font-family="Helvetica,sans-Serif" font-size="10.00">wmtk::TriMesh::is_boundary</text>
<text text-anchor="middle" x="1469.5" y="-250" font-family="Helvetica,sans-Serif" font-size="10.00">_vertex</text>
</a>
</g>
</g>
<!-- Node33&#45;&gt;Node35 -->
<g id="edge42_Node000033_Node000035" class="edge">
<title>Node33&#45;&gt;Node35</title>
<g id="a_edge42_Node000033_Node000035"><a xlink:title=" ">
<path fill="none" stroke="#63b8ff" d="M1327.2,-231.51C1344.32,-234.72 1363.94,-238.4 1383,-241.97"/>
<polygon fill="#63b8ff" stroke="#63b8ff" points="1382.43,-245.42 1392.9,-243.83 1383.72,-238.54 1382.43,-245.42"/>
</a>
</g>
</g>
<!-- Node34&#45;&gt;Node19 -->
<g id="edge41_Node000034_Node000019" class="edge">
<title>Node34&#45;&gt;Node19</title>
<g id="a_edge41_Node000034_Node000019"><a xlink:title=" ">
<path fill="none" stroke="#63b8ff" d="M1581.96,-210.97C1426.26,-203.99 1109.56,-189.81 965.21,-183.35"/>
<polygon fill="#63b8ff" stroke="#63b8ff" points="965.26,-179.84 955.12,-182.89 964.95,-186.84 965.26,-179.84"/>
</a>
</g>
</g>
<!-- Node35&#45;&gt;Node7 -->
<g id="edge44_Node000035_Node000007" class="edge">
<title>Node35&#45;&gt;Node7</title>
<g id="a_edge44_Node000035_Node000007"><a xlink:title=" ">
<path fill="none" stroke="#63b8ff" d="M1392.79,-258.61C1313.65,-259.2 1185.86,-260 1075.5,-260 714.5,-260 714.5,-260 714.5,-260 590.75,-260 447.88,-270.26 358.73,-277.89"/>
<polygon fill="#63b8ff" stroke="#63b8ff" points="358.32,-274.41 348.66,-278.76 358.93,-281.38 358.32,-274.41"/>
</a>
</g>
</g>
<!-- Node35&#45;&gt;Node34 -->
<g id="edge43_Node000035_Node000034" class="edge">
<title>Node35&#45;&gt;Node34</title>
<g id="a_edge43_Node000035_Node000034"><a xlink:title=" ">
<path fill="none" stroke="#63b8ff" d="M1540.97,-242.96C1566.1,-237.6 1593.99,-231.65 1617.56,-226.62"/>
<polygon fill="#63b8ff" stroke="#63b8ff" points="1618.33,-230.03 1627.38,-224.52 1616.87,-223.19 1618.33,-230.03"/>
</a>
</g>
</g>
<!-- Node36 -->
<g id="Node000036" class="node">
<title>Node36</title>
<g id="a_Node000036"><a xlink:href="classwmtk_1_1_tri_mesh.html#a0ecb0fd199e840ff9f3d206abc10a64b" target="_top" xlink:title=" ">
<polygon fill="white" stroke="#666666" points="1749,-288.5 1597,-288.5 1597,-269.5 1749,-269.5 1749,-288.5"/>
<text text-anchor="middle" x="1673" y="-276.5" font-family="Helvetica,sans-Serif" font-size="10.00">wmtk::TriMesh::switch_face</text>
</a>
</g>
</g>
<!-- Node35&#45;&gt;Node36 -->
<g id="edge45_Node000035_Node000036" class="edge">
<title>Node35&#45;&gt;Node36</title>
<g id="a_edge45_Node000035_Node000036"><a xlink:title=" ">
<path fill="none" stroke="#63b8ff" d="M1546.1,-265.88C1559.36,-267.26 1573.24,-268.71 1586.74,-270.11"/>
<polygon fill="#63b8ff" stroke="#63b8ff" points="1586.67,-273.63 1596.98,-271.18 1587.39,-266.66 1586.67,-273.63"/>
</a>
</g>
</g>
<!-- Node36&#45;&gt;Node8 -->
<g id="edge46_Node000036_Node000008" class="edge">
<title>Node36&#45;&gt;Node8</title>
<g id="a_edge46_Node000036_Node000008"><a xlink:title=" ">
<path fill="none" stroke="#63b8ff" d="M1596.69,-282.94C1483.57,-288.5 1263.04,-298 1075.5,-298 888.5,-298 888.5,-298 888.5,-298 760.29,-298 615.97,-243.9 546.23,-214.12"/>
<polygon fill="#63b8ff" stroke="#63b8ff" points="547.46,-210.84 536.89,-210.09 544.68,-217.27 547.46,-210.84"/>
</a>
</g>
</g>
<!-- Node38 -->
<g id="Node000038" class="node">
<title>Node38</title>
<g id="a_Node000038"><a xlink:href="namespacewmtk.html#a3daa7951a5f8b78cf4600dc047fcc180" target="_top" xlink:title="Setup a logger object to be used by WildmeshToolkit.">
<polygon fill="white" stroke="#666666" points="1520,-348.5 1419,-348.5 1419,-329.5 1520,-329.5 1520,-348.5"/>
<text text-anchor="middle" x="1469.5" y="-336.5" font-family="Helvetica,sans-Serif" font-size="10.00">wmtk::set_logger</text>
</a>
</g>
</g>
<!-- Node37&#45;&gt;Node38 -->
<g id="edge48_Node000037_Node000038" class="edge">
<title>Node37&#45;&gt;Node38</title>
<g id="a_edge48_Node000037_Node000038"><a xlink:title=" ">
<path fill="none" stroke="#63b8ff" d="M1316.28,-336.62C1342.91,-337.04 1378.45,-337.59 1408.49,-338.06"/>
<polygon fill="#63b8ff" stroke="#63b8ff" points="1408.8,-341.57 1418.86,-338.22 1408.91,-334.57 1408.8,-341.57"/>
</a>
</g>
</g>
<!-- Node39&#45;&gt;Node15 -->
<g id="edge54_Node000039_Node000015" class="edge">
<title>Node39&#45;&gt;Node15</title>
<g id="a_edge54_Node000039_Node000015"><a xlink:title=" ">
<path fill="none" stroke="#63b8ff" d="M788.14,-46.34C843.52,-43.71 922.1,-40.38 991,-39 1063.77,-37.54 1147.06,-37.77 1204.44,-38.22"/>
<polygon fill="#63b8ff" stroke="#63b8ff" points="1204.46,-41.72 1214.49,-38.3 1204.52,-34.72 1204.46,-41.72"/>
</a>
</g>
</g>
<!-- Node40&#45;&gt;Node5 -->
<g id="edge59_Node000040_Node000005" class="edge">
<title>Node40&#45;&gt;Node5</title>
<g id="a_edge59_Node000040_Node000005"><a xlink:title=" ">
<path fill="none" stroke="#63b8ff" d="M319.75,-370.05C343.48,-377.33 372.64,-385.99 399,-393 407.6,-395.29 416.64,-397.57 425.63,-399.76"/>
<polygon fill="#63b8ff" stroke="#63b8ff" points="424.82,-403.17 435.36,-402.11 426.46,-396.36 424.82,-403.17"/>
</a>
</g>
</g>
<!-- Node41 -->
<g id="Node000041" class="node">
<title>Node41</title>
<g id="a_Node000041"><a xlink:href="classwmtk_1_1simplex_1_1_simplex_collection.html#a1e7079b3b75f70dd28c524556cab76cf" target="_top" xlink:title="Add simplex to the collection.">
<polygon fill="white" stroke="#666666" points="607,-383.5 399,-383.5 399,-364.5 607,-364.5 607,-383.5"/>
<text text-anchor="middle" x="503" y="-371.5" font-family="Helvetica,sans-Serif" font-size="10.00">wmtk::simplex::SimplexCollection::add</text>
</a>
</g>
</g>
<!-- Node40&#45;&gt;Node41 -->
<g id="edge56_Node000040_Node000041" class="edge">
<title>Node40&#45;&gt;Node41</title>
<g id="a_edge56_Node000040_Node000041"><a xlink:title=" ">
<path fill="none" stroke="#63b8ff" d="M346.67,-361.17C360.08,-362.28 374.32,-363.45 388.53,-364.63"/>
<polygon fill="#63b8ff" stroke="#63b8ff" points="388.61,-368.14 398.86,-365.48 389.18,-361.17 388.61,-368.14"/>
</a>
</g>
</g>
<!-- Node42 -->
<g id="Node000042" class="node">
<title>Node42</title>
<g id="a_Node000042"><a xlink:href="namespacewmtk.html#a441d6ad4f19569c7d4946e743da1a925" target="_top" xlink:title=" ">
<polygon fill="white" stroke="#666666" points="950.5,-372 828.5,-372 828.5,-342 950.5,-342 950.5,-372"/>
<text text-anchor="start" x="836.5" y="-360" font-family="Helvetica,sans-Serif" font-size="10.00">wmtk::log_and_throw</text>
<text text-anchor="middle" x="889.5" y="-349" font-family="Helvetica,sans-Serif" font-size="10.00">_error</text>
</a>
</g>
</g>
<!-- Node40&#45;&gt;Node42 -->
<g id="edge57_Node000040_Node000042" class="edge">
<title>Node40&#45;&gt;Node42</title>
<g id="a_edge57_Node000040_Node000042"><a xlink:title=" ">
<path fill="none" stroke="#63b8ff" d="M346.51,-355.21C414.4,-355.4 517.43,-355.71 607,-356 678.89,-356.23 761.1,-356.53 818.04,-356.74"/>
<polygon fill="#63b8ff" stroke="#63b8ff" points="818.36,-360.24 828.37,-356.78 818.38,-353.24 818.36,-360.24"/>
</a>
</g>
</g>
<!-- Node42&#45;&gt;Node37 -->
<g id="edge58_Node000042_Node000037" class="edge">
<title>Node42&#45;&gt;Node37</title>
<g id="a_edge58_Node000042_Node000037"><a xlink:title=" ">
<path fill="none" stroke="#63b8ff" d="M950.61,-357.03C1004.87,-356.67 1086.88,-355.19 1158,-350 1179.99,-348.39 1204.2,-345.64 1224.83,-343.01"/>
<polygon fill="#63b8ff" stroke="#63b8ff" points="1225.49,-346.45 1234.96,-341.68 1224.59,-339.51 1225.49,-346.45"/>
</a>
</g>
</g>
</g>
</svg>
