<?xml version="1.0" encoding="UTF-8" standalone="no"?>
<!DOCTYPE svg PUBLIC "-//W3C//DTD SVG 1.1//EN"
 "http://www.w3.org/Graphics/SVG/1.1/DTD/svg11.dtd">
<!-- Generated by graphviz version 2.43.0 (0)
 -->
<!-- Title: wmtk::components::input::input Pages: 1 -->
<!--zoomable 301 -->

<svg id="main" version="1.1" xmlns="http://www.w3.org/2000/svg" xmlns:xlink="http://www.w3.org/1999/xlink" xml:space="preserve" onload="init(evt)">
<style type="text/css"><![CDATA[
.node, .edge {opacity: 0.7;}
.node.selected, .edge.selected {opacity: 1;}
.edge:hover path { stroke: red; }
.edge:hover polygon { stroke: red; fill: red; }
]]></style>

<defs>
  <circle id="rim" cx="0" cy="0" r="7"/>
  <circle id="rim2" cx="0" cy="0" r="3.5"/>
  <g id="zoomPlus">
    <use xlink:href="#rim" fill="#404040"><set attributeName="fill" to="#808080" begin="zoomplus.mouseover" end="zoomplus.mouseout"/></use>
    <path d="M-4,0h8M0,-4v8" fill="none" stroke="white" stroke-width="1.5" pointer-events="none"/>
  </g>
  <g id="zoomMin">
    <use xlink:href="#rim" fill="#404040"><set attributeName="fill" to="#808080" begin="zoomminus.mouseover" end="zoomminus.mouseout"/></use>
    <path d="M-4,0h8" fill="none" stroke="white" stroke-width="1.5" pointer-events="none"/>
  </g>
  <g id="arrowUp" transform="translate(30 24)">
    <use xlink:href="#rim"/>
    <path pointer-events="none" fill="none" stroke="white" stroke-width="1.5" d="M0,-3.0v7 M-2.5,-0.5L0,-3.0L2.5,-0.5"/>
  </g>
  <g id="arrowRight" transform="rotate(90) translate(36 -43)">
    <use xlink:href="#rim"/>
    <path pointer-events="none" fill="none" stroke="white" stroke-width="1.5" d="M0,-3.0v7 M-2.5,-0.5L0,-3.0L2.5,-0.5"/>
  </g>
  <g id="arrowDown" transform="rotate(180) translate(-30 -48)">
    <use xlink:href="#rim"/>
    <path pointer-events="none" fill="none" stroke="white" stroke-width="1.5" d="M0,-3.0v7 M-2.5,-0.5L0,-3.0L2.5,-0.5"/>
  </g>
  <g id="arrowLeft" transform="rotate(270) translate(-36 17)">
    <use xlink:href="#rim"/>
    <path pointer-events="none" fill="none" stroke="white" stroke-width="1.5" d="M0,-3.0v7 M-2.5,-0.5L0,-3.0L2.5,-0.5"/>
  </g>
  <g id="resetDef">
    <use xlink:href="#rim2" fill="#404040"><set attributeName="fill" to="#808080" begin="reset.mouseover" end="reset.mouseout"/></use>
  </g>
</defs>
<script type="application/ecmascript">
var viewWidth = 782;
var viewHeight = 301;
var sectionId = 'dynsection-3';
</script>
<script type="application/ecmascript" xlink:href="svg.min.js"/>
<svg id="graph" class="graph">
<g id="viewport">
<title>wmtk::components::input::input</title>
<!-- Node1 -->
<g id="Node000001" class="node">
<title>Node1</title>
<g id="a_Node000001"><a xlink:title=" ">
<polygon fill="#999999" stroke="#666666" points="774,-135.5 633,-135.5 633,-105.5 774,-105.5 774,-135.5"/>
<text text-anchor="start" x="641" y="-123.5" font-family="Helvetica,sans-Serif" font-size="10.00">wmtk::components::input</text>
<text text-anchor="middle" x="703.5" y="-112.5" font-family="Helvetica,sans-Serif" font-size="10.00">::input</text>
</a>
</g>
</g>
<!-- Node1&#45;&gt;Node1 -->
<g id="edge3_Node000001_Node000001" class="edge">
<title>Node1&#45;&gt;Node1</title>
<g id="a_edge3_Node000001_Node000001"><a xlink:title=" ">
<path fill="none" stroke="#63b8ff" d="M737.46,-146.1C732.82,-150.47 721.5,-153.5 703.5,-153.5 673.19,-153.5 661.82,-144.91 669.4,-135.78"/>
<polygon fill="#63b8ff" stroke="#63b8ff" points="740.96,-145.82 737.6,-135.78 733.96,-145.73 740.96,-145.82"/>
</a>
</g>
</g>
<!-- Node2 -->
<g id="Node000002" class="node">
<title>Node2</title>
<g id="a_Node000002"><a xlink:href="namespacewmtk_1_1components_1_1input.html#abb145025eb16d46d5f35b7747541bd8b" target="_top" xlink:title=" ">
<polygon fill="white" stroke="#666666" points="580,-292.5 439,-292.5 439,-262.5 580,-262.5 580,-292.5"/>
<text text-anchor="start" x="447" y="-280.5" font-family="Helvetica,sans-Serif" font-size="10.00">wmtk::components::input</text>
<text text-anchor="middle" x="509.5" y="-269.5" font-family="Helvetica,sans-Serif" font-size="10.00">::input</text>
</a>
</g>
</g>
<!-- Node1&#45;&gt;Node2 -->
<g id="edge1_Node000001_Node000002" class="edge">
<title>Node1&#45;&gt;Node2</title>
<g id="a_edge1_Node000001_Node000002"><a xlink:title=" ">
<path fill="none" stroke="#63b8ff" d="M689.63,-144.83C672.49,-174.88 639.34,-225.43 597,-253.5 591.8,-256.94 586.12,-259.9 580.23,-262.43"/>
<polygon fill="#63b8ff" stroke="#63b8ff" points="692.82,-146.29 694.62,-135.85 686.7,-142.89 692.82,-146.29"/>
</a>
</g>
</g>
<!-- Node3 -->
<g id="Node000003" class="node">
<title>Node3</title>
<g id="a_Node000003"><a xlink:href="namespacewmtk_1_1components_1_1input.html#a983def0b1b64614b2f2b91d18045f13a" target="_top" xlink:title=" ">
<polygon fill="white" stroke="#666666" points="580,-244.5 439,-244.5 439,-214.5 580,-214.5 580,-244.5"/>
<text text-anchor="start" x="447" y="-232.5" font-family="Helvetica,sans-Serif" font-size="10.00">wmtk::components::input</text>
<text text-anchor="middle" x="509.5" y="-221.5" font-family="Helvetica,sans-Serif" font-size="10.00">::input</text>
</a>
</g>
</g>
<!-- Node1&#45;&gt;Node3 -->
<g id="edge2_Node000001_Node000003" class="edge">
<title>Node1&#45;&gt;Node3</title>
<g id="a_edge2_Node000001_Node000003"><a xlink:title=" ">
<path fill="none" stroke="#63b8ff" d="M680.45,-142.83C660.33,-162.01 628.96,-189.09 597,-205.5 590.35,-208.92 583.15,-211.9 575.84,-214.48"/>
<polygon fill="#63b8ff" stroke="#63b8ff" points="683.1,-145.13 687.84,-135.65 678.22,-140.11 683.1,-145.13"/>
</a>
</g>
</g>
<!-- Node4 -->
<g id="Node000004" class="node">
<title>Node4</title>
<g id="a_Node000004"><a xlink:href="classwmtk_1_1components_1_1configurator_1_1_configurator.html#a67a790b2234ce6fa5691a39d34ab786d" target="_top" xlink:title=" ">
<polygon fill="white" stroke="#666666" points="597,-178.5 422,-178.5 422,-148.5 597,-148.5 597,-178.5"/>
<text text-anchor="start" x="430" y="-166.5" font-family="Helvetica,sans-Serif" font-size="10.00">wmtk::components::configurator</text>
<text text-anchor="middle" x="509.5" y="-155.5" font-family="Helvetica,sans-Serif" font-size="10.00">::Configurator::load</text>
</a>
</g>
</g>
<!-- Node1&#45;&gt;Node4 -->
<g id="edge4_Node000001_Node000004" class="edge">
<title>Node1&#45;&gt;Node4</title>
<g id="a_edge4_Node000001_Node000004"><a xlink:title=" ">
<path fill="none" stroke="#63b8ff" d="M625.57,-137.73C609.7,-141.28 593.11,-145 577.61,-148.47"/>
<polygon fill="#63b8ff" stroke="#63b8ff" points="626.35,-141.14 635.35,-135.54 624.82,-134.31 626.35,-141.14"/>
</a>
</g>
</g>
<!-- Node9 -->
<g id="Node000009" class="node">
<title>Node9</title>
<g id="a_Node000009"><a xlink:href="tests_2input_8cpp.html#a16c891bca32fed14c4bf443bedbae763" target="_top" xlink:title=" ">
<polygon fill="white" stroke="#666666" points="545,-130 474,-130 474,-111 545,-111 545,-130"/>
<text text-anchor="middle" x="509.5" y="-118" font-family="Helvetica,sans-Serif" font-size="10.00">TEST_CASE</text>
</a>
</g>
</g>
<!-- Node1&#45;&gt;Node9 -->
<g id="edge10_Node000001_Node000009" class="edge">
<title>Node1&#45;&gt;Node9</title>
<g id="a_edge10_Node000001_Node000009"><a xlink:title=" ">
<path fill="none" stroke="#63b8ff" d="M622.65,-120.5C595.6,-120.5 566.79,-120.5 545.14,-120.5"/>
<polygon fill="#63b8ff" stroke="#63b8ff" points="622.91,-124 632.91,-120.5 622.91,-117 622.91,-124"/>
</a>
</g>
</g>
<!-- Node10 -->
<g id="Node000010" class="node">
<title>Node10</title>
<g id="a_Node000010"><a xlink:href="tests_2input_8cpp.html#a97fb6790b608344bdf6e248a85b2ab7a" target="_top" xlink:title=" ">
<polygon fill="white" stroke="#666666" points="545,-93 474,-93 474,-74 545,-74 545,-93"/>
<text text-anchor="middle" x="509.5" y="-81" font-family="Helvetica,sans-Serif" font-size="10.00">TEST_CASE</text>
</a>
</g>
</g>
<!-- Node1&#45;&gt;Node10 -->
<g id="edge11_Node000001_Node000010" class="edge">
<title>Node1&#45;&gt;Node10</title>
<g id="a_edge11_Node000001_Node000010"><a xlink:title=" ">
<path fill="none" stroke="#63b8ff" d="M623.01,-105.18C595.85,-99.95 566.88,-94.37 545.14,-90.18"/>
<polygon fill="#63b8ff" stroke="#63b8ff" points="622.43,-108.63 632.91,-107.09 623.76,-101.76 622.43,-108.63"/>
</a>
</g>
</g>
<!-- Node11 -->
<g id="Node000011" class="node">
<title>Node11</title>
<g id="a_Node000011"><a xlink:href="dihedral__angle_8cpp.html#a34eafb02391ed7601412c0c5f3f09581" target="_top" xlink:title=" ">
<polygon fill="white" stroke="#666666" points="545,-56 474,-56 474,-37 545,-37 545,-56"/>
<text text-anchor="middle" x="509.5" y="-44" font-family="Helvetica,sans-Serif" font-size="10.00">TEST_CASE</text>
</a>
</g>
</g>
<!-- Node1&#45;&gt;Node11 -->
<g id="edge12_Node000001_Node000011" class="edge">
<title>Node1&#45;&gt;Node11</title>
<g id="a_edge12_Node000001_Node000011"><a xlink:title=" ">
<path fill="none" stroke="#63b8ff" d="M669.85,-100.07C649.55,-88.16 622.54,-73.72 597,-64.5 580.41,-58.51 561.27,-54.27 545.22,-51.41"/>
<polygon fill="#63b8ff" stroke="#63b8ff" points="668.3,-103.22 678.68,-105.33 671.88,-97.2 668.3,-103.22"/>
</a>
</g>
</g>
<!-- Node12 -->
<g id="Node000012" class="node">
<title>Node12</title>
<g id="a_Node000012"><a xlink:href="mesh__info_2tests_2volume_8cpp.html#a3aa08709618895e82781641039482a54" target="_top" xlink:title=" ">
<polygon fill="white" stroke="#666666" points="545,-19 474,-19 474,0 545,0 545,-19"/>
<text text-anchor="middle" x="509.5" y="-7" font-family="Helvetica,sans-Serif" font-size="10.00">TEST_CASE</text>
</a>
</g>
</g>
<!-- Node1&#45;&gt;Node12 -->
<g id="edge13_Node000001_Node000012" class="edge">
<title>Node1&#45;&gt;Node12</title>
<g id="a_edge13_Node000001_Node000012"><a xlink:title=" ">
<path fill="none" stroke="#63b8ff" d="M683.06,-97.57C663.54,-76.07 631.47,-44.74 597,-27.5 580.95,-19.47 561.5,-15.02 545.12,-12.56"/>
<polygon fill="#63b8ff" stroke="#63b8ff" points="680.65,-100.13 689.91,-105.28 685.88,-95.48 680.65,-100.13"/>
</a>
</g>
</g>
<!-- Node4&#45;&gt;Node4 -->
<g id="edge9_Node000004_Node000004" class="edge">
<title>Node4&#45;&gt;Node4</title>
<g id="a_edge9_Node000004_Node000004"><a xlink:title=" ">
<path fill="none" stroke="#63b8ff" d="M543.46,-189.1C538.82,-193.47 527.5,-196.5 509.5,-196.5 479.19,-196.5 467.82,-187.91 475.4,-178.78"/>
<polygon fill="#63b8ff" stroke="#63b8ff" points="546.96,-188.82 543.6,-178.78 539.96,-188.73 546.96,-188.82"/>
</a>
</g>
</g>
<!-- Node5 -->
<g id="Node000005" class="node">
<title>Node5</title>
<g id="a_Node000005"><a xlink:href="classwmtk_1_1components_1_1configurator_1_1_configurator.html#a310441aa1f09bfeb1a54fbba18d3a319" target="_top" xlink:title=" ">
<polygon fill="white" stroke="#666666" points="386,-226.5 211,-226.5 211,-196.5 386,-196.5 386,-226.5"/>
<text text-anchor="start" x="219" y="-214.5" font-family="Helvetica,sans-Serif" font-size="10.00">wmtk::components::configurator</text>
<text text-anchor="middle" x="298.5" y="-203.5" font-family="Helvetica,sans-Serif" font-size="10.00">::Configurator::Configurator</text>
</a>
</g>
</g>
<!-- Node4&#45;&gt;Node5 -->
<g id="edge5_Node000004_Node000005" class="edge">
<title>Node4&#45;&gt;Node5</title>
<g id="a_edge5_Node000004_Node000005"><a xlink:title=" ">
<path fill="none" stroke="#63b8ff" d="M433.16,-180.8C410.79,-185.94 386.49,-191.52 364.82,-196.5"/>
<polygon fill="#63b8ff" stroke="#63b8ff" points="433.98,-184.21 442.94,-178.56 432.41,-177.38 433.98,-184.21"/>
</a>
</g>
</g>
<!-- Node6 -->
<g id="Node000006" class="node">
<title>Node6</title>
<g id="a_Node000006"><a xlink:href="classwmtk_1_1components_1_1configurator_1_1_configurator.html#ad7e703b76c1c7b4c5fef312a2584c129" target="_top" xlink:title=" ">
<polygon fill="white" stroke="#666666" points="386,-178.5 211,-178.5 211,-148.5 386,-148.5 386,-178.5"/>
<text text-anchor="start" x="219" y="-166.5" font-family="Helvetica,sans-Serif" font-size="10.00">wmtk::components::configurator</text>
<text text-anchor="middle" x="298.5" y="-155.5" font-family="Helvetica,sans-Serif" font-size="10.00">::Configurator::Configurator</text>
</a>
</g>
</g>
<!-- Node4&#45;&gt;Node6 -->
<g id="edge6_Node000004_Node000006" class="edge">
<title>Node4&#45;&gt;Node6</title>
<g id="a_edge6_Node000004_Node000006"><a xlink:title=" ">
<path fill="none" stroke="#63b8ff" d="M411.97,-163.5C403.41,-163.5 394.77,-163.5 386.29,-163.5"/>
<polygon fill="#63b8ff" stroke="#63b8ff" points="411.98,-167 421.98,-163.5 411.98,-160 411.98,-167"/>
</a>
</g>
</g>
<!-- Node7 -->
<g id="Node000007" class="node">
<title>Node7</title>
<g id="a_Node000007"><a xlink:href="classwmtk_1_1components_1_1configurator_1_1_configurator.html#a86950ae939283f324f144b5e56642c39" target="_top" xlink:title=" ">
<polygon fill="white" stroke="#666666" points="386,-130.5 211,-130.5 211,-100.5 386,-100.5 386,-130.5"/>
<text text-anchor="start" x="219" y="-118.5" font-family="Helvetica,sans-Serif" font-size="10.00">wmtk::components::configurator</text>
<text text-anchor="middle" x="298.5" y="-107.5" font-family="Helvetica,sans-Serif" font-size="10.00">::Configurator::from_json</text>
</a>
</g>
</g>
<!-- Node4&#45;&gt;Node7 -->
<g id="edge7_Node000004_Node000007" class="edge">
<title>Node4&#45;&gt;Node7</title>
<g id="a_edge7_Node000004_Node000007"><a xlink:title=" ">
<path fill="none" stroke="#63b8ff" d="M433.16,-146.2C410.79,-141.06 386.49,-135.48 364.82,-130.5"/>
<polygon fill="#63b8ff" stroke="#63b8ff" points="432.41,-149.62 442.94,-148.44 433.98,-142.79 432.41,-149.62"/>
</a>
</g>
</g>
<!-- Node8 -->
<g id="Node000008" class="node">
<title>Node8</title>
<g id="a_Node000008"><a xlink:href="classwmtk_1_1components_1_1configurator_1_1_configurator.html#a9edfbc3235be7721cc3ae2f9c56dc009" target="_top" xlink:title=" ">
<polygon fill="white" stroke="#666666" points="175,-130.5 0,-130.5 0,-100.5 175,-100.5 175,-130.5"/>
<text text-anchor="start" x="8" y="-118.5" font-family="Helvetica,sans-Serif" font-size="10.00">wmtk::components::configurator</text>
<text text-anchor="middle" x="87.5" y="-107.5" font-family="Helvetica,sans-Serif" font-size="10.00">::Configurator::Configurator</text>
</a>
</g>
</g>
<!-- Node7&#45;&gt;Node8 -->
<g id="edge8_Node000007_Node000008" class="edge">
<title>Node7&#45;&gt;Node8</title>
<g id="a_edge8_Node000007_Node000008"><a xlink:title=" ">
<path fill="none" stroke="#63b8ff" d="M200.97,-115.5C192.41,-115.5 183.77,-115.5 175.29,-115.5"/>
<polygon fill="#63b8ff" stroke="#63b8ff" points="200.98,-119 210.98,-115.5 200.98,-112 200.98,-119"/>
</a>
</g>
</g>
</g>
</svg>

<g id="navigator" transform="translate(0 0)" fill="#404254">
  <rect fill="#f2f5e9" fill-opacity="0.5" stroke="#606060" stroke-width=".5" x="0" y="0" width="60" height="60"/>
  <use id="zoomplus" xlink:href="#zoomPlus" x="17" y="9" onmousedown="handleZoom(evt,'in')"/>
  <use id="zoomminus" xlink:href="#zoomMin" x="42" y="9" onmousedown="handleZoom(evt,'out')"/>
  <use id="reset" xlink:href="#resetDef" x="30" y="36" onmousedown="handleReset()"/>
   <use id="arrowup" xlink:href="#arrowUp" x="0" y="0" onmousedown="handlePan(0,-1)"/>
  <use id="arrowright" xlink:href="#arrowRight" x="0" y="0" onmousedown="handlePan(1,0)"/>
  <use id="arrowdown" xlink:href="#arrowDown" x="0" y="0" onmousedown="handlePan(0,1)"/>
  <use id="arrowleft" xlink:href="#arrowLeft" x="0" y="0" onmousedown="handlePan(-1,0)"/>
</g>
<svg viewBox="0 0 15 15" width="100%" height="30px" preserveAspectRatio="xMaxYMin meet">
 <g id="arrow_out" transform="scale(0.3 0.3)">
  <a xlink:href="namespacewmtk_1_1components_1_1input_a324e10679ed262426e707cacb92aaf01_icgraph_org.svg" target="_base">
   <rect id="button" ry="5" rx="5" y="6" x="6" height="38" width="38"
        fill="#f2f5e9" fill-opacity="0.5" stroke="#606060" stroke-width="1.0"/>
   <path id="arrow"
     d="M 11.500037,31.436501 C 11.940474,20.09759 22.043105,11.32322 32.158766,21.979434 L 37.068811,17.246167 C 37.068811,17.246167 37.088388,32 37.088388,32 L 22.160133,31.978069 C 22.160133,31.978069 26.997745,27.140456 26.997745,27.140456 C 18.528582,18.264221 13.291696,25.230495 11.500037,31.436501 z"
     style="fill:#404040;"/>
  </a>
 </g>
</svg>

<style type='text/css'>
<![CDATA[
[data-mouse-over-selected='false'] { opacity: 0.7; }
[data-mouse-over-selected='true']  { opacity: 1.0; }
]]>
</style>
<script type="application/ecmascript"><![CDATA[
document.addEventListener('DOMContentLoaded', (event) => {
  highlightEdges();
  highlightAdjacentNodes();
});
]]></script>
</svg>
