<?xml version="1.0" encoding="UTF-8" standalone="no"?>
<!DOCTYPE svg PUBLIC "-//W3C//DTD SVG 1.1//EN"
 "http://www.w3.org/Graphics/SVG/1.1/DTD/svg11.dtd">
<!-- Generated by graphviz version 2.43.0 (0)
 -->
<!-- Title: wmtk::utils::as_eigen_matrices Pages: 1 -->
<svg width="299pt" height="56pt"
 viewBox="0.00 0.00 299.00 56.00" xmlns="http://www.w3.org/2000/svg" xmlns:xlink="http://www.w3.org/1999/xlink">
<g id="graph0" class="graph" transform="scale(1 1) rotate(0) translate(4 52)">
<title>wmtk::utils::as_eigen_matrices</title>
<!-- Node1 -->
<g id="Node000001" class="node">
<title>Node1</title>
<g id="a_Node000001"><a xlink:title=" ">
<polygon fill="#999999" stroke="#666666" points="291,-30 170,-30 170,0 291,0 291,-30"/>
<text text-anchor="start" x="178" y="-18" font-family="Helvetica,sans-Serif" font-size="10.00">wmtk::utils::as_eigen</text>
<text text-anchor="middle" x="230.5" y="-7" font-family="Helvetica,sans-Serif" font-size="10.00">_matrices</text>
</a>
</g>
</g>
<!-- Node1&#45;&gt;Node1 -->
<g id="edge1_Node000001_Node000001" class="edge">
<title>Node1&#45;&gt;Node1</title>
<g id="a_edge1_Node000001_Node000001"><a xlink:title=" ">
<path fill="none" stroke="#63b8ff" d="M258.86,-40.6C254.98,-44.97 245.53,-48 230.5,-48 205.19,-48 195.7,-39.41 202.02,-30.28"/>
<polygon fill="#63b8ff" stroke="#63b8ff" points="262.36,-40.32 258.98,-30.28 255.36,-40.23 262.36,-40.32"/>
</a>
</g>
</g>
<!-- Node2 -->
<g id="Node000002" class="node">
<title>Node2</title>
<g id="a_Node000002"><a xlink:href="namespacewmtk_1_1utils.html#a721fb60a6ca0623b86e2b23b6f657e5e" target="_top" xlink:title=" ">
<polygon fill="white" stroke="#666666" points="134,-30 0,-30 0,0 134,0 134,-30"/>
<text text-anchor="start" x="8" y="-18" font-family="Helvetica,sans-Serif" font-size="10.00">wmtk::utils::as_mapped</text>
<text text-anchor="middle" x="67" y="-7" font-family="Helvetica,sans-Serif" font-size="10.00">_eigen_matrices</text>
</a>
</g>
</g>
<!-- Node1&#45;&gt;Node2 -->
<g id="edge2_Node000001_Node000002" class="edge">
<title>Node1&#45;&gt;Node2</title>
<g id="a_edge2_Node000001_Node000002"><a xlink:title=" ">
<path fill="none" stroke="#63b8ff" d="M159.64,-15C151.21,-15 142.61,-15 134.23,-15"/>
<polygon fill="#63b8ff" stroke="#63b8ff" points="159.82,-18.5 169.82,-15 159.82,-11.5 159.82,-18.5"/>
</a>
</g>
</g>
<!-- Node2&#45;&gt;Node2 -->
<g id="edge3_Node000002_Node000002" class="edge">
<title>Node2&#45;&gt;Node2</title>
<g id="a_edge3_Node000002_Node000002"><a xlink:title=" ">
<path fill="none" stroke="#63b8ff" d="M95.36,-40.6C91.48,-44.97 82.03,-48 67,-48 41.69,-48 32.2,-39.41 38.52,-30.28"/>
<polygon fill="#63b8ff" stroke="#63b8ff" points="98.86,-40.32 95.48,-30.28 91.86,-40.23 98.86,-40.32"/>
</a>
</g>
</g>
</g>
</svg>
