<?xml version="1.0" encoding="UTF-8" standalone="no"?>
<!DOCTYPE svg PUBLIC "-//W3C//DTD SVG 1.1//EN"
 "http://www.w3.org/Graphics/SVG/1.1/DTD/svg11.dtd">
<!-- Generated by graphviz version 2.43.0 (0)
 -->
<!-- Title: wmtk::simplex::top_dimension_cofaces_tuples Pages: 1 -->
<!--zoomable 550 -->

<svg id="main" version="1.1" xmlns="http://www.w3.org/2000/svg" xmlns:xlink="http://www.w3.org/1999/xlink" xml:space="preserve" onload="init(evt)">
<style type="text/css"><![CDATA[
.node, .edge {opacity: 0.7;}
.node.selected, .edge.selected {opacity: 1;}
.edge:hover path { stroke: red; }
.edge:hover polygon { stroke: red; fill: red; }
]]></style>

<defs>
  <circle id="rim" cx="0" cy="0" r="7"/>
  <circle id="rim2" cx="0" cy="0" r="3.5"/>
  <g id="zoomPlus">
    <use xlink:href="#rim" fill="#404040"><set attributeName="fill" to="#808080" begin="zoomplus.mouseover" end="zoomplus.mouseout"/></use>
    <path d="M-4,0h8M0,-4v8" fill="none" stroke="white" stroke-width="1.5" pointer-events="none"/>
  </g>
  <g id="zoomMin">
    <use xlink:href="#rim" fill="#404040"><set attributeName="fill" to="#808080" begin="zoomminus.mouseover" end="zoomminus.mouseout"/></use>
    <path d="M-4,0h8" fill="none" stroke="white" stroke-width="1.5" pointer-events="none"/>
  </g>
  <g id="arrowUp" transform="translate(30 24)">
    <use xlink:href="#rim"/>
    <path pointer-events="none" fill="none" stroke="white" stroke-width="1.5" d="M0,-3.0v7 M-2.5,-0.5L0,-3.0L2.5,-0.5"/>
  </g>
  <g id="arrowRight" transform="rotate(90) translate(36 -43)">
    <use xlink:href="#rim"/>
    <path pointer-events="none" fill="none" stroke="white" stroke-width="1.5" d="M0,-3.0v7 M-2.5,-0.5L0,-3.0L2.5,-0.5"/>
  </g>
  <g id="arrowDown" transform="rotate(180) translate(-30 -48)">
    <use xlink:href="#rim"/>
    <path pointer-events="none" fill="none" stroke="white" stroke-width="1.5" d="M0,-3.0v7 M-2.5,-0.5L0,-3.0L2.5,-0.5"/>
  </g>
  <g id="arrowLeft" transform="rotate(270) translate(-36 17)">
    <use xlink:href="#rim"/>
    <path pointer-events="none" fill="none" stroke="white" stroke-width="1.5" d="M0,-3.0v7 M-2.5,-0.5L0,-3.0L2.5,-0.5"/>
  </g>
  <g id="resetDef">
    <use xlink:href="#rim2" fill="#404040"><set attributeName="fill" to="#808080" begin="reset.mouseover" end="reset.mouseout"/></use>
  </g>
</defs>
<script type="application/ecmascript">
var viewWidth = 1628;
var viewHeight = 550;
var sectionId = 'dynsection-68';
</script>
<script type="application/ecmascript" xlink:href="svg.min.js"/>
<svg id="graph" class="graph">
<g id="viewport">
<title>wmtk::simplex::top_dimension_cofaces_tuples</title>
<!-- Node1 -->
<g id="Node000001" class="node">
<title>Node1</title>
<g id="a_Node000001"><a xlink:title=" ">
<polygon fill="#999999" stroke="#666666" points="151,-265.45 0,-265.45 0,-235.45 151,-235.45 151,-265.45"/>
<text text-anchor="start" x="8" y="-253.45" font-family="Helvetica,sans-Serif" font-size="10.00">wmtk::simplex::top</text>
<text text-anchor="middle" x="75.5" y="-242.45" font-family="Helvetica,sans-Serif" font-size="10.00">_dimension_cofaces_tuples</text>
</a>
</g>
</g>
<!-- Node2 -->
<g id="Node000002" class="node">
<title>Node2</title>
<g id="a_Node000002"><a xlink:href="classwmtk_1_1simplex_1_1_simplex_collection.html#a1e7079b3b75f70dd28c524556cab76cf" target="_top" xlink:title="Add simplex to the collection.">
<polygon fill="white" stroke="#666666" points="395,-357.95 187,-357.95 187,-338.95 395,-338.95 395,-357.95"/>
<text text-anchor="middle" x="291" y="-345.95" font-family="Helvetica,sans-Serif" font-size="10.00">wmtk::simplex::SimplexCollection::add</text>
</a>
</g>
</g>
<!-- Node1&#45;&gt;Node2 -->
<g id="edge1_Node000001_Node000002" class="edge">
<title>Node1&#45;&gt;Node2</title>
<g id="a_edge1_Node000001_Node000002"><a xlink:title=" ">
<path fill="none" stroke="#63b8ff" d="M94.46,-265.49C115.38,-282.28 151.63,-309.09 187,-324.45 198.3,-329.35 210.74,-333.33 222.96,-336.54"/>
<polygon fill="#63b8ff" stroke="#63b8ff" points="222.14,-339.94 232.69,-338.94 223.82,-333.14 222.14,-339.94"/>
</a>
</g>
</g>
<!-- Node3 -->
<g id="Node000003" class="node">
<title>Node3</title>
<g id="a_Node000003"><a xlink:href="classwmtk_1_1_edge_mesh.html#a534952cf2729f1509a380e3e9afb65b7" target="_top" xlink:title=" ">
<polygon fill="white" stroke="#666666" points="732,-287.45 617,-287.45 617,-257.45 732,-257.45 732,-287.45"/>
<text text-anchor="start" x="625" y="-275.45" font-family="Helvetica,sans-Serif" font-size="10.00">wmtk::EdgeMesh::is</text>
<text text-anchor="middle" x="674.5" y="-264.45" font-family="Helvetica,sans-Serif" font-size="10.00">_boundary_vertex</text>
</a>
</g>
</g>
<!-- Node1&#45;&gt;Node3 -->
<g id="edge2_Node000001_Node000003" class="edge">
<title>Node1&#45;&gt;Node3</title>
<g id="a_edge2_Node000001_Node000003"><a xlink:title=" ">
<path fill="none" stroke="#63b8ff" d="M151.2,-253.2C268.62,-257.53 494.52,-265.85 606.78,-269.99"/>
<polygon fill="#63b8ff" stroke="#63b8ff" points="606.84,-273.49 616.96,-270.36 607.09,-266.5 606.84,-273.49"/>
</a>
</g>
</g>
<!-- Node26 -->
<g id="Node000026" class="node">
<title>Node26</title>
<g id="a_Node000026"><a xlink:href="namespacewmtk.html#a441d6ad4f19569c7d4946e743da1a925" target="_top" xlink:title=" ">
<polygon fill="white" stroke="#666666" points="561,-330.45 439,-330.45 439,-300.45 561,-300.45 561,-330.45"/>
<text text-anchor="start" x="447" y="-318.45" font-family="Helvetica,sans-Serif" font-size="10.00">wmtk::log_and_throw</text>
<text text-anchor="middle" x="500" y="-307.45" font-family="Helvetica,sans-Serif" font-size="10.00">_error</text>
</a>
</g>
</g>
<!-- Node1&#45;&gt;Node26 -->
<g id="edge33_Node000001_Node000026" class="edge">
<title>Node1&#45;&gt;Node26</title>
<g id="a_edge33_Node000001_Node000026"><a xlink:title=" ">
<path fill="none" stroke="#63b8ff" d="M115.56,-265.52C136.45,-272.99 162.8,-281.44 187,-286.45 268.88,-303.37 364.9,-310.43 428.57,-313.36"/>
<polygon fill="#63b8ff" stroke="#63b8ff" points="428.75,-316.87 438.9,-313.81 429.06,-309.88 428.75,-316.87"/>
</a>
</g>
</g>
<!-- Node27 -->
<g id="Node000027" class="node">
<title>Node27</title>
<g id="a_Node000027"><a xlink:href="classwmtk_1_1simplex_1_1_simplex.html#ad2cc0340a0772b7d6f03ba7a781d1163" target="_top" xlink:title=" ">
<polygon fill="white" stroke="#666666" points="358.5,-244.45 223.5,-244.45 223.5,-214.45 358.5,-214.45 358.5,-244.45"/>
<text text-anchor="start" x="231.5" y="-232.45" font-family="Helvetica,sans-Serif" font-size="10.00">wmtk::simplex::Simplex</text>
<text text-anchor="middle" x="291" y="-221.45" font-family="Helvetica,sans-Serif" font-size="10.00">::primitive_type</text>
</a>
</g>
</g>
<!-- Node1&#45;&gt;Node27 -->
<g id="edge35_Node000001_Node000027" class="edge">
<title>Node1&#45;&gt;Node27</title>
<g id="a_edge35_Node000001_Node000027"><a xlink:title=" ">
<path fill="none" stroke="#63b8ff" d="M151.17,-243.1C171.23,-241.13 192.96,-238.99 213.13,-237.01"/>
<polygon fill="#63b8ff" stroke="#63b8ff" points="213.6,-240.48 223.21,-236.02 212.92,-233.51 213.6,-240.48"/>
</a>
</g>
</g>
<!-- Node28 -->
<g id="Node000028" class="node">
<title>Node28</title>
<g id="a_Node000028"><a xlink:href="classwmtk_1_1_edge_mesh.html#a04f6595fe85e52dc6bf1e02512120100" target="_top" xlink:title=" ">
<polygon fill="white" stroke="#666666" points="374.5,-195.95 207.5,-195.95 207.5,-176.95 374.5,-176.95 374.5,-195.95"/>
<text text-anchor="middle" x="291" y="-183.95" font-family="Helvetica,sans-Serif" font-size="10.00">wmtk::EdgeMesh::switch_edge</text>
</a>
</g>
</g>
<!-- Node1&#45;&gt;Node28 -->
<g id="edge36_Node000001_Node000028" class="edge">
<title>Node1&#45;&gt;Node28</title>
<g id="a_edge36_Node000001_Node000028"><a xlink:title=" ">
<path fill="none" stroke="#63b8ff" d="M108.75,-235.27C130.47,-225.56 159.96,-213.36 187,-205.45 196.56,-202.65 206.73,-200.18 216.83,-198.03"/>
<polygon fill="#63b8ff" stroke="#63b8ff" points="217.78,-201.41 226.88,-195.98 216.38,-194.55 217.78,-201.41"/>
</a>
</g>
</g>
<!-- Node34 -->
<g id="Node000034" class="node">
<title>Node34</title>
<g id="a_Node000034"><a xlink:href="classwmtk_1_1simplex_1_1_simplex.html#aca78b1fb0a3c28c0036cf7919bfb0789" target="_top" xlink:title=" ">
<polygon fill="white" stroke="#666666" points="358.5,-158.45 223.5,-158.45 223.5,-128.45 358.5,-128.45 358.5,-158.45"/>
<text text-anchor="start" x="231.5" y="-146.45" font-family="Helvetica,sans-Serif" font-size="10.00">wmtk::simplex::Simplex</text>
<text text-anchor="middle" x="291" y="-135.45" font-family="Helvetica,sans-Serif" font-size="10.00">::tuple</text>
</a>
</g>
</g>
<!-- Node1&#45;&gt;Node34 -->
<g id="edge51_Node000001_Node000034" class="edge">
<title>Node1&#45;&gt;Node34</title>
<g id="a_edge51_Node000001_Node000034"><a xlink:title=" ">
<path fill="none" stroke="#63b8ff" d="M92.3,-235.14C112.58,-216.37 149.6,-184.9 187,-167.45 195.31,-163.57 204.3,-160.29 213.38,-157.53"/>
<polygon fill="#63b8ff" stroke="#63b8ff" points="214.58,-160.82 223.25,-154.72 212.67,-154.09 214.58,-160.82"/>
</a>
</g>
</g>
<!-- Node4 -->
<g id="Node000004" class="node">
<title>Node4</title>
<g id="a_Node000004"><a xlink:href="classwmtk_1_1attribute_1_1_accessor.html#abecebb154568864219abda80a1beb803" target="_top" xlink:title="Constant access function for a vector attribute.">
<polygon fill="white" stroke="#666666" points="1245.5,-542.45 1103.5,-542.45 1103.5,-512.45 1245.5,-512.45 1245.5,-542.45"/>
<text text-anchor="start" x="1111.5" y="-530.45" font-family="Helvetica,sans-Serif" font-size="10.00">wmtk::attribute::Accessor</text>
<text text-anchor="middle" x="1174.5" y="-519.45" font-family="Helvetica,sans-Serif" font-size="10.00">::const_vector_attribute</text>
</a>
</g>
</g>
<!-- Node3&#45;&gt;Node4 -->
<g id="edge3_Node000003_Node000004" class="edge">
<title>Node3&#45;&gt;Node4</title>
<g id="a_edge3_Node000003_Node000004"><a xlink:title=" ">
<path fill="none" stroke="#63b8ff" d="M696,-287.49C738.5,-318.25 839.96,-389.49 932,-437.45 1000.58,-473.18 1020.08,-477.7 1093,-503.45 1098.64,-505.44 1104.54,-507.41 1110.46,-509.31"/>
<polygon fill="#63b8ff" stroke="#63b8ff" points="1109.84,-512.78 1120.43,-512.44 1111.94,-506.1 1109.84,-512.78"/>
</a>
</g>
</g>
<!-- Node5 -->
<g id="Node000005" class="node">
<title>Node5</title>
<g id="a_Node000005"><a xlink:href="classwmtk_1_1_edge_mesh.html#acd802c89cf0cba9c312a8e7ecfa11c80" target="_top" xlink:title="check validity of tuple including its hash">
<polygon fill="white" stroke="#666666" points="895.5,-224.45 780.5,-224.45 780.5,-194.45 895.5,-194.45 895.5,-224.45"/>
<text text-anchor="start" x="788.5" y="-212.45" font-family="Helvetica,sans-Serif" font-size="10.00">wmtk::EdgeMesh::is</text>
<text text-anchor="middle" x="838" y="-201.45" font-family="Helvetica,sans-Serif" font-size="10.00">_valid</text>
</a>
</g>
</g>
<!-- Node3&#45;&gt;Node5 -->
<g id="edge4_Node000003_Node000005" class="edge">
<title>Node3&#45;&gt;Node5</title>
<g id="a_edge4_Node000003_Node000005"><a xlink:title=" ">
<path fill="none" stroke="#63b8ff" d="M714.18,-257.36C736.57,-248.62 764.95,-237.55 788.79,-228.25"/>
<polygon fill="#63b8ff" stroke="#63b8ff" points="790.31,-231.42 798.35,-224.52 787.76,-224.9 790.31,-231.42"/>
</a>
</g>
</g>
<!-- Node25 -->
<g id="Node000025" class="node">
<title>Node25</title>
<g id="a_Node000025"><a xlink:href="classwmtk_1_1_tuple.html#a27f6ee155923e848b461bebea1890abc" target="_top" xlink:title=" ">
<polygon fill="white" stroke="#666666" points="1057,-88.95 932,-88.95 932,-69.95 1057,-69.95 1057,-88.95"/>
<text text-anchor="middle" x="994.5" y="-76.95" font-family="Helvetica,sans-Serif" font-size="10.00">wmtk::Tuple::local_vid</text>
</a>
</g>
</g>
<!-- Node3&#45;&gt;Node25 -->
<g id="edge32_Node000003_Node000025" class="edge">
<title>Node3&#45;&gt;Node25</title>
<g id="a_edge32_Node000003_Node000025"><a xlink:title=" ">
<path fill="none" stroke="#63b8ff" d="M691.7,-257.2C711.58,-238.91 746.75,-207.92 780,-185.45 843.59,-142.45 862.34,-135.68 932,-103.45 940.07,-99.71 948.91,-96.03 957.29,-92.72"/>
<polygon fill="#63b8ff" stroke="#63b8ff" points="958.8,-95.89 966.87,-89.02 956.28,-89.36 958.8,-95.89"/>
</a>
</g>
</g>
<!-- Node6 -->
<g id="Node000006" class="node">
<title>Node6</title>
<g id="a_Node000006"><a xlink:href="classwmtk_1_1_tuple.html#aef64a43ff5f5617dbc99d865356bbc25" target="_top" xlink:title=" ">
<polygon fill="white" stroke="#666666" points="1430.5,-71.95 1299.5,-71.95 1299.5,-52.95 1430.5,-52.95 1430.5,-71.95"/>
<text text-anchor="middle" x="1365" y="-59.95" font-family="Helvetica,sans-Serif" font-size="10.00">wmtk::Tuple::global_cid</text>
</a>
</g>
</g>
<!-- Node5&#45;&gt;Node6 -->
<g id="edge5_Node000005_Node000006" class="edge">
<title>Node5&#45;&gt;Node6</title>
<g id="a_edge5_Node000005_Node000006"><a xlink:title=" ">
<path fill="none" stroke="#63b8ff" d="M859.07,-194.26C877.28,-181.1 905.28,-162.35 932,-150.45 1050.21,-97.81 1200.69,-76.32 1289.26,-67.79"/>
<polygon fill="#63b8ff" stroke="#63b8ff" points="1289.86,-71.25 1299.49,-66.84 1289.21,-64.28 1289.86,-71.25"/>
</a>
</g>
</g>
<!-- Node7 -->
<g id="Node000007" class="node">
<title>Node7</title>
<g id="a_Node000007"><a xlink:href="classwmtk_1_1_edge_mesh.html#a3bf6f960d630d1e3a79a09c71a43100f" target="_top" xlink:title=" ">
<polygon fill="white" stroke="#666666" points="1052,-373.45 937,-373.45 937,-343.45 1052,-343.45 1052,-373.45"/>
<text text-anchor="start" x="945" y="-361.45" font-family="Helvetica,sans-Serif" font-size="10.00">wmtk::EdgeMesh::is</text>
<text text-anchor="middle" x="994.5" y="-350.45" font-family="Helvetica,sans-Serif" font-size="10.00">_connectivity_valid</text>
</a>
</g>
</g>
<!-- Node5&#45;&gt;Node7 -->
<g id="edge6_Node000005_Node000007" class="edge">
<title>Node5&#45;&gt;Node7</title>
<g id="a_edge6_Node000005_Node000007"><a xlink:title=" ">
<path fill="none" stroke="#63b8ff" d="M854.66,-224.55C881.96,-250.88 938.38,-305.29 970.25,-336.03"/>
<polygon fill="#63b8ff" stroke="#63b8ff" points="968.17,-338.88 977.79,-343.3 973.03,-333.84 968.17,-338.88"/>
</a>
</g>
</g>
<!-- Node20 -->
<g id="Node000020" class="node">
<title>Node20</title>
<g id="a_Node000020"><a xlink:href="namespacewmtk.html#a6a35f11c12436093d26fdd8be6fecc06" target="_top" xlink:title="Retrieves the current logger.">
<polygon fill="white" stroke="#666666" points="1215,-225.95 1134,-225.95 1134,-206.95 1215,-206.95 1215,-225.95"/>
<text text-anchor="middle" x="1174.5" y="-213.95" font-family="Helvetica,sans-Serif" font-size="10.00">wmtk::logger</text>
</a>
</g>
</g>
<!-- Node5&#45;&gt;Node20 -->
<g id="edge31_Node000005_Node000020" class="edge">
<title>Node5&#45;&gt;Node20</title>
<g id="a_edge31_Node000005_Node000020"><a xlink:title=" ">
<path fill="none" stroke="#63b8ff" d="M895.74,-210.63C959.7,-211.97 1062.69,-214.13 1123.67,-215.4"/>
<polygon fill="#63b8ff" stroke="#63b8ff" points="1123.74,-218.91 1133.81,-215.62 1123.89,-211.91 1123.74,-218.91"/>
</a>
</g>
</g>
<!-- Node22 -->
<g id="Node000022" class="node">
<title>Node22</title>
<g id="a_Node000022"><a xlink:href="classwmtk_1_1_mesh.html#a8cc8686f0688613806f43720b6db49e7" target="_top" xlink:title="check validity of tuple including its hash">
<polygon fill="white" stroke="#666666" points="1054.5,-178.95 934.5,-178.95 934.5,-159.95 1054.5,-159.95 1054.5,-178.95"/>
<text text-anchor="middle" x="994.5" y="-166.95" font-family="Helvetica,sans-Serif" font-size="10.00">wmtk::Mesh::is_valid</text>
</a>
</g>
</g>
<!-- Node5&#45;&gt;Node22 -->
<g id="edge24_Node000005_Node000022" class="edge">
<title>Node5&#45;&gt;Node22</title>
<g id="a_edge24_Node000005_Node000022"><a xlink:title=" ">
<path fill="none" stroke="#63b8ff" d="M895.65,-194.78C912.48,-190.42 930.72,-185.7 946.84,-181.53"/>
<polygon fill="#63b8ff" stroke="#63b8ff" points="947.77,-184.9 956.57,-179.01 946.02,-178.12 947.77,-184.9"/>
</a>
</g>
</g>
<!-- Node5&#45;&gt;Node25 -->
<g id="edge30_Node000005_Node000025" class="edge">
<title>Node5&#45;&gt;Node25</title>
<g id="a_edge30_Node000005_Node000025"><a xlink:title=" ">
<path fill="none" stroke="#63b8ff" d="M868.45,-194.34C878.05,-188.43 888.22,-181 896,-172.45 919.27,-146.86 906.25,-126.54 932,-103.45 936.43,-99.48 941.59,-96.13 947,-93.32"/>
<polygon fill="#63b8ff" stroke="#63b8ff" points="948.63,-96.42 956.26,-89.07 945.72,-90.05 948.63,-96.42"/>
</a>
</g>
</g>
<!-- Node7&#45;&gt;Node4 -->
<g id="edge11_Node000007_Node000004" class="edge">
<title>Node7&#45;&gt;Node4</title>
<g id="a_edge11_Node000007_Node000004"><a xlink:title=" ">
<path fill="none" stroke="#63b8ff" d="M1016.88,-373.53C1029.9,-383.6 1046.07,-397.84 1057,-413.45 1081.71,-448.74 1061.19,-474.4 1093,-503.45 1094.3,-504.63 1095.65,-505.75 1097.05,-506.82"/>
<polygon fill="#63b8ff" stroke="#63b8ff" points="1095.24,-509.83 1105.53,-512.36 1099.07,-503.97 1095.24,-509.83"/>
</a>
</g>
</g>
<!-- Node8 -->
<g id="Node000008" class="node">
<title>Node8</title>
<g id="a_Node000008"><a xlink:href="classwmtk_1_1attribute_1_1_accessor.html#aaeafc36889f90d4e4e9478f998d240d7" target="_top" xlink:title=" ">
<polygon fill="white" stroke="#666666" points="1618,-395.45 1476,-395.45 1476,-365.45 1618,-365.45 1618,-395.45"/>
<text text-anchor="start" x="1484" y="-383.45" font-family="Helvetica,sans-Serif" font-size="10.00">wmtk::attribute::Accessor</text>
<text text-anchor="middle" x="1547" y="-372.45" font-family="Helvetica,sans-Serif" font-size="10.00">::attribute</text>
</a>
</g>
</g>
<!-- Node7&#45;&gt;Node8 -->
<g id="edge7_Node000007_Node000008" class="edge">
<title>Node7&#45;&gt;Node8</title>
<g id="a_edge7_Node000007_Node000008"><a xlink:title=" ">
<path fill="none" stroke="#63b8ff" d="M1052.14,-372.74C1065.46,-375.52 1079.66,-378.01 1093,-379.45 1222.88,-393.42 1374.92,-389.68 1465.69,-385.33"/>
<polygon fill="#63b8ff" stroke="#63b8ff" points="1466.09,-388.82 1475.91,-384.83 1465.75,-381.83 1466.09,-388.82"/>
</a>
</g>
</g>
<!-- Node9 -->
<g id="Node000009" class="node">
<title>Node9</title>
<g id="a_Node000009"><a xlink:href="classwmtk_1_1_mesh.html#a3e8ff83c4a5526a40d18bb9883c6c6c9" target="_top" xlink:title="read in the m_capacities return the upper bound for the number of entities of the given dimension">
<polygon fill="white" stroke="#666666" points="1427,-445.95 1303,-445.95 1303,-426.95 1427,-426.95 1427,-445.95"/>
<text text-anchor="middle" x="1365" y="-433.95" font-family="Helvetica,sans-Serif" font-size="10.00">wmtk::Mesh::capacity</text>
</a>
</g>
</g>
<!-- Node7&#45;&gt;Node9 -->
<g id="edge8_Node000007_Node000009" class="edge">
<title>Node7&#45;&gt;Node9</title>
<g id="a_edge8_Node000007_Node000009"><a xlink:title=" ">
<path fill="none" stroke="#63b8ff" d="M1016.78,-373.68C1035.78,-386.41 1064.88,-403.84 1093,-412.45 1158.69,-432.56 1237.21,-437.56 1292.78,-438.13"/>
<polygon fill="#63b8ff" stroke="#63b8ff" points="1292.87,-441.64 1302.89,-438.19 1292.91,-434.64 1292.87,-441.64"/>
</a>
</g>
</g>
<!-- Node11 -->
<g id="Node000011" class="node">
<title>Node11</title>
<g id="a_Node000011"><a xlink:href="classwmtk_1_1attribute_1_1_accessor.html#a6d3222130c85d3dcd2d7ae51257dc988" target="_top" xlink:title="Constant access function for a scalar attribute.">
<polygon fill="white" stroke="#666666" points="1245.5,-370.45 1103.5,-370.45 1103.5,-340.45 1245.5,-340.45 1245.5,-370.45"/>
<text text-anchor="start" x="1111.5" y="-358.45" font-family="Helvetica,sans-Serif" font-size="10.00">wmtk::attribute::Accessor</text>
<text text-anchor="middle" x="1174.5" y="-347.45" font-family="Helvetica,sans-Serif" font-size="10.00">::const_scalar_attribute</text>
</a>
</g>
</g>
<!-- Node7&#45;&gt;Node11 -->
<g id="edge10_Node000007_Node000011" class="edge">
<title>Node7&#45;&gt;Node11</title>
<g id="a_edge10_Node000007_Node000011"><a xlink:title=" ">
<path fill="none" stroke="#63b8ff" d="M1052.31,-357.49C1065.2,-357.27 1079.13,-357.04 1092.8,-356.81"/>
<polygon fill="#63b8ff" stroke="#63b8ff" points="1093.24,-360.3 1103.18,-356.63 1093.13,-353.3 1093.24,-360.3"/>
</a>
</g>
</g>
<!-- Node12 -->
<g id="Node000012" class="node">
<title>Node12</title>
<g id="a_Node000012"><a xlink:href="classwmtk_1_1_mesh.html#ae3493915b766f0f34f0a9e89603d5773" target="_top" xlink:title=" ">
<polygon fill="white" stroke="#666666" points="1235.5,-494.45 1113.5,-494.45 1113.5,-464.45 1235.5,-464.45 1235.5,-494.45"/>
<text text-anchor="start" x="1121.5" y="-482.45" font-family="Helvetica,sans-Serif" font-size="10.00">wmtk::Mesh::get_flag</text>
<text text-anchor="middle" x="1174.5" y="-471.45" font-family="Helvetica,sans-Serif" font-size="10.00">_accessor</text>
</a>
</g>
</g>
<!-- Node7&#45;&gt;Node12 -->
<g id="edge12_Node000007_Node000012" class="edge">
<title>Node7&#45;&gt;Node12</title>
<g id="a_edge12_Node000007_Node000012"><a xlink:title=" ">
<path fill="none" stroke="#63b8ff" d="M1013.02,-373.54C1025.49,-384.42 1042.53,-399.57 1057,-413.45 1073.56,-429.33 1073.71,-438.02 1093,-450.45 1098.7,-454.12 1104.94,-457.41 1111.33,-460.33"/>
<polygon fill="#63b8ff" stroke="#63b8ff" points="1110.19,-463.65 1120.76,-464.35 1112.93,-457.21 1110.19,-463.65"/>
</a>
</g>
</g>
<!-- Node15 -->
<g id="Node000015" class="node">
<title>Node15</title>
<g id="a_Node000015"><a xlink:href="classwmtk_1_1attribute_1_1_flag_accessor.html#a4f49a666c3811fee9b841c1cd1f66250" target="_top" xlink:title=" ">
<polygon fill="white" stroke="#666666" points="1256,-322.45 1093,-322.45 1093,-292.45 1256,-292.45 1256,-322.45"/>
<text text-anchor="start" x="1101" y="-310.45" font-family="Helvetica,sans-Serif" font-size="10.00">wmtk::attribute::FlagAccessor</text>
<text text-anchor="middle" x="1174.5" y="-299.45" font-family="Helvetica,sans-Serif" font-size="10.00">::index_access</text>
</a>
</g>
</g>
<!-- Node7&#45;&gt;Node15 -->
<g id="edge16_Node000007_Node000015" class="edge">
<title>Node7&#45;&gt;Node15</title>
<g id="a_edge16_Node000007_Node000015"><a xlink:title=" ">
<path fill="none" stroke="#63b8ff" d="M1047.94,-343.42C1067.86,-337.71 1090.74,-331.16 1111.46,-325.22"/>
<polygon fill="#63b8ff" stroke="#63b8ff" points="1112.48,-328.57 1121.12,-322.45 1110.55,-321.84 1112.48,-328.57"/>
</a>
</g>
</g>
<!-- Node16 -->
<g id="Node000016" class="node">
<title>Node16</title>
<g id="a_Node000016"><a xlink:href="classwmtk_1_1attribute_1_1_index_flag_accessor.html#a195252af3f6230f09f0c1379cbec7240" target="_top" xlink:title=" ">
<polygon fill="white" stroke="#666666" points="1247.5,-274.45 1101.5,-274.45 1101.5,-244.45 1247.5,-244.45 1247.5,-274.45"/>
<text text-anchor="start" x="1109.5" y="-262.45" font-family="Helvetica,sans-Serif" font-size="10.00">wmtk::attribute::IndexFlag</text>
<text text-anchor="middle" x="1174.5" y="-251.45" font-family="Helvetica,sans-Serif" font-size="10.00">Accessor::is_active</text>
</a>
</g>
</g>
<!-- Node7&#45;&gt;Node16 -->
<g id="edge17_Node000007_Node000016" class="edge">
<title>Node7&#45;&gt;Node16</title>
<g id="a_edge17_Node000007_Node000016"><a xlink:title=" ">
<path fill="none" stroke="#63b8ff" d="M1034.53,-343.42C1042.37,-339.49 1050.27,-334.82 1057,-329.45 1077.29,-313.25 1071.55,-298.07 1093,-283.45 1095.37,-281.83 1097.86,-280.32 1100.42,-278.91"/>
<polygon fill="#63b8ff" stroke="#63b8ff" points="1101.97,-282.04 1109.4,-274.49 1098.88,-275.76 1101.97,-282.04"/>
</a>
</g>
</g>
<!-- Node7&#45;&gt;Node20 -->
<g id="edge22_Node000007_Node000020" class="edge">
<title>Node7&#45;&gt;Node20</title>
<g id="a_edge22_Node000007_Node000020"><a xlink:title=" ">
<path fill="none" stroke="#63b8ff" d="M1038.72,-343.32C1045.45,-339.57 1051.86,-334.98 1057,-329.45 1087.43,-296.65 1059.32,-264.89 1093,-235.45 1101.7,-227.84 1112.87,-223.14 1124.12,-220.27"/>
<polygon fill="#63b8ff" stroke="#63b8ff" points="1124.89,-223.68 1133.95,-218.19 1123.45,-216.84 1124.89,-223.68"/>
</a>
</g>
</g>
<!-- Node10 -->
<g id="Node000010" class="node">
<title>Node10</title>
<g id="a_Node000010"><a xlink:href="namespacewmtk.html#a5cf45c152e856196bb734c6f48919a24" target="_top" xlink:title="Get a unique integer id corresponding to each primitive type.">
<polygon fill="white" stroke="#666666" points="1605,-451.45 1489,-451.45 1489,-421.45 1605,-421.45 1605,-451.45"/>
<text text-anchor="start" x="1497" y="-439.45" font-family="Helvetica,sans-Serif" font-size="10.00">wmtk::get_primitive</text>
<text text-anchor="middle" x="1547" y="-428.45" font-family="Helvetica,sans-Serif" font-size="10.00">_type_id</text>
</a>
</g>
</g>
<!-- Node9&#45;&gt;Node10 -->
<g id="edge9_Node000009_Node000010" class="edge">
<title>Node9&#45;&gt;Node10</title>
<g id="a_edge9_Node000009_Node000010"><a xlink:title=" ">
<path fill="none" stroke="#63b8ff" d="M1427.19,-436.45C1443.73,-436.45 1461.73,-436.45 1478.59,-436.45"/>
<polygon fill="#63b8ff" stroke="#63b8ff" points="1478.92,-439.95 1488.92,-436.45 1478.92,-432.95 1478.92,-439.95"/>
</a>
</g>
</g>
<!-- Node13 -->
<g id="Node000013" class="node">
<title>Node13</title>
<g id="a_Node000013"><a xlink:href="classwmtk_1_1_mesh.html#acfa981b31f00aef4438ff5e73bbce2f4" target="_top" xlink:title=" ">
<polygon fill="white" stroke="#666666" points="1430,-494.45 1300,-494.45 1300,-464.45 1430,-464.45 1430,-494.45"/>
<text text-anchor="start" x="1308" y="-482.45" font-family="Helvetica,sans-Serif" font-size="10.00">wmtk::Mesh::get_const</text>
<text text-anchor="middle" x="1365" y="-471.45" font-family="Helvetica,sans-Serif" font-size="10.00">_flag_accessor</text>
</a>
</g>
</g>
<!-- Node12&#45;&gt;Node13 -->
<g id="edge13_Node000012_Node000013" class="edge">
<title>Node12&#45;&gt;Node13</title>
<g id="a_edge13_Node000012_Node000013"><a xlink:title=" ">
<path fill="none" stroke="#63b8ff" d="M1235.66,-479.45C1252.85,-479.45 1271.8,-479.45 1289.73,-479.45"/>
<polygon fill="#63b8ff" stroke="#63b8ff" points="1289.86,-482.95 1299.86,-479.45 1289.86,-475.95 1289.86,-482.95"/>
</a>
</g>
</g>
<!-- Node13&#45;&gt;Node10 -->
<g id="edge15_Node000013_Node000010" class="edge">
<title>Node13&#45;&gt;Node10</title>
<g id="a_edge15_Node000013_Node000010"><a xlink:title=" ">
<path fill="none" stroke="#63b8ff" d="M1428.96,-464.41C1445.07,-460.56 1462.47,-456.4 1478.79,-452.5"/>
<polygon fill="#63b8ff" stroke="#63b8ff" points="1479.89,-455.84 1488.8,-450.11 1478.26,-449.03 1479.89,-455.84"/>
</a>
</g>
</g>
<!-- Node14 -->
<g id="Node000014" class="node">
<title>Node14</title>
<g id="a_Node000014"><a xlink:href="classwmtk_1_1_mesh.html#a4cd7e6ca59d8d58cc7057c13bd190d57" target="_top" xlink:title=" ">
<polygon fill="white" stroke="#666666" points="1603.5,-499.45 1490.5,-499.45 1490.5,-469.45 1603.5,-469.45 1603.5,-499.45"/>
<text text-anchor="start" x="1498.5" y="-487.45" font-family="Helvetica,sans-Serif" font-size="10.00">wmtk::Mesh::create</text>
<text text-anchor="middle" x="1547" y="-476.45" font-family="Helvetica,sans-Serif" font-size="10.00">_const_accessor</text>
</a>
</g>
</g>
<!-- Node13&#45;&gt;Node14 -->
<g id="edge14_Node000013_Node000014" class="edge">
<title>Node13&#45;&gt;Node14</title>
<g id="a_edge14_Node000013_Node000014"><a xlink:title=" ">
<path fill="none" stroke="#63b8ff" d="M1430.22,-481.23C1446.53,-481.68 1464.06,-482.17 1480.43,-482.62"/>
<polygon fill="#63b8ff" stroke="#63b8ff" points="1480.36,-486.12 1490.45,-482.9 1480.55,-479.13 1480.36,-486.12"/>
</a>
</g>
</g>
<!-- Node17 -->
<g id="Node000017" class="node">
<title>Node17</title>
<g id="a_Node000017"><a xlink:href="classwmtk_1_1attribute_1_1_index_flag_accessor.html#a08ce19b077654f9e384d8c3fffcbbd0b" target="_top" xlink:title=" ">
<polygon fill="white" stroke="#666666" points="1438,-274.45 1292,-274.45 1292,-244.45 1438,-244.45 1438,-274.45"/>
<text text-anchor="start" x="1300" y="-262.45" font-family="Helvetica,sans-Serif" font-size="10.00">wmtk::attribute::IndexFlag</text>
<text text-anchor="middle" x="1365" y="-251.45" font-family="Helvetica,sans-Serif" font-size="10.00">Accessor::_is_active</text>
</a>
</g>
</g>
<!-- Node16&#45;&gt;Node17 -->
<g id="edge18_Node000016_Node000017" class="edge">
<title>Node16&#45;&gt;Node17</title>
<g id="a_edge18_Node000016_Node000017"><a xlink:title=" ">
<path fill="none" stroke="#63b8ff" d="M1247.57,-259.45C1258.71,-259.45 1270.29,-259.45 1281.64,-259.45"/>
<polygon fill="#63b8ff" stroke="#63b8ff" points="1281.97,-262.95 1291.97,-259.45 1281.97,-255.95 1281.97,-262.95"/>
</a>
</g>
</g>
<!-- Node18 -->
<g id="Node000018" class="node">
<title>Node18</title>
<g id="a_Node000018"><a xlink:href="classwmtk_1_1attribute_1_1_index_flag_accessor.html#a209b3c34d677a60d321806e30da8d287" target="_top" xlink:title=" ">
<polygon fill="white" stroke="#666666" points="1438,-331.45 1292,-331.45 1292,-301.45 1438,-301.45 1438,-331.45"/>
<text text-anchor="start" x="1300" y="-319.45" font-family="Helvetica,sans-Serif" font-size="10.00">wmtk::attribute::IndexFlag</text>
<text text-anchor="middle" x="1365" y="-308.45" font-family="Helvetica,sans-Serif" font-size="10.00">Accessor::attribute</text>
</a>
</g>
</g>
<!-- Node16&#45;&gt;Node18 -->
<g id="edge19_Node000016_Node000018" class="edge">
<title>Node16&#45;&gt;Node18</title>
<g id="a_edge19_Node000016_Node000018"><a xlink:title=" ">
<path fill="none" stroke="#63b8ff" d="M1226.19,-274.5C1236.08,-277.45 1246.37,-280.54 1256,-283.45 1272.01,-288.28 1289.34,-293.55 1305.33,-298.44"/>
<polygon fill="#63b8ff" stroke="#63b8ff" points="1304.51,-301.85 1315.1,-301.43 1306.56,-295.16 1304.51,-301.85"/>
</a>
</g>
</g>
<!-- Node18&#45;&gt;Node8 -->
<g id="edge20_Node000018_Node000008" class="edge">
<title>Node18&#45;&gt;Node8</title>
<g id="a_edge20_Node000018_Node000008"><a xlink:title=" ">
<path fill="none" stroke="#63b8ff" d="M1408.2,-331.45C1433.84,-340.57 1466.76,-352.27 1494,-361.96"/>
<polygon fill="#63b8ff" stroke="#63b8ff" points="1493.16,-365.37 1503.75,-365.42 1495.5,-358.78 1493.16,-365.37"/>
</a>
</g>
</g>
<!-- Node19 -->
<g id="Node000019" class="node">
<title>Node19</title>
<g id="a_Node000019"><a xlink:href="classwmtk_1_1attribute_1_1_index_flag_accessor.html#a37e882007dc57e3571c18163a709a246" target="_top" xlink:title=" ">
<polygon fill="white" stroke="#666666" points="1620,-331.45 1474,-331.45 1474,-301.45 1620,-301.45 1620,-331.45"/>
<text text-anchor="start" x="1482" y="-319.45" font-family="Helvetica,sans-Serif" font-size="10.00">wmtk::attribute::IndexFlag</text>
<text text-anchor="middle" x="1547" y="-308.45" font-family="Helvetica,sans-Serif" font-size="10.00">Accessor::base_accessor</text>
</a>
</g>
</g>
<!-- Node18&#45;&gt;Node19 -->
<g id="edge21_Node000018_Node000019" class="edge">
<title>Node18&#45;&gt;Node19</title>
<g id="a_edge21_Node000018_Node000019"><a xlink:title=" ">
<path fill="none" stroke="#63b8ff" d="M1438.18,-316.45C1446.52,-316.45 1455.08,-316.45 1463.54,-316.45"/>
<polygon fill="#63b8ff" stroke="#63b8ff" points="1463.81,-319.95 1473.81,-316.45 1463.81,-312.95 1463.81,-319.95"/>
</a>
</g>
</g>
<!-- Node21 -->
<g id="Node000021" class="node">
<title>Node21</title>
<g id="a_Node000021"><a xlink:href="namespacewmtk.html#a3daa7951a5f8b78cf4600dc047fcc180" target="_top" xlink:title="Setup a logger object to be used by WildmeshToolkit.">
<polygon fill="white" stroke="#666666" points="1415.5,-225.95 1314.5,-225.95 1314.5,-206.95 1415.5,-206.95 1415.5,-225.95"/>
<text text-anchor="middle" x="1365" y="-213.95" font-family="Helvetica,sans-Serif" font-size="10.00">wmtk::set_logger</text>
</a>
</g>
</g>
<!-- Node20&#45;&gt;Node21 -->
<g id="edge23_Node000020_Node000021" class="edge">
<title>Node20&#45;&gt;Node21</title>
<g id="a_edge23_Node000020_Node000021"><a xlink:title=" ">
<path fill="none" stroke="#63b8ff" d="M1215.02,-216.45C1240.9,-216.45 1275.2,-216.45 1304.37,-216.45"/>
<polygon fill="#63b8ff" stroke="#63b8ff" points="1304.45,-219.95 1314.45,-216.45 1304.45,-212.95 1304.45,-219.95"/>
</a>
</g>
</g>
<!-- Node22&#45;&gt;Node20 -->
<g id="edge29_Node000022_Node000020" class="edge">
<title>Node22&#45;&gt;Node20</title>
<g id="a_edge29_Node000022_Node000020"><a xlink:title=" ">
<path fill="none" stroke="#63b8ff" d="M1027.45,-179.04C1046.43,-184.63 1071.02,-191.7 1093,-197.45 1102.9,-200.03 1113.52,-202.65 1123.7,-205.09"/>
<polygon fill="#63b8ff" stroke="#63b8ff" points="1123.15,-208.55 1133.69,-207.45 1124.76,-201.74 1123.15,-208.55"/>
</a>
</g>
</g>
<!-- Node23 -->
<g id="Node000023" class="node">
<title>Node23</title>
<g id="a_Node000023"><a xlink:href="classwmtk_1_1_tuple.html#a0023f575be92cd5ceeeaaaa3762ea06d" target="_top" xlink:title="Checks if a tuple is &quot;null&quot;. This merely implies the global index is &#45;1.">
<polygon fill="white" stroke="#666666" points="1231,-133.95 1118,-133.95 1118,-114.95 1231,-114.95 1231,-133.95"/>
<text text-anchor="middle" x="1174.5" y="-121.95" font-family="Helvetica,sans-Serif" font-size="10.00">wmtk::Tuple::is_null</text>
</a>
</g>
</g>
<!-- Node22&#45;&gt;Node23 -->
<g id="edge25_Node000022_Node000023" class="edge">
<title>Node22&#45;&gt;Node23</title>
<g id="a_edge25_Node000022_Node000023"><a xlink:title=" ">
<path fill="none" stroke="#63b8ff" d="M1028.34,-159.91C1047.2,-154.55 1071.36,-147.86 1093,-142.45 1101.48,-140.33 1110.49,-138.19 1119.3,-136.17"/>
<polygon fill="#63b8ff" stroke="#63b8ff" points="1120.14,-139.57 1129.12,-133.95 1118.59,-132.75 1120.14,-139.57"/>
</a>
</g>
</g>
<!-- Node24 -->
<g id="Node000024" class="node">
<title>Node24</title>
<g id="a_Node000024"><a xlink:href="classwmtk_1_1_mesh.html#ade176d345902d97af8c5da04aa3a095b" target="_top" xlink:title=" ">
<polygon fill="white" stroke="#666666" points="1244.5,-170.95 1104.5,-170.95 1104.5,-151.95 1244.5,-151.95 1244.5,-170.95"/>
<text text-anchor="middle" x="1174.5" y="-158.95" font-family="Helvetica,sans-Serif" font-size="10.00">wmtk::Mesh::is_removed</text>
</a>
</g>
</g>
<!-- Node22&#45;&gt;Node24 -->
<g id="edge26_Node000022_Node000024" class="edge">
<title>Node22&#45;&gt;Node24</title>
<g id="a_edge26_Node000022_Node000024"><a xlink:title=" ">
<path fill="none" stroke="#63b8ff" d="M1054.77,-166.78C1067.42,-166.21 1080.98,-165.6 1094.25,-165.01"/>
<polygon fill="#63b8ff" stroke="#63b8ff" points="1094.48,-168.5 1104.32,-164.56 1094.17,-161.51 1094.48,-168.5"/>
</a>
</g>
</g>
<!-- Node24&#45;&gt;Node6 -->
<g id="edge27_Node000024_Node000006" class="edge">
<title>Node24&#45;&gt;Node6</title>
<g id="a_edge27_Node000024_Node000006"><a xlink:title=" ">
<path fill="none" stroke="#63b8ff" d="M1229.36,-151.95C1238.47,-149.44 1247.66,-146.32 1256,-142.45 1291.16,-126.12 1326.16,-97.3 1346.41,-79.07"/>
<polygon fill="#63b8ff" stroke="#63b8ff" points="1348.9,-81.54 1353.9,-72.2 1344.16,-76.38 1348.9,-81.54"/>
</a>
</g>
</g>
<!-- Node24&#45;&gt;Node24 -->
<g id="edge28_Node000024_Node000024" class="edge">
<title>Node24&#45;&gt;Node24</title>
<g id="a_edge28_Node000024_Node000024"><a xlink:title=" ">
<path fill="none" stroke="#63b8ff" d="M1146.76,-171.03C1133.26,-179.68 1142.51,-188.95 1174.5,-188.95 1195.99,-188.95 1207.22,-184.76 1208.18,-179.39"/>
<polygon fill="#63b8ff" stroke="#63b8ff" points="1210.89,-177.16 1202.24,-171.03 1205.18,-181.21 1210.89,-177.16"/>
</a>
</g>
</g>
<!-- Node26&#45;&gt;Node20 -->
<g id="edge34_Node000026_Node000020" class="edge">
<title>Node26&#45;&gt;Node20</title>
<g id="a_edge34_Node000026_Node000020"><a xlink:title=" ">
<path fill="none" stroke="#63b8ff" d="M561.1,-312.53C610.39,-309.7 681.91,-304.63 744,-296.45 882.36,-278.2 1043.69,-244.86 1123.51,-227.54"/>
<polygon fill="#63b8ff" stroke="#63b8ff" points="1124.73,-230.86 1133.76,-225.31 1123.24,-224.02 1124.73,-230.86"/>
</a>
</g>
</g>
<!-- Node29 -->
<g id="Node000029" class="node">
<title>Node29</title>
<g id="a_Node000029"><a xlink:href="classwmtk_1_1_edge_mesh.html#a46725851b572b51a356450adc30c14ed" target="_top" xlink:title="switch the orientation of the Tuple of the given dimension">
<polygon fill="white" stroke="#666666" points="569,-169.45 431,-169.45 431,-139.45 569,-139.45 569,-169.45"/>
<text text-anchor="start" x="439" y="-157.45" font-family="Helvetica,sans-Serif" font-size="10.00">wmtk::EdgeMesh::switch</text>
<text text-anchor="middle" x="500" y="-146.45" font-family="Helvetica,sans-Serif" font-size="10.00">_tuple</text>
</a>
</g>
</g>
<!-- Node28&#45;&gt;Node29 -->
<g id="edge37_Node000028_Node000029" class="edge">
<title>Node28&#45;&gt;Node29</title>
<g id="a_edge37_Node000028_Node000029"><a xlink:title=" ">
<path fill="none" stroke="#63b8ff" d="M353.55,-176.93C374.63,-173.67 398.51,-169.98 420.73,-166.55"/>
<polygon fill="#63b8ff" stroke="#63b8ff" points="421.46,-169.97 430.81,-164.99 420.4,-163.06 421.46,-169.97"/>
</a>
</g>
</g>
<!-- Node29&#45;&gt;Node4 -->
<g id="edge38_Node000029_Node000004" class="edge">
<title>Node29&#45;&gt;Node4</title>
<g id="a_edge38_Node000029_Node000004"><a xlink:title=" ">
<path fill="none" stroke="#63b8ff" d="M509.27,-169.76C524.96,-197.71 561.38,-257.67 605,-296.45 729.14,-406.82 775.93,-420.57 932,-477.45 984.2,-496.47 1045.54,-509.05 1093.33,-516.84"/>
<polygon fill="#63b8ff" stroke="#63b8ff" points="1092.89,-520.31 1103.32,-518.43 1093.99,-513.4 1092.89,-520.31"/>
</a>
</g>
</g>
<!-- Node29&#45;&gt;Node5 -->
<g id="edge47_Node000029_Node000005" class="edge">
<title>Node29&#45;&gt;Node5</title>
<g id="a_edge47_Node000029_Node000005"><a xlink:title=" ">
<path fill="none" stroke="#63b8ff" d="M522.05,-169.55C542.22,-183.03 574.07,-201.77 605,-209.45 659.45,-222.96 723.32,-221.77 770.25,-217.87"/>
<polygon fill="#63b8ff" stroke="#63b8ff" points="770.65,-221.35 780.3,-216.98 770.02,-214.38 770.65,-221.35"/>
</a>
</g>
</g>
<!-- Node29&#45;&gt;Node6 -->
<g id="edge39_Node000029_Node000006" class="edge">
<title>Node29&#45;&gt;Node6</title>
<g id="a_edge39_Node000029_Node000006"><a xlink:title=" ">
<path fill="none" stroke="#63b8ff" d="M509.26,-139.32C524.43,-113.2 559.36,-60.07 605,-35.45 696.6,13.98 732.91,-3.45 837,-3.45 837,-3.45 837,-3.45 995.5,-3.45 1113.29,-3.45 1249.64,-33.2 1318.77,-50.45"/>
<polygon fill="#63b8ff" stroke="#63b8ff" points="1317.92,-53.85 1328.47,-52.9 1319.63,-47.06 1317.92,-53.85"/>
</a>
</g>
</g>
<!-- Node29&#45;&gt;Node25 -->
<g id="edge50_Node000029_Node000025" class="edge">
<title>Node29&#45;&gt;Node25</title>
<g id="a_edge50_Node000029_Node000025"><a xlink:title=" ">
<path fill="none" stroke="#63b8ff" d="M522.1,-139.41C542.3,-125.94 574.18,-107.02 605,-98.45 712.25,-68.6 842.47,-69.32 921.6,-73.61"/>
<polygon fill="#63b8ff" stroke="#63b8ff" points="921.76,-77.12 931.95,-74.2 922.16,-70.13 921.76,-77.12"/>
</a>
</g>
</g>
<!-- Node30 -->
<g id="Node000030" class="node">
<title>Node30</title>
<g id="a_Node000030"><a xlink:href="classwmtk_1_1_edge_mesh.html#a34530ca80c07ae67ffe601c2b8f22e3e" target="_top" xlink:title=" ">
<polygon fill="white" stroke="#666666" points="896,-50.95 780,-50.95 780,-31.95 896,-31.95 896,-50.95"/>
<text text-anchor="middle" x="838" y="-38.95" font-family="Helvetica,sans-Serif" font-size="10.00">wmtk::EdgeMesh::id</text>
</a>
</g>
</g>
<!-- Node29&#45;&gt;Node30 -->
<g id="edge40_Node000029_Node000030" class="edge">
<title>Node29&#45;&gt;Node30</title>
<g id="a_edge40_Node000029_Node000030"><a xlink:title=" ">
<path fill="none" stroke="#63b8ff" d="M513.26,-139.34C531.03,-118.64 566.13,-82.13 605,-65.45 657.17,-43.05 721.79,-37.99 769.57,-37.99"/>
<polygon fill="#63b8ff" stroke="#63b8ff" points="769.78,-41.49 779.8,-38.07 769.83,-34.49 769.78,-41.49"/>
</a>
</g>
</g>
<!-- Node31 -->
<g id="Node000031" class="node">
<title>Node31</title>
<g id="a_Node000031"><a xlink:href="classwmtk_1_1_edge_mesh.html#a83db0c93833dacdfb169807d8ba4b6ca" target="_top" xlink:title="TODO this needs dimension?">
<polygon fill="white" stroke="#666666" points="744,-126.95 605,-126.95 605,-107.95 744,-107.95 744,-126.95"/>
<text text-anchor="middle" x="674.5" y="-114.95" font-family="Helvetica,sans-Serif" font-size="10.00">wmtk::EdgeMesh::is_ccw</text>
</a>
</g>
</g>
<!-- Node29&#45;&gt;Node31 -->
<g id="edge44_Node000029_Node000031" class="edge">
<title>Node29&#45;&gt;Node31</title>
<g id="a_edge44_Node000029_Node000031"><a xlink:title=" ">
<path fill="none" stroke="#63b8ff" d="M569.18,-139.82C585.71,-136.28 603.17,-132.53 618.98,-129.14"/>
<polygon fill="#63b8ff" stroke="#63b8ff" points="620.05,-132.49 629.1,-126.97 618.59,-125.65 620.05,-132.49"/>
</a>
</g>
</g>
<!-- Node32 -->
<g id="Node000032" class="node">
<title>Node32</title>
<g id="a_Node000032"><a xlink:href="classwmtk_1_1_tuple.html#ac3cd5381c7147e3ff35347c574635311" target="_top" xlink:title=" ">
<polygon fill="white" stroke="#666666" points="737,-200.95 612,-200.95 612,-181.95 737,-181.95 737,-200.95"/>
<text text-anchor="middle" x="674.5" y="-188.95" font-family="Helvetica,sans-Serif" font-size="10.00">wmtk::Tuple::local_eid</text>
</a>
</g>
</g>
<!-- Node29&#45;&gt;Node32 -->
<g id="edge48_Node000029_Node000032" class="edge">
<title>Node29&#45;&gt;Node32</title>
<g id="a_edge48_Node000029_Node000032"><a xlink:title=" ">
<path fill="none" stroke="#63b8ff" d="M569.18,-169.07C585.71,-172.62 603.17,-176.36 618.98,-179.75"/>
<polygon fill="#63b8ff" stroke="#63b8ff" points="618.59,-183.25 629.1,-181.92 620.05,-176.4 618.59,-183.25"/>
</a>
</g>
</g>
<!-- Node33 -->
<g id="Node000033" class="node">
<title>Node33</title>
<g id="a_Node000033"><a xlink:href="classwmtk_1_1_tuple.html#ab5fa210c660a9d678768c15d7c4f78f0" target="_top" xlink:title=" ">
<polygon fill="white" stroke="#666666" points="735.5,-163.95 613.5,-163.95 613.5,-144.95 735.5,-144.95 735.5,-163.95"/>
<text text-anchor="middle" x="674.5" y="-151.95" font-family="Helvetica,sans-Serif" font-size="10.00">wmtk::Tuple::local_fid</text>
</a>
</g>
</g>
<!-- Node29&#45;&gt;Node33 -->
<g id="edge49_Node000029_Node000033" class="edge">
<title>Node29&#45;&gt;Node33</title>
<g id="a_edge49_Node000029_Node000033"><a xlink:title=" ">
<path fill="none" stroke="#63b8ff" d="M569.18,-154.45C580.35,-154.45 591.95,-154.45 603.18,-154.45"/>
<polygon fill="#63b8ff" stroke="#63b8ff" points="603.36,-157.95 613.36,-154.45 603.36,-150.95 603.36,-157.95"/>
</a>
</g>
</g>
<!-- Node30&#45;&gt;Node4 -->
<g id="edge41_Node000030_Node000004" class="edge">
<title>Node30&#45;&gt;Node4</title>
<g id="a_edge41_Node000030_Node000004"><a xlink:title=" ">
<path fill="none" stroke="#63b8ff" d="M843.54,-50.99C854.2,-73.76 881.05,-133.23 896,-185.45 920.5,-271.01 882.82,-308.26 932,-382.45 968.72,-437.82 1006.31,-421.49 1057,-464.45 1075,-479.7 1072.98,-490.96 1093,-503.45 1095.64,-505.09 1098.39,-506.63 1101.23,-508.06"/>
<polygon fill="#63b8ff" stroke="#63b8ff" points="1099.97,-511.34 1110.52,-512.31 1102.88,-504.97 1099.97,-511.34"/>
</a>
</g>
</g>
<!-- Node30&#45;&gt;Node6 -->
<g id="edge42_Node000030_Node000006" class="edge">
<title>Node30&#45;&gt;Node6</title>
<g id="a_edge42_Node000030_Node000006"><a xlink:title=" ">
<path fill="none" stroke="#63b8ff" d="M896.18,-43.73C991.47,-47.55 1182.73,-55.2 1288.81,-59.44"/>
<polygon fill="#63b8ff" stroke="#63b8ff" points="1288.99,-62.95 1299.12,-59.85 1289.27,-55.95 1288.99,-62.95"/>
</a>
</g>
</g>
<!-- Node30&#45;&gt;Node25 -->
<g id="edge43_Node000030_Node000025" class="edge">
<title>Node30&#45;&gt;Node25</title>
<g id="a_edge43_Node000030_Node000025"><a xlink:title=" ">
<path fill="none" stroke="#63b8ff" d="M877.99,-51.04C898.28,-56.03 923.29,-62.18 944.85,-67.48"/>
<polygon fill="#63b8ff" stroke="#63b8ff" points="944.25,-70.94 954.79,-69.93 945.92,-64.14 944.25,-70.94"/>
</a>
</g>
</g>
<!-- Node31&#45;&gt;Node5 -->
<g id="edge45_Node000031_Node000005" class="edge">
<title>Node31&#45;&gt;Node5</title>
<g id="a_edge45_Node000031_Node000005"><a xlink:title=" ">
<path fill="none" stroke="#63b8ff" d="M722.51,-127.02C729.89,-129.3 737.29,-132.09 744,-135.45 770.71,-148.83 796.97,-170.76 814.73,-187.27"/>
<polygon fill="#63b8ff" stroke="#63b8ff" points="812.6,-190.08 822.26,-194.43 817.42,-185.01 812.6,-190.08"/>
</a>
</g>
</g>
<!-- Node31&#45;&gt;Node25 -->
<g id="edge46_Node000031_Node000025" class="edge">
<title>Node31&#45;&gt;Node25</title>
<g id="a_edge46_Node000031_Node000025"><a xlink:title=" ">
<path fill="none" stroke="#63b8ff" d="M744.1,-110.59C787.66,-106.09 845.19,-99.86 896,-93.45 904.35,-92.39 913.1,-91.23 921.78,-90.03"/>
<polygon fill="#63b8ff" stroke="#63b8ff" points="922.49,-93.46 931.91,-88.62 921.52,-86.53 922.49,-93.46"/>
</a>
</g>
</g>
</g>
</svg>

<g id="navigator" transform="translate(0 0)" fill="#404254">
  <rect fill="#f2f5e9" fill-opacity="0.5" stroke="#606060" stroke-width=".5" x="0" y="0" width="60" height="60"/>
  <use id="zoomplus" xlink:href="#zoomPlus" x="17" y="9" onmousedown="handleZoom(evt,'in')"/>
  <use id="zoomminus" xlink:href="#zoomMin" x="42" y="9" onmousedown="handleZoom(evt,'out')"/>
  <use id="reset" xlink:href="#resetDef" x="30" y="36" onmousedown="handleReset()"/>
   <use id="arrowup" xlink:href="#arrowUp" x="0" y="0" onmousedown="handlePan(0,-1)"/>
  <use id="arrowright" xlink:href="#arrowRight" x="0" y="0" onmousedown="handlePan(1,0)"/>
  <use id="arrowdown" xlink:href="#arrowDown" x="0" y="0" onmousedown="handlePan(0,1)"/>
  <use id="arrowleft" xlink:href="#arrowLeft" x="0" y="0" onmousedown="handlePan(-1,0)"/>
</g>
<svg viewBox="0 0 15 15" width="100%" height="30px" preserveAspectRatio="xMaxYMin meet">
 <g id="arrow_out" transform="scale(0.3 0.3)">
  <a xlink:href="namespacewmtk_1_1simplex_ac133ab11355bb4cda7e8b1e3ed48226f_cgraph_org.svg" target="_base">
   <rect id="button" ry="5" rx="5" y="6" x="6" height="38" width="38"
        fill="#f2f5e9" fill-opacity="0.5" stroke="#606060" stroke-width="1.0"/>
   <path id="arrow"
     d="M 11.500037,31.436501 C 11.940474,20.09759 22.043105,11.32322 32.158766,21.979434 L 37.068811,17.246167 C 37.068811,17.246167 37.088388,32 37.088388,32 L 22.160133,31.978069 C 22.160133,31.978069 26.997745,27.140456 26.997745,27.140456 C 18.528582,18.264221 13.291696,25.230495 11.500037,31.436501 z"
     style="fill:#404040;"/>
  </a>
 </g>
</svg>

<style type='text/css'>
<![CDATA[
[data-mouse-over-selected='false'] { opacity: 0.7; }
[data-mouse-over-selected='true']  { opacity: 1.0; }
]]>
</style>
<script type="application/ecmascript"><![CDATA[
document.addEventListener('DOMContentLoaded', (event) => {
  highlightEdges();
  highlightAdjacentNodes();
});
]]></script>
</svg>
