<?xml version="1.0" encoding="UTF-8" standalone="no"?>
<!DOCTYPE svg PUBLIC "-//W3C//DTD SVG 1.1//EN"
 "http://www.w3.org/Graphics/SVG/1.1/DTD/svg11.dtd">
<!-- Generated by graphviz version 2.43.0 (0)
 -->
<!-- Title: wmtk::autogen::edge_mesh::subdart_maximal_action_to_face_size Pages: 1 -->
<svg width="793pt" height="216pt"
 viewBox="0.00 0.00 793.00 215.50" xmlns="http://www.w3.org/2000/svg" xmlns:xlink="http://www.w3.org/1999/xlink">
<g id="graph0" class="graph" transform="scale(1 1) rotate(0) translate(4 211.5)">
<title>wmtk::autogen::edge_mesh::subdart_maximal_action_to_face_size</title>
<!-- Node1 -->
<g id="Node000001" class="node">
<title>Node1</title>
<g id="a_Node000001"><a xlink:title=" ">
<polygon fill="#999999" stroke="#666666" points="785,-100 645,-100 645,-59 785,-59 785,-100"/>
<text text-anchor="start" x="653" y="-88" font-family="Helvetica,sans-Serif" font-size="10.00">wmtk::autogen::edge</text>
<text text-anchor="start" x="653" y="-77" font-family="Helvetica,sans-Serif" font-size="10.00">_mesh::subdart_maximal</text>
<text text-anchor="middle" x="715" y="-66" font-family="Helvetica,sans-Serif" font-size="10.00">_action_to_face_size</text>
</a>
</g>
</g>
<!-- Node2 -->
<g id="Node000002" class="node">
<title>Node2</title>
<g id="a_Node000002"><a xlink:href="namespacewmtk_1_1dart_1_1utils.html#a0852f8bf4073cbed6d81504c509bddd8" target="_top" xlink:title=" ">
<polygon fill="white" stroke="#666666" points="609,-123.5 454,-123.5 454,-93.5 609,-93.5 609,-123.5"/>
<text text-anchor="start" x="462" y="-111.5" font-family="Helvetica,sans-Serif" font-size="10.00">wmtk::dart::utils::</text>
<text text-anchor="middle" x="531.5" y="-100.5" font-family="Helvetica,sans-Serif" font-size="10.00">largest_shared_subdart_size</text>
</a>
</g>
</g>
<!-- Node1&#45;&gt;Node2 -->
<g id="edge1_Node000001_Node000002" class="edge">
<title>Node1&#45;&gt;Node2</title>
<g id="a_edge1_Node000001_Node000002"><a xlink:title=" ">
<path fill="none" stroke="#63b8ff" d="M634.87,-92.14C626.29,-93.51 617.57,-94.91 609.02,-96.27"/>
<polygon fill="#63b8ff" stroke="#63b8ff" points="635.54,-95.58 644.86,-90.55 634.44,-88.67 635.54,-95.58"/>
</a>
</g>
</g>
<!-- Node7 -->
<g id="Node000007" class="node">
<title>Node7</title>
<g id="a_Node000007"><a xlink:href="namespacewmtk_1_1dart_1_1utils.html#aea607b900d784924cdb5c8255df6f9d4" target="_top" xlink:title=" ">
<polygon fill="white" stroke="#666666" points="600,-73 463,-73 463,-32 600,-32 600,-73"/>
<text text-anchor="start" x="471" y="-61" font-family="Helvetica,sans-Serif" font-size="10.00">wmtk::dart::utils::</text>
<text text-anchor="start" x="471" y="-50" font-family="Helvetica,sans-Serif" font-size="10.00">subdart_maximal_action</text>
<text text-anchor="middle" x="531.5" y="-39" font-family="Helvetica,sans-Serif" font-size="10.00">_to_face_size</text>
</a>
</g>
</g>
<!-- Node1&#45;&gt;Node7 -->
<g id="edge6_Node000001_Node000007" class="edge">
<title>Node1&#45;&gt;Node7</title>
<g id="a_edge6_Node000001_Node000007"><a xlink:title=" ">
<path fill="none" stroke="#63b8ff" d="M634.82,-67.72C623.29,-66.01 611.52,-64.25 600.24,-62.58"/>
<polygon fill="#63b8ff" stroke="#63b8ff" points="634.46,-71.21 644.86,-69.22 635.49,-64.28 634.46,-71.21"/>
</a>
</g>
</g>
<!-- Node3 -->
<g id="Node000003" class="node">
<title>Node3</title>
<g id="a_Node000003"><a xlink:href="namespacewmtk_1_1dart_1_1utils.html#a202dfb2ce4b37360a952be27e23e6ebc" target="_top" xlink:title=" ">
<polygon fill="white" stroke="#666666" points="400,-207.5 245,-207.5 245,-177.5 400,-177.5 400,-207.5"/>
<text text-anchor="start" x="253" y="-195.5" font-family="Helvetica,sans-Serif" font-size="10.00">wmtk::dart::utils::</text>
<text text-anchor="middle" x="322.5" y="-184.5" font-family="Helvetica,sans-Serif" font-size="10.00">largest_shared_subdart_size</text>
</a>
</g>
</g>
<!-- Node2&#45;&gt;Node3 -->
<g id="edge2_Node000002_Node000003" class="edge">
<title>Node2&#45;&gt;Node3</title>
<g id="a_edge2_Node000002_Node000003"><a xlink:title=" ">
<path fill="none" stroke="#63b8ff" d="M497.42,-128.88C475.52,-141.68 445.82,-157.73 418,-168.5 409.4,-171.83 400.17,-174.83 390.98,-177.49"/>
<polygon fill="#63b8ff" stroke="#63b8ff" points="499.47,-131.73 506.29,-123.62 495.91,-125.71 499.47,-131.73"/>
</a>
</g>
</g>
<!-- Node4 -->
<g id="Node000004" class="node">
<title>Node4</title>
<g id="a_Node000004"><a xlink:href="classwmtk_1_1operations_1_1internal_1_1_collapse_alternate_facet_option_data.html#a595d313466f65784b5352ddc192d624e" target="_top" xlink:title=" ">
<polygon fill="white" stroke="#666666" points="418,-159 227,-159 227,-118 418,-118 418,-159"/>
<text text-anchor="start" x="235" y="-147" font-family="Helvetica,sans-Serif" font-size="10.00">wmtk::operations::internal</text>
<text text-anchor="start" x="235" y="-136" font-family="Helvetica,sans-Serif" font-size="10.00">::CollapseAlternateFacetOptionData</text>
<text text-anchor="middle" x="322.5" y="-125" font-family="Helvetica,sans-Serif" font-size="10.00">::largest_subdart</text>
</a>
</g>
</g>
<!-- Node2&#45;&gt;Node4 -->
<g id="edge3_Node000002_Node000004" class="edge">
<title>Node2&#45;&gt;Node4</title>
<g id="a_edge3_Node000002_Node000004"><a xlink:title=" ">
<path fill="none" stroke="#63b8ff" d="M443.81,-121.06C435.3,-122.3 426.63,-123.55 418.05,-124.8"/>
<polygon fill="#63b8ff" stroke="#63b8ff" points="444.32,-124.53 453.72,-119.63 443.32,-117.6 444.32,-124.53"/>
</a>
</g>
</g>
<!-- Node6 -->
<g id="Node000006" class="node">
<title>Node6</title>
<g id="a_Node000006"><a xlink:href="classwmtk_1_1operations_1_1internal_1_1_split_alternate_facet_option_data.html#a1bacc4257281291f6563a7f8ef6d3669" target="_top" xlink:title=" ">
<polygon fill="white" stroke="#666666" points="407.5,-100 237.5,-100 237.5,-59 407.5,-59 407.5,-100"/>
<text text-anchor="start" x="245.5" y="-88" font-family="Helvetica,sans-Serif" font-size="10.00">wmtk::operations::internal</text>
<text text-anchor="start" x="245.5" y="-77" font-family="Helvetica,sans-Serif" font-size="10.00">::SplitAlternateFacetOptionData</text>
<text text-anchor="middle" x="322.5" y="-66" font-family="Helvetica,sans-Serif" font-size="10.00">::new_gid</text>
</a>
</g>
</g>
<!-- Node2&#45;&gt;Node6 -->
<g id="edge5_Node000002_Node000006" class="edge">
<title>Node2&#45;&gt;Node6</title>
<g id="a_edge5_Node000002_Node000006"><a xlink:title=" ">
<path fill="none" stroke="#63b8ff" d="M443.8,-96.35C431.89,-94.69 419.68,-92.97 407.81,-91.31"/>
<polygon fill="#63b8ff" stroke="#63b8ff" points="443.33,-99.82 453.72,-97.74 444.3,-92.89 443.33,-99.82"/>
</a>
</g>
</g>
<!-- Node5 -->
<g id="Node000005" class="node">
<title>Node5</title>
<g id="a_Node000005"><a xlink:href="classwmtk_1_1operations_1_1internal_1_1_collapse_alternate_facet_option_data.html#addab9857606b2620f3f37e6df28ba483" target="_top" xlink:title=" ">
<polygon fill="white" stroke="#666666" points="191,-159 0,-159 0,-118 191,-118 191,-159"/>
<text text-anchor="start" x="8" y="-147" font-family="Helvetica,sans-Serif" font-size="10.00">wmtk::operations::internal</text>
<text text-anchor="start" x="8" y="-136" font-family="Helvetica,sans-Serif" font-size="10.00">::CollapseAlternateFacetOptionData</text>
<text text-anchor="middle" x="95.5" y="-125" font-family="Helvetica,sans-Serif" font-size="10.00">::largest_subdarts</text>
</a>
</g>
</g>
<!-- Node4&#45;&gt;Node5 -->
<g id="edge4_Node000004_Node000005" class="edge">
<title>Node4&#45;&gt;Node5</title>
<g id="a_edge4_Node000004_Node000005"><a xlink:title=" ">
<path fill="none" stroke="#63b8ff" d="M216.47,-138.5C208.03,-138.5 199.53,-138.5 191.16,-138.5"/>
<polygon fill="#63b8ff" stroke="#63b8ff" points="216.73,-142 226.73,-138.5 216.73,-135 216.73,-142"/>
</a>
</g>
</g>
<!-- Node8 -->
<g id="Node000008" class="node">
<title>Node8</title>
<g id="a_Node000008"><a xlink:href="namespacewmtk_1_1dart_1_1utils.html#a440fcba9a4aa845f0032260625f6ae42" target="_top" xlink:title=" ">
<polygon fill="white" stroke="#666666" points="391,-41 254,-41 254,0 391,0 391,-41"/>
<text text-anchor="start" x="262" y="-29" font-family="Helvetica,sans-Serif" font-size="10.00">wmtk::dart::utils::</text>
<text text-anchor="start" x="262" y="-18" font-family="Helvetica,sans-Serif" font-size="10.00">subdart_maximal_action</text>
<text text-anchor="middle" x="322.5" y="-7" font-family="Helvetica,sans-Serif" font-size="10.00">_to_face_size</text>
</a>
</g>
</g>
<!-- Node7&#45;&gt;Node8 -->
<g id="edge7_Node000007_Node000008" class="edge">
<title>Node7&#45;&gt;Node8</title>
<g id="a_edge7_Node000007_Node000008"><a xlink:title=" ">
<path fill="none" stroke="#63b8ff" d="M452.6,-40.46C432.36,-37.33 410.73,-33.99 391.08,-30.95"/>
<polygon fill="#63b8ff" stroke="#63b8ff" points="452.3,-43.95 462.72,-42.02 453.37,-37.04 452.3,-43.95"/>
</a>
</g>
</g>
</g>
</svg>
