<?xml version="1.0" encoding="UTF-8" standalone="no"?>
<!DOCTYPE svg PUBLIC "-//W3C//DTD SVG 1.1//EN"
 "http://www.w3.org/Graphics/SVG/1.1/DTD/svg11.dtd">
<!-- Generated by graphviz version 2.43.0 (0)
 -->
<!-- Title: wmtk::dart::utils::get_canonical_supdart Pages: 1 -->
<!--zoomable 532 -->

<svg id="main" version="1.1" xmlns="http://www.w3.org/2000/svg" xmlns:xlink="http://www.w3.org/1999/xlink" xml:space="preserve" onload="init(evt)">
<style type="text/css"><![CDATA[
.node, .edge {opacity: 0.7;}
.node.selected, .edge.selected {opacity: 1;}
.edge:hover path { stroke: red; }
.edge:hover polygon { stroke: red; fill: red; }
]]></style>

<defs>
  <circle id="rim" cx="0" cy="0" r="7"/>
  <circle id="rim2" cx="0" cy="0" r="3.5"/>
  <g id="zoomPlus">
    <use xlink:href="#rim" fill="#404040"><set attributeName="fill" to="#808080" begin="zoomplus.mouseover" end="zoomplus.mouseout"/></use>
    <path d="M-4,0h8M0,-4v8" fill="none" stroke="white" stroke-width="1.5" pointer-events="none"/>
  </g>
  <g id="zoomMin">
    <use xlink:href="#rim" fill="#404040"><set attributeName="fill" to="#808080" begin="zoomminus.mouseover" end="zoomminus.mouseout"/></use>
    <path d="M-4,0h8" fill="none" stroke="white" stroke-width="1.5" pointer-events="none"/>
  </g>
  <g id="arrowUp" transform="translate(30 24)">
    <use xlink:href="#rim"/>
    <path pointer-events="none" fill="none" stroke="white" stroke-width="1.5" d="M0,-3.0v7 M-2.5,-0.5L0,-3.0L2.5,-0.5"/>
  </g>
  <g id="arrowRight" transform="rotate(90) translate(36 -43)">
    <use xlink:href="#rim"/>
    <path pointer-events="none" fill="none" stroke="white" stroke-width="1.5" d="M0,-3.0v7 M-2.5,-0.5L0,-3.0L2.5,-0.5"/>
  </g>
  <g id="arrowDown" transform="rotate(180) translate(-30 -48)">
    <use xlink:href="#rim"/>
    <path pointer-events="none" fill="none" stroke="white" stroke-width="1.5" d="M0,-3.0v7 M-2.5,-0.5L0,-3.0L2.5,-0.5"/>
  </g>
  <g id="arrowLeft" transform="rotate(270) translate(-36 17)">
    <use xlink:href="#rim"/>
    <path pointer-events="none" fill="none" stroke="white" stroke-width="1.5" d="M0,-3.0v7 M-2.5,-0.5L0,-3.0L2.5,-0.5"/>
  </g>
  <g id="resetDef">
    <use xlink:href="#rim2" fill="#404040"><set attributeName="fill" to="#808080" begin="reset.mouseover" end="reset.mouseout"/></use>
  </g>
</defs>
<script type="application/ecmascript">
var viewWidth = 1508;
var viewHeight = 532;
var sectionId = 'dynsection-30';
</script>
<script type="application/ecmascript" xlink:href="svg.min.js"/>
<svg id="graph" class="graph">
<g id="viewport">
<title>wmtk::dart::utils::get_canonical_supdart</title>
<!-- Node1 -->
<g id="Node000001" class="node">
<title>Node1</title>
<g id="a_Node000001"><a xlink:title=" ">
<polygon fill="#999999" stroke="#666666" points="1500,-243 1374,-243 1374,-213 1500,-213 1500,-243"/>
<text text-anchor="start" x="1382" y="-231" font-family="Helvetica,sans-Serif" font-size="10.00">wmtk::dart::utils::</text>
<text text-anchor="middle" x="1437" y="-220" font-family="Helvetica,sans-Serif" font-size="10.00">get_canonical_supdart</text>
</a>
</g>
</g>
<!-- Node2 -->
<g id="Node000002" class="node">
<title>Node2</title>
<g id="a_Node000002"><a xlink:href="namespacewmtk_1_1dart_1_1utils.html#adc678ea868e984077e26f8b9a79e7ad9" target="_top" xlink:title=" ">
<polygon fill="white" stroke="#666666" points="1321.5,-275.5 1193.5,-275.5 1193.5,-234.5 1321.5,-234.5 1321.5,-275.5"/>
<text text-anchor="start" x="1201.5" y="-263.5" font-family="Helvetica,sans-Serif" font-size="10.00">wmtk::dart::utils::</text>
<text text-anchor="start" x="1201.5" y="-252.5" font-family="Helvetica,sans-Serif" font-size="10.00">get_canonical_simplex</text>
<text text-anchor="middle" x="1257.5" y="-241.5" font-family="Helvetica,sans-Serif" font-size="10.00">_orientation</text>
</a>
</g>
</g>
<!-- Node1&#45;&gt;Node2 -->
<g id="edge1_Node000001_Node000002" class="edge">
<title>Node1&#45;&gt;Node2</title>
<g id="a_edge1_Node000001_Node000002"><a xlink:title=" ">
<path fill="none" stroke="#63b8ff" d="M1363.88,-238.97C1349.92,-241.09 1335.39,-243.3 1321.75,-245.38"/>
<polygon fill="#63b8ff" stroke="#63b8ff" points="1364.56,-242.41 1373.92,-237.44 1363.51,-235.49 1364.56,-242.41"/>
</a>
</g>
</g>
<!-- Node3 -->
<g id="Node000003" class="node">
<title>Node3</title>
<g id="a_Node000003"><a xlink:href="namespacewmtk_1_1dart_1_1utils.html#a10c8d07172593fb9b520e7a6511ad08f" target="_top" xlink:title=" ">
<polygon fill="white" stroke="#666666" points="1338,-216 1177,-216 1177,-186 1338,-186 1338,-216"/>
<text text-anchor="start" x="1185" y="-204" font-family="Helvetica,sans-Serif" font-size="10.00">wmtk::dart::utils::</text>
<text text-anchor="middle" x="1257.5" y="-193" font-family="Helvetica,sans-Serif" font-size="10.00">local_simplex_decomposition</text>
</a>
</g>
</g>
<!-- Node1&#45;&gt;Node3 -->
<g id="edge2_Node000001_Node000003" class="edge">
<title>Node1&#45;&gt;Node3</title>
<g id="a_edge2_Node000001_Node000003"><a xlink:title=" ">
<path fill="none" stroke="#63b8ff" d="M1364,-217.05C1355.44,-215.75 1346.67,-214.41 1338.02,-213.1"/>
<polygon fill="#63b8ff" stroke="#63b8ff" points="1363.51,-220.51 1373.92,-218.56 1364.56,-213.59 1363.51,-220.51"/>
</a>
</g>
</g>
<!-- Node4 -->
<g id="Node000004" class="node">
<title>Node4</title>
<g id="a_Node000004"><a xlink:href="namespacewmtk_1_1dart_1_1utils.html#adf4bec80fa2f0838078a389a615803f3" target="_top" xlink:title=" ">
<polygon fill="white" stroke="#666666" points="1141,-345.5 999,-345.5 999,-304.5 1141,-304.5 1141,-345.5"/>
<text text-anchor="start" x="1007" y="-333.5" font-family="Helvetica,sans-Serif" font-size="10.00">wmtk::dart::utils::</text>
<text text-anchor="start" x="1007" y="-322.5" font-family="Helvetica,sans-Serif" font-size="10.00">apply_simplex_involution</text>
<text text-anchor="middle" x="1070" y="-311.5" font-family="Helvetica,sans-Serif" font-size="10.00">_directed</text>
</a>
</g>
</g>
<!-- Node3&#45;&gt;Node4 -->
<g id="edge3_Node000003_Node000004" class="edge">
<title>Node3&#45;&gt;Node4</title>
<g id="a_edge3_Node000003_Node000004"><a xlink:title=" ">
<path fill="none" stroke="#63b8ff" d="M1188.48,-220.08C1184.51,-221.9 1180.66,-223.87 1177,-226 1141.11,-246.93 1107.45,-282.01 1088.05,-304.3"/>
<polygon fill="#63b8ff" stroke="#63b8ff" points="1190.04,-223.22 1197.89,-216.1 1187.32,-216.77 1190.04,-223.22"/>
</a>
</g>
</g>
<!-- Node13 -->
<g id="Node000013" class="node">
<title>Node13</title>
<g id="a_Node000013"><a xlink:href="namespacewmtk_1_1dart_1_1utils.html#a5a1d80c919ea8054fa6ddb989fb7cc30" target="_top" xlink:title=" ">
<polygon fill="white" stroke="#666666" points="1135.5,-192.5 1004.5,-192.5 1004.5,-151.5 1135.5,-151.5 1135.5,-192.5"/>
<text text-anchor="start" x="1012.5" y="-180.5" font-family="Helvetica,sans-Serif" font-size="10.00">wmtk::dart::utils::</text>
<text text-anchor="start" x="1012.5" y="-169.5" font-family="Helvetica,sans-Serif" font-size="10.00">get_simplex_involution</text>
<text text-anchor="middle" x="1070" y="-158.5" font-family="Helvetica,sans-Serif" font-size="10.00">_upward</text>
</a>
</g>
</g>
<!-- Node3&#45;&gt;Node13 -->
<g id="edge12_Node000003_Node000013" class="edge">
<title>Node3&#45;&gt;Node13</title>
<g id="a_edge12_Node000003_Node000013"><a xlink:title=" ">
<path fill="none" stroke="#63b8ff" d="M1166.72,-186.96C1156.21,-185.32 1145.65,-183.67 1135.59,-182.1"/>
<polygon fill="#63b8ff" stroke="#63b8ff" points="1166.33,-190.45 1176.75,-188.53 1167.42,-183.53 1166.33,-190.45"/>
</a>
</g>
</g>
<!-- Node5 -->
<g id="Node000005" class="node">
<title>Node5</title>
<g id="a_Node000005"><a xlink:href="namespacewmtk_1_1dart_1_1utils.html#a38d4e769a52b66206b96a5bd6c76616c" target="_top" xlink:title=" ">
<polygon fill="white" stroke="#666666" points="963,-374 821,-374 821,-344 963,-344 963,-374"/>
<text text-anchor="start" x="829" y="-362" font-family="Helvetica,sans-Serif" font-size="10.00">wmtk::dart::utils::</text>
<text text-anchor="middle" x="892" y="-351" font-family="Helvetica,sans-Serif" font-size="10.00">apply_simplex_involution</text>
</a>
</g>
</g>
<!-- Node4&#45;&gt;Node5 -->
<g id="edge4_Node000004_Node000005" class="edge">
<title>Node4&#45;&gt;Node5</title>
<g id="a_edge4_Node000004_Node000005"><a xlink:title=" ">
<path fill="none" stroke="#63b8ff" d="M988.9,-340.47C980.29,-342.14 971.59,-343.82 963.11,-345.46"/>
<polygon fill="#63b8ff" stroke="#63b8ff" points="989.78,-343.87 998.93,-338.54 988.45,-337 989.78,-343.87"/>
</a>
</g>
</g>
<!-- Node6 -->
<g id="Node000006" class="node">
<title>Node6</title>
<g id="a_Node000006"><a xlink:href="classwmtk_1_1dart_1_1_involution.html#ae1896cccd69bf293bb27ae0e99210bff" target="_top" xlink:title=" ">
<polygon fill="white" stroke="#666666" points="752,-524 627,-524 627,-494 752,-494 752,-524"/>
<text text-anchor="start" x="635" y="-512" font-family="Helvetica,sans-Serif" font-size="10.00">wmtk::dart::Involution</text>
<text text-anchor="middle" x="689.5" y="-501" font-family="Helvetica,sans-Serif" font-size="10.00">::apply</text>
</a>
</g>
</g>
<!-- Node5&#45;&gt;Node6 -->
<g id="edge5_Node000005_Node000006" class="edge">
<title>Node5&#45;&gt;Node6</title>
<g id="a_edge5_Node000005_Node000006"><a xlink:title=" ">
<path fill="none" stroke="#63b8ff" d="M877.54,-382.64C859.97,-411.29 826.52,-458.96 785,-485 775.1,-491.2 763.68,-495.81 752.27,-499.22"/>
<polygon fill="#63b8ff" stroke="#63b8ff" points="880.54,-384.43 882.67,-374.05 874.53,-380.84 880.54,-384.43"/>
</a>
</g>
</g>
<!-- Node7 -->
<g id="Node000007" class="node">
<title>Node7</title>
<g id="a_Node000007"><a xlink:href="namespacewmtk_1_1dart_1_1utils.html#a29d84b45f3468553f5e41f1d88e8917d" target="_top" xlink:title=" ">
<polygon fill="white" stroke="#666666" points="760.5,-476 618.5,-476 618.5,-446 760.5,-446 760.5,-476"/>
<text text-anchor="start" x="626.5" y="-464" font-family="Helvetica,sans-Serif" font-size="10.00">wmtk::dart::utils::</text>
<text text-anchor="middle" x="689.5" y="-453" font-family="Helvetica,sans-Serif" font-size="10.00">apply_simplex_involution</text>
</a>
</g>
</g>
<!-- Node5&#45;&gt;Node7 -->
<g id="edge6_Node000005_Node000007" class="edge">
<title>Node5&#45;&gt;Node7</title>
<g id="a_edge6_Node000005_Node000007"><a xlink:title=" ">
<path fill="none" stroke="#63b8ff" d="M867.14,-380.79C846.72,-398.35 815.82,-422.43 785,-437 777.35,-440.62 769.08,-443.74 760.73,-446.41"/>
<polygon fill="#63b8ff" stroke="#63b8ff" points="869.47,-383.4 874.69,-374.19 864.86,-378.14 869.47,-383.4"/>
</a>
</g>
</g>
<!-- Node8 -->
<g id="Node000008" class="node">
<title>Node8</title>
<g id="a_Node000008"><a xlink:href="classwmtk_1_1dart_1_1_involution.html#a0a49d42a8b2e4d4fada0feb649d6eb13" target="_top" xlink:title=" ">
<polygon fill="white" stroke="#666666" points="752,-428 627,-428 627,-398 752,-398 752,-428"/>
<text text-anchor="start" x="635" y="-416" font-family="Helvetica,sans-Serif" font-size="10.00">wmtk::dart::Involution</text>
<text text-anchor="middle" x="689.5" y="-405" font-family="Helvetica,sans-Serif" font-size="10.00">::invert</text>
</a>
</g>
</g>
<!-- Node5&#45;&gt;Node8 -->
<g id="edge7_Node000005_Node000008" class="edge">
<title>Node5&#45;&gt;Node8</title>
<g id="a_edge7_Node000005_Node000008"><a xlink:title=" ">
<path fill="none" stroke="#63b8ff" d="M829.19,-376.8C814.72,-380.88 799.33,-385.15 785,-389 773.96,-391.96 762.18,-395.03 750.81,-397.94"/>
<polygon fill="#63b8ff" stroke="#63b8ff" points="830.38,-380.1 839.05,-374.01 828.47,-373.36 830.38,-380.1"/>
</a>
</g>
</g>
<!-- Node9 -->
<g id="Node000009" class="node">
<title>Node9</title>
<g id="a_Node000009"><a xlink:href="classwmtk_1_1operations_1_1internal_1_1_collapse_alternate_facet_option_data.html#ac262da3be4dbf20b98d5d22f5210bfb6" target="_top" xlink:title=" ">
<polygon fill="white" stroke="#666666" points="785,-379.5 594,-379.5 594,-338.5 785,-338.5 785,-379.5"/>
<text text-anchor="start" x="602" y="-367.5" font-family="Helvetica,sans-Serif" font-size="10.00">wmtk::operations::internal</text>
<text text-anchor="start" x="602" y="-356.5" font-family="Helvetica,sans-Serif" font-size="10.00">::CollapseAlternateFacetOptionData</text>
<text text-anchor="middle" x="689.5" y="-345.5" font-family="Helvetica,sans-Serif" font-size="10.00">::map_permutation_to_alt</text>
</a>
</g>
</g>
<!-- Node5&#45;&gt;Node9 -->
<g id="edge8_Node000005_Node000009" class="edge">
<title>Node5&#45;&gt;Node9</title>
<g id="a_edge8_Node000005_Node000009"><a xlink:title=" ">
<path fill="none" stroke="#63b8ff" d="M810.76,-359C802.37,-359 793.78,-359 785.25,-359"/>
<polygon fill="#63b8ff" stroke="#63b8ff" points="810.87,-362.5 820.87,-359 810.87,-355.5 810.87,-362.5"/>
</a>
</g>
</g>
<!-- Node11 -->
<g id="Node000011" class="node">
<title>Node11</title>
<g id="a_Node000011"><a xlink:href="classwmtk_1_1dart_1_1_dart_topology_accessor.html#a5f83d6d9845e2797b5e1069fc97c0e71" target="_top" xlink:title=" ">
<polygon fill="white" stroke="#666666" points="759.5,-320 619.5,-320 619.5,-290 759.5,-290 759.5,-320"/>
<text text-anchor="start" x="627.5" y="-308" font-family="Helvetica,sans-Serif" font-size="10.00">wmtk::dart::DartTopology</text>
<text text-anchor="middle" x="689.5" y="-297" font-family="Helvetica,sans-Serif" font-size="10.00">Accessor::switch_facet</text>
</a>
</g>
</g>
<!-- Node5&#45;&gt;Node11 -->
<g id="edge10_Node000005_Node000011" class="edge">
<title>Node5&#45;&gt;Node11</title>
<g id="a_edge10_Node000005_Node000011"><a xlink:title=" ">
<path fill="none" stroke="#63b8ff" d="M826.46,-341.25C812.78,-337.51 798.42,-333.61 785,-330 772.95,-326.76 760.04,-323.32 747.74,-320.06"/>
<polygon fill="#63b8ff" stroke="#63b8ff" points="825.71,-344.67 836.28,-343.94 827.56,-337.92 825.71,-344.67"/>
</a>
</g>
</g>
<!-- Node12 -->
<g id="Node000012" class="node">
<title>Node12</title>
<g id="a_Node000012"><a xlink:href="classwmtk_1_1dart_1_1_dart_topology_accessor.html#a51daafd112d7ef209418627ea3fb6310" target="_top" xlink:title=" ">
<polygon fill="white" stroke="#666666" points="759.5,-272 619.5,-272 619.5,-242 759.5,-242 759.5,-272"/>
<text text-anchor="start" x="627.5" y="-260" font-family="Helvetica,sans-Serif" font-size="10.00">wmtk::dart::DartTopology</text>
<text text-anchor="middle" x="689.5" y="-249" font-family="Helvetica,sans-Serif" font-size="10.00">Accessor::switch_facet</text>
</a>
</g>
</g>
<!-- Node5&#45;&gt;Node12 -->
<g id="edge11_Node000005_Node000012" class="edge">
<title>Node5&#45;&gt;Node12</title>
<g id="a_edge11_Node000005_Node000012"><a xlink:title=" ">
<path fill="none" stroke="#63b8ff" d="M867.14,-337.21C846.72,-319.65 815.82,-295.57 785,-281 777.04,-277.24 768.42,-274.01 759.73,-271.27"/>
<polygon fill="#63b8ff" stroke="#63b8ff" points="864.86,-339.86 874.69,-343.81 869.47,-334.6 864.86,-339.86"/>
</a>
</g>
</g>
<!-- Node10 -->
<g id="Node000010" class="node">
<title>Node10</title>
<g id="a_Node000010"><a xlink:href="classwmtk_1_1operations_1_1internal_1_1_collapse_alternate_facet_option_data.html#a2564580a95b48a8a56b05e9c59e5c495" target="_top" xlink:title=" ">
<polygon fill="white" stroke="#666666" points="558,-379.5 367,-379.5 367,-338.5 558,-338.5 558,-379.5"/>
<text text-anchor="start" x="375" y="-367.5" font-family="Helvetica,sans-Serif" font-size="10.00">wmtk::operations::internal</text>
<text text-anchor="start" x="375" y="-356.5" font-family="Helvetica,sans-Serif" font-size="10.00">::CollapseAlternateFacetOptionData</text>
<text text-anchor="middle" x="462.5" y="-345.5" font-family="Helvetica,sans-Serif" font-size="10.00">::map_dart_to_alt</text>
</a>
</g>
</g>
<!-- Node9&#45;&gt;Node10 -->
<g id="edge9_Node000009_Node000010" class="edge">
<title>Node9&#45;&gt;Node10</title>
<g id="a_edge9_Node000009_Node000010"><a xlink:title=" ">
<path fill="none" stroke="#63b8ff" d="M583.47,-359C575.03,-359 566.53,-359 558.16,-359"/>
<polygon fill="#63b8ff" stroke="#63b8ff" points="583.73,-362.5 593.73,-359 583.73,-355.5 583.73,-362.5"/>
</a>
</g>
</g>
<!-- Node14 -->
<g id="Node000014" class="node">
<title>Node14</title>
<g id="a_Node000014"><a xlink:href="namespacewmtk_1_1dart_1_1utils.html#aa7884681cab6b16b5eceb3289b679253" target="_top" xlink:title=" ">
<polygon fill="white" stroke="#666666" points="957.5,-153 826.5,-153 826.5,-123 957.5,-123 957.5,-153"/>
<text text-anchor="start" x="834.5" y="-141" font-family="Helvetica,sans-Serif" font-size="10.00">wmtk::dart::utils::</text>
<text text-anchor="middle" x="892" y="-130" font-family="Helvetica,sans-Serif" font-size="10.00">get_simplex_involution</text>
</a>
</g>
</g>
<!-- Node13&#45;&gt;Node14 -->
<g id="edge13_Node000013_Node000014" class="edge">
<title>Node13&#45;&gt;Node14</title>
<g id="a_edge13_Node000013_Node000014"><a xlink:title=" ">
<path fill="none" stroke="#63b8ff" d="M994.29,-157.57C982.07,-155.21 969.49,-152.78 957.53,-150.47"/>
<polygon fill="#63b8ff" stroke="#63b8ff" points="993.98,-161.07 1004.46,-159.53 995.31,-154.2 993.98,-161.07"/>
</a>
</g>
</g>
<!-- Node15 -->
<g id="Node000015" class="node">
<title>Node15</title>
<g id="a_Node000015"><a xlink:href="classwmtk_1_1dart_1_1_dart_topology_accessor.html#ac79e08ea187ee2465c1755cc4e7526cf" target="_top" xlink:title=" ">
<polygon fill="white" stroke="#666666" points="532.5,-130 392.5,-130 392.5,-100 532.5,-100 532.5,-130"/>
<text text-anchor="start" x="400.5" y="-118" font-family="Helvetica,sans-Serif" font-size="10.00">wmtk::dart::DartTopology</text>
<text text-anchor="middle" x="462.5" y="-107" font-family="Helvetica,sans-Serif" font-size="10.00">Accessor::fuse</text>
</a>
</g>
</g>
<!-- Node14&#45;&gt;Node15 -->
<g id="edge14_Node000014_Node000015" class="edge">
<title>Node14&#45;&gt;Node15</title>
<g id="a_edge14_Node000014_Node000015"><a xlink:title=" ">
<path fill="none" stroke="#63b8ff" d="M861.86,-158.78C841.43,-172.03 812.89,-187.98 785,-195 702.68,-215.73 675.7,-218.05 594,-195 549.24,-182.37 504.69,-149.63 480.98,-130.17"/>
<polygon fill="#63b8ff" stroke="#63b8ff" points="863.98,-161.58 870.37,-153.12 860.1,-155.75 863.98,-161.58"/>
</a>
</g>
</g>
<!-- Node18 -->
<g id="Node000018" class="node">
<title>Node18</title>
<g id="a_Node000018"><a xlink:href="classwmtk_1_1operations_1_1internal_1_1_collapse_alternate_facet_option_data.html#a363fb2114790d2591c476c3910c298c3" target="_top" xlink:title=" ">
<polygon fill="white" stroke="#666666" points="785,-185.5 594,-185.5 594,-144.5 785,-144.5 785,-185.5"/>
<text text-anchor="start" x="602" y="-173.5" font-family="Helvetica,sans-Serif" font-size="10.00">wmtk::operations::internal</text>
<text text-anchor="start" x="602" y="-162.5" font-family="Helvetica,sans-Serif" font-size="10.00">::CollapseAlternateFacetOptionData</text>
<text text-anchor="middle" x="689.5" y="-151.5" font-family="Helvetica,sans-Serif" font-size="10.00">::get_neighbor_action</text>
</a>
</g>
</g>
<!-- Node14&#45;&gt;Node18 -->
<g id="edge17_Node000014_Node000018" class="edge">
<title>Node14&#45;&gt;Node18</title>
<g id="a_edge17_Node000014_Node000018"><a xlink:title=" ">
<path fill="none" stroke="#63b8ff" d="M816.42,-148.04C806.25,-149.41 795.69,-150.83 785.22,-152.25"/>
<polygon fill="#63b8ff" stroke="#63b8ff" points="817.01,-151.49 826.46,-146.69 816.08,-144.56 817.01,-151.49"/>
</a>
</g>
</g>
<!-- Node19 -->
<g id="Node000019" class="node">
<title>Node19</title>
<g id="a_Node000019"><a xlink:href="namespacewmtk_1_1dart_1_1utils.html#a2249e556e353c807df88c2daa17aa6c1" target="_top" xlink:title=" ">
<polygon fill="white" stroke="#666666" points="755,-126 624,-126 624,-96 755,-96 755,-126"/>
<text text-anchor="start" x="632" y="-114" font-family="Helvetica,sans-Serif" font-size="10.00">wmtk::dart::utils::</text>
<text text-anchor="middle" x="689.5" y="-103" font-family="Helvetica,sans-Serif" font-size="10.00">get_simplex_involution</text>
</a>
</g>
</g>
<!-- Node14&#45;&gt;Node19 -->
<g id="edge18_Node000014_Node000019" class="edge">
<title>Node14&#45;&gt;Node19</title>
<g id="a_edge18_Node000014_Node000019"><a xlink:title=" ">
<path fill="none" stroke="#63b8ff" d="M816.42,-127.96C796.33,-125.25 774.77,-122.35 755.27,-119.72"/>
<polygon fill="#63b8ff" stroke="#63b8ff" points="816.08,-131.44 826.46,-129.31 817.01,-124.51 816.08,-131.44"/>
</a>
</g>
</g>
<!-- Node20 -->
<g id="Node000020" class="node">
<title>Node20</title>
<g id="a_Node000020"><a xlink:href="namespacewmtk_1_1dart_1_1utils.html#aabd873fac842193741d6ae0cf2e62cbc" target="_top" xlink:title=" ">
<polygon fill="white" stroke="#666666" points="767,-78 612,-78 612,-48 767,-48 767,-78"/>
<text text-anchor="start" x="620" y="-66" font-family="Helvetica,sans-Serif" font-size="10.00">wmtk::dart::utils::</text>
<text text-anchor="middle" x="689.5" y="-55" font-family="Helvetica,sans-Serif" font-size="10.00">get_simplex_involution_pair</text>
</a>
</g>
</g>
<!-- Node14&#45;&gt;Node20 -->
<g id="edge19_Node000014_Node000020" class="edge">
<title>Node14&#45;&gt;Node20</title>
<g id="a_edge19_Node000014_Node000020"><a xlink:title=" ">
<path fill="none" stroke="#63b8ff" d="M854.23,-118.07C834.19,-107.78 808.69,-95.61 785,-87 776.01,-83.73 766.39,-80.74 756.85,-78.06"/>
<polygon fill="#63b8ff" stroke="#63b8ff" points="852.83,-121.28 863.32,-122.79 856.06,-115.07 852.83,-121.28"/>
</a>
</g>
</g>
<!-- Node21 -->
<g id="Node000021" class="node">
<title>Node21</title>
<g id="a_Node000021"><a xlink:href="namespacewmtk_1_1dart_1_1utils.html#a065ebaae25bcab945f1dd46a8a744db7" target="_top" xlink:title=" ">
<polygon fill="white" stroke="#666666" points="767,-30 612,-30 612,0 767,0 767,-30"/>
<text text-anchor="start" x="620" y="-18" font-family="Helvetica,sans-Serif" font-size="10.00">wmtk::dart::utils::</text>
<text text-anchor="middle" x="689.5" y="-7" font-family="Helvetica,sans-Serif" font-size="10.00">get_simplex_involution_pair</text>
</a>
</g>
</g>
<!-- Node14&#45;&gt;Node21 -->
<g id="edge20_Node000014_Node000021" class="edge">
<title>Node14&#45;&gt;Node21</title>
<g id="a_edge20_Node000014_Node000021"><a xlink:title=" ">
<path fill="none" stroke="#63b8ff" d="M872.49,-114.96C853.05,-92.29 820.43,-58.35 785,-39 778.76,-35.59 772.03,-32.66 765.12,-30.13"/>
<polygon fill="#63b8ff" stroke="#63b8ff" points="869.93,-117.34 879.04,-122.75 875.29,-112.84 869.93,-117.34"/>
</a>
</g>
</g>
<!-- Node16 -->
<g id="Node000016" class="node">
<title>Node16</title>
<g id="a_Node000016"><a xlink:href="classwmtk_1_1dart_1_1_dart_topology_accessor.html#a3e3e91d4b9c8a52353cbf60b10b2830b" target="_top" xlink:title=" ">
<polygon fill="white" stroke="#666666" points="331,-130 191,-130 191,-100 331,-100 331,-130"/>
<text text-anchor="start" x="199" y="-118" font-family="Helvetica,sans-Serif" font-size="10.00">wmtk::dart::DartTopology</text>
<text text-anchor="middle" x="261" y="-107" font-family="Helvetica,sans-Serif" font-size="10.00">Accessor::populate</text>
</a>
</g>
</g>
<!-- Node15&#45;&gt;Node16 -->
<g id="edge15_Node000015_Node000016" class="edge">
<title>Node15&#45;&gt;Node16</title>
<g id="a_edge15_Node000015_Node000016"><a xlink:title=" ">
<path fill="none" stroke="#63b8ff" d="M381.93,-115C365.11,-115 347.49,-115 331.09,-115"/>
<polygon fill="#63b8ff" stroke="#63b8ff" points="382.28,-118.5 392.28,-115 382.28,-111.5 382.28,-118.5"/>
</a>
</g>
</g>
<!-- Node17 -->
<g id="Node000017" class="node">
<title>Node17</title>
<g id="a_Node000017"><a xlink:href="classwmtk_1_1dart_1_1_dart_topology_accessor.html#ad3e9dba0cf529c970de42361019bec19" target="_top" xlink:title=" ">
<polygon fill="white" stroke="#666666" points="155,-135.5 0,-135.5 0,-94.5 155,-94.5 155,-135.5"/>
<text text-anchor="start" x="8" y="-123.5" font-family="Helvetica,sans-Serif" font-size="10.00">wmtk::dart::DartTopology</text>
<text text-anchor="start" x="8" y="-112.5" font-family="Helvetica,sans-Serif" font-size="10.00">Accessor::register_boundary</text>
<text text-anchor="middle" x="77.5" y="-101.5" font-family="Helvetica,sans-Serif" font-size="10.00">_topology_attribute</text>
</a>
</g>
</g>
<!-- Node16&#45;&gt;Node17 -->
<g id="edge16_Node000016_Node000017" class="edge">
<title>Node16&#45;&gt;Node17</title>
<g id="a_edge16_Node000016_Node000017"><a xlink:title=" ">
<path fill="none" stroke="#63b8ff" d="M180.59,-115C172.1,-115 163.47,-115 155.02,-115"/>
<polygon fill="#63b8ff" stroke="#63b8ff" points="180.86,-118.5 190.86,-115 180.86,-111.5 180.86,-118.5"/>
</a>
</g>
</g>
<!-- Node21&#45;&gt;Node15 -->
<g id="edge21_Node000021_Node000015" class="edge">
<title>Node21&#45;&gt;Node15</title>
<g id="a_edge21_Node000021_Node000015"><a xlink:title=" ">
<path fill="none" stroke="#63b8ff" d="M609.98,-33.13C604.52,-34.94 599.14,-36.9 594,-39 553.47,-55.57 510.28,-82.86 485.16,-99.84"/>
<polygon fill="#63b8ff" stroke="#63b8ff" points="611.4,-36.35 619.89,-30.01 609.3,-29.67 611.4,-36.35"/>
</a>
</g>
</g>
</g>
</svg>

<g id="navigator" transform="translate(0 0)" fill="#404254">
  <rect fill="#f2f5e9" fill-opacity="0.5" stroke="#606060" stroke-width=".5" x="0" y="0" width="60" height="60"/>
  <use id="zoomplus" xlink:href="#zoomPlus" x="17" y="9" onmousedown="handleZoom(evt,'in')"/>
  <use id="zoomminus" xlink:href="#zoomMin" x="42" y="9" onmousedown="handleZoom(evt,'out')"/>
  <use id="reset" xlink:href="#resetDef" x="30" y="36" onmousedown="handleReset()"/>
   <use id="arrowup" xlink:href="#arrowUp" x="0" y="0" onmousedown="handlePan(0,-1)"/>
  <use id="arrowright" xlink:href="#arrowRight" x="0" y="0" onmousedown="handlePan(1,0)"/>
  <use id="arrowdown" xlink:href="#arrowDown" x="0" y="0" onmousedown="handlePan(0,1)"/>
  <use id="arrowleft" xlink:href="#arrowLeft" x="0" y="0" onmousedown="handlePan(-1,0)"/>
</g>
<svg viewBox="0 0 15 15" width="100%" height="30px" preserveAspectRatio="xMaxYMin meet">
 <g id="arrow_out" transform="scale(0.3 0.3)">
  <a xlink:href="namespacewmtk_1_1dart_1_1utils_a0d0527148877095547bcad7f543c6840_icgraph_org.svg" target="_base">
   <rect id="button" ry="5" rx="5" y="6" x="6" height="38" width="38"
        fill="#f2f5e9" fill-opacity="0.5" stroke="#606060" stroke-width="1.0"/>
   <path id="arrow"
     d="M 11.500037,31.436501 C 11.940474,20.09759 22.043105,11.32322 32.158766,21.979434 L 37.068811,17.246167 C 37.068811,17.246167 37.088388,32 37.088388,32 L 22.160133,31.978069 C 22.160133,31.978069 26.997745,27.140456 26.997745,27.140456 C 18.528582,18.264221 13.291696,25.230495 11.500037,31.436501 z"
     style="fill:#404040;"/>
  </a>
 </g>
</svg>

<style type='text/css'>
<![CDATA[
[data-mouse-over-selected='false'] { opacity: 0.7; }
[data-mouse-over-selected='true']  { opacity: 1.0; }
]]>
</style>
<script type="application/ecmascript"><![CDATA[
document.addEventListener('DOMContentLoaded', (event) => {
  highlightEdges();
  highlightAdjacentNodes();
});
]]></script>
</svg>
