<?xml version="1.0" encoding="UTF-8" standalone="no"?>
<!DOCTYPE svg PUBLIC "-//W3C//DTD SVG 1.1//EN"
 "http://www.w3.org/Graphics/SVG/1.1/DTD/svg11.dtd">
<!-- Generated by graphviz version 2.43.0 (0)
 -->
<!-- Title: wmtk::primitive_type_name Pages: 1 -->
<!--zoomable 893 -->

<svg id="main" version="1.1" xmlns="http://www.w3.org/2000/svg" xmlns:xlink="http://www.w3.org/1999/xlink" xml:space="preserve" onload="init(evt)">
<style type="text/css"><![CDATA[
.node, .edge {opacity: 0.7;}
.node.selected, .edge.selected {opacity: 1;}
.edge:hover path { stroke: red; }
.edge:hover polygon { stroke: red; fill: red; }
]]></style>

<defs>
  <circle id="rim" cx="0" cy="0" r="7"/>
  <circle id="rim2" cx="0" cy="0" r="3.5"/>
  <g id="zoomPlus">
    <use xlink:href="#rim" fill="#404040"><set attributeName="fill" to="#808080" begin="zoomplus.mouseover" end="zoomplus.mouseout"/></use>
    <path d="M-4,0h8M0,-4v8" fill="none" stroke="white" stroke-width="1.5" pointer-events="none"/>
  </g>
  <g id="zoomMin">
    <use xlink:href="#rim" fill="#404040"><set attributeName="fill" to="#808080" begin="zoomminus.mouseover" end="zoomminus.mouseout"/></use>
    <path d="M-4,0h8" fill="none" stroke="white" stroke-width="1.5" pointer-events="none"/>
  </g>
  <g id="arrowUp" transform="translate(30 24)">
    <use xlink:href="#rim"/>
    <path pointer-events="none" fill="none" stroke="white" stroke-width="1.5" d="M0,-3.0v7 M-2.5,-0.5L0,-3.0L2.5,-0.5"/>
  </g>
  <g id="arrowRight" transform="rotate(90) translate(36 -43)">
    <use xlink:href="#rim"/>
    <path pointer-events="none" fill="none" stroke="white" stroke-width="1.5" d="M0,-3.0v7 M-2.5,-0.5L0,-3.0L2.5,-0.5"/>
  </g>
  <g id="arrowDown" transform="rotate(180) translate(-30 -48)">
    <use xlink:href="#rim"/>
    <path pointer-events="none" fill="none" stroke="white" stroke-width="1.5" d="M0,-3.0v7 M-2.5,-0.5L0,-3.0L2.5,-0.5"/>
  </g>
  <g id="arrowLeft" transform="rotate(270) translate(-36 17)">
    <use xlink:href="#rim"/>
    <path pointer-events="none" fill="none" stroke="white" stroke-width="1.5" d="M0,-3.0v7 M-2.5,-0.5L0,-3.0L2.5,-0.5"/>
  </g>
  <g id="resetDef">
    <use xlink:href="#rim2" fill="#404040"><set attributeName="fill" to="#808080" begin="reset.mouseover" end="reset.mouseout"/></use>
  </g>
</defs>
<script type="application/ecmascript">
var viewWidth = 1461;
var viewHeight = 893;
var sectionId = 'dynsection-14';
</script>
<script type="application/ecmascript" xlink:href="svg.min.js"/>
<svg id="graph" class="graph">
<g id="viewport">
<title>wmtk::primitive_type_name</title>
<!-- Node1 -->
<g id="Node000001" class="node">
<title>Node1</title>
<g id="a_Node000001"><a xlink:title=" ">
<polygon fill="#999999" stroke="#666666" points="1453,-455 1298,-455 1298,-436 1453,-436 1453,-455"/>
<text text-anchor="middle" x="1375.5" y="-443" font-family="Helvetica,sans-Serif" font-size="10.00">wmtk::primitive_type_name</text>
</a>
</g>
</g>
<!-- Node2 -->
<g id="Node000002" class="node">
<title>Node2</title>
<g id="a_Node000002"><a xlink:href="classwmtk_1_1operations_1_1_operation.html#af181d255eb0ef5297646e0dc9dc817a7" target="_top" xlink:title=" ">
<polygon fill="white" stroke="#666666" points="385.5,-847.5 229.5,-847.5 229.5,-817.5 385.5,-817.5 385.5,-847.5"/>
<text text-anchor="start" x="237.5" y="-835.5" font-family="Helvetica,sans-Serif" font-size="10.00">wmtk::operations::Operation</text>
<text text-anchor="middle" x="307.5" y="-824.5" font-family="Helvetica,sans-Serif" font-size="10.00">::apply_attribute_transfer</text>
</a>
</g>
</g>
<!-- Node1&#45;&gt;Node2 -->
<g id="edge1_Node000001_Node000002" class="edge">
<title>Node1&#45;&gt;Node2</title>
<g id="a_edge1_Node000001_Node000002"><a xlink:title=" ">
<path fill="none" stroke="#63b8ff" d="M1374.93,-465.4C1375.09,-526.77 1366.64,-714.43 1262,-806.5 1158.15,-897.87 1093.82,-860.5 955.5,-860.5 955.5,-860.5 955.5,-860.5 745,-860.5 618.94,-860.5 472.83,-848.73 385.68,-840.45"/>
<polygon fill="#63b8ff" stroke="#63b8ff" points="1378.43,-465.13 1374.82,-455.17 1371.43,-465.21 1378.43,-465.13"/>
</a>
</g>
</g>
<!-- Node5 -->
<g id="Node000005" class="node">
<title>Node5</title>
<g id="a_Node000005"><a xlink:href="classwmtk_1_1multimesh_1_1utils_1_1_map_validator.html#a3904ef0aa73b2aa3b9f6c054686bf17f" target="_top" xlink:title=" ">
<polygon fill="white" stroke="#666666" points="1254.5,-797 1090.5,-797 1090.5,-756 1254.5,-756 1254.5,-797"/>
<text text-anchor="start" x="1098.5" y="-785" font-family="Helvetica,sans-Serif" font-size="10.00">wmtk::multimesh::utils</text>
<text text-anchor="start" x="1098.5" y="-774" font-family="Helvetica,sans-Serif" font-size="10.00">::MapValidator::check</text>
<text text-anchor="middle" x="1172.5" y="-763" font-family="Helvetica,sans-Serif" font-size="10.00">_child_switch_homomorphism</text>
</a>
</g>
</g>
<!-- Node1&#45;&gt;Node5 -->
<g id="edge4_Node000001_Node000005" class="edge">
<title>Node1&#45;&gt;Node5</title>
<g id="a_edge4_Node000001_Node000005"><a xlink:title=" ">
<path fill="none" stroke="#63b8ff" d="M1370.53,-465.19C1360.06,-513.01 1327.9,-637.24 1262,-717.5 1249.23,-733.06 1231.29,-746.06 1214.9,-755.87"/>
<polygon fill="#63b8ff" stroke="#63b8ff" points="1373.99,-465.73 1372.63,-455.22 1367.14,-464.29 1373.99,-465.73"/>
</a>
</g>
</g>
<!-- Node9 -->
<g id="Node000009" class="node">
<title>Node9</title>
<g id="a_Node000009"><a xlink:href="classwmtk_1_1multimesh_1_1_multi_mesh_manager.html#acdb4b40cd46568fbd0b325c63c7b9287" target="_top" xlink:title=" ">
<polygon fill="white" stroke="#666666" points="1253.5,-708.5 1091.5,-708.5 1091.5,-678.5 1253.5,-678.5 1253.5,-708.5"/>
<text text-anchor="start" x="1099.5" y="-696.5" font-family="Helvetica,sans-Serif" font-size="10.00">wmtk::multimesh::MultiMesh</text>
<text text-anchor="middle" x="1172.5" y="-685.5" font-family="Helvetica,sans-Serif" font-size="10.00">Manager::find_tuple_from_gid</text>
</a>
</g>
</g>
<!-- Node1&#45;&gt;Node9 -->
<g id="edge9_Node000001_Node000009" class="edge">
<title>Node1&#45;&gt;Node9</title>
<g id="a_edge9_Node000001_Node000009"><a xlink:title=" ">
<path fill="none" stroke="#63b8ff" d="M1369.91,-464.9C1358.86,-507.37 1326.77,-609.23 1262,-664.5 1255.36,-670.17 1247.58,-674.73 1239.44,-678.41"/>
<polygon fill="#63b8ff" stroke="#63b8ff" points="1373.35,-465.56 1372.38,-455.01 1366.56,-463.86 1373.35,-465.56"/>
</a>
</g>
</g>
<!-- Node12 -->
<g id="Node000012" class="node">
<title>Node12</title>
<g id="a_Node000012"><a xlink:href="classwmtk_1_1multimesh_1_1_multi_mesh_manager.html#a976fa18136619f216426b4fdbeabac38" target="_top" xlink:title=" ">
<polygon fill="white" stroke="#666666" points="630,-715.5 434,-715.5 434,-685.5 630,-685.5 630,-715.5"/>
<text text-anchor="start" x="442" y="-703.5" font-family="Helvetica,sans-Serif" font-size="10.00">wmtk::multimesh::MultiMesh</text>
<text text-anchor="middle" x="532" y="-692.5" font-family="Helvetica,sans-Serif" font-size="10.00">Manager::update_map_tuple_hashes</text>
</a>
</g>
</g>
<!-- Node1&#45;&gt;Node12 -->
<g id="edge43_Node000001_Node000012" class="edge">
<title>Node1&#45;&gt;Node12</title>
<g id="a_edge43_Node000001_Node000012"><a xlink:title=" ">
<path fill="none" stroke="#63b8ff" d="M1369.11,-465.12C1357.18,-504.39 1324.52,-592.25 1262,-631.5 1235.62,-648.06 822.31,-679.71 630.02,-693.63"/>
<polygon fill="#63b8ff" stroke="#63b8ff" points="1372.5,-465.99 1371.93,-455.41 1365.78,-464.03 1372.5,-465.99"/>
</a>
</g>
</g>
<!-- Node17 -->
<g id="Node000017" class="node">
<title>Node17</title>
<g id="a_Node000017"><a xlink:href="namespacewmtk_1_1components_1_1multimesh_1_1utils_1_1detail.html#a3af4d07563c7b99c024e49b7d76ec3ca" target="_top" xlink:title=" ">
<polygon fill="white" stroke="#666666" points="1257,-622.5 1088,-622.5 1088,-592.5 1257,-592.5 1257,-622.5"/>
<text text-anchor="start" x="1096" y="-610.5" font-family="Helvetica,sans-Serif" font-size="10.00">wmtk::components::multimesh</text>
<text text-anchor="middle" x="1172.5" y="-599.5" font-family="Helvetica,sans-Serif" font-size="10.00">::utils::detail::get_attribute</text>
</a>
</g>
</g>
<!-- Node1&#45;&gt;Node17 -->
<g id="edge19_Node000001_Node000017" class="edge">
<title>Node1&#45;&gt;Node17</title>
<g id="a_edge19_Node000001_Node000017"><a xlink:title=" ">
<path fill="none" stroke="#63b8ff" d="M1364.43,-464.23C1347.39,-494.11 1309.98,-552.35 1262,-583.5 1256.66,-586.97 1250.83,-589.94 1244.79,-592.48"/>
<polygon fill="#63b8ff" stroke="#63b8ff" points="1367.61,-465.71 1369.41,-455.27 1361.5,-462.31 1367.61,-465.71"/>
</a>
</g>
</g>
<!-- Node18 -->
<g id="Node000018" class="node">
<title>Node18</title>
<g id="a_Node000018"><a xlink:href="classwmtk_1_1utils_1_1_eigen_matrix_writer.html#a167599848b33f3679d042c12e6bcac92" target="_top" xlink:title=" ">
<polygon fill="white" stroke="#666666" points="1240.5,-574.5 1104.5,-574.5 1104.5,-544.5 1240.5,-544.5 1240.5,-574.5"/>
<text text-anchor="start" x="1112.5" y="-562.5" font-family="Helvetica,sans-Serif" font-size="10.00">wmtk::utils::EigenMatrix</text>
<text text-anchor="middle" x="1172.5" y="-551.5" font-family="Helvetica,sans-Serif" font-size="10.00">Writer::get_matrix</text>
</a>
</g>
</g>
<!-- Node1&#45;&gt;Node18 -->
<g id="edge20_Node000001_Node000018" class="edge">
<title>Node1&#45;&gt;Node18</title>
<g id="a_edge20_Node000001_Node000018"><a xlink:title=" ">
<path fill="none" stroke="#63b8ff" d="M1357.92,-462.49C1337.25,-482.73 1300,-516.21 1262,-535.5 1255.33,-538.89 1248.12,-541.84 1240.81,-544.4"/>
<polygon fill="#63b8ff" stroke="#63b8ff" points="1360.62,-464.74 1365.23,-455.2 1355.68,-459.78 1360.62,-464.74"/>
</a>
</g>
</g>
<!-- Node19 -->
<g id="Node000019" class="node">
<title>Node19</title>
<g id="a_Node000019"><a xlink:href="namespacewmtk_1_1dart_1_1utils.html#a50fa2050fcefc95e346f6dc4f8766447" target="_top" xlink:title=" ">
<polygon fill="white" stroke="#666666" points="1257,-526.5 1088,-526.5 1088,-496.5 1257,-496.5 1257,-526.5"/>
<text text-anchor="start" x="1096" y="-514.5" font-family="Helvetica,sans-Serif" font-size="10.00">wmtk::dart::utils::</text>
<text text-anchor="middle" x="1172.5" y="-503.5" font-family="Helvetica,sans-Serif" font-size="10.00">indexed_topology_initialization</text>
</a>
</g>
</g>
<!-- Node1&#45;&gt;Node19 -->
<g id="edge21_Node000001_Node000019" class="edge">
<title>Node1&#45;&gt;Node19</title>
<g id="a_edge21_Node000001_Node000019"><a xlink:title=" ">
<path fill="none" stroke="#63b8ff" d="M1341.26,-458.83C1319.01,-467.53 1288.97,-478.83 1262,-487.5 1252.45,-490.57 1242.24,-493.58 1232.28,-496.38"/>
<polygon fill="#63b8ff" stroke="#63b8ff" points="1342.56,-462.08 1350.59,-455.16 1340,-455.57 1342.56,-462.08"/>
</a>
</g>
</g>
<!-- Node20 -->
<g id="Node000020" class="node">
<title>Node20</title>
<g id="a_Node000020"><a xlink:href="namespacewmtk_1_1components_1_1longest__edge__split.html#a0be451c677a35037d6e49f97356604cb" target="_top" xlink:title="Perform longes&#45;edge split on a mesh.">
<polygon fill="white" stroke="#666666" points="1257.5,-460.5 1087.5,-460.5 1087.5,-430.5 1257.5,-430.5 1257.5,-460.5"/>
<text text-anchor="start" x="1095.5" y="-448.5" font-family="Helvetica,sans-Serif" font-size="10.00">wmtk::components::longest</text>
<text text-anchor="middle" x="1172.5" y="-437.5" font-family="Helvetica,sans-Serif" font-size="10.00">_edge_split::longest_edge_split</text>
</a>
</g>
</g>
<!-- Node1&#45;&gt;Node20 -->
<g id="edge22_Node000001_Node000020" class="edge">
<title>Node1&#45;&gt;Node20</title>
<g id="a_edge22_Node000001_Node000020"><a xlink:title=" ">
<path fill="none" stroke="#63b8ff" d="M1287.63,-445.5C1277.65,-445.5 1267.5,-445.5 1257.56,-445.5"/>
<polygon fill="#63b8ff" stroke="#63b8ff" points="1287.94,-449 1297.94,-445.5 1287.94,-442 1287.94,-449"/>
</a>
</g>
</g>
<!-- Node22 -->
<g id="Node000022" class="node">
<title>Node22</title>
<g id="a_Node000022"><a xlink:href="classwmtk_1_1invariants_1_1_interior_simplex_invariant.html#a40561daf46c15e991183908fd41e8a90" target="_top" xlink:title=" ">
<polygon fill="white" stroke="#666666" points="1242.5,-412.5 1102.5,-412.5 1102.5,-382.5 1242.5,-382.5 1242.5,-412.5"/>
<text text-anchor="start" x="1110.5" y="-400.5" font-family="Helvetica,sans-Serif" font-size="10.00">wmtk::invariants::Interior</text>
<text text-anchor="middle" x="1172.5" y="-389.5" font-family="Helvetica,sans-Serif" font-size="10.00">SimplexInvariant::name</text>
</a>
</g>
</g>
<!-- Node1&#45;&gt;Node22 -->
<g id="edge25_Node000001_Node000022" class="edge">
<title>Node1&#45;&gt;Node22</title>
<g id="a_edge25_Node000001_Node000022"><a xlink:title=" ">
<path fill="none" stroke="#63b8ff" d="M1324.45,-433.55C1297.86,-427.2 1264.9,-419.33 1236.58,-412.56"/>
<polygon fill="#63b8ff" stroke="#63b8ff" points="1323.77,-436.98 1334.31,-435.9 1325.39,-430.17 1323.77,-436.98"/>
</a>
</g>
</g>
<!-- Node23 -->
<g id="Node000023" class="node">
<title>Node23</title>
<g id="a_Node000023"><a xlink:href="classwmtk_1_1attribute_1_1_typed_attribute_handle.html#abb7e339212d42fd0111f740b003aeb77" target="_top" xlink:title=" ">
<polygon fill="white" stroke="#666666" points="1257.5,-364.5 1087.5,-364.5 1087.5,-334.5 1257.5,-334.5 1257.5,-364.5"/>
<text text-anchor="start" x="1095.5" y="-352.5" font-family="Helvetica,sans-Serif" font-size="10.00">wmtk::attribute::TypedAttribute</text>
<text text-anchor="middle" x="1172.5" y="-341.5" font-family="Helvetica,sans-Serif" font-size="10.00">Handle::string</text>
</a>
</g>
</g>
<!-- Node1&#45;&gt;Node23 -->
<g id="edge26_Node000001_Node000023" class="edge">
<title>Node1&#45;&gt;Node23</title>
<g id="a_edge26_Node000001_Node000023"><a xlink:title=" ">
<path fill="none" stroke="#63b8ff" d="M1354.27,-429.84C1332.54,-413.69 1296.47,-388.77 1262,-373.5 1254.43,-370.15 1246.29,-367.17 1238.11,-364.54"/>
<polygon fill="#63b8ff" stroke="#63b8ff" points="1352.3,-432.74 1362.39,-435.97 1356.51,-427.15 1352.3,-432.74"/>
</a>
</g>
</g>
<!-- Node24 -->
<g id="Node000024" class="node">
<title>Node24</title>
<g id="a_Node000024"><a xlink:href="classwmtk_1_1simplex_1_1_id_simplex.html#a4d37fa8afc1584eede31ac9dad185d6a" target="_top" xlink:title=" ">
<polygon fill="white" stroke="#666666" points="1244.5,-316.5 1100.5,-316.5 1100.5,-286.5 1244.5,-286.5 1244.5,-316.5"/>
<text text-anchor="start" x="1108.5" y="-304.5" font-family="Helvetica,sans-Serif" font-size="10.00">wmtk::simplex::IdSimplex</text>
<text text-anchor="middle" x="1172.5" y="-293.5" font-family="Helvetica,sans-Serif" font-size="10.00">::string</text>
</a>
</g>
</g>
<!-- Node1&#45;&gt;Node24 -->
<g id="edge27_Node000001_Node000024" class="edge">
<title>Node1&#45;&gt;Node24</title>
<g id="a_edge27_Node000001_Node000024"><a xlink:title=" ">
<path fill="none" stroke="#63b8ff" d="M1362.5,-427.36C1344.07,-400.93 1306.23,-352.08 1262,-325.5 1256.27,-322.06 1250.04,-319.09 1243.62,-316.55"/>
<polygon fill="#63b8ff" stroke="#63b8ff" points="1359.67,-429.41 1368.19,-435.7 1365.45,-425.47 1359.67,-429.41"/>
</a>
</g>
</g>
<!-- Node25 -->
<g id="Node000025" class="node">
<title>Node25</title>
<g id="a_Node000025"><a xlink:href="classwmtk_1_1dart_1_1_dart_accessor.html#a3e780322e722bc1a83c53095e296378e" target="_top" xlink:title=" ">
<polygon fill="white" stroke="#666666" points="1242.5,-268.5 1102.5,-268.5 1102.5,-238.5 1242.5,-238.5 1242.5,-268.5"/>
<text text-anchor="start" x="1110.5" y="-256.5" font-family="Helvetica,sans-Serif" font-size="10.00">wmtk::dart::DartAccessor</text>
<text text-anchor="middle" x="1172.5" y="-245.5" font-family="Helvetica,sans-Serif" font-size="10.00">::register_attribute</text>
</a>
</g>
</g>
<!-- Node1&#45;&gt;Node25 -->
<g id="edge28_Node000001_Node000025" class="edge">
<title>Node1&#45;&gt;Node25</title>
<g id="a_edge28_Node000001_Node000025"><a xlink:title=" ">
<path fill="none" stroke="#63b8ff" d="M1367.01,-426.19C1352.36,-391.05 1316.52,-316.65 1262,-277.5 1256.18,-273.32 1249.67,-269.87 1242.9,-267.02"/>
<polygon fill="#63b8ff" stroke="#63b8ff" points="1363.88,-427.79 1370.87,-435.76 1370.37,-425.17 1363.88,-427.79"/>
</a>
</g>
</g>
<!-- Node27 -->
<g id="Node000027" class="node">
<title>Node27</title>
<g id="a_Node000027"><a xlink:href="classwmtk_1_1_mesh.html#ac205d6addf4e76f000c70547253735f0" target="_top" xlink:title=" ">
<polygon fill="white" stroke="#666666" points="1232,-220.5 1113,-220.5 1113,-190.5 1232,-190.5 1232,-220.5"/>
<text text-anchor="start" x="1121" y="-208.5" font-family="Helvetica,sans-Serif" font-size="10.00">wmtk::Mesh::request</text>
<text text-anchor="middle" x="1172.5" y="-197.5" font-family="Helvetica,sans-Serif" font-size="10.00">_simplex_indices</text>
</a>
</g>
</g>
<!-- Node1&#45;&gt;Node27 -->
<g id="edge30_Node000001_Node000027" class="edge">
<title>Node1&#45;&gt;Node27</title>
<g id="a_edge30_Node000001_Node000027"><a xlink:title=" ">
<path fill="none" stroke="#63b8ff" d="M1370.03,-426.12C1359.23,-383.72 1327.61,-282.31 1262,-229.5 1253.32,-222.51 1242.77,-217.55 1232.02,-214.03"/>
<polygon fill="#63b8ff" stroke="#63b8ff" points="1366.67,-427.11 1372.44,-435.99 1373.47,-425.45 1366.67,-427.11"/>
</a>
</g>
</g>
<!-- Node36 -->
<g id="Node000036" class="node">
<title>Node36</title>
<g id="a_Node000036"><a xlink:href="namespacewmtk_1_1components_1_1shortest__edge__collapse.html#a13c53b8b70fc1b63e7bdb22318139dd9" target="_top" xlink:title="Perform shortest&#45;edge collapse on a triangular surface mesh.">
<polygon fill="white" stroke="#666666" points="1250.5,-154 1094.5,-154 1094.5,-113 1250.5,-113 1250.5,-154"/>
<text text-anchor="start" x="1102.5" y="-142" font-family="Helvetica,sans-Serif" font-size="10.00">wmtk::components::shortest</text>
<text text-anchor="start" x="1102.5" y="-131" font-family="Helvetica,sans-Serif" font-size="10.00">_edge_collapse::shortest</text>
<text text-anchor="middle" x="1172.5" y="-120" font-family="Helvetica,sans-Serif" font-size="10.00">_edge_collapse</text>
</a>
</g>
</g>
<!-- Node1&#45;&gt;Node36 -->
<g id="edge39_Node000001_Node000036" class="edge">
<title>Node1&#45;&gt;Node36</title>
<g id="a_edge39_Node000001_Node000036"><a xlink:title=" ">
<path fill="none" stroke="#63b8ff" d="M1370.81,-426C1360.99,-378.73 1330.14,-256.38 1262,-181.5 1251.88,-170.38 1238.58,-161.32 1225.36,-154.18"/>
<polygon fill="#63b8ff" stroke="#63b8ff" points="1367.39,-426.74 1372.78,-435.86 1374.26,-425.37 1367.39,-426.74"/>
</a>
</g>
</g>
<!-- Node38 -->
<g id="Node000038" class="node">
<title>Node38</title>
<g id="a_Node000038"><a xlink:href="classwmtk_1_1_tri_mesh_1_1_tri_mesh_operation_executor.html#ab7c2e31aeac6b8b9c55475675497ae77" target="_top" xlink:title=" ">
<polygon fill="white" stroke="#666666" points="1262,-94.5 1083,-94.5 1083,-64.5 1262,-64.5 1262,-94.5"/>
<text text-anchor="start" x="1091" y="-82.5" font-family="Helvetica,sans-Serif" font-size="10.00">wmtk::TriMesh::TriMeshOperation</text>
<text text-anchor="middle" x="1172.5" y="-71.5" font-family="Helvetica,sans-Serif" font-size="10.00">Executor::split_edge_precompute</text>
</a>
</g>
</g>
<!-- Node1&#45;&gt;Node38 -->
<g id="edge42_Node000001_Node000038" class="edge">
<title>Node1&#45;&gt;Node38</title>
<g id="a_edge42_Node000001_Node000038"><a xlink:title=" ">
<path fill="none" stroke="#63b8ff" d="M1374.16,-425.87C1372.06,-367.64 1357.67,-194.23 1262,-103.5 1258.42,-100.1 1254.41,-97.18 1250.12,-94.66"/>
<polygon fill="#63b8ff" stroke="#63b8ff" points="1370.67,-426.03 1374.44,-435.93 1377.66,-425.83 1370.67,-426.03"/>
</a>
</g>
</g>
<!-- Node3 -->
<g id="Node000003" class="node">
<title>Node3</title>
<g id="a_Node000003"><a xlink:href="classwmtk_1_1operations_1_1_operation.html#a9c6426d34b54642aacb28e7cf93e328f" target="_top" xlink:title=" ">
<polygon fill="white" stroke="#666666" points="168.5,-884.5 12.5,-884.5 12.5,-854.5 168.5,-854.5 168.5,-884.5"/>
<text text-anchor="start" x="20.5" y="-872.5" font-family="Helvetica,sans-Serif" font-size="10.00">wmtk::operations::Operation</text>
<text text-anchor="middle" x="90.5" y="-861.5" font-family="Helvetica,sans-Serif" font-size="10.00">::operator()</text>
</a>
</g>
</g>
<!-- Node2&#45;&gt;Node3 -->
<g id="edge2_Node000002_Node000003" class="edge">
<title>Node2&#45;&gt;Node3</title>
<g id="a_edge2_Node000002_Node000003"><a xlink:title=" ">
<path fill="none" stroke="#63b8ff" d="M219.18,-847.53C202.46,-850.4 185.07,-853.4 168.7,-856.21"/>
<polygon fill="#63b8ff" stroke="#63b8ff" points="220.23,-850.9 229.49,-845.75 219.04,-844 220.23,-850.9"/>
</a>
</g>
</g>
<!-- Node4 -->
<g id="Node000004" class="node">
<title>Node4</title>
<g id="a_Node000004"><a xlink:href="classwmtk_1_1operations_1_1_operation_sequence.html#a547ec2a6ed8a354eff76e733b2e7fb2c" target="_top" xlink:title=" ">
<polygon fill="white" stroke="#666666" points="168.5,-836.5 12.5,-836.5 12.5,-806.5 168.5,-806.5 168.5,-836.5"/>
<text text-anchor="start" x="20.5" y="-824.5" font-family="Helvetica,sans-Serif" font-size="10.00">wmtk::operations::Operation</text>
<text text-anchor="middle" x="90.5" y="-813.5" font-family="Helvetica,sans-Serif" font-size="10.00">Sequence::operator()</text>
</a>
</g>
</g>
<!-- Node2&#45;&gt;Node4 -->
<g id="edge3_Node000002_Node000004" class="edge">
<title>Node2&#45;&gt;Node4</title>
<g id="a_edge3_Node000002_Node000004"><a xlink:title=" ">
<path fill="none" stroke="#63b8ff" d="M219.18,-828.03C202.46,-827.18 185.07,-826.29 168.7,-825.45"/>
<polygon fill="#63b8ff" stroke="#63b8ff" points="219.32,-831.54 229.49,-828.56 219.68,-824.55 219.32,-831.54"/>
</a>
</g>
</g>
<!-- Node6 -->
<g id="Node000006" class="node">
<title>Node6</title>
<g id="a_Node000006"><a xlink:href="classwmtk_1_1multimesh_1_1utils_1_1_map_validator.html#a68f039afe0e44da9486a4d3c38cf5bea" target="_top" xlink:title=" ">
<polygon fill="white" stroke="#666666" points="1022.5,-825 886.5,-825 886.5,-784 1022.5,-784 1022.5,-825"/>
<text text-anchor="start" x="894.5" y="-813" font-family="Helvetica,sans-Serif" font-size="10.00">wmtk::multimesh::utils</text>
<text text-anchor="start" x="894.5" y="-802" font-family="Helvetica,sans-Serif" font-size="10.00">::MapValidator::check</text>
<text text-anchor="middle" x="954.5" y="-791" font-family="Helvetica,sans-Serif" font-size="10.00">_switch_homomorphism</text>
</a>
</g>
</g>
<!-- Node5&#45;&gt;Node6 -->
<g id="edge5_Node000005_Node000006" class="edge">
<title>Node5&#45;&gt;Node6</title>
<g id="a_edge5_Node000005_Node000006"><a xlink:title=" ">
<path fill="none" stroke="#63b8ff" d="M1080.39,-788.31C1060.99,-790.83 1040.84,-793.44 1022.54,-795.81"/>
<polygon fill="#63b8ff" stroke="#63b8ff" points="1080.99,-791.76 1090.46,-787.01 1080.09,-784.82 1080.99,-791.76"/>
</a>
</g>
</g>
<!-- Node7 -->
<g id="Node000007" class="node">
<title>Node7</title>
<g id="a_Node000007"><a xlink:href="classwmtk_1_1multimesh_1_1utils_1_1_map_validator.html#a7c91255f342becd3f24ffa7bbaebeb3d" target="_top" xlink:title=" ">
<polygon fill="white" stroke="#666666" points="815.5,-832.5 676.5,-832.5 676.5,-802.5 815.5,-802.5 815.5,-832.5"/>
<text text-anchor="start" x="684.5" y="-820.5" font-family="Helvetica,sans-Serif" font-size="10.00">wmtk::multimesh::utils</text>
<text text-anchor="middle" x="746" y="-809.5" font-family="Helvetica,sans-Serif" font-size="10.00">::MapValidator::check_all</text>
</a>
</g>
</g>
<!-- Node6&#45;&gt;Node7 -->
<g id="edge6_Node000006_Node000007" class="edge">
<title>Node6&#45;&gt;Node7</title>
<g id="a_edge6_Node000006_Node000007"><a xlink:title=" ">
<path fill="none" stroke="#63b8ff" d="M876.23,-809.36C856.4,-810.61 835.2,-811.95 815.83,-813.17"/>
<polygon fill="#63b8ff" stroke="#63b8ff" points="876.7,-812.84 886.46,-808.72 876.26,-805.86 876.7,-812.84"/>
</a>
</g>
</g>
<!-- Node8 -->
<g id="Node000008" class="node">
<title>Node8</title>
<g id="a_Node000008"><a xlink:href="namespacewmtk_1_1multimesh_1_1utils.html#abcc3f7f7a25879455cafc8a8f4304c4c" target="_top" xlink:title=" ">
<polygon fill="white" stroke="#666666" points="597,-832.5 467,-832.5 467,-802.5 597,-802.5 597,-832.5"/>
<text text-anchor="start" x="475" y="-820.5" font-family="Helvetica,sans-Serif" font-size="10.00">wmtk::multimesh::utils</text>
<text text-anchor="middle" x="532" y="-809.5" font-family="Helvetica,sans-Serif" font-size="10.00">::check_maps_valid</text>
</a>
</g>
</g>
<!-- Node7&#45;&gt;Node8 -->
<g id="edge7_Node000007_Node000008" class="edge">
<title>Node7&#45;&gt;Node8</title>
<g id="a_edge7_Node000007_Node000008"><a xlink:title=" ">
<path fill="none" stroke="#63b8ff" d="M666.18,-817.5C643.5,-817.5 619.04,-817.5 597.34,-817.5"/>
<polygon fill="#63b8ff" stroke="#63b8ff" points="666.46,-821 676.46,-817.5 666.46,-814 666.46,-821"/>
</a>
</g>
</g>
<!-- Node8&#45;&gt;Node2 -->
<g id="edge8_Node000008_Node000002" class="edge">
<title>Node8&#45;&gt;Node2</title>
<g id="a_edge8_Node000008_Node000002"><a xlink:title=" ">
<path fill="none" stroke="#63b8ff" d="M456.93,-822.49C433.98,-824.04 408.64,-825.75 385.5,-827.31"/>
<polygon fill="#63b8ff" stroke="#63b8ff" points="457.2,-825.98 466.94,-821.82 456.73,-819 457.2,-825.98"/>
</a>
</g>
</g>
<!-- Node10 -->
<g id="Node000010" class="node">
<title>Node10</title>
<g id="a_Node000010"><a xlink:href="classwmtk_1_1multimesh_1_1_multi_mesh_manager.html#a69b4eee8fb0793f1cda43777331dca1d" target="_top" xlink:title=" ">
<polygon fill="white" stroke="#666666" points="1034.5,-758 874.5,-758 874.5,-717 1034.5,-717 1034.5,-758"/>
<text text-anchor="start" x="882.5" y="-746" font-family="Helvetica,sans-Serif" font-size="10.00">wmtk::multimesh::MultiMesh</text>
<text text-anchor="start" x="882.5" y="-735" font-family="Helvetica,sans-Serif" font-size="10.00">Manager::find_valid_tuple</text>
<text text-anchor="middle" x="954.5" y="-724" font-family="Helvetica,sans-Serif" font-size="10.00">_from_split</text>
</a>
</g>
</g>
<!-- Node9&#45;&gt;Node10 -->
<g id="edge10_Node000009_Node000010" class="edge">
<title>Node9&#45;&gt;Node10</title>
<g id="a_edge10_Node000009_Node000010"><a xlink:title=" ">
<path fill="none" stroke="#63b8ff" d="M1087.65,-710.58C1070.27,-714.12 1052.02,-717.84 1034.81,-721.34"/>
<polygon fill="#63b8ff" stroke="#63b8ff" points="1088.67,-713.94 1097.77,-708.52 1087.27,-707.09 1088.67,-713.94"/>
</a>
</g>
</g>
<!-- Node9&#45;&gt;Node12 -->
<g id="edge18_Node000009_Node000012" class="edge">
<title>Node9&#45;&gt;Node12</title>
<g id="a_edge18_Node000009_Node000012"><a xlink:title=" ">
<path fill="none" stroke="#63b8ff" d="M1081.08,-694.49C961.79,-695.8 752.64,-698.09 630.1,-699.44"/>
<polygon fill="#63b8ff" stroke="#63b8ff" points="1081.32,-697.99 1091.28,-694.38 1081.24,-690.99 1081.32,-697.99"/>
</a>
</g>
</g>
<!-- Node11 -->
<g id="Node000011" class="node">
<title>Node11</title>
<g id="a_Node000011"><a xlink:href="classwmtk_1_1multimesh_1_1_multi_mesh_manager.html#a7b04e1919f12786a201f5dbffa5a290f" target="_top" xlink:title=" ">
<polygon fill="white" stroke="#666666" points="826,-784.5 666,-784.5 666,-754.5 826,-754.5 826,-784.5"/>
<text text-anchor="start" x="674" y="-772.5" font-family="Helvetica,sans-Serif" font-size="10.00">wmtk::multimesh::MultiMesh</text>
<text text-anchor="middle" x="746" y="-761.5" font-family="Helvetica,sans-Serif" font-size="10.00">Manager::find_valid_tuple</text>
</a>
</g>
</g>
<!-- Node10&#45;&gt;Node11 -->
<g id="edge11_Node000010_Node000011" class="edge">
<title>Node10&#45;&gt;Node11</title>
<g id="a_edge11_Node000010_Node000011"><a xlink:title=" ">
<path fill="none" stroke="#63b8ff" d="M864.16,-751.34C851.47,-753.31 838.5,-755.32 826.04,-757.25"/>
<polygon fill="#63b8ff" stroke="#63b8ff" points="864.91,-754.77 874.25,-749.78 863.83,-747.85 864.91,-754.77"/>
</a>
</g>
</g>
<!-- Node10&#45;&gt;Node12 -->
<g id="edge17_Node000010_Node000012" class="edge">
<title>Node10&#45;&gt;Node12</title>
<g id="a_edge17_Node000010_Node000012"><a xlink:title=" ">
<path fill="none" stroke="#63b8ff" d="M864.05,-729.63C795.39,-723.59 700.74,-715.26 630.22,-709.05"/>
<polygon fill="#63b8ff" stroke="#63b8ff" points="864.14,-733.15 874.41,-730.54 864.75,-726.18 864.14,-733.15"/>
</a>
</g>
</g>
<!-- Node11&#45;&gt;Node12 -->
<g id="edge12_Node000011_Node000012" class="edge">
<title>Node11&#45;&gt;Node12</title>
<g id="a_edge12_Node000011_Node000012"><a xlink:title=" ">
<path fill="none" stroke="#63b8ff" d="M688.88,-751.23C654.64,-740.09 611.41,-726.02 579.16,-715.52"/>
<polygon fill="#63b8ff" stroke="#63b8ff" points="688.15,-754.68 698.74,-754.44 690.31,-748.02 688.15,-754.68"/>
</a>
</g>
</g>
<!-- Node13 -->
<g id="Node000013" class="node">
<title>Node13</title>
<g id="a_Node000013"><a xlink:href="classwmtk_1_1operations_1_1utils_1_1_update_edge_operation_multi_mesh_map_functor.html#a0e68925616ea65b5fedbf614333658e5" target="_top" xlink:title=" ">
<polygon fill="white" stroke="#666666" points="398,-721 217,-721 217,-680 398,-680 398,-721"/>
<text text-anchor="start" x="225" y="-709" font-family="Helvetica,sans-Serif" font-size="10.00">wmtk::operations::utils</text>
<text text-anchor="start" x="225" y="-698" font-family="Helvetica,sans-Serif" font-size="10.00">::UpdateEdgeOperationMultiMesh</text>
<text text-anchor="middle" x="307.5" y="-687" font-family="Helvetica,sans-Serif" font-size="10.00">MapFunctor::update_all_hashes</text>
</a>
</g>
</g>
<!-- Node12&#45;&gt;Node13 -->
<g id="edge13_Node000012_Node000013" class="edge">
<title>Node12&#45;&gt;Node13</title>
<g id="a_edge13_Node000012_Node000013"><a xlink:title=" ">
<path fill="none" stroke="#63b8ff" d="M423.73,-700.5C415.18,-700.5 406.61,-700.5 398.2,-700.5"/>
<polygon fill="#63b8ff" stroke="#63b8ff" points="423.73,-704 433.73,-700.5 423.73,-697 423.73,-704"/>
</a>
</g>
</g>
<!-- Node14 -->
<g id="Node000014" class="node">
<title>Node14</title>
<g id="a_Node000014"><a xlink:href="classwmtk_1_1operations_1_1utils_1_1_update_edge_operation_multi_mesh_map_functor.html#a34a9d1b901b746f227331b404606ac14" target="_top" xlink:title=" ">
<polygon fill="white" stroke="#666666" points="181,-780 0,-780 0,-739 181,-739 181,-780"/>
<text text-anchor="start" x="8" y="-768" font-family="Helvetica,sans-Serif" font-size="10.00">wmtk::operations::utils</text>
<text text-anchor="start" x="8" y="-757" font-family="Helvetica,sans-Serif" font-size="10.00">::UpdateEdgeOperationMultiMesh</text>
<text text-anchor="middle" x="90.5" y="-746" font-family="Helvetica,sans-Serif" font-size="10.00">MapFunctor::operator()</text>
</a>
</g>
</g>
<!-- Node13&#45;&gt;Node14 -->
<g id="edge14_Node000013_Node000014" class="edge">
<title>Node13&#45;&gt;Node14</title>
<g id="a_edge14_Node000013_Node000014"><a xlink:title=" ">
<path fill="none" stroke="#63b8ff" d="M221.85,-723.73C203.57,-728.75 184.37,-734.01 166.49,-738.92"/>
<polygon fill="#63b8ff" stroke="#63b8ff" points="222.89,-727.07 231.61,-721.05 221.04,-720.32 222.89,-727.07"/>
</a>
</g>
</g>
<!-- Node15 -->
<g id="Node000015" class="node">
<title>Node15</title>
<g id="a_Node000015"><a xlink:href="classwmtk_1_1operations_1_1utils_1_1_update_edge_operation_multi_mesh_map_functor.html#a6f3a220b85044a73d43a4c124d099bbc" target="_top" xlink:title=" ">
<polygon fill="white" stroke="#666666" points="181,-721 0,-721 0,-680 181,-680 181,-721"/>
<text text-anchor="start" x="8" y="-709" font-family="Helvetica,sans-Serif" font-size="10.00">wmtk::operations::utils</text>
<text text-anchor="start" x="8" y="-698" font-family="Helvetica,sans-Serif" font-size="10.00">::UpdateEdgeOperationMultiMesh</text>
<text text-anchor="middle" x="90.5" y="-687" font-family="Helvetica,sans-Serif" font-size="10.00">MapFunctor::operator()</text>
</a>
</g>
</g>
<!-- Node13&#45;&gt;Node15 -->
<g id="edge15_Node000013_Node000015" class="edge">
<title>Node13&#45;&gt;Node15</title>
<g id="a_edge15_Node000013_Node000015"><a xlink:title=" ">
<path fill="none" stroke="#63b8ff" d="M206.63,-700.5C198.19,-700.5 189.68,-700.5 181.32,-700.5"/>
<polygon fill="#63b8ff" stroke="#63b8ff" points="206.88,-704 216.88,-700.5 206.88,-697 206.88,-704"/>
</a>
</g>
</g>
<!-- Node16 -->
<g id="Node000016" class="node">
<title>Node16</title>
<g id="a_Node000016"><a xlink:href="classwmtk_1_1operations_1_1utils_1_1_update_edge_operation_multi_mesh_map_functor.html#a57611fefa85bea3d1858ca385b0f350a" target="_top" xlink:title=" ">
<polygon fill="white" stroke="#666666" points="181,-662 0,-662 0,-621 181,-621 181,-662"/>
<text text-anchor="start" x="8" y="-650" font-family="Helvetica,sans-Serif" font-size="10.00">wmtk::operations::utils</text>
<text text-anchor="start" x="8" y="-639" font-family="Helvetica,sans-Serif" font-size="10.00">::UpdateEdgeOperationMultiMesh</text>
<text text-anchor="middle" x="90.5" y="-628" font-family="Helvetica,sans-Serif" font-size="10.00">MapFunctor::operator()</text>
</a>
</g>
</g>
<!-- Node13&#45;&gt;Node16 -->
<g id="edge16_Node000013_Node000016" class="edge">
<title>Node13&#45;&gt;Node16</title>
<g id="a_edge16_Node000013_Node000016"><a xlink:title=" ">
<path fill="none" stroke="#63b8ff" d="M221.85,-677.27C203.57,-672.25 184.37,-666.99 166.49,-662.08"/>
<polygon fill="#63b8ff" stroke="#63b8ff" points="221.04,-680.68 231.61,-679.95 222.89,-673.93 221.04,-680.68"/>
</a>
</g>
</g>
<!-- Node20&#45;&gt;Node20 -->
<g id="edge24_Node000020_Node000020" class="edge">
<title>Node20&#45;&gt;Node20</title>
<g id="a_edge24_Node000020_Node000020"><a xlink:title=" ">
<path fill="none" stroke="#63b8ff" d="M1207.86,-471.1C1203.03,-475.47 1191.24,-478.5 1172.5,-478.5 1140.94,-478.5 1129.1,-469.91 1136.99,-460.78"/>
<polygon fill="#63b8ff" stroke="#63b8ff" points="1211.36,-470.83 1208.01,-460.78 1204.36,-470.72 1211.36,-470.83"/>
</a>
</g>
</g>
<!-- Node21 -->
<g id="Node000021" class="node">
<title>Node21</title>
<g id="a_Node000021"><a xlink:href="namespacewmtk_1_1components_1_1longest__edge__split.html#a91cd0e6f904d4c6d1e0000504cc0a257" target="_top" xlink:title="Perform longes&#45;edge split on a mesh.">
<polygon fill="white" stroke="#666666" points="1039.5,-460.5 869.5,-460.5 869.5,-430.5 1039.5,-430.5 1039.5,-460.5"/>
<text text-anchor="start" x="877.5" y="-448.5" font-family="Helvetica,sans-Serif" font-size="10.00">wmtk::components::longest</text>
<text text-anchor="middle" x="954.5" y="-437.5" font-family="Helvetica,sans-Serif" font-size="10.00">_edge_split::longest_edge_split</text>
</a>
</g>
</g>
<!-- Node20&#45;&gt;Node21 -->
<g id="edge23_Node000020_Node000021" class="edge">
<title>Node20&#45;&gt;Node21</title>
<g id="a_edge23_Node000020_Node000021"><a xlink:title=" ">
<path fill="none" stroke="#63b8ff" d="M1077.02,-445.5C1064.62,-445.5 1051.97,-445.5 1039.76,-445.5"/>
<polygon fill="#63b8ff" stroke="#63b8ff" points="1077.37,-449 1087.37,-445.5 1077.37,-442 1077.37,-449"/>
</a>
</g>
</g>
<!-- Node26 -->
<g id="Node000026" class="node">
<title>Node26</title>
<g id="a_Node000026"><a xlink:href="namespacewmtk_1_1dart.html#aecbda341ae89fc70a80d613a360f5a5c" target="_top" xlink:title=" ">
<polygon fill="white" stroke="#666666" points="1011,-388.5 898,-388.5 898,-358.5 1011,-358.5 1011,-388.5"/>
<text text-anchor="start" x="906" y="-376.5" font-family="Helvetica,sans-Serif" font-size="10.00">wmtk::dart::register</text>
<text text-anchor="middle" x="954.5" y="-365.5" font-family="Helvetica,sans-Serif" font-size="10.00">_dart_attribute</text>
</a>
</g>
</g>
<!-- Node25&#45;&gt;Node26 -->
<g id="edge29_Node000025_Node000026" class="edge">
<title>Node25&#45;&gt;Node26</title>
<g id="a_edge29_Node000025_Node000026"><a xlink:title=" ">
<path fill="none" stroke="#63b8ff" d="M1093.18,-270.53C1089.59,-272.59 1086.17,-274.91 1083,-277.5 1055.32,-300.16 1074.78,-326.95 1047,-349.5 1036.8,-357.78 1024.04,-363.23 1011.31,-366.81"/>
<polygon fill="#63b8ff" stroke="#63b8ff" points="1095.06,-273.5 1102.43,-265.89 1091.92,-267.25 1095.06,-273.5"/>
</a>
</g>
</g>
<!-- Node28 -->
<g id="Node000028" class="node">
<title>Node28</title>
<g id="a_Node000028"><a xlink:href="classwmtk_1_1_tri_mesh_1_1_tri_mesh_operation_executor.html#a54ec111e8890281195a6d2449f822f02" target="_top" xlink:title=" ">
<polygon fill="white" stroke="#666666" points="1044,-340.5 865,-340.5 865,-310.5 1044,-310.5 1044,-340.5"/>
<text text-anchor="start" x="873" y="-328.5" font-family="Helvetica,sans-Serif" font-size="10.00">wmtk::TriMesh::TriMeshOperation</text>
<text text-anchor="middle" x="954.5" y="-317.5" font-family="Helvetica,sans-Serif" font-size="10.00">Executor::create_spine_simplices</text>
</a>
</g>
</g>
<!-- Node27&#45;&gt;Node28 -->
<g id="edge31_Node000027_Node000028" class="edge">
<title>Node27&#45;&gt;Node28</title>
<g id="a_edge31_Node000027_Node000028"><a xlink:title=" ">
<path fill="none" stroke="#63b8ff" d="M1103.42,-217.47C1096.07,-220.59 1089.06,-224.54 1083,-229.5 1055.32,-252.16 1074.78,-278.95 1047,-301.5 1042.79,-304.92 1038.15,-307.85 1033.25,-310.37"/>
<polygon fill="#63b8ff" stroke="#63b8ff" points="1104.75,-220.71 1112.89,-213.92 1102.3,-214.15 1104.75,-220.71"/>
</a>
</g>
</g>
<!-- Node29 -->
<g id="Node000029" class="node">
<title>Node29</title>
<g id="a_Node000029"><a xlink:href="classwmtk_1_1_tri_mesh_1_1_tri_mesh_operation_executor.html#a3df1e4a6e6de766e419522774d6463d6" target="_top" xlink:title=" ">
<polygon fill="white" stroke="#666666" points="1044,-292.5 865,-292.5 865,-262.5 1044,-262.5 1044,-292.5"/>
<text text-anchor="start" x="873" y="-280.5" font-family="Helvetica,sans-Serif" font-size="10.00">wmtk::TriMesh::TriMeshOperation</text>
<text text-anchor="middle" x="954.5" y="-269.5" font-family="Helvetica,sans-Serif" font-size="10.00">Executor::fill_split_facet_data</text>
</a>
</g>
</g>
<!-- Node27&#45;&gt;Node29 -->
<g id="edge32_Node000027_Node000029" class="edge">
<title>Node27&#45;&gt;Node29</title>
<g id="a_edge32_Node000027_Node000029"><a xlink:title=" ">
<path fill="none" stroke="#63b8ff" d="M1103.39,-221.55C1096.39,-223.91 1089.48,-226.56 1083,-229.5 1065.49,-237.45 1064.54,-245.62 1047,-253.5 1039.51,-256.87 1031.46,-259.83 1023.34,-262.43"/>
<polygon fill="#63b8ff" stroke="#63b8ff" points="1104.49,-224.87 1112.95,-218.5 1102.36,-218.2 1104.49,-224.87"/>
</a>
</g>
</g>
<!-- Node30 -->
<g id="Node000030" class="node">
<title>Node30</title>
<g id="a_Node000030"><a xlink:href="classwmtk_1_1_tri_mesh_1_1_tri_mesh_operation_executor.html#a998d9ebaf1507d842fb01db91e044644" target="_top" xlink:title=" ">
<polygon fill="white" stroke="#666666" points="1044,-244.5 865,-244.5 865,-214.5 1044,-214.5 1044,-244.5"/>
<text text-anchor="start" x="873" y="-232.5" font-family="Helvetica,sans-Serif" font-size="10.00">wmtk::TriMesh::TriMeshOperation</text>
<text text-anchor="middle" x="954.5" y="-221.5" font-family="Helvetica,sans-Serif" font-size="10.00">Executor::replace_incident_face</text>
</a>
</g>
</g>
<!-- Node27&#45;&gt;Node30 -->
<g id="edge33_Node000027_Node000030" class="edge">
<title>Node27&#45;&gt;Node30</title>
<g id="a_edge33_Node000027_Node000030"><a xlink:title=" ">
<path fill="none" stroke="#63b8ff" d="M1102.65,-213.15C1084.08,-215.21 1063.73,-217.47 1044.25,-219.64"/>
<polygon fill="#63b8ff" stroke="#63b8ff" points="1103.21,-216.61 1112.76,-212.03 1102.44,-209.65 1103.21,-216.61"/>
</a>
</g>
</g>
<!-- Node31 -->
<g id="Node000031" class="node">
<title>Node31</title>
<g id="a_Node000031"><a xlink:href="classwmtk_1_1operations_1_1_edge_operation_data.html#a80ea6d5059989a2d093179a0dbd2556d" target="_top" xlink:title=" ">
<polygon fill="white" stroke="#666666" points="1044.5,-196.5 864.5,-196.5 864.5,-166.5 1044.5,-166.5 1044.5,-196.5"/>
<text text-anchor="start" x="872.5" y="-184.5" font-family="Helvetica,sans-Serif" font-size="10.00">wmtk::operations::EdgeOperation</text>
<text text-anchor="middle" x="954.5" y="-173.5" font-family="Helvetica,sans-Serif" font-size="10.00">Data::request_simplex_indices</text>
</a>
</g>
</g>
<!-- Node27&#45;&gt;Node31 -->
<g id="edge34_Node000027_Node000031" class="edge">
<title>Node27&#45;&gt;Node31</title>
<g id="a_edge34_Node000027_Node000031"><a xlink:title=" ">
<path fill="none" stroke="#63b8ff" d="M1102.71,-197.86C1084.26,-195.81 1064.04,-193.56 1044.66,-191.41"/>
<polygon fill="#63b8ff" stroke="#63b8ff" points="1102.44,-201.35 1112.76,-198.97 1103.21,-194.39 1102.44,-201.35"/>
</a>
</g>
</g>
<!-- Node33 -->
<g id="Node000033" class="node">
<title>Node33</title>
<g id="a_Node000033"><a xlink:href="classwmtk_1_1_tet_mesh_1_1_tet_mesh_operation_executor.html#afdafef0c67dc0d9b6f2aef827d638eb6" target="_top" xlink:title="split edge v1&#45;v2">
<polygon fill="white" stroke="#666666" points="1047,-148.5 862,-148.5 862,-118.5 1047,-118.5 1047,-148.5"/>
<text text-anchor="start" x="870" y="-136.5" font-family="Helvetica,sans-Serif" font-size="10.00">wmtk::TetMesh::TetMeshOperation</text>
<text text-anchor="middle" x="954.5" y="-125.5" font-family="Helvetica,sans-Serif" font-size="10.00">Executor::split_edge</text>
</a>
</g>
</g>
<!-- Node27&#45;&gt;Node33 -->
<g id="edge36_Node000027_Node000033" class="edge">
<title>Node27&#45;&gt;Node33</title>
<g id="a_edge36_Node000027_Node000033"><a xlink:title=" ">
<path fill="none" stroke="#63b8ff" d="M1103.39,-189.45C1096.39,-187.09 1089.48,-184.44 1083,-181.5 1065.49,-173.55 1064.54,-165.38 1047,-157.5 1039.51,-154.13 1031.46,-151.17 1023.34,-148.57"/>
<polygon fill="#63b8ff" stroke="#63b8ff" points="1102.36,-192.8 1112.95,-192.5 1104.49,-186.13 1102.36,-192.8"/>
</a>
</g>
</g>
<!-- Node35 -->
<g id="Node000035" class="node">
<title>Node35</title>
<g id="a_Node000035"><a xlink:href="classwmtk_1_1_edge_mesh_1_1_edge_mesh_operation_executor.html#acb42aca716850f7017290140eef6d94e" target="_top" xlink:title=" ">
<polygon fill="white" stroke="#666666" points="1033,-100 876,-100 876,-59 1033,-59 1033,-100"/>
<text text-anchor="start" x="884" y="-88" font-family="Helvetica,sans-Serif" font-size="10.00">wmtk::EdgeMesh::EdgeMesh</text>
<text text-anchor="start" x="884" y="-77" font-family="Helvetica,sans-Serif" font-size="10.00">OperationExecutor::split</text>
<text text-anchor="middle" x="954.5" y="-66" font-family="Helvetica,sans-Serif" font-size="10.00">_edge_single_mesh</text>
</a>
</g>
</g>
<!-- Node27&#45;&gt;Node35 -->
<g id="edge38_Node000027_Node000035" class="edge">
<title>Node27&#45;&gt;Node35</title>
<g id="a_edge38_Node000027_Node000035"><a xlink:title=" ">
<path fill="none" stroke="#63b8ff" d="M1103.42,-193.53C1096.07,-190.41 1089.06,-186.46 1083,-181.5 1055.32,-158.84 1074.09,-132.87 1047,-109.5 1042.82,-105.9 1038.2,-102.72 1033.32,-99.93"/>
<polygon fill="#63b8ff" stroke="#63b8ff" points="1102.3,-196.85 1112.89,-197.08 1104.75,-190.29 1102.3,-196.85"/>
</a>
</g>
</g>
<!-- Node32 -->
<g id="Node000032" class="node">
<title>Node32</title>
<g id="a_Node000032"><a xlink:href="classwmtk_1_1operations_1_1internal_1_1_split_alternate_facet_data.html#a6d058aa5a832bcf22fd76c0762fe058a" target="_top" xlink:title=" ">
<polygon fill="white" stroke="#666666" points="819,-207 673,-207 673,-166 819,-166 819,-207"/>
<text text-anchor="start" x="681" y="-195" font-family="Helvetica,sans-Serif" font-size="10.00">wmtk::operations::internal</text>
<text text-anchor="start" x="681" y="-184" font-family="Helvetica,sans-Serif" font-size="10.00">::SplitAlternateFacetData</text>
<text text-anchor="middle" x="746" y="-173" font-family="Helvetica,sans-Serif" font-size="10.00">::add_facet</text>
</a>
</g>
</g>
<!-- Node31&#45;&gt;Node32 -->
<g id="edge35_Node000031_Node000032" class="edge">
<title>Node31&#45;&gt;Node32</title>
<g id="a_edge35_Node000031_Node000032"><a xlink:title=" ">
<path fill="none" stroke="#63b8ff" d="M854.42,-183.9C842.48,-184.19 830.46,-184.48 819,-184.76"/>
<polygon fill="#63b8ff" stroke="#63b8ff" points="854.51,-187.4 864.43,-183.66 854.35,-180.4 854.51,-187.4"/>
</a>
</g>
</g>
<!-- Node34 -->
<g id="Node000034" class="node">
<title>Node34</title>
<g id="a_Node000034"><a xlink:href="classwmtk_1_1operations_1_1utils_1_1_multi_mesh_edge_split_functor.html#af010a058e1bd67dbd1019342c0ac8c7d" target="_top" xlink:title=" ">
<polygon fill="white" stroke="#666666" points="823.5,-148 668.5,-148 668.5,-107 823.5,-107 823.5,-148"/>
<text text-anchor="start" x="676.5" y="-136" font-family="Helvetica,sans-Serif" font-size="10.00">wmtk::operations::utils</text>
<text text-anchor="start" x="676.5" y="-125" font-family="Helvetica,sans-Serif" font-size="10.00">::MultiMeshEdgeSplitFunctor</text>
<text text-anchor="middle" x="746" y="-114" font-family="Helvetica,sans-Serif" font-size="10.00">::operator()</text>
</a>
</g>
</g>
<!-- Node33&#45;&gt;Node34 -->
<g id="edge37_Node000033_Node000034" class="edge">
<title>Node33&#45;&gt;Node34</title>
<g id="a_edge37_Node000033_Node000034"><a xlink:title=" ">
<path fill="none" stroke="#63b8ff" d="M851.56,-130.54C842.17,-130.27 832.77,-129.99 823.67,-129.73"/>
<polygon fill="#63b8ff" stroke="#63b8ff" points="851.63,-134.04 861.72,-130.83 851.83,-127.04 851.63,-134.04"/>
</a>
</g>
</g>
<!-- Node36&#45;&gt;Node36 -->
<g id="edge41_Node000036_Node000036" class="edge">
<title>Node36&#45;&gt;Node36</title>
<g id="a_edge41_Node000036_Node000036"><a xlink:title=" ">
<path fill="none" stroke="#63b8ff" d="M1207.25,-163.96C1202.08,-168.74 1190.5,-172 1172.5,-172 1143.7,-172 1131.32,-163.65 1135.37,-154.1"/>
<polygon fill="#63b8ff" stroke="#63b8ff" points="1210.69,-164.64 1209.63,-154.1 1203.88,-163 1210.69,-164.64"/>
</a>
</g>
</g>
<!-- Node37 -->
<g id="Node000037" class="node">
<title>Node37</title>
<g id="a_Node000037"><a xlink:href="namespacewmtk_1_1components_1_1shortest__edge__collapse.html#a1be5a09251cc55d3030f671a39c7ed47" target="_top" xlink:title="Perform shortest&#45;edge collapse on a triangular surface mesh.">
<polygon fill="white" stroke="#666666" points="1032.5,-41 876.5,-41 876.5,0 1032.5,0 1032.5,-41"/>
<text text-anchor="start" x="884.5" y="-29" font-family="Helvetica,sans-Serif" font-size="10.00">wmtk::components::shortest</text>
<text text-anchor="start" x="884.5" y="-18" font-family="Helvetica,sans-Serif" font-size="10.00">_edge_collapse::shortest</text>
<text text-anchor="middle" x="954.5" y="-7" font-family="Helvetica,sans-Serif" font-size="10.00">_edge_collapse</text>
</a>
</g>
</g>
<!-- Node36&#45;&gt;Node37 -->
<g id="edge40_Node000036_Node000037" class="edge">
<title>Node36&#45;&gt;Node37</title>
<g id="a_edge40_Node000036_Node000037"><a xlink:title=" ">
<path fill="none" stroke="#63b8ff" d="M1089.32,-107.94C1087.14,-106.53 1085.03,-105.06 1083,-103.5 1060.12,-85.93 1070.05,-66.84 1047,-49.5 1042.61,-46.19 1037.82,-43.26 1032.83,-40.65"/>
<polygon fill="#63b8ff" stroke="#63b8ff" points="1087.62,-111 1098.02,-112.99 1091.13,-104.94 1087.62,-111"/>
</a>
</g>
</g>
</g>
</svg>

<g id="navigator" transform="translate(0 0)" fill="#404254">
  <rect fill="#f2f5e9" fill-opacity="0.5" stroke="#606060" stroke-width=".5" x="0" y="0" width="60" height="60"/>
  <use id="zoomplus" xlink:href="#zoomPlus" x="17" y="9" onmousedown="handleZoom(evt,'in')"/>
  <use id="zoomminus" xlink:href="#zoomMin" x="42" y="9" onmousedown="handleZoom(evt,'out')"/>
  <use id="reset" xlink:href="#resetDef" x="30" y="36" onmousedown="handleReset()"/>
   <use id="arrowup" xlink:href="#arrowUp" x="0" y="0" onmousedown="handlePan(0,-1)"/>
  <use id="arrowright" xlink:href="#arrowRight" x="0" y="0" onmousedown="handlePan(1,0)"/>
  <use id="arrowdown" xlink:href="#arrowDown" x="0" y="0" onmousedown="handlePan(0,1)"/>
  <use id="arrowleft" xlink:href="#arrowLeft" x="0" y="0" onmousedown="handlePan(-1,0)"/>
</g>
<svg viewBox="0 0 15 15" width="100%" height="30px" preserveAspectRatio="xMaxYMin meet">
 <g id="arrow_out" transform="scale(0.3 0.3)">
  <a xlink:href="namespacewmtk_a339897f6efeb23a997750141f12892ee_icgraph_org.svg" target="_base">
   <rect id="button" ry="5" rx="5" y="6" x="6" height="38" width="38"
        fill="#f2f5e9" fill-opacity="0.5" stroke="#606060" stroke-width="1.0"/>
   <path id="arrow"
     d="M 11.500037,31.436501 C 11.940474,20.09759 22.043105,11.32322 32.158766,21.979434 L 37.068811,17.246167 C 37.068811,17.246167 37.088388,32 37.088388,32 L 22.160133,31.978069 C 22.160133,31.978069 26.997745,27.140456 26.997745,27.140456 C 18.528582,18.264221 13.291696,25.230495 11.500037,31.436501 z"
     style="fill:#404040;"/>
  </a>
 </g>
</svg>

<style type='text/css'>
<![CDATA[
[data-mouse-over-selected='false'] { opacity: 0.7; }
[data-mouse-over-selected='true']  { opacity: 1.0; }
]]>
</style>
<script type="application/ecmascript"><![CDATA[
document.addEventListener('DOMContentLoaded', (event) => {
  highlightEdges();
  highlightAdjacentNodes();
});
]]></script>
</svg>
