<?xml version="1.0" encoding="UTF-8" standalone="no"?>
<!DOCTYPE svg PUBLIC "-//W3C//DTD SVG 1.1//EN"
 "http://www.w3.org/Graphics/SVG/1.1/DTD/svg11.dtd">
<!-- Generated by graphviz version 2.43.0 (0)
 -->
<!-- Title: wmtk::autogen::tri_mesh::identity Pages: 1 -->
<!--zoomable 226 -->

<svg id="main" version="1.1" xmlns="http://www.w3.org/2000/svg" xmlns:xlink="http://www.w3.org/1999/xlink" xml:space="preserve" onload="init(evt)">
<style type="text/css"><![CDATA[
.node, .edge {opacity: 0.7;}
.node.selected, .edge.selected {opacity: 1;}
.edge:hover path { stroke: red; }
.edge:hover polygon { stroke: red; fill: red; }
]]></style>

<defs>
  <circle id="rim" cx="0" cy="0" r="7"/>
  <circle id="rim2" cx="0" cy="0" r="3.5"/>
  <g id="zoomPlus">
    <use xlink:href="#rim" fill="#404040"><set attributeName="fill" to="#808080" begin="zoomplus.mouseover" end="zoomplus.mouseout"/></use>
    <path d="M-4,0h8M0,-4v8" fill="none" stroke="white" stroke-width="1.5" pointer-events="none"/>
  </g>
  <g id="zoomMin">
    <use xlink:href="#rim" fill="#404040"><set attributeName="fill" to="#808080" begin="zoomminus.mouseover" end="zoomminus.mouseout"/></use>
    <path d="M-4,0h8" fill="none" stroke="white" stroke-width="1.5" pointer-events="none"/>
  </g>
  <g id="arrowUp" transform="translate(30 24)">
    <use xlink:href="#rim"/>
    <path pointer-events="none" fill="none" stroke="white" stroke-width="1.5" d="M0,-3.0v7 M-2.5,-0.5L0,-3.0L2.5,-0.5"/>
  </g>
  <g id="arrowRight" transform="rotate(90) translate(36 -43)">
    <use xlink:href="#rim"/>
    <path pointer-events="none" fill="none" stroke="white" stroke-width="1.5" d="M0,-3.0v7 M-2.5,-0.5L0,-3.0L2.5,-0.5"/>
  </g>
  <g id="arrowDown" transform="rotate(180) translate(-30 -48)">
    <use xlink:href="#rim"/>
    <path pointer-events="none" fill="none" stroke="white" stroke-width="1.5" d="M0,-3.0v7 M-2.5,-0.5L0,-3.0L2.5,-0.5"/>
  </g>
  <g id="arrowLeft" transform="rotate(270) translate(-36 17)">
    <use xlink:href="#rim"/>
    <path pointer-events="none" fill="none" stroke="white" stroke-width="1.5" d="M0,-3.0v7 M-2.5,-0.5L0,-3.0L2.5,-0.5"/>
  </g>
  <g id="resetDef">
    <use xlink:href="#rim2" fill="#404040"><set attributeName="fill" to="#808080" begin="reset.mouseover" end="reset.mouseout"/></use>
  </g>
</defs>
<script type="application/ecmascript">
var viewWidth = 852;
var viewHeight = 226;
var sectionId = 'dynsection-3';
</script>
<script type="application/ecmascript" xlink:href="svg.min.js"/>
<svg id="graph" class="graph">
<g id="viewport">
<title>wmtk::autogen::tri_mesh::identity</title>
<!-- Node1 -->
<g id="Node000001" class="node">
<title>Node1</title>
<g id="a_Node000001"><a xlink:title=" ">
<polygon fill="#999999" stroke="#666666" points="844,-153.5 737,-153.5 737,-123.5 844,-123.5 844,-153.5"/>
<text text-anchor="start" x="745" y="-141.5" font-family="Helvetica,sans-Serif" font-size="10.00">wmtk::autogen::tri</text>
<text text-anchor="middle" x="790.5" y="-130.5" font-family="Helvetica,sans-Serif" font-size="10.00">_mesh::identity</text>
</a>
</g>
</g>
<!-- Node2 -->
<g id="Node000002" class="node">
<title>Node2</title>
<g id="a_Node000002"><a xlink:href="classwmtk_1_1autogen_1_1tri__mesh_1_1_simplex_dart.html#ad23e189b2c9fc816d4cbfd0161b1f06b" target="_top" xlink:title=" ">
<polygon fill="white" stroke="#666666" points="692,-218 570,-218 570,-177 692,-177 692,-218"/>
<text text-anchor="start" x="578" y="-206" font-family="Helvetica,sans-Serif" font-size="10.00">wmtk::autogen::tri</text>
<text text-anchor="start" x="578" y="-195" font-family="Helvetica,sans-Serif" font-size="10.00">_mesh::SimplexDart::</text>
<text text-anchor="middle" x="631" y="-184" font-family="Helvetica,sans-Serif" font-size="10.00">identity</text>
</a>
</g>
</g>
<!-- Node1&#45;&gt;Node2 -->
<g id="edge1_Node000001_Node000002" class="edge">
<title>Node1&#45;&gt;Node2</title>
<g id="a_edge1_Node000001_Node000002"><a xlink:title=" ">
<path fill="none" stroke="#63b8ff" d="M739.73,-157.15C722.93,-163.44 704.1,-170.49 686.93,-176.92"/>
<polygon fill="#63b8ff" stroke="#63b8ff" points="741.21,-160.33 749.35,-153.54 738.76,-153.77 741.21,-160.33"/>
</a>
</g>
</g>
<!-- Node3 -->
<g id="Node000003" class="node">
<title>Node3</title>
<g id="a_Node000003"><a xlink:href="namespacewmtk_1_1autogen_1_1tri__mesh.html#a4ed90cb979c5c2753822f39472e9ddc6" target="_top" xlink:title="Returns a dart action that maximizes the number of sub&#45;darts preserved.">
<polygon fill="white" stroke="#666666" points="701,-159 561,-159 561,-118 701,-118 701,-159"/>
<text text-anchor="start" x="569" y="-147" font-family="Helvetica,sans-Serif" font-size="10.00">wmtk::autogen::tri</text>
<text text-anchor="start" x="569" y="-136" font-family="Helvetica,sans-Serif" font-size="10.00">_mesh::subdart_maximal</text>
<text text-anchor="middle" x="631" y="-125" font-family="Helvetica,sans-Serif" font-size="10.00">_action_to_face</text>
</a>
</g>
</g>
<!-- Node1&#45;&gt;Node3 -->
<g id="edge2_Node000001_Node000003" class="edge">
<title>Node1&#45;&gt;Node3</title>
<g id="a_edge2_Node000001_Node000003"><a xlink:title=" ">
<path fill="none" stroke="#63b8ff" d="M726.6,-138.5C718.26,-138.5 709.68,-138.5 701.25,-138.5"/>
<polygon fill="#63b8ff" stroke="#63b8ff" points="726.62,-142 736.62,-138.5 726.62,-135 726.62,-142"/>
</a>
</g>
</g>
<!-- Node6 -->
<g id="Node000006" class="node">
<title>Node6</title>
<g id="a_Node000006"><a xlink:href="namespacewmtk_1_1autogen_1_1tri__mesh.html#aeeca538f69391f9162cafaf464897737" target="_top" xlink:title=" ">
<polygon fill="white" stroke="#666666" points="701,-100 561,-100 561,-59 701,-59 701,-100"/>
<text text-anchor="start" x="569" y="-88" font-family="Helvetica,sans-Serif" font-size="10.00">wmtk::autogen::tri</text>
<text text-anchor="start" x="569" y="-77" font-family="Helvetica,sans-Serif" font-size="10.00">_mesh::subdart_maximal</text>
<text text-anchor="middle" x="631" y="-66" font-family="Helvetica,sans-Serif" font-size="10.00">_action_to_face_action</text>
</a>
</g>
</g>
<!-- Node1&#45;&gt;Node6 -->
<g id="edge5_Node000001_Node000006" class="edge">
<title>Node1&#45;&gt;Node6</title>
<g id="a_edge5_Node000001_Node000006"><a xlink:title=" ">
<path fill="none" stroke="#63b8ff" d="M739.73,-119.85C722.93,-113.56 704.1,-106.51 686.93,-100.08"/>
<polygon fill="#63b8ff" stroke="#63b8ff" points="738.76,-123.23 749.35,-123.46 741.21,-116.67 738.76,-123.23"/>
</a>
</g>
</g>
<!-- Node4 -->
<g id="Node000004" class="node">
<title>Node4</title>
<g id="a_Node000004"><a xlink:href="namespacewmtk_1_1dart_1_1utils.html#aa2d7fe3ddb37a5d335283255a6eaaad7" target="_top" xlink:title=" ">
<polygon fill="white" stroke="#666666" points="525,-159 388,-159 388,-118 525,-118 525,-159"/>
<text text-anchor="start" x="396" y="-147" font-family="Helvetica,sans-Serif" font-size="10.00">wmtk::dart::utils::</text>
<text text-anchor="start" x="396" y="-136" font-family="Helvetica,sans-Serif" font-size="10.00">subdart_maximal_action</text>
<text text-anchor="middle" x="456.5" y="-125" font-family="Helvetica,sans-Serif" font-size="10.00">_to_face</text>
</a>
</g>
</g>
<!-- Node3&#45;&gt;Node4 -->
<g id="edge3_Node000003_Node000004" class="edge">
<title>Node3&#45;&gt;Node4</title>
<g id="a_edge3_Node000003_Node000004"><a xlink:title=" ">
<path fill="none" stroke="#63b8ff" d="M550.58,-138.5C542.13,-138.5 533.58,-138.5 525.28,-138.5"/>
<polygon fill="#63b8ff" stroke="#63b8ff" points="550.83,-142 560.83,-138.5 550.83,-135 550.83,-142"/>
</a>
</g>
</g>
<!-- Node5 -->
<g id="Node000005" class="node">
<title>Node5</title>
<g id="a_Node000005"><a xlink:href="namespacewmtk_1_1dart_1_1utils.html#a0ba23d42a8a8025c7686ade8ecc8b738" target="_top" xlink:title=" ">
<polygon fill="white" stroke="#666666" points="341.5,-159 204.5,-159 204.5,-118 341.5,-118 341.5,-159"/>
<text text-anchor="start" x="212.5" y="-147" font-family="Helvetica,sans-Serif" font-size="10.00">wmtk::dart::utils::</text>
<text text-anchor="start" x="212.5" y="-136" font-family="Helvetica,sans-Serif" font-size="10.00">subdart_maximal_action</text>
<text text-anchor="middle" x="273" y="-125" font-family="Helvetica,sans-Serif" font-size="10.00">_to_face</text>
</a>
</g>
</g>
<!-- Node4&#45;&gt;Node5 -->
<g id="edge4_Node000004_Node000005" class="edge">
<title>Node4&#45;&gt;Node5</title>
<g id="a_edge4_Node000004_Node000005"><a xlink:title=" ">
<path fill="none" stroke="#63b8ff" d="M377.88,-138.5C365.83,-138.5 353.45,-138.5 341.64,-138.5"/>
<polygon fill="#63b8ff" stroke="#63b8ff" points="377.92,-142 387.92,-138.5 377.92,-135 377.92,-142"/>
</a>
</g>
</g>
<!-- Node7 -->
<g id="Node000007" class="node">
<title>Node7</title>
<g id="a_Node000007"><a xlink:href="namespacewmtk_1_1dart_1_1utils.html#aea7718d61fd980c8d233ab68cb1d072c" target="_top" xlink:title=" ">
<polygon fill="white" stroke="#666666" points="525,-100 388,-100 388,-59 525,-59 525,-100"/>
<text text-anchor="start" x="396" y="-88" font-family="Helvetica,sans-Serif" font-size="10.00">wmtk::dart::utils::</text>
<text text-anchor="start" x="396" y="-77" font-family="Helvetica,sans-Serif" font-size="10.00">subdart_maximal_action</text>
<text text-anchor="middle" x="456.5" y="-66" font-family="Helvetica,sans-Serif" font-size="10.00">_to_face_action</text>
</a>
</g>
</g>
<!-- Node6&#45;&gt;Node7 -->
<g id="edge6_Node000006_Node000007" class="edge">
<title>Node6&#45;&gt;Node7</title>
<g id="a_edge6_Node000006_Node000007"><a xlink:title=" ">
<path fill="none" stroke="#63b8ff" d="M550.58,-79.5C542.13,-79.5 533.58,-79.5 525.28,-79.5"/>
<polygon fill="#63b8ff" stroke="#63b8ff" points="550.83,-83 560.83,-79.5 550.83,-76 550.83,-83"/>
</a>
</g>
</g>
<!-- Node8 -->
<g id="Node000008" class="node">
<title>Node8</title>
<g id="a_Node000008"><a xlink:href="classwmtk_1_1operations_1_1internal_1_1_collapse_alternate_facet_data.html#ad5d625ffe8c3c7b0e62c77cd2332f053" target="_top" xlink:title=" ">
<polygon fill="white" stroke="#666666" points="352,-100 194,-100 194,-59 352,-59 352,-100"/>
<text text-anchor="start" x="202" y="-88" font-family="Helvetica,sans-Serif" font-size="10.00">wmtk::operations::internal</text>
<text text-anchor="start" x="202" y="-77" font-family="Helvetica,sans-Serif" font-size="10.00">::CollapseAlternateFacetData</text>
<text text-anchor="middle" x="273" y="-66" font-family="Helvetica,sans-Serif" font-size="10.00">::get_alternatives</text>
</a>
</g>
</g>
<!-- Node7&#45;&gt;Node8 -->
<g id="edge7_Node000007_Node000008" class="edge">
<title>Node7&#45;&gt;Node8</title>
<g id="a_edge7_Node000007_Node000008"><a xlink:title=" ">
<path fill="none" stroke="#63b8ff" d="M377.66,-79.5C369.17,-79.5 360.53,-79.5 352.04,-79.5"/>
<polygon fill="#63b8ff" stroke="#63b8ff" points="377.92,-83 387.92,-79.5 377.92,-76 377.92,-83"/>
</a>
</g>
</g>
<!-- Node10 -->
<g id="Node000010" class="node">
<title>Node10</title>
<g id="a_Node000010"><a xlink:href="namespacewmtk_1_1dart_1_1utils.html#a64455ce8f02f751ca88e81bf5c326c9b" target="_top" xlink:title=" ">
<polygon fill="white" stroke="#666666" points="341.5,-41 204.5,-41 204.5,0 341.5,0 341.5,-41"/>
<text text-anchor="start" x="212.5" y="-29" font-family="Helvetica,sans-Serif" font-size="10.00">wmtk::dart::utils::</text>
<text text-anchor="start" x="212.5" y="-18" font-family="Helvetica,sans-Serif" font-size="10.00">subdart_maximal_action</text>
<text text-anchor="middle" x="273" y="-7" font-family="Helvetica,sans-Serif" font-size="10.00">_to_face_action</text>
</a>
</g>
</g>
<!-- Node7&#45;&gt;Node10 -->
<g id="edge9_Node000007_Node000010" class="edge">
<title>Node7&#45;&gt;Node10</title>
<g id="a_edge9_Node000007_Node000010"><a xlink:title=" ">
<path fill="none" stroke="#63b8ff" d="M382.55,-55.78C367.57,-50.92 351.91,-45.83 337.31,-41.08"/>
<polygon fill="#63b8ff" stroke="#63b8ff" points="381.68,-59.18 392.27,-58.95 383.85,-52.53 381.68,-59.18"/>
</a>
</g>
</g>
<!-- Node9 -->
<g id="Node000009" class="node">
<title>Node9</title>
<g id="a_Node000009"><a xlink:href="classwmtk_1_1operations_1_1internal_1_1_collapse_alternate_facet_data.html#aec408f6fcc5cb735d8761af17631bff9" target="_top" xlink:title=" ">
<polygon fill="white" stroke="#666666" points="158,-100 0,-100 0,-59 158,-59 158,-100"/>
<text text-anchor="start" x="8" y="-88" font-family="Helvetica,sans-Serif" font-size="10.00">wmtk::operations::internal</text>
<text text-anchor="start" x="8" y="-77" font-family="Helvetica,sans-Serif" font-size="10.00">::CollapseAlternateFacetData</text>
<text text-anchor="middle" x="79" y="-66" font-family="Helvetica,sans-Serif" font-size="10.00">::get_alternative</text>
</a>
</g>
</g>
<!-- Node8&#45;&gt;Node9 -->
<g id="edge8_Node000008_Node000009" class="edge">
<title>Node8&#45;&gt;Node9</title>
<g id="a_edge8_Node000008_Node000009"><a xlink:title=" ">
<path fill="none" stroke="#63b8ff" d="M183.85,-79.5C175.23,-79.5 166.53,-79.5 158.02,-79.5"/>
<polygon fill="#63b8ff" stroke="#63b8ff" points="183.91,-83 193.91,-79.5 183.91,-76 183.91,-83"/>
</a>
</g>
</g>
</g>
</svg>

<g id="navigator" transform="translate(0 0)" fill="#404254">
  <rect fill="#f2f5e9" fill-opacity="0.5" stroke="#606060" stroke-width=".5" x="0" y="0" width="60" height="60"/>
  <use id="zoomplus" xlink:href="#zoomPlus" x="17" y="9" onmousedown="handleZoom(evt,'in')"/>
  <use id="zoomminus" xlink:href="#zoomMin" x="42" y="9" onmousedown="handleZoom(evt,'out')"/>
  <use id="reset" xlink:href="#resetDef" x="30" y="36" onmousedown="handleReset()"/>
   <use id="arrowup" xlink:href="#arrowUp" x="0" y="0" onmousedown="handlePan(0,-1)"/>
  <use id="arrowright" xlink:href="#arrowRight" x="0" y="0" onmousedown="handlePan(1,0)"/>
  <use id="arrowdown" xlink:href="#arrowDown" x="0" y="0" onmousedown="handlePan(0,1)"/>
  <use id="arrowleft" xlink:href="#arrowLeft" x="0" y="0" onmousedown="handlePan(-1,0)"/>
</g>
<svg viewBox="0 0 15 15" width="100%" height="30px" preserveAspectRatio="xMaxYMin meet">
 <g id="arrow_out" transform="scale(0.3 0.3)">
  <a xlink:href="namespacewmtk_1_1autogen_1_1tri__mesh_a756478133ea539f0d1b3ae7eae2faabe_icgraph_org.svg" target="_base">
   <rect id="button" ry="5" rx="5" y="6" x="6" height="38" width="38"
        fill="#f2f5e9" fill-opacity="0.5" stroke="#606060" stroke-width="1.0"/>
   <path id="arrow"
     d="M 11.500037,31.436501 C 11.940474,20.09759 22.043105,11.32322 32.158766,21.979434 L 37.068811,17.246167 C 37.068811,17.246167 37.088388,32 37.088388,32 L 22.160133,31.978069 C 22.160133,31.978069 26.997745,27.140456 26.997745,27.140456 C 18.528582,18.264221 13.291696,25.230495 11.500037,31.436501 z"
     style="fill:#404040;"/>
  </a>
 </g>
</svg>

<style type='text/css'>
<![CDATA[
[data-mouse-over-selected='false'] { opacity: 0.7; }
[data-mouse-over-selected='true']  { opacity: 1.0; }
]]>
</style>
<script type="application/ecmascript"><![CDATA[
document.addEventListener('DOMContentLoaded', (event) => {
  highlightEdges();
  highlightAdjacentNodes();
});
]]></script>
</svg>
