<?xml version="1.0" encoding="UTF-8" standalone="no"?>
<!DOCTYPE svg PUBLIC "-//W3C//DTD SVG 1.1//EN"
 "http://www.w3.org/Graphics/SVG/1.1/DTD/svg11.dtd">
<!-- Generated by graphviz version 2.43.0 (0)
 -->
<!-- Title: wmtk::multimesh::utils::symmetric_write_tuple_map_attributes Pages: 1 -->
<!--zoomable 209 -->

<svg id="main" version="1.1" xmlns="http://www.w3.org/2000/svg" xmlns:xlink="http://www.w3.org/1999/xlink" xml:space="preserve" onload="init(evt)">
<style type="text/css"><![CDATA[
.node, .edge {opacity: 0.7;}
.node.selected, .edge.selected {opacity: 1;}
.edge:hover path { stroke: red; }
.edge:hover polygon { stroke: red; fill: red; }
]]></style>

<defs>
  <circle id="rim" cx="0" cy="0" r="7"/>
  <circle id="rim2" cx="0" cy="0" r="3.5"/>
  <g id="zoomPlus">
    <use xlink:href="#rim" fill="#404040"><set attributeName="fill" to="#808080" begin="zoomplus.mouseover" end="zoomplus.mouseout"/></use>
    <path d="M-4,0h8M0,-4v8" fill="none" stroke="white" stroke-width="1.5" pointer-events="none"/>
  </g>
  <g id="zoomMin">
    <use xlink:href="#rim" fill="#404040"><set attributeName="fill" to="#808080" begin="zoomminus.mouseover" end="zoomminus.mouseout"/></use>
    <path d="M-4,0h8" fill="none" stroke="white" stroke-width="1.5" pointer-events="none"/>
  </g>
  <g id="arrowUp" transform="translate(30 24)">
    <use xlink:href="#rim"/>
    <path pointer-events="none" fill="none" stroke="white" stroke-width="1.5" d="M0,-3.0v7 M-2.5,-0.5L0,-3.0L2.5,-0.5"/>
  </g>
  <g id="arrowRight" transform="rotate(90) translate(36 -43)">
    <use xlink:href="#rim"/>
    <path pointer-events="none" fill="none" stroke="white" stroke-width="1.5" d="M0,-3.0v7 M-2.5,-0.5L0,-3.0L2.5,-0.5"/>
  </g>
  <g id="arrowDown" transform="rotate(180) translate(-30 -48)">
    <use xlink:href="#rim"/>
    <path pointer-events="none" fill="none" stroke="white" stroke-width="1.5" d="M0,-3.0v7 M-2.5,-0.5L0,-3.0L2.5,-0.5"/>
  </g>
  <g id="arrowLeft" transform="rotate(270) translate(-36 17)">
    <use xlink:href="#rim"/>
    <path pointer-events="none" fill="none" stroke="white" stroke-width="1.5" d="M0,-3.0v7 M-2.5,-0.5L0,-3.0L2.5,-0.5"/>
  </g>
  <g id="resetDef">
    <use xlink:href="#rim2" fill="#404040"><set attributeName="fill" to="#808080" begin="reset.mouseover" end="reset.mouseout"/></use>
  </g>
</defs>
<script type="application/ecmascript">
var viewWidth = 1024;
var viewHeight = 209;
var sectionId = 'dynsection-29';
</script>
<script type="application/ecmascript" xlink:href="svg.min.js"/>
<svg id="graph" class="graph">
<g id="viewport">
<title>wmtk::multimesh::utils::symmetric_write_tuple_map_attributes</title>
<!-- Node1 -->
<g id="Node000001" class="node">
<title>Node1</title>
<g id="a_Node000001"><a xlink:title=" ">
<polygon fill="#999999" stroke="#666666" points="135,-83.5 0,-83.5 0,-42.5 135,-42.5 135,-83.5"/>
<text text-anchor="start" x="8" y="-71.5" font-family="Helvetica,sans-Serif" font-size="10.00">wmtk::multimesh::utils</text>
<text text-anchor="start" x="8" y="-60.5" font-family="Helvetica,sans-Serif" font-size="10.00">::symmetric_write_tuple</text>
<text text-anchor="middle" x="67.5" y="-49.5" font-family="Helvetica,sans-Serif" font-size="10.00">_map_attributes</text>
</a>
</g>
</g>
<!-- Node2 -->
<g id="Node000002" class="node">
<title>Node2</title>
<g id="a_Node000002"><a xlink:href="classwmtk_1_1dart_1_1_simplex_dart.html#a123cd955047d071c16eb48528dc318d5" target="_top" xlink:title=" ">
<polygon fill="white" stroke="#666666" points="309.5,-126 172.5,-126 172.5,-96 309.5,-96 309.5,-126"/>
<text text-anchor="start" x="180.5" y="-114" font-family="Helvetica,sans-Serif" font-size="10.00">wmtk::dart::SimplexDart</text>
<text text-anchor="middle" x="241" y="-103" font-family="Helvetica,sans-Serif" font-size="10.00">::dart_from_tuple</text>
</a>
</g>
</g>
<!-- Node1&#45;&gt;Node2 -->
<g id="edge1_Node000001_Node000002" class="edge">
<title>Node1&#45;&gt;Node2</title>
<g id="a_edge1_Node000001_Node000002"><a xlink:title=" ">
<path fill="none" stroke="#63b8ff" d="M135.3,-81.7C148.92,-85.51 163.21,-89.51 176.71,-93.29"/>
<polygon fill="#63b8ff" stroke="#63b8ff" points="175.8,-96.67 186.38,-95.99 177.69,-89.93 175.8,-96.67"/>
</a>
</g>
</g>
<!-- Node16 -->
<g id="Node000016" class="node">
<title>Node16</title>
<g id="a_Node000016"><a xlink:href="classwmtk_1_1dart_1_1_simplex_dart.html#a3949350f736cbf567bf566fd7565e6e8" target="_top" xlink:title=" ">
<polygon fill="white" stroke="#666666" points="309.5,-78 172.5,-78 172.5,-48 309.5,-48 309.5,-78"/>
<text text-anchor="start" x="180.5" y="-66" font-family="Helvetica,sans-Serif" font-size="10.00">wmtk::dart::SimplexDart</text>
<text text-anchor="middle" x="241" y="-55" font-family="Helvetica,sans-Serif" font-size="10.00">::get_singleton</text>
</a>
</g>
</g>
<!-- Node1&#45;&gt;Node16 -->
<g id="edge18_Node000001_Node000016" class="edge">
<title>Node1&#45;&gt;Node16</title>
<g id="a_edge18_Node000001_Node000016"><a xlink:title=" ">
<path fill="none" stroke="#63b8ff" d="M135.3,-63C144.11,-63 153.21,-63 162.19,-63"/>
<polygon fill="#63b8ff" stroke="#63b8ff" points="162.26,-66.5 172.26,-63 162.26,-59.5 162.26,-66.5"/>
</a>
</g>
</g>
<!-- Node17 -->
<g id="Node000017" class="node">
<title>Node17</title>
<g id="a_Node000017"><a xlink:href="classwmtk_1_1dart_1_1_dart_accessor.html#abe133ce32adc52abfc8632338d3e1be9" target="_top" xlink:title=" ">
<polygon fill="white" stroke="#666666" points="311,-30 171,-30 171,0 311,0 311,-30"/>
<text text-anchor="start" x="179" y="-18" font-family="Helvetica,sans-Serif" font-size="10.00">wmtk::dart::DartAccessor</text>
<text text-anchor="middle" x="241" y="-7" font-family="Helvetica,sans-Serif" font-size="10.00">::mesh</text>
</a>
</g>
</g>
<!-- Node1&#45;&gt;Node17 -->
<g id="edge20_Node000001_Node000017" class="edge">
<title>Node1&#45;&gt;Node17</title>
<g id="a_edge20_Node000001_Node000017"><a xlink:title=" ">
<path fill="none" stroke="#63b8ff" d="M135.3,-44.3C148.92,-40.49 163.21,-36.49 176.71,-32.71"/>
<polygon fill="#63b8ff" stroke="#63b8ff" points="177.69,-36.07 186.38,-30.01 175.8,-29.33 177.69,-36.07"/>
</a>
</g>
</g>
<!-- Node3 -->
<g id="Node000003" class="node">
<title>Node3</title>
<g id="a_Node000003"><a xlink:href="classwmtk_1_1_tuple.html#aef64a43ff5f5617dbc99d865356bbc25" target="_top" xlink:title=" ">
<polygon fill="white" stroke="#666666" points="496,-200.5 365,-200.5 365,-181.5 496,-181.5 496,-200.5"/>
<text text-anchor="middle" x="430.5" y="-188.5" font-family="Helvetica,sans-Serif" font-size="10.00">wmtk::Tuple::global_cid</text>
</a>
</g>
</g>
<!-- Node2&#45;&gt;Node3 -->
<g id="edge2_Node000002_Node000003" class="edge">
<title>Node2&#45;&gt;Node3</title>
<g id="a_edge2_Node000002_Node000003"><a xlink:title=" ">
<path fill="none" stroke="#63b8ff" d="M263.08,-126.2C283.58,-140.29 316.06,-160.85 347,-173 352.51,-175.16 358.33,-177.09 364.23,-178.8"/>
<polygon fill="#63b8ff" stroke="#63b8ff" points="363.62,-182.27 374.19,-181.49 365.44,-175.51 363.62,-182.27"/>
</a>
</g>
</g>
<!-- Node4 -->
<g id="Node000004" class="node">
<title>Node4</title>
<g id="a_Node000004"><a xlink:href="classwmtk_1_1_tuple.html#a0023f575be92cd5ceeeaaaa3762ea06d" target="_top" xlink:title="Checks if a tuple is &quot;null&quot;. This merely implies the global index is &#45;1.">
<polygon fill="white" stroke="#666666" points="487,-163.5 374,-163.5 374,-144.5 487,-144.5 487,-163.5"/>
<text text-anchor="middle" x="430.5" y="-151.5" font-family="Helvetica,sans-Serif" font-size="10.00">wmtk::Tuple::is_null</text>
</a>
</g>
</g>
<!-- Node2&#45;&gt;Node4 -->
<g id="edge3_Node000002_Node000004" class="edge">
<title>Node2&#45;&gt;Node4</title>
<g id="a_edge3_Node000002_Node000004"><a xlink:title=" ">
<path fill="none" stroke="#63b8ff" d="M307.58,-126.04C330.64,-131.33 356.22,-137.19 377.96,-142.18"/>
<polygon fill="#63b8ff" stroke="#63b8ff" points="377.45,-145.65 387.98,-144.48 379.01,-138.83 377.45,-145.65"/>
</a>
</g>
</g>
<!-- Node5 -->
<g id="Node000005" class="node">
<title>Node5</title>
<g id="a_Node000005"><a xlink:href="namespacewmtk_1_1dart_1_1utils.html#a5938bfad02927360fa7dbdc22ba196af" target="_top" xlink:title=" ">
<polygon fill="white" stroke="#666666" points="514,-126 347,-126 347,-96 514,-96 514,-126"/>
<text text-anchor="start" x="355" y="-114" font-family="Helvetica,sans-Serif" font-size="10.00">wmtk::dart::utils::</text>
<text text-anchor="middle" x="430.5" y="-103" font-family="Helvetica,sans-Serif" font-size="10.00">permutation_index_from_tuple</text>
</a>
</g>
</g>
<!-- Node2&#45;&gt;Node5 -->
<g id="edge4_Node000002_Node000005" class="edge">
<title>Node2&#45;&gt;Node5</title>
<g id="a_edge4_Node000002_Node000005"><a xlink:title=" ">
<path fill="none" stroke="#63b8ff" d="M309.69,-111C318.46,-111 327.55,-111 336.63,-111"/>
<polygon fill="#63b8ff" stroke="#63b8ff" points="336.87,-114.5 346.87,-111 336.87,-107.5 336.87,-114.5"/>
</a>
</g>
</g>
<!-- Node15 -->
<g id="Node000015" class="node">
<title>Node15</title>
<g id="a_Node000015"><a xlink:href="classwmtk_1_1dart_1_1_simplex_dart.html#a75defb2c9d167b36c7fc73cd7d5bba60" target="_top" xlink:title=" ">
<polygon fill="white" stroke="#666666" points="499,-78 362,-78 362,-48 499,-48 499,-78"/>
<text text-anchor="start" x="370" y="-66" font-family="Helvetica,sans-Serif" font-size="10.00">wmtk::dart::SimplexDart</text>
<text text-anchor="middle" x="430.5" y="-55" font-family="Helvetica,sans-Serif" font-size="10.00">::simplex_type</text>
</a>
</g>
</g>
<!-- Node2&#45;&gt;Node15 -->
<g id="edge17_Node000002_Node000015" class="edge">
<title>Node2&#45;&gt;Node15</title>
<g id="a_edge17_Node000002_Node000015"><a xlink:title=" ">
<path fill="none" stroke="#63b8ff" d="M300.81,-95.94C319.92,-91.05 341.29,-85.58 361.04,-80.52"/>
<polygon fill="#63b8ff" stroke="#63b8ff" points="362.08,-83.87 370.9,-78 360.34,-77.09 362.08,-83.87"/>
</a>
</g>
</g>
<!-- Node6 -->
<g id="Node000006" class="node">
<title>Node6</title>
<g id="a_Node000006"><a xlink:href="namespacewmtk_1_1autogen_1_1edge__mesh.html#ab110df2d03a15f064e8c11baff7a0af1" target="_top" xlink:title=" ">
<polygon fill="white" stroke="#666666" points="697,-190.5 550,-190.5 550,-149.5 697,-149.5 697,-190.5"/>
<text text-anchor="start" x="558" y="-178.5" font-family="Helvetica,sans-Serif" font-size="10.00">wmtk::autogen::edge</text>
<text text-anchor="start" x="558" y="-167.5" font-family="Helvetica,sans-Serif" font-size="10.00">_mesh::permutation_index</text>
<text text-anchor="middle" x="623.5" y="-156.5" font-family="Helvetica,sans-Serif" font-size="10.00">_from_tuple</text>
</a>
</g>
</g>
<!-- Node5&#45;&gt;Node6 -->
<g id="edge5_Node000005_Node000006" class="edge">
<title>Node5&#45;&gt;Node6</title>
<g id="a_edge5_Node000005_Node000006"><a xlink:title=" ">
<path fill="none" stroke="#63b8ff" d="M481.7,-126.13C492.36,-129.37 503.56,-132.78 514,-136 524.87,-139.35 536.34,-142.91 547.6,-146.43"/>
<polygon fill="#63b8ff" stroke="#63b8ff" points="546.82,-149.85 557.41,-149.49 548.91,-143.17 546.82,-149.85"/>
</a>
</g>
</g>
<!-- Node9 -->
<g id="Node000009" class="node">
<title>Node9</title>
<g id="a_Node000009"><a xlink:href="namespacewmtk_1_1autogen_1_1tet__mesh.html#a8087691d4dd17f9001503a1f57362ecc" target="_top" xlink:title=" ">
<polygon fill="white" stroke="#666666" points="697,-72.5 550,-72.5 550,-31.5 697,-31.5 697,-72.5"/>
<text text-anchor="start" x="558" y="-60.5" font-family="Helvetica,sans-Serif" font-size="10.00">wmtk::autogen::tet</text>
<text text-anchor="start" x="558" y="-49.5" font-family="Helvetica,sans-Serif" font-size="10.00">_mesh::permutation_index</text>
<text text-anchor="middle" x="623.5" y="-38.5" font-family="Helvetica,sans-Serif" font-size="10.00">_from_tuple</text>
</a>
</g>
</g>
<!-- Node5&#45;&gt;Node9 -->
<g id="edge8_Node000005_Node000009" class="edge">
<title>Node5&#45;&gt;Node9</title>
<g id="a_edge8_Node000005_Node000009"><a xlink:title=" ">
<path fill="none" stroke="#63b8ff" d="M483.94,-95.99C493.94,-93.06 504.3,-89.97 514,-87 525.72,-83.41 538.12,-79.5 550.19,-75.65"/>
<polygon fill="#63b8ff" stroke="#63b8ff" points="551.32,-78.96 559.77,-72.58 549.18,-72.29 551.32,-78.96"/>
</a>
</g>
</g>
<!-- Node13 -->
<g id="Node000013" class="node">
<title>Node13</title>
<g id="a_Node000013"><a xlink:href="namespacewmtk_1_1autogen_1_1tri__mesh.html#acda8bc53cd7772a2c5f3209eb646b134" target="_top" xlink:title=" ">
<polygon fill="white" stroke="#666666" points="697,-131.5 550,-131.5 550,-90.5 697,-90.5 697,-131.5"/>
<text text-anchor="start" x="558" y="-119.5" font-family="Helvetica,sans-Serif" font-size="10.00">wmtk::autogen::tri</text>
<text text-anchor="start" x="558" y="-108.5" font-family="Helvetica,sans-Serif" font-size="10.00">_mesh::permutation_index</text>
<text text-anchor="middle" x="623.5" y="-97.5" font-family="Helvetica,sans-Serif" font-size="10.00">_from_tuple</text>
</a>
</g>
</g>
<!-- Node5&#45;&gt;Node13 -->
<g id="edge13_Node000005_Node000013" class="edge">
<title>Node5&#45;&gt;Node13</title>
<g id="a_edge13_Node000005_Node000013"><a xlink:title=" ">
<path fill="none" stroke="#63b8ff" d="M514.16,-111C522.62,-111 531.22,-111 539.68,-111"/>
<polygon fill="#63b8ff" stroke="#63b8ff" points="539.91,-114.5 549.91,-111 539.91,-107.5 539.91,-114.5"/>
</a>
</g>
</g>
<!-- Node7 -->
<g id="Node000007" class="node">
<title>Node7</title>
<g id="a_Node000007"><a xlink:href="namespacewmtk_1_1autogen_1_1edge__mesh.html#a98217b7273dcb36d27cdf2723bc25c48" target="_top" xlink:title=" ">
<polygon fill="white" stroke="#666666" points="855,-190.5 733,-190.5 733,-149.5 855,-149.5 855,-190.5"/>
<text text-anchor="start" x="741" y="-178.5" font-family="Helvetica,sans-Serif" font-size="10.00">wmtk::autogen::edge</text>
<text text-anchor="start" x="741" y="-167.5" font-family="Helvetica,sans-Serif" font-size="10.00">_mesh::local_id_table</text>
<text text-anchor="middle" x="794" y="-156.5" font-family="Helvetica,sans-Serif" font-size="10.00">_offset</text>
</a>
</g>
</g>
<!-- Node6&#45;&gt;Node7 -->
<g id="edge6_Node000006_Node000007" class="edge">
<title>Node6&#45;&gt;Node7</title>
<g id="a_edge6_Node000006_Node000007"><a xlink:title=" ">
<path fill="none" stroke="#63b8ff" d="M697.43,-170C705.84,-170 714.4,-170 722.77,-170"/>
<polygon fill="#63b8ff" stroke="#63b8ff" points="722.87,-173.5 732.87,-170 722.87,-166.5 722.87,-173.5"/>
</a>
</g>
</g>
<!-- Node8 -->
<g id="Node000008" class="node">
<title>Node8</title>
<g id="a_Node000008"><a xlink:href="classwmtk_1_1_tuple.html#a27f6ee155923e848b461bebea1890abc" target="_top" xlink:title=" ">
<polygon fill="white" stroke="#666666" points="1016,-128.5 891,-128.5 891,-109.5 1016,-109.5 1016,-128.5"/>
<text text-anchor="middle" x="953.5" y="-116.5" font-family="Helvetica,sans-Serif" font-size="10.00">wmtk::Tuple::local_vid</text>
</a>
</g>
</g>
<!-- Node7&#45;&gt;Node8 -->
<g id="edge7_Node000007_Node000008" class="edge">
<title>Node7&#45;&gt;Node8</title>
<g id="a_edge7_Node000007_Node000008"><a xlink:title=" ">
<path fill="none" stroke="#63b8ff" d="M855.44,-150.43C874.73,-144.18 895.57,-137.43 912.98,-131.8"/>
<polygon fill="#63b8ff" stroke="#63b8ff" points="914.36,-135.03 922.79,-128.62 912.2,-128.37 914.36,-135.03"/>
</a>
</g>
</g>
<!-- Node10 -->
<g id="Node000010" class="node">
<title>Node10</title>
<g id="a_Node000010"><a xlink:href="namespacewmtk_1_1autogen_1_1tet__mesh.html#ace6b80b1be9aec0d6a5ac5d144b40965" target="_top" xlink:title=" ">
<polygon fill="white" stroke="#666666" points="855,-72.5 733,-72.5 733,-31.5 855,-31.5 855,-72.5"/>
<text text-anchor="start" x="741" y="-60.5" font-family="Helvetica,sans-Serif" font-size="10.00">wmtk::autogen::tet</text>
<text text-anchor="start" x="741" y="-49.5" font-family="Helvetica,sans-Serif" font-size="10.00">_mesh::local_id_table</text>
<text text-anchor="middle" x="794" y="-38.5" font-family="Helvetica,sans-Serif" font-size="10.00">_offset</text>
</a>
</g>
</g>
<!-- Node9&#45;&gt;Node10 -->
<g id="edge9_Node000009_Node000010" class="edge">
<title>Node9&#45;&gt;Node10</title>
<g id="a_edge9_Node000009_Node000010"><a xlink:title=" ">
<path fill="none" stroke="#63b8ff" d="M697.43,-52C705.84,-52 714.4,-52 722.77,-52"/>
<polygon fill="#63b8ff" stroke="#63b8ff" points="722.87,-55.5 732.87,-52 722.87,-48.5 722.87,-55.5"/>
</a>
</g>
</g>
<!-- Node10&#45;&gt;Node8 -->
<g id="edge12_Node000010_Node000008" class="edge">
<title>Node10&#45;&gt;Node8</title>
<g id="a_edge12_Node000010_Node000008"><a xlink:title=" ">
<path fill="none" stroke="#63b8ff" d="M836.37,-72.54C842.63,-75.68 848.99,-78.91 855,-82 871.09,-90.27 874.23,-94.2 891,-101 895.71,-102.91 900.7,-104.71 905.72,-106.38"/>
<polygon fill="#63b8ff" stroke="#63b8ff" points="904.75,-109.75 915.34,-109.43 906.86,-103.07 904.75,-109.75"/>
</a>
</g>
</g>
<!-- Node11 -->
<g id="Node000011" class="node">
<title>Node11</title>
<g id="a_Node000011"><a xlink:href="classwmtk_1_1_tuple.html#ac3cd5381c7147e3ff35347c574635311" target="_top" xlink:title=" ">
<polygon fill="white" stroke="#666666" points="1016,-91.5 891,-91.5 891,-72.5 1016,-72.5 1016,-91.5"/>
<text text-anchor="middle" x="953.5" y="-79.5" font-family="Helvetica,sans-Serif" font-size="10.00">wmtk::Tuple::local_eid</text>
</a>
</g>
</g>
<!-- Node10&#45;&gt;Node11 -->
<g id="edge10_Node000010_Node000011" class="edge">
<title>Node10&#45;&gt;Node11</title>
<g id="a_edge10_Node000010_Node000011"><a xlink:title=" ">
<path fill="none" stroke="#63b8ff" d="M855.44,-63.51C867.57,-65.82 880.32,-68.25 892.44,-70.56"/>
<polygon fill="#63b8ff" stroke="#63b8ff" points="891.96,-74.03 902.44,-72.47 893.27,-67.16 891.96,-74.03"/>
</a>
</g>
</g>
<!-- Node12 -->
<g id="Node000012" class="node">
<title>Node12</title>
<g id="a_Node000012"><a xlink:href="classwmtk_1_1_tuple.html#ab5fa210c660a9d678768c15d7c4f78f0" target="_top" xlink:title=" ">
<polygon fill="white" stroke="#666666" points="1014.5,-54.5 892.5,-54.5 892.5,-35.5 1014.5,-35.5 1014.5,-54.5"/>
<text text-anchor="middle" x="953.5" y="-42.5" font-family="Helvetica,sans-Serif" font-size="10.00">wmtk::Tuple::local_fid</text>
</a>
</g>
</g>
<!-- Node10&#45;&gt;Node12 -->
<g id="edge11_Node000010_Node000012" class="edge">
<title>Node10&#45;&gt;Node12</title>
<g id="a_edge11_Node000010_Node000012"><a xlink:title=" ">
<path fill="none" stroke="#63b8ff" d="M855.44,-49.31C864.27,-48.92 873.42,-48.51 882.41,-48.12"/>
<polygon fill="#63b8ff" stroke="#63b8ff" points="882.64,-51.61 892.48,-47.67 882.33,-44.62 882.64,-51.61"/>
</a>
</g>
</g>
<!-- Node14 -->
<g id="Node000014" class="node">
<title>Node14</title>
<g id="a_Node000014"><a xlink:href="namespacewmtk_1_1autogen_1_1tri__mesh.html#a1c9b651c47ee993e160a8dca570cf35c" target="_top" xlink:title=" ">
<polygon fill="white" stroke="#666666" points="855,-131.5 733,-131.5 733,-90.5 855,-90.5 855,-131.5"/>
<text text-anchor="start" x="741" y="-119.5" font-family="Helvetica,sans-Serif" font-size="10.00">wmtk::autogen::tri</text>
<text text-anchor="start" x="741" y="-108.5" font-family="Helvetica,sans-Serif" font-size="10.00">_mesh::local_id_table</text>
<text text-anchor="middle" x="794" y="-97.5" font-family="Helvetica,sans-Serif" font-size="10.00">_offset</text>
</a>
</g>
</g>
<!-- Node13&#45;&gt;Node14 -->
<g id="edge14_Node000013_Node000014" class="edge">
<title>Node13&#45;&gt;Node14</title>
<g id="a_edge14_Node000013_Node000014"><a xlink:title=" ">
<path fill="none" stroke="#63b8ff" d="M697.43,-111C705.84,-111 714.4,-111 722.77,-111"/>
<polygon fill="#63b8ff" stroke="#63b8ff" points="722.87,-114.5 732.87,-111 722.87,-107.5 722.87,-114.5"/>
</a>
</g>
</g>
<!-- Node14&#45;&gt;Node8 -->
<g id="edge16_Node000014_Node000008" class="edge">
<title>Node14&#45;&gt;Node8</title>
<g id="a_edge16_Node000014_Node000008"><a xlink:title=" ">
<path fill="none" stroke="#63b8ff" d="M855.44,-114.07C863.71,-114.49 872.26,-114.92 880.7,-115.35"/>
<polygon fill="#63b8ff" stroke="#63b8ff" points="880.75,-118.86 890.92,-115.87 881.11,-111.87 880.75,-118.86"/>
</a>
</g>
</g>
<!-- Node14&#45;&gt;Node11 -->
<g id="edge15_Node000014_Node000011" class="edge">
<title>Node14&#45;&gt;Node11</title>
<g id="a_edge15_Node000014_Node000011"><a xlink:title=" ">
<path fill="none" stroke="#63b8ff" d="M855.44,-99.87C866.98,-97.75 879.08,-95.52 890.66,-93.39"/>
<polygon fill="#63b8ff" stroke="#63b8ff" points="891.48,-96.79 900.68,-91.54 890.21,-89.91 891.48,-96.79"/>
</a>
</g>
</g>
<!-- Node16&#45;&gt;Node15 -->
<g id="edge19_Node000016_Node000015" class="edge">
<title>Node16&#45;&gt;Node15</title>
<g id="a_edge19_Node000016_Node000015"><a xlink:title=" ">
<path fill="none" stroke="#63b8ff" d="M309.69,-63C323.37,-63 337.84,-63 351.83,-63"/>
<polygon fill="#63b8ff" stroke="#63b8ff" points="351.91,-66.5 361.91,-63 351.91,-59.5 351.91,-66.5"/>
</a>
</g>
</g>
</g>
</svg>

<g id="navigator" transform="translate(0 0)" fill="#404254">
  <rect fill="#f2f5e9" fill-opacity="0.5" stroke="#606060" stroke-width=".5" x="0" y="0" width="60" height="60"/>
  <use id="zoomplus" xlink:href="#zoomPlus" x="17" y="9" onmousedown="handleZoom(evt,'in')"/>
  <use id="zoomminus" xlink:href="#zoomMin" x="42" y="9" onmousedown="handleZoom(evt,'out')"/>
  <use id="reset" xlink:href="#resetDef" x="30" y="36" onmousedown="handleReset()"/>
   <use id="arrowup" xlink:href="#arrowUp" x="0" y="0" onmousedown="handlePan(0,-1)"/>
  <use id="arrowright" xlink:href="#arrowRight" x="0" y="0" onmousedown="handlePan(1,0)"/>
  <use id="arrowdown" xlink:href="#arrowDown" x="0" y="0" onmousedown="handlePan(0,1)"/>
  <use id="arrowleft" xlink:href="#arrowLeft" x="0" y="0" onmousedown="handlePan(-1,0)"/>
</g>
<svg viewBox="0 0 15 15" width="100%" height="30px" preserveAspectRatio="xMaxYMin meet">
 <g id="arrow_out" transform="scale(0.3 0.3)">
  <a xlink:href="namespacewmtk_1_1multimesh_1_1utils_abf535fe0916039397c9d87648303316c_cgraph_org.svg" target="_base">
   <rect id="button" ry="5" rx="5" y="6" x="6" height="38" width="38"
        fill="#f2f5e9" fill-opacity="0.5" stroke="#606060" stroke-width="1.0"/>
   <path id="arrow"
     d="M 11.500037,31.436501 C 11.940474,20.09759 22.043105,11.32322 32.158766,21.979434 L 37.068811,17.246167 C 37.068811,17.246167 37.088388,32 37.088388,32 L 22.160133,31.978069 C 22.160133,31.978069 26.997745,27.140456 26.997745,27.140456 C 18.528582,18.264221 13.291696,25.230495 11.500037,31.436501 z"
     style="fill:#404040;"/>
  </a>
 </g>
</svg>

<style type='text/css'>
<![CDATA[
[data-mouse-over-selected='false'] { opacity: 0.7; }
[data-mouse-over-selected='true']  { opacity: 1.0; }
]]>
</style>
<script type="application/ecmascript"><![CDATA[
document.addEventListener('DOMContentLoaded', (event) => {
  highlightEdges();
  highlightAdjacentNodes();
});
]]></script>
</svg>
