<?xml version="1.0" encoding="UTF-8" standalone="no"?>
<!DOCTYPE svg PUBLIC "-//W3C//DTD SVG 1.1//EN"
 "http://www.w3.org/Graphics/SVG/1.1/DTD/svg11.dtd">
<!-- Generated by graphviz version 2.43.0 (0)
 -->
<!-- Title: wmtk::utils::primitive_range Pages: 1 -->
<!--zoomable 632 -->

<svg id="main" version="1.1" xmlns="http://www.w3.org/2000/svg" xmlns:xlink="http://www.w3.org/1999/xlink" xml:space="preserve" onload="init(evt)">
<style type="text/css"><![CDATA[
.node, .edge {opacity: 0.7;}
.node.selected, .edge.selected {opacity: 1;}
.edge:hover path { stroke: red; }
.edge:hover polygon { stroke: red; fill: red; }
]]></style>

<defs>
  <circle id="rim" cx="0" cy="0" r="7"/>
  <circle id="rim2" cx="0" cy="0" r="3.5"/>
  <g id="zoomPlus">
    <use xlink:href="#rim" fill="#404040"><set attributeName="fill" to="#808080" begin="zoomplus.mouseover" end="zoomplus.mouseout"/></use>
    <path d="M-4,0h8M0,-4v8" fill="none" stroke="white" stroke-width="1.5" pointer-events="none"/>
  </g>
  <g id="zoomMin">
    <use xlink:href="#rim" fill="#404040"><set attributeName="fill" to="#808080" begin="zoomminus.mouseover" end="zoomminus.mouseout"/></use>
    <path d="M-4,0h8" fill="none" stroke="white" stroke-width="1.5" pointer-events="none"/>
  </g>
  <g id="arrowUp" transform="translate(30 24)">
    <use xlink:href="#rim"/>
    <path pointer-events="none" fill="none" stroke="white" stroke-width="1.5" d="M0,-3.0v7 M-2.5,-0.5L0,-3.0L2.5,-0.5"/>
  </g>
  <g id="arrowRight" transform="rotate(90) translate(36 -43)">
    <use xlink:href="#rim"/>
    <path pointer-events="none" fill="none" stroke="white" stroke-width="1.5" d="M0,-3.0v7 M-2.5,-0.5L0,-3.0L2.5,-0.5"/>
  </g>
  <g id="arrowDown" transform="rotate(180) translate(-30 -48)">
    <use xlink:href="#rim"/>
    <path pointer-events="none" fill="none" stroke="white" stroke-width="1.5" d="M0,-3.0v7 M-2.5,-0.5L0,-3.0L2.5,-0.5"/>
  </g>
  <g id="arrowLeft" transform="rotate(270) translate(-36 17)">
    <use xlink:href="#rim"/>
    <path pointer-events="none" fill="none" stroke="white" stroke-width="1.5" d="M0,-3.0v7 M-2.5,-0.5L0,-3.0L2.5,-0.5"/>
  </g>
  <g id="resetDef">
    <use xlink:href="#rim2" fill="#404040"><set attributeName="fill" to="#808080" begin="reset.mouseover" end="reset.mouseout"/></use>
  </g>
</defs>
<script type="application/ecmascript">
var viewWidth = 1280;
var viewHeight = 632;
var sectionId = 'dynsection-34';
</script>
<script type="application/ecmascript" xlink:href="svg.min.js"/>
<svg id="graph" class="graph">
<g id="viewport">
<title>wmtk::utils::primitive_range</title>
<!-- Node1 -->
<g id="Node000001" class="node">
<title>Node1</title>
<g id="a_Node000001"><a xlink:title=" ">
<polygon fill="#999999" stroke="#666666" points="1272,-259.5 1150,-259.5 1150,-229.5 1272,-229.5 1272,-259.5"/>
<text text-anchor="start" x="1158" y="-247.5" font-family="Helvetica,sans-Serif" font-size="10.00">wmtk::utils::primitive</text>
<text text-anchor="middle" x="1211" y="-236.5" font-family="Helvetica,sans-Serif" font-size="10.00">_range</text>
</a>
</g>
</g>
<!-- Node2 -->
<g id="Node000002" class="node">
<title>Node2</title>
<g id="a_Node000002"><a xlink:href="namespacewmtk_1_1simplex.html#abee08ace6632fab4e958282840e65e43" target="_top" xlink:title=" ">
<polygon fill="white" stroke="#666666" points="1108,-310.5 965,-310.5 965,-280.5 1108,-280.5 1108,-310.5"/>
<text text-anchor="start" x="973" y="-298.5" font-family="Helvetica,sans-Serif" font-size="10.00">wmtk::simplex::cofaces</text>
<text text-anchor="middle" x="1036.5" y="-287.5" font-family="Helvetica,sans-Serif" font-size="10.00">_single_dimension_tuples</text>
</a>
</g>
</g>
<!-- Node1&#45;&gt;Node2 -->
<g id="edge1_Node000001_Node000002" class="edge">
<title>Node1&#45;&gt;Node2</title>
<g id="a_edge1_Node000001_Node000002"><a xlink:title=" ">
<path fill="none" stroke="#63b8ff" d="M1149.54,-262.38C1129.52,-268.29 1107.47,-274.81 1088.26,-280.49"/>
<polygon fill="#63b8ff" stroke="#63b8ff" points="1150.58,-265.72 1159.18,-259.53 1148.6,-259 1150.58,-265.72"/>
</a>
</g>
</g>
<!-- Node25 -->
<g id="Node000025" class="node">
<title>Node25</title>
<g id="a_Node000025"><a xlink:href="namespacewmtk_1_1simplex.html#a9596b1dd0c3bbd8fc2dc1faac7321034" target="_top" xlink:title="Compute all tuples that contain simplex(ptype1, t) and that are contained by simplex(ptype2,...">
<polygon fill="white" stroke="#666666" points="1114,-235.5 959,-235.5 959,-205.5 1114,-205.5 1114,-235.5"/>
<text text-anchor="start" x="967" y="-223.5" font-family="Helvetica,sans-Serif" font-size="10.00">wmtk::simplex::tuples</text>
<text text-anchor="middle" x="1036.5" y="-212.5" font-family="Helvetica,sans-Serif" font-size="10.00">_preserving_primitive_types</text>
</a>
</g>
</g>
<!-- Node1&#45;&gt;Node25 -->
<g id="edge24_Node000001_Node000025" class="edge">
<title>Node1&#45;&gt;Node25</title>
<g id="a_edge24_Node000001_Node000025"><a xlink:title=" ">
<path fill="none" stroke="#63b8ff" d="M1139.58,-234.7C1131.21,-233.54 1122.63,-232.34 1114.17,-231.17"/>
<polygon fill="#63b8ff" stroke="#63b8ff" points="1139.28,-238.19 1149.67,-236.11 1140.25,-231.26 1139.28,-238.19"/>
</a>
</g>
</g>
<!-- Node3 -->
<g id="Node000003" class="node">
<title>Node3</title>
<g id="a_Node000003"><a xlink:href="namespacewmtk_1_1simplex.html#a996a48358d73e378978c6d5827cb3212" target="_top" xlink:title=" ">
<polygon fill="white" stroke="#666666" points="919.5,-479.5 760.5,-479.5 760.5,-449.5 919.5,-449.5 919.5,-479.5"/>
<text text-anchor="start" x="768.5" y="-467.5" font-family="Helvetica,sans-Serif" font-size="10.00">wmtk::simplex::cofaces</text>
<text text-anchor="middle" x="840" y="-456.5" font-family="Helvetica,sans-Serif" font-size="10.00">_single_dimension_simplices</text>
</a>
</g>
</g>
<!-- Node2&#45;&gt;Node3 -->
<g id="edge2_Node000002_Node000003" class="edge">
<title>Node2&#45;&gt;Node3</title>
<g id="a_edge2_Node000002_Node000003"><a xlink:title=" ">
<path fill="none" stroke="#63b8ff" d="M1010.16,-317.52C970.04,-352.38 892.92,-419.39 858.42,-449.36"/>
<polygon fill="#63b8ff" stroke="#63b8ff" points="1012.64,-320 1017.9,-310.8 1008.05,-314.71 1012.64,-320"/>
</a>
</g>
</g>
<!-- Node15 -->
<g id="Node000015" class="node">
<title>Node15</title>
<g id="a_Node000015"><a xlink:href="namespacewmtk_1_1simplex.html#afd2106f339bdd57f0f6e392cbd742d4a" target="_top" xlink:title=" ">
<polygon fill="white" stroke="#666666" points="919.5,-382.5 760.5,-382.5 760.5,-352.5 919.5,-352.5 919.5,-382.5"/>
<text text-anchor="start" x="768.5" y="-370.5" font-family="Helvetica,sans-Serif" font-size="10.00">wmtk::simplex::cofaces</text>
<text text-anchor="middle" x="840" y="-359.5" font-family="Helvetica,sans-Serif" font-size="10.00">_single_dimension_simplices</text>
</a>
</g>
</g>
<!-- Node2&#45;&gt;Node15 -->
<g id="edge14_Node000002_Node000015" class="edge">
<title>Node2&#45;&gt;Node15</title>
<g id="a_edge14_Node000002_Node000015"><a xlink:title=" ">
<path fill="none" stroke="#63b8ff" d="M993.66,-314.75C972.69,-324.04 946.75,-334.99 923,-343.5 914.34,-346.6 905.07,-349.61 895.98,-352.38"/>
<polygon fill="#63b8ff" stroke="#63b8ff" points="995.22,-317.89 1002.93,-310.61 992.37,-311.5 995.22,-317.89"/>
</a>
</g>
</g>
<!-- Node16 -->
<g id="Node000016" class="node">
<title>Node16</title>
<g id="a_Node000016"><a xlink:href="classwmtk_1_1multimesh_1_1_multi_mesh_manager.html#ad327312fd1808a9def38d576eb0a1557" target="_top" xlink:title=" ">
<polygon fill="white" stroke="#666666" points="923,-334.5 757,-334.5 757,-304.5 923,-304.5 923,-334.5"/>
<text text-anchor="start" x="765" y="-322.5" font-family="Helvetica,sans-Serif" font-size="10.00">wmtk::multimesh::MultiMesh</text>
<text text-anchor="middle" x="840" y="-311.5" font-family="Helvetica,sans-Serif" font-size="10.00">Manager::map_to_child_tuples</text>
</a>
</g>
</g>
<!-- Node2&#45;&gt;Node16 -->
<g id="edge15_Node000002_Node000016" class="edge">
<title>Node2&#45;&gt;Node16</title>
<g id="a_edge15_Node000002_Node000016"><a xlink:title=" ">
<path fill="none" stroke="#63b8ff" d="M954.51,-305.49C944.19,-306.77 933.61,-308.07 923.27,-309.35"/>
<polygon fill="#63b8ff" stroke="#63b8ff" points="955.23,-308.93 964.73,-304.23 954.38,-301.98 955.23,-308.93"/>
</a>
</g>
</g>
<!-- Node17 -->
<g id="Node000017" class="node">
<title>Node17</title>
<g id="a_Node000017"><a xlink:href="namespacewmtk_1_1simplex.html#a15e2b37cbcf34fa9fcd27d3449866254" target="_top" xlink:title=" ">
<polygon fill="white" stroke="#666666" points="911.5,-286.5 768.5,-286.5 768.5,-256.5 911.5,-256.5 911.5,-286.5"/>
<text text-anchor="start" x="776.5" y="-274.5" font-family="Helvetica,sans-Serif" font-size="10.00">wmtk::simplex::neighbors</text>
<text text-anchor="middle" x="840" y="-263.5" font-family="Helvetica,sans-Serif" font-size="10.00">_single_dimension_tuples</text>
</a>
</g>
</g>
<!-- Node2&#45;&gt;Node17 -->
<g id="edge16_Node000002_Node000017" class="edge">
<title>Node2&#45;&gt;Node17</title>
<g id="a_edge16_Node000002_Node000017"><a xlink:title=" ">
<path fill="none" stroke="#63b8ff" d="M954.49,-285.5C940.29,-283.75 925.61,-281.94 911.72,-280.23"/>
<polygon fill="#63b8ff" stroke="#63b8ff" points="954.38,-289.02 964.73,-286.77 955.23,-282.07 954.38,-289.02"/>
</a>
</g>
</g>
<!-- Node21 -->
<g id="Node000021" class="node">
<title>Node21</title>
<g id="a_Node000021"><a xlink:href="classwmtk_1_1components_1_1_marching.html#a93c8d735afd009d73bfc4700b4f8e3f6" target="_top" xlink:title="Perform the actual marching.">
<polygon fill="white" stroke="#666666" points="920.5,-238.5 759.5,-238.5 759.5,-208.5 920.5,-208.5 920.5,-238.5"/>
<text text-anchor="start" x="767.5" y="-226.5" font-family="Helvetica,sans-Serif" font-size="10.00">wmtk::components::Marching</text>
<text text-anchor="middle" x="840" y="-215.5" font-family="Helvetica,sans-Serif" font-size="10.00">::process</text>
</a>
</g>
</g>
<!-- Node2&#45;&gt;Node21 -->
<g id="edge20_Node000002_Node000021" class="edge">
<title>Node2&#45;&gt;Node21</title>
<g id="a_edge20_Node000002_Node000021"><a xlink:title=" ">
<path fill="none" stroke="#63b8ff" d="M993.66,-276.25C972.69,-266.96 946.75,-256.01 923,-247.5 914.34,-244.4 905.07,-241.39 895.98,-238.62"/>
<polygon fill="#63b8ff" stroke="#63b8ff" points="992.37,-279.5 1002.93,-280.39 995.22,-273.11 992.37,-279.5"/>
</a>
</g>
</g>
<!-- Node4 -->
<g id="Node000004" class="node">
<title>Node4</title>
<g id="a_Node000004"><a xlink:href="namespacewmtk_1_1simplex.html#a822a4b42dd4b13153cbac8ffac5dca9c" target="_top" xlink:title="Returns all cofaces of a simplex that are of the provided primitive type.">
<polygon fill="white" stroke="#666666" points="686.5,-623.5 553.5,-623.5 553.5,-593.5 686.5,-593.5 686.5,-623.5"/>
<text text-anchor="start" x="561.5" y="-611.5" font-family="Helvetica,sans-Serif" font-size="10.00">wmtk::simplex::cofaces</text>
<text text-anchor="middle" x="620" y="-600.5" font-family="Helvetica,sans-Serif" font-size="10.00">_single_dimension</text>
</a>
</g>
</g>
<!-- Node3&#45;&gt;Node4 -->
<g id="edge3_Node000003_Node000004" class="edge">
<title>Node3&#45;&gt;Node4</title>
<g id="a_edge3_Node000003_Node000004"><a xlink:title=" ">
<path fill="none" stroke="#63b8ff" d="M822.5,-487.92C801.92,-515.34 764.14,-560.1 721,-584.5 710.51,-590.43 698.6,-594.9 686.75,-598.27"/>
<polygon fill="#63b8ff" stroke="#63b8ff" points="825.46,-489.81 828.57,-479.68 819.82,-485.66 825.46,-489.81"/>
</a>
</g>
</g>
<!-- Node5 -->
<g id="Node000005" class="node">
<title>Node5</title>
<g id="a_Node000005"><a xlink:href="namespacewmtk_1_1simplex.html#a938ea4ec9739ae5cdbd1d7a4976698a1" target="_top" xlink:title=" ">
<polygon fill="white" stroke="#666666" points="686.5,-575.5 553.5,-575.5 553.5,-545.5 686.5,-545.5 686.5,-575.5"/>
<text text-anchor="start" x="561.5" y="-563.5" font-family="Helvetica,sans-Serif" font-size="10.00">wmtk::simplex::cofaces</text>
<text text-anchor="middle" x="620" y="-552.5" font-family="Helvetica,sans-Serif" font-size="10.00">_single_dimension</text>
</a>
</g>
</g>
<!-- Node3&#45;&gt;Node5 -->
<g id="edge4_Node000003_Node000005" class="edge">
<title>Node3&#45;&gt;Node5</title>
<g id="a_edge4_Node000003_Node000005"><a xlink:title=" ">
<path fill="none" stroke="#63b8ff" d="M810.45,-485.45C787.35,-501.5 753.45,-523.1 721,-536.5 710.19,-540.96 698.37,-544.72 686.75,-547.83"/>
<polygon fill="#63b8ff" stroke="#63b8ff" points="812.59,-488.22 818.74,-479.59 808.55,-482.5 812.59,-488.22"/>
</a>
</g>
</g>
<!-- Node6 -->
<g id="Node000006" class="node">
<title>Node6</title>
<g id="a_Node000006"><a xlink:href="classwmtk_1_1function_1_1_local_neighbors_sum_function.html#a9a8a406910f491899eaaa0c8e5b400c2" target="_top" xlink:title=" ">
<polygon fill="white" stroke="#666666" points="705.5,-527.5 534.5,-527.5 534.5,-497.5 705.5,-497.5 705.5,-527.5"/>
<text text-anchor="start" x="542.5" y="-515.5" font-family="Helvetica,sans-Serif" font-size="10.00">wmtk::function::LocalNeighbors</text>
<text text-anchor="middle" x="620" y="-504.5" font-family="Helvetica,sans-Serif" font-size="10.00">SumFunction::domain</text>
</a>
</g>
</g>
<!-- Node3&#45;&gt;Node6 -->
<g id="edge5_Node000003_Node000006" class="edge">
<title>Node3&#45;&gt;Node6</title>
<g id="a_edge5_Node000003_Node000006"><a xlink:title=" ">
<path fill="none" stroke="#63b8ff" d="M760.73,-481.73C737.31,-486.89 711.84,-492.5 689.14,-497.5"/>
<polygon fill="#63b8ff" stroke="#63b8ff" points="761.61,-485.12 770.62,-479.56 760.1,-478.29 761.61,-485.12"/>
</a>
</g>
</g>
<!-- Node10 -->
<g id="Node000010" class="node">
<title>Node10</title>
<g id="a_Node000010"><a xlink:href="classwmtk_1_1operations_1_1_a_m_i_p_s_optimization_smoothing.html#a2c409cd3da46f4360119e142ef3c3682" target="_top" xlink:title="returns an empty vector in case of failure">
<polygon fill="white" stroke="#666666" points="721,-479.5 519,-479.5 519,-449.5 721,-449.5 721,-479.5"/>
<text text-anchor="start" x="527" y="-467.5" font-family="Helvetica,sans-Serif" font-size="10.00">wmtk::operations::AMIPSOptimization</text>
<text text-anchor="middle" x="620" y="-456.5" font-family="Helvetica,sans-Serif" font-size="10.00">Smoothing::execute</text>
</a>
</g>
</g>
<!-- Node3&#45;&gt;Node10 -->
<g id="edge9_Node000003_Node000010" class="edge">
<title>Node3&#45;&gt;Node10</title>
<g id="a_edge9_Node000003_Node000010"><a xlink:title=" ">
<path fill="none" stroke="#63b8ff" d="M750.08,-464.5C740.57,-464.5 730.85,-464.5 721.23,-464.5"/>
<polygon fill="#63b8ff" stroke="#63b8ff" points="750.3,-468 760.3,-464.5 750.3,-461 750.3,-468"/>
</a>
</g>
</g>
<!-- Node11 -->
<g id="Node000011" class="node">
<title>Node11</title>
<g id="a_Node000011"><a xlink:href="classwmtk_1_1operations_1_1_a_m_i_p_s_optimization_smoothing_periodic.html#a86df18fe3713cb41dca1687487dea61b" target="_top" xlink:title="returns an empty vector in case of failure">
<polygon fill="white" stroke="#666666" points="721,-431.5 519,-431.5 519,-401.5 721,-401.5 721,-431.5"/>
<text text-anchor="start" x="527" y="-419.5" font-family="Helvetica,sans-Serif" font-size="10.00">wmtk::operations::AMIPSOptimization</text>
<text text-anchor="middle" x="620" y="-408.5" font-family="Helvetica,sans-Serif" font-size="10.00">SmoothingPeriodic::execute</text>
</a>
</g>
</g>
<!-- Node3&#45;&gt;Node11 -->
<g id="edge10_Node000003_Node000011" class="edge">
<title>Node3&#45;&gt;Node11</title>
<g id="a_edge10_Node000003_Node000011"><a xlink:title=" ">
<path fill="none" stroke="#63b8ff" d="M760.73,-447.27C737.31,-442.11 711.84,-436.5 689.14,-431.5"/>
<polygon fill="#63b8ff" stroke="#63b8ff" points="760.1,-450.71 770.62,-449.44 761.61,-443.88 760.1,-450.71"/>
</a>
</g>
</g>
<!-- Node12 -->
<g id="Node000012" class="node">
<title>Node12</title>
<g id="a_Node000012"><a xlink:href="namespacewmtk_1_1simplex.html#ab6c9b8aa48fb55fb4bbab2e543b982e7" target="_top" xlink:title=" ">
<polygon fill="white" stroke="#666666" points="691.5,-383.5 548.5,-383.5 548.5,-353.5 691.5,-353.5 691.5,-383.5"/>
<text text-anchor="start" x="556.5" y="-371.5" font-family="Helvetica,sans-Serif" font-size="10.00">wmtk::simplex::neighbors</text>
<text text-anchor="middle" x="620" y="-360.5" font-family="Helvetica,sans-Serif" font-size="10.00">_single_dimension</text>
</a>
</g>
</g>
<!-- Node3&#45;&gt;Node12 -->
<g id="edge11_Node000003_Node000012" class="edge">
<title>Node3&#45;&gt;Node12</title>
<g id="a_edge11_Node000003_Node000012"><a xlink:title=" ">
<path fill="none" stroke="#63b8ff" d="M810.45,-443.55C787.35,-427.5 753.45,-405.9 721,-392.5 711.68,-388.65 701.6,-385.33 691.55,-382.49"/>
<polygon fill="#63b8ff" stroke="#63b8ff" points="808.55,-446.5 818.74,-449.41 812.59,-440.78 808.55,-446.5"/>
</a>
</g>
</g>
<!-- Node7 -->
<g id="Node000007" class="node">
<title>Node7</title>
<g id="a_Node000007"><a xlink:href="classwmtk_1_1function_1_1_local_neighbors_sum_function.html#a8f4a1942d320c2d613d1af447738f1ea" target="_top" xlink:title="get_gradient collects the local neigh and call the gradient of m_function on all simplicies">
<polygon fill="white" stroke="#666666" points="483,-575.5 312,-575.5 312,-545.5 483,-545.5 483,-575.5"/>
<text text-anchor="start" x="320" y="-563.5" font-family="Helvetica,sans-Serif" font-size="10.00">wmtk::function::LocalNeighbors</text>
<text text-anchor="middle" x="397.5" y="-552.5" font-family="Helvetica,sans-Serif" font-size="10.00">SumFunction::get_gradient</text>
</a>
</g>
</g>
<!-- Node6&#45;&gt;Node7 -->
<g id="edge6_Node000006_Node000007" class="edge">
<title>Node6&#45;&gt;Node7</title>
<g id="a_edge6_Node000006_Node000007"><a xlink:title=" ">
<path fill="none" stroke="#63b8ff" d="M539.83,-529.73C516.15,-534.89 490.38,-540.5 467.42,-545.5"/>
<polygon fill="#63b8ff" stroke="#63b8ff" points="540.81,-533.1 549.84,-527.56 539.32,-526.26 540.81,-533.1"/>
</a>
</g>
</g>
<!-- Node8 -->
<g id="Node000008" class="node">
<title>Node8</title>
<g id="a_Node000008"><a xlink:href="classwmtk_1_1function_1_1_local_neighbors_sum_function.html#a45bfd84c9f092364f449605199731442" target="_top" xlink:title="get_hessian evaluates the hessian of the function f(x) defined wrt the variable x.">
<polygon fill="white" stroke="#666666" points="483,-527.5 312,-527.5 312,-497.5 483,-497.5 483,-527.5"/>
<text text-anchor="start" x="320" y="-515.5" font-family="Helvetica,sans-Serif" font-size="10.00">wmtk::function::LocalNeighbors</text>
<text text-anchor="middle" x="397.5" y="-504.5" font-family="Helvetica,sans-Serif" font-size="10.00">SumFunction::get_hessian</text>
</a>
</g>
</g>
<!-- Node6&#45;&gt;Node8 -->
<g id="edge7_Node000006_Node000008" class="edge">
<title>Node6&#45;&gt;Node8</title>
<g id="a_edge7_Node000006_Node000008"><a xlink:title=" ">
<path fill="none" stroke="#63b8ff" d="M524.08,-512.5C510.51,-512.5 496.62,-512.5 483.26,-512.5"/>
<polygon fill="#63b8ff" stroke="#63b8ff" points="524.38,-516 534.38,-512.5 524.38,-509 524.38,-516"/>
</a>
</g>
</g>
<!-- Node9 -->
<g id="Node000009" class="node">
<title>Node9</title>
<g id="a_Node000009"><a xlink:href="classwmtk_1_1function_1_1_local_neighbors_sum_function.html#a0b81383595fa81fb270266bb6cee71da" target="_top" xlink:title="collects the local neigh and call the same m_function on all simplicies">
<polygon fill="white" stroke="#666666" points="483,-479.5 312,-479.5 312,-449.5 483,-449.5 483,-479.5"/>
<text text-anchor="start" x="320" y="-467.5" font-family="Helvetica,sans-Serif" font-size="10.00">wmtk::function::LocalNeighbors</text>
<text text-anchor="middle" x="397.5" y="-456.5" font-family="Helvetica,sans-Serif" font-size="10.00">SumFunction::get_value</text>
</a>
</g>
</g>
<!-- Node6&#45;&gt;Node9 -->
<g id="edge8_Node000006_Node000009" class="edge">
<title>Node6&#45;&gt;Node9</title>
<g id="a_edge8_Node000006_Node000009"><a xlink:title=" ">
<path fill="none" stroke="#63b8ff" d="M539.83,-495.27C516.15,-490.11 490.38,-484.5 467.42,-479.5"/>
<polygon fill="#63b8ff" stroke="#63b8ff" points="539.32,-498.74 549.84,-497.44 540.81,-491.9 539.32,-498.74"/>
</a>
</g>
</g>
<!-- Node13 -->
<g id="Node000013" class="node">
<title>Node13</title>
<g id="a_Node000013"><a xlink:href="classwmtk_1_1invariants_1_1_cannot_map_simplex_invariant.html#ae02ff77957e1772a0fd625db5edde307" target="_top" xlink:title=" ">
<polygon fill="white" stroke="#666666" points="476.5,-410 318.5,-410 318.5,-369 476.5,-369 476.5,-410"/>
<text text-anchor="start" x="326.5" y="-398" font-family="Helvetica,sans-Serif" font-size="10.00">wmtk::invariants::Cannot</text>
<text text-anchor="start" x="326.5" y="-387" font-family="Helvetica,sans-Serif" font-size="10.00">MapSimplexInvariant::before</text>
<text text-anchor="middle" x="397.5" y="-376" font-family="Helvetica,sans-Serif" font-size="10.00">_default</text>
</a>
</g>
</g>
<!-- Node12&#45;&gt;Node13 -->
<g id="edge12_Node000012_Node000013" class="edge">
<title>Node12&#45;&gt;Node13</title>
<g id="a_edge12_Node000012_Node000013"><a xlink:title=" ">
<path fill="none" stroke="#63b8ff" d="M538.29,-376.19C518.22,-378.1 496.75,-380.14 476.8,-382.04"/>
<polygon fill="#63b8ff" stroke="#63b8ff" points="538.7,-379.66 548.32,-375.23 538.04,-372.7 538.7,-379.66"/>
</a>
</g>
</g>
<!-- Node14 -->
<g id="Node000014" class="node">
<title>Node14</title>
<g id="a_Node000014"><a xlink:href="classwmtk_1_1invariants_1_1_cannot_map_simplex_invariant.html#abb121fdae7238d37c098ce8f1555664a" target="_top" xlink:title=" ">
<polygon fill="white" stroke="#666666" points="270.5,-404.5 112.5,-404.5 112.5,-374.5 270.5,-374.5 270.5,-404.5"/>
<text text-anchor="start" x="120.5" y="-392.5" font-family="Helvetica,sans-Serif" font-size="10.00">wmtk::invariants::Cannot</text>
<text text-anchor="middle" x="191.5" y="-381.5" font-family="Helvetica,sans-Serif" font-size="10.00">MapSimplexInvariant::before</text>
</a>
</g>
</g>
<!-- Node13&#45;&gt;Node14 -->
<g id="edge13_Node000013_Node000014" class="edge">
<title>Node13&#45;&gt;Node14</title>
<g id="a_edge13_Node000013_Node000014"><a xlink:title=" ">
<path fill="none" stroke="#63b8ff" d="M307.87,-389.5C295.45,-389.5 282.78,-389.5 270.58,-389.5"/>
<polygon fill="#63b8ff" stroke="#63b8ff" points="308.21,-393 318.21,-389.5 308.21,-386 308.21,-393"/>
</a>
</g>
</g>
<!-- Node18 -->
<g id="Node000018" class="node">
<title>Node18</title>
<g id="a_Node000018"><a xlink:href="classwmtk_1_1operations_1_1_attribute_transfer_strategy_base.html#a6883c6416f61c4ee06588a86c3b8d731" target="_top" xlink:title=" ">
<polygon fill="white" stroke="#666666" points="695.5,-292 544.5,-292 544.5,-251 695.5,-251 695.5,-292"/>
<text text-anchor="start" x="552.5" y="-280" font-family="Helvetica,sans-Serif" font-size="10.00">wmtk::operations::Attribute</text>
<text text-anchor="start" x="552.5" y="-269" font-family="Helvetica,sans-Serif" font-size="10.00">TransferStrategyBase::get</text>
<text text-anchor="middle" x="620" y="-258" font-family="Helvetica,sans-Serif" font-size="10.00">_parent_simplices</text>
</a>
</g>
</g>
<!-- Node17&#45;&gt;Node18 -->
<g id="edge17_Node000017_Node000018" class="edge">
<title>Node17&#45;&gt;Node18</title>
<g id="a_edge17_Node000017_Node000018"><a xlink:title=" ">
<path fill="none" stroke="#63b8ff" d="M757.99,-271.5C737.53,-271.5 715.67,-271.5 695.55,-271.5"/>
<polygon fill="#63b8ff" stroke="#63b8ff" points="758.22,-275 768.22,-271.5 758.22,-268 758.22,-275"/>
</a>
</g>
</g>
<!-- Node19 -->
<g id="Node000019" class="node">
<title>Node19</title>
<g id="a_Node000019"><a xlink:href="classwmtk_1_1operations_1_1_attribute_transfer_strategy_base.html#aa5e03221c4b6b49e1892ed464d84c0cd" target="_top" xlink:title=" ">
<polygon fill="white" stroke="#666666" points="473,-351 322,-351 322,-310 473,-310 473,-351"/>
<text text-anchor="start" x="330" y="-339" font-family="Helvetica,sans-Serif" font-size="10.00">wmtk::operations::Attribute</text>
<text text-anchor="start" x="330" y="-328" font-family="Helvetica,sans-Serif" font-size="10.00">TransferStrategyBase::get</text>
<text text-anchor="middle" x="397.5" y="-317" font-family="Helvetica,sans-Serif" font-size="10.00">_parent_simplices</text>
</a>
</g>
</g>
<!-- Node18&#45;&gt;Node19 -->
<g id="edge18_Node000018_Node000019" class="edge">
<title>Node18&#45;&gt;Node19</title>
<g id="a_edge18_Node000018_Node000019"><a xlink:title=" ">
<path fill="none" stroke="#63b8ff" d="M534.53,-294.1C514.29,-299.52 492.83,-305.26 473.07,-310.55"/>
<polygon fill="#63b8ff" stroke="#63b8ff" points="535.59,-297.44 544.35,-291.47 533.78,-290.68 535.59,-297.44"/>
</a>
</g>
</g>
<!-- Node20 -->
<g id="Node000020" class="node">
<title>Node20</title>
<g id="a_Node000020"><a xlink:href="classwmtk_1_1operations_1_1_single_attribute_transfer_strategy.html#a0f3548b1b037a88b10a17f0a8e6d17db" target="_top" xlink:title=" ">
<polygon fill="white" stroke="#666666" points="467.5,-292 327.5,-292 327.5,-251 467.5,-251 467.5,-292"/>
<text text-anchor="start" x="335.5" y="-280" font-family="Helvetica,sans-Serif" font-size="10.00">wmtk::operations::Single</text>
<text text-anchor="start" x="335.5" y="-269" font-family="Helvetica,sans-Serif" font-size="10.00">AttributeTransferStrategy</text>
<text text-anchor="middle" x="397.5" y="-258" font-family="Helvetica,sans-Serif" font-size="10.00">::read_parent_values</text>
</a>
</g>
</g>
<!-- Node18&#45;&gt;Node20 -->
<g id="edge19_Node000018_Node000020" class="edge">
<title>Node18&#45;&gt;Node20</title>
<g id="a_edge19_Node000018_Node000020"><a xlink:title=" ">
<path fill="none" stroke="#63b8ff" d="M534.31,-271.5C512.22,-271.5 488.67,-271.5 467.5,-271.5"/>
<polygon fill="#63b8ff" stroke="#63b8ff" points="534.35,-275 544.35,-271.5 534.35,-268 534.35,-275"/>
</a>
</g>
</g>
<!-- Node22 -->
<g id="Node000022" class="node">
<title>Node22</title>
<g id="a_Node000022"><a xlink:href="namespacewmtk_1_1components.html#a6f27411696c9ba6e294768451f31351f" target="_top" xlink:title="Perform maching tetrahedra/triangles.">
<polygon fill="white" stroke="#666666" points="701,-233 539,-233 539,-214 701,-214 701,-233"/>
<text text-anchor="middle" x="620" y="-221" font-family="Helvetica,sans-Serif" font-size="10.00">wmtk::components::marching</text>
</a>
</g>
</g>
<!-- Node21&#45;&gt;Node22 -->
<g id="edge21_Node000021_Node000022" class="edge">
<title>Node21&#45;&gt;Node22</title>
<g id="a_edge21_Node000021_Node000022"><a xlink:title=" ">
<path fill="none" stroke="#63b8ff" d="M749.03,-223.5C733.16,-223.5 716.73,-223.5 701.14,-223.5"/>
<polygon fill="#63b8ff" stroke="#63b8ff" points="749.37,-227 759.37,-223.5 749.37,-220 749.37,-227"/>
</a>
</g>
</g>
<!-- Node23 -->
<g id="Node000023" class="node">
<title>Node23</title>
<g id="a_Node000023"><a xlink:href="tests_2marching_8cpp.html#a74e4ea64dd134ace15ef3292b4eb9753" target="_top" xlink:title=" ">
<polygon fill="white" stroke="#666666" points="433,-233 362,-233 362,-214 433,-214 433,-233"/>
<text text-anchor="middle" x="397.5" y="-221" font-family="Helvetica,sans-Serif" font-size="10.00">TEST_CASE</text>
</a>
</g>
</g>
<!-- Node22&#45;&gt;Node23 -->
<g id="edge22_Node000022_Node000023" class="edge">
<title>Node22&#45;&gt;Node23</title>
<g id="a_edge22_Node000022_Node000023"><a xlink:title=" ">
<path fill="none" stroke="#63b8ff" d="M528.44,-223.5C494.86,-223.5 458.76,-223.5 433.16,-223.5"/>
<polygon fill="#63b8ff" stroke="#63b8ff" points="528.77,-227 538.77,-223.5 528.77,-220 528.77,-227"/>
</a>
</g>
</g>
<!-- Node24 -->
<g id="Node000024" class="node">
<title>Node24</title>
<g id="a_Node000024"><a xlink:href="tests_2marching_8cpp.html#af20fbc246d1ad31be8d9ec0011ac52d6" target="_top" xlink:title=" ">
<polygon fill="white" stroke="#666666" points="433,-196 362,-196 362,-177 433,-177 433,-196"/>
<text text-anchor="middle" x="397.5" y="-184" font-family="Helvetica,sans-Serif" font-size="10.00">TEST_CASE</text>
</a>
</g>
</g>
<!-- Node22&#45;&gt;Node24 -->
<g id="edge23_Node000022_Node000024" class="edge">
<title>Node22&#45;&gt;Node24</title>
<g id="a_edge23_Node000022_Node000024"><a xlink:title=" ">
<path fill="none" stroke="#63b8ff" d="M552.17,-212.29C512.9,-205.7 464.87,-197.64 433.07,-192.3"/>
<polygon fill="#63b8ff" stroke="#63b8ff" points="551.77,-215.77 562.22,-213.97 552.93,-208.86 551.77,-215.77"/>
</a>
</g>
</g>
<!-- Node26 -->
<g id="Node000026" class="node">
<title>Node26</title>
<g id="a_Node000026"><a xlink:href="classwmtk_1_1components_1_1internal_1_1_multi_mesh_from_tag.html#a5c6d50173da15e964b0f1dc6367858e6" target="_top" xlink:title="Get tuples with different global_cid that all represent simplex(t_in, ptype) and are in the same tag&#45;...">
<polygon fill="white" stroke="#666666" points="917,-182 763,-182 763,-141 917,-141 917,-182"/>
<text text-anchor="start" x="771" y="-170" font-family="Helvetica,sans-Serif" font-size="10.00">wmtk::components::internal</text>
<text text-anchor="start" x="771" y="-159" font-family="Helvetica,sans-Serif" font-size="10.00">::MultiMeshFromTag::get</text>
<text text-anchor="middle" x="840" y="-148" font-family="Helvetica,sans-Serif" font-size="10.00">_connected_region</text>
</a>
</g>
</g>
<!-- Node25&#45;&gt;Node26 -->
<g id="edge25_Node000025_Node000026" class="edge">
<title>Node25&#45;&gt;Node26</title>
<g id="a_edge25_Node000025_Node000026"><a xlink:title=" ">
<path fill="none" stroke="#63b8ff" d="M976.06,-202.47C954.82,-196.03 930.73,-188.72 908.84,-182.08"/>
<polygon fill="#63b8ff" stroke="#63b8ff" points="975.33,-205.91 985.92,-205.46 977.36,-199.21 975.33,-205.91"/>
</a>
</g>
</g>
<!-- Node27 -->
<g id="Node000027" class="node">
<title>Node27</title>
<g id="a_Node000027"><a xlink:href="classwmtk_1_1components_1_1internal_1_1_multi_mesh_from_tag.html#afb744eb2b5ec264a9a682ccfd3f8dfcb" target="_top" xlink:title="Compute the ids of the manifold substructure.">
<polygon fill="white" stroke="#666666" points="702,-167 538,-167 538,-126 702,-126 702,-167"/>
<text text-anchor="start" x="546" y="-155" font-family="Helvetica,sans-Serif" font-size="10.00">wmtk::components::internal</text>
<text text-anchor="start" x="546" y="-144" font-family="Helvetica,sans-Serif" font-size="10.00">::MultiMeshFromTag::compute</text>
<text text-anchor="middle" x="620" y="-133" font-family="Helvetica,sans-Serif" font-size="10.00">_substructure_ids</text>
</a>
</g>
</g>
<!-- Node26&#45;&gt;Node27 -->
<g id="edge26_Node000026_Node000027" class="edge">
<title>Node26&#45;&gt;Node27</title>
<g id="a_edge26_Node000026_Node000027"><a xlink:title=" ">
<path fill="none" stroke="#63b8ff" d="M752.5,-155.55C735.86,-154.4 718.48,-153.21 702.02,-152.07"/>
<polygon fill="#63b8ff" stroke="#63b8ff" points="752.54,-159.06 762.75,-156.25 753.02,-152.08 752.54,-159.06"/>
</a>
</g>
</g>
<!-- Node28 -->
<g id="Node000028" class="node">
<title>Node28</title>
<g id="a_Node000028"><a xlink:href="classwmtk_1_1components_1_1internal_1_1_multi_mesh_from_tag.html#a96647e9413f2b7e13dd17f02cf29b12d" target="_top" xlink:title="Create a manifold mesh from the substructure.">
<polygon fill="white" stroke="#666666" points="479.5,-159 315.5,-159 315.5,-118 479.5,-118 479.5,-159"/>
<text text-anchor="start" x="323.5" y="-147" font-family="Helvetica,sans-Serif" font-size="10.00">wmtk::components::internal</text>
<text text-anchor="start" x="323.5" y="-136" font-family="Helvetica,sans-Serif" font-size="10.00">::MultiMeshFromTag::compute</text>
<text text-anchor="middle" x="397.5" y="-125" font-family="Helvetica,sans-Serif" font-size="10.00">_substructure_mesh</text>
</a>
</g>
</g>
<!-- Node27&#45;&gt;Node28 -->
<g id="edge27_Node000027_Node000028" class="edge">
<title>Node27&#45;&gt;Node28</title>
<g id="a_edge27_Node000027_Node000028"><a xlink:title=" ">
<path fill="none" stroke="#63b8ff" d="M527.53,-143.18C511.72,-142.61 495.38,-142.02 479.86,-141.45"/>
<polygon fill="#63b8ff" stroke="#63b8ff" points="527.71,-146.69 537.83,-143.56 527.97,-139.69 527.71,-146.69"/>
</a>
</g>
</g>
<!-- Node29 -->
<g id="Node000029" class="node">
<title>Node29</title>
<g id="a_Node000029"><a xlink:href="namespacewmtk_1_1components.html#ac309092566399cef68679a1bb8107d1e" target="_top" xlink:title="Generate a multi&#45;mesh from a mesh with a tag that represents the substructure, the mesh is changed.">
<polygon fill="white" stroke="#666666" points="276,-300.5 107,-300.5 107,-270.5 276,-270.5 276,-300.5"/>
<text text-anchor="start" x="115" y="-288.5" font-family="Helvetica,sans-Serif" font-size="10.00">wmtk::components::multimesh</text>
<text text-anchor="middle" x="191.5" y="-277.5" font-family="Helvetica,sans-Serif" font-size="10.00">_from_tag</text>
</a>
</g>
</g>
<!-- Node28&#45;&gt;Node29 -->
<g id="edge28_Node000028_Node000029" class="edge">
<title>Node28&#45;&gt;Node29</title>
<g id="a_edge28_Node000028_Node000029"><a xlink:title=" ">
<path fill="none" stroke="#63b8ff" d="M315.47,-165.36C314.27,-166.37 313.12,-167.41 312,-168.5 280.22,-199.4 308.71,-231.59 276,-261.5 272.22,-264.96 267.96,-267.93 263.43,-270.46"/>
<polygon fill="#63b8ff" stroke="#63b8ff" points="317.83,-167.97 323.83,-159.24 313.7,-162.32 317.83,-167.97"/>
</a>
</g>
</g>
<!-- Node31 -->
<g id="Node000031" class="node">
<title>Node31</title>
<g id="a_Node000031"><a xlink:href="namespacewmtk_1_1components.html#a4166e4880553cfacbf79ac3515a637cd" target="_top" xlink:title=" ">
<polygon fill="white" stroke="#666666" points="269,-252.5 114,-252.5 114,-222.5 269,-222.5 269,-252.5"/>
<text text-anchor="start" x="122" y="-240.5" font-family="Helvetica,sans-Serif" font-size="10.00">wmtk::components::periodic</text>
<text text-anchor="middle" x="191.5" y="-229.5" font-family="Helvetica,sans-Serif" font-size="10.00">_optimization</text>
</a>
</g>
</g>
<!-- Node28&#45;&gt;Node31 -->
<g id="edge30_Node000028_Node000031" class="edge">
<title>Node28&#45;&gt;Node31</title>
<g id="a_edge30_Node000028_Node000031"><a xlink:title=" ">
<path fill="none" stroke="#63b8ff" d="M318.73,-164.09C316.41,-165.49 314.16,-166.96 312,-168.5 291.13,-183.35 297.31,-199.29 276,-213.5 270.85,-216.93 265.22,-219.88 259.37,-222.41"/>
<polygon fill="#63b8ff" stroke="#63b8ff" points="320.87,-166.91 327.95,-159.03 317.5,-160.78 320.87,-166.91"/>
</a>
</g>
</g>
<!-- Node32 -->
<g id="Node000032" class="node">
<title>Node32</title>
<g id="a_Node000032"><a xlink:href="test__component__multimesh__from__tag_8cpp.html#a2231774bf0d53fb5f6c1b34753afb255" target="_top" xlink:title=" ">
<polygon fill="white" stroke="#666666" points="227,-204 156,-204 156,-185 227,-185 227,-204"/>
<text text-anchor="middle" x="191.5" y="-192" font-family="Helvetica,sans-Serif" font-size="10.00">TEST_CASE</text>
</a>
</g>
</g>
<!-- Node28&#45;&gt;Node32 -->
<g id="edge31_Node000028_Node000032" class="edge">
<title>Node28&#45;&gt;Node32</title>
<g id="a_edge31_Node000028_Node000032"><a xlink:title=" ">
<path fill="none" stroke="#63b8ff" d="M325.31,-162.16C309.18,-167.18 292.07,-172.24 276,-176.5 260.09,-180.71 242.28,-184.66 227.2,-187.77"/>
<polygon fill="#63b8ff" stroke="#63b8ff" points="326.72,-165.38 335.21,-159.04 324.62,-158.7 326.72,-165.38"/>
</a>
</g>
</g>
<!-- Node33 -->
<g id="Node000033" class="node">
<title>Node33</title>
<g id="a_Node000033"><a xlink:href="test__component__multimesh__from__tag_8cpp.html#a9a31cb828b93e2ddcf0a5063d4d1c9e6" target="_top" xlink:title=" ">
<polygon fill="white" stroke="#666666" points="227,-167 156,-167 156,-148 227,-148 227,-167"/>
<text text-anchor="middle" x="191.5" y="-155" font-family="Helvetica,sans-Serif" font-size="10.00">TEST_CASE</text>
</a>
</g>
</g>
<!-- Node28&#45;&gt;Node33 -->
<g id="edge32_Node000028_Node000033" class="edge">
<title>Node28&#45;&gt;Node33</title>
<g id="a_edge32_Node000028_Node000033"><a xlink:title=" ">
<path fill="none" stroke="#63b8ff" d="M305.15,-147.01C277.45,-149.59 248.69,-152.27 227.17,-154.27"/>
<polygon fill="#63b8ff" stroke="#63b8ff" points="305.66,-150.48 315.29,-146.06 305.01,-143.51 305.66,-150.48"/>
</a>
</g>
</g>
<!-- Node34 -->
<g id="Node000034" class="node">
<title>Node34</title>
<g id="a_Node000034"><a xlink:href="test__component__multimesh__from__tag_8cpp.html#a7a8f66a094907f369fa10876691f42f9" target="_top" xlink:title=" ">
<polygon fill="white" stroke="#666666" points="227,-130 156,-130 156,-111 227,-111 227,-130"/>
<text text-anchor="middle" x="191.5" y="-118" font-family="Helvetica,sans-Serif" font-size="10.00">TEST_CASE</text>
</a>
</g>
</g>
<!-- Node28&#45;&gt;Node34 -->
<g id="edge33_Node000028_Node000034" class="edge">
<title>Node28&#45;&gt;Node34</title>
<g id="a_edge33_Node000028_Node000034"><a xlink:title=" ">
<path fill="none" stroke="#63b8ff" d="M305.15,-130.44C277.45,-128 248.69,-125.46 227.17,-123.56"/>
<polygon fill="#63b8ff" stroke="#63b8ff" points="305.02,-133.94 315.29,-131.33 305.63,-126.97 305.02,-133.94"/>
</a>
</g>
</g>
<!-- Node35 -->
<g id="Node000035" class="node">
<title>Node35</title>
<g id="a_Node000035"><a xlink:href="test__component__multimesh__from__tag_8cpp.html#af55ce8249624ce4d6a3feaad760949a6" target="_top" xlink:title=" ">
<polygon fill="white" stroke="#666666" points="227,-93 156,-93 156,-74 227,-74 227,-93"/>
<text text-anchor="middle" x="191.5" y="-81" font-family="Helvetica,sans-Serif" font-size="10.00">TEST_CASE</text>
</a>
</g>
</g>
<!-- Node28&#45;&gt;Node35 -->
<g id="edge34_Node000028_Node000035" class="edge">
<title>Node28&#45;&gt;Node35</title>
<g id="a_edge34_Node000028_Node000035"><a xlink:title=" ">
<path fill="none" stroke="#63b8ff" d="M321.07,-115.13C306.18,-110.75 290.64,-106.35 276,-102.5 260.04,-98.31 242.22,-94.18 227.16,-90.84"/>
<polygon fill="#63b8ff" stroke="#63b8ff" points="320.16,-118.51 330.74,-117.99 322.15,-111.8 320.16,-118.51"/>
</a>
</g>
</g>
<!-- Node36 -->
<g id="Node000036" class="node">
<title>Node36</title>
<g id="a_Node000036"><a xlink:href="test__component__multimesh__from__tag_8cpp.html#a18cd3d411cfadc472201c20662d62869" target="_top" xlink:title=" ">
<polygon fill="white" stroke="#666666" points="227,-56 156,-56 156,-37 227,-37 227,-56"/>
<text text-anchor="middle" x="191.5" y="-44" font-family="Helvetica,sans-Serif" font-size="10.00">TEST_CASE</text>
</a>
</g>
</g>
<!-- Node28&#45;&gt;Node36 -->
<g id="edge35_Node000028_Node000036" class="edge">
<title>Node28&#45;&gt;Node36</title>
<g id="a_edge35_Node000028_Node000036"><a xlink:title=" ">
<path fill="none" stroke="#63b8ff" d="M359.74,-111.96C336.67,-96.41 305.76,-77.53 276,-65.5 260.56,-59.26 242.65,-54.84 227.38,-51.85"/>
<polygon fill="#63b8ff" stroke="#63b8ff" points="357.95,-114.97 368.18,-117.73 361.9,-109.19 357.95,-114.97"/>
</a>
</g>
</g>
<!-- Node37 -->
<g id="Node000037" class="node">
<title>Node37</title>
<g id="a_Node000037"><a xlink:href="test__component__multimesh__from__tag_8cpp.html#a4caad3dd8a6355f2ca66fdb0b0af7999" target="_top" xlink:title=" ">
<polygon fill="white" stroke="#666666" points="227,-19 156,-19 156,0 227,0 227,-19"/>
<text text-anchor="middle" x="191.5" y="-7" font-family="Helvetica,sans-Serif" font-size="10.00">TEST_CASE</text>
</a>
</g>
</g>
<!-- Node28&#45;&gt;Node37 -->
<g id="edge36_Node000028_Node000037" class="edge">
<title>Node28&#45;&gt;Node37</title>
<g id="a_edge36_Node000028_Node000037"><a xlink:title=" ">
<path fill="none" stroke="#63b8ff" d="M372.9,-109.8C350.55,-84.55 314.73,-48.75 276,-28.5 260.98,-20.65 242.78,-16.02 227.21,-13.3"/>
<polygon fill="#63b8ff" stroke="#63b8ff" points="370.46,-112.34 379.66,-117.6 375.75,-107.75 370.46,-112.34"/>
</a>
</g>
</g>
<!-- Node30 -->
<g id="Node000030" class="node">
<title>Node30</title>
<g id="a_Node000030"><a xlink:href="test__component__multimesh__from__tag_8cpp.html#a2b0208caf4b963a36a43604c3e7cf34a" target="_top" xlink:title=" ">
<polygon fill="white" stroke="#666666" points="71,-295 0,-295 0,-276 71,-276 71,-295"/>
<text text-anchor="middle" x="35.5" y="-283" font-family="Helvetica,sans-Serif" font-size="10.00">TEST_CASE</text>
</a>
</g>
</g>
<!-- Node29&#45;&gt;Node30 -->
<g id="edge29_Node000029_Node000030" class="edge">
<title>Node29&#45;&gt;Node30</title>
<g id="a_edge29_Node000029_Node000030"><a xlink:title=" ">
<path fill="none" stroke="#63b8ff" d="M96.52,-285.5C87.57,-285.5 78.93,-285.5 71.14,-285.5"/>
<polygon fill="#63b8ff" stroke="#63b8ff" points="96.74,-289 106.74,-285.5 96.74,-282 96.74,-289"/>
</a>
</g>
</g>
</g>
</svg>

<g id="navigator" transform="translate(0 0)" fill="#404254">
  <rect fill="#f2f5e9" fill-opacity="0.5" stroke="#606060" stroke-width=".5" x="0" y="0" width="60" height="60"/>
  <use id="zoomplus" xlink:href="#zoomPlus" x="17" y="9" onmousedown="handleZoom(evt,'in')"/>
  <use id="zoomminus" xlink:href="#zoomMin" x="42" y="9" onmousedown="handleZoom(evt,'out')"/>
  <use id="reset" xlink:href="#resetDef" x="30" y="36" onmousedown="handleReset()"/>
   <use id="arrowup" xlink:href="#arrowUp" x="0" y="0" onmousedown="handlePan(0,-1)"/>
  <use id="arrowright" xlink:href="#arrowRight" x="0" y="0" onmousedown="handlePan(1,0)"/>
  <use id="arrowdown" xlink:href="#arrowDown" x="0" y="0" onmousedown="handlePan(0,1)"/>
  <use id="arrowleft" xlink:href="#arrowLeft" x="0" y="0" onmousedown="handlePan(-1,0)"/>
</g>
<svg viewBox="0 0 15 15" width="100%" height="30px" preserveAspectRatio="xMaxYMin meet">
 <g id="arrow_out" transform="scale(0.3 0.3)">
  <a xlink:href="namespacewmtk_1_1utils_aad86a1efd04407e94f9bd5f92b3ed5d0_icgraph_org.svg" target="_base">
   <rect id="button" ry="5" rx="5" y="6" x="6" height="38" width="38"
        fill="#f2f5e9" fill-opacity="0.5" stroke="#606060" stroke-width="1.0"/>
   <path id="arrow"
     d="M 11.500037,31.436501 C 11.940474,20.09759 22.043105,11.32322 32.158766,21.979434 L 37.068811,17.246167 C 37.068811,17.246167 37.088388,32 37.088388,32 L 22.160133,31.978069 C 22.160133,31.978069 26.997745,27.140456 26.997745,27.140456 C 18.528582,18.264221 13.291696,25.230495 11.500037,31.436501 z"
     style="fill:#404040;"/>
  </a>
 </g>
</svg>

<style type='text/css'>
<![CDATA[
[data-mouse-over-selected='false'] { opacity: 0.7; }
[data-mouse-over-selected='true']  { opacity: 1.0; }
]]>
</style>
<script type="application/ecmascript"><![CDATA[
document.addEventListener('DOMContentLoaded', (event) => {
  highlightEdges();
  highlightAdjacentNodes();
});
]]></script>
</svg>
