<?xml version="1.0" encoding="UTF-8" standalone="no"?>
<!DOCTYPE svg PUBLIC "-//W3C//DTD SVG 1.1//EN"
 "http://www.w3.org/Graphics/SVG/1.1/DTD/svg11.dtd">
<!-- Generated by graphviz version 2.43.0 (0)
 -->
<!-- Title: wmtk::io::utils::guess_file_type_from_extension Pages: 1 -->
<!--zoomable 138 -->

<svg id="main" version="1.1" xmlns="http://www.w3.org/2000/svg" xmlns:xlink="http://www.w3.org/1999/xlink" xml:space="preserve" onload="init(evt)">
<style type="text/css"><![CDATA[
.node, .edge {opacity: 0.7;}
.node.selected, .edge.selected {opacity: 1;}
.edge:hover path { stroke: red; }
.edge:hover polygon { stroke: red; fill: red; }
]]></style>

<defs>
  <circle id="rim" cx="0" cy="0" r="7"/>
  <circle id="rim2" cx="0" cy="0" r="3.5"/>
  <g id="zoomPlus">
    <use xlink:href="#rim" fill="#404040"><set attributeName="fill" to="#808080" begin="zoomplus.mouseover" end="zoomplus.mouseout"/></use>
    <path d="M-4,0h8M0,-4v8" fill="none" stroke="white" stroke-width="1.5" pointer-events="none"/>
  </g>
  <g id="zoomMin">
    <use xlink:href="#rim" fill="#404040"><set attributeName="fill" to="#808080" begin="zoomminus.mouseover" end="zoomminus.mouseout"/></use>
    <path d="M-4,0h8" fill="none" stroke="white" stroke-width="1.5" pointer-events="none"/>
  </g>
  <g id="arrowUp" transform="translate(30 24)">
    <use xlink:href="#rim"/>
    <path pointer-events="none" fill="none" stroke="white" stroke-width="1.5" d="M0,-3.0v7 M-2.5,-0.5L0,-3.0L2.5,-0.5"/>
  </g>
  <g id="arrowRight" transform="rotate(90) translate(36 -43)">
    <use xlink:href="#rim"/>
    <path pointer-events="none" fill="none" stroke="white" stroke-width="1.5" d="M0,-3.0v7 M-2.5,-0.5L0,-3.0L2.5,-0.5"/>
  </g>
  <g id="arrowDown" transform="rotate(180) translate(-30 -48)">
    <use xlink:href="#rim"/>
    <path pointer-events="none" fill="none" stroke="white" stroke-width="1.5" d="M0,-3.0v7 M-2.5,-0.5L0,-3.0L2.5,-0.5"/>
  </g>
  <g id="arrowLeft" transform="rotate(270) translate(-36 17)">
    <use xlink:href="#rim"/>
    <path pointer-events="none" fill="none" stroke="white" stroke-width="1.5" d="M0,-3.0v7 M-2.5,-0.5L0,-3.0L2.5,-0.5"/>
  </g>
  <g id="resetDef">
    <use xlink:href="#rim2" fill="#404040"><set attributeName="fill" to="#808080" begin="reset.mouseover" end="reset.mouseout"/></use>
  </g>
</defs>
<script type="application/ecmascript">
var viewWidth = 938;
var viewHeight = 138;
var sectionId = 'dynsection-2';
</script>
<script type="application/ecmascript" xlink:href="svg.min.js"/>
<svg id="graph" class="graph">
<g id="viewport">
<title>wmtk::io::utils::guess_file_type_from_extension</title>
<!-- Node1 -->
<g id="Node000001" class="node">
<title>Node1</title>
<g id="a_Node000001"><a xlink:title=" ">
<polygon fill="#999999" stroke="#666666" points="930,-98.5 784,-98.5 784,-68.5 930,-68.5 930,-98.5"/>
<text text-anchor="start" x="792" y="-86.5" font-family="Helvetica,sans-Serif" font-size="10.00">wmtk::io::utils::guess</text>
<text text-anchor="middle" x="857" y="-75.5" font-family="Helvetica,sans-Serif" font-size="10.00">_file_type_from_extension</text>
</a>
</g>
</g>
<!-- Node2 -->
<g id="Node000002" class="node">
<title>Node2</title>
<g id="a_Node000002"><a xlink:href="namespacewmtk_1_1io_1_1utils.html#a6d2d518cab2596c09fdfde4126e5bc60" target="_top" xlink:title=" ">
<polygon fill="white" stroke="#666666" points="748,-98.5 627,-98.5 627,-68.5 748,-68.5 748,-98.5"/>
<text text-anchor="start" x="635" y="-86.5" font-family="Helvetica,sans-Serif" font-size="10.00">wmtk::io::utils::guess</text>
<text text-anchor="middle" x="687.5" y="-75.5" font-family="Helvetica,sans-Serif" font-size="10.00">_file_type</text>
</a>
</g>
</g>
<!-- Node1&#45;&gt;Node2 -->
<g id="edge1_Node000001_Node000002" class="edge">
<title>Node1&#45;&gt;Node2</title>
<g id="a_edge1_Node000001_Node000002"><a xlink:title=" ">
<path fill="none" stroke="#63b8ff" d="M773.84,-83.5C765.16,-83.5 756.46,-83.5 748.11,-83.5"/>
<polygon fill="#63b8ff" stroke="#63b8ff" points="773.99,-87 783.99,-83.5 773.99,-80 773.99,-87"/>
</a>
</g>
</g>
<!-- Node3 -->
<g id="Node000003" class="node">
<title>Node3</title>
<g id="a_Node000003"><a xlink:href="namespacewmtk_1_1io.html#a2155502dd88e14f95498ed37660b35fa" target="_top" xlink:title=" ">
<polygon fill="white" stroke="#666666" points="591,-130 472,-130 472,-111 591,-111 591,-130"/>
<text text-anchor="middle" x="531.5" y="-118" font-family="Helvetica,sans-Serif" font-size="10.00">wmtk::io::read_mesh</text>
</a>
</g>
</g>
<!-- Node2&#45;&gt;Node3 -->
<g id="edge2_Node000002_Node000003" class="edge">
<title>Node2&#45;&gt;Node3</title>
<g id="a_edge2_Node000002_Node000003"><a xlink:title=" ">
<path fill="none" stroke="#63b8ff" d="M617,-100.2C601.71,-103.87 586.02,-107.64 572.38,-110.92"/>
<polygon fill="#63b8ff" stroke="#63b8ff" points="618.05,-103.54 626.96,-97.81 616.42,-96.74 618.05,-103.54"/>
</a>
</g>
</g>
<!-- Node4 -->
<g id="Node000004" class="node">
<title>Node4</title>
<g id="a_Node000004"><a xlink:href="namespacewmtk_1_1io.html#a25ecf8fc288e558170a2e0a99847a5b8" target="_top" xlink:title=" ">
<polygon fill="white" stroke="#666666" points="591,-93 472,-93 472,-74 591,-74 591,-93"/>
<text text-anchor="middle" x="531.5" y="-81" font-family="Helvetica,sans-Serif" font-size="10.00">wmtk::io::read_mesh</text>
</a>
</g>
</g>
<!-- Node2&#45;&gt;Node4 -->
<g id="edge3_Node000002_Node000004" class="edge">
<title>Node2&#45;&gt;Node4</title>
<g id="a_edge3_Node000002_Node000004"><a xlink:title=" ">
<path fill="none" stroke="#63b8ff" d="M616.92,-83.5C608.3,-83.5 599.56,-83.5 591.12,-83.5"/>
<polygon fill="#63b8ff" stroke="#63b8ff" points="616.96,-87 626.96,-83.5 616.96,-80 616.96,-87"/>
</a>
</g>
</g>
<!-- Node5 -->
<g id="Node000005" class="node">
<title>Node5</title>
<g id="a_Node000005"><a xlink:href="namespacewmtk_1_1io.html#a821417f1256959629cd64a293f5fcac0" target="_top" xlink:title=" ">
<polygon fill="white" stroke="#666666" points="591,-56 472,-56 472,-37 591,-37 591,-56"/>
<text text-anchor="middle" x="531.5" y="-44" font-family="Helvetica,sans-Serif" font-size="10.00">wmtk::io::read_mesh</text>
</a>
</g>
</g>
<!-- Node2&#45;&gt;Node5 -->
<g id="edge4_Node000002_Node000005" class="edge">
<title>Node2&#45;&gt;Node5</title>
<g id="a_edge4_Node000002_Node000005"><a xlink:title=" ">
<path fill="none" stroke="#63b8ff" d="M617,-66.8C601.71,-63.13 586.02,-59.36 572.38,-56.08"/>
<polygon fill="#63b8ff" stroke="#63b8ff" points="616.42,-70.26 626.96,-69.19 618.05,-63.46 616.42,-70.26"/>
</a>
</g>
</g>
<!-- Node6 -->
<g id="Node000006" class="node">
<title>Node6</title>
<g id="a_Node000006"><a xlink:href="namespacewmtk_1_1components_1_1input.html#a983def0b1b64614b2f2b91d18045f13a" target="_top" xlink:title=" ">
<polygon fill="white" stroke="#666666" points="436,-104.5 295,-104.5 295,-74.5 436,-74.5 436,-104.5"/>
<text text-anchor="start" x="303" y="-92.5" font-family="Helvetica,sans-Serif" font-size="10.00">wmtk::components::input</text>
<text text-anchor="middle" x="365.5" y="-81.5" font-family="Helvetica,sans-Serif" font-size="10.00">::input</text>
</a>
</g>
</g>
<!-- Node5&#45;&gt;Node6 -->
<g id="edge5_Node000005_Node000006" class="edge">
<title>Node5&#45;&gt;Node6</title>
<g id="a_edge5_Node000005_Node000006"><a xlink:title=" ">
<path fill="none" stroke="#63b8ff" d="M484.29,-58.62C465.48,-63.55 443.54,-69.3 423.73,-74.49"/>
<polygon fill="#63b8ff" stroke="#63b8ff" points="485.32,-61.96 494.1,-56.04 483.54,-55.19 485.32,-61.96"/>
</a>
</g>
</g>
<!-- Node7 -->
<g id="Node000007" class="node">
<title>Node7</title>
<g id="a_Node000007"><a xlink:href="namespacewmtk.html#af24627a5c84ab4c028897599edbcd7fe" target="_top" xlink:title=" ">
<polygon fill="white" stroke="#666666" points="417.5,-56 313.5,-56 313.5,-37 417.5,-37 417.5,-56"/>
<text text-anchor="middle" x="365.5" y="-44" font-family="Helvetica,sans-Serif" font-size="10.00">wmtk::read_mesh</text>
</a>
</g>
</g>
<!-- Node5&#45;&gt;Node7 -->
<g id="edge6_Node000005_Node000007" class="edge">
<title>Node5&#45;&gt;Node7</title>
<g id="a_edge6_Node000005_Node000007"><a xlink:title=" ">
<path fill="none" stroke="#63b8ff" d="M461.63,-46.5C446.85,-46.5 431.47,-46.5 417.5,-46.5"/>
<polygon fill="#63b8ff" stroke="#63b8ff" points="461.76,-50 471.76,-46.5 461.76,-43 461.76,-50"/>
</a>
</g>
</g>
<!-- Node11 -->
<g id="Node000011" class="node">
<title>Node11</title>
<g id="a_Node000011"><a xlink:href="json_8cpp.html#a4b7d01c882acb168b3a150c613cb72ff" target="_top" xlink:title=" ">
<polygon fill="white" stroke="#666666" points="401,-19 330,-19 330,0 401,0 401,-19"/>
<text text-anchor="middle" x="365.5" y="-7" font-family="Helvetica,sans-Serif" font-size="10.00">TEST_CASE</text>
</a>
</g>
</g>
<!-- Node5&#45;&gt;Node11 -->
<g id="edge11_Node000005_Node000011" class="edge">
<title>Node5&#45;&gt;Node11</title>
<g id="a_edge11_Node000005_Node000011"><a xlink:title=" ">
<path fill="none" stroke="#63b8ff" d="M478.47,-34.76C453.22,-29.06 423.57,-22.38 401.13,-17.31"/>
<polygon fill="#63b8ff" stroke="#63b8ff" points="477.74,-38.18 488.27,-36.97 479.28,-31.36 477.74,-38.18"/>
</a>
</g>
</g>
<!-- Node8 -->
<g id="Node000008" class="node">
<title>Node8</title>
<g id="a_Node000008"><a xlink:href="classwmtk_1_1io_1_1_cache.html#a6d9002c95cb93e5e4e68eaa6b5083f8c" target="_top" xlink:title="Compare two caches for equality.">
<polygon fill="white" stroke="#666666" points="250,-86 116,-86 116,-67 250,-67 250,-86"/>
<text text-anchor="middle" x="183" y="-74" font-family="Helvetica,sans-Serif" font-size="10.00">wmtk::io::Cache::equals</text>
</a>
</g>
</g>
<!-- Node7&#45;&gt;Node8 -->
<g id="edge7_Node000007_Node000008" class="edge">
<title>Node7&#45;&gt;Node8</title>
<g id="a_edge7_Node000007_Node000008"><a xlink:title=" ">
<path fill="none" stroke="#63b8ff" d="M303.32,-56.67C283.29,-60 261.13,-63.68 241.4,-66.96"/>
<polygon fill="#63b8ff" stroke="#63b8ff" points="303.97,-60.11 313.26,-55.02 302.82,-53.2 303.97,-60.11"/>
</a>
</g>
</g>
<!-- Node10 -->
<g id="Node000010" class="node">
<title>Node10</title>
<g id="a_Node000010"><a xlink:href="classwmtk_1_1io_1_1_cached_multi_mesh.html#aa33ef463beccbfc46f941380e988765c" target="_top" xlink:title=" ">
<polygon fill="white" stroke="#666666" points="259,-30.5 107,-30.5 107,-0.5 259,-0.5 259,-30.5"/>
<text text-anchor="start" x="115" y="-18.5" font-family="Helvetica,sans-Serif" font-size="10.00">wmtk::io::CachedMultiMesh</text>
<text text-anchor="middle" x="183" y="-7.5" font-family="Helvetica,sans-Serif" font-size="10.00">::load</text>
</a>
</g>
</g>
<!-- Node7&#45;&gt;Node10 -->
<g id="edge9_Node000007_Node000010" class="edge">
<title>Node7&#45;&gt;Node10</title>
<g id="a_edge9_Node000007_Node000010"><a xlink:title=" ">
<path fill="none" stroke="#63b8ff" d="M303.19,-35.97C289.09,-33.55 273.92,-30.94 259.29,-28.43"/>
<polygon fill="#63b8ff" stroke="#63b8ff" points="302.81,-39.46 313.26,-37.7 304,-32.56 302.81,-39.46"/>
</a>
</g>
</g>
<!-- Node9 -->
<g id="Node000009" class="node">
<title>Node9</title>
<g id="a_Node000009"><a xlink:href="test__component__import__cache_8cpp.html#a081b8f9743b3281709466fa4850cfb84" target="_top" xlink:title=" ">
<polygon fill="white" stroke="#666666" points="71,-86 0,-86 0,-67 71,-67 71,-86"/>
<text text-anchor="middle" x="35.5" y="-74" font-family="Helvetica,sans-Serif" font-size="10.00">TEST_CASE</text>
</a>
</g>
</g>
<!-- Node8&#45;&gt;Node9 -->
<g id="edge8_Node000008_Node000009" class="edge">
<title>Node8&#45;&gt;Node9</title>
<g id="a_edge8_Node000008_Node000009"><a xlink:title=" ">
<path fill="none" stroke="#63b8ff" d="M105.58,-76.5C93.6,-76.5 81.76,-76.5 71.36,-76.5"/>
<polygon fill="#63b8ff" stroke="#63b8ff" points="105.64,-80 115.64,-76.5 105.64,-73 105.64,-80"/>
</a>
</g>
</g>
<!-- Node10&#45;&gt;Node10 -->
<g id="edge10_Node000010_Node000010" class="edge">
<title>Node10&#45;&gt;Node10</title>
<g id="a_edge10_Node000010_Node000010"><a xlink:title=" ">
<path fill="none" stroke="#63b8ff" d="M208.56,-41.1C205.06,-45.47 196.54,-48.5 183,-48.5 160.19,-48.5 151.63,-39.91 157.34,-30.78"/>
<polygon fill="#63b8ff" stroke="#63b8ff" points="212.06,-40.81 208.66,-30.78 205.06,-40.74 212.06,-40.81"/>
</a>
</g>
</g>
</g>
</svg>

<g id="navigator" transform="translate(0 0)" fill="#404254">
  <rect fill="#f2f5e9" fill-opacity="0.5" stroke="#606060" stroke-width=".5" x="0" y="0" width="60" height="60"/>
  <use id="zoomplus" xlink:href="#zoomPlus" x="17" y="9" onmousedown="handleZoom(evt,'in')"/>
  <use id="zoomminus" xlink:href="#zoomMin" x="42" y="9" onmousedown="handleZoom(evt,'out')"/>
  <use id="reset" xlink:href="#resetDef" x="30" y="36" onmousedown="handleReset()"/>
   <use id="arrowup" xlink:href="#arrowUp" x="0" y="0" onmousedown="handlePan(0,-1)"/>
  <use id="arrowright" xlink:href="#arrowRight" x="0" y="0" onmousedown="handlePan(1,0)"/>
  <use id="arrowdown" xlink:href="#arrowDown" x="0" y="0" onmousedown="handlePan(0,1)"/>
  <use id="arrowleft" xlink:href="#arrowLeft" x="0" y="0" onmousedown="handlePan(-1,0)"/>
</g>
<svg viewBox="0 0 15 15" width="100%" height="30px" preserveAspectRatio="xMaxYMin meet">
 <g id="arrow_out" transform="scale(0.3 0.3)">
  <a xlink:href="namespacewmtk_1_1io_1_1utils_a7aa2d4b8fd8166da1dd28f86df6f9dab_icgraph_org.svg" target="_base">
   <rect id="button" ry="5" rx="5" y="6" x="6" height="38" width="38"
        fill="#f2f5e9" fill-opacity="0.5" stroke="#606060" stroke-width="1.0"/>
   <path id="arrow"
     d="M 11.500037,31.436501 C 11.940474,20.09759 22.043105,11.32322 32.158766,21.979434 L 37.068811,17.246167 C 37.068811,17.246167 37.088388,32 37.088388,32 L 22.160133,31.978069 C 22.160133,31.978069 26.997745,27.140456 26.997745,27.140456 C 18.528582,18.264221 13.291696,25.230495 11.500037,31.436501 z"
     style="fill:#404040;"/>
  </a>
 </g>
</svg>

<style type='text/css'>
<![CDATA[
[data-mouse-over-selected='false'] { opacity: 0.7; }
[data-mouse-over-selected='true']  { opacity: 1.0; }
]]>
</style>
<script type="application/ecmascript"><![CDATA[
document.addEventListener('DOMContentLoaded', (event) => {
  highlightEdges();
  highlightAdjacentNodes();
});
]]></script>
</svg>
