<?xml version="1.0" encoding="UTF-8" standalone="no"?>
<!DOCTYPE svg PUBLIC "-//W3C//DTD SVG 1.1//EN"
 "http://www.w3.org/Graphics/SVG/1.1/DTD/svg11.dtd">
<!-- Generated by graphviz version 2.43.0 (0)
 -->
<!-- Title: wmtk::simplex::cofaces_single_dimension_tuples Pages: 1 -->
<!--zoomable 455 -->

<svg id="main" version="1.1" xmlns="http://www.w3.org/2000/svg" xmlns:xlink="http://www.w3.org/1999/xlink" xml:space="preserve" onload="init(evt)">
<style type="text/css"><![CDATA[
.node, .edge {opacity: 0.7;}
.node.selected, .edge.selected {opacity: 1;}
.edge:hover path { stroke: red; }
.edge:hover polygon { stroke: red; fill: red; }
]]></style>

<defs>
  <circle id="rim" cx="0" cy="0" r="7"/>
  <circle id="rim2" cx="0" cy="0" r="3.5"/>
  <g id="zoomPlus">
    <use xlink:href="#rim" fill="#404040"><set attributeName="fill" to="#808080" begin="zoomplus.mouseover" end="zoomplus.mouseout"/></use>
    <path d="M-4,0h8M0,-4v8" fill="none" stroke="white" stroke-width="1.5" pointer-events="none"/>
  </g>
  <g id="zoomMin">
    <use xlink:href="#rim" fill="#404040"><set attributeName="fill" to="#808080" begin="zoomminus.mouseover" end="zoomminus.mouseout"/></use>
    <path d="M-4,0h8" fill="none" stroke="white" stroke-width="1.5" pointer-events="none"/>
  </g>
  <g id="arrowUp" transform="translate(30 24)">
    <use xlink:href="#rim"/>
    <path pointer-events="none" fill="none" stroke="white" stroke-width="1.5" d="M0,-3.0v7 M-2.5,-0.5L0,-3.0L2.5,-0.5"/>
  </g>
  <g id="arrowRight" transform="rotate(90) translate(36 -43)">
    <use xlink:href="#rim"/>
    <path pointer-events="none" fill="none" stroke="white" stroke-width="1.5" d="M0,-3.0v7 M-2.5,-0.5L0,-3.0L2.5,-0.5"/>
  </g>
  <g id="arrowDown" transform="rotate(180) translate(-30 -48)">
    <use xlink:href="#rim"/>
    <path pointer-events="none" fill="none" stroke="white" stroke-width="1.5" d="M0,-3.0v7 M-2.5,-0.5L0,-3.0L2.5,-0.5"/>
  </g>
  <g id="arrowLeft" transform="rotate(270) translate(-36 17)">
    <use xlink:href="#rim"/>
    <path pointer-events="none" fill="none" stroke="white" stroke-width="1.5" d="M0,-3.0v7 M-2.5,-0.5L0,-3.0L2.5,-0.5"/>
  </g>
  <g id="resetDef">
    <use xlink:href="#rim2" fill="#404040"><set attributeName="fill" to="#808080" begin="reset.mouseover" end="reset.mouseout"/></use>
  </g>
</defs>
<script type="application/ecmascript">
var viewWidth = 992;
var viewHeight = 455;
var sectionId = 'dynsection-14';
</script>
<script type="application/ecmascript" xlink:href="svg.min.js"/>
<svg id="graph" class="graph">
<g id="viewport">
<title>wmtk::simplex::cofaces_single_dimension_tuples</title>
<!-- Node1 -->
<g id="Node000001" class="node">
<title>Node1</title>
<g id="a_Node000001"><a xlink:title=" ">
<polygon fill="#999999" stroke="#666666" points="984,-178.5 841,-178.5 841,-148.5 984,-148.5 984,-178.5"/>
<text text-anchor="start" x="849" y="-166.5" font-family="Helvetica,sans-Serif" font-size="10.00">wmtk::simplex::cofaces</text>
<text text-anchor="middle" x="912.5" y="-155.5" font-family="Helvetica,sans-Serif" font-size="10.00">_single_dimension_tuples</text>
</a>
</g>
</g>
<!-- Node2 -->
<g id="Node000002" class="node">
<title>Node2</title>
<g id="a_Node000002"><a xlink:href="namespacewmtk_1_1simplex.html#a996a48358d73e378978c6d5827cb3212" target="_top" xlink:title=" ">
<polygon fill="white" stroke="#666666" points="801.5,-302.5 642.5,-302.5 642.5,-272.5 801.5,-272.5 801.5,-302.5"/>
<text text-anchor="start" x="650.5" y="-290.5" font-family="Helvetica,sans-Serif" font-size="10.00">wmtk::simplex::cofaces</text>
<text text-anchor="middle" x="722" y="-279.5" font-family="Helvetica,sans-Serif" font-size="10.00">_single_dimension_simplices</text>
</a>
</g>
</g>
<!-- Node1&#45;&gt;Node2 -->
<g id="edge1_Node000001_Node000002" class="edge">
<title>Node1&#45;&gt;Node2</title>
<g id="a_edge1_Node000001_Node000002"><a xlink:title=" ">
<path fill="none" stroke="#63b8ff" d="M881.3,-184.26C860.06,-198.78 830.93,-218.52 805,-235.5 785.68,-248.15 763.55,-262.16 747.16,-272.44"/>
<polygon fill="#63b8ff" stroke="#63b8ff" points="883.32,-187.12 889.6,-178.58 879.37,-181.34 883.32,-187.12"/>
</a>
</g>
</g>
<!-- Node14 -->
<g id="Node000014" class="node">
<title>Node14</title>
<g id="a_Node000014"><a xlink:href="namespacewmtk_1_1simplex.html#afd2106f339bdd57f0f6e392cbd742d4a" target="_top" xlink:title=" ">
<polygon fill="white" stroke="#666666" points="801.5,-226.5 642.5,-226.5 642.5,-196.5 801.5,-196.5 801.5,-226.5"/>
<text text-anchor="start" x="650.5" y="-214.5" font-family="Helvetica,sans-Serif" font-size="10.00">wmtk::simplex::cofaces</text>
<text text-anchor="middle" x="722" y="-203.5" font-family="Helvetica,sans-Serif" font-size="10.00">_single_dimension_simplices</text>
</a>
</g>
</g>
<!-- Node1&#45;&gt;Node14 -->
<g id="edge13_Node000001_Node000014" class="edge">
<title>Node1&#45;&gt;Node14</title>
<g id="a_edge13_Node000001_Node000014"><a xlink:title=" ">
<path fill="none" stroke="#63b8ff" d="M842.46,-181.08C822.59,-186.14 801.11,-191.61 781.92,-196.5"/>
<polygon fill="#63b8ff" stroke="#63b8ff" points="843.55,-184.42 852.37,-178.56 841.82,-177.63 843.55,-184.42"/>
</a>
</g>
</g>
<!-- Node15 -->
<g id="Node000015" class="node">
<title>Node15</title>
<g id="a_Node000015"><a xlink:href="classwmtk_1_1multimesh_1_1_multi_mesh_manager.html#ad327312fd1808a9def38d576eb0a1557" target="_top" xlink:title=" ">
<polygon fill="white" stroke="#666666" points="805,-178.5 639,-178.5 639,-148.5 805,-148.5 805,-178.5"/>
<text text-anchor="start" x="647" y="-166.5" font-family="Helvetica,sans-Serif" font-size="10.00">wmtk::multimesh::MultiMesh</text>
<text text-anchor="middle" x="722" y="-155.5" font-family="Helvetica,sans-Serif" font-size="10.00">Manager::map_to_child_tuples</text>
</a>
</g>
</g>
<!-- Node1&#45;&gt;Node15 -->
<g id="edge14_Node000001_Node000015" class="edge">
<title>Node1&#45;&gt;Node15</title>
<g id="a_edge14_Node000001_Node000015"><a xlink:title=" ">
<path fill="none" stroke="#63b8ff" d="M830.61,-163.5C822.2,-163.5 813.65,-163.5 805.23,-163.5"/>
<polygon fill="#63b8ff" stroke="#63b8ff" points="830.77,-167 840.77,-163.5 830.77,-160 830.77,-167"/>
</a>
</g>
</g>
<!-- Node16 -->
<g id="Node000016" class="node">
<title>Node16</title>
<g id="a_Node000016"><a xlink:href="namespacewmtk_1_1simplex.html#a15e2b37cbcf34fa9fcd27d3449866254" target="_top" xlink:title=" ">
<polygon fill="white" stroke="#666666" points="793.5,-130.5 650.5,-130.5 650.5,-100.5 793.5,-100.5 793.5,-130.5"/>
<text text-anchor="start" x="658.5" y="-118.5" font-family="Helvetica,sans-Serif" font-size="10.00">wmtk::simplex::neighbors</text>
<text text-anchor="middle" x="722" y="-107.5" font-family="Helvetica,sans-Serif" font-size="10.00">_single_dimension_tuples</text>
</a>
</g>
</g>
<!-- Node1&#45;&gt;Node16 -->
<g id="edge15_Node000001_Node000016" class="edge">
<title>Node1&#45;&gt;Node16</title>
<g id="a_edge15_Node000001_Node000016"><a xlink:title=" ">
<path fill="none" stroke="#63b8ff" d="M842.46,-145.92C822.59,-140.86 801.11,-135.39 781.92,-130.5"/>
<polygon fill="#63b8ff" stroke="#63b8ff" points="841.82,-149.37 852.37,-148.44 843.55,-142.58 841.82,-149.37"/>
</a>
</g>
</g>
<!-- Node20 -->
<g id="Node000020" class="node">
<title>Node20</title>
<g id="a_Node000020"><a xlink:href="classwmtk_1_1components_1_1_marching.html#a93c8d735afd009d73bfc4700b4f8e3f6" target="_top" xlink:title="Perform the actual marching.">
<polygon fill="white" stroke="#666666" points="802.5,-82.5 641.5,-82.5 641.5,-52.5 802.5,-52.5 802.5,-82.5"/>
<text text-anchor="start" x="649.5" y="-70.5" font-family="Helvetica,sans-Serif" font-size="10.00">wmtk::components::Marching</text>
<text text-anchor="middle" x="722" y="-59.5" font-family="Helvetica,sans-Serif" font-size="10.00">::process</text>
</a>
</g>
</g>
<!-- Node1&#45;&gt;Node20 -->
<g id="edge19_Node000001_Node000020" class="edge">
<title>Node1&#45;&gt;Node20</title>
<g id="a_edge19_Node000001_Node000020"><a xlink:title=" ">
<path fill="none" stroke="#63b8ff" d="M884.94,-142.12C864.2,-126.29 834.11,-105.19 805,-91.5 797.89,-88.15 790.2,-85.17 782.49,-82.53"/>
<polygon fill="#63b8ff" stroke="#63b8ff" points="882.91,-144.97 892.96,-148.32 887.19,-139.43 882.91,-144.97"/>
</a>
</g>
</g>
<!-- Node3 -->
<g id="Node000003" class="node">
<title>Node3</title>
<g id="a_Node000003"><a xlink:href="namespacewmtk_1_1simplex.html#a822a4b42dd4b13153cbac8ffac5dca9c" target="_top" xlink:title="Returns all cofaces of a simplex that are of the provided primitive type.">
<polygon fill="white" stroke="#666666" points="568.5,-446.5 435.5,-446.5 435.5,-416.5 568.5,-416.5 568.5,-446.5"/>
<text text-anchor="start" x="443.5" y="-434.5" font-family="Helvetica,sans-Serif" font-size="10.00">wmtk::simplex::cofaces</text>
<text text-anchor="middle" x="502" y="-423.5" font-family="Helvetica,sans-Serif" font-size="10.00">_single_dimension</text>
</a>
</g>
</g>
<!-- Node2&#45;&gt;Node3 -->
<g id="edge2_Node000002_Node000003" class="edge">
<title>Node2&#45;&gt;Node3</title>
<g id="a_edge2_Node000002_Node000003"><a xlink:title=" ">
<path fill="none" stroke="#63b8ff" d="M704.5,-310.92C683.92,-338.34 646.14,-383.1 603,-407.5 592.51,-413.43 580.6,-417.9 568.75,-421.27"/>
<polygon fill="#63b8ff" stroke="#63b8ff" points="707.46,-312.81 710.57,-302.68 701.82,-308.66 707.46,-312.81"/>
</a>
</g>
</g>
<!-- Node4 -->
<g id="Node000004" class="node">
<title>Node4</title>
<g id="a_Node000004"><a xlink:href="namespacewmtk_1_1simplex.html#a938ea4ec9739ae5cdbd1d7a4976698a1" target="_top" xlink:title=" ">
<polygon fill="white" stroke="#666666" points="568.5,-398.5 435.5,-398.5 435.5,-368.5 568.5,-368.5 568.5,-398.5"/>
<text text-anchor="start" x="443.5" y="-386.5" font-family="Helvetica,sans-Serif" font-size="10.00">wmtk::simplex::cofaces</text>
<text text-anchor="middle" x="502" y="-375.5" font-family="Helvetica,sans-Serif" font-size="10.00">_single_dimension</text>
</a>
</g>
</g>
<!-- Node2&#45;&gt;Node4 -->
<g id="edge3_Node000002_Node000004" class="edge">
<title>Node2&#45;&gt;Node4</title>
<g id="a_edge3_Node000002_Node000004"><a xlink:title=" ">
<path fill="none" stroke="#63b8ff" d="M692.45,-308.45C669.35,-324.5 635.45,-346.1 603,-359.5 592.19,-363.96 580.37,-367.72 568.75,-370.83"/>
<polygon fill="#63b8ff" stroke="#63b8ff" points="694.59,-311.22 700.74,-302.59 690.55,-305.5 694.59,-311.22"/>
</a>
</g>
</g>
<!-- Node5 -->
<g id="Node000005" class="node">
<title>Node5</title>
<g id="a_Node000005"><a xlink:href="classwmtk_1_1function_1_1_local_neighbors_sum_function.html#a9a8a406910f491899eaaa0c8e5b400c2" target="_top" xlink:title=" ">
<polygon fill="white" stroke="#666666" points="587.5,-350.5 416.5,-350.5 416.5,-320.5 587.5,-320.5 587.5,-350.5"/>
<text text-anchor="start" x="424.5" y="-338.5" font-family="Helvetica,sans-Serif" font-size="10.00">wmtk::function::LocalNeighbors</text>
<text text-anchor="middle" x="502" y="-327.5" font-family="Helvetica,sans-Serif" font-size="10.00">SumFunction::domain</text>
</a>
</g>
</g>
<!-- Node2&#45;&gt;Node5 -->
<g id="edge4_Node000002_Node000005" class="edge">
<title>Node2&#45;&gt;Node5</title>
<g id="a_edge4_Node000002_Node000005"><a xlink:title=" ">
<path fill="none" stroke="#63b8ff" d="M642.73,-304.73C619.31,-309.89 593.84,-315.5 571.14,-320.5"/>
<polygon fill="#63b8ff" stroke="#63b8ff" points="643.61,-308.12 652.62,-302.56 642.1,-301.29 643.61,-308.12"/>
</a>
</g>
</g>
<!-- Node9 -->
<g id="Node000009" class="node">
<title>Node9</title>
<g id="a_Node000009"><a xlink:href="classwmtk_1_1operations_1_1_a_m_i_p_s_optimization_smoothing.html#a2c409cd3da46f4360119e142ef3c3682" target="_top" xlink:title="returns an empty vector in case of failure">
<polygon fill="white" stroke="#666666" points="603,-302.5 401,-302.5 401,-272.5 603,-272.5 603,-302.5"/>
<text text-anchor="start" x="409" y="-290.5" font-family="Helvetica,sans-Serif" font-size="10.00">wmtk::operations::AMIPSOptimization</text>
<text text-anchor="middle" x="502" y="-279.5" font-family="Helvetica,sans-Serif" font-size="10.00">Smoothing::execute</text>
</a>
</g>
</g>
<!-- Node2&#45;&gt;Node9 -->
<g id="edge8_Node000002_Node000009" class="edge">
<title>Node2&#45;&gt;Node9</title>
<g id="a_edge8_Node000002_Node000009"><a xlink:title=" ">
<path fill="none" stroke="#63b8ff" d="M632.08,-287.5C622.57,-287.5 612.85,-287.5 603.23,-287.5"/>
<polygon fill="#63b8ff" stroke="#63b8ff" points="632.3,-291 642.3,-287.5 632.3,-284 632.3,-291"/>
</a>
</g>
</g>
<!-- Node10 -->
<g id="Node000010" class="node">
<title>Node10</title>
<g id="a_Node000010"><a xlink:href="classwmtk_1_1operations_1_1_a_m_i_p_s_optimization_smoothing_periodic.html#a86df18fe3713cb41dca1687487dea61b" target="_top" xlink:title="returns an empty vector in case of failure">
<polygon fill="white" stroke="#666666" points="603,-254.5 401,-254.5 401,-224.5 603,-224.5 603,-254.5"/>
<text text-anchor="start" x="409" y="-242.5" font-family="Helvetica,sans-Serif" font-size="10.00">wmtk::operations::AMIPSOptimization</text>
<text text-anchor="middle" x="502" y="-231.5" font-family="Helvetica,sans-Serif" font-size="10.00">SmoothingPeriodic::execute</text>
</a>
</g>
</g>
<!-- Node2&#45;&gt;Node10 -->
<g id="edge9_Node000002_Node000010" class="edge">
<title>Node2&#45;&gt;Node10</title>
<g id="a_edge9_Node000002_Node000010"><a xlink:title=" ">
<path fill="none" stroke="#63b8ff" d="M642.73,-270.27C619.31,-265.11 593.84,-259.5 571.14,-254.5"/>
<polygon fill="#63b8ff" stroke="#63b8ff" points="642.1,-273.71 652.62,-272.44 643.61,-266.88 642.1,-273.71"/>
</a>
</g>
</g>
<!-- Node11 -->
<g id="Node000011" class="node">
<title>Node11</title>
<g id="a_Node000011"><a xlink:href="namespacewmtk_1_1simplex.html#ab6c9b8aa48fb55fb4bbab2e543b982e7" target="_top" xlink:title=" ">
<polygon fill="white" stroke="#666666" points="573.5,-206.5 430.5,-206.5 430.5,-176.5 573.5,-176.5 573.5,-206.5"/>
<text text-anchor="start" x="438.5" y="-194.5" font-family="Helvetica,sans-Serif" font-size="10.00">wmtk::simplex::neighbors</text>
<text text-anchor="middle" x="502" y="-183.5" font-family="Helvetica,sans-Serif" font-size="10.00">_single_dimension</text>
</a>
</g>
</g>
<!-- Node2&#45;&gt;Node11 -->
<g id="edge10_Node000002_Node000011" class="edge">
<title>Node2&#45;&gt;Node11</title>
<g id="a_edge10_Node000002_Node000011"><a xlink:title=" ">
<path fill="none" stroke="#63b8ff" d="M688.73,-267.1C656.99,-247.14 612,-219.22 603,-215.5 593.68,-211.65 583.6,-208.33 573.55,-205.49"/>
<polygon fill="#63b8ff" stroke="#63b8ff" points="686.97,-270.12 697.3,-272.49 690.7,-264.2 686.97,-270.12"/>
</a>
</g>
</g>
<!-- Node6 -->
<g id="Node000006" class="node">
<title>Node6</title>
<g id="a_Node000006"><a xlink:href="classwmtk_1_1function_1_1_local_neighbors_sum_function.html#a8f4a1942d320c2d613d1af447738f1ea" target="_top" xlink:title="get_gradient collects the local neigh and call the gradient of m_function on all simplicies">
<polygon fill="white" stroke="#666666" points="365,-398.5 194,-398.5 194,-368.5 365,-368.5 365,-398.5"/>
<text text-anchor="start" x="202" y="-386.5" font-family="Helvetica,sans-Serif" font-size="10.00">wmtk::function::LocalNeighbors</text>
<text text-anchor="middle" x="279.5" y="-375.5" font-family="Helvetica,sans-Serif" font-size="10.00">SumFunction::get_gradient</text>
</a>
</g>
</g>
<!-- Node5&#45;&gt;Node6 -->
<g id="edge5_Node000005_Node000006" class="edge">
<title>Node5&#45;&gt;Node6</title>
<g id="a_edge5_Node000005_Node000006"><a xlink:title=" ">
<path fill="none" stroke="#63b8ff" d="M421.83,-352.73C398.15,-357.89 372.38,-363.5 349.42,-368.5"/>
<polygon fill="#63b8ff" stroke="#63b8ff" points="422.81,-356.1 431.84,-350.56 421.32,-349.26 422.81,-356.1"/>
</a>
</g>
</g>
<!-- Node7 -->
<g id="Node000007" class="node">
<title>Node7</title>
<g id="a_Node000007"><a xlink:href="classwmtk_1_1function_1_1_local_neighbors_sum_function.html#a45bfd84c9f092364f449605199731442" target="_top" xlink:title="get_hessian evaluates the hessian of the function f(x) defined wrt the variable x.">
<polygon fill="white" stroke="#666666" points="365,-350.5 194,-350.5 194,-320.5 365,-320.5 365,-350.5"/>
<text text-anchor="start" x="202" y="-338.5" font-family="Helvetica,sans-Serif" font-size="10.00">wmtk::function::LocalNeighbors</text>
<text text-anchor="middle" x="279.5" y="-327.5" font-family="Helvetica,sans-Serif" font-size="10.00">SumFunction::get_hessian</text>
</a>
</g>
</g>
<!-- Node5&#45;&gt;Node7 -->
<g id="edge6_Node000005_Node000007" class="edge">
<title>Node5&#45;&gt;Node7</title>
<g id="a_edge6_Node000005_Node000007"><a xlink:title=" ">
<path fill="none" stroke="#63b8ff" d="M406.08,-335.5C392.51,-335.5 378.62,-335.5 365.26,-335.5"/>
<polygon fill="#63b8ff" stroke="#63b8ff" points="406.38,-339 416.38,-335.5 406.38,-332 406.38,-339"/>
</a>
</g>
</g>
<!-- Node8 -->
<g id="Node000008" class="node">
<title>Node8</title>
<g id="a_Node000008"><a xlink:href="classwmtk_1_1function_1_1_local_neighbors_sum_function.html#a0b81383595fa81fb270266bb6cee71da" target="_top" xlink:title="collects the local neigh and call the same m_function on all simplicies">
<polygon fill="white" stroke="#666666" points="365,-302.5 194,-302.5 194,-272.5 365,-272.5 365,-302.5"/>
<text text-anchor="start" x="202" y="-290.5" font-family="Helvetica,sans-Serif" font-size="10.00">wmtk::function::LocalNeighbors</text>
<text text-anchor="middle" x="279.5" y="-279.5" font-family="Helvetica,sans-Serif" font-size="10.00">SumFunction::get_value</text>
</a>
</g>
</g>
<!-- Node5&#45;&gt;Node8 -->
<g id="edge7_Node000005_Node000008" class="edge">
<title>Node5&#45;&gt;Node8</title>
<g id="a_edge7_Node000005_Node000008"><a xlink:title=" ">
<path fill="none" stroke="#63b8ff" d="M421.83,-318.27C398.15,-313.11 372.38,-307.5 349.42,-302.5"/>
<polygon fill="#63b8ff" stroke="#63b8ff" points="421.32,-321.74 431.84,-320.44 422.81,-314.9 421.32,-321.74"/>
</a>
</g>
</g>
<!-- Node12 -->
<g id="Node000012" class="node">
<title>Node12</title>
<g id="a_Node000012"><a xlink:href="classwmtk_1_1invariants_1_1_cannot_map_simplex_invariant.html#ae02ff77957e1772a0fd625db5edde307" target="_top" xlink:title=" ">
<polygon fill="white" stroke="#666666" points="358.5,-233 200.5,-233 200.5,-192 358.5,-192 358.5,-233"/>
<text text-anchor="start" x="208.5" y="-221" font-family="Helvetica,sans-Serif" font-size="10.00">wmtk::invariants::Cannot</text>
<text text-anchor="start" x="208.5" y="-210" font-family="Helvetica,sans-Serif" font-size="10.00">MapSimplexInvariant::before</text>
<text text-anchor="middle" x="279.5" y="-199" font-family="Helvetica,sans-Serif" font-size="10.00">_default</text>
</a>
</g>
</g>
<!-- Node11&#45;&gt;Node12 -->
<g id="edge11_Node000011_Node000012" class="edge">
<title>Node11&#45;&gt;Node12</title>
<g id="a_edge11_Node000011_Node000012"><a xlink:title=" ">
<path fill="none" stroke="#63b8ff" d="M420.29,-199.19C400.22,-201.1 378.75,-203.14 358.8,-205.04"/>
<polygon fill="#63b8ff" stroke="#63b8ff" points="420.7,-202.66 430.32,-198.23 420.04,-195.7 420.7,-202.66"/>
</a>
</g>
</g>
<!-- Node13 -->
<g id="Node000013" class="node">
<title>Node13</title>
<g id="a_Node000013"><a xlink:href="classwmtk_1_1invariants_1_1_cannot_map_simplex_invariant.html#abb121fdae7238d37c098ce8f1555664a" target="_top" xlink:title=" ">
<polygon fill="white" stroke="#666666" points="158,-227.5 0,-227.5 0,-197.5 158,-197.5 158,-227.5"/>
<text text-anchor="start" x="8" y="-215.5" font-family="Helvetica,sans-Serif" font-size="10.00">wmtk::invariants::Cannot</text>
<text text-anchor="middle" x="79" y="-204.5" font-family="Helvetica,sans-Serif" font-size="10.00">MapSimplexInvariant::before</text>
</a>
</g>
</g>
<!-- Node12&#45;&gt;Node13 -->
<g id="edge12_Node000012_Node000013" class="edge">
<title>Node12&#45;&gt;Node13</title>
<g id="a_edge12_Node000012_Node000013"><a xlink:title=" ">
<path fill="none" stroke="#63b8ff" d="M190.16,-212.5C179.47,-212.5 168.62,-212.5 158.1,-212.5"/>
<polygon fill="#63b8ff" stroke="#63b8ff" points="190.33,-216 200.33,-212.5 190.33,-209 190.33,-216"/>
</a>
</g>
</g>
<!-- Node17 -->
<g id="Node000017" class="node">
<title>Node17</title>
<g id="a_Node000017"><a xlink:href="classwmtk_1_1operations_1_1_attribute_transfer_strategy_base.html#a6883c6416f61c4ee06588a86c3b8d731" target="_top" xlink:title=" ">
<polygon fill="white" stroke="#666666" points="577.5,-136 426.5,-136 426.5,-95 577.5,-95 577.5,-136"/>
<text text-anchor="start" x="434.5" y="-124" font-family="Helvetica,sans-Serif" font-size="10.00">wmtk::operations::Attribute</text>
<text text-anchor="start" x="434.5" y="-113" font-family="Helvetica,sans-Serif" font-size="10.00">TransferStrategyBase::get</text>
<text text-anchor="middle" x="502" y="-102" font-family="Helvetica,sans-Serif" font-size="10.00">_parent_simplices</text>
</a>
</g>
</g>
<!-- Node16&#45;&gt;Node17 -->
<g id="edge16_Node000016_Node000017" class="edge">
<title>Node16&#45;&gt;Node17</title>
<g id="a_edge16_Node000016_Node000017"><a xlink:title=" ">
<path fill="none" stroke="#63b8ff" d="M639.99,-115.5C619.53,-115.5 597.67,-115.5 577.55,-115.5"/>
<polygon fill="#63b8ff" stroke="#63b8ff" points="640.22,-119 650.22,-115.5 640.22,-112 640.22,-119"/>
</a>
</g>
</g>
<!-- Node18 -->
<g id="Node000018" class="node">
<title>Node18</title>
<g id="a_Node000018"><a xlink:href="classwmtk_1_1operations_1_1_attribute_transfer_strategy_base.html#aa5e03221c4b6b49e1892ed464d84c0cd" target="_top" xlink:title=" ">
<polygon fill="white" stroke="#666666" points="355,-174 204,-174 204,-133 355,-133 355,-174"/>
<text text-anchor="start" x="212" y="-162" font-family="Helvetica,sans-Serif" font-size="10.00">wmtk::operations::Attribute</text>
<text text-anchor="start" x="212" y="-151" font-family="Helvetica,sans-Serif" font-size="10.00">TransferStrategyBase::get</text>
<text text-anchor="middle" x="279.5" y="-140" font-family="Helvetica,sans-Serif" font-size="10.00">_parent_simplices</text>
</a>
</g>
</g>
<!-- Node17&#45;&gt;Node18 -->
<g id="edge17_Node000017_Node000018" class="edge">
<title>Node17&#45;&gt;Node18</title>
<g id="a_edge17_Node000017_Node000018"><a xlink:title=" ">
<path fill="none" stroke="#63b8ff" d="M416.25,-130.11C396.09,-133.58 374.74,-137.26 355.07,-140.65"/>
<polygon fill="#63b8ff" stroke="#63b8ff" points="417.09,-133.51 426.35,-128.37 415.9,-126.61 417.09,-133.51"/>
</a>
</g>
</g>
<!-- Node19 -->
<g id="Node000019" class="node">
<title>Node19</title>
<g id="a_Node000019"><a xlink:href="classwmtk_1_1operations_1_1_single_attribute_transfer_strategy.html#a0f3548b1b037a88b10a17f0a8e6d17db" target="_top" xlink:title=" ">
<polygon fill="white" stroke="#666666" points="349.5,-115 209.5,-115 209.5,-74 349.5,-74 349.5,-115"/>
<text text-anchor="start" x="217.5" y="-103" font-family="Helvetica,sans-Serif" font-size="10.00">wmtk::operations::Single</text>
<text text-anchor="start" x="217.5" y="-92" font-family="Helvetica,sans-Serif" font-size="10.00">AttributeTransferStrategy</text>
<text text-anchor="middle" x="279.5" y="-81" font-family="Helvetica,sans-Serif" font-size="10.00">::read_parent_values</text>
</a>
</g>
</g>
<!-- Node17&#45;&gt;Node19 -->
<g id="edge18_Node000017_Node000019" class="edge">
<title>Node17&#45;&gt;Node19</title>
<g id="a_edge18_Node000017_Node000019"><a xlink:title=" ">
<path fill="none" stroke="#63b8ff" d="M416.31,-107.43C394.22,-105.33 370.67,-103.09 349.5,-101.07"/>
<polygon fill="#63b8ff" stroke="#63b8ff" points="416.06,-110.93 426.35,-108.39 416.73,-103.96 416.06,-110.93"/>
</a>
</g>
</g>
<!-- Node21 -->
<g id="Node000021" class="node">
<title>Node21</title>
<g id="a_Node000021"><a xlink:href="namespacewmtk_1_1components.html#a6f27411696c9ba6e294768451f31351f" target="_top" xlink:title="Perform maching tetrahedra/triangles.">
<polygon fill="white" stroke="#666666" points="583,-56 421,-56 421,-37 583,-37 583,-56"/>
<text text-anchor="middle" x="502" y="-44" font-family="Helvetica,sans-Serif" font-size="10.00">wmtk::components::marching</text>
</a>
</g>
</g>
<!-- Node20&#45;&gt;Node21 -->
<g id="edge20_Node000020_Node000021" class="edge">
<title>Node20&#45;&gt;Node21</title>
<g id="a_edge20_Node000020_Node000021"><a xlink:title=" ">
<path fill="none" stroke="#63b8ff" d="M631.03,-58.83C615.16,-57.3 598.73,-55.72 583.14,-54.22"/>
<polygon fill="#63b8ff" stroke="#63b8ff" points="631.08,-62.35 641.37,-59.83 631.75,-55.39 631.08,-62.35"/>
</a>
</g>
</g>
<!-- Node22 -->
<g id="Node000022" class="node">
<title>Node22</title>
<g id="a_Node000022"><a xlink:href="tests_2marching_8cpp.html#a74e4ea64dd134ace15ef3292b4eb9753" target="_top" xlink:title=" ">
<polygon fill="white" stroke="#666666" points="315,-56 244,-56 244,-37 315,-37 315,-56"/>
<text text-anchor="middle" x="279.5" y="-44" font-family="Helvetica,sans-Serif" font-size="10.00">TEST_CASE</text>
</a>
</g>
</g>
<!-- Node21&#45;&gt;Node22 -->
<g id="edge21_Node000021_Node000022" class="edge">
<title>Node21&#45;&gt;Node22</title>
<g id="a_edge21_Node000021_Node000022"><a xlink:title=" ">
<path fill="none" stroke="#63b8ff" d="M410.44,-46.5C376.86,-46.5 340.76,-46.5 315.16,-46.5"/>
<polygon fill="#63b8ff" stroke="#63b8ff" points="410.77,-50 420.77,-46.5 410.77,-43 410.77,-50"/>
</a>
</g>
</g>
<!-- Node23 -->
<g id="Node000023" class="node">
<title>Node23</title>
<g id="a_Node000023"><a xlink:href="tests_2marching_8cpp.html#af20fbc246d1ad31be8d9ec0011ac52d6" target="_top" xlink:title=" ">
<polygon fill="white" stroke="#666666" points="315,-19 244,-19 244,0 315,0 315,-19"/>
<text text-anchor="middle" x="279.5" y="-7" font-family="Helvetica,sans-Serif" font-size="10.00">TEST_CASE</text>
</a>
</g>
</g>
<!-- Node21&#45;&gt;Node23 -->
<g id="edge22_Node000021_Node000023" class="edge">
<title>Node21&#45;&gt;Node23</title>
<g id="a_edge22_Node000021_Node000023"><a xlink:title=" ">
<path fill="none" stroke="#63b8ff" d="M434.17,-35.29C394.9,-28.7 346.87,-20.64 315.07,-15.3"/>
<polygon fill="#63b8ff" stroke="#63b8ff" points="433.77,-38.77 444.22,-36.97 434.93,-31.86 433.77,-38.77"/>
</a>
</g>
</g>
</g>
</svg>

<g id="navigator" transform="translate(0 0)" fill="#404254">
  <rect fill="#f2f5e9" fill-opacity="0.5" stroke="#606060" stroke-width=".5" x="0" y="0" width="60" height="60"/>
  <use id="zoomplus" xlink:href="#zoomPlus" x="17" y="9" onmousedown="handleZoom(evt,'in')"/>
  <use id="zoomminus" xlink:href="#zoomMin" x="42" y="9" onmousedown="handleZoom(evt,'out')"/>
  <use id="reset" xlink:href="#resetDef" x="30" y="36" onmousedown="handleReset()"/>
   <use id="arrowup" xlink:href="#arrowUp" x="0" y="0" onmousedown="handlePan(0,-1)"/>
  <use id="arrowright" xlink:href="#arrowRight" x="0" y="0" onmousedown="handlePan(1,0)"/>
  <use id="arrowdown" xlink:href="#arrowDown" x="0" y="0" onmousedown="handlePan(0,1)"/>
  <use id="arrowleft" xlink:href="#arrowLeft" x="0" y="0" onmousedown="handlePan(-1,0)"/>
</g>
<svg viewBox="0 0 15 15" width="100%" height="30px" preserveAspectRatio="xMaxYMin meet">
 <g id="arrow_out" transform="scale(0.3 0.3)">
  <a xlink:href="namespacewmtk_1_1simplex_abee08ace6632fab4e958282840e65e43_icgraph_org.svg" target="_base">
   <rect id="button" ry="5" rx="5" y="6" x="6" height="38" width="38"
        fill="#f2f5e9" fill-opacity="0.5" stroke="#606060" stroke-width="1.0"/>
   <path id="arrow"
     d="M 11.500037,31.436501 C 11.940474,20.09759 22.043105,11.32322 32.158766,21.979434 L 37.068811,17.246167 C 37.068811,17.246167 37.088388,32 37.088388,32 L 22.160133,31.978069 C 22.160133,31.978069 26.997745,27.140456 26.997745,27.140456 C 18.528582,18.264221 13.291696,25.230495 11.500037,31.436501 z"
     style="fill:#404040;"/>
  </a>
 </g>
</svg>

<style type='text/css'>
<![CDATA[
[data-mouse-over-selected='false'] { opacity: 0.7; }
[data-mouse-over-selected='true']  { opacity: 1.0; }
]]>
</style>
<script type="application/ecmascript"><![CDATA[
document.addEventListener('DOMContentLoaded', (event) => {
  highlightEdges();
  highlightAdjacentNodes();
});
]]></script>
</svg>
