<?xml version="1.0" encoding="UTF-8" standalone="no"?>
<!DOCTYPE svg PUBLIC "-//W3C//DTD SVG 1.1//EN"
 "http://www.w3.org/Graphics/SVG/1.1/DTD/svg11.dtd">
<!-- Generated by graphviz version 2.43.0 (0)
 -->
<!-- Title: src/wmtk/utils/orient.hpp Pages: 1 -->
<!--zoomable 126 -->

<svg id="main" version="1.1" xmlns="http://www.w3.org/2000/svg" xmlns:xlink="http://www.w3.org/1999/xlink" xml:space="preserve" onload="init(evt)">
<style type="text/css"><![CDATA[
.node, .edge {opacity: 0.7;}
.node.selected, .edge.selected {opacity: 1;}
.edge:hover path { stroke: red; }
.edge:hover polygon { stroke: red; fill: red; }
]]></style>

<defs>
  <circle id="rim" cx="0" cy="0" r="7"/>
  <circle id="rim2" cx="0" cy="0" r="3.5"/>
  <g id="zoomPlus">
    <use xlink:href="#rim" fill="#404040"><set attributeName="fill" to="#808080" begin="zoomplus.mouseover" end="zoomplus.mouseout"/></use>
    <path d="M-4,0h8M0,-4v8" fill="none" stroke="white" stroke-width="1.5" pointer-events="none"/>
  </g>
  <g id="zoomMin">
    <use xlink:href="#rim" fill="#404040"><set attributeName="fill" to="#808080" begin="zoomminus.mouseover" end="zoomminus.mouseout"/></use>
    <path d="M-4,0h8" fill="none" stroke="white" stroke-width="1.5" pointer-events="none"/>
  </g>
  <g id="arrowUp" transform="translate(30 24)">
    <use xlink:href="#rim"/>
    <path pointer-events="none" fill="none" stroke="white" stroke-width="1.5" d="M0,-3.0v7 M-2.5,-0.5L0,-3.0L2.5,-0.5"/>
  </g>
  <g id="arrowRight" transform="rotate(90) translate(36 -43)">
    <use xlink:href="#rim"/>
    <path pointer-events="none" fill="none" stroke="white" stroke-width="1.5" d="M0,-3.0v7 M-2.5,-0.5L0,-3.0L2.5,-0.5"/>
  </g>
  <g id="arrowDown" transform="rotate(180) translate(-30 -48)">
    <use xlink:href="#rim"/>
    <path pointer-events="none" fill="none" stroke="white" stroke-width="1.5" d="M0,-3.0v7 M-2.5,-0.5L0,-3.0L2.5,-0.5"/>
  </g>
  <g id="arrowLeft" transform="rotate(270) translate(-36 17)">
    <use xlink:href="#rim"/>
    <path pointer-events="none" fill="none" stroke="white" stroke-width="1.5" d="M0,-3.0v7 M-2.5,-0.5L0,-3.0L2.5,-0.5"/>
  </g>
  <g id="resetDef">
    <use xlink:href="#rim2" fill="#404040"><set attributeName="fill" to="#808080" begin="reset.mouseover" end="reset.mouseout"/></use>
  </g>
</defs>
<script type="application/ecmascript">
var viewWidth = 5175;
var viewHeight = 126;
var sectionId = 'dynsection-1';
</script>
<script type="application/ecmascript" xlink:href="svg.min.js"/>
<svg id="graph" class="graph">
<g id="viewport">
<title>src/wmtk/utils/orient.hpp</title>
<!-- Node1 -->
<g id="Node000001" class="node">
<title>Node1</title>
<g id="a_Node000001"><a xlink:title=" ">
<polygon fill="#999999" stroke="#666666" points="2638.5,-118 2500.5,-118 2500.5,-99 2638.5,-99 2638.5,-118"/>
<text text-anchor="middle" x="2569.5" y="-106" font-family="Helvetica,sans-Serif" font-size="10.00">src/wmtk/utils/orient.hpp</text>
</a>
</g>
</g>
<!-- Node2 -->
<g id="Node000002" class="node">
<title>Node2</title>
<g id="a_Node000002"><a xlink:href="internal_2_c_d_t_8cpp.html" target="_top" xlink:title=" ">
<polygon fill="white" stroke="#666666" points="143,-52 0,-52 0,-11 143,-11 143,-52"/>
<text text-anchor="start" x="8" y="-40" font-family="Helvetica,sans-Serif" font-size="10.00">components/CDT/wmtk</text>
<text text-anchor="start" x="8" y="-29" font-family="Helvetica,sans-Serif" font-size="10.00">/components/CDT/internal</text>
<text text-anchor="middle" x="71.5" y="-18" font-family="Helvetica,sans-Serif" font-size="10.00">/CDT.cpp</text>
</a>
</g>
</g>
<!-- Node1&#45;&gt;Node2 -->
<g id="edge1_Node000001_Node000002" class="edge">
<title>Node1&#45;&gt;Node2</title>
<g id="a_edge1_Node000001_Node000002"><a xlink:title=" ">
<path fill="none" stroke="#63b8ff" d="M2490.15,-107.66C2098.94,-108.25 384.96,-108.22 151.5,-63 139.24,-60.63 126.42,-56.53 114.71,-52.09"/>
<polygon fill="#63b8ff" stroke="#63b8ff" points="2490.25,-111.16 2500.24,-107.65 2490.24,-104.16 2490.25,-111.16"/>
</a>
</g>
</g>
<!-- Node3 -->
<g id="Node000003" class="node">
<title>Node3</title>
<g id="a_Node000003"><a xlink:href="components_2edge__insertion_2wmtk_2components_2edge__insertion_2internal_2edge__insertion_8cpp.html" target="_top" xlink:title=" ">
<polygon fill="white" stroke="#666666" points="346,-52 161,-52 161,-11 346,-11 346,-52"/>
<text text-anchor="start" x="169" y="-40" font-family="Helvetica,sans-Serif" font-size="10.00">components/edge_insertion</text>
<text text-anchor="start" x="169" y="-29" font-family="Helvetica,sans-Serif" font-size="10.00">/wmtk/components/edge_insertion</text>
<text text-anchor="middle" x="253.5" y="-18" font-family="Helvetica,sans-Serif" font-size="10.00">/internal/edge_insertion.cpp</text>
</a>
</g>
</g>
<!-- Node1&#45;&gt;Node3 -->
<g id="edge2_Node000001_Node000003" class="edge">
<title>Node1&#45;&gt;Node3</title>
<g id="a_edge2_Node000001_Node000003"><a xlink:title=" ">
<path fill="none" stroke="#63b8ff" d="M2490.33,-107.19C2120.1,-105.57 568.4,-96.79 354.5,-63 339.3,-60.6 323.2,-56.49 308.43,-52.05"/>
<polygon fill="#63b8ff" stroke="#63b8ff" points="2490.41,-110.69 2500.42,-107.23 2490.44,-103.69 2490.41,-110.69"/>
</a>
</g>
</g>
<!-- Node4 -->
<g id="Node000004" class="node">
<title>Node4</title>
<g id="a_Node000004"><a xlink:href="configure__swap__tetmesh_8cpp.html" target="_top" xlink:title=" ">
<polygon fill="white" stroke="#666666" points="531,-57.5 364,-57.5 364,-5.5 531,-5.5 531,-57.5"/>
<text text-anchor="start" x="372" y="-45.5" font-family="Helvetica,sans-Serif" font-size="10.00">components/isotropic</text>
<text text-anchor="start" x="372" y="-34.5" font-family="Helvetica,sans-Serif" font-size="10.00">_remeshing/wmtk/components</text>
<text text-anchor="start" x="372" y="-23.5" font-family="Helvetica,sans-Serif" font-size="10.00">/isotropic_remeshing/internal</text>
<text text-anchor="middle" x="447.5" y="-12.5" font-family="Helvetica,sans-Serif" font-size="10.00">/configure_swap_tetmesh.cpp</text>
</a>
</g>
</g>
<!-- Node1&#45;&gt;Node4 -->
<g id="edge3_Node000001_Node000004" class="edge">
<title>Node1&#45;&gt;Node4</title>
<g id="a_edge3_Node000001_Node000004"><a xlink:title=" ">
<path fill="none" stroke="#63b8ff" d="M2490.42,-107.16C2139.75,-105.45 733.85,-96.57 539.5,-63 531.62,-61.64 523.5,-59.73 515.5,-57.53"/>
<polygon fill="#63b8ff" stroke="#63b8ff" points="2490.47,-110.66 2500.49,-107.21 2490.5,-103.66 2490.47,-110.66"/>
</a>
</g>
</g>
<!-- Node5 -->
<g id="Node000005" class="node">
<title>Node5</title>
<g id="a_Node000005"><a xlink:href="internal_2periodic__optimization_8cpp.html" target="_top" xlink:title=" ">
<polygon fill="white" stroke="#666666" points="716,-63 549,-63 549,0 716,0 716,-63"/>
<text text-anchor="start" x="557" y="-51" font-family="Helvetica,sans-Serif" font-size="10.00">components/isotropic</text>
<text text-anchor="start" x="557" y="-40" font-family="Helvetica,sans-Serif" font-size="10.00">_remeshing/wmtk/components</text>
<text text-anchor="start" x="557" y="-29" font-family="Helvetica,sans-Serif" font-size="10.00">/isotropic_remeshing/periodic</text>
<text text-anchor="start" x="557" y="-18" font-family="Helvetica,sans-Serif" font-size="10.00">_optimization/internal/periodic</text>
<text text-anchor="middle" x="632.5" y="-7" font-family="Helvetica,sans-Serif" font-size="10.00">_optimization.cpp</text>
</a>
</g>
</g>
<!-- Node1&#45;&gt;Node5 -->
<g id="edge4_Node000001_Node000005" class="edge">
<title>Node1&#45;&gt;Node5</title>
<g id="a_edge4_Node000001_Node000005"><a xlink:title=" ">
<path fill="none" stroke="#63b8ff" d="M2489.95,-106.95C2159.04,-104.48 900.67,-93.16 725.5,-63 722.4,-62.47 719.27,-61.85 716.11,-61.17"/>
<polygon fill="#63b8ff" stroke="#63b8ff" points="2490.37,-110.45 2500.4,-107.03 2490.42,-103.45 2490.37,-110.45"/>
</a>
</g>
</g>
<!-- Node6 -->
<g id="Node000006" class="node">
<title>Node6</title>
<g id="a_Node000006"><a xlink:href="test__component__wildmeshing_8cpp.html" target="_top" xlink:title=" ">
<polygon fill="white" stroke="#666666" points="898.5,-46.5 734.5,-46.5 734.5,-16.5 898.5,-16.5 898.5,-46.5"/>
<text text-anchor="start" x="742.5" y="-34.5" font-family="Helvetica,sans-Serif" font-size="10.00">components/tests/test</text>
<text text-anchor="middle" x="816.5" y="-23.5" font-family="Helvetica,sans-Serif" font-size="10.00">_component_wildmeshing.cpp</text>
</a>
</g>
</g>
<!-- Node1&#45;&gt;Node6 -->
<g id="edge5_Node000001_Node000006" class="edge">
<title>Node1&#45;&gt;Node6</title>
<g id="a_edge5_Node000001_Node000006"><a xlink:title=" ">
<path fill="none" stroke="#63b8ff" d="M2489.95,-106.75C2180.16,-103.66 1063.92,-90.67 907.5,-63 888.14,-59.58 867.29,-52.83 850.44,-46.55"/>
<polygon fill="#63b8ff" stroke="#63b8ff" points="2490.15,-110.26 2500.19,-106.86 2490.22,-103.26 2490.15,-110.26"/>
</a>
</g>
</g>
<!-- Node7 -->
<g id="Node000007" class="node">
<title>Node7</title>
<g id="a_Node000007"><a xlink:href="wildmeshing2d_8cpp.html" target="_top" xlink:title=" ">
<polygon fill="white" stroke="#666666" points="1092.5,-52 916.5,-52 916.5,-11 1092.5,-11 1092.5,-52"/>
<text text-anchor="start" x="924.5" y="-40" font-family="Helvetica,sans-Serif" font-size="10.00">components/wildmeshing</text>
<text text-anchor="start" x="924.5" y="-29" font-family="Helvetica,sans-Serif" font-size="10.00">/wmtk/components/wildmeshing</text>
<text text-anchor="middle" x="1004.5" y="-18" font-family="Helvetica,sans-Serif" font-size="10.00">/internal/wildmeshing2d.cpp</text>
</a>
</g>
</g>
<!-- Node1&#45;&gt;Node7 -->
<g id="edge6_Node000001_Node000007" class="edge">
<title>Node1&#45;&gt;Node7</title>
<g id="a_edge6_Node000001_Node000007"><a xlink:title=" ">
<path fill="none" stroke="#63b8ff" d="M2489.86,-107.96C2224.5,-109.02 1371.92,-108.72 1101.5,-63 1086.97,-60.54 1071.59,-56.44 1057.48,-52.04"/>
<polygon fill="#63b8ff" stroke="#63b8ff" points="2490.2,-111.45 2500.18,-107.91 2490.17,-104.45 2490.2,-111.45"/>
</a>
</g>
</g>
<!-- Node8 -->
<g id="Node000008" class="node">
<title>Node8</title>
<g id="a_Node000008"><a xlink:href="wildmeshing3d_8cpp.html" target="_top" xlink:title=" ">
<polygon fill="white" stroke="#666666" points="1286.5,-52 1110.5,-52 1110.5,-11 1286.5,-11 1286.5,-52"/>
<text text-anchor="start" x="1118.5" y="-40" font-family="Helvetica,sans-Serif" font-size="10.00">components/wildmeshing</text>
<text text-anchor="start" x="1118.5" y="-29" font-family="Helvetica,sans-Serif" font-size="10.00">/wmtk/components/wildmeshing</text>
<text text-anchor="middle" x="1198.5" y="-18" font-family="Helvetica,sans-Serif" font-size="10.00">/internal/wildmeshing3d.cpp</text>
</a>
</g>
</g>
<!-- Node1&#45;&gt;Node8 -->
<g id="edge7_Node000001_Node000008" class="edge">
<title>Node1&#45;&gt;Node8</title>
<g id="a_edge7_Node000001_Node000008"><a xlink:title=" ">
<path fill="none" stroke="#63b8ff" d="M2490.29,-107.52C2249.22,-107.15 1526.81,-102.65 1295.5,-63 1281.06,-60.52 1265.79,-56.45 1251.74,-52.07"/>
<polygon fill="#63b8ff" stroke="#63b8ff" points="2490.37,-111.02 2500.38,-107.54 2490.38,-104.02 2490.37,-111.02"/>
</a>
</g>
</g>
<!-- Node9 -->
<g id="Node000009" class="node">
<title>Node9</title>
<g id="a_Node000009"><a xlink:href="wildmeshing__old_8cpp.html" target="_top" xlink:title=" ">
<polygon fill="white" stroke="#666666" points="1480.5,-52 1304.5,-52 1304.5,-11 1480.5,-11 1480.5,-52"/>
<text text-anchor="start" x="1312.5" y="-40" font-family="Helvetica,sans-Serif" font-size="10.00">components/wildmeshing</text>
<text text-anchor="start" x="1312.5" y="-29" font-family="Helvetica,sans-Serif" font-size="10.00">/wmtk/components/wildmeshing</text>
<text text-anchor="middle" x="1392.5" y="-18" font-family="Helvetica,sans-Serif" font-size="10.00">/wildmeshing_old.cpp</text>
</a>
</g>
</g>
<!-- Node1&#45;&gt;Node9 -->
<g id="edge8_Node000001_Node000009" class="edge">
<title>Node1&#45;&gt;Node9</title>
<g id="a_edge8_Node000001_Node000009"><a xlink:title=" ">
<path fill="none" stroke="#63b8ff" d="M2490.01,-106.93C2274.39,-104.97 1681.73,-96.57 1489.5,-63 1475.07,-60.48 1459.8,-56.39 1445.75,-52.01"/>
<polygon fill="#63b8ff" stroke="#63b8ff" points="2490.27,-110.44 2500.3,-107.03 2490.33,-103.44 2490.27,-110.44"/>
</a>
</g>
</g>
<!-- Node10 -->
<g id="Node000010" class="node">
<title>Node10</title>
<g id="a_Node000010"><a xlink:href="simplex_2amips_8cpp.html" target="_top" xlink:title=" ">
<polygon fill="white" stroke="#666666" points="1644.5,-46.5 1498.5,-46.5 1498.5,-16.5 1644.5,-16.5 1644.5,-46.5"/>
<text text-anchor="start" x="1506.5" y="-34.5" font-family="Helvetica,sans-Serif" font-size="10.00">src/wmtk/function/simplex</text>
<text text-anchor="middle" x="1571.5" y="-23.5" font-family="Helvetica,sans-Serif" font-size="10.00">/AMIPS.cpp</text>
</a>
</g>
</g>
<!-- Node1&#45;&gt;Node10 -->
<g id="edge9_Node000001_Node000010" class="edge">
<title>Node1&#45;&gt;Node10</title>
<g id="a_edge9_Node000001_Node000010"><a xlink:title=" ">
<path fill="none" stroke="#63b8ff" d="M2490.4,-106.77C2298.51,-104.49 1812.38,-95.59 1653.5,-63 1636.09,-59.43 1617.47,-52.75 1602.38,-46.55"/>
<polygon fill="#63b8ff" stroke="#63b8ff" points="2490.38,-110.27 2500.42,-106.88 2490.46,-103.27 2490.38,-110.27"/>
</a>
</g>
</g>
<!-- Node11 -->
<g id="Node000011" class="node">
<title>Node11</title>
<g id="a_Node000011"><a xlink:href="_collapse_energy_before_invariant_8cpp.html" target="_top" xlink:title=" ">
<polygon fill="white" stroke="#666666" points="1854,-46.5 1663,-46.5 1663,-16.5 1854,-16.5 1854,-46.5"/>
<text text-anchor="start" x="1671" y="-34.5" font-family="Helvetica,sans-Serif" font-size="10.00">src/wmtk/invariants</text>
<text text-anchor="middle" x="1758.5" y="-23.5" font-family="Helvetica,sans-Serif" font-size="10.00">/CollapseEnergyBeforeInvariant.cpp</text>
</a>
</g>
</g>
<!-- Node1&#45;&gt;Node11 -->
<g id="edge10_Node000001_Node000011" class="edge">
<title>Node1&#45;&gt;Node11</title>
<g id="a_edge10_Node000001_Node000011"><a xlink:title=" ">
<path fill="none" stroke="#63b8ff" d="M2490.03,-108.22C2358.47,-108.15 2087.61,-102.58 1862.5,-63 1841.19,-59.25 1818.04,-52.72 1799,-46.65"/>
<polygon fill="#63b8ff" stroke="#63b8ff" points="2490.41,-111.72 2500.4,-108.22 2490.4,-104.72 2490.41,-111.72"/>
</a>
</g>
</g>
<!-- Node12 -->
<g id="Node000012" class="node">
<title>Node12</title>
<g id="a_Node000012"><a xlink:href="_collapse_energy_before_invariant_double_8cpp.html" target="_top" xlink:title=" ">
<polygon fill="white" stroke="#666666" points="2043,-52 1872,-52 1872,-11 2043,-11 2043,-52"/>
<text text-anchor="start" x="1880" y="-40" font-family="Helvetica,sans-Serif" font-size="10.00">src/wmtk/invariants</text>
<text text-anchor="start" x="1880" y="-29" font-family="Helvetica,sans-Serif" font-size="10.00">/CollapseEnergyBeforeInvariant</text>
<text text-anchor="middle" x="1957.5" y="-18" font-family="Helvetica,sans-Serif" font-size="10.00">Double.cpp</text>
</a>
</g>
</g>
<!-- Node1&#45;&gt;Node12 -->
<g id="edge11_Node000001_Node000012" class="edge">
<title>Node1&#45;&gt;Node12</title>
<g id="a_edge11_Node000001_Node000012"><a xlink:title=" ">
<path fill="none" stroke="#63b8ff" d="M2489.99,-106.18C2387.8,-103.23 2205.35,-93.71 2052.5,-63 2038.91,-60.27 2024.54,-56.27 2011.2,-52.06"/>
<polygon fill="#63b8ff" stroke="#63b8ff" points="2490.14,-109.69 2500.23,-106.46 2490.33,-102.69 2490.14,-109.69"/>
</a>
</g>
</g>
<!-- Node13 -->
<g id="Node000013" class="node">
<title>Node13</title>
<g id="a_Node000013"><a xlink:href="_collapse_soft_energy_before_invariant_8cpp.html" target="_top" xlink:title=" ">
<polygon fill="white" stroke="#666666" points="2271.5,-46.5 2061.5,-46.5 2061.5,-16.5 2271.5,-16.5 2271.5,-46.5"/>
<text text-anchor="start" x="2069.5" y="-34.5" font-family="Helvetica,sans-Serif" font-size="10.00">src/wmtk/invariants</text>
<text text-anchor="middle" x="2166.5" y="-23.5" font-family="Helvetica,sans-Serif" font-size="10.00">/CollapseSoftEnergyBeforeInvariant.cpp</text>
</a>
</g>
</g>
<!-- Node1&#45;&gt;Node13 -->
<g id="edge12_Node000001_Node000013" class="edge">
<title>Node1&#45;&gt;Node13</title>
<g id="a_edge12_Node000001_Node000013"><a xlink:title=" ">
<path fill="none" stroke="#63b8ff" d="M2489.97,-97.62C2431.68,-89.81 2350.8,-77.77 2280.5,-63 2258.55,-58.39 2234.52,-52.14 2214.2,-46.5"/>
<polygon fill="#63b8ff" stroke="#63b8ff" points="2489.84,-101.14 2500.22,-98.98 2490.76,-94.2 2489.84,-101.14"/>
</a>
</g>
</g>
<!-- Node14 -->
<g id="Node000014" class="node">
<title>Node14</title>
<g id="a_Node000014"><a xlink:href="_simplex_inversion_invariant_8cpp.html" target="_top" xlink:title=" ">
<polygon fill="white" stroke="#666666" points="2457.5,-46.5 2289.5,-46.5 2289.5,-16.5 2457.5,-16.5 2457.5,-46.5"/>
<text text-anchor="start" x="2297.5" y="-34.5" font-family="Helvetica,sans-Serif" font-size="10.00">src/wmtk/invariants</text>
<text text-anchor="middle" x="2373.5" y="-23.5" font-family="Helvetica,sans-Serif" font-size="10.00">/SimplexInversionInvariant.cpp</text>
</a>
</g>
</g>
<!-- Node1&#45;&gt;Node14 -->
<g id="edge13_Node000001_Node000014" class="edge">
<title>Node1&#45;&gt;Node14</title>
<g id="a_edge13_Node000001_Node000014"><a xlink:title=" ">
<path fill="none" stroke="#63b8ff" d="M2537.34,-95.19C2502.49,-81.86 2446.97,-60.61 2410.38,-46.61"/>
<polygon fill="#63b8ff" stroke="#63b8ff" points="2536.43,-98.59 2547.02,-98.9 2538.93,-92.05 2536.43,-98.59"/>
</a>
</g>
</g>
<!-- Node15 -->
<g id="Node000015" class="node">
<title>Node15</title>
<g id="a_Node000015"><a xlink:href="_swap23_energy_before_invariant_8cpp.html" target="_top" xlink:title=" ">
<polygon fill="white" stroke="#666666" points="2663.5,-46.5 2475.5,-46.5 2475.5,-16.5 2663.5,-16.5 2663.5,-46.5"/>
<text text-anchor="start" x="2483.5" y="-34.5" font-family="Helvetica,sans-Serif" font-size="10.00">src/wmtk/invariants</text>
<text text-anchor="middle" x="2569.5" y="-23.5" font-family="Helvetica,sans-Serif" font-size="10.00">/Swap23EnergyBeforeInvariant.cpp</text>
</a>
</g>
</g>
<!-- Node1&#45;&gt;Node15 -->
<g id="edge14_Node000001_Node000015" class="edge">
<title>Node1&#45;&gt;Node15</title>
<g id="a_edge14_Node000001_Node000015"><a xlink:title=" ">
<path fill="none" stroke="#63b8ff" d="M2569.5,-88.7C2569.5,-75.64 2569.5,-58.51 2569.5,-46.61"/>
<polygon fill="#63b8ff" stroke="#63b8ff" points="2566,-88.9 2569.5,-98.9 2573,-88.9 2566,-88.9"/>
</a>
</g>
</g>
<!-- Node16 -->
<g id="Node000016" class="node">
<title>Node16</title>
<g id="a_Node000016"><a xlink:href="_swap2d_edge_length_invariant_8cpp.html" target="_top" xlink:title=" ">
<polygon fill="white" stroke="#666666" points="2861,-46.5 2682,-46.5 2682,-16.5 2861,-16.5 2861,-46.5"/>
<text text-anchor="start" x="2690" y="-34.5" font-family="Helvetica,sans-Serif" font-size="10.00">src/wmtk/invariants</text>
<text text-anchor="middle" x="2771.5" y="-23.5" font-family="Helvetica,sans-Serif" font-size="10.00">/Swap2dEdgeLengthInvariant.cpp</text>
</a>
</g>
</g>
<!-- Node1&#45;&gt;Node16 -->
<g id="edge15_Node000001_Node000016" class="edge">
<title>Node1&#45;&gt;Node16</title>
<g id="a_edge15_Node000001_Node000016"><a xlink:title=" ">
<path fill="none" stroke="#63b8ff" d="M2602.19,-95.36C2638.07,-82.04 2695.62,-60.67 2733.49,-46.61"/>
<polygon fill="#63b8ff" stroke="#63b8ff" points="2600.83,-92.13 2592.67,-98.9 2603.26,-98.7 2600.83,-92.13"/>
</a>
</g>
</g>
<!-- Node17 -->
<g id="Node000017" class="node">
<title>Node17</title>
<g id="a_Node000017"><a xlink:href="_swap2d_unrounded_vertex_invariant_8cpp.html" target="_top" xlink:title=" ">
<polygon fill="white" stroke="#666666" points="3085.5,-46.5 2879.5,-46.5 2879.5,-16.5 3085.5,-16.5 3085.5,-46.5"/>
<text text-anchor="start" x="2887.5" y="-34.5" font-family="Helvetica,sans-Serif" font-size="10.00">src/wmtk/invariants</text>
<text text-anchor="middle" x="2982.5" y="-23.5" font-family="Helvetica,sans-Serif" font-size="10.00">/Swap2dUnroundedVertexInvariant.cpp</text>
</a>
</g>
</g>
<!-- Node1&#45;&gt;Node17 -->
<g id="edge16_Node000001_Node000017" class="edge">
<title>Node1&#45;&gt;Node17</title>
<g id="a_edge16_Node000001_Node000017"><a xlink:title=" ">
<path fill="none" stroke="#63b8ff" d="M2648.59,-98.42C2709.57,-90.79 2795.81,-78.63 2870.5,-63 2892.2,-58.46 2915.93,-52.19 2935.94,-46.51"/>
<polygon fill="#63b8ff" stroke="#63b8ff" points="2648.15,-94.95 2638.65,-99.65 2649.01,-101.9 2648.15,-94.95"/>
</a>
</g>
</g>
<!-- Node18 -->
<g id="Node000018" class="node">
<title>Node18</title>
<g id="a_Node000018"><a xlink:href="_swap32_energy_before_invariant_8cpp.html" target="_top" xlink:title=" ">
<polygon fill="white" stroke="#666666" points="3291.5,-46.5 3103.5,-46.5 3103.5,-16.5 3291.5,-16.5 3291.5,-46.5"/>
<text text-anchor="start" x="3111.5" y="-34.5" font-family="Helvetica,sans-Serif" font-size="10.00">src/wmtk/invariants</text>
<text text-anchor="middle" x="3197.5" y="-23.5" font-family="Helvetica,sans-Serif" font-size="10.00">/Swap32EnergyBeforeInvariant.cpp</text>
</a>
</g>
</g>
<!-- Node1&#45;&gt;Node18 -->
<g id="edge17_Node000001_Node000018" class="edge">
<title>Node1&#45;&gt;Node18</title>
<g id="a_edge17_Node000001_Node000018"><a xlink:title=" ">
<path fill="none" stroke="#63b8ff" d="M2648.95,-105.78C2752.37,-102.4 2938.35,-92.42 3094.5,-63 3115.39,-59.06 3138.1,-52.58 3156.87,-46.61"/>
<polygon fill="#63b8ff" stroke="#63b8ff" points="2648.78,-102.29 2638.9,-106.1 2649,-109.28 2648.78,-102.29"/>
</a>
</g>
</g>
<!-- Node19 -->
<g id="Node000019" class="node">
<title>Node19</title>
<g id="a_Node000019"><a xlink:href="_swap32_energy_before_invariant_double_8cpp.html" target="_top" xlink:title=" ">
<polygon fill="white" stroke="#666666" points="3477,-52 3310,-52 3310,-11 3477,-11 3477,-52"/>
<text text-anchor="start" x="3318" y="-40" font-family="Helvetica,sans-Serif" font-size="10.00">src/wmtk/invariants</text>
<text text-anchor="start" x="3318" y="-29" font-family="Helvetica,sans-Serif" font-size="10.00">/Swap32EnergyBeforeInvariant</text>
<text text-anchor="middle" x="3393.5" y="-18" font-family="Helvetica,sans-Serif" font-size="10.00">Double.cpp</text>
</a>
</g>
</g>
<!-- Node1&#45;&gt;Node19 -->
<g id="edge18_Node000001_Node000019" class="edge">
<title>Node1&#45;&gt;Node19</title>
<g id="a_edge18_Node000001_Node000019"><a xlink:title=" ">
<path fill="none" stroke="#63b8ff" d="M2648.97,-105.23C2811.65,-100.16 3177.61,-86.49 3300.5,-63 3314.02,-60.42 3328.29,-56.41 3341.49,-52.15"/>
<polygon fill="#63b8ff" stroke="#63b8ff" points="2648.44,-101.74 2638.55,-105.55 2648.66,-108.74 2648.44,-101.74"/>
</a>
</g>
</g>
<!-- Node20 -->
<g id="Node000020" class="node">
<title>Node20</title>
<g id="a_Node000020"><a xlink:href="_swap44_energy_before_invariant_8cpp.html" target="_top" xlink:title=" ">
<polygon fill="white" stroke="#666666" points="3683.5,-46.5 3495.5,-46.5 3495.5,-16.5 3683.5,-16.5 3683.5,-46.5"/>
<text text-anchor="start" x="3503.5" y="-34.5" font-family="Helvetica,sans-Serif" font-size="10.00">src/wmtk/invariants</text>
<text text-anchor="middle" x="3589.5" y="-23.5" font-family="Helvetica,sans-Serif" font-size="10.00">/Swap44EnergyBeforeInvariant.cpp</text>
</a>
</g>
</g>
<!-- Node1&#45;&gt;Node20 -->
<g id="edge19_Node000001_Node000020" class="edge">
<title>Node1&#45;&gt;Node20</title>
<g id="a_edge19_Node000001_Node000020"><a xlink:title=" ">
<path fill="none" stroke="#63b8ff" d="M2648.56,-106.09C2840.37,-102.28 3326.43,-90.18 3486.5,-63 3507.83,-59.38 3530.98,-52.78 3549.91,-46.64"/>
<polygon fill="#63b8ff" stroke="#63b8ff" points="2648.48,-102.59 2638.55,-106.29 2648.61,-109.59 2648.48,-102.59"/>
</a>
</g>
</g>
<!-- Node21 -->
<g id="Node000021" class="node">
<title>Node21</title>
<g id="a_Node000021"><a xlink:href="_swap44_energy_before_invariant_double_8cpp.html" target="_top" xlink:title=" ">
<polygon fill="white" stroke="#666666" points="3869,-52 3702,-52 3702,-11 3869,-11 3869,-52"/>
<text text-anchor="start" x="3710" y="-40" font-family="Helvetica,sans-Serif" font-size="10.00">src/wmtk/invariants</text>
<text text-anchor="start" x="3710" y="-29" font-family="Helvetica,sans-Serif" font-size="10.00">/Swap44EnergyBeforeInvariant</text>
<text text-anchor="middle" x="3785.5" y="-18" font-family="Helvetica,sans-Serif" font-size="10.00">Double.cpp</text>
</a>
</g>
</g>
<!-- Node1&#45;&gt;Node21 -->
<g id="edge20_Node000001_Node000021" class="edge">
<title>Node1&#45;&gt;Node21</title>
<g id="a_edge20_Node000001_Node000021"><a xlink:title=" ">
<path fill="none" stroke="#63b8ff" d="M2649.08,-107.21C2870.71,-105.93 3491.9,-99.14 3692.5,-63 3706.38,-60.5 3721.04,-56.41 3734.5,-52.03"/>
<polygon fill="#63b8ff" stroke="#63b8ff" points="2648.81,-103.71 2638.83,-107.26 2648.85,-110.71 2648.81,-103.71"/>
</a>
</g>
</g>
<!-- Node22 -->
<g id="Node000022" class="node">
<title>Node22</title>
<g id="a_Node000022"><a xlink:href="_swap56_energy_before_invariant_8cpp.html" target="_top" xlink:title=" ">
<polygon fill="white" stroke="#666666" points="4075.5,-46.5 3887.5,-46.5 3887.5,-16.5 4075.5,-16.5 4075.5,-46.5"/>
<text text-anchor="start" x="3895.5" y="-34.5" font-family="Helvetica,sans-Serif" font-size="10.00">src/wmtk/invariants</text>
<text text-anchor="middle" x="3981.5" y="-23.5" font-family="Helvetica,sans-Serif" font-size="10.00">/Swap56EnergyBeforeInvariant.cpp</text>
</a>
</g>
</g>
<!-- Node1&#45;&gt;Node22 -->
<g id="edge21_Node000001_Node000022" class="edge">
<title>Node1&#45;&gt;Node22</title>
<g id="a_edge21_Node000001_Node000022"><a xlink:title=" ">
<path fill="none" stroke="#63b8ff" d="M2649.14,-107.44C2895.01,-106.82 3639.94,-101.73 3878.5,-63 3900.04,-59.5 3923.4,-52.83 3942.43,-46.62"/>
<polygon fill="#63b8ff" stroke="#63b8ff" points="2648.84,-103.94 2638.85,-107.46 2648.86,-110.94 2648.84,-103.94"/>
</a>
</g>
</g>
<!-- Node23 -->
<g id="Node000023" class="node">
<title>Node23</title>
<g id="a_Node000023"><a xlink:href="_swap56_energy_before_invariant_double_8cpp.html" target="_top" xlink:title=" ">
<polygon fill="white" stroke="#666666" points="4261,-52 4094,-52 4094,-11 4261,-11 4261,-52"/>
<text text-anchor="start" x="4102" y="-40" font-family="Helvetica,sans-Serif" font-size="10.00">src/wmtk/invariants</text>
<text text-anchor="start" x="4102" y="-29" font-family="Helvetica,sans-Serif" font-size="10.00">/Swap56EnergyBeforeInvariant</text>
<text text-anchor="middle" x="4177.5" y="-18" font-family="Helvetica,sans-Serif" font-size="10.00">Double.cpp</text>
</a>
</g>
</g>
<!-- Node1&#45;&gt;Node23 -->
<g id="edge22_Node000001_Node000023" class="edge">
<title>Node1&#45;&gt;Node23</title>
<g id="a_edge22_Node000001_Node000023"><a xlink:title=" ">
<path fill="none" stroke="#63b8ff" d="M2648.75,-106.5C2940.18,-102.66 3942.97,-87.75 4084.5,-63 4098.39,-60.57 4113.05,-56.51 4126.52,-52.13"/>
<polygon fill="#63b8ff" stroke="#63b8ff" points="2648.63,-103.01 2638.68,-106.64 2648.73,-110 2648.63,-103.01"/>
</a>
</g>
</g>
<!-- Node24 -->
<g id="Node000024" class="node">
<title>Node24</title>
<g id="a_Node000024"><a xlink:href="_msh_reader_8cpp.html" target="_top" xlink:title=" ">
<polygon fill="white" stroke="#666666" points="4430,-41 4279,-41 4279,-22 4430,-22 4430,-41"/>
<text text-anchor="middle" x="4354.5" y="-29" font-family="Helvetica,sans-Serif" font-size="10.00">src/wmtk/io/MshReader.cpp</text>
</a>
</g>
</g>
<!-- Node1&#45;&gt;Node24 -->
<g id="edge23_Node000001_Node000024" class="edge">
<title>Node1&#45;&gt;Node24</title>
<g id="a_edge23_Node000001_Node000024"><a xlink:title=" ">
<path fill="none" stroke="#63b8ff" d="M2649.08,-106.92C2963.58,-104.43 4110.46,-93.32 4270.5,-63 4293.98,-58.55 4319.6,-48.42 4336.3,-41.05"/>
<polygon fill="#63b8ff" stroke="#63b8ff" points="2648.66,-103.42 2638.69,-107 2648.72,-110.42 2648.66,-103.42"/>
</a>
</g>
</g>
<!-- Node25 -->
<g id="Node000025" class="node">
<title>Node25</title>
<g id="a_Node000025"><a xlink:href="_a_m_i_p_s_optimization_smoothing_8cpp.html" target="_top" xlink:title=" ">
<polygon fill="white" stroke="#666666" points="4634.5,-46.5 4448.5,-46.5 4448.5,-16.5 4634.5,-16.5 4634.5,-46.5"/>
<text text-anchor="start" x="4456.5" y="-34.5" font-family="Helvetica,sans-Serif" font-size="10.00">src/wmtk/operations</text>
<text text-anchor="middle" x="4541.5" y="-23.5" font-family="Helvetica,sans-Serif" font-size="10.00">/AMIPSOptimizationSmoothing.cpp</text>
</a>
</g>
</g>
<!-- Node1&#45;&gt;Node25 -->
<g id="edge24_Node000001_Node000025" class="edge">
<title>Node1&#45;&gt;Node25</title>
<g id="a_edge24_Node000001_Node000025"><a xlink:title=" ">
<path fill="none" stroke="#63b8ff" d="M2648.82,-106.86C2982.25,-104 4261.23,-91.25 4439.5,-63 4461.04,-59.59 4484.4,-52.84 4503.31,-46.56"/>
<polygon fill="#63b8ff" stroke="#63b8ff" points="2648.73,-103.36 2638.76,-106.94 2648.79,-110.36 2648.73,-103.36"/>
</a>
</g>
</g>
<!-- Node26 -->
<g id="Node000026" class="node">
<title>Node26</title>
<g id="a_Node000026"><a xlink:href="_a_m_i_p_s_optimization_smoothing_periodic_8cpp.html" target="_top" xlink:title=" ">
<polygon fill="white" stroke="#666666" points="4818.5,-52 4652.5,-52 4652.5,-11 4818.5,-11 4818.5,-52"/>
<text text-anchor="start" x="4660.5" y="-40" font-family="Helvetica,sans-Serif" font-size="10.00">src/wmtk/operations</text>
<text text-anchor="start" x="4660.5" y="-29" font-family="Helvetica,sans-Serif" font-size="10.00">/AMIPSOptimizationSmoothing</text>
<text text-anchor="middle" x="4735.5" y="-18" font-family="Helvetica,sans-Serif" font-size="10.00">Periodic.cpp</text>
</a>
</g>
</g>
<!-- Node1&#45;&gt;Node26 -->
<g id="edge25_Node000001_Node000026" class="edge">
<title>Node1&#45;&gt;Node26</title>
<g id="a_edge25_Node000001_Node000026"><a xlink:title=" ">
<path fill="none" stroke="#63b8ff" d="M2648.81,-107.2C3004.59,-105.65 4444.66,-97.29 4643.5,-63 4657.43,-60.6 4672.12,-56.49 4685.58,-52.05"/>
<polygon fill="#63b8ff" stroke="#63b8ff" points="2648.59,-103.7 2638.6,-107.24 2648.62,-110.7 2648.59,-103.7"/>
</a>
</g>
</g>
<!-- Node27 -->
<g id="Node000027" class="node">
<title>Node27</title>
<g id="a_Node000027"><a xlink:href="_volume_remesher_triangle_insertion_8cpp.html" target="_top" xlink:title=" ">
<polygon fill="white" stroke="#666666" points="5012,-46.5 4837,-46.5 4837,-16.5 5012,-16.5 5012,-46.5"/>
<text text-anchor="start" x="4845" y="-34.5" font-family="Helvetica,sans-Serif" font-size="10.00">src/wmtk/utils/VolumeRemesher</text>
<text text-anchor="middle" x="4924.5" y="-23.5" font-family="Helvetica,sans-Serif" font-size="10.00">TriangleInsertion.cpp</text>
</a>
</g>
</g>
<!-- Node1&#45;&gt;Node27 -->
<g id="edge26_Node000001_Node000027" class="edge">
<title>Node1&#45;&gt;Node27</title>
<g id="a_edge26_Node000001_Node000027"><a xlink:title=" ">
<path fill="none" stroke="#63b8ff" d="M2648.97,-107.27C3024.19,-106.03 4609.41,-98.68 4827.5,-63 4848.06,-59.64 4870.27,-52.89 4888.25,-46.6"/>
<polygon fill="#63b8ff" stroke="#63b8ff" points="2648.74,-103.78 2638.75,-107.31 2648.76,-110.78 2648.74,-103.78"/>
</a>
</g>
</g>
<!-- Node28 -->
<g id="Node000028" class="node">
<title>Node28</title>
<g id="a_Node000028"><a xlink:href="orient_8cpp.html" target="_top" xlink:title=" ">
<polygon fill="white" stroke="#666666" points="5167,-41 5030,-41 5030,-22 5167,-22 5167,-41"/>
<text text-anchor="middle" x="5098.5" y="-29" font-family="Helvetica,sans-Serif" font-size="10.00">src/wmtk/utils/orient.cpp</text>
</a>
</g>
</g>
<!-- Node1&#45;&gt;Node28 -->
<g id="edge27_Node000001_Node000028" class="edge">
<title>Node1&#45;&gt;Node28</title>
<g id="a_edge27_Node000001_Node000028"><a xlink:title=" ">
<path fill="none" stroke="#63b8ff" d="M2648.68,-107.75C3042.94,-108.74 4784.79,-110.4 5021.5,-63 5043.21,-58.65 5066.67,-48.5 5081.91,-41.1"/>
<polygon fill="#63b8ff" stroke="#63b8ff" points="2648.52,-104.25 2638.51,-107.72 2648.5,-111.25 2648.52,-104.25"/>
</a>
</g>
</g>
</g>
</svg>

<g id="navigator" transform="translate(0 0)" fill="#404254">
  <rect fill="#f2f5e9" fill-opacity="0.5" stroke="#606060" stroke-width=".5" x="0" y="0" width="60" height="60"/>
  <use id="zoomplus" xlink:href="#zoomPlus" x="17" y="9" onmousedown="handleZoom(evt,'in')"/>
  <use id="zoomminus" xlink:href="#zoomMin" x="42" y="9" onmousedown="handleZoom(evt,'out')"/>
  <use id="reset" xlink:href="#resetDef" x="30" y="36" onmousedown="handleReset()"/>
   <use id="arrowup" xlink:href="#arrowUp" x="0" y="0" onmousedown="handlePan(0,-1)"/>
  <use id="arrowright" xlink:href="#arrowRight" x="0" y="0" onmousedown="handlePan(1,0)"/>
  <use id="arrowdown" xlink:href="#arrowDown" x="0" y="0" onmousedown="handlePan(0,1)"/>
  <use id="arrowleft" xlink:href="#arrowLeft" x="0" y="0" onmousedown="handlePan(-1,0)"/>
</g>
<svg viewBox="0 0 15 15" width="100%" height="30px" preserveAspectRatio="xMaxYMin meet">
 <g id="arrow_out" transform="scale(0.3 0.3)">
  <a xlink:href="orient_8hpp__dep__incl_org.svg" target="_base">
   <rect id="button" ry="5" rx="5" y="6" x="6" height="38" width="38"
        fill="#f2f5e9" fill-opacity="0.5" stroke="#606060" stroke-width="1.0"/>
   <path id="arrow"
     d="M 11.500037,31.436501 C 11.940474,20.09759 22.043105,11.32322 32.158766,21.979434 L 37.068811,17.246167 C 37.068811,17.246167 37.088388,32 37.088388,32 L 22.160133,31.978069 C 22.160133,31.978069 26.997745,27.140456 26.997745,27.140456 C 18.528582,18.264221 13.291696,25.230495 11.500037,31.436501 z"
     style="fill:#404040;"/>
  </a>
 </g>
</svg>

<style type='text/css'>
<![CDATA[
[data-mouse-over-selected='false'] { opacity: 0.7; }
[data-mouse-over-selected='true']  { opacity: 1.0; }
]]>
</style>
<script type="application/ecmascript"><![CDATA[
document.addEventListener('DOMContentLoaded', (event) => {
  highlightEdges();
  highlightAdjacentNodes();
});
]]></script>
</svg>
