<?xml version="1.0" encoding="UTF-8" standalone="no"?>
<!DOCTYPE svg PUBLIC "-//W3C//DTD SVG 1.1//EN"
 "http://www.w3.org/Graphics/SVG/1.1/DTD/svg11.dtd">
<!-- Generated by graphviz version 2.43.0 (0)
 -->
<!-- Title: components/output/src/wmtk/components/output/output.hpp Pages: 1 -->
<!--zoomable 126 -->

<svg id="main" version="1.1" xmlns="http://www.w3.org/2000/svg" xmlns:xlink="http://www.w3.org/1999/xlink" xml:space="preserve" onload="init(evt)">
<style type="text/css"><![CDATA[
.node, .edge {opacity: 0.7;}
.node.selected, .edge.selected {opacity: 1;}
.edge:hover path { stroke: red; }
.edge:hover polygon { stroke: red; fill: red; }
]]></style>

<defs>
  <circle id="rim" cx="0" cy="0" r="7"/>
  <circle id="rim2" cx="0" cy="0" r="3.5"/>
  <g id="zoomPlus">
    <use xlink:href="#rim" fill="#404040"><set attributeName="fill" to="#808080" begin="zoomplus.mouseover" end="zoomplus.mouseout"/></use>
    <path d="M-4,0h8M0,-4v8" fill="none" stroke="white" stroke-width="1.5" pointer-events="none"/>
  </g>
  <g id="zoomMin">
    <use xlink:href="#rim" fill="#404040"><set attributeName="fill" to="#808080" begin="zoomminus.mouseover" end="zoomminus.mouseout"/></use>
    <path d="M-4,0h8" fill="none" stroke="white" stroke-width="1.5" pointer-events="none"/>
  </g>
  <g id="arrowUp" transform="translate(30 24)">
    <use xlink:href="#rim"/>
    <path pointer-events="none" fill="none" stroke="white" stroke-width="1.5" d="M0,-3.0v7 M-2.5,-0.5L0,-3.0L2.5,-0.5"/>
  </g>
  <g id="arrowRight" transform="rotate(90) translate(36 -43)">
    <use xlink:href="#rim"/>
    <path pointer-events="none" fill="none" stroke="white" stroke-width="1.5" d="M0,-3.0v7 M-2.5,-0.5L0,-3.0L2.5,-0.5"/>
  </g>
  <g id="arrowDown" transform="rotate(180) translate(-30 -48)">
    <use xlink:href="#rim"/>
    <path pointer-events="none" fill="none" stroke="white" stroke-width="1.5" d="M0,-3.0v7 M-2.5,-0.5L0,-3.0L2.5,-0.5"/>
  </g>
  <g id="arrowLeft" transform="rotate(270) translate(-36 17)">
    <use xlink:href="#rim"/>
    <path pointer-events="none" fill="none" stroke="white" stroke-width="1.5" d="M0,-3.0v7 M-2.5,-0.5L0,-3.0L2.5,-0.5"/>
  </g>
  <g id="resetDef">
    <use xlink:href="#rim2" fill="#404040"><set attributeName="fill" to="#808080" begin="reset.mouseover" end="reset.mouseout"/></use>
  </g>
</defs>
<script type="application/ecmascript">
var viewWidth = 1027;
var viewHeight = 126;
var sectionId = 'dynsection-1';
</script>
<script type="application/ecmascript" xlink:href="svg.min.js"/>
<svg id="graph" class="graph">
<g id="viewport">
<title>components/output/src/wmtk/components/output/output.hpp</title>
<!-- Node1 -->
<g id="Node000001" class="node">
<title>Node1</title>
<g id="a_Node000001"><a xlink:title=" ">
<polygon fill="#999999" stroke="#666666" points="642,-118 497,-118 497,-77 642,-77 642,-118"/>
<text text-anchor="start" x="505" y="-106" font-family="Helvetica,sans-Serif" font-size="10.00">components/output/src</text>
<text text-anchor="start" x="505" y="-95" font-family="Helvetica,sans-Serif" font-size="10.00">/wmtk/components/output</text>
<text text-anchor="middle" x="569.5" y="-84" font-family="Helvetica,sans-Serif" font-size="10.00">/output.hpp</text>
</a>
</g>
</g>
<!-- Node2 -->
<g id="Node000002" class="node">
<title>Node2</title>
<g id="a_Node000002"><a xlink:href="_isotropic_remeshing_8cpp.html" target="_top" xlink:title=" ">
<polygon fill="white" stroke="#666666" points="239,-41 0,-41 0,0 239,0 239,-41"/>
<text text-anchor="start" x="8" y="-29" font-family="Helvetica,sans-Serif" font-size="10.00">components/isotropic</text>
<text text-anchor="start" x="8" y="-18" font-family="Helvetica,sans-Serif" font-size="10.00">_remeshing/wmtk/components</text>
<text text-anchor="middle" x="119.5" y="-7" font-family="Helvetica,sans-Serif" font-size="10.00">/isotropic_remeshing/IsotropicRemeshing.cpp</text>
</a>
</g>
</g>
<!-- Node1&#45;&gt;Node2 -->
<g id="edge1_Node000001_Node000002" class="edge">
<title>Node1&#45;&gt;Node2</title>
<g id="a_edge1_Node000001_Node000002"><a xlink:title=" ">
<path fill="none" stroke="#63b8ff" d="M486.83,-82.72C416.68,-71.03 315.22,-54.12 236.69,-41.03"/>
<polygon fill="#63b8ff" stroke="#63b8ff" points="486.51,-86.22 496.95,-84.41 487.66,-79.31 486.51,-86.22"/>
</a>
</g>
</g>
<!-- Node3 -->
<g id="Node000003" class="node">
<title>Node3</title>
<g id="a_Node000003"><a xlink:href="src_2wmtk_2components_2output_2output_8cpp.html" target="_top" xlink:title=" ">
<polygon fill="white" stroke="#666666" points="402,-41 257,-41 257,0 402,0 402,-41"/>
<text text-anchor="start" x="265" y="-29" font-family="Helvetica,sans-Serif" font-size="10.00">components/output/src</text>
<text text-anchor="start" x="265" y="-18" font-family="Helvetica,sans-Serif" font-size="10.00">/wmtk/components/output</text>
<text text-anchor="middle" x="329.5" y="-7" font-family="Helvetica,sans-Serif" font-size="10.00">/output.cpp</text>
</a>
</g>
</g>
<!-- Node1&#45;&gt;Node3 -->
<g id="edge2_Node000001_Node000003" class="edge">
<title>Node1&#45;&gt;Node3</title>
<g id="a_edge2_Node000001_Node000003"><a xlink:title=" ">
<path fill="none" stroke="#63b8ff" d="M497.32,-73.94C463.78,-63.46 424.28,-51.12 392.03,-41.04"/>
<polygon fill="#63b8ff" stroke="#63b8ff" points="496.48,-77.35 507.07,-76.99 498.57,-70.67 496.48,-77.35"/>
</a>
</g>
</g>
<!-- Node4 -->
<g id="Node000004" class="node">
<title>Node4</title>
<g id="a_Node000004"><a xlink:href="tests_2output_8cpp.html" target="_top" xlink:title=" ">
<polygon fill="white" stroke="#666666" points="558.5,-35.5 420.5,-35.5 420.5,-5.5 558.5,-5.5 558.5,-35.5"/>
<text text-anchor="start" x="428.5" y="-23.5" font-family="Helvetica,sans-Serif" font-size="10.00">components/output/tests</text>
<text text-anchor="middle" x="489.5" y="-12.5" font-family="Helvetica,sans-Serif" font-size="10.00">/output.cpp</text>
</a>
</g>
</g>
<!-- Node1&#45;&gt;Node4 -->
<g id="edge3_Node000001_Node000004" class="edge">
<title>Node1&#45;&gt;Node4</title>
<g id="a_edge3_Node000001_Node000004"><a xlink:title=" ">
<path fill="none" stroke="#63b8ff" d="M541.12,-69.89C528.89,-58.43 515.08,-45.48 504.82,-35.86"/>
<polygon fill="#63b8ff" stroke="#63b8ff" points="538.79,-72.51 548.48,-76.79 543.58,-67.4 538.79,-72.51"/>
</a>
</g>
</g>
<!-- Node5 -->
<g id="Node000005" class="node">
<title>Node5</title>
<g id="a_Node000005"><a xlink:href="test__component__delaunay_8cpp.html" target="_top" xlink:title=" ">
<polygon fill="white" stroke="#666666" points="722.5,-35.5 576.5,-35.5 576.5,-5.5 722.5,-5.5 722.5,-35.5"/>
<text text-anchor="start" x="584.5" y="-23.5" font-family="Helvetica,sans-Serif" font-size="10.00">components/tests/test</text>
<text text-anchor="middle" x="649.5" y="-12.5" font-family="Helvetica,sans-Serif" font-size="10.00">_component_delaunay.cpp</text>
</a>
</g>
</g>
<!-- Node1&#45;&gt;Node5 -->
<g id="edge4_Node000001_Node000005" class="edge">
<title>Node1&#45;&gt;Node5</title>
<g id="a_edge4_Node000001_Node000005"><a xlink:title=" ">
<path fill="none" stroke="#63b8ff" d="M597.88,-69.89C610.11,-58.43 623.92,-45.48 634.18,-35.86"/>
<polygon fill="#63b8ff" stroke="#63b8ff" points="595.42,-67.4 590.52,-76.79 600.21,-72.51 595.42,-67.4"/>
</a>
</g>
</g>
<!-- Node6 -->
<g id="Node000006" class="node">
<title>Node6</title>
<g id="a_Node000006"><a xlink:href="test__component__isotropic__remeshing_8cpp.html" target="_top" xlink:title=" ">
<polygon fill="white" stroke="#666666" points="866,-41 741,-41 741,0 866,0 866,-41"/>
<text text-anchor="start" x="749" y="-29" font-family="Helvetica,sans-Serif" font-size="10.00">components/tests/test</text>
<text text-anchor="start" x="749" y="-18" font-family="Helvetica,sans-Serif" font-size="10.00">_component_isotropic</text>
<text text-anchor="middle" x="803.5" y="-7" font-family="Helvetica,sans-Serif" font-size="10.00">_remeshing.cpp</text>
</a>
</g>
</g>
<!-- Node1&#45;&gt;Node6 -->
<g id="edge5_Node000001_Node000006" class="edge">
<title>Node1&#45;&gt;Node6</title>
<g id="a_edge5_Node000001_Node000006"><a xlink:title=" ">
<path fill="none" stroke="#63b8ff" d="M640.29,-73.81C672.9,-63.36 711.22,-51.08 742.53,-41.04"/>
<polygon fill="#63b8ff" stroke="#63b8ff" points="638.82,-70.61 630.37,-76.99 640.96,-77.27 638.82,-70.61"/>
</a>
</g>
</g>
<!-- Node7 -->
<g id="Node000007" class="node">
<title>Node7</title>
<g id="a_Node000007"><a xlink:href="test__component__output_8cpp.html" target="_top" xlink:title=" ">
<polygon fill="white" stroke="#666666" points="1018.5,-35.5 884.5,-35.5 884.5,-5.5 1018.5,-5.5 1018.5,-35.5"/>
<text text-anchor="start" x="892.5" y="-23.5" font-family="Helvetica,sans-Serif" font-size="10.00">components/tests/test</text>
<text text-anchor="middle" x="951.5" y="-12.5" font-family="Helvetica,sans-Serif" font-size="10.00">_component_output.cpp</text>
</a>
</g>
</g>
<!-- Node1&#45;&gt;Node7 -->
<g id="edge6_Node000001_Node000007" class="edge">
<title>Node1&#45;&gt;Node7</title>
<g id="a_edge6_Node000001_Node000007"><a xlink:title=" ">
<path fill="none" stroke="#63b8ff" d="M652.21,-83.15C713.96,-72.78 800.3,-57.44 875.5,-41 883.09,-39.34 891.06,-37.45 898.88,-35.52"/>
<polygon fill="#63b8ff" stroke="#63b8ff" points="651.41,-79.74 642.13,-84.84 652.57,-86.64 651.41,-79.74"/>
</a>
</g>
</g>
</g>
</svg>

<g id="navigator" transform="translate(0 0)" fill="#404254">
  <rect fill="#f2f5e9" fill-opacity="0.5" stroke="#606060" stroke-width=".5" x="0" y="0" width="60" height="60"/>
  <use id="zoomplus" xlink:href="#zoomPlus" x="17" y="9" onmousedown="handleZoom(evt,'in')"/>
  <use id="zoomminus" xlink:href="#zoomMin" x="42" y="9" onmousedown="handleZoom(evt,'out')"/>
  <use id="reset" xlink:href="#resetDef" x="30" y="36" onmousedown="handleReset()"/>
   <use id="arrowup" xlink:href="#arrowUp" x="0" y="0" onmousedown="handlePan(0,-1)"/>
  <use id="arrowright" xlink:href="#arrowRight" x="0" y="0" onmousedown="handlePan(1,0)"/>
  <use id="arrowdown" xlink:href="#arrowDown" x="0" y="0" onmousedown="handlePan(0,1)"/>
  <use id="arrowleft" xlink:href="#arrowLeft" x="0" y="0" onmousedown="handlePan(-1,0)"/>
</g>
<svg viewBox="0 0 15 15" width="100%" height="30px" preserveAspectRatio="xMaxYMin meet">
 <g id="arrow_out" transform="scale(0.3 0.3)">
  <a xlink:href="output_8hpp__dep__incl_org.svg" target="_base">
   <rect id="button" ry="5" rx="5" y="6" x="6" height="38" width="38"
        fill="#f2f5e9" fill-opacity="0.5" stroke="#606060" stroke-width="1.0"/>
   <path id="arrow"
     d="M 11.500037,31.436501 C 11.940474,20.09759 22.043105,11.32322 32.158766,21.979434 L 37.068811,17.246167 C 37.068811,17.246167 37.088388,32 37.088388,32 L 22.160133,31.978069 C 22.160133,31.978069 26.997745,27.140456 26.997745,27.140456 C 18.528582,18.264221 13.291696,25.230495 11.500037,31.436501 z"
     style="fill:#404040;"/>
  </a>
 </g>
</svg>

<style type='text/css'>
<![CDATA[
[data-mouse-over-selected='false'] { opacity: 0.7; }
[data-mouse-over-selected='true']  { opacity: 1.0; }
]]>
</style>
<script type="application/ecmascript"><![CDATA[
document.addEventListener('DOMContentLoaded', (event) => {
  highlightEdges();
  highlightAdjacentNodes();
});
]]></script>
</svg>
