<?xml version="1.0" encoding="UTF-8" standalone="no"?>
<!DOCTYPE svg PUBLIC "-//W3C//DTD SVG 1.1//EN"
 "http://www.w3.org/Graphics/SVG/1.1/DTD/svg11.dtd">
<!-- Generated by graphviz version 2.43.0 (0)
 -->
<!-- Title: wmtk::components::multimesh::utils::AttributeDescription::primitive_type Pages: 1 -->
<svg width="1241pt" height="459pt"
 viewBox="0.00 0.00 1241.00 458.50" xmlns="http://www.w3.org/2000/svg" xmlns:xlink="http://www.w3.org/1999/xlink">
<g id="graph0" class="graph" transform="scale(1 1) rotate(0) translate(4 454.5)">
<title>wmtk::components::multimesh::utils::AttributeDescription::primitive_type</title>
<!-- Node1 -->
<g id="Node000001" class="node">
<title>Node1</title>
<g id="a_Node000001"><a xlink:title=" ">
<polygon fill="#999999" stroke="#666666" points="1233,-336 1064,-336 1064,-295 1233,-295 1233,-336"/>
<text text-anchor="start" x="1072" y="-324" font-family="Helvetica,sans-Serif" font-size="10.00">wmtk::components::multimesh</text>
<text text-anchor="start" x="1072" y="-313" font-family="Helvetica,sans-Serif" font-size="10.00">::utils::AttributeDescription</text>
<text text-anchor="middle" x="1148.5" y="-302" font-family="Helvetica,sans-Serif" font-size="10.00">::primitive_type</text>
</a>
</g>
</g>
<!-- Node2 -->
<g id="Node000002" class="node">
<title>Node2</title>
<g id="a_Node000002"><a xlink:href="namespacewmtk_1_1components_1_1multimesh_1_1utils.html#a826e3d69cb9a6f785b1b8ada28429021" target="_top" xlink:title=" ">
<polygon fill="white" stroke="#666666" points="1028,-450.5 859,-450.5 859,-420.5 1028,-420.5 1028,-450.5"/>
<text text-anchor="start" x="867" y="-438.5" font-family="Helvetica,sans-Serif" font-size="10.00">wmtk::components::multimesh</text>
<text text-anchor="middle" x="943.5" y="-427.5" font-family="Helvetica,sans-Serif" font-size="10.00">::utils::create_attribute</text>
</a>
</g>
</g>
<!-- Node1&#45;&gt;Node2 -->
<g id="edge1_Node000001_Node000002" class="edge">
<title>Node1&#45;&gt;Node2</title>
<g id="a_edge1_Node000001_Node000002"><a xlink:title=" ">
<path fill="none" stroke="#63b8ff" d="M1120,-342.95C1097.14,-364.38 1062.81,-393.45 1028,-411.5 1021.44,-414.9 1014.33,-417.88 1007.12,-420.47"/>
<polygon fill="#63b8ff" stroke="#63b8ff" points="1122.47,-345.43 1127.3,-336 1117.65,-340.36 1122.47,-345.43"/>
</a>
</g>
</g>
<!-- Node3 -->
<g id="Node000003" class="node">
<title>Node3</title>
<g id="a_Node000003"><a xlink:href="namespacewmtk_1_1components_1_1multimesh_1_1utils.html#ad96b877ff79997493ca02b9a1eff7419" target="_top" xlink:title=" ">
<polygon fill="white" stroke="#666666" points="1028,-402.5 859,-402.5 859,-372.5 1028,-372.5 1028,-402.5"/>
<text text-anchor="start" x="867" y="-390.5" font-family="Helvetica,sans-Serif" font-size="10.00">wmtk::components::multimesh</text>
<text text-anchor="middle" x="943.5" y="-379.5" font-family="Helvetica,sans-Serif" font-size="10.00">::utils::create_attribute</text>
</a>
</g>
</g>
<!-- Node1&#45;&gt;Node3 -->
<g id="edge2_Node000001_Node000003" class="edge">
<title>Node1&#45;&gt;Node3</title>
<g id="a_edge2_Node000001_Node000003"><a xlink:title=" ">
<path fill="none" stroke="#63b8ff" d="M1090.27,-339.87C1070.68,-347.84 1048.53,-356.45 1028,-363.5 1019.01,-366.59 1009.39,-369.61 999.99,-372.41"/>
<polygon fill="#63b8ff" stroke="#63b8ff" points="1091.74,-343.05 1099.66,-336.02 1089.08,-336.57 1091.74,-343.05"/>
</a>
</g>
</g>
<!-- Node4 -->
<g id="Node000004" class="node">
<title>Node4</title>
<g id="a_Node000004"><a xlink:href="namespacewmtk_1_1components_1_1multimesh_1_1utils.html#a223a3e3b3c5ad3157e7e6a53093fd9b5" target="_top" xlink:title=" ">
<polygon fill="white" stroke="#666666" points="1028,-354.5 859,-354.5 859,-324.5 1028,-324.5 1028,-354.5"/>
<text text-anchor="start" x="867" y="-342.5" font-family="Helvetica,sans-Serif" font-size="10.00">wmtk::components::multimesh</text>
<text text-anchor="middle" x="943.5" y="-331.5" font-family="Helvetica,sans-Serif" font-size="10.00">::utils::create_attribute</text>
</a>
</g>
</g>
<!-- Node1&#45;&gt;Node4 -->
<g id="edge3_Node000001_Node000004" class="edge">
<title>Node1&#45;&gt;Node4</title>
<g id="a_edge3_Node000001_Node000004"><a xlink:title=" ">
<path fill="none" stroke="#63b8ff" d="M1053.74,-326.58C1045.17,-327.6 1036.52,-328.62 1028.05,-329.62"/>
<polygon fill="#63b8ff" stroke="#63b8ff" points="1054.24,-330.05 1063.76,-325.4 1053.42,-323.1 1054.24,-330.05"/>
</a>
</g>
</g>
<!-- Node6 -->
<g id="Node000006" class="node">
<title>Node6</title>
<g id="a_Node000006"><a xlink:href="namespacewmtk_1_1components_1_1multimesh_1_1utils.html#a6f3b795fd6df47b640ac0e210dd540f2" target="_top" xlink:title=" ">
<polygon fill="white" stroke="#666666" points="1028,-306.5 859,-306.5 859,-276.5 1028,-276.5 1028,-306.5"/>
<text text-anchor="start" x="867" y="-294.5" font-family="Helvetica,sans-Serif" font-size="10.00">wmtk::components::multimesh</text>
<text text-anchor="middle" x="943.5" y="-283.5" font-family="Helvetica,sans-Serif" font-size="10.00">::utils::get_attribute</text>
</a>
</g>
</g>
<!-- Node1&#45;&gt;Node6 -->
<g id="edge5_Node000001_Node000006" class="edge">
<title>Node1&#45;&gt;Node6</title>
<g id="a_edge5_Node000001_Node000006"><a xlink:title=" ">
<path fill="none" stroke="#63b8ff" d="M1053.74,-304.42C1045.17,-303.4 1036.52,-302.38 1028.05,-301.38"/>
<polygon fill="#63b8ff" stroke="#63b8ff" points="1053.42,-307.9 1063.76,-305.6 1054.24,-300.95 1053.42,-307.9"/>
</a>
</g>
</g>
<!-- Node7 -->
<g id="Node000007" class="node">
<title>Node7</title>
<g id="a_Node000007"><a xlink:href="namespacewmtk_1_1components_1_1multimesh_1_1utils.html#a1eac550ca6bf9c018ad2a02e42be03f2" target="_top" xlink:title=" ">
<polygon fill="white" stroke="#666666" points="1028,-258.5 859,-258.5 859,-228.5 1028,-228.5 1028,-258.5"/>
<text text-anchor="start" x="867" y="-246.5" font-family="Helvetica,sans-Serif" font-size="10.00">wmtk::components::multimesh</text>
<text text-anchor="middle" x="943.5" y="-235.5" font-family="Helvetica,sans-Serif" font-size="10.00">::utils::get_attribute</text>
</a>
</g>
</g>
<!-- Node1&#45;&gt;Node7 -->
<g id="edge6_Node000001_Node000007" class="edge">
<title>Node1&#45;&gt;Node7</title>
<g id="a_edge6_Node000001_Node000007"><a xlink:title=" ">
<path fill="none" stroke="#63b8ff" d="M1090.27,-291.13C1070.68,-283.16 1048.53,-274.55 1028,-267.5 1019.01,-264.41 1009.39,-261.39 999.99,-258.59"/>
<polygon fill="#63b8ff" stroke="#63b8ff" points="1089.08,-294.43 1099.66,-294.98 1091.74,-287.95 1089.08,-294.43"/>
</a>
</g>
</g>
<!-- Node8 -->
<g id="Node000008" class="node">
<title>Node8</title>
<g id="a_Node000008"><a xlink:href="namespacewmtk_1_1components_1_1multimesh_1_1utils.html#a82d42640978a9aa4ba485febac8b68d0" target="_top" xlink:title=" ">
<polygon fill="white" stroke="#666666" points="1028,-202.5 859,-202.5 859,-172.5 1028,-172.5 1028,-202.5"/>
<text text-anchor="start" x="867" y="-190.5" font-family="Helvetica,sans-Serif" font-size="10.00">wmtk::components::multimesh</text>
<text text-anchor="middle" x="943.5" y="-179.5" font-family="Helvetica,sans-Serif" font-size="10.00">::utils::get_attribute</text>
</a>
</g>
</g>
<!-- Node1&#45;&gt;Node8 -->
<g id="edge7_Node000001_Node000008" class="edge">
<title>Node1&#45;&gt;Node8</title>
<g id="a_edge7_Node000001_Node000008"><a xlink:title=" ">
<path fill="none" stroke="#63b8ff" d="M1118.72,-288.08C1095.61,-267.18 1061.59,-238.79 1028,-219.5 1016.69,-213 1003.81,-207.33 991.62,-202.63"/>
<polygon fill="#63b8ff" stroke="#63b8ff" points="1116.38,-290.69 1126.12,-294.86 1121.11,-285.53 1116.38,-290.69"/>
</a>
</g>
</g>
<!-- Node5 -->
<g id="Node000005" class="node">
<title>Node5</title>
<g id="a_Node000005"><a xlink:href="structwmtk_1_1components_1_1mesh__info_1_1transfer_1_1_single_attribute_transfer_strategy_factory.html#ad8f92a461ac6219350959e4ec470b7fc" target="_top" xlink:title=" ">
<polygon fill="white" stroke="#666666" points="795.5,-374.5 627.5,-374.5 627.5,-322.5 795.5,-322.5 795.5,-374.5"/>
<text text-anchor="start" x="635.5" y="-362.5" font-family="Helvetica,sans-Serif" font-size="10.00">wmtk::components::mesh</text>
<text text-anchor="start" x="635.5" y="-351.5" font-family="Helvetica,sans-Serif" font-size="10.00">_info::transfer::SingleAttribute</text>
<text text-anchor="start" x="635.5" y="-340.5" font-family="Helvetica,sans-Serif" font-size="10.00">TransferStrategyFactory::create</text>
<text text-anchor="middle" x="711.5" y="-329.5" font-family="Helvetica,sans-Serif" font-size="10.00">_transfer</text>
</a>
</g>
</g>
<!-- Node4&#45;&gt;Node5 -->
<g id="edge4_Node000004_Node000005" class="edge">
<title>Node4&#45;&gt;Node5</title>
<g id="a_edge4_Node000004_Node000005"><a xlink:title=" ">
<path fill="none" stroke="#63b8ff" d="M848.6,-343.17C831.09,-343.86 812.9,-344.57 795.74,-345.24"/>
<polygon fill="#63b8ff" stroke="#63b8ff" points="848.96,-346.66 858.81,-342.77 848.68,-339.67 848.96,-346.66"/>
</a>
</g>
</g>
<!-- Node8&#45;&gt;Node5 -->
<g id="edge9_Node000008_Node000005" class="edge">
<title>Node8&#45;&gt;Node5</title>
<g id="a_edge9_Node000008_Node000005"><a xlink:title=" ">
<path fill="none" stroke="#63b8ff" d="M874.67,-207.53C868.95,-210.93 863.61,-214.89 859,-219.5 827.37,-251.14 855.55,-282.81 823,-313.5 815.09,-320.95 805.6,-326.82 795.55,-331.44"/>
<polygon fill="#63b8ff" stroke="#63b8ff" points="876.7,-210.42 883.9,-202.64 873.43,-204.23 876.7,-210.42"/>
</a>
</g>
</g>
<!-- Node9 -->
<g id="Node000009" class="node">
<title>Node9</title>
<g id="a_Node000009"><a xlink:href="structwmtk_1_1components_1_1isotropic__remeshing_1_1_priority_options.html#a778423abaf9ef32231e51cfcf394d186" target="_top" xlink:title=" ">
<polygon fill="white" stroke="#666666" points="790.5,-304 632.5,-304 632.5,-263 790.5,-263 790.5,-304"/>
<text text-anchor="start" x="640.5" y="-292" font-family="Helvetica,sans-Serif" font-size="10.00">wmtk::components::isotropic</text>
<text text-anchor="start" x="640.5" y="-281" font-family="Helvetica,sans-Serif" font-size="10.00">_remeshing::PriorityOptions</text>
<text text-anchor="middle" x="711.5" y="-270" font-family="Helvetica,sans-Serif" font-size="10.00">::assign_to</text>
</a>
</g>
</g>
<!-- Node8&#45;&gt;Node9 -->
<g id="edge8_Node000008_Node000009" class="edge">
<title>Node8&#45;&gt;Node9</title>
<g id="a_edge8_Node000008_Node000009"><a xlink:title=" ">
<path fill="none" stroke="#63b8ff" d="M883.86,-206.47C875.24,-210.25 866.69,-214.59 859,-219.5 840.2,-231.52 842.43,-243.53 823,-254.5 812.98,-260.16 801.83,-264.74 790.58,-268.44"/>
<polygon fill="#63b8ff" stroke="#63b8ff" points="885.31,-209.66 893.21,-202.59 882.63,-203.19 885.31,-209.66"/>
</a>
</g>
</g>
<!-- Node10 -->
<g id="Node000010" class="node">
<title>Node10</title>
<g id="a_Node000010"><a xlink:href="structwmtk_1_1components_1_1isotropic__remeshing_1_1_isotropic_remeshing_options.html#a5a3a57ee3b36540f4e019c87599efd29" target="_top" xlink:title=" ">
<polygon fill="white" stroke="#666666" points="818.5,-245 604.5,-245 604.5,-204 818.5,-204 818.5,-245"/>
<text text-anchor="start" x="612.5" y="-233" font-family="Helvetica,sans-Serif" font-size="10.00">wmtk::components::isotropic</text>
<text text-anchor="start" x="612.5" y="-222" font-family="Helvetica,sans-Serif" font-size="10.00">_remeshing::IsotropicRemeshingOptions</text>
<text text-anchor="middle" x="711.5" y="-211" font-family="Helvetica,sans-Serif" font-size="10.00">::load_json</text>
</a>
</g>
</g>
<!-- Node8&#45;&gt;Node10 -->
<g id="edge10_Node000008_Node000010" class="edge">
<title>Node8&#45;&gt;Node10</title>
<g id="a_edge10_Node000008_Node000010"><a xlink:title=" ">
<path fill="none" stroke="#63b8ff" d="M848.89,-202.56C838.88,-204.17 828.64,-205.82 818.5,-207.45"/>
<polygon fill="#63b8ff" stroke="#63b8ff" points="849.5,-206.01 858.81,-200.96 848.39,-199.1 849.5,-206.01"/>
</a>
</g>
</g>
<!-- Node11 -->
<g id="Node000011" class="node">
<title>Node11</title>
<g id="a_Node000011"><a xlink:href="structwmtk_1_1components_1_1multimesh_1_1_multimesh_axis_aligned_fusion_options.html#a2f812d98a26c384f53bcbbe92c863bce" target="_top" xlink:title=" ">
<polygon fill="white" stroke="#666666" points="823,-185.5 600,-185.5 600,-155.5 823,-155.5 823,-185.5"/>
<text text-anchor="start" x="608" y="-173.5" font-family="Helvetica,sans-Serif" font-size="10.00">wmtk::components::multimesh</text>
<text text-anchor="middle" x="711.5" y="-162.5" font-family="Helvetica,sans-Serif" font-size="10.00">::MultimeshAxisAlignedFusionOptions::run</text>
</a>
</g>
</g>
<!-- Node8&#45;&gt;Node11 -->
<g id="edge11_Node000008_Node000011" class="edge">
<title>Node8&#45;&gt;Node11</title>
<g id="a_edge11_Node000008_Node000011"><a xlink:title=" ">
<path fill="none" stroke="#63b8ff" d="M848.69,-180.57C840.31,-179.95 831.78,-179.32 823.28,-178.69"/>
<polygon fill="#63b8ff" stroke="#63b8ff" points="848.58,-184.07 858.81,-181.31 849.1,-177.09 848.58,-184.07"/>
</a>
</g>
</g>
<!-- Node12 -->
<g id="Node000012" class="node">
<title>Node12</title>
<g id="a_Node000012"><a xlink:href="json_8cpp.html#a034d46582f037a382b0999522b442ca8" target="_top" xlink:title=" ">
<polygon fill="white" stroke="#666666" points="747,-137 676,-137 676,-118 747,-118 747,-137"/>
<text text-anchor="middle" x="711.5" y="-125" font-family="Helvetica,sans-Serif" font-size="10.00">TEST_CASE</text>
</a>
</g>
</g>
<!-- Node8&#45;&gt;Node12 -->
<g id="edge12_Node000008_Node000012" class="edge">
<title>Node8&#45;&gt;Node12</title>
<g id="a_edge12_Node000008_Node000012"><a xlink:title=" ">
<path fill="none" stroke="#63b8ff" d="M894.12,-168.93C872.59,-161.18 846.77,-152.58 823,-146.5 797.92,-140.08 769.07,-135.21 747.14,-132"/>
<polygon fill="#63b8ff" stroke="#63b8ff" points="893.1,-172.28 903.69,-172.42 895.49,-165.7 893.1,-172.28"/>
</a>
</g>
</g>
<!-- Node13 -->
<g id="Node000013" class="node">
<title>Node13</title>
<g id="a_Node000013"><a xlink:href="multimesh_2tests_2get__attributes_8cpp.html#ab58664a9c6a5969c3d97bd05c9ad2ec1" target="_top" xlink:title=" ">
<polygon fill="white" stroke="#666666" points="747,-100 676,-100 676,-81 747,-81 747,-100"/>
<text text-anchor="middle" x="711.5" y="-88" font-family="Helvetica,sans-Serif" font-size="10.00">TEST_CASE</text>
</a>
</g>
</g>
<!-- Node8&#45;&gt;Node13 -->
<g id="edge13_Node000008_Node000013" class="edge">
<title>Node8&#45;&gt;Node13</title>
<g id="a_edge13_Node000008_Node000013"><a xlink:title=" ">
<path fill="none" stroke="#63b8ff" d="M916.92,-165.9C893.87,-147.64 858.27,-122.3 823,-108.5 798.74,-99.01 769.61,-94.53 747.34,-92.4"/>
<polygon fill="#63b8ff" stroke="#63b8ff" points="914.84,-168.72 924.83,-172.28 919.24,-163.28 914.84,-168.72"/>
</a>
</g>
</g>
<!-- Node14 -->
<g id="Node000014" class="node">
<title>Node14</title>
<g id="a_Node000014"><a xlink:href="structwmtk_1_1components_1_1multimesh_1_1_multimesh_tag_options.html#ad7b5283419a95b771641147819b1f078" target="_top" xlink:title=" ">
<polygon fill="white" stroke="#666666" points="810.5,-62.5 612.5,-62.5 612.5,-32.5 810.5,-32.5 810.5,-62.5"/>
<text text-anchor="start" x="620.5" y="-50.5" font-family="Helvetica,sans-Serif" font-size="10.00">wmtk::components::multimesh</text>
<text text-anchor="middle" x="711.5" y="-39.5" font-family="Helvetica,sans-Serif" font-size="10.00">::MultimeshTagOptions::toTagOptions</text>
</a>
</g>
</g>
<!-- Node8&#45;&gt;Node14 -->
<g id="edge14_Node000008_Node000014" class="edge">
<title>Node8&#45;&gt;Node14</title>
<g id="a_edge14_Node000008_Node000014"><a xlink:title=" ">
<path fill="none" stroke="#63b8ff" d="M925.3,-164.29C904.23,-137.61 866,-94.56 823,-71.5 816.51,-68.02 809.55,-65.05 802.4,-62.5"/>
<polygon fill="#63b8ff" stroke="#63b8ff" points="922.63,-166.56 931.52,-172.33 928.17,-162.28 922.63,-166.56"/>
</a>
</g>
</g>
<!-- Node15 -->
<g id="Node000015" class="node">
<title>Node15</title>
<g id="a_Node000015"><a xlink:href="structwmtk_1_1components_1_1multimesh_1_1_multimesh_tag_options.html#aeb7e15d246e7c81f4d68755424ac1af1" target="_top" xlink:title=" ">
<polygon fill="white" stroke="#666666" points="564,-62.5 395,-62.5 395,-32.5 564,-32.5 564,-62.5"/>
<text text-anchor="start" x="403" y="-50.5" font-family="Helvetica,sans-Serif" font-size="10.00">wmtk::components::multimesh</text>
<text text-anchor="middle" x="479.5" y="-39.5" font-family="Helvetica,sans-Serif" font-size="10.00">::MultimeshTagOptions::run</text>
</a>
</g>
</g>
<!-- Node14&#45;&gt;Node15 -->
<g id="edge15_Node000014_Node000015" class="edge">
<title>Node14&#45;&gt;Node15</title>
<g id="a_edge15_Node000014_Node000015"><a xlink:title=" ">
<path fill="none" stroke="#63b8ff" d="M602.12,-47.5C589.4,-47.5 576.57,-47.5 564.25,-47.5"/>
<polygon fill="#63b8ff" stroke="#63b8ff" points="602.29,-51 612.29,-47.5 602.29,-44 602.29,-51"/>
</a>
</g>
</g>
<!-- Node16 -->
<g id="Node000016" class="node">
<title>Node16</title>
<g id="a_Node000016"><a xlink:href="structwmtk_1_1components_1_1multimesh_1_1_multimesh_boundary_options.html#aab11a26d2983aa5469c4f9777188d151" target="_top" xlink:title=" ">
<polygon fill="white" stroke="#666666" points="359,-89.5 179,-89.5 179,-59.5 359,-59.5 359,-89.5"/>
<text text-anchor="start" x="187" y="-77.5" font-family="Helvetica,sans-Serif" font-size="10.00">wmtk::components::multimesh</text>
<text text-anchor="middle" x="269" y="-66.5" font-family="Helvetica,sans-Serif" font-size="10.00">::MultimeshBoundaryOptions::run</text>
</a>
</g>
</g>
<!-- Node15&#45;&gt;Node16 -->
<g id="edge16_Node000015_Node000016" class="edge">
<title>Node15&#45;&gt;Node16</title>
<g id="a_edge16_Node000015_Node000016"><a xlink:title=" ">
<path fill="none" stroke="#63b8ff" d="M384.88,-59.62C376.3,-60.73 367.62,-61.86 359.08,-62.96"/>
<polygon fill="#63b8ff" stroke="#63b8ff" points="385.43,-63.08 394.9,-58.33 384.53,-56.14 385.43,-63.08"/>
</a>
</g>
</g>
<!-- Node17 -->
<g id="Node000017" class="node">
<title>Node17</title>
<g id="a_Node000017"><a xlink:href="structwmtk_1_1components_1_1mesh__info_1_1_multimesh_from_attribute_options.html#aab730ff3b36acfa46bce9dbc866ece63" target="_top" xlink:title=" ">
<polygon fill="white" stroke="#666666" points="352,-41 186,-41 186,0 352,0 352,-41"/>
<text text-anchor="start" x="194" y="-29" font-family="Helvetica,sans-Serif" font-size="10.00">wmtk::components::mesh</text>
<text text-anchor="start" x="194" y="-18" font-family="Helvetica,sans-Serif" font-size="10.00">_info::MultimeshFromAttribute</text>
<text text-anchor="middle" x="269" y="-7" font-family="Helvetica,sans-Serif" font-size="10.00">Options::run</text>
</a>
</g>
</g>
<!-- Node15&#45;&gt;Node17 -->
<g id="edge17_Node000015_Node000017" class="edge">
<title>Node15&#45;&gt;Node17</title>
<g id="a_edge17_Node000015_Node000017"><a xlink:title=" ">
<path fill="none" stroke="#63b8ff" d="M384.95,-35.39C374.05,-33.97 362.99,-32.54 352.26,-31.15"/>
<polygon fill="#63b8ff" stroke="#63b8ff" points="384.53,-38.86 394.9,-36.67 385.43,-31.92 384.53,-38.86"/>
</a>
</g>
</g>
<!-- Node18 -->
<g id="Node000018" class="node">
<title>Node18</title>
<g id="a_Node000018"><a xlink:href="namespacewmtk_1_1components_1_1mesh__info.html#a3f7499d11b40a9e88159d311f591976d" target="_top" xlink:title=" ">
<polygon fill="white" stroke="#666666" points="143,-41 0,-41 0,0 143,0 143,-41"/>
<text text-anchor="start" x="8" y="-29" font-family="Helvetica,sans-Serif" font-size="10.00">wmtk::components::mesh</text>
<text text-anchor="start" x="8" y="-18" font-family="Helvetica,sans-Serif" font-size="10.00">_info::multimesh_from</text>
<text text-anchor="middle" x="71.5" y="-7" font-family="Helvetica,sans-Serif" font-size="10.00">_attribute</text>
</a>
</g>
</g>
<!-- Node17&#45;&gt;Node18 -->
<g id="edge18_Node000017_Node000018" class="edge">
<title>Node17&#45;&gt;Node18</title>
<g id="a_edge18_Node000017_Node000018"><a xlink:title=" ">
<path fill="none" stroke="#63b8ff" d="M175.89,-20.5C164.9,-20.5 153.81,-20.5 143.19,-20.5"/>
<polygon fill="#63b8ff" stroke="#63b8ff" points="175.94,-24 185.94,-20.5 175.94,-17 175.94,-24"/>
</a>
</g>
</g>
</g>
</svg>
