<?xml version="1.0" encoding="UTF-8" standalone="no"?>
<!DOCTYPE svg PUBLIC "-//W3C//DTD SVG 1.1//EN"
 "http://www.w3.org/Graphics/SVG/1.1/DTD/svg11.dtd">
<!-- Generated by graphviz version 2.43.0 (0)
 -->
<!-- Title: wmtk::components::isotropic_remeshing::IsotropicRemeshingOptions::load_json Pages: 1 -->
<!--zoomable 361 -->

<svg id="main" version="1.1" xmlns="http://www.w3.org/2000/svg" xmlns:xlink="http://www.w3.org/1999/xlink" xml:space="preserve" onload="init(evt)">
<style type="text/css"><![CDATA[
.node, .edge {opacity: 0.7;}
.node.selected, .edge.selected {opacity: 1;}
.edge:hover path { stroke: red; }
.edge:hover polygon { stroke: red; fill: red; }
]]></style>

<defs>
  <circle id="rim" cx="0" cy="0" r="7"/>
  <circle id="rim2" cx="0" cy="0" r="3.5"/>
  <g id="zoomPlus">
    <use xlink:href="#rim" fill="#404040"><set attributeName="fill" to="#808080" begin="zoomplus.mouseover" end="zoomplus.mouseout"/></use>
    <path d="M-4,0h8M0,-4v8" fill="none" stroke="white" stroke-width="1.5" pointer-events="none"/>
  </g>
  <g id="zoomMin">
    <use xlink:href="#rim" fill="#404040"><set attributeName="fill" to="#808080" begin="zoomminus.mouseover" end="zoomminus.mouseout"/></use>
    <path d="M-4,0h8" fill="none" stroke="white" stroke-width="1.5" pointer-events="none"/>
  </g>
  <g id="arrowUp" transform="translate(30 24)">
    <use xlink:href="#rim"/>
    <path pointer-events="none" fill="none" stroke="white" stroke-width="1.5" d="M0,-3.0v7 M-2.5,-0.5L0,-3.0L2.5,-0.5"/>
  </g>
  <g id="arrowRight" transform="rotate(90) translate(36 -43)">
    <use xlink:href="#rim"/>
    <path pointer-events="none" fill="none" stroke="white" stroke-width="1.5" d="M0,-3.0v7 M-2.5,-0.5L0,-3.0L2.5,-0.5"/>
  </g>
  <g id="arrowDown" transform="rotate(180) translate(-30 -48)">
    <use xlink:href="#rim"/>
    <path pointer-events="none" fill="none" stroke="white" stroke-width="1.5" d="M0,-3.0v7 M-2.5,-0.5L0,-3.0L2.5,-0.5"/>
  </g>
  <g id="arrowLeft" transform="rotate(270) translate(-36 17)">
    <use xlink:href="#rim"/>
    <path pointer-events="none" fill="none" stroke="white" stroke-width="1.5" d="M0,-3.0v7 M-2.5,-0.5L0,-3.0L2.5,-0.5"/>
  </g>
  <g id="resetDef">
    <use xlink:href="#rim2" fill="#404040"><set attributeName="fill" to="#808080" begin="reset.mouseover" end="reset.mouseout"/></use>
  </g>
</defs>
<script type="application/ecmascript">
var viewWidth = 1190;
var viewHeight = 361;
var sectionId = 'dynsection-5';
</script>
<script type="application/ecmascript" xlink:href="svg.min.js"/>
<svg id="graph" class="graph">
<g id="viewport">
<title>wmtk::components::isotropic_remeshing::IsotropicRemeshingOptions::load_json</title>
<!-- Node1 -->
<g id="Node000001" class="node">
<title>Node1</title>
<g id="a_Node000001"><a xlink:title=" ">
<polygon fill="#999999" stroke="#666666" points="214,-185.5 0,-185.5 0,-144.5 214,-144.5 214,-185.5"/>
<text text-anchor="start" x="8" y="-173.5" font-family="Helvetica,sans-Serif" font-size="10.00">wmtk::components::isotropic</text>
<text text-anchor="start" x="8" y="-162.5" font-family="Helvetica,sans-Serif" font-size="10.00">_remeshing::IsotropicRemeshingOptions</text>
<text text-anchor="middle" x="107" y="-151.5" font-family="Helvetica,sans-Serif" font-size="10.00">::load_json</text>
</a>
</g>
</g>
<!-- Node2 -->
<g id="Node000002" class="node">
<title>Node2</title>
<g id="a_Node000002"><a xlink:href="namespacewmtk_1_1components_1_1multimesh_1_1utils.html#a82d42640978a9aa4ba485febac8b68d0" target="_top" xlink:title=" ">
<polygon fill="white" stroke="#666666" points="419,-228 250,-228 250,-198 419,-198 419,-228"/>
<text text-anchor="start" x="258" y="-216" font-family="Helvetica,sans-Serif" font-size="10.00">wmtk::components::multimesh</text>
<text text-anchor="middle" x="334.5" y="-205" font-family="Helvetica,sans-Serif" font-size="10.00">::utils::get_attribute</text>
</a>
</g>
</g>
<!-- Node1&#45;&gt;Node2 -->
<g id="edge1_Node000001_Node000002" class="edge">
<title>Node1&#45;&gt;Node2</title>
<g id="a_edge1_Node000001_Node000002"><a xlink:title=" ">
<path fill="none" stroke="#63b8ff" d="M204.61,-185.57C220.7,-188.99 237.22,-192.51 252.86,-195.83"/>
<polygon fill="#63b8ff" stroke="#63b8ff" points="252.47,-199.33 262.98,-197.99 253.93,-192.48 252.47,-199.33"/>
</a>
</g>
</g>
<!-- Node17 -->
<g id="Node000017" class="node">
<title>Node17</title>
<g id="a_Node000017"><a xlink:href="classwmtk_1_1attribute_1_1_mesh_attribute_handle.html#ad577111f5b1fd05f60fae4b7f0ddb1f6" target="_top" xlink:title="Returns true if handle was initialized.">
<polygon fill="white" stroke="#666666" points="418,-156 251,-156 251,-126 418,-126 418,-156"/>
<text text-anchor="start" x="259" y="-144" font-family="Helvetica,sans-Serif" font-size="10.00">wmtk::attribute::MeshAttribute</text>
<text text-anchor="middle" x="334.5" y="-133" font-family="Helvetica,sans-Serif" font-size="10.00">Handle::is_valid</text>
</a>
</g>
</g>
<!-- Node1&#45;&gt;Node17 -->
<g id="edge17_Node000001_Node000017" class="edge">
<title>Node1&#45;&gt;Node17</title>
<g id="a_edge17_Node000001_Node000017"><a xlink:title=" ">
<path fill="none" stroke="#63b8ff" d="M214.15,-153.7C223.01,-152.76 231.94,-151.81 240.69,-150.88"/>
<polygon fill="#63b8ff" stroke="#63b8ff" points="241.31,-154.33 250.88,-149.79 240.57,-147.37 241.31,-154.33"/>
</a>
</g>
</g>
<!-- Node3 -->
<g id="Node000003" class="node">
<title>Node3</title>
<g id="a_Node000003"><a xlink:href="namespacewmtk_1_1components_1_1multimesh_1_1utils.html#a2efaab47b2efdb004ae28e811d6c04c4" target="_top" xlink:title=" ">
<polygon fill="white" stroke="#666666" points="635,-228 455,-228 455,-198 635,-198 635,-228"/>
<text text-anchor="start" x="463" y="-216" font-family="Helvetica,sans-Serif" font-size="10.00">wmtk::components::multimesh</text>
<text text-anchor="middle" x="545" y="-205" font-family="Helvetica,sans-Serif" font-size="10.00">::utils::decompose_attribute_path</text>
</a>
</g>
</g>
<!-- Node2&#45;&gt;Node3 -->
<g id="edge2_Node000002_Node000003" class="edge">
<title>Node2&#45;&gt;Node3</title>
<g id="a_edge2_Node000002_Node000003"><a xlink:title=" ">
<path fill="none" stroke="#63b8ff" d="M419.1,-213C427.57,-213 436.23,-213 444.84,-213"/>
<polygon fill="#63b8ff" stroke="#63b8ff" points="444.92,-216.5 454.92,-213 444.92,-209.5 444.92,-216.5"/>
</a>
</g>
</g>
<!-- Node4 -->
<g id="Node000004" class="node">
<title>Node4</title>
<g id="a_Node000004"><a xlink:href="namespacewmtk_1_1components_1_1multimesh_1_1utils_1_1detail.html#a74ad95cd049405e25bc2b4e5355bdc54" target="_top" xlink:title=" ">
<polygon fill="white" stroke="#666666" points="629.5,-180 460.5,-180 460.5,-150 629.5,-150 629.5,-180"/>
<text text-anchor="start" x="468.5" y="-168" font-family="Helvetica,sans-Serif" font-size="10.00">wmtk::components::multimesh</text>
<text text-anchor="middle" x="545" y="-157" font-family="Helvetica,sans-Serif" font-size="10.00">::utils::detail::get_attribute</text>
</a>
</g>
</g>
<!-- Node2&#45;&gt;Node4 -->
<g id="edge3_Node000002_Node000004" class="edge">
<title>Node2&#45;&gt;Node4</title>
<g id="a_edge3_Node000002_Node000004"><a xlink:title=" ">
<path fill="none" stroke="#63b8ff" d="M400.9,-197.94C422.54,-192.96 446.78,-187.38 469.08,-182.25"/>
<polygon fill="#63b8ff" stroke="#63b8ff" points="469.87,-185.66 478.83,-180 468.3,-178.84 469.87,-185.66"/>
</a>
</g>
</g>
<!-- Node10 -->
<g id="Node000010" class="node">
<title>Node10</title>
<g id="a_Node000010"><a xlink:href="classwmtk_1_1components_1_1multimesh_1_1_named_multi_mesh.html#a4872fdeb1da1b70569807a0d77c6df52" target="_top" xlink:title=" ">
<polygon fill="white" stroke="#666666" points="629.5,-336 460.5,-336 460.5,-306 629.5,-306 629.5,-336"/>
<text text-anchor="start" x="468.5" y="-324" font-family="Helvetica,sans-Serif" font-size="10.00">wmtk::components::multimesh</text>
<text text-anchor="middle" x="545" y="-313" font-family="Helvetica,sans-Serif" font-size="10.00">::NamedMultiMesh::get_mesh</text>
</a>
</g>
</g>
<!-- Node2&#45;&gt;Node10 -->
<g id="edge10_Node000002_Node000010" class="edge">
<title>Node2&#45;&gt;Node10</title>
<g id="a_edge10_Node000002_Node000010"><a xlink:title=" ">
<path fill="none" stroke="#63b8ff" d="M352.9,-228.22C375.13,-246.94 415.5,-278.5 455,-297 459.3,-299.02 463.8,-300.89 468.4,-302.62"/>
<polygon fill="#63b8ff" stroke="#63b8ff" points="467.34,-305.96 477.94,-305.98 469.67,-299.35 467.34,-305.96"/>
</a>
</g>
</g>
<!-- Node15 -->
<g id="Node000015" class="node">
<title>Node15</title>
<g id="a_Node000015"><a xlink:href="structwmtk_1_1components_1_1multimesh_1_1utils_1_1_attribute_description.html#a300d0165aafc5dfdeb96bfce804cdd25" target="_top" xlink:title=" ">
<polygon fill="white" stroke="#666666" points="629.5,-287.5 460.5,-287.5 460.5,-246.5 629.5,-246.5 629.5,-287.5"/>
<text text-anchor="start" x="468.5" y="-275.5" font-family="Helvetica,sans-Serif" font-size="10.00">wmtk::components::multimesh</text>
<text text-anchor="start" x="468.5" y="-264.5" font-family="Helvetica,sans-Serif" font-size="10.00">::utils::AttributeDescription</text>
<text text-anchor="middle" x="545" y="-253.5" font-family="Helvetica,sans-Serif" font-size="10.00">::primitive_type</text>
</a>
</g>
</g>
<!-- Node2&#45;&gt;Node15 -->
<g id="edge15_Node000002_Node000015" class="edge">
<title>Node2&#45;&gt;Node15</title>
<g id="a_edge15_Node000002_Node000015"><a xlink:title=" ">
<path fill="none" stroke="#63b8ff" d="M393.58,-228.04C412.61,-232.97 434.22,-238.57 455.01,-243.95"/>
<polygon fill="#63b8ff" stroke="#63b8ff" points="454.25,-247.37 464.81,-246.49 456,-240.59 454.25,-247.37"/>
</a>
</g>
</g>
<!-- Node5 -->
<g id="Node000005" class="node">
<title>Node5</title>
<g id="a_Node000005"><a xlink:href="classwmtk_1_1_mesh.html#a335d3c86fd7d291b564a44944be6bf79" target="_top" xlink:title=" ">
<polygon fill="white" stroke="#666666" points="828.5,-78 682.5,-78 682.5,-48 828.5,-48 828.5,-78"/>
<text text-anchor="start" x="690.5" y="-66" font-family="Helvetica,sans-Serif" font-size="10.00">wmtk::Mesh::get_attribute</text>
<text text-anchor="middle" x="755.5" y="-55" font-family="Helvetica,sans-Serif" font-size="10.00">_handle</text>
</a>
</g>
</g>
<!-- Node4&#45;&gt;Node5 -->
<g id="edge4_Node000004_Node000005" class="edge">
<title>Node4&#45;&gt;Node5</title>
<g id="a_edge4_Node000004_Node000005"><a xlink:title=" ">
<path fill="none" stroke="#63b8ff" d="M566.24,-149.88C590.18,-132.61 631.74,-104.48 671,-87 675.42,-85.03 680.04,-83.18 684.74,-81.45"/>
<polygon fill="#63b8ff" stroke="#63b8ff" points="686.18,-84.65 694.48,-78.06 683.88,-78.04 686.18,-84.65"/>
</a>
</g>
</g>
<!-- Node6 -->
<g id="Node000006" class="node">
<title>Node6</title>
<g id="a_Node000006"><a xlink:href="namespacewmtk.html#a5cf45c152e856196bb734c6f48919a24" target="_top" xlink:title="Get a unique integer id corresponding to each primitive type.">
<polygon fill="white" stroke="#666666" points="813.5,-241 697.5,-241 697.5,-211 813.5,-211 813.5,-241"/>
<text text-anchor="start" x="705.5" y="-229" font-family="Helvetica,sans-Serif" font-size="10.00">wmtk::get_primitive</text>
<text text-anchor="middle" x="755.5" y="-218" font-family="Helvetica,sans-Serif" font-size="10.00">_type_id</text>
</a>
</g>
</g>
<!-- Node4&#45;&gt;Node6 -->
<g id="edge5_Node000004_Node000006" class="edge">
<title>Node4&#45;&gt;Node6</title>
<g id="a_edge5_Node000004_Node000006"><a xlink:title=" ">
<path fill="none" stroke="#63b8ff" d="M603.59,-180C614.07,-182.88 624.89,-185.95 635,-189 651.15,-193.86 654.92,-195.91 671,-201 678.3,-203.31 685.98,-205.68 693.61,-208.01"/>
<polygon fill="#63b8ff" stroke="#63b8ff" points="692.61,-211.36 703.2,-210.91 694.64,-204.66 692.61,-211.36"/>
</a>
</g>
</g>
<!-- Node7 -->
<g id="Node000007" class="node">
<title>Node7</title>
<g id="a_Node000007"><a xlink:href="classwmtk_1_1_mesh.html#a89b735bef9cbf8d5ab955d23f787b70f" target="_top" xlink:title=" ">
<polygon fill="white" stroke="#666666" points="829,-174.5 682,-174.5 682,-155.5 829,-155.5 829,-174.5"/>
<text text-anchor="middle" x="755.5" y="-162.5" font-family="Helvetica,sans-Serif" font-size="10.00">wmtk::Mesh::has_attribute</text>
</a>
</g>
</g>
<!-- Node4&#45;&gt;Node7 -->
<g id="edge6_Node000004_Node000007" class="edge">
<title>Node4&#45;&gt;Node7</title>
<g id="a_edge6_Node000004_Node000007"><a xlink:title=" ">
<path fill="none" stroke="#63b8ff" d="M629.6,-165C643.55,-165 658.01,-165 671.94,-165"/>
<polygon fill="#63b8ff" stroke="#63b8ff" points="671.96,-168.5 681.96,-165 671.96,-161.5 671.96,-168.5"/>
</a>
</g>
</g>
<!-- Node9 -->
<g id="Node000009" class="node">
<title>Node9</title>
<g id="a_Node000009"><a xlink:href="classwmtk_1_1components_1_1multimesh_1_1utils_1_1detail_1_1attribute__missing__error.html#a1fd61a1550a62b7b6ae44e60b1c9c6d8" target="_top" xlink:title=" ">
<polygon fill="white" stroke="#666666" points="840,-137.5 671,-137.5 671,-96.5 840,-96.5 840,-137.5"/>
<text text-anchor="start" x="679" y="-125.5" font-family="Helvetica,sans-Serif" font-size="10.00">wmtk::components::multimesh</text>
<text text-anchor="start" x="679" y="-114.5" font-family="Helvetica,sans-Serif" font-size="10.00">::utils::detail::attribute</text>
<text text-anchor="middle" x="755.5" y="-103.5" font-family="Helvetica,sans-Serif" font-size="10.00">_missing_error::make</text>
</a>
</g>
</g>
<!-- Node4&#45;&gt;Node9 -->
<g id="edge9_Node000004_Node000009" class="edge">
<title>Node4&#45;&gt;Node9</title>
<g id="a_edge9_Node000004_Node000009"><a xlink:title=" ">
<path fill="none" stroke="#63b8ff" d="M611.4,-149.94C627.17,-146.31 644.33,-142.36 661.11,-138.5"/>
<polygon fill="#63b8ff" stroke="#63b8ff" points="661.97,-141.89 670.93,-136.24 660.4,-135.07 661.97,-141.89"/>
</a>
</g>
</g>
<!-- Node7&#45;&gt;Node7 -->
<g id="edge8_Node000007_Node000007" class="edge">
<title>Node7&#45;&gt;Node7</title>
<g id="a_edge8_Node000007_Node000007"><a xlink:title=" ">
<path fill="none" stroke="#63b8ff" d="M724.06,-174.58C708.76,-183.23 719.24,-192.5 755.5,-192.5 780.99,-192.5 793.74,-187.92 793.75,-182.19"/>
<polygon fill="#63b8ff" stroke="#63b8ff" points="796.22,-179.7 786.94,-174.58 791,-184.37 796.22,-179.7"/>
</a>
</g>
</g>
<!-- Node8 -->
<g id="Node000008" class="node">
<title>Node8</title>
<g id="a_Node000008"><a xlink:href="classwmtk_1_1attribute_1_1_attribute_manager.html#a2169001c03d75b77488dba8494038fe5" target="_top" xlink:title=" ">
<polygon fill="white" stroke="#666666" points="1031,-105 890,-105 890,-75 1031,-75 1031,-105"/>
<text text-anchor="start" x="898" y="-93" font-family="Helvetica,sans-Serif" font-size="10.00">wmtk::attribute::Attribute</text>
<text text-anchor="middle" x="960.5" y="-82" font-family="Helvetica,sans-Serif" font-size="10.00">Manager::get</text>
</a>
</g>
</g>
<!-- Node7&#45;&gt;Node8 -->
<g id="edge7_Node000007_Node000008" class="edge">
<title>Node7&#45;&gt;Node8</title>
<g id="a_edge7_Node000007_Node000008"><a xlink:title=" ">
<path fill="none" stroke="#63b8ff" d="M806.44,-155.48C817.61,-152.84 829.31,-149.67 840,-146 868.57,-136.18 899.4,-121.63 922.59,-109.81"/>
<polygon fill="#63b8ff" stroke="#63b8ff" points="924.44,-112.8 931.72,-105.11 921.23,-106.58 924.44,-112.8"/>
</a>
</g>
</g>
<!-- Node11 -->
<g id="Node000011" class="node">
<title>Node11</title>
<g id="a_Node000011"><a xlink:href="classwmtk_1_1components_1_1multimesh_1_1_named_multi_mesh.html#a0a47aede86bb45377eae74c01d313544" target="_top" xlink:title=" ">
<polygon fill="white" stroke="#666666" points="840,-337 671,-337 671,-307 840,-307 840,-337"/>
<text text-anchor="start" x="679" y="-325" font-family="Helvetica,sans-Serif" font-size="10.00">wmtk::components::multimesh</text>
<text text-anchor="middle" x="755.5" y="-314" font-family="Helvetica,sans-Serif" font-size="10.00">::NamedMultiMesh::get_id</text>
</a>
</g>
</g>
<!-- Node10&#45;&gt;Node11 -->
<g id="edge11_Node000010_Node000011" class="edge">
<title>Node10&#45;&gt;Node11</title>
<g id="a_edge11_Node000010_Node000011"><a xlink:title=" ">
<path fill="none" stroke="#63b8ff" d="M629.6,-321.4C639.8,-321.45 650.27,-321.5 660.6,-321.55"/>
<polygon fill="#63b8ff" stroke="#63b8ff" points="660.86,-325.05 670.88,-321.6 660.89,-318.05 660.86,-325.05"/>
</a>
</g>
</g>
<!-- Node12 -->
<g id="Node000012" class="node">
<title>Node12</title>
<g id="a_Node000012"><a xlink:href="namespacewmtk.html#a6a35f11c12436093d26fdd8be6fecc06" target="_top" xlink:title="Retrieves the current logger.">
<polygon fill="white" stroke="#666666" points="1001,-352.5 920,-352.5 920,-333.5 1001,-333.5 1001,-352.5"/>
<text text-anchor="middle" x="960.5" y="-340.5" font-family="Helvetica,sans-Serif" font-size="10.00">wmtk::logger</text>
</a>
</g>
</g>
<!-- Node11&#45;&gt;Node12 -->
<g id="edge12_Node000011_Node000012" class="edge">
<title>Node11&#45;&gt;Node12</title>
<g id="a_edge12_Node000011_Node000012"><a xlink:title=" ">
<path fill="none" stroke="#63b8ff" d="M840.24,-330.66C863.78,-333.1 888.65,-335.67 909.54,-337.83"/>
<polygon fill="#63b8ff" stroke="#63b8ff" points="909.46,-341.34 919.76,-338.89 910.18,-334.38 909.46,-341.34"/>
</a>
</g>
</g>
<!-- Node14 -->
<g id="Node000014" class="node">
<title>Node14</title>
<g id="a_Node000014"><a xlink:href="namespacewmtk_1_1components_1_1multimesh_1_1internal.html#a3b2338b45b680494e5501c97baa6f456" target="_top" xlink:title=" ">
<polygon fill="white" stroke="#666666" points="1045,-315 876,-315 876,-285 1045,-285 1045,-315"/>
<text text-anchor="start" x="884" y="-303" font-family="Helvetica,sans-Serif" font-size="10.00">wmtk::components::multimesh</text>
<text text-anchor="middle" x="960.5" y="-292" font-family="Helvetica,sans-Serif" font-size="10.00">::internal::split_path</text>
</a>
</g>
</g>
<!-- Node11&#45;&gt;Node14 -->
<g id="edge14_Node000011_Node000014" class="edge">
<title>Node11&#45;&gt;Node14</title>
<g id="a_edge14_Node000011_Node000014"><a xlink:title=" ">
<path fill="none" stroke="#63b8ff" d="M840.24,-312.92C848.72,-312.01 857.37,-311.07 865.94,-310.14"/>
<polygon fill="#63b8ff" stroke="#63b8ff" points="866.39,-313.61 875.95,-309.05 865.63,-306.65 866.39,-313.61"/>
</a>
</g>
</g>
<!-- Node13 -->
<g id="Node000013" class="node">
<title>Node13</title>
<g id="a_Node000013"><a xlink:href="namespacewmtk.html#a3daa7951a5f8b78cf4600dc047fcc180" target="_top" xlink:title="Setup a logger object to be used by WildmeshToolkit.">
<polygon fill="white" stroke="#666666" points="1182,-352.5 1081,-352.5 1081,-333.5 1182,-333.5 1182,-352.5"/>
<text text-anchor="middle" x="1131.5" y="-340.5" font-family="Helvetica,sans-Serif" font-size="10.00">wmtk::set_logger</text>
</a>
</g>
</g>
<!-- Node12&#45;&gt;Node13 -->
<g id="edge13_Node000012_Node000013" class="edge">
<title>Node12&#45;&gt;Node13</title>
<g id="a_edge13_Node000012_Node000013"><a xlink:title=" ">
<path fill="none" stroke="#63b8ff" d="M1001.12,-343C1021.86,-343 1047.68,-343 1070.78,-343"/>
<polygon fill="#63b8ff" stroke="#63b8ff" points="1070.83,-346.5 1080.83,-343 1070.83,-339.5 1070.83,-346.5"/>
</a>
</g>
</g>
<!-- Node16 -->
<g id="Node000016" class="node">
<title>Node16</title>
<g id="a_Node000016"><a xlink:href="namespacewmtk.html#a3b08a5d7fb42f02c54bae85758b39f59" target="_top" xlink:title="Get the primitive type corresponding to its unique integer id.">
<polygon fill="white" stroke="#666666" points="813.5,-289 697.5,-289 697.5,-259 813.5,-259 813.5,-289"/>
<text text-anchor="start" x="705.5" y="-277" font-family="Helvetica,sans-Serif" font-size="10.00">wmtk::get_primitive</text>
<text text-anchor="middle" x="755.5" y="-266" font-family="Helvetica,sans-Serif" font-size="10.00">_type_from_id</text>
</a>
</g>
</g>
<!-- Node15&#45;&gt;Node16 -->
<g id="edge16_Node000015_Node000016" class="edge">
<title>Node15&#45;&gt;Node16</title>
<g id="a_edge16_Node000015_Node000016"><a xlink:title=" ">
<path fill="none" stroke="#63b8ff" d="M629.6,-269.81C648.82,-270.45 669.01,-271.13 687.42,-271.75"/>
<polygon fill="#63b8ff" stroke="#63b8ff" points="687.33,-275.25 697.44,-272.08 687.57,-268.25 687.33,-275.25"/>
</a>
</g>
</g>
<!-- Node18 -->
<g id="Node000018" class="node">
<title>Node18</title>
<g id="a_Node000018"><a xlink:href="classwmtk_1_1_mesh.html#a73ea62ce0428cf64f836f77482a87c40" target="_top" xlink:title=" ">
<polygon fill="white" stroke="#666666" points="606,-81 484,-81 484,-51 606,-51 606,-81"/>
<text text-anchor="start" x="492" y="-69" font-family="Helvetica,sans-Serif" font-size="10.00">wmtk::Mesh::validate</text>
<text text-anchor="middle" x="545" y="-58" font-family="Helvetica,sans-Serif" font-size="10.00">_handle</text>
</a>
</g>
</g>
<!-- Node17&#45;&gt;Node18 -->
<g id="edge18_Node000017_Node000018" class="edge">
<title>Node17&#45;&gt;Node18</title>
<g id="a_edge18_Node000017_Node000018"><a xlink:title=" ">
<path fill="none" stroke="#63b8ff" d="M377.69,-125.82C410.87,-113.89 457.22,-97.21 492.57,-84.5"/>
<polygon fill="#63b8ff" stroke="#63b8ff" points="494,-87.7 502.23,-81.03 491.63,-81.12 494,-87.7"/>
</a>
</g>
</g>
<!-- Node19 -->
<g id="Node000019" class="node">
<title>Node19</title>
<g id="a_Node000019"><a xlink:href="classwmtk_1_1attribute_1_1_attribute_manager.html#a3b1a087ab6c03a0f2e6a6a93b87f3147" target="_top" xlink:title=" ">
<polygon fill="white" stroke="#666666" points="827,-30 684,-30 684,0 827,0 827,-30"/>
<text text-anchor="start" x="692" y="-18" font-family="Helvetica,sans-Serif" font-size="10.00">wmtk::attribute::Attribute</text>
<text text-anchor="middle" x="755.5" y="-7" font-family="Helvetica,sans-Serif" font-size="10.00">Manager::validate_handle</text>
</a>
</g>
</g>
<!-- Node18&#45;&gt;Node19 -->
<g id="edge19_Node000018_Node000019" class="edge">
<title>Node18&#45;&gt;Node19</title>
<g id="a_edge19_Node000018_Node000019"><a xlink:title=" ">
<path fill="none" stroke="#63b8ff" d="M606.03,-51.32C630.14,-45.42 658.12,-38.58 683.25,-32.43"/>
<polygon fill="#63b8ff" stroke="#63b8ff" points="684.21,-35.8 693.09,-30.02 682.54,-29 684.21,-35.8"/>
</a>
</g>
</g>
<!-- Node19&#45;&gt;Node8 -->
<g id="edge20_Node000019_Node000008" class="edge">
<title>Node19&#45;&gt;Node8</title>
<g id="a_edge20_Node000019_Node000008"><a xlink:title=" ">
<path fill="none" stroke="#63b8ff" d="M812.5,-30.06C821.75,-32.84 831.19,-35.87 840,-39 866.31,-48.36 895.13,-60.59 917.87,-70.73"/>
<polygon fill="#63b8ff" stroke="#63b8ff" points="916.66,-74.03 927.22,-74.94 919.53,-67.64 916.66,-74.03"/>
</a>
</g>
</g>
</g>
</svg>

<g id="navigator" transform="translate(0 0)" fill="#404254">
  <rect fill="#f2f5e9" fill-opacity="0.5" stroke="#606060" stroke-width=".5" x="0" y="0" width="60" height="60"/>
  <use id="zoomplus" xlink:href="#zoomPlus" x="17" y="9" onmousedown="handleZoom(evt,'in')"/>
  <use id="zoomminus" xlink:href="#zoomMin" x="42" y="9" onmousedown="handleZoom(evt,'out')"/>
  <use id="reset" xlink:href="#resetDef" x="30" y="36" onmousedown="handleReset()"/>
   <use id="arrowup" xlink:href="#arrowUp" x="0" y="0" onmousedown="handlePan(0,-1)"/>
  <use id="arrowright" xlink:href="#arrowRight" x="0" y="0" onmousedown="handlePan(1,0)"/>
  <use id="arrowdown" xlink:href="#arrowDown" x="0" y="0" onmousedown="handlePan(0,1)"/>
  <use id="arrowleft" xlink:href="#arrowLeft" x="0" y="0" onmousedown="handlePan(-1,0)"/>
</g>
<svg viewBox="0 0 15 15" width="100%" height="30px" preserveAspectRatio="xMaxYMin meet">
 <g id="arrow_out" transform="scale(0.3 0.3)">
  <a xlink:href="structwmtk_1_1components_1_1isotropic__remeshing_1_1_isotropic_remeshing_options_a5a3a57ee3b36540f4e019c87599efd29_cgraph_org.svg" target="_base">
   <rect id="button" ry="5" rx="5" y="6" x="6" height="38" width="38"
        fill="#f2f5e9" fill-opacity="0.5" stroke="#606060" stroke-width="1.0"/>
   <path id="arrow"
     d="M 11.500037,31.436501 C 11.940474,20.09759 22.043105,11.32322 32.158766,21.979434 L 37.068811,17.246167 C 37.068811,17.246167 37.088388,32 37.088388,32 L 22.160133,31.978069 C 22.160133,31.978069 26.997745,27.140456 26.997745,27.140456 C 18.528582,18.264221 13.291696,25.230495 11.500037,31.436501 z"
     style="fill:#404040;"/>
  </a>
 </g>
</svg>

<style type='text/css'>
<![CDATA[
[data-mouse-over-selected='false'] { opacity: 0.7; }
[data-mouse-over-selected='true']  { opacity: 1.0; }
]]>
</style>
<script type="application/ecmascript"><![CDATA[
document.addEventListener('DOMContentLoaded', (event) => {
  highlightEdges();
  highlightAdjacentNodes();
});
]]></script>
</svg>
