<?xml version="1.0" encoding="UTF-8" standalone="no"?>
<!DOCTYPE svg PUBLIC "-//W3C//DTD SVG 1.1//EN"
 "http://www.w3.org/Graphics/SVG/1.1/DTD/svg11.dtd">
<!-- Generated by graphviz version 2.43.0 (0)
 -->
<!-- Title: wmtk::components::multimesh::MultimeshOptions::run Pages: 1 -->
<svg width="382pt" height="187pt"
 viewBox="0.00 0.00 382.00 186.50" xmlns="http://www.w3.org/2000/svg" xmlns:xlink="http://www.w3.org/1999/xlink">

<svg id="main" version="1.1" xmlns="http://www.w3.org/2000/svg" xmlns:xlink="http://www.w3.org/1999/xlink" xml:space="preserve" onload="init(evt)">
<style type="text/css"><![CDATA[
.node, .edge {opacity: 0.7;}
.node.selected, .edge.selected {opacity: 1;}
.edge:hover path { stroke: red; }
.edge:hover polygon { stroke: red; fill: red; }
]]></style>
<script type="application/ecmascript" xlink:href="svg.min.js"/>
<svg id="graph" class="graph">
<g id="graph0" class="graph" transform="scale(1 1) rotate(0) translate(4 182.5)">
<title>wmtk::components::multimesh::MultimeshOptions::run</title>
<!-- Node1 -->
<g id="Node000001" class="node">
<title>Node1</title>
<g id="a_Node000001"><a xlink:title=" ">
<polygon fill="#999999" stroke="#666666" points="374,-98.5 205,-98.5 205,-68.5 374,-68.5 374,-98.5"/>
<text text-anchor="start" x="213" y="-86.5" font-family="Helvetica,sans-Serif" font-size="10.00">wmtk::components::multimesh</text>
<text text-anchor="middle" x="289.5" y="-75.5" font-family="Helvetica,sans-Serif" font-size="10.00">::MultimeshOptions::run</text>
</a>
</g>
</g>
<!-- Node2 -->
<g id="Node000002" class="node">
<title>Node2</title>
<g id="a_Node000002"><a xlink:href="namespacewmtk_1_1components_1_1multimesh.html#ac618c9d842c85017ac5f1b846a6e9c0a" target="_top" xlink:title=" ">
<polygon fill="white" stroke="#666666" points="169,-178.5 0,-178.5 0,-148.5 169,-148.5 169,-178.5"/>
<text text-anchor="start" x="8" y="-166.5" font-family="Helvetica,sans-Serif" font-size="10.00">wmtk::components::multimesh</text>
<text text-anchor="middle" x="84.5" y="-155.5" font-family="Helvetica,sans-Serif" font-size="10.00">::multimesh</text>
</a>
</g>
</g>
<!-- Node1&#45;&gt;Node2 -->
<g id="edge1_Node000001_Node000002" class="edge">
<title>Node1&#45;&gt;Node2</title>
<g id="a_edge1_Node000001_Node000002"><a xlink:title=" ">
<path fill="none" stroke="#63b8ff" d="M250.46,-103.22C227.3,-114.74 196.9,-129.03 169,-139.5 160.53,-142.68 151.44,-145.69 142.49,-148.43"/>
<polygon fill="#63b8ff" stroke="#63b8ff" points="252.23,-106.25 259.59,-98.63 249.08,-99.99 252.23,-106.25"/>
</a>
</g>
</g>
<!-- Node3 -->
<g id="Node000003" class="node">
<title>Node3</title>
<g id="a_Node000003"><a xlink:href="json_8cpp.html#a926ec05d20533e9442eb38b6af3f933a" target="_top" xlink:title=" ">
<polygon fill="white" stroke="#666666" points="120,-130 49,-130 49,-111 120,-111 120,-130"/>
<text text-anchor="middle" x="84.5" y="-118" font-family="Helvetica,sans-Serif" font-size="10.00">TEST_CASE</text>
</a>
</g>
</g>
<!-- Node1&#45;&gt;Node3 -->
<g id="edge2_Node000001_Node000003" class="edge">
<title>Node1&#45;&gt;Node3</title>
<g id="a_edge2_Node000001_Node000003"><a xlink:title=" ">
<path fill="none" stroke="#63b8ff" d="M196.03,-100.35C169.01,-105.28 141.14,-110.36 120.14,-114.19"/>
<polygon fill="#63b8ff" stroke="#63b8ff" points="196.72,-103.79 205.93,-98.55 195.47,-96.9 196.72,-103.79"/>
</a>
</g>
</g>
<!-- Node4 -->
<g id="Node000004" class="node">
<title>Node4</title>
<g id="a_Node000004"><a xlink:href="json_8cpp.html#a034d46582f037a382b0999522b442ca8" target="_top" xlink:title=" ">
<polygon fill="white" stroke="#666666" points="120,-93 49,-93 49,-74 120,-74 120,-93"/>
<text text-anchor="middle" x="84.5" y="-81" font-family="Helvetica,sans-Serif" font-size="10.00">TEST_CASE</text>
</a>
</g>
</g>
<!-- Node1&#45;&gt;Node4 -->
<g id="edge3_Node000001_Node000004" class="edge">
<title>Node1&#45;&gt;Node4</title>
<g id="a_edge3_Node000001_Node000004"><a xlink:title=" ">
<path fill="none" stroke="#63b8ff" d="M194.64,-83.5C168.09,-83.5 140.85,-83.5 120.22,-83.5"/>
<polygon fill="#63b8ff" stroke="#63b8ff" points="194.76,-87 204.76,-83.5 194.76,-80 194.76,-87"/>
</a>
</g>
</g>
<!-- Node5 -->
<g id="Node000005" class="node">
<title>Node5</title>
<g id="a_Node000005"><a xlink:href="json_8cpp.html#aa89e56eb42571af9e525720c92762418" target="_top" xlink:title=" ">
<polygon fill="white" stroke="#666666" points="120,-56 49,-56 49,-37 120,-37 120,-56"/>
<text text-anchor="middle" x="84.5" y="-44" font-family="Helvetica,sans-Serif" font-size="10.00">TEST_CASE</text>
</a>
</g>
</g>
<!-- Node1&#45;&gt;Node5 -->
<g id="edge4_Node000001_Node000005" class="edge">
<title>Node1&#45;&gt;Node5</title>
<g id="a_edge4_Node000001_Node000005"><a xlink:title=" ">
<path fill="none" stroke="#63b8ff" d="M196.03,-66.65C169.01,-61.72 141.14,-56.64 120.14,-52.81"/>
<polygon fill="#63b8ff" stroke="#63b8ff" points="195.47,-70.1 205.93,-68.45 196.72,-63.21 195.47,-70.1"/>
</a>
</g>
</g>
<!-- Node6 -->
<g id="Node000006" class="node">
<title>Node6</title>
<g id="a_Node000006"><a xlink:href="json_8cpp.html#adbdf415c66cdae29538783127119b4c1" target="_top" xlink:title=" ">
<polygon fill="white" stroke="#666666" points="120,-19 49,-19 49,0 120,0 120,-19"/>
<text text-anchor="middle" x="84.5" y="-7" font-family="Helvetica,sans-Serif" font-size="10.00">TEST_CASE</text>
</a>
</g>
</g>
<!-- Node1&#45;&gt;Node6 -->
<g id="edge5_Node000001_Node000006" class="edge">
<title>Node1&#45;&gt;Node6</title>
<g id="a_edge5_Node000001_Node000006"><a xlink:title=" ">
<path fill="none" stroke="#63b8ff" d="M251.09,-63.84C227.94,-52.29 197.32,-38.12 169,-28.5 153.23,-23.14 135.28,-18.84 120.07,-15.69"/>
<polygon fill="#63b8ff" stroke="#63b8ff" points="249.7,-67.06 260.21,-68.44 252.86,-60.81 249.7,-67.06"/>
</a>
</g>
</g>
</g>
</svg>
</svg>

<style type='text/css'>
<![CDATA[
[data-mouse-over-selected='false'] { opacity: 0.7; }
[data-mouse-over-selected='true']  { opacity: 1.0; }
]]>
</style>
<script type="application/ecmascript"><![CDATA[
document.addEventListener('DOMContentLoaded', (event) => {
  highlightEdges();
  highlightAdjacentNodes();
});
]]></script>
</svg>
