<?xml version="1.0" encoding="UTF-8" standalone="no"?>
<!DOCTYPE svg PUBLIC "-//W3C//DTD SVG 1.1//EN"
 "http://www.w3.org/Graphics/SVG/1.1/DTD/svg11.dtd">
<!-- Generated by graphviz version 2.43.0 (0)
 -->
<!-- Title: wmtk::components::configurator::transfer::EdgeAngleFunctor::valid Pages: 1 -->
<svg width="404pt" height="167pt"
 viewBox="0.00 0.00 404.00 167.00" xmlns="http://www.w3.org/2000/svg" xmlns:xlink="http://www.w3.org/1999/xlink">
<g id="graph0" class="graph" transform="scale(1 1) rotate(0) translate(4 163)">
<title>wmtk::components::configurator::transfer::EdgeAngleFunctor::valid</title>
<!-- Node1 -->
<g id="Node000001" class="node">
<title>Node1</title>
<g id="a_Node000001"><a xlink:title=" ">
<polygon fill="#999999" stroke="#666666" points="185,-94.5 0,-94.5 0,-64.5 185,-64.5 185,-94.5"/>
<text text-anchor="start" x="8" y="-82.5" font-family="Helvetica,sans-Serif" font-size="10.00">wmtk::components::configurator</text>
<text text-anchor="middle" x="92.5" y="-71.5" font-family="Helvetica,sans-Serif" font-size="10.00">::transfer::EdgeAngleFunctor::valid</text>
</a>
</g>
</g>
<!-- Node2 -->
<g id="Node000002" class="node">
<title>Node2</title>
<g id="a_Node000002"><a xlink:href="structwmtk_1_1components_1_1configurator_1_1transfer_1_1_edge_angle_functor.html#a3e9cbb8987d7be91ff43dc55cca750d9" target="_top" xlink:title=" ">
<polygon fill="white" stroke="#666666" points="396,-159 221,-159 221,-118 396,-118 396,-159"/>
<text text-anchor="start" x="229" y="-147" font-family="Helvetica,sans-Serif" font-size="10.00">wmtk::components::configurator</text>
<text text-anchor="start" x="229" y="-136" font-family="Helvetica,sans-Serif" font-size="10.00">::transfer::EdgeAngleFunctor</text>
<text text-anchor="middle" x="308.5" y="-125" font-family="Helvetica,sans-Serif" font-size="10.00">::validInDim</text>
</a>
</g>
</g>
<!-- Node1&#45;&gt;Node2 -->
<g id="edge1_Node000001_Node000002" class="edge">
<title>Node1&#45;&gt;Node2</title>
<g id="a_edge1_Node000001_Node000002"><a xlink:title=" ">
<path fill="none" stroke="#63b8ff" d="M148.05,-94.54C170.79,-100.81 197.73,-108.24 222.93,-115.18"/>
<polygon fill="#63b8ff" stroke="#63b8ff" points="222.29,-118.64 232.86,-117.92 224.15,-111.89 222.29,-118.64"/>
</a>
</g>
</g>
<!-- Node3 -->
<g id="Node000003" class="node">
<title>Node3</title>
<g id="a_Node000003"><a xlink:href="structwmtk_1_1components_1_1configurator_1_1transfer_1_1_edge_angle_functor.html#af0c50cff48cb0958bf74963c8486d0f5" target="_top" xlink:title=" ">
<polygon fill="white" stroke="#666666" points="396,-100 221,-100 221,-59 396,-59 396,-100"/>
<text text-anchor="start" x="229" y="-88" font-family="Helvetica,sans-Serif" font-size="10.00">wmtk::components::configurator</text>
<text text-anchor="start" x="229" y="-77" font-family="Helvetica,sans-Serif" font-size="10.00">::transfer::EdgeAngleFunctor</text>
<text text-anchor="middle" x="308.5" y="-66" font-family="Helvetica,sans-Serif" font-size="10.00">::validOutDim</text>
</a>
</g>
</g>
<!-- Node1&#45;&gt;Node3 -->
<g id="edge2_Node000001_Node000003" class="edge">
<title>Node1&#45;&gt;Node3</title>
<g id="a_edge2_Node000001_Node000003"><a xlink:title=" ">
<path fill="none" stroke="#63b8ff" d="M185.19,-79.5C193.57,-79.5 202.09,-79.5 210.52,-79.5"/>
<polygon fill="#63b8ff" stroke="#63b8ff" points="210.75,-83 220.75,-79.5 210.75,-76 210.75,-83"/>
</a>
</g>
</g>
<!-- Node4 -->
<g id="Node000004" class="node">
<title>Node4</title>
<g id="a_Node000004"><a xlink:href="structwmtk_1_1components_1_1configurator_1_1transfer_1_1_edge_angle_functor.html#ad0fb205a22c6b9938731e9cb11d2c47a" target="_top" xlink:title=" ">
<polygon fill="white" stroke="#666666" points="396,-41 221,-41 221,0 396,0 396,-41"/>
<text text-anchor="start" x="229" y="-29" font-family="Helvetica,sans-Serif" font-size="10.00">wmtk::components::configurator</text>
<text text-anchor="start" x="229" y="-18" font-family="Helvetica,sans-Serif" font-size="10.00">::transfer::EdgeAngleFunctor</text>
<text text-anchor="middle" x="308.5" y="-7" font-family="Helvetica,sans-Serif" font-size="10.00">::validType</text>
</a>
</g>
</g>
<!-- Node1&#45;&gt;Node4 -->
<g id="edge3_Node000001_Node000004" class="edge">
<title>Node1&#45;&gt;Node4</title>
<g id="a_edge3_Node000001_Node000004"><a xlink:title=" ">
<path fill="none" stroke="#63b8ff" d="M148.05,-64.46C170.79,-58.19 197.73,-50.76 222.93,-43.82"/>
<polygon fill="#63b8ff" stroke="#63b8ff" points="224.15,-47.11 232.86,-41.08 222.29,-40.36 224.15,-47.11"/>
</a>
</g>
</g>
</g>
</svg>
