<?xml version="1.0" encoding="UTF-8" standalone="no"?>
<!DOCTYPE svg PUBLIC "-//W3C//DTD SVG 1.1//EN"
 "http://www.w3.org/Graphics/SVG/1.1/DTD/svg11.dtd">
<!-- Generated by graphviz version 2.43.0 (0)
 -->
<!-- Title: wmtk::components::configurator::transfer::SingleAttributeTransferStrategyFactory&lt; Functor &gt; Pages: 1 -->
<svg width="935pt" height="49pt"
 viewBox="0.00 0.00 935.00 49.00" xmlns="http://www.w3.org/2000/svg" xmlns:xlink="http://www.w3.org/1999/xlink">
<g id="graph0" class="graph" transform="scale(1 1) rotate(0) translate(4 45)">
<title>wmtk::components::configurator::transfer::SingleAttributeTransferStrategyFactory&lt; Functor &gt;</title>
<!-- Node1 -->
<g id="Node000001" class="node">
<title>Node1</title>
<g id="a_Node000001"><a xlink:title=" ">
<polygon fill="#999999" stroke="#666666" points="927,-41 748,-41 748,0 927,0 927,-41"/>
<text text-anchor="start" x="756" y="-29" font-family="Helvetica,sans-Serif" font-size="10.00">wmtk::components::configurator</text>
<text text-anchor="start" x="756" y="-18" font-family="Helvetica,sans-Serif" font-size="10.00">::transfer::SingleAttributeTransfer</text>
<text text-anchor="middle" x="837.5" y="-7" font-family="Helvetica,sans-Serif" font-size="10.00">StrategyFactory&lt; Functor &gt;</text>
</a>
</g>
</g>
<!-- Node2 -->
<g id="Node000002" class="node">
<title>Node2</title>
<g id="a_Node000002"><a xlink:href="structwmtk_1_1components_1_1configurator_1_1transfer_1_1_single_attribute_transfer_strategy_factory_base.html" target="_top" xlink:title=" ">
<polygon fill="white" stroke="#666666" points="711,-41 532,-41 532,0 711,0 711,-41"/>
<text text-anchor="start" x="540" y="-29" font-family="Helvetica,sans-Serif" font-size="10.00">wmtk::components::configurator</text>
<text text-anchor="start" x="540" y="-18" font-family="Helvetica,sans-Serif" font-size="10.00">::transfer::SingleAttributeTransfer</text>
<text text-anchor="middle" x="621.5" y="-7" font-family="Helvetica,sans-Serif" font-size="10.00">StrategyFactoryBase</text>
</a>
</g>
</g>
<!-- Node2&#45;&gt;Node1 -->
<g id="edge1_Node000001_Node000002" class="edge">
<title>Node2&#45;&gt;Node1</title>
<g id="a_edge1_Node000001_Node000002"><a xlink:title=" ">
<path fill="none" stroke="#63b8ff" d="M721.15,-20.5C730.1,-20.5 739.12,-20.5 747.98,-20.5"/>
<polygon fill="#63b8ff" stroke="#63b8ff" points="721.09,-17 711.09,-20.5 721.09,-24 721.09,-17"/>
</a>
</g>
</g>
<!-- Node3 -->
<g id="Node000003" class="node">
<title>Node3</title>
<g id="a_Node000003"><a xlink:href="structwmtk_1_1components_1_1configurator_1_1transfer_1_1_transfer_strategy_factory.html" target="_top" xlink:title=" ">
<polygon fill="white" stroke="#666666" points="495,-35.5 313,-35.5 313,-5.5 495,-5.5 495,-35.5"/>
<text text-anchor="start" x="321" y="-23.5" font-family="Helvetica,sans-Serif" font-size="10.00">wmtk::components::configurator</text>
<text text-anchor="middle" x="404" y="-12.5" font-family="Helvetica,sans-Serif" font-size="10.00">::transfer::TransferStrategyFactory</text>
</a>
</g>
</g>
<!-- Node3&#45;&gt;Node2 -->
<g id="edge2_Node000002_Node000003" class="edge">
<title>Node3&#45;&gt;Node2</title>
<g id="a_edge2_Node000002_Node000003"><a xlink:title=" ">
<path fill="none" stroke="#63b8ff" d="M505.42,-20.5C514.21,-20.5 523.07,-20.5 531.75,-20.5"/>
<polygon fill="#63b8ff" stroke="#63b8ff" points="505.14,-17 495.14,-20.5 505.14,-24 505.14,-17"/>
</a>
</g>
</g>
<!-- Node4 -->
<g id="Node000004" class="node">
<title>Node4</title>
<g id="a_Node000004"><a xlink:href="classwmtk_1_1components_1_1configurator_1_1transfer_1_1_transfer_strategy_factory_registry.html" target="_top" xlink:title=" ">
<polygon fill="white" stroke="#666666" points="182,-41 0,-41 0,0 182,0 182,-41"/>
<text text-anchor="start" x="8" y="-29" font-family="Helvetica,sans-Serif" font-size="10.00">wmtk::components::configurator</text>
<text text-anchor="start" x="8" y="-18" font-family="Helvetica,sans-Serif" font-size="10.00">::transfer::TransferStrategyFactory</text>
<text text-anchor="middle" x="91" y="-7" font-family="Helvetica,sans-Serif" font-size="10.00">Registry</text>
</a>
</g>
</g>
<!-- Node4&#45;&gt;Node3 -->
<g id="edge3_Node000003_Node000004" class="edge">
<title>Node4&#45;&gt;Node3</title>
<g id="a_edge3_Node000003_Node000004"><a xlink:title=" ">
<path fill="none" stroke="#9a32cd" stroke-dasharray="5,2" d="M192.62,-20.5C231.34,-20.5 275.27,-20.5 312.94,-20.5"/>
<polygon fill="#9a32cd" stroke="#9a32cd" points="192.37,-17 182.37,-20.5 192.37,-24 192.37,-17"/>
</a>
</g>
<text text-anchor="middle" x="247.5" y="-23.5" font-family="Helvetica,sans-Serif" font-size="10.00" fill="grey"> s_transfer_registry</text>
</g>
</g>
</svg>
