<?xml version="1.0" encoding="UTF-8" standalone="no"?>
<!DOCTYPE svg PUBLIC "-//W3C//DTD SVG 1.1//EN"
 "http://www.w3.org/Graphics/SVG/1.1/DTD/svg11.dtd">
<!-- Generated by graphviz version 2.43.0 (0)
 -->
<!-- Title: wmtk::components::mesh_info::transfer::TransferStrategyFactory Pages: 1 -->
<svg width="606pt" height="49pt"
 viewBox="0.00 0.00 606.00 49.00" xmlns="http://www.w3.org/2000/svg" xmlns:xlink="http://www.w3.org/1999/xlink">
<g id="graph0" class="graph" transform="scale(1 1) rotate(0) translate(4 45)">
<title>wmtk::components::mesh_info::transfer::TransferStrategyFactory</title>
<!-- Node1 -->
<g id="Node000001" class="node">
<title>Node1</title>
<g id="a_Node000001"><a xlink:title=" ">
<polygon fill="#999999" stroke="#666666" points="171,-41 0,-41 0,0 171,0 171,-41"/>
<text text-anchor="start" x="8" y="-29" font-family="Helvetica,sans-Serif" font-size="10.00">wmtk::components::mesh</text>
<text text-anchor="start" x="8" y="-18" font-family="Helvetica,sans-Serif" font-size="10.00">_info::transfer::TransferStrategy</text>
<text text-anchor="middle" x="85.5" y="-7" font-family="Helvetica,sans-Serif" font-size="10.00">Factory</text>
</a>
</g>
</g>
<!-- Node2 -->
<g id="Node000002" class="node">
<title>Node2</title>
<g id="a_Node000002"><a xlink:href="structwmtk_1_1components_1_1mesh__info_1_1transfer_1_1_single_attribute_transfer_strategy_factory_base.html" target="_top" xlink:title=" ">
<polygon fill="white" stroke="#666666" points="371,-41 207,-41 207,0 371,0 371,-41"/>
<text text-anchor="start" x="215" y="-29" font-family="Helvetica,sans-Serif" font-size="10.00">wmtk::components::mesh</text>
<text text-anchor="start" x="215" y="-18" font-family="Helvetica,sans-Serif" font-size="10.00">_info::transfer::SingleAttribute</text>
<text text-anchor="middle" x="289" y="-7" font-family="Helvetica,sans-Serif" font-size="10.00">TransferStrategyFactoryBase</text>
</a>
</g>
</g>
<!-- Node1&#45;&gt;Node2 -->
<g id="edge1_Node000001_Node000002" class="edge">
<title>Node1&#45;&gt;Node2</title>
<g id="a_edge1_Node000001_Node000002"><a xlink:title=" ">
<path fill="none" stroke="#63b8ff" d="M181.13,-20.5C189.73,-20.5 198.39,-20.5 206.86,-20.5"/>
<polygon fill="#63b8ff" stroke="#63b8ff" points="181.08,-17 171.08,-20.5 181.08,-24 181.08,-17"/>
</a>
</g>
</g>
<!-- Node3 -->
<g id="Node000003" class="node">
<title>Node3</title>
<g id="a_Node000003"><a xlink:href="structwmtk_1_1components_1_1mesh__info_1_1transfer_1_1_single_attribute_transfer_strategy_factory.html" target="_top" xlink:title=" ">
<polygon fill="white" stroke="#666666" points="598,-41 407,-41 407,0 598,0 598,-41"/>
<text text-anchor="start" x="415" y="-29" font-family="Helvetica,sans-Serif" font-size="10.00">wmtk::components::mesh</text>
<text text-anchor="start" x="415" y="-18" font-family="Helvetica,sans-Serif" font-size="10.00">_info::transfer::SingleAttribute</text>
<text text-anchor="middle" x="502.5" y="-7" font-family="Helvetica,sans-Serif" font-size="10.00">TransferStrategyFactory&lt; Functor &gt;</text>
</a>
</g>
</g>
<!-- Node2&#45;&gt;Node3 -->
<g id="edge2_Node000002_Node000003" class="edge">
<title>Node2&#45;&gt;Node3</title>
<g id="a_edge2_Node000002_Node000003"><a xlink:title=" ">
<path fill="none" stroke="#63b8ff" d="M381.36,-20.5C389.78,-20.5 398.32,-20.5 406.77,-20.5"/>
<polygon fill="#63b8ff" stroke="#63b8ff" points="381.17,-17 371.17,-20.5 381.17,-24 381.17,-17"/>
</a>
</g>
</g>
</g>
</svg>
