<?xml version="1.0" encoding="UTF-8" standalone="no"?>
<!DOCTYPE svg PUBLIC "-//W3C//DTD SVG 1.1//EN"
 "http://www.w3.org/Graphics/SVG/1.1/DTD/svg11.dtd">
<!-- Generated by graphviz version 2.43.0 (0)
 -->
<!-- Title: src/wmtk/simplex/utils/tuple_vector_to_homogeneous_simplex_vector.hpp Pages: 1 -->
<svg width="574pt" height="269pt"
 viewBox="0.00 0.00 574.00 269.00" xmlns="http://www.w3.org/2000/svg" xmlns:xlink="http://www.w3.org/1999/xlink">
<g id="graph0" class="graph" transform="scale(1 1) rotate(0) translate(4 265)">
<title>src/wmtk/simplex/utils/tuple_vector_to_homogeneous_simplex_vector.hpp</title>
<!-- Node1 -->
<g id="Node000001" class="node">
<title>Node1</title>
<g id="a_Node000001"><a xlink:title=" ">
<polygon fill="#999999" stroke="#666666" points="241.5,-261 71.5,-261 71.5,-220 241.5,-220 241.5,-261"/>
<text text-anchor="start" x="79.5" y="-249" font-family="Helvetica,sans-Serif" font-size="10.00">src/wmtk/simplex/utils</text>
<text text-anchor="start" x="79.5" y="-238" font-family="Helvetica,sans-Serif" font-size="10.00">/tuple_vector_to_homogeneous</text>
<text text-anchor="middle" x="156.5" y="-227" font-family="Helvetica,sans-Serif" font-size="10.00">_simplex_vector.hpp</text>
</a>
</g>
</g>
<!-- Node2 -->
<g id="Node000002" class="node">
<title>Node2</title>
<g id="a_Node000002"><a xlink:title=" ">
<polygon fill="#e0e0e0" stroke="#999999" points="47,-19 0,-19 0,0 47,0 47,-19"/>
<text text-anchor="middle" x="23.5" y="-7" font-family="Helvetica,sans-Serif" font-size="10.00">vector</text>
</a>
</g>
</g>
<!-- Node1&#45;&gt;Node2 -->
<g id="edge1_Node000001_Node000002" class="edge">
<title>Node1&#45;&gt;Node2</title>
<g id="a_edge1_Node000001_Node000002"><a xlink:title=" ">
<path fill="none" stroke="#63b8ff" d="M114.6,-219.82C99.41,-210.82 83.33,-198.82 72.5,-184 37.48,-136.08 27.45,-63.94 24.61,-29.77"/>
<polygon fill="#63b8ff" stroke="#63b8ff" points="28.07,-29.09 23.88,-19.37 21.09,-29.59 28.07,-29.09"/>
</a>
</g>
</g>
<!-- Node3 -->
<g id="Node000003" class="node">
<title>Node3</title>
<g id="a_Node000003"><a xlink:href="_tuple_8hpp.html" target="_top" xlink:title=" ">
<polygon fill="white" stroke="#666666" points="306.5,-129 212.5,-129 212.5,-110 306.5,-110 306.5,-129"/>
<text text-anchor="middle" x="259.5" y="-117" font-family="Helvetica,sans-Serif" font-size="10.00">wmtk/Tuple.hpp</text>
</a>
</g>
</g>
<!-- Node1&#45;&gt;Node3 -->
<g id="edge2_Node000001_Node000003" class="edge">
<title>Node1&#45;&gt;Node3</title>
<g id="a_edge2_Node000001_Node000003"><a xlink:title=" ">
<path fill="none" stroke="#63b8ff" d="M197.84,-219.99C213.15,-210.95 229.45,-198.87 240.5,-184 250.26,-170.86 255.04,-152.73 257.36,-139.2"/>
<polygon fill="#63b8ff" stroke="#63b8ff" points="260.85,-139.53 258.79,-129.14 253.92,-138.55 260.85,-139.53"/>
</a>
</g>
</g>
<!-- Node14 -->
<g id="Node000014" class="node">
<title>Node14</title>
<g id="a_Node000014"><a xlink:href="_simplex_8hpp.html" target="_top" xlink:title=" ">
<polygon fill="white" stroke="#666666" points="231.5,-184 81.5,-184 81.5,-165 231.5,-165 231.5,-184"/>
<text text-anchor="middle" x="156.5" y="-172" font-family="Helvetica,sans-Serif" font-size="10.00">wmtk/simplex/Simplex.hpp</text>
</a>
</g>
</g>
<!-- Node1&#45;&gt;Node14 -->
<g id="edge15_Node000001_Node000014" class="edge">
<title>Node1&#45;&gt;Node14</title>
<g id="a_edge15_Node000001_Node000014"><a xlink:title=" ">
<path fill="none" stroke="#63b8ff" d="M156.5,-219.95C156.5,-211.85 156.5,-202.5 156.5,-194.47"/>
<polygon fill="#63b8ff" stroke="#63b8ff" points="160,-194.26 156.5,-184.26 153,-194.26 160,-194.26"/>
</a>
</g>
</g>
<!-- Node4 -->
<g id="Node000004" class="node">
<title>Node4</title>
<g id="a_Node000004"><a xlink:title=" ">
<polygon fill="#e0e0e0" stroke="#999999" points="280.5,-74 238.5,-74 238.5,-55 280.5,-55 280.5,-74"/>
<text text-anchor="middle" x="259.5" y="-62" font-family="Helvetica,sans-Serif" font-size="10.00">array</text>
</a>
</g>
</g>
<!-- Node3&#45;&gt;Node4 -->
<g id="edge3_Node000003_Node000004" class="edge">
<title>Node3&#45;&gt;Node4</title>
<g id="a_edge3_Node000003_Node000004"><a xlink:title=" ">
<path fill="none" stroke="#63b8ff" d="M259.5,-109.75C259.5,-102.8 259.5,-92.85 259.5,-84.13"/>
<polygon fill="#63b8ff" stroke="#63b8ff" points="263,-84.09 259.5,-74.09 256,-84.09 263,-84.09"/>
</a>
</g>
</g>
<!-- Node5 -->
<g id="Node000005" class="node">
<title>Node5</title>
<g id="a_Node000005"><a xlink:href="_primitive_type_8hpp.html" target="_top" xlink:title=" ">
<polygon fill="white" stroke="#666666" points="208.5,-74 104.5,-74 104.5,-55 208.5,-55 208.5,-74"/>
<text text-anchor="middle" x="156.5" y="-62" font-family="Helvetica,sans-Serif" font-size="10.00">PrimitiveType.hpp</text>
</a>
</g>
</g>
<!-- Node3&#45;&gt;Node5 -->
<g id="edge4_Node000003_Node000005" class="edge">
<title>Node3&#45;&gt;Node5</title>
<g id="a_edge4_Node000003_Node000005"><a xlink:title=" ">
<path fill="none" stroke="#63b8ff" d="M242.95,-109.98C226.61,-101.57 201.37,-88.59 182.37,-78.81"/>
<polygon fill="#63b8ff" stroke="#63b8ff" points="183.84,-75.63 173.35,-74.17 180.64,-81.86 183.84,-75.63"/>
</a>
</g>
</g>
<!-- Node8 -->
<g id="Node000008" class="node">
<title>Node8</title>
<g id="a_Node000008"><a xlink:href="_tuple_8hxx.html" target="_top" xlink:title=" ">
<polygon fill="white" stroke="#666666" points="372,-74 309,-74 309,-55 372,-55 372,-74"/>
<text text-anchor="middle" x="340.5" y="-62" font-family="Helvetica,sans-Serif" font-size="10.00">Tuple.hxx</text>
</a>
</g>
</g>
<!-- Node3&#45;&gt;Node8 -->
<g id="edge8_Node000003_Node000008" class="edge">
<title>Node3&#45;&gt;Node8</title>
<g id="a_edge8_Node000003_Node000008"><a xlink:title=" ">
<path fill="none" stroke="#63b8ff" d="M267.4,-109.98C278.15,-101.77 297.08,-89.18 313.09,-79.49"/>
<polygon fill="#63b8ff" stroke="#63b8ff" points="315.27,-82.27 322.1,-74.17 311.71,-76.24 315.27,-82.27"/>
</a>
</g>
</g>
<!-- Node5&#45;&gt;Node2 -->
<g id="edge7_Node000005_Node000002" class="edge">
<title>Node5&#45;&gt;Node2</title>
<g id="a_edge7_Node000005_Node000002"><a xlink:title=" ">
<path fill="none" stroke="#63b8ff" d="M135.13,-54.98C113.35,-46.3 79.34,-32.75 54.58,-22.88"/>
<polygon fill="#63b8ff" stroke="#63b8ff" points="55.84,-19.62 45.26,-19.17 53.25,-26.12 55.84,-19.62"/>
</a>
</g>
</g>
<!-- Node6 -->
<g id="Node000006" class="node">
<title>Node6</title>
<g id="a_Node000006"><a xlink:title=" ">
<polygon fill="#e0e0e0" stroke="#999999" points="130,-19 65,-19 65,0 130,0 130,-19"/>
<text text-anchor="middle" x="97.5" y="-7" font-family="Helvetica,sans-Serif" font-size="10.00">stdexcept</text>
</a>
</g>
</g>
<!-- Node5&#45;&gt;Node6 -->
<g id="edge5_Node000005_Node000006" class="edge">
<title>Node5&#45;&gt;Node6</title>
<g id="a_edge5_Node000005_Node000006"><a xlink:title=" ">
<path fill="none" stroke="#63b8ff" d="M147.02,-54.98C138.3,-47.15 125.16,-35.34 114.6,-25.86"/>
<polygon fill="#63b8ff" stroke="#63b8ff" points="116.93,-23.25 107.15,-19.17 112.25,-28.46 116.93,-23.25"/>
</a>
</g>
</g>
<!-- Node7 -->
<g id="Node000007" class="node">
<title>Node7</title>
<g id="a_Node000007"><a xlink:title=" ">
<polygon fill="#e0e0e0" stroke="#999999" points="221,-19 148,-19 148,0 221,0 221,-19"/>
<text text-anchor="middle" x="184.5" y="-7" font-family="Helvetica,sans-Serif" font-size="10.00">string_view</text>
</a>
</g>
</g>
<!-- Node5&#45;&gt;Node7 -->
<g id="edge6_Node000005_Node000007" class="edge">
<title>Node5&#45;&gt;Node7</title>
<g id="a_edge6_Node000005_Node000007"><a xlink:title=" ">
<path fill="none" stroke="#63b8ff" d="M161.12,-54.75C164.96,-47.49 170.52,-36.95 175.26,-27.98"/>
<polygon fill="#63b8ff" stroke="#63b8ff" points="178.39,-29.57 179.96,-19.09 172.2,-26.3 178.39,-29.57"/>
</a>
</g>
</g>
<!-- Node8&#45;&gt;Node3 -->
<g id="edge14_Node000008_Node000003" class="edge">
<title>Node8&#45;&gt;Node3</title>
<g id="a_edge14_Node000008_Node000003"><a xlink:title=" ">
<path fill="none" stroke="#63b8ff" d="M332.4,-74.17C321.55,-82.44 302.58,-95.04 286.61,-104.7"/>
<polygon fill="#63b8ff" stroke="#63b8ff" points="284.47,-101.89 277.63,-109.98 288.02,-107.92 284.47,-101.89"/>
</a>
</g>
</g>
<!-- Node9 -->
<g id="Node000009" class="node">
<title>Node9</title>
<g id="a_Node000009"><a xlink:title=" ">
<polygon fill="#e0e0e0" stroke="#999999" points="292,-19 239,-19 239,0 292,0 292,-19"/>
<text text-anchor="middle" x="265.5" y="-7" font-family="Helvetica,sans-Serif" font-size="10.00">cstddef</text>
</a>
</g>
</g>
<!-- Node8&#45;&gt;Node9 -->
<g id="edge9_Node000008_Node000009" class="edge">
<title>Node8&#45;&gt;Node9</title>
<g id="a_edge9_Node000008_Node000009"><a xlink:title=" ">
<path fill="none" stroke="#63b8ff" d="M328.45,-54.98C317.04,-46.92 299.67,-34.65 286.07,-25.03"/>
<polygon fill="#63b8ff" stroke="#63b8ff" points="287.96,-22.08 277.77,-19.17 283.92,-27.8 287.96,-22.08"/>
</a>
</g>
</g>
<!-- Node10 -->
<g id="Node000010" class="node">
<title>Node10</title>
<g id="a_Node000010"><a xlink:title=" ">
<polygon fill="#e0e0e0" stroke="#999999" points="370.5,-19 310.5,-19 310.5,0 370.5,0 370.5,-19"/>
<text text-anchor="middle" x="340.5" y="-7" font-family="Helvetica,sans-Serif" font-size="10.00">iostream</text>
</a>
</g>
</g>
<!-- Node8&#45;&gt;Node10 -->
<g id="edge10_Node000008_Node000010" class="edge">
<title>Node8&#45;&gt;Node10</title>
<g id="a_edge10_Node000008_Node000010"><a xlink:title=" ">
<path fill="none" stroke="#63b8ff" d="M340.5,-54.75C340.5,-47.8 340.5,-37.85 340.5,-29.13"/>
<polygon fill="#63b8ff" stroke="#63b8ff" points="344,-29.09 340.5,-19.09 337,-29.09 344,-29.09"/>
</a>
</g>
</g>
<!-- Node11 -->
<g id="Node000011" class="node">
<title>Node11</title>
<g id="a_Node000011"><a xlink:title=" ">
<polygon fill="#e0e0e0" stroke="#999999" points="444.5,-19 388.5,-19 388.5,0 444.5,0 444.5,-19"/>
<text text-anchor="middle" x="416.5" y="-7" font-family="Helvetica,sans-Serif" font-size="10.00">optional</text>
</a>
</g>
</g>
<!-- Node8&#45;&gt;Node11 -->
<g id="edge11_Node000008_Node000011" class="edge">
<title>Node8&#45;&gt;Node11</title>
<g id="a_edge11_Node000008_Node000011"><a xlink:title=" ">
<path fill="none" stroke="#63b8ff" d="M352.71,-54.98C364.28,-46.92 381.88,-34.65 395.66,-25.03"/>
<polygon fill="#63b8ff" stroke="#63b8ff" points="397.87,-27.76 404.07,-19.17 393.86,-22.02 397.87,-27.76"/>
</a>
</g>
</g>
<!-- Node12 -->
<g id="Node000012" class="node">
<title>Node12</title>
<g id="a_Node000012"><a xlink:title=" ">
<polygon fill="#e0e0e0" stroke="#999999" points="506.5,-19 462.5,-19 462.5,0 506.5,0 506.5,-19"/>
<text text-anchor="middle" x="484.5" y="-7" font-family="Helvetica,sans-Serif" font-size="10.00">string</text>
</a>
</g>
</g>
<!-- Node8&#45;&gt;Node12 -->
<g id="edge12_Node000008_Node000012" class="edge">
<title>Node8&#45;&gt;Node12</title>
<g id="a_edge12_Node000008_Node000012"><a xlink:title=" ">
<path fill="none" stroke="#63b8ff" d="M363.64,-54.98C387.75,-46.11 425.7,-32.14 452.63,-22.23"/>
<polygon fill="#63b8ff" stroke="#63b8ff" points="454.19,-25.38 462.37,-18.65 451.77,-18.82 454.19,-25.38"/>
</a>
</g>
</g>
<!-- Node13 -->
<g id="Node000013" class="node">
<title>Node13</title>
<g id="a_Node000013"><a xlink:title=" ">
<polygon fill="#e0e0e0" stroke="#999999" points="566,-19 525,-19 525,0 566,0 566,-19"/>
<text text-anchor="middle" x="545.5" y="-7" font-family="Helvetica,sans-Serif" font-size="10.00">tuple</text>
</a>
</g>
</g>
<!-- Node8&#45;&gt;Node13 -->
<g id="edge13_Node000008_Node000013" class="edge">
<title>Node8&#45;&gt;Node13</title>
<g id="a_edge13_Node000008_Node000013"><a xlink:title=" ">
<path fill="none" stroke="#63b8ff" d="M372.18,-55.72C405.37,-47.51 459.24,-34 515.15,-19.04"/>
<polygon fill="#63b8ff" stroke="#63b8ff" points="516.11,-22.4 524.86,-16.43 514.3,-15.64 516.11,-22.4"/>
</a>
</g>
</g>
<!-- Node14&#45;&gt;Node3 -->
<g id="edge17_Node000014_Node000003" class="edge">
<title>Node14&#45;&gt;Node3</title>
<g id="a_edge17_Node000014_Node000003"><a xlink:title=" ">
<path fill="none" stroke="#63b8ff" d="M173.05,-164.98C189.39,-156.57 214.63,-143.59 233.63,-133.81"/>
<polygon fill="#63b8ff" stroke="#63b8ff" points="235.36,-136.86 242.65,-129.17 232.16,-130.63 235.36,-136.86"/>
</a>
</g>
</g>
<!-- Node14&#45;&gt;Node5 -->
<g id="edge16_Node000014_Node000005" class="edge">
<title>Node14&#45;&gt;Node5</title>
<g id="a_edge16_Node000014_Node000005"><a xlink:title=" ">
<path fill="none" stroke="#63b8ff" d="M156.5,-164.66C156.5,-147.17 156.5,-107.8 156.5,-84.27"/>
<polygon fill="#63b8ff" stroke="#63b8ff" points="160,-84.16 156.5,-74.16 153,-84.16 160,-84.16"/>
</a>
</g>
</g>
</g>
</svg>
