<?xml version="1.0" encoding="UTF-8" standalone="no"?>
<!DOCTYPE svg PUBLIC "-//W3C//DTD SVG 1.1//EN"
 "http://www.w3.org/Graphics/SVG/1.1/DTD/svg11.dtd">
<!-- Generated by graphviz version 2.43.0 (0)
 -->
<!-- Title: src/wmtk/multimesh/utils/tuple_map_attribute_io.hpp Pages: 1 -->
<!--zoomable 203 -->

<svg id="main" version="1.1" xmlns="http://www.w3.org/2000/svg" xmlns:xlink="http://www.w3.org/1999/xlink" xml:space="preserve" onload="init(evt)">
<style type="text/css"><![CDATA[
.node, .edge {opacity: 0.7;}
.node.selected, .edge.selected {opacity: 1;}
.edge:hover path { stroke: red; }
.edge:hover polygon { stroke: red; fill: red; }
]]></style>

<defs>
  <circle id="rim" cx="0" cy="0" r="7"/>
  <circle id="rim2" cx="0" cy="0" r="3.5"/>
  <g id="zoomPlus">
    <use xlink:href="#rim" fill="#404040"><set attributeName="fill" to="#808080" begin="zoomplus.mouseover" end="zoomplus.mouseout"/></use>
    <path d="M-4,0h8M0,-4v8" fill="none" stroke="white" stroke-width="1.5" pointer-events="none"/>
  </g>
  <g id="zoomMin">
    <use xlink:href="#rim" fill="#404040"><set attributeName="fill" to="#808080" begin="zoomminus.mouseover" end="zoomminus.mouseout"/></use>
    <path d="M-4,0h8" fill="none" stroke="white" stroke-width="1.5" pointer-events="none"/>
  </g>
  <g id="arrowUp" transform="translate(30 24)">
    <use xlink:href="#rim"/>
    <path pointer-events="none" fill="none" stroke="white" stroke-width="1.5" d="M0,-3.0v7 M-2.5,-0.5L0,-3.0L2.5,-0.5"/>
  </g>
  <g id="arrowRight" transform="rotate(90) translate(36 -43)">
    <use xlink:href="#rim"/>
    <path pointer-events="none" fill="none" stroke="white" stroke-width="1.5" d="M0,-3.0v7 M-2.5,-0.5L0,-3.0L2.5,-0.5"/>
  </g>
  <g id="arrowDown" transform="rotate(180) translate(-30 -48)">
    <use xlink:href="#rim"/>
    <path pointer-events="none" fill="none" stroke="white" stroke-width="1.5" d="M0,-3.0v7 M-2.5,-0.5L0,-3.0L2.5,-0.5"/>
  </g>
  <g id="arrowLeft" transform="rotate(270) translate(-36 17)">
    <use xlink:href="#rim"/>
    <path pointer-events="none" fill="none" stroke="white" stroke-width="1.5" d="M0,-3.0v7 M-2.5,-0.5L0,-3.0L2.5,-0.5"/>
  </g>
  <g id="resetDef">
    <use xlink:href="#rim2" fill="#404040"><set attributeName="fill" to="#808080" begin="reset.mouseover" end="reset.mouseout"/></use>
  </g>
</defs>
<script type="application/ecmascript">
var viewWidth = 1512;
var viewHeight = 203;
var sectionId = 'dynsection-1';
</script>
<script type="application/ecmascript" xlink:href="svg.min.js"/>
<svg id="graph" class="graph">
<g id="viewport">
<title>src/wmtk/multimesh/utils/tuple_map_attribute_io.hpp</title>
<!-- Node1 -->
<g id="Node000001" class="node">
<title>Node1</title>
<g id="a_Node000001"><a xlink:title=" ">
<polygon fill="#999999" stroke="#666666" points="893,-195 750,-195 750,-154 893,-154 893,-195"/>
<text text-anchor="start" x="758" y="-183" font-family="Helvetica,sans-Serif" font-size="10.00">src/wmtk/multimesh</text>
<text text-anchor="start" x="758" y="-172" font-family="Helvetica,sans-Serif" font-size="10.00">/utils/tuple_map_attribute</text>
<text text-anchor="middle" x="821.5" y="-161" font-family="Helvetica,sans-Serif" font-size="10.00">_io.hpp</text>
</a>
</g>
</g>
<!-- Node2 -->
<g id="Node000002" class="node">
<title>Node2</title>
<g id="a_Node000002"><a xlink:href="test__component__isotropic__remeshing_8cpp.html" target="_top" xlink:title=" ">
<polygon fill="white" stroke="#666666" points="125,-118 0,-118 0,-77 125,-77 125,-118"/>
<text text-anchor="start" x="8" y="-106" font-family="Helvetica,sans-Serif" font-size="10.00">components/tests/test</text>
<text text-anchor="start" x="8" y="-95" font-family="Helvetica,sans-Serif" font-size="10.00">_component_isotropic</text>
<text text-anchor="middle" x="62.5" y="-84" font-family="Helvetica,sans-Serif" font-size="10.00">_remeshing.cpp</text>
</a>
</g>
</g>
<!-- Node1&#45;&gt;Node2 -->
<g id="edge1_Node000001_Node000002" class="edge">
<title>Node1&#45;&gt;Node2</title>
<g id="a_edge1_Node000001_Node000002"><a xlink:title=" ">
<path fill="none" stroke="#63b8ff" d="M739.52,-171.74C610.09,-167.87 350.85,-155.71 134.5,-118 131.44,-117.47 128.32,-116.86 125.18,-116.2"/>
<polygon fill="#63b8ff" stroke="#63b8ff" points="739.65,-175.25 749.75,-172.04 739.85,-168.25 739.65,-175.25"/>
</a>
</g>
</g>
<!-- Node3 -->
<g id="Node000003" class="node">
<title>Node3</title>
<g id="a_Node000003"><a xlink:href="_mesh__attributes_8cpp.html" target="_top" xlink:title=" ">
<polygon fill="white" stroke="#666666" points="307.5,-107 143.5,-107 143.5,-88 307.5,-88 307.5,-107"/>
<text text-anchor="middle" x="225.5" y="-95" font-family="Helvetica,sans-Serif" font-size="10.00">src/wmtk/Mesh_attributes.cpp</text>
</a>
</g>
</g>
<!-- Node1&#45;&gt;Node3 -->
<g id="edge2_Node000001_Node000003" class="edge">
<title>Node1&#45;&gt;Node3</title>
<g id="a_edge2_Node000001_Node000003"><a xlink:title=" ">
<path fill="none" stroke="#63b8ff" d="M739.63,-167.08C639.46,-158.63 464.87,-141.99 316.5,-118 298.16,-115.03 277.93,-110.8 261.21,-107.03"/>
<polygon fill="#63b8ff" stroke="#63b8ff" points="739.43,-170.57 749.69,-167.92 740.01,-163.6 739.43,-170.57"/>
</a>
</g>
</g>
<!-- Node4 -->
<g id="Node000004" class="node">
<title>Node4</title>
<g id="a_Node000004"><a xlink:href="_h_d_f5_reader_8cpp.html" target="_top" xlink:title=" ">
<polygon fill="white" stroke="#666666" points="483.5,-107 325.5,-107 325.5,-88 483.5,-88 483.5,-107"/>
<text text-anchor="middle" x="404.5" y="-95" font-family="Helvetica,sans-Serif" font-size="10.00">src/wmtk/io/HDF5Reader.cpp</text>
</a>
</g>
</g>
<!-- Node1&#45;&gt;Node4 -->
<g id="edge3_Node000001_Node000004" class="edge">
<title>Node1&#45;&gt;Node4</title>
<g id="a_edge3_Node000001_Node000004"><a xlink:title=" ">
<path fill="none" stroke="#63b8ff" d="M739.72,-160.89C673.03,-150.32 576.46,-134.37 492.5,-118 475.61,-114.71 456.98,-110.64 441.23,-107.08"/>
<polygon fill="#63b8ff" stroke="#63b8ff" points="739.33,-164.37 749.75,-162.48 740.42,-157.46 739.33,-164.37"/>
</a>
</g>
</g>
<!-- Node5 -->
<g id="Node000005" class="node">
<title>Node5</title>
<g id="a_Node000005"><a xlink:href="_multi_mesh_manager_8cpp.html" target="_top" xlink:title=" ">
<polygon fill="white" stroke="#666666" points="635,-112.5 502,-112.5 502,-82.5 635,-82.5 635,-112.5"/>
<text text-anchor="start" x="510" y="-100.5" font-family="Helvetica,sans-Serif" font-size="10.00">src/wmtk/multimesh</text>
<text text-anchor="middle" x="568.5" y="-89.5" font-family="Helvetica,sans-Serif" font-size="10.00">/MultiMeshManager.cpp</text>
</a>
</g>
</g>
<!-- Node1&#45;&gt;Node5 -->
<g id="edge4_Node000001_Node000005" class="edge">
<title>Node1&#45;&gt;Node5</title>
<g id="a_edge4_Node000001_Node000005"><a xlink:title=" ">
<path fill="none" stroke="#63b8ff" d="M746.01,-151.12C703.84,-138.62 652.58,-123.42 616,-112.58"/>
<polygon fill="#63b8ff" stroke="#63b8ff" points="745.11,-154.5 755.69,-153.99 747.09,-147.79 745.11,-154.5"/>
</a>
</g>
</g>
<!-- Node6 -->
<g id="Node000006" class="node">
<title>Node6</title>
<g id="a_Node000006"><a xlink:href="_multi_mesh_manager__map__updates_8cpp.html" target="_top" xlink:title=" ">
<polygon fill="white" stroke="#666666" points="793.5,-118 653.5,-118 653.5,-77 793.5,-77 793.5,-118"/>
<text text-anchor="start" x="661.5" y="-106" font-family="Helvetica,sans-Serif" font-size="10.00">src/wmtk/multimesh</text>
<text text-anchor="start" x="661.5" y="-95" font-family="Helvetica,sans-Serif" font-size="10.00">/MultiMeshManager_map</text>
<text text-anchor="middle" x="723.5" y="-84" font-family="Helvetica,sans-Serif" font-size="10.00">_updates.cpp</text>
</a>
</g>
</g>
<!-- Node1&#45;&gt;Node6 -->
<g id="edge5_Node000001_Node000006" class="edge">
<title>Node1&#45;&gt;Node6</title>
<g id="a_edge5_Node000001_Node000006"><a xlink:title=" ">
<path fill="none" stroke="#63b8ff" d="M787.94,-147.82C775.26,-138.11 761.05,-127.24 749.21,-118.17"/>
<polygon fill="#63b8ff" stroke="#63b8ff" points="785.94,-150.69 796.01,-153.99 790.19,-145.13 785.94,-150.69"/>
</a>
</g>
</g>
<!-- Node7 -->
<g id="Node000007" class="node">
<title>Node7</title>
<g id="a_Node000007"><a xlink:href="_map_validator_8cpp.html" target="_top" xlink:title=" ">
<polygon fill="white" stroke="#666666" points="995.5,-35.5 867.5,-35.5 867.5,-5.5 995.5,-5.5 995.5,-35.5"/>
<text text-anchor="start" x="875.5" y="-23.5" font-family="Helvetica,sans-Serif" font-size="10.00">src/wmtk/multimesh</text>
<text text-anchor="middle" x="931.5" y="-12.5" font-family="Helvetica,sans-Serif" font-size="10.00">/utils/MapValidator.cpp</text>
</a>
</g>
</g>
<!-- Node1&#45;&gt;Node7 -->
<g id="edge6_Node000001_Node000007" class="edge">
<title>Node1&#45;&gt;Node7</title>
<g id="a_edge6_Node000001_Node000007"><a xlink:title=" ">
<path fill="none" stroke="#63b8ff" d="M820.87,-143.94C821.82,-123.5 825.94,-96.56 839.5,-77 852.57,-58.14 874.32,-44.6 893.39,-35.61"/>
<polygon fill="#63b8ff" stroke="#63b8ff" points="817.37,-143.89 820.63,-153.97 824.37,-144.05 817.37,-143.89"/>
</a>
</g>
</g>
<!-- Node8 -->
<g id="Node000008" class="node">
<title>Node8</title>
<g id="a_Node000008"><a xlink:href="check__map__valid_8cpp.html" target="_top" xlink:title=" ">
<polygon fill="white" stroke="#666666" points="998,-112.5 849,-112.5 849,-82.5 998,-82.5 998,-112.5"/>
<text text-anchor="start" x="857" y="-100.5" font-family="Helvetica,sans-Serif" font-size="10.00">src/wmtk/multimesh</text>
<text text-anchor="middle" x="923.5" y="-89.5" font-family="Helvetica,sans-Serif" font-size="10.00">/utils/check_map_valid.cpp</text>
</a>
</g>
</g>
<!-- Node1&#45;&gt;Node8 -->
<g id="edge7_Node000001_Node000008" class="edge">
<title>Node1&#45;&gt;Node8</title>
<g id="a_edge7_Node000001_Node000008"><a xlink:title=" ">
<path fill="none" stroke="#63b8ff" d="M856.16,-148.01C872.21,-136.22 890.66,-122.65 904.19,-112.7"/>
<polygon fill="#63b8ff" stroke="#63b8ff" points="854.02,-145.25 848.03,-153.99 858.16,-150.89 854.02,-145.25"/>
</a>
</g>
</g>
<!-- Node9 -->
<g id="Node000009" class="node">
<title>Node9</title>
<g id="a_Node000009"><a xlink:href="print__all__mapped__tuples_8cpp.html" target="_top" xlink:title=" ">
<polygon fill="white" stroke="#666666" points="1150.5,-118 1016.5,-118 1016.5,-77 1150.5,-77 1150.5,-118"/>
<text text-anchor="start" x="1024.5" y="-106" font-family="Helvetica,sans-Serif" font-size="10.00">src/wmtk/multimesh</text>
<text text-anchor="start" x="1024.5" y="-95" font-family="Helvetica,sans-Serif" font-size="10.00">/utils/internal/print</text>
<text text-anchor="middle" x="1083.5" y="-84" font-family="Helvetica,sans-Serif" font-size="10.00">_all_mapped_tuples.cpp</text>
</a>
</g>
</g>
<!-- Node1&#45;&gt;Node9 -->
<g id="edge8_Node000001_Node000009" class="edge">
<title>Node1&#45;&gt;Node9</title>
<g id="a_edge8_Node000001_Node000009"><a xlink:title=" ">
<path fill="none" stroke="#63b8ff" d="M899.43,-151.19C936.54,-140.57 980.49,-127.99 1016.14,-117.78"/>
<polygon fill="#63b8ff" stroke="#63b8ff" points="898.3,-147.87 889.65,-153.99 900.23,-154.6 898.3,-147.87"/>
</a>
</g>
</g>
<!-- Node10 -->
<g id="Node000010" class="node">
<title>Node10</title>
<g id="a_Node000010"><a xlink:href="print__all__mapped__tuples_8hpp.html" target="_top" xlink:title=" ">
<polygon fill="white" stroke="#666666" points="1304,-118 1169,-118 1169,-77 1304,-77 1304,-118"/>
<text text-anchor="start" x="1177" y="-106" font-family="Helvetica,sans-Serif" font-size="10.00">src/wmtk/multimesh</text>
<text text-anchor="start" x="1177" y="-95" font-family="Helvetica,sans-Serif" font-size="10.00">/utils/internal/print</text>
<text text-anchor="middle" x="1236.5" y="-84" font-family="Helvetica,sans-Serif" font-size="10.00">_all_mapped_tuples.hpp</text>
</a>
</g>
</g>
<!-- Node1&#45;&gt;Node10 -->
<g id="edge9_Node000001_Node000010" class="edge">
<title>Node1&#45;&gt;Node10</title>
<g id="a_edge9_Node000001_Node000010"><a xlink:title=" ">
<path fill="none" stroke="#63b8ff" d="M902.94,-162.12C971.63,-152.04 1072.38,-136.15 1159.5,-118 1162.61,-117.35 1165.77,-116.67 1168.97,-115.95"/>
<polygon fill="#63b8ff" stroke="#63b8ff" points="902.43,-158.66 893.04,-163.56 903.44,-165.58 902.43,-158.66"/>
</a>
</g>
</g>
<!-- Node12 -->
<g id="Node000012" class="node">
<title>Node12</title>
<g id="a_Node000012"><a xlink:href="_update_edge_operation_multi_mesh_map_functor_8cpp.html" target="_top" xlink:title=" ">
<polygon fill="white" stroke="#666666" points="1408,-41 1257,-41 1257,0 1408,0 1408,-41"/>
<text text-anchor="start" x="1265" y="-29" font-family="Helvetica,sans-Serif" font-size="10.00">src/wmtk/operations</text>
<text text-anchor="start" x="1265" y="-18" font-family="Helvetica,sans-Serif" font-size="10.00">/utils/UpdateEdgeOperation</text>
<text text-anchor="middle" x="1332.5" y="-7" font-family="Helvetica,sans-Serif" font-size="10.00">MultiMeshMapFunctor.cpp</text>
</a>
</g>
</g>
<!-- Node1&#45;&gt;Node12 -->
<g id="edge14_Node000001_Node000012" class="edge">
<title>Node1&#45;&gt;Node12</title>
<g id="a_edge14_Node000001_Node000012"><a xlink:title=" ">
<path fill="none" stroke="#63b8ff" d="M903.07,-169.45C1034.85,-162.16 1282.89,-145.01 1312.5,-118 1333.74,-98.63 1335.71,-63.12 1334.56,-41"/>
<polygon fill="#63b8ff" stroke="#63b8ff" points="902.81,-165.96 893.02,-170 903.19,-172.95 902.81,-165.96"/>
</a>
</g>
</g>
<!-- Node13 -->
<g id="Node000013" class="node">
<title>Node13</title>
<g id="a_Node000013"><a xlink:href="tuple__map__attribute__io_8cpp.html" target="_top" xlink:title=" ">
<polygon fill="white" stroke="#666666" points="1504,-118 1361,-118 1361,-77 1504,-77 1504,-118"/>
<text text-anchor="start" x="1369" y="-106" font-family="Helvetica,sans-Serif" font-size="10.00">src/wmtk/multimesh</text>
<text text-anchor="start" x="1369" y="-95" font-family="Helvetica,sans-Serif" font-size="10.00">/utils/tuple_map_attribute</text>
<text text-anchor="middle" x="1432.5" y="-84" font-family="Helvetica,sans-Serif" font-size="10.00">_io.cpp</text>
</a>
</g>
</g>
<!-- Node1&#45;&gt;Node13 -->
<g id="edge13_Node000001_Node000013" class="edge">
<title>Node1&#45;&gt;Node13</title>
<g id="a_edge13_Node000001_Node000013"><a xlink:title=" ">
<path fill="none" stroke="#63b8ff" d="M903.27,-167.85C1006.88,-160.01 1190.74,-143.8 1346.5,-118 1351.18,-117.22 1355.99,-116.35 1360.83,-115.41"/>
<polygon fill="#63b8ff" stroke="#63b8ff" points="902.9,-164.37 893.19,-168.61 903.42,-171.35 902.9,-164.37"/>
</a>
</g>
</g>
<!-- Node10&#45;&gt;Node7 -->
<g id="edge10_Node000010_Node000007" class="edge">
<title>Node10&#45;&gt;Node7</title>
<g id="a_edge10_Node000010_Node000007"><a xlink:title=" ">
<path fill="none" stroke="#63b8ff" d="M1159.11,-76.91C1095.59,-61.17 1033.94,-46.2 990.11,-35.61"/>
<polygon fill="#63b8ff" stroke="#63b8ff" points="1158.35,-80.33 1168.9,-79.34 1160.04,-73.54 1158.35,-80.33"/>
</a>
</g>
</g>
<!-- Node11 -->
<g id="Node000011" class="node">
<title>Node11</title>
<g id="a_Node000011"><a xlink:href="_operation_8cpp.html" target="_top" xlink:title=" ">
<polygon fill="white" stroke="#666666" points="1238.5,-35.5 1122.5,-35.5 1122.5,-5.5 1238.5,-5.5 1238.5,-35.5"/>
<text text-anchor="start" x="1130.5" y="-23.5" font-family="Helvetica,sans-Serif" font-size="10.00">src/wmtk/operations</text>
<text text-anchor="middle" x="1180.5" y="-12.5" font-family="Helvetica,sans-Serif" font-size="10.00">/Operation.cpp</text>
</a>
</g>
</g>
<!-- Node10&#45;&gt;Node11 -->
<g id="edge11_Node000010_Node000011" class="edge">
<title>Node10&#45;&gt;Node11</title>
<g id="a_edge11_Node000010_Node000011"><a xlink:title=" ">
<path fill="none" stroke="#63b8ff" d="M1215.66,-68.59C1207.35,-57.46 1198.13,-45.12 1191.22,-35.86"/>
<polygon fill="#63b8ff" stroke="#63b8ff" points="1213,-70.88 1221.79,-76.79 1218.61,-66.69 1213,-70.88"/>
</a>
</g>
</g>
<!-- Node10&#45;&gt;Node12 -->
<g id="edge12_Node000010_Node000012" class="edge">
<title>Node10&#45;&gt;Node12</title>
<g id="a_edge12_Node000010_Node000012"><a xlink:title=" ">
<path fill="none" stroke="#63b8ff" d="M1269.38,-70.82C1281.79,-61.11 1295.72,-50.24 1307.32,-41.17"/>
<polygon fill="#63b8ff" stroke="#63b8ff" points="1267.2,-68.08 1261.47,-76.99 1271.51,-73.59 1267.2,-68.08"/>
</a>
</g>
</g>
</g>
</svg>

<g id="navigator" transform="translate(0 0)" fill="#404254">
  <rect fill="#f2f5e9" fill-opacity="0.5" stroke="#606060" stroke-width=".5" x="0" y="0" width="60" height="60"/>
  <use id="zoomplus" xlink:href="#zoomPlus" x="17" y="9" onmousedown="handleZoom(evt,'in')"/>
  <use id="zoomminus" xlink:href="#zoomMin" x="42" y="9" onmousedown="handleZoom(evt,'out')"/>
  <use id="reset" xlink:href="#resetDef" x="30" y="36" onmousedown="handleReset()"/>
   <use id="arrowup" xlink:href="#arrowUp" x="0" y="0" onmousedown="handlePan(0,-1)"/>
  <use id="arrowright" xlink:href="#arrowRight" x="0" y="0" onmousedown="handlePan(1,0)"/>
  <use id="arrowdown" xlink:href="#arrowDown" x="0" y="0" onmousedown="handlePan(0,1)"/>
  <use id="arrowleft" xlink:href="#arrowLeft" x="0" y="0" onmousedown="handlePan(-1,0)"/>
</g>
<svg viewBox="0 0 15 15" width="100%" height="30px" preserveAspectRatio="xMaxYMin meet">
 <g id="arrow_out" transform="scale(0.3 0.3)">
  <a xlink:href="tuple__map__attribute__io_8hpp__dep__incl_org.svg" target="_base">
   <rect id="button" ry="5" rx="5" y="6" x="6" height="38" width="38"
        fill="#f2f5e9" fill-opacity="0.5" stroke="#606060" stroke-width="1.0"/>
   <path id="arrow"
     d="M 11.500037,31.436501 C 11.940474,20.09759 22.043105,11.32322 32.158766,21.979434 L 37.068811,17.246167 C 37.068811,17.246167 37.088388,32 37.088388,32 L 22.160133,31.978069 C 22.160133,31.978069 26.997745,27.140456 26.997745,27.140456 C 18.528582,18.264221 13.291696,25.230495 11.500037,31.436501 z"
     style="fill:#404040;"/>
  </a>
 </g>
</svg>

<style type='text/css'>
<![CDATA[
[data-mouse-over-selected='false'] { opacity: 0.7; }
[data-mouse-over-selected='true']  { opacity: 1.0; }
]]>
</style>
<script type="application/ecmascript"><![CDATA[
document.addEventListener('DOMContentLoaded', (event) => {
  highlightEdges();
  highlightAdjacentNodes();
});
]]></script>
</svg>
