<?xml version="1.0" encoding="UTF-8" standalone="no"?>
<!DOCTYPE svg PUBLIC "-//W3C//DTD SVG 1.1//EN"
 "http://www.w3.org/Graphics/SVG/1.1/DTD/svg11.dtd">
<!-- Generated by graphviz version 2.43.0 (0)
 -->
<!-- Title: src/wmtk/utils/verify_simplex_index_valences.hpp Pages: 1 -->
<svg width="314pt" height="115pt"
 viewBox="0.00 0.00 313.50 115.00" xmlns="http://www.w3.org/2000/svg" xmlns:xlink="http://www.w3.org/1999/xlink">
<g id="graph0" class="graph" transform="scale(1 1) rotate(0) translate(4 111)">
<title>src/wmtk/utils/verify_simplex_index_valences.hpp</title>
<!-- Node1 -->
<g id="Node000001" class="node">
<title>Node1</title>
<g id="a_Node000001"><a xlink:title=" ">
<polygon fill="#999999" stroke="#666666" points="231.5,-107 68.5,-107 68.5,-77 231.5,-77 231.5,-107"/>
<text text-anchor="start" x="76.5" y="-95" font-family="Helvetica,sans-Serif" font-size="10.00">src/wmtk/utils/verify</text>
<text text-anchor="middle" x="150" y="-84" font-family="Helvetica,sans-Serif" font-size="10.00">_simplex_index_valences.hpp</text>
</a>
</g>
</g>
<!-- Node2 -->
<g id="Node000002" class="node">
<title>Node2</title>
<g id="a_Node000002"><a xlink:href="src_2wmtk_2components_2input_2input_8cpp.html" target="_top" xlink:title=" ">
<polygon fill="white" stroke="#666666" points="138,-41 0,-41 0,0 138,0 138,-41"/>
<text text-anchor="start" x="8" y="-29" font-family="Helvetica,sans-Serif" font-size="10.00">components/input/src</text>
<text text-anchor="start" x="8" y="-18" font-family="Helvetica,sans-Serif" font-size="10.00">/wmtk/components/input</text>
<text text-anchor="middle" x="69" y="-7" font-family="Helvetica,sans-Serif" font-size="10.00">/input.cpp</text>
</a>
</g>
</g>
<!-- Node1&#45;&gt;Node2 -->
<g id="edge1_Node000001_Node000002" class="edge">
<title>Node1&#45;&gt;Node2</title>
<g id="a_edge1_Node000001_Node000002"><a xlink:title=" ">
<path fill="none" stroke="#63b8ff" d="M125.8,-70.23C115.03,-60.99 102.41,-50.17 91.81,-41.07"/>
<polygon fill="#63b8ff" stroke="#63b8ff" points="123.74,-73.08 133.61,-76.94 128.3,-67.77 123.74,-73.08"/>
</a>
</g>
</g>
<!-- Node3 -->
<g id="Node000003" class="node">
<title>Node3</title>
<g id="a_Node000003"><a xlink:href="validate_8cpp.html" target="_top" xlink:title=" ">
<polygon fill="white" stroke="#666666" points="305.5,-30 156.5,-30 156.5,-11 305.5,-11 305.5,-30"/>
<text text-anchor="middle" x="231" y="-18" font-family="Helvetica,sans-Serif" font-size="10.00">src/wmtk/utils/validate.cpp</text>
</a>
</g>
</g>
<!-- Node1&#45;&gt;Node3 -->
<g id="edge2_Node000001_Node000003" class="edge">
<title>Node1&#45;&gt;Node3</title>
<g id="a_edge2_Node000001_Node000003"><a xlink:title=" ">
<path fill="none" stroke="#63b8ff" d="M174.12,-70.31C189.68,-56.95 209.13,-40.26 220.78,-30.27"/>
<polygon fill="#63b8ff" stroke="#63b8ff" points="171.7,-67.77 166.39,-76.94 176.26,-73.08 171.7,-67.77"/>
</a>
</g>
</g>
</g>
</svg>
